G04 #@! TF.GenerationSoftware,KiCad,Pcbnew,(5.1.6)-1*
G04 #@! TF.CreationDate,2020-07-14T17:50:17-07:00*
G04 #@! TF.ProjectId,Mycroft - Mark 2,4d796372-6f66-4742-902d-204d61726b20,rev?*
G04 #@! TF.SameCoordinates,Original*
G04 #@! TF.FileFunction,Legend,Top*
G04 #@! TF.FilePolarity,Positive*
%FSLAX46Y46*%
G04 Gerber Fmt 4.6, Leading zero omitted, Abs format (unit mm)*
G04 Created by KiCad (PCBNEW (5.1.6)-1) date 2020-07-14 17:50:17*
%MOMM*%
%LPD*%
G01*
G04 APERTURE LIST*
%ADD10C,0.100000*%
%ADD11C,0.150000*%
%ADD12C,0.120000*%
%ADD13C,0.200000*%
%ADD14C,0.127000*%
%ADD15C,0.066040*%
%ADD16C,0.152400*%
%ADD17C,0.050000*%
G04 APERTURE END LIST*
D10*
X65449314Y-43658285D02*
X65092171Y-43658285D01*
X65056457Y-44015428D01*
X65092171Y-43979714D01*
X65163600Y-43944000D01*
X65342171Y-43944000D01*
X65413600Y-43979714D01*
X65449314Y-44015428D01*
X65485028Y-44086857D01*
X65485028Y-44265428D01*
X65449314Y-44336857D01*
X65413600Y-44372571D01*
X65342171Y-44408285D01*
X65163600Y-44408285D01*
X65092171Y-44372571D01*
X65056457Y-44336857D01*
X65699314Y-43658285D02*
X65949314Y-44408285D01*
X66199314Y-43658285D01*
X67020742Y-44408285D02*
X67020742Y-43658285D01*
X67306457Y-43658285D01*
X67377885Y-43694000D01*
X67413600Y-43729714D01*
X67449314Y-43801142D01*
X67449314Y-43908285D01*
X67413600Y-43979714D01*
X67377885Y-44015428D01*
X67306457Y-44051142D01*
X67020742Y-44051142D01*
X67877885Y-44408285D02*
X67806457Y-44372571D01*
X67770742Y-44336857D01*
X67735028Y-44265428D01*
X67735028Y-44051142D01*
X67770742Y-43979714D01*
X67806457Y-43944000D01*
X67877885Y-43908285D01*
X67985028Y-43908285D01*
X68056457Y-43944000D01*
X68092171Y-43979714D01*
X68127885Y-44051142D01*
X68127885Y-44265428D01*
X68092171Y-44336857D01*
X68056457Y-44372571D01*
X67985028Y-44408285D01*
X67877885Y-44408285D01*
X68377885Y-43908285D02*
X68520742Y-44408285D01*
X68663600Y-44051142D01*
X68806457Y-44408285D01*
X68949314Y-43908285D01*
X69520742Y-44372571D02*
X69449314Y-44408285D01*
X69306457Y-44408285D01*
X69235028Y-44372571D01*
X69199314Y-44301142D01*
X69199314Y-44015428D01*
X69235028Y-43944000D01*
X69306457Y-43908285D01*
X69449314Y-43908285D01*
X69520742Y-43944000D01*
X69556457Y-44015428D01*
X69556457Y-44086857D01*
X69199314Y-44158285D01*
X69877885Y-44408285D02*
X69877885Y-43908285D01*
X69877885Y-44051142D02*
X69913600Y-43979714D01*
X69949314Y-43944000D01*
X70020742Y-43908285D01*
X70092171Y-43908285D01*
X25088859Y-8146620D02*
X25492920Y-8550681D01*
X25088859Y-8550681D02*
X25492920Y-8146620D01*
X26023250Y-8424412D02*
X26351549Y-8752712D01*
X25972742Y-8777965D01*
X26048504Y-8853727D01*
X26073757Y-8929488D01*
X26073757Y-8979996D01*
X26048504Y-9055757D01*
X25922234Y-9182026D01*
X25846473Y-9207280D01*
X25795965Y-9207280D01*
X25720204Y-9182026D01*
X25568681Y-9030504D01*
X25543427Y-8954742D01*
X25543427Y-8904234D01*
X26099011Y-9459818D02*
X26099011Y-9510326D01*
X26048504Y-9510326D01*
X26048504Y-9459818D01*
X26099011Y-9459818D01*
X26048504Y-9510326D01*
X26780864Y-9182026D02*
X27109164Y-9510326D01*
X26730356Y-9535580D01*
X26806118Y-9611341D01*
X26831372Y-9687103D01*
X26831372Y-9737610D01*
X26806118Y-9813372D01*
X26679849Y-9939641D01*
X26604087Y-9964895D01*
X26553580Y-9964895D01*
X26477818Y-9939641D01*
X26326295Y-9788118D01*
X26301042Y-9712356D01*
X26301042Y-9661849D01*
X27260687Y-9661849D02*
X26907133Y-10368956D01*
X27614240Y-10015402D01*
X27382628Y-15093600D02*
X27311200Y-15057885D01*
X27204057Y-15057885D01*
X27096914Y-15093600D01*
X27025485Y-15165028D01*
X26989771Y-15236457D01*
X26954057Y-15379314D01*
X26954057Y-15486457D01*
X26989771Y-15629314D01*
X27025485Y-15700742D01*
X27096914Y-15772171D01*
X27204057Y-15807885D01*
X27275485Y-15807885D01*
X27382628Y-15772171D01*
X27418342Y-15736457D01*
X27418342Y-15486457D01*
X27275485Y-15486457D01*
X27739771Y-15807885D02*
X27739771Y-15057885D01*
X28168342Y-15807885D01*
X28168342Y-15057885D01*
X28525485Y-15807885D02*
X28525485Y-15057885D01*
X28704057Y-15057885D01*
X28811200Y-15093600D01*
X28882628Y-15165028D01*
X28918342Y-15236457D01*
X28954057Y-15379314D01*
X28954057Y-15486457D01*
X28918342Y-15629314D01*
X28882628Y-15700742D01*
X28811200Y-15772171D01*
X28704057Y-15807885D01*
X28525485Y-15807885D01*
X29846914Y-15807885D02*
X29846914Y-15057885D01*
X30132628Y-15057885D01*
X30204057Y-15093600D01*
X30239771Y-15129314D01*
X30275485Y-15200742D01*
X30275485Y-15307885D01*
X30239771Y-15379314D01*
X30204057Y-15415028D01*
X30132628Y-15450742D01*
X29846914Y-15450742D01*
X30489771Y-15057885D02*
X30739771Y-15807885D01*
X30989771Y-15057885D01*
X31239771Y-15807885D02*
X31239771Y-15057885D01*
X31418342Y-15057885D01*
X31525485Y-15093600D01*
X31596914Y-15165028D01*
X31632628Y-15236457D01*
X31668342Y-15379314D01*
X31668342Y-15486457D01*
X31632628Y-15629314D01*
X31596914Y-15700742D01*
X31525485Y-15772171D01*
X31418342Y-15807885D01*
X31239771Y-15807885D01*
X31989771Y-15807885D02*
X31989771Y-15057885D01*
X32168342Y-15057885D01*
X32275485Y-15093600D01*
X32346914Y-15165028D01*
X32382628Y-15236457D01*
X32418342Y-15379314D01*
X32418342Y-15486457D01*
X32382628Y-15629314D01*
X32346914Y-15700742D01*
X32275485Y-15772171D01*
X32168342Y-15807885D01*
X31989771Y-15807885D01*
X27120400Y-5895571D02*
X27691828Y-5895571D01*
X27406114Y-6181285D02*
X27406114Y-5609857D01*
X28406114Y-5431285D02*
X28048971Y-5431285D01*
X28013257Y-5788428D01*
X28048971Y-5752714D01*
X28120400Y-5717000D01*
X28298971Y-5717000D01*
X28370400Y-5752714D01*
X28406114Y-5788428D01*
X28441828Y-5859857D01*
X28441828Y-6038428D01*
X28406114Y-6109857D01*
X28370400Y-6145571D01*
X28298971Y-6181285D01*
X28120400Y-6181285D01*
X28048971Y-6145571D01*
X28013257Y-6109857D01*
X28656114Y-5431285D02*
X28906114Y-6181285D01*
X29156114Y-5431285D01*
X29977542Y-5895571D02*
X30548971Y-5895571D01*
X30263257Y-6181285D02*
X30263257Y-5609857D01*
X31298971Y-6181285D02*
X30870400Y-6181285D01*
X31084685Y-6181285D02*
X31084685Y-5431285D01*
X31013257Y-5538428D01*
X30941828Y-5609857D01*
X30870400Y-5645571D01*
X31584685Y-5502714D02*
X31620400Y-5467000D01*
X31691828Y-5431285D01*
X31870400Y-5431285D01*
X31941828Y-5467000D01*
X31977542Y-5502714D01*
X32013257Y-5574142D01*
X32013257Y-5645571D01*
X31977542Y-5752714D01*
X31548971Y-6181285D01*
X32013257Y-6181285D01*
X32227542Y-5431285D02*
X32477542Y-6181285D01*
X32727542Y-5431285D01*
D11*
X14549380Y-54116857D02*
X14073190Y-54450190D01*
X14549380Y-54688285D02*
X13549380Y-54688285D01*
X13549380Y-54307333D01*
X13597000Y-54212095D01*
X13644619Y-54164476D01*
X13739857Y-54116857D01*
X13882714Y-54116857D01*
X13977952Y-54164476D01*
X14025571Y-54212095D01*
X14073190Y-54307333D01*
X14073190Y-54688285D01*
X14549380Y-53259714D02*
X14025571Y-53259714D01*
X13930333Y-53307333D01*
X13882714Y-53402571D01*
X13882714Y-53593047D01*
X13930333Y-53688285D01*
X14501761Y-53259714D02*
X14549380Y-53354952D01*
X14549380Y-53593047D01*
X14501761Y-53688285D01*
X14406523Y-53735904D01*
X14311285Y-53735904D01*
X14216047Y-53688285D01*
X14168428Y-53593047D01*
X14168428Y-53354952D01*
X14120809Y-53259714D01*
X14501761Y-52831142D02*
X14549380Y-52735904D01*
X14549380Y-52545428D01*
X14501761Y-52450190D01*
X14406523Y-52402571D01*
X14358904Y-52402571D01*
X14263666Y-52450190D01*
X14216047Y-52545428D01*
X14216047Y-52688285D01*
X14168428Y-52783523D01*
X14073190Y-52831142D01*
X14025571Y-52831142D01*
X13930333Y-52783523D01*
X13882714Y-52688285D01*
X13882714Y-52545428D01*
X13930333Y-52450190D01*
X13882714Y-51974000D02*
X14882714Y-51974000D01*
X13930333Y-51974000D02*
X13882714Y-51878761D01*
X13882714Y-51688285D01*
X13930333Y-51593047D01*
X13977952Y-51545428D01*
X14073190Y-51497809D01*
X14358904Y-51497809D01*
X14454142Y-51545428D01*
X14501761Y-51593047D01*
X14549380Y-51688285D01*
X14549380Y-51878761D01*
X14501761Y-51974000D01*
X14549380Y-51069238D02*
X13549380Y-51069238D01*
X13930333Y-51069238D02*
X13882714Y-50974000D01*
X13882714Y-50783523D01*
X13930333Y-50688285D01*
X13977952Y-50640666D01*
X14073190Y-50593047D01*
X14358904Y-50593047D01*
X14454142Y-50640666D01*
X14501761Y-50688285D01*
X14549380Y-50783523D01*
X14549380Y-50974000D01*
X14501761Y-51069238D01*
X14501761Y-49783523D02*
X14549380Y-49878761D01*
X14549380Y-50069238D01*
X14501761Y-50164476D01*
X14406523Y-50212095D01*
X14025571Y-50212095D01*
X13930333Y-50164476D01*
X13882714Y-50069238D01*
X13882714Y-49878761D01*
X13930333Y-49783523D01*
X14025571Y-49735904D01*
X14120809Y-49735904D01*
X14216047Y-50212095D01*
X14549380Y-49307333D02*
X13882714Y-49307333D01*
X14073190Y-49307333D02*
X13977952Y-49259714D01*
X13930333Y-49212095D01*
X13882714Y-49116857D01*
X13882714Y-49021619D01*
X14549380Y-48688285D02*
X13882714Y-48688285D01*
X14073190Y-48688285D02*
X13977952Y-48640666D01*
X13930333Y-48593047D01*
X13882714Y-48497809D01*
X13882714Y-48402571D01*
X13882714Y-48164476D02*
X14549380Y-47926380D01*
X13882714Y-47688285D02*
X14549380Y-47926380D01*
X14787476Y-48021619D01*
X14835095Y-48069238D01*
X14882714Y-48164476D01*
X14549380Y-46545428D02*
X13549380Y-46545428D01*
X13549380Y-46164476D01*
X13597000Y-46069238D01*
X13644619Y-46021619D01*
X13739857Y-45974000D01*
X13882714Y-45974000D01*
X13977952Y-46021619D01*
X14025571Y-46069238D01*
X14073190Y-46164476D01*
X14073190Y-46545428D01*
X14549380Y-45545428D02*
X13882714Y-45545428D01*
X13549380Y-45545428D02*
X13597000Y-45593047D01*
X13644619Y-45545428D01*
X13597000Y-45497809D01*
X13549380Y-45545428D01*
X13644619Y-45545428D01*
X14454142Y-43735904D02*
X14501761Y-43783523D01*
X14549380Y-43926380D01*
X14549380Y-44021619D01*
X14501761Y-44164476D01*
X14406523Y-44259714D01*
X14311285Y-44307333D01*
X14120809Y-44354952D01*
X13977952Y-44354952D01*
X13787476Y-44307333D01*
X13692238Y-44259714D01*
X13597000Y-44164476D01*
X13549380Y-44021619D01*
X13549380Y-43926380D01*
X13597000Y-43783523D01*
X13644619Y-43735904D01*
X14549380Y-43164476D02*
X14501761Y-43259714D01*
X14454142Y-43307333D01*
X14358904Y-43354952D01*
X14073190Y-43354952D01*
X13977952Y-43307333D01*
X13930333Y-43259714D01*
X13882714Y-43164476D01*
X13882714Y-43021619D01*
X13930333Y-42926380D01*
X13977952Y-42878761D01*
X14073190Y-42831142D01*
X14358904Y-42831142D01*
X14454142Y-42878761D01*
X14501761Y-42926380D01*
X14549380Y-43021619D01*
X14549380Y-43164476D01*
X13882714Y-42402571D02*
X14549380Y-42402571D01*
X13977952Y-42402571D02*
X13930333Y-42354952D01*
X13882714Y-42259714D01*
X13882714Y-42116857D01*
X13930333Y-42021619D01*
X14025571Y-41974000D01*
X14549380Y-41974000D01*
X13882714Y-41497809D02*
X14549380Y-41497809D01*
X13977952Y-41497809D02*
X13930333Y-41450190D01*
X13882714Y-41354952D01*
X13882714Y-41212095D01*
X13930333Y-41116857D01*
X14025571Y-41069238D01*
X14549380Y-41069238D01*
X14501761Y-40212095D02*
X14549380Y-40307333D01*
X14549380Y-40497809D01*
X14501761Y-40593047D01*
X14406523Y-40640666D01*
X14025571Y-40640666D01*
X13930333Y-40593047D01*
X13882714Y-40497809D01*
X13882714Y-40307333D01*
X13930333Y-40212095D01*
X14025571Y-40164476D01*
X14120809Y-40164476D01*
X14216047Y-40640666D01*
X14501761Y-39307333D02*
X14549380Y-39402571D01*
X14549380Y-39593047D01*
X14501761Y-39688285D01*
X14454142Y-39735904D01*
X14358904Y-39783523D01*
X14073190Y-39783523D01*
X13977952Y-39735904D01*
X13930333Y-39688285D01*
X13882714Y-39593047D01*
X13882714Y-39402571D01*
X13930333Y-39307333D01*
X13882714Y-39021619D02*
X13882714Y-38640666D01*
X13549380Y-38878761D02*
X14406523Y-38878761D01*
X14501761Y-38831142D01*
X14549380Y-38735904D01*
X14549380Y-38640666D01*
X14549380Y-38164476D02*
X14501761Y-38259714D01*
X14454142Y-38307333D01*
X14358904Y-38354952D01*
X14073190Y-38354952D01*
X13977952Y-38307333D01*
X13930333Y-38259714D01*
X13882714Y-38164476D01*
X13882714Y-38021619D01*
X13930333Y-37926380D01*
X13977952Y-37878761D01*
X14073190Y-37831142D01*
X14358904Y-37831142D01*
X14454142Y-37878761D01*
X14501761Y-37926380D01*
X14549380Y-38021619D01*
X14549380Y-38164476D01*
X14549380Y-37402571D02*
X13882714Y-37402571D01*
X14073190Y-37402571D02*
X13977952Y-37354952D01*
X13930333Y-37307333D01*
X13882714Y-37212095D01*
X13882714Y-37116857D01*
X51173571Y-90947619D02*
X51173571Y-90614285D01*
X51697380Y-90471428D02*
X51697380Y-90947619D01*
X50697380Y-90947619D01*
X50697380Y-90471428D01*
X51697380Y-90138095D02*
X51030714Y-89614285D01*
X51030714Y-90138095D02*
X51697380Y-89614285D01*
X51030714Y-89376190D02*
X51030714Y-88995238D01*
X50697380Y-89233333D02*
X51554523Y-89233333D01*
X51649761Y-89185714D01*
X51697380Y-89090476D01*
X51697380Y-88995238D01*
X51697380Y-88661904D02*
X51030714Y-88661904D01*
X51221190Y-88661904D02*
X51125952Y-88614285D01*
X51078333Y-88566666D01*
X51030714Y-88471428D01*
X51030714Y-88376190D01*
X51697380Y-87614285D02*
X51173571Y-87614285D01*
X51078333Y-87661904D01*
X51030714Y-87757142D01*
X51030714Y-87947619D01*
X51078333Y-88042857D01*
X51649761Y-87614285D02*
X51697380Y-87709523D01*
X51697380Y-87947619D01*
X51649761Y-88042857D01*
X51554523Y-88090476D01*
X51459285Y-88090476D01*
X51364047Y-88042857D01*
X51316428Y-87947619D01*
X51316428Y-87709523D01*
X51268809Y-87614285D01*
X52347380Y-92090476D02*
X53156904Y-92090476D01*
X53252142Y-92042857D01*
X53299761Y-91995238D01*
X53347380Y-91900000D01*
X53347380Y-91709523D01*
X53299761Y-91614285D01*
X53252142Y-91566666D01*
X53156904Y-91519047D01*
X52347380Y-91519047D01*
X53299761Y-91090476D02*
X53347380Y-90947619D01*
X53347380Y-90709523D01*
X53299761Y-90614285D01*
X53252142Y-90566666D01*
X53156904Y-90519047D01*
X53061666Y-90519047D01*
X52966428Y-90566666D01*
X52918809Y-90614285D01*
X52871190Y-90709523D01*
X52823571Y-90900000D01*
X52775952Y-90995238D01*
X52728333Y-91042857D01*
X52633095Y-91090476D01*
X52537857Y-91090476D01*
X52442619Y-91042857D01*
X52395000Y-90995238D01*
X52347380Y-90900000D01*
X52347380Y-90661904D01*
X52395000Y-90519047D01*
X52823571Y-89757142D02*
X52871190Y-89614285D01*
X52918809Y-89566666D01*
X53014047Y-89519047D01*
X53156904Y-89519047D01*
X53252142Y-89566666D01*
X53299761Y-89614285D01*
X53347380Y-89709523D01*
X53347380Y-90090476D01*
X52347380Y-90090476D01*
X52347380Y-89757142D01*
X52395000Y-89661904D01*
X52442619Y-89614285D01*
X52537857Y-89566666D01*
X52633095Y-89566666D01*
X52728333Y-89614285D01*
X52775952Y-89661904D01*
X52823571Y-89757142D01*
X52823571Y-90090476D01*
X53347380Y-88328571D02*
X52347380Y-88328571D01*
X52347380Y-87947619D01*
X52395000Y-87852380D01*
X52442619Y-87804761D01*
X52537857Y-87757142D01*
X52680714Y-87757142D01*
X52775952Y-87804761D01*
X52823571Y-87852380D01*
X52871190Y-87947619D01*
X52871190Y-88328571D01*
X53347380Y-87185714D02*
X53299761Y-87280952D01*
X53252142Y-87328571D01*
X53156904Y-87376190D01*
X52871190Y-87376190D01*
X52775952Y-87328571D01*
X52728333Y-87280952D01*
X52680714Y-87185714D01*
X52680714Y-87042857D01*
X52728333Y-86947619D01*
X52775952Y-86900000D01*
X52871190Y-86852380D01*
X53156904Y-86852380D01*
X53252142Y-86900000D01*
X53299761Y-86947619D01*
X53347380Y-87042857D01*
X53347380Y-87185714D01*
X53347380Y-86423809D02*
X52680714Y-86423809D01*
X52871190Y-86423809D02*
X52775952Y-86376190D01*
X52728333Y-86328571D01*
X52680714Y-86233333D01*
X52680714Y-86138095D01*
X52680714Y-85947619D02*
X52680714Y-85566666D01*
X52347380Y-85804761D02*
X53204523Y-85804761D01*
X53299761Y-85757142D01*
X53347380Y-85661904D01*
X53347380Y-85566666D01*
D12*
X-148440Y-14649760D02*
X8481560Y-14649760D01*
X-148440Y-14767855D02*
X8481560Y-14767855D01*
X-148440Y-14885950D02*
X8481560Y-14885950D01*
X-148440Y-15004045D02*
X8481560Y-15004045D01*
X-148440Y-15122140D02*
X8481560Y-15122140D01*
X-148440Y-15240235D02*
X8481560Y-15240235D01*
X-148440Y-15358330D02*
X8481560Y-15358330D01*
X-148440Y-15476425D02*
X8481560Y-15476425D01*
X-148440Y-15594520D02*
X8481560Y-15594520D01*
X-148440Y-15712615D02*
X8481560Y-15712615D01*
X-148440Y-15830710D02*
X8481560Y-15830710D01*
X-148440Y-15948805D02*
X8481560Y-15948805D01*
X-148440Y-16066900D02*
X8481560Y-16066900D01*
X-148440Y-16184995D02*
X8481560Y-16184995D01*
X-148440Y-16303090D02*
X8481560Y-16303090D01*
X-148440Y-16421185D02*
X8481560Y-16421185D01*
X-148440Y-16539280D02*
X8481560Y-16539280D01*
X-148440Y-16657375D02*
X8481560Y-16657375D01*
X-148440Y-16775470D02*
X8481560Y-16775470D01*
X-148440Y-16893565D02*
X8481560Y-16893565D01*
X-148440Y-17011660D02*
X8481560Y-17011660D01*
X8481560Y-15499760D02*
X8891560Y-15499760D01*
X10991560Y-15499760D02*
X11371560Y-15499760D01*
X8481560Y-16219760D02*
X8891560Y-16219760D01*
X10991560Y-16219760D02*
X11371560Y-16219760D01*
X8481560Y-18039760D02*
X8891560Y-18039760D01*
X10991560Y-18039760D02*
X11431560Y-18039760D01*
X8481560Y-18759760D02*
X8891560Y-18759760D01*
X10991560Y-18759760D02*
X11431560Y-18759760D01*
X8481560Y-20579760D02*
X8891560Y-20579760D01*
X10991560Y-20579760D02*
X11431560Y-20579760D01*
X8481560Y-21299760D02*
X8891560Y-21299760D01*
X10991560Y-21299760D02*
X11431560Y-21299760D01*
X8481560Y-23119760D02*
X8891560Y-23119760D01*
X10991560Y-23119760D02*
X11431560Y-23119760D01*
X8481560Y-23839760D02*
X8891560Y-23839760D01*
X10991560Y-23839760D02*
X11431560Y-23839760D01*
X8481560Y-25659760D02*
X8891560Y-25659760D01*
X10991560Y-25659760D02*
X11431560Y-25659760D01*
X8481560Y-26379760D02*
X8891560Y-26379760D01*
X10991560Y-26379760D02*
X11431560Y-26379760D01*
X8481560Y-28199760D02*
X8891560Y-28199760D01*
X10991560Y-28199760D02*
X11431560Y-28199760D01*
X8481560Y-28919760D02*
X8891560Y-28919760D01*
X10991560Y-28919760D02*
X11431560Y-28919760D01*
X8481560Y-30739760D02*
X8891560Y-30739760D01*
X10991560Y-30739760D02*
X11431560Y-30739760D01*
X8481560Y-31459760D02*
X8891560Y-31459760D01*
X10991560Y-31459760D02*
X11431560Y-31459760D01*
X8481560Y-33279760D02*
X8891560Y-33279760D01*
X10991560Y-33279760D02*
X11431560Y-33279760D01*
X8481560Y-33999760D02*
X8891560Y-33999760D01*
X10991560Y-33999760D02*
X11431560Y-33999760D01*
X8481560Y-35819760D02*
X8891560Y-35819760D01*
X10991560Y-35819760D02*
X11431560Y-35819760D01*
X8481560Y-36539760D02*
X8891560Y-36539760D01*
X10991560Y-36539760D02*
X11431560Y-36539760D01*
X8481560Y-38359760D02*
X8891560Y-38359760D01*
X10991560Y-38359760D02*
X11431560Y-38359760D01*
X8481560Y-39079760D02*
X8891560Y-39079760D01*
X10991560Y-39079760D02*
X11431560Y-39079760D01*
X8481560Y-40899760D02*
X8891560Y-40899760D01*
X10991560Y-40899760D02*
X11431560Y-40899760D01*
X8481560Y-41619760D02*
X8891560Y-41619760D01*
X10991560Y-41619760D02*
X11431560Y-41619760D01*
X8481560Y-43439760D02*
X8891560Y-43439760D01*
X10991560Y-43439760D02*
X11431560Y-43439760D01*
X8481560Y-44159760D02*
X8891560Y-44159760D01*
X10991560Y-44159760D02*
X11431560Y-44159760D01*
X8481560Y-45979760D02*
X8891560Y-45979760D01*
X10991560Y-45979760D02*
X11431560Y-45979760D01*
X8481560Y-46699760D02*
X8891560Y-46699760D01*
X10991560Y-46699760D02*
X11431560Y-46699760D01*
X8481560Y-48519760D02*
X8891560Y-48519760D01*
X10991560Y-48519760D02*
X11431560Y-48519760D01*
X8481560Y-49239760D02*
X8891560Y-49239760D01*
X10991560Y-49239760D02*
X11431560Y-49239760D01*
X8481560Y-51059760D02*
X8891560Y-51059760D01*
X10991560Y-51059760D02*
X11431560Y-51059760D01*
X8481560Y-51779760D02*
X8891560Y-51779760D01*
X10991560Y-51779760D02*
X11431560Y-51779760D01*
X8481560Y-53599760D02*
X8891560Y-53599760D01*
X10991560Y-53599760D02*
X11431560Y-53599760D01*
X8481560Y-54319760D02*
X8891560Y-54319760D01*
X10991560Y-54319760D02*
X11431560Y-54319760D01*
X8481560Y-56139760D02*
X8891560Y-56139760D01*
X10991560Y-56139760D02*
X11431560Y-56139760D01*
X8481560Y-56859760D02*
X8891560Y-56859760D01*
X10991560Y-56859760D02*
X11431560Y-56859760D01*
X8481560Y-58679760D02*
X8891560Y-58679760D01*
X10991560Y-58679760D02*
X11431560Y-58679760D01*
X8481560Y-59399760D02*
X8891560Y-59399760D01*
X10991560Y-59399760D02*
X11431560Y-59399760D01*
X8481560Y-61219760D02*
X8891560Y-61219760D01*
X10991560Y-61219760D02*
X11431560Y-61219760D01*
X8481560Y-61939760D02*
X8891560Y-61939760D01*
X10991560Y-61939760D02*
X11431560Y-61939760D01*
X8481560Y-63759760D02*
X8891560Y-63759760D01*
X10991560Y-63759760D02*
X11431560Y-63759760D01*
X8481560Y-64479760D02*
X8891560Y-64479760D01*
X10991560Y-64479760D02*
X11431560Y-64479760D01*
X-148440Y-17129760D02*
X8481560Y-17129760D01*
X-148440Y-19669760D02*
X8481560Y-19669760D01*
X-148440Y-22209760D02*
X8481560Y-22209760D01*
X-148440Y-24749760D02*
X8481560Y-24749760D01*
X-148440Y-27289760D02*
X8481560Y-27289760D01*
X-148440Y-29829760D02*
X8481560Y-29829760D01*
X-148440Y-32369760D02*
X8481560Y-32369760D01*
X-148440Y-34909760D02*
X8481560Y-34909760D01*
X-148440Y-37449760D02*
X8481560Y-37449760D01*
X-148440Y-39989760D02*
X8481560Y-39989760D01*
X-148440Y-42529760D02*
X8481560Y-42529760D01*
X-148440Y-45069760D02*
X8481560Y-45069760D01*
X-148440Y-47609760D02*
X8481560Y-47609760D01*
X-148440Y-50149760D02*
X8481560Y-50149760D01*
X-148440Y-52689760D02*
X8481560Y-52689760D01*
X-148440Y-55229760D02*
X8481560Y-55229760D01*
X-148440Y-57769760D02*
X8481560Y-57769760D01*
X-148440Y-60309760D02*
X8481560Y-60309760D01*
X-148440Y-62849760D02*
X8481560Y-62849760D01*
X-148440Y-14529760D02*
X8481560Y-14529760D01*
X8481560Y-14529760D02*
X8481560Y-65449760D01*
X-148440Y-65449760D02*
X8481560Y-65449760D01*
X-148440Y-14529760D02*
X-148440Y-65449760D01*
X13591560Y-14529760D02*
X13591560Y-15859760D01*
X12481560Y-14529760D02*
X13591560Y-14529760D01*
X19372800Y-92789200D02*
X19372800Y-93179200D01*
X19372800Y-92789200D02*
X19822800Y-92789200D01*
X24942800Y-93489200D02*
X24292800Y-93489200D01*
X24942800Y-95219200D02*
X24942800Y-93489200D01*
X17322800Y-97789200D02*
X17322800Y-97579200D01*
X24942800Y-97789200D02*
X24942800Y-97579200D01*
X17322800Y-95219200D02*
X17322800Y-93489200D01*
X17322800Y-93489200D02*
X17982800Y-93489200D01*
X42823400Y-27308600D02*
X42823400Y-32708600D01*
X39523400Y-27308600D02*
X39523400Y-32708600D01*
X42823400Y-27308600D02*
X39523400Y-27308600D01*
X38305400Y-26485200D02*
X39805400Y-26485200D01*
X39805400Y-26485200D02*
X39805400Y-25535200D01*
X39805400Y-25535200D02*
X44930400Y-25535200D01*
X38305400Y-16085200D02*
X39805400Y-16085200D01*
X39805400Y-16085200D02*
X39805400Y-17035200D01*
X39805400Y-17035200D02*
X40905400Y-17035200D01*
X27580000Y-28298000D02*
X23980000Y-28298000D01*
X23980000Y-28298000D02*
X23980000Y-41298000D01*
X23980000Y-41298000D02*
X27580000Y-41298000D01*
X33380000Y-28298000D02*
X36980000Y-28298000D01*
X36980000Y-28298000D02*
X36980000Y-41298000D01*
X36980000Y-41298000D02*
X33380000Y-41298000D01*
X15060000Y-5916000D02*
X15060000Y-9666000D01*
X15060000Y-16436000D02*
X15060000Y-12686000D01*
X24515563Y-16436000D02*
X15060000Y-16436000D01*
X24515563Y-5916000D02*
X15060000Y-5916000D01*
X25580000Y-6980437D02*
X25580000Y-9666000D01*
X25580000Y-15371563D02*
X25580000Y-12686000D01*
X25580000Y-15371563D02*
X24515563Y-16436000D01*
X25580000Y-6980437D02*
X24515563Y-5916000D01*
X27070000Y-13936000D02*
X25820000Y-13936000D01*
X26445000Y-14561000D02*
X26445000Y-13311000D01*
X4078200Y-94018100D02*
G75*
G03*
X4078200Y-94018100I-700000J0D01*
G01*
X36006200Y-87462000D02*
X37806200Y-87462000D01*
X37806200Y-84242000D02*
X35356200Y-84242000D01*
D10*
X36489900Y-77775800D02*
X36214900Y-77775800D01*
X36214900Y-77775800D02*
X35839900Y-78050800D01*
X35839900Y-78050800D02*
X35839900Y-78100800D01*
X35839900Y-78100800D02*
X35064900Y-78100800D01*
X36314900Y-81075800D02*
X35839900Y-81075800D01*
X35839900Y-81075800D02*
X35839900Y-80725800D01*
X37489900Y-80850800D02*
X37489900Y-80725800D01*
X37489900Y-80775800D02*
X37489900Y-81075800D01*
X37489900Y-81075800D02*
X37039900Y-81075800D01*
X37114900Y-77775800D02*
X37489900Y-77775800D01*
X37489900Y-77775800D02*
X37489900Y-78075800D01*
D12*
X32118200Y-92292500D02*
X29833200Y-92292500D01*
X29833200Y-92292500D02*
X29833200Y-93762500D01*
X29833200Y-93762500D02*
X32118200Y-93762500D01*
X27118000Y-14588800D02*
X32318000Y-14588800D01*
X27118000Y-9448800D02*
X27118000Y-14588800D01*
X32318000Y-6848800D02*
X32318000Y-14588800D01*
X27118000Y-9448800D02*
X29718000Y-9448800D01*
X29718000Y-9448800D02*
X29718000Y-6848800D01*
X29718000Y-6848800D02*
X32318000Y-6848800D01*
X27118000Y-8178800D02*
X27118000Y-6848800D01*
X27118000Y-6848800D02*
X28448000Y-6848800D01*
X43372000Y-8213600D02*
X41972000Y-8213600D01*
X41272000Y-7513600D02*
X41272000Y-6913600D01*
X41972000Y-6213600D02*
X43372000Y-6213600D01*
X44072000Y-6913600D02*
X44072000Y-7513600D01*
X44072000Y-7513600D02*
G75*
G02*
X43372000Y-8213600I-700000J0D01*
G01*
X43372000Y-6213600D02*
G75*
G02*
X44072000Y-6913600I0J-700000D01*
G01*
X41272000Y-6913600D02*
G75*
G02*
X41972000Y-6213600I700000J0D01*
G01*
X41972000Y-8213600D02*
G75*
G02*
X41272000Y-7513600I0J700000D01*
G01*
X21574979Y-39562500D02*
X21249421Y-39562500D01*
X21574979Y-38542500D02*
X21249421Y-38542500D01*
X50351600Y-53856800D02*
X50351600Y-56706800D01*
X50351600Y-62576800D02*
X50351600Y-59726800D01*
X58007163Y-62576800D02*
X50351600Y-62576800D01*
X58007163Y-53856800D02*
X50351600Y-53856800D01*
X59071600Y-54921237D02*
X59071600Y-56706800D01*
X59071600Y-61512363D02*
X59071600Y-59726800D01*
X59071600Y-61512363D02*
X58007163Y-62576800D01*
X59071600Y-54921237D02*
X58007163Y-53856800D01*
X60311600Y-60726800D02*
X59311600Y-60726800D01*
X59811600Y-61226800D02*
X59811600Y-60226800D01*
X59528800Y-18533200D02*
X59528800Y-15683200D01*
X59528800Y-9813200D02*
X59528800Y-12663200D01*
X51873237Y-9813200D02*
X59528800Y-9813200D01*
X51873237Y-18533200D02*
X59528800Y-18533200D01*
X50808800Y-17468763D02*
X50808800Y-15683200D01*
X50808800Y-10877637D02*
X50808800Y-12663200D01*
X50808800Y-10877637D02*
X51873237Y-9813200D01*
X50808800Y-17468763D02*
X51873237Y-18533200D01*
X49568800Y-11663200D02*
X50568800Y-11663200D01*
X50068800Y-11163200D02*
X50068800Y-12163200D01*
X61822400Y-22550622D02*
X61822400Y-23067778D01*
X60402400Y-22550622D02*
X60402400Y-23067778D01*
X52328578Y-41502400D02*
X51811422Y-41502400D01*
X52328578Y-40082400D02*
X51811422Y-40082400D01*
X60504000Y-28604978D02*
X60504000Y-28087822D01*
X61924000Y-28604978D02*
X61924000Y-28087822D01*
X61974800Y-32202622D02*
X61974800Y-32719778D01*
X60554800Y-32202622D02*
X60554800Y-32719778D01*
X60300800Y-19003778D02*
X60300800Y-18486622D01*
X61720800Y-19003778D02*
X61720800Y-18486622D01*
X64098400Y-38658800D02*
G75*
G03*
X64098400Y-38658800I-700000J0D01*
G01*
X59948578Y-49732000D02*
X59431422Y-49732000D01*
X59948578Y-48312000D02*
X59431422Y-48312000D01*
X56724800Y-76531200D02*
X56724800Y-79831200D01*
X56724800Y-79831200D02*
X60724800Y-79831200D01*
X32429200Y-64235600D02*
X32429200Y-60935600D01*
X32429200Y-60935600D02*
X28429200Y-60935600D01*
X15573200Y-96961200D02*
X12773200Y-96961200D01*
X12773200Y-96961200D02*
X12773200Y-94961200D01*
X12773200Y-94961200D02*
X15573200Y-94961200D01*
X15573200Y-94961200D02*
X15573200Y-96961200D01*
D13*
X72530600Y-54098800D02*
G75*
G03*
X72530600Y-54098800I-100000J0D01*
G01*
D14*
X62280600Y-58348800D02*
X62280600Y-57212300D01*
X62280600Y-47148800D02*
X62280600Y-53585300D01*
X62280600Y-47148800D02*
X71780600Y-47148800D01*
X71780600Y-58348800D02*
X62280600Y-58348800D01*
X71780600Y-47148800D02*
X71780600Y-58348800D01*
D12*
X67429600Y-41952400D02*
X65144600Y-41952400D01*
X65144600Y-41952400D02*
X65144600Y-43422400D01*
X65144600Y-43422400D02*
X67429600Y-43422400D01*
X43345000Y-80164000D02*
X41060000Y-80164000D01*
X41060000Y-80164000D02*
X41060000Y-81634000D01*
X41060000Y-81634000D02*
X43345000Y-81634000D01*
X43345000Y-78386000D02*
X41060000Y-78386000D01*
X41060000Y-78386000D02*
X41060000Y-79856000D01*
X41060000Y-79856000D02*
X43345000Y-79856000D01*
X44894500Y-81634000D02*
X47179500Y-81634000D01*
X47179500Y-81634000D02*
X47179500Y-80164000D01*
X47179500Y-80164000D02*
X44894500Y-80164000D01*
X44920000Y-79856000D02*
X47205000Y-79856000D01*
X47205000Y-79856000D02*
X47205000Y-78386000D01*
X47205000Y-78386000D02*
X44920000Y-78386000D01*
X43915000Y-75603000D02*
X43915000Y-73318000D01*
X43915000Y-73318000D02*
X42445000Y-73318000D01*
X42445000Y-73318000D02*
X42445000Y-75603000D01*
X17502700Y-43211700D02*
X23512700Y-43211700D01*
X19752700Y-50031700D02*
X23512700Y-50031700D01*
X23512700Y-43211700D02*
X23512700Y-44471700D01*
X23512700Y-50031700D02*
X23512700Y-48771700D01*
D14*
X29337000Y-46266100D02*
X29337000Y-46774100D01*
X29591000Y-46520100D02*
X29083000Y-46520100D01*
X31242000Y-45694600D02*
X31242000Y-47345600D01*
X27051000Y-45694600D02*
X31242000Y-45694600D01*
X27051000Y-47345600D02*
X27051000Y-45694600D01*
X31242000Y-47345600D02*
X27051000Y-47345600D01*
D15*
X31305500Y-45631100D02*
X31305500Y-47409100D01*
X31305500Y-47409100D02*
X26987500Y-47409100D01*
X26987500Y-45631100D02*
X26987500Y-47409100D01*
X31305500Y-45631100D02*
X26987500Y-45631100D01*
D12*
X70400000Y-34438000D02*
X69550000Y-34438000D01*
X70400000Y-26268000D02*
X70400000Y-34438000D01*
X69550000Y-26268000D02*
X70400000Y-26268000D01*
X65180000Y-34438000D02*
X65180000Y-32113000D01*
X66030000Y-34438000D02*
X65180000Y-34438000D01*
X65180000Y-28593000D02*
X62790000Y-28593000D01*
X65180000Y-26268000D02*
X65180000Y-28593000D01*
X66030000Y-26268000D02*
X65180000Y-26268000D01*
D16*
X57046754Y-28621548D02*
X56777346Y-28352140D01*
X57226359Y-28441943D02*
X57046754Y-28621548D01*
X56956952Y-28172535D02*
X57226359Y-28441943D01*
X56777346Y-28352140D02*
X56956952Y-28172535D01*
X58107414Y-33817792D02*
X58287019Y-33997397D01*
X57838007Y-34087199D02*
X58107414Y-33817792D01*
X58017612Y-34266804D02*
X57838007Y-34087199D01*
X58287019Y-33997397D02*
X58017612Y-34266804D01*
X52641761Y-35854967D02*
X52372353Y-35585559D01*
X52462156Y-36034572D02*
X52641761Y-35854967D01*
X52192748Y-35765164D02*
X52462156Y-36034572D01*
X52372353Y-35585559D02*
X52192748Y-35765164D01*
X50166887Y-30119907D02*
X49987281Y-29940302D01*
X49897479Y-30389315D02*
X50166887Y-30119907D01*
X49717874Y-30209710D02*
X49897479Y-30389315D01*
X49987281Y-29940302D02*
X49717874Y-30209710D01*
X54849462Y-27034913D02*
X54356000Y-26541451D01*
X59071087Y-32243462D02*
X59564549Y-31750000D01*
X53862538Y-36465087D02*
X54356000Y-36958549D01*
X49640913Y-31256538D02*
X49147451Y-31750000D01*
X54356000Y-26541451D02*
X53862538Y-27034913D01*
X59564549Y-31750000D02*
X59071087Y-31256538D01*
X54356000Y-36958549D02*
X54849462Y-36465087D01*
X49147451Y-31750000D02*
X49640913Y-32243462D01*
D12*
X70400000Y-24786000D02*
X69550000Y-24786000D01*
X70400000Y-16616000D02*
X70400000Y-24786000D01*
X69550000Y-16616000D02*
X70400000Y-16616000D01*
X65180000Y-24786000D02*
X65180000Y-22461000D01*
X66030000Y-24786000D02*
X65180000Y-24786000D01*
X65180000Y-18941000D02*
X62790000Y-18941000D01*
X65180000Y-16616000D02*
X65180000Y-18941000D01*
X66030000Y-16616000D02*
X65180000Y-16616000D01*
X59057000Y-83891000D02*
X60517000Y-83891000D01*
X59057000Y-87051000D02*
X61217000Y-87051000D01*
X59057000Y-87051000D02*
X59057000Y-86121000D01*
X59057000Y-83891000D02*
X59057000Y-84821000D01*
X20980400Y-67177600D02*
X24430400Y-67177600D01*
X20980400Y-67177600D02*
X19030400Y-67177600D01*
X20980400Y-62057600D02*
X22930400Y-62057600D01*
X20980400Y-62057600D02*
X19030400Y-62057600D01*
X23245000Y-81072000D02*
X23795000Y-81072000D01*
X15575000Y-72852000D02*
X15575000Y-73402000D01*
X16125000Y-72852000D02*
X15575000Y-72852000D01*
X23795000Y-72852000D02*
X23795000Y-73402000D01*
X23245000Y-72852000D02*
X23795000Y-72852000D01*
X15575000Y-81072000D02*
X15575000Y-80522000D01*
X16125000Y-81072000D02*
X15575000Y-81072000D01*
D11*
X54703800Y-79885600D02*
X55828800Y-79885600D01*
X54703800Y-70205600D02*
X50553800Y-70205600D01*
X54703800Y-80365600D02*
X50553800Y-80365600D01*
X54703800Y-70205600D02*
X54703800Y-70685600D01*
X50553800Y-70205600D02*
X50553800Y-70685600D01*
X50553800Y-80365600D02*
X50553800Y-79885600D01*
X54703800Y-80365600D02*
X54703800Y-79885600D01*
X29966500Y-51019500D02*
X28541500Y-51019500D01*
X37216500Y-50794500D02*
X36891500Y-50794500D01*
X37216500Y-58044500D02*
X36891500Y-58044500D01*
X29966500Y-58044500D02*
X30291500Y-58044500D01*
X29966500Y-50794500D02*
X30291500Y-50794500D01*
X29966500Y-58044500D02*
X29966500Y-57719500D01*
X37216500Y-58044500D02*
X37216500Y-57719500D01*
X37216500Y-50794500D02*
X37216500Y-51119500D01*
X29966500Y-50794500D02*
X29966500Y-51019500D01*
D10*
X60425600Y-46697400D02*
X60125600Y-46697400D01*
X60425600Y-46322400D02*
X60425600Y-46697400D01*
X57125600Y-46697400D02*
X57125600Y-46247400D01*
X57425600Y-46697400D02*
X57125600Y-46697400D01*
X57350600Y-46697400D02*
X57475600Y-46697400D01*
X57125600Y-45047400D02*
X57475600Y-45047400D01*
X57125600Y-45522400D02*
X57125600Y-45047400D01*
X60100600Y-45047400D02*
X60100600Y-44272400D01*
X60150600Y-45047400D02*
X60100600Y-45047400D01*
X60425600Y-45422400D02*
X60150600Y-45047400D01*
X60425600Y-45697400D02*
X60425600Y-45422400D01*
D12*
X64430600Y-62093800D02*
X65760600Y-62093800D01*
X64430600Y-63423800D02*
X64430600Y-62093800D01*
X67030600Y-62093800D02*
X69630600Y-62093800D01*
X67030600Y-64693800D02*
X67030600Y-62093800D01*
X64430600Y-64693800D02*
X67030600Y-64693800D01*
X69630600Y-62093800D02*
X69630600Y-87613800D01*
X64430600Y-64693800D02*
X64430600Y-87613800D01*
X64430600Y-87613800D02*
X69630600Y-87613800D01*
X50105600Y-92143200D02*
X50105600Y-91143200D01*
X44575600Y-84573200D02*
X47575600Y-84573200D01*
X49725600Y-91123200D02*
X49725600Y-86623200D01*
X42425600Y-91123200D02*
X42425600Y-86623200D01*
X49725600Y-104073200D02*
X49725600Y-93623200D01*
X42425600Y-104073200D02*
X49725600Y-104073200D01*
X42425600Y-104073200D02*
X42425600Y-93623200D01*
X16274680Y-35744280D02*
X17974680Y-35744280D01*
X17974680Y-35744280D02*
X17974680Y-33194280D01*
X16274680Y-35744280D02*
X16274680Y-33194280D01*
D14*
X8966200Y-86385400D02*
X12268200Y-86385400D01*
X8966200Y-88163400D02*
X8966200Y-86385400D01*
X12268200Y-88163400D02*
X8966200Y-88163400D01*
X12268200Y-86385400D02*
X12268200Y-88163400D01*
D12*
X12228000Y-91608800D02*
X12228000Y-89848800D01*
X9158000Y-89848800D02*
X9158000Y-92278800D01*
X16738800Y-87295200D02*
X16738800Y-89895200D01*
X16738800Y-89895200D02*
X19938800Y-89895200D01*
X25223560Y-26498640D02*
X25223560Y-23648640D01*
X25223560Y-17778640D02*
X25223560Y-20628640D01*
X17567997Y-17778640D02*
X25223560Y-17778640D01*
X17567997Y-26498640D02*
X25223560Y-26498640D01*
X16503560Y-25434203D02*
X16503560Y-23648640D01*
X16503560Y-18843077D02*
X16503560Y-20628640D01*
X16503560Y-18843077D02*
X17567997Y-17778640D01*
X16503560Y-25434203D02*
X17567997Y-26498640D01*
X15263560Y-19628640D02*
X16263560Y-19628640D01*
X15763560Y-19128640D02*
X15763560Y-20128640D01*
D11*
X6498226Y-12542140D02*
X6498226Y-13256426D01*
X6450607Y-13399283D01*
X6355369Y-13494521D01*
X6212512Y-13542140D01*
X6117274Y-13542140D01*
X7402988Y-12542140D02*
X7212512Y-12542140D01*
X7117274Y-12589760D01*
X7069655Y-12637379D01*
X6974417Y-12780236D01*
X6926798Y-12970712D01*
X6926798Y-13351664D01*
X6974417Y-13446902D01*
X7022036Y-13494521D01*
X7117274Y-13542140D01*
X7307750Y-13542140D01*
X7402988Y-13494521D01*
X7450607Y-13446902D01*
X7498226Y-13351664D01*
X7498226Y-13113569D01*
X7450607Y-13018331D01*
X7402988Y-12970712D01*
X7307750Y-12923093D01*
X7117274Y-12923093D01*
X7022036Y-12970712D01*
X6974417Y-13018331D01*
X6926798Y-13113569D01*
X20799466Y-91351580D02*
X20799466Y-92065866D01*
X20751847Y-92208723D01*
X20656609Y-92303961D01*
X20513752Y-92351580D01*
X20418514Y-92351580D01*
X21180419Y-91351580D02*
X21847085Y-91351580D01*
X21418514Y-92351580D01*
X44125780Y-31922885D02*
X43125780Y-31922885D01*
X43125780Y-31684790D01*
X43173400Y-31541933D01*
X43268638Y-31446695D01*
X43363876Y-31399076D01*
X43554352Y-31351457D01*
X43697209Y-31351457D01*
X43887685Y-31399076D01*
X43982923Y-31446695D01*
X44078161Y-31541933D01*
X44125780Y-31684790D01*
X44125780Y-31922885D01*
X44125780Y-30399076D02*
X44125780Y-30970504D01*
X44125780Y-30684790D02*
X43125780Y-30684790D01*
X43268638Y-30780028D01*
X43363876Y-30875266D01*
X43411495Y-30970504D01*
X43459114Y-29541933D02*
X44125780Y-29541933D01*
X43078161Y-29780028D02*
X43792447Y-30018123D01*
X43792447Y-29399076D01*
X36093495Y-27387580D02*
X36093495Y-28197104D01*
X36141114Y-28292342D01*
X36188733Y-28339961D01*
X36283971Y-28387580D01*
X36474447Y-28387580D01*
X36569685Y-28339961D01*
X36617304Y-28292342D01*
X36664923Y-28197104D01*
X36664923Y-27387580D01*
X37664923Y-28387580D02*
X37093495Y-28387580D01*
X37379209Y-28387580D02*
X37379209Y-27387580D01*
X37283971Y-27530438D01*
X37188733Y-27625676D01*
X37093495Y-27673295D01*
X43902333Y-34626480D02*
X43569000Y-34150290D01*
X43330904Y-34626480D02*
X43330904Y-33626480D01*
X43711857Y-33626480D01*
X43807095Y-33674100D01*
X43854714Y-33721719D01*
X43902333Y-33816957D01*
X43902333Y-33959814D01*
X43854714Y-34055052D01*
X43807095Y-34102671D01*
X43711857Y-34150290D01*
X43330904Y-34150290D01*
X44854714Y-34626480D02*
X44283285Y-34626480D01*
X44569000Y-34626480D02*
X44569000Y-33626480D01*
X44473761Y-33769338D01*
X44378523Y-33864576D01*
X44283285Y-33912195D01*
X38332380Y-34964666D02*
X38332380Y-35440857D01*
X37332380Y-35440857D01*
X38332380Y-34107523D02*
X38332380Y-34678952D01*
X38332380Y-34393238D02*
X37332380Y-34393238D01*
X37475238Y-34488476D01*
X37570476Y-34583714D01*
X37618095Y-34678952D01*
X17994333Y-41467042D02*
X17946714Y-41514661D01*
X17803857Y-41562280D01*
X17708619Y-41562280D01*
X17565761Y-41514661D01*
X17470523Y-41419423D01*
X17422904Y-41324185D01*
X17375285Y-41133709D01*
X17375285Y-40990852D01*
X17422904Y-40800376D01*
X17470523Y-40705138D01*
X17565761Y-40609900D01*
X17708619Y-40562280D01*
X17803857Y-40562280D01*
X17946714Y-40609900D01*
X17994333Y-40657519D01*
X18851476Y-40895614D02*
X18851476Y-41562280D01*
X18613380Y-40514661D02*
X18375285Y-41228947D01*
X18994333Y-41228947D01*
X48918833Y-17146542D02*
X48871214Y-17194161D01*
X48728357Y-17241780D01*
X48633119Y-17241780D01*
X48490261Y-17194161D01*
X48395023Y-17098923D01*
X48347404Y-17003685D01*
X48299785Y-16813209D01*
X48299785Y-16670352D01*
X48347404Y-16479876D01*
X48395023Y-16384638D01*
X48490261Y-16289400D01*
X48633119Y-16241780D01*
X48728357Y-16241780D01*
X48871214Y-16289400D01*
X48918833Y-16337019D01*
X49252166Y-16241780D02*
X49871214Y-16241780D01*
X49537880Y-16622733D01*
X49680738Y-16622733D01*
X49775976Y-16670352D01*
X49823595Y-16717971D01*
X49871214Y-16813209D01*
X49871214Y-17051304D01*
X49823595Y-17146542D01*
X49775976Y-17194161D01*
X49680738Y-17241780D01*
X49395023Y-17241780D01*
X49299785Y-17194161D01*
X49252166Y-17146542D01*
X13640773Y-7189742D02*
X13593154Y-7237361D01*
X13450297Y-7284980D01*
X13355059Y-7284980D01*
X13212201Y-7237361D01*
X13116963Y-7142123D01*
X13069344Y-7046885D01*
X13021725Y-6856409D01*
X13021725Y-6713552D01*
X13069344Y-6523076D01*
X13116963Y-6427838D01*
X13212201Y-6332600D01*
X13355059Y-6284980D01*
X13450297Y-6284980D01*
X13593154Y-6332600D01*
X13640773Y-6380219D01*
X14593154Y-7284980D02*
X14021725Y-7284980D01*
X14307440Y-7284980D02*
X14307440Y-6284980D01*
X14212201Y-6427838D01*
X14116963Y-6523076D01*
X14021725Y-6570695D01*
X798890Y-91971880D02*
X1370319Y-91971880D01*
X1084604Y-92971880D02*
X1084604Y-91971880D01*
X1703652Y-92971880D02*
X1703652Y-91971880D01*
X2084604Y-91971880D01*
X2179842Y-92019500D01*
X2227461Y-92067119D01*
X2275080Y-92162357D01*
X2275080Y-92305214D01*
X2227461Y-92400452D01*
X2179842Y-92448071D01*
X2084604Y-92495690D01*
X1703652Y-92495690D01*
X3227461Y-92971880D02*
X2656033Y-92971880D01*
X2941747Y-92971880D02*
X2941747Y-91971880D01*
X2846509Y-92114738D01*
X2751271Y-92209976D01*
X2656033Y-92257595D01*
X3417938Y-93067119D02*
X4179842Y-93067119D01*
X4608414Y-91971880D02*
X4703652Y-91971880D01*
X4798890Y-92019500D01*
X4846509Y-92067119D01*
X4894128Y-92162357D01*
X4941747Y-92352833D01*
X4941747Y-92590928D01*
X4894128Y-92781404D01*
X4846509Y-92876642D01*
X4798890Y-92924261D01*
X4703652Y-92971880D01*
X4608414Y-92971880D01*
X4513176Y-92924261D01*
X4465557Y-92876642D01*
X4417938Y-92781404D01*
X4370319Y-92590928D01*
X4370319Y-92352833D01*
X4417938Y-92162357D01*
X4465557Y-92067119D01*
X4513176Y-92019500D01*
X4608414Y-91971880D01*
X5227461Y-91971880D02*
X5560795Y-92971880D01*
X5894128Y-91971880D01*
X6751271Y-92971880D02*
X6179842Y-92971880D01*
X6465557Y-92971880D02*
X6465557Y-91971880D01*
X6370319Y-92114738D01*
X6275080Y-92209976D01*
X6179842Y-92257595D01*
X35591904Y-87704680D02*
X35591904Y-88514204D01*
X35639523Y-88609442D01*
X35687142Y-88657061D01*
X35782380Y-88704680D01*
X35972857Y-88704680D01*
X36068095Y-88657061D01*
X36115714Y-88609442D01*
X36163333Y-88514204D01*
X36163333Y-87704680D01*
X37163333Y-88704680D02*
X36591904Y-88704680D01*
X36877619Y-88704680D02*
X36877619Y-87704680D01*
X36782380Y-87847538D01*
X36687142Y-87942776D01*
X36591904Y-87990395D01*
X37544285Y-87799919D02*
X37591904Y-87752300D01*
X37687142Y-87704680D01*
X37925238Y-87704680D01*
X38020476Y-87752300D01*
X38068095Y-87799919D01*
X38115714Y-87895157D01*
X38115714Y-87990395D01*
X38068095Y-88133252D01*
X37496666Y-88704680D01*
X38115714Y-88704680D01*
X28109942Y-95219780D02*
X27776609Y-94743590D01*
X27538514Y-95219780D02*
X27538514Y-94219780D01*
X27919466Y-94219780D01*
X28014704Y-94267400D01*
X28062323Y-94315019D01*
X28109942Y-94410257D01*
X28109942Y-94553114D01*
X28062323Y-94648352D01*
X28014704Y-94695971D01*
X27919466Y-94743590D01*
X27538514Y-94743590D01*
X29014704Y-94219780D02*
X28538514Y-94219780D01*
X28490895Y-94695971D01*
X28538514Y-94648352D01*
X28633752Y-94600733D01*
X28871847Y-94600733D01*
X28967085Y-94648352D01*
X29014704Y-94695971D01*
X29062323Y-94791209D01*
X29062323Y-95029304D01*
X29014704Y-95124542D01*
X28967085Y-95172161D01*
X28871847Y-95219780D01*
X28633752Y-95219780D01*
X28538514Y-95172161D01*
X28490895Y-95124542D01*
X29395657Y-94219780D02*
X30014704Y-94219780D01*
X29681371Y-94600733D01*
X29824228Y-94600733D01*
X29919466Y-94648352D01*
X29967085Y-94695971D01*
X30014704Y-94791209D01*
X30014704Y-95029304D01*
X29967085Y-95124542D01*
X29919466Y-95172161D01*
X29824228Y-95219780D01*
X29538514Y-95219780D01*
X29443276Y-95172161D01*
X29395657Y-95124542D01*
D17*
X39799390Y-87341828D02*
X39561295Y-87508495D01*
X39799390Y-87627542D02*
X39299390Y-87627542D01*
X39299390Y-87437066D01*
X39323200Y-87389447D01*
X39347009Y-87365638D01*
X39394628Y-87341828D01*
X39466057Y-87341828D01*
X39513676Y-87365638D01*
X39537485Y-87389447D01*
X39561295Y-87437066D01*
X39561295Y-87627542D01*
X39299390Y-86889447D02*
X39299390Y-87127542D01*
X39537485Y-87151352D01*
X39513676Y-87127542D01*
X39489866Y-87079923D01*
X39489866Y-86960876D01*
X39513676Y-86913257D01*
X39537485Y-86889447D01*
X39585104Y-86865638D01*
X39704152Y-86865638D01*
X39751771Y-86889447D01*
X39775580Y-86913257D01*
X39799390Y-86960876D01*
X39799390Y-87079923D01*
X39775580Y-87127542D01*
X39751771Y-87151352D01*
X39347009Y-86675161D02*
X39323200Y-86651352D01*
X39299390Y-86603733D01*
X39299390Y-86484685D01*
X39323200Y-86437066D01*
X39347009Y-86413257D01*
X39394628Y-86389447D01*
X39442247Y-86389447D01*
X39513676Y-86413257D01*
X39799390Y-86698971D01*
X39799390Y-86389447D01*
D11*
X36658561Y-77484219D02*
X36563323Y-77436600D01*
X36468085Y-77341361D01*
X36325228Y-77198504D01*
X36229990Y-77150885D01*
X36134752Y-77150885D01*
X36182371Y-77388980D02*
X36087133Y-77341361D01*
X35991895Y-77246123D01*
X35944276Y-77055647D01*
X35944276Y-76722314D01*
X35991895Y-76531838D01*
X36087133Y-76436600D01*
X36182371Y-76388980D01*
X36372847Y-76388980D01*
X36468085Y-76436600D01*
X36563323Y-76531838D01*
X36610942Y-76722314D01*
X36610942Y-77055647D01*
X36563323Y-77246123D01*
X36468085Y-77341361D01*
X36372847Y-77388980D01*
X36182371Y-77388980D01*
X37468085Y-76722314D02*
X37468085Y-77388980D01*
X37229990Y-76341361D02*
X36991895Y-77055647D01*
X37610942Y-77055647D01*
X25927276Y-93606880D02*
X25927276Y-92606880D01*
X26308228Y-92606880D01*
X26403466Y-92654500D01*
X26451085Y-92702119D01*
X26498704Y-92797357D01*
X26498704Y-92940214D01*
X26451085Y-93035452D01*
X26403466Y-93083071D01*
X26308228Y-93130690D01*
X25927276Y-93130690D01*
X26832038Y-92606880D02*
X27070133Y-93606880D01*
X27260609Y-92892595D01*
X27451085Y-93606880D01*
X27689180Y-92606880D01*
X28641561Y-93606880D02*
X28308228Y-93130690D01*
X28070133Y-93606880D02*
X28070133Y-92606880D01*
X28451085Y-92606880D01*
X28546323Y-92654500D01*
X28593942Y-92702119D01*
X28641561Y-92797357D01*
X28641561Y-92940214D01*
X28593942Y-93035452D01*
X28546323Y-93083071D01*
X28451085Y-93130690D01*
X28070133Y-93130690D01*
X29022514Y-92702119D02*
X29070133Y-92654500D01*
X29165371Y-92606880D01*
X29403466Y-92606880D01*
X29498704Y-92654500D01*
X29546323Y-92702119D01*
X29593942Y-92797357D01*
X29593942Y-92892595D01*
X29546323Y-93035452D01*
X28974895Y-93606880D01*
X29593942Y-93606880D01*
D17*
X36622871Y-82093571D02*
X36599061Y-82117380D01*
X36527633Y-82141190D01*
X36480014Y-82141190D01*
X36408585Y-82117380D01*
X36360966Y-82069761D01*
X36337157Y-82022142D01*
X36313347Y-81926904D01*
X36313347Y-81855476D01*
X36337157Y-81760238D01*
X36360966Y-81712619D01*
X36408585Y-81665000D01*
X36480014Y-81641190D01*
X36527633Y-81641190D01*
X36599061Y-81665000D01*
X36622871Y-81688809D01*
X37051442Y-81641190D02*
X36956204Y-81641190D01*
X36908585Y-81665000D01*
X36884776Y-81688809D01*
X36837157Y-81760238D01*
X36813347Y-81855476D01*
X36813347Y-82045952D01*
X36837157Y-82093571D01*
X36860966Y-82117380D01*
X36908585Y-82141190D01*
X37003823Y-82141190D01*
X37051442Y-82117380D01*
X37075252Y-82093571D01*
X37099061Y-82045952D01*
X37099061Y-81926904D01*
X37075252Y-81879285D01*
X37051442Y-81855476D01*
X37003823Y-81831666D01*
X36908585Y-81831666D01*
X36860966Y-81855476D01*
X36837157Y-81879285D01*
X36813347Y-81926904D01*
X37527633Y-81641190D02*
X37432395Y-81641190D01*
X37384776Y-81665000D01*
X37360966Y-81688809D01*
X37313347Y-81760238D01*
X37289538Y-81855476D01*
X37289538Y-82045952D01*
X37313347Y-82093571D01*
X37337157Y-82117380D01*
X37384776Y-82141190D01*
X37480014Y-82141190D01*
X37527633Y-82117380D01*
X37551442Y-82093571D01*
X37575252Y-82045952D01*
X37575252Y-81926904D01*
X37551442Y-81879285D01*
X37527633Y-81855476D01*
X37480014Y-81831666D01*
X37384776Y-81831666D01*
X37337157Y-81855476D01*
X37313347Y-81879285D01*
X37289538Y-81926904D01*
X40970971Y-87379928D02*
X40994780Y-87403738D01*
X41018590Y-87475166D01*
X41018590Y-87522785D01*
X40994780Y-87594214D01*
X40947161Y-87641833D01*
X40899542Y-87665642D01*
X40804304Y-87689452D01*
X40732876Y-87689452D01*
X40637638Y-87665642D01*
X40590019Y-87641833D01*
X40542400Y-87594214D01*
X40518590Y-87522785D01*
X40518590Y-87475166D01*
X40542400Y-87403738D01*
X40566209Y-87379928D01*
X40518590Y-86951357D02*
X40518590Y-87046595D01*
X40542400Y-87094214D01*
X40566209Y-87118023D01*
X40637638Y-87165642D01*
X40732876Y-87189452D01*
X40923352Y-87189452D01*
X40970971Y-87165642D01*
X40994780Y-87141833D01*
X41018590Y-87094214D01*
X41018590Y-86998976D01*
X40994780Y-86951357D01*
X40970971Y-86927547D01*
X40923352Y-86903738D01*
X40804304Y-86903738D01*
X40756685Y-86927547D01*
X40732876Y-86951357D01*
X40709066Y-86998976D01*
X40709066Y-87094214D01*
X40732876Y-87141833D01*
X40756685Y-87165642D01*
X40804304Y-87189452D01*
X40518590Y-86451357D02*
X40518590Y-86689452D01*
X40756685Y-86713261D01*
X40732876Y-86689452D01*
X40709066Y-86641833D01*
X40709066Y-86522785D01*
X40732876Y-86475166D01*
X40756685Y-86451357D01*
X40804304Y-86427547D01*
X40923352Y-86427547D01*
X40970971Y-86451357D01*
X40994780Y-86475166D01*
X41018590Y-86522785D01*
X41018590Y-86641833D01*
X40994780Y-86689452D01*
X40970971Y-86713261D01*
D11*
X25788026Y-5441700D02*
X25788026Y-6155986D01*
X25740407Y-6298843D01*
X25645169Y-6394081D01*
X25502312Y-6441700D01*
X25407074Y-6441700D01*
X26740407Y-5441700D02*
X26264217Y-5441700D01*
X26216598Y-5917891D01*
X26264217Y-5870272D01*
X26359455Y-5822653D01*
X26597550Y-5822653D01*
X26692788Y-5870272D01*
X26740407Y-5917891D01*
X26788026Y-6013129D01*
X26788026Y-6251224D01*
X26740407Y-6346462D01*
X26692788Y-6394081D01*
X26597550Y-6441700D01*
X26359455Y-6441700D01*
X26264217Y-6394081D01*
X26216598Y-6346462D01*
X52197142Y-22601180D02*
X52197142Y-21601180D01*
X52768571Y-22601180D01*
X52768571Y-21601180D01*
X53101904Y-21601180D02*
X53673333Y-21601180D01*
X53387619Y-22601180D02*
X53387619Y-21601180D01*
X54530476Y-22601180D02*
X53959047Y-22601180D01*
X54244761Y-22601180D02*
X54244761Y-21601180D01*
X54149523Y-21744038D01*
X54054285Y-21839276D01*
X53959047Y-21886895D01*
X44827866Y-6818380D02*
X44827866Y-7532666D01*
X44780247Y-7675523D01*
X44685009Y-7770761D01*
X44542152Y-7818380D01*
X44446914Y-7818380D01*
X45256438Y-6913619D02*
X45304057Y-6866000D01*
X45399295Y-6818380D01*
X45637390Y-6818380D01*
X45732628Y-6866000D01*
X45780247Y-6913619D01*
X45827866Y-7008857D01*
X45827866Y-7104095D01*
X45780247Y-7246952D01*
X45208819Y-7818380D01*
X45827866Y-7818380D01*
X17861042Y-39447742D02*
X17813423Y-39495361D01*
X17670566Y-39542980D01*
X17575328Y-39542980D01*
X17432471Y-39495361D01*
X17337233Y-39400123D01*
X17289614Y-39304885D01*
X17241995Y-39114409D01*
X17241995Y-38971552D01*
X17289614Y-38781076D01*
X17337233Y-38685838D01*
X17432471Y-38590600D01*
X17575328Y-38542980D01*
X17670566Y-38542980D01*
X17813423Y-38590600D01*
X17861042Y-38638219D01*
X18718185Y-38542980D02*
X18527709Y-38542980D01*
X18432471Y-38590600D01*
X18384852Y-38638219D01*
X18289614Y-38781076D01*
X18241995Y-38971552D01*
X18241995Y-39352504D01*
X18289614Y-39447742D01*
X18337233Y-39495361D01*
X18432471Y-39542980D01*
X18622947Y-39542980D01*
X18718185Y-39495361D01*
X18765804Y-39447742D01*
X18813423Y-39352504D01*
X18813423Y-39114409D01*
X18765804Y-39019171D01*
X18718185Y-38971552D01*
X18622947Y-38923933D01*
X18432471Y-38923933D01*
X18337233Y-38971552D01*
X18289614Y-39019171D01*
X18241995Y-39114409D01*
X19432471Y-38542980D02*
X19527709Y-38542980D01*
X19622947Y-38590600D01*
X19670566Y-38638219D01*
X19718185Y-38733457D01*
X19765804Y-38923933D01*
X19765804Y-39162028D01*
X19718185Y-39352504D01*
X19670566Y-39447742D01*
X19622947Y-39495361D01*
X19527709Y-39542980D01*
X19432471Y-39542980D01*
X19337233Y-39495361D01*
X19289614Y-39447742D01*
X19241995Y-39352504D01*
X19194376Y-39162028D01*
X19194376Y-38923933D01*
X19241995Y-38733457D01*
X19289614Y-38638219D01*
X19337233Y-38590600D01*
X19432471Y-38542980D01*
X19270742Y-34886842D02*
X19223123Y-34934461D01*
X19080266Y-34982080D01*
X18985028Y-34982080D01*
X18842171Y-34934461D01*
X18746933Y-34839223D01*
X18699314Y-34743985D01*
X18651695Y-34553509D01*
X18651695Y-34410652D01*
X18699314Y-34220176D01*
X18746933Y-34124938D01*
X18842171Y-34029700D01*
X18985028Y-33982080D01*
X19080266Y-33982080D01*
X19223123Y-34029700D01*
X19270742Y-34077319D01*
X20175504Y-33982080D02*
X19699314Y-33982080D01*
X19651695Y-34458271D01*
X19699314Y-34410652D01*
X19794552Y-34363033D01*
X20032647Y-34363033D01*
X20127885Y-34410652D01*
X20175504Y-34458271D01*
X20223123Y-34553509D01*
X20223123Y-34791604D01*
X20175504Y-34886842D01*
X20127885Y-34934461D01*
X20032647Y-34982080D01*
X19794552Y-34982080D01*
X19699314Y-34934461D01*
X19651695Y-34886842D01*
X20699314Y-34982080D02*
X20889790Y-34982080D01*
X20985028Y-34934461D01*
X21032647Y-34886842D01*
X21127885Y-34743985D01*
X21175504Y-34553509D01*
X21175504Y-34172557D01*
X21127885Y-34077319D01*
X21080266Y-34029700D01*
X20985028Y-33982080D01*
X20794552Y-33982080D01*
X20699314Y-34029700D01*
X20651695Y-34077319D01*
X20604076Y-34172557D01*
X20604076Y-34410652D01*
X20651695Y-34505890D01*
X20699314Y-34553509D01*
X20794552Y-34601128D01*
X20985028Y-34601128D01*
X21080266Y-34553509D01*
X21127885Y-34505890D01*
X21175504Y-34410652D01*
X54068742Y-63873942D02*
X54021123Y-63921561D01*
X53878266Y-63969180D01*
X53783028Y-63969180D01*
X53640171Y-63921561D01*
X53544933Y-63826323D01*
X53497314Y-63731085D01*
X53449695Y-63540609D01*
X53449695Y-63397752D01*
X53497314Y-63207276D01*
X53544933Y-63112038D01*
X53640171Y-63016800D01*
X53783028Y-62969180D01*
X53878266Y-62969180D01*
X54021123Y-63016800D01*
X54068742Y-63064419D01*
X54925885Y-62969180D02*
X54735409Y-62969180D01*
X54640171Y-63016800D01*
X54592552Y-63064419D01*
X54497314Y-63207276D01*
X54449695Y-63397752D01*
X54449695Y-63778704D01*
X54497314Y-63873942D01*
X54544933Y-63921561D01*
X54640171Y-63969180D01*
X54830647Y-63969180D01*
X54925885Y-63921561D01*
X54973504Y-63873942D01*
X55021123Y-63778704D01*
X55021123Y-63540609D01*
X54973504Y-63445371D01*
X54925885Y-63397752D01*
X54830647Y-63350133D01*
X54640171Y-63350133D01*
X54544933Y-63397752D01*
X54497314Y-63445371D01*
X54449695Y-63540609D01*
X55878266Y-63302514D02*
X55878266Y-63969180D01*
X55640171Y-62921561D02*
X55402076Y-63635847D01*
X56021123Y-63635847D01*
X56913542Y-52731942D02*
X56865923Y-52779561D01*
X56723066Y-52827180D01*
X56627828Y-52827180D01*
X56484971Y-52779561D01*
X56389733Y-52684323D01*
X56342114Y-52589085D01*
X56294495Y-52398609D01*
X56294495Y-52255752D01*
X56342114Y-52065276D01*
X56389733Y-51970038D01*
X56484971Y-51874800D01*
X56627828Y-51827180D01*
X56723066Y-51827180D01*
X56865923Y-51874800D01*
X56913542Y-51922419D01*
X57770685Y-51827180D02*
X57580209Y-51827180D01*
X57484971Y-51874800D01*
X57437352Y-51922419D01*
X57342114Y-52065276D01*
X57294495Y-52255752D01*
X57294495Y-52636704D01*
X57342114Y-52731942D01*
X57389733Y-52779561D01*
X57484971Y-52827180D01*
X57675447Y-52827180D01*
X57770685Y-52779561D01*
X57818304Y-52731942D01*
X57865923Y-52636704D01*
X57865923Y-52398609D01*
X57818304Y-52303371D01*
X57770685Y-52255752D01*
X57675447Y-52208133D01*
X57484971Y-52208133D01*
X57389733Y-52255752D01*
X57342114Y-52303371D01*
X57294495Y-52398609D01*
X58199257Y-51827180D02*
X58818304Y-51827180D01*
X58484971Y-52208133D01*
X58627828Y-52208133D01*
X58723066Y-52255752D01*
X58770685Y-52303371D01*
X58818304Y-52398609D01*
X58818304Y-52636704D01*
X58770685Y-52731942D01*
X58723066Y-52779561D01*
X58627828Y-52827180D01*
X58342114Y-52827180D01*
X58246876Y-52779561D01*
X58199257Y-52731942D01*
X60044057Y-10431542D02*
X59996438Y-10383923D01*
X59948819Y-10241066D01*
X59948819Y-10145828D01*
X59996438Y-10002971D01*
X60091676Y-9907733D01*
X60186914Y-9860114D01*
X60377390Y-9812495D01*
X60520247Y-9812495D01*
X60710723Y-9860114D01*
X60805961Y-9907733D01*
X60901200Y-10002971D01*
X60948819Y-10145828D01*
X60948819Y-10241066D01*
X60901200Y-10383923D01*
X60853580Y-10431542D01*
X60948819Y-11288685D02*
X60948819Y-11098209D01*
X60901200Y-11002971D01*
X60853580Y-10955352D01*
X60710723Y-10860114D01*
X60520247Y-10812495D01*
X60139295Y-10812495D01*
X60044057Y-10860114D01*
X59996438Y-10907733D01*
X59948819Y-11002971D01*
X59948819Y-11193447D01*
X59996438Y-11288685D01*
X60044057Y-11336304D01*
X60139295Y-11383923D01*
X60377390Y-11383923D01*
X60472628Y-11336304D01*
X60520247Y-11288685D01*
X60567866Y-11193447D01*
X60567866Y-11002971D01*
X60520247Y-10907733D01*
X60472628Y-10860114D01*
X60377390Y-10812495D01*
X60853580Y-11764876D02*
X60901200Y-11812495D01*
X60948819Y-11907733D01*
X60948819Y-12145828D01*
X60901200Y-12241066D01*
X60853580Y-12288685D01*
X60758342Y-12336304D01*
X60663104Y-12336304D01*
X60520247Y-12288685D01*
X59948819Y-11717257D01*
X59948819Y-12336304D01*
D17*
X47278171Y-26835871D02*
X47254361Y-26859680D01*
X47182933Y-26883490D01*
X47135314Y-26883490D01*
X47063885Y-26859680D01*
X47016266Y-26812061D01*
X46992457Y-26764442D01*
X46968647Y-26669204D01*
X46968647Y-26597776D01*
X46992457Y-26502538D01*
X47016266Y-26454919D01*
X47063885Y-26407300D01*
X47135314Y-26383490D01*
X47182933Y-26383490D01*
X47254361Y-26407300D01*
X47278171Y-26431109D01*
X47706742Y-26383490D02*
X47611504Y-26383490D01*
X47563885Y-26407300D01*
X47540076Y-26431109D01*
X47492457Y-26502538D01*
X47468647Y-26597776D01*
X47468647Y-26788252D01*
X47492457Y-26835871D01*
X47516266Y-26859680D01*
X47563885Y-26883490D01*
X47659123Y-26883490D01*
X47706742Y-26859680D01*
X47730552Y-26835871D01*
X47754361Y-26788252D01*
X47754361Y-26669204D01*
X47730552Y-26621585D01*
X47706742Y-26597776D01*
X47659123Y-26573966D01*
X47563885Y-26573966D01*
X47516266Y-26597776D01*
X47492457Y-26621585D01*
X47468647Y-26669204D01*
X48230552Y-26883490D02*
X47944838Y-26883490D01*
X48087695Y-26883490D02*
X48087695Y-26383490D01*
X48040076Y-26454919D01*
X47992457Y-26502538D01*
X47944838Y-26526347D01*
D11*
X59910742Y-39365180D02*
X59577409Y-38888990D01*
X59339314Y-39365180D02*
X59339314Y-38365180D01*
X59720266Y-38365180D01*
X59815504Y-38412800D01*
X59863123Y-38460419D01*
X59910742Y-38555657D01*
X59910742Y-38698514D01*
X59863123Y-38793752D01*
X59815504Y-38841371D01*
X59720266Y-38888990D01*
X59339314Y-38888990D01*
X60815504Y-38365180D02*
X60339314Y-38365180D01*
X60291695Y-38841371D01*
X60339314Y-38793752D01*
X60434552Y-38746133D01*
X60672647Y-38746133D01*
X60767885Y-38793752D01*
X60815504Y-38841371D01*
X60863123Y-38936609D01*
X60863123Y-39174704D01*
X60815504Y-39269942D01*
X60767885Y-39317561D01*
X60672647Y-39365180D01*
X60434552Y-39365180D01*
X60339314Y-39317561D01*
X60291695Y-39269942D01*
X61815504Y-39365180D02*
X61244076Y-39365180D01*
X61529790Y-39365180D02*
X61529790Y-38365180D01*
X61434552Y-38508038D01*
X61339314Y-38603276D01*
X61244076Y-38650895D01*
D17*
X47227371Y-35532190D02*
X47060704Y-35294095D01*
X46941657Y-35532190D02*
X46941657Y-35032190D01*
X47132133Y-35032190D01*
X47179752Y-35056000D01*
X47203561Y-35079809D01*
X47227371Y-35127428D01*
X47227371Y-35198857D01*
X47203561Y-35246476D01*
X47179752Y-35270285D01*
X47132133Y-35294095D01*
X46941657Y-35294095D01*
X47679752Y-35032190D02*
X47441657Y-35032190D01*
X47417847Y-35270285D01*
X47441657Y-35246476D01*
X47489276Y-35222666D01*
X47608323Y-35222666D01*
X47655942Y-35246476D01*
X47679752Y-35270285D01*
X47703561Y-35317904D01*
X47703561Y-35436952D01*
X47679752Y-35484571D01*
X47655942Y-35508380D01*
X47608323Y-35532190D01*
X47489276Y-35532190D01*
X47441657Y-35508380D01*
X47417847Y-35484571D01*
X48013085Y-35032190D02*
X48060704Y-35032190D01*
X48108323Y-35056000D01*
X48132133Y-35079809D01*
X48155942Y-35127428D01*
X48179752Y-35222666D01*
X48179752Y-35341714D01*
X48155942Y-35436952D01*
X48132133Y-35484571D01*
X48108323Y-35508380D01*
X48060704Y-35532190D01*
X48013085Y-35532190D01*
X47965466Y-35508380D01*
X47941657Y-35484571D01*
X47917847Y-35436952D01*
X47894038Y-35341714D01*
X47894038Y-35222666D01*
X47917847Y-35127428D01*
X47941657Y-35079809D01*
X47965466Y-35056000D01*
X48013085Y-35032190D01*
X47227371Y-32484190D02*
X47060704Y-32246095D01*
X46941657Y-32484190D02*
X46941657Y-31984190D01*
X47132133Y-31984190D01*
X47179752Y-32008000D01*
X47203561Y-32031809D01*
X47227371Y-32079428D01*
X47227371Y-32150857D01*
X47203561Y-32198476D01*
X47179752Y-32222285D01*
X47132133Y-32246095D01*
X46941657Y-32246095D01*
X47655942Y-32150857D02*
X47655942Y-32484190D01*
X47536895Y-31960380D02*
X47417847Y-32317523D01*
X47727371Y-32317523D01*
X47894038Y-32031809D02*
X47917847Y-32008000D01*
X47965466Y-31984190D01*
X48084514Y-31984190D01*
X48132133Y-32008000D01*
X48155942Y-32031809D01*
X48179752Y-32079428D01*
X48179752Y-32127047D01*
X48155942Y-32198476D01*
X47870228Y-32484190D01*
X48179752Y-32484190D01*
D11*
X6194822Y-10531100D02*
X5861489Y-10054910D01*
X5623394Y-10531100D02*
X5623394Y-9531100D01*
X6004346Y-9531100D01*
X6099584Y-9578720D01*
X6147203Y-9626339D01*
X6194822Y-9721577D01*
X6194822Y-9864434D01*
X6147203Y-9959672D01*
X6099584Y-10007291D01*
X6004346Y-10054910D01*
X5623394Y-10054910D01*
X7051965Y-9864434D02*
X7051965Y-10531100D01*
X6813870Y-9483481D02*
X6575775Y-10197767D01*
X7194822Y-10197767D01*
X7623394Y-10531100D02*
X7813870Y-10531100D01*
X7909108Y-10483481D01*
X7956727Y-10435862D01*
X8051965Y-10293005D01*
X8099584Y-10102529D01*
X8099584Y-9721577D01*
X8051965Y-9626339D01*
X8004346Y-9578720D01*
X7909108Y-9531100D01*
X7718632Y-9531100D01*
X7623394Y-9578720D01*
X7575775Y-9626339D01*
X7528156Y-9721577D01*
X7528156Y-9959672D01*
X7575775Y-10054910D01*
X7623394Y-10102529D01*
X7718632Y-10150148D01*
X7909108Y-10150148D01*
X8004346Y-10102529D01*
X8051965Y-10054910D01*
X8099584Y-9959672D01*
X6179582Y-12095740D02*
X5846249Y-11619550D01*
X5608154Y-12095740D02*
X5608154Y-11095740D01*
X5989106Y-11095740D01*
X6084344Y-11143360D01*
X6131963Y-11190979D01*
X6179582Y-11286217D01*
X6179582Y-11429074D01*
X6131963Y-11524312D01*
X6084344Y-11571931D01*
X5989106Y-11619550D01*
X5608154Y-11619550D01*
X7036725Y-11429074D02*
X7036725Y-12095740D01*
X6798630Y-11048121D02*
X6560535Y-11762407D01*
X7179582Y-11762407D01*
X7703392Y-11524312D02*
X7608154Y-11476693D01*
X7560535Y-11429074D01*
X7512916Y-11333836D01*
X7512916Y-11286217D01*
X7560535Y-11190979D01*
X7608154Y-11143360D01*
X7703392Y-11095740D01*
X7893868Y-11095740D01*
X7989106Y-11143360D01*
X8036725Y-11190979D01*
X8084344Y-11286217D01*
X8084344Y-11333836D01*
X8036725Y-11429074D01*
X7989106Y-11476693D01*
X7893868Y-11524312D01*
X7703392Y-11524312D01*
X7608154Y-11571931D01*
X7560535Y-11619550D01*
X7512916Y-11714788D01*
X7512916Y-11905264D01*
X7560535Y-12000502D01*
X7608154Y-12048121D01*
X7703392Y-12095740D01*
X7893868Y-12095740D01*
X7989106Y-12048121D01*
X8036725Y-12000502D01*
X8084344Y-11905264D01*
X8084344Y-11714788D01*
X8036725Y-11619550D01*
X7989106Y-11571931D01*
X7893868Y-11524312D01*
D17*
X60644933Y-16677485D02*
X60478266Y-16677485D01*
X60478266Y-16939390D02*
X60478266Y-16439390D01*
X60716361Y-16439390D01*
X61073504Y-16677485D02*
X61144933Y-16701295D01*
X61168742Y-16725104D01*
X61192552Y-16772723D01*
X61192552Y-16844152D01*
X61168742Y-16891771D01*
X61144933Y-16915580D01*
X61097314Y-16939390D01*
X60906838Y-16939390D01*
X60906838Y-16439390D01*
X61073504Y-16439390D01*
X61121123Y-16463200D01*
X61144933Y-16487009D01*
X61168742Y-16534628D01*
X61168742Y-16582247D01*
X61144933Y-16629866D01*
X61121123Y-16653676D01*
X61073504Y-16677485D01*
X60906838Y-16677485D01*
X61383028Y-16487009D02*
X61406838Y-16463200D01*
X61454457Y-16439390D01*
X61573504Y-16439390D01*
X61621123Y-16463200D01*
X61644933Y-16487009D01*
X61668742Y-16534628D01*
X61668742Y-16582247D01*
X61644933Y-16653676D01*
X61359219Y-16939390D01*
X61668742Y-16939390D01*
D11*
X51236666Y-42370971D02*
X50903333Y-42370971D01*
X50903333Y-42894780D02*
X50903333Y-41894780D01*
X51379523Y-41894780D01*
X52093809Y-42370971D02*
X52236666Y-42418590D01*
X52284285Y-42466209D01*
X52331904Y-42561447D01*
X52331904Y-42704304D01*
X52284285Y-42799542D01*
X52236666Y-42847161D01*
X52141428Y-42894780D01*
X51760476Y-42894780D01*
X51760476Y-41894780D01*
X52093809Y-41894780D01*
X52189047Y-41942400D01*
X52236666Y-41990019D01*
X52284285Y-42085257D01*
X52284285Y-42180495D01*
X52236666Y-42275733D01*
X52189047Y-42323352D01*
X52093809Y-42370971D01*
X51760476Y-42370971D01*
X52665238Y-41894780D02*
X53331904Y-41894780D01*
X52903333Y-42894780D01*
D17*
X60797333Y-26227885D02*
X60630666Y-26227885D01*
X60630666Y-26489790D02*
X60630666Y-25989790D01*
X60868761Y-25989790D01*
X61225904Y-26227885D02*
X61297333Y-26251695D01*
X61321142Y-26275504D01*
X61344952Y-26323123D01*
X61344952Y-26394552D01*
X61321142Y-26442171D01*
X61297333Y-26465980D01*
X61249714Y-26489790D01*
X61059238Y-26489790D01*
X61059238Y-25989790D01*
X61225904Y-25989790D01*
X61273523Y-26013600D01*
X61297333Y-26037409D01*
X61321142Y-26085028D01*
X61321142Y-26132647D01*
X61297333Y-26180266D01*
X61273523Y-26204076D01*
X61225904Y-26227885D01*
X61059238Y-26227885D01*
X61773523Y-26156457D02*
X61773523Y-26489790D01*
X61654476Y-25965980D02*
X61535428Y-26323123D01*
X61844952Y-26323123D01*
X60746533Y-34508285D02*
X60579866Y-34508285D01*
X60579866Y-34770190D02*
X60579866Y-34270190D01*
X60817961Y-34270190D01*
X61175104Y-34508285D02*
X61246533Y-34532095D01*
X61270342Y-34555904D01*
X61294152Y-34603523D01*
X61294152Y-34674952D01*
X61270342Y-34722571D01*
X61246533Y-34746380D01*
X61198914Y-34770190D01*
X61008438Y-34770190D01*
X61008438Y-34270190D01*
X61175104Y-34270190D01*
X61222723Y-34294000D01*
X61246533Y-34317809D01*
X61270342Y-34365428D01*
X61270342Y-34413047D01*
X61246533Y-34460666D01*
X61222723Y-34484476D01*
X61175104Y-34508285D01*
X61008438Y-34508285D01*
X61460819Y-34270190D02*
X61770342Y-34270190D01*
X61603676Y-34460666D01*
X61675104Y-34460666D01*
X61722723Y-34484476D01*
X61746533Y-34508285D01*
X61770342Y-34555904D01*
X61770342Y-34674952D01*
X61746533Y-34722571D01*
X61722723Y-34746380D01*
X61675104Y-34770190D01*
X61532247Y-34770190D01*
X61484628Y-34746380D01*
X61460819Y-34722571D01*
X60695733Y-24856285D02*
X60529066Y-24856285D01*
X60529066Y-25118190D02*
X60529066Y-24618190D01*
X60767161Y-24618190D01*
X61124304Y-24856285D02*
X61195733Y-24880095D01*
X61219542Y-24903904D01*
X61243352Y-24951523D01*
X61243352Y-25022952D01*
X61219542Y-25070571D01*
X61195733Y-25094380D01*
X61148114Y-25118190D01*
X60957638Y-25118190D01*
X60957638Y-24618190D01*
X61124304Y-24618190D01*
X61171923Y-24642000D01*
X61195733Y-24665809D01*
X61219542Y-24713428D01*
X61219542Y-24761047D01*
X61195733Y-24808666D01*
X61171923Y-24832476D01*
X61124304Y-24856285D01*
X60957638Y-24856285D01*
X61719542Y-25118190D02*
X61433828Y-25118190D01*
X61576685Y-25118190D02*
X61576685Y-24618190D01*
X61529066Y-24689619D01*
X61481447Y-24737238D01*
X61433828Y-24761047D01*
D11*
X64403504Y-38111180D02*
X64974933Y-38111180D01*
X64689219Y-39111180D02*
X64689219Y-38111180D01*
X65308266Y-39111180D02*
X65308266Y-38111180D01*
X65689219Y-38111180D01*
X65784457Y-38158800D01*
X65832076Y-38206419D01*
X65879695Y-38301657D01*
X65879695Y-38444514D01*
X65832076Y-38539752D01*
X65784457Y-38587371D01*
X65689219Y-38634990D01*
X65308266Y-38634990D01*
X66260647Y-38206419D02*
X66308266Y-38158800D01*
X66403504Y-38111180D01*
X66641600Y-38111180D01*
X66736838Y-38158800D01*
X66784457Y-38206419D01*
X66832076Y-38301657D01*
X66832076Y-38396895D01*
X66784457Y-38539752D01*
X66213028Y-39111180D01*
X66832076Y-39111180D01*
X67689219Y-38444514D02*
X67689219Y-39111180D01*
X67451123Y-38063561D02*
X67213028Y-38777847D01*
X67832076Y-38777847D01*
D17*
X47278171Y-30401390D02*
X47111504Y-30163295D01*
X46992457Y-30401390D02*
X46992457Y-29901390D01*
X47182933Y-29901390D01*
X47230552Y-29925200D01*
X47254361Y-29949009D01*
X47278171Y-29996628D01*
X47278171Y-30068057D01*
X47254361Y-30115676D01*
X47230552Y-30139485D01*
X47182933Y-30163295D01*
X46992457Y-30163295D01*
X47706742Y-30068057D02*
X47706742Y-30401390D01*
X47587695Y-29877580D02*
X47468647Y-30234723D01*
X47778171Y-30234723D01*
X47921028Y-29901390D02*
X48254361Y-29901390D01*
X48040076Y-30401390D01*
D11*
X55757866Y-49052171D02*
X55424533Y-49052171D01*
X55424533Y-49575980D02*
X55424533Y-48575980D01*
X55900723Y-48575980D01*
X56615009Y-49052171D02*
X56757866Y-49099790D01*
X56805485Y-49147409D01*
X56853104Y-49242647D01*
X56853104Y-49385504D01*
X56805485Y-49480742D01*
X56757866Y-49528361D01*
X56662628Y-49575980D01*
X56281676Y-49575980D01*
X56281676Y-48575980D01*
X56615009Y-48575980D01*
X56710247Y-48623600D01*
X56757866Y-48671219D01*
X56805485Y-48766457D01*
X56805485Y-48861695D01*
X56757866Y-48956933D01*
X56710247Y-49004552D01*
X56615009Y-49052171D01*
X56281676Y-49052171D01*
X57424533Y-49004552D02*
X57329295Y-48956933D01*
X57281676Y-48909314D01*
X57234057Y-48814076D01*
X57234057Y-48766457D01*
X57281676Y-48671219D01*
X57329295Y-48623600D01*
X57424533Y-48575980D01*
X57615009Y-48575980D01*
X57710247Y-48623600D01*
X57757866Y-48671219D01*
X57805485Y-48766457D01*
X57805485Y-48814076D01*
X57757866Y-48909314D01*
X57710247Y-48956933D01*
X57615009Y-49004552D01*
X57424533Y-49004552D01*
X57329295Y-49052171D01*
X57281676Y-49099790D01*
X57234057Y-49195028D01*
X57234057Y-49385504D01*
X57281676Y-49480742D01*
X57329295Y-49528361D01*
X57424533Y-49575980D01*
X57615009Y-49575980D01*
X57710247Y-49528361D01*
X57757866Y-49480742D01*
X57805485Y-49385504D01*
X57805485Y-49195028D01*
X57757866Y-49099790D01*
X57710247Y-49052171D01*
X57615009Y-49004552D01*
X58248609Y-75707390D02*
X58248609Y-76183580D01*
X57915276Y-75183580D02*
X58248609Y-75707390D01*
X58581942Y-75183580D01*
X58867657Y-75278819D02*
X58915276Y-75231200D01*
X59010514Y-75183580D01*
X59248609Y-75183580D01*
X59343847Y-75231200D01*
X59391466Y-75278819D01*
X59439085Y-75374057D01*
X59439085Y-75469295D01*
X59391466Y-75612152D01*
X58820038Y-76183580D01*
X59439085Y-76183580D01*
X29953009Y-65011790D02*
X29953009Y-65487980D01*
X29619676Y-64487980D02*
X29953009Y-65011790D01*
X30286342Y-64487980D01*
X31143485Y-65487980D02*
X30572057Y-65487980D01*
X30857771Y-65487980D02*
X30857771Y-64487980D01*
X30762533Y-64630838D01*
X30667295Y-64726076D01*
X30572057Y-64773695D01*
X1651095Y-82002380D02*
X1651095Y-82811904D01*
X1698714Y-82907142D01*
X1746333Y-82954761D01*
X1841571Y-83002380D01*
X2032047Y-83002380D01*
X2127285Y-82954761D01*
X2174904Y-82907142D01*
X2222523Y-82811904D01*
X2222523Y-82002380D01*
X3174904Y-82002380D02*
X2698714Y-82002380D01*
X2651095Y-82478571D01*
X2698714Y-82430952D01*
X2793952Y-82383333D01*
X3032047Y-82383333D01*
X3127285Y-82430952D01*
X3174904Y-82478571D01*
X3222523Y-82573809D01*
X3222523Y-82811904D01*
X3174904Y-82907142D01*
X3127285Y-82954761D01*
X3032047Y-83002380D01*
X2793952Y-83002380D01*
X2698714Y-82954761D01*
X2651095Y-82907142D01*
X3591466Y-95718380D02*
X3591466Y-96527904D01*
X3639085Y-96623142D01*
X3686704Y-96670761D01*
X3781942Y-96718380D01*
X3972419Y-96718380D01*
X4067657Y-96670761D01*
X4115276Y-96623142D01*
X4162895Y-96527904D01*
X4162895Y-95718380D01*
X4591466Y-96670761D02*
X4734323Y-96718380D01*
X4972419Y-96718380D01*
X5067657Y-96670761D01*
X5115276Y-96623142D01*
X5162895Y-96527904D01*
X5162895Y-96432666D01*
X5115276Y-96337428D01*
X5067657Y-96289809D01*
X4972419Y-96242190D01*
X4781942Y-96194571D01*
X4686704Y-96146952D01*
X4639085Y-96099333D01*
X4591466Y-96004095D01*
X4591466Y-95908857D01*
X4639085Y-95813619D01*
X4686704Y-95766000D01*
X4781942Y-95718380D01*
X5020038Y-95718380D01*
X5162895Y-95766000D01*
X5924800Y-96194571D02*
X6067657Y-96242190D01*
X6115276Y-96289809D01*
X6162895Y-96385047D01*
X6162895Y-96527904D01*
X6115276Y-96623142D01*
X6067657Y-96670761D01*
X5972419Y-96718380D01*
X5591466Y-96718380D01*
X5591466Y-95718380D01*
X5924800Y-95718380D01*
X6020038Y-95766000D01*
X6067657Y-95813619D01*
X6115276Y-95908857D01*
X6115276Y-96004095D01*
X6067657Y-96099333D01*
X6020038Y-96146952D01*
X5924800Y-96194571D01*
X5591466Y-96194571D01*
X6353371Y-96813619D02*
X7115276Y-96813619D01*
X7353371Y-96718380D02*
X7353371Y-95718380D01*
X7734323Y-95718380D01*
X7829561Y-95766000D01*
X7877180Y-95813619D01*
X7924800Y-95908857D01*
X7924800Y-96051714D01*
X7877180Y-96146952D01*
X7829561Y-96194571D01*
X7734323Y-96242190D01*
X7353371Y-96242190D01*
X8496228Y-96718380D02*
X8400990Y-96670761D01*
X8353371Y-96623142D01*
X8305752Y-96527904D01*
X8305752Y-96242190D01*
X8353371Y-96146952D01*
X8400990Y-96099333D01*
X8496228Y-96051714D01*
X8639085Y-96051714D01*
X8734323Y-96099333D01*
X8781942Y-96146952D01*
X8829561Y-96242190D01*
X8829561Y-96527904D01*
X8781942Y-96623142D01*
X8734323Y-96670761D01*
X8639085Y-96718380D01*
X8496228Y-96718380D01*
X9162895Y-96051714D02*
X9353371Y-96718380D01*
X9543847Y-96242190D01*
X9734323Y-96718380D01*
X9924800Y-96051714D01*
X10686704Y-96670761D02*
X10591466Y-96718380D01*
X10400990Y-96718380D01*
X10305752Y-96670761D01*
X10258133Y-96575523D01*
X10258133Y-96194571D01*
X10305752Y-96099333D01*
X10400990Y-96051714D01*
X10591466Y-96051714D01*
X10686704Y-96099333D01*
X10734323Y-96194571D01*
X10734323Y-96289809D01*
X10258133Y-96385047D01*
X11162895Y-96718380D02*
X11162895Y-96051714D01*
X11162895Y-96242190D02*
X11210514Y-96146952D01*
X11258133Y-96099333D01*
X11353371Y-96051714D01*
X11448609Y-96051714D01*
X12305752Y-96718380D02*
X11734323Y-96718380D01*
X12020038Y-96718380D02*
X12020038Y-95718380D01*
X11924800Y-95861238D01*
X11829561Y-95956476D01*
X11734323Y-96004095D01*
X66981746Y-58390540D02*
X66981746Y-59104826D01*
X66934127Y-59247683D01*
X66838889Y-59342921D01*
X66696032Y-59390540D01*
X66600794Y-59390540D01*
X67981746Y-59390540D02*
X67410318Y-59390540D01*
X67696032Y-59390540D02*
X67696032Y-58390540D01*
X67600794Y-58533398D01*
X67505556Y-58628636D01*
X67410318Y-58676255D01*
X3675142Y-90522380D02*
X3341809Y-90046190D01*
X3103714Y-90522380D02*
X3103714Y-89522380D01*
X3484666Y-89522380D01*
X3579904Y-89570000D01*
X3627523Y-89617619D01*
X3675142Y-89712857D01*
X3675142Y-89855714D01*
X3627523Y-89950952D01*
X3579904Y-89998571D01*
X3484666Y-90046190D01*
X3103714Y-90046190D01*
X4532285Y-89855714D02*
X4532285Y-90522380D01*
X4294190Y-89474761D02*
X4056095Y-90189047D01*
X4675142Y-90189047D01*
X5246571Y-89522380D02*
X5341809Y-89522380D01*
X5437047Y-89570000D01*
X5484666Y-89617619D01*
X5532285Y-89712857D01*
X5579904Y-89903333D01*
X5579904Y-90141428D01*
X5532285Y-90331904D01*
X5484666Y-90427142D01*
X5437047Y-90474761D01*
X5341809Y-90522380D01*
X5246571Y-90522380D01*
X5151333Y-90474761D01*
X5103714Y-90427142D01*
X5056095Y-90331904D01*
X5008476Y-90141428D01*
X5008476Y-89903333D01*
X5056095Y-89712857D01*
X5103714Y-89617619D01*
X5151333Y-89570000D01*
X5246571Y-89522380D01*
X4056142Y-81351380D02*
X3722809Y-80875190D01*
X3484714Y-81351380D02*
X3484714Y-80351380D01*
X3865666Y-80351380D01*
X3960904Y-80399000D01*
X4008523Y-80446619D01*
X4056142Y-80541857D01*
X4056142Y-80684714D01*
X4008523Y-80779952D01*
X3960904Y-80827571D01*
X3865666Y-80875190D01*
X3484714Y-80875190D01*
X4389476Y-80351380D02*
X5008523Y-80351380D01*
X4675190Y-80732333D01*
X4818047Y-80732333D01*
X4913285Y-80779952D01*
X4960904Y-80827571D01*
X5008523Y-80922809D01*
X5008523Y-81160904D01*
X4960904Y-81256142D01*
X4913285Y-81303761D01*
X4818047Y-81351380D01*
X4532333Y-81351380D01*
X4437095Y-81303761D01*
X4389476Y-81256142D01*
X5484714Y-81351380D02*
X5675190Y-81351380D01*
X5770428Y-81303761D01*
X5818047Y-81256142D01*
X5913285Y-81113285D01*
X5960904Y-80922809D01*
X5960904Y-80541857D01*
X5913285Y-80446619D01*
X5865666Y-80399000D01*
X5770428Y-80351380D01*
X5579952Y-80351380D01*
X5484714Y-80399000D01*
X5437095Y-80446619D01*
X5389476Y-80541857D01*
X5389476Y-80779952D01*
X5437095Y-80875190D01*
X5484714Y-80922809D01*
X5579952Y-80970428D01*
X5770428Y-80970428D01*
X5865666Y-80922809D01*
X5913285Y-80875190D01*
X5960904Y-80779952D01*
D17*
X47049571Y-72108190D02*
X46882904Y-71870095D01*
X46763857Y-72108190D02*
X46763857Y-71608190D01*
X46954333Y-71608190D01*
X47001952Y-71632000D01*
X47025761Y-71655809D01*
X47049571Y-71703428D01*
X47049571Y-71774857D01*
X47025761Y-71822476D01*
X47001952Y-71846285D01*
X46954333Y-71870095D01*
X46763857Y-71870095D01*
X47216238Y-71608190D02*
X47525761Y-71608190D01*
X47359095Y-71798666D01*
X47430523Y-71798666D01*
X47478142Y-71822476D01*
X47501952Y-71846285D01*
X47525761Y-71893904D01*
X47525761Y-72012952D01*
X47501952Y-72060571D01*
X47478142Y-72084380D01*
X47430523Y-72108190D01*
X47287666Y-72108190D01*
X47240047Y-72084380D01*
X47216238Y-72060571D01*
X47811476Y-71822476D02*
X47763857Y-71798666D01*
X47740047Y-71774857D01*
X47716238Y-71727238D01*
X47716238Y-71703428D01*
X47740047Y-71655809D01*
X47763857Y-71632000D01*
X47811476Y-71608190D01*
X47906714Y-71608190D01*
X47954333Y-71632000D01*
X47978142Y-71655809D01*
X48001952Y-71703428D01*
X48001952Y-71727238D01*
X47978142Y-71774857D01*
X47954333Y-71798666D01*
X47906714Y-71822476D01*
X47811476Y-71822476D01*
X47763857Y-71846285D01*
X47740047Y-71870095D01*
X47716238Y-71917714D01*
X47716238Y-72012952D01*
X47740047Y-72060571D01*
X47763857Y-72084380D01*
X47811476Y-72108190D01*
X47906714Y-72108190D01*
X47954333Y-72084380D01*
X47978142Y-72060571D01*
X48001952Y-72012952D01*
X48001952Y-71917714D01*
X47978142Y-71870095D01*
X47954333Y-71846285D01*
X47906714Y-71822476D01*
D11*
X49522142Y-83383380D02*
X49188809Y-82907190D01*
X48950714Y-83383380D02*
X48950714Y-82383380D01*
X49331666Y-82383380D01*
X49426904Y-82431000D01*
X49474523Y-82478619D01*
X49522142Y-82573857D01*
X49522142Y-82716714D01*
X49474523Y-82811952D01*
X49426904Y-82859571D01*
X49331666Y-82907190D01*
X48950714Y-82907190D01*
X49855476Y-82383380D02*
X50474523Y-82383380D01*
X50141190Y-82764333D01*
X50284047Y-82764333D01*
X50379285Y-82811952D01*
X50426904Y-82859571D01*
X50474523Y-82954809D01*
X50474523Y-83192904D01*
X50426904Y-83288142D01*
X50379285Y-83335761D01*
X50284047Y-83383380D01*
X49998333Y-83383380D01*
X49903095Y-83335761D01*
X49855476Y-83288142D01*
X50807857Y-82383380D02*
X51426904Y-82383380D01*
X51093571Y-82764333D01*
X51236428Y-82764333D01*
X51331666Y-82811952D01*
X51379285Y-82859571D01*
X51426904Y-82954809D01*
X51426904Y-83192904D01*
X51379285Y-83288142D01*
X51331666Y-83335761D01*
X51236428Y-83383380D01*
X50950714Y-83383380D01*
X50855476Y-83335761D01*
X50807857Y-83288142D01*
D17*
X45779571Y-76553190D02*
X45612904Y-76315095D01*
X45493857Y-76553190D02*
X45493857Y-76053190D01*
X45684333Y-76053190D01*
X45731952Y-76077000D01*
X45755761Y-76100809D01*
X45779571Y-76148428D01*
X45779571Y-76219857D01*
X45755761Y-76267476D01*
X45731952Y-76291285D01*
X45684333Y-76315095D01*
X45493857Y-76315095D01*
X45970047Y-76100809D02*
X45993857Y-76077000D01*
X46041476Y-76053190D01*
X46160523Y-76053190D01*
X46208142Y-76077000D01*
X46231952Y-76100809D01*
X46255761Y-76148428D01*
X46255761Y-76196047D01*
X46231952Y-76267476D01*
X45946238Y-76553190D01*
X46255761Y-76553190D01*
X46493857Y-76553190D02*
X46589095Y-76553190D01*
X46636714Y-76529380D01*
X46660523Y-76505571D01*
X46708142Y-76434142D01*
X46731952Y-76338904D01*
X46731952Y-76148428D01*
X46708142Y-76100809D01*
X46684333Y-76077000D01*
X46636714Y-76053190D01*
X46541476Y-76053190D01*
X46493857Y-76077000D01*
X46470047Y-76100809D01*
X46446238Y-76148428D01*
X46446238Y-76267476D01*
X46470047Y-76315095D01*
X46493857Y-76338904D01*
X46541476Y-76362714D01*
X46636714Y-76362714D01*
X46684333Y-76338904D01*
X46708142Y-76315095D01*
X46731952Y-76267476D01*
D11*
X69689742Y-41778180D02*
X69356409Y-41301990D01*
X69118314Y-41778180D02*
X69118314Y-40778180D01*
X69499266Y-40778180D01*
X69594504Y-40825800D01*
X69642123Y-40873419D01*
X69689742Y-40968657D01*
X69689742Y-41111514D01*
X69642123Y-41206752D01*
X69594504Y-41254371D01*
X69499266Y-41301990D01*
X69118314Y-41301990D01*
X70070695Y-40873419D02*
X70118314Y-40825800D01*
X70213552Y-40778180D01*
X70451647Y-40778180D01*
X70546885Y-40825800D01*
X70594504Y-40873419D01*
X70642123Y-40968657D01*
X70642123Y-41063895D01*
X70594504Y-41206752D01*
X70023076Y-41778180D01*
X70642123Y-41778180D01*
X71213552Y-41206752D02*
X71118314Y-41159133D01*
X71070695Y-41111514D01*
X71023076Y-41016276D01*
X71023076Y-40968657D01*
X71070695Y-40873419D01*
X71118314Y-40825800D01*
X71213552Y-40778180D01*
X71404028Y-40778180D01*
X71499266Y-40825800D01*
X71546885Y-40873419D01*
X71594504Y-40968657D01*
X71594504Y-41016276D01*
X71546885Y-41111514D01*
X71499266Y-41159133D01*
X71404028Y-41206752D01*
X71213552Y-41206752D01*
X71118314Y-41254371D01*
X71070695Y-41301990D01*
X71023076Y-41397228D01*
X71023076Y-41587704D01*
X71070695Y-41682942D01*
X71118314Y-41730561D01*
X71213552Y-41778180D01*
X71404028Y-41778180D01*
X71499266Y-41730561D01*
X71546885Y-41682942D01*
X71594504Y-41587704D01*
X71594504Y-41397228D01*
X71546885Y-41301990D01*
X71499266Y-41254371D01*
X71404028Y-41206752D01*
X64713076Y-41709780D02*
X64713076Y-40709780D01*
X65094028Y-40709780D01*
X65189266Y-40757400D01*
X65236885Y-40805019D01*
X65284504Y-40900257D01*
X65284504Y-41043114D01*
X65236885Y-41138352D01*
X65189266Y-41185971D01*
X65094028Y-41233590D01*
X64713076Y-41233590D01*
X65617838Y-40709780D02*
X65855933Y-41709780D01*
X66046409Y-40995495D01*
X66236885Y-41709780D01*
X66474980Y-40709780D01*
X67427361Y-41709780D02*
X67094028Y-41233590D01*
X66855933Y-41709780D02*
X66855933Y-40709780D01*
X67236885Y-40709780D01*
X67332123Y-40757400D01*
X67379742Y-40805019D01*
X67427361Y-40900257D01*
X67427361Y-41043114D01*
X67379742Y-41138352D01*
X67332123Y-41185971D01*
X67236885Y-41233590D01*
X66855933Y-41233590D01*
X68379742Y-41709780D02*
X67808314Y-41709780D01*
X68094028Y-41709780D02*
X68094028Y-40709780D01*
X67998790Y-40852638D01*
X67903552Y-40947876D01*
X67808314Y-40995495D01*
X39139904Y-81351380D02*
X39139904Y-80351380D01*
X39520857Y-80351380D01*
X39616095Y-80399000D01*
X39663714Y-80446619D01*
X39711333Y-80541857D01*
X39711333Y-80684714D01*
X39663714Y-80779952D01*
X39616095Y-80827571D01*
X39520857Y-80875190D01*
X39139904Y-80875190D01*
X40568476Y-80684714D02*
X40568476Y-81351380D01*
X40330380Y-80303761D02*
X40092285Y-81018047D01*
X40711333Y-81018047D01*
X39139904Y-79573380D02*
X39139904Y-78573380D01*
X39520857Y-78573380D01*
X39616095Y-78621000D01*
X39663714Y-78668619D01*
X39711333Y-78763857D01*
X39711333Y-78906714D01*
X39663714Y-79001952D01*
X39616095Y-79049571D01*
X39520857Y-79097190D01*
X39139904Y-79097190D01*
X40044666Y-78573380D02*
X40663714Y-78573380D01*
X40330380Y-78954333D01*
X40473238Y-78954333D01*
X40568476Y-79001952D01*
X40616095Y-79049571D01*
X40663714Y-79144809D01*
X40663714Y-79382904D01*
X40616095Y-79478142D01*
X40568476Y-79525761D01*
X40473238Y-79573380D01*
X40187523Y-79573380D01*
X40092285Y-79525761D01*
X40044666Y-79478142D01*
X47521904Y-81351380D02*
X47521904Y-80351380D01*
X47902857Y-80351380D01*
X47998095Y-80399000D01*
X48045714Y-80446619D01*
X48093333Y-80541857D01*
X48093333Y-80684714D01*
X48045714Y-80779952D01*
X47998095Y-80827571D01*
X47902857Y-80875190D01*
X47521904Y-80875190D01*
X48474285Y-80446619D02*
X48521904Y-80399000D01*
X48617142Y-80351380D01*
X48855238Y-80351380D01*
X48950476Y-80399000D01*
X48998095Y-80446619D01*
X49045714Y-80541857D01*
X49045714Y-80637095D01*
X48998095Y-80779952D01*
X48426666Y-81351380D01*
X49045714Y-81351380D01*
X47521904Y-79573380D02*
X47521904Y-78573380D01*
X47902857Y-78573380D01*
X47998095Y-78621000D01*
X48045714Y-78668619D01*
X48093333Y-78763857D01*
X48093333Y-78906714D01*
X48045714Y-79001952D01*
X47998095Y-79049571D01*
X47902857Y-79097190D01*
X47521904Y-79097190D01*
X49045714Y-79573380D02*
X48474285Y-79573380D01*
X48760000Y-79573380D02*
X48760000Y-78573380D01*
X48664761Y-78716238D01*
X48569523Y-78811476D01*
X48474285Y-78859095D01*
X43346666Y-72969238D02*
X43346666Y-72493047D01*
X43632380Y-73064476D02*
X42632380Y-72731142D01*
X43632380Y-72397809D01*
X43537142Y-71493047D02*
X43584761Y-71540666D01*
X43632380Y-71683523D01*
X43632380Y-71778761D01*
X43584761Y-71921619D01*
X43489523Y-72016857D01*
X43394285Y-72064476D01*
X43203809Y-72112095D01*
X43060952Y-72112095D01*
X42870476Y-72064476D01*
X42775238Y-72016857D01*
X42680000Y-71921619D01*
X42632380Y-71778761D01*
X42632380Y-71683523D01*
X42680000Y-71540666D01*
X42727619Y-71493047D01*
X42632380Y-71207333D02*
X42632380Y-70635904D01*
X43632380Y-70921619D02*
X42632380Y-70921619D01*
X43632380Y-69778761D02*
X43632380Y-70350190D01*
X43632380Y-70064476D02*
X42632380Y-70064476D01*
X42775238Y-70159714D01*
X42870476Y-70254952D01*
X42918095Y-70350190D01*
X23837995Y-43127680D02*
X23837995Y-43937204D01*
X23885614Y-44032442D01*
X23933233Y-44080061D01*
X24028471Y-44127680D01*
X24218947Y-44127680D01*
X24314185Y-44080061D01*
X24361804Y-44032442D01*
X24409423Y-43937204D01*
X24409423Y-43127680D01*
X25314185Y-43461014D02*
X25314185Y-44127680D01*
X25076090Y-43080061D02*
X24837995Y-43794347D01*
X25457042Y-43794347D01*
X55475142Y-66784457D02*
X55522761Y-66832076D01*
X55570380Y-66974933D01*
X55570380Y-67070171D01*
X55522761Y-67213028D01*
X55427523Y-67308266D01*
X55332285Y-67355885D01*
X55141809Y-67403504D01*
X54998952Y-67403504D01*
X54808476Y-67355885D01*
X54713238Y-67308266D01*
X54618000Y-67213028D01*
X54570380Y-67070171D01*
X54570380Y-66974933D01*
X54618000Y-66832076D01*
X54665619Y-66784457D01*
X54570380Y-66451123D02*
X54570380Y-65832076D01*
X54951333Y-66165409D01*
X54951333Y-66022552D01*
X54998952Y-65927314D01*
X55046571Y-65879695D01*
X55141809Y-65832076D01*
X55379904Y-65832076D01*
X55475142Y-65879695D01*
X55522761Y-65927314D01*
X55570380Y-66022552D01*
X55570380Y-66308266D01*
X55522761Y-66403504D01*
X55475142Y-66451123D01*
X54903714Y-64974933D02*
X55570380Y-64974933D01*
X54522761Y-65213028D02*
X55237047Y-65451123D01*
X55237047Y-64832076D01*
X12400042Y-67006742D02*
X12352423Y-67054361D01*
X12209566Y-67101980D01*
X12114328Y-67101980D01*
X11971471Y-67054361D01*
X11876233Y-66959123D01*
X11828614Y-66863885D01*
X11780995Y-66673409D01*
X11780995Y-66530552D01*
X11828614Y-66340076D01*
X11876233Y-66244838D01*
X11971471Y-66149600D01*
X12114328Y-66101980D01*
X12209566Y-66101980D01*
X12352423Y-66149600D01*
X12400042Y-66197219D01*
X13304804Y-66101980D02*
X12828614Y-66101980D01*
X12780995Y-66578171D01*
X12828614Y-66530552D01*
X12923852Y-66482933D01*
X13161947Y-66482933D01*
X13257185Y-66530552D01*
X13304804Y-66578171D01*
X13352423Y-66673409D01*
X13352423Y-66911504D01*
X13304804Y-67006742D01*
X13257185Y-67054361D01*
X13161947Y-67101980D01*
X12923852Y-67101980D01*
X12828614Y-67054361D01*
X12780995Y-67006742D01*
X14209566Y-66435314D02*
X14209566Y-67101980D01*
X13971471Y-66054361D02*
X13733376Y-66768647D01*
X14352423Y-66768647D01*
X28046442Y-83870742D02*
X27998823Y-83918361D01*
X27855966Y-83965980D01*
X27760728Y-83965980D01*
X27617871Y-83918361D01*
X27522633Y-83823123D01*
X27475014Y-83727885D01*
X27427395Y-83537409D01*
X27427395Y-83394552D01*
X27475014Y-83204076D01*
X27522633Y-83108838D01*
X27617871Y-83013600D01*
X27760728Y-82965980D01*
X27855966Y-82965980D01*
X27998823Y-83013600D01*
X28046442Y-83061219D01*
X28951204Y-82965980D02*
X28475014Y-82965980D01*
X28427395Y-83442171D01*
X28475014Y-83394552D01*
X28570252Y-83346933D01*
X28808347Y-83346933D01*
X28903585Y-83394552D01*
X28951204Y-83442171D01*
X28998823Y-83537409D01*
X28998823Y-83775504D01*
X28951204Y-83870742D01*
X28903585Y-83918361D01*
X28808347Y-83965980D01*
X28570252Y-83965980D01*
X28475014Y-83918361D01*
X28427395Y-83870742D01*
X29332157Y-82965980D02*
X29951204Y-82965980D01*
X29617871Y-83346933D01*
X29760728Y-83346933D01*
X29855966Y-83394552D01*
X29903585Y-83442171D01*
X29951204Y-83537409D01*
X29951204Y-83775504D01*
X29903585Y-83870742D01*
X29855966Y-83918361D01*
X29760728Y-83965980D01*
X29475014Y-83965980D01*
X29379776Y-83918361D01*
X29332157Y-83870742D01*
X27957542Y-87428342D02*
X27909923Y-87475961D01*
X27767066Y-87523580D01*
X27671828Y-87523580D01*
X27528971Y-87475961D01*
X27433733Y-87380723D01*
X27386114Y-87285485D01*
X27338495Y-87095009D01*
X27338495Y-86952152D01*
X27386114Y-86761676D01*
X27433733Y-86666438D01*
X27528971Y-86571200D01*
X27671828Y-86523580D01*
X27767066Y-86523580D01*
X27909923Y-86571200D01*
X27957542Y-86618819D01*
X28862304Y-86523580D02*
X28386114Y-86523580D01*
X28338495Y-86999771D01*
X28386114Y-86952152D01*
X28481352Y-86904533D01*
X28719447Y-86904533D01*
X28814685Y-86952152D01*
X28862304Y-86999771D01*
X28909923Y-87095009D01*
X28909923Y-87333104D01*
X28862304Y-87428342D01*
X28814685Y-87475961D01*
X28719447Y-87523580D01*
X28481352Y-87523580D01*
X28386114Y-87475961D01*
X28338495Y-87428342D01*
X29290876Y-86618819D02*
X29338495Y-86571200D01*
X29433733Y-86523580D01*
X29671828Y-86523580D01*
X29767066Y-86571200D01*
X29814685Y-86618819D01*
X29862304Y-86714057D01*
X29862304Y-86809295D01*
X29814685Y-86952152D01*
X29243257Y-87523580D01*
X29862304Y-87523580D01*
X29049742Y-81611742D02*
X29002123Y-81659361D01*
X28859266Y-81706980D01*
X28764028Y-81706980D01*
X28621171Y-81659361D01*
X28525933Y-81564123D01*
X28478314Y-81468885D01*
X28430695Y-81278409D01*
X28430695Y-81135552D01*
X28478314Y-80945076D01*
X28525933Y-80849838D01*
X28621171Y-80754600D01*
X28764028Y-80706980D01*
X28859266Y-80706980D01*
X29002123Y-80754600D01*
X29049742Y-80802219D01*
X29954504Y-80706980D02*
X29478314Y-80706980D01*
X29430695Y-81183171D01*
X29478314Y-81135552D01*
X29573552Y-81087933D01*
X29811647Y-81087933D01*
X29906885Y-81135552D01*
X29954504Y-81183171D01*
X30002123Y-81278409D01*
X30002123Y-81516504D01*
X29954504Y-81611742D01*
X29906885Y-81659361D01*
X29811647Y-81706980D01*
X29573552Y-81706980D01*
X29478314Y-81659361D01*
X29430695Y-81611742D01*
X30954504Y-81706980D02*
X30383076Y-81706980D01*
X30668790Y-81706980D02*
X30668790Y-80706980D01*
X30573552Y-80849838D01*
X30478314Y-80945076D01*
X30383076Y-80992695D01*
D17*
X16739371Y-69765028D02*
X16763180Y-69788838D01*
X16786990Y-69860266D01*
X16786990Y-69907885D01*
X16763180Y-69979314D01*
X16715561Y-70026933D01*
X16667942Y-70050742D01*
X16572704Y-70074552D01*
X16501276Y-70074552D01*
X16406038Y-70050742D01*
X16358419Y-70026933D01*
X16310800Y-69979314D01*
X16286990Y-69907885D01*
X16286990Y-69860266D01*
X16310800Y-69788838D01*
X16334609Y-69765028D01*
X16286990Y-69312647D02*
X16286990Y-69550742D01*
X16525085Y-69574552D01*
X16501276Y-69550742D01*
X16477466Y-69503123D01*
X16477466Y-69384076D01*
X16501276Y-69336457D01*
X16525085Y-69312647D01*
X16572704Y-69288838D01*
X16691752Y-69288838D01*
X16739371Y-69312647D01*
X16763180Y-69336457D01*
X16786990Y-69384076D01*
X16786990Y-69503123D01*
X16763180Y-69550742D01*
X16739371Y-69574552D01*
X16286990Y-68979314D02*
X16286990Y-68931695D01*
X16310800Y-68884076D01*
X16334609Y-68860266D01*
X16382228Y-68836457D01*
X16477466Y-68812647D01*
X16596514Y-68812647D01*
X16691752Y-68836457D01*
X16739371Y-68860266D01*
X16763180Y-68884076D01*
X16786990Y-68931695D01*
X16786990Y-68979314D01*
X16763180Y-69026933D01*
X16739371Y-69050742D01*
X16691752Y-69074552D01*
X16596514Y-69098361D01*
X16477466Y-69098361D01*
X16382228Y-69074552D01*
X16334609Y-69050742D01*
X16310800Y-69026933D01*
X16286990Y-68979314D01*
X20676371Y-82769828D02*
X20700180Y-82793638D01*
X20723990Y-82865066D01*
X20723990Y-82912685D01*
X20700180Y-82984114D01*
X20652561Y-83031733D01*
X20604942Y-83055542D01*
X20509704Y-83079352D01*
X20438276Y-83079352D01*
X20343038Y-83055542D01*
X20295419Y-83031733D01*
X20247800Y-82984114D01*
X20223990Y-82912685D01*
X20223990Y-82865066D01*
X20247800Y-82793638D01*
X20271609Y-82769828D01*
X20390657Y-82341257D02*
X20723990Y-82341257D01*
X20200180Y-82460304D02*
X20557323Y-82579352D01*
X20557323Y-82269828D01*
X20723990Y-82055542D02*
X20723990Y-81960304D01*
X20700180Y-81912685D01*
X20676371Y-81888876D01*
X20604942Y-81841257D01*
X20509704Y-81817447D01*
X20319228Y-81817447D01*
X20271609Y-81841257D01*
X20247800Y-81865066D01*
X20223990Y-81912685D01*
X20223990Y-82007923D01*
X20247800Y-82055542D01*
X20271609Y-82079352D01*
X20319228Y-82103161D01*
X20438276Y-82103161D01*
X20485895Y-82079352D01*
X20509704Y-82055542D01*
X20533514Y-82007923D01*
X20533514Y-81912685D01*
X20509704Y-81865066D01*
X20485895Y-81841257D01*
X20438276Y-81817447D01*
D11*
X14190742Y-82640442D02*
X14143123Y-82688061D01*
X14000266Y-82735680D01*
X13905028Y-82735680D01*
X13762171Y-82688061D01*
X13666933Y-82592823D01*
X13619314Y-82497585D01*
X13571695Y-82307109D01*
X13571695Y-82164252D01*
X13619314Y-81973776D01*
X13666933Y-81878538D01*
X13762171Y-81783300D01*
X13905028Y-81735680D01*
X14000266Y-81735680D01*
X14143123Y-81783300D01*
X14190742Y-81830919D01*
X15047885Y-82069014D02*
X15047885Y-82735680D01*
X14809790Y-81688061D02*
X14571695Y-82402347D01*
X15190742Y-82402347D01*
X15714552Y-82164252D02*
X15619314Y-82116633D01*
X15571695Y-82069014D01*
X15524076Y-81973776D01*
X15524076Y-81926157D01*
X15571695Y-81830919D01*
X15619314Y-81783300D01*
X15714552Y-81735680D01*
X15905028Y-81735680D01*
X16000266Y-81783300D01*
X16047885Y-81830919D01*
X16095504Y-81926157D01*
X16095504Y-81973776D01*
X16047885Y-82069014D01*
X16000266Y-82116633D01*
X15905028Y-82164252D01*
X15714552Y-82164252D01*
X15619314Y-82211871D01*
X15571695Y-82259490D01*
X15524076Y-82354728D01*
X15524076Y-82545204D01*
X15571695Y-82640442D01*
X15619314Y-82688061D01*
X15714552Y-82735680D01*
X15905028Y-82735680D01*
X16000266Y-82688061D01*
X16047885Y-82640442D01*
X16095504Y-82545204D01*
X16095504Y-82354728D01*
X16047885Y-82259490D01*
X16000266Y-82211871D01*
X15905028Y-82164252D01*
X10177542Y-75388742D02*
X10129923Y-75436361D01*
X9987066Y-75483980D01*
X9891828Y-75483980D01*
X9748971Y-75436361D01*
X9653733Y-75341123D01*
X9606114Y-75245885D01*
X9558495Y-75055409D01*
X9558495Y-74912552D01*
X9606114Y-74722076D01*
X9653733Y-74626838D01*
X9748971Y-74531600D01*
X9891828Y-74483980D01*
X9987066Y-74483980D01*
X10129923Y-74531600D01*
X10177542Y-74579219D01*
X11034685Y-74817314D02*
X11034685Y-75483980D01*
X10796590Y-74436361D02*
X10558495Y-75150647D01*
X11177542Y-75150647D01*
X11463257Y-74483980D02*
X12129923Y-74483980D01*
X11701352Y-75483980D01*
X31475443Y-80873543D02*
X31427824Y-80921162D01*
X31284967Y-80968781D01*
X31189729Y-80968781D01*
X31046872Y-80921162D01*
X30951634Y-80825924D01*
X30904015Y-80730686D01*
X30856396Y-80540210D01*
X30856396Y-80397353D01*
X30904015Y-80206877D01*
X30951634Y-80111639D01*
X31046872Y-80016401D01*
X31189729Y-79968781D01*
X31284967Y-79968781D01*
X31427824Y-80016401D01*
X31475443Y-80064020D01*
X32332586Y-80302115D02*
X32332586Y-80968781D01*
X32094491Y-79921162D02*
X31856396Y-80635448D01*
X32475443Y-80635448D01*
X33284967Y-79968781D02*
X33094491Y-79968781D01*
X32999253Y-80016401D01*
X32951634Y-80064020D01*
X32856396Y-80206877D01*
X32808777Y-80397353D01*
X32808777Y-80778305D01*
X32856396Y-80873543D01*
X32904015Y-80921162D01*
X32999253Y-80968781D01*
X33189729Y-80968781D01*
X33284967Y-80921162D01*
X33332586Y-80873543D01*
X33380205Y-80778305D01*
X33380205Y-80540210D01*
X33332586Y-80444972D01*
X33284967Y-80397353D01*
X33189729Y-80349734D01*
X32999253Y-80349734D01*
X32904015Y-80397353D01*
X32856396Y-80444972D01*
X32808777Y-80540210D01*
X10075942Y-79351142D02*
X10028323Y-79398761D01*
X9885466Y-79446380D01*
X9790228Y-79446380D01*
X9647371Y-79398761D01*
X9552133Y-79303523D01*
X9504514Y-79208285D01*
X9456895Y-79017809D01*
X9456895Y-78874952D01*
X9504514Y-78684476D01*
X9552133Y-78589238D01*
X9647371Y-78494000D01*
X9790228Y-78446380D01*
X9885466Y-78446380D01*
X10028323Y-78494000D01*
X10075942Y-78541619D01*
X10933085Y-78779714D02*
X10933085Y-79446380D01*
X10694990Y-78398761D02*
X10456895Y-79113047D01*
X11075942Y-79113047D01*
X11933085Y-78446380D02*
X11456895Y-78446380D01*
X11409276Y-78922571D01*
X11456895Y-78874952D01*
X11552133Y-78827333D01*
X11790228Y-78827333D01*
X11885466Y-78874952D01*
X11933085Y-78922571D01*
X11980704Y-79017809D01*
X11980704Y-79255904D01*
X11933085Y-79351142D01*
X11885466Y-79398761D01*
X11790228Y-79446380D01*
X11552133Y-79446380D01*
X11456895Y-79398761D01*
X11409276Y-79351142D01*
X10200542Y-77420742D02*
X10152923Y-77468361D01*
X10010066Y-77515980D01*
X9914828Y-77515980D01*
X9771971Y-77468361D01*
X9676733Y-77373123D01*
X9629114Y-77277885D01*
X9581495Y-77087409D01*
X9581495Y-76944552D01*
X9629114Y-76754076D01*
X9676733Y-76658838D01*
X9771971Y-76563600D01*
X9914828Y-76515980D01*
X10010066Y-76515980D01*
X10152923Y-76563600D01*
X10200542Y-76611219D01*
X11057685Y-76849314D02*
X11057685Y-77515980D01*
X10819590Y-76468361D02*
X10581495Y-77182647D01*
X11200542Y-77182647D01*
X12010066Y-76849314D02*
X12010066Y-77515980D01*
X11771971Y-76468361D02*
X11533876Y-77182647D01*
X12152923Y-77182647D01*
X15749542Y-91320857D02*
X15797161Y-91368476D01*
X15844780Y-91511333D01*
X15844780Y-91606571D01*
X15797161Y-91749428D01*
X15701923Y-91844666D01*
X15606685Y-91892285D01*
X15416209Y-91939904D01*
X15273352Y-91939904D01*
X15082876Y-91892285D01*
X14987638Y-91844666D01*
X14892400Y-91749428D01*
X14844780Y-91606571D01*
X14844780Y-91511333D01*
X14892400Y-91368476D01*
X14940019Y-91320857D01*
X15178114Y-90463714D02*
X15844780Y-90463714D01*
X14797161Y-90701809D02*
X15511447Y-90939904D01*
X15511447Y-90320857D01*
X14844780Y-90035142D02*
X14844780Y-89416095D01*
X15225733Y-89749428D01*
X15225733Y-89606571D01*
X15273352Y-89511333D01*
X15320971Y-89463714D01*
X15416209Y-89416095D01*
X15654304Y-89416095D01*
X15749542Y-89463714D01*
X15797161Y-89511333D01*
X15844780Y-89606571D01*
X15844780Y-89892285D01*
X15797161Y-89987523D01*
X15749542Y-90035142D01*
D17*
X15723371Y-69714228D02*
X15747180Y-69738038D01*
X15770990Y-69809466D01*
X15770990Y-69857085D01*
X15747180Y-69928514D01*
X15699561Y-69976133D01*
X15651942Y-69999942D01*
X15556704Y-70023752D01*
X15485276Y-70023752D01*
X15390038Y-69999942D01*
X15342419Y-69976133D01*
X15294800Y-69928514D01*
X15270990Y-69857085D01*
X15270990Y-69809466D01*
X15294800Y-69738038D01*
X15318609Y-69714228D01*
X15437657Y-69285657D02*
X15770990Y-69285657D01*
X15247180Y-69404704D02*
X15604323Y-69523752D01*
X15604323Y-69214228D01*
X15318609Y-69047561D02*
X15294800Y-69023752D01*
X15270990Y-68976133D01*
X15270990Y-68857085D01*
X15294800Y-68809466D01*
X15318609Y-68785657D01*
X15366228Y-68761847D01*
X15413847Y-68761847D01*
X15485276Y-68785657D01*
X15770990Y-69071371D01*
X15770990Y-68761847D01*
D11*
X27855942Y-73255140D02*
X27808323Y-73302759D01*
X27665466Y-73350378D01*
X27570228Y-73350378D01*
X27427371Y-73302759D01*
X27332133Y-73207521D01*
X27284514Y-73112283D01*
X27236895Y-72921807D01*
X27236895Y-72778950D01*
X27284514Y-72588474D01*
X27332133Y-72493236D01*
X27427371Y-72397998D01*
X27570228Y-72350378D01*
X27665466Y-72350378D01*
X27808323Y-72397998D01*
X27855942Y-72445617D01*
X28713085Y-72683712D02*
X28713085Y-73350378D01*
X28474990Y-72302759D02*
X28236895Y-73017045D01*
X28855942Y-73017045D01*
X29760704Y-73350378D02*
X29189276Y-73350378D01*
X29474990Y-73350378D02*
X29474990Y-72350378D01*
X29379752Y-72493236D01*
X29284514Y-72588474D01*
X29189276Y-72636093D01*
X13920742Y-91371657D02*
X13968361Y-91419276D01*
X14015980Y-91562133D01*
X14015980Y-91657371D01*
X13968361Y-91800228D01*
X13873123Y-91895466D01*
X13777885Y-91943085D01*
X13587409Y-91990704D01*
X13444552Y-91990704D01*
X13254076Y-91943085D01*
X13158838Y-91895466D01*
X13063600Y-91800228D01*
X13015980Y-91657371D01*
X13015980Y-91562133D01*
X13063600Y-91419276D01*
X13111219Y-91371657D01*
X13349314Y-90514514D02*
X14015980Y-90514514D01*
X12968361Y-90752609D02*
X13682647Y-90990704D01*
X13682647Y-90371657D01*
X13015980Y-89800228D02*
X13015980Y-89704990D01*
X13063600Y-89609752D01*
X13111219Y-89562133D01*
X13206457Y-89514514D01*
X13396933Y-89466895D01*
X13635028Y-89466895D01*
X13825504Y-89514514D01*
X13920742Y-89562133D01*
X13968361Y-89609752D01*
X14015980Y-89704990D01*
X14015980Y-89800228D01*
X13968361Y-89895466D01*
X13920742Y-89943085D01*
X13825504Y-89990704D01*
X13635028Y-90038323D01*
X13396933Y-90038323D01*
X13206457Y-89990704D01*
X13111219Y-89943085D01*
X13063600Y-89895466D01*
X13015980Y-89800228D01*
D17*
X11972171Y-84404971D02*
X11948361Y-84428780D01*
X11876933Y-84452590D01*
X11829314Y-84452590D01*
X11757885Y-84428780D01*
X11710266Y-84381161D01*
X11686457Y-84333542D01*
X11662647Y-84238304D01*
X11662647Y-84166876D01*
X11686457Y-84071638D01*
X11710266Y-84024019D01*
X11757885Y-83976400D01*
X11829314Y-83952590D01*
X11876933Y-83952590D01*
X11948361Y-83976400D01*
X11972171Y-84000209D01*
X12138838Y-83952590D02*
X12448361Y-83952590D01*
X12281695Y-84143066D01*
X12353123Y-84143066D01*
X12400742Y-84166876D01*
X12424552Y-84190685D01*
X12448361Y-84238304D01*
X12448361Y-84357352D01*
X12424552Y-84404971D01*
X12400742Y-84428780D01*
X12353123Y-84452590D01*
X12210266Y-84452590D01*
X12162647Y-84428780D01*
X12138838Y-84404971D01*
X12686457Y-84452590D02*
X12781695Y-84452590D01*
X12829314Y-84428780D01*
X12853123Y-84404971D01*
X12900742Y-84333542D01*
X12924552Y-84238304D01*
X12924552Y-84047828D01*
X12900742Y-84000209D01*
X12876933Y-83976400D01*
X12829314Y-83952590D01*
X12734076Y-83952590D01*
X12686457Y-83976400D01*
X12662647Y-84000209D01*
X12638838Y-84047828D01*
X12638838Y-84166876D01*
X12662647Y-84214495D01*
X12686457Y-84238304D01*
X12734076Y-84262114D01*
X12829314Y-84262114D01*
X12876933Y-84238304D01*
X12900742Y-84214495D01*
X12924552Y-84166876D01*
X11972171Y-85370171D02*
X11948361Y-85393980D01*
X11876933Y-85417790D01*
X11829314Y-85417790D01*
X11757885Y-85393980D01*
X11710266Y-85346361D01*
X11686457Y-85298742D01*
X11662647Y-85203504D01*
X11662647Y-85132076D01*
X11686457Y-85036838D01*
X11710266Y-84989219D01*
X11757885Y-84941600D01*
X11829314Y-84917790D01*
X11876933Y-84917790D01*
X11948361Y-84941600D01*
X11972171Y-84965409D01*
X12138838Y-84917790D02*
X12448361Y-84917790D01*
X12281695Y-85108266D01*
X12353123Y-85108266D01*
X12400742Y-85132076D01*
X12424552Y-85155885D01*
X12448361Y-85203504D01*
X12448361Y-85322552D01*
X12424552Y-85370171D01*
X12400742Y-85393980D01*
X12353123Y-85417790D01*
X12210266Y-85417790D01*
X12162647Y-85393980D01*
X12138838Y-85370171D01*
X12734076Y-85132076D02*
X12686457Y-85108266D01*
X12662647Y-85084457D01*
X12638838Y-85036838D01*
X12638838Y-85013028D01*
X12662647Y-84965409D01*
X12686457Y-84941600D01*
X12734076Y-84917790D01*
X12829314Y-84917790D01*
X12876933Y-84941600D01*
X12900742Y-84965409D01*
X12924552Y-85013028D01*
X12924552Y-85036838D01*
X12900742Y-85084457D01*
X12876933Y-85108266D01*
X12829314Y-85132076D01*
X12734076Y-85132076D01*
X12686457Y-85155885D01*
X12662647Y-85179695D01*
X12638838Y-85227314D01*
X12638838Y-85322552D01*
X12662647Y-85370171D01*
X12686457Y-85393980D01*
X12734076Y-85417790D01*
X12829314Y-85417790D01*
X12876933Y-85393980D01*
X12900742Y-85370171D01*
X12924552Y-85322552D01*
X12924552Y-85227314D01*
X12900742Y-85179695D01*
X12876933Y-85155885D01*
X12829314Y-85132076D01*
D11*
X7281942Y-94184742D02*
X7234323Y-94232361D01*
X7091466Y-94279980D01*
X6996228Y-94279980D01*
X6853371Y-94232361D01*
X6758133Y-94137123D01*
X6710514Y-94041885D01*
X6662895Y-93851409D01*
X6662895Y-93708552D01*
X6710514Y-93518076D01*
X6758133Y-93422838D01*
X6853371Y-93327600D01*
X6996228Y-93279980D01*
X7091466Y-93279980D01*
X7234323Y-93327600D01*
X7281942Y-93375219D01*
X7615276Y-93279980D02*
X8234323Y-93279980D01*
X7900990Y-93660933D01*
X8043847Y-93660933D01*
X8139085Y-93708552D01*
X8186704Y-93756171D01*
X8234323Y-93851409D01*
X8234323Y-94089504D01*
X8186704Y-94184742D01*
X8139085Y-94232361D01*
X8043847Y-94279980D01*
X7758133Y-94279980D01*
X7662895Y-94232361D01*
X7615276Y-94184742D01*
X8567657Y-93279980D02*
X9234323Y-93279980D01*
X8805752Y-94279980D01*
D17*
X19452471Y-83998571D02*
X19428661Y-84022380D01*
X19357233Y-84046190D01*
X19309614Y-84046190D01*
X19238185Y-84022380D01*
X19190566Y-83974761D01*
X19166757Y-83927142D01*
X19142947Y-83831904D01*
X19142947Y-83760476D01*
X19166757Y-83665238D01*
X19190566Y-83617619D01*
X19238185Y-83570000D01*
X19309614Y-83546190D01*
X19357233Y-83546190D01*
X19428661Y-83570000D01*
X19452471Y-83593809D01*
X19619138Y-83546190D02*
X19928661Y-83546190D01*
X19761995Y-83736666D01*
X19833423Y-83736666D01*
X19881042Y-83760476D01*
X19904852Y-83784285D01*
X19928661Y-83831904D01*
X19928661Y-83950952D01*
X19904852Y-83998571D01*
X19881042Y-84022380D01*
X19833423Y-84046190D01*
X19690566Y-84046190D01*
X19642947Y-84022380D01*
X19619138Y-83998571D01*
X20357233Y-83546190D02*
X20261995Y-83546190D01*
X20214376Y-83570000D01*
X20190566Y-83593809D01*
X20142947Y-83665238D01*
X20119138Y-83760476D01*
X20119138Y-83950952D01*
X20142947Y-83998571D01*
X20166757Y-84022380D01*
X20214376Y-84046190D01*
X20309614Y-84046190D01*
X20357233Y-84022380D01*
X20381042Y-83998571D01*
X20404852Y-83950952D01*
X20404852Y-83831904D01*
X20381042Y-83784285D01*
X20357233Y-83760476D01*
X20309614Y-83736666D01*
X20214376Y-83736666D01*
X20166757Y-83760476D01*
X20142947Y-83784285D01*
X20119138Y-83831904D01*
X20295371Y-69663428D02*
X20319180Y-69687238D01*
X20342990Y-69758666D01*
X20342990Y-69806285D01*
X20319180Y-69877714D01*
X20271561Y-69925333D01*
X20223942Y-69949142D01*
X20128704Y-69972952D01*
X20057276Y-69972952D01*
X19962038Y-69949142D01*
X19914419Y-69925333D01*
X19866800Y-69877714D01*
X19842990Y-69806285D01*
X19842990Y-69758666D01*
X19866800Y-69687238D01*
X19890609Y-69663428D01*
X19842990Y-69496761D02*
X19842990Y-69187238D01*
X20033466Y-69353904D01*
X20033466Y-69282476D01*
X20057276Y-69234857D01*
X20081085Y-69211047D01*
X20128704Y-69187238D01*
X20247752Y-69187238D01*
X20295371Y-69211047D01*
X20319180Y-69234857D01*
X20342990Y-69282476D01*
X20342990Y-69425333D01*
X20319180Y-69472952D01*
X20295371Y-69496761D01*
X19842990Y-68734857D02*
X19842990Y-68972952D01*
X20081085Y-68996761D01*
X20057276Y-68972952D01*
X20033466Y-68925333D01*
X20033466Y-68806285D01*
X20057276Y-68758666D01*
X20081085Y-68734857D01*
X20128704Y-68711047D01*
X20247752Y-68711047D01*
X20295371Y-68734857D01*
X20319180Y-68758666D01*
X20342990Y-68806285D01*
X20342990Y-68925333D01*
X20319180Y-68972952D01*
X20295371Y-68996761D01*
D11*
X57342042Y-66657457D02*
X57389661Y-66705076D01*
X57437280Y-66847933D01*
X57437280Y-66943171D01*
X57389661Y-67086028D01*
X57294423Y-67181266D01*
X57199185Y-67228885D01*
X57008709Y-67276504D01*
X56865852Y-67276504D01*
X56675376Y-67228885D01*
X56580138Y-67181266D01*
X56484900Y-67086028D01*
X56437280Y-66943171D01*
X56437280Y-66847933D01*
X56484900Y-66705076D01*
X56532519Y-66657457D01*
X56437280Y-66324123D02*
X56437280Y-65705076D01*
X56818233Y-66038409D01*
X56818233Y-65895552D01*
X56865852Y-65800314D01*
X56913471Y-65752695D01*
X57008709Y-65705076D01*
X57246804Y-65705076D01*
X57342042Y-65752695D01*
X57389661Y-65800314D01*
X57437280Y-65895552D01*
X57437280Y-66181266D01*
X57389661Y-66276504D01*
X57342042Y-66324123D01*
X56437280Y-65371742D02*
X56437280Y-64752695D01*
X56818233Y-65086028D01*
X56818233Y-64943171D01*
X56865852Y-64847933D01*
X56913471Y-64800314D01*
X57008709Y-64752695D01*
X57246804Y-64752695D01*
X57342042Y-64800314D01*
X57389661Y-64847933D01*
X57437280Y-64943171D01*
X57437280Y-65228885D01*
X57389661Y-65324123D01*
X57342042Y-65371742D01*
X52096942Y-66657457D02*
X52144561Y-66705076D01*
X52192180Y-66847933D01*
X52192180Y-66943171D01*
X52144561Y-67086028D01*
X52049323Y-67181266D01*
X51954085Y-67228885D01*
X51763609Y-67276504D01*
X51620752Y-67276504D01*
X51430276Y-67228885D01*
X51335038Y-67181266D01*
X51239800Y-67086028D01*
X51192180Y-66943171D01*
X51192180Y-66847933D01*
X51239800Y-66705076D01*
X51287419Y-66657457D01*
X51192180Y-66324123D02*
X51192180Y-65705076D01*
X51573133Y-66038409D01*
X51573133Y-65895552D01*
X51620752Y-65800314D01*
X51668371Y-65752695D01*
X51763609Y-65705076D01*
X52001704Y-65705076D01*
X52096942Y-65752695D01*
X52144561Y-65800314D01*
X52192180Y-65895552D01*
X52192180Y-66181266D01*
X52144561Y-66276504D01*
X52096942Y-66324123D01*
X51287419Y-65324123D02*
X51239800Y-65276504D01*
X51192180Y-65181266D01*
X51192180Y-64943171D01*
X51239800Y-64847933D01*
X51287419Y-64800314D01*
X51382657Y-64752695D01*
X51477895Y-64752695D01*
X51620752Y-64800314D01*
X52192180Y-65371742D01*
X52192180Y-64752695D01*
X53811442Y-66657457D02*
X53859061Y-66705076D01*
X53906680Y-66847933D01*
X53906680Y-66943171D01*
X53859061Y-67086028D01*
X53763823Y-67181266D01*
X53668585Y-67228885D01*
X53478109Y-67276504D01*
X53335252Y-67276504D01*
X53144776Y-67228885D01*
X53049538Y-67181266D01*
X52954300Y-67086028D01*
X52906680Y-66943171D01*
X52906680Y-66847933D01*
X52954300Y-66705076D01*
X53001919Y-66657457D01*
X52906680Y-66324123D02*
X52906680Y-65705076D01*
X53287633Y-66038409D01*
X53287633Y-65895552D01*
X53335252Y-65800314D01*
X53382871Y-65752695D01*
X53478109Y-65705076D01*
X53716204Y-65705076D01*
X53811442Y-65752695D01*
X53859061Y-65800314D01*
X53906680Y-65895552D01*
X53906680Y-66181266D01*
X53859061Y-66276504D01*
X53811442Y-66324123D01*
X53906680Y-64752695D02*
X53906680Y-65324123D01*
X53906680Y-65038409D02*
X52906680Y-65038409D01*
X53049538Y-65133647D01*
X53144776Y-65228885D01*
X53192395Y-65324123D01*
X48858442Y-66593957D02*
X48906061Y-66641576D01*
X48953680Y-66784433D01*
X48953680Y-66879671D01*
X48906061Y-67022528D01*
X48810823Y-67117766D01*
X48715585Y-67165385D01*
X48525109Y-67213004D01*
X48382252Y-67213004D01*
X48191776Y-67165385D01*
X48096538Y-67117766D01*
X48001300Y-67022528D01*
X47953680Y-66879671D01*
X47953680Y-66784433D01*
X48001300Y-66641576D01*
X48048919Y-66593957D01*
X47953680Y-66260623D02*
X47953680Y-65641576D01*
X48334633Y-65974909D01*
X48334633Y-65832052D01*
X48382252Y-65736814D01*
X48429871Y-65689195D01*
X48525109Y-65641576D01*
X48763204Y-65641576D01*
X48858442Y-65689195D01*
X48906061Y-65736814D01*
X48953680Y-65832052D01*
X48953680Y-66117766D01*
X48906061Y-66213004D01*
X48858442Y-66260623D01*
X47953680Y-65022528D02*
X47953680Y-64927290D01*
X48001300Y-64832052D01*
X48048919Y-64784433D01*
X48144157Y-64736814D01*
X48334633Y-64689195D01*
X48572728Y-64689195D01*
X48763204Y-64736814D01*
X48858442Y-64784433D01*
X48906061Y-64832052D01*
X48953680Y-64927290D01*
X48953680Y-65022528D01*
X48906061Y-65117766D01*
X48858442Y-65165385D01*
X48763204Y-65213004D01*
X48572728Y-65260623D01*
X48334633Y-65260623D01*
X48144157Y-65213004D01*
X48048919Y-65165385D01*
X48001300Y-65117766D01*
X47953680Y-65022528D01*
X50382442Y-66657457D02*
X50430061Y-66705076D01*
X50477680Y-66847933D01*
X50477680Y-66943171D01*
X50430061Y-67086028D01*
X50334823Y-67181266D01*
X50239585Y-67228885D01*
X50049109Y-67276504D01*
X49906252Y-67276504D01*
X49715776Y-67228885D01*
X49620538Y-67181266D01*
X49525300Y-67086028D01*
X49477680Y-66943171D01*
X49477680Y-66847933D01*
X49525300Y-66705076D01*
X49572919Y-66657457D01*
X49572919Y-66276504D02*
X49525300Y-66228885D01*
X49477680Y-66133647D01*
X49477680Y-65895552D01*
X49525300Y-65800314D01*
X49572919Y-65752695D01*
X49668157Y-65705076D01*
X49763395Y-65705076D01*
X49906252Y-65752695D01*
X50477680Y-66324123D01*
X50477680Y-65705076D01*
X50477680Y-65228885D02*
X50477680Y-65038409D01*
X50430061Y-64943171D01*
X50382442Y-64895552D01*
X50239585Y-64800314D01*
X50049109Y-64752695D01*
X49668157Y-64752695D01*
X49572919Y-64800314D01*
X49525300Y-64847933D01*
X49477680Y-64943171D01*
X49477680Y-65133647D01*
X49525300Y-65228885D01*
X49572919Y-65276504D01*
X49668157Y-65324123D01*
X49906252Y-65324123D01*
X50001490Y-65276504D01*
X50049109Y-65228885D01*
X50096728Y-65133647D01*
X50096728Y-64943171D01*
X50049109Y-64847933D01*
X50001490Y-64800314D01*
X49906252Y-64752695D01*
D17*
X61756171Y-35586171D02*
X61732361Y-35609980D01*
X61660933Y-35633790D01*
X61613314Y-35633790D01*
X61541885Y-35609980D01*
X61494266Y-35562361D01*
X61470457Y-35514742D01*
X61446647Y-35419504D01*
X61446647Y-35348076D01*
X61470457Y-35252838D01*
X61494266Y-35205219D01*
X61541885Y-35157600D01*
X61613314Y-35133790D01*
X61660933Y-35133790D01*
X61732361Y-35157600D01*
X61756171Y-35181409D01*
X61946647Y-35181409D02*
X61970457Y-35157600D01*
X62018076Y-35133790D01*
X62137123Y-35133790D01*
X62184742Y-35157600D01*
X62208552Y-35181409D01*
X62232361Y-35229028D01*
X62232361Y-35276647D01*
X62208552Y-35348076D01*
X61922838Y-35633790D01*
X62232361Y-35633790D01*
X62399028Y-35133790D02*
X62732361Y-35133790D01*
X62518076Y-35633790D01*
D11*
X52481242Y-21058142D02*
X52433623Y-21105761D01*
X52290766Y-21153380D01*
X52195528Y-21153380D01*
X52052671Y-21105761D01*
X51957433Y-21010523D01*
X51909814Y-20915285D01*
X51862195Y-20724809D01*
X51862195Y-20581952D01*
X51909814Y-20391476D01*
X51957433Y-20296238D01*
X52052671Y-20201000D01*
X52195528Y-20153380D01*
X52290766Y-20153380D01*
X52433623Y-20201000D01*
X52481242Y-20248619D01*
X52862195Y-20248619D02*
X52909814Y-20201000D01*
X53005052Y-20153380D01*
X53243147Y-20153380D01*
X53338385Y-20201000D01*
X53386004Y-20248619D01*
X53433623Y-20343857D01*
X53433623Y-20439095D01*
X53386004Y-20581952D01*
X52814576Y-21153380D01*
X53433623Y-21153380D01*
X54290766Y-20153380D02*
X54100290Y-20153380D01*
X54005052Y-20201000D01*
X53957433Y-20248619D01*
X53862195Y-20391476D01*
X53814576Y-20581952D01*
X53814576Y-20962904D01*
X53862195Y-21058142D01*
X53909814Y-21105761D01*
X54005052Y-21153380D01*
X54195528Y-21153380D01*
X54290766Y-21105761D01*
X54338385Y-21058142D01*
X54386004Y-20962904D01*
X54386004Y-20724809D01*
X54338385Y-20629571D01*
X54290766Y-20581952D01*
X54195528Y-20534333D01*
X54005052Y-20534333D01*
X53909814Y-20581952D01*
X53862195Y-20629571D01*
X53814576Y-20724809D01*
D17*
X64702571Y-35636971D02*
X64678761Y-35660780D01*
X64607333Y-35684590D01*
X64559714Y-35684590D01*
X64488285Y-35660780D01*
X64440666Y-35613161D01*
X64416857Y-35565542D01*
X64393047Y-35470304D01*
X64393047Y-35398876D01*
X64416857Y-35303638D01*
X64440666Y-35256019D01*
X64488285Y-35208400D01*
X64559714Y-35184590D01*
X64607333Y-35184590D01*
X64678761Y-35208400D01*
X64702571Y-35232209D01*
X64893047Y-35232209D02*
X64916857Y-35208400D01*
X64964476Y-35184590D01*
X65083523Y-35184590D01*
X65131142Y-35208400D01*
X65154952Y-35232209D01*
X65178761Y-35279828D01*
X65178761Y-35327447D01*
X65154952Y-35398876D01*
X64869238Y-35684590D01*
X65178761Y-35684590D01*
X65631142Y-35184590D02*
X65393047Y-35184590D01*
X65369238Y-35422685D01*
X65393047Y-35398876D01*
X65440666Y-35375066D01*
X65559714Y-35375066D01*
X65607333Y-35398876D01*
X65631142Y-35422685D01*
X65654952Y-35470304D01*
X65654952Y-35589352D01*
X65631142Y-35636971D01*
X65607333Y-35660780D01*
X65559714Y-35684590D01*
X65440666Y-35684590D01*
X65393047Y-35660780D01*
X65369238Y-35636971D01*
D11*
X52544742Y-19762742D02*
X52497123Y-19810361D01*
X52354266Y-19857980D01*
X52259028Y-19857980D01*
X52116171Y-19810361D01*
X52020933Y-19715123D01*
X51973314Y-19619885D01*
X51925695Y-19429409D01*
X51925695Y-19286552D01*
X51973314Y-19096076D01*
X52020933Y-19000838D01*
X52116171Y-18905600D01*
X52259028Y-18857980D01*
X52354266Y-18857980D01*
X52497123Y-18905600D01*
X52544742Y-18953219D01*
X52925695Y-18953219D02*
X52973314Y-18905600D01*
X53068552Y-18857980D01*
X53306647Y-18857980D01*
X53401885Y-18905600D01*
X53449504Y-18953219D01*
X53497123Y-19048457D01*
X53497123Y-19143695D01*
X53449504Y-19286552D01*
X52878076Y-19857980D01*
X53497123Y-19857980D01*
X54354266Y-19191314D02*
X54354266Y-19857980D01*
X54116171Y-18810361D02*
X53878076Y-19524647D01*
X54497123Y-19524647D01*
D17*
X54313971Y-39294571D02*
X54290161Y-39318380D01*
X54218733Y-39342190D01*
X54171114Y-39342190D01*
X54099685Y-39318380D01*
X54052066Y-39270761D01*
X54028257Y-39223142D01*
X54004447Y-39127904D01*
X54004447Y-39056476D01*
X54028257Y-38961238D01*
X54052066Y-38913619D01*
X54099685Y-38866000D01*
X54171114Y-38842190D01*
X54218733Y-38842190D01*
X54290161Y-38866000D01*
X54313971Y-38889809D01*
X54504447Y-38889809D02*
X54528257Y-38866000D01*
X54575876Y-38842190D01*
X54694923Y-38842190D01*
X54742542Y-38866000D01*
X54766352Y-38889809D01*
X54790161Y-38937428D01*
X54790161Y-38985047D01*
X54766352Y-39056476D01*
X54480638Y-39342190D01*
X54790161Y-39342190D01*
X54956828Y-38842190D02*
X55266352Y-38842190D01*
X55099685Y-39032666D01*
X55171114Y-39032666D01*
X55218733Y-39056476D01*
X55242542Y-39080285D01*
X55266352Y-39127904D01*
X55266352Y-39246952D01*
X55242542Y-39294571D01*
X55218733Y-39318380D01*
X55171114Y-39342190D01*
X55028257Y-39342190D01*
X54980638Y-39318380D01*
X54956828Y-39294571D01*
X58860571Y-29185371D02*
X58836761Y-29209180D01*
X58765333Y-29232990D01*
X58717714Y-29232990D01*
X58646285Y-29209180D01*
X58598666Y-29161561D01*
X58574857Y-29113942D01*
X58551047Y-29018704D01*
X58551047Y-28947276D01*
X58574857Y-28852038D01*
X58598666Y-28804419D01*
X58646285Y-28756800D01*
X58717714Y-28732990D01*
X58765333Y-28732990D01*
X58836761Y-28756800D01*
X58860571Y-28780609D01*
X59051047Y-28780609D02*
X59074857Y-28756800D01*
X59122476Y-28732990D01*
X59241523Y-28732990D01*
X59289142Y-28756800D01*
X59312952Y-28780609D01*
X59336761Y-28828228D01*
X59336761Y-28875847D01*
X59312952Y-28947276D01*
X59027238Y-29232990D01*
X59336761Y-29232990D01*
X59527238Y-28780609D02*
X59551047Y-28756800D01*
X59598666Y-28732990D01*
X59717714Y-28732990D01*
X59765333Y-28756800D01*
X59789142Y-28780609D01*
X59812952Y-28828228D01*
X59812952Y-28875847D01*
X59789142Y-28947276D01*
X59503428Y-29232990D01*
X59812952Y-29232990D01*
D11*
X60110642Y-36914057D02*
X60158261Y-36961676D01*
X60205880Y-37104533D01*
X60205880Y-37199771D01*
X60158261Y-37342628D01*
X60063023Y-37437866D01*
X59967785Y-37485485D01*
X59777309Y-37533104D01*
X59634452Y-37533104D01*
X59443976Y-37485485D01*
X59348738Y-37437866D01*
X59253500Y-37342628D01*
X59205880Y-37199771D01*
X59205880Y-37104533D01*
X59253500Y-36961676D01*
X59301119Y-36914057D01*
X59301119Y-36533104D02*
X59253500Y-36485485D01*
X59205880Y-36390247D01*
X59205880Y-36152152D01*
X59253500Y-36056914D01*
X59301119Y-36009295D01*
X59396357Y-35961676D01*
X59491595Y-35961676D01*
X59634452Y-36009295D01*
X60205880Y-36580723D01*
X60205880Y-35961676D01*
X60205880Y-35009295D02*
X60205880Y-35580723D01*
X60205880Y-35295009D02*
X59205880Y-35295009D01*
X59348738Y-35390247D01*
X59443976Y-35485485D01*
X59491595Y-35580723D01*
D17*
X58098571Y-25832571D02*
X58074761Y-25856380D01*
X58003333Y-25880190D01*
X57955714Y-25880190D01*
X57884285Y-25856380D01*
X57836666Y-25808761D01*
X57812857Y-25761142D01*
X57789047Y-25665904D01*
X57789047Y-25594476D01*
X57812857Y-25499238D01*
X57836666Y-25451619D01*
X57884285Y-25404000D01*
X57955714Y-25380190D01*
X58003333Y-25380190D01*
X58074761Y-25404000D01*
X58098571Y-25427809D01*
X58289047Y-25427809D02*
X58312857Y-25404000D01*
X58360476Y-25380190D01*
X58479523Y-25380190D01*
X58527142Y-25404000D01*
X58550952Y-25427809D01*
X58574761Y-25475428D01*
X58574761Y-25523047D01*
X58550952Y-25594476D01*
X58265238Y-25880190D01*
X58574761Y-25880190D01*
X58884285Y-25380190D02*
X58931904Y-25380190D01*
X58979523Y-25404000D01*
X59003333Y-25427809D01*
X59027142Y-25475428D01*
X59050952Y-25570666D01*
X59050952Y-25689714D01*
X59027142Y-25784952D01*
X59003333Y-25832571D01*
X58979523Y-25856380D01*
X58931904Y-25880190D01*
X58884285Y-25880190D01*
X58836666Y-25856380D01*
X58812857Y-25832571D01*
X58789047Y-25784952D01*
X58765238Y-25689714D01*
X58765238Y-25570666D01*
X58789047Y-25475428D01*
X58812857Y-25427809D01*
X58836666Y-25404000D01*
X58884285Y-25380190D01*
D11*
X51338242Y-24969742D02*
X51290623Y-25017361D01*
X51147766Y-25064980D01*
X51052528Y-25064980D01*
X50909671Y-25017361D01*
X50814433Y-24922123D01*
X50766814Y-24826885D01*
X50719195Y-24636409D01*
X50719195Y-24493552D01*
X50766814Y-24303076D01*
X50814433Y-24207838D01*
X50909671Y-24112600D01*
X51052528Y-24064980D01*
X51147766Y-24064980D01*
X51290623Y-24112600D01*
X51338242Y-24160219D01*
X52290623Y-25064980D02*
X51719195Y-25064980D01*
X52004909Y-25064980D02*
X52004909Y-24064980D01*
X51909671Y-24207838D01*
X51814433Y-24303076D01*
X51719195Y-24350695D01*
X52766814Y-25064980D02*
X52957290Y-25064980D01*
X53052528Y-25017361D01*
X53100147Y-24969742D01*
X53195385Y-24826885D01*
X53243004Y-24636409D01*
X53243004Y-24255457D01*
X53195385Y-24160219D01*
X53147766Y-24112600D01*
X53052528Y-24064980D01*
X52862052Y-24064980D01*
X52766814Y-24112600D01*
X52719195Y-24160219D01*
X52671576Y-24255457D01*
X52671576Y-24493552D01*
X52719195Y-24588790D01*
X52766814Y-24636409D01*
X52862052Y-24684028D01*
X53052528Y-24684028D01*
X53147766Y-24636409D01*
X53195385Y-24588790D01*
X53243004Y-24493552D01*
D17*
X58606571Y-24003771D02*
X58582761Y-24027580D01*
X58511333Y-24051390D01*
X58463714Y-24051390D01*
X58392285Y-24027580D01*
X58344666Y-23979961D01*
X58320857Y-23932342D01*
X58297047Y-23837104D01*
X58297047Y-23765676D01*
X58320857Y-23670438D01*
X58344666Y-23622819D01*
X58392285Y-23575200D01*
X58463714Y-23551390D01*
X58511333Y-23551390D01*
X58582761Y-23575200D01*
X58606571Y-23599009D01*
X59082761Y-24051390D02*
X58797047Y-24051390D01*
X58939904Y-24051390D02*
X58939904Y-23551390D01*
X58892285Y-23622819D01*
X58844666Y-23670438D01*
X58797047Y-23694247D01*
X59368476Y-23765676D02*
X59320857Y-23741866D01*
X59297047Y-23718057D01*
X59273238Y-23670438D01*
X59273238Y-23646628D01*
X59297047Y-23599009D01*
X59320857Y-23575200D01*
X59368476Y-23551390D01*
X59463714Y-23551390D01*
X59511333Y-23575200D01*
X59535142Y-23599009D01*
X59558952Y-23646628D01*
X59558952Y-23670438D01*
X59535142Y-23718057D01*
X59511333Y-23741866D01*
X59463714Y-23765676D01*
X59368476Y-23765676D01*
X59320857Y-23789485D01*
X59297047Y-23813295D01*
X59273238Y-23860914D01*
X59273238Y-23956152D01*
X59297047Y-24003771D01*
X59320857Y-24027580D01*
X59368476Y-24051390D01*
X59463714Y-24051390D01*
X59511333Y-24027580D01*
X59535142Y-24003771D01*
X59558952Y-23956152D01*
X59558952Y-23860914D01*
X59535142Y-23813295D01*
X59511333Y-23789485D01*
X59463714Y-23765676D01*
X56574571Y-24054571D02*
X56550761Y-24078380D01*
X56479333Y-24102190D01*
X56431714Y-24102190D01*
X56360285Y-24078380D01*
X56312666Y-24030761D01*
X56288857Y-23983142D01*
X56265047Y-23887904D01*
X56265047Y-23816476D01*
X56288857Y-23721238D01*
X56312666Y-23673619D01*
X56360285Y-23626000D01*
X56431714Y-23602190D01*
X56479333Y-23602190D01*
X56550761Y-23626000D01*
X56574571Y-23649809D01*
X57050761Y-24102190D02*
X56765047Y-24102190D01*
X56907904Y-24102190D02*
X56907904Y-23602190D01*
X56860285Y-23673619D01*
X56812666Y-23721238D01*
X56765047Y-23745047D01*
X57217428Y-23602190D02*
X57550761Y-23602190D01*
X57336476Y-24102190D01*
D11*
X42689542Y-54001941D02*
X42641923Y-54049560D01*
X42499066Y-54097179D01*
X42403828Y-54097179D01*
X42260971Y-54049560D01*
X42165733Y-53954322D01*
X42118114Y-53859084D01*
X42070495Y-53668608D01*
X42070495Y-53525751D01*
X42118114Y-53335275D01*
X42165733Y-53240037D01*
X42260971Y-53144799D01*
X42403828Y-53097179D01*
X42499066Y-53097179D01*
X42641923Y-53144799D01*
X42689542Y-53192418D01*
X43641923Y-54097179D02*
X43070495Y-54097179D01*
X43356209Y-54097179D02*
X43356209Y-53097179D01*
X43260971Y-53240037D01*
X43165733Y-53335275D01*
X43070495Y-53382894D01*
X44499066Y-53097179D02*
X44308590Y-53097179D01*
X44213352Y-53144799D01*
X44165733Y-53192418D01*
X44070495Y-53335275D01*
X44022876Y-53525751D01*
X44022876Y-53906703D01*
X44070495Y-54001941D01*
X44118114Y-54049560D01*
X44213352Y-54097179D01*
X44403828Y-54097179D01*
X44499066Y-54049560D01*
X44546685Y-54001941D01*
X44594304Y-53906703D01*
X44594304Y-53668608D01*
X44546685Y-53573370D01*
X44499066Y-53525751D01*
X44403828Y-53478132D01*
X44213352Y-53478132D01*
X44118114Y-53525751D01*
X44070495Y-53573370D01*
X44022876Y-53668608D01*
X38380942Y-44991257D02*
X38428561Y-45038876D01*
X38476180Y-45181733D01*
X38476180Y-45276971D01*
X38428561Y-45419828D01*
X38333323Y-45515066D01*
X38238085Y-45562685D01*
X38047609Y-45610304D01*
X37904752Y-45610304D01*
X37714276Y-45562685D01*
X37619038Y-45515066D01*
X37523800Y-45419828D01*
X37476180Y-45276971D01*
X37476180Y-45181733D01*
X37523800Y-45038876D01*
X37571419Y-44991257D01*
X38476180Y-44038876D02*
X38476180Y-44610304D01*
X38476180Y-44324590D02*
X37476180Y-44324590D01*
X37619038Y-44419828D01*
X37714276Y-44515066D01*
X37761895Y-44610304D01*
X37476180Y-43134114D02*
X37476180Y-43610304D01*
X37952371Y-43657923D01*
X37904752Y-43610304D01*
X37857133Y-43515066D01*
X37857133Y-43276971D01*
X37904752Y-43181733D01*
X37952371Y-43134114D01*
X38047609Y-43086495D01*
X38285704Y-43086495D01*
X38380942Y-43134114D01*
X38428561Y-43181733D01*
X38476180Y-43276971D01*
X38476180Y-43515066D01*
X38428561Y-43610304D01*
X38380942Y-43657923D01*
X34078817Y-44876957D02*
X34126436Y-44924576D01*
X34174055Y-45067433D01*
X34174055Y-45162671D01*
X34126436Y-45305528D01*
X34031198Y-45400766D01*
X33935960Y-45448385D01*
X33745484Y-45496004D01*
X33602627Y-45496004D01*
X33412151Y-45448385D01*
X33316913Y-45400766D01*
X33221675Y-45305528D01*
X33174055Y-45162671D01*
X33174055Y-45067433D01*
X33221675Y-44924576D01*
X33269294Y-44876957D01*
X34174055Y-43924576D02*
X34174055Y-44496004D01*
X34174055Y-44210290D02*
X33174055Y-44210290D01*
X33316913Y-44305528D01*
X33412151Y-44400766D01*
X33459770Y-44496004D01*
X33507389Y-43067433D02*
X34174055Y-43067433D01*
X33126436Y-43305528D02*
X33840722Y-43543623D01*
X33840722Y-42924576D01*
X35644092Y-44940457D02*
X35691711Y-44988076D01*
X35739330Y-45130933D01*
X35739330Y-45226171D01*
X35691711Y-45369028D01*
X35596473Y-45464266D01*
X35501235Y-45511885D01*
X35310759Y-45559504D01*
X35167902Y-45559504D01*
X34977426Y-45511885D01*
X34882188Y-45464266D01*
X34786950Y-45369028D01*
X34739330Y-45226171D01*
X34739330Y-45130933D01*
X34786950Y-44988076D01*
X34834569Y-44940457D01*
X35739330Y-43988076D02*
X35739330Y-44559504D01*
X35739330Y-44273790D02*
X34739330Y-44273790D01*
X34882188Y-44369028D01*
X34977426Y-44464266D01*
X35025045Y-44559504D01*
X34739330Y-43654742D02*
X34739330Y-43035695D01*
X35120283Y-43369028D01*
X35120283Y-43226171D01*
X35167902Y-43130933D01*
X35215521Y-43083314D01*
X35310759Y-43035695D01*
X35548854Y-43035695D01*
X35644092Y-43083314D01*
X35691711Y-43130933D01*
X35739330Y-43226171D01*
X35739330Y-43511885D01*
X35691711Y-43607123D01*
X35644092Y-43654742D01*
X37022042Y-44965857D02*
X37069661Y-45013476D01*
X37117280Y-45156333D01*
X37117280Y-45251571D01*
X37069661Y-45394428D01*
X36974423Y-45489666D01*
X36879185Y-45537285D01*
X36688709Y-45584904D01*
X36545852Y-45584904D01*
X36355376Y-45537285D01*
X36260138Y-45489666D01*
X36164900Y-45394428D01*
X36117280Y-45251571D01*
X36117280Y-45156333D01*
X36164900Y-45013476D01*
X36212519Y-44965857D01*
X37117280Y-44013476D02*
X37117280Y-44584904D01*
X37117280Y-44299190D02*
X36117280Y-44299190D01*
X36260138Y-44394428D01*
X36355376Y-44489666D01*
X36402995Y-44584904D01*
X36212519Y-43632523D02*
X36164900Y-43584904D01*
X36117280Y-43489666D01*
X36117280Y-43251571D01*
X36164900Y-43156333D01*
X36212519Y-43108714D01*
X36307757Y-43061095D01*
X36402995Y-43061095D01*
X36545852Y-43108714D01*
X37117280Y-43680142D01*
X37117280Y-43061095D01*
X32551642Y-44864257D02*
X32599261Y-44911876D01*
X32646880Y-45054733D01*
X32646880Y-45149971D01*
X32599261Y-45292828D01*
X32504023Y-45388066D01*
X32408785Y-45435685D01*
X32218309Y-45483304D01*
X32075452Y-45483304D01*
X31884976Y-45435685D01*
X31789738Y-45388066D01*
X31694500Y-45292828D01*
X31646880Y-45149971D01*
X31646880Y-45054733D01*
X31694500Y-44911876D01*
X31742119Y-44864257D01*
X32646880Y-43911876D02*
X32646880Y-44483304D01*
X32646880Y-44197590D02*
X31646880Y-44197590D01*
X31789738Y-44292828D01*
X31884976Y-44388066D01*
X31932595Y-44483304D01*
X32646880Y-42959495D02*
X32646880Y-43530923D01*
X32646880Y-43245209D02*
X31646880Y-43245209D01*
X31789738Y-43340447D01*
X31884976Y-43435685D01*
X31932595Y-43530923D01*
X23836333Y-52744642D02*
X23788714Y-52792261D01*
X23645857Y-52839880D01*
X23550619Y-52839880D01*
X23407761Y-52792261D01*
X23312523Y-52697023D01*
X23264904Y-52601785D01*
X23217285Y-52411309D01*
X23217285Y-52268452D01*
X23264904Y-52077976D01*
X23312523Y-51982738D01*
X23407761Y-51887500D01*
X23550619Y-51839880D01*
X23645857Y-51839880D01*
X23788714Y-51887500D01*
X23836333Y-51935119D01*
X24312523Y-52839880D02*
X24503000Y-52839880D01*
X24598238Y-52792261D01*
X24645857Y-52744642D01*
X24741095Y-52601785D01*
X24788714Y-52411309D01*
X24788714Y-52030357D01*
X24741095Y-51935119D01*
X24693476Y-51887500D01*
X24598238Y-51839880D01*
X24407761Y-51839880D01*
X24312523Y-51887500D01*
X24264904Y-51935119D01*
X24217285Y-52030357D01*
X24217285Y-52268452D01*
X24264904Y-52363690D01*
X24312523Y-52411309D01*
X24407761Y-52458928D01*
X24598238Y-52458928D01*
X24693476Y-52411309D01*
X24741095Y-52363690D01*
X24788714Y-52268452D01*
X47026533Y-26178782D02*
X46978914Y-26226401D01*
X46836057Y-26274020D01*
X46740819Y-26274020D01*
X46597961Y-26226401D01*
X46502723Y-26131163D01*
X46455104Y-26035925D01*
X46407485Y-25845449D01*
X46407485Y-25702592D01*
X46455104Y-25512116D01*
X46502723Y-25416878D01*
X46597961Y-25321640D01*
X46740819Y-25274020D01*
X46836057Y-25274020D01*
X46978914Y-25321640D01*
X47026533Y-25369259D01*
X47597961Y-25702592D02*
X47502723Y-25654973D01*
X47455104Y-25607354D01*
X47407485Y-25512116D01*
X47407485Y-25464497D01*
X47455104Y-25369259D01*
X47502723Y-25321640D01*
X47597961Y-25274020D01*
X47788438Y-25274020D01*
X47883676Y-25321640D01*
X47931295Y-25369259D01*
X47978914Y-25464497D01*
X47978914Y-25512116D01*
X47931295Y-25607354D01*
X47883676Y-25654973D01*
X47788438Y-25702592D01*
X47597961Y-25702592D01*
X47502723Y-25750211D01*
X47455104Y-25797830D01*
X47407485Y-25893068D01*
X47407485Y-26083544D01*
X47455104Y-26178782D01*
X47502723Y-26226401D01*
X47597961Y-26274020D01*
X47788438Y-26274020D01*
X47883676Y-26226401D01*
X47931295Y-26178782D01*
X47978914Y-26083544D01*
X47978914Y-25893068D01*
X47931295Y-25797830D01*
X47883676Y-25750211D01*
X47788438Y-25702592D01*
X48944233Y-18353042D02*
X48896614Y-18400661D01*
X48753757Y-18448280D01*
X48658519Y-18448280D01*
X48515661Y-18400661D01*
X48420423Y-18305423D01*
X48372804Y-18210185D01*
X48325185Y-18019709D01*
X48325185Y-17876852D01*
X48372804Y-17686376D01*
X48420423Y-17591138D01*
X48515661Y-17495900D01*
X48658519Y-17448280D01*
X48753757Y-17448280D01*
X48896614Y-17495900D01*
X48944233Y-17543519D01*
X49325185Y-17543519D02*
X49372804Y-17495900D01*
X49468042Y-17448280D01*
X49706138Y-17448280D01*
X49801376Y-17495900D01*
X49848995Y-17543519D01*
X49896614Y-17638757D01*
X49896614Y-17733995D01*
X49848995Y-17876852D01*
X49277566Y-18448280D01*
X49896614Y-18448280D01*
X62272942Y-43708580D02*
X61939609Y-43232390D01*
X61701514Y-43708580D02*
X61701514Y-42708580D01*
X62082466Y-42708580D01*
X62177704Y-42756200D01*
X62225323Y-42803819D01*
X62272942Y-42899057D01*
X62272942Y-43041914D01*
X62225323Y-43137152D01*
X62177704Y-43184771D01*
X62082466Y-43232390D01*
X61701514Y-43232390D01*
X62653895Y-42803819D02*
X62701514Y-42756200D01*
X62796752Y-42708580D01*
X63034847Y-42708580D01*
X63130085Y-42756200D01*
X63177704Y-42803819D01*
X63225323Y-42899057D01*
X63225323Y-42994295D01*
X63177704Y-43137152D01*
X62606276Y-43708580D01*
X63225323Y-43708580D01*
X63558657Y-42708580D02*
X64225323Y-42708580D01*
X63796752Y-43708580D01*
X29026742Y-74374846D02*
X28693409Y-73898656D01*
X28455314Y-74374846D02*
X28455314Y-73374846D01*
X28836266Y-73374846D01*
X28931504Y-73422466D01*
X28979123Y-73470085D01*
X29026742Y-73565323D01*
X29026742Y-73708180D01*
X28979123Y-73803418D01*
X28931504Y-73851037D01*
X28836266Y-73898656D01*
X28455314Y-73898656D01*
X29883885Y-73708180D02*
X29883885Y-74374846D01*
X29645790Y-73327227D02*
X29407695Y-74041513D01*
X30026742Y-74041513D01*
X30931504Y-74374846D02*
X30360076Y-74374846D01*
X30645790Y-74374846D02*
X30645790Y-73374846D01*
X30550552Y-73517704D01*
X30455314Y-73612942D01*
X30360076Y-73660561D01*
D17*
X15858371Y-83652490D02*
X15691704Y-83414395D01*
X15572657Y-83652490D02*
X15572657Y-83152490D01*
X15763133Y-83152490D01*
X15810752Y-83176300D01*
X15834561Y-83200109D01*
X15858371Y-83247728D01*
X15858371Y-83319157D01*
X15834561Y-83366776D01*
X15810752Y-83390585D01*
X15763133Y-83414395D01*
X15572657Y-83414395D01*
X16025038Y-83152490D02*
X16334561Y-83152490D01*
X16167895Y-83342966D01*
X16239323Y-83342966D01*
X16286942Y-83366776D01*
X16310752Y-83390585D01*
X16334561Y-83438204D01*
X16334561Y-83557252D01*
X16310752Y-83604871D01*
X16286942Y-83628680D01*
X16239323Y-83652490D01*
X16096466Y-83652490D01*
X16048847Y-83628680D01*
X16025038Y-83604871D01*
X16501228Y-83152490D02*
X16834561Y-83152490D01*
X16620276Y-83652490D01*
D11*
X29331542Y-76889444D02*
X28998209Y-76413254D01*
X28760114Y-76889444D02*
X28760114Y-75889444D01*
X29141066Y-75889444D01*
X29236304Y-75937064D01*
X29283923Y-75984683D01*
X29331542Y-76079921D01*
X29331542Y-76222778D01*
X29283923Y-76318016D01*
X29236304Y-76365635D01*
X29141066Y-76413254D01*
X28760114Y-76413254D01*
X29664876Y-75889444D02*
X30283923Y-75889444D01*
X29950590Y-76270397D01*
X30093447Y-76270397D01*
X30188685Y-76318016D01*
X30236304Y-76365635D01*
X30283923Y-76460873D01*
X30283923Y-76698968D01*
X30236304Y-76794206D01*
X30188685Y-76841825D01*
X30093447Y-76889444D01*
X29807733Y-76889444D01*
X29712495Y-76841825D01*
X29664876Y-76794206D01*
X31141066Y-75889444D02*
X30950590Y-75889444D01*
X30855352Y-75937064D01*
X30807733Y-75984683D01*
X30712495Y-76127540D01*
X30664876Y-76318016D01*
X30664876Y-76698968D01*
X30712495Y-76794206D01*
X30760114Y-76841825D01*
X30855352Y-76889444D01*
X31045828Y-76889444D01*
X31141066Y-76841825D01*
X31188685Y-76794206D01*
X31236304Y-76698968D01*
X31236304Y-76460873D01*
X31188685Y-76365635D01*
X31141066Y-76318016D01*
X31045828Y-76270397D01*
X30855352Y-76270397D01*
X30760114Y-76318016D01*
X30712495Y-76365635D01*
X30664876Y-76460873D01*
X29326742Y-78023980D02*
X28993409Y-77547790D01*
X28755314Y-78023980D02*
X28755314Y-77023980D01*
X29136266Y-77023980D01*
X29231504Y-77071600D01*
X29279123Y-77119219D01*
X29326742Y-77214457D01*
X29326742Y-77357314D01*
X29279123Y-77452552D01*
X29231504Y-77500171D01*
X29136266Y-77547790D01*
X28755314Y-77547790D01*
X29660076Y-77023980D02*
X30279123Y-77023980D01*
X29945790Y-77404933D01*
X30088647Y-77404933D01*
X30183885Y-77452552D01*
X30231504Y-77500171D01*
X30279123Y-77595409D01*
X30279123Y-77833504D01*
X30231504Y-77928742D01*
X30183885Y-77976361D01*
X30088647Y-78023980D01*
X29802933Y-78023980D01*
X29707695Y-77976361D01*
X29660076Y-77928742D01*
X31183885Y-77023980D02*
X30707695Y-77023980D01*
X30660076Y-77500171D01*
X30707695Y-77452552D01*
X30802933Y-77404933D01*
X31041028Y-77404933D01*
X31136266Y-77452552D01*
X31183885Y-77500171D01*
X31231504Y-77595409D01*
X31231504Y-77833504D01*
X31183885Y-77928742D01*
X31136266Y-77976361D01*
X31041028Y-78023980D01*
X30802933Y-78023980D01*
X30707695Y-77976361D01*
X30660076Y-77928742D01*
D17*
X17802990Y-69815828D02*
X17564895Y-69982495D01*
X17802990Y-70101542D02*
X17302990Y-70101542D01*
X17302990Y-69911066D01*
X17326800Y-69863447D01*
X17350609Y-69839638D01*
X17398228Y-69815828D01*
X17469657Y-69815828D01*
X17517276Y-69839638D01*
X17541085Y-69863447D01*
X17564895Y-69911066D01*
X17564895Y-70101542D01*
X17302990Y-69649161D02*
X17302990Y-69339638D01*
X17493466Y-69506304D01*
X17493466Y-69434876D01*
X17517276Y-69387257D01*
X17541085Y-69363447D01*
X17588704Y-69339638D01*
X17707752Y-69339638D01*
X17755371Y-69363447D01*
X17779180Y-69387257D01*
X17802990Y-69434876D01*
X17802990Y-69577733D01*
X17779180Y-69625352D01*
X17755371Y-69649161D01*
X17469657Y-68911066D02*
X17802990Y-68911066D01*
X17279180Y-69030114D02*
X17636323Y-69149161D01*
X17636323Y-68839638D01*
D11*
X23921980Y-88222057D02*
X23445790Y-88555390D01*
X23921980Y-88793485D02*
X22921980Y-88793485D01*
X22921980Y-88412533D01*
X22969600Y-88317295D01*
X23017219Y-88269676D01*
X23112457Y-88222057D01*
X23255314Y-88222057D01*
X23350552Y-88269676D01*
X23398171Y-88317295D01*
X23445790Y-88412533D01*
X23445790Y-88793485D01*
X22921980Y-87888723D02*
X22921980Y-87269676D01*
X23302933Y-87603009D01*
X23302933Y-87460152D01*
X23350552Y-87364914D01*
X23398171Y-87317295D01*
X23493409Y-87269676D01*
X23731504Y-87269676D01*
X23826742Y-87317295D01*
X23874361Y-87364914D01*
X23921980Y-87460152D01*
X23921980Y-87745866D01*
X23874361Y-87841104D01*
X23826742Y-87888723D01*
X23017219Y-86888723D02*
X22969600Y-86841104D01*
X22921980Y-86745866D01*
X22921980Y-86507771D01*
X22969600Y-86412533D01*
X23017219Y-86364914D01*
X23112457Y-86317295D01*
X23207695Y-86317295D01*
X23350552Y-86364914D01*
X23921980Y-86936342D01*
X23921980Y-86317295D01*
X59732942Y-71610480D02*
X59399609Y-71134290D01*
X59161514Y-71610480D02*
X59161514Y-70610480D01*
X59542466Y-70610480D01*
X59637704Y-70658100D01*
X59685323Y-70705719D01*
X59732942Y-70800957D01*
X59732942Y-70943814D01*
X59685323Y-71039052D01*
X59637704Y-71086671D01*
X59542466Y-71134290D01*
X59161514Y-71134290D01*
X60066276Y-70610480D02*
X60685323Y-70610480D01*
X60351990Y-70991433D01*
X60494847Y-70991433D01*
X60590085Y-71039052D01*
X60637704Y-71086671D01*
X60685323Y-71181909D01*
X60685323Y-71420004D01*
X60637704Y-71515242D01*
X60590085Y-71562861D01*
X60494847Y-71610480D01*
X60209133Y-71610480D01*
X60113895Y-71562861D01*
X60066276Y-71515242D01*
X61637704Y-71610480D02*
X61066276Y-71610480D01*
X61351990Y-71610480D02*
X61351990Y-70610480D01*
X61256752Y-70753338D01*
X61161514Y-70848576D01*
X61066276Y-70896195D01*
D17*
X44890571Y-73378190D02*
X44723904Y-73140095D01*
X44604857Y-73378190D02*
X44604857Y-72878190D01*
X44795333Y-72878190D01*
X44842952Y-72902000D01*
X44866761Y-72925809D01*
X44890571Y-72973428D01*
X44890571Y-73044857D01*
X44866761Y-73092476D01*
X44842952Y-73116285D01*
X44795333Y-73140095D01*
X44604857Y-73140095D01*
X45057238Y-72878190D02*
X45366761Y-72878190D01*
X45200095Y-73068666D01*
X45271523Y-73068666D01*
X45319142Y-73092476D01*
X45342952Y-73116285D01*
X45366761Y-73163904D01*
X45366761Y-73282952D01*
X45342952Y-73330571D01*
X45319142Y-73354380D01*
X45271523Y-73378190D01*
X45128666Y-73378190D01*
X45081047Y-73354380D01*
X45057238Y-73330571D01*
X45676285Y-72878190D02*
X45723904Y-72878190D01*
X45771523Y-72902000D01*
X45795333Y-72925809D01*
X45819142Y-72973428D01*
X45842952Y-73068666D01*
X45842952Y-73187714D01*
X45819142Y-73282952D01*
X45795333Y-73330571D01*
X45771523Y-73354380D01*
X45723904Y-73378190D01*
X45676285Y-73378190D01*
X45628666Y-73354380D01*
X45604857Y-73330571D01*
X45581047Y-73282952D01*
X45557238Y-73187714D01*
X45557238Y-73068666D01*
X45581047Y-72973428D01*
X45604857Y-72925809D01*
X45628666Y-72902000D01*
X45676285Y-72878190D01*
D11*
X12494162Y-68107820D02*
X12160829Y-67631630D01*
X11922734Y-68107820D02*
X11922734Y-67107820D01*
X12303686Y-67107820D01*
X12398924Y-67155440D01*
X12446543Y-67203059D01*
X12494162Y-67298297D01*
X12494162Y-67441154D01*
X12446543Y-67536392D01*
X12398924Y-67584011D01*
X12303686Y-67631630D01*
X11922734Y-67631630D01*
X12875115Y-67203059D02*
X12922734Y-67155440D01*
X13017972Y-67107820D01*
X13256067Y-67107820D01*
X13351305Y-67155440D01*
X13398924Y-67203059D01*
X13446543Y-67298297D01*
X13446543Y-67393535D01*
X13398924Y-67536392D01*
X12827496Y-68107820D01*
X13446543Y-68107820D01*
X14303686Y-67107820D02*
X14113210Y-67107820D01*
X14017972Y-67155440D01*
X13970353Y-67203059D01*
X13875115Y-67345916D01*
X13827496Y-67536392D01*
X13827496Y-67917344D01*
X13875115Y-68012582D01*
X13922734Y-68060201D01*
X14017972Y-68107820D01*
X14208448Y-68107820D01*
X14303686Y-68060201D01*
X14351305Y-68012582D01*
X14398924Y-67917344D01*
X14398924Y-67679249D01*
X14351305Y-67584011D01*
X14303686Y-67536392D01*
X14208448Y-67488773D01*
X14017972Y-67488773D01*
X13922734Y-67536392D01*
X13875115Y-67584011D01*
X13827496Y-67679249D01*
D17*
X15871071Y-86370290D02*
X15704404Y-86132195D01*
X15585357Y-86370290D02*
X15585357Y-85870290D01*
X15775833Y-85870290D01*
X15823452Y-85894100D01*
X15847261Y-85917909D01*
X15871071Y-85965528D01*
X15871071Y-86036957D01*
X15847261Y-86084576D01*
X15823452Y-86108385D01*
X15775833Y-86132195D01*
X15585357Y-86132195D01*
X16061547Y-85917909D02*
X16085357Y-85894100D01*
X16132976Y-85870290D01*
X16252023Y-85870290D01*
X16299642Y-85894100D01*
X16323452Y-85917909D01*
X16347261Y-85965528D01*
X16347261Y-86013147D01*
X16323452Y-86084576D01*
X16037738Y-86370290D01*
X16347261Y-86370290D01*
X16799642Y-85870290D02*
X16561547Y-85870290D01*
X16537738Y-86108385D01*
X16561547Y-86084576D01*
X16609166Y-86060766D01*
X16728214Y-86060766D01*
X16775833Y-86084576D01*
X16799642Y-86108385D01*
X16823452Y-86156004D01*
X16823452Y-86275052D01*
X16799642Y-86322671D01*
X16775833Y-86346480D01*
X16728214Y-86370290D01*
X16609166Y-86370290D01*
X16561547Y-86346480D01*
X16537738Y-86322671D01*
X19414371Y-84935190D02*
X19247704Y-84697095D01*
X19128657Y-84935190D02*
X19128657Y-84435190D01*
X19319133Y-84435190D01*
X19366752Y-84459000D01*
X19390561Y-84482809D01*
X19414371Y-84530428D01*
X19414371Y-84601857D01*
X19390561Y-84649476D01*
X19366752Y-84673285D01*
X19319133Y-84697095D01*
X19128657Y-84697095D01*
X19604847Y-84482809D02*
X19628657Y-84459000D01*
X19676276Y-84435190D01*
X19795323Y-84435190D01*
X19842942Y-84459000D01*
X19866752Y-84482809D01*
X19890561Y-84530428D01*
X19890561Y-84578047D01*
X19866752Y-84649476D01*
X19581038Y-84935190D01*
X19890561Y-84935190D01*
X20319133Y-84601857D02*
X20319133Y-84935190D01*
X20200085Y-84411380D02*
X20081038Y-84768523D01*
X20390561Y-84768523D01*
X44890571Y-74597390D02*
X44723904Y-74359295D01*
X44604857Y-74597390D02*
X44604857Y-74097390D01*
X44795333Y-74097390D01*
X44842952Y-74121200D01*
X44866761Y-74145009D01*
X44890571Y-74192628D01*
X44890571Y-74264057D01*
X44866761Y-74311676D01*
X44842952Y-74335485D01*
X44795333Y-74359295D01*
X44604857Y-74359295D01*
X45081047Y-74145009D02*
X45104857Y-74121200D01*
X45152476Y-74097390D01*
X45271523Y-74097390D01*
X45319142Y-74121200D01*
X45342952Y-74145009D01*
X45366761Y-74192628D01*
X45366761Y-74240247D01*
X45342952Y-74311676D01*
X45057238Y-74597390D01*
X45366761Y-74597390D01*
X45533428Y-74097390D02*
X45842952Y-74097390D01*
X45676285Y-74287866D01*
X45747714Y-74287866D01*
X45795333Y-74311676D01*
X45819142Y-74335485D01*
X45842952Y-74383104D01*
X45842952Y-74502152D01*
X45819142Y-74549771D01*
X45795333Y-74573580D01*
X45747714Y-74597390D01*
X45604857Y-74597390D01*
X45557238Y-74573580D01*
X45533428Y-74549771D01*
D11*
X41762442Y-45486580D02*
X41429109Y-45010390D01*
X41191014Y-45486580D02*
X41191014Y-44486580D01*
X41571966Y-44486580D01*
X41667204Y-44534200D01*
X41714823Y-44581819D01*
X41762442Y-44677057D01*
X41762442Y-44819914D01*
X41714823Y-44915152D01*
X41667204Y-44962771D01*
X41571966Y-45010390D01*
X41191014Y-45010390D01*
X42143395Y-44581819D02*
X42191014Y-44534200D01*
X42286252Y-44486580D01*
X42524347Y-44486580D01*
X42619585Y-44534200D01*
X42667204Y-44581819D01*
X42714823Y-44677057D01*
X42714823Y-44772295D01*
X42667204Y-44915152D01*
X42095776Y-45486580D01*
X42714823Y-45486580D01*
X43095776Y-44581819D02*
X43143395Y-44534200D01*
X43238633Y-44486580D01*
X43476728Y-44486580D01*
X43571966Y-44534200D01*
X43619585Y-44581819D01*
X43667204Y-44677057D01*
X43667204Y-44772295D01*
X43619585Y-44915152D01*
X43048157Y-45486580D01*
X43667204Y-45486580D01*
X45788342Y-39161980D02*
X45455009Y-38685790D01*
X45216914Y-39161980D02*
X45216914Y-38161980D01*
X45597866Y-38161980D01*
X45693104Y-38209600D01*
X45740723Y-38257219D01*
X45788342Y-38352457D01*
X45788342Y-38495314D01*
X45740723Y-38590552D01*
X45693104Y-38638171D01*
X45597866Y-38685790D01*
X45216914Y-38685790D01*
X46169295Y-38257219D02*
X46216914Y-38209600D01*
X46312152Y-38161980D01*
X46550247Y-38161980D01*
X46645485Y-38209600D01*
X46693104Y-38257219D01*
X46740723Y-38352457D01*
X46740723Y-38447695D01*
X46693104Y-38590552D01*
X46121676Y-39161980D01*
X46740723Y-39161980D01*
X47693104Y-39161980D02*
X47121676Y-39161980D01*
X47407390Y-39161980D02*
X47407390Y-38161980D01*
X47312152Y-38304838D01*
X47216914Y-38400076D01*
X47121676Y-38447695D01*
D17*
X56207790Y-37837228D02*
X55969695Y-38003895D01*
X56207790Y-38122942D02*
X55707790Y-38122942D01*
X55707790Y-37932466D01*
X55731600Y-37884847D01*
X55755409Y-37861038D01*
X55803028Y-37837228D01*
X55874457Y-37837228D01*
X55922076Y-37861038D01*
X55945885Y-37884847D01*
X55969695Y-37932466D01*
X55969695Y-38122942D01*
X55755409Y-37646752D02*
X55731600Y-37622942D01*
X55707790Y-37575323D01*
X55707790Y-37456276D01*
X55731600Y-37408657D01*
X55755409Y-37384847D01*
X55803028Y-37361038D01*
X55850647Y-37361038D01*
X55922076Y-37384847D01*
X56207790Y-37670561D01*
X56207790Y-37361038D01*
X55707790Y-37051514D02*
X55707790Y-37003895D01*
X55731600Y-36956276D01*
X55755409Y-36932466D01*
X55803028Y-36908657D01*
X55898266Y-36884847D01*
X56017314Y-36884847D01*
X56112552Y-36908657D01*
X56160171Y-36932466D01*
X56183980Y-36956276D01*
X56207790Y-37003895D01*
X56207790Y-37051514D01*
X56183980Y-37099133D01*
X56160171Y-37122942D01*
X56112552Y-37146752D01*
X56017314Y-37170561D01*
X55898266Y-37170561D01*
X55803028Y-37146752D01*
X55755409Y-37122942D01*
X55731600Y-37099133D01*
X55707790Y-37051514D01*
D11*
X42689542Y-52877980D02*
X42356209Y-52401790D01*
X42118114Y-52877980D02*
X42118114Y-51877980D01*
X42499066Y-51877980D01*
X42594304Y-51925600D01*
X42641923Y-51973219D01*
X42689542Y-52068457D01*
X42689542Y-52211314D01*
X42641923Y-52306552D01*
X42594304Y-52354171D01*
X42499066Y-52401790D01*
X42118114Y-52401790D01*
X43641923Y-52877980D02*
X43070495Y-52877980D01*
X43356209Y-52877980D02*
X43356209Y-51877980D01*
X43260971Y-52020838D01*
X43165733Y-52116076D01*
X43070495Y-52163695D01*
X44118114Y-52877980D02*
X44308590Y-52877980D01*
X44403828Y-52830361D01*
X44451447Y-52782742D01*
X44546685Y-52639885D01*
X44594304Y-52449409D01*
X44594304Y-52068457D01*
X44546685Y-51973219D01*
X44499066Y-51925600D01*
X44403828Y-51877980D01*
X44213352Y-51877980D01*
X44118114Y-51925600D01*
X44070495Y-51973219D01*
X44022876Y-52068457D01*
X44022876Y-52306552D01*
X44070495Y-52401790D01*
X44118114Y-52449409D01*
X44213352Y-52497028D01*
X44403828Y-52497028D01*
X44499066Y-52449409D01*
X44546685Y-52401790D01*
X44594304Y-52306552D01*
X41762442Y-47089955D02*
X41429109Y-46613765D01*
X41191014Y-47089955D02*
X41191014Y-46089955D01*
X41571966Y-46089955D01*
X41667204Y-46137575D01*
X41714823Y-46185194D01*
X41762442Y-46280432D01*
X41762442Y-46423289D01*
X41714823Y-46518527D01*
X41667204Y-46566146D01*
X41571966Y-46613765D01*
X41191014Y-46613765D01*
X42714823Y-47089955D02*
X42143395Y-47089955D01*
X42429109Y-47089955D02*
X42429109Y-46089955D01*
X42333871Y-46232813D01*
X42238633Y-46328051D01*
X42143395Y-46375670D01*
X43286252Y-46518527D02*
X43191014Y-46470908D01*
X43143395Y-46423289D01*
X43095776Y-46328051D01*
X43095776Y-46280432D01*
X43143395Y-46185194D01*
X43191014Y-46137575D01*
X43286252Y-46089955D01*
X43476728Y-46089955D01*
X43571966Y-46137575D01*
X43619585Y-46185194D01*
X43667204Y-46280432D01*
X43667204Y-46328051D01*
X43619585Y-46423289D01*
X43571966Y-46470908D01*
X43476728Y-46518527D01*
X43286252Y-46518527D01*
X43191014Y-46566146D01*
X43143395Y-46613765D01*
X43095776Y-46709003D01*
X43095776Y-46899479D01*
X43143395Y-46994717D01*
X43191014Y-47042336D01*
X43286252Y-47089955D01*
X43476728Y-47089955D01*
X43571966Y-47042336D01*
X43619585Y-46994717D01*
X43667204Y-46899479D01*
X43667204Y-46709003D01*
X43619585Y-46613765D01*
X43571966Y-46566146D01*
X43476728Y-46518527D01*
X41825942Y-44010205D02*
X41492609Y-43534015D01*
X41254514Y-44010205D02*
X41254514Y-43010205D01*
X41635466Y-43010205D01*
X41730704Y-43057825D01*
X41778323Y-43105444D01*
X41825942Y-43200682D01*
X41825942Y-43343539D01*
X41778323Y-43438777D01*
X41730704Y-43486396D01*
X41635466Y-43534015D01*
X41254514Y-43534015D01*
X42778323Y-44010205D02*
X42206895Y-44010205D01*
X42492609Y-44010205D02*
X42492609Y-43010205D01*
X42397371Y-43153063D01*
X42302133Y-43248301D01*
X42206895Y-43295920D01*
X43111657Y-43010205D02*
X43778323Y-43010205D01*
X43349752Y-44010205D01*
X42676842Y-57957980D02*
X42343509Y-57481790D01*
X42105414Y-57957980D02*
X42105414Y-56957980D01*
X42486366Y-56957980D01*
X42581604Y-57005600D01*
X42629223Y-57053219D01*
X42676842Y-57148457D01*
X42676842Y-57291314D01*
X42629223Y-57386552D01*
X42581604Y-57434171D01*
X42486366Y-57481790D01*
X42105414Y-57481790D01*
X43629223Y-57957980D02*
X43057795Y-57957980D01*
X43343509Y-57957980D02*
X43343509Y-56957980D01*
X43248271Y-57100838D01*
X43153033Y-57196076D01*
X43057795Y-57243695D01*
X44486366Y-56957980D02*
X44295890Y-56957980D01*
X44200652Y-57005600D01*
X44153033Y-57053219D01*
X44057795Y-57196076D01*
X44010176Y-57386552D01*
X44010176Y-57767504D01*
X44057795Y-57862742D01*
X44105414Y-57910361D01*
X44200652Y-57957980D01*
X44391128Y-57957980D01*
X44486366Y-57910361D01*
X44533985Y-57862742D01*
X44581604Y-57767504D01*
X44581604Y-57529409D01*
X44533985Y-57434171D01*
X44486366Y-57386552D01*
X44391128Y-57338933D01*
X44200652Y-57338933D01*
X44105414Y-57386552D01*
X44057795Y-57434171D01*
X44010176Y-57529409D01*
X42676842Y-55333312D02*
X42343509Y-54857122D01*
X42105414Y-55333312D02*
X42105414Y-54333312D01*
X42486366Y-54333312D01*
X42581604Y-54380932D01*
X42629223Y-54428551D01*
X42676842Y-54523789D01*
X42676842Y-54666646D01*
X42629223Y-54761884D01*
X42581604Y-54809503D01*
X42486366Y-54857122D01*
X42105414Y-54857122D01*
X43629223Y-55333312D02*
X43057795Y-55333312D01*
X43343509Y-55333312D02*
X43343509Y-54333312D01*
X43248271Y-54476170D01*
X43153033Y-54571408D01*
X43057795Y-54619027D01*
X44533985Y-54333312D02*
X44057795Y-54333312D01*
X44010176Y-54809503D01*
X44057795Y-54761884D01*
X44153033Y-54714265D01*
X44391128Y-54714265D01*
X44486366Y-54761884D01*
X44533985Y-54809503D01*
X44581604Y-54904741D01*
X44581604Y-55142836D01*
X44533985Y-55238074D01*
X44486366Y-55285693D01*
X44391128Y-55333312D01*
X44153033Y-55333312D01*
X44057795Y-55285693D01*
X44010176Y-55238074D01*
X42676842Y-56637180D02*
X42343509Y-56160990D01*
X42105414Y-56637180D02*
X42105414Y-55637180D01*
X42486366Y-55637180D01*
X42581604Y-55684800D01*
X42629223Y-55732419D01*
X42676842Y-55827657D01*
X42676842Y-55970514D01*
X42629223Y-56065752D01*
X42581604Y-56113371D01*
X42486366Y-56160990D01*
X42105414Y-56160990D01*
X43629223Y-56637180D02*
X43057795Y-56637180D01*
X43343509Y-56637180D02*
X43343509Y-55637180D01*
X43248271Y-55780038D01*
X43153033Y-55875276D01*
X43057795Y-55922895D01*
X44486366Y-55970514D02*
X44486366Y-56637180D01*
X44248271Y-55589561D02*
X44010176Y-56303847D01*
X44629223Y-56303847D01*
X42676842Y-51612213D02*
X42343509Y-51136023D01*
X42105414Y-51612213D02*
X42105414Y-50612213D01*
X42486366Y-50612213D01*
X42581604Y-50659833D01*
X42629223Y-50707452D01*
X42676842Y-50802690D01*
X42676842Y-50945547D01*
X42629223Y-51040785D01*
X42581604Y-51088404D01*
X42486366Y-51136023D01*
X42105414Y-51136023D01*
X43629223Y-51612213D02*
X43057795Y-51612213D01*
X43343509Y-51612213D02*
X43343509Y-50612213D01*
X43248271Y-50755071D01*
X43153033Y-50850309D01*
X43057795Y-50897928D01*
X43962557Y-50612213D02*
X44581604Y-50612213D01*
X44248271Y-50993166D01*
X44391128Y-50993166D01*
X44486366Y-51040785D01*
X44533985Y-51088404D01*
X44581604Y-51183642D01*
X44581604Y-51421737D01*
X44533985Y-51516975D01*
X44486366Y-51564594D01*
X44391128Y-51612213D01*
X44105414Y-51612213D01*
X44010176Y-51564594D01*
X43962557Y-51516975D01*
X42676842Y-50350680D02*
X42343509Y-49874490D01*
X42105414Y-50350680D02*
X42105414Y-49350680D01*
X42486366Y-49350680D01*
X42581604Y-49398300D01*
X42629223Y-49445919D01*
X42676842Y-49541157D01*
X42676842Y-49684014D01*
X42629223Y-49779252D01*
X42581604Y-49826871D01*
X42486366Y-49874490D01*
X42105414Y-49874490D01*
X43629223Y-50350680D02*
X43057795Y-50350680D01*
X43343509Y-50350680D02*
X43343509Y-49350680D01*
X43248271Y-49493538D01*
X43153033Y-49588776D01*
X43057795Y-49636395D01*
X44010176Y-49445919D02*
X44057795Y-49398300D01*
X44153033Y-49350680D01*
X44391128Y-49350680D01*
X44486366Y-49398300D01*
X44533985Y-49445919D01*
X44581604Y-49541157D01*
X44581604Y-49636395D01*
X44533985Y-49779252D01*
X43962557Y-50350680D01*
X44581604Y-50350680D01*
X38015942Y-63596780D02*
X37682609Y-63120590D01*
X37444514Y-63596780D02*
X37444514Y-62596780D01*
X37825466Y-62596780D01*
X37920704Y-62644400D01*
X37968323Y-62692019D01*
X38015942Y-62787257D01*
X38015942Y-62930114D01*
X37968323Y-63025352D01*
X37920704Y-63072971D01*
X37825466Y-63120590D01*
X37444514Y-63120590D01*
X38968323Y-63596780D02*
X38396895Y-63596780D01*
X38682609Y-63596780D02*
X38682609Y-62596780D01*
X38587371Y-62739638D01*
X38492133Y-62834876D01*
X38396895Y-62882495D01*
X39920704Y-63596780D02*
X39349276Y-63596780D01*
X39634990Y-63596780D02*
X39634990Y-62596780D01*
X39539752Y-62739638D01*
X39444514Y-62834876D01*
X39349276Y-62882495D01*
X35221942Y-61513980D02*
X34888609Y-61037790D01*
X34650514Y-61513980D02*
X34650514Y-60513980D01*
X35031466Y-60513980D01*
X35126704Y-60561600D01*
X35174323Y-60609219D01*
X35221942Y-60704457D01*
X35221942Y-60847314D01*
X35174323Y-60942552D01*
X35126704Y-60990171D01*
X35031466Y-61037790D01*
X34650514Y-61037790D01*
X36174323Y-61513980D02*
X35602895Y-61513980D01*
X35888609Y-61513980D02*
X35888609Y-60513980D01*
X35793371Y-60656838D01*
X35698133Y-60752076D01*
X35602895Y-60799695D01*
X36793371Y-60513980D02*
X36888609Y-60513980D01*
X36983847Y-60561600D01*
X37031466Y-60609219D01*
X37079085Y-60704457D01*
X37126704Y-60894933D01*
X37126704Y-61133028D01*
X37079085Y-61323504D01*
X37031466Y-61418742D01*
X36983847Y-61466361D01*
X36888609Y-61513980D01*
X36793371Y-61513980D01*
X36698133Y-61466361D01*
X36650514Y-61418742D01*
X36602895Y-61323504D01*
X36555276Y-61133028D01*
X36555276Y-60894933D01*
X36602895Y-60704457D01*
X36650514Y-60609219D01*
X36698133Y-60561600D01*
X36793371Y-60513980D01*
X23836333Y-55316380D02*
X23503000Y-54840190D01*
X23264904Y-55316380D02*
X23264904Y-54316380D01*
X23645857Y-54316380D01*
X23741095Y-54364000D01*
X23788714Y-54411619D01*
X23836333Y-54506857D01*
X23836333Y-54649714D01*
X23788714Y-54744952D01*
X23741095Y-54792571D01*
X23645857Y-54840190D01*
X23264904Y-54840190D01*
X24312523Y-55316380D02*
X24503000Y-55316380D01*
X24598238Y-55268761D01*
X24645857Y-55221142D01*
X24741095Y-55078285D01*
X24788714Y-54887809D01*
X24788714Y-54506857D01*
X24741095Y-54411619D01*
X24693476Y-54364000D01*
X24598238Y-54316380D01*
X24407761Y-54316380D01*
X24312523Y-54364000D01*
X24264904Y-54411619D01*
X24217285Y-54506857D01*
X24217285Y-54744952D01*
X24264904Y-54840190D01*
X24312523Y-54887809D01*
X24407761Y-54935428D01*
X24598238Y-54935428D01*
X24693476Y-54887809D01*
X24741095Y-54840190D01*
X24788714Y-54744952D01*
X49058533Y-23426680D02*
X48725200Y-22950490D01*
X48487104Y-23426680D02*
X48487104Y-22426680D01*
X48868057Y-22426680D01*
X48963295Y-22474300D01*
X49010914Y-22521919D01*
X49058533Y-22617157D01*
X49058533Y-22760014D01*
X49010914Y-22855252D01*
X48963295Y-22902871D01*
X48868057Y-22950490D01*
X48487104Y-22950490D01*
X49629961Y-22855252D02*
X49534723Y-22807633D01*
X49487104Y-22760014D01*
X49439485Y-22664776D01*
X49439485Y-22617157D01*
X49487104Y-22521919D01*
X49534723Y-22474300D01*
X49629961Y-22426680D01*
X49820438Y-22426680D01*
X49915676Y-22474300D01*
X49963295Y-22521919D01*
X50010914Y-22617157D01*
X50010914Y-22664776D01*
X49963295Y-22760014D01*
X49915676Y-22807633D01*
X49820438Y-22855252D01*
X49629961Y-22855252D01*
X49534723Y-22902871D01*
X49487104Y-22950490D01*
X49439485Y-23045728D01*
X49439485Y-23236204D01*
X49487104Y-23331442D01*
X49534723Y-23379061D01*
X49629961Y-23426680D01*
X49820438Y-23426680D01*
X49915676Y-23379061D01*
X49963295Y-23331442D01*
X50010914Y-23236204D01*
X50010914Y-23045728D01*
X49963295Y-22950490D01*
X49915676Y-22902871D01*
X49820438Y-22855252D01*
X28282662Y-45365942D02*
X28235043Y-45413561D01*
X28092186Y-45461180D01*
X27996948Y-45461180D01*
X27854091Y-45413561D01*
X27758853Y-45318323D01*
X27711234Y-45223085D01*
X27663615Y-45032609D01*
X27663615Y-44889752D01*
X27711234Y-44699276D01*
X27758853Y-44604038D01*
X27854091Y-44508800D01*
X27996948Y-44461180D01*
X28092186Y-44461180D01*
X28235043Y-44508800D01*
X28282662Y-44556419D01*
X29235043Y-45461180D02*
X28663615Y-45461180D01*
X28949329Y-45461180D02*
X28949329Y-44461180D01*
X28854091Y-44604038D01*
X28758853Y-44699276D01*
X28663615Y-44746895D01*
X29854091Y-44461180D02*
X29949329Y-44461180D01*
X30044567Y-44508800D01*
X30092186Y-44556419D01*
X30139805Y-44651657D01*
X30187424Y-44842133D01*
X30187424Y-45080228D01*
X30139805Y-45270704D01*
X30092186Y-45365942D01*
X30044567Y-45413561D01*
X29949329Y-45461180D01*
X29854091Y-45461180D01*
X29758853Y-45413561D01*
X29711234Y-45365942D01*
X29663615Y-45270704D01*
X29615996Y-45080228D01*
X29615996Y-44842133D01*
X29663615Y-44651657D01*
X29711234Y-44556419D01*
X29758853Y-44508800D01*
X29854091Y-44461180D01*
X70978780Y-26546133D02*
X71693066Y-26546133D01*
X71835923Y-26593752D01*
X71931161Y-26688990D01*
X71978780Y-26831847D01*
X71978780Y-26927085D01*
X71312114Y-25641371D02*
X71978780Y-25641371D01*
X70931161Y-25879466D02*
X71645447Y-26117561D01*
X71645447Y-25498514D01*
X71981961Y-34772171D02*
X72029580Y-34629314D01*
X72029580Y-34391219D01*
X71981961Y-34295980D01*
X71934342Y-34248361D01*
X71839104Y-34200742D01*
X71743866Y-34200742D01*
X71648628Y-34248361D01*
X71601009Y-34295980D01*
X71553390Y-34391219D01*
X71505771Y-34581695D01*
X71458152Y-34676933D01*
X71410533Y-34724552D01*
X71315295Y-34772171D01*
X71220057Y-34772171D01*
X71124819Y-34724552D01*
X71077200Y-34676933D01*
X71029580Y-34581695D01*
X71029580Y-34343600D01*
X71077200Y-34200742D01*
X72029580Y-33772171D02*
X71029580Y-33772171D01*
X71029580Y-33391219D01*
X71077200Y-33295980D01*
X71124819Y-33248361D01*
X71220057Y-33200742D01*
X71362914Y-33200742D01*
X71458152Y-33248361D01*
X71505771Y-33295980D01*
X71553390Y-33391219D01*
X71553390Y-33772171D01*
X72029580Y-32772171D02*
X71029580Y-32772171D01*
X72029580Y-32200742D02*
X71458152Y-32629314D01*
X71029580Y-32200742D02*
X71601009Y-32772171D01*
X72029580Y-31200742D02*
X71553390Y-31534076D01*
X72029580Y-31772171D02*
X71029580Y-31772171D01*
X71029580Y-31391219D01*
X71077200Y-31295980D01*
X71124819Y-31248361D01*
X71220057Y-31200742D01*
X71362914Y-31200742D01*
X71458152Y-31248361D01*
X71505771Y-31295980D01*
X71553390Y-31391219D01*
X71553390Y-31772171D01*
X72029580Y-30772171D02*
X71029580Y-30772171D01*
X71077200Y-29772171D02*
X71029580Y-29867409D01*
X71029580Y-30010266D01*
X71077200Y-30153123D01*
X71172438Y-30248361D01*
X71267676Y-30295980D01*
X71458152Y-30343600D01*
X71601009Y-30343600D01*
X71791485Y-30295980D01*
X71886723Y-30248361D01*
X71981961Y-30153123D01*
X72029580Y-30010266D01*
X72029580Y-29915028D01*
X71981961Y-29772171D01*
X71934342Y-29724552D01*
X71601009Y-29724552D01*
X71601009Y-29915028D01*
X72029580Y-29295980D02*
X71029580Y-29295980D01*
X71505771Y-29295980D02*
X71505771Y-28724552D01*
X72029580Y-28724552D02*
X71029580Y-28724552D01*
X71029580Y-28391219D02*
X71029580Y-27819790D01*
X72029580Y-28105504D02*
X71029580Y-28105504D01*
X55728477Y-25617026D02*
X55156057Y-26189446D01*
X55122385Y-26290461D01*
X55122385Y-26357805D01*
X55156057Y-26458820D01*
X55290744Y-26593507D01*
X55391759Y-26627179D01*
X55459103Y-26627179D01*
X55560118Y-26593507D01*
X56132538Y-26021087D01*
X56401912Y-26290461D02*
X56839644Y-26728194D01*
X56334568Y-26761866D01*
X56435583Y-26862881D01*
X56469255Y-26963896D01*
X56469255Y-27031240D01*
X56435583Y-27132255D01*
X56267225Y-27300614D01*
X56166209Y-27334286D01*
X56098866Y-27334286D01*
X55997851Y-27300614D01*
X55795820Y-27098583D01*
X55762148Y-26997568D01*
X55762148Y-26930225D01*
X48003782Y-33848046D02*
X48710889Y-33140939D01*
X48441515Y-33881717D01*
X49182294Y-33612343D01*
X48475187Y-34319450D01*
X48980263Y-34420465D02*
X49316981Y-34757183D01*
X48710889Y-34555152D02*
X49653698Y-34083748D01*
X49182294Y-35026557D01*
X50057759Y-34487809D02*
X49822057Y-35666320D01*
X50529164Y-34959213D02*
X49350652Y-35194916D01*
X50125103Y-35969366D02*
X50259790Y-36104053D01*
X50360805Y-36137725D01*
X50428148Y-36137725D01*
X50596507Y-36104053D01*
X50764866Y-36003038D01*
X51034240Y-35733664D01*
X51067912Y-35632648D01*
X51067912Y-35565305D01*
X51034240Y-35464290D01*
X50899553Y-35329603D01*
X50798538Y-35295931D01*
X50731194Y-35295931D01*
X50630179Y-35329603D01*
X50461820Y-35497961D01*
X50428148Y-35598977D01*
X50428148Y-35666320D01*
X50461820Y-35767335D01*
X50596507Y-35902022D01*
X50697522Y-35935694D01*
X50764866Y-35935694D01*
X50865881Y-35902022D01*
X51404629Y-35834679D02*
X51876034Y-36306083D01*
X50865881Y-36710144D01*
X52212751Y-37114205D02*
X51741347Y-37585610D01*
X52313766Y-36676473D02*
X51640331Y-37013190D01*
X52078064Y-37450923D01*
X52886186Y-37787640D02*
X52414782Y-38259045D01*
X52987201Y-37349908D02*
X52313766Y-37686625D01*
X52751499Y-38124358D01*
X53508758Y-26239220D02*
X53340399Y-26407579D01*
X53239384Y-26171877D02*
X53340399Y-26407579D01*
X53576101Y-26508594D01*
X53104697Y-26441251D02*
X53340399Y-26407579D01*
X53306727Y-26643281D01*
X53508758Y-26239220D02*
X53340399Y-26407579D01*
X53239384Y-26171877D02*
X53340399Y-26407579D01*
X53576101Y-26508594D01*
X53104697Y-26441251D02*
X53340399Y-26407579D01*
X53306727Y-26643281D01*
X71029580Y-17046533D02*
X71743866Y-17046533D01*
X71886723Y-17094152D01*
X71981961Y-17189390D01*
X72029580Y-17332247D01*
X72029580Y-17427485D01*
X71029580Y-16665580D02*
X71029580Y-16046533D01*
X71410533Y-16379866D01*
X71410533Y-16237009D01*
X71458152Y-16141771D01*
X71505771Y-16094152D01*
X71601009Y-16046533D01*
X71839104Y-16046533D01*
X71934342Y-16094152D01*
X71981961Y-16141771D01*
X72029580Y-16237009D01*
X72029580Y-16522723D01*
X71981961Y-16617961D01*
X71934342Y-16665580D01*
X71880361Y-24034380D02*
X71927980Y-23891523D01*
X71927980Y-23653428D01*
X71880361Y-23558190D01*
X71832742Y-23510571D01*
X71737504Y-23462952D01*
X71642266Y-23462952D01*
X71547028Y-23510571D01*
X71499409Y-23558190D01*
X71451790Y-23653428D01*
X71404171Y-23843904D01*
X71356552Y-23939142D01*
X71308933Y-23986761D01*
X71213695Y-24034380D01*
X71118457Y-24034380D01*
X71023219Y-23986761D01*
X70975600Y-23939142D01*
X70927980Y-23843904D01*
X70927980Y-23605809D01*
X70975600Y-23462952D01*
X71927980Y-23034380D02*
X70927980Y-23034380D01*
X70927980Y-22653428D01*
X70975600Y-22558190D01*
X71023219Y-22510571D01*
X71118457Y-22462952D01*
X71261314Y-22462952D01*
X71356552Y-22510571D01*
X71404171Y-22558190D01*
X71451790Y-22653428D01*
X71451790Y-23034380D01*
X71927980Y-22034380D02*
X70927980Y-22034380D01*
X71927980Y-21462952D02*
X71356552Y-21891523D01*
X70927980Y-21462952D02*
X71499409Y-22034380D01*
X71927980Y-20558190D02*
X71927980Y-21034380D01*
X70927980Y-21034380D01*
X71404171Y-20224857D02*
X71404171Y-19891523D01*
X71927980Y-19748666D02*
X71927980Y-20224857D01*
X70927980Y-20224857D01*
X70927980Y-19748666D01*
X71404171Y-18986761D02*
X71404171Y-19320095D01*
X71927980Y-19320095D02*
X70927980Y-19320095D01*
X70927980Y-18843904D01*
X70927980Y-18605809D02*
X70927980Y-18034380D01*
X71927980Y-18320095D02*
X70927980Y-18320095D01*
X58602714Y-88423380D02*
X58602714Y-87423380D01*
X58840809Y-87423380D01*
X58983666Y-87471000D01*
X59078904Y-87566238D01*
X59126523Y-87661476D01*
X59174142Y-87851952D01*
X59174142Y-87994809D01*
X59126523Y-88185285D01*
X59078904Y-88280523D01*
X58983666Y-88375761D01*
X58840809Y-88423380D01*
X58602714Y-88423380D01*
X59555095Y-87518619D02*
X59602714Y-87471000D01*
X59697952Y-87423380D01*
X59936047Y-87423380D01*
X60031285Y-87471000D01*
X60078904Y-87518619D01*
X60126523Y-87613857D01*
X60126523Y-87709095D01*
X60078904Y-87851952D01*
X59507476Y-88423380D01*
X60126523Y-88423380D01*
X60745571Y-87423380D02*
X60840809Y-87423380D01*
X60936047Y-87471000D01*
X60983666Y-87518619D01*
X61031285Y-87613857D01*
X61078904Y-87804333D01*
X61078904Y-88042428D01*
X61031285Y-88232904D01*
X60983666Y-88328142D01*
X60936047Y-88375761D01*
X60840809Y-88423380D01*
X60745571Y-88423380D01*
X60650333Y-88375761D01*
X60602714Y-88328142D01*
X60555095Y-88232904D01*
X60507476Y-88042428D01*
X60507476Y-87804333D01*
X60555095Y-87613857D01*
X60602714Y-87518619D01*
X60650333Y-87471000D01*
X60745571Y-87423380D01*
X19456495Y-60666380D02*
X19456495Y-61475904D01*
X19504114Y-61571142D01*
X19551733Y-61618761D01*
X19646971Y-61666380D01*
X19837447Y-61666380D01*
X19932685Y-61618761D01*
X19980304Y-61571142D01*
X20027923Y-61475904D01*
X20027923Y-60666380D01*
X20551733Y-61666380D02*
X20742209Y-61666380D01*
X20837447Y-61618761D01*
X20885066Y-61571142D01*
X20980304Y-61428285D01*
X21027923Y-61237809D01*
X21027923Y-60856857D01*
X20980304Y-60761619D01*
X20932685Y-60714000D01*
X20837447Y-60666380D01*
X20646971Y-60666380D01*
X20551733Y-60714000D01*
X20504114Y-60761619D01*
X20456495Y-60856857D01*
X20456495Y-61094952D01*
X20504114Y-61190190D01*
X20551733Y-61237809D01*
X20646971Y-61285428D01*
X20837447Y-61285428D01*
X20932685Y-61237809D01*
X20980304Y-61190190D01*
X21027923Y-61094952D01*
X20929695Y-71283580D02*
X20929695Y-72093104D01*
X20977314Y-72188342D01*
X21024933Y-72235961D01*
X21120171Y-72283580D01*
X21310647Y-72283580D01*
X21405885Y-72235961D01*
X21453504Y-72188342D01*
X21501123Y-72093104D01*
X21501123Y-71283580D01*
X22120171Y-71712152D02*
X22024933Y-71664533D01*
X21977314Y-71616914D01*
X21929695Y-71521676D01*
X21929695Y-71474057D01*
X21977314Y-71378819D01*
X22024933Y-71331200D01*
X22120171Y-71283580D01*
X22310647Y-71283580D01*
X22405885Y-71331200D01*
X22453504Y-71378819D01*
X22501123Y-71474057D01*
X22501123Y-71521676D01*
X22453504Y-71616914D01*
X22405885Y-71664533D01*
X22310647Y-71712152D01*
X22120171Y-71712152D01*
X22024933Y-71759771D01*
X21977314Y-71807390D01*
X21929695Y-71902628D01*
X21929695Y-72093104D01*
X21977314Y-72188342D01*
X22024933Y-72235961D01*
X22120171Y-72283580D01*
X22310647Y-72283580D01*
X22405885Y-72235961D01*
X22453504Y-72188342D01*
X22501123Y-72093104D01*
X22501123Y-71902628D01*
X22453504Y-71807390D01*
X22405885Y-71759771D01*
X22310647Y-71712152D01*
X51866895Y-80637980D02*
X51866895Y-81447504D01*
X51914514Y-81542742D01*
X51962133Y-81590361D01*
X52057371Y-81637980D01*
X52247847Y-81637980D01*
X52343085Y-81590361D01*
X52390704Y-81542742D01*
X52438323Y-81447504D01*
X52438323Y-80637980D01*
X53343085Y-80637980D02*
X53152609Y-80637980D01*
X53057371Y-80685600D01*
X53009752Y-80733219D01*
X52914514Y-80876076D01*
X52866895Y-81066552D01*
X52866895Y-81447504D01*
X52914514Y-81542742D01*
X52962133Y-81590361D01*
X53057371Y-81637980D01*
X53247847Y-81637980D01*
X53343085Y-81590361D01*
X53390704Y-81542742D01*
X53438323Y-81447504D01*
X53438323Y-81209409D01*
X53390704Y-81114171D01*
X53343085Y-81066552D01*
X53247847Y-81018933D01*
X53057371Y-81018933D01*
X52962133Y-81066552D01*
X52914514Y-81114171D01*
X52866895Y-81209409D01*
X37287295Y-47966380D02*
X37287295Y-48775904D01*
X37334914Y-48871142D01*
X37382533Y-48918761D01*
X37477771Y-48966380D01*
X37668247Y-48966380D01*
X37763485Y-48918761D01*
X37811104Y-48871142D01*
X37858723Y-48775904D01*
X37858723Y-47966380D01*
X38287295Y-48061619D02*
X38334914Y-48014000D01*
X38430152Y-47966380D01*
X38668247Y-47966380D01*
X38763485Y-48014000D01*
X38811104Y-48061619D01*
X38858723Y-48156857D01*
X38858723Y-48252095D01*
X38811104Y-48394952D01*
X38239676Y-48966380D01*
X38858723Y-48966380D01*
X21653904Y-58872380D02*
X21653904Y-57872380D01*
X22034857Y-57872380D01*
X22130095Y-57920000D01*
X22177714Y-57967619D01*
X22225333Y-58062857D01*
X22225333Y-58205714D01*
X22177714Y-58300952D01*
X22130095Y-58348571D01*
X22034857Y-58396190D01*
X21653904Y-58396190D01*
X23225333Y-58777142D02*
X23177714Y-58824761D01*
X23034857Y-58872380D01*
X22939619Y-58872380D01*
X22796761Y-58824761D01*
X22701523Y-58729523D01*
X22653904Y-58634285D01*
X22606285Y-58443809D01*
X22606285Y-58300952D01*
X22653904Y-58110476D01*
X22701523Y-58015238D01*
X22796761Y-57920000D01*
X22939619Y-57872380D01*
X23034857Y-57872380D01*
X23177714Y-57920000D01*
X23225333Y-57967619D01*
X23653904Y-58872380D02*
X23653904Y-57872380D01*
X23987238Y-58586666D01*
X24320571Y-57872380D01*
X24320571Y-58872380D01*
X24749142Y-57967619D02*
X24796761Y-57920000D01*
X24892000Y-57872380D01*
X25130095Y-57872380D01*
X25225333Y-57920000D01*
X25272952Y-57967619D01*
X25320571Y-58062857D01*
X25320571Y-58158095D01*
X25272952Y-58300952D01*
X24701523Y-58872380D01*
X25320571Y-58872380D01*
X25653904Y-57872380D02*
X26320571Y-57872380D01*
X25892000Y-58872380D01*
X26892000Y-57872380D02*
X26987238Y-57872380D01*
X27082476Y-57920000D01*
X27130095Y-57967619D01*
X27177714Y-58062857D01*
X27225333Y-58253333D01*
X27225333Y-58491428D01*
X27177714Y-58681904D01*
X27130095Y-58777142D01*
X27082476Y-58824761D01*
X26987238Y-58872380D01*
X26892000Y-58872380D01*
X26796761Y-58824761D01*
X26749142Y-58777142D01*
X26701523Y-58681904D01*
X26653904Y-58491428D01*
X26653904Y-58253333D01*
X26701523Y-58062857D01*
X26749142Y-57967619D01*
X26796761Y-57920000D01*
X26892000Y-57872380D01*
X28082476Y-57872380D02*
X27892000Y-57872380D01*
X27796761Y-57920000D01*
X27749142Y-57967619D01*
X27653904Y-58110476D01*
X27606285Y-58300952D01*
X27606285Y-58681904D01*
X27653904Y-58777142D01*
X27701523Y-58824761D01*
X27796761Y-58872380D01*
X27987238Y-58872380D01*
X28082476Y-58824761D01*
X28130095Y-58777142D01*
X28177714Y-58681904D01*
X28177714Y-58443809D01*
X28130095Y-58348571D01*
X28082476Y-58300952D01*
X27987238Y-58253333D01*
X27796761Y-58253333D01*
X27701523Y-58300952D01*
X27653904Y-58348571D01*
X27606285Y-58443809D01*
X56732419Y-46424838D02*
X56684800Y-46520076D01*
X56589561Y-46615314D01*
X56446704Y-46758171D01*
X56399085Y-46853409D01*
X56399085Y-46948647D01*
X56637180Y-46901028D02*
X56589561Y-46996266D01*
X56494323Y-47091504D01*
X56303847Y-47139123D01*
X55970514Y-47139123D01*
X55780038Y-47091504D01*
X55684800Y-46996266D01*
X55637180Y-46901028D01*
X55637180Y-46710552D01*
X55684800Y-46615314D01*
X55780038Y-46520076D01*
X55970514Y-46472457D01*
X56303847Y-46472457D01*
X56494323Y-46520076D01*
X56589561Y-46615314D01*
X56637180Y-46710552D01*
X56637180Y-46901028D01*
X55637180Y-46139123D02*
X55637180Y-45520076D01*
X56018133Y-45853409D01*
X56018133Y-45710552D01*
X56065752Y-45615314D01*
X56113371Y-45567695D01*
X56208609Y-45520076D01*
X56446704Y-45520076D01*
X56541942Y-45567695D01*
X56589561Y-45615314D01*
X56637180Y-45710552D01*
X56637180Y-45996266D01*
X56589561Y-46091504D01*
X56541942Y-46139123D01*
X66221076Y-60546180D02*
X66221076Y-61260466D01*
X66173457Y-61403323D01*
X66078219Y-61498561D01*
X65935361Y-61546180D01*
X65840123Y-61546180D01*
X67221076Y-61546180D02*
X66649647Y-61546180D01*
X66935361Y-61546180D02*
X66935361Y-60546180D01*
X66840123Y-60689038D01*
X66744885Y-60784276D01*
X66649647Y-60831895D01*
X67840123Y-60546180D02*
X67935361Y-60546180D01*
X68030600Y-60593800D01*
X68078219Y-60641419D01*
X68125838Y-60736657D01*
X68173457Y-60927133D01*
X68173457Y-61165228D01*
X68125838Y-61355704D01*
X68078219Y-61450942D01*
X68030600Y-61498561D01*
X67935361Y-61546180D01*
X67840123Y-61546180D01*
X67744885Y-61498561D01*
X67697266Y-61450942D01*
X67649647Y-61355704D01*
X67602028Y-61165228D01*
X67602028Y-60927133D01*
X67649647Y-60736657D01*
X67697266Y-60641419D01*
X67744885Y-60593800D01*
X67840123Y-60546180D01*
X71546980Y-79520276D02*
X70546980Y-79520276D01*
X70546980Y-79282180D01*
X70594600Y-79139323D01*
X70689838Y-79044085D01*
X70785076Y-78996466D01*
X70975552Y-78948847D01*
X71118409Y-78948847D01*
X71308885Y-78996466D01*
X71404123Y-79044085D01*
X71499361Y-79139323D01*
X71546980Y-79282180D01*
X71546980Y-79520276D01*
X71499361Y-78139323D02*
X71546980Y-78234561D01*
X71546980Y-78425038D01*
X71499361Y-78520276D01*
X71404123Y-78567895D01*
X71023171Y-78567895D01*
X70927933Y-78520276D01*
X70880314Y-78425038D01*
X70880314Y-78234561D01*
X70927933Y-78139323D01*
X71023171Y-78091704D01*
X71118409Y-78091704D01*
X71213647Y-78567895D01*
X71546980Y-77663133D02*
X70546980Y-77663133D01*
X70927933Y-77663133D02*
X70880314Y-77567895D01*
X70880314Y-77377419D01*
X70927933Y-77282180D01*
X70975552Y-77234561D01*
X71070790Y-77186942D01*
X71356504Y-77186942D01*
X71451742Y-77234561D01*
X71499361Y-77282180D01*
X71546980Y-77377419D01*
X71546980Y-77567895D01*
X71499361Y-77663133D01*
X70880314Y-76329800D02*
X71546980Y-76329800D01*
X70880314Y-76758371D02*
X71404123Y-76758371D01*
X71499361Y-76710752D01*
X71546980Y-76615514D01*
X71546980Y-76472657D01*
X71499361Y-76377419D01*
X71451742Y-76329800D01*
X70880314Y-75425038D02*
X71689838Y-75425038D01*
X71785076Y-75472657D01*
X71832695Y-75520276D01*
X71880314Y-75615514D01*
X71880314Y-75758371D01*
X71832695Y-75853609D01*
X71499361Y-75425038D02*
X71546980Y-75520276D01*
X71546980Y-75710752D01*
X71499361Y-75805990D01*
X71451742Y-75853609D01*
X71356504Y-75901228D01*
X71070790Y-75901228D01*
X70975552Y-75853609D01*
X70927933Y-75805990D01*
X70880314Y-75710752D01*
X70880314Y-75520276D01*
X70927933Y-75425038D01*
X71451742Y-73615514D02*
X71499361Y-73663133D01*
X71546980Y-73805990D01*
X71546980Y-73901228D01*
X71499361Y-74044085D01*
X71404123Y-74139323D01*
X71308885Y-74186942D01*
X71118409Y-74234561D01*
X70975552Y-74234561D01*
X70785076Y-74186942D01*
X70689838Y-74139323D01*
X70594600Y-74044085D01*
X70546980Y-73901228D01*
X70546980Y-73805990D01*
X70594600Y-73663133D01*
X70642219Y-73615514D01*
X71546980Y-73044085D02*
X71499361Y-73139323D01*
X71451742Y-73186942D01*
X71356504Y-73234561D01*
X71070790Y-73234561D01*
X70975552Y-73186942D01*
X70927933Y-73139323D01*
X70880314Y-73044085D01*
X70880314Y-72901228D01*
X70927933Y-72805990D01*
X70975552Y-72758371D01*
X71070790Y-72710752D01*
X71356504Y-72710752D01*
X71451742Y-72758371D01*
X71499361Y-72805990D01*
X71546980Y-72901228D01*
X71546980Y-73044085D01*
X70880314Y-72282180D02*
X71546980Y-72282180D01*
X70975552Y-72282180D02*
X70927933Y-72234561D01*
X70880314Y-72139323D01*
X70880314Y-71996466D01*
X70927933Y-71901228D01*
X71023171Y-71853609D01*
X71546980Y-71853609D01*
X70880314Y-71377419D02*
X71546980Y-71377419D01*
X70975552Y-71377419D02*
X70927933Y-71329800D01*
X70880314Y-71234561D01*
X70880314Y-71091704D01*
X70927933Y-70996466D01*
X71023171Y-70948847D01*
X71546980Y-70948847D01*
X71499361Y-70091704D02*
X71546980Y-70186942D01*
X71546980Y-70377419D01*
X71499361Y-70472657D01*
X71404123Y-70520276D01*
X71023171Y-70520276D01*
X70927933Y-70472657D01*
X70880314Y-70377419D01*
X70880314Y-70186942D01*
X70927933Y-70091704D01*
X71023171Y-70044085D01*
X71118409Y-70044085D01*
X71213647Y-70520276D01*
X71499361Y-69186942D02*
X71546980Y-69282180D01*
X71546980Y-69472657D01*
X71499361Y-69567895D01*
X71451742Y-69615514D01*
X71356504Y-69663133D01*
X71070790Y-69663133D01*
X70975552Y-69615514D01*
X70927933Y-69567895D01*
X70880314Y-69472657D01*
X70880314Y-69282180D01*
X70927933Y-69186942D01*
X70880314Y-68901228D02*
X70880314Y-68520276D01*
X70546980Y-68758371D02*
X71404123Y-68758371D01*
X71499361Y-68710752D01*
X71546980Y-68615514D01*
X71546980Y-68520276D01*
X71546980Y-68044085D02*
X71499361Y-68139323D01*
X71451742Y-68186942D01*
X71356504Y-68234561D01*
X71070790Y-68234561D01*
X70975552Y-68186942D01*
X70927933Y-68139323D01*
X70880314Y-68044085D01*
X70880314Y-67901228D01*
X70927933Y-67805990D01*
X70975552Y-67758371D01*
X71070790Y-67710752D01*
X71356504Y-67710752D01*
X71451742Y-67758371D01*
X71499361Y-67805990D01*
X71546980Y-67901228D01*
X71546980Y-68044085D01*
X71546980Y-67282180D02*
X70880314Y-67282180D01*
X71070790Y-67282180D02*
X70975552Y-67234561D01*
X70927933Y-67186942D01*
X70880314Y-67091704D01*
X70880314Y-66996466D01*
X40447980Y-91976533D02*
X41162266Y-91976533D01*
X41305123Y-92024152D01*
X41400361Y-92119390D01*
X41447980Y-92262247D01*
X41447980Y-92357485D01*
X41447980Y-91452723D02*
X41447980Y-91262247D01*
X41400361Y-91167009D01*
X41352742Y-91119390D01*
X41209885Y-91024152D01*
X41019409Y-90976533D01*
X40638457Y-90976533D01*
X40543219Y-91024152D01*
X40495600Y-91071771D01*
X40447980Y-91167009D01*
X40447980Y-91357485D01*
X40495600Y-91452723D01*
X40543219Y-91500342D01*
X40638457Y-91547961D01*
X40876552Y-91547961D01*
X40971790Y-91500342D01*
X41019409Y-91452723D01*
X41067028Y-91357485D01*
X41067028Y-91167009D01*
X41019409Y-91071771D01*
X40971790Y-91024152D01*
X40876552Y-90976533D01*
X15727060Y-34982375D02*
X14727060Y-34982375D01*
X14727060Y-34744280D01*
X14774680Y-34601422D01*
X14869918Y-34506184D01*
X14965156Y-34458565D01*
X15155632Y-34410946D01*
X15298489Y-34410946D01*
X15488965Y-34458565D01*
X15584203Y-34506184D01*
X15679441Y-34601422D01*
X15727060Y-34744280D01*
X15727060Y-34982375D01*
X15727060Y-33458565D02*
X15727060Y-34029994D01*
X15727060Y-33744280D02*
X14727060Y-33744280D01*
X14869918Y-33839518D01*
X14965156Y-33934756D01*
X15012775Y-34029994D01*
X7808933Y-87625180D02*
X7332742Y-87625180D01*
X7332742Y-86625180D01*
X8047028Y-86625180D02*
X8666076Y-86625180D01*
X8332742Y-87006133D01*
X8475600Y-87006133D01*
X8570838Y-87053752D01*
X8618457Y-87101371D01*
X8666076Y-87196609D01*
X8666076Y-87434704D01*
X8618457Y-87529942D01*
X8570838Y-87577561D01*
X8475600Y-87625180D01*
X8189885Y-87625180D01*
X8094647Y-87577561D01*
X8047028Y-87529942D01*
X7670380Y-91490704D02*
X8479904Y-91490704D01*
X8575142Y-91443085D01*
X8622761Y-91395466D01*
X8670380Y-91300228D01*
X8670380Y-91109752D01*
X8622761Y-91014514D01*
X8575142Y-90966895D01*
X8479904Y-90919276D01*
X7670380Y-90919276D01*
X7670380Y-90538323D02*
X7670380Y-89871657D01*
X8670380Y-90300228D01*
X17376876Y-90181180D02*
X18043542Y-91181180D01*
X18043542Y-90181180D02*
X17376876Y-91181180D01*
X18948304Y-91181180D02*
X18376876Y-91181180D01*
X18662590Y-91181180D02*
X18662590Y-90181180D01*
X18567352Y-90324038D01*
X18472114Y-90419276D01*
X18376876Y-90466895D01*
X20737533Y-27834862D02*
X20689914Y-27882481D01*
X20547057Y-27930100D01*
X20451819Y-27930100D01*
X20308961Y-27882481D01*
X20213723Y-27787243D01*
X20166104Y-27692005D01*
X20118485Y-27501529D01*
X20118485Y-27358672D01*
X20166104Y-27168196D01*
X20213723Y-27072958D01*
X20308961Y-26977720D01*
X20451819Y-26930100D01*
X20547057Y-26930100D01*
X20689914Y-26977720D01*
X20737533Y-27025339D01*
X21594676Y-26930100D02*
X21404200Y-26930100D01*
X21308961Y-26977720D01*
X21261342Y-27025339D01*
X21166104Y-27168196D01*
X21118485Y-27358672D01*
X21118485Y-27739624D01*
X21166104Y-27834862D01*
X21213723Y-27882481D01*
X21308961Y-27930100D01*
X21499438Y-27930100D01*
X21594676Y-27882481D01*
X21642295Y-27834862D01*
X21689914Y-27739624D01*
X21689914Y-27501529D01*
X21642295Y-27406291D01*
X21594676Y-27358672D01*
X21499438Y-27311053D01*
X21308961Y-27311053D01*
X21213723Y-27358672D01*
X21166104Y-27406291D01*
X21118485Y-27501529D01*
M02*
