G04 #@! TF.GenerationSoftware,KiCad,Pcbnew,(5.1.6)-1*
G04 #@! TF.CreationDate,2020-07-22T11:53:15-07:00*
G04 #@! TF.ProjectId,Mycroft - Mark 2,4d796372-6f66-4742-902d-204d61726b20,rev?*
G04 #@! TF.SameCoordinates,Original*
G04 #@! TF.FileFunction,Paste,Top*
G04 #@! TF.FilePolarity,Positive*
%FSLAX46Y46*%
G04 Gerber Fmt 4.6, Leading zero omitted, Abs format (unit mm)*
G04 Created by KiCad (PCBNEW (5.1.6)-1) date 2020-07-22 11:53:15*
%MOMM*%
%LPD*%
G01*
G04 APERTURE LIST*
%ADD10C,0.152400*%
%ADD11R,0.900000X1.200000*%
%ADD12R,0.650000X1.220000*%
%ADD13R,1.400000X1.200000*%
%ADD14R,1.150000X1.450000*%
%ADD15R,1.750000X1.900000*%
%ADD16R,0.400000X1.400000*%
%ADD17R,1.800000X2.500000*%
%ADD18R,4.550000X5.250000*%
%ADD19R,4.600000X1.100000*%
%ADD20R,5.000000X4.500000*%
%ADD21R,1.060000X0.650000*%
%ADD22R,1.300000X0.600000*%
%ADD23R,2.000000X1.500000*%
%ADD24R,2.000000X3.800000*%
%ADD25C,0.100000*%
%ADD26R,0.900000X0.800000*%
%ADD27R,1.200000X0.400000*%
%ADD28R,0.550000X1.600000*%
%ADD29R,1.600000X0.550000*%
%ADD30R,0.600000X1.300000*%
%ADD31R,0.500000X0.500000*%
G04 APERTURE END LIST*
D10*
X54356000Y-28460964D02*
X53353935Y-29463029D01*
X53353935Y-29463029D02*
X54356000Y-30465094D01*
X54356000Y-30465094D02*
X55358065Y-29463029D01*
X55358065Y-29463029D02*
X54356000Y-28460964D01*
X53212514Y-29604449D02*
X52210449Y-30606514D01*
X52210449Y-30606514D02*
X53212514Y-31608579D01*
X53212514Y-31608579D02*
X54214579Y-30606514D01*
X54214579Y-30606514D02*
X53212514Y-29604449D01*
X52069029Y-30747935D02*
X51066964Y-31750000D01*
X51066964Y-31750000D02*
X52069029Y-32752065D01*
X52069029Y-32752065D02*
X53071094Y-31750000D01*
X53071094Y-31750000D02*
X52069029Y-30747935D01*
X55499486Y-29604449D02*
X54497421Y-30606514D01*
X54497421Y-30606514D02*
X55499486Y-31608579D01*
X55499486Y-31608579D02*
X56501551Y-30606514D01*
X56501551Y-30606514D02*
X55499486Y-29604449D01*
X54356000Y-30747935D02*
X53353935Y-31750000D01*
X53353935Y-31750000D02*
X54356000Y-32752065D01*
X54356000Y-32752065D02*
X55358065Y-31750000D01*
X55358065Y-31750000D02*
X54356000Y-30747935D01*
X53212514Y-31891421D02*
X52210449Y-32893486D01*
X52210449Y-32893486D02*
X53212514Y-33895551D01*
X53212514Y-33895551D02*
X54214579Y-32893486D01*
X54214579Y-32893486D02*
X53212514Y-31891421D01*
X56642971Y-30747935D02*
X55640906Y-31750000D01*
X55640906Y-31750000D02*
X56642971Y-32752065D01*
X56642971Y-32752065D02*
X57645036Y-31750000D01*
X57645036Y-31750000D02*
X56642971Y-30747935D01*
X55499486Y-31891421D02*
X54497421Y-32893486D01*
X54497421Y-32893486D02*
X55499486Y-33895551D01*
X55499486Y-33895551D02*
X56501551Y-32893486D01*
X56501551Y-32893486D02*
X55499486Y-31891421D01*
X54356000Y-33034906D02*
X53353935Y-34036971D01*
X53353935Y-34036971D02*
X54356000Y-35039036D01*
X54356000Y-35039036D02*
X55358065Y-34036971D01*
X55358065Y-34036971D02*
X54356000Y-33034906D01*
G36*
G01*
X56668800Y-15173200D02*
X56668800Y-13173200D01*
G75*
G02*
X56918800Y-12923200I250000J0D01*
G01*
X60818800Y-12923200D01*
G75*
G02*
X61068800Y-13173200I0J-250000D01*
G01*
X61068800Y-15173200D01*
G75*
G02*
X60818800Y-15423200I-250000J0D01*
G01*
X56918800Y-15423200D01*
G75*
G02*
X56668800Y-15173200I0J250000D01*
G01*
G37*
G36*
G01*
X49268800Y-15173200D02*
X49268800Y-13173200D01*
G75*
G02*
X49518800Y-12923200I250000J0D01*
G01*
X53418800Y-12923200D01*
G75*
G02*
X53668800Y-13173200I0J-250000D01*
G01*
X53668800Y-15173200D01*
G75*
G02*
X53418800Y-15423200I-250000J0D01*
G01*
X49518800Y-15423200D01*
G75*
G02*
X49268800Y-15173200I0J250000D01*
G01*
G37*
G36*
G01*
X16856912Y-71087480D02*
X16511912Y-71087480D01*
G75*
G02*
X16364412Y-70939980I0J147500D01*
G01*
X16364412Y-70644980D01*
G75*
G02*
X16511912Y-70497480I147500J0D01*
G01*
X16856912Y-70497480D01*
G75*
G02*
X17004412Y-70644980I0J-147500D01*
G01*
X17004412Y-70939980D01*
G75*
G02*
X16856912Y-71087480I-147500J0D01*
G01*
G37*
G36*
G01*
X16856912Y-72057480D02*
X16511912Y-72057480D01*
G75*
G02*
X16364412Y-71909980I0J147500D01*
G01*
X16364412Y-71614980D01*
G75*
G02*
X16511912Y-71467480I147500J0D01*
G01*
X16856912Y-71467480D01*
G75*
G02*
X17004412Y-71614980I0J-147500D01*
G01*
X17004412Y-71909980D01*
G75*
G02*
X16856912Y-72057480I-147500J0D01*
G01*
G37*
D11*
X49195720Y-86883240D03*
X52495720Y-86883240D03*
G36*
G01*
X54203820Y-86753200D02*
X54548820Y-86753200D01*
G75*
G02*
X54696320Y-86900700I0J-147500D01*
G01*
X54696320Y-87195700D01*
G75*
G02*
X54548820Y-87343200I-147500J0D01*
G01*
X54203820Y-87343200D01*
G75*
G02*
X54056320Y-87195700I0J147500D01*
G01*
X54056320Y-86900700D01*
G75*
G02*
X54203820Y-86753200I147500J0D01*
G01*
G37*
G36*
G01*
X54203820Y-85783200D02*
X54548820Y-85783200D01*
G75*
G02*
X54696320Y-85930700I0J-147500D01*
G01*
X54696320Y-86225700D01*
G75*
G02*
X54548820Y-86373200I-147500J0D01*
G01*
X54203820Y-86373200D01*
G75*
G02*
X54056320Y-86225700I0J147500D01*
G01*
X54056320Y-85930700D01*
G75*
G02*
X54203820Y-85783200I147500J0D01*
G01*
G37*
G36*
G01*
X50759580Y-91243920D02*
X51104580Y-91243920D01*
G75*
G02*
X51252080Y-91391420I0J-147500D01*
G01*
X51252080Y-91686420D01*
G75*
G02*
X51104580Y-91833920I-147500J0D01*
G01*
X50759580Y-91833920D01*
G75*
G02*
X50612080Y-91686420I0J147500D01*
G01*
X50612080Y-91391420D01*
G75*
G02*
X50759580Y-91243920I147500J0D01*
G01*
G37*
G36*
G01*
X50759580Y-90273920D02*
X51104580Y-90273920D01*
G75*
G02*
X51252080Y-90421420I0J-147500D01*
G01*
X51252080Y-90716420D01*
G75*
G02*
X51104580Y-90863920I-147500J0D01*
G01*
X50759580Y-90863920D01*
G75*
G02*
X50612080Y-90716420I0J147500D01*
G01*
X50612080Y-90421420D01*
G75*
G02*
X50759580Y-90273920I147500J0D01*
G01*
G37*
G36*
G01*
X47096060Y-87683050D02*
X47096060Y-87170550D01*
G75*
G02*
X47314810Y-86951800I218750J0D01*
G01*
X47752310Y-86951800D01*
G75*
G02*
X47971060Y-87170550I0J-218750D01*
G01*
X47971060Y-87683050D01*
G75*
G02*
X47752310Y-87901800I-218750J0D01*
G01*
X47314810Y-87901800D01*
G75*
G02*
X47096060Y-87683050I0J218750D01*
G01*
G37*
G36*
G01*
X45521060Y-87683050D02*
X45521060Y-87170550D01*
G75*
G02*
X45739810Y-86951800I218750J0D01*
G01*
X46177310Y-86951800D01*
G75*
G02*
X46396060Y-87170550I0J-218750D01*
G01*
X46396060Y-87683050D01*
G75*
G02*
X46177310Y-87901800I-218750J0D01*
G01*
X45739810Y-87901800D01*
G75*
G02*
X45521060Y-87683050I0J218750D01*
G01*
G37*
G36*
G01*
X57098980Y-92621600D02*
X56753980Y-92621600D01*
G75*
G02*
X56606480Y-92474100I0J147500D01*
G01*
X56606480Y-92179100D01*
G75*
G02*
X56753980Y-92031600I147500J0D01*
G01*
X57098980Y-92031600D01*
G75*
G02*
X57246480Y-92179100I0J-147500D01*
G01*
X57246480Y-92474100D01*
G75*
G02*
X57098980Y-92621600I-147500J0D01*
G01*
G37*
G36*
G01*
X57098980Y-93591600D02*
X56753980Y-93591600D01*
G75*
G02*
X56606480Y-93444100I0J147500D01*
G01*
X56606480Y-93149100D01*
G75*
G02*
X56753980Y-93001600I147500J0D01*
G01*
X57098980Y-93001600D01*
G75*
G02*
X57246480Y-93149100I0J-147500D01*
G01*
X57246480Y-93444100D01*
G75*
G02*
X57098980Y-93591600I-147500J0D01*
G01*
G37*
G36*
G01*
X56748900Y-90949280D02*
X57093900Y-90949280D01*
G75*
G02*
X57241400Y-91096780I0J-147500D01*
G01*
X57241400Y-91391780D01*
G75*
G02*
X57093900Y-91539280I-147500J0D01*
G01*
X56748900Y-91539280D01*
G75*
G02*
X56601400Y-91391780I0J147500D01*
G01*
X56601400Y-91096780D01*
G75*
G02*
X56748900Y-90949280I147500J0D01*
G01*
G37*
G36*
G01*
X56748900Y-89979280D02*
X57093900Y-89979280D01*
G75*
G02*
X57241400Y-90126780I0J-147500D01*
G01*
X57241400Y-90421780D01*
G75*
G02*
X57093900Y-90569280I-147500J0D01*
G01*
X56748900Y-90569280D01*
G75*
G02*
X56601400Y-90421780I0J147500D01*
G01*
X56601400Y-90126780D01*
G75*
G02*
X56748900Y-89979280I147500J0D01*
G01*
G37*
D12*
X52633840Y-89027640D03*
X53583840Y-89027640D03*
X54533840Y-89027640D03*
X54533840Y-91647640D03*
X53583840Y-91647640D03*
X52633840Y-91647640D03*
G36*
G01*
X47063360Y-88912120D02*
X47063360Y-91062120D01*
G75*
G02*
X46813360Y-91312120I-250000J0D01*
G01*
X46063360Y-91312120D01*
G75*
G02*
X45813360Y-91062120I0J250000D01*
G01*
X45813360Y-88912120D01*
G75*
G02*
X46063360Y-88662120I250000J0D01*
G01*
X46813360Y-88662120D01*
G75*
G02*
X47063360Y-88912120I0J-250000D01*
G01*
G37*
G36*
G01*
X49863360Y-88912120D02*
X49863360Y-91062120D01*
G75*
G02*
X49613360Y-91312120I-250000J0D01*
G01*
X48863360Y-91312120D01*
G75*
G02*
X48613360Y-91062120I0J250000D01*
G01*
X48613360Y-88912120D01*
G75*
G02*
X48863360Y-88662120I250000J0D01*
G01*
X49613360Y-88662120D01*
G75*
G02*
X49863360Y-88912120I0J-250000D01*
G01*
G37*
G36*
G01*
X55798940Y-87820000D02*
X56143940Y-87820000D01*
G75*
G02*
X56291440Y-87967500I0J-147500D01*
G01*
X56291440Y-88262500D01*
G75*
G02*
X56143940Y-88410000I-147500J0D01*
G01*
X55798940Y-88410000D01*
G75*
G02*
X55651440Y-88262500I0J147500D01*
G01*
X55651440Y-87967500D01*
G75*
G02*
X55798940Y-87820000I147500J0D01*
G01*
G37*
G36*
G01*
X55798940Y-86850000D02*
X56143940Y-86850000D01*
G75*
G02*
X56291440Y-86997500I0J-147500D01*
G01*
X56291440Y-87292500D01*
G75*
G02*
X56143940Y-87440000I-147500J0D01*
G01*
X55798940Y-87440000D01*
G75*
G02*
X55651440Y-87292500I0J147500D01*
G01*
X55651440Y-86997500D01*
G75*
G02*
X55798940Y-86850000I147500J0D01*
G01*
G37*
G36*
G01*
X53211600Y-57216800D02*
X53211600Y-59216800D01*
G75*
G02*
X52961600Y-59466800I-250000J0D01*
G01*
X49061600Y-59466800D01*
G75*
G02*
X48811600Y-59216800I0J250000D01*
G01*
X48811600Y-57216800D01*
G75*
G02*
X49061600Y-56966800I250000J0D01*
G01*
X52961600Y-56966800D01*
G75*
G02*
X53211600Y-57216800I0J-250000D01*
G01*
G37*
G36*
G01*
X60611600Y-57216800D02*
X60611600Y-59216800D01*
G75*
G02*
X60361600Y-59466800I-250000J0D01*
G01*
X56461600Y-59466800D01*
G75*
G02*
X56211600Y-59216800I0J250000D01*
G01*
X56211600Y-57216800D01*
G75*
G02*
X56461600Y-56966800I250000J0D01*
G01*
X60361600Y-56966800D01*
G75*
G02*
X60611600Y-57216800I0J-250000D01*
G01*
G37*
G36*
G01*
X22363560Y-23138640D02*
X22363560Y-21138640D01*
G75*
G02*
X22613560Y-20888640I250000J0D01*
G01*
X26513560Y-20888640D01*
G75*
G02*
X26763560Y-21138640I0J-250000D01*
G01*
X26763560Y-23138640D01*
G75*
G02*
X26513560Y-23388640I-250000J0D01*
G01*
X22613560Y-23388640D01*
G75*
G02*
X22363560Y-23138640I0J250000D01*
G01*
G37*
G36*
G01*
X14963560Y-23138640D02*
X14963560Y-21138640D01*
G75*
G02*
X15213560Y-20888640I250000J0D01*
G01*
X19113560Y-20888640D01*
G75*
G02*
X19363560Y-21138640I0J-250000D01*
G01*
X19363560Y-23138640D01*
G75*
G02*
X19113560Y-23388640I-250000J0D01*
G01*
X15213560Y-23388640D01*
G75*
G02*
X14963560Y-23138640I0J250000D01*
G01*
G37*
G36*
G01*
X18573000Y-84981070D02*
X18573000Y-85493570D01*
G75*
G02*
X18354250Y-85712320I-218750J0D01*
G01*
X17916750Y-85712320D01*
G75*
G02*
X17698000Y-85493570I0J218750D01*
G01*
X17698000Y-84981070D01*
G75*
G02*
X17916750Y-84762320I218750J0D01*
G01*
X18354250Y-84762320D01*
G75*
G02*
X18573000Y-84981070I0J-218750D01*
G01*
G37*
G36*
G01*
X20148000Y-84981070D02*
X20148000Y-85493570D01*
G75*
G02*
X19929250Y-85712320I-218750J0D01*
G01*
X19491750Y-85712320D01*
G75*
G02*
X19273000Y-85493570I0J218750D01*
G01*
X19273000Y-84981070D01*
G75*
G02*
X19491750Y-84762320I218750J0D01*
G01*
X19929250Y-84762320D01*
G75*
G02*
X20148000Y-84981070I0J-218750D01*
G01*
G37*
G36*
G01*
X53334400Y-39372250D02*
X53334400Y-38859750D01*
G75*
G02*
X53553150Y-38641000I218750J0D01*
G01*
X53990650Y-38641000D01*
G75*
G02*
X54209400Y-38859750I0J-218750D01*
G01*
X54209400Y-39372250D01*
G75*
G02*
X53990650Y-39591000I-218750J0D01*
G01*
X53553150Y-39591000D01*
G75*
G02*
X53334400Y-39372250I0J218750D01*
G01*
G37*
G36*
G01*
X51759400Y-39372250D02*
X51759400Y-38859750D01*
G75*
G02*
X51978150Y-38641000I218750J0D01*
G01*
X52415650Y-38641000D01*
G75*
G02*
X52634400Y-38859750I0J-218750D01*
G01*
X52634400Y-39372250D01*
G75*
G02*
X52415650Y-39591000I-218750J0D01*
G01*
X51978150Y-39591000D01*
G75*
G02*
X51759400Y-39372250I0J218750D01*
G01*
G37*
D13*
X17138800Y-87645200D03*
X19538800Y-87645200D03*
X19538800Y-89545200D03*
X17138800Y-89545200D03*
G36*
G01*
X58259680Y-48483360D02*
X58259680Y-49733360D01*
G75*
G02*
X58009680Y-49983360I-250000J0D01*
G01*
X57259680Y-49983360D01*
G75*
G02*
X57009680Y-49733360I0J250000D01*
G01*
X57009680Y-48483360D01*
G75*
G02*
X57259680Y-48233360I250000J0D01*
G01*
X58009680Y-48233360D01*
G75*
G02*
X58259680Y-48483360I0J-250000D01*
G01*
G37*
G36*
G01*
X61059680Y-48483360D02*
X61059680Y-49733360D01*
G75*
G02*
X60809680Y-49983360I-250000J0D01*
G01*
X60059680Y-49983360D01*
G75*
G02*
X59809680Y-49733360I0J250000D01*
G01*
X59809680Y-48483360D01*
G75*
G02*
X60059680Y-48233360I250000J0D01*
G01*
X60809680Y-48233360D01*
G75*
G02*
X61059680Y-48483360I0J-250000D01*
G01*
G37*
G36*
G01*
X50954640Y-40548400D02*
X50954640Y-41798400D01*
G75*
G02*
X50704640Y-42048400I-250000J0D01*
G01*
X49954640Y-42048400D01*
G75*
G02*
X49704640Y-41798400I0J250000D01*
G01*
X49704640Y-40548400D01*
G75*
G02*
X49954640Y-40298400I250000J0D01*
G01*
X50704640Y-40298400D01*
G75*
G02*
X50954640Y-40548400I0J-250000D01*
G01*
G37*
G36*
G01*
X53754640Y-40548400D02*
X53754640Y-41798400D01*
G75*
G02*
X53504640Y-42048400I-250000J0D01*
G01*
X52754640Y-42048400D01*
G75*
G02*
X52504640Y-41798400I0J250000D01*
G01*
X52504640Y-40548400D01*
G75*
G02*
X52754640Y-40298400I250000J0D01*
G01*
X53504640Y-40298400D01*
G75*
G02*
X53754640Y-40548400I0J-250000D01*
G01*
G37*
G36*
G01*
X61722160Y-27149760D02*
X60472160Y-27149760D01*
G75*
G02*
X60222160Y-26899760I0J250000D01*
G01*
X60222160Y-26149760D01*
G75*
G02*
X60472160Y-25899760I250000J0D01*
G01*
X61722160Y-25899760D01*
G75*
G02*
X61972160Y-26149760I0J-250000D01*
G01*
X61972160Y-26899760D01*
G75*
G02*
X61722160Y-27149760I-250000J0D01*
G01*
G37*
G36*
G01*
X61722160Y-29949760D02*
X60472160Y-29949760D01*
G75*
G02*
X60222160Y-29699760I0J250000D01*
G01*
X60222160Y-28949760D01*
G75*
G02*
X60472160Y-28699760I250000J0D01*
G01*
X61722160Y-28699760D01*
G75*
G02*
X61972160Y-28949760I0J-250000D01*
G01*
X61972160Y-29699760D01*
G75*
G02*
X61722160Y-29949760I-250000J0D01*
G01*
G37*
G36*
G01*
X60492480Y-33515600D02*
X61742480Y-33515600D01*
G75*
G02*
X61992480Y-33765600I0J-250000D01*
G01*
X61992480Y-34515600D01*
G75*
G02*
X61742480Y-34765600I-250000J0D01*
G01*
X60492480Y-34765600D01*
G75*
G02*
X60242480Y-34515600I0J250000D01*
G01*
X60242480Y-33765600D01*
G75*
G02*
X60492480Y-33515600I250000J0D01*
G01*
G37*
G36*
G01*
X60492480Y-30715600D02*
X61742480Y-30715600D01*
G75*
G02*
X61992480Y-30965600I0J-250000D01*
G01*
X61992480Y-31715600D01*
G75*
G02*
X61742480Y-31965600I-250000J0D01*
G01*
X60492480Y-31965600D01*
G75*
G02*
X60242480Y-31715600I0J250000D01*
G01*
X60242480Y-30965600D01*
G75*
G02*
X60492480Y-30715600I250000J0D01*
G01*
G37*
G36*
G01*
X60441680Y-23589280D02*
X61691680Y-23589280D01*
G75*
G02*
X61941680Y-23839280I0J-250000D01*
G01*
X61941680Y-24589280D01*
G75*
G02*
X61691680Y-24839280I-250000J0D01*
G01*
X60441680Y-24839280D01*
G75*
G02*
X60191680Y-24589280I0J250000D01*
G01*
X60191680Y-23839280D01*
G75*
G02*
X60441680Y-23589280I250000J0D01*
G01*
G37*
G36*
G01*
X60441680Y-20789280D02*
X61691680Y-20789280D01*
G75*
G02*
X61941680Y-21039280I0J-250000D01*
G01*
X61941680Y-21789280D01*
G75*
G02*
X61691680Y-22039280I-250000J0D01*
G01*
X60441680Y-22039280D01*
G75*
G02*
X60191680Y-21789280I0J250000D01*
G01*
X60191680Y-21039280D01*
G75*
G02*
X60441680Y-20789280I250000J0D01*
G01*
G37*
G36*
G01*
X61701840Y-17330120D02*
X60451840Y-17330120D01*
G75*
G02*
X60201840Y-17080120I0J250000D01*
G01*
X60201840Y-16330120D01*
G75*
G02*
X60451840Y-16080120I250000J0D01*
G01*
X61701840Y-16080120D01*
G75*
G02*
X61951840Y-16330120I0J-250000D01*
G01*
X61951840Y-17080120D01*
G75*
G02*
X61701840Y-17330120I-250000J0D01*
G01*
G37*
G36*
G01*
X61701840Y-20130120D02*
X60451840Y-20130120D01*
G75*
G02*
X60201840Y-19880120I0J250000D01*
G01*
X60201840Y-19130120D01*
G75*
G02*
X60451840Y-18880120I250000J0D01*
G01*
X61701840Y-18880120D01*
G75*
G02*
X61951840Y-19130120I0J-250000D01*
G01*
X61951840Y-19880120D01*
G75*
G02*
X61701840Y-20130120I-250000J0D01*
G01*
G37*
G36*
G01*
X38543520Y-72612640D02*
X38543520Y-72412640D01*
G75*
G02*
X38643520Y-72312640I100000J0D01*
G01*
X39918520Y-72312640D01*
G75*
G02*
X40018520Y-72412640I0J-100000D01*
G01*
X40018520Y-72612640D01*
G75*
G02*
X39918520Y-72712640I-100000J0D01*
G01*
X38643520Y-72712640D01*
G75*
G02*
X38543520Y-72612640I0J100000D01*
G01*
G37*
G36*
G01*
X38543520Y-73262640D02*
X38543520Y-73062640D01*
G75*
G02*
X38643520Y-72962640I100000J0D01*
G01*
X39918520Y-72962640D01*
G75*
G02*
X40018520Y-73062640I0J-100000D01*
G01*
X40018520Y-73262640D01*
G75*
G02*
X39918520Y-73362640I-100000J0D01*
G01*
X38643520Y-73362640D01*
G75*
G02*
X38543520Y-73262640I0J100000D01*
G01*
G37*
G36*
G01*
X38543520Y-73912640D02*
X38543520Y-73712640D01*
G75*
G02*
X38643520Y-73612640I100000J0D01*
G01*
X39918520Y-73612640D01*
G75*
G02*
X40018520Y-73712640I0J-100000D01*
G01*
X40018520Y-73912640D01*
G75*
G02*
X39918520Y-74012640I-100000J0D01*
G01*
X38643520Y-74012640D01*
G75*
G02*
X38543520Y-73912640I0J100000D01*
G01*
G37*
G36*
G01*
X38543520Y-74562640D02*
X38543520Y-74362640D01*
G75*
G02*
X38643520Y-74262640I100000J0D01*
G01*
X39918520Y-74262640D01*
G75*
G02*
X40018520Y-74362640I0J-100000D01*
G01*
X40018520Y-74562640D01*
G75*
G02*
X39918520Y-74662640I-100000J0D01*
G01*
X38643520Y-74662640D01*
G75*
G02*
X38543520Y-74562640I0J100000D01*
G01*
G37*
G36*
G01*
X38543520Y-75212640D02*
X38543520Y-75012640D01*
G75*
G02*
X38643520Y-74912640I100000J0D01*
G01*
X39918520Y-74912640D01*
G75*
G02*
X40018520Y-75012640I0J-100000D01*
G01*
X40018520Y-75212640D01*
G75*
G02*
X39918520Y-75312640I-100000J0D01*
G01*
X38643520Y-75312640D01*
G75*
G02*
X38543520Y-75212640I0J100000D01*
G01*
G37*
G36*
G01*
X38543520Y-75862640D02*
X38543520Y-75662640D01*
G75*
G02*
X38643520Y-75562640I100000J0D01*
G01*
X39918520Y-75562640D01*
G75*
G02*
X40018520Y-75662640I0J-100000D01*
G01*
X40018520Y-75862640D01*
G75*
G02*
X39918520Y-75962640I-100000J0D01*
G01*
X38643520Y-75962640D01*
G75*
G02*
X38543520Y-75862640I0J100000D01*
G01*
G37*
G36*
G01*
X38543520Y-76512640D02*
X38543520Y-76312640D01*
G75*
G02*
X38643520Y-76212640I100000J0D01*
G01*
X39918520Y-76212640D01*
G75*
G02*
X40018520Y-76312640I0J-100000D01*
G01*
X40018520Y-76512640D01*
G75*
G02*
X39918520Y-76612640I-100000J0D01*
G01*
X38643520Y-76612640D01*
G75*
G02*
X38543520Y-76512640I0J100000D01*
G01*
G37*
G36*
G01*
X32818520Y-76512640D02*
X32818520Y-76312640D01*
G75*
G02*
X32918520Y-76212640I100000J0D01*
G01*
X34193520Y-76212640D01*
G75*
G02*
X34293520Y-76312640I0J-100000D01*
G01*
X34293520Y-76512640D01*
G75*
G02*
X34193520Y-76612640I-100000J0D01*
G01*
X32918520Y-76612640D01*
G75*
G02*
X32818520Y-76512640I0J100000D01*
G01*
G37*
G36*
G01*
X32818520Y-75862640D02*
X32818520Y-75662640D01*
G75*
G02*
X32918520Y-75562640I100000J0D01*
G01*
X34193520Y-75562640D01*
G75*
G02*
X34293520Y-75662640I0J-100000D01*
G01*
X34293520Y-75862640D01*
G75*
G02*
X34193520Y-75962640I-100000J0D01*
G01*
X32918520Y-75962640D01*
G75*
G02*
X32818520Y-75862640I0J100000D01*
G01*
G37*
G36*
G01*
X32818520Y-75212640D02*
X32818520Y-75012640D01*
G75*
G02*
X32918520Y-74912640I100000J0D01*
G01*
X34193520Y-74912640D01*
G75*
G02*
X34293520Y-75012640I0J-100000D01*
G01*
X34293520Y-75212640D01*
G75*
G02*
X34193520Y-75312640I-100000J0D01*
G01*
X32918520Y-75312640D01*
G75*
G02*
X32818520Y-75212640I0J100000D01*
G01*
G37*
G36*
G01*
X32818520Y-74562640D02*
X32818520Y-74362640D01*
G75*
G02*
X32918520Y-74262640I100000J0D01*
G01*
X34193520Y-74262640D01*
G75*
G02*
X34293520Y-74362640I0J-100000D01*
G01*
X34293520Y-74562640D01*
G75*
G02*
X34193520Y-74662640I-100000J0D01*
G01*
X32918520Y-74662640D01*
G75*
G02*
X32818520Y-74562640I0J100000D01*
G01*
G37*
G36*
G01*
X32818520Y-73912640D02*
X32818520Y-73712640D01*
G75*
G02*
X32918520Y-73612640I100000J0D01*
G01*
X34193520Y-73612640D01*
G75*
G02*
X34293520Y-73712640I0J-100000D01*
G01*
X34293520Y-73912640D01*
G75*
G02*
X34193520Y-74012640I-100000J0D01*
G01*
X32918520Y-74012640D01*
G75*
G02*
X32818520Y-73912640I0J100000D01*
G01*
G37*
G36*
G01*
X32818520Y-73262640D02*
X32818520Y-73062640D01*
G75*
G02*
X32918520Y-72962640I100000J0D01*
G01*
X34193520Y-72962640D01*
G75*
G02*
X34293520Y-73062640I0J-100000D01*
G01*
X34293520Y-73262640D01*
G75*
G02*
X34193520Y-73362640I-100000J0D01*
G01*
X32918520Y-73362640D01*
G75*
G02*
X32818520Y-73262640I0J100000D01*
G01*
G37*
G36*
G01*
X32818520Y-72612640D02*
X32818520Y-72412640D01*
G75*
G02*
X32918520Y-72312640I100000J0D01*
G01*
X34193520Y-72312640D01*
G75*
G02*
X34293520Y-72412640I0J-100000D01*
G01*
X34293520Y-72612640D01*
G75*
G02*
X34193520Y-72712640I-100000J0D01*
G01*
X32918520Y-72712640D01*
G75*
G02*
X32818520Y-72612640I0J100000D01*
G01*
G37*
G36*
G01*
X29764670Y-88664200D02*
X30677170Y-88664200D01*
G75*
G02*
X30920920Y-88907950I0J-243750D01*
G01*
X30920920Y-89395450D01*
G75*
G02*
X30677170Y-89639200I-243750J0D01*
G01*
X29764670Y-89639200D01*
G75*
G02*
X29520920Y-89395450I0J243750D01*
G01*
X29520920Y-88907950D01*
G75*
G02*
X29764670Y-88664200I243750J0D01*
G01*
G37*
G36*
G01*
X29764670Y-86789200D02*
X30677170Y-86789200D01*
G75*
G02*
X30920920Y-87032950I0J-243750D01*
G01*
X30920920Y-87520450D01*
G75*
G02*
X30677170Y-87764200I-243750J0D01*
G01*
X29764670Y-87764200D01*
G75*
G02*
X29520920Y-87520450I0J243750D01*
G01*
X29520920Y-87032950D01*
G75*
G02*
X29764670Y-86789200I243750J0D01*
G01*
G37*
G36*
G01*
X20383080Y-29612270D02*
X20383080Y-30524770D01*
G75*
G02*
X20139330Y-30768520I-243750J0D01*
G01*
X19651830Y-30768520D01*
G75*
G02*
X19408080Y-30524770I0J243750D01*
G01*
X19408080Y-29612270D01*
G75*
G02*
X19651830Y-29368520I243750J0D01*
G01*
X20139330Y-29368520D01*
G75*
G02*
X20383080Y-29612270I0J-243750D01*
G01*
G37*
G36*
G01*
X22258080Y-29612270D02*
X22258080Y-30524770D01*
G75*
G02*
X22014330Y-30768520I-243750J0D01*
G01*
X21526830Y-30768520D01*
G75*
G02*
X21283080Y-30524770I0J243750D01*
G01*
X21283080Y-29612270D01*
G75*
G02*
X21526830Y-29368520I243750J0D01*
G01*
X22014330Y-29368520D01*
G75*
G02*
X22258080Y-29612270I0J-243750D01*
G01*
G37*
G36*
G01*
X28496500Y-46095099D02*
X28496500Y-46945101D01*
G75*
G02*
X28246501Y-47195100I-249999J0D01*
G01*
X27346499Y-47195100D01*
G75*
G02*
X27096500Y-46945101I0J249999D01*
G01*
X27096500Y-46095099D01*
G75*
G02*
X27346499Y-45845100I249999J0D01*
G01*
X28246501Y-45845100D01*
G75*
G02*
X28496500Y-46095099I0J-249999D01*
G01*
G37*
G36*
G01*
X31196500Y-46095099D02*
X31196500Y-46945101D01*
G75*
G02*
X30946501Y-47195100I-249999J0D01*
G01*
X30046499Y-47195100D01*
G75*
G02*
X29796500Y-46945101I0J249999D01*
G01*
X29796500Y-46095099D01*
G75*
G02*
X30046499Y-45845100I249999J0D01*
G01*
X30946501Y-45845100D01*
G75*
G02*
X31196500Y-46095099I0J-249999D01*
G01*
G37*
G36*
G01*
X58185800Y-71414350D02*
X58185800Y-70901850D01*
G75*
G02*
X58404550Y-70683100I218750J0D01*
G01*
X58842050Y-70683100D01*
G75*
G02*
X59060800Y-70901850I0J-218750D01*
G01*
X59060800Y-71414350D01*
G75*
G02*
X58842050Y-71633100I-218750J0D01*
G01*
X58404550Y-71633100D01*
G75*
G02*
X58185800Y-71414350I0J218750D01*
G01*
G37*
G36*
G01*
X56610800Y-71414350D02*
X56610800Y-70901850D01*
G75*
G02*
X56829550Y-70683100I218750J0D01*
G01*
X57267050Y-70683100D01*
G75*
G02*
X57485800Y-70901850I0J-218750D01*
G01*
X57485800Y-71414350D01*
G75*
G02*
X57267050Y-71633100I-218750J0D01*
G01*
X56829550Y-71633100D01*
G75*
G02*
X56610800Y-71414350I0J218750D01*
G01*
G37*
G36*
G01*
X18260000Y-74736999D02*
X18260000Y-75287001D01*
G75*
G02*
X18010001Y-75537000I-249999J0D01*
G01*
X17459999Y-75537000D01*
G75*
G02*
X17210000Y-75287001I0J249999D01*
G01*
X17210000Y-74736999D01*
G75*
G02*
X17459999Y-74487000I249999J0D01*
G01*
X18010001Y-74487000D01*
G75*
G02*
X18260000Y-74736999I0J-249999D01*
G01*
G37*
G36*
G01*
X18260000Y-76036999D02*
X18260000Y-76587001D01*
G75*
G02*
X18010001Y-76837000I-249999J0D01*
G01*
X17459999Y-76837000D01*
G75*
G02*
X17210000Y-76587001I0J249999D01*
G01*
X17210000Y-76036999D01*
G75*
G02*
X17459999Y-75787000I249999J0D01*
G01*
X18010001Y-75787000D01*
G75*
G02*
X18260000Y-76036999I0J-249999D01*
G01*
G37*
G36*
G01*
X18260000Y-77336999D02*
X18260000Y-77887001D01*
G75*
G02*
X18010001Y-78137000I-249999J0D01*
G01*
X17459999Y-78137000D01*
G75*
G02*
X17210000Y-77887001I0J249999D01*
G01*
X17210000Y-77336999D01*
G75*
G02*
X17459999Y-77087000I249999J0D01*
G01*
X18010001Y-77087000D01*
G75*
G02*
X18260000Y-77336999I0J-249999D01*
G01*
G37*
G36*
G01*
X18260000Y-78636999D02*
X18260000Y-79187001D01*
G75*
G02*
X18010001Y-79437000I-249999J0D01*
G01*
X17459999Y-79437000D01*
G75*
G02*
X17210000Y-79187001I0J249999D01*
G01*
X17210000Y-78636999D01*
G75*
G02*
X17459999Y-78387000I249999J0D01*
G01*
X18010001Y-78387000D01*
G75*
G02*
X18260000Y-78636999I0J-249999D01*
G01*
G37*
G36*
G01*
X19560000Y-74736999D02*
X19560000Y-75287001D01*
G75*
G02*
X19310001Y-75537000I-249999J0D01*
G01*
X18759999Y-75537000D01*
G75*
G02*
X18510000Y-75287001I0J249999D01*
G01*
X18510000Y-74736999D01*
G75*
G02*
X18759999Y-74487000I249999J0D01*
G01*
X19310001Y-74487000D01*
G75*
G02*
X19560000Y-74736999I0J-249999D01*
G01*
G37*
G36*
G01*
X19560000Y-76036999D02*
X19560000Y-76587001D01*
G75*
G02*
X19310001Y-76837000I-249999J0D01*
G01*
X18759999Y-76837000D01*
G75*
G02*
X18510000Y-76587001I0J249999D01*
G01*
X18510000Y-76036999D01*
G75*
G02*
X18759999Y-75787000I249999J0D01*
G01*
X19310001Y-75787000D01*
G75*
G02*
X19560000Y-76036999I0J-249999D01*
G01*
G37*
G36*
G01*
X19560000Y-77336999D02*
X19560000Y-77887001D01*
G75*
G02*
X19310001Y-78137000I-249999J0D01*
G01*
X18759999Y-78137000D01*
G75*
G02*
X18510000Y-77887001I0J249999D01*
G01*
X18510000Y-77336999D01*
G75*
G02*
X18759999Y-77087000I249999J0D01*
G01*
X19310001Y-77087000D01*
G75*
G02*
X19560000Y-77336999I0J-249999D01*
G01*
G37*
G36*
G01*
X19560000Y-78636999D02*
X19560000Y-79187001D01*
G75*
G02*
X19310001Y-79437000I-249999J0D01*
G01*
X18759999Y-79437000D01*
G75*
G02*
X18510000Y-79187001I0J249999D01*
G01*
X18510000Y-78636999D01*
G75*
G02*
X18759999Y-78387000I249999J0D01*
G01*
X19310001Y-78387000D01*
G75*
G02*
X19560000Y-78636999I0J-249999D01*
G01*
G37*
G36*
G01*
X20860000Y-74736999D02*
X20860000Y-75287001D01*
G75*
G02*
X20610001Y-75537000I-249999J0D01*
G01*
X20059999Y-75537000D01*
G75*
G02*
X19810000Y-75287001I0J249999D01*
G01*
X19810000Y-74736999D01*
G75*
G02*
X20059999Y-74487000I249999J0D01*
G01*
X20610001Y-74487000D01*
G75*
G02*
X20860000Y-74736999I0J-249999D01*
G01*
G37*
G36*
G01*
X20860000Y-76036999D02*
X20860000Y-76587001D01*
G75*
G02*
X20610001Y-76837000I-249999J0D01*
G01*
X20059999Y-76837000D01*
G75*
G02*
X19810000Y-76587001I0J249999D01*
G01*
X19810000Y-76036999D01*
G75*
G02*
X20059999Y-75787000I249999J0D01*
G01*
X20610001Y-75787000D01*
G75*
G02*
X20860000Y-76036999I0J-249999D01*
G01*
G37*
G36*
G01*
X20860000Y-77336999D02*
X20860000Y-77887001D01*
G75*
G02*
X20610001Y-78137000I-249999J0D01*
G01*
X20059999Y-78137000D01*
G75*
G02*
X19810000Y-77887001I0J249999D01*
G01*
X19810000Y-77336999D01*
G75*
G02*
X20059999Y-77087000I249999J0D01*
G01*
X20610001Y-77087000D01*
G75*
G02*
X20860000Y-77336999I0J-249999D01*
G01*
G37*
G36*
G01*
X20860000Y-78636999D02*
X20860000Y-79187001D01*
G75*
G02*
X20610001Y-79437000I-249999J0D01*
G01*
X20059999Y-79437000D01*
G75*
G02*
X19810000Y-79187001I0J249999D01*
G01*
X19810000Y-78636999D01*
G75*
G02*
X20059999Y-78387000I249999J0D01*
G01*
X20610001Y-78387000D01*
G75*
G02*
X20860000Y-78636999I0J-249999D01*
G01*
G37*
G36*
G01*
X22160000Y-74736999D02*
X22160000Y-75287001D01*
G75*
G02*
X21910001Y-75537000I-249999J0D01*
G01*
X21359999Y-75537000D01*
G75*
G02*
X21110000Y-75287001I0J249999D01*
G01*
X21110000Y-74736999D01*
G75*
G02*
X21359999Y-74487000I249999J0D01*
G01*
X21910001Y-74487000D01*
G75*
G02*
X22160000Y-74736999I0J-249999D01*
G01*
G37*
G36*
G01*
X22160000Y-76036999D02*
X22160000Y-76587001D01*
G75*
G02*
X21910001Y-76837000I-249999J0D01*
G01*
X21359999Y-76837000D01*
G75*
G02*
X21110000Y-76587001I0J249999D01*
G01*
X21110000Y-76036999D01*
G75*
G02*
X21359999Y-75787000I249999J0D01*
G01*
X21910001Y-75787000D01*
G75*
G02*
X22160000Y-76036999I0J-249999D01*
G01*
G37*
G36*
G01*
X22160000Y-77336999D02*
X22160000Y-77887001D01*
G75*
G02*
X21910001Y-78137000I-249999J0D01*
G01*
X21359999Y-78137000D01*
G75*
G02*
X21110000Y-77887001I0J249999D01*
G01*
X21110000Y-77336999D01*
G75*
G02*
X21359999Y-77087000I249999J0D01*
G01*
X21910001Y-77087000D01*
G75*
G02*
X22160000Y-77336999I0J-249999D01*
G01*
G37*
G36*
G01*
X22160000Y-78636999D02*
X22160000Y-79187001D01*
G75*
G02*
X21910001Y-79437000I-249999J0D01*
G01*
X21359999Y-79437000D01*
G75*
G02*
X21110000Y-79187001I0J249999D01*
G01*
X21110000Y-78636999D01*
G75*
G02*
X21359999Y-78387000I249999J0D01*
G01*
X21910001Y-78387000D01*
G75*
G02*
X22160000Y-78636999I0J-249999D01*
G01*
G37*
G36*
G01*
X22585000Y-80099500D02*
X22585000Y-80824500D01*
G75*
G02*
X22535000Y-80874500I-50000J0D01*
G01*
X22435000Y-80874500D01*
G75*
G02*
X22385000Y-80824500I0J50000D01*
G01*
X22385000Y-80099500D01*
G75*
G02*
X22435000Y-80049500I50000J0D01*
G01*
X22535000Y-80049500D01*
G75*
G02*
X22585000Y-80099500I0J-50000D01*
G01*
G37*
G36*
G01*
X22185000Y-80099500D02*
X22185000Y-80824500D01*
G75*
G02*
X22135000Y-80874500I-50000J0D01*
G01*
X22035000Y-80874500D01*
G75*
G02*
X21985000Y-80824500I0J50000D01*
G01*
X21985000Y-80099500D01*
G75*
G02*
X22035000Y-80049500I50000J0D01*
G01*
X22135000Y-80049500D01*
G75*
G02*
X22185000Y-80099500I0J-50000D01*
G01*
G37*
G36*
G01*
X21785000Y-80099500D02*
X21785000Y-80824500D01*
G75*
G02*
X21735000Y-80874500I-50000J0D01*
G01*
X21635000Y-80874500D01*
G75*
G02*
X21585000Y-80824500I0J50000D01*
G01*
X21585000Y-80099500D01*
G75*
G02*
X21635000Y-80049500I50000J0D01*
G01*
X21735000Y-80049500D01*
G75*
G02*
X21785000Y-80099500I0J-50000D01*
G01*
G37*
G36*
G01*
X21385000Y-80099500D02*
X21385000Y-80824500D01*
G75*
G02*
X21335000Y-80874500I-50000J0D01*
G01*
X21235000Y-80874500D01*
G75*
G02*
X21185000Y-80824500I0J50000D01*
G01*
X21185000Y-80099500D01*
G75*
G02*
X21235000Y-80049500I50000J0D01*
G01*
X21335000Y-80049500D01*
G75*
G02*
X21385000Y-80099500I0J-50000D01*
G01*
G37*
G36*
G01*
X20985000Y-80099500D02*
X20985000Y-80824500D01*
G75*
G02*
X20935000Y-80874500I-50000J0D01*
G01*
X20835000Y-80874500D01*
G75*
G02*
X20785000Y-80824500I0J50000D01*
G01*
X20785000Y-80099500D01*
G75*
G02*
X20835000Y-80049500I50000J0D01*
G01*
X20935000Y-80049500D01*
G75*
G02*
X20985000Y-80099500I0J-50000D01*
G01*
G37*
G36*
G01*
X20585000Y-80099500D02*
X20585000Y-80824500D01*
G75*
G02*
X20535000Y-80874500I-50000J0D01*
G01*
X20435000Y-80874500D01*
G75*
G02*
X20385000Y-80824500I0J50000D01*
G01*
X20385000Y-80099500D01*
G75*
G02*
X20435000Y-80049500I50000J0D01*
G01*
X20535000Y-80049500D01*
G75*
G02*
X20585000Y-80099500I0J-50000D01*
G01*
G37*
G36*
G01*
X20185000Y-80099500D02*
X20185000Y-80824500D01*
G75*
G02*
X20135000Y-80874500I-50000J0D01*
G01*
X20035000Y-80874500D01*
G75*
G02*
X19985000Y-80824500I0J50000D01*
G01*
X19985000Y-80099500D01*
G75*
G02*
X20035000Y-80049500I50000J0D01*
G01*
X20135000Y-80049500D01*
G75*
G02*
X20185000Y-80099500I0J-50000D01*
G01*
G37*
G36*
G01*
X19785000Y-80099500D02*
X19785000Y-80824500D01*
G75*
G02*
X19735000Y-80874500I-50000J0D01*
G01*
X19635000Y-80874500D01*
G75*
G02*
X19585000Y-80824500I0J50000D01*
G01*
X19585000Y-80099500D01*
G75*
G02*
X19635000Y-80049500I50000J0D01*
G01*
X19735000Y-80049500D01*
G75*
G02*
X19785000Y-80099500I0J-50000D01*
G01*
G37*
G36*
G01*
X19385000Y-80099500D02*
X19385000Y-80824500D01*
G75*
G02*
X19335000Y-80874500I-50000J0D01*
G01*
X19235000Y-80874500D01*
G75*
G02*
X19185000Y-80824500I0J50000D01*
G01*
X19185000Y-80099500D01*
G75*
G02*
X19235000Y-80049500I50000J0D01*
G01*
X19335000Y-80049500D01*
G75*
G02*
X19385000Y-80099500I0J-50000D01*
G01*
G37*
G36*
G01*
X18835000Y-80049500D02*
X18935000Y-80049500D01*
G75*
G02*
X18985000Y-80099500I0J-50000D01*
G01*
X18985000Y-80824500D01*
G75*
G02*
X18935000Y-80874500I-50000J0D01*
G01*
X18835000Y-80874500D01*
G75*
G02*
X18785000Y-80824500I0J50000D01*
G01*
X18785000Y-80099500D01*
G75*
G02*
X18835000Y-80049500I50000J0D01*
G01*
G37*
G36*
G01*
X18435000Y-80049500D02*
X18535000Y-80049500D01*
G75*
G02*
X18585000Y-80099500I0J-50000D01*
G01*
X18585000Y-80824500D01*
G75*
G02*
X18535000Y-80874500I-50000J0D01*
G01*
X18435000Y-80874500D01*
G75*
G02*
X18385000Y-80824500I0J50000D01*
G01*
X18385000Y-80099500D01*
G75*
G02*
X18435000Y-80049500I50000J0D01*
G01*
G37*
G36*
G01*
X18035000Y-80049500D02*
X18135000Y-80049500D01*
G75*
G02*
X18185000Y-80099500I0J-50000D01*
G01*
X18185000Y-80824500D01*
G75*
G02*
X18135000Y-80874500I-50000J0D01*
G01*
X18035000Y-80874500D01*
G75*
G02*
X17985000Y-80824500I0J50000D01*
G01*
X17985000Y-80099500D01*
G75*
G02*
X18035000Y-80049500I50000J0D01*
G01*
G37*
G36*
G01*
X17635000Y-80049500D02*
X17735000Y-80049500D01*
G75*
G02*
X17785000Y-80099500I0J-50000D01*
G01*
X17785000Y-80824500D01*
G75*
G02*
X17735000Y-80874500I-50000J0D01*
G01*
X17635000Y-80874500D01*
G75*
G02*
X17585000Y-80824500I0J50000D01*
G01*
X17585000Y-80099500D01*
G75*
G02*
X17635000Y-80049500I50000J0D01*
G01*
G37*
G36*
G01*
X17235000Y-80049500D02*
X17335000Y-80049500D01*
G75*
G02*
X17385000Y-80099500I0J-50000D01*
G01*
X17385000Y-80824500D01*
G75*
G02*
X17335000Y-80874500I-50000J0D01*
G01*
X17235000Y-80874500D01*
G75*
G02*
X17185000Y-80824500I0J50000D01*
G01*
X17185000Y-80099500D01*
G75*
G02*
X17235000Y-80049500I50000J0D01*
G01*
G37*
G36*
G01*
X16835000Y-80049500D02*
X16935000Y-80049500D01*
G75*
G02*
X16985000Y-80099500I0J-50000D01*
G01*
X16985000Y-80824500D01*
G75*
G02*
X16935000Y-80874500I-50000J0D01*
G01*
X16835000Y-80874500D01*
G75*
G02*
X16785000Y-80824500I0J50000D01*
G01*
X16785000Y-80099500D01*
G75*
G02*
X16835000Y-80049500I50000J0D01*
G01*
G37*
G36*
G01*
X15772500Y-79812000D02*
X15772500Y-79712000D01*
G75*
G02*
X15822500Y-79662000I50000J0D01*
G01*
X16547500Y-79662000D01*
G75*
G02*
X16597500Y-79712000I0J-50000D01*
G01*
X16597500Y-79812000D01*
G75*
G02*
X16547500Y-79862000I-50000J0D01*
G01*
X15822500Y-79862000D01*
G75*
G02*
X15772500Y-79812000I0J50000D01*
G01*
G37*
G36*
G01*
X16597500Y-79312000D02*
X16597500Y-79412000D01*
G75*
G02*
X16547500Y-79462000I-50000J0D01*
G01*
X15822500Y-79462000D01*
G75*
G02*
X15772500Y-79412000I0J50000D01*
G01*
X15772500Y-79312000D01*
G75*
G02*
X15822500Y-79262000I50000J0D01*
G01*
X16547500Y-79262000D01*
G75*
G02*
X16597500Y-79312000I0J-50000D01*
G01*
G37*
G36*
G01*
X16597500Y-78912000D02*
X16597500Y-79012000D01*
G75*
G02*
X16547500Y-79062000I-50000J0D01*
G01*
X15822500Y-79062000D01*
G75*
G02*
X15772500Y-79012000I0J50000D01*
G01*
X15772500Y-78912000D01*
G75*
G02*
X15822500Y-78862000I50000J0D01*
G01*
X16547500Y-78862000D01*
G75*
G02*
X16597500Y-78912000I0J-50000D01*
G01*
G37*
G36*
G01*
X16597500Y-78512000D02*
X16597500Y-78612000D01*
G75*
G02*
X16547500Y-78662000I-50000J0D01*
G01*
X15822500Y-78662000D01*
G75*
G02*
X15772500Y-78612000I0J50000D01*
G01*
X15772500Y-78512000D01*
G75*
G02*
X15822500Y-78462000I50000J0D01*
G01*
X16547500Y-78462000D01*
G75*
G02*
X16597500Y-78512000I0J-50000D01*
G01*
G37*
G36*
G01*
X16597500Y-78112000D02*
X16597500Y-78212000D01*
G75*
G02*
X16547500Y-78262000I-50000J0D01*
G01*
X15822500Y-78262000D01*
G75*
G02*
X15772500Y-78212000I0J50000D01*
G01*
X15772500Y-78112000D01*
G75*
G02*
X15822500Y-78062000I50000J0D01*
G01*
X16547500Y-78062000D01*
G75*
G02*
X16597500Y-78112000I0J-50000D01*
G01*
G37*
G36*
G01*
X16597500Y-77712000D02*
X16597500Y-77812000D01*
G75*
G02*
X16547500Y-77862000I-50000J0D01*
G01*
X15822500Y-77862000D01*
G75*
G02*
X15772500Y-77812000I0J50000D01*
G01*
X15772500Y-77712000D01*
G75*
G02*
X15822500Y-77662000I50000J0D01*
G01*
X16547500Y-77662000D01*
G75*
G02*
X16597500Y-77712000I0J-50000D01*
G01*
G37*
G36*
G01*
X16597500Y-77312000D02*
X16597500Y-77412000D01*
G75*
G02*
X16547500Y-77462000I-50000J0D01*
G01*
X15822500Y-77462000D01*
G75*
G02*
X15772500Y-77412000I0J50000D01*
G01*
X15772500Y-77312000D01*
G75*
G02*
X15822500Y-77262000I50000J0D01*
G01*
X16547500Y-77262000D01*
G75*
G02*
X16597500Y-77312000I0J-50000D01*
G01*
G37*
G36*
G01*
X16597500Y-76912000D02*
X16597500Y-77012000D01*
G75*
G02*
X16547500Y-77062000I-50000J0D01*
G01*
X15822500Y-77062000D01*
G75*
G02*
X15772500Y-77012000I0J50000D01*
G01*
X15772500Y-76912000D01*
G75*
G02*
X15822500Y-76862000I50000J0D01*
G01*
X16547500Y-76862000D01*
G75*
G02*
X16597500Y-76912000I0J-50000D01*
G01*
G37*
G36*
G01*
X16597500Y-76512000D02*
X16597500Y-76612000D01*
G75*
G02*
X16547500Y-76662000I-50000J0D01*
G01*
X15822500Y-76662000D01*
G75*
G02*
X15772500Y-76612000I0J50000D01*
G01*
X15772500Y-76512000D01*
G75*
G02*
X15822500Y-76462000I50000J0D01*
G01*
X16547500Y-76462000D01*
G75*
G02*
X16597500Y-76512000I0J-50000D01*
G01*
G37*
G36*
G01*
X16597500Y-76112000D02*
X16597500Y-76212000D01*
G75*
G02*
X16547500Y-76262000I-50000J0D01*
G01*
X15822500Y-76262000D01*
G75*
G02*
X15772500Y-76212000I0J50000D01*
G01*
X15772500Y-76112000D01*
G75*
G02*
X15822500Y-76062000I50000J0D01*
G01*
X16547500Y-76062000D01*
G75*
G02*
X16597500Y-76112000I0J-50000D01*
G01*
G37*
G36*
G01*
X16597500Y-75712000D02*
X16597500Y-75812000D01*
G75*
G02*
X16547500Y-75862000I-50000J0D01*
G01*
X15822500Y-75862000D01*
G75*
G02*
X15772500Y-75812000I0J50000D01*
G01*
X15772500Y-75712000D01*
G75*
G02*
X15822500Y-75662000I50000J0D01*
G01*
X16547500Y-75662000D01*
G75*
G02*
X16597500Y-75712000I0J-50000D01*
G01*
G37*
G36*
G01*
X15822500Y-75262000D02*
X16547500Y-75262000D01*
G75*
G02*
X16597500Y-75312000I0J-50000D01*
G01*
X16597500Y-75412000D01*
G75*
G02*
X16547500Y-75462000I-50000J0D01*
G01*
X15822500Y-75462000D01*
G75*
G02*
X15772500Y-75412000I0J50000D01*
G01*
X15772500Y-75312000D01*
G75*
G02*
X15822500Y-75262000I50000J0D01*
G01*
G37*
G36*
G01*
X15822500Y-74862000D02*
X16547500Y-74862000D01*
G75*
G02*
X16597500Y-74912000I0J-50000D01*
G01*
X16597500Y-75012000D01*
G75*
G02*
X16547500Y-75062000I-50000J0D01*
G01*
X15822500Y-75062000D01*
G75*
G02*
X15772500Y-75012000I0J50000D01*
G01*
X15772500Y-74912000D01*
G75*
G02*
X15822500Y-74862000I50000J0D01*
G01*
G37*
G36*
G01*
X15822500Y-74462000D02*
X16547500Y-74462000D01*
G75*
G02*
X16597500Y-74512000I0J-50000D01*
G01*
X16597500Y-74612000D01*
G75*
G02*
X16547500Y-74662000I-50000J0D01*
G01*
X15822500Y-74662000D01*
G75*
G02*
X15772500Y-74612000I0J50000D01*
G01*
X15772500Y-74512000D01*
G75*
G02*
X15822500Y-74462000I50000J0D01*
G01*
G37*
G36*
G01*
X15822500Y-74062000D02*
X16547500Y-74062000D01*
G75*
G02*
X16597500Y-74112000I0J-50000D01*
G01*
X16597500Y-74212000D01*
G75*
G02*
X16547500Y-74262000I-50000J0D01*
G01*
X15822500Y-74262000D01*
G75*
G02*
X15772500Y-74212000I0J50000D01*
G01*
X15772500Y-74112000D01*
G75*
G02*
X15822500Y-74062000I50000J0D01*
G01*
G37*
G36*
G01*
X16985000Y-73099500D02*
X16985000Y-73824500D01*
G75*
G02*
X16935000Y-73874500I-50000J0D01*
G01*
X16835000Y-73874500D01*
G75*
G02*
X16785000Y-73824500I0J50000D01*
G01*
X16785000Y-73099500D01*
G75*
G02*
X16835000Y-73049500I50000J0D01*
G01*
X16935000Y-73049500D01*
G75*
G02*
X16985000Y-73099500I0J-50000D01*
G01*
G37*
G36*
G01*
X17385000Y-73099500D02*
X17385000Y-73824500D01*
G75*
G02*
X17335000Y-73874500I-50000J0D01*
G01*
X17235000Y-73874500D01*
G75*
G02*
X17185000Y-73824500I0J50000D01*
G01*
X17185000Y-73099500D01*
G75*
G02*
X17235000Y-73049500I50000J0D01*
G01*
X17335000Y-73049500D01*
G75*
G02*
X17385000Y-73099500I0J-50000D01*
G01*
G37*
G36*
G01*
X17785000Y-73099500D02*
X17785000Y-73824500D01*
G75*
G02*
X17735000Y-73874500I-50000J0D01*
G01*
X17635000Y-73874500D01*
G75*
G02*
X17585000Y-73824500I0J50000D01*
G01*
X17585000Y-73099500D01*
G75*
G02*
X17635000Y-73049500I50000J0D01*
G01*
X17735000Y-73049500D01*
G75*
G02*
X17785000Y-73099500I0J-50000D01*
G01*
G37*
G36*
G01*
X18185000Y-73099500D02*
X18185000Y-73824500D01*
G75*
G02*
X18135000Y-73874500I-50000J0D01*
G01*
X18035000Y-73874500D01*
G75*
G02*
X17985000Y-73824500I0J50000D01*
G01*
X17985000Y-73099500D01*
G75*
G02*
X18035000Y-73049500I50000J0D01*
G01*
X18135000Y-73049500D01*
G75*
G02*
X18185000Y-73099500I0J-50000D01*
G01*
G37*
G36*
G01*
X18585000Y-73099500D02*
X18585000Y-73824500D01*
G75*
G02*
X18535000Y-73874500I-50000J0D01*
G01*
X18435000Y-73874500D01*
G75*
G02*
X18385000Y-73824500I0J50000D01*
G01*
X18385000Y-73099500D01*
G75*
G02*
X18435000Y-73049500I50000J0D01*
G01*
X18535000Y-73049500D01*
G75*
G02*
X18585000Y-73099500I0J-50000D01*
G01*
G37*
G36*
G01*
X18985000Y-73099500D02*
X18985000Y-73824500D01*
G75*
G02*
X18935000Y-73874500I-50000J0D01*
G01*
X18835000Y-73874500D01*
G75*
G02*
X18785000Y-73824500I0J50000D01*
G01*
X18785000Y-73099500D01*
G75*
G02*
X18835000Y-73049500I50000J0D01*
G01*
X18935000Y-73049500D01*
G75*
G02*
X18985000Y-73099500I0J-50000D01*
G01*
G37*
G36*
G01*
X19385000Y-73099500D02*
X19385000Y-73824500D01*
G75*
G02*
X19335000Y-73874500I-50000J0D01*
G01*
X19235000Y-73874500D01*
G75*
G02*
X19185000Y-73824500I0J50000D01*
G01*
X19185000Y-73099500D01*
G75*
G02*
X19235000Y-73049500I50000J0D01*
G01*
X19335000Y-73049500D01*
G75*
G02*
X19385000Y-73099500I0J-50000D01*
G01*
G37*
G36*
G01*
X19785000Y-73099500D02*
X19785000Y-73824500D01*
G75*
G02*
X19735000Y-73874500I-50000J0D01*
G01*
X19635000Y-73874500D01*
G75*
G02*
X19585000Y-73824500I0J50000D01*
G01*
X19585000Y-73099500D01*
G75*
G02*
X19635000Y-73049500I50000J0D01*
G01*
X19735000Y-73049500D01*
G75*
G02*
X19785000Y-73099500I0J-50000D01*
G01*
G37*
G36*
G01*
X20185000Y-73099500D02*
X20185000Y-73824500D01*
G75*
G02*
X20135000Y-73874500I-50000J0D01*
G01*
X20035000Y-73874500D01*
G75*
G02*
X19985000Y-73824500I0J50000D01*
G01*
X19985000Y-73099500D01*
G75*
G02*
X20035000Y-73049500I50000J0D01*
G01*
X20135000Y-73049500D01*
G75*
G02*
X20185000Y-73099500I0J-50000D01*
G01*
G37*
G36*
G01*
X20585000Y-73099500D02*
X20585000Y-73824500D01*
G75*
G02*
X20535000Y-73874500I-50000J0D01*
G01*
X20435000Y-73874500D01*
G75*
G02*
X20385000Y-73824500I0J50000D01*
G01*
X20385000Y-73099500D01*
G75*
G02*
X20435000Y-73049500I50000J0D01*
G01*
X20535000Y-73049500D01*
G75*
G02*
X20585000Y-73099500I0J-50000D01*
G01*
G37*
G36*
G01*
X20985000Y-73099500D02*
X20985000Y-73824500D01*
G75*
G02*
X20935000Y-73874500I-50000J0D01*
G01*
X20835000Y-73874500D01*
G75*
G02*
X20785000Y-73824500I0J50000D01*
G01*
X20785000Y-73099500D01*
G75*
G02*
X20835000Y-73049500I50000J0D01*
G01*
X20935000Y-73049500D01*
G75*
G02*
X20985000Y-73099500I0J-50000D01*
G01*
G37*
G36*
G01*
X21385000Y-73099500D02*
X21385000Y-73824500D01*
G75*
G02*
X21335000Y-73874500I-50000J0D01*
G01*
X21235000Y-73874500D01*
G75*
G02*
X21185000Y-73824500I0J50000D01*
G01*
X21185000Y-73099500D01*
G75*
G02*
X21235000Y-73049500I50000J0D01*
G01*
X21335000Y-73049500D01*
G75*
G02*
X21385000Y-73099500I0J-50000D01*
G01*
G37*
G36*
G01*
X21785000Y-73099500D02*
X21785000Y-73824500D01*
G75*
G02*
X21735000Y-73874500I-50000J0D01*
G01*
X21635000Y-73874500D01*
G75*
G02*
X21585000Y-73824500I0J50000D01*
G01*
X21585000Y-73099500D01*
G75*
G02*
X21635000Y-73049500I50000J0D01*
G01*
X21735000Y-73049500D01*
G75*
G02*
X21785000Y-73099500I0J-50000D01*
G01*
G37*
G36*
G01*
X22035000Y-73049500D02*
X22135000Y-73049500D01*
G75*
G02*
X22185000Y-73099500I0J-50000D01*
G01*
X22185000Y-73824500D01*
G75*
G02*
X22135000Y-73874500I-50000J0D01*
G01*
X22035000Y-73874500D01*
G75*
G02*
X21985000Y-73824500I0J50000D01*
G01*
X21985000Y-73099500D01*
G75*
G02*
X22035000Y-73049500I50000J0D01*
G01*
G37*
G36*
G01*
X22435000Y-73049500D02*
X22535000Y-73049500D01*
G75*
G02*
X22585000Y-73099500I0J-50000D01*
G01*
X22585000Y-73824500D01*
G75*
G02*
X22535000Y-73874500I-50000J0D01*
G01*
X22435000Y-73874500D01*
G75*
G02*
X22385000Y-73824500I0J50000D01*
G01*
X22385000Y-73099500D01*
G75*
G02*
X22435000Y-73049500I50000J0D01*
G01*
G37*
G36*
G01*
X23597500Y-74112000D02*
X23597500Y-74212000D01*
G75*
G02*
X23547500Y-74262000I-50000J0D01*
G01*
X22822500Y-74262000D01*
G75*
G02*
X22772500Y-74212000I0J50000D01*
G01*
X22772500Y-74112000D01*
G75*
G02*
X22822500Y-74062000I50000J0D01*
G01*
X23547500Y-74062000D01*
G75*
G02*
X23597500Y-74112000I0J-50000D01*
G01*
G37*
G36*
G01*
X23597500Y-74512000D02*
X23597500Y-74612000D01*
G75*
G02*
X23547500Y-74662000I-50000J0D01*
G01*
X22822500Y-74662000D01*
G75*
G02*
X22772500Y-74612000I0J50000D01*
G01*
X22772500Y-74512000D01*
G75*
G02*
X22822500Y-74462000I50000J0D01*
G01*
X23547500Y-74462000D01*
G75*
G02*
X23597500Y-74512000I0J-50000D01*
G01*
G37*
G36*
G01*
X23597500Y-74912000D02*
X23597500Y-75012000D01*
G75*
G02*
X23547500Y-75062000I-50000J0D01*
G01*
X22822500Y-75062000D01*
G75*
G02*
X22772500Y-75012000I0J50000D01*
G01*
X22772500Y-74912000D01*
G75*
G02*
X22822500Y-74862000I50000J0D01*
G01*
X23547500Y-74862000D01*
G75*
G02*
X23597500Y-74912000I0J-50000D01*
G01*
G37*
G36*
G01*
X23597500Y-75312000D02*
X23597500Y-75412000D01*
G75*
G02*
X23547500Y-75462000I-50000J0D01*
G01*
X22822500Y-75462000D01*
G75*
G02*
X22772500Y-75412000I0J50000D01*
G01*
X22772500Y-75312000D01*
G75*
G02*
X22822500Y-75262000I50000J0D01*
G01*
X23547500Y-75262000D01*
G75*
G02*
X23597500Y-75312000I0J-50000D01*
G01*
G37*
G36*
G01*
X23597500Y-75712000D02*
X23597500Y-75812000D01*
G75*
G02*
X23547500Y-75862000I-50000J0D01*
G01*
X22822500Y-75862000D01*
G75*
G02*
X22772500Y-75812000I0J50000D01*
G01*
X22772500Y-75712000D01*
G75*
G02*
X22822500Y-75662000I50000J0D01*
G01*
X23547500Y-75662000D01*
G75*
G02*
X23597500Y-75712000I0J-50000D01*
G01*
G37*
G36*
G01*
X23597500Y-76112000D02*
X23597500Y-76212000D01*
G75*
G02*
X23547500Y-76262000I-50000J0D01*
G01*
X22822500Y-76262000D01*
G75*
G02*
X22772500Y-76212000I0J50000D01*
G01*
X22772500Y-76112000D01*
G75*
G02*
X22822500Y-76062000I50000J0D01*
G01*
X23547500Y-76062000D01*
G75*
G02*
X23597500Y-76112000I0J-50000D01*
G01*
G37*
G36*
G01*
X23597500Y-76512000D02*
X23597500Y-76612000D01*
G75*
G02*
X23547500Y-76662000I-50000J0D01*
G01*
X22822500Y-76662000D01*
G75*
G02*
X22772500Y-76612000I0J50000D01*
G01*
X22772500Y-76512000D01*
G75*
G02*
X22822500Y-76462000I50000J0D01*
G01*
X23547500Y-76462000D01*
G75*
G02*
X23597500Y-76512000I0J-50000D01*
G01*
G37*
G36*
G01*
X23597500Y-76912000D02*
X23597500Y-77012000D01*
G75*
G02*
X23547500Y-77062000I-50000J0D01*
G01*
X22822500Y-77062000D01*
G75*
G02*
X22772500Y-77012000I0J50000D01*
G01*
X22772500Y-76912000D01*
G75*
G02*
X22822500Y-76862000I50000J0D01*
G01*
X23547500Y-76862000D01*
G75*
G02*
X23597500Y-76912000I0J-50000D01*
G01*
G37*
G36*
G01*
X23597500Y-77312000D02*
X23597500Y-77412000D01*
G75*
G02*
X23547500Y-77462000I-50000J0D01*
G01*
X22822500Y-77462000D01*
G75*
G02*
X22772500Y-77412000I0J50000D01*
G01*
X22772500Y-77312000D01*
G75*
G02*
X22822500Y-77262000I50000J0D01*
G01*
X23547500Y-77262000D01*
G75*
G02*
X23597500Y-77312000I0J-50000D01*
G01*
G37*
G36*
G01*
X23597500Y-77712000D02*
X23597500Y-77812000D01*
G75*
G02*
X23547500Y-77862000I-50000J0D01*
G01*
X22822500Y-77862000D01*
G75*
G02*
X22772500Y-77812000I0J50000D01*
G01*
X22772500Y-77712000D01*
G75*
G02*
X22822500Y-77662000I50000J0D01*
G01*
X23547500Y-77662000D01*
G75*
G02*
X23597500Y-77712000I0J-50000D01*
G01*
G37*
G36*
G01*
X23597500Y-78112000D02*
X23597500Y-78212000D01*
G75*
G02*
X23547500Y-78262000I-50000J0D01*
G01*
X22822500Y-78262000D01*
G75*
G02*
X22772500Y-78212000I0J50000D01*
G01*
X22772500Y-78112000D01*
G75*
G02*
X22822500Y-78062000I50000J0D01*
G01*
X23547500Y-78062000D01*
G75*
G02*
X23597500Y-78112000I0J-50000D01*
G01*
G37*
G36*
G01*
X23597500Y-78512000D02*
X23597500Y-78612000D01*
G75*
G02*
X23547500Y-78662000I-50000J0D01*
G01*
X22822500Y-78662000D01*
G75*
G02*
X22772500Y-78612000I0J50000D01*
G01*
X22772500Y-78512000D01*
G75*
G02*
X22822500Y-78462000I50000J0D01*
G01*
X23547500Y-78462000D01*
G75*
G02*
X23597500Y-78512000I0J-50000D01*
G01*
G37*
G36*
G01*
X23597500Y-78912000D02*
X23597500Y-79012000D01*
G75*
G02*
X23547500Y-79062000I-50000J0D01*
G01*
X22822500Y-79062000D01*
G75*
G02*
X22772500Y-79012000I0J50000D01*
G01*
X22772500Y-78912000D01*
G75*
G02*
X22822500Y-78862000I50000J0D01*
G01*
X23547500Y-78862000D01*
G75*
G02*
X23597500Y-78912000I0J-50000D01*
G01*
G37*
G36*
G01*
X23597500Y-79312000D02*
X23597500Y-79412000D01*
G75*
G02*
X23547500Y-79462000I-50000J0D01*
G01*
X22822500Y-79462000D01*
G75*
G02*
X22772500Y-79412000I0J50000D01*
G01*
X22772500Y-79312000D01*
G75*
G02*
X22822500Y-79262000I50000J0D01*
G01*
X23547500Y-79262000D01*
G75*
G02*
X23597500Y-79312000I0J-50000D01*
G01*
G37*
G36*
G01*
X23597500Y-79712000D02*
X23597500Y-79812000D01*
G75*
G02*
X23547500Y-79862000I-50000J0D01*
G01*
X22822500Y-79862000D01*
G75*
G02*
X22772500Y-79812000I0J50000D01*
G01*
X22772500Y-79712000D01*
G75*
G02*
X22822500Y-79662000I50000J0D01*
G01*
X23547500Y-79662000D01*
G75*
G02*
X23597500Y-79712000I0J-50000D01*
G01*
G37*
D14*
X18812800Y-94169200D03*
X23452800Y-94169200D03*
D15*
X20007800Y-96399200D03*
D16*
X21132800Y-93749200D03*
X21782800Y-93749200D03*
X22432800Y-93749200D03*
X19832800Y-93749200D03*
X20482800Y-93749200D03*
D15*
X22257800Y-96399200D03*
D17*
X41173400Y-32708600D03*
X41173400Y-28708600D03*
D18*
X35905400Y-18510200D03*
X31055400Y-24060200D03*
X35905400Y-24060200D03*
X31055400Y-18510200D03*
D19*
X42630400Y-17885200D03*
X42630400Y-19585200D03*
X42630400Y-21285200D03*
X42630400Y-22985200D03*
X42630400Y-24685200D03*
G36*
G01*
X44259000Y-35516600D02*
X44259000Y-35171600D01*
G75*
G02*
X44406500Y-35024100I147500J0D01*
G01*
X44701500Y-35024100D01*
G75*
G02*
X44849000Y-35171600I0J-147500D01*
G01*
X44849000Y-35516600D01*
G75*
G02*
X44701500Y-35664100I-147500J0D01*
G01*
X44406500Y-35664100D01*
G75*
G02*
X44259000Y-35516600I0J147500D01*
G01*
G37*
G36*
G01*
X43289000Y-35516600D02*
X43289000Y-35171600D01*
G75*
G02*
X43436500Y-35024100I147500J0D01*
G01*
X43731500Y-35024100D01*
G75*
G02*
X43879000Y-35171600I0J-147500D01*
G01*
X43879000Y-35516600D01*
G75*
G02*
X43731500Y-35664100I-147500J0D01*
G01*
X43436500Y-35664100D01*
G75*
G02*
X43289000Y-35516600I0J147500D01*
G01*
G37*
D20*
X30480000Y-40048000D03*
X30480000Y-29548000D03*
G36*
G01*
X20228200Y-41231600D02*
X20228200Y-40886600D01*
G75*
G02*
X20375700Y-40739100I147500J0D01*
G01*
X20670700Y-40739100D01*
G75*
G02*
X20818200Y-40886600I0J-147500D01*
G01*
X20818200Y-41231600D01*
G75*
G02*
X20670700Y-41379100I-147500J0D01*
G01*
X20375700Y-41379100D01*
G75*
G02*
X20228200Y-41231600I0J147500D01*
G01*
G37*
G36*
G01*
X19258200Y-41231600D02*
X19258200Y-40886600D01*
G75*
G02*
X19405700Y-40739100I147500J0D01*
G01*
X19700700Y-40739100D01*
G75*
G02*
X19848200Y-40886600I0J-147500D01*
G01*
X19848200Y-41231600D01*
G75*
G02*
X19700700Y-41379100I-147500J0D01*
G01*
X19405700Y-41379100D01*
G75*
G02*
X19258200Y-41231600I0J147500D01*
G01*
G37*
G36*
G01*
X47126800Y-16923800D02*
X47126800Y-16578800D01*
G75*
G02*
X47274300Y-16431300I147500J0D01*
G01*
X47569300Y-16431300D01*
G75*
G02*
X47716800Y-16578800I0J-147500D01*
G01*
X47716800Y-16923800D01*
G75*
G02*
X47569300Y-17071300I-147500J0D01*
G01*
X47274300Y-17071300D01*
G75*
G02*
X47126800Y-16923800I0J147500D01*
G01*
G37*
G36*
G01*
X46156800Y-16923800D02*
X46156800Y-16578800D01*
G75*
G02*
X46304300Y-16431300I147500J0D01*
G01*
X46599300Y-16431300D01*
G75*
G02*
X46746800Y-16578800I0J-147500D01*
G01*
X46746800Y-16923800D01*
G75*
G02*
X46599300Y-17071300I-147500J0D01*
G01*
X46304300Y-17071300D01*
G75*
G02*
X46156800Y-16923800I0J147500D01*
G01*
G37*
G36*
G01*
X18320000Y-10176000D02*
X18320000Y-12176000D01*
G75*
G02*
X18070000Y-12426000I-250000J0D01*
G01*
X14570000Y-12426000D01*
G75*
G02*
X14320000Y-12176000I0J250000D01*
G01*
X14320000Y-10176000D01*
G75*
G02*
X14570000Y-9926000I250000J0D01*
G01*
X18070000Y-9926000D01*
G75*
G02*
X18320000Y-10176000I0J-250000D01*
G01*
G37*
G36*
G01*
X26320000Y-10176000D02*
X26320000Y-12176000D01*
G75*
G02*
X26070000Y-12426000I-250000J0D01*
G01*
X22570000Y-12426000D01*
G75*
G02*
X22320000Y-12176000I0J250000D01*
G01*
X22320000Y-10176000D01*
G75*
G02*
X22570000Y-9926000I250000J0D01*
G01*
X26070000Y-9926000D01*
G75*
G02*
X26320000Y-10176000I0J-250000D01*
G01*
G37*
D21*
X38006200Y-84902000D03*
X38006200Y-86802000D03*
X35806200Y-86802000D03*
X35806200Y-85852000D03*
X35806200Y-84902000D03*
G36*
G01*
X31001200Y-94582200D02*
X31001200Y-94927200D01*
G75*
G02*
X30853700Y-95074700I-147500J0D01*
G01*
X30558700Y-95074700D01*
G75*
G02*
X30411200Y-94927200I0J147500D01*
G01*
X30411200Y-94582200D01*
G75*
G02*
X30558700Y-94434700I147500J0D01*
G01*
X30853700Y-94434700D01*
G75*
G02*
X31001200Y-94582200I0J-147500D01*
G01*
G37*
G36*
G01*
X31971200Y-94582200D02*
X31971200Y-94927200D01*
G75*
G02*
X31823700Y-95074700I-147500J0D01*
G01*
X31528700Y-95074700D01*
G75*
G02*
X31381200Y-94927200I0J147500D01*
G01*
X31381200Y-94582200D01*
G75*
G02*
X31528700Y-94434700I147500J0D01*
G01*
X31823700Y-94434700D01*
G75*
G02*
X31971200Y-94582200I0J-147500D01*
G01*
G37*
G36*
G01*
X39682200Y-85115900D02*
X39337200Y-85115900D01*
G75*
G02*
X39189700Y-84968400I0J147500D01*
G01*
X39189700Y-84673400D01*
G75*
G02*
X39337200Y-84525900I147500J0D01*
G01*
X39682200Y-84525900D01*
G75*
G02*
X39829700Y-84673400I0J-147500D01*
G01*
X39829700Y-84968400D01*
G75*
G02*
X39682200Y-85115900I-147500J0D01*
G01*
G37*
G36*
G01*
X39682200Y-86085900D02*
X39337200Y-86085900D01*
G75*
G02*
X39189700Y-85938400I0J147500D01*
G01*
X39189700Y-85643400D01*
G75*
G02*
X39337200Y-85495900I147500J0D01*
G01*
X39682200Y-85495900D01*
G75*
G02*
X39829700Y-85643400I0J-147500D01*
G01*
X39829700Y-85938400D01*
G75*
G02*
X39682200Y-86085900I-147500J0D01*
G01*
G37*
D22*
X35614900Y-78475800D03*
X35614900Y-80375800D03*
X37714900Y-79425800D03*
G36*
G01*
X31668200Y-93283750D02*
X31668200Y-92771250D01*
G75*
G02*
X31886950Y-92552500I218750J0D01*
G01*
X32324450Y-92552500D01*
G75*
G02*
X32543200Y-92771250I0J-218750D01*
G01*
X32543200Y-93283750D01*
G75*
G02*
X32324450Y-93502500I-218750J0D01*
G01*
X31886950Y-93502500D01*
G75*
G02*
X31668200Y-93283750I0J218750D01*
G01*
G37*
G36*
G01*
X30093200Y-93283750D02*
X30093200Y-92771250D01*
G75*
G02*
X30311950Y-92552500I218750J0D01*
G01*
X30749450Y-92552500D01*
G75*
G02*
X30968200Y-92771250I0J-218750D01*
G01*
X30968200Y-93283750D01*
G75*
G02*
X30749450Y-93502500I-218750J0D01*
G01*
X30311950Y-93502500D01*
G75*
G02*
X30093200Y-93283750I0J218750D01*
G01*
G37*
G36*
G01*
X37058100Y-82836800D02*
X37058100Y-82491800D01*
G75*
G02*
X37205600Y-82344300I147500J0D01*
G01*
X37500600Y-82344300D01*
G75*
G02*
X37648100Y-82491800I0J-147500D01*
G01*
X37648100Y-82836800D01*
G75*
G02*
X37500600Y-82984300I-147500J0D01*
G01*
X37205600Y-82984300D01*
G75*
G02*
X37058100Y-82836800I0J147500D01*
G01*
G37*
G36*
G01*
X36088100Y-82836800D02*
X36088100Y-82491800D01*
G75*
G02*
X36235600Y-82344300I147500J0D01*
G01*
X36530600Y-82344300D01*
G75*
G02*
X36678100Y-82491800I0J-147500D01*
G01*
X36678100Y-82836800D01*
G75*
G02*
X36530600Y-82984300I-147500J0D01*
G01*
X36235600Y-82984300D01*
G75*
G02*
X36088100Y-82836800I0J147500D01*
G01*
G37*
G36*
G01*
X40964900Y-85242900D02*
X40619900Y-85242900D01*
G75*
G02*
X40472400Y-85095400I0J147500D01*
G01*
X40472400Y-84800400D01*
G75*
G02*
X40619900Y-84652900I147500J0D01*
G01*
X40964900Y-84652900D01*
G75*
G02*
X41112400Y-84800400I0J-147500D01*
G01*
X41112400Y-85095400D01*
G75*
G02*
X40964900Y-85242900I-147500J0D01*
G01*
G37*
G36*
G01*
X40964900Y-86212900D02*
X40619900Y-86212900D01*
G75*
G02*
X40472400Y-86065400I0J147500D01*
G01*
X40472400Y-85770400D01*
G75*
G02*
X40619900Y-85622900I147500J0D01*
G01*
X40964900Y-85622900D01*
G75*
G02*
X41112400Y-85770400I0J-147500D01*
G01*
X41112400Y-86065400D01*
G75*
G02*
X40964900Y-86212900I-147500J0D01*
G01*
G37*
G36*
G01*
X21062200Y-38796250D02*
X21062200Y-39308750D01*
G75*
G02*
X20843450Y-39527500I-218750J0D01*
G01*
X20405950Y-39527500D01*
G75*
G02*
X20187200Y-39308750I0J218750D01*
G01*
X20187200Y-38796250D01*
G75*
G02*
X20405950Y-38577500I218750J0D01*
G01*
X20843450Y-38577500D01*
G75*
G02*
X21062200Y-38796250I0J-218750D01*
G01*
G37*
G36*
G01*
X22637200Y-38796250D02*
X22637200Y-39308750D01*
G75*
G02*
X22418450Y-39527500I-218750J0D01*
G01*
X21980950Y-39527500D01*
G75*
G02*
X21762200Y-39308750I0J218750D01*
G01*
X21762200Y-38796250D01*
G75*
G02*
X21980950Y-38577500I218750J0D01*
G01*
X22418450Y-38577500D01*
G75*
G02*
X22637200Y-38796250I0J-218750D01*
G01*
G37*
G36*
G01*
X20103600Y-35872200D02*
X20103600Y-35527200D01*
G75*
G02*
X20251100Y-35379700I147500J0D01*
G01*
X20546100Y-35379700D01*
G75*
G02*
X20693600Y-35527200I0J-147500D01*
G01*
X20693600Y-35872200D01*
G75*
G02*
X20546100Y-36019700I-147500J0D01*
G01*
X20251100Y-36019700D01*
G75*
G02*
X20103600Y-35872200I0J147500D01*
G01*
G37*
G36*
G01*
X19133600Y-35872200D02*
X19133600Y-35527200D01*
G75*
G02*
X19281100Y-35379700I147500J0D01*
G01*
X19576100Y-35379700D01*
G75*
G02*
X19723600Y-35527200I0J-147500D01*
G01*
X19723600Y-35872200D01*
G75*
G02*
X19576100Y-36019700I-147500J0D01*
G01*
X19281100Y-36019700D01*
G75*
G02*
X19133600Y-35872200I0J147500D01*
G01*
G37*
G36*
G01*
X59855600Y-52049900D02*
X59855600Y-52394900D01*
G75*
G02*
X59708100Y-52542400I-147500J0D01*
G01*
X59413100Y-52542400D01*
G75*
G02*
X59265600Y-52394900I0J147500D01*
G01*
X59265600Y-52049900D01*
G75*
G02*
X59413100Y-51902400I147500J0D01*
G01*
X59708100Y-51902400D01*
G75*
G02*
X59855600Y-52049900I0J-147500D01*
G01*
G37*
G36*
G01*
X60825600Y-52049900D02*
X60825600Y-52394900D01*
G75*
G02*
X60678100Y-52542400I-147500J0D01*
G01*
X60383100Y-52542400D01*
G75*
G02*
X60235600Y-52394900I0J147500D01*
G01*
X60235600Y-52049900D01*
G75*
G02*
X60383100Y-51902400I147500J0D01*
G01*
X60678100Y-51902400D01*
G75*
G02*
X60825600Y-52049900I0J-147500D01*
G01*
G37*
G36*
G01*
X47789600Y-27642600D02*
X47789600Y-27297600D01*
G75*
G02*
X47937100Y-27150100I147500J0D01*
G01*
X48232100Y-27150100D01*
G75*
G02*
X48379600Y-27297600I0J-147500D01*
G01*
X48379600Y-27642600D01*
G75*
G02*
X48232100Y-27790100I-147500J0D01*
G01*
X47937100Y-27790100D01*
G75*
G02*
X47789600Y-27642600I0J147500D01*
G01*
G37*
G36*
G01*
X46819600Y-27642600D02*
X46819600Y-27297600D01*
G75*
G02*
X46967100Y-27150100I147500J0D01*
G01*
X47262100Y-27150100D01*
G75*
G02*
X47409600Y-27297600I0J-147500D01*
G01*
X47409600Y-27642600D01*
G75*
G02*
X47262100Y-27790100I-147500J0D01*
G01*
X46967100Y-27790100D01*
G75*
G02*
X46819600Y-27642600I0J147500D01*
G01*
G37*
G36*
G01*
X58406800Y-39085300D02*
X58406800Y-38740300D01*
G75*
G02*
X58554300Y-38592800I147500J0D01*
G01*
X58849300Y-38592800D01*
G75*
G02*
X58996800Y-38740300I0J-147500D01*
G01*
X58996800Y-39085300D01*
G75*
G02*
X58849300Y-39232800I-147500J0D01*
G01*
X58554300Y-39232800D01*
G75*
G02*
X58406800Y-39085300I0J147500D01*
G01*
G37*
G36*
G01*
X57436800Y-39085300D02*
X57436800Y-38740300D01*
G75*
G02*
X57584300Y-38592800I147500J0D01*
G01*
X57879300Y-38592800D01*
G75*
G02*
X58026800Y-38740300I0J-147500D01*
G01*
X58026800Y-39085300D01*
G75*
G02*
X57879300Y-39232800I-147500J0D01*
G01*
X57584300Y-39232800D01*
G75*
G02*
X57436800Y-39085300I0J147500D01*
G01*
G37*
G36*
G01*
X47789600Y-36240500D02*
X47789600Y-35895500D01*
G75*
G02*
X47937100Y-35748000I147500J0D01*
G01*
X48232100Y-35748000D01*
G75*
G02*
X48379600Y-35895500I0J-147500D01*
G01*
X48379600Y-36240500D01*
G75*
G02*
X48232100Y-36388000I-147500J0D01*
G01*
X47937100Y-36388000D01*
G75*
G02*
X47789600Y-36240500I0J147500D01*
G01*
G37*
G36*
G01*
X46819600Y-36240500D02*
X46819600Y-35895500D01*
G75*
G02*
X46967100Y-35748000I147500J0D01*
G01*
X47262100Y-35748000D01*
G75*
G02*
X47409600Y-35895500I0J-147500D01*
G01*
X47409600Y-36240500D01*
G75*
G02*
X47262100Y-36388000I-147500J0D01*
G01*
X46967100Y-36388000D01*
G75*
G02*
X46819600Y-36240500I0J147500D01*
G01*
G37*
G36*
G01*
X47071500Y-33718000D02*
X47416500Y-33718000D01*
G75*
G02*
X47564000Y-33865500I0J-147500D01*
G01*
X47564000Y-34160500D01*
G75*
G02*
X47416500Y-34308000I-147500J0D01*
G01*
X47071500Y-34308000D01*
G75*
G02*
X46924000Y-34160500I0J147500D01*
G01*
X46924000Y-33865500D01*
G75*
G02*
X47071500Y-33718000I147500J0D01*
G01*
G37*
G36*
G01*
X47071500Y-32748000D02*
X47416500Y-32748000D01*
G75*
G02*
X47564000Y-32895500I0J-147500D01*
G01*
X47564000Y-33190500D01*
G75*
G02*
X47416500Y-33338000I-147500J0D01*
G01*
X47071500Y-33338000D01*
G75*
G02*
X46924000Y-33190500I0J147500D01*
G01*
X46924000Y-32895500D01*
G75*
G02*
X47071500Y-32748000I147500J0D01*
G01*
G37*
G36*
G01*
X9547360Y-10373140D02*
X9547360Y-10028140D01*
G75*
G02*
X9694860Y-9880640I147500J0D01*
G01*
X9989860Y-9880640D01*
G75*
G02*
X10137360Y-10028140I0J-147500D01*
G01*
X10137360Y-10373140D01*
G75*
G02*
X9989860Y-10520640I-147500J0D01*
G01*
X9694860Y-10520640D01*
G75*
G02*
X9547360Y-10373140I0J147500D01*
G01*
G37*
G36*
G01*
X8577360Y-10373140D02*
X8577360Y-10028140D01*
G75*
G02*
X8724860Y-9880640I147500J0D01*
G01*
X9019860Y-9880640D01*
G75*
G02*
X9167360Y-10028140I0J-147500D01*
G01*
X9167360Y-10373140D01*
G75*
G02*
X9019860Y-10520640I-147500J0D01*
G01*
X8724860Y-10520640D01*
G75*
G02*
X8577360Y-10373140I0J147500D01*
G01*
G37*
G36*
G01*
X9547360Y-11754900D02*
X9547360Y-11409900D01*
G75*
G02*
X9694860Y-11262400I147500J0D01*
G01*
X9989860Y-11262400D01*
G75*
G02*
X10137360Y-11409900I0J-147500D01*
G01*
X10137360Y-11754900D01*
G75*
G02*
X9989860Y-11902400I-147500J0D01*
G01*
X9694860Y-11902400D01*
G75*
G02*
X9547360Y-11754900I0J147500D01*
G01*
G37*
G36*
G01*
X8577360Y-11754900D02*
X8577360Y-11409900D01*
G75*
G02*
X8724860Y-11262400I147500J0D01*
G01*
X9019860Y-11262400D01*
G75*
G02*
X9167360Y-11409900I0J-147500D01*
G01*
X9167360Y-11754900D01*
G75*
G02*
X9019860Y-11902400I-147500J0D01*
G01*
X8724860Y-11902400D01*
G75*
G02*
X8577360Y-11754900I0J147500D01*
G01*
G37*
G36*
G01*
X47919000Y-31363700D02*
X47919000Y-31018700D01*
G75*
G02*
X48066500Y-30871200I147500J0D01*
G01*
X48361500Y-30871200D01*
G75*
G02*
X48509000Y-31018700I0J-147500D01*
G01*
X48509000Y-31363700D01*
G75*
G02*
X48361500Y-31511200I-147500J0D01*
G01*
X48066500Y-31511200D01*
G75*
G02*
X47919000Y-31363700I0J147500D01*
G01*
G37*
G36*
G01*
X46949000Y-31363700D02*
X46949000Y-31018700D01*
G75*
G02*
X47096500Y-30871200I147500J0D01*
G01*
X47391500Y-30871200D01*
G75*
G02*
X47539000Y-31018700I0J-147500D01*
G01*
X47539000Y-31363700D01*
G75*
G02*
X47391500Y-31511200I-147500J0D01*
G01*
X47096500Y-31511200D01*
G75*
G02*
X46949000Y-31363700I0J147500D01*
G01*
G37*
D13*
X57624800Y-77331200D03*
X59824800Y-77331200D03*
X59824800Y-79031200D03*
X57624800Y-79031200D03*
X31331080Y-63410200D03*
X29131080Y-63410200D03*
X29131080Y-61710200D03*
X31331080Y-61710200D03*
G36*
G01*
X31203400Y-73304180D02*
X31203400Y-72959180D01*
G75*
G02*
X31350900Y-72811680I147500J0D01*
G01*
X31645900Y-72811680D01*
G75*
G02*
X31793400Y-72959180I0J-147500D01*
G01*
X31793400Y-73304180D01*
G75*
G02*
X31645900Y-73451680I-147500J0D01*
G01*
X31350900Y-73451680D01*
G75*
G02*
X31203400Y-73304180I0J147500D01*
G01*
G37*
G36*
G01*
X30233400Y-73304180D02*
X30233400Y-72959180D01*
G75*
G02*
X30380900Y-72811680I147500J0D01*
G01*
X30675900Y-72811680D01*
G75*
G02*
X30823400Y-72959180I0J-147500D01*
G01*
X30823400Y-73304180D01*
G75*
G02*
X30675900Y-73451680I-147500J0D01*
G01*
X30380900Y-73451680D01*
G75*
G02*
X30233400Y-73304180I0J147500D01*
G01*
G37*
G36*
G01*
X30823400Y-71902540D02*
X30823400Y-72247540D01*
G75*
G02*
X30675900Y-72395040I-147500J0D01*
G01*
X30380900Y-72395040D01*
G75*
G02*
X30233400Y-72247540I0J147500D01*
G01*
X30233400Y-71902540D01*
G75*
G02*
X30380900Y-71755040I147500J0D01*
G01*
X30675900Y-71755040D01*
G75*
G02*
X30823400Y-71902540I0J-147500D01*
G01*
G37*
G36*
G01*
X31793400Y-71902540D02*
X31793400Y-72247540D01*
G75*
G02*
X31645900Y-72395040I-147500J0D01*
G01*
X31350900Y-72395040D01*
G75*
G02*
X31203400Y-72247540I0J147500D01*
G01*
X31203400Y-71902540D01*
G75*
G02*
X31350900Y-71755040I147500J0D01*
G01*
X31645900Y-71755040D01*
G75*
G02*
X31793400Y-71902540I0J-147500D01*
G01*
G37*
G36*
G01*
X45530000Y-71582500D02*
X45530000Y-71927500D01*
G75*
G02*
X45382500Y-72075000I-147500J0D01*
G01*
X45087500Y-72075000D01*
G75*
G02*
X44940000Y-71927500I0J147500D01*
G01*
X44940000Y-71582500D01*
G75*
G02*
X45087500Y-71435000I147500J0D01*
G01*
X45382500Y-71435000D01*
G75*
G02*
X45530000Y-71582500I0J-147500D01*
G01*
G37*
G36*
G01*
X46500000Y-71582500D02*
X46500000Y-71927500D01*
G75*
G02*
X46352500Y-72075000I-147500J0D01*
G01*
X46057500Y-72075000D01*
G75*
G02*
X45910000Y-71927500I0J147500D01*
G01*
X45910000Y-71582500D01*
G75*
G02*
X46057500Y-71435000I147500J0D01*
G01*
X46352500Y-71435000D01*
G75*
G02*
X46500000Y-71582500I0J-147500D01*
G01*
G37*
G36*
G01*
X49975000Y-81488500D02*
X49975000Y-81833500D01*
G75*
G02*
X49827500Y-81981000I-147500J0D01*
G01*
X49532500Y-81981000D01*
G75*
G02*
X49385000Y-81833500I0J147500D01*
G01*
X49385000Y-81488500D01*
G75*
G02*
X49532500Y-81341000I147500J0D01*
G01*
X49827500Y-81341000D01*
G75*
G02*
X49975000Y-81488500I0J-147500D01*
G01*
G37*
G36*
G01*
X50945000Y-81488500D02*
X50945000Y-81833500D01*
G75*
G02*
X50797500Y-81981000I-147500J0D01*
G01*
X50502500Y-81981000D01*
G75*
G02*
X50355000Y-81833500I0J147500D01*
G01*
X50355000Y-81488500D01*
G75*
G02*
X50502500Y-81341000I147500J0D01*
G01*
X50797500Y-81341000D01*
G75*
G02*
X50945000Y-81488500I0J-147500D01*
G01*
G37*
G36*
G01*
X46723800Y-76154500D02*
X46723800Y-76499500D01*
G75*
G02*
X46576300Y-76647000I-147500J0D01*
G01*
X46281300Y-76647000D01*
G75*
G02*
X46133800Y-76499500I0J147500D01*
G01*
X46133800Y-76154500D01*
G75*
G02*
X46281300Y-76007000I147500J0D01*
G01*
X46576300Y-76007000D01*
G75*
G02*
X46723800Y-76154500I0J-147500D01*
G01*
G37*
G36*
G01*
X47693800Y-76154500D02*
X47693800Y-76499500D01*
G75*
G02*
X47546300Y-76647000I-147500J0D01*
G01*
X47251300Y-76647000D01*
G75*
G02*
X47103800Y-76499500I0J147500D01*
G01*
X47103800Y-76154500D01*
G75*
G02*
X47251300Y-76007000I147500J0D01*
G01*
X47546300Y-76007000D01*
G75*
G02*
X47693800Y-76154500I0J-147500D01*
G01*
G37*
G36*
G01*
X70279600Y-42559900D02*
X70279600Y-42214900D01*
G75*
G02*
X70427100Y-42067400I147500J0D01*
G01*
X70722100Y-42067400D01*
G75*
G02*
X70869600Y-42214900I0J-147500D01*
G01*
X70869600Y-42559900D01*
G75*
G02*
X70722100Y-42707400I-147500J0D01*
G01*
X70427100Y-42707400D01*
G75*
G02*
X70279600Y-42559900I0J147500D01*
G01*
G37*
G36*
G01*
X69309600Y-42559900D02*
X69309600Y-42214900D01*
G75*
G02*
X69457100Y-42067400I147500J0D01*
G01*
X69752100Y-42067400D01*
G75*
G02*
X69899600Y-42214900I0J-147500D01*
G01*
X69899600Y-42559900D01*
G75*
G02*
X69752100Y-42707400I-147500J0D01*
G01*
X69457100Y-42707400D01*
G75*
G02*
X69309600Y-42559900I0J147500D01*
G01*
G37*
G36*
G01*
X66979600Y-42943650D02*
X66979600Y-42431150D01*
G75*
G02*
X67198350Y-42212400I218750J0D01*
G01*
X67635850Y-42212400D01*
G75*
G02*
X67854600Y-42431150I0J-218750D01*
G01*
X67854600Y-42943650D01*
G75*
G02*
X67635850Y-43162400I-218750J0D01*
G01*
X67198350Y-43162400D01*
G75*
G02*
X66979600Y-42943650I0J218750D01*
G01*
G37*
G36*
G01*
X65404600Y-42943650D02*
X65404600Y-42431150D01*
G75*
G02*
X65623350Y-42212400I218750J0D01*
G01*
X66060850Y-42212400D01*
G75*
G02*
X66279600Y-42431150I0J-218750D01*
G01*
X66279600Y-42943650D01*
G75*
G02*
X66060850Y-43162400I-218750J0D01*
G01*
X65623350Y-43162400D01*
G75*
G02*
X65404600Y-42943650I0J218750D01*
G01*
G37*
G36*
G01*
X42895000Y-81155250D02*
X42895000Y-80642750D01*
G75*
G02*
X43113750Y-80424000I218750J0D01*
G01*
X43551250Y-80424000D01*
G75*
G02*
X43770000Y-80642750I0J-218750D01*
G01*
X43770000Y-81155250D01*
G75*
G02*
X43551250Y-81374000I-218750J0D01*
G01*
X43113750Y-81374000D01*
G75*
G02*
X42895000Y-81155250I0J218750D01*
G01*
G37*
G36*
G01*
X41320000Y-81155250D02*
X41320000Y-80642750D01*
G75*
G02*
X41538750Y-80424000I218750J0D01*
G01*
X41976250Y-80424000D01*
G75*
G02*
X42195000Y-80642750I0J-218750D01*
G01*
X42195000Y-81155250D01*
G75*
G02*
X41976250Y-81374000I-218750J0D01*
G01*
X41538750Y-81374000D01*
G75*
G02*
X41320000Y-81155250I0J218750D01*
G01*
G37*
G36*
G01*
X42895000Y-79377250D02*
X42895000Y-78864750D01*
G75*
G02*
X43113750Y-78646000I218750J0D01*
G01*
X43551250Y-78646000D01*
G75*
G02*
X43770000Y-78864750I0J-218750D01*
G01*
X43770000Y-79377250D01*
G75*
G02*
X43551250Y-79596000I-218750J0D01*
G01*
X43113750Y-79596000D01*
G75*
G02*
X42895000Y-79377250I0J218750D01*
G01*
G37*
G36*
G01*
X41320000Y-79377250D02*
X41320000Y-78864750D01*
G75*
G02*
X41538750Y-78646000I218750J0D01*
G01*
X41976250Y-78646000D01*
G75*
G02*
X42195000Y-78864750I0J-218750D01*
G01*
X42195000Y-79377250D01*
G75*
G02*
X41976250Y-79596000I-218750J0D01*
G01*
X41538750Y-79596000D01*
G75*
G02*
X41320000Y-79377250I0J218750D01*
G01*
G37*
G36*
G01*
X45344500Y-80642750D02*
X45344500Y-81155250D01*
G75*
G02*
X45125750Y-81374000I-218750J0D01*
G01*
X44688250Y-81374000D01*
G75*
G02*
X44469500Y-81155250I0J218750D01*
G01*
X44469500Y-80642750D01*
G75*
G02*
X44688250Y-80424000I218750J0D01*
G01*
X45125750Y-80424000D01*
G75*
G02*
X45344500Y-80642750I0J-218750D01*
G01*
G37*
G36*
G01*
X46919500Y-80642750D02*
X46919500Y-81155250D01*
G75*
G02*
X46700750Y-81374000I-218750J0D01*
G01*
X46263250Y-81374000D01*
G75*
G02*
X46044500Y-81155250I0J218750D01*
G01*
X46044500Y-80642750D01*
G75*
G02*
X46263250Y-80424000I218750J0D01*
G01*
X46700750Y-80424000D01*
G75*
G02*
X46919500Y-80642750I0J-218750D01*
G01*
G37*
G36*
G01*
X45370000Y-78864750D02*
X45370000Y-79377250D01*
G75*
G02*
X45151250Y-79596000I-218750J0D01*
G01*
X44713750Y-79596000D01*
G75*
G02*
X44495000Y-79377250I0J218750D01*
G01*
X44495000Y-78864750D01*
G75*
G02*
X44713750Y-78646000I218750J0D01*
G01*
X45151250Y-78646000D01*
G75*
G02*
X45370000Y-78864750I0J-218750D01*
G01*
G37*
G36*
G01*
X46945000Y-78864750D02*
X46945000Y-79377250D01*
G75*
G02*
X46726250Y-79596000I-218750J0D01*
G01*
X46288750Y-79596000D01*
G75*
G02*
X46070000Y-79377250I0J218750D01*
G01*
X46070000Y-78864750D01*
G75*
G02*
X46288750Y-78646000I218750J0D01*
G01*
X46726250Y-78646000D01*
G75*
G02*
X46945000Y-78864750I0J-218750D01*
G01*
G37*
G36*
G01*
X42923750Y-75153000D02*
X43436250Y-75153000D01*
G75*
G02*
X43655000Y-75371750I0J-218750D01*
G01*
X43655000Y-75809250D01*
G75*
G02*
X43436250Y-76028000I-218750J0D01*
G01*
X42923750Y-76028000D01*
G75*
G02*
X42705000Y-75809250I0J218750D01*
G01*
X42705000Y-75371750D01*
G75*
G02*
X42923750Y-75153000I218750J0D01*
G01*
G37*
G36*
G01*
X42923750Y-73578000D02*
X43436250Y-73578000D01*
G75*
G02*
X43655000Y-73796750I0J-218750D01*
G01*
X43655000Y-74234250D01*
G75*
G02*
X43436250Y-74453000I-218750J0D01*
G01*
X42923750Y-74453000D01*
G75*
G02*
X42705000Y-74234250I0J218750D01*
G01*
X42705000Y-73796750D01*
G75*
G02*
X42923750Y-73578000I218750J0D01*
G01*
G37*
D23*
X18452700Y-44321700D03*
X18452700Y-48921700D03*
X18452700Y-46621700D03*
D24*
X24752700Y-46621700D03*
G36*
G01*
X54882000Y-68681100D02*
X55227000Y-68681100D01*
G75*
G02*
X55374500Y-68828600I0J-147500D01*
G01*
X55374500Y-69123600D01*
G75*
G02*
X55227000Y-69271100I-147500J0D01*
G01*
X54882000Y-69271100D01*
G75*
G02*
X54734500Y-69123600I0J147500D01*
G01*
X54734500Y-68828600D01*
G75*
G02*
X54882000Y-68681100I147500J0D01*
G01*
G37*
G36*
G01*
X54882000Y-67711100D02*
X55227000Y-67711100D01*
G75*
G02*
X55374500Y-67858600I0J-147500D01*
G01*
X55374500Y-68153600D01*
G75*
G02*
X55227000Y-68301100I-147500J0D01*
G01*
X54882000Y-68301100D01*
G75*
G02*
X54734500Y-68153600I0J147500D01*
G01*
X54734500Y-67858600D01*
G75*
G02*
X54882000Y-67711100I147500J0D01*
G01*
G37*
G36*
G01*
X26901360Y-85014020D02*
X26901360Y-85359020D01*
G75*
G02*
X26753860Y-85506520I-147500J0D01*
G01*
X26458860Y-85506520D01*
G75*
G02*
X26311360Y-85359020I0J147500D01*
G01*
X26311360Y-85014020D01*
G75*
G02*
X26458860Y-84866520I147500J0D01*
G01*
X26753860Y-84866520D01*
G75*
G02*
X26901360Y-85014020I0J-147500D01*
G01*
G37*
G36*
G01*
X25931360Y-85014020D02*
X25931360Y-85359020D01*
G75*
G02*
X25783860Y-85506520I-147500J0D01*
G01*
X25488860Y-85506520D01*
G75*
G02*
X25341360Y-85359020I0J147500D01*
G01*
X25341360Y-85014020D01*
G75*
G02*
X25488860Y-84866520I147500J0D01*
G01*
X25783860Y-84866520D01*
G75*
G02*
X25931360Y-85014020I0J-147500D01*
G01*
G37*
G36*
G01*
X27317200Y-16911100D02*
X27317200Y-16566100D01*
G75*
G02*
X27464700Y-16418600I147500J0D01*
G01*
X27759700Y-16418600D01*
G75*
G02*
X27907200Y-16566100I0J-147500D01*
G01*
X27907200Y-16911100D01*
G75*
G02*
X27759700Y-17058600I-147500J0D01*
G01*
X27464700Y-17058600D01*
G75*
G02*
X27317200Y-16911100I0J147500D01*
G01*
G37*
G36*
G01*
X26347200Y-16911100D02*
X26347200Y-16566100D01*
G75*
G02*
X26494700Y-16418600I147500J0D01*
G01*
X26789700Y-16418600D01*
G75*
G02*
X26937200Y-16566100I0J-147500D01*
G01*
X26937200Y-16911100D01*
G75*
G02*
X26789700Y-17058600I-147500J0D01*
G01*
X26494700Y-17058600D01*
G75*
G02*
X26347200Y-16911100I0J147500D01*
G01*
G37*
G36*
G01*
X25931360Y-86090980D02*
X25931360Y-86435980D01*
G75*
G02*
X25783860Y-86583480I-147500J0D01*
G01*
X25488860Y-86583480D01*
G75*
G02*
X25341360Y-86435980I0J147500D01*
G01*
X25341360Y-86090980D01*
G75*
G02*
X25488860Y-85943480I147500J0D01*
G01*
X25783860Y-85943480D01*
G75*
G02*
X25931360Y-86090980I0J-147500D01*
G01*
G37*
G36*
G01*
X26901360Y-86090980D02*
X26901360Y-86435980D01*
G75*
G02*
X26753860Y-86583480I-147500J0D01*
G01*
X26458860Y-86583480D01*
G75*
G02*
X26311360Y-86435980I0J147500D01*
G01*
X26311360Y-86090980D01*
G75*
G02*
X26458860Y-85943480I147500J0D01*
G01*
X26753860Y-85943480D01*
G75*
G02*
X26901360Y-86090980I0J-147500D01*
G01*
G37*
G36*
G01*
X27317200Y-18038860D02*
X27317200Y-17693860D01*
G75*
G02*
X27464700Y-17546360I147500J0D01*
G01*
X27759700Y-17546360D01*
G75*
G02*
X27907200Y-17693860I0J-147500D01*
G01*
X27907200Y-18038860D01*
G75*
G02*
X27759700Y-18186360I-147500J0D01*
G01*
X27464700Y-18186360D01*
G75*
G02*
X27317200Y-18038860I0J147500D01*
G01*
G37*
G36*
G01*
X26347200Y-18038860D02*
X26347200Y-17693860D01*
G75*
G02*
X26494700Y-17546360I147500J0D01*
G01*
X26789700Y-17546360D01*
G75*
G02*
X26937200Y-17693860I0J-147500D01*
G01*
X26937200Y-18038860D01*
G75*
G02*
X26789700Y-18186360I-147500J0D01*
G01*
X26494700Y-18186360D01*
G75*
G02*
X26347200Y-18038860I0J147500D01*
G01*
G37*
G36*
G01*
X15392900Y-66413600D02*
X15392900Y-66758600D01*
G75*
G02*
X15245400Y-66906100I-147500J0D01*
G01*
X14950400Y-66906100D01*
G75*
G02*
X14802900Y-66758600I0J147500D01*
G01*
X14802900Y-66413600D01*
G75*
G02*
X14950400Y-66266100I147500J0D01*
G01*
X15245400Y-66266100D01*
G75*
G02*
X15392900Y-66413600I0J-147500D01*
G01*
G37*
G36*
G01*
X16362900Y-66413600D02*
X16362900Y-66758600D01*
G75*
G02*
X16215400Y-66906100I-147500J0D01*
G01*
X15920400Y-66906100D01*
G75*
G02*
X15772900Y-66758600I0J147500D01*
G01*
X15772900Y-66413600D01*
G75*
G02*
X15920400Y-66266100I147500J0D01*
G01*
X16215400Y-66266100D01*
G75*
G02*
X16362900Y-66413600I0J-147500D01*
G01*
G37*
G36*
G01*
X28879300Y-84856100D02*
X28879300Y-84511100D01*
G75*
G02*
X29026800Y-84363600I147500J0D01*
G01*
X29321800Y-84363600D01*
G75*
G02*
X29469300Y-84511100I0J-147500D01*
G01*
X29469300Y-84856100D01*
G75*
G02*
X29321800Y-85003600I-147500J0D01*
G01*
X29026800Y-85003600D01*
G75*
G02*
X28879300Y-84856100I0J147500D01*
G01*
G37*
G36*
G01*
X27909300Y-84856100D02*
X27909300Y-84511100D01*
G75*
G02*
X28056800Y-84363600I147500J0D01*
G01*
X28351800Y-84363600D01*
G75*
G02*
X28499300Y-84511100I0J-147500D01*
G01*
X28499300Y-84856100D01*
G75*
G02*
X28351800Y-85003600I-147500J0D01*
G01*
X28056800Y-85003600D01*
G75*
G02*
X27909300Y-84856100I0J147500D01*
G01*
G37*
G36*
G01*
X28879300Y-86062600D02*
X28879300Y-85717600D01*
G75*
G02*
X29026800Y-85570100I147500J0D01*
G01*
X29321800Y-85570100D01*
G75*
G02*
X29469300Y-85717600I0J-147500D01*
G01*
X29469300Y-86062600D01*
G75*
G02*
X29321800Y-86210100I-147500J0D01*
G01*
X29026800Y-86210100D01*
G75*
G02*
X28879300Y-86062600I0J147500D01*
G01*
G37*
G36*
G01*
X27909300Y-86062600D02*
X27909300Y-85717600D01*
G75*
G02*
X28056800Y-85570100I147500J0D01*
G01*
X28351800Y-85570100D01*
G75*
G02*
X28499300Y-85717600I0J-147500D01*
G01*
X28499300Y-86062600D01*
G75*
G02*
X28351800Y-86210100I-147500J0D01*
G01*
X28056800Y-86210100D01*
G75*
G02*
X27909300Y-86062600I0J147500D01*
G01*
G37*
G36*
G01*
X27495000Y-81376300D02*
X27495000Y-81031300D01*
G75*
G02*
X27642500Y-80883800I147500J0D01*
G01*
X27937500Y-80883800D01*
G75*
G02*
X28085000Y-81031300I0J-147500D01*
G01*
X28085000Y-81376300D01*
G75*
G02*
X27937500Y-81523800I-147500J0D01*
G01*
X27642500Y-81523800D01*
G75*
G02*
X27495000Y-81376300I0J147500D01*
G01*
G37*
G36*
G01*
X26525000Y-81376300D02*
X26525000Y-81031300D01*
G75*
G02*
X26672500Y-80883800I147500J0D01*
G01*
X26967500Y-80883800D01*
G75*
G02*
X27115000Y-81031300I0J-147500D01*
G01*
X27115000Y-81376300D01*
G75*
G02*
X26967500Y-81523800I-147500J0D01*
G01*
X26672500Y-81523800D01*
G75*
G02*
X26525000Y-81376300I0J147500D01*
G01*
G37*
G36*
G01*
X15730846Y-71087480D02*
X15385846Y-71087480D01*
G75*
G02*
X15238346Y-70939980I0J147500D01*
G01*
X15238346Y-70644980D01*
G75*
G02*
X15385846Y-70497480I147500J0D01*
G01*
X15730846Y-70497480D01*
G75*
G02*
X15878346Y-70644980I0J-147500D01*
G01*
X15878346Y-70939980D01*
G75*
G02*
X15730846Y-71087480I-147500J0D01*
G01*
G37*
G36*
G01*
X15730846Y-72057480D02*
X15385846Y-72057480D01*
G75*
G02*
X15238346Y-71909980I0J147500D01*
G01*
X15238346Y-71614980D01*
G75*
G02*
X15385846Y-71467480I147500J0D01*
G01*
X15730846Y-71467480D01*
G75*
G02*
X15878346Y-71614980I0J-147500D01*
G01*
X15878346Y-71909980D01*
G75*
G02*
X15730846Y-72057480I-147500J0D01*
G01*
G37*
G36*
G01*
X19487100Y-82689200D02*
X19832100Y-82689200D01*
G75*
G02*
X19979600Y-82836700I0J-147500D01*
G01*
X19979600Y-83131700D01*
G75*
G02*
X19832100Y-83279200I-147500J0D01*
G01*
X19487100Y-83279200D01*
G75*
G02*
X19339600Y-83131700I0J147500D01*
G01*
X19339600Y-82836700D01*
G75*
G02*
X19487100Y-82689200I147500J0D01*
G01*
G37*
G36*
G01*
X19487100Y-81719200D02*
X19832100Y-81719200D01*
G75*
G02*
X19979600Y-81866700I0J-147500D01*
G01*
X19979600Y-82161700D01*
G75*
G02*
X19832100Y-82309200I-147500J0D01*
G01*
X19487100Y-82309200D01*
G75*
G02*
X19339600Y-82161700I0J147500D01*
G01*
X19339600Y-81866700D01*
G75*
G02*
X19487100Y-81719200I147500J0D01*
G01*
G37*
G36*
G01*
X16980400Y-82060000D02*
X16980400Y-82405000D01*
G75*
G02*
X16832900Y-82552500I-147500J0D01*
G01*
X16537900Y-82552500D01*
G75*
G02*
X16390400Y-82405000I0J147500D01*
G01*
X16390400Y-82060000D01*
G75*
G02*
X16537900Y-81912500I147500J0D01*
G01*
X16832900Y-81912500D01*
G75*
G02*
X16980400Y-82060000I0J-147500D01*
G01*
G37*
G36*
G01*
X17950400Y-82060000D02*
X17950400Y-82405000D01*
G75*
G02*
X17802900Y-82552500I-147500J0D01*
G01*
X17507900Y-82552500D01*
G75*
G02*
X17360400Y-82405000I0J147500D01*
G01*
X17360400Y-82060000D01*
G75*
G02*
X17507900Y-81912500I147500J0D01*
G01*
X17802900Y-81912500D01*
G75*
G02*
X17950400Y-82060000I0J-147500D01*
G01*
G37*
G36*
G01*
X13221200Y-74808300D02*
X13221200Y-75153300D01*
G75*
G02*
X13073700Y-75300800I-147500J0D01*
G01*
X12778700Y-75300800D01*
G75*
G02*
X12631200Y-75153300I0J147500D01*
G01*
X12631200Y-74808300D01*
G75*
G02*
X12778700Y-74660800I147500J0D01*
G01*
X13073700Y-74660800D01*
G75*
G02*
X13221200Y-74808300I0J-147500D01*
G01*
G37*
G36*
G01*
X14191200Y-74808300D02*
X14191200Y-75153300D01*
G75*
G02*
X14043700Y-75300800I-147500J0D01*
G01*
X13748700Y-75300800D01*
G75*
G02*
X13601200Y-75153300I0J147500D01*
G01*
X13601200Y-74808300D01*
G75*
G02*
X13748700Y-74660800I147500J0D01*
G01*
X14043700Y-74660800D01*
G75*
G02*
X14191200Y-74808300I0J-147500D01*
G01*
G37*
G36*
G01*
X32308301Y-81858901D02*
X32308301Y-81513901D01*
G75*
G02*
X32455801Y-81366401I147500J0D01*
G01*
X32750801Y-81366401D01*
G75*
G02*
X32898301Y-81513901I0J-147500D01*
G01*
X32898301Y-81858901D01*
G75*
G02*
X32750801Y-82006401I-147500J0D01*
G01*
X32455801Y-82006401D01*
G75*
G02*
X32308301Y-81858901I0J147500D01*
G01*
G37*
G36*
G01*
X31338301Y-81858901D02*
X31338301Y-81513901D01*
G75*
G02*
X31485801Y-81366401I147500J0D01*
G01*
X31780801Y-81366401D01*
G75*
G02*
X31928301Y-81513901I0J-147500D01*
G01*
X31928301Y-81858901D01*
G75*
G02*
X31780801Y-82006401I-147500J0D01*
G01*
X31485801Y-82006401D01*
G75*
G02*
X31338301Y-81858901I0J147500D01*
G01*
G37*
G36*
G01*
X13221200Y-78719900D02*
X13221200Y-79064900D01*
G75*
G02*
X13073700Y-79212400I-147500J0D01*
G01*
X12778700Y-79212400D01*
G75*
G02*
X12631200Y-79064900I0J147500D01*
G01*
X12631200Y-78719900D01*
G75*
G02*
X12778700Y-78572400I147500J0D01*
G01*
X13073700Y-78572400D01*
G75*
G02*
X13221200Y-78719900I0J-147500D01*
G01*
G37*
G36*
G01*
X14191200Y-78719900D02*
X14191200Y-79064900D01*
G75*
G02*
X14043700Y-79212400I-147500J0D01*
G01*
X13748700Y-79212400D01*
G75*
G02*
X13601200Y-79064900I0J147500D01*
G01*
X13601200Y-78719900D01*
G75*
G02*
X13748700Y-78572400I147500J0D01*
G01*
X14043700Y-78572400D01*
G75*
G02*
X14191200Y-78719900I0J-147500D01*
G01*
G37*
G36*
G01*
X13221200Y-76789500D02*
X13221200Y-77134500D01*
G75*
G02*
X13073700Y-77282000I-147500J0D01*
G01*
X12778700Y-77282000D01*
G75*
G02*
X12631200Y-77134500I0J147500D01*
G01*
X12631200Y-76789500D01*
G75*
G02*
X12778700Y-76642000I147500J0D01*
G01*
X13073700Y-76642000D01*
G75*
G02*
X13221200Y-76789500I0J-147500D01*
G01*
G37*
G36*
G01*
X14191200Y-76789500D02*
X14191200Y-77134500D01*
G75*
G02*
X14043700Y-77282000I-147500J0D01*
G01*
X13748700Y-77282000D01*
G75*
G02*
X13601200Y-77134500I0J147500D01*
G01*
X13601200Y-76789500D01*
G75*
G02*
X13748700Y-76642000I147500J0D01*
G01*
X14043700Y-76642000D01*
G75*
G02*
X14191200Y-76789500I0J-147500D01*
G01*
G37*
G36*
G01*
X15169100Y-88226400D02*
X15514100Y-88226400D01*
G75*
G02*
X15661600Y-88373900I0J-147500D01*
G01*
X15661600Y-88668900D01*
G75*
G02*
X15514100Y-88816400I-147500J0D01*
G01*
X15169100Y-88816400D01*
G75*
G02*
X15021600Y-88668900I0J147500D01*
G01*
X15021600Y-88373900D01*
G75*
G02*
X15169100Y-88226400I147500J0D01*
G01*
G37*
G36*
G01*
X15169100Y-87256400D02*
X15514100Y-87256400D01*
G75*
G02*
X15661600Y-87403900I0J-147500D01*
G01*
X15661600Y-87698900D01*
G75*
G02*
X15514100Y-87846400I-147500J0D01*
G01*
X15169100Y-87846400D01*
G75*
G02*
X15021600Y-87698900I0J147500D01*
G01*
X15021600Y-87403900D01*
G75*
G02*
X15169100Y-87256400I147500J0D01*
G01*
G37*
G36*
G01*
X14604780Y-71087480D02*
X14259780Y-71087480D01*
G75*
G02*
X14112280Y-70939980I0J147500D01*
G01*
X14112280Y-70644980D01*
G75*
G02*
X14259780Y-70497480I147500J0D01*
G01*
X14604780Y-70497480D01*
G75*
G02*
X14752280Y-70644980I0J-147500D01*
G01*
X14752280Y-70939980D01*
G75*
G02*
X14604780Y-71087480I-147500J0D01*
G01*
G37*
G36*
G01*
X14604780Y-72057480D02*
X14259780Y-72057480D01*
G75*
G02*
X14112280Y-71909980I0J147500D01*
G01*
X14112280Y-71614980D01*
G75*
G02*
X14259780Y-71467480I147500J0D01*
G01*
X14604780Y-71467480D01*
G75*
G02*
X14752280Y-71614980I0J-147500D01*
G01*
X14752280Y-71909980D01*
G75*
G02*
X14604780Y-72057480I-147500J0D01*
G01*
G37*
G36*
G01*
X26352000Y-73121298D02*
X26352000Y-72776298D01*
G75*
G02*
X26499500Y-72628798I147500J0D01*
G01*
X26794500Y-72628798D01*
G75*
G02*
X26942000Y-72776298I0J-147500D01*
G01*
X26942000Y-73121298D01*
G75*
G02*
X26794500Y-73268798I-147500J0D01*
G01*
X26499500Y-73268798D01*
G75*
G02*
X26352000Y-73121298I0J147500D01*
G01*
G37*
G36*
G01*
X25382000Y-73121298D02*
X25382000Y-72776298D01*
G75*
G02*
X25529500Y-72628798I147500J0D01*
G01*
X25824500Y-72628798D01*
G75*
G02*
X25972000Y-72776298I0J-147500D01*
G01*
X25972000Y-73121298D01*
G75*
G02*
X25824500Y-73268798I-147500J0D01*
G01*
X25529500Y-73268798D01*
G75*
G02*
X25382000Y-73121298I0J147500D01*
G01*
G37*
G36*
G01*
X13289500Y-88328000D02*
X13634500Y-88328000D01*
G75*
G02*
X13782000Y-88475500I0J-147500D01*
G01*
X13782000Y-88770500D01*
G75*
G02*
X13634500Y-88918000I-147500J0D01*
G01*
X13289500Y-88918000D01*
G75*
G02*
X13142000Y-88770500I0J147500D01*
G01*
X13142000Y-88475500D01*
G75*
G02*
X13289500Y-88328000I147500J0D01*
G01*
G37*
G36*
G01*
X13289500Y-87358000D02*
X13634500Y-87358000D01*
G75*
G02*
X13782000Y-87505500I0J-147500D01*
G01*
X13782000Y-87800500D01*
G75*
G02*
X13634500Y-87948000I-147500J0D01*
G01*
X13289500Y-87948000D01*
G75*
G02*
X13142000Y-87800500I0J147500D01*
G01*
X13142000Y-87505500D01*
G75*
G02*
X13289500Y-87358000I147500J0D01*
G01*
G37*
G36*
G01*
X17945600Y-83241100D02*
X17945600Y-83586100D01*
G75*
G02*
X17798100Y-83733600I-147500J0D01*
G01*
X17503100Y-83733600D01*
G75*
G02*
X17355600Y-83586100I0J147500D01*
G01*
X17355600Y-83241100D01*
G75*
G02*
X17503100Y-83093600I147500J0D01*
G01*
X17798100Y-83093600D01*
G75*
G02*
X17945600Y-83241100I0J-147500D01*
G01*
G37*
G36*
G01*
X18915600Y-83241100D02*
X18915600Y-83586100D01*
G75*
G02*
X18768100Y-83733600I-147500J0D01*
G01*
X18473100Y-83733600D01*
G75*
G02*
X18325600Y-83586100I0J147500D01*
G01*
X18325600Y-83241100D01*
G75*
G02*
X18473100Y-83093600I147500J0D01*
G01*
X18768100Y-83093600D01*
G75*
G02*
X18915600Y-83241100I0J-147500D01*
G01*
G37*
G36*
G01*
X20289300Y-70828400D02*
X19944300Y-70828400D01*
G75*
G02*
X19796800Y-70680900I0J147500D01*
G01*
X19796800Y-70385900D01*
G75*
G02*
X19944300Y-70238400I147500J0D01*
G01*
X20289300Y-70238400D01*
G75*
G02*
X20436800Y-70385900I0J-147500D01*
G01*
X20436800Y-70680900D01*
G75*
G02*
X20289300Y-70828400I-147500J0D01*
G01*
G37*
G36*
G01*
X20289300Y-71798400D02*
X19944300Y-71798400D01*
G75*
G02*
X19796800Y-71650900I0J147500D01*
G01*
X19796800Y-71355900D01*
G75*
G02*
X19944300Y-71208400I147500J0D01*
G01*
X20289300Y-71208400D01*
G75*
G02*
X20436800Y-71355900I0J-147500D01*
G01*
X20436800Y-71650900D01*
G75*
G02*
X20289300Y-71798400I-147500J0D01*
G01*
G37*
G36*
G01*
X56903400Y-68301100D02*
X56558400Y-68301100D01*
G75*
G02*
X56410900Y-68153600I0J147500D01*
G01*
X56410900Y-67858600D01*
G75*
G02*
X56558400Y-67711100I147500J0D01*
G01*
X56903400Y-67711100D01*
G75*
G02*
X57050900Y-67858600I0J-147500D01*
G01*
X57050900Y-68153600D01*
G75*
G02*
X56903400Y-68301100I-147500J0D01*
G01*
G37*
G36*
G01*
X56903400Y-69271100D02*
X56558400Y-69271100D01*
G75*
G02*
X56410900Y-69123600I0J147500D01*
G01*
X56410900Y-68828600D01*
G75*
G02*
X56558400Y-68681100I147500J0D01*
G01*
X56903400Y-68681100D01*
G75*
G02*
X57050900Y-68828600I0J-147500D01*
G01*
X57050900Y-69123600D01*
G75*
G02*
X56903400Y-69271100I-147500J0D01*
G01*
G37*
G36*
G01*
X51529200Y-68681100D02*
X51874200Y-68681100D01*
G75*
G02*
X52021700Y-68828600I0J-147500D01*
G01*
X52021700Y-69123600D01*
G75*
G02*
X51874200Y-69271100I-147500J0D01*
G01*
X51529200Y-69271100D01*
G75*
G02*
X51381700Y-69123600I0J147500D01*
G01*
X51381700Y-68828600D01*
G75*
G02*
X51529200Y-68681100I147500J0D01*
G01*
G37*
G36*
G01*
X51529200Y-67711100D02*
X51874200Y-67711100D01*
G75*
G02*
X52021700Y-67858600I0J-147500D01*
G01*
X52021700Y-68153600D01*
G75*
G02*
X51874200Y-68301100I-147500J0D01*
G01*
X51529200Y-68301100D01*
G75*
G02*
X51381700Y-68153600I0J147500D01*
G01*
X51381700Y-67858600D01*
G75*
G02*
X51529200Y-67711100I147500J0D01*
G01*
G37*
G36*
G01*
X53550600Y-68301100D02*
X53205600Y-68301100D01*
G75*
G02*
X53058100Y-68153600I0J147500D01*
G01*
X53058100Y-67858600D01*
G75*
G02*
X53205600Y-67711100I147500J0D01*
G01*
X53550600Y-67711100D01*
G75*
G02*
X53698100Y-67858600I0J-147500D01*
G01*
X53698100Y-68153600D01*
G75*
G02*
X53550600Y-68301100I-147500J0D01*
G01*
G37*
G36*
G01*
X53550600Y-69271100D02*
X53205600Y-69271100D01*
G75*
G02*
X53058100Y-69123600I0J147500D01*
G01*
X53058100Y-68828600D01*
G75*
G02*
X53205600Y-68681100I147500J0D01*
G01*
X53550600Y-68681100D01*
G75*
G02*
X53698100Y-68828600I0J-147500D01*
G01*
X53698100Y-69123600D01*
G75*
G02*
X53550600Y-69271100I-147500J0D01*
G01*
G37*
G36*
G01*
X48673800Y-68301100D02*
X48328800Y-68301100D01*
G75*
G02*
X48181300Y-68153600I0J147500D01*
G01*
X48181300Y-67858600D01*
G75*
G02*
X48328800Y-67711100I147500J0D01*
G01*
X48673800Y-67711100D01*
G75*
G02*
X48821300Y-67858600I0J-147500D01*
G01*
X48821300Y-68153600D01*
G75*
G02*
X48673800Y-68301100I-147500J0D01*
G01*
G37*
G36*
G01*
X48673800Y-69271100D02*
X48328800Y-69271100D01*
G75*
G02*
X48181300Y-69123600I0J147500D01*
G01*
X48181300Y-68828600D01*
G75*
G02*
X48328800Y-68681100I147500J0D01*
G01*
X48673800Y-68681100D01*
G75*
G02*
X48821300Y-68828600I0J-147500D01*
G01*
X48821300Y-69123600D01*
G75*
G02*
X48673800Y-69271100I-147500J0D01*
G01*
G37*
G36*
G01*
X49852800Y-68681100D02*
X50197800Y-68681100D01*
G75*
G02*
X50345300Y-68828600I0J-147500D01*
G01*
X50345300Y-69123600D01*
G75*
G02*
X50197800Y-69271100I-147500J0D01*
G01*
X49852800Y-69271100D01*
G75*
G02*
X49705300Y-69123600I0J147500D01*
G01*
X49705300Y-68828600D01*
G75*
G02*
X49852800Y-68681100I147500J0D01*
G01*
G37*
G36*
G01*
X49852800Y-67711100D02*
X50197800Y-67711100D01*
G75*
G02*
X50345300Y-67858600I0J-147500D01*
G01*
X50345300Y-68153600D01*
G75*
G02*
X50197800Y-68301100I-147500J0D01*
G01*
X49852800Y-68301100D01*
G75*
G02*
X49705300Y-68153600I0J147500D01*
G01*
X49705300Y-67858600D01*
G75*
G02*
X49852800Y-67711100I147500J0D01*
G01*
G37*
G36*
G01*
X39747960Y-37906740D02*
X39747960Y-37561740D01*
G75*
G02*
X39895460Y-37414240I147500J0D01*
G01*
X40190460Y-37414240D01*
G75*
G02*
X40337960Y-37561740I0J-147500D01*
G01*
X40337960Y-37906740D01*
G75*
G02*
X40190460Y-38054240I-147500J0D01*
G01*
X39895460Y-38054240D01*
G75*
G02*
X39747960Y-37906740I0J147500D01*
G01*
G37*
G36*
G01*
X38777960Y-37906740D02*
X38777960Y-37561740D01*
G75*
G02*
X38925460Y-37414240I147500J0D01*
G01*
X39220460Y-37414240D01*
G75*
G02*
X39367960Y-37561740I0J-147500D01*
G01*
X39367960Y-37906740D01*
G75*
G02*
X39220460Y-38054240I-147500J0D01*
G01*
X38925460Y-38054240D01*
G75*
G02*
X38777960Y-37906740I0J147500D01*
G01*
G37*
G36*
G01*
X61989200Y-36047900D02*
X61989200Y-36392900D01*
G75*
G02*
X61841700Y-36540400I-147500J0D01*
G01*
X61546700Y-36540400D01*
G75*
G02*
X61399200Y-36392900I0J147500D01*
G01*
X61399200Y-36047900D01*
G75*
G02*
X61546700Y-35900400I147500J0D01*
G01*
X61841700Y-35900400D01*
G75*
G02*
X61989200Y-36047900I0J-147500D01*
G01*
G37*
G36*
G01*
X62959200Y-36047900D02*
X62959200Y-36392900D01*
G75*
G02*
X62811700Y-36540400I-147500J0D01*
G01*
X62516700Y-36540400D01*
G75*
G02*
X62369200Y-36392900I0J147500D01*
G01*
X62369200Y-36047900D01*
G75*
G02*
X62516700Y-35900400I147500J0D01*
G01*
X62811700Y-35900400D01*
G75*
G02*
X62959200Y-36047900I0J-147500D01*
G01*
G37*
G36*
G01*
X55714400Y-20848100D02*
X55714400Y-20503100D01*
G75*
G02*
X55861900Y-20355600I147500J0D01*
G01*
X56156900Y-20355600D01*
G75*
G02*
X56304400Y-20503100I0J-147500D01*
G01*
X56304400Y-20848100D01*
G75*
G02*
X56156900Y-20995600I-147500J0D01*
G01*
X55861900Y-20995600D01*
G75*
G02*
X55714400Y-20848100I0J147500D01*
G01*
G37*
G36*
G01*
X54744400Y-20848100D02*
X54744400Y-20503100D01*
G75*
G02*
X54891900Y-20355600I147500J0D01*
G01*
X55186900Y-20355600D01*
G75*
G02*
X55334400Y-20503100I0J-147500D01*
G01*
X55334400Y-20848100D01*
G75*
G02*
X55186900Y-20995600I-147500J0D01*
G01*
X54891900Y-20995600D01*
G75*
G02*
X54744400Y-20848100I0J147500D01*
G01*
G37*
G36*
G01*
X64935600Y-36047900D02*
X64935600Y-36392900D01*
G75*
G02*
X64788100Y-36540400I-147500J0D01*
G01*
X64493100Y-36540400D01*
G75*
G02*
X64345600Y-36392900I0J147500D01*
G01*
X64345600Y-36047900D01*
G75*
G02*
X64493100Y-35900400I147500J0D01*
G01*
X64788100Y-35900400D01*
G75*
G02*
X64935600Y-36047900I0J-147500D01*
G01*
G37*
G36*
G01*
X65905600Y-36047900D02*
X65905600Y-36392900D01*
G75*
G02*
X65758100Y-36540400I-147500J0D01*
G01*
X65463100Y-36540400D01*
G75*
G02*
X65315600Y-36392900I0J147500D01*
G01*
X65315600Y-36047900D01*
G75*
G02*
X65463100Y-35900400I147500J0D01*
G01*
X65758100Y-35900400D01*
G75*
G02*
X65905600Y-36047900I0J-147500D01*
G01*
G37*
G36*
G01*
X55334400Y-19182300D02*
X55334400Y-19527300D01*
G75*
G02*
X55186900Y-19674800I-147500J0D01*
G01*
X54891900Y-19674800D01*
G75*
G02*
X54744400Y-19527300I0J147500D01*
G01*
X54744400Y-19182300D01*
G75*
G02*
X54891900Y-19034800I147500J0D01*
G01*
X55186900Y-19034800D01*
G75*
G02*
X55334400Y-19182300I0J-147500D01*
G01*
G37*
G36*
G01*
X56304400Y-19182300D02*
X56304400Y-19527300D01*
G75*
G02*
X56156900Y-19674800I-147500J0D01*
G01*
X55861900Y-19674800D01*
G75*
G02*
X55714400Y-19527300I0J147500D01*
G01*
X55714400Y-19182300D01*
G75*
G02*
X55861900Y-19034800I147500J0D01*
G01*
X56156900Y-19034800D01*
G75*
G02*
X56304400Y-19182300I0J-147500D01*
G01*
G37*
G36*
G01*
X58696360Y-28036300D02*
X58696360Y-27691300D01*
G75*
G02*
X58843860Y-27543800I147500J0D01*
G01*
X59138860Y-27543800D01*
G75*
G02*
X59286360Y-27691300I0J-147500D01*
G01*
X59286360Y-28036300D01*
G75*
G02*
X59138860Y-28183800I-147500J0D01*
G01*
X58843860Y-28183800D01*
G75*
G02*
X58696360Y-28036300I0J147500D01*
G01*
G37*
G36*
G01*
X57726360Y-28036300D02*
X57726360Y-27691300D01*
G75*
G02*
X57873860Y-27543800I147500J0D01*
G01*
X58168860Y-27543800D01*
G75*
G02*
X58316360Y-27691300I0J-147500D01*
G01*
X58316360Y-28036300D01*
G75*
G02*
X58168860Y-28183800I-147500J0D01*
G01*
X57873860Y-28183800D01*
G75*
G02*
X57726360Y-28036300I0J147500D01*
G01*
G37*
G36*
G01*
X59055220Y-34419040D02*
X59400220Y-34419040D01*
G75*
G02*
X59547720Y-34566540I0J-147500D01*
G01*
X59547720Y-34861540D01*
G75*
G02*
X59400220Y-35009040I-147500J0D01*
G01*
X59055220Y-35009040D01*
G75*
G02*
X58907720Y-34861540I0J147500D01*
G01*
X58907720Y-34566540D01*
G75*
G02*
X59055220Y-34419040I147500J0D01*
G01*
G37*
G36*
G01*
X59055220Y-33449040D02*
X59400220Y-33449040D01*
G75*
G02*
X59547720Y-33596540I0J-147500D01*
G01*
X59547720Y-33891540D01*
G75*
G02*
X59400220Y-34039040I-147500J0D01*
G01*
X59055220Y-34039040D01*
G75*
G02*
X58907720Y-33891540I0J147500D01*
G01*
X58907720Y-33596540D01*
G75*
G02*
X59055220Y-33449040I147500J0D01*
G01*
G37*
G36*
G01*
X58179200Y-26319700D02*
X58179200Y-26664700D01*
G75*
G02*
X58031700Y-26812200I-147500J0D01*
G01*
X57736700Y-26812200D01*
G75*
G02*
X57589200Y-26664700I0J147500D01*
G01*
X57589200Y-26319700D01*
G75*
G02*
X57736700Y-26172200I147500J0D01*
G01*
X58031700Y-26172200D01*
G75*
G02*
X58179200Y-26319700I0J-147500D01*
G01*
G37*
G36*
G01*
X59149200Y-26319700D02*
X59149200Y-26664700D01*
G75*
G02*
X59001700Y-26812200I-147500J0D01*
G01*
X58706700Y-26812200D01*
G75*
G02*
X58559200Y-26664700I0J147500D01*
G01*
X58559200Y-26319700D01*
G75*
G02*
X58706700Y-26172200I147500J0D01*
G01*
X59001700Y-26172200D01*
G75*
G02*
X59149200Y-26319700I0J-147500D01*
G01*
G37*
G36*
G01*
X54077100Y-24440100D02*
X54077100Y-24785100D01*
G75*
G02*
X53929600Y-24932600I-147500J0D01*
G01*
X53634600Y-24932600D01*
G75*
G02*
X53487100Y-24785100I0J147500D01*
G01*
X53487100Y-24440100D01*
G75*
G02*
X53634600Y-24292600I147500J0D01*
G01*
X53929600Y-24292600D01*
G75*
G02*
X54077100Y-24440100I0J-147500D01*
G01*
G37*
G36*
G01*
X55047100Y-24440100D02*
X55047100Y-24785100D01*
G75*
G02*
X54899600Y-24932600I-147500J0D01*
G01*
X54604600Y-24932600D01*
G75*
G02*
X54457100Y-24785100I0J147500D01*
G01*
X54457100Y-24440100D01*
G75*
G02*
X54604600Y-24292600I147500J0D01*
G01*
X54899600Y-24292600D01*
G75*
G02*
X55047100Y-24440100I0J-147500D01*
G01*
G37*
G36*
G01*
X58636400Y-24516300D02*
X58636400Y-24861300D01*
G75*
G02*
X58488900Y-25008800I-147500J0D01*
G01*
X58193900Y-25008800D01*
G75*
G02*
X58046400Y-24861300I0J147500D01*
G01*
X58046400Y-24516300D01*
G75*
G02*
X58193900Y-24368800I147500J0D01*
G01*
X58488900Y-24368800D01*
G75*
G02*
X58636400Y-24516300I0J-147500D01*
G01*
G37*
G36*
G01*
X59606400Y-24516300D02*
X59606400Y-24861300D01*
G75*
G02*
X59458900Y-25008800I-147500J0D01*
G01*
X59163900Y-25008800D01*
G75*
G02*
X59016400Y-24861300I0J147500D01*
G01*
X59016400Y-24516300D01*
G75*
G02*
X59163900Y-24368800I147500J0D01*
G01*
X59458900Y-24368800D01*
G75*
G02*
X59606400Y-24516300I0J-147500D01*
G01*
G37*
G36*
G01*
X56553600Y-24516300D02*
X56553600Y-24861300D01*
G75*
G02*
X56406100Y-25008800I-147500J0D01*
G01*
X56111100Y-25008800D01*
G75*
G02*
X55963600Y-24861300I0J147500D01*
G01*
X55963600Y-24516300D01*
G75*
G02*
X56111100Y-24368800I147500J0D01*
G01*
X56406100Y-24368800D01*
G75*
G02*
X56553600Y-24516300I0J-147500D01*
G01*
G37*
G36*
G01*
X57523600Y-24516300D02*
X57523600Y-24861300D01*
G75*
G02*
X57376100Y-25008800I-147500J0D01*
G01*
X57081100Y-25008800D01*
G75*
G02*
X56933600Y-24861300I0J147500D01*
G01*
X56933600Y-24516300D01*
G75*
G02*
X57081100Y-24368800I147500J0D01*
G01*
X57376100Y-24368800D01*
G75*
G02*
X57523600Y-24516300I0J-147500D01*
G01*
G37*
G36*
G01*
X41160200Y-53791899D02*
X41160200Y-53446899D01*
G75*
G02*
X41307700Y-53299399I147500J0D01*
G01*
X41602700Y-53299399D01*
G75*
G02*
X41750200Y-53446899I0J-147500D01*
G01*
X41750200Y-53791899D01*
G75*
G02*
X41602700Y-53939399I-147500J0D01*
G01*
X41307700Y-53939399D01*
G75*
G02*
X41160200Y-53791899I0J147500D01*
G01*
G37*
G36*
G01*
X40190200Y-53791899D02*
X40190200Y-53446899D01*
G75*
G02*
X40337700Y-53299399I147500J0D01*
G01*
X40632700Y-53299399D01*
G75*
G02*
X40780200Y-53446899I0J-147500D01*
G01*
X40780200Y-53791899D01*
G75*
G02*
X40632700Y-53939399I-147500J0D01*
G01*
X40337700Y-53939399D01*
G75*
G02*
X40190200Y-53791899I0J147500D01*
G01*
G37*
G36*
G01*
X37914800Y-46887900D02*
X38259800Y-46887900D01*
G75*
G02*
X38407300Y-47035400I0J-147500D01*
G01*
X38407300Y-47330400D01*
G75*
G02*
X38259800Y-47477900I-147500J0D01*
G01*
X37914800Y-47477900D01*
G75*
G02*
X37767300Y-47330400I0J147500D01*
G01*
X37767300Y-47035400D01*
G75*
G02*
X37914800Y-46887900I147500J0D01*
G01*
G37*
G36*
G01*
X37914800Y-45917900D02*
X38259800Y-45917900D01*
G75*
G02*
X38407300Y-46065400I0J-147500D01*
G01*
X38407300Y-46360400D01*
G75*
G02*
X38259800Y-46507900I-147500J0D01*
G01*
X37914800Y-46507900D01*
G75*
G02*
X37767300Y-46360400I0J147500D01*
G01*
X37767300Y-46065400D01*
G75*
G02*
X37914800Y-45917900I147500J0D01*
G01*
G37*
G36*
G01*
X33792575Y-46507900D02*
X33447575Y-46507900D01*
G75*
G02*
X33300075Y-46360400I0J147500D01*
G01*
X33300075Y-46065400D01*
G75*
G02*
X33447575Y-45917900I147500J0D01*
G01*
X33792575Y-45917900D01*
G75*
G02*
X33940075Y-46065400I0J-147500D01*
G01*
X33940075Y-46360400D01*
G75*
G02*
X33792575Y-46507900I-147500J0D01*
G01*
G37*
G36*
G01*
X33792575Y-47477900D02*
X33447575Y-47477900D01*
G75*
G02*
X33300075Y-47330400I0J147500D01*
G01*
X33300075Y-47035400D01*
G75*
G02*
X33447575Y-46887900I147500J0D01*
G01*
X33792575Y-46887900D01*
G75*
G02*
X33940075Y-47035400I0J-147500D01*
G01*
X33940075Y-47330400D01*
G75*
G02*
X33792575Y-47477900I-147500J0D01*
G01*
G37*
G36*
G01*
X35281650Y-46507900D02*
X34936650Y-46507900D01*
G75*
G02*
X34789150Y-46360400I0J147500D01*
G01*
X34789150Y-46065400D01*
G75*
G02*
X34936650Y-45917900I147500J0D01*
G01*
X35281650Y-45917900D01*
G75*
G02*
X35429150Y-46065400I0J-147500D01*
G01*
X35429150Y-46360400D01*
G75*
G02*
X35281650Y-46507900I-147500J0D01*
G01*
G37*
G36*
G01*
X35281650Y-47477900D02*
X34936650Y-47477900D01*
G75*
G02*
X34789150Y-47330400I0J147500D01*
G01*
X34789150Y-47035400D01*
G75*
G02*
X34936650Y-46887900I147500J0D01*
G01*
X35281650Y-46887900D01*
G75*
G02*
X35429150Y-47035400I0J-147500D01*
G01*
X35429150Y-47330400D01*
G75*
G02*
X35281650Y-47477900I-147500J0D01*
G01*
G37*
G36*
G01*
X36770725Y-46507900D02*
X36425725Y-46507900D01*
G75*
G02*
X36278225Y-46360400I0J147500D01*
G01*
X36278225Y-46065400D01*
G75*
G02*
X36425725Y-45917900I147500J0D01*
G01*
X36770725Y-45917900D01*
G75*
G02*
X36918225Y-46065400I0J-147500D01*
G01*
X36918225Y-46360400D01*
G75*
G02*
X36770725Y-46507900I-147500J0D01*
G01*
G37*
G36*
G01*
X36770725Y-47477900D02*
X36425725Y-47477900D01*
G75*
G02*
X36278225Y-47330400I0J147500D01*
G01*
X36278225Y-47035400D01*
G75*
G02*
X36425725Y-46887900I147500J0D01*
G01*
X36770725Y-46887900D01*
G75*
G02*
X36918225Y-47035400I0J-147500D01*
G01*
X36918225Y-47330400D01*
G75*
G02*
X36770725Y-47477900I-147500J0D01*
G01*
G37*
G36*
G01*
X31958500Y-46887900D02*
X32303500Y-46887900D01*
G75*
G02*
X32451000Y-47035400I0J-147500D01*
G01*
X32451000Y-47330400D01*
G75*
G02*
X32303500Y-47477900I-147500J0D01*
G01*
X31958500Y-47477900D01*
G75*
G02*
X31811000Y-47330400I0J147500D01*
G01*
X31811000Y-47035400D01*
G75*
G02*
X31958500Y-46887900I147500J0D01*
G01*
G37*
G36*
G01*
X31958500Y-45917900D02*
X32303500Y-45917900D01*
G75*
G02*
X32451000Y-46065400I0J-147500D01*
G01*
X32451000Y-46360400D01*
G75*
G02*
X32303500Y-46507900I-147500J0D01*
G01*
X31958500Y-46507900D01*
G75*
G02*
X31811000Y-46360400I0J147500D01*
G01*
X31811000Y-46065400D01*
G75*
G02*
X31958500Y-45917900I147500J0D01*
G01*
G37*
G36*
G01*
X26288500Y-52496500D02*
X26288500Y-52151500D01*
G75*
G02*
X26436000Y-52004000I147500J0D01*
G01*
X26731000Y-52004000D01*
G75*
G02*
X26878500Y-52151500I0J-147500D01*
G01*
X26878500Y-52496500D01*
G75*
G02*
X26731000Y-52644000I-147500J0D01*
G01*
X26436000Y-52644000D01*
G75*
G02*
X26288500Y-52496500I0J147500D01*
G01*
G37*
G36*
G01*
X25318500Y-52496500D02*
X25318500Y-52151500D01*
G75*
G02*
X25466000Y-52004000I147500J0D01*
G01*
X25761000Y-52004000D01*
G75*
G02*
X25908500Y-52151500I0J-147500D01*
G01*
X25908500Y-52496500D01*
G75*
G02*
X25761000Y-52644000I-147500J0D01*
G01*
X25466000Y-52644000D01*
G75*
G02*
X25318500Y-52496500I0J147500D01*
G01*
G37*
G36*
G01*
X46746800Y-24567100D02*
X46746800Y-24912100D01*
G75*
G02*
X46599300Y-25059600I-147500J0D01*
G01*
X46304300Y-25059600D01*
G75*
G02*
X46156800Y-24912100I0J147500D01*
G01*
X46156800Y-24567100D01*
G75*
G02*
X46304300Y-24419600I147500J0D01*
G01*
X46599300Y-24419600D01*
G75*
G02*
X46746800Y-24567100I0J-147500D01*
G01*
G37*
G36*
G01*
X47716800Y-24567100D02*
X47716800Y-24912100D01*
G75*
G02*
X47569300Y-25059600I-147500J0D01*
G01*
X47274300Y-25059600D01*
G75*
G02*
X47126800Y-24912100I0J147500D01*
G01*
X47126800Y-24567100D01*
G75*
G02*
X47274300Y-24419600I147500J0D01*
G01*
X47569300Y-24419600D01*
G75*
G02*
X47716800Y-24567100I0J-147500D01*
G01*
G37*
G36*
G01*
X47126800Y-18168400D02*
X47126800Y-17823400D01*
G75*
G02*
X47274300Y-17675900I147500J0D01*
G01*
X47569300Y-17675900D01*
G75*
G02*
X47716800Y-17823400I0J-147500D01*
G01*
X47716800Y-18168400D01*
G75*
G02*
X47569300Y-18315900I-147500J0D01*
G01*
X47274300Y-18315900D01*
G75*
G02*
X47126800Y-18168400I0J147500D01*
G01*
G37*
G36*
G01*
X46156800Y-18168400D02*
X46156800Y-17823400D01*
G75*
G02*
X46304300Y-17675900I147500J0D01*
G01*
X46599300Y-17675900D01*
G75*
G02*
X46746800Y-17823400I0J-147500D01*
G01*
X46746800Y-18168400D01*
G75*
G02*
X46599300Y-18315900I-147500J0D01*
G01*
X46304300Y-18315900D01*
G75*
G02*
X46156800Y-18168400I0J147500D01*
G01*
G37*
G36*
G01*
X60438800Y-43301700D02*
X60438800Y-42956700D01*
G75*
G02*
X60586300Y-42809200I147500J0D01*
G01*
X60881300Y-42809200D01*
G75*
G02*
X61028800Y-42956700I0J-147500D01*
G01*
X61028800Y-43301700D01*
G75*
G02*
X60881300Y-43449200I-147500J0D01*
G01*
X60586300Y-43449200D01*
G75*
G02*
X60438800Y-43301700I0J147500D01*
G01*
G37*
G36*
G01*
X59468800Y-43301700D02*
X59468800Y-42956700D01*
G75*
G02*
X59616300Y-42809200I147500J0D01*
G01*
X59911300Y-42809200D01*
G75*
G02*
X60058800Y-42956700I0J-147500D01*
G01*
X60058800Y-43301700D01*
G75*
G02*
X59911300Y-43449200I-147500J0D01*
G01*
X59616300Y-43449200D01*
G75*
G02*
X59468800Y-43301700I0J147500D01*
G01*
G37*
G36*
G01*
X26321520Y-84307460D02*
X26321520Y-83962460D01*
G75*
G02*
X26469020Y-83814960I147500J0D01*
G01*
X26764020Y-83814960D01*
G75*
G02*
X26911520Y-83962460I0J-147500D01*
G01*
X26911520Y-84307460D01*
G75*
G02*
X26764020Y-84454960I-147500J0D01*
G01*
X26469020Y-84454960D01*
G75*
G02*
X26321520Y-84307460I0J147500D01*
G01*
G37*
G36*
G01*
X25351520Y-84307460D02*
X25351520Y-83962460D01*
G75*
G02*
X25499020Y-83814960I147500J0D01*
G01*
X25794020Y-83814960D01*
G75*
G02*
X25941520Y-83962460I0J-147500D01*
G01*
X25941520Y-84307460D01*
G75*
G02*
X25794020Y-84454960I-147500J0D01*
G01*
X25499020Y-84454960D01*
G75*
G02*
X25351520Y-84307460I0J147500D01*
G01*
G37*
G36*
G01*
X23161760Y-88671180D02*
X23161760Y-88326180D01*
G75*
G02*
X23309260Y-88178680I147500J0D01*
G01*
X23604260Y-88178680D01*
G75*
G02*
X23751760Y-88326180I0J-147500D01*
G01*
X23751760Y-88671180D01*
G75*
G02*
X23604260Y-88818680I-147500J0D01*
G01*
X23309260Y-88818680D01*
G75*
G02*
X23161760Y-88671180I0J147500D01*
G01*
G37*
G36*
G01*
X22191760Y-88671180D02*
X22191760Y-88326180D01*
G75*
G02*
X22339260Y-88178680I147500J0D01*
G01*
X22634260Y-88178680D01*
G75*
G02*
X22781760Y-88326180I0J-147500D01*
G01*
X22781760Y-88671180D01*
G75*
G02*
X22634260Y-88818680I-147500J0D01*
G01*
X22339260Y-88818680D01*
G75*
G02*
X22191760Y-88671180I0J147500D01*
G01*
G37*
G36*
G01*
X21023080Y-27670540D02*
X21023080Y-27325540D01*
G75*
G02*
X21170580Y-27178040I147500J0D01*
G01*
X21465580Y-27178040D01*
G75*
G02*
X21613080Y-27325540I0J-147500D01*
G01*
X21613080Y-27670540D01*
G75*
G02*
X21465580Y-27818040I-147500J0D01*
G01*
X21170580Y-27818040D01*
G75*
G02*
X21023080Y-27670540I0J147500D01*
G01*
G37*
G36*
G01*
X20053080Y-27670540D02*
X20053080Y-27325540D01*
G75*
G02*
X20200580Y-27178040I147500J0D01*
G01*
X20495580Y-27178040D01*
G75*
G02*
X20643080Y-27325540I0J-147500D01*
G01*
X20643080Y-27670540D01*
G75*
G02*
X20495580Y-27818040I-147500J0D01*
G01*
X20200580Y-27818040D01*
G75*
G02*
X20053080Y-27670540I0J147500D01*
G01*
G37*
G36*
G01*
X21018000Y-28691620D02*
X21018000Y-28346620D01*
G75*
G02*
X21165500Y-28199120I147500J0D01*
G01*
X21460500Y-28199120D01*
G75*
G02*
X21608000Y-28346620I0J-147500D01*
G01*
X21608000Y-28691620D01*
G75*
G02*
X21460500Y-28839120I-147500J0D01*
G01*
X21165500Y-28839120D01*
G75*
G02*
X21018000Y-28691620I0J147500D01*
G01*
G37*
G36*
G01*
X20048000Y-28691620D02*
X20048000Y-28346620D01*
G75*
G02*
X20195500Y-28199120I147500J0D01*
G01*
X20490500Y-28199120D01*
G75*
G02*
X20638000Y-28346620I0J-147500D01*
G01*
X20638000Y-28691620D01*
G75*
G02*
X20490500Y-28839120I-147500J0D01*
G01*
X20195500Y-28839120D01*
G75*
G02*
X20048000Y-28691620I0J147500D01*
G01*
G37*
G36*
G01*
X27495000Y-74094966D02*
X27495000Y-73749966D01*
G75*
G02*
X27642500Y-73602466I147500J0D01*
G01*
X27937500Y-73602466D01*
G75*
G02*
X28085000Y-73749966I0J-147500D01*
G01*
X28085000Y-74094966D01*
G75*
G02*
X27937500Y-74242466I-147500J0D01*
G01*
X27642500Y-74242466D01*
G75*
G02*
X27495000Y-74094966I0J147500D01*
G01*
G37*
G36*
G01*
X26525000Y-74094966D02*
X26525000Y-73749966D01*
G75*
G02*
X26672500Y-73602466I147500J0D01*
G01*
X26967500Y-73602466D01*
G75*
G02*
X27115000Y-73749966I0J-147500D01*
G01*
X27115000Y-74094966D01*
G75*
G02*
X26967500Y-74242466I-147500J0D01*
G01*
X26672500Y-74242466D01*
G75*
G02*
X26525000Y-74094966I0J147500D01*
G01*
G37*
G36*
G01*
X27749000Y-76507964D02*
X27749000Y-76162964D01*
G75*
G02*
X27896500Y-76015464I147500J0D01*
G01*
X28191500Y-76015464D01*
G75*
G02*
X28339000Y-76162964I0J-147500D01*
G01*
X28339000Y-76507964D01*
G75*
G02*
X28191500Y-76655464I-147500J0D01*
G01*
X27896500Y-76655464D01*
G75*
G02*
X27749000Y-76507964I0J147500D01*
G01*
G37*
G36*
G01*
X26779000Y-76507964D02*
X26779000Y-76162964D01*
G75*
G02*
X26926500Y-76015464I147500J0D01*
G01*
X27221500Y-76015464D01*
G75*
G02*
X27369000Y-76162964I0J-147500D01*
G01*
X27369000Y-76507964D01*
G75*
G02*
X27221500Y-76655464I-147500J0D01*
G01*
X26926500Y-76655464D01*
G75*
G02*
X26779000Y-76507964I0J147500D01*
G01*
G37*
G36*
G01*
X27749000Y-77642500D02*
X27749000Y-77297500D01*
G75*
G02*
X27896500Y-77150000I147500J0D01*
G01*
X28191500Y-77150000D01*
G75*
G02*
X28339000Y-77297500I0J-147500D01*
G01*
X28339000Y-77642500D01*
G75*
G02*
X28191500Y-77790000I-147500J0D01*
G01*
X27896500Y-77790000D01*
G75*
G02*
X27749000Y-77642500I0J147500D01*
G01*
G37*
G36*
G01*
X26779000Y-77642500D02*
X26779000Y-77297500D01*
G75*
G02*
X26926500Y-77150000I147500J0D01*
G01*
X27221500Y-77150000D01*
G75*
G02*
X27369000Y-77297500I0J-147500D01*
G01*
X27369000Y-77642500D01*
G75*
G02*
X27221500Y-77790000I-147500J0D01*
G01*
X26926500Y-77790000D01*
G75*
G02*
X26779000Y-77642500I0J147500D01*
G01*
G37*
G36*
G01*
X17982980Y-71087480D02*
X17637980Y-71087480D01*
G75*
G02*
X17490480Y-70939980I0J147500D01*
G01*
X17490480Y-70644980D01*
G75*
G02*
X17637980Y-70497480I147500J0D01*
G01*
X17982980Y-70497480D01*
G75*
G02*
X18130480Y-70644980I0J-147500D01*
G01*
X18130480Y-70939980D01*
G75*
G02*
X17982980Y-71087480I-147500J0D01*
G01*
G37*
G36*
G01*
X17982980Y-72057480D02*
X17637980Y-72057480D01*
G75*
G02*
X17490480Y-71909980I0J147500D01*
G01*
X17490480Y-71614980D01*
G75*
G02*
X17637980Y-71467480I147500J0D01*
G01*
X17982980Y-71467480D01*
G75*
G02*
X18130480Y-71614980I0J-147500D01*
G01*
X18130480Y-71909980D01*
G75*
G02*
X17982980Y-72057480I-147500J0D01*
G01*
G37*
G36*
G01*
X22860220Y-84990440D02*
X23205220Y-84990440D01*
G75*
G02*
X23352720Y-85137940I0J-147500D01*
G01*
X23352720Y-85432940D01*
G75*
G02*
X23205220Y-85580440I-147500J0D01*
G01*
X22860220Y-85580440D01*
G75*
G02*
X22712720Y-85432940I0J147500D01*
G01*
X22712720Y-85137940D01*
G75*
G02*
X22860220Y-84990440I147500J0D01*
G01*
G37*
G36*
G01*
X22860220Y-84020440D02*
X23205220Y-84020440D01*
G75*
G02*
X23352720Y-84167940I0J-147500D01*
G01*
X23352720Y-84462940D01*
G75*
G02*
X23205220Y-84610440I-147500J0D01*
G01*
X22860220Y-84610440D01*
G75*
G02*
X22712720Y-84462940I0J147500D01*
G01*
X22712720Y-84167940D01*
G75*
G02*
X22860220Y-84020440I147500J0D01*
G01*
G37*
G36*
G01*
X46723800Y-72890600D02*
X46723800Y-73235600D01*
G75*
G02*
X46576300Y-73383100I-147500J0D01*
G01*
X46281300Y-73383100D01*
G75*
G02*
X46133800Y-73235600I0J147500D01*
G01*
X46133800Y-72890600D01*
G75*
G02*
X46281300Y-72743100I147500J0D01*
G01*
X46576300Y-72743100D01*
G75*
G02*
X46723800Y-72890600I0J-147500D01*
G01*
G37*
G36*
G01*
X47693800Y-72890600D02*
X47693800Y-73235600D01*
G75*
G02*
X47546300Y-73383100I-147500J0D01*
G01*
X47251300Y-73383100D01*
G75*
G02*
X47103800Y-73235600I0J147500D01*
G01*
X47103800Y-72890600D01*
G75*
G02*
X47251300Y-72743100I147500J0D01*
G01*
X47546300Y-72743100D01*
G75*
G02*
X47693800Y-72890600I0J-147500D01*
G01*
G37*
G36*
G01*
X15400520Y-67482940D02*
X15400520Y-67827940D01*
G75*
G02*
X15253020Y-67975440I-147500J0D01*
G01*
X14958020Y-67975440D01*
G75*
G02*
X14810520Y-67827940I0J147500D01*
G01*
X14810520Y-67482940D01*
G75*
G02*
X14958020Y-67335440I147500J0D01*
G01*
X15253020Y-67335440D01*
G75*
G02*
X15400520Y-67482940I0J-147500D01*
G01*
G37*
G36*
G01*
X16370520Y-67482940D02*
X16370520Y-67827940D01*
G75*
G02*
X16223020Y-67975440I-147500J0D01*
G01*
X15928020Y-67975440D01*
G75*
G02*
X15780520Y-67827940I0J147500D01*
G01*
X15780520Y-67482940D01*
G75*
G02*
X15928020Y-67335440I147500J0D01*
G01*
X16223020Y-67335440D01*
G75*
G02*
X16370520Y-67482940I0J-147500D01*
G01*
G37*
G36*
G01*
X46723800Y-74160600D02*
X46723800Y-74505600D01*
G75*
G02*
X46576300Y-74653100I-147500J0D01*
G01*
X46281300Y-74653100D01*
G75*
G02*
X46133800Y-74505600I0J147500D01*
G01*
X46133800Y-74160600D01*
G75*
G02*
X46281300Y-74013100I147500J0D01*
G01*
X46576300Y-74013100D01*
G75*
G02*
X46723800Y-74160600I0J-147500D01*
G01*
G37*
G36*
G01*
X47693800Y-74160600D02*
X47693800Y-74505600D01*
G75*
G02*
X47546300Y-74653100I-147500J0D01*
G01*
X47251300Y-74653100D01*
G75*
G02*
X47103800Y-74505600I0J147500D01*
G01*
X47103800Y-74160600D01*
G75*
G02*
X47251300Y-74013100I147500J0D01*
G01*
X47546300Y-74013100D01*
G75*
G02*
X47693800Y-74160600I0J-147500D01*
G01*
G37*
G36*
G01*
X45071800Y-45238450D02*
X45071800Y-44893450D01*
G75*
G02*
X45219300Y-44745950I147500J0D01*
G01*
X45514300Y-44745950D01*
G75*
G02*
X45661800Y-44893450I0J-147500D01*
G01*
X45661800Y-45238450D01*
G75*
G02*
X45514300Y-45385950I-147500J0D01*
G01*
X45219300Y-45385950D01*
G75*
G02*
X45071800Y-45238450I0J147500D01*
G01*
G37*
G36*
G01*
X44101800Y-45238450D02*
X44101800Y-44893450D01*
G75*
G02*
X44249300Y-44745950I147500J0D01*
G01*
X44544300Y-44745950D01*
G75*
G02*
X44691800Y-44893450I0J-147500D01*
G01*
X44691800Y-45238450D01*
G75*
G02*
X44544300Y-45385950I-147500J0D01*
G01*
X44249300Y-45385950D01*
G75*
G02*
X44101800Y-45238450I0J147500D01*
G01*
G37*
G36*
G01*
X48907200Y-38882100D02*
X48907200Y-38537100D01*
G75*
G02*
X49054700Y-38389600I147500J0D01*
G01*
X49349700Y-38389600D01*
G75*
G02*
X49497200Y-38537100I0J-147500D01*
G01*
X49497200Y-38882100D01*
G75*
G02*
X49349700Y-39029600I-147500J0D01*
G01*
X49054700Y-39029600D01*
G75*
G02*
X48907200Y-38882100I0J147500D01*
G01*
G37*
G36*
G01*
X47937200Y-38882100D02*
X47937200Y-38537100D01*
G75*
G02*
X48084700Y-38389600I147500J0D01*
G01*
X48379700Y-38389600D01*
G75*
G02*
X48527200Y-38537100I0J-147500D01*
G01*
X48527200Y-38882100D01*
G75*
G02*
X48379700Y-39029600I-147500J0D01*
G01*
X48084700Y-39029600D01*
G75*
G02*
X47937200Y-38882100I0J147500D01*
G01*
G37*
G36*
G01*
X56966900Y-37351200D02*
X56621900Y-37351200D01*
G75*
G02*
X56474400Y-37203700I0J147500D01*
G01*
X56474400Y-36908700D01*
G75*
G02*
X56621900Y-36761200I147500J0D01*
G01*
X56966900Y-36761200D01*
G75*
G02*
X57114400Y-36908700I0J-147500D01*
G01*
X57114400Y-37203700D01*
G75*
G02*
X56966900Y-37351200I-147500J0D01*
G01*
G37*
G36*
G01*
X56966900Y-38321200D02*
X56621900Y-38321200D01*
G75*
G02*
X56474400Y-38173700I0J147500D01*
G01*
X56474400Y-37878700D01*
G75*
G02*
X56621900Y-37731200I147500J0D01*
G01*
X56966900Y-37731200D01*
G75*
G02*
X57114400Y-37878700I0J-147500D01*
G01*
X57114400Y-38173700D01*
G75*
G02*
X56966900Y-38321200I-147500J0D01*
G01*
G37*
G36*
G01*
X40780200Y-52185366D02*
X40780200Y-52530366D01*
G75*
G02*
X40632700Y-52677866I-147500J0D01*
G01*
X40337700Y-52677866D01*
G75*
G02*
X40190200Y-52530366I0J147500D01*
G01*
X40190200Y-52185366D01*
G75*
G02*
X40337700Y-52037866I147500J0D01*
G01*
X40632700Y-52037866D01*
G75*
G02*
X40780200Y-52185366I0J-147500D01*
G01*
G37*
G36*
G01*
X41750200Y-52185366D02*
X41750200Y-52530366D01*
G75*
G02*
X41602700Y-52677866I-147500J0D01*
G01*
X41307700Y-52677866D01*
G75*
G02*
X41160200Y-52530366I0J147500D01*
G01*
X41160200Y-52185366D01*
G75*
G02*
X41307700Y-52037866I147500J0D01*
G01*
X41602700Y-52037866D01*
G75*
G02*
X41750200Y-52185366I0J-147500D01*
G01*
G37*
G36*
G01*
X45071800Y-46810075D02*
X45071800Y-46465075D01*
G75*
G02*
X45219300Y-46317575I147500J0D01*
G01*
X45514300Y-46317575D01*
G75*
G02*
X45661800Y-46465075I0J-147500D01*
G01*
X45661800Y-46810075D01*
G75*
G02*
X45514300Y-46957575I-147500J0D01*
G01*
X45219300Y-46957575D01*
G75*
G02*
X45071800Y-46810075I0J147500D01*
G01*
G37*
G36*
G01*
X44101800Y-46810075D02*
X44101800Y-46465075D01*
G75*
G02*
X44249300Y-46317575I147500J0D01*
G01*
X44544300Y-46317575D01*
G75*
G02*
X44691800Y-46465075I0J-147500D01*
G01*
X44691800Y-46810075D01*
G75*
G02*
X44544300Y-46957575I-147500J0D01*
G01*
X44249300Y-46957575D01*
G75*
G02*
X44101800Y-46810075I0J147500D01*
G01*
G37*
G36*
G01*
X45071800Y-43666825D02*
X45071800Y-43321825D01*
G75*
G02*
X45219300Y-43174325I147500J0D01*
G01*
X45514300Y-43174325D01*
G75*
G02*
X45661800Y-43321825I0J-147500D01*
G01*
X45661800Y-43666825D01*
G75*
G02*
X45514300Y-43814325I-147500J0D01*
G01*
X45219300Y-43814325D01*
G75*
G02*
X45071800Y-43666825I0J147500D01*
G01*
G37*
G36*
G01*
X44101800Y-43666825D02*
X44101800Y-43321825D01*
G75*
G02*
X44249300Y-43174325I147500J0D01*
G01*
X44544300Y-43174325D01*
G75*
G02*
X44691800Y-43321825I0J-147500D01*
G01*
X44691800Y-43666825D01*
G75*
G02*
X44544300Y-43814325I-147500J0D01*
G01*
X44249300Y-43814325D01*
G75*
G02*
X44101800Y-43666825I0J147500D01*
G01*
G37*
G36*
G01*
X41160200Y-57576500D02*
X41160200Y-57231500D01*
G75*
G02*
X41307700Y-57084000I147500J0D01*
G01*
X41602700Y-57084000D01*
G75*
G02*
X41750200Y-57231500I0J-147500D01*
G01*
X41750200Y-57576500D01*
G75*
G02*
X41602700Y-57724000I-147500J0D01*
G01*
X41307700Y-57724000D01*
G75*
G02*
X41160200Y-57576500I0J147500D01*
G01*
G37*
G36*
G01*
X40190200Y-57576500D02*
X40190200Y-57231500D01*
G75*
G02*
X40337700Y-57084000I147500J0D01*
G01*
X40632700Y-57084000D01*
G75*
G02*
X40780200Y-57231500I0J-147500D01*
G01*
X40780200Y-57576500D01*
G75*
G02*
X40632700Y-57724000I-147500J0D01*
G01*
X40337700Y-57724000D01*
G75*
G02*
X40190200Y-57576500I0J147500D01*
G01*
G37*
G36*
G01*
X41160200Y-55053432D02*
X41160200Y-54708432D01*
G75*
G02*
X41307700Y-54560932I147500J0D01*
G01*
X41602700Y-54560932D01*
G75*
G02*
X41750200Y-54708432I0J-147500D01*
G01*
X41750200Y-55053432D01*
G75*
G02*
X41602700Y-55200932I-147500J0D01*
G01*
X41307700Y-55200932D01*
G75*
G02*
X41160200Y-55053432I0J147500D01*
G01*
G37*
G36*
G01*
X40190200Y-55053432D02*
X40190200Y-54708432D01*
G75*
G02*
X40337700Y-54560932I147500J0D01*
G01*
X40632700Y-54560932D01*
G75*
G02*
X40780200Y-54708432I0J-147500D01*
G01*
X40780200Y-55053432D01*
G75*
G02*
X40632700Y-55200932I-147500J0D01*
G01*
X40337700Y-55200932D01*
G75*
G02*
X40190200Y-55053432I0J147500D01*
G01*
G37*
G36*
G01*
X41160200Y-56314965D02*
X41160200Y-55969965D01*
G75*
G02*
X41307700Y-55822465I147500J0D01*
G01*
X41602700Y-55822465D01*
G75*
G02*
X41750200Y-55969965I0J-147500D01*
G01*
X41750200Y-56314965D01*
G75*
G02*
X41602700Y-56462465I-147500J0D01*
G01*
X41307700Y-56462465D01*
G75*
G02*
X41160200Y-56314965I0J147500D01*
G01*
G37*
G36*
G01*
X40190200Y-56314965D02*
X40190200Y-55969965D01*
G75*
G02*
X40337700Y-55822465I147500J0D01*
G01*
X40632700Y-55822465D01*
G75*
G02*
X40780200Y-55969965I0J-147500D01*
G01*
X40780200Y-56314965D01*
G75*
G02*
X40632700Y-56462465I-147500J0D01*
G01*
X40337700Y-56462465D01*
G75*
G02*
X40190200Y-56314965I0J147500D01*
G01*
G37*
G36*
G01*
X41160200Y-51268833D02*
X41160200Y-50923833D01*
G75*
G02*
X41307700Y-50776333I147500J0D01*
G01*
X41602700Y-50776333D01*
G75*
G02*
X41750200Y-50923833I0J-147500D01*
G01*
X41750200Y-51268833D01*
G75*
G02*
X41602700Y-51416333I-147500J0D01*
G01*
X41307700Y-51416333D01*
G75*
G02*
X41160200Y-51268833I0J147500D01*
G01*
G37*
G36*
G01*
X40190200Y-51268833D02*
X40190200Y-50923833D01*
G75*
G02*
X40337700Y-50776333I147500J0D01*
G01*
X40632700Y-50776333D01*
G75*
G02*
X40780200Y-50923833I0J-147500D01*
G01*
X40780200Y-51268833D01*
G75*
G02*
X40632700Y-51416333I-147500J0D01*
G01*
X40337700Y-51416333D01*
G75*
G02*
X40190200Y-51268833I0J147500D01*
G01*
G37*
G36*
G01*
X41160200Y-50007300D02*
X41160200Y-49662300D01*
G75*
G02*
X41307700Y-49514800I147500J0D01*
G01*
X41602700Y-49514800D01*
G75*
G02*
X41750200Y-49662300I0J-147500D01*
G01*
X41750200Y-50007300D01*
G75*
G02*
X41602700Y-50154800I-147500J0D01*
G01*
X41307700Y-50154800D01*
G75*
G02*
X41160200Y-50007300I0J147500D01*
G01*
G37*
G36*
G01*
X40190200Y-50007300D02*
X40190200Y-49662300D01*
G75*
G02*
X40337700Y-49514800I147500J0D01*
G01*
X40632700Y-49514800D01*
G75*
G02*
X40780200Y-49662300I0J-147500D01*
G01*
X40780200Y-50007300D01*
G75*
G02*
X40632700Y-50154800I-147500J0D01*
G01*
X40337700Y-50154800D01*
G75*
G02*
X40190200Y-50007300I0J147500D01*
G01*
G37*
G36*
G01*
X36512000Y-63228000D02*
X36512000Y-62883000D01*
G75*
G02*
X36659500Y-62735500I147500J0D01*
G01*
X36954500Y-62735500D01*
G75*
G02*
X37102000Y-62883000I0J-147500D01*
G01*
X37102000Y-63228000D01*
G75*
G02*
X36954500Y-63375500I-147500J0D01*
G01*
X36659500Y-63375500D01*
G75*
G02*
X36512000Y-63228000I0J147500D01*
G01*
G37*
G36*
G01*
X35542000Y-63228000D02*
X35542000Y-62883000D01*
G75*
G02*
X35689500Y-62735500I147500J0D01*
G01*
X35984500Y-62735500D01*
G75*
G02*
X36132000Y-62883000I0J-147500D01*
G01*
X36132000Y-63228000D01*
G75*
G02*
X35984500Y-63375500I-147500J0D01*
G01*
X35689500Y-63375500D01*
G75*
G02*
X35542000Y-63228000I0J147500D01*
G01*
G37*
G36*
G01*
X33718000Y-61183300D02*
X33718000Y-60838300D01*
G75*
G02*
X33865500Y-60690800I147500J0D01*
G01*
X34160500Y-60690800D01*
G75*
G02*
X34308000Y-60838300I0J-147500D01*
G01*
X34308000Y-61183300D01*
G75*
G02*
X34160500Y-61330800I-147500J0D01*
G01*
X33865500Y-61330800D01*
G75*
G02*
X33718000Y-61183300I0J147500D01*
G01*
G37*
G36*
G01*
X32748000Y-61183300D02*
X32748000Y-60838300D01*
G75*
G02*
X32895500Y-60690800I147500J0D01*
G01*
X33190500Y-60690800D01*
G75*
G02*
X33338000Y-60838300I0J-147500D01*
G01*
X33338000Y-61183300D01*
G75*
G02*
X33190500Y-61330800I-147500J0D01*
G01*
X32895500Y-61330800D01*
G75*
G02*
X32748000Y-61183300I0J147500D01*
G01*
G37*
G36*
G01*
X26288500Y-55036500D02*
X26288500Y-54691500D01*
G75*
G02*
X26436000Y-54544000I147500J0D01*
G01*
X26731000Y-54544000D01*
G75*
G02*
X26878500Y-54691500I0J-147500D01*
G01*
X26878500Y-55036500D01*
G75*
G02*
X26731000Y-55184000I-147500J0D01*
G01*
X26436000Y-55184000D01*
G75*
G02*
X26288500Y-55036500I0J147500D01*
G01*
G37*
G36*
G01*
X25318500Y-55036500D02*
X25318500Y-54691500D01*
G75*
G02*
X25466000Y-54544000I147500J0D01*
G01*
X25761000Y-54544000D01*
G75*
G02*
X25908500Y-54691500I0J-147500D01*
G01*
X25908500Y-55036500D01*
G75*
G02*
X25761000Y-55184000I-147500J0D01*
G01*
X25466000Y-55184000D01*
G75*
G02*
X25318500Y-55036500I0J147500D01*
G01*
G37*
G36*
G01*
X46746800Y-22776400D02*
X46746800Y-23121400D01*
G75*
G02*
X46599300Y-23268900I-147500J0D01*
G01*
X46304300Y-23268900D01*
G75*
G02*
X46156800Y-23121400I0J147500D01*
G01*
X46156800Y-22776400D01*
G75*
G02*
X46304300Y-22628900I147500J0D01*
G01*
X46599300Y-22628900D01*
G75*
G02*
X46746800Y-22776400I0J-147500D01*
G01*
G37*
G36*
G01*
X47716800Y-22776400D02*
X47716800Y-23121400D01*
G75*
G02*
X47569300Y-23268900I-147500J0D01*
G01*
X47274300Y-23268900D01*
G75*
G02*
X47126800Y-23121400I0J147500D01*
G01*
X47126800Y-22776400D01*
G75*
G02*
X47274300Y-22628900I147500J0D01*
G01*
X47569300Y-22628900D01*
G75*
G02*
X47716800Y-22776400I0J-147500D01*
G01*
G37*
G36*
G01*
X66540000Y-32953000D02*
X69040000Y-32953000D01*
G75*
G02*
X69290000Y-33203000I0J-250000D01*
G01*
X69290000Y-34303000D01*
G75*
G02*
X69040000Y-34553000I-250000J0D01*
G01*
X66540000Y-34553000D01*
G75*
G02*
X66290000Y-34303000I0J250000D01*
G01*
X66290000Y-33203000D01*
G75*
G02*
X66540000Y-32953000I250000J0D01*
G01*
G37*
G36*
G01*
X66540000Y-26153000D02*
X69040000Y-26153000D01*
G75*
G02*
X69290000Y-26403000I0J-250000D01*
G01*
X69290000Y-27503000D01*
G75*
G02*
X69040000Y-27753000I-250000J0D01*
G01*
X66540000Y-27753000D01*
G75*
G02*
X66290000Y-27503000I0J250000D01*
G01*
X66290000Y-26403000D01*
G75*
G02*
X66540000Y-26153000I250000J0D01*
G01*
G37*
G36*
G01*
X63040000Y-30853000D02*
X68040000Y-30853000D01*
G75*
G02*
X68290000Y-31103000I0J-250000D01*
G01*
X68290000Y-31603000D01*
G75*
G02*
X68040000Y-31853000I-250000J0D01*
G01*
X63040000Y-31853000D01*
G75*
G02*
X62790000Y-31603000I0J250000D01*
G01*
X62790000Y-31103000D01*
G75*
G02*
X63040000Y-30853000I250000J0D01*
G01*
G37*
G36*
G01*
X63040000Y-28853000D02*
X68040000Y-28853000D01*
G75*
G02*
X68290000Y-29103000I0J-250000D01*
G01*
X68290000Y-29603000D01*
G75*
G02*
X68040000Y-29853000I-250000J0D01*
G01*
X63040000Y-29853000D01*
G75*
G02*
X62790000Y-29603000I0J250000D01*
G01*
X62790000Y-29103000D01*
G75*
G02*
X63040000Y-28853000I250000J0D01*
G01*
G37*
D25*
G36*
X50925542Y-31750000D02*
G01*
X54356000Y-28319542D01*
X57786458Y-31750000D01*
X54356000Y-35180458D01*
X50925542Y-31750000D01*
G37*
G36*
X54527968Y-27826972D02*
G01*
X55210468Y-27144472D01*
X55425994Y-27359998D01*
X54743494Y-28042498D01*
X54527968Y-27826972D01*
G37*
G36*
X54881521Y-28180525D02*
G01*
X55564021Y-27498025D01*
X55779547Y-27713551D01*
X55097047Y-28396051D01*
X54881521Y-28180525D01*
G37*
G36*
X55235075Y-28534079D02*
G01*
X55917575Y-27851579D01*
X56133101Y-28067105D01*
X55450601Y-28749605D01*
X55235075Y-28534079D01*
G37*
G36*
X55588628Y-28887631D02*
G01*
X56271128Y-28205131D01*
X56486654Y-28420657D01*
X55804154Y-29103157D01*
X55588628Y-28887631D01*
G37*
G36*
X55942182Y-29241186D02*
G01*
X56624682Y-28558686D01*
X56840208Y-28774212D01*
X56157708Y-29456712D01*
X55942182Y-29241186D01*
G37*
G36*
X56295735Y-29594739D02*
G01*
X56978235Y-28912239D01*
X57193761Y-29127765D01*
X56511261Y-29810265D01*
X56295735Y-29594739D01*
G37*
G36*
X56649288Y-29948292D02*
G01*
X57331788Y-29265792D01*
X57547314Y-29481318D01*
X56864814Y-30163818D01*
X56649288Y-29948292D01*
G37*
G36*
X57002843Y-30301846D02*
G01*
X57685343Y-29619346D01*
X57900869Y-29834872D01*
X57218369Y-30517372D01*
X57002843Y-30301846D01*
G37*
G36*
X57356395Y-30655399D02*
G01*
X58038895Y-29972899D01*
X58254421Y-30188425D01*
X57571921Y-30870925D01*
X57356395Y-30655399D01*
G37*
G36*
X57709949Y-31008953D02*
G01*
X58392449Y-30326453D01*
X58607975Y-30541979D01*
X57925475Y-31224479D01*
X57709949Y-31008953D01*
G37*
G36*
X58063502Y-31362506D02*
G01*
X58746002Y-30680006D01*
X58961528Y-30895532D01*
X58279028Y-31578032D01*
X58063502Y-31362506D01*
G37*
G36*
X58746002Y-32819994D02*
G01*
X58063502Y-32137494D01*
X58279028Y-31921968D01*
X58961528Y-32604468D01*
X58746002Y-32819994D01*
G37*
G36*
X58392449Y-33173547D02*
G01*
X57709949Y-32491047D01*
X57925475Y-32275521D01*
X58607975Y-32958021D01*
X58392449Y-33173547D01*
G37*
G36*
X58038895Y-33527101D02*
G01*
X57356395Y-32844601D01*
X57571921Y-32629075D01*
X58254421Y-33311575D01*
X58038895Y-33527101D01*
G37*
G36*
X57685343Y-33880654D02*
G01*
X57002843Y-33198154D01*
X57218369Y-32982628D01*
X57900869Y-33665128D01*
X57685343Y-33880654D01*
G37*
G36*
X57331788Y-34234208D02*
G01*
X56649288Y-33551708D01*
X56864814Y-33336182D01*
X57547314Y-34018682D01*
X57331788Y-34234208D01*
G37*
G36*
X56978235Y-34587761D02*
G01*
X56295735Y-33905261D01*
X56511261Y-33689735D01*
X57193761Y-34372235D01*
X56978235Y-34587761D01*
G37*
G36*
X56624682Y-34941314D02*
G01*
X55942182Y-34258814D01*
X56157708Y-34043288D01*
X56840208Y-34725788D01*
X56624682Y-34941314D01*
G37*
G36*
X56271128Y-35294869D02*
G01*
X55588628Y-34612369D01*
X55804154Y-34396843D01*
X56486654Y-35079343D01*
X56271128Y-35294869D01*
G37*
G36*
X55917575Y-35648421D02*
G01*
X55235075Y-34965921D01*
X55450601Y-34750395D01*
X56133101Y-35432895D01*
X55917575Y-35648421D01*
G37*
G36*
X55564021Y-36001975D02*
G01*
X54881521Y-35319475D01*
X55097047Y-35103949D01*
X55779547Y-35786449D01*
X55564021Y-36001975D01*
G37*
G36*
X55210468Y-36355528D02*
G01*
X54527968Y-35673028D01*
X54743494Y-35457502D01*
X55425994Y-36140002D01*
X55210468Y-36355528D01*
G37*
G36*
X53286006Y-36140002D02*
G01*
X53968506Y-35457502D01*
X54184032Y-35673028D01*
X53501532Y-36355528D01*
X53286006Y-36140002D01*
G37*
G36*
X52932453Y-35786449D02*
G01*
X53614953Y-35103949D01*
X53830479Y-35319475D01*
X53147979Y-36001975D01*
X52932453Y-35786449D01*
G37*
G36*
X52578899Y-35432895D02*
G01*
X53261399Y-34750395D01*
X53476925Y-34965921D01*
X52794425Y-35648421D01*
X52578899Y-35432895D01*
G37*
G36*
X52225346Y-35079343D02*
G01*
X52907846Y-34396843D01*
X53123372Y-34612369D01*
X52440872Y-35294869D01*
X52225346Y-35079343D01*
G37*
G36*
X51871792Y-34725788D02*
G01*
X52554292Y-34043288D01*
X52769818Y-34258814D01*
X52087318Y-34941314D01*
X51871792Y-34725788D01*
G37*
G36*
X51518239Y-34372235D02*
G01*
X52200739Y-33689735D01*
X52416265Y-33905261D01*
X51733765Y-34587761D01*
X51518239Y-34372235D01*
G37*
G36*
X51164686Y-34018682D02*
G01*
X51847186Y-33336182D01*
X52062712Y-33551708D01*
X51380212Y-34234208D01*
X51164686Y-34018682D01*
G37*
G36*
X50811131Y-33665128D02*
G01*
X51493631Y-32982628D01*
X51709157Y-33198154D01*
X51026657Y-33880654D01*
X50811131Y-33665128D01*
G37*
G36*
X50457579Y-33311575D02*
G01*
X51140079Y-32629075D01*
X51355605Y-32844601D01*
X50673105Y-33527101D01*
X50457579Y-33311575D01*
G37*
G36*
X50104025Y-32958021D02*
G01*
X50786525Y-32275521D01*
X51002051Y-32491047D01*
X50319551Y-33173547D01*
X50104025Y-32958021D01*
G37*
G36*
X49750472Y-32604468D02*
G01*
X50432972Y-31921968D01*
X50648498Y-32137494D01*
X49965998Y-32819994D01*
X49750472Y-32604468D01*
G37*
G36*
X50432972Y-31578032D02*
G01*
X49750472Y-30895532D01*
X49965998Y-30680006D01*
X50648498Y-31362506D01*
X50432972Y-31578032D01*
G37*
G36*
X50786525Y-31224479D02*
G01*
X50104025Y-30541979D01*
X50319551Y-30326453D01*
X51002051Y-31008953D01*
X50786525Y-31224479D01*
G37*
G36*
X51140079Y-30870925D02*
G01*
X50457579Y-30188425D01*
X50673105Y-29972899D01*
X51355605Y-30655399D01*
X51140079Y-30870925D01*
G37*
G36*
X51493631Y-30517372D02*
G01*
X50811131Y-29834872D01*
X51026657Y-29619346D01*
X51709157Y-30301846D01*
X51493631Y-30517372D01*
G37*
G36*
X51847186Y-30163818D02*
G01*
X51164686Y-29481318D01*
X51380212Y-29265792D01*
X52062712Y-29948292D01*
X51847186Y-30163818D01*
G37*
G36*
X52200739Y-29810265D02*
G01*
X51518239Y-29127765D01*
X51733765Y-28912239D01*
X52416265Y-29594739D01*
X52200739Y-29810265D01*
G37*
G36*
X52554292Y-29456712D02*
G01*
X51871792Y-28774212D01*
X52087318Y-28558686D01*
X52769818Y-29241186D01*
X52554292Y-29456712D01*
G37*
G36*
X52907846Y-29103157D02*
G01*
X52225346Y-28420657D01*
X52440872Y-28205131D01*
X53123372Y-28887631D01*
X52907846Y-29103157D01*
G37*
G36*
X53261399Y-28749605D02*
G01*
X52578899Y-28067105D01*
X52794425Y-27851579D01*
X53476925Y-28534079D01*
X53261399Y-28749605D01*
G37*
G36*
X53614953Y-28396051D02*
G01*
X52932453Y-27713551D01*
X53147979Y-27498025D01*
X53830479Y-28180525D01*
X53614953Y-28396051D01*
G37*
G36*
X53968506Y-28042498D02*
G01*
X53286006Y-27359998D01*
X53501532Y-27144472D01*
X54184032Y-27826972D01*
X53968506Y-28042498D01*
G37*
G36*
G01*
X66540000Y-23301000D02*
X69040000Y-23301000D01*
G75*
G02*
X69290000Y-23551000I0J-250000D01*
G01*
X69290000Y-24651000D01*
G75*
G02*
X69040000Y-24901000I-250000J0D01*
G01*
X66540000Y-24901000D01*
G75*
G02*
X66290000Y-24651000I0J250000D01*
G01*
X66290000Y-23551000D01*
G75*
G02*
X66540000Y-23301000I250000J0D01*
G01*
G37*
G36*
G01*
X66540000Y-16501000D02*
X69040000Y-16501000D01*
G75*
G02*
X69290000Y-16751000I0J-250000D01*
G01*
X69290000Y-17851000D01*
G75*
G02*
X69040000Y-18101000I-250000J0D01*
G01*
X66540000Y-18101000D01*
G75*
G02*
X66290000Y-17851000I0J250000D01*
G01*
X66290000Y-16751000D01*
G75*
G02*
X66540000Y-16501000I250000J0D01*
G01*
G37*
G36*
G01*
X63040000Y-21201000D02*
X68040000Y-21201000D01*
G75*
G02*
X68290000Y-21451000I0J-250000D01*
G01*
X68290000Y-21951000D01*
G75*
G02*
X68040000Y-22201000I-250000J0D01*
G01*
X63040000Y-22201000D01*
G75*
G02*
X62790000Y-21951000I0J250000D01*
G01*
X62790000Y-21451000D01*
G75*
G02*
X63040000Y-21201000I250000J0D01*
G01*
G37*
G36*
G01*
X63040000Y-19201000D02*
X68040000Y-19201000D01*
G75*
G02*
X68290000Y-19451000I0J-250000D01*
G01*
X68290000Y-19951000D01*
G75*
G02*
X68040000Y-20201000I-250000J0D01*
G01*
X63040000Y-20201000D01*
G75*
G02*
X62790000Y-19951000I0J250000D01*
G01*
X62790000Y-19451000D01*
G75*
G02*
X63040000Y-19201000I250000J0D01*
G01*
G37*
D26*
X58817000Y-85471000D03*
X60817000Y-84521000D03*
X60817000Y-86421000D03*
G36*
G01*
X19480400Y-66372600D02*
X19480400Y-66672600D01*
G75*
G02*
X19330400Y-66822600I-150000J0D01*
G01*
X17680400Y-66822600D01*
G75*
G02*
X17530400Y-66672600I0J150000D01*
G01*
X17530400Y-66372600D01*
G75*
G02*
X17680400Y-66222600I150000J0D01*
G01*
X19330400Y-66222600D01*
G75*
G02*
X19480400Y-66372600I0J-150000D01*
G01*
G37*
G36*
G01*
X19480400Y-65102600D02*
X19480400Y-65402600D01*
G75*
G02*
X19330400Y-65552600I-150000J0D01*
G01*
X17680400Y-65552600D01*
G75*
G02*
X17530400Y-65402600I0J150000D01*
G01*
X17530400Y-65102600D01*
G75*
G02*
X17680400Y-64952600I150000J0D01*
G01*
X19330400Y-64952600D01*
G75*
G02*
X19480400Y-65102600I0J-150000D01*
G01*
G37*
G36*
G01*
X19480400Y-63832600D02*
X19480400Y-64132600D01*
G75*
G02*
X19330400Y-64282600I-150000J0D01*
G01*
X17680400Y-64282600D01*
G75*
G02*
X17530400Y-64132600I0J150000D01*
G01*
X17530400Y-63832600D01*
G75*
G02*
X17680400Y-63682600I150000J0D01*
G01*
X19330400Y-63682600D01*
G75*
G02*
X19480400Y-63832600I0J-150000D01*
G01*
G37*
G36*
G01*
X19480400Y-62562600D02*
X19480400Y-62862600D01*
G75*
G02*
X19330400Y-63012600I-150000J0D01*
G01*
X17680400Y-63012600D01*
G75*
G02*
X17530400Y-62862600I0J150000D01*
G01*
X17530400Y-62562600D01*
G75*
G02*
X17680400Y-62412600I150000J0D01*
G01*
X19330400Y-62412600D01*
G75*
G02*
X19480400Y-62562600I0J-150000D01*
G01*
G37*
G36*
G01*
X24430400Y-62562600D02*
X24430400Y-62862600D01*
G75*
G02*
X24280400Y-63012600I-150000J0D01*
G01*
X22630400Y-63012600D01*
G75*
G02*
X22480400Y-62862600I0J150000D01*
G01*
X22480400Y-62562600D01*
G75*
G02*
X22630400Y-62412600I150000J0D01*
G01*
X24280400Y-62412600D01*
G75*
G02*
X24430400Y-62562600I0J-150000D01*
G01*
G37*
G36*
G01*
X24430400Y-63832600D02*
X24430400Y-64132600D01*
G75*
G02*
X24280400Y-64282600I-150000J0D01*
G01*
X22630400Y-64282600D01*
G75*
G02*
X22480400Y-64132600I0J150000D01*
G01*
X22480400Y-63832600D01*
G75*
G02*
X22630400Y-63682600I150000J0D01*
G01*
X24280400Y-63682600D01*
G75*
G02*
X24430400Y-63832600I0J-150000D01*
G01*
G37*
G36*
G01*
X24430400Y-65102600D02*
X24430400Y-65402600D01*
G75*
G02*
X24280400Y-65552600I-150000J0D01*
G01*
X22630400Y-65552600D01*
G75*
G02*
X22480400Y-65402600I0J150000D01*
G01*
X22480400Y-65102600D01*
G75*
G02*
X22630400Y-64952600I150000J0D01*
G01*
X24280400Y-64952600D01*
G75*
G02*
X24430400Y-65102600I0J-150000D01*
G01*
G37*
G36*
G01*
X24430400Y-66372600D02*
X24430400Y-66672600D01*
G75*
G02*
X24280400Y-66822600I-150000J0D01*
G01*
X22630400Y-66822600D01*
G75*
G02*
X22480400Y-66672600I0J150000D01*
G01*
X22480400Y-66372600D01*
G75*
G02*
X22630400Y-66222600I150000J0D01*
G01*
X24280400Y-66222600D01*
G75*
G02*
X24430400Y-66372600I0J-150000D01*
G01*
G37*
D27*
X50028800Y-79413100D03*
X50028800Y-78778100D03*
X50028800Y-78143100D03*
X50028800Y-77508100D03*
X50028800Y-76873100D03*
X50028800Y-76238100D03*
X50028800Y-75603100D03*
X50028800Y-74968100D03*
X50028800Y-74333100D03*
X50028800Y-73698100D03*
X50028800Y-73063100D03*
X50028800Y-72428100D03*
X50028800Y-71793100D03*
X50028800Y-71158100D03*
X55228800Y-71158100D03*
X55228800Y-71793100D03*
X55228800Y-72428100D03*
X55228800Y-73063100D03*
X55228800Y-73698100D03*
X55228800Y-74333100D03*
X55228800Y-74968100D03*
X55228800Y-75603100D03*
X55228800Y-76238100D03*
X55228800Y-76873100D03*
X55228800Y-77508100D03*
X55228800Y-78143100D03*
X55228800Y-78778100D03*
X55228800Y-79413100D03*
D28*
X30791500Y-50169500D03*
X31591500Y-50169500D03*
X32391500Y-50169500D03*
X33191500Y-50169500D03*
X33991500Y-50169500D03*
X34791500Y-50169500D03*
X35591500Y-50169500D03*
X36391500Y-50169500D03*
D29*
X37841500Y-51619500D03*
X37841500Y-52419500D03*
X37841500Y-53219500D03*
X37841500Y-54019500D03*
X37841500Y-54819500D03*
X37841500Y-55619500D03*
X37841500Y-56419500D03*
X37841500Y-57219500D03*
D28*
X36391500Y-58669500D03*
X35591500Y-58669500D03*
X34791500Y-58669500D03*
X33991500Y-58669500D03*
X33191500Y-58669500D03*
X32391500Y-58669500D03*
X31591500Y-58669500D03*
X30791500Y-58669500D03*
D29*
X29341500Y-57219500D03*
X29341500Y-56419500D03*
X29341500Y-55619500D03*
X29341500Y-54819500D03*
X29341500Y-54019500D03*
X29341500Y-53219500D03*
X29341500Y-52419500D03*
X29341500Y-51619500D03*
D30*
X59725600Y-44822400D03*
X57825600Y-44822400D03*
X58775600Y-46922400D03*
D31*
X17124680Y-35344280D03*
X17124680Y-33144280D03*
M02*
