G04 #@! TF.GenerationSoftware,KiCad,Pcbnew,(5.1.6)-1*
G04 #@! TF.CreationDate,2020-07-25T07:52:59-07:00*
G04 #@! TF.ProjectId,Mycroft - Mark 2,4d796372-6f66-4742-902d-204d61726b20,rev?*
G04 #@! TF.SameCoordinates,Original*
G04 #@! TF.FileFunction,Paste,Top*
G04 #@! TF.FilePolarity,Positive*
%FSLAX46Y46*%
G04 Gerber Fmt 4.6, Leading zero omitted, Abs format (unit mm)*
G04 Created by KiCad (PCBNEW (5.1.6)-1) date 2020-07-25 07:52:59*
%MOMM*%
%LPD*%
G01*
G04 APERTURE LIST*
%ADD10C,0.152400*%
%ADD11R,0.900000X1.200000*%
%ADD12R,0.650000X1.220000*%
%ADD13R,1.400000X1.200000*%
%ADD14R,1.150000X1.450000*%
%ADD15R,1.750000X1.900000*%
%ADD16R,0.400000X1.400000*%
%ADD17R,1.800000X2.500000*%
%ADD18R,4.550000X5.250000*%
%ADD19R,4.600000X1.100000*%
%ADD20R,5.000000X4.500000*%
%ADD21R,1.060000X0.650000*%
%ADD22R,1.300000X0.600000*%
%ADD23R,2.000000X1.500000*%
%ADD24R,2.000000X3.800000*%
%ADD25C,0.100000*%
%ADD26R,0.900000X0.800000*%
%ADD27R,1.200000X0.400000*%
%ADD28R,0.600000X1.300000*%
%ADD29R,0.500000X0.500000*%
G04 APERTURE END LIST*
D10*
X54969445Y-29155091D02*
X53967380Y-28153026D01*
X53967380Y-30157156D02*
X54969445Y-29155091D01*
X52965315Y-29155091D02*
X53967380Y-30157156D01*
X53967380Y-28153026D02*
X52965315Y-29155091D01*
X56112931Y-28011606D02*
X55110866Y-27009541D01*
X55110866Y-29013671D02*
X56112931Y-28011606D01*
X54108801Y-28011606D02*
X55110866Y-29013671D01*
X55110866Y-27009541D02*
X54108801Y-28011606D01*
X57256416Y-26868120D02*
X56254351Y-25866055D01*
X56254351Y-27870185D02*
X57256416Y-26868120D01*
X55252286Y-26868120D02*
X56254351Y-27870185D01*
X56254351Y-25866055D02*
X55252286Y-26868120D01*
X53825959Y-28011606D02*
X52823894Y-27009541D01*
X52823894Y-29013671D02*
X53825959Y-28011606D01*
X51821829Y-28011606D02*
X52823894Y-29013671D01*
X52823894Y-27009541D02*
X51821829Y-28011606D01*
X54969445Y-26868120D02*
X53967380Y-25866055D01*
X53967380Y-27870185D02*
X54969445Y-26868120D01*
X52965315Y-26868120D02*
X53967380Y-27870185D01*
X53967380Y-25866055D02*
X52965315Y-26868120D01*
X56112931Y-25724634D02*
X55110866Y-24722569D01*
X55110866Y-26726699D02*
X56112931Y-25724634D01*
X54108801Y-25724634D02*
X55110866Y-26726699D01*
X55110866Y-24722569D02*
X54108801Y-25724634D01*
X52682474Y-26868120D02*
X51680409Y-25866055D01*
X51680409Y-27870185D02*
X52682474Y-26868120D01*
X50678344Y-26868120D02*
X51680409Y-27870185D01*
X51680409Y-25866055D02*
X50678344Y-26868120D01*
X53825959Y-25724634D02*
X52823894Y-24722569D01*
X52823894Y-26726699D02*
X53825959Y-25724634D01*
X51821829Y-25724634D02*
X52823894Y-26726699D01*
X52823894Y-24722569D02*
X51821829Y-25724634D01*
X54969445Y-24581149D02*
X53967380Y-23579084D01*
X53967380Y-25583214D02*
X54969445Y-24581149D01*
X52965315Y-24581149D02*
X53967380Y-25583214D01*
X53967380Y-23579084D02*
X52965315Y-24581149D01*
G36*
G01*
X17791780Y-61490720D02*
X17791780Y-61790720D01*
G75*
G02*
X17641780Y-61940720I-150000J0D01*
G01*
X16341780Y-61940720D01*
G75*
G02*
X16191780Y-61790720I0J150000D01*
G01*
X16191780Y-61490720D01*
G75*
G02*
X16341780Y-61340720I150000J0D01*
G01*
X17641780Y-61340720D01*
G75*
G02*
X17791780Y-61490720I0J-150000D01*
G01*
G37*
G36*
G01*
X17791780Y-60220720D02*
X17791780Y-60520720D01*
G75*
G02*
X17641780Y-60670720I-150000J0D01*
G01*
X16341780Y-60670720D01*
G75*
G02*
X16191780Y-60520720I0J150000D01*
G01*
X16191780Y-60220720D01*
G75*
G02*
X16341780Y-60070720I150000J0D01*
G01*
X17641780Y-60070720D01*
G75*
G02*
X17791780Y-60220720I0J-150000D01*
G01*
G37*
G36*
G01*
X17791780Y-58950720D02*
X17791780Y-59250720D01*
G75*
G02*
X17641780Y-59400720I-150000J0D01*
G01*
X16341780Y-59400720D01*
G75*
G02*
X16191780Y-59250720I0J150000D01*
G01*
X16191780Y-58950720D01*
G75*
G02*
X16341780Y-58800720I150000J0D01*
G01*
X17641780Y-58800720D01*
G75*
G02*
X17791780Y-58950720I0J-150000D01*
G01*
G37*
G36*
G01*
X17791780Y-57680720D02*
X17791780Y-57980720D01*
G75*
G02*
X17641780Y-58130720I-150000J0D01*
G01*
X16341780Y-58130720D01*
G75*
G02*
X16191780Y-57980720I0J150000D01*
G01*
X16191780Y-57680720D01*
G75*
G02*
X16341780Y-57530720I150000J0D01*
G01*
X17641780Y-57530720D01*
G75*
G02*
X17791780Y-57680720I0J-150000D01*
G01*
G37*
G36*
G01*
X24991780Y-57680720D02*
X24991780Y-57980720D01*
G75*
G02*
X24841780Y-58130720I-150000J0D01*
G01*
X23541780Y-58130720D01*
G75*
G02*
X23391780Y-57980720I0J150000D01*
G01*
X23391780Y-57680720D01*
G75*
G02*
X23541780Y-57530720I150000J0D01*
G01*
X24841780Y-57530720D01*
G75*
G02*
X24991780Y-57680720I0J-150000D01*
G01*
G37*
G36*
G01*
X24991780Y-58950720D02*
X24991780Y-59250720D01*
G75*
G02*
X24841780Y-59400720I-150000J0D01*
G01*
X23541780Y-59400720D01*
G75*
G02*
X23391780Y-59250720I0J150000D01*
G01*
X23391780Y-58950720D01*
G75*
G02*
X23541780Y-58800720I150000J0D01*
G01*
X24841780Y-58800720D01*
G75*
G02*
X24991780Y-58950720I0J-150000D01*
G01*
G37*
G36*
G01*
X24991780Y-60220720D02*
X24991780Y-60520720D01*
G75*
G02*
X24841780Y-60670720I-150000J0D01*
G01*
X23541780Y-60670720D01*
G75*
G02*
X23391780Y-60520720I0J150000D01*
G01*
X23391780Y-60220720D01*
G75*
G02*
X23541780Y-60070720I150000J0D01*
G01*
X24841780Y-60070720D01*
G75*
G02*
X24991780Y-60220720I0J-150000D01*
G01*
G37*
G36*
G01*
X24991780Y-61490720D02*
X24991780Y-61790720D01*
G75*
G02*
X24841780Y-61940720I-150000J0D01*
G01*
X23541780Y-61940720D01*
G75*
G02*
X23391780Y-61790720I0J150000D01*
G01*
X23391780Y-61490720D01*
G75*
G02*
X23541780Y-61340720I150000J0D01*
G01*
X24841780Y-61340720D01*
G75*
G02*
X24991780Y-61490720I0J-150000D01*
G01*
G37*
G36*
G01*
X30553780Y-52694160D02*
X29228780Y-52694160D01*
G75*
G02*
X29153780Y-52619160I0J75000D01*
G01*
X29153780Y-52469160D01*
G75*
G02*
X29228780Y-52394160I75000J0D01*
G01*
X30553780Y-52394160D01*
G75*
G02*
X30628780Y-52469160I0J-75000D01*
G01*
X30628780Y-52619160D01*
G75*
G02*
X30553780Y-52694160I-75000J0D01*
G01*
G37*
G36*
G01*
X30553780Y-52194160D02*
X29228780Y-52194160D01*
G75*
G02*
X29153780Y-52119160I0J75000D01*
G01*
X29153780Y-51969160D01*
G75*
G02*
X29228780Y-51894160I75000J0D01*
G01*
X30553780Y-51894160D01*
G75*
G02*
X30628780Y-51969160I0J-75000D01*
G01*
X30628780Y-52119160D01*
G75*
G02*
X30553780Y-52194160I-75000J0D01*
G01*
G37*
G36*
G01*
X30553780Y-51694160D02*
X29228780Y-51694160D01*
G75*
G02*
X29153780Y-51619160I0J75000D01*
G01*
X29153780Y-51469160D01*
G75*
G02*
X29228780Y-51394160I75000J0D01*
G01*
X30553780Y-51394160D01*
G75*
G02*
X30628780Y-51469160I0J-75000D01*
G01*
X30628780Y-51619160D01*
G75*
G02*
X30553780Y-51694160I-75000J0D01*
G01*
G37*
G36*
G01*
X30553780Y-51194160D02*
X29228780Y-51194160D01*
G75*
G02*
X29153780Y-51119160I0J75000D01*
G01*
X29153780Y-50969160D01*
G75*
G02*
X29228780Y-50894160I75000J0D01*
G01*
X30553780Y-50894160D01*
G75*
G02*
X30628780Y-50969160I0J-75000D01*
G01*
X30628780Y-51119160D01*
G75*
G02*
X30553780Y-51194160I-75000J0D01*
G01*
G37*
G36*
G01*
X30553780Y-50694160D02*
X29228780Y-50694160D01*
G75*
G02*
X29153780Y-50619160I0J75000D01*
G01*
X29153780Y-50469160D01*
G75*
G02*
X29228780Y-50394160I75000J0D01*
G01*
X30553780Y-50394160D01*
G75*
G02*
X30628780Y-50469160I0J-75000D01*
G01*
X30628780Y-50619160D01*
G75*
G02*
X30553780Y-50694160I-75000J0D01*
G01*
G37*
G36*
G01*
X30553780Y-50194160D02*
X29228780Y-50194160D01*
G75*
G02*
X29153780Y-50119160I0J75000D01*
G01*
X29153780Y-49969160D01*
G75*
G02*
X29228780Y-49894160I75000J0D01*
G01*
X30553780Y-49894160D01*
G75*
G02*
X30628780Y-49969160I0J-75000D01*
G01*
X30628780Y-50119160D01*
G75*
G02*
X30553780Y-50194160I-75000J0D01*
G01*
G37*
G36*
G01*
X30553780Y-49694160D02*
X29228780Y-49694160D01*
G75*
G02*
X29153780Y-49619160I0J75000D01*
G01*
X29153780Y-49469160D01*
G75*
G02*
X29228780Y-49394160I75000J0D01*
G01*
X30553780Y-49394160D01*
G75*
G02*
X30628780Y-49469160I0J-75000D01*
G01*
X30628780Y-49619160D01*
G75*
G02*
X30553780Y-49694160I-75000J0D01*
G01*
G37*
G36*
G01*
X30553780Y-49194160D02*
X29228780Y-49194160D01*
G75*
G02*
X29153780Y-49119160I0J75000D01*
G01*
X29153780Y-48969160D01*
G75*
G02*
X29228780Y-48894160I75000J0D01*
G01*
X30553780Y-48894160D01*
G75*
G02*
X30628780Y-48969160I0J-75000D01*
G01*
X30628780Y-49119160D01*
G75*
G02*
X30553780Y-49194160I-75000J0D01*
G01*
G37*
G36*
G01*
X30553780Y-48694160D02*
X29228780Y-48694160D01*
G75*
G02*
X29153780Y-48619160I0J75000D01*
G01*
X29153780Y-48469160D01*
G75*
G02*
X29228780Y-48394160I75000J0D01*
G01*
X30553780Y-48394160D01*
G75*
G02*
X30628780Y-48469160I0J-75000D01*
G01*
X30628780Y-48619160D01*
G75*
G02*
X30553780Y-48694160I-75000J0D01*
G01*
G37*
G36*
G01*
X30553780Y-48194160D02*
X29228780Y-48194160D01*
G75*
G02*
X29153780Y-48119160I0J75000D01*
G01*
X29153780Y-47969160D01*
G75*
G02*
X29228780Y-47894160I75000J0D01*
G01*
X30553780Y-47894160D01*
G75*
G02*
X30628780Y-47969160I0J-75000D01*
G01*
X30628780Y-48119160D01*
G75*
G02*
X30553780Y-48194160I-75000J0D01*
G01*
G37*
G36*
G01*
X30553780Y-47694160D02*
X29228780Y-47694160D01*
G75*
G02*
X29153780Y-47619160I0J75000D01*
G01*
X29153780Y-47469160D01*
G75*
G02*
X29228780Y-47394160I75000J0D01*
G01*
X30553780Y-47394160D01*
G75*
G02*
X30628780Y-47469160I0J-75000D01*
G01*
X30628780Y-47619160D01*
G75*
G02*
X30553780Y-47694160I-75000J0D01*
G01*
G37*
G36*
G01*
X30553780Y-47194160D02*
X29228780Y-47194160D01*
G75*
G02*
X29153780Y-47119160I0J75000D01*
G01*
X29153780Y-46969160D01*
G75*
G02*
X29228780Y-46894160I75000J0D01*
G01*
X30553780Y-46894160D01*
G75*
G02*
X30628780Y-46969160I0J-75000D01*
G01*
X30628780Y-47119160D01*
G75*
G02*
X30553780Y-47194160I-75000J0D01*
G01*
G37*
G36*
G01*
X31378780Y-46369160D02*
X31228780Y-46369160D01*
G75*
G02*
X31153780Y-46294160I0J75000D01*
G01*
X31153780Y-44969160D01*
G75*
G02*
X31228780Y-44894160I75000J0D01*
G01*
X31378780Y-44894160D01*
G75*
G02*
X31453780Y-44969160I0J-75000D01*
G01*
X31453780Y-46294160D01*
G75*
G02*
X31378780Y-46369160I-75000J0D01*
G01*
G37*
G36*
G01*
X31878780Y-46369160D02*
X31728780Y-46369160D01*
G75*
G02*
X31653780Y-46294160I0J75000D01*
G01*
X31653780Y-44969160D01*
G75*
G02*
X31728780Y-44894160I75000J0D01*
G01*
X31878780Y-44894160D01*
G75*
G02*
X31953780Y-44969160I0J-75000D01*
G01*
X31953780Y-46294160D01*
G75*
G02*
X31878780Y-46369160I-75000J0D01*
G01*
G37*
G36*
G01*
X32378780Y-46369160D02*
X32228780Y-46369160D01*
G75*
G02*
X32153780Y-46294160I0J75000D01*
G01*
X32153780Y-44969160D01*
G75*
G02*
X32228780Y-44894160I75000J0D01*
G01*
X32378780Y-44894160D01*
G75*
G02*
X32453780Y-44969160I0J-75000D01*
G01*
X32453780Y-46294160D01*
G75*
G02*
X32378780Y-46369160I-75000J0D01*
G01*
G37*
G36*
G01*
X32878780Y-46369160D02*
X32728780Y-46369160D01*
G75*
G02*
X32653780Y-46294160I0J75000D01*
G01*
X32653780Y-44969160D01*
G75*
G02*
X32728780Y-44894160I75000J0D01*
G01*
X32878780Y-44894160D01*
G75*
G02*
X32953780Y-44969160I0J-75000D01*
G01*
X32953780Y-46294160D01*
G75*
G02*
X32878780Y-46369160I-75000J0D01*
G01*
G37*
G36*
G01*
X33378780Y-46369160D02*
X33228780Y-46369160D01*
G75*
G02*
X33153780Y-46294160I0J75000D01*
G01*
X33153780Y-44969160D01*
G75*
G02*
X33228780Y-44894160I75000J0D01*
G01*
X33378780Y-44894160D01*
G75*
G02*
X33453780Y-44969160I0J-75000D01*
G01*
X33453780Y-46294160D01*
G75*
G02*
X33378780Y-46369160I-75000J0D01*
G01*
G37*
G36*
G01*
X33878780Y-46369160D02*
X33728780Y-46369160D01*
G75*
G02*
X33653780Y-46294160I0J75000D01*
G01*
X33653780Y-44969160D01*
G75*
G02*
X33728780Y-44894160I75000J0D01*
G01*
X33878780Y-44894160D01*
G75*
G02*
X33953780Y-44969160I0J-75000D01*
G01*
X33953780Y-46294160D01*
G75*
G02*
X33878780Y-46369160I-75000J0D01*
G01*
G37*
G36*
G01*
X34378780Y-46369160D02*
X34228780Y-46369160D01*
G75*
G02*
X34153780Y-46294160I0J75000D01*
G01*
X34153780Y-44969160D01*
G75*
G02*
X34228780Y-44894160I75000J0D01*
G01*
X34378780Y-44894160D01*
G75*
G02*
X34453780Y-44969160I0J-75000D01*
G01*
X34453780Y-46294160D01*
G75*
G02*
X34378780Y-46369160I-75000J0D01*
G01*
G37*
G36*
G01*
X34878780Y-46369160D02*
X34728780Y-46369160D01*
G75*
G02*
X34653780Y-46294160I0J75000D01*
G01*
X34653780Y-44969160D01*
G75*
G02*
X34728780Y-44894160I75000J0D01*
G01*
X34878780Y-44894160D01*
G75*
G02*
X34953780Y-44969160I0J-75000D01*
G01*
X34953780Y-46294160D01*
G75*
G02*
X34878780Y-46369160I-75000J0D01*
G01*
G37*
G36*
G01*
X35378780Y-46369160D02*
X35228780Y-46369160D01*
G75*
G02*
X35153780Y-46294160I0J75000D01*
G01*
X35153780Y-44969160D01*
G75*
G02*
X35228780Y-44894160I75000J0D01*
G01*
X35378780Y-44894160D01*
G75*
G02*
X35453780Y-44969160I0J-75000D01*
G01*
X35453780Y-46294160D01*
G75*
G02*
X35378780Y-46369160I-75000J0D01*
G01*
G37*
G36*
G01*
X35878780Y-46369160D02*
X35728780Y-46369160D01*
G75*
G02*
X35653780Y-46294160I0J75000D01*
G01*
X35653780Y-44969160D01*
G75*
G02*
X35728780Y-44894160I75000J0D01*
G01*
X35878780Y-44894160D01*
G75*
G02*
X35953780Y-44969160I0J-75000D01*
G01*
X35953780Y-46294160D01*
G75*
G02*
X35878780Y-46369160I-75000J0D01*
G01*
G37*
G36*
G01*
X36378780Y-46369160D02*
X36228780Y-46369160D01*
G75*
G02*
X36153780Y-46294160I0J75000D01*
G01*
X36153780Y-44969160D01*
G75*
G02*
X36228780Y-44894160I75000J0D01*
G01*
X36378780Y-44894160D01*
G75*
G02*
X36453780Y-44969160I0J-75000D01*
G01*
X36453780Y-46294160D01*
G75*
G02*
X36378780Y-46369160I-75000J0D01*
G01*
G37*
G36*
G01*
X36878780Y-46369160D02*
X36728780Y-46369160D01*
G75*
G02*
X36653780Y-46294160I0J75000D01*
G01*
X36653780Y-44969160D01*
G75*
G02*
X36728780Y-44894160I75000J0D01*
G01*
X36878780Y-44894160D01*
G75*
G02*
X36953780Y-44969160I0J-75000D01*
G01*
X36953780Y-46294160D01*
G75*
G02*
X36878780Y-46369160I-75000J0D01*
G01*
G37*
G36*
G01*
X38878780Y-47194160D02*
X37553780Y-47194160D01*
G75*
G02*
X37478780Y-47119160I0J75000D01*
G01*
X37478780Y-46969160D01*
G75*
G02*
X37553780Y-46894160I75000J0D01*
G01*
X38878780Y-46894160D01*
G75*
G02*
X38953780Y-46969160I0J-75000D01*
G01*
X38953780Y-47119160D01*
G75*
G02*
X38878780Y-47194160I-75000J0D01*
G01*
G37*
G36*
G01*
X38878780Y-47694160D02*
X37553780Y-47694160D01*
G75*
G02*
X37478780Y-47619160I0J75000D01*
G01*
X37478780Y-47469160D01*
G75*
G02*
X37553780Y-47394160I75000J0D01*
G01*
X38878780Y-47394160D01*
G75*
G02*
X38953780Y-47469160I0J-75000D01*
G01*
X38953780Y-47619160D01*
G75*
G02*
X38878780Y-47694160I-75000J0D01*
G01*
G37*
G36*
G01*
X38878780Y-48194160D02*
X37553780Y-48194160D01*
G75*
G02*
X37478780Y-48119160I0J75000D01*
G01*
X37478780Y-47969160D01*
G75*
G02*
X37553780Y-47894160I75000J0D01*
G01*
X38878780Y-47894160D01*
G75*
G02*
X38953780Y-47969160I0J-75000D01*
G01*
X38953780Y-48119160D01*
G75*
G02*
X38878780Y-48194160I-75000J0D01*
G01*
G37*
G36*
G01*
X38878780Y-48694160D02*
X37553780Y-48694160D01*
G75*
G02*
X37478780Y-48619160I0J75000D01*
G01*
X37478780Y-48469160D01*
G75*
G02*
X37553780Y-48394160I75000J0D01*
G01*
X38878780Y-48394160D01*
G75*
G02*
X38953780Y-48469160I0J-75000D01*
G01*
X38953780Y-48619160D01*
G75*
G02*
X38878780Y-48694160I-75000J0D01*
G01*
G37*
G36*
G01*
X38878780Y-49194160D02*
X37553780Y-49194160D01*
G75*
G02*
X37478780Y-49119160I0J75000D01*
G01*
X37478780Y-48969160D01*
G75*
G02*
X37553780Y-48894160I75000J0D01*
G01*
X38878780Y-48894160D01*
G75*
G02*
X38953780Y-48969160I0J-75000D01*
G01*
X38953780Y-49119160D01*
G75*
G02*
X38878780Y-49194160I-75000J0D01*
G01*
G37*
G36*
G01*
X38878780Y-49694160D02*
X37553780Y-49694160D01*
G75*
G02*
X37478780Y-49619160I0J75000D01*
G01*
X37478780Y-49469160D01*
G75*
G02*
X37553780Y-49394160I75000J0D01*
G01*
X38878780Y-49394160D01*
G75*
G02*
X38953780Y-49469160I0J-75000D01*
G01*
X38953780Y-49619160D01*
G75*
G02*
X38878780Y-49694160I-75000J0D01*
G01*
G37*
G36*
G01*
X38878780Y-50194160D02*
X37553780Y-50194160D01*
G75*
G02*
X37478780Y-50119160I0J75000D01*
G01*
X37478780Y-49969160D01*
G75*
G02*
X37553780Y-49894160I75000J0D01*
G01*
X38878780Y-49894160D01*
G75*
G02*
X38953780Y-49969160I0J-75000D01*
G01*
X38953780Y-50119160D01*
G75*
G02*
X38878780Y-50194160I-75000J0D01*
G01*
G37*
G36*
G01*
X38878780Y-50694160D02*
X37553780Y-50694160D01*
G75*
G02*
X37478780Y-50619160I0J75000D01*
G01*
X37478780Y-50469160D01*
G75*
G02*
X37553780Y-50394160I75000J0D01*
G01*
X38878780Y-50394160D01*
G75*
G02*
X38953780Y-50469160I0J-75000D01*
G01*
X38953780Y-50619160D01*
G75*
G02*
X38878780Y-50694160I-75000J0D01*
G01*
G37*
G36*
G01*
X38878780Y-51194160D02*
X37553780Y-51194160D01*
G75*
G02*
X37478780Y-51119160I0J75000D01*
G01*
X37478780Y-50969160D01*
G75*
G02*
X37553780Y-50894160I75000J0D01*
G01*
X38878780Y-50894160D01*
G75*
G02*
X38953780Y-50969160I0J-75000D01*
G01*
X38953780Y-51119160D01*
G75*
G02*
X38878780Y-51194160I-75000J0D01*
G01*
G37*
G36*
G01*
X38878780Y-51694160D02*
X37553780Y-51694160D01*
G75*
G02*
X37478780Y-51619160I0J75000D01*
G01*
X37478780Y-51469160D01*
G75*
G02*
X37553780Y-51394160I75000J0D01*
G01*
X38878780Y-51394160D01*
G75*
G02*
X38953780Y-51469160I0J-75000D01*
G01*
X38953780Y-51619160D01*
G75*
G02*
X38878780Y-51694160I-75000J0D01*
G01*
G37*
G36*
G01*
X38878780Y-52194160D02*
X37553780Y-52194160D01*
G75*
G02*
X37478780Y-52119160I0J75000D01*
G01*
X37478780Y-51969160D01*
G75*
G02*
X37553780Y-51894160I75000J0D01*
G01*
X38878780Y-51894160D01*
G75*
G02*
X38953780Y-51969160I0J-75000D01*
G01*
X38953780Y-52119160D01*
G75*
G02*
X38878780Y-52194160I-75000J0D01*
G01*
G37*
G36*
G01*
X38878780Y-52694160D02*
X37553780Y-52694160D01*
G75*
G02*
X37478780Y-52619160I0J75000D01*
G01*
X37478780Y-52469160D01*
G75*
G02*
X37553780Y-52394160I75000J0D01*
G01*
X38878780Y-52394160D01*
G75*
G02*
X38953780Y-52469160I0J-75000D01*
G01*
X38953780Y-52619160D01*
G75*
G02*
X38878780Y-52694160I-75000J0D01*
G01*
G37*
G36*
G01*
X36878780Y-54694160D02*
X36728780Y-54694160D01*
G75*
G02*
X36653780Y-54619160I0J75000D01*
G01*
X36653780Y-53294160D01*
G75*
G02*
X36728780Y-53219160I75000J0D01*
G01*
X36878780Y-53219160D01*
G75*
G02*
X36953780Y-53294160I0J-75000D01*
G01*
X36953780Y-54619160D01*
G75*
G02*
X36878780Y-54694160I-75000J0D01*
G01*
G37*
G36*
G01*
X36378780Y-54694160D02*
X36228780Y-54694160D01*
G75*
G02*
X36153780Y-54619160I0J75000D01*
G01*
X36153780Y-53294160D01*
G75*
G02*
X36228780Y-53219160I75000J0D01*
G01*
X36378780Y-53219160D01*
G75*
G02*
X36453780Y-53294160I0J-75000D01*
G01*
X36453780Y-54619160D01*
G75*
G02*
X36378780Y-54694160I-75000J0D01*
G01*
G37*
G36*
G01*
X35878780Y-54694160D02*
X35728780Y-54694160D01*
G75*
G02*
X35653780Y-54619160I0J75000D01*
G01*
X35653780Y-53294160D01*
G75*
G02*
X35728780Y-53219160I75000J0D01*
G01*
X35878780Y-53219160D01*
G75*
G02*
X35953780Y-53294160I0J-75000D01*
G01*
X35953780Y-54619160D01*
G75*
G02*
X35878780Y-54694160I-75000J0D01*
G01*
G37*
G36*
G01*
X35378780Y-54694160D02*
X35228780Y-54694160D01*
G75*
G02*
X35153780Y-54619160I0J75000D01*
G01*
X35153780Y-53294160D01*
G75*
G02*
X35228780Y-53219160I75000J0D01*
G01*
X35378780Y-53219160D01*
G75*
G02*
X35453780Y-53294160I0J-75000D01*
G01*
X35453780Y-54619160D01*
G75*
G02*
X35378780Y-54694160I-75000J0D01*
G01*
G37*
G36*
G01*
X34878780Y-54694160D02*
X34728780Y-54694160D01*
G75*
G02*
X34653780Y-54619160I0J75000D01*
G01*
X34653780Y-53294160D01*
G75*
G02*
X34728780Y-53219160I75000J0D01*
G01*
X34878780Y-53219160D01*
G75*
G02*
X34953780Y-53294160I0J-75000D01*
G01*
X34953780Y-54619160D01*
G75*
G02*
X34878780Y-54694160I-75000J0D01*
G01*
G37*
G36*
G01*
X34378780Y-54694160D02*
X34228780Y-54694160D01*
G75*
G02*
X34153780Y-54619160I0J75000D01*
G01*
X34153780Y-53294160D01*
G75*
G02*
X34228780Y-53219160I75000J0D01*
G01*
X34378780Y-53219160D01*
G75*
G02*
X34453780Y-53294160I0J-75000D01*
G01*
X34453780Y-54619160D01*
G75*
G02*
X34378780Y-54694160I-75000J0D01*
G01*
G37*
G36*
G01*
X33878780Y-54694160D02*
X33728780Y-54694160D01*
G75*
G02*
X33653780Y-54619160I0J75000D01*
G01*
X33653780Y-53294160D01*
G75*
G02*
X33728780Y-53219160I75000J0D01*
G01*
X33878780Y-53219160D01*
G75*
G02*
X33953780Y-53294160I0J-75000D01*
G01*
X33953780Y-54619160D01*
G75*
G02*
X33878780Y-54694160I-75000J0D01*
G01*
G37*
G36*
G01*
X33378780Y-54694160D02*
X33228780Y-54694160D01*
G75*
G02*
X33153780Y-54619160I0J75000D01*
G01*
X33153780Y-53294160D01*
G75*
G02*
X33228780Y-53219160I75000J0D01*
G01*
X33378780Y-53219160D01*
G75*
G02*
X33453780Y-53294160I0J-75000D01*
G01*
X33453780Y-54619160D01*
G75*
G02*
X33378780Y-54694160I-75000J0D01*
G01*
G37*
G36*
G01*
X32878780Y-54694160D02*
X32728780Y-54694160D01*
G75*
G02*
X32653780Y-54619160I0J75000D01*
G01*
X32653780Y-53294160D01*
G75*
G02*
X32728780Y-53219160I75000J0D01*
G01*
X32878780Y-53219160D01*
G75*
G02*
X32953780Y-53294160I0J-75000D01*
G01*
X32953780Y-54619160D01*
G75*
G02*
X32878780Y-54694160I-75000J0D01*
G01*
G37*
G36*
G01*
X32378780Y-54694160D02*
X32228780Y-54694160D01*
G75*
G02*
X32153780Y-54619160I0J75000D01*
G01*
X32153780Y-53294160D01*
G75*
G02*
X32228780Y-53219160I75000J0D01*
G01*
X32378780Y-53219160D01*
G75*
G02*
X32453780Y-53294160I0J-75000D01*
G01*
X32453780Y-54619160D01*
G75*
G02*
X32378780Y-54694160I-75000J0D01*
G01*
G37*
G36*
G01*
X31878780Y-54694160D02*
X31728780Y-54694160D01*
G75*
G02*
X31653780Y-54619160I0J75000D01*
G01*
X31653780Y-53294160D01*
G75*
G02*
X31728780Y-53219160I75000J0D01*
G01*
X31878780Y-53219160D01*
G75*
G02*
X31953780Y-53294160I0J-75000D01*
G01*
X31953780Y-54619160D01*
G75*
G02*
X31878780Y-54694160I-75000J0D01*
G01*
G37*
G36*
G01*
X31378780Y-54694160D02*
X31228780Y-54694160D01*
G75*
G02*
X31153780Y-54619160I0J75000D01*
G01*
X31153780Y-53294160D01*
G75*
G02*
X31228780Y-53219160I75000J0D01*
G01*
X31378780Y-53219160D01*
G75*
G02*
X31453780Y-53294160I0J-75000D01*
G01*
X31453780Y-54619160D01*
G75*
G02*
X31378780Y-54694160I-75000J0D01*
G01*
G37*
G36*
G01*
X37104030Y-57038760D02*
X36591530Y-57038760D01*
G75*
G02*
X36372780Y-56820010I0J218750D01*
G01*
X36372780Y-56382510D01*
G75*
G02*
X36591530Y-56163760I218750J0D01*
G01*
X37104030Y-56163760D01*
G75*
G02*
X37322780Y-56382510I0J-218750D01*
G01*
X37322780Y-56820010D01*
G75*
G02*
X37104030Y-57038760I-218750J0D01*
G01*
G37*
G36*
G01*
X37104030Y-58613760D02*
X36591530Y-58613760D01*
G75*
G02*
X36372780Y-58395010I0J218750D01*
G01*
X36372780Y-57957510D01*
G75*
G02*
X36591530Y-57738760I218750J0D01*
G01*
X37104030Y-57738760D01*
G75*
G02*
X37322780Y-57957510I0J-218750D01*
G01*
X37322780Y-58395010D01*
G75*
G02*
X37104030Y-58613760I-218750J0D01*
G01*
G37*
G36*
G01*
X26309820Y-47091820D02*
X26309820Y-47436820D01*
G75*
G02*
X26162320Y-47584320I-147500J0D01*
G01*
X25867320Y-47584320D01*
G75*
G02*
X25719820Y-47436820I0J147500D01*
G01*
X25719820Y-47091820D01*
G75*
G02*
X25867320Y-46944320I147500J0D01*
G01*
X26162320Y-46944320D01*
G75*
G02*
X26309820Y-47091820I0J-147500D01*
G01*
G37*
G36*
G01*
X27279820Y-47091820D02*
X27279820Y-47436820D01*
G75*
G02*
X27132320Y-47584320I-147500J0D01*
G01*
X26837320Y-47584320D01*
G75*
G02*
X26689820Y-47436820I0J147500D01*
G01*
X26689820Y-47091820D01*
G75*
G02*
X26837320Y-46944320I147500J0D01*
G01*
X27132320Y-46944320D01*
G75*
G02*
X27279820Y-47091820I0J-147500D01*
G01*
G37*
G36*
G01*
X26309820Y-48275460D02*
X26309820Y-48620460D01*
G75*
G02*
X26162320Y-48767960I-147500J0D01*
G01*
X25867320Y-48767960D01*
G75*
G02*
X25719820Y-48620460I0J147500D01*
G01*
X25719820Y-48275460D01*
G75*
G02*
X25867320Y-48127960I147500J0D01*
G01*
X26162320Y-48127960D01*
G75*
G02*
X26309820Y-48275460I0J-147500D01*
G01*
G37*
G36*
G01*
X27279820Y-48275460D02*
X27279820Y-48620460D01*
G75*
G02*
X27132320Y-48767960I-147500J0D01*
G01*
X26837320Y-48767960D01*
G75*
G02*
X26689820Y-48620460I0J147500D01*
G01*
X26689820Y-48275460D01*
G75*
G02*
X26837320Y-48127960I147500J0D01*
G01*
X27132320Y-48127960D01*
G75*
G02*
X27279820Y-48275460I0J-147500D01*
G01*
G37*
G36*
G01*
X34104800Y-57340000D02*
X34449800Y-57340000D01*
G75*
G02*
X34597300Y-57487500I0J-147500D01*
G01*
X34597300Y-57782500D01*
G75*
G02*
X34449800Y-57930000I-147500J0D01*
G01*
X34104800Y-57930000D01*
G75*
G02*
X33957300Y-57782500I0J147500D01*
G01*
X33957300Y-57487500D01*
G75*
G02*
X34104800Y-57340000I147500J0D01*
G01*
G37*
G36*
G01*
X34104800Y-56370000D02*
X34449800Y-56370000D01*
G75*
G02*
X34597300Y-56517500I0J-147500D01*
G01*
X34597300Y-56812500D01*
G75*
G02*
X34449800Y-56960000I-147500J0D01*
G01*
X34104800Y-56960000D01*
G75*
G02*
X33957300Y-56812500I0J147500D01*
G01*
X33957300Y-56517500D01*
G75*
G02*
X34104800Y-56370000I147500J0D01*
G01*
G37*
G36*
G01*
X38422800Y-57598760D02*
X38767800Y-57598760D01*
G75*
G02*
X38915300Y-57746260I0J-147500D01*
G01*
X38915300Y-58041260D01*
G75*
G02*
X38767800Y-58188760I-147500J0D01*
G01*
X38422800Y-58188760D01*
G75*
G02*
X38275300Y-58041260I0J147500D01*
G01*
X38275300Y-57746260D01*
G75*
G02*
X38422800Y-57598760I147500J0D01*
G01*
G37*
G36*
G01*
X38422800Y-56628760D02*
X38767800Y-56628760D01*
G75*
G02*
X38915300Y-56776260I0J-147500D01*
G01*
X38915300Y-57071260D01*
G75*
G02*
X38767800Y-57218760I-147500J0D01*
G01*
X38422800Y-57218760D01*
G75*
G02*
X38275300Y-57071260I0J147500D01*
G01*
X38275300Y-56776260D01*
G75*
G02*
X38422800Y-56628760I147500J0D01*
G01*
G37*
G36*
G01*
X36425920Y-41598080D02*
X36080920Y-41598080D01*
G75*
G02*
X35933420Y-41450580I0J147500D01*
G01*
X35933420Y-41155580D01*
G75*
G02*
X36080920Y-41008080I147500J0D01*
G01*
X36425920Y-41008080D01*
G75*
G02*
X36573420Y-41155580I0J-147500D01*
G01*
X36573420Y-41450580D01*
G75*
G02*
X36425920Y-41598080I-147500J0D01*
G01*
G37*
G36*
G01*
X36425920Y-42568080D02*
X36080920Y-42568080D01*
G75*
G02*
X35933420Y-42420580I0J147500D01*
G01*
X35933420Y-42125580D01*
G75*
G02*
X36080920Y-41978080I147500J0D01*
G01*
X36425920Y-41978080D01*
G75*
G02*
X36573420Y-42125580I0J-147500D01*
G01*
X36573420Y-42420580D01*
G75*
G02*
X36425920Y-42568080I-147500J0D01*
G01*
G37*
G36*
G01*
X56280180Y-10291320D02*
X56280180Y-8291320D01*
G75*
G02*
X56530180Y-8041320I250000J0D01*
G01*
X60430180Y-8041320D01*
G75*
G02*
X60680180Y-8291320I0J-250000D01*
G01*
X60680180Y-10291320D01*
G75*
G02*
X60430180Y-10541320I-250000J0D01*
G01*
X56530180Y-10541320D01*
G75*
G02*
X56280180Y-10291320I0J250000D01*
G01*
G37*
G36*
G01*
X48880180Y-10291320D02*
X48880180Y-8291320D01*
G75*
G02*
X49130180Y-8041320I250000J0D01*
G01*
X53030180Y-8041320D01*
G75*
G02*
X53280180Y-8291320I0J-250000D01*
G01*
X53280180Y-10291320D01*
G75*
G02*
X53030180Y-10541320I-250000J0D01*
G01*
X49130180Y-10541320D01*
G75*
G02*
X48880180Y-10291320I0J250000D01*
G01*
G37*
G36*
G01*
X16468292Y-66205600D02*
X16123292Y-66205600D01*
G75*
G02*
X15975792Y-66058100I0J147500D01*
G01*
X15975792Y-65763100D01*
G75*
G02*
X16123292Y-65615600I147500J0D01*
G01*
X16468292Y-65615600D01*
G75*
G02*
X16615792Y-65763100I0J-147500D01*
G01*
X16615792Y-66058100D01*
G75*
G02*
X16468292Y-66205600I-147500J0D01*
G01*
G37*
G36*
G01*
X16468292Y-67175600D02*
X16123292Y-67175600D01*
G75*
G02*
X15975792Y-67028100I0J147500D01*
G01*
X15975792Y-66733100D01*
G75*
G02*
X16123292Y-66585600I147500J0D01*
G01*
X16468292Y-66585600D01*
G75*
G02*
X16615792Y-66733100I0J-147500D01*
G01*
X16615792Y-67028100D01*
G75*
G02*
X16468292Y-67175600I-147500J0D01*
G01*
G37*
D11*
X48807100Y-82001360D03*
X52107100Y-82001360D03*
G36*
G01*
X53815200Y-81871320D02*
X54160200Y-81871320D01*
G75*
G02*
X54307700Y-82018820I0J-147500D01*
G01*
X54307700Y-82313820D01*
G75*
G02*
X54160200Y-82461320I-147500J0D01*
G01*
X53815200Y-82461320D01*
G75*
G02*
X53667700Y-82313820I0J147500D01*
G01*
X53667700Y-82018820D01*
G75*
G02*
X53815200Y-81871320I147500J0D01*
G01*
G37*
G36*
G01*
X53815200Y-80901320D02*
X54160200Y-80901320D01*
G75*
G02*
X54307700Y-81048820I0J-147500D01*
G01*
X54307700Y-81343820D01*
G75*
G02*
X54160200Y-81491320I-147500J0D01*
G01*
X53815200Y-81491320D01*
G75*
G02*
X53667700Y-81343820I0J147500D01*
G01*
X53667700Y-81048820D01*
G75*
G02*
X53815200Y-80901320I147500J0D01*
G01*
G37*
G36*
G01*
X50370960Y-86362040D02*
X50715960Y-86362040D01*
G75*
G02*
X50863460Y-86509540I0J-147500D01*
G01*
X50863460Y-86804540D01*
G75*
G02*
X50715960Y-86952040I-147500J0D01*
G01*
X50370960Y-86952040D01*
G75*
G02*
X50223460Y-86804540I0J147500D01*
G01*
X50223460Y-86509540D01*
G75*
G02*
X50370960Y-86362040I147500J0D01*
G01*
G37*
G36*
G01*
X50370960Y-85392040D02*
X50715960Y-85392040D01*
G75*
G02*
X50863460Y-85539540I0J-147500D01*
G01*
X50863460Y-85834540D01*
G75*
G02*
X50715960Y-85982040I-147500J0D01*
G01*
X50370960Y-85982040D01*
G75*
G02*
X50223460Y-85834540I0J147500D01*
G01*
X50223460Y-85539540D01*
G75*
G02*
X50370960Y-85392040I147500J0D01*
G01*
G37*
G36*
G01*
X46707440Y-82801170D02*
X46707440Y-82288670D01*
G75*
G02*
X46926190Y-82069920I218750J0D01*
G01*
X47363690Y-82069920D01*
G75*
G02*
X47582440Y-82288670I0J-218750D01*
G01*
X47582440Y-82801170D01*
G75*
G02*
X47363690Y-83019920I-218750J0D01*
G01*
X46926190Y-83019920D01*
G75*
G02*
X46707440Y-82801170I0J218750D01*
G01*
G37*
G36*
G01*
X45132440Y-82801170D02*
X45132440Y-82288670D01*
G75*
G02*
X45351190Y-82069920I218750J0D01*
G01*
X45788690Y-82069920D01*
G75*
G02*
X46007440Y-82288670I0J-218750D01*
G01*
X46007440Y-82801170D01*
G75*
G02*
X45788690Y-83019920I-218750J0D01*
G01*
X45351190Y-83019920D01*
G75*
G02*
X45132440Y-82801170I0J218750D01*
G01*
G37*
G36*
G01*
X56710360Y-87739720D02*
X56365360Y-87739720D01*
G75*
G02*
X56217860Y-87592220I0J147500D01*
G01*
X56217860Y-87297220D01*
G75*
G02*
X56365360Y-87149720I147500J0D01*
G01*
X56710360Y-87149720D01*
G75*
G02*
X56857860Y-87297220I0J-147500D01*
G01*
X56857860Y-87592220D01*
G75*
G02*
X56710360Y-87739720I-147500J0D01*
G01*
G37*
G36*
G01*
X56710360Y-88709720D02*
X56365360Y-88709720D01*
G75*
G02*
X56217860Y-88562220I0J147500D01*
G01*
X56217860Y-88267220D01*
G75*
G02*
X56365360Y-88119720I147500J0D01*
G01*
X56710360Y-88119720D01*
G75*
G02*
X56857860Y-88267220I0J-147500D01*
G01*
X56857860Y-88562220D01*
G75*
G02*
X56710360Y-88709720I-147500J0D01*
G01*
G37*
G36*
G01*
X56360280Y-86067400D02*
X56705280Y-86067400D01*
G75*
G02*
X56852780Y-86214900I0J-147500D01*
G01*
X56852780Y-86509900D01*
G75*
G02*
X56705280Y-86657400I-147500J0D01*
G01*
X56360280Y-86657400D01*
G75*
G02*
X56212780Y-86509900I0J147500D01*
G01*
X56212780Y-86214900D01*
G75*
G02*
X56360280Y-86067400I147500J0D01*
G01*
G37*
G36*
G01*
X56360280Y-85097400D02*
X56705280Y-85097400D01*
G75*
G02*
X56852780Y-85244900I0J-147500D01*
G01*
X56852780Y-85539900D01*
G75*
G02*
X56705280Y-85687400I-147500J0D01*
G01*
X56360280Y-85687400D01*
G75*
G02*
X56212780Y-85539900I0J147500D01*
G01*
X56212780Y-85244900D01*
G75*
G02*
X56360280Y-85097400I147500J0D01*
G01*
G37*
D12*
X52245220Y-84145760D03*
X53195220Y-84145760D03*
X54145220Y-84145760D03*
X54145220Y-86765760D03*
X53195220Y-86765760D03*
X52245220Y-86765760D03*
G36*
G01*
X46674740Y-84030240D02*
X46674740Y-86180240D01*
G75*
G02*
X46424740Y-86430240I-250000J0D01*
G01*
X45674740Y-86430240D01*
G75*
G02*
X45424740Y-86180240I0J250000D01*
G01*
X45424740Y-84030240D01*
G75*
G02*
X45674740Y-83780240I250000J0D01*
G01*
X46424740Y-83780240D01*
G75*
G02*
X46674740Y-84030240I0J-250000D01*
G01*
G37*
G36*
G01*
X49474740Y-84030240D02*
X49474740Y-86180240D01*
G75*
G02*
X49224740Y-86430240I-250000J0D01*
G01*
X48474740Y-86430240D01*
G75*
G02*
X48224740Y-86180240I0J250000D01*
G01*
X48224740Y-84030240D01*
G75*
G02*
X48474740Y-83780240I250000J0D01*
G01*
X49224740Y-83780240D01*
G75*
G02*
X49474740Y-84030240I0J-250000D01*
G01*
G37*
G36*
G01*
X55410320Y-82938120D02*
X55755320Y-82938120D01*
G75*
G02*
X55902820Y-83085620I0J-147500D01*
G01*
X55902820Y-83380620D01*
G75*
G02*
X55755320Y-83528120I-147500J0D01*
G01*
X55410320Y-83528120D01*
G75*
G02*
X55262820Y-83380620I0J147500D01*
G01*
X55262820Y-83085620D01*
G75*
G02*
X55410320Y-82938120I147500J0D01*
G01*
G37*
G36*
G01*
X55410320Y-81968120D02*
X55755320Y-81968120D01*
G75*
G02*
X55902820Y-82115620I0J-147500D01*
G01*
X55902820Y-82410620D01*
G75*
G02*
X55755320Y-82558120I-147500J0D01*
G01*
X55410320Y-82558120D01*
G75*
G02*
X55262820Y-82410620I0J147500D01*
G01*
X55262820Y-82115620D01*
G75*
G02*
X55410320Y-81968120I147500J0D01*
G01*
G37*
G36*
G01*
X51367560Y-52494940D02*
X51367560Y-54494940D01*
G75*
G02*
X51117560Y-54744940I-250000J0D01*
G01*
X47217560Y-54744940D01*
G75*
G02*
X46967560Y-54494940I0J250000D01*
G01*
X46967560Y-52494940D01*
G75*
G02*
X47217560Y-52244940I250000J0D01*
G01*
X51117560Y-52244940D01*
G75*
G02*
X51367560Y-52494940I0J-250000D01*
G01*
G37*
G36*
G01*
X58767560Y-52494940D02*
X58767560Y-54494940D01*
G75*
G02*
X58517560Y-54744940I-250000J0D01*
G01*
X54617560Y-54744940D01*
G75*
G02*
X54367560Y-54494940I0J250000D01*
G01*
X54367560Y-52494940D01*
G75*
G02*
X54617560Y-52244940I250000J0D01*
G01*
X58517560Y-52244940D01*
G75*
G02*
X58767560Y-52494940I0J-250000D01*
G01*
G37*
G36*
G01*
X21974940Y-18256760D02*
X21974940Y-16256760D01*
G75*
G02*
X22224940Y-16006760I250000J0D01*
G01*
X26124940Y-16006760D01*
G75*
G02*
X26374940Y-16256760I0J-250000D01*
G01*
X26374940Y-18256760D01*
G75*
G02*
X26124940Y-18506760I-250000J0D01*
G01*
X22224940Y-18506760D01*
G75*
G02*
X21974940Y-18256760I0J250000D01*
G01*
G37*
G36*
G01*
X14574940Y-18256760D02*
X14574940Y-16256760D01*
G75*
G02*
X14824940Y-16006760I250000J0D01*
G01*
X18724940Y-16006760D01*
G75*
G02*
X18974940Y-16256760I0J-250000D01*
G01*
X18974940Y-18256760D01*
G75*
G02*
X18724940Y-18506760I-250000J0D01*
G01*
X14824940Y-18506760D01*
G75*
G02*
X14574940Y-18256760I0J250000D01*
G01*
G37*
G36*
G01*
X18184380Y-80099190D02*
X18184380Y-80611690D01*
G75*
G02*
X17965630Y-80830440I-218750J0D01*
G01*
X17528130Y-80830440D01*
G75*
G02*
X17309380Y-80611690I0J218750D01*
G01*
X17309380Y-80099190D01*
G75*
G02*
X17528130Y-79880440I218750J0D01*
G01*
X17965630Y-79880440D01*
G75*
G02*
X18184380Y-80099190I0J-218750D01*
G01*
G37*
G36*
G01*
X19759380Y-80099190D02*
X19759380Y-80611690D01*
G75*
G02*
X19540630Y-80830440I-218750J0D01*
G01*
X19103130Y-80830440D01*
G75*
G02*
X18884380Y-80611690I0J218750D01*
G01*
X18884380Y-80099190D01*
G75*
G02*
X19103130Y-79880440I218750J0D01*
G01*
X19540630Y-79880440D01*
G75*
G02*
X19759380Y-80099190I0J-218750D01*
G01*
G37*
G36*
G01*
X52945780Y-34490370D02*
X52945780Y-33977870D01*
G75*
G02*
X53164530Y-33759120I218750J0D01*
G01*
X53602030Y-33759120D01*
G75*
G02*
X53820780Y-33977870I0J-218750D01*
G01*
X53820780Y-34490370D01*
G75*
G02*
X53602030Y-34709120I-218750J0D01*
G01*
X53164530Y-34709120D01*
G75*
G02*
X52945780Y-34490370I0J218750D01*
G01*
G37*
G36*
G01*
X51370780Y-34490370D02*
X51370780Y-33977870D01*
G75*
G02*
X51589530Y-33759120I218750J0D01*
G01*
X52027030Y-33759120D01*
G75*
G02*
X52245780Y-33977870I0J-218750D01*
G01*
X52245780Y-34490370D01*
G75*
G02*
X52027030Y-34709120I-218750J0D01*
G01*
X51589530Y-34709120D01*
G75*
G02*
X51370780Y-34490370I0J218750D01*
G01*
G37*
D13*
X16750180Y-82763320D03*
X19150180Y-82763320D03*
X19150180Y-84663320D03*
X16750180Y-84663320D03*
G36*
G01*
X54820520Y-43487180D02*
X54820520Y-44737180D01*
G75*
G02*
X54570520Y-44987180I-250000J0D01*
G01*
X53820520Y-44987180D01*
G75*
G02*
X53570520Y-44737180I0J250000D01*
G01*
X53570520Y-43487180D01*
G75*
G02*
X53820520Y-43237180I250000J0D01*
G01*
X54570520Y-43237180D01*
G75*
G02*
X54820520Y-43487180I0J-250000D01*
G01*
G37*
G36*
G01*
X57620520Y-43487180D02*
X57620520Y-44737180D01*
G75*
G02*
X57370520Y-44987180I-250000J0D01*
G01*
X56620520Y-44987180D01*
G75*
G02*
X56370520Y-44737180I0J250000D01*
G01*
X56370520Y-43487180D01*
G75*
G02*
X56620520Y-43237180I250000J0D01*
G01*
X57370520Y-43237180D01*
G75*
G02*
X57620520Y-43487180I0J-250000D01*
G01*
G37*
G36*
G01*
X50566020Y-35666520D02*
X50566020Y-36916520D01*
G75*
G02*
X50316020Y-37166520I-250000J0D01*
G01*
X49566020Y-37166520D01*
G75*
G02*
X49316020Y-36916520I0J250000D01*
G01*
X49316020Y-35666520D01*
G75*
G02*
X49566020Y-35416520I250000J0D01*
G01*
X50316020Y-35416520D01*
G75*
G02*
X50566020Y-35666520I0J-250000D01*
G01*
G37*
G36*
G01*
X53366020Y-35666520D02*
X53366020Y-36916520D01*
G75*
G02*
X53116020Y-37166520I-250000J0D01*
G01*
X52366020Y-37166520D01*
G75*
G02*
X52116020Y-36916520I0J250000D01*
G01*
X52116020Y-35666520D01*
G75*
G02*
X52366020Y-35416520I250000J0D01*
G01*
X53116020Y-35416520D01*
G75*
G02*
X53366020Y-35666520I0J-250000D01*
G01*
G37*
G36*
G01*
X61333540Y-22267880D02*
X60083540Y-22267880D01*
G75*
G02*
X59833540Y-22017880I0J250000D01*
G01*
X59833540Y-21267880D01*
G75*
G02*
X60083540Y-21017880I250000J0D01*
G01*
X61333540Y-21017880D01*
G75*
G02*
X61583540Y-21267880I0J-250000D01*
G01*
X61583540Y-22017880D01*
G75*
G02*
X61333540Y-22267880I-250000J0D01*
G01*
G37*
G36*
G01*
X61333540Y-25067880D02*
X60083540Y-25067880D01*
G75*
G02*
X59833540Y-24817880I0J250000D01*
G01*
X59833540Y-24067880D01*
G75*
G02*
X60083540Y-23817880I250000J0D01*
G01*
X61333540Y-23817880D01*
G75*
G02*
X61583540Y-24067880I0J-250000D01*
G01*
X61583540Y-24817880D01*
G75*
G02*
X61333540Y-25067880I-250000J0D01*
G01*
G37*
G36*
G01*
X60103860Y-28633720D02*
X61353860Y-28633720D01*
G75*
G02*
X61603860Y-28883720I0J-250000D01*
G01*
X61603860Y-29633720D01*
G75*
G02*
X61353860Y-29883720I-250000J0D01*
G01*
X60103860Y-29883720D01*
G75*
G02*
X59853860Y-29633720I0J250000D01*
G01*
X59853860Y-28883720D01*
G75*
G02*
X60103860Y-28633720I250000J0D01*
G01*
G37*
G36*
G01*
X60103860Y-25833720D02*
X61353860Y-25833720D01*
G75*
G02*
X61603860Y-26083720I0J-250000D01*
G01*
X61603860Y-26833720D01*
G75*
G02*
X61353860Y-27083720I-250000J0D01*
G01*
X60103860Y-27083720D01*
G75*
G02*
X59853860Y-26833720I0J250000D01*
G01*
X59853860Y-26083720D01*
G75*
G02*
X60103860Y-25833720I250000J0D01*
G01*
G37*
G36*
G01*
X60053060Y-18707400D02*
X61303060Y-18707400D01*
G75*
G02*
X61553060Y-18957400I0J-250000D01*
G01*
X61553060Y-19707400D01*
G75*
G02*
X61303060Y-19957400I-250000J0D01*
G01*
X60053060Y-19957400D01*
G75*
G02*
X59803060Y-19707400I0J250000D01*
G01*
X59803060Y-18957400D01*
G75*
G02*
X60053060Y-18707400I250000J0D01*
G01*
G37*
G36*
G01*
X60053060Y-15907400D02*
X61303060Y-15907400D01*
G75*
G02*
X61553060Y-16157400I0J-250000D01*
G01*
X61553060Y-16907400D01*
G75*
G02*
X61303060Y-17157400I-250000J0D01*
G01*
X60053060Y-17157400D01*
G75*
G02*
X59803060Y-16907400I0J250000D01*
G01*
X59803060Y-16157400D01*
G75*
G02*
X60053060Y-15907400I250000J0D01*
G01*
G37*
G36*
G01*
X61313220Y-12448240D02*
X60063220Y-12448240D01*
G75*
G02*
X59813220Y-12198240I0J250000D01*
G01*
X59813220Y-11448240D01*
G75*
G02*
X60063220Y-11198240I250000J0D01*
G01*
X61313220Y-11198240D01*
G75*
G02*
X61563220Y-11448240I0J-250000D01*
G01*
X61563220Y-12198240D01*
G75*
G02*
X61313220Y-12448240I-250000J0D01*
G01*
G37*
G36*
G01*
X61313220Y-15248240D02*
X60063220Y-15248240D01*
G75*
G02*
X59813220Y-14998240I0J250000D01*
G01*
X59813220Y-14248240D01*
G75*
G02*
X60063220Y-13998240I250000J0D01*
G01*
X61313220Y-13998240D01*
G75*
G02*
X61563220Y-14248240I0J-250000D01*
G01*
X61563220Y-14998240D01*
G75*
G02*
X61313220Y-15248240I-250000J0D01*
G01*
G37*
G36*
G01*
X38154900Y-67730760D02*
X38154900Y-67530760D01*
G75*
G02*
X38254900Y-67430760I100000J0D01*
G01*
X39529900Y-67430760D01*
G75*
G02*
X39629900Y-67530760I0J-100000D01*
G01*
X39629900Y-67730760D01*
G75*
G02*
X39529900Y-67830760I-100000J0D01*
G01*
X38254900Y-67830760D01*
G75*
G02*
X38154900Y-67730760I0J100000D01*
G01*
G37*
G36*
G01*
X38154900Y-68380760D02*
X38154900Y-68180760D01*
G75*
G02*
X38254900Y-68080760I100000J0D01*
G01*
X39529900Y-68080760D01*
G75*
G02*
X39629900Y-68180760I0J-100000D01*
G01*
X39629900Y-68380760D01*
G75*
G02*
X39529900Y-68480760I-100000J0D01*
G01*
X38254900Y-68480760D01*
G75*
G02*
X38154900Y-68380760I0J100000D01*
G01*
G37*
G36*
G01*
X38154900Y-69030760D02*
X38154900Y-68830760D01*
G75*
G02*
X38254900Y-68730760I100000J0D01*
G01*
X39529900Y-68730760D01*
G75*
G02*
X39629900Y-68830760I0J-100000D01*
G01*
X39629900Y-69030760D01*
G75*
G02*
X39529900Y-69130760I-100000J0D01*
G01*
X38254900Y-69130760D01*
G75*
G02*
X38154900Y-69030760I0J100000D01*
G01*
G37*
G36*
G01*
X38154900Y-69680760D02*
X38154900Y-69480760D01*
G75*
G02*
X38254900Y-69380760I100000J0D01*
G01*
X39529900Y-69380760D01*
G75*
G02*
X39629900Y-69480760I0J-100000D01*
G01*
X39629900Y-69680760D01*
G75*
G02*
X39529900Y-69780760I-100000J0D01*
G01*
X38254900Y-69780760D01*
G75*
G02*
X38154900Y-69680760I0J100000D01*
G01*
G37*
G36*
G01*
X38154900Y-70330760D02*
X38154900Y-70130760D01*
G75*
G02*
X38254900Y-70030760I100000J0D01*
G01*
X39529900Y-70030760D01*
G75*
G02*
X39629900Y-70130760I0J-100000D01*
G01*
X39629900Y-70330760D01*
G75*
G02*
X39529900Y-70430760I-100000J0D01*
G01*
X38254900Y-70430760D01*
G75*
G02*
X38154900Y-70330760I0J100000D01*
G01*
G37*
G36*
G01*
X38154900Y-70980760D02*
X38154900Y-70780760D01*
G75*
G02*
X38254900Y-70680760I100000J0D01*
G01*
X39529900Y-70680760D01*
G75*
G02*
X39629900Y-70780760I0J-100000D01*
G01*
X39629900Y-70980760D01*
G75*
G02*
X39529900Y-71080760I-100000J0D01*
G01*
X38254900Y-71080760D01*
G75*
G02*
X38154900Y-70980760I0J100000D01*
G01*
G37*
G36*
G01*
X38154900Y-71630760D02*
X38154900Y-71430760D01*
G75*
G02*
X38254900Y-71330760I100000J0D01*
G01*
X39529900Y-71330760D01*
G75*
G02*
X39629900Y-71430760I0J-100000D01*
G01*
X39629900Y-71630760D01*
G75*
G02*
X39529900Y-71730760I-100000J0D01*
G01*
X38254900Y-71730760D01*
G75*
G02*
X38154900Y-71630760I0J100000D01*
G01*
G37*
G36*
G01*
X32429900Y-71630760D02*
X32429900Y-71430760D01*
G75*
G02*
X32529900Y-71330760I100000J0D01*
G01*
X33804900Y-71330760D01*
G75*
G02*
X33904900Y-71430760I0J-100000D01*
G01*
X33904900Y-71630760D01*
G75*
G02*
X33804900Y-71730760I-100000J0D01*
G01*
X32529900Y-71730760D01*
G75*
G02*
X32429900Y-71630760I0J100000D01*
G01*
G37*
G36*
G01*
X32429900Y-70980760D02*
X32429900Y-70780760D01*
G75*
G02*
X32529900Y-70680760I100000J0D01*
G01*
X33804900Y-70680760D01*
G75*
G02*
X33904900Y-70780760I0J-100000D01*
G01*
X33904900Y-70980760D01*
G75*
G02*
X33804900Y-71080760I-100000J0D01*
G01*
X32529900Y-71080760D01*
G75*
G02*
X32429900Y-70980760I0J100000D01*
G01*
G37*
G36*
G01*
X32429900Y-70330760D02*
X32429900Y-70130760D01*
G75*
G02*
X32529900Y-70030760I100000J0D01*
G01*
X33804900Y-70030760D01*
G75*
G02*
X33904900Y-70130760I0J-100000D01*
G01*
X33904900Y-70330760D01*
G75*
G02*
X33804900Y-70430760I-100000J0D01*
G01*
X32529900Y-70430760D01*
G75*
G02*
X32429900Y-70330760I0J100000D01*
G01*
G37*
G36*
G01*
X32429900Y-69680760D02*
X32429900Y-69480760D01*
G75*
G02*
X32529900Y-69380760I100000J0D01*
G01*
X33804900Y-69380760D01*
G75*
G02*
X33904900Y-69480760I0J-100000D01*
G01*
X33904900Y-69680760D01*
G75*
G02*
X33804900Y-69780760I-100000J0D01*
G01*
X32529900Y-69780760D01*
G75*
G02*
X32429900Y-69680760I0J100000D01*
G01*
G37*
G36*
G01*
X32429900Y-69030760D02*
X32429900Y-68830760D01*
G75*
G02*
X32529900Y-68730760I100000J0D01*
G01*
X33804900Y-68730760D01*
G75*
G02*
X33904900Y-68830760I0J-100000D01*
G01*
X33904900Y-69030760D01*
G75*
G02*
X33804900Y-69130760I-100000J0D01*
G01*
X32529900Y-69130760D01*
G75*
G02*
X32429900Y-69030760I0J100000D01*
G01*
G37*
G36*
G01*
X32429900Y-68380760D02*
X32429900Y-68180760D01*
G75*
G02*
X32529900Y-68080760I100000J0D01*
G01*
X33804900Y-68080760D01*
G75*
G02*
X33904900Y-68180760I0J-100000D01*
G01*
X33904900Y-68380760D01*
G75*
G02*
X33804900Y-68480760I-100000J0D01*
G01*
X32529900Y-68480760D01*
G75*
G02*
X32429900Y-68380760I0J100000D01*
G01*
G37*
G36*
G01*
X32429900Y-67730760D02*
X32429900Y-67530760D01*
G75*
G02*
X32529900Y-67430760I100000J0D01*
G01*
X33804900Y-67430760D01*
G75*
G02*
X33904900Y-67530760I0J-100000D01*
G01*
X33904900Y-67730760D01*
G75*
G02*
X33804900Y-67830760I-100000J0D01*
G01*
X32529900Y-67830760D01*
G75*
G02*
X32429900Y-67730760I0J100000D01*
G01*
G37*
G36*
G01*
X57797180Y-66532470D02*
X57797180Y-66019970D01*
G75*
G02*
X58015930Y-65801220I218750J0D01*
G01*
X58453430Y-65801220D01*
G75*
G02*
X58672180Y-66019970I0J-218750D01*
G01*
X58672180Y-66532470D01*
G75*
G02*
X58453430Y-66751220I-218750J0D01*
G01*
X58015930Y-66751220D01*
G75*
G02*
X57797180Y-66532470I0J218750D01*
G01*
G37*
G36*
G01*
X56222180Y-66532470D02*
X56222180Y-66019970D01*
G75*
G02*
X56440930Y-65801220I218750J0D01*
G01*
X56878430Y-65801220D01*
G75*
G02*
X57097180Y-66019970I0J-218750D01*
G01*
X57097180Y-66532470D01*
G75*
G02*
X56878430Y-66751220I-218750J0D01*
G01*
X56440930Y-66751220D01*
G75*
G02*
X56222180Y-66532470I0J218750D01*
G01*
G37*
G36*
G01*
X17871380Y-69855119D02*
X17871380Y-70405121D01*
G75*
G02*
X17621381Y-70655120I-249999J0D01*
G01*
X17071379Y-70655120D01*
G75*
G02*
X16821380Y-70405121I0J249999D01*
G01*
X16821380Y-69855119D01*
G75*
G02*
X17071379Y-69605120I249999J0D01*
G01*
X17621381Y-69605120D01*
G75*
G02*
X17871380Y-69855119I0J-249999D01*
G01*
G37*
G36*
G01*
X17871380Y-71155119D02*
X17871380Y-71705121D01*
G75*
G02*
X17621381Y-71955120I-249999J0D01*
G01*
X17071379Y-71955120D01*
G75*
G02*
X16821380Y-71705121I0J249999D01*
G01*
X16821380Y-71155119D01*
G75*
G02*
X17071379Y-70905120I249999J0D01*
G01*
X17621381Y-70905120D01*
G75*
G02*
X17871380Y-71155119I0J-249999D01*
G01*
G37*
G36*
G01*
X17871380Y-72455119D02*
X17871380Y-73005121D01*
G75*
G02*
X17621381Y-73255120I-249999J0D01*
G01*
X17071379Y-73255120D01*
G75*
G02*
X16821380Y-73005121I0J249999D01*
G01*
X16821380Y-72455119D01*
G75*
G02*
X17071379Y-72205120I249999J0D01*
G01*
X17621381Y-72205120D01*
G75*
G02*
X17871380Y-72455119I0J-249999D01*
G01*
G37*
G36*
G01*
X17871380Y-73755119D02*
X17871380Y-74305121D01*
G75*
G02*
X17621381Y-74555120I-249999J0D01*
G01*
X17071379Y-74555120D01*
G75*
G02*
X16821380Y-74305121I0J249999D01*
G01*
X16821380Y-73755119D01*
G75*
G02*
X17071379Y-73505120I249999J0D01*
G01*
X17621381Y-73505120D01*
G75*
G02*
X17871380Y-73755119I0J-249999D01*
G01*
G37*
G36*
G01*
X19171380Y-69855119D02*
X19171380Y-70405121D01*
G75*
G02*
X18921381Y-70655120I-249999J0D01*
G01*
X18371379Y-70655120D01*
G75*
G02*
X18121380Y-70405121I0J249999D01*
G01*
X18121380Y-69855119D01*
G75*
G02*
X18371379Y-69605120I249999J0D01*
G01*
X18921381Y-69605120D01*
G75*
G02*
X19171380Y-69855119I0J-249999D01*
G01*
G37*
G36*
G01*
X19171380Y-71155119D02*
X19171380Y-71705121D01*
G75*
G02*
X18921381Y-71955120I-249999J0D01*
G01*
X18371379Y-71955120D01*
G75*
G02*
X18121380Y-71705121I0J249999D01*
G01*
X18121380Y-71155119D01*
G75*
G02*
X18371379Y-70905120I249999J0D01*
G01*
X18921381Y-70905120D01*
G75*
G02*
X19171380Y-71155119I0J-249999D01*
G01*
G37*
G36*
G01*
X19171380Y-72455119D02*
X19171380Y-73005121D01*
G75*
G02*
X18921381Y-73255120I-249999J0D01*
G01*
X18371379Y-73255120D01*
G75*
G02*
X18121380Y-73005121I0J249999D01*
G01*
X18121380Y-72455119D01*
G75*
G02*
X18371379Y-72205120I249999J0D01*
G01*
X18921381Y-72205120D01*
G75*
G02*
X19171380Y-72455119I0J-249999D01*
G01*
G37*
G36*
G01*
X19171380Y-73755119D02*
X19171380Y-74305121D01*
G75*
G02*
X18921381Y-74555120I-249999J0D01*
G01*
X18371379Y-74555120D01*
G75*
G02*
X18121380Y-74305121I0J249999D01*
G01*
X18121380Y-73755119D01*
G75*
G02*
X18371379Y-73505120I249999J0D01*
G01*
X18921381Y-73505120D01*
G75*
G02*
X19171380Y-73755119I0J-249999D01*
G01*
G37*
G36*
G01*
X20471380Y-69855119D02*
X20471380Y-70405121D01*
G75*
G02*
X20221381Y-70655120I-249999J0D01*
G01*
X19671379Y-70655120D01*
G75*
G02*
X19421380Y-70405121I0J249999D01*
G01*
X19421380Y-69855119D01*
G75*
G02*
X19671379Y-69605120I249999J0D01*
G01*
X20221381Y-69605120D01*
G75*
G02*
X20471380Y-69855119I0J-249999D01*
G01*
G37*
G36*
G01*
X20471380Y-71155119D02*
X20471380Y-71705121D01*
G75*
G02*
X20221381Y-71955120I-249999J0D01*
G01*
X19671379Y-71955120D01*
G75*
G02*
X19421380Y-71705121I0J249999D01*
G01*
X19421380Y-71155119D01*
G75*
G02*
X19671379Y-70905120I249999J0D01*
G01*
X20221381Y-70905120D01*
G75*
G02*
X20471380Y-71155119I0J-249999D01*
G01*
G37*
G36*
G01*
X20471380Y-72455119D02*
X20471380Y-73005121D01*
G75*
G02*
X20221381Y-73255120I-249999J0D01*
G01*
X19671379Y-73255120D01*
G75*
G02*
X19421380Y-73005121I0J249999D01*
G01*
X19421380Y-72455119D01*
G75*
G02*
X19671379Y-72205120I249999J0D01*
G01*
X20221381Y-72205120D01*
G75*
G02*
X20471380Y-72455119I0J-249999D01*
G01*
G37*
G36*
G01*
X20471380Y-73755119D02*
X20471380Y-74305121D01*
G75*
G02*
X20221381Y-74555120I-249999J0D01*
G01*
X19671379Y-74555120D01*
G75*
G02*
X19421380Y-74305121I0J249999D01*
G01*
X19421380Y-73755119D01*
G75*
G02*
X19671379Y-73505120I249999J0D01*
G01*
X20221381Y-73505120D01*
G75*
G02*
X20471380Y-73755119I0J-249999D01*
G01*
G37*
G36*
G01*
X21771380Y-69855119D02*
X21771380Y-70405121D01*
G75*
G02*
X21521381Y-70655120I-249999J0D01*
G01*
X20971379Y-70655120D01*
G75*
G02*
X20721380Y-70405121I0J249999D01*
G01*
X20721380Y-69855119D01*
G75*
G02*
X20971379Y-69605120I249999J0D01*
G01*
X21521381Y-69605120D01*
G75*
G02*
X21771380Y-69855119I0J-249999D01*
G01*
G37*
G36*
G01*
X21771380Y-71155119D02*
X21771380Y-71705121D01*
G75*
G02*
X21521381Y-71955120I-249999J0D01*
G01*
X20971379Y-71955120D01*
G75*
G02*
X20721380Y-71705121I0J249999D01*
G01*
X20721380Y-71155119D01*
G75*
G02*
X20971379Y-70905120I249999J0D01*
G01*
X21521381Y-70905120D01*
G75*
G02*
X21771380Y-71155119I0J-249999D01*
G01*
G37*
G36*
G01*
X21771380Y-72455119D02*
X21771380Y-73005121D01*
G75*
G02*
X21521381Y-73255120I-249999J0D01*
G01*
X20971379Y-73255120D01*
G75*
G02*
X20721380Y-73005121I0J249999D01*
G01*
X20721380Y-72455119D01*
G75*
G02*
X20971379Y-72205120I249999J0D01*
G01*
X21521381Y-72205120D01*
G75*
G02*
X21771380Y-72455119I0J-249999D01*
G01*
G37*
G36*
G01*
X21771380Y-73755119D02*
X21771380Y-74305121D01*
G75*
G02*
X21521381Y-74555120I-249999J0D01*
G01*
X20971379Y-74555120D01*
G75*
G02*
X20721380Y-74305121I0J249999D01*
G01*
X20721380Y-73755119D01*
G75*
G02*
X20971379Y-73505120I249999J0D01*
G01*
X21521381Y-73505120D01*
G75*
G02*
X21771380Y-73755119I0J-249999D01*
G01*
G37*
G36*
G01*
X22196380Y-75217620D02*
X22196380Y-75942620D01*
G75*
G02*
X22146380Y-75992620I-50000J0D01*
G01*
X22046380Y-75992620D01*
G75*
G02*
X21996380Y-75942620I0J50000D01*
G01*
X21996380Y-75217620D01*
G75*
G02*
X22046380Y-75167620I50000J0D01*
G01*
X22146380Y-75167620D01*
G75*
G02*
X22196380Y-75217620I0J-50000D01*
G01*
G37*
G36*
G01*
X21796380Y-75217620D02*
X21796380Y-75942620D01*
G75*
G02*
X21746380Y-75992620I-50000J0D01*
G01*
X21646380Y-75992620D01*
G75*
G02*
X21596380Y-75942620I0J50000D01*
G01*
X21596380Y-75217620D01*
G75*
G02*
X21646380Y-75167620I50000J0D01*
G01*
X21746380Y-75167620D01*
G75*
G02*
X21796380Y-75217620I0J-50000D01*
G01*
G37*
G36*
G01*
X21396380Y-75217620D02*
X21396380Y-75942620D01*
G75*
G02*
X21346380Y-75992620I-50000J0D01*
G01*
X21246380Y-75992620D01*
G75*
G02*
X21196380Y-75942620I0J50000D01*
G01*
X21196380Y-75217620D01*
G75*
G02*
X21246380Y-75167620I50000J0D01*
G01*
X21346380Y-75167620D01*
G75*
G02*
X21396380Y-75217620I0J-50000D01*
G01*
G37*
G36*
G01*
X20996380Y-75217620D02*
X20996380Y-75942620D01*
G75*
G02*
X20946380Y-75992620I-50000J0D01*
G01*
X20846380Y-75992620D01*
G75*
G02*
X20796380Y-75942620I0J50000D01*
G01*
X20796380Y-75217620D01*
G75*
G02*
X20846380Y-75167620I50000J0D01*
G01*
X20946380Y-75167620D01*
G75*
G02*
X20996380Y-75217620I0J-50000D01*
G01*
G37*
G36*
G01*
X20596380Y-75217620D02*
X20596380Y-75942620D01*
G75*
G02*
X20546380Y-75992620I-50000J0D01*
G01*
X20446380Y-75992620D01*
G75*
G02*
X20396380Y-75942620I0J50000D01*
G01*
X20396380Y-75217620D01*
G75*
G02*
X20446380Y-75167620I50000J0D01*
G01*
X20546380Y-75167620D01*
G75*
G02*
X20596380Y-75217620I0J-50000D01*
G01*
G37*
G36*
G01*
X20196380Y-75217620D02*
X20196380Y-75942620D01*
G75*
G02*
X20146380Y-75992620I-50000J0D01*
G01*
X20046380Y-75992620D01*
G75*
G02*
X19996380Y-75942620I0J50000D01*
G01*
X19996380Y-75217620D01*
G75*
G02*
X20046380Y-75167620I50000J0D01*
G01*
X20146380Y-75167620D01*
G75*
G02*
X20196380Y-75217620I0J-50000D01*
G01*
G37*
G36*
G01*
X19796380Y-75217620D02*
X19796380Y-75942620D01*
G75*
G02*
X19746380Y-75992620I-50000J0D01*
G01*
X19646380Y-75992620D01*
G75*
G02*
X19596380Y-75942620I0J50000D01*
G01*
X19596380Y-75217620D01*
G75*
G02*
X19646380Y-75167620I50000J0D01*
G01*
X19746380Y-75167620D01*
G75*
G02*
X19796380Y-75217620I0J-50000D01*
G01*
G37*
G36*
G01*
X19396380Y-75217620D02*
X19396380Y-75942620D01*
G75*
G02*
X19346380Y-75992620I-50000J0D01*
G01*
X19246380Y-75992620D01*
G75*
G02*
X19196380Y-75942620I0J50000D01*
G01*
X19196380Y-75217620D01*
G75*
G02*
X19246380Y-75167620I50000J0D01*
G01*
X19346380Y-75167620D01*
G75*
G02*
X19396380Y-75217620I0J-50000D01*
G01*
G37*
G36*
G01*
X18996380Y-75217620D02*
X18996380Y-75942620D01*
G75*
G02*
X18946380Y-75992620I-50000J0D01*
G01*
X18846380Y-75992620D01*
G75*
G02*
X18796380Y-75942620I0J50000D01*
G01*
X18796380Y-75217620D01*
G75*
G02*
X18846380Y-75167620I50000J0D01*
G01*
X18946380Y-75167620D01*
G75*
G02*
X18996380Y-75217620I0J-50000D01*
G01*
G37*
G36*
G01*
X18446380Y-75167620D02*
X18546380Y-75167620D01*
G75*
G02*
X18596380Y-75217620I0J-50000D01*
G01*
X18596380Y-75942620D01*
G75*
G02*
X18546380Y-75992620I-50000J0D01*
G01*
X18446380Y-75992620D01*
G75*
G02*
X18396380Y-75942620I0J50000D01*
G01*
X18396380Y-75217620D01*
G75*
G02*
X18446380Y-75167620I50000J0D01*
G01*
G37*
G36*
G01*
X18046380Y-75167620D02*
X18146380Y-75167620D01*
G75*
G02*
X18196380Y-75217620I0J-50000D01*
G01*
X18196380Y-75942620D01*
G75*
G02*
X18146380Y-75992620I-50000J0D01*
G01*
X18046380Y-75992620D01*
G75*
G02*
X17996380Y-75942620I0J50000D01*
G01*
X17996380Y-75217620D01*
G75*
G02*
X18046380Y-75167620I50000J0D01*
G01*
G37*
G36*
G01*
X17646380Y-75167620D02*
X17746380Y-75167620D01*
G75*
G02*
X17796380Y-75217620I0J-50000D01*
G01*
X17796380Y-75942620D01*
G75*
G02*
X17746380Y-75992620I-50000J0D01*
G01*
X17646380Y-75992620D01*
G75*
G02*
X17596380Y-75942620I0J50000D01*
G01*
X17596380Y-75217620D01*
G75*
G02*
X17646380Y-75167620I50000J0D01*
G01*
G37*
G36*
G01*
X17246380Y-75167620D02*
X17346380Y-75167620D01*
G75*
G02*
X17396380Y-75217620I0J-50000D01*
G01*
X17396380Y-75942620D01*
G75*
G02*
X17346380Y-75992620I-50000J0D01*
G01*
X17246380Y-75992620D01*
G75*
G02*
X17196380Y-75942620I0J50000D01*
G01*
X17196380Y-75217620D01*
G75*
G02*
X17246380Y-75167620I50000J0D01*
G01*
G37*
G36*
G01*
X16846380Y-75167620D02*
X16946380Y-75167620D01*
G75*
G02*
X16996380Y-75217620I0J-50000D01*
G01*
X16996380Y-75942620D01*
G75*
G02*
X16946380Y-75992620I-50000J0D01*
G01*
X16846380Y-75992620D01*
G75*
G02*
X16796380Y-75942620I0J50000D01*
G01*
X16796380Y-75217620D01*
G75*
G02*
X16846380Y-75167620I50000J0D01*
G01*
G37*
G36*
G01*
X16446380Y-75167620D02*
X16546380Y-75167620D01*
G75*
G02*
X16596380Y-75217620I0J-50000D01*
G01*
X16596380Y-75942620D01*
G75*
G02*
X16546380Y-75992620I-50000J0D01*
G01*
X16446380Y-75992620D01*
G75*
G02*
X16396380Y-75942620I0J50000D01*
G01*
X16396380Y-75217620D01*
G75*
G02*
X16446380Y-75167620I50000J0D01*
G01*
G37*
G36*
G01*
X15383880Y-74930120D02*
X15383880Y-74830120D01*
G75*
G02*
X15433880Y-74780120I50000J0D01*
G01*
X16158880Y-74780120D01*
G75*
G02*
X16208880Y-74830120I0J-50000D01*
G01*
X16208880Y-74930120D01*
G75*
G02*
X16158880Y-74980120I-50000J0D01*
G01*
X15433880Y-74980120D01*
G75*
G02*
X15383880Y-74930120I0J50000D01*
G01*
G37*
G36*
G01*
X16208880Y-74430120D02*
X16208880Y-74530120D01*
G75*
G02*
X16158880Y-74580120I-50000J0D01*
G01*
X15433880Y-74580120D01*
G75*
G02*
X15383880Y-74530120I0J50000D01*
G01*
X15383880Y-74430120D01*
G75*
G02*
X15433880Y-74380120I50000J0D01*
G01*
X16158880Y-74380120D01*
G75*
G02*
X16208880Y-74430120I0J-50000D01*
G01*
G37*
G36*
G01*
X16208880Y-74030120D02*
X16208880Y-74130120D01*
G75*
G02*
X16158880Y-74180120I-50000J0D01*
G01*
X15433880Y-74180120D01*
G75*
G02*
X15383880Y-74130120I0J50000D01*
G01*
X15383880Y-74030120D01*
G75*
G02*
X15433880Y-73980120I50000J0D01*
G01*
X16158880Y-73980120D01*
G75*
G02*
X16208880Y-74030120I0J-50000D01*
G01*
G37*
G36*
G01*
X16208880Y-73630120D02*
X16208880Y-73730120D01*
G75*
G02*
X16158880Y-73780120I-50000J0D01*
G01*
X15433880Y-73780120D01*
G75*
G02*
X15383880Y-73730120I0J50000D01*
G01*
X15383880Y-73630120D01*
G75*
G02*
X15433880Y-73580120I50000J0D01*
G01*
X16158880Y-73580120D01*
G75*
G02*
X16208880Y-73630120I0J-50000D01*
G01*
G37*
G36*
G01*
X16208880Y-73230120D02*
X16208880Y-73330120D01*
G75*
G02*
X16158880Y-73380120I-50000J0D01*
G01*
X15433880Y-73380120D01*
G75*
G02*
X15383880Y-73330120I0J50000D01*
G01*
X15383880Y-73230120D01*
G75*
G02*
X15433880Y-73180120I50000J0D01*
G01*
X16158880Y-73180120D01*
G75*
G02*
X16208880Y-73230120I0J-50000D01*
G01*
G37*
G36*
G01*
X16208880Y-72830120D02*
X16208880Y-72930120D01*
G75*
G02*
X16158880Y-72980120I-50000J0D01*
G01*
X15433880Y-72980120D01*
G75*
G02*
X15383880Y-72930120I0J50000D01*
G01*
X15383880Y-72830120D01*
G75*
G02*
X15433880Y-72780120I50000J0D01*
G01*
X16158880Y-72780120D01*
G75*
G02*
X16208880Y-72830120I0J-50000D01*
G01*
G37*
G36*
G01*
X16208880Y-72430120D02*
X16208880Y-72530120D01*
G75*
G02*
X16158880Y-72580120I-50000J0D01*
G01*
X15433880Y-72580120D01*
G75*
G02*
X15383880Y-72530120I0J50000D01*
G01*
X15383880Y-72430120D01*
G75*
G02*
X15433880Y-72380120I50000J0D01*
G01*
X16158880Y-72380120D01*
G75*
G02*
X16208880Y-72430120I0J-50000D01*
G01*
G37*
G36*
G01*
X16208880Y-72030120D02*
X16208880Y-72130120D01*
G75*
G02*
X16158880Y-72180120I-50000J0D01*
G01*
X15433880Y-72180120D01*
G75*
G02*
X15383880Y-72130120I0J50000D01*
G01*
X15383880Y-72030120D01*
G75*
G02*
X15433880Y-71980120I50000J0D01*
G01*
X16158880Y-71980120D01*
G75*
G02*
X16208880Y-72030120I0J-50000D01*
G01*
G37*
G36*
G01*
X16208880Y-71630120D02*
X16208880Y-71730120D01*
G75*
G02*
X16158880Y-71780120I-50000J0D01*
G01*
X15433880Y-71780120D01*
G75*
G02*
X15383880Y-71730120I0J50000D01*
G01*
X15383880Y-71630120D01*
G75*
G02*
X15433880Y-71580120I50000J0D01*
G01*
X16158880Y-71580120D01*
G75*
G02*
X16208880Y-71630120I0J-50000D01*
G01*
G37*
G36*
G01*
X16208880Y-71230120D02*
X16208880Y-71330120D01*
G75*
G02*
X16158880Y-71380120I-50000J0D01*
G01*
X15433880Y-71380120D01*
G75*
G02*
X15383880Y-71330120I0J50000D01*
G01*
X15383880Y-71230120D01*
G75*
G02*
X15433880Y-71180120I50000J0D01*
G01*
X16158880Y-71180120D01*
G75*
G02*
X16208880Y-71230120I0J-50000D01*
G01*
G37*
G36*
G01*
X16208880Y-70830120D02*
X16208880Y-70930120D01*
G75*
G02*
X16158880Y-70980120I-50000J0D01*
G01*
X15433880Y-70980120D01*
G75*
G02*
X15383880Y-70930120I0J50000D01*
G01*
X15383880Y-70830120D01*
G75*
G02*
X15433880Y-70780120I50000J0D01*
G01*
X16158880Y-70780120D01*
G75*
G02*
X16208880Y-70830120I0J-50000D01*
G01*
G37*
G36*
G01*
X15433880Y-70380120D02*
X16158880Y-70380120D01*
G75*
G02*
X16208880Y-70430120I0J-50000D01*
G01*
X16208880Y-70530120D01*
G75*
G02*
X16158880Y-70580120I-50000J0D01*
G01*
X15433880Y-70580120D01*
G75*
G02*
X15383880Y-70530120I0J50000D01*
G01*
X15383880Y-70430120D01*
G75*
G02*
X15433880Y-70380120I50000J0D01*
G01*
G37*
G36*
G01*
X15433880Y-69980120D02*
X16158880Y-69980120D01*
G75*
G02*
X16208880Y-70030120I0J-50000D01*
G01*
X16208880Y-70130120D01*
G75*
G02*
X16158880Y-70180120I-50000J0D01*
G01*
X15433880Y-70180120D01*
G75*
G02*
X15383880Y-70130120I0J50000D01*
G01*
X15383880Y-70030120D01*
G75*
G02*
X15433880Y-69980120I50000J0D01*
G01*
G37*
G36*
G01*
X15433880Y-69580120D02*
X16158880Y-69580120D01*
G75*
G02*
X16208880Y-69630120I0J-50000D01*
G01*
X16208880Y-69730120D01*
G75*
G02*
X16158880Y-69780120I-50000J0D01*
G01*
X15433880Y-69780120D01*
G75*
G02*
X15383880Y-69730120I0J50000D01*
G01*
X15383880Y-69630120D01*
G75*
G02*
X15433880Y-69580120I50000J0D01*
G01*
G37*
G36*
G01*
X15433880Y-69180120D02*
X16158880Y-69180120D01*
G75*
G02*
X16208880Y-69230120I0J-50000D01*
G01*
X16208880Y-69330120D01*
G75*
G02*
X16158880Y-69380120I-50000J0D01*
G01*
X15433880Y-69380120D01*
G75*
G02*
X15383880Y-69330120I0J50000D01*
G01*
X15383880Y-69230120D01*
G75*
G02*
X15433880Y-69180120I50000J0D01*
G01*
G37*
G36*
G01*
X16596380Y-68217620D02*
X16596380Y-68942620D01*
G75*
G02*
X16546380Y-68992620I-50000J0D01*
G01*
X16446380Y-68992620D01*
G75*
G02*
X16396380Y-68942620I0J50000D01*
G01*
X16396380Y-68217620D01*
G75*
G02*
X16446380Y-68167620I50000J0D01*
G01*
X16546380Y-68167620D01*
G75*
G02*
X16596380Y-68217620I0J-50000D01*
G01*
G37*
G36*
G01*
X16996380Y-68217620D02*
X16996380Y-68942620D01*
G75*
G02*
X16946380Y-68992620I-50000J0D01*
G01*
X16846380Y-68992620D01*
G75*
G02*
X16796380Y-68942620I0J50000D01*
G01*
X16796380Y-68217620D01*
G75*
G02*
X16846380Y-68167620I50000J0D01*
G01*
X16946380Y-68167620D01*
G75*
G02*
X16996380Y-68217620I0J-50000D01*
G01*
G37*
G36*
G01*
X17396380Y-68217620D02*
X17396380Y-68942620D01*
G75*
G02*
X17346380Y-68992620I-50000J0D01*
G01*
X17246380Y-68992620D01*
G75*
G02*
X17196380Y-68942620I0J50000D01*
G01*
X17196380Y-68217620D01*
G75*
G02*
X17246380Y-68167620I50000J0D01*
G01*
X17346380Y-68167620D01*
G75*
G02*
X17396380Y-68217620I0J-50000D01*
G01*
G37*
G36*
G01*
X17796380Y-68217620D02*
X17796380Y-68942620D01*
G75*
G02*
X17746380Y-68992620I-50000J0D01*
G01*
X17646380Y-68992620D01*
G75*
G02*
X17596380Y-68942620I0J50000D01*
G01*
X17596380Y-68217620D01*
G75*
G02*
X17646380Y-68167620I50000J0D01*
G01*
X17746380Y-68167620D01*
G75*
G02*
X17796380Y-68217620I0J-50000D01*
G01*
G37*
G36*
G01*
X18196380Y-68217620D02*
X18196380Y-68942620D01*
G75*
G02*
X18146380Y-68992620I-50000J0D01*
G01*
X18046380Y-68992620D01*
G75*
G02*
X17996380Y-68942620I0J50000D01*
G01*
X17996380Y-68217620D01*
G75*
G02*
X18046380Y-68167620I50000J0D01*
G01*
X18146380Y-68167620D01*
G75*
G02*
X18196380Y-68217620I0J-50000D01*
G01*
G37*
G36*
G01*
X18596380Y-68217620D02*
X18596380Y-68942620D01*
G75*
G02*
X18546380Y-68992620I-50000J0D01*
G01*
X18446380Y-68992620D01*
G75*
G02*
X18396380Y-68942620I0J50000D01*
G01*
X18396380Y-68217620D01*
G75*
G02*
X18446380Y-68167620I50000J0D01*
G01*
X18546380Y-68167620D01*
G75*
G02*
X18596380Y-68217620I0J-50000D01*
G01*
G37*
G36*
G01*
X18996380Y-68217620D02*
X18996380Y-68942620D01*
G75*
G02*
X18946380Y-68992620I-50000J0D01*
G01*
X18846380Y-68992620D01*
G75*
G02*
X18796380Y-68942620I0J50000D01*
G01*
X18796380Y-68217620D01*
G75*
G02*
X18846380Y-68167620I50000J0D01*
G01*
X18946380Y-68167620D01*
G75*
G02*
X18996380Y-68217620I0J-50000D01*
G01*
G37*
G36*
G01*
X19396380Y-68217620D02*
X19396380Y-68942620D01*
G75*
G02*
X19346380Y-68992620I-50000J0D01*
G01*
X19246380Y-68992620D01*
G75*
G02*
X19196380Y-68942620I0J50000D01*
G01*
X19196380Y-68217620D01*
G75*
G02*
X19246380Y-68167620I50000J0D01*
G01*
X19346380Y-68167620D01*
G75*
G02*
X19396380Y-68217620I0J-50000D01*
G01*
G37*
G36*
G01*
X19796380Y-68217620D02*
X19796380Y-68942620D01*
G75*
G02*
X19746380Y-68992620I-50000J0D01*
G01*
X19646380Y-68992620D01*
G75*
G02*
X19596380Y-68942620I0J50000D01*
G01*
X19596380Y-68217620D01*
G75*
G02*
X19646380Y-68167620I50000J0D01*
G01*
X19746380Y-68167620D01*
G75*
G02*
X19796380Y-68217620I0J-50000D01*
G01*
G37*
G36*
G01*
X20196380Y-68217620D02*
X20196380Y-68942620D01*
G75*
G02*
X20146380Y-68992620I-50000J0D01*
G01*
X20046380Y-68992620D01*
G75*
G02*
X19996380Y-68942620I0J50000D01*
G01*
X19996380Y-68217620D01*
G75*
G02*
X20046380Y-68167620I50000J0D01*
G01*
X20146380Y-68167620D01*
G75*
G02*
X20196380Y-68217620I0J-50000D01*
G01*
G37*
G36*
G01*
X20596380Y-68217620D02*
X20596380Y-68942620D01*
G75*
G02*
X20546380Y-68992620I-50000J0D01*
G01*
X20446380Y-68992620D01*
G75*
G02*
X20396380Y-68942620I0J50000D01*
G01*
X20396380Y-68217620D01*
G75*
G02*
X20446380Y-68167620I50000J0D01*
G01*
X20546380Y-68167620D01*
G75*
G02*
X20596380Y-68217620I0J-50000D01*
G01*
G37*
G36*
G01*
X20996380Y-68217620D02*
X20996380Y-68942620D01*
G75*
G02*
X20946380Y-68992620I-50000J0D01*
G01*
X20846380Y-68992620D01*
G75*
G02*
X20796380Y-68942620I0J50000D01*
G01*
X20796380Y-68217620D01*
G75*
G02*
X20846380Y-68167620I50000J0D01*
G01*
X20946380Y-68167620D01*
G75*
G02*
X20996380Y-68217620I0J-50000D01*
G01*
G37*
G36*
G01*
X21396380Y-68217620D02*
X21396380Y-68942620D01*
G75*
G02*
X21346380Y-68992620I-50000J0D01*
G01*
X21246380Y-68992620D01*
G75*
G02*
X21196380Y-68942620I0J50000D01*
G01*
X21196380Y-68217620D01*
G75*
G02*
X21246380Y-68167620I50000J0D01*
G01*
X21346380Y-68167620D01*
G75*
G02*
X21396380Y-68217620I0J-50000D01*
G01*
G37*
G36*
G01*
X21646380Y-68167620D02*
X21746380Y-68167620D01*
G75*
G02*
X21796380Y-68217620I0J-50000D01*
G01*
X21796380Y-68942620D01*
G75*
G02*
X21746380Y-68992620I-50000J0D01*
G01*
X21646380Y-68992620D01*
G75*
G02*
X21596380Y-68942620I0J50000D01*
G01*
X21596380Y-68217620D01*
G75*
G02*
X21646380Y-68167620I50000J0D01*
G01*
G37*
G36*
G01*
X22046380Y-68167620D02*
X22146380Y-68167620D01*
G75*
G02*
X22196380Y-68217620I0J-50000D01*
G01*
X22196380Y-68942620D01*
G75*
G02*
X22146380Y-68992620I-50000J0D01*
G01*
X22046380Y-68992620D01*
G75*
G02*
X21996380Y-68942620I0J50000D01*
G01*
X21996380Y-68217620D01*
G75*
G02*
X22046380Y-68167620I50000J0D01*
G01*
G37*
G36*
G01*
X23208880Y-69230120D02*
X23208880Y-69330120D01*
G75*
G02*
X23158880Y-69380120I-50000J0D01*
G01*
X22433880Y-69380120D01*
G75*
G02*
X22383880Y-69330120I0J50000D01*
G01*
X22383880Y-69230120D01*
G75*
G02*
X22433880Y-69180120I50000J0D01*
G01*
X23158880Y-69180120D01*
G75*
G02*
X23208880Y-69230120I0J-50000D01*
G01*
G37*
G36*
G01*
X23208880Y-69630120D02*
X23208880Y-69730120D01*
G75*
G02*
X23158880Y-69780120I-50000J0D01*
G01*
X22433880Y-69780120D01*
G75*
G02*
X22383880Y-69730120I0J50000D01*
G01*
X22383880Y-69630120D01*
G75*
G02*
X22433880Y-69580120I50000J0D01*
G01*
X23158880Y-69580120D01*
G75*
G02*
X23208880Y-69630120I0J-50000D01*
G01*
G37*
G36*
G01*
X23208880Y-70030120D02*
X23208880Y-70130120D01*
G75*
G02*
X23158880Y-70180120I-50000J0D01*
G01*
X22433880Y-70180120D01*
G75*
G02*
X22383880Y-70130120I0J50000D01*
G01*
X22383880Y-70030120D01*
G75*
G02*
X22433880Y-69980120I50000J0D01*
G01*
X23158880Y-69980120D01*
G75*
G02*
X23208880Y-70030120I0J-50000D01*
G01*
G37*
G36*
G01*
X23208880Y-70430120D02*
X23208880Y-70530120D01*
G75*
G02*
X23158880Y-70580120I-50000J0D01*
G01*
X22433880Y-70580120D01*
G75*
G02*
X22383880Y-70530120I0J50000D01*
G01*
X22383880Y-70430120D01*
G75*
G02*
X22433880Y-70380120I50000J0D01*
G01*
X23158880Y-70380120D01*
G75*
G02*
X23208880Y-70430120I0J-50000D01*
G01*
G37*
G36*
G01*
X23208880Y-70830120D02*
X23208880Y-70930120D01*
G75*
G02*
X23158880Y-70980120I-50000J0D01*
G01*
X22433880Y-70980120D01*
G75*
G02*
X22383880Y-70930120I0J50000D01*
G01*
X22383880Y-70830120D01*
G75*
G02*
X22433880Y-70780120I50000J0D01*
G01*
X23158880Y-70780120D01*
G75*
G02*
X23208880Y-70830120I0J-50000D01*
G01*
G37*
G36*
G01*
X23208880Y-71230120D02*
X23208880Y-71330120D01*
G75*
G02*
X23158880Y-71380120I-50000J0D01*
G01*
X22433880Y-71380120D01*
G75*
G02*
X22383880Y-71330120I0J50000D01*
G01*
X22383880Y-71230120D01*
G75*
G02*
X22433880Y-71180120I50000J0D01*
G01*
X23158880Y-71180120D01*
G75*
G02*
X23208880Y-71230120I0J-50000D01*
G01*
G37*
G36*
G01*
X23208880Y-71630120D02*
X23208880Y-71730120D01*
G75*
G02*
X23158880Y-71780120I-50000J0D01*
G01*
X22433880Y-71780120D01*
G75*
G02*
X22383880Y-71730120I0J50000D01*
G01*
X22383880Y-71630120D01*
G75*
G02*
X22433880Y-71580120I50000J0D01*
G01*
X23158880Y-71580120D01*
G75*
G02*
X23208880Y-71630120I0J-50000D01*
G01*
G37*
G36*
G01*
X23208880Y-72030120D02*
X23208880Y-72130120D01*
G75*
G02*
X23158880Y-72180120I-50000J0D01*
G01*
X22433880Y-72180120D01*
G75*
G02*
X22383880Y-72130120I0J50000D01*
G01*
X22383880Y-72030120D01*
G75*
G02*
X22433880Y-71980120I50000J0D01*
G01*
X23158880Y-71980120D01*
G75*
G02*
X23208880Y-72030120I0J-50000D01*
G01*
G37*
G36*
G01*
X23208880Y-72430120D02*
X23208880Y-72530120D01*
G75*
G02*
X23158880Y-72580120I-50000J0D01*
G01*
X22433880Y-72580120D01*
G75*
G02*
X22383880Y-72530120I0J50000D01*
G01*
X22383880Y-72430120D01*
G75*
G02*
X22433880Y-72380120I50000J0D01*
G01*
X23158880Y-72380120D01*
G75*
G02*
X23208880Y-72430120I0J-50000D01*
G01*
G37*
G36*
G01*
X23208880Y-72830120D02*
X23208880Y-72930120D01*
G75*
G02*
X23158880Y-72980120I-50000J0D01*
G01*
X22433880Y-72980120D01*
G75*
G02*
X22383880Y-72930120I0J50000D01*
G01*
X22383880Y-72830120D01*
G75*
G02*
X22433880Y-72780120I50000J0D01*
G01*
X23158880Y-72780120D01*
G75*
G02*
X23208880Y-72830120I0J-50000D01*
G01*
G37*
G36*
G01*
X23208880Y-73230120D02*
X23208880Y-73330120D01*
G75*
G02*
X23158880Y-73380120I-50000J0D01*
G01*
X22433880Y-73380120D01*
G75*
G02*
X22383880Y-73330120I0J50000D01*
G01*
X22383880Y-73230120D01*
G75*
G02*
X22433880Y-73180120I50000J0D01*
G01*
X23158880Y-73180120D01*
G75*
G02*
X23208880Y-73230120I0J-50000D01*
G01*
G37*
G36*
G01*
X23208880Y-73630120D02*
X23208880Y-73730120D01*
G75*
G02*
X23158880Y-73780120I-50000J0D01*
G01*
X22433880Y-73780120D01*
G75*
G02*
X22383880Y-73730120I0J50000D01*
G01*
X22383880Y-73630120D01*
G75*
G02*
X22433880Y-73580120I50000J0D01*
G01*
X23158880Y-73580120D01*
G75*
G02*
X23208880Y-73630120I0J-50000D01*
G01*
G37*
G36*
G01*
X23208880Y-74030120D02*
X23208880Y-74130120D01*
G75*
G02*
X23158880Y-74180120I-50000J0D01*
G01*
X22433880Y-74180120D01*
G75*
G02*
X22383880Y-74130120I0J50000D01*
G01*
X22383880Y-74030120D01*
G75*
G02*
X22433880Y-73980120I50000J0D01*
G01*
X23158880Y-73980120D01*
G75*
G02*
X23208880Y-74030120I0J-50000D01*
G01*
G37*
G36*
G01*
X23208880Y-74430120D02*
X23208880Y-74530120D01*
G75*
G02*
X23158880Y-74580120I-50000J0D01*
G01*
X22433880Y-74580120D01*
G75*
G02*
X22383880Y-74530120I0J50000D01*
G01*
X22383880Y-74430120D01*
G75*
G02*
X22433880Y-74380120I50000J0D01*
G01*
X23158880Y-74380120D01*
G75*
G02*
X23208880Y-74430120I0J-50000D01*
G01*
G37*
G36*
G01*
X23208880Y-74830120D02*
X23208880Y-74930120D01*
G75*
G02*
X23158880Y-74980120I-50000J0D01*
G01*
X22433880Y-74980120D01*
G75*
G02*
X22383880Y-74930120I0J50000D01*
G01*
X22383880Y-74830120D01*
G75*
G02*
X22433880Y-74780120I50000J0D01*
G01*
X23158880Y-74780120D01*
G75*
G02*
X23208880Y-74830120I0J-50000D01*
G01*
G37*
D14*
X18424180Y-89287320D03*
X23064180Y-89287320D03*
D15*
X19619180Y-91517320D03*
D16*
X20744180Y-88867320D03*
X21394180Y-88867320D03*
X22044180Y-88867320D03*
X19444180Y-88867320D03*
X20094180Y-88867320D03*
D15*
X21869180Y-91517320D03*
D17*
X40784780Y-27826720D03*
X40784780Y-23826720D03*
D18*
X35516780Y-13628320D03*
X30666780Y-19178320D03*
X35516780Y-19178320D03*
X30666780Y-13628320D03*
D19*
X42241780Y-13003320D03*
X42241780Y-14703320D03*
X42241780Y-16403320D03*
X42241780Y-18103320D03*
X42241780Y-19803320D03*
G36*
G01*
X43870380Y-30634720D02*
X43870380Y-30289720D01*
G75*
G02*
X44017880Y-30142220I147500J0D01*
G01*
X44312880Y-30142220D01*
G75*
G02*
X44460380Y-30289720I0J-147500D01*
G01*
X44460380Y-30634720D01*
G75*
G02*
X44312880Y-30782220I-147500J0D01*
G01*
X44017880Y-30782220D01*
G75*
G02*
X43870380Y-30634720I0J147500D01*
G01*
G37*
G36*
G01*
X42900380Y-30634720D02*
X42900380Y-30289720D01*
G75*
G02*
X43047880Y-30142220I147500J0D01*
G01*
X43342880Y-30142220D01*
G75*
G02*
X43490380Y-30289720I0J-147500D01*
G01*
X43490380Y-30634720D01*
G75*
G02*
X43342880Y-30782220I-147500J0D01*
G01*
X43047880Y-30782220D01*
G75*
G02*
X42900380Y-30634720I0J147500D01*
G01*
G37*
D20*
X30091380Y-35166120D03*
X30091380Y-24666120D03*
G36*
G01*
X19839580Y-36349720D02*
X19839580Y-36004720D01*
G75*
G02*
X19987080Y-35857220I147500J0D01*
G01*
X20282080Y-35857220D01*
G75*
G02*
X20429580Y-36004720I0J-147500D01*
G01*
X20429580Y-36349720D01*
G75*
G02*
X20282080Y-36497220I-147500J0D01*
G01*
X19987080Y-36497220D01*
G75*
G02*
X19839580Y-36349720I0J147500D01*
G01*
G37*
G36*
G01*
X18869580Y-36349720D02*
X18869580Y-36004720D01*
G75*
G02*
X19017080Y-35857220I147500J0D01*
G01*
X19312080Y-35857220D01*
G75*
G02*
X19459580Y-36004720I0J-147500D01*
G01*
X19459580Y-36349720D01*
G75*
G02*
X19312080Y-36497220I-147500J0D01*
G01*
X19017080Y-36497220D01*
G75*
G02*
X18869580Y-36349720I0J147500D01*
G01*
G37*
G36*
G01*
X46738180Y-12041920D02*
X46738180Y-11696920D01*
G75*
G02*
X46885680Y-11549420I147500J0D01*
G01*
X47180680Y-11549420D01*
G75*
G02*
X47328180Y-11696920I0J-147500D01*
G01*
X47328180Y-12041920D01*
G75*
G02*
X47180680Y-12189420I-147500J0D01*
G01*
X46885680Y-12189420D01*
G75*
G02*
X46738180Y-12041920I0J147500D01*
G01*
G37*
G36*
G01*
X45768180Y-12041920D02*
X45768180Y-11696920D01*
G75*
G02*
X45915680Y-11549420I147500J0D01*
G01*
X46210680Y-11549420D01*
G75*
G02*
X46358180Y-11696920I0J-147500D01*
G01*
X46358180Y-12041920D01*
G75*
G02*
X46210680Y-12189420I-147500J0D01*
G01*
X45915680Y-12189420D01*
G75*
G02*
X45768180Y-12041920I0J147500D01*
G01*
G37*
G36*
G01*
X17931380Y-5294120D02*
X17931380Y-7294120D01*
G75*
G02*
X17681380Y-7544120I-250000J0D01*
G01*
X14181380Y-7544120D01*
G75*
G02*
X13931380Y-7294120I0J250000D01*
G01*
X13931380Y-5294120D01*
G75*
G02*
X14181380Y-5044120I250000J0D01*
G01*
X17681380Y-5044120D01*
G75*
G02*
X17931380Y-5294120I0J-250000D01*
G01*
G37*
G36*
G01*
X25931380Y-5294120D02*
X25931380Y-7294120D01*
G75*
G02*
X25681380Y-7544120I-250000J0D01*
G01*
X22181380Y-7544120D01*
G75*
G02*
X21931380Y-7294120I0J250000D01*
G01*
X21931380Y-5294120D01*
G75*
G02*
X22181380Y-5044120I250000J0D01*
G01*
X25681380Y-5044120D01*
G75*
G02*
X25931380Y-5294120I0J-250000D01*
G01*
G37*
D21*
X37617580Y-80020120D03*
X37617580Y-81920120D03*
X35417580Y-81920120D03*
X35417580Y-80970120D03*
X35417580Y-80020120D03*
G36*
G01*
X30612580Y-89700320D02*
X30612580Y-90045320D01*
G75*
G02*
X30465080Y-90192820I-147500J0D01*
G01*
X30170080Y-90192820D01*
G75*
G02*
X30022580Y-90045320I0J147500D01*
G01*
X30022580Y-89700320D01*
G75*
G02*
X30170080Y-89552820I147500J0D01*
G01*
X30465080Y-89552820D01*
G75*
G02*
X30612580Y-89700320I0J-147500D01*
G01*
G37*
G36*
G01*
X31582580Y-89700320D02*
X31582580Y-90045320D01*
G75*
G02*
X31435080Y-90192820I-147500J0D01*
G01*
X31140080Y-90192820D01*
G75*
G02*
X30992580Y-90045320I0J147500D01*
G01*
X30992580Y-89700320D01*
G75*
G02*
X31140080Y-89552820I147500J0D01*
G01*
X31435080Y-89552820D01*
G75*
G02*
X31582580Y-89700320I0J-147500D01*
G01*
G37*
G36*
G01*
X39293580Y-80234020D02*
X38948580Y-80234020D01*
G75*
G02*
X38801080Y-80086520I0J147500D01*
G01*
X38801080Y-79791520D01*
G75*
G02*
X38948580Y-79644020I147500J0D01*
G01*
X39293580Y-79644020D01*
G75*
G02*
X39441080Y-79791520I0J-147500D01*
G01*
X39441080Y-80086520D01*
G75*
G02*
X39293580Y-80234020I-147500J0D01*
G01*
G37*
G36*
G01*
X39293580Y-81204020D02*
X38948580Y-81204020D01*
G75*
G02*
X38801080Y-81056520I0J147500D01*
G01*
X38801080Y-80761520D01*
G75*
G02*
X38948580Y-80614020I147500J0D01*
G01*
X39293580Y-80614020D01*
G75*
G02*
X39441080Y-80761520I0J-147500D01*
G01*
X39441080Y-81056520D01*
G75*
G02*
X39293580Y-81204020I-147500J0D01*
G01*
G37*
D22*
X35226280Y-73593920D03*
X35226280Y-75493920D03*
X37326280Y-74543920D03*
G36*
G01*
X31279580Y-88401870D02*
X31279580Y-87889370D01*
G75*
G02*
X31498330Y-87670620I218750J0D01*
G01*
X31935830Y-87670620D01*
G75*
G02*
X32154580Y-87889370I0J-218750D01*
G01*
X32154580Y-88401870D01*
G75*
G02*
X31935830Y-88620620I-218750J0D01*
G01*
X31498330Y-88620620D01*
G75*
G02*
X31279580Y-88401870I0J218750D01*
G01*
G37*
G36*
G01*
X29704580Y-88401870D02*
X29704580Y-87889370D01*
G75*
G02*
X29923330Y-87670620I218750J0D01*
G01*
X30360830Y-87670620D01*
G75*
G02*
X30579580Y-87889370I0J-218750D01*
G01*
X30579580Y-88401870D01*
G75*
G02*
X30360830Y-88620620I-218750J0D01*
G01*
X29923330Y-88620620D01*
G75*
G02*
X29704580Y-88401870I0J218750D01*
G01*
G37*
G36*
G01*
X36669480Y-77954920D02*
X36669480Y-77609920D01*
G75*
G02*
X36816980Y-77462420I147500J0D01*
G01*
X37111980Y-77462420D01*
G75*
G02*
X37259480Y-77609920I0J-147500D01*
G01*
X37259480Y-77954920D01*
G75*
G02*
X37111980Y-78102420I-147500J0D01*
G01*
X36816980Y-78102420D01*
G75*
G02*
X36669480Y-77954920I0J147500D01*
G01*
G37*
G36*
G01*
X35699480Y-77954920D02*
X35699480Y-77609920D01*
G75*
G02*
X35846980Y-77462420I147500J0D01*
G01*
X36141980Y-77462420D01*
G75*
G02*
X36289480Y-77609920I0J-147500D01*
G01*
X36289480Y-77954920D01*
G75*
G02*
X36141980Y-78102420I-147500J0D01*
G01*
X35846980Y-78102420D01*
G75*
G02*
X35699480Y-77954920I0J147500D01*
G01*
G37*
G36*
G01*
X40576280Y-80361020D02*
X40231280Y-80361020D01*
G75*
G02*
X40083780Y-80213520I0J147500D01*
G01*
X40083780Y-79918520D01*
G75*
G02*
X40231280Y-79771020I147500J0D01*
G01*
X40576280Y-79771020D01*
G75*
G02*
X40723780Y-79918520I0J-147500D01*
G01*
X40723780Y-80213520D01*
G75*
G02*
X40576280Y-80361020I-147500J0D01*
G01*
G37*
G36*
G01*
X40576280Y-81331020D02*
X40231280Y-81331020D01*
G75*
G02*
X40083780Y-81183520I0J147500D01*
G01*
X40083780Y-80888520D01*
G75*
G02*
X40231280Y-80741020I147500J0D01*
G01*
X40576280Y-80741020D01*
G75*
G02*
X40723780Y-80888520I0J-147500D01*
G01*
X40723780Y-81183520D01*
G75*
G02*
X40576280Y-81331020I-147500J0D01*
G01*
G37*
G36*
G01*
X20673580Y-33914370D02*
X20673580Y-34426870D01*
G75*
G02*
X20454830Y-34645620I-218750J0D01*
G01*
X20017330Y-34645620D01*
G75*
G02*
X19798580Y-34426870I0J218750D01*
G01*
X19798580Y-33914370D01*
G75*
G02*
X20017330Y-33695620I218750J0D01*
G01*
X20454830Y-33695620D01*
G75*
G02*
X20673580Y-33914370I0J-218750D01*
G01*
G37*
G36*
G01*
X22248580Y-33914370D02*
X22248580Y-34426870D01*
G75*
G02*
X22029830Y-34645620I-218750J0D01*
G01*
X21592330Y-34645620D01*
G75*
G02*
X21373580Y-34426870I0J218750D01*
G01*
X21373580Y-33914370D01*
G75*
G02*
X21592330Y-33695620I218750J0D01*
G01*
X22029830Y-33695620D01*
G75*
G02*
X22248580Y-33914370I0J-218750D01*
G01*
G37*
G36*
G01*
X19714980Y-30990320D02*
X19714980Y-30645320D01*
G75*
G02*
X19862480Y-30497820I147500J0D01*
G01*
X20157480Y-30497820D01*
G75*
G02*
X20304980Y-30645320I0J-147500D01*
G01*
X20304980Y-30990320D01*
G75*
G02*
X20157480Y-31137820I-147500J0D01*
G01*
X19862480Y-31137820D01*
G75*
G02*
X19714980Y-30990320I0J147500D01*
G01*
G37*
G36*
G01*
X18744980Y-30990320D02*
X18744980Y-30645320D01*
G75*
G02*
X18892480Y-30497820I147500J0D01*
G01*
X19187480Y-30497820D01*
G75*
G02*
X19334980Y-30645320I0J-147500D01*
G01*
X19334980Y-30990320D01*
G75*
G02*
X19187480Y-31137820I-147500J0D01*
G01*
X18892480Y-31137820D01*
G75*
G02*
X18744980Y-30990320I0J147500D01*
G01*
G37*
G36*
G01*
X56853320Y-47178180D02*
X56853320Y-47523180D01*
G75*
G02*
X56705820Y-47670680I-147500J0D01*
G01*
X56410820Y-47670680D01*
G75*
G02*
X56263320Y-47523180I0J147500D01*
G01*
X56263320Y-47178180D01*
G75*
G02*
X56410820Y-47030680I147500J0D01*
G01*
X56705820Y-47030680D01*
G75*
G02*
X56853320Y-47178180I0J-147500D01*
G01*
G37*
G36*
G01*
X57823320Y-47178180D02*
X57823320Y-47523180D01*
G75*
G02*
X57675820Y-47670680I-147500J0D01*
G01*
X57380820Y-47670680D01*
G75*
G02*
X57233320Y-47523180I0J147500D01*
G01*
X57233320Y-47178180D01*
G75*
G02*
X57380820Y-47030680I147500J0D01*
G01*
X57675820Y-47030680D01*
G75*
G02*
X57823320Y-47178180I0J-147500D01*
G01*
G37*
G36*
G01*
X47400980Y-22760720D02*
X47400980Y-22415720D01*
G75*
G02*
X47548480Y-22268220I147500J0D01*
G01*
X47843480Y-22268220D01*
G75*
G02*
X47990980Y-22415720I0J-147500D01*
G01*
X47990980Y-22760720D01*
G75*
G02*
X47843480Y-22908220I-147500J0D01*
G01*
X47548480Y-22908220D01*
G75*
G02*
X47400980Y-22760720I0J147500D01*
G01*
G37*
G36*
G01*
X46430980Y-22760720D02*
X46430980Y-22415720D01*
G75*
G02*
X46578480Y-22268220I147500J0D01*
G01*
X46873480Y-22268220D01*
G75*
G02*
X47020980Y-22415720I0J-147500D01*
G01*
X47020980Y-22760720D01*
G75*
G02*
X46873480Y-22908220I-147500J0D01*
G01*
X46578480Y-22908220D01*
G75*
G02*
X46430980Y-22760720I0J147500D01*
G01*
G37*
G36*
G01*
X58018180Y-34203420D02*
X58018180Y-33858420D01*
G75*
G02*
X58165680Y-33710920I147500J0D01*
G01*
X58460680Y-33710920D01*
G75*
G02*
X58608180Y-33858420I0J-147500D01*
G01*
X58608180Y-34203420D01*
G75*
G02*
X58460680Y-34350920I-147500J0D01*
G01*
X58165680Y-34350920D01*
G75*
G02*
X58018180Y-34203420I0J147500D01*
G01*
G37*
G36*
G01*
X57048180Y-34203420D02*
X57048180Y-33858420D01*
G75*
G02*
X57195680Y-33710920I147500J0D01*
G01*
X57490680Y-33710920D01*
G75*
G02*
X57638180Y-33858420I0J-147500D01*
G01*
X57638180Y-34203420D01*
G75*
G02*
X57490680Y-34350920I-147500J0D01*
G01*
X57195680Y-34350920D01*
G75*
G02*
X57048180Y-34203420I0J147500D01*
G01*
G37*
G36*
G01*
X47400980Y-31358620D02*
X47400980Y-31013620D01*
G75*
G02*
X47548480Y-30866120I147500J0D01*
G01*
X47843480Y-30866120D01*
G75*
G02*
X47990980Y-31013620I0J-147500D01*
G01*
X47990980Y-31358620D01*
G75*
G02*
X47843480Y-31506120I-147500J0D01*
G01*
X47548480Y-31506120D01*
G75*
G02*
X47400980Y-31358620I0J147500D01*
G01*
G37*
G36*
G01*
X46430980Y-31358620D02*
X46430980Y-31013620D01*
G75*
G02*
X46578480Y-30866120I147500J0D01*
G01*
X46873480Y-30866120D01*
G75*
G02*
X47020980Y-31013620I0J-147500D01*
G01*
X47020980Y-31358620D01*
G75*
G02*
X46873480Y-31506120I-147500J0D01*
G01*
X46578480Y-31506120D01*
G75*
G02*
X46430980Y-31358620I0J147500D01*
G01*
G37*
G36*
G01*
X46682880Y-28836120D02*
X47027880Y-28836120D01*
G75*
G02*
X47175380Y-28983620I0J-147500D01*
G01*
X47175380Y-29278620D01*
G75*
G02*
X47027880Y-29426120I-147500J0D01*
G01*
X46682880Y-29426120D01*
G75*
G02*
X46535380Y-29278620I0J147500D01*
G01*
X46535380Y-28983620D01*
G75*
G02*
X46682880Y-28836120I147500J0D01*
G01*
G37*
G36*
G01*
X46682880Y-27866120D02*
X47027880Y-27866120D01*
G75*
G02*
X47175380Y-28013620I0J-147500D01*
G01*
X47175380Y-28308620D01*
G75*
G02*
X47027880Y-28456120I-147500J0D01*
G01*
X46682880Y-28456120D01*
G75*
G02*
X46535380Y-28308620I0J147500D01*
G01*
X46535380Y-28013620D01*
G75*
G02*
X46682880Y-27866120I147500J0D01*
G01*
G37*
G36*
G01*
X9158740Y-5491260D02*
X9158740Y-5146260D01*
G75*
G02*
X9306240Y-4998760I147500J0D01*
G01*
X9601240Y-4998760D01*
G75*
G02*
X9748740Y-5146260I0J-147500D01*
G01*
X9748740Y-5491260D01*
G75*
G02*
X9601240Y-5638760I-147500J0D01*
G01*
X9306240Y-5638760D01*
G75*
G02*
X9158740Y-5491260I0J147500D01*
G01*
G37*
G36*
G01*
X8188740Y-5491260D02*
X8188740Y-5146260D01*
G75*
G02*
X8336240Y-4998760I147500J0D01*
G01*
X8631240Y-4998760D01*
G75*
G02*
X8778740Y-5146260I0J-147500D01*
G01*
X8778740Y-5491260D01*
G75*
G02*
X8631240Y-5638760I-147500J0D01*
G01*
X8336240Y-5638760D01*
G75*
G02*
X8188740Y-5491260I0J147500D01*
G01*
G37*
G36*
G01*
X9158740Y-6873020D02*
X9158740Y-6528020D01*
G75*
G02*
X9306240Y-6380520I147500J0D01*
G01*
X9601240Y-6380520D01*
G75*
G02*
X9748740Y-6528020I0J-147500D01*
G01*
X9748740Y-6873020D01*
G75*
G02*
X9601240Y-7020520I-147500J0D01*
G01*
X9306240Y-7020520D01*
G75*
G02*
X9158740Y-6873020I0J147500D01*
G01*
G37*
G36*
G01*
X8188740Y-6873020D02*
X8188740Y-6528020D01*
G75*
G02*
X8336240Y-6380520I147500J0D01*
G01*
X8631240Y-6380520D01*
G75*
G02*
X8778740Y-6528020I0J-147500D01*
G01*
X8778740Y-6873020D01*
G75*
G02*
X8631240Y-7020520I-147500J0D01*
G01*
X8336240Y-7020520D01*
G75*
G02*
X8188740Y-6873020I0J147500D01*
G01*
G37*
G36*
G01*
X47530380Y-26481820D02*
X47530380Y-26136820D01*
G75*
G02*
X47677880Y-25989320I147500J0D01*
G01*
X47972880Y-25989320D01*
G75*
G02*
X48120380Y-26136820I0J-147500D01*
G01*
X48120380Y-26481820D01*
G75*
G02*
X47972880Y-26629320I-147500J0D01*
G01*
X47677880Y-26629320D01*
G75*
G02*
X47530380Y-26481820I0J147500D01*
G01*
G37*
G36*
G01*
X46560380Y-26481820D02*
X46560380Y-26136820D01*
G75*
G02*
X46707880Y-25989320I147500J0D01*
G01*
X47002880Y-25989320D01*
G75*
G02*
X47150380Y-26136820I0J-147500D01*
G01*
X47150380Y-26481820D01*
G75*
G02*
X47002880Y-26629320I-147500J0D01*
G01*
X46707880Y-26629320D01*
G75*
G02*
X46560380Y-26481820I0J147500D01*
G01*
G37*
D13*
X57236180Y-72449320D03*
X59436180Y-72449320D03*
X59436180Y-74149320D03*
X57236180Y-74149320D03*
G36*
G01*
X30814780Y-68422300D02*
X30814780Y-68077300D01*
G75*
G02*
X30962280Y-67929800I147500J0D01*
G01*
X31257280Y-67929800D01*
G75*
G02*
X31404780Y-68077300I0J-147500D01*
G01*
X31404780Y-68422300D01*
G75*
G02*
X31257280Y-68569800I-147500J0D01*
G01*
X30962280Y-68569800D01*
G75*
G02*
X30814780Y-68422300I0J147500D01*
G01*
G37*
G36*
G01*
X29844780Y-68422300D02*
X29844780Y-68077300D01*
G75*
G02*
X29992280Y-67929800I147500J0D01*
G01*
X30287280Y-67929800D01*
G75*
G02*
X30434780Y-68077300I0J-147500D01*
G01*
X30434780Y-68422300D01*
G75*
G02*
X30287280Y-68569800I-147500J0D01*
G01*
X29992280Y-68569800D01*
G75*
G02*
X29844780Y-68422300I0J147500D01*
G01*
G37*
G36*
G01*
X30434780Y-67020660D02*
X30434780Y-67365660D01*
G75*
G02*
X30287280Y-67513160I-147500J0D01*
G01*
X29992280Y-67513160D01*
G75*
G02*
X29844780Y-67365660I0J147500D01*
G01*
X29844780Y-67020660D01*
G75*
G02*
X29992280Y-66873160I147500J0D01*
G01*
X30287280Y-66873160D01*
G75*
G02*
X30434780Y-67020660I0J-147500D01*
G01*
G37*
G36*
G01*
X31404780Y-67020660D02*
X31404780Y-67365660D01*
G75*
G02*
X31257280Y-67513160I-147500J0D01*
G01*
X30962280Y-67513160D01*
G75*
G02*
X30814780Y-67365660I0J147500D01*
G01*
X30814780Y-67020660D01*
G75*
G02*
X30962280Y-66873160I147500J0D01*
G01*
X31257280Y-66873160D01*
G75*
G02*
X31404780Y-67020660I0J-147500D01*
G01*
G37*
G36*
G01*
X45141380Y-66700620D02*
X45141380Y-67045620D01*
G75*
G02*
X44993880Y-67193120I-147500J0D01*
G01*
X44698880Y-67193120D01*
G75*
G02*
X44551380Y-67045620I0J147500D01*
G01*
X44551380Y-66700620D01*
G75*
G02*
X44698880Y-66553120I147500J0D01*
G01*
X44993880Y-66553120D01*
G75*
G02*
X45141380Y-66700620I0J-147500D01*
G01*
G37*
G36*
G01*
X46111380Y-66700620D02*
X46111380Y-67045620D01*
G75*
G02*
X45963880Y-67193120I-147500J0D01*
G01*
X45668880Y-67193120D01*
G75*
G02*
X45521380Y-67045620I0J147500D01*
G01*
X45521380Y-66700620D01*
G75*
G02*
X45668880Y-66553120I147500J0D01*
G01*
X45963880Y-66553120D01*
G75*
G02*
X46111380Y-66700620I0J-147500D01*
G01*
G37*
G36*
G01*
X49586380Y-76606620D02*
X49586380Y-76951620D01*
G75*
G02*
X49438880Y-77099120I-147500J0D01*
G01*
X49143880Y-77099120D01*
G75*
G02*
X48996380Y-76951620I0J147500D01*
G01*
X48996380Y-76606620D01*
G75*
G02*
X49143880Y-76459120I147500J0D01*
G01*
X49438880Y-76459120D01*
G75*
G02*
X49586380Y-76606620I0J-147500D01*
G01*
G37*
G36*
G01*
X50556380Y-76606620D02*
X50556380Y-76951620D01*
G75*
G02*
X50408880Y-77099120I-147500J0D01*
G01*
X50113880Y-77099120D01*
G75*
G02*
X49966380Y-76951620I0J147500D01*
G01*
X49966380Y-76606620D01*
G75*
G02*
X50113880Y-76459120I147500J0D01*
G01*
X50408880Y-76459120D01*
G75*
G02*
X50556380Y-76606620I0J-147500D01*
G01*
G37*
G36*
G01*
X46335180Y-71272620D02*
X46335180Y-71617620D01*
G75*
G02*
X46187680Y-71765120I-147500J0D01*
G01*
X45892680Y-71765120D01*
G75*
G02*
X45745180Y-71617620I0J147500D01*
G01*
X45745180Y-71272620D01*
G75*
G02*
X45892680Y-71125120I147500J0D01*
G01*
X46187680Y-71125120D01*
G75*
G02*
X46335180Y-71272620I0J-147500D01*
G01*
G37*
G36*
G01*
X47305180Y-71272620D02*
X47305180Y-71617620D01*
G75*
G02*
X47157680Y-71765120I-147500J0D01*
G01*
X46862680Y-71765120D01*
G75*
G02*
X46715180Y-71617620I0J147500D01*
G01*
X46715180Y-71272620D01*
G75*
G02*
X46862680Y-71125120I147500J0D01*
G01*
X47157680Y-71125120D01*
G75*
G02*
X47305180Y-71272620I0J-147500D01*
G01*
G37*
G36*
G01*
X6436020Y-2118700D02*
X6436020Y-2463700D01*
G75*
G02*
X6288520Y-2611200I-147500J0D01*
G01*
X5993520Y-2611200D01*
G75*
G02*
X5846020Y-2463700I0J147500D01*
G01*
X5846020Y-2118700D01*
G75*
G02*
X5993520Y-1971200I147500J0D01*
G01*
X6288520Y-1971200D01*
G75*
G02*
X6436020Y-2118700I0J-147500D01*
G01*
G37*
G36*
G01*
X7406020Y-2118700D02*
X7406020Y-2463700D01*
G75*
G02*
X7258520Y-2611200I-147500J0D01*
G01*
X6963520Y-2611200D01*
G75*
G02*
X6816020Y-2463700I0J147500D01*
G01*
X6816020Y-2118700D01*
G75*
G02*
X6963520Y-1971200I147500J0D01*
G01*
X7258520Y-1971200D01*
G75*
G02*
X7406020Y-2118700I0J-147500D01*
G01*
G37*
G36*
G01*
X9736020Y-1734950D02*
X9736020Y-2247450D01*
G75*
G02*
X9517270Y-2466200I-218750J0D01*
G01*
X9079770Y-2466200D01*
G75*
G02*
X8861020Y-2247450I0J218750D01*
G01*
X8861020Y-1734950D01*
G75*
G02*
X9079770Y-1516200I218750J0D01*
G01*
X9517270Y-1516200D01*
G75*
G02*
X9736020Y-1734950I0J-218750D01*
G01*
G37*
G36*
G01*
X11311020Y-1734950D02*
X11311020Y-2247450D01*
G75*
G02*
X11092270Y-2466200I-218750J0D01*
G01*
X10654770Y-2466200D01*
G75*
G02*
X10436020Y-2247450I0J218750D01*
G01*
X10436020Y-1734950D01*
G75*
G02*
X10654770Y-1516200I218750J0D01*
G01*
X11092270Y-1516200D01*
G75*
G02*
X11311020Y-1734950I0J-218750D01*
G01*
G37*
G36*
G01*
X42506380Y-76273370D02*
X42506380Y-75760870D01*
G75*
G02*
X42725130Y-75542120I218750J0D01*
G01*
X43162630Y-75542120D01*
G75*
G02*
X43381380Y-75760870I0J-218750D01*
G01*
X43381380Y-76273370D01*
G75*
G02*
X43162630Y-76492120I-218750J0D01*
G01*
X42725130Y-76492120D01*
G75*
G02*
X42506380Y-76273370I0J218750D01*
G01*
G37*
G36*
G01*
X40931380Y-76273370D02*
X40931380Y-75760870D01*
G75*
G02*
X41150130Y-75542120I218750J0D01*
G01*
X41587630Y-75542120D01*
G75*
G02*
X41806380Y-75760870I0J-218750D01*
G01*
X41806380Y-76273370D01*
G75*
G02*
X41587630Y-76492120I-218750J0D01*
G01*
X41150130Y-76492120D01*
G75*
G02*
X40931380Y-76273370I0J218750D01*
G01*
G37*
G36*
G01*
X42506380Y-74495370D02*
X42506380Y-73982870D01*
G75*
G02*
X42725130Y-73764120I218750J0D01*
G01*
X43162630Y-73764120D01*
G75*
G02*
X43381380Y-73982870I0J-218750D01*
G01*
X43381380Y-74495370D01*
G75*
G02*
X43162630Y-74714120I-218750J0D01*
G01*
X42725130Y-74714120D01*
G75*
G02*
X42506380Y-74495370I0J218750D01*
G01*
G37*
G36*
G01*
X40931380Y-74495370D02*
X40931380Y-73982870D01*
G75*
G02*
X41150130Y-73764120I218750J0D01*
G01*
X41587630Y-73764120D01*
G75*
G02*
X41806380Y-73982870I0J-218750D01*
G01*
X41806380Y-74495370D01*
G75*
G02*
X41587630Y-74714120I-218750J0D01*
G01*
X41150130Y-74714120D01*
G75*
G02*
X40931380Y-74495370I0J218750D01*
G01*
G37*
G36*
G01*
X44955880Y-75760870D02*
X44955880Y-76273370D01*
G75*
G02*
X44737130Y-76492120I-218750J0D01*
G01*
X44299630Y-76492120D01*
G75*
G02*
X44080880Y-76273370I0J218750D01*
G01*
X44080880Y-75760870D01*
G75*
G02*
X44299630Y-75542120I218750J0D01*
G01*
X44737130Y-75542120D01*
G75*
G02*
X44955880Y-75760870I0J-218750D01*
G01*
G37*
G36*
G01*
X46530880Y-75760870D02*
X46530880Y-76273370D01*
G75*
G02*
X46312130Y-76492120I-218750J0D01*
G01*
X45874630Y-76492120D01*
G75*
G02*
X45655880Y-76273370I0J218750D01*
G01*
X45655880Y-75760870D01*
G75*
G02*
X45874630Y-75542120I218750J0D01*
G01*
X46312130Y-75542120D01*
G75*
G02*
X46530880Y-75760870I0J-218750D01*
G01*
G37*
G36*
G01*
X44981380Y-73982870D02*
X44981380Y-74495370D01*
G75*
G02*
X44762630Y-74714120I-218750J0D01*
G01*
X44325130Y-74714120D01*
G75*
G02*
X44106380Y-74495370I0J218750D01*
G01*
X44106380Y-73982870D01*
G75*
G02*
X44325130Y-73764120I218750J0D01*
G01*
X44762630Y-73764120D01*
G75*
G02*
X44981380Y-73982870I0J-218750D01*
G01*
G37*
G36*
G01*
X46556380Y-73982870D02*
X46556380Y-74495370D01*
G75*
G02*
X46337630Y-74714120I-218750J0D01*
G01*
X45900130Y-74714120D01*
G75*
G02*
X45681380Y-74495370I0J218750D01*
G01*
X45681380Y-73982870D01*
G75*
G02*
X45900130Y-73764120I218750J0D01*
G01*
X46337630Y-73764120D01*
G75*
G02*
X46556380Y-73982870I0J-218750D01*
G01*
G37*
G36*
G01*
X42535130Y-70271120D02*
X43047630Y-70271120D01*
G75*
G02*
X43266380Y-70489870I0J-218750D01*
G01*
X43266380Y-70927370D01*
G75*
G02*
X43047630Y-71146120I-218750J0D01*
G01*
X42535130Y-71146120D01*
G75*
G02*
X42316380Y-70927370I0J218750D01*
G01*
X42316380Y-70489870D01*
G75*
G02*
X42535130Y-70271120I218750J0D01*
G01*
G37*
G36*
G01*
X42535130Y-68696120D02*
X43047630Y-68696120D01*
G75*
G02*
X43266380Y-68914870I0J-218750D01*
G01*
X43266380Y-69352370D01*
G75*
G02*
X43047630Y-69571120I-218750J0D01*
G01*
X42535130Y-69571120D01*
G75*
G02*
X42316380Y-69352370I0J218750D01*
G01*
X42316380Y-68914870D01*
G75*
G02*
X42535130Y-68696120I218750J0D01*
G01*
G37*
D23*
X18064080Y-39439820D03*
X18064080Y-44039820D03*
X18064080Y-41739820D03*
D24*
X24364080Y-41739820D03*
G36*
G01*
X54493380Y-63799220D02*
X54838380Y-63799220D01*
G75*
G02*
X54985880Y-63946720I0J-147500D01*
G01*
X54985880Y-64241720D01*
G75*
G02*
X54838380Y-64389220I-147500J0D01*
G01*
X54493380Y-64389220D01*
G75*
G02*
X54345880Y-64241720I0J147500D01*
G01*
X54345880Y-63946720D01*
G75*
G02*
X54493380Y-63799220I147500J0D01*
G01*
G37*
G36*
G01*
X54493380Y-62829220D02*
X54838380Y-62829220D01*
G75*
G02*
X54985880Y-62976720I0J-147500D01*
G01*
X54985880Y-63271720D01*
G75*
G02*
X54838380Y-63419220I-147500J0D01*
G01*
X54493380Y-63419220D01*
G75*
G02*
X54345880Y-63271720I0J147500D01*
G01*
X54345880Y-62976720D01*
G75*
G02*
X54493380Y-62829220I147500J0D01*
G01*
G37*
G36*
G01*
X14536920Y-61531720D02*
X14536920Y-61876720D01*
G75*
G02*
X14389420Y-62024220I-147500J0D01*
G01*
X14094420Y-62024220D01*
G75*
G02*
X13946920Y-61876720I0J147500D01*
G01*
X13946920Y-61531720D01*
G75*
G02*
X14094420Y-61384220I147500J0D01*
G01*
X14389420Y-61384220D01*
G75*
G02*
X14536920Y-61531720I0J-147500D01*
G01*
G37*
G36*
G01*
X15506920Y-61531720D02*
X15506920Y-61876720D01*
G75*
G02*
X15359420Y-62024220I-147500J0D01*
G01*
X15064420Y-62024220D01*
G75*
G02*
X14916920Y-61876720I0J147500D01*
G01*
X14916920Y-61531720D01*
G75*
G02*
X15064420Y-61384220I147500J0D01*
G01*
X15359420Y-61384220D01*
G75*
G02*
X15506920Y-61531720I0J-147500D01*
G01*
G37*
G36*
G01*
X28490680Y-79974220D02*
X28490680Y-79629220D01*
G75*
G02*
X28638180Y-79481720I147500J0D01*
G01*
X28933180Y-79481720D01*
G75*
G02*
X29080680Y-79629220I0J-147500D01*
G01*
X29080680Y-79974220D01*
G75*
G02*
X28933180Y-80121720I-147500J0D01*
G01*
X28638180Y-80121720D01*
G75*
G02*
X28490680Y-79974220I0J147500D01*
G01*
G37*
G36*
G01*
X27520680Y-79974220D02*
X27520680Y-79629220D01*
G75*
G02*
X27668180Y-79481720I147500J0D01*
G01*
X27963180Y-79481720D01*
G75*
G02*
X28110680Y-79629220I0J-147500D01*
G01*
X28110680Y-79974220D01*
G75*
G02*
X27963180Y-80121720I-147500J0D01*
G01*
X27668180Y-80121720D01*
G75*
G02*
X27520680Y-79974220I0J147500D01*
G01*
G37*
G36*
G01*
X28490680Y-81180720D02*
X28490680Y-80835720D01*
G75*
G02*
X28638180Y-80688220I147500J0D01*
G01*
X28933180Y-80688220D01*
G75*
G02*
X29080680Y-80835720I0J-147500D01*
G01*
X29080680Y-81180720D01*
G75*
G02*
X28933180Y-81328220I-147500J0D01*
G01*
X28638180Y-81328220D01*
G75*
G02*
X28490680Y-81180720I0J147500D01*
G01*
G37*
G36*
G01*
X27520680Y-81180720D02*
X27520680Y-80835720D01*
G75*
G02*
X27668180Y-80688220I147500J0D01*
G01*
X27963180Y-80688220D01*
G75*
G02*
X28110680Y-80835720I0J-147500D01*
G01*
X28110680Y-81180720D01*
G75*
G02*
X27963180Y-81328220I-147500J0D01*
G01*
X27668180Y-81328220D01*
G75*
G02*
X27520680Y-81180720I0J147500D01*
G01*
G37*
G36*
G01*
X27106380Y-76494420D02*
X27106380Y-76149420D01*
G75*
G02*
X27253880Y-76001920I147500J0D01*
G01*
X27548880Y-76001920D01*
G75*
G02*
X27696380Y-76149420I0J-147500D01*
G01*
X27696380Y-76494420D01*
G75*
G02*
X27548880Y-76641920I-147500J0D01*
G01*
X27253880Y-76641920D01*
G75*
G02*
X27106380Y-76494420I0J147500D01*
G01*
G37*
G36*
G01*
X26136380Y-76494420D02*
X26136380Y-76149420D01*
G75*
G02*
X26283880Y-76001920I147500J0D01*
G01*
X26578880Y-76001920D01*
G75*
G02*
X26726380Y-76149420I0J-147500D01*
G01*
X26726380Y-76494420D01*
G75*
G02*
X26578880Y-76641920I-147500J0D01*
G01*
X26283880Y-76641920D01*
G75*
G02*
X26136380Y-76494420I0J147500D01*
G01*
G37*
G36*
G01*
X15342226Y-66205600D02*
X14997226Y-66205600D01*
G75*
G02*
X14849726Y-66058100I0J147500D01*
G01*
X14849726Y-65763100D01*
G75*
G02*
X14997226Y-65615600I147500J0D01*
G01*
X15342226Y-65615600D01*
G75*
G02*
X15489726Y-65763100I0J-147500D01*
G01*
X15489726Y-66058100D01*
G75*
G02*
X15342226Y-66205600I-147500J0D01*
G01*
G37*
G36*
G01*
X15342226Y-67175600D02*
X14997226Y-67175600D01*
G75*
G02*
X14849726Y-67028100I0J147500D01*
G01*
X14849726Y-66733100D01*
G75*
G02*
X14997226Y-66585600I147500J0D01*
G01*
X15342226Y-66585600D01*
G75*
G02*
X15489726Y-66733100I0J-147500D01*
G01*
X15489726Y-67028100D01*
G75*
G02*
X15342226Y-67175600I-147500J0D01*
G01*
G37*
G36*
G01*
X19098480Y-77807320D02*
X19443480Y-77807320D01*
G75*
G02*
X19590980Y-77954820I0J-147500D01*
G01*
X19590980Y-78249820D01*
G75*
G02*
X19443480Y-78397320I-147500J0D01*
G01*
X19098480Y-78397320D01*
G75*
G02*
X18950980Y-78249820I0J147500D01*
G01*
X18950980Y-77954820D01*
G75*
G02*
X19098480Y-77807320I147500J0D01*
G01*
G37*
G36*
G01*
X19098480Y-76837320D02*
X19443480Y-76837320D01*
G75*
G02*
X19590980Y-76984820I0J-147500D01*
G01*
X19590980Y-77279820D01*
G75*
G02*
X19443480Y-77427320I-147500J0D01*
G01*
X19098480Y-77427320D01*
G75*
G02*
X18950980Y-77279820I0J147500D01*
G01*
X18950980Y-76984820D01*
G75*
G02*
X19098480Y-76837320I147500J0D01*
G01*
G37*
G36*
G01*
X16591780Y-77178120D02*
X16591780Y-77523120D01*
G75*
G02*
X16444280Y-77670620I-147500J0D01*
G01*
X16149280Y-77670620D01*
G75*
G02*
X16001780Y-77523120I0J147500D01*
G01*
X16001780Y-77178120D01*
G75*
G02*
X16149280Y-77030620I147500J0D01*
G01*
X16444280Y-77030620D01*
G75*
G02*
X16591780Y-77178120I0J-147500D01*
G01*
G37*
G36*
G01*
X17561780Y-77178120D02*
X17561780Y-77523120D01*
G75*
G02*
X17414280Y-77670620I-147500J0D01*
G01*
X17119280Y-77670620D01*
G75*
G02*
X16971780Y-77523120I0J147500D01*
G01*
X16971780Y-77178120D01*
G75*
G02*
X17119280Y-77030620I147500J0D01*
G01*
X17414280Y-77030620D01*
G75*
G02*
X17561780Y-77178120I0J-147500D01*
G01*
G37*
G36*
G01*
X12832580Y-69926420D02*
X12832580Y-70271420D01*
G75*
G02*
X12685080Y-70418920I-147500J0D01*
G01*
X12390080Y-70418920D01*
G75*
G02*
X12242580Y-70271420I0J147500D01*
G01*
X12242580Y-69926420D01*
G75*
G02*
X12390080Y-69778920I147500J0D01*
G01*
X12685080Y-69778920D01*
G75*
G02*
X12832580Y-69926420I0J-147500D01*
G01*
G37*
G36*
G01*
X13802580Y-69926420D02*
X13802580Y-70271420D01*
G75*
G02*
X13655080Y-70418920I-147500J0D01*
G01*
X13360080Y-70418920D01*
G75*
G02*
X13212580Y-70271420I0J147500D01*
G01*
X13212580Y-69926420D01*
G75*
G02*
X13360080Y-69778920I147500J0D01*
G01*
X13655080Y-69778920D01*
G75*
G02*
X13802580Y-69926420I0J-147500D01*
G01*
G37*
G36*
G01*
X31919681Y-76977021D02*
X31919681Y-76632021D01*
G75*
G02*
X32067181Y-76484521I147500J0D01*
G01*
X32362181Y-76484521D01*
G75*
G02*
X32509681Y-76632021I0J-147500D01*
G01*
X32509681Y-76977021D01*
G75*
G02*
X32362181Y-77124521I-147500J0D01*
G01*
X32067181Y-77124521D01*
G75*
G02*
X31919681Y-76977021I0J147500D01*
G01*
G37*
G36*
G01*
X30949681Y-76977021D02*
X30949681Y-76632021D01*
G75*
G02*
X31097181Y-76484521I147500J0D01*
G01*
X31392181Y-76484521D01*
G75*
G02*
X31539681Y-76632021I0J-147500D01*
G01*
X31539681Y-76977021D01*
G75*
G02*
X31392181Y-77124521I-147500J0D01*
G01*
X31097181Y-77124521D01*
G75*
G02*
X30949681Y-76977021I0J147500D01*
G01*
G37*
G36*
G01*
X12832580Y-73838020D02*
X12832580Y-74183020D01*
G75*
G02*
X12685080Y-74330520I-147500J0D01*
G01*
X12390080Y-74330520D01*
G75*
G02*
X12242580Y-74183020I0J147500D01*
G01*
X12242580Y-73838020D01*
G75*
G02*
X12390080Y-73690520I147500J0D01*
G01*
X12685080Y-73690520D01*
G75*
G02*
X12832580Y-73838020I0J-147500D01*
G01*
G37*
G36*
G01*
X13802580Y-73838020D02*
X13802580Y-74183020D01*
G75*
G02*
X13655080Y-74330520I-147500J0D01*
G01*
X13360080Y-74330520D01*
G75*
G02*
X13212580Y-74183020I0J147500D01*
G01*
X13212580Y-73838020D01*
G75*
G02*
X13360080Y-73690520I147500J0D01*
G01*
X13655080Y-73690520D01*
G75*
G02*
X13802580Y-73838020I0J-147500D01*
G01*
G37*
G36*
G01*
X12832580Y-71907620D02*
X12832580Y-72252620D01*
G75*
G02*
X12685080Y-72400120I-147500J0D01*
G01*
X12390080Y-72400120D01*
G75*
G02*
X12242580Y-72252620I0J147500D01*
G01*
X12242580Y-71907620D01*
G75*
G02*
X12390080Y-71760120I147500J0D01*
G01*
X12685080Y-71760120D01*
G75*
G02*
X12832580Y-71907620I0J-147500D01*
G01*
G37*
G36*
G01*
X13802580Y-71907620D02*
X13802580Y-72252620D01*
G75*
G02*
X13655080Y-72400120I-147500J0D01*
G01*
X13360080Y-72400120D01*
G75*
G02*
X13212580Y-72252620I0J147500D01*
G01*
X13212580Y-71907620D01*
G75*
G02*
X13360080Y-71760120I147500J0D01*
G01*
X13655080Y-71760120D01*
G75*
G02*
X13802580Y-71907620I0J-147500D01*
G01*
G37*
G36*
G01*
X14780480Y-83344520D02*
X15125480Y-83344520D01*
G75*
G02*
X15272980Y-83492020I0J-147500D01*
G01*
X15272980Y-83787020D01*
G75*
G02*
X15125480Y-83934520I-147500J0D01*
G01*
X14780480Y-83934520D01*
G75*
G02*
X14632980Y-83787020I0J147500D01*
G01*
X14632980Y-83492020D01*
G75*
G02*
X14780480Y-83344520I147500J0D01*
G01*
G37*
G36*
G01*
X14780480Y-82374520D02*
X15125480Y-82374520D01*
G75*
G02*
X15272980Y-82522020I0J-147500D01*
G01*
X15272980Y-82817020D01*
G75*
G02*
X15125480Y-82964520I-147500J0D01*
G01*
X14780480Y-82964520D01*
G75*
G02*
X14632980Y-82817020I0J147500D01*
G01*
X14632980Y-82522020D01*
G75*
G02*
X14780480Y-82374520I147500J0D01*
G01*
G37*
G36*
G01*
X14216160Y-66205600D02*
X13871160Y-66205600D01*
G75*
G02*
X13723660Y-66058100I0J147500D01*
G01*
X13723660Y-65763100D01*
G75*
G02*
X13871160Y-65615600I147500J0D01*
G01*
X14216160Y-65615600D01*
G75*
G02*
X14363660Y-65763100I0J-147500D01*
G01*
X14363660Y-66058100D01*
G75*
G02*
X14216160Y-66205600I-147500J0D01*
G01*
G37*
G36*
G01*
X14216160Y-67175600D02*
X13871160Y-67175600D01*
G75*
G02*
X13723660Y-67028100I0J147500D01*
G01*
X13723660Y-66733100D01*
G75*
G02*
X13871160Y-66585600I147500J0D01*
G01*
X14216160Y-66585600D01*
G75*
G02*
X14363660Y-66733100I0J-147500D01*
G01*
X14363660Y-67028100D01*
G75*
G02*
X14216160Y-67175600I-147500J0D01*
G01*
G37*
G36*
G01*
X25963380Y-68239418D02*
X25963380Y-67894418D01*
G75*
G02*
X26110880Y-67746918I147500J0D01*
G01*
X26405880Y-67746918D01*
G75*
G02*
X26553380Y-67894418I0J-147500D01*
G01*
X26553380Y-68239418D01*
G75*
G02*
X26405880Y-68386918I-147500J0D01*
G01*
X26110880Y-68386918D01*
G75*
G02*
X25963380Y-68239418I0J147500D01*
G01*
G37*
G36*
G01*
X24993380Y-68239418D02*
X24993380Y-67894418D01*
G75*
G02*
X25140880Y-67746918I147500J0D01*
G01*
X25435880Y-67746918D01*
G75*
G02*
X25583380Y-67894418I0J-147500D01*
G01*
X25583380Y-68239418D01*
G75*
G02*
X25435880Y-68386918I-147500J0D01*
G01*
X25140880Y-68386918D01*
G75*
G02*
X24993380Y-68239418I0J147500D01*
G01*
G37*
G36*
G01*
X12900880Y-83446120D02*
X13245880Y-83446120D01*
G75*
G02*
X13393380Y-83593620I0J-147500D01*
G01*
X13393380Y-83888620D01*
G75*
G02*
X13245880Y-84036120I-147500J0D01*
G01*
X12900880Y-84036120D01*
G75*
G02*
X12753380Y-83888620I0J147500D01*
G01*
X12753380Y-83593620D01*
G75*
G02*
X12900880Y-83446120I147500J0D01*
G01*
G37*
G36*
G01*
X12900880Y-82476120D02*
X13245880Y-82476120D01*
G75*
G02*
X13393380Y-82623620I0J-147500D01*
G01*
X13393380Y-82918620D01*
G75*
G02*
X13245880Y-83066120I-147500J0D01*
G01*
X12900880Y-83066120D01*
G75*
G02*
X12753380Y-82918620I0J147500D01*
G01*
X12753380Y-82623620D01*
G75*
G02*
X12900880Y-82476120I147500J0D01*
G01*
G37*
G36*
G01*
X17556980Y-78359220D02*
X17556980Y-78704220D01*
G75*
G02*
X17409480Y-78851720I-147500J0D01*
G01*
X17114480Y-78851720D01*
G75*
G02*
X16966980Y-78704220I0J147500D01*
G01*
X16966980Y-78359220D01*
G75*
G02*
X17114480Y-78211720I147500J0D01*
G01*
X17409480Y-78211720D01*
G75*
G02*
X17556980Y-78359220I0J-147500D01*
G01*
G37*
G36*
G01*
X18526980Y-78359220D02*
X18526980Y-78704220D01*
G75*
G02*
X18379480Y-78851720I-147500J0D01*
G01*
X18084480Y-78851720D01*
G75*
G02*
X17936980Y-78704220I0J147500D01*
G01*
X17936980Y-78359220D01*
G75*
G02*
X18084480Y-78211720I147500J0D01*
G01*
X18379480Y-78211720D01*
G75*
G02*
X18526980Y-78359220I0J-147500D01*
G01*
G37*
G36*
G01*
X19900680Y-65946520D02*
X19555680Y-65946520D01*
G75*
G02*
X19408180Y-65799020I0J147500D01*
G01*
X19408180Y-65504020D01*
G75*
G02*
X19555680Y-65356520I147500J0D01*
G01*
X19900680Y-65356520D01*
G75*
G02*
X20048180Y-65504020I0J-147500D01*
G01*
X20048180Y-65799020D01*
G75*
G02*
X19900680Y-65946520I-147500J0D01*
G01*
G37*
G36*
G01*
X19900680Y-66916520D02*
X19555680Y-66916520D01*
G75*
G02*
X19408180Y-66769020I0J147500D01*
G01*
X19408180Y-66474020D01*
G75*
G02*
X19555680Y-66326520I147500J0D01*
G01*
X19900680Y-66326520D01*
G75*
G02*
X20048180Y-66474020I0J-147500D01*
G01*
X20048180Y-66769020D01*
G75*
G02*
X19900680Y-66916520I-147500J0D01*
G01*
G37*
G36*
G01*
X56514780Y-63419220D02*
X56169780Y-63419220D01*
G75*
G02*
X56022280Y-63271720I0J147500D01*
G01*
X56022280Y-62976720D01*
G75*
G02*
X56169780Y-62829220I147500J0D01*
G01*
X56514780Y-62829220D01*
G75*
G02*
X56662280Y-62976720I0J-147500D01*
G01*
X56662280Y-63271720D01*
G75*
G02*
X56514780Y-63419220I-147500J0D01*
G01*
G37*
G36*
G01*
X56514780Y-64389220D02*
X56169780Y-64389220D01*
G75*
G02*
X56022280Y-64241720I0J147500D01*
G01*
X56022280Y-63946720D01*
G75*
G02*
X56169780Y-63799220I147500J0D01*
G01*
X56514780Y-63799220D01*
G75*
G02*
X56662280Y-63946720I0J-147500D01*
G01*
X56662280Y-64241720D01*
G75*
G02*
X56514780Y-64389220I-147500J0D01*
G01*
G37*
G36*
G01*
X51140580Y-63799220D02*
X51485580Y-63799220D01*
G75*
G02*
X51633080Y-63946720I0J-147500D01*
G01*
X51633080Y-64241720D01*
G75*
G02*
X51485580Y-64389220I-147500J0D01*
G01*
X51140580Y-64389220D01*
G75*
G02*
X50993080Y-64241720I0J147500D01*
G01*
X50993080Y-63946720D01*
G75*
G02*
X51140580Y-63799220I147500J0D01*
G01*
G37*
G36*
G01*
X51140580Y-62829220D02*
X51485580Y-62829220D01*
G75*
G02*
X51633080Y-62976720I0J-147500D01*
G01*
X51633080Y-63271720D01*
G75*
G02*
X51485580Y-63419220I-147500J0D01*
G01*
X51140580Y-63419220D01*
G75*
G02*
X50993080Y-63271720I0J147500D01*
G01*
X50993080Y-62976720D01*
G75*
G02*
X51140580Y-62829220I147500J0D01*
G01*
G37*
G36*
G01*
X53161980Y-63419220D02*
X52816980Y-63419220D01*
G75*
G02*
X52669480Y-63271720I0J147500D01*
G01*
X52669480Y-62976720D01*
G75*
G02*
X52816980Y-62829220I147500J0D01*
G01*
X53161980Y-62829220D01*
G75*
G02*
X53309480Y-62976720I0J-147500D01*
G01*
X53309480Y-63271720D01*
G75*
G02*
X53161980Y-63419220I-147500J0D01*
G01*
G37*
G36*
G01*
X53161980Y-64389220D02*
X52816980Y-64389220D01*
G75*
G02*
X52669480Y-64241720I0J147500D01*
G01*
X52669480Y-63946720D01*
G75*
G02*
X52816980Y-63799220I147500J0D01*
G01*
X53161980Y-63799220D01*
G75*
G02*
X53309480Y-63946720I0J-147500D01*
G01*
X53309480Y-64241720D01*
G75*
G02*
X53161980Y-64389220I-147500J0D01*
G01*
G37*
G36*
G01*
X48285180Y-63419220D02*
X47940180Y-63419220D01*
G75*
G02*
X47792680Y-63271720I0J147500D01*
G01*
X47792680Y-62976720D01*
G75*
G02*
X47940180Y-62829220I147500J0D01*
G01*
X48285180Y-62829220D01*
G75*
G02*
X48432680Y-62976720I0J-147500D01*
G01*
X48432680Y-63271720D01*
G75*
G02*
X48285180Y-63419220I-147500J0D01*
G01*
G37*
G36*
G01*
X48285180Y-64389220D02*
X47940180Y-64389220D01*
G75*
G02*
X47792680Y-64241720I0J147500D01*
G01*
X47792680Y-63946720D01*
G75*
G02*
X47940180Y-63799220I147500J0D01*
G01*
X48285180Y-63799220D01*
G75*
G02*
X48432680Y-63946720I0J-147500D01*
G01*
X48432680Y-64241720D01*
G75*
G02*
X48285180Y-64389220I-147500J0D01*
G01*
G37*
G36*
G01*
X49464180Y-63799220D02*
X49809180Y-63799220D01*
G75*
G02*
X49956680Y-63946720I0J-147500D01*
G01*
X49956680Y-64241720D01*
G75*
G02*
X49809180Y-64389220I-147500J0D01*
G01*
X49464180Y-64389220D01*
G75*
G02*
X49316680Y-64241720I0J147500D01*
G01*
X49316680Y-63946720D01*
G75*
G02*
X49464180Y-63799220I147500J0D01*
G01*
G37*
G36*
G01*
X49464180Y-62829220D02*
X49809180Y-62829220D01*
G75*
G02*
X49956680Y-62976720I0J-147500D01*
G01*
X49956680Y-63271720D01*
G75*
G02*
X49809180Y-63419220I-147500J0D01*
G01*
X49464180Y-63419220D01*
G75*
G02*
X49316680Y-63271720I0J147500D01*
G01*
X49316680Y-62976720D01*
G75*
G02*
X49464180Y-62829220I147500J0D01*
G01*
G37*
G36*
G01*
X39359340Y-33024860D02*
X39359340Y-32679860D01*
G75*
G02*
X39506840Y-32532360I147500J0D01*
G01*
X39801840Y-32532360D01*
G75*
G02*
X39949340Y-32679860I0J-147500D01*
G01*
X39949340Y-33024860D01*
G75*
G02*
X39801840Y-33172360I-147500J0D01*
G01*
X39506840Y-33172360D01*
G75*
G02*
X39359340Y-33024860I0J147500D01*
G01*
G37*
G36*
G01*
X38389340Y-33024860D02*
X38389340Y-32679860D01*
G75*
G02*
X38536840Y-32532360I147500J0D01*
G01*
X38831840Y-32532360D01*
G75*
G02*
X38979340Y-32679860I0J-147500D01*
G01*
X38979340Y-33024860D01*
G75*
G02*
X38831840Y-33172360I-147500J0D01*
G01*
X38536840Y-33172360D01*
G75*
G02*
X38389340Y-33024860I0J147500D01*
G01*
G37*
G36*
G01*
X61600580Y-31166020D02*
X61600580Y-31511020D01*
G75*
G02*
X61453080Y-31658520I-147500J0D01*
G01*
X61158080Y-31658520D01*
G75*
G02*
X61010580Y-31511020I0J147500D01*
G01*
X61010580Y-31166020D01*
G75*
G02*
X61158080Y-31018520I147500J0D01*
G01*
X61453080Y-31018520D01*
G75*
G02*
X61600580Y-31166020I0J-147500D01*
G01*
G37*
G36*
G01*
X62570580Y-31166020D02*
X62570580Y-31511020D01*
G75*
G02*
X62423080Y-31658520I-147500J0D01*
G01*
X62128080Y-31658520D01*
G75*
G02*
X61980580Y-31511020I0J147500D01*
G01*
X61980580Y-31166020D01*
G75*
G02*
X62128080Y-31018520I147500J0D01*
G01*
X62423080Y-31018520D01*
G75*
G02*
X62570580Y-31166020I0J-147500D01*
G01*
G37*
G36*
G01*
X55325780Y-15966220D02*
X55325780Y-15621220D01*
G75*
G02*
X55473280Y-15473720I147500J0D01*
G01*
X55768280Y-15473720D01*
G75*
G02*
X55915780Y-15621220I0J-147500D01*
G01*
X55915780Y-15966220D01*
G75*
G02*
X55768280Y-16113720I-147500J0D01*
G01*
X55473280Y-16113720D01*
G75*
G02*
X55325780Y-15966220I0J147500D01*
G01*
G37*
G36*
G01*
X54355780Y-15966220D02*
X54355780Y-15621220D01*
G75*
G02*
X54503280Y-15473720I147500J0D01*
G01*
X54798280Y-15473720D01*
G75*
G02*
X54945780Y-15621220I0J-147500D01*
G01*
X54945780Y-15966220D01*
G75*
G02*
X54798280Y-16113720I-147500J0D01*
G01*
X54503280Y-16113720D01*
G75*
G02*
X54355780Y-15966220I0J147500D01*
G01*
G37*
G36*
G01*
X64546980Y-31166020D02*
X64546980Y-31511020D01*
G75*
G02*
X64399480Y-31658520I-147500J0D01*
G01*
X64104480Y-31658520D01*
G75*
G02*
X63956980Y-31511020I0J147500D01*
G01*
X63956980Y-31166020D01*
G75*
G02*
X64104480Y-31018520I147500J0D01*
G01*
X64399480Y-31018520D01*
G75*
G02*
X64546980Y-31166020I0J-147500D01*
G01*
G37*
G36*
G01*
X65516980Y-31166020D02*
X65516980Y-31511020D01*
G75*
G02*
X65369480Y-31658520I-147500J0D01*
G01*
X65074480Y-31658520D01*
G75*
G02*
X64926980Y-31511020I0J147500D01*
G01*
X64926980Y-31166020D01*
G75*
G02*
X65074480Y-31018520I147500J0D01*
G01*
X65369480Y-31018520D01*
G75*
G02*
X65516980Y-31166020I0J-147500D01*
G01*
G37*
G36*
G01*
X54945780Y-14300420D02*
X54945780Y-14645420D01*
G75*
G02*
X54798280Y-14792920I-147500J0D01*
G01*
X54503280Y-14792920D01*
G75*
G02*
X54355780Y-14645420I0J147500D01*
G01*
X54355780Y-14300420D01*
G75*
G02*
X54503280Y-14152920I147500J0D01*
G01*
X54798280Y-14152920D01*
G75*
G02*
X54945780Y-14300420I0J-147500D01*
G01*
G37*
G36*
G01*
X55915780Y-14300420D02*
X55915780Y-14645420D01*
G75*
G02*
X55768280Y-14792920I-147500J0D01*
G01*
X55473280Y-14792920D01*
G75*
G02*
X55325780Y-14645420I0J147500D01*
G01*
X55325780Y-14300420D01*
G75*
G02*
X55473280Y-14152920I147500J0D01*
G01*
X55768280Y-14152920D01*
G75*
G02*
X55915780Y-14300420I0J-147500D01*
G01*
G37*
G36*
G01*
X58307740Y-23154420D02*
X58307740Y-22809420D01*
G75*
G02*
X58455240Y-22661920I147500J0D01*
G01*
X58750240Y-22661920D01*
G75*
G02*
X58897740Y-22809420I0J-147500D01*
G01*
X58897740Y-23154420D01*
G75*
G02*
X58750240Y-23301920I-147500J0D01*
G01*
X58455240Y-23301920D01*
G75*
G02*
X58307740Y-23154420I0J147500D01*
G01*
G37*
G36*
G01*
X57337740Y-23154420D02*
X57337740Y-22809420D01*
G75*
G02*
X57485240Y-22661920I147500J0D01*
G01*
X57780240Y-22661920D01*
G75*
G02*
X57927740Y-22809420I0J-147500D01*
G01*
X57927740Y-23154420D01*
G75*
G02*
X57780240Y-23301920I-147500J0D01*
G01*
X57485240Y-23301920D01*
G75*
G02*
X57337740Y-23154420I0J147500D01*
G01*
G37*
G36*
G01*
X58666600Y-29537160D02*
X59011600Y-29537160D01*
G75*
G02*
X59159100Y-29684660I0J-147500D01*
G01*
X59159100Y-29979660D01*
G75*
G02*
X59011600Y-30127160I-147500J0D01*
G01*
X58666600Y-30127160D01*
G75*
G02*
X58519100Y-29979660I0J147500D01*
G01*
X58519100Y-29684660D01*
G75*
G02*
X58666600Y-29537160I147500J0D01*
G01*
G37*
G36*
G01*
X58666600Y-28567160D02*
X59011600Y-28567160D01*
G75*
G02*
X59159100Y-28714660I0J-147500D01*
G01*
X59159100Y-29009660D01*
G75*
G02*
X59011600Y-29157160I-147500J0D01*
G01*
X58666600Y-29157160D01*
G75*
G02*
X58519100Y-29009660I0J147500D01*
G01*
X58519100Y-28714660D01*
G75*
G02*
X58666600Y-28567160I147500J0D01*
G01*
G37*
G36*
G01*
X57790580Y-21437820D02*
X57790580Y-21782820D01*
G75*
G02*
X57643080Y-21930320I-147500J0D01*
G01*
X57348080Y-21930320D01*
G75*
G02*
X57200580Y-21782820I0J147500D01*
G01*
X57200580Y-21437820D01*
G75*
G02*
X57348080Y-21290320I147500J0D01*
G01*
X57643080Y-21290320D01*
G75*
G02*
X57790580Y-21437820I0J-147500D01*
G01*
G37*
G36*
G01*
X58760580Y-21437820D02*
X58760580Y-21782820D01*
G75*
G02*
X58613080Y-21930320I-147500J0D01*
G01*
X58318080Y-21930320D01*
G75*
G02*
X58170580Y-21782820I0J147500D01*
G01*
X58170580Y-21437820D01*
G75*
G02*
X58318080Y-21290320I147500J0D01*
G01*
X58613080Y-21290320D01*
G75*
G02*
X58760580Y-21437820I0J-147500D01*
G01*
G37*
G36*
G01*
X53688480Y-19558220D02*
X53688480Y-19903220D01*
G75*
G02*
X53540980Y-20050720I-147500J0D01*
G01*
X53245980Y-20050720D01*
G75*
G02*
X53098480Y-19903220I0J147500D01*
G01*
X53098480Y-19558220D01*
G75*
G02*
X53245980Y-19410720I147500J0D01*
G01*
X53540980Y-19410720D01*
G75*
G02*
X53688480Y-19558220I0J-147500D01*
G01*
G37*
G36*
G01*
X54658480Y-19558220D02*
X54658480Y-19903220D01*
G75*
G02*
X54510980Y-20050720I-147500J0D01*
G01*
X54215980Y-20050720D01*
G75*
G02*
X54068480Y-19903220I0J147500D01*
G01*
X54068480Y-19558220D01*
G75*
G02*
X54215980Y-19410720I147500J0D01*
G01*
X54510980Y-19410720D01*
G75*
G02*
X54658480Y-19558220I0J-147500D01*
G01*
G37*
G36*
G01*
X58247780Y-19634420D02*
X58247780Y-19979420D01*
G75*
G02*
X58100280Y-20126920I-147500J0D01*
G01*
X57805280Y-20126920D01*
G75*
G02*
X57657780Y-19979420I0J147500D01*
G01*
X57657780Y-19634420D01*
G75*
G02*
X57805280Y-19486920I147500J0D01*
G01*
X58100280Y-19486920D01*
G75*
G02*
X58247780Y-19634420I0J-147500D01*
G01*
G37*
G36*
G01*
X59217780Y-19634420D02*
X59217780Y-19979420D01*
G75*
G02*
X59070280Y-20126920I-147500J0D01*
G01*
X58775280Y-20126920D01*
G75*
G02*
X58627780Y-19979420I0J147500D01*
G01*
X58627780Y-19634420D01*
G75*
G02*
X58775280Y-19486920I147500J0D01*
G01*
X59070280Y-19486920D01*
G75*
G02*
X59217780Y-19634420I0J-147500D01*
G01*
G37*
G36*
G01*
X56164980Y-19634420D02*
X56164980Y-19979420D01*
G75*
G02*
X56017480Y-20126920I-147500J0D01*
G01*
X55722480Y-20126920D01*
G75*
G02*
X55574980Y-19979420I0J147500D01*
G01*
X55574980Y-19634420D01*
G75*
G02*
X55722480Y-19486920I147500J0D01*
G01*
X56017480Y-19486920D01*
G75*
G02*
X56164980Y-19634420I0J-147500D01*
G01*
G37*
G36*
G01*
X57134980Y-19634420D02*
X57134980Y-19979420D01*
G75*
G02*
X56987480Y-20126920I-147500J0D01*
G01*
X56692480Y-20126920D01*
G75*
G02*
X56544980Y-19979420I0J147500D01*
G01*
X56544980Y-19634420D01*
G75*
G02*
X56692480Y-19486920I147500J0D01*
G01*
X56987480Y-19486920D01*
G75*
G02*
X57134980Y-19634420I0J-147500D01*
G01*
G37*
G36*
G01*
X33403955Y-41626020D02*
X33058955Y-41626020D01*
G75*
G02*
X32911455Y-41478520I0J147500D01*
G01*
X32911455Y-41183520D01*
G75*
G02*
X33058955Y-41036020I147500J0D01*
G01*
X33403955Y-41036020D01*
G75*
G02*
X33551455Y-41183520I0J-147500D01*
G01*
X33551455Y-41478520D01*
G75*
G02*
X33403955Y-41626020I-147500J0D01*
G01*
G37*
G36*
G01*
X33403955Y-42596020D02*
X33058955Y-42596020D01*
G75*
G02*
X32911455Y-42448520I0J147500D01*
G01*
X32911455Y-42153520D01*
G75*
G02*
X33058955Y-42006020I147500J0D01*
G01*
X33403955Y-42006020D01*
G75*
G02*
X33551455Y-42153520I0J-147500D01*
G01*
X33551455Y-42448520D01*
G75*
G02*
X33403955Y-42596020I-147500J0D01*
G01*
G37*
G36*
G01*
X34893030Y-41626020D02*
X34548030Y-41626020D01*
G75*
G02*
X34400530Y-41478520I0J147500D01*
G01*
X34400530Y-41183520D01*
G75*
G02*
X34548030Y-41036020I147500J0D01*
G01*
X34893030Y-41036020D01*
G75*
G02*
X35040530Y-41183520I0J-147500D01*
G01*
X35040530Y-41478520D01*
G75*
G02*
X34893030Y-41626020I-147500J0D01*
G01*
G37*
G36*
G01*
X34893030Y-42596020D02*
X34548030Y-42596020D01*
G75*
G02*
X34400530Y-42448520I0J147500D01*
G01*
X34400530Y-42153520D01*
G75*
G02*
X34548030Y-42006020I147500J0D01*
G01*
X34893030Y-42006020D01*
G75*
G02*
X35040530Y-42153520I0J-147500D01*
G01*
X35040530Y-42448520D01*
G75*
G02*
X34893030Y-42596020I-147500J0D01*
G01*
G37*
G36*
G01*
X46358180Y-19685220D02*
X46358180Y-20030220D01*
G75*
G02*
X46210680Y-20177720I-147500J0D01*
G01*
X45915680Y-20177720D01*
G75*
G02*
X45768180Y-20030220I0J147500D01*
G01*
X45768180Y-19685220D01*
G75*
G02*
X45915680Y-19537720I147500J0D01*
G01*
X46210680Y-19537720D01*
G75*
G02*
X46358180Y-19685220I0J-147500D01*
G01*
G37*
G36*
G01*
X47328180Y-19685220D02*
X47328180Y-20030220D01*
G75*
G02*
X47180680Y-20177720I-147500J0D01*
G01*
X46885680Y-20177720D01*
G75*
G02*
X46738180Y-20030220I0J147500D01*
G01*
X46738180Y-19685220D01*
G75*
G02*
X46885680Y-19537720I147500J0D01*
G01*
X47180680Y-19537720D01*
G75*
G02*
X47328180Y-19685220I0J-147500D01*
G01*
G37*
G36*
G01*
X46738180Y-13286520D02*
X46738180Y-12941520D01*
G75*
G02*
X46885680Y-12794020I147500J0D01*
G01*
X47180680Y-12794020D01*
G75*
G02*
X47328180Y-12941520I0J-147500D01*
G01*
X47328180Y-13286520D01*
G75*
G02*
X47180680Y-13434020I-147500J0D01*
G01*
X46885680Y-13434020D01*
G75*
G02*
X46738180Y-13286520I0J147500D01*
G01*
G37*
G36*
G01*
X45768180Y-13286520D02*
X45768180Y-12941520D01*
G75*
G02*
X45915680Y-12794020I147500J0D01*
G01*
X46210680Y-12794020D01*
G75*
G02*
X46358180Y-12941520I0J-147500D01*
G01*
X46358180Y-13286520D01*
G75*
G02*
X46210680Y-13434020I-147500J0D01*
G01*
X45915680Y-13434020D01*
G75*
G02*
X45768180Y-13286520I0J147500D01*
G01*
G37*
G36*
G01*
X60050180Y-38419820D02*
X60050180Y-38074820D01*
G75*
G02*
X60197680Y-37927320I147500J0D01*
G01*
X60492680Y-37927320D01*
G75*
G02*
X60640180Y-38074820I0J-147500D01*
G01*
X60640180Y-38419820D01*
G75*
G02*
X60492680Y-38567320I-147500J0D01*
G01*
X60197680Y-38567320D01*
G75*
G02*
X60050180Y-38419820I0J147500D01*
G01*
G37*
G36*
G01*
X59080180Y-38419820D02*
X59080180Y-38074820D01*
G75*
G02*
X59227680Y-37927320I147500J0D01*
G01*
X59522680Y-37927320D01*
G75*
G02*
X59670180Y-38074820I0J-147500D01*
G01*
X59670180Y-38419820D01*
G75*
G02*
X59522680Y-38567320I-147500J0D01*
G01*
X59227680Y-38567320D01*
G75*
G02*
X59080180Y-38419820I0J147500D01*
G01*
G37*
G36*
G01*
X27106380Y-69213086D02*
X27106380Y-68868086D01*
G75*
G02*
X27253880Y-68720586I147500J0D01*
G01*
X27548880Y-68720586D01*
G75*
G02*
X27696380Y-68868086I0J-147500D01*
G01*
X27696380Y-69213086D01*
G75*
G02*
X27548880Y-69360586I-147500J0D01*
G01*
X27253880Y-69360586D01*
G75*
G02*
X27106380Y-69213086I0J147500D01*
G01*
G37*
G36*
G01*
X26136380Y-69213086D02*
X26136380Y-68868086D01*
G75*
G02*
X26283880Y-68720586I147500J0D01*
G01*
X26578880Y-68720586D01*
G75*
G02*
X26726380Y-68868086I0J-147500D01*
G01*
X26726380Y-69213086D01*
G75*
G02*
X26578880Y-69360586I-147500J0D01*
G01*
X26283880Y-69360586D01*
G75*
G02*
X26136380Y-69213086I0J147500D01*
G01*
G37*
G36*
G01*
X27360380Y-71626084D02*
X27360380Y-71281084D01*
G75*
G02*
X27507880Y-71133584I147500J0D01*
G01*
X27802880Y-71133584D01*
G75*
G02*
X27950380Y-71281084I0J-147500D01*
G01*
X27950380Y-71626084D01*
G75*
G02*
X27802880Y-71773584I-147500J0D01*
G01*
X27507880Y-71773584D01*
G75*
G02*
X27360380Y-71626084I0J147500D01*
G01*
G37*
G36*
G01*
X26390380Y-71626084D02*
X26390380Y-71281084D01*
G75*
G02*
X26537880Y-71133584I147500J0D01*
G01*
X26832880Y-71133584D01*
G75*
G02*
X26980380Y-71281084I0J-147500D01*
G01*
X26980380Y-71626084D01*
G75*
G02*
X26832880Y-71773584I-147500J0D01*
G01*
X26537880Y-71773584D01*
G75*
G02*
X26390380Y-71626084I0J147500D01*
G01*
G37*
G36*
G01*
X27360380Y-72760620D02*
X27360380Y-72415620D01*
G75*
G02*
X27507880Y-72268120I147500J0D01*
G01*
X27802880Y-72268120D01*
G75*
G02*
X27950380Y-72415620I0J-147500D01*
G01*
X27950380Y-72760620D01*
G75*
G02*
X27802880Y-72908120I-147500J0D01*
G01*
X27507880Y-72908120D01*
G75*
G02*
X27360380Y-72760620I0J147500D01*
G01*
G37*
G36*
G01*
X26390380Y-72760620D02*
X26390380Y-72415620D01*
G75*
G02*
X26537880Y-72268120I147500J0D01*
G01*
X26832880Y-72268120D01*
G75*
G02*
X26980380Y-72415620I0J-147500D01*
G01*
X26980380Y-72760620D01*
G75*
G02*
X26832880Y-72908120I-147500J0D01*
G01*
X26537880Y-72908120D01*
G75*
G02*
X26390380Y-72760620I0J147500D01*
G01*
G37*
G36*
G01*
X17594360Y-66205600D02*
X17249360Y-66205600D01*
G75*
G02*
X17101860Y-66058100I0J147500D01*
G01*
X17101860Y-65763100D01*
G75*
G02*
X17249360Y-65615600I147500J0D01*
G01*
X17594360Y-65615600D01*
G75*
G02*
X17741860Y-65763100I0J-147500D01*
G01*
X17741860Y-66058100D01*
G75*
G02*
X17594360Y-66205600I-147500J0D01*
G01*
G37*
G36*
G01*
X17594360Y-67175600D02*
X17249360Y-67175600D01*
G75*
G02*
X17101860Y-67028100I0J147500D01*
G01*
X17101860Y-66733100D01*
G75*
G02*
X17249360Y-66585600I147500J0D01*
G01*
X17594360Y-66585600D01*
G75*
G02*
X17741860Y-66733100I0J-147500D01*
G01*
X17741860Y-67028100D01*
G75*
G02*
X17594360Y-67175600I-147500J0D01*
G01*
G37*
G36*
G01*
X22471600Y-80108560D02*
X22816600Y-80108560D01*
G75*
G02*
X22964100Y-80256060I0J-147500D01*
G01*
X22964100Y-80551060D01*
G75*
G02*
X22816600Y-80698560I-147500J0D01*
G01*
X22471600Y-80698560D01*
G75*
G02*
X22324100Y-80551060I0J147500D01*
G01*
X22324100Y-80256060D01*
G75*
G02*
X22471600Y-80108560I147500J0D01*
G01*
G37*
G36*
G01*
X22471600Y-79138560D02*
X22816600Y-79138560D01*
G75*
G02*
X22964100Y-79286060I0J-147500D01*
G01*
X22964100Y-79581060D01*
G75*
G02*
X22816600Y-79728560I-147500J0D01*
G01*
X22471600Y-79728560D01*
G75*
G02*
X22324100Y-79581060I0J147500D01*
G01*
X22324100Y-79286060D01*
G75*
G02*
X22471600Y-79138560I147500J0D01*
G01*
G37*
G36*
G01*
X46335180Y-68008720D02*
X46335180Y-68353720D01*
G75*
G02*
X46187680Y-68501220I-147500J0D01*
G01*
X45892680Y-68501220D01*
G75*
G02*
X45745180Y-68353720I0J147500D01*
G01*
X45745180Y-68008720D01*
G75*
G02*
X45892680Y-67861220I147500J0D01*
G01*
X46187680Y-67861220D01*
G75*
G02*
X46335180Y-68008720I0J-147500D01*
G01*
G37*
G36*
G01*
X47305180Y-68008720D02*
X47305180Y-68353720D01*
G75*
G02*
X47157680Y-68501220I-147500J0D01*
G01*
X46862680Y-68501220D01*
G75*
G02*
X46715180Y-68353720I0J147500D01*
G01*
X46715180Y-68008720D01*
G75*
G02*
X46862680Y-67861220I147500J0D01*
G01*
X47157680Y-67861220D01*
G75*
G02*
X47305180Y-68008720I0J-147500D01*
G01*
G37*
G36*
G01*
X14544540Y-62601060D02*
X14544540Y-62946060D01*
G75*
G02*
X14397040Y-63093560I-147500J0D01*
G01*
X14102040Y-63093560D01*
G75*
G02*
X13954540Y-62946060I0J147500D01*
G01*
X13954540Y-62601060D01*
G75*
G02*
X14102040Y-62453560I147500J0D01*
G01*
X14397040Y-62453560D01*
G75*
G02*
X14544540Y-62601060I0J-147500D01*
G01*
G37*
G36*
G01*
X15514540Y-62601060D02*
X15514540Y-62946060D01*
G75*
G02*
X15367040Y-63093560I-147500J0D01*
G01*
X15072040Y-63093560D01*
G75*
G02*
X14924540Y-62946060I0J147500D01*
G01*
X14924540Y-62601060D01*
G75*
G02*
X15072040Y-62453560I147500J0D01*
G01*
X15367040Y-62453560D01*
G75*
G02*
X15514540Y-62601060I0J-147500D01*
G01*
G37*
G36*
G01*
X46335180Y-69278720D02*
X46335180Y-69623720D01*
G75*
G02*
X46187680Y-69771220I-147500J0D01*
G01*
X45892680Y-69771220D01*
G75*
G02*
X45745180Y-69623720I0J147500D01*
G01*
X45745180Y-69278720D01*
G75*
G02*
X45892680Y-69131220I147500J0D01*
G01*
X46187680Y-69131220D01*
G75*
G02*
X46335180Y-69278720I0J-147500D01*
G01*
G37*
G36*
G01*
X47305180Y-69278720D02*
X47305180Y-69623720D01*
G75*
G02*
X47157680Y-69771220I-147500J0D01*
G01*
X46862680Y-69771220D01*
G75*
G02*
X46715180Y-69623720I0J147500D01*
G01*
X46715180Y-69278720D01*
G75*
G02*
X46862680Y-69131220I147500J0D01*
G01*
X47157680Y-69131220D01*
G75*
G02*
X47305180Y-69278720I0J-147500D01*
G01*
G37*
G36*
G01*
X44683180Y-40356570D02*
X44683180Y-40011570D01*
G75*
G02*
X44830680Y-39864070I147500J0D01*
G01*
X45125680Y-39864070D01*
G75*
G02*
X45273180Y-40011570I0J-147500D01*
G01*
X45273180Y-40356570D01*
G75*
G02*
X45125680Y-40504070I-147500J0D01*
G01*
X44830680Y-40504070D01*
G75*
G02*
X44683180Y-40356570I0J147500D01*
G01*
G37*
G36*
G01*
X43713180Y-40356570D02*
X43713180Y-40011570D01*
G75*
G02*
X43860680Y-39864070I147500J0D01*
G01*
X44155680Y-39864070D01*
G75*
G02*
X44303180Y-40011570I0J-147500D01*
G01*
X44303180Y-40356570D01*
G75*
G02*
X44155680Y-40504070I-147500J0D01*
G01*
X43860680Y-40504070D01*
G75*
G02*
X43713180Y-40356570I0J147500D01*
G01*
G37*
G36*
G01*
X48518580Y-34000220D02*
X48518580Y-33655220D01*
G75*
G02*
X48666080Y-33507720I147500J0D01*
G01*
X48961080Y-33507720D01*
G75*
G02*
X49108580Y-33655220I0J-147500D01*
G01*
X49108580Y-34000220D01*
G75*
G02*
X48961080Y-34147720I-147500J0D01*
G01*
X48666080Y-34147720D01*
G75*
G02*
X48518580Y-34000220I0J147500D01*
G01*
G37*
G36*
G01*
X47548580Y-34000220D02*
X47548580Y-33655220D01*
G75*
G02*
X47696080Y-33507720I147500J0D01*
G01*
X47991080Y-33507720D01*
G75*
G02*
X48138580Y-33655220I0J-147500D01*
G01*
X48138580Y-34000220D01*
G75*
G02*
X47991080Y-34147720I-147500J0D01*
G01*
X47696080Y-34147720D01*
G75*
G02*
X47548580Y-34000220I0J147500D01*
G01*
G37*
G36*
G01*
X56578280Y-32469320D02*
X56233280Y-32469320D01*
G75*
G02*
X56085780Y-32321820I0J147500D01*
G01*
X56085780Y-32026820D01*
G75*
G02*
X56233280Y-31879320I147500J0D01*
G01*
X56578280Y-31879320D01*
G75*
G02*
X56725780Y-32026820I0J-147500D01*
G01*
X56725780Y-32321820D01*
G75*
G02*
X56578280Y-32469320I-147500J0D01*
G01*
G37*
G36*
G01*
X56578280Y-33439320D02*
X56233280Y-33439320D01*
G75*
G02*
X56085780Y-33291820I0J147500D01*
G01*
X56085780Y-32996820D01*
G75*
G02*
X56233280Y-32849320I147500J0D01*
G01*
X56578280Y-32849320D01*
G75*
G02*
X56725780Y-32996820I0J-147500D01*
G01*
X56725780Y-33291820D01*
G75*
G02*
X56578280Y-33439320I-147500J0D01*
G01*
G37*
G36*
G01*
X44683180Y-41928195D02*
X44683180Y-41583195D01*
G75*
G02*
X44830680Y-41435695I147500J0D01*
G01*
X45125680Y-41435695D01*
G75*
G02*
X45273180Y-41583195I0J-147500D01*
G01*
X45273180Y-41928195D01*
G75*
G02*
X45125680Y-42075695I-147500J0D01*
G01*
X44830680Y-42075695D01*
G75*
G02*
X44683180Y-41928195I0J147500D01*
G01*
G37*
G36*
G01*
X43713180Y-41928195D02*
X43713180Y-41583195D01*
G75*
G02*
X43860680Y-41435695I147500J0D01*
G01*
X44155680Y-41435695D01*
G75*
G02*
X44303180Y-41583195I0J-147500D01*
G01*
X44303180Y-41928195D01*
G75*
G02*
X44155680Y-42075695I-147500J0D01*
G01*
X43860680Y-42075695D01*
G75*
G02*
X43713180Y-41928195I0J147500D01*
G01*
G37*
G36*
G01*
X44683180Y-38784945D02*
X44683180Y-38439945D01*
G75*
G02*
X44830680Y-38292445I147500J0D01*
G01*
X45125680Y-38292445D01*
G75*
G02*
X45273180Y-38439945I0J-147500D01*
G01*
X45273180Y-38784945D01*
G75*
G02*
X45125680Y-38932445I-147500J0D01*
G01*
X44830680Y-38932445D01*
G75*
G02*
X44683180Y-38784945I0J147500D01*
G01*
G37*
G36*
G01*
X43713180Y-38784945D02*
X43713180Y-38439945D01*
G75*
G02*
X43860680Y-38292445I147500J0D01*
G01*
X44155680Y-38292445D01*
G75*
G02*
X44303180Y-38439945I0J-147500D01*
G01*
X44303180Y-38784945D01*
G75*
G02*
X44155680Y-38932445I-147500J0D01*
G01*
X43860680Y-38932445D01*
G75*
G02*
X43713180Y-38784945I0J147500D01*
G01*
G37*
G36*
G01*
X46358180Y-17894520D02*
X46358180Y-18239520D01*
G75*
G02*
X46210680Y-18387020I-147500J0D01*
G01*
X45915680Y-18387020D01*
G75*
G02*
X45768180Y-18239520I0J147500D01*
G01*
X45768180Y-17894520D01*
G75*
G02*
X45915680Y-17747020I147500J0D01*
G01*
X46210680Y-17747020D01*
G75*
G02*
X46358180Y-17894520I0J-147500D01*
G01*
G37*
G36*
G01*
X47328180Y-17894520D02*
X47328180Y-18239520D01*
G75*
G02*
X47180680Y-18387020I-147500J0D01*
G01*
X46885680Y-18387020D01*
G75*
G02*
X46738180Y-18239520I0J147500D01*
G01*
X46738180Y-17894520D01*
G75*
G02*
X46885680Y-17747020I147500J0D01*
G01*
X47180680Y-17747020D01*
G75*
G02*
X47328180Y-17894520I0J-147500D01*
G01*
G37*
G36*
G01*
X66151380Y-28071120D02*
X68651380Y-28071120D01*
G75*
G02*
X68901380Y-28321120I0J-250000D01*
G01*
X68901380Y-29421120D01*
G75*
G02*
X68651380Y-29671120I-250000J0D01*
G01*
X66151380Y-29671120D01*
G75*
G02*
X65901380Y-29421120I0J250000D01*
G01*
X65901380Y-28321120D01*
G75*
G02*
X66151380Y-28071120I250000J0D01*
G01*
G37*
G36*
G01*
X66151380Y-21271120D02*
X68651380Y-21271120D01*
G75*
G02*
X68901380Y-21521120I0J-250000D01*
G01*
X68901380Y-22621120D01*
G75*
G02*
X68651380Y-22871120I-250000J0D01*
G01*
X66151380Y-22871120D01*
G75*
G02*
X65901380Y-22621120I0J250000D01*
G01*
X65901380Y-21521120D01*
G75*
G02*
X66151380Y-21271120I250000J0D01*
G01*
G37*
G36*
G01*
X62651380Y-25971120D02*
X67651380Y-25971120D01*
G75*
G02*
X67901380Y-26221120I0J-250000D01*
G01*
X67901380Y-26721120D01*
G75*
G02*
X67651380Y-26971120I-250000J0D01*
G01*
X62651380Y-26971120D01*
G75*
G02*
X62401380Y-26721120I0J250000D01*
G01*
X62401380Y-26221120D01*
G75*
G02*
X62651380Y-25971120I250000J0D01*
G01*
G37*
G36*
G01*
X62651380Y-23971120D02*
X67651380Y-23971120D01*
G75*
G02*
X67901380Y-24221120I0J-250000D01*
G01*
X67901380Y-24721120D01*
G75*
G02*
X67651380Y-24971120I-250000J0D01*
G01*
X62651380Y-24971120D01*
G75*
G02*
X62401380Y-24721120I0J250000D01*
G01*
X62401380Y-24221120D01*
G75*
G02*
X62651380Y-23971120I250000J0D01*
G01*
G37*
D25*
G36*
X50536922Y-26868120D02*
G01*
X53967380Y-23437662D01*
X57397838Y-26868120D01*
X53967380Y-30298578D01*
X50536922Y-26868120D01*
G37*
G36*
X54139348Y-22945092D02*
G01*
X54821848Y-22262592D01*
X55037374Y-22478118D01*
X54354874Y-23160618D01*
X54139348Y-22945092D01*
G37*
G36*
X54492901Y-23298645D02*
G01*
X55175401Y-22616145D01*
X55390927Y-22831671D01*
X54708427Y-23514171D01*
X54492901Y-23298645D01*
G37*
G36*
X54846455Y-23652199D02*
G01*
X55528955Y-22969699D01*
X55744481Y-23185225D01*
X55061981Y-23867725D01*
X54846455Y-23652199D01*
G37*
G36*
X55200008Y-24005751D02*
G01*
X55882508Y-23323251D01*
X56098034Y-23538777D01*
X55415534Y-24221277D01*
X55200008Y-24005751D01*
G37*
G36*
X55553562Y-24359306D02*
G01*
X56236062Y-23676806D01*
X56451588Y-23892332D01*
X55769088Y-24574832D01*
X55553562Y-24359306D01*
G37*
G36*
X55907115Y-24712859D02*
G01*
X56589615Y-24030359D01*
X56805141Y-24245885D01*
X56122641Y-24928385D01*
X55907115Y-24712859D01*
G37*
G36*
X56260668Y-25066412D02*
G01*
X56943168Y-24383912D01*
X57158694Y-24599438D01*
X56476194Y-25281938D01*
X56260668Y-25066412D01*
G37*
G36*
X56614223Y-25419966D02*
G01*
X57296723Y-24737466D01*
X57512249Y-24952992D01*
X56829749Y-25635492D01*
X56614223Y-25419966D01*
G37*
G36*
X56967775Y-25773519D02*
G01*
X57650275Y-25091019D01*
X57865801Y-25306545D01*
X57183301Y-25989045D01*
X56967775Y-25773519D01*
G37*
G36*
X57321329Y-26127073D02*
G01*
X58003829Y-25444573D01*
X58219355Y-25660099D01*
X57536855Y-26342599D01*
X57321329Y-26127073D01*
G37*
G36*
X57674882Y-26480626D02*
G01*
X58357382Y-25798126D01*
X58572908Y-26013652D01*
X57890408Y-26696152D01*
X57674882Y-26480626D01*
G37*
G36*
X58357382Y-27938114D02*
G01*
X57674882Y-27255614D01*
X57890408Y-27040088D01*
X58572908Y-27722588D01*
X58357382Y-27938114D01*
G37*
G36*
X58003829Y-28291667D02*
G01*
X57321329Y-27609167D01*
X57536855Y-27393641D01*
X58219355Y-28076141D01*
X58003829Y-28291667D01*
G37*
G36*
X57650275Y-28645221D02*
G01*
X56967775Y-27962721D01*
X57183301Y-27747195D01*
X57865801Y-28429695D01*
X57650275Y-28645221D01*
G37*
G36*
X57296723Y-28998774D02*
G01*
X56614223Y-28316274D01*
X56829749Y-28100748D01*
X57512249Y-28783248D01*
X57296723Y-28998774D01*
G37*
G36*
X56943168Y-29352328D02*
G01*
X56260668Y-28669828D01*
X56476194Y-28454302D01*
X57158694Y-29136802D01*
X56943168Y-29352328D01*
G37*
G36*
X56589615Y-29705881D02*
G01*
X55907115Y-29023381D01*
X56122641Y-28807855D01*
X56805141Y-29490355D01*
X56589615Y-29705881D01*
G37*
G36*
X56236062Y-30059434D02*
G01*
X55553562Y-29376934D01*
X55769088Y-29161408D01*
X56451588Y-29843908D01*
X56236062Y-30059434D01*
G37*
G36*
X55882508Y-30412989D02*
G01*
X55200008Y-29730489D01*
X55415534Y-29514963D01*
X56098034Y-30197463D01*
X55882508Y-30412989D01*
G37*
G36*
X55528955Y-30766541D02*
G01*
X54846455Y-30084041D01*
X55061981Y-29868515D01*
X55744481Y-30551015D01*
X55528955Y-30766541D01*
G37*
G36*
X55175401Y-31120095D02*
G01*
X54492901Y-30437595D01*
X54708427Y-30222069D01*
X55390927Y-30904569D01*
X55175401Y-31120095D01*
G37*
G36*
X54821848Y-31473648D02*
G01*
X54139348Y-30791148D01*
X54354874Y-30575622D01*
X55037374Y-31258122D01*
X54821848Y-31473648D01*
G37*
G36*
X52897386Y-31258122D02*
G01*
X53579886Y-30575622D01*
X53795412Y-30791148D01*
X53112912Y-31473648D01*
X52897386Y-31258122D01*
G37*
G36*
X52543833Y-30904569D02*
G01*
X53226333Y-30222069D01*
X53441859Y-30437595D01*
X52759359Y-31120095D01*
X52543833Y-30904569D01*
G37*
G36*
X52190279Y-30551015D02*
G01*
X52872779Y-29868515D01*
X53088305Y-30084041D01*
X52405805Y-30766541D01*
X52190279Y-30551015D01*
G37*
G36*
X51836726Y-30197463D02*
G01*
X52519226Y-29514963D01*
X52734752Y-29730489D01*
X52052252Y-30412989D01*
X51836726Y-30197463D01*
G37*
G36*
X51483172Y-29843908D02*
G01*
X52165672Y-29161408D01*
X52381198Y-29376934D01*
X51698698Y-30059434D01*
X51483172Y-29843908D01*
G37*
G36*
X51129619Y-29490355D02*
G01*
X51812119Y-28807855D01*
X52027645Y-29023381D01*
X51345145Y-29705881D01*
X51129619Y-29490355D01*
G37*
G36*
X50776066Y-29136802D02*
G01*
X51458566Y-28454302D01*
X51674092Y-28669828D01*
X50991592Y-29352328D01*
X50776066Y-29136802D01*
G37*
G36*
X50422511Y-28783248D02*
G01*
X51105011Y-28100748D01*
X51320537Y-28316274D01*
X50638037Y-28998774D01*
X50422511Y-28783248D01*
G37*
G36*
X50068959Y-28429695D02*
G01*
X50751459Y-27747195D01*
X50966985Y-27962721D01*
X50284485Y-28645221D01*
X50068959Y-28429695D01*
G37*
G36*
X49715405Y-28076141D02*
G01*
X50397905Y-27393641D01*
X50613431Y-27609167D01*
X49930931Y-28291667D01*
X49715405Y-28076141D01*
G37*
G36*
X49361852Y-27722588D02*
G01*
X50044352Y-27040088D01*
X50259878Y-27255614D01*
X49577378Y-27938114D01*
X49361852Y-27722588D01*
G37*
G36*
X50044352Y-26696152D02*
G01*
X49361852Y-26013652D01*
X49577378Y-25798126D01*
X50259878Y-26480626D01*
X50044352Y-26696152D01*
G37*
G36*
X50397905Y-26342599D02*
G01*
X49715405Y-25660099D01*
X49930931Y-25444573D01*
X50613431Y-26127073D01*
X50397905Y-26342599D01*
G37*
G36*
X50751459Y-25989045D02*
G01*
X50068959Y-25306545D01*
X50284485Y-25091019D01*
X50966985Y-25773519D01*
X50751459Y-25989045D01*
G37*
G36*
X51105011Y-25635492D02*
G01*
X50422511Y-24952992D01*
X50638037Y-24737466D01*
X51320537Y-25419966D01*
X51105011Y-25635492D01*
G37*
G36*
X51458566Y-25281938D02*
G01*
X50776066Y-24599438D01*
X50991592Y-24383912D01*
X51674092Y-25066412D01*
X51458566Y-25281938D01*
G37*
G36*
X51812119Y-24928385D02*
G01*
X51129619Y-24245885D01*
X51345145Y-24030359D01*
X52027645Y-24712859D01*
X51812119Y-24928385D01*
G37*
G36*
X52165672Y-24574832D02*
G01*
X51483172Y-23892332D01*
X51698698Y-23676806D01*
X52381198Y-24359306D01*
X52165672Y-24574832D01*
G37*
G36*
X52519226Y-24221277D02*
G01*
X51836726Y-23538777D01*
X52052252Y-23323251D01*
X52734752Y-24005751D01*
X52519226Y-24221277D01*
G37*
G36*
X52872779Y-23867725D02*
G01*
X52190279Y-23185225D01*
X52405805Y-22969699D01*
X53088305Y-23652199D01*
X52872779Y-23867725D01*
G37*
G36*
X53226333Y-23514171D02*
G01*
X52543833Y-22831671D01*
X52759359Y-22616145D01*
X53441859Y-23298645D01*
X53226333Y-23514171D01*
G37*
G36*
X53579886Y-23160618D02*
G01*
X52897386Y-22478118D01*
X53112912Y-22262592D01*
X53795412Y-22945092D01*
X53579886Y-23160618D01*
G37*
G36*
G01*
X66151380Y-18419120D02*
X68651380Y-18419120D01*
G75*
G02*
X68901380Y-18669120I0J-250000D01*
G01*
X68901380Y-19769120D01*
G75*
G02*
X68651380Y-20019120I-250000J0D01*
G01*
X66151380Y-20019120D01*
G75*
G02*
X65901380Y-19769120I0J250000D01*
G01*
X65901380Y-18669120D01*
G75*
G02*
X66151380Y-18419120I250000J0D01*
G01*
G37*
G36*
G01*
X66151380Y-11619120D02*
X68651380Y-11619120D01*
G75*
G02*
X68901380Y-11869120I0J-250000D01*
G01*
X68901380Y-12969120D01*
G75*
G02*
X68651380Y-13219120I-250000J0D01*
G01*
X66151380Y-13219120D01*
G75*
G02*
X65901380Y-12969120I0J250000D01*
G01*
X65901380Y-11869120D01*
G75*
G02*
X66151380Y-11619120I250000J0D01*
G01*
G37*
G36*
G01*
X62651380Y-16319120D02*
X67651380Y-16319120D01*
G75*
G02*
X67901380Y-16569120I0J-250000D01*
G01*
X67901380Y-17069120D01*
G75*
G02*
X67651380Y-17319120I-250000J0D01*
G01*
X62651380Y-17319120D01*
G75*
G02*
X62401380Y-17069120I0J250000D01*
G01*
X62401380Y-16569120D01*
G75*
G02*
X62651380Y-16319120I250000J0D01*
G01*
G37*
G36*
G01*
X62651380Y-14319120D02*
X67651380Y-14319120D01*
G75*
G02*
X67901380Y-14569120I0J-250000D01*
G01*
X67901380Y-15069120D01*
G75*
G02*
X67651380Y-15319120I-250000J0D01*
G01*
X62651380Y-15319120D01*
G75*
G02*
X62401380Y-15069120I0J250000D01*
G01*
X62401380Y-14569120D01*
G75*
G02*
X62651380Y-14319120I250000J0D01*
G01*
G37*
D26*
X58428380Y-80589120D03*
X60428380Y-79639120D03*
X60428380Y-81539120D03*
D27*
X49640180Y-74531220D03*
X49640180Y-73896220D03*
X49640180Y-73261220D03*
X49640180Y-72626220D03*
X49640180Y-71991220D03*
X49640180Y-71356220D03*
X49640180Y-70721220D03*
X49640180Y-70086220D03*
X49640180Y-69451220D03*
X49640180Y-68816220D03*
X49640180Y-68181220D03*
X49640180Y-67546220D03*
X49640180Y-66911220D03*
X49640180Y-66276220D03*
X54840180Y-66276220D03*
X54840180Y-66911220D03*
X54840180Y-67546220D03*
X54840180Y-68181220D03*
X54840180Y-68816220D03*
X54840180Y-69451220D03*
X54840180Y-70086220D03*
X54840180Y-70721220D03*
X54840180Y-71356220D03*
X54840180Y-71991220D03*
X54840180Y-72626220D03*
X54840180Y-73261220D03*
X54840180Y-73896220D03*
X54840180Y-74531220D03*
D28*
X56664900Y-39922740D03*
X54764900Y-39922740D03*
X55714900Y-42022740D03*
D29*
X16736060Y-30462400D03*
X16736060Y-28262400D03*
M02*
