G04 #@! TF.GenerationSoftware,KiCad,Pcbnew,(5.1.6)-1*
G04 #@! TF.CreationDate,2020-07-15T11:21:39-07:00*
G04 #@! TF.ProjectId,Mycroft - Mark 2,4d796372-6f66-4742-902d-204d61726b20,rev?*
G04 #@! TF.SameCoordinates,Original*
G04 #@! TF.FileFunction,Legend,Bot*
G04 #@! TF.FilePolarity,Positive*
%FSLAX46Y46*%
G04 Gerber Fmt 4.6, Leading zero omitted, Abs format (unit mm)*
G04 Created by KiCad (PCBNEW (5.1.6)-1) date 2020-07-15 11:21:39*
%MOMM*%
%LPD*%
G01*
G04 APERTURE LIST*
%ADD10C,0.100000*%
%ADD11C,0.300000*%
%ADD12C,0.010000*%
%ADD13C,0.120000*%
%ADD14C,0.150000*%
%ADD15C,0.050000*%
G04 APERTURE END LIST*
D10*
G36*
X66107945Y-17560290D02*
G01*
X66009520Y-37581840D01*
X61008260Y-37602160D01*
X61176535Y-17552670D01*
X66107945Y-17560290D01*
G37*
X66107945Y-17560290D02*
X66009520Y-37581840D01*
X61008260Y-37602160D01*
X61176535Y-17552670D01*
X66107945Y-17560290D01*
D11*
X69562508Y-37364977D02*
X71062508Y-37364977D01*
X69991080Y-36864977D01*
X71062508Y-36364977D01*
X69562508Y-36364977D01*
X70562508Y-35793548D02*
X69562508Y-35436405D01*
X70562508Y-35079262D02*
X69562508Y-35436405D01*
X69205365Y-35579262D01*
X69133937Y-35650691D01*
X69062508Y-35793548D01*
X69633937Y-33864977D02*
X69562508Y-34007834D01*
X69562508Y-34293548D01*
X69633937Y-34436405D01*
X69705365Y-34507834D01*
X69848222Y-34579262D01*
X70276794Y-34579262D01*
X70419651Y-34507834D01*
X70491080Y-34436405D01*
X70562508Y-34293548D01*
X70562508Y-34007834D01*
X70491080Y-33864977D01*
X69562508Y-33222120D02*
X70562508Y-33222120D01*
X70276794Y-33222120D02*
X70419651Y-33150691D01*
X70491080Y-33079262D01*
X70562508Y-32936405D01*
X70562508Y-32793548D01*
X69562508Y-32079262D02*
X69633937Y-32222120D01*
X69705365Y-32293548D01*
X69848222Y-32364977D01*
X70276794Y-32364977D01*
X70419651Y-32293548D01*
X70491080Y-32222120D01*
X70562508Y-32079262D01*
X70562508Y-31864977D01*
X70491080Y-31722120D01*
X70419651Y-31650691D01*
X70276794Y-31579262D01*
X69848222Y-31579262D01*
X69705365Y-31650691D01*
X69633937Y-31722120D01*
X69562508Y-31864977D01*
X69562508Y-32079262D01*
X70562508Y-31150691D02*
X70562508Y-30579262D01*
X69562508Y-30936405D02*
X70848222Y-30936405D01*
X70991080Y-30864977D01*
X71062508Y-30722120D01*
X71062508Y-30579262D01*
X70562508Y-30293548D02*
X70562508Y-29722120D01*
X71062508Y-30079262D02*
X69776794Y-30079262D01*
X69633937Y-30007834D01*
X69562508Y-29864977D01*
X69562508Y-29722120D01*
X69562508Y-28079262D02*
X71062508Y-28079262D01*
X69991080Y-27579262D01*
X71062508Y-27079262D01*
X69562508Y-27079262D01*
X69562508Y-26364977D02*
X71062508Y-26364977D01*
X69562508Y-25507834D02*
X70419651Y-26150691D01*
X71062508Y-25507834D02*
X70205365Y-26364977D01*
X70919651Y-24936405D02*
X70991080Y-24864977D01*
X71062508Y-24722120D01*
X71062508Y-24364977D01*
X70991080Y-24222120D01*
X70919651Y-24150691D01*
X70776794Y-24079262D01*
X70633937Y-24079262D01*
X70419651Y-24150691D01*
X69562508Y-25007834D01*
X69562508Y-24079262D01*
X70562508Y-22436405D02*
X69562508Y-22079262D01*
X70562508Y-21722120D01*
X71062508Y-20864977D02*
X71062508Y-20722120D01*
X70991080Y-20579262D01*
X70919651Y-20507834D01*
X70776794Y-20436405D01*
X70491080Y-20364977D01*
X70133937Y-20364977D01*
X69848222Y-20436405D01*
X69705365Y-20507834D01*
X69633937Y-20579262D01*
X69562508Y-20722120D01*
X69562508Y-20864977D01*
X69633937Y-21007834D01*
X69705365Y-21079262D01*
X69848222Y-21150691D01*
X70133937Y-21222120D01*
X70491080Y-21222120D01*
X70776794Y-21150691D01*
X70919651Y-21079262D01*
X70991080Y-21007834D01*
X71062508Y-20864977D01*
X69705365Y-19722120D02*
X69633937Y-19650691D01*
X69562508Y-19722120D01*
X69633937Y-19793548D01*
X69705365Y-19722120D01*
X69562508Y-19722120D01*
X71062508Y-18364977D02*
X71062508Y-18650691D01*
X70991080Y-18793548D01*
X70919651Y-18864977D01*
X70705365Y-19007834D01*
X70419651Y-19079262D01*
X69848222Y-19079262D01*
X69705365Y-19007834D01*
X69633937Y-18936405D01*
X69562508Y-18793548D01*
X69562508Y-18507834D01*
X69633937Y-18364977D01*
X69705365Y-18293548D01*
X69848222Y-18222120D01*
X70205365Y-18222120D01*
X70348222Y-18293548D01*
X70419651Y-18364977D01*
X70491080Y-18507834D01*
X70491080Y-18793548D01*
X70419651Y-18936405D01*
X70348222Y-19007834D01*
X70205365Y-19079262D01*
X71062508Y-17293548D02*
X71062508Y-17150691D01*
X70991080Y-17007834D01*
X70919651Y-16936405D01*
X70776794Y-16864977D01*
X70491080Y-16793548D01*
X70133937Y-16793548D01*
X69848222Y-16864977D01*
X69705365Y-16936405D01*
X69633937Y-17007834D01*
X69562508Y-17150691D01*
X69562508Y-17293548D01*
X69633937Y-17436405D01*
X69705365Y-17507834D01*
X69848222Y-17579262D01*
X70133937Y-17650691D01*
X70491080Y-17650691D01*
X70776794Y-17579262D01*
X70919651Y-17507834D01*
X70991080Y-17436405D01*
X71062508Y-17293548D01*
X67083937Y-37436405D02*
X67012508Y-37222120D01*
X67012508Y-36864977D01*
X67083937Y-36722120D01*
X67155365Y-36650691D01*
X67298222Y-36579262D01*
X67441080Y-36579262D01*
X67583937Y-36650691D01*
X67655365Y-36722120D01*
X67726794Y-36864977D01*
X67798222Y-37150691D01*
X67869651Y-37293548D01*
X67941080Y-37364977D01*
X68083937Y-37436405D01*
X68226794Y-37436405D01*
X68369651Y-37364977D01*
X68441080Y-37293548D01*
X68512508Y-37150691D01*
X68512508Y-36793548D01*
X68441080Y-36579262D01*
X68512508Y-35507834D02*
X67441080Y-35507834D01*
X67226794Y-35579262D01*
X67083937Y-35722120D01*
X67012508Y-35936405D01*
X67012508Y-36079262D01*
X68369651Y-34864977D02*
X68441080Y-34793548D01*
X68512508Y-34650691D01*
X68512508Y-34293548D01*
X68441080Y-34150691D01*
X68369651Y-34079262D01*
X68226794Y-34007834D01*
X68083937Y-34007834D01*
X67869651Y-34079262D01*
X67012508Y-34936405D01*
X67012508Y-34007834D01*
X68512508Y-33079262D02*
X68512508Y-32936405D01*
X68441080Y-32793548D01*
X68369651Y-32722120D01*
X68226794Y-32650691D01*
X67941080Y-32579262D01*
X67583937Y-32579262D01*
X67298222Y-32650691D01*
X67155365Y-32722120D01*
X67083937Y-32793548D01*
X67012508Y-32936405D01*
X67012508Y-33079262D01*
X67083937Y-33222120D01*
X67155365Y-33293548D01*
X67298222Y-33364977D01*
X67583937Y-33436405D01*
X67941080Y-33436405D01*
X68226794Y-33364977D01*
X68369651Y-33293548D01*
X68441080Y-33222120D01*
X68512508Y-33079262D01*
X67012508Y-31150691D02*
X67012508Y-32007834D01*
X67012508Y-31579262D02*
X68512508Y-31579262D01*
X68298222Y-31722120D01*
X68155365Y-31864977D01*
X68083937Y-32007834D01*
X67583937Y-30507834D02*
X67583937Y-29364977D01*
X68512508Y-28364977D02*
X68512508Y-28222120D01*
X68441080Y-28079262D01*
X68369651Y-28007834D01*
X68226794Y-27936405D01*
X67941080Y-27864977D01*
X67583937Y-27864977D01*
X67298222Y-27936405D01*
X67155365Y-28007834D01*
X67083937Y-28079262D01*
X67012508Y-28222120D01*
X67012508Y-28364977D01*
X67083937Y-28507834D01*
X67155365Y-28579262D01*
X67298222Y-28650691D01*
X67583937Y-28722120D01*
X67941080Y-28722120D01*
X68226794Y-28650691D01*
X68369651Y-28579262D01*
X68441080Y-28507834D01*
X68512508Y-28364977D01*
X67012508Y-26436405D02*
X67012508Y-27293548D01*
X67012508Y-26864977D02*
X68512508Y-26864977D01*
X68298222Y-27007834D01*
X68155365Y-27150691D01*
X68083937Y-27293548D01*
X67583937Y-25793548D02*
X67583937Y-24650691D01*
X68512508Y-23650691D02*
X68512508Y-23507834D01*
X68441080Y-23364977D01*
X68369651Y-23293548D01*
X68226794Y-23222120D01*
X67941080Y-23150691D01*
X67583937Y-23150691D01*
X67298222Y-23222120D01*
X67155365Y-23293548D01*
X67083937Y-23364977D01*
X67012508Y-23507834D01*
X67012508Y-23650691D01*
X67083937Y-23793548D01*
X67155365Y-23864977D01*
X67298222Y-23936405D01*
X67583937Y-24007834D01*
X67941080Y-24007834D01*
X68226794Y-23936405D01*
X68369651Y-23864977D01*
X68441080Y-23793548D01*
X68512508Y-23650691D01*
X67012508Y-21722120D02*
X67012508Y-22579262D01*
X67012508Y-22150691D02*
X68512508Y-22150691D01*
X68298222Y-22293548D01*
X68155365Y-22436405D01*
X68083937Y-22579262D01*
D12*
G36*
X58402677Y-52082401D02*
G01*
X58351045Y-52070189D01*
X58256303Y-52060611D01*
X58111338Y-52053400D01*
X57909042Y-52048292D01*
X57642305Y-52045020D01*
X57304014Y-52043317D01*
X56957807Y-52042906D01*
X55497307Y-52042906D01*
X55500946Y-52201656D01*
X55512290Y-52339513D01*
X55534925Y-52459519D01*
X55536894Y-52466240D01*
X55669890Y-52762784D01*
X55870566Y-53025959D01*
X56124740Y-53244007D01*
X56418230Y-53405168D01*
X56736854Y-53497684D01*
X56790293Y-53505465D01*
X57090338Y-53503095D01*
X57395993Y-53429819D01*
X57686604Y-53295219D01*
X57941516Y-53108880D01*
X58140072Y-52880383D01*
X58141167Y-52878730D01*
X58225984Y-52724794D01*
X58306449Y-52535587D01*
X58371833Y-52341351D01*
X58411407Y-52172326D01*
X58418307Y-52097512D01*
X58402677Y-52082401D01*
G37*
X58402677Y-52082401D02*
X58351045Y-52070189D01*
X58256303Y-52060611D01*
X58111338Y-52053400D01*
X57909042Y-52048292D01*
X57642305Y-52045020D01*
X57304014Y-52043317D01*
X56957807Y-52042906D01*
X55497307Y-52042906D01*
X55500946Y-52201656D01*
X55512290Y-52339513D01*
X55534925Y-52459519D01*
X55536894Y-52466240D01*
X55669890Y-52762784D01*
X55870566Y-53025959D01*
X56124740Y-53244007D01*
X56418230Y-53405168D01*
X56736854Y-53497684D01*
X56790293Y-53505465D01*
X57090338Y-53503095D01*
X57395993Y-53429819D01*
X57686604Y-53295219D01*
X57941516Y-53108880D01*
X58140072Y-52880383D01*
X58141167Y-52878730D01*
X58225984Y-52724794D01*
X58306449Y-52535587D01*
X58371833Y-52341351D01*
X58411407Y-52172326D01*
X58418307Y-52097512D01*
X58402677Y-52082401D01*
G36*
X60729349Y-51803908D02*
G01*
X60613186Y-51665781D01*
X60499505Y-51594457D01*
X60313606Y-51546373D01*
X60136126Y-51569741D01*
X59980671Y-51651808D01*
X59860849Y-51779824D01*
X59790268Y-51941036D01*
X59782534Y-52122693D01*
X59813989Y-52236859D01*
X59902738Y-52366748D01*
X60039840Y-52475890D01*
X60192592Y-52541520D01*
X60265157Y-52550906D01*
X60461013Y-52516726D01*
X60614738Y-52424928D01*
X60722383Y-52291630D01*
X60779999Y-52132950D01*
X60783637Y-51965003D01*
X60729349Y-51803908D01*
G37*
X60729349Y-51803908D02*
X60613186Y-51665781D01*
X60499505Y-51594457D01*
X60313606Y-51546373D01*
X60136126Y-51569741D01*
X59980671Y-51651808D01*
X59860849Y-51779824D01*
X59790268Y-51941036D01*
X59782534Y-52122693D01*
X59813989Y-52236859D01*
X59902738Y-52366748D01*
X60039840Y-52475890D01*
X60192592Y-52541520D01*
X60265157Y-52550906D01*
X60461013Y-52516726D01*
X60614738Y-52424928D01*
X60722383Y-52291630D01*
X60779999Y-52132950D01*
X60783637Y-51965003D01*
X60729349Y-51803908D01*
G36*
X59292576Y-32198110D02*
G01*
X59211560Y-32071067D01*
X59209329Y-32068952D01*
X59111350Y-31976906D01*
X54741452Y-31976906D01*
X54653713Y-32088449D01*
X54592509Y-32187145D01*
X54566004Y-32271288D01*
X54565974Y-32273240D01*
X54590994Y-32356144D01*
X54651421Y-32455092D01*
X54653713Y-32458031D01*
X54741452Y-32569573D01*
X59123215Y-32569573D01*
X59215261Y-32471595D01*
X59293892Y-32337243D01*
X59292576Y-32198110D01*
G37*
X59292576Y-32198110D02*
X59211560Y-32071067D01*
X59209329Y-32068952D01*
X59111350Y-31976906D01*
X54741452Y-31976906D01*
X54653713Y-32088449D01*
X54592509Y-32187145D01*
X54566004Y-32271288D01*
X54565974Y-32273240D01*
X54590994Y-32356144D01*
X54651421Y-32455092D01*
X54653713Y-32458031D01*
X54741452Y-32569573D01*
X59123215Y-32569573D01*
X59215261Y-32471595D01*
X59293892Y-32337243D01*
X59292576Y-32198110D01*
G36*
X59239888Y-35510586D02*
G01*
X59212057Y-35476094D01*
X59159533Y-35439244D01*
X59050460Y-35383060D01*
X58881551Y-35306169D01*
X58649514Y-35207197D01*
X58351061Y-35084773D01*
X57982903Y-34937523D01*
X57541749Y-34764074D01*
X57025638Y-34563567D01*
X56624204Y-34408990D01*
X56244641Y-34264102D01*
X55894628Y-34131749D01*
X55581849Y-34014776D01*
X55313984Y-33916027D01*
X55098716Y-33838349D01*
X54943727Y-33784586D01*
X54856699Y-33757583D01*
X54842267Y-33754906D01*
X54738385Y-33790291D01*
X54639451Y-33876236D01*
X54575475Y-33982432D01*
X54565974Y-34033966D01*
X54576653Y-34110612D01*
X54615154Y-34179650D01*
X54691171Y-34247388D01*
X54814399Y-34320135D01*
X54994533Y-34404199D01*
X55241269Y-34505888D01*
X55367557Y-34555553D01*
X56047640Y-34820575D01*
X56047640Y-36663917D01*
X55402057Y-36908680D01*
X55094774Y-37030501D01*
X54863474Y-37136191D01*
X54702231Y-37231051D01*
X54605118Y-37320384D01*
X54566211Y-37409493D01*
X54579583Y-37503679D01*
X54631874Y-37597820D01*
X54731604Y-37675776D01*
X54835083Y-37691906D01*
X54901448Y-37676765D01*
X55039154Y-37633132D01*
X55240825Y-37563694D01*
X55499084Y-37471140D01*
X55806557Y-37358154D01*
X56155866Y-37227426D01*
X56539636Y-37081641D01*
X56608557Y-37055111D01*
X56608557Y-36453326D01*
X56588487Y-36442337D01*
X56573855Y-36385982D01*
X56563981Y-36275237D01*
X56558188Y-36101077D01*
X56555798Y-35854478D01*
X56555640Y-35749102D01*
X56558061Y-35447168D01*
X56565410Y-35227721D01*
X56577815Y-35088716D01*
X56595407Y-35028110D01*
X56601507Y-35024906D01*
X56653275Y-35038923D01*
X56772128Y-35078120D01*
X56945775Y-35138222D01*
X57161923Y-35214949D01*
X57408282Y-35304025D01*
X57501090Y-35337959D01*
X57762417Y-35432799D01*
X58004706Y-35518887D01*
X58213907Y-35591378D01*
X58375972Y-35645424D01*
X58476853Y-35676178D01*
X58492760Y-35680070D01*
X58588172Y-35711816D01*
X58600847Y-35746986D01*
X58532446Y-35782260D01*
X58429358Y-35806710D01*
X58336751Y-35831671D01*
X58172888Y-35884639D01*
X57945411Y-35962901D01*
X57661960Y-36063745D01*
X57330178Y-36184455D01*
X56957704Y-36322319D01*
X56608557Y-36453326D01*
X56608557Y-37055111D01*
X56950491Y-36923487D01*
X57044599Y-36886982D01*
X57543423Y-36692439D01*
X57967361Y-36525323D01*
X58320950Y-36383726D01*
X58608726Y-36265736D01*
X58835225Y-36169445D01*
X59004982Y-36092943D01*
X59122534Y-36034319D01*
X59192416Y-35991665D01*
X59212057Y-35974455D01*
X59292291Y-35826611D01*
X59301568Y-35662830D01*
X59239888Y-35510586D01*
G37*
X59239888Y-35510586D02*
X59212057Y-35476094D01*
X59159533Y-35439244D01*
X59050460Y-35383060D01*
X58881551Y-35306169D01*
X58649514Y-35207197D01*
X58351061Y-35084773D01*
X57982903Y-34937523D01*
X57541749Y-34764074D01*
X57025638Y-34563567D01*
X56624204Y-34408990D01*
X56244641Y-34264102D01*
X55894628Y-34131749D01*
X55581849Y-34014776D01*
X55313984Y-33916027D01*
X55098716Y-33838349D01*
X54943727Y-33784586D01*
X54856699Y-33757583D01*
X54842267Y-33754906D01*
X54738385Y-33790291D01*
X54639451Y-33876236D01*
X54575475Y-33982432D01*
X54565974Y-34033966D01*
X54576653Y-34110612D01*
X54615154Y-34179650D01*
X54691171Y-34247388D01*
X54814399Y-34320135D01*
X54994533Y-34404199D01*
X55241269Y-34505888D01*
X55367557Y-34555553D01*
X56047640Y-34820575D01*
X56047640Y-36663917D01*
X55402057Y-36908680D01*
X55094774Y-37030501D01*
X54863474Y-37136191D01*
X54702231Y-37231051D01*
X54605118Y-37320384D01*
X54566211Y-37409493D01*
X54579583Y-37503679D01*
X54631874Y-37597820D01*
X54731604Y-37675776D01*
X54835083Y-37691906D01*
X54901448Y-37676765D01*
X55039154Y-37633132D01*
X55240825Y-37563694D01*
X55499084Y-37471140D01*
X55806557Y-37358154D01*
X56155866Y-37227426D01*
X56539636Y-37081641D01*
X56608557Y-37055111D01*
X56608557Y-36453326D01*
X56588487Y-36442337D01*
X56573855Y-36385982D01*
X56563981Y-36275237D01*
X56558188Y-36101077D01*
X56555798Y-35854478D01*
X56555640Y-35749102D01*
X56558061Y-35447168D01*
X56565410Y-35227721D01*
X56577815Y-35088716D01*
X56595407Y-35028110D01*
X56601507Y-35024906D01*
X56653275Y-35038923D01*
X56772128Y-35078120D01*
X56945775Y-35138222D01*
X57161923Y-35214949D01*
X57408282Y-35304025D01*
X57501090Y-35337959D01*
X57762417Y-35432799D01*
X58004706Y-35518887D01*
X58213907Y-35591378D01*
X58375972Y-35645424D01*
X58476853Y-35676178D01*
X58492760Y-35680070D01*
X58588172Y-35711816D01*
X58600847Y-35746986D01*
X58532446Y-35782260D01*
X58429358Y-35806710D01*
X58336751Y-35831671D01*
X58172888Y-35884639D01*
X57945411Y-35962901D01*
X57661960Y-36063745D01*
X57330178Y-36184455D01*
X56957704Y-36322319D01*
X56608557Y-36453326D01*
X56608557Y-37055111D01*
X56950491Y-36923487D01*
X57044599Y-36886982D01*
X57543423Y-36692439D01*
X57967361Y-36525323D01*
X58320950Y-36383726D01*
X58608726Y-36265736D01*
X58835225Y-36169445D01*
X59004982Y-36092943D01*
X59122534Y-36034319D01*
X59192416Y-35991665D01*
X59212057Y-35974455D01*
X59292291Y-35826611D01*
X59301568Y-35662830D01*
X59239888Y-35510586D01*
G36*
X59203398Y-41605816D02*
G01*
X59081580Y-41519129D01*
X58967575Y-41515551D01*
X58853709Y-41594954D01*
X58849020Y-41599885D01*
X58813610Y-41642824D01*
X58788647Y-41693574D01*
X58772318Y-41766723D01*
X58762810Y-41876858D01*
X58758313Y-42038566D01*
X58757012Y-42266435D01*
X58756974Y-42340718D01*
X58756974Y-42983573D01*
X54738605Y-42983573D01*
X54652290Y-43076222D01*
X54576732Y-43206720D01*
X54585342Y-43345856D01*
X54653713Y-43464697D01*
X54741452Y-43576240D01*
X58756974Y-43576240D01*
X58756974Y-44232406D01*
X58757817Y-44484337D01*
X58761421Y-44665693D01*
X58769395Y-44790563D01*
X58783348Y-44873031D01*
X58804891Y-44927183D01*
X58835633Y-44967104D01*
X58841640Y-44973240D01*
X58961121Y-45047493D01*
X59085729Y-45037407D01*
X59203398Y-44953997D01*
X59307307Y-44850088D01*
X59307307Y-41709725D01*
X59203398Y-41605816D01*
G37*
X59203398Y-41605816D02*
X59081580Y-41519129D01*
X58967575Y-41515551D01*
X58853709Y-41594954D01*
X58849020Y-41599885D01*
X58813610Y-41642824D01*
X58788647Y-41693574D01*
X58772318Y-41766723D01*
X58762810Y-41876858D01*
X58758313Y-42038566D01*
X58757012Y-42266435D01*
X58756974Y-42340718D01*
X58756974Y-42983573D01*
X54738605Y-42983573D01*
X54652290Y-43076222D01*
X54576732Y-43206720D01*
X54585342Y-43345856D01*
X54653713Y-43464697D01*
X54741452Y-43576240D01*
X58756974Y-43576240D01*
X58756974Y-44232406D01*
X58757817Y-44484337D01*
X58761421Y-44665693D01*
X58769395Y-44790563D01*
X58783348Y-44873031D01*
X58804891Y-44927183D01*
X58835633Y-44967104D01*
X58841640Y-44973240D01*
X58961121Y-45047493D01*
X59085729Y-45037407D01*
X59203398Y-44953997D01*
X59307307Y-44850088D01*
X59307307Y-41709725D01*
X59203398Y-41605816D01*
G36*
X59306683Y-47206323D02*
G01*
X59305939Y-46825391D01*
X59303090Y-46520497D01*
X59296552Y-46283012D01*
X59284740Y-46104308D01*
X59266070Y-45975759D01*
X59238956Y-45888736D01*
X59201813Y-45834611D01*
X59153058Y-45804757D01*
X59091105Y-45790546D01*
X59045773Y-45785841D01*
X58959118Y-45782870D01*
X58891735Y-45796381D01*
X58841211Y-45835569D01*
X58805137Y-45909634D01*
X58781102Y-46027771D01*
X58766694Y-46199177D01*
X58759504Y-46433050D01*
X58757121Y-46738588D01*
X58756974Y-46887659D01*
X58756974Y-47809573D01*
X57105974Y-47809573D01*
X57105974Y-46951159D01*
X57104662Y-46626329D01*
X57099019Y-46376409D01*
X57086485Y-46191657D01*
X57064499Y-46062337D01*
X57030500Y-45978707D01*
X56981928Y-45931029D01*
X56916222Y-45909565D01*
X56830821Y-45904573D01*
X56830807Y-45904573D01*
X56745403Y-45909563D01*
X56679695Y-45931024D01*
X56631120Y-45978697D01*
X56597119Y-46062321D01*
X56575132Y-46191634D01*
X56562596Y-46376376D01*
X56556953Y-46626287D01*
X56555641Y-46951105D01*
X56555640Y-46951159D01*
X56555640Y-47809573D01*
X55652853Y-47809573D01*
X55354318Y-47809838D01*
X55128761Y-47811399D01*
X54964494Y-47815409D01*
X54849828Y-47823018D01*
X54773075Y-47835376D01*
X54722546Y-47853637D01*
X54686554Y-47878950D01*
X54658020Y-47907552D01*
X54578642Y-48038540D01*
X54583766Y-48170793D01*
X54669883Y-48298331D01*
X54773792Y-48402240D01*
X59307307Y-48402240D01*
X59306683Y-47206323D01*
G37*
X59306683Y-47206323D02*
X59305939Y-46825391D01*
X59303090Y-46520497D01*
X59296552Y-46283012D01*
X59284740Y-46104308D01*
X59266070Y-45975759D01*
X59238956Y-45888736D01*
X59201813Y-45834611D01*
X59153058Y-45804757D01*
X59091105Y-45790546D01*
X59045773Y-45785841D01*
X58959118Y-45782870D01*
X58891735Y-45796381D01*
X58841211Y-45835569D01*
X58805137Y-45909634D01*
X58781102Y-46027771D01*
X58766694Y-46199177D01*
X58759504Y-46433050D01*
X58757121Y-46738588D01*
X58756974Y-46887659D01*
X58756974Y-47809573D01*
X57105974Y-47809573D01*
X57105974Y-46951159D01*
X57104662Y-46626329D01*
X57099019Y-46376409D01*
X57086485Y-46191657D01*
X57064499Y-46062337D01*
X57030500Y-45978707D01*
X56981928Y-45931029D01*
X56916222Y-45909565D01*
X56830821Y-45904573D01*
X56830807Y-45904573D01*
X56745403Y-45909563D01*
X56679695Y-45931024D01*
X56631120Y-45978697D01*
X56597119Y-46062321D01*
X56575132Y-46191634D01*
X56562596Y-46376376D01*
X56556953Y-46626287D01*
X56555641Y-46951105D01*
X56555640Y-46951159D01*
X56555640Y-47809573D01*
X55652853Y-47809573D01*
X55354318Y-47809838D01*
X55128761Y-47811399D01*
X54964494Y-47815409D01*
X54849828Y-47823018D01*
X54773075Y-47835376D01*
X54722546Y-47853637D01*
X54686554Y-47878950D01*
X54658020Y-47907552D01*
X54578642Y-48038540D01*
X54583766Y-48170793D01*
X54669883Y-48298331D01*
X54773792Y-48402240D01*
X59307307Y-48402240D01*
X59306683Y-47206323D01*
G36*
X59295214Y-57641490D02*
G01*
X59283898Y-57276941D01*
X59268826Y-56983886D01*
X59247795Y-56749168D01*
X59218600Y-56559627D01*
X59179040Y-56402106D01*
X59126910Y-56263447D01*
X59060007Y-56130492D01*
X59034823Y-56086498D01*
X58885919Y-55899640D01*
X58682054Y-55735218D01*
X58452929Y-55616558D01*
X58422573Y-55605621D01*
X58310344Y-55582013D01*
X58146212Y-55564752D01*
X57962883Y-55557103D01*
X57935740Y-55556987D01*
X57726421Y-55564020D01*
X57567402Y-55588533D01*
X57425095Y-55636533D01*
X57381140Y-55656177D01*
X57159490Y-55797641D01*
X56956534Y-55996553D01*
X56798174Y-56226001D01*
X56762015Y-56299511D01*
X56681596Y-56481312D01*
X55827250Y-55955442D01*
X55509381Y-55763063D01*
X55249427Y-55612731D01*
X55050443Y-55506101D01*
X54915483Y-55444826D01*
X54855754Y-55429573D01*
X54720112Y-55465313D01*
X54622590Y-55556904D01*
X54575441Y-55680906D01*
X54590918Y-55813876D01*
X54623758Y-55873416D01*
X54675252Y-55916205D01*
X54789318Y-55994536D01*
X54955226Y-56101587D01*
X55162244Y-56230535D01*
X55399642Y-56374554D01*
X55586842Y-56485805D01*
X56492140Y-57019169D01*
X56516080Y-57969573D01*
X54741452Y-57969573D01*
X54653713Y-58081116D01*
X54592509Y-58179811D01*
X54566004Y-58263955D01*
X54565974Y-58265906D01*
X54590994Y-58348810D01*
X54651421Y-58447759D01*
X54653713Y-58450697D01*
X54741452Y-58562240D01*
X58756974Y-58562240D01*
X58756974Y-57969573D01*
X57021307Y-57969573D01*
X57021307Y-57527157D01*
X57025824Y-57314502D01*
X57037951Y-57108164D01*
X57055555Y-56938847D01*
X57066817Y-56872538D01*
X57161014Y-56610462D01*
X57313484Y-56401456D01*
X57513256Y-56252396D01*
X57749359Y-56170157D01*
X58010823Y-56161614D01*
X58156628Y-56189505D01*
X58356610Y-56269345D01*
X58511945Y-56393387D01*
X58626137Y-56568936D01*
X58702687Y-56803299D01*
X58745097Y-57103783D01*
X58756974Y-57441995D01*
X58756974Y-57969573D01*
X58756974Y-58562240D01*
X59318359Y-58562240D01*
X59295214Y-57641490D01*
G37*
X59295214Y-57641490D02*
X59283898Y-57276941D01*
X59268826Y-56983886D01*
X59247795Y-56749168D01*
X59218600Y-56559627D01*
X59179040Y-56402106D01*
X59126910Y-56263447D01*
X59060007Y-56130492D01*
X59034823Y-56086498D01*
X58885919Y-55899640D01*
X58682054Y-55735218D01*
X58452929Y-55616558D01*
X58422573Y-55605621D01*
X58310344Y-55582013D01*
X58146212Y-55564752D01*
X57962883Y-55557103D01*
X57935740Y-55556987D01*
X57726421Y-55564020D01*
X57567402Y-55588533D01*
X57425095Y-55636533D01*
X57381140Y-55656177D01*
X57159490Y-55797641D01*
X56956534Y-55996553D01*
X56798174Y-56226001D01*
X56762015Y-56299511D01*
X56681596Y-56481312D01*
X55827250Y-55955442D01*
X55509381Y-55763063D01*
X55249427Y-55612731D01*
X55050443Y-55506101D01*
X54915483Y-55444826D01*
X54855754Y-55429573D01*
X54720112Y-55465313D01*
X54622590Y-55556904D01*
X54575441Y-55680906D01*
X54590918Y-55813876D01*
X54623758Y-55873416D01*
X54675252Y-55916205D01*
X54789318Y-55994536D01*
X54955226Y-56101587D01*
X55162244Y-56230535D01*
X55399642Y-56374554D01*
X55586842Y-56485805D01*
X56492140Y-57019169D01*
X56516080Y-57969573D01*
X54741452Y-57969573D01*
X54653713Y-58081116D01*
X54592509Y-58179811D01*
X54566004Y-58263955D01*
X54565974Y-58265906D01*
X54590994Y-58348810D01*
X54651421Y-58447759D01*
X54653713Y-58450697D01*
X54741452Y-58562240D01*
X58756974Y-58562240D01*
X58756974Y-57969573D01*
X57021307Y-57969573D01*
X57021307Y-57527157D01*
X57025824Y-57314502D01*
X57037951Y-57108164D01*
X57055555Y-56938847D01*
X57066817Y-56872538D01*
X57161014Y-56610462D01*
X57313484Y-56401456D01*
X57513256Y-56252396D01*
X57749359Y-56170157D01*
X58010823Y-56161614D01*
X58156628Y-56189505D01*
X58356610Y-56269345D01*
X58511945Y-56393387D01*
X58626137Y-56568936D01*
X58702687Y-56803299D01*
X58745097Y-57103783D01*
X58756974Y-57441995D01*
X58756974Y-57969573D01*
X58756974Y-58562240D01*
X59318359Y-58562240D01*
X59295214Y-57641490D01*
G36*
X59293734Y-67586801D02*
G01*
X59248496Y-67524220D01*
X59164810Y-67450533D01*
X59035895Y-67361276D01*
X58854972Y-67251985D01*
X58615258Y-67118195D01*
X58309972Y-66955443D01*
X58085510Y-66838406D01*
X57811386Y-66695477D01*
X57563435Y-66564549D01*
X57351169Y-66450776D01*
X57184099Y-66359314D01*
X57071737Y-66295319D01*
X57023594Y-66263946D01*
X57022481Y-66262239D01*
X57058123Y-66236666D01*
X57159506Y-66176871D01*
X57317401Y-66087968D01*
X57522574Y-65975072D01*
X57765795Y-65843295D01*
X58037831Y-65697752D01*
X58126103Y-65650885D01*
X58461849Y-65472114D01*
X58729305Y-65326731D01*
X58935434Y-65209333D01*
X59087203Y-65114515D01*
X59191578Y-65036875D01*
X59255524Y-64971008D01*
X59286006Y-64911511D01*
X59289991Y-64852981D01*
X59274445Y-64790013D01*
X59265952Y-64766647D01*
X59186528Y-64654230D01*
X59067482Y-64584290D01*
X59001733Y-64573573D01*
X58952263Y-64593191D01*
X58837553Y-64648933D01*
X58666557Y-64736135D01*
X58448227Y-64850130D01*
X58191517Y-64986251D01*
X57905380Y-65139835D01*
X57661418Y-65272073D01*
X56378243Y-65970573D01*
X55556775Y-65970573D01*
X55271849Y-65971115D01*
X55059307Y-65973505D01*
X54906869Y-65978890D01*
X54802255Y-65988419D01*
X54733184Y-66003238D01*
X54687377Y-66024495D01*
X54652554Y-66053338D01*
X54650640Y-66055240D01*
X54576208Y-66182061D01*
X54575309Y-66321498D01*
X54646264Y-66447289D01*
X54677516Y-66475501D01*
X54722200Y-66506436D01*
X54774716Y-66529127D01*
X54848079Y-66544839D01*
X54955304Y-66554839D01*
X55109406Y-66560394D01*
X55323399Y-66562771D01*
X55579013Y-66563240D01*
X56368968Y-66563240D01*
X57637054Y-67240402D01*
X57961472Y-67411882D01*
X58257716Y-67565039D01*
X58517438Y-67695780D01*
X58732287Y-67800011D01*
X58893913Y-67873636D01*
X58993966Y-67912563D01*
X59018485Y-67917736D01*
X59121824Y-67884364D01*
X59223385Y-67803009D01*
X59293163Y-67702236D01*
X59307307Y-67642740D01*
X59293734Y-67586801D01*
G37*
X59293734Y-67586801D02*
X59248496Y-67524220D01*
X59164810Y-67450533D01*
X59035895Y-67361276D01*
X58854972Y-67251985D01*
X58615258Y-67118195D01*
X58309972Y-66955443D01*
X58085510Y-66838406D01*
X57811386Y-66695477D01*
X57563435Y-66564549D01*
X57351169Y-66450776D01*
X57184099Y-66359314D01*
X57071737Y-66295319D01*
X57023594Y-66263946D01*
X57022481Y-66262239D01*
X57058123Y-66236666D01*
X57159506Y-66176871D01*
X57317401Y-66087968D01*
X57522574Y-65975072D01*
X57765795Y-65843295D01*
X58037831Y-65697752D01*
X58126103Y-65650885D01*
X58461849Y-65472114D01*
X58729305Y-65326731D01*
X58935434Y-65209333D01*
X59087203Y-65114515D01*
X59191578Y-65036875D01*
X59255524Y-64971008D01*
X59286006Y-64911511D01*
X59289991Y-64852981D01*
X59274445Y-64790013D01*
X59265952Y-64766647D01*
X59186528Y-64654230D01*
X59067482Y-64584290D01*
X59001733Y-64573573D01*
X58952263Y-64593191D01*
X58837553Y-64648933D01*
X58666557Y-64736135D01*
X58448227Y-64850130D01*
X58191517Y-64986251D01*
X57905380Y-65139835D01*
X57661418Y-65272073D01*
X56378243Y-65970573D01*
X55556775Y-65970573D01*
X55271849Y-65971115D01*
X55059307Y-65973505D01*
X54906869Y-65978890D01*
X54802255Y-65988419D01*
X54733184Y-66003238D01*
X54687377Y-66024495D01*
X54652554Y-66053338D01*
X54650640Y-66055240D01*
X54576208Y-66182061D01*
X54575309Y-66321498D01*
X54646264Y-66447289D01*
X54677516Y-66475501D01*
X54722200Y-66506436D01*
X54774716Y-66529127D01*
X54848079Y-66544839D01*
X54955304Y-66554839D01*
X55109406Y-66560394D01*
X55323399Y-66562771D01*
X55579013Y-66563240D01*
X56368968Y-66563240D01*
X57637054Y-67240402D01*
X57961472Y-67411882D01*
X58257716Y-67565039D01*
X58517438Y-67695780D01*
X58732287Y-67800011D01*
X58893913Y-67873636D01*
X58993966Y-67912563D01*
X59018485Y-67917736D01*
X59121824Y-67884364D01*
X59223385Y-67803009D01*
X59293163Y-67702236D01*
X59307307Y-67642740D01*
X59293734Y-67586801D01*
G36*
X59264915Y-69400191D02*
G01*
X59181276Y-69231517D01*
X59057630Y-69115371D01*
X58913786Y-69018573D01*
X54773792Y-69018573D01*
X54669883Y-69122482D01*
X54583095Y-69248176D01*
X54580269Y-69371608D01*
X54661466Y-69498548D01*
X54674092Y-69511540D01*
X54782211Y-69619658D01*
X56723747Y-69604866D01*
X57119762Y-69601944D01*
X57488342Y-69599409D01*
X57821159Y-69597306D01*
X58109885Y-69595677D01*
X58346193Y-69594568D01*
X58521754Y-69594021D01*
X58628240Y-69594080D01*
X58658211Y-69594662D01*
X58618480Y-69610162D01*
X58507139Y-69652906D01*
X58331706Y-69720023D01*
X58099702Y-69808644D01*
X57818645Y-69915897D01*
X57496056Y-70038913D01*
X57139454Y-70174820D01*
X56756358Y-70320749D01*
X56669050Y-70353996D01*
X56217396Y-70526289D01*
X55838500Y-70671700D01*
X55525825Y-70793019D01*
X55272834Y-70893035D01*
X55072988Y-70974540D01*
X54919749Y-71040323D01*
X54806580Y-71093175D01*
X54726944Y-71135885D01*
X54674301Y-71171244D01*
X54642114Y-71202043D01*
X54626467Y-71225721D01*
X54582360Y-71337803D01*
X54565974Y-71427110D01*
X54569989Y-71478202D01*
X54586177Y-71526055D01*
X54620749Y-71573644D01*
X54679919Y-71623945D01*
X54769900Y-71679933D01*
X54896904Y-71744584D01*
X55067144Y-71820873D01*
X55286832Y-71911777D01*
X55562182Y-72020270D01*
X55899406Y-72149329D01*
X56304717Y-72301928D01*
X56703807Y-72451028D01*
X57088720Y-72594610D01*
X57448658Y-72728991D01*
X57776006Y-72851318D01*
X58063144Y-72958740D01*
X58302457Y-73048405D01*
X58486327Y-73117460D01*
X58607137Y-73163054D01*
X58657270Y-73182335D01*
X58658211Y-73182770D01*
X58618746Y-73183607D01*
X58502932Y-73183784D01*
X58319086Y-73183342D01*
X58075525Y-73182319D01*
X57780564Y-73180755D01*
X57442519Y-73178689D01*
X57069707Y-73176160D01*
X56718129Y-73173574D01*
X54770976Y-73158742D01*
X54668475Y-73255037D01*
X54582880Y-73380696D01*
X54577535Y-73512275D01*
X54650640Y-73632906D01*
X54672075Y-73651998D01*
X54699694Y-73667982D01*
X54740684Y-73681134D01*
X54802228Y-73691730D01*
X54891514Y-73700045D01*
X55015726Y-73706356D01*
X55182050Y-73710938D01*
X55397672Y-73714068D01*
X55669777Y-73716020D01*
X56005550Y-73717071D01*
X56412178Y-73717497D01*
X56856207Y-73717573D01*
X58977107Y-73717573D01*
X59121040Y-73573640D01*
X59210217Y-73472482D01*
X59252629Y-73377716D01*
X59264739Y-73248263D01*
X59264974Y-73214474D01*
X59263844Y-73129304D01*
X59256151Y-73055435D01*
X59235439Y-72989211D01*
X59195256Y-72926978D01*
X59129144Y-72865081D01*
X59030650Y-72799866D01*
X58893320Y-72727676D01*
X58710697Y-72644858D01*
X58476328Y-72547757D01*
X58183757Y-72432717D01*
X57826530Y-72296084D01*
X57398193Y-72134204D01*
X57275307Y-72087878D01*
X56909253Y-71949474D01*
X56567607Y-71819495D01*
X56258538Y-71701105D01*
X55990214Y-71597470D01*
X55770802Y-71511756D01*
X55608470Y-71447130D01*
X55511385Y-71406757D01*
X55486477Y-71394491D01*
X55518010Y-71373486D01*
X55621025Y-71325799D01*
X55787767Y-71254586D01*
X56010484Y-71163001D01*
X56281422Y-71054200D01*
X56592829Y-70931341D01*
X56936950Y-70797577D01*
X57220531Y-70688679D01*
X57591240Y-70545896D01*
X57940666Y-70409076D01*
X58260154Y-70281770D01*
X58541049Y-70167527D01*
X58774694Y-70069897D01*
X58952436Y-69992431D01*
X59065618Y-69938679D01*
X59101785Y-69917074D01*
X59226279Y-69763113D01*
X59280286Y-69584104D01*
X59264915Y-69400191D01*
G37*
X59264915Y-69400191D02*
X59181276Y-69231517D01*
X59057630Y-69115371D01*
X58913786Y-69018573D01*
X54773792Y-69018573D01*
X54669883Y-69122482D01*
X54583095Y-69248176D01*
X54580269Y-69371608D01*
X54661466Y-69498548D01*
X54674092Y-69511540D01*
X54782211Y-69619658D01*
X56723747Y-69604866D01*
X57119762Y-69601944D01*
X57488342Y-69599409D01*
X57821159Y-69597306D01*
X58109885Y-69595677D01*
X58346193Y-69594568D01*
X58521754Y-69594021D01*
X58628240Y-69594080D01*
X58658211Y-69594662D01*
X58618480Y-69610162D01*
X58507139Y-69652906D01*
X58331706Y-69720023D01*
X58099702Y-69808644D01*
X57818645Y-69915897D01*
X57496056Y-70038913D01*
X57139454Y-70174820D01*
X56756358Y-70320749D01*
X56669050Y-70353996D01*
X56217396Y-70526289D01*
X55838500Y-70671700D01*
X55525825Y-70793019D01*
X55272834Y-70893035D01*
X55072988Y-70974540D01*
X54919749Y-71040323D01*
X54806580Y-71093175D01*
X54726944Y-71135885D01*
X54674301Y-71171244D01*
X54642114Y-71202043D01*
X54626467Y-71225721D01*
X54582360Y-71337803D01*
X54565974Y-71427110D01*
X54569989Y-71478202D01*
X54586177Y-71526055D01*
X54620749Y-71573644D01*
X54679919Y-71623945D01*
X54769900Y-71679933D01*
X54896904Y-71744584D01*
X55067144Y-71820873D01*
X55286832Y-71911777D01*
X55562182Y-72020270D01*
X55899406Y-72149329D01*
X56304717Y-72301928D01*
X56703807Y-72451028D01*
X57088720Y-72594610D01*
X57448658Y-72728991D01*
X57776006Y-72851318D01*
X58063144Y-72958740D01*
X58302457Y-73048405D01*
X58486327Y-73117460D01*
X58607137Y-73163054D01*
X58657270Y-73182335D01*
X58658211Y-73182770D01*
X58618746Y-73183607D01*
X58502932Y-73183784D01*
X58319086Y-73183342D01*
X58075525Y-73182319D01*
X57780564Y-73180755D01*
X57442519Y-73178689D01*
X57069707Y-73176160D01*
X56718129Y-73173574D01*
X54770976Y-73158742D01*
X54668475Y-73255037D01*
X54582880Y-73380696D01*
X54577535Y-73512275D01*
X54650640Y-73632906D01*
X54672075Y-73651998D01*
X54699694Y-73667982D01*
X54740684Y-73681134D01*
X54802228Y-73691730D01*
X54891514Y-73700045D01*
X55015726Y-73706356D01*
X55182050Y-73710938D01*
X55397672Y-73714068D01*
X55669777Y-73716020D01*
X56005550Y-73717071D01*
X56412178Y-73717497D01*
X56856207Y-73717573D01*
X58977107Y-73717573D01*
X59121040Y-73573640D01*
X59210217Y-73472482D01*
X59252629Y-73377716D01*
X59264739Y-73248263D01*
X59264974Y-73214474D01*
X59263844Y-73129304D01*
X59256151Y-73055435D01*
X59235439Y-72989211D01*
X59195256Y-72926978D01*
X59129144Y-72865081D01*
X59030650Y-72799866D01*
X58893320Y-72727676D01*
X58710697Y-72644858D01*
X58476328Y-72547757D01*
X58183757Y-72432717D01*
X57826530Y-72296084D01*
X57398193Y-72134204D01*
X57275307Y-72087878D01*
X56909253Y-71949474D01*
X56567607Y-71819495D01*
X56258538Y-71701105D01*
X55990214Y-71597470D01*
X55770802Y-71511756D01*
X55608470Y-71447130D01*
X55511385Y-71406757D01*
X55486477Y-71394491D01*
X55518010Y-71373486D01*
X55621025Y-71325799D01*
X55787767Y-71254586D01*
X56010484Y-71163001D01*
X56281422Y-71054200D01*
X56592829Y-70931341D01*
X56936950Y-70797577D01*
X57220531Y-70688679D01*
X57591240Y-70545896D01*
X57940666Y-70409076D01*
X58260154Y-70281770D01*
X58541049Y-70167527D01*
X58774694Y-70069897D01*
X58952436Y-69992431D01*
X59065618Y-69938679D01*
X59101785Y-69917074D01*
X59226279Y-69763113D01*
X59280286Y-69584104D01*
X59264915Y-69400191D01*
G36*
X59273950Y-61071070D02*
G01*
X59216552Y-60870994D01*
X59118039Y-60625617D01*
X58995390Y-60394596D01*
X58858567Y-60190965D01*
X58717531Y-60027761D01*
X58582244Y-59918019D01*
X58462667Y-59874773D01*
X58455073Y-59874573D01*
X58316451Y-59908791D01*
X58222523Y-59996804D01*
X58184427Y-60116655D01*
X58213302Y-60246383D01*
X58243127Y-60292410D01*
X58458958Y-60587878D01*
X58613520Y-60854575D01*
X58715292Y-61111725D01*
X58772754Y-61378554D01*
X58787949Y-61527680D01*
X58775865Y-61917632D01*
X58683243Y-62281761D01*
X58509877Y-62620633D01*
X58281391Y-62907933D01*
X57998445Y-63158897D01*
X57691982Y-63333568D01*
X57350849Y-63436630D01*
X56963892Y-63472763D01*
X56935584Y-63472906D01*
X56552346Y-63433351D01*
X56197783Y-63319991D01*
X55879893Y-63140792D01*
X55606675Y-62903716D01*
X55386126Y-62616727D01*
X55226245Y-62287786D01*
X55135030Y-61924859D01*
X55116307Y-61661592D01*
X55152011Y-61279654D01*
X55261822Y-60924243D01*
X55449788Y-60584725D01*
X55603430Y-60382227D01*
X55710494Y-60223253D01*
X55740132Y-60090298D01*
X55692552Y-59975608D01*
X55616420Y-59904257D01*
X55524553Y-59849259D01*
X55443207Y-59848283D01*
X55377437Y-59871620D01*
X55272656Y-59937584D01*
X55160999Y-60040336D01*
X55127630Y-60078956D01*
X54862705Y-60468977D01*
X54680440Y-60875705D01*
X54579972Y-61301977D01*
X54560439Y-61750631D01*
X54571857Y-61906573D01*
X54654969Y-62324423D01*
X54812147Y-62713617D01*
X55035426Y-63066455D01*
X55316838Y-63375242D01*
X55648419Y-63632277D01*
X56022203Y-63829864D01*
X56430223Y-63960304D01*
X56747297Y-64008888D01*
X57178518Y-64005961D01*
X57587206Y-63927622D01*
X57967435Y-63781399D01*
X58313282Y-63574818D01*
X58618825Y-63315407D01*
X58878138Y-63010695D01*
X59085299Y-62668209D01*
X59234385Y-62295475D01*
X59319470Y-61900023D01*
X59334633Y-61489378D01*
X59273950Y-61071070D01*
G37*
X59273950Y-61071070D02*
X59216552Y-60870994D01*
X59118039Y-60625617D01*
X58995390Y-60394596D01*
X58858567Y-60190965D01*
X58717531Y-60027761D01*
X58582244Y-59918019D01*
X58462667Y-59874773D01*
X58455073Y-59874573D01*
X58316451Y-59908791D01*
X58222523Y-59996804D01*
X58184427Y-60116655D01*
X58213302Y-60246383D01*
X58243127Y-60292410D01*
X58458958Y-60587878D01*
X58613520Y-60854575D01*
X58715292Y-61111725D01*
X58772754Y-61378554D01*
X58787949Y-61527680D01*
X58775865Y-61917632D01*
X58683243Y-62281761D01*
X58509877Y-62620633D01*
X58281391Y-62907933D01*
X57998445Y-63158897D01*
X57691982Y-63333568D01*
X57350849Y-63436630D01*
X56963892Y-63472763D01*
X56935584Y-63472906D01*
X56552346Y-63433351D01*
X56197783Y-63319991D01*
X55879893Y-63140792D01*
X55606675Y-62903716D01*
X55386126Y-62616727D01*
X55226245Y-62287786D01*
X55135030Y-61924859D01*
X55116307Y-61661592D01*
X55152011Y-61279654D01*
X55261822Y-60924243D01*
X55449788Y-60584725D01*
X55603430Y-60382227D01*
X55710494Y-60223253D01*
X55740132Y-60090298D01*
X55692552Y-59975608D01*
X55616420Y-59904257D01*
X55524553Y-59849259D01*
X55443207Y-59848283D01*
X55377437Y-59871620D01*
X55272656Y-59937584D01*
X55160999Y-60040336D01*
X55127630Y-60078956D01*
X54862705Y-60468977D01*
X54680440Y-60875705D01*
X54579972Y-61301977D01*
X54560439Y-61750631D01*
X54571857Y-61906573D01*
X54654969Y-62324423D01*
X54812147Y-62713617D01*
X55035426Y-63066455D01*
X55316838Y-63375242D01*
X55648419Y-63632277D01*
X56022203Y-63829864D01*
X56430223Y-63960304D01*
X56747297Y-64008888D01*
X57178518Y-64005961D01*
X57587206Y-63927622D01*
X57967435Y-63781399D01*
X58313282Y-63574818D01*
X58618825Y-63315407D01*
X58878138Y-63010695D01*
X59085299Y-62668209D01*
X59234385Y-62295475D01*
X59319470Y-61900023D01*
X59334633Y-61489378D01*
X59273950Y-61071070D01*
G36*
X59372711Y-51700557D02*
G01*
X59329337Y-51450240D01*
X59176171Y-51023958D01*
X58952629Y-50638985D01*
X58665644Y-50302110D01*
X58322150Y-50020121D01*
X57929081Y-49799808D01*
X57493369Y-49647960D01*
X57487003Y-49646353D01*
X57208172Y-49602856D01*
X56887512Y-49595022D01*
X56559162Y-49621131D01*
X56257259Y-49679462D01*
X56144043Y-49714033D01*
X55746043Y-49896934D01*
X55383440Y-50149835D01*
X55067346Y-50461626D01*
X54808875Y-50821196D01*
X54619140Y-51217436D01*
X54607291Y-51250309D01*
X54547613Y-51482460D01*
X54509029Y-51762172D01*
X54492882Y-52059345D01*
X54500515Y-52343879D01*
X54533273Y-52585672D01*
X54545452Y-52635573D01*
X54705685Y-53069291D01*
X54933695Y-53459483D01*
X55222526Y-53799187D01*
X55565223Y-54081441D01*
X55954832Y-54299287D01*
X56343974Y-54435603D01*
X56608130Y-54480380D01*
X56914102Y-54494494D01*
X57033032Y-54488812D01*
X57033032Y-53944228D01*
X56662531Y-53926541D01*
X56311898Y-53838740D01*
X55988665Y-53688014D01*
X55700361Y-53481556D01*
X55454518Y-53226556D01*
X55258666Y-52930205D01*
X55120336Y-52599694D01*
X55047060Y-52242215D01*
X55046366Y-51864958D01*
X55079277Y-51653407D01*
X55176344Y-51349365D01*
X55331001Y-51044873D01*
X55524356Y-50775800D01*
X55565866Y-50729544D01*
X55823158Y-50509956D01*
X56135159Y-50332671D01*
X56478363Y-50207573D01*
X56829267Y-50144544D01*
X56970474Y-50138941D01*
X57339772Y-50181654D01*
X57692459Y-50299976D01*
X58017188Y-50485011D01*
X58302611Y-50727866D01*
X58537379Y-51019645D01*
X58710146Y-51351454D01*
X58776348Y-51554384D01*
X58838671Y-51954869D01*
X58818753Y-52345463D01*
X58718919Y-52718067D01*
X58541492Y-53064584D01*
X58288797Y-53376915D01*
X58239354Y-53425242D01*
X57995129Y-53628271D01*
X57745742Y-53771310D01*
X57456494Y-53873717D01*
X57415871Y-53884608D01*
X57033032Y-53944228D01*
X57033032Y-54488812D01*
X57230840Y-54479360D01*
X57527296Y-54436393D01*
X57762140Y-54370976D01*
X58006621Y-54259381D01*
X58263152Y-54110887D01*
X58502287Y-53944500D01*
X58694580Y-53779223D01*
X58720866Y-53752208D01*
X58923416Y-53500062D01*
X59109316Y-53200545D01*
X59255769Y-52890725D01*
X59264412Y-52868406D01*
X59332712Y-52620220D01*
X59374474Y-52322181D01*
X59388280Y-52005292D01*
X59372711Y-51700557D01*
G37*
X59372711Y-51700557D02*
X59329337Y-51450240D01*
X59176171Y-51023958D01*
X58952629Y-50638985D01*
X58665644Y-50302110D01*
X58322150Y-50020121D01*
X57929081Y-49799808D01*
X57493369Y-49647960D01*
X57487003Y-49646353D01*
X57208172Y-49602856D01*
X56887512Y-49595022D01*
X56559162Y-49621131D01*
X56257259Y-49679462D01*
X56144043Y-49714033D01*
X55746043Y-49896934D01*
X55383440Y-50149835D01*
X55067346Y-50461626D01*
X54808875Y-50821196D01*
X54619140Y-51217436D01*
X54607291Y-51250309D01*
X54547613Y-51482460D01*
X54509029Y-51762172D01*
X54492882Y-52059345D01*
X54500515Y-52343879D01*
X54533273Y-52585672D01*
X54545452Y-52635573D01*
X54705685Y-53069291D01*
X54933695Y-53459483D01*
X55222526Y-53799187D01*
X55565223Y-54081441D01*
X55954832Y-54299287D01*
X56343974Y-54435603D01*
X56608130Y-54480380D01*
X56914102Y-54494494D01*
X57033032Y-54488812D01*
X57033032Y-53944228D01*
X56662531Y-53926541D01*
X56311898Y-53838740D01*
X55988665Y-53688014D01*
X55700361Y-53481556D01*
X55454518Y-53226556D01*
X55258666Y-52930205D01*
X55120336Y-52599694D01*
X55047060Y-52242215D01*
X55046366Y-51864958D01*
X55079277Y-51653407D01*
X55176344Y-51349365D01*
X55331001Y-51044873D01*
X55524356Y-50775800D01*
X55565866Y-50729544D01*
X55823158Y-50509956D01*
X56135159Y-50332671D01*
X56478363Y-50207573D01*
X56829267Y-50144544D01*
X56970474Y-50138941D01*
X57339772Y-50181654D01*
X57692459Y-50299976D01*
X58017188Y-50485011D01*
X58302611Y-50727866D01*
X58537379Y-51019645D01*
X58710146Y-51351454D01*
X58776348Y-51554384D01*
X58838671Y-51954869D01*
X58818753Y-52345463D01*
X58718919Y-52718067D01*
X58541492Y-53064584D01*
X58288797Y-53376915D01*
X58239354Y-53425242D01*
X57995129Y-53628271D01*
X57745742Y-53771310D01*
X57456494Y-53873717D01*
X57415871Y-53884608D01*
X57033032Y-53944228D01*
X57033032Y-54488812D01*
X57230840Y-54479360D01*
X57527296Y-54436393D01*
X57762140Y-54370976D01*
X58006621Y-54259381D01*
X58263152Y-54110887D01*
X58502287Y-53944500D01*
X58694580Y-53779223D01*
X58720866Y-53752208D01*
X58923416Y-53500062D01*
X59109316Y-53200545D01*
X59255769Y-52890725D01*
X59264412Y-52868406D01*
X59332712Y-52620220D01*
X59374474Y-52322181D01*
X59388280Y-52005292D01*
X59372711Y-51700557D01*
G36*
X40761271Y-53402379D02*
G01*
X40667399Y-52788601D01*
X40491999Y-52182727D01*
X40286039Y-51693233D01*
X39980638Y-51153031D01*
X39617691Y-50669387D01*
X39203984Y-50243972D01*
X38746300Y-49878458D01*
X38251424Y-49574518D01*
X37726139Y-49333822D01*
X37177229Y-49158042D01*
X36611480Y-49048850D01*
X36035674Y-49007918D01*
X35456597Y-49036916D01*
X34881032Y-49137517D01*
X34315764Y-49311392D01*
X33767577Y-49560213D01*
X33243254Y-49885652D01*
X33169158Y-49939636D01*
X32687577Y-50348648D01*
X32268849Y-50809892D01*
X31915949Y-51316253D01*
X31631850Y-51860618D01*
X31419523Y-52435874D01*
X31281944Y-53034905D01*
X31222084Y-53650598D01*
X31242916Y-54275839D01*
X31268607Y-54487233D01*
X31395692Y-55078018D01*
X31600483Y-55648515D01*
X31876868Y-56190401D01*
X32218736Y-56695352D01*
X32619973Y-57155041D01*
X33074469Y-57561145D01*
X33576112Y-57905338D01*
X33909847Y-58084829D01*
X34492222Y-58322057D01*
X35085294Y-58478716D01*
X35682503Y-58557127D01*
X36026513Y-58558563D01*
X36026513Y-57615785D01*
X35632500Y-57607471D01*
X35295380Y-57575104D01*
X34989516Y-57513542D01*
X34689273Y-57417643D01*
X34373183Y-57284193D01*
X33925618Y-57037056D01*
X33501284Y-56724863D01*
X33117339Y-56362908D01*
X32790944Y-55966484D01*
X32644939Y-55743930D01*
X32450259Y-55366802D01*
X32286941Y-54948093D01*
X32163779Y-54516111D01*
X32089571Y-54099164D01*
X32073572Y-53905150D01*
X32068347Y-53788733D01*
X39931947Y-53788733D01*
X39913418Y-53989817D01*
X39871597Y-54306782D01*
X39806740Y-54631646D01*
X39726191Y-54932247D01*
X39648382Y-55150630D01*
X39380620Y-55690862D01*
X39056407Y-56168010D01*
X38675494Y-56582298D01*
X38237637Y-56933946D01*
X37742587Y-57223178D01*
X37190098Y-57450214D01*
X37042513Y-57497421D01*
X36880507Y-57543850D01*
X36738491Y-57576141D01*
X36594040Y-57596904D01*
X36424732Y-57608753D01*
X36208145Y-57614299D01*
X36026513Y-57615785D01*
X36026513Y-58558563D01*
X36277288Y-58559610D01*
X36863090Y-58488486D01*
X37433349Y-58346075D01*
X37981504Y-58134698D01*
X38500995Y-57856675D01*
X38985263Y-57514327D01*
X39427746Y-57109975D01*
X39821886Y-56645938D01*
X40161121Y-56124538D01*
X40320486Y-55817180D01*
X40553223Y-55231460D01*
X40704233Y-54629775D01*
X40773565Y-54018092D01*
X40761271Y-53402379D01*
G37*
X40761271Y-53402379D02*
X40667399Y-52788601D01*
X40491999Y-52182727D01*
X40286039Y-51693233D01*
X39980638Y-51153031D01*
X39617691Y-50669387D01*
X39203984Y-50243972D01*
X38746300Y-49878458D01*
X38251424Y-49574518D01*
X37726139Y-49333822D01*
X37177229Y-49158042D01*
X36611480Y-49048850D01*
X36035674Y-49007918D01*
X35456597Y-49036916D01*
X34881032Y-49137517D01*
X34315764Y-49311392D01*
X33767577Y-49560213D01*
X33243254Y-49885652D01*
X33169158Y-49939636D01*
X32687577Y-50348648D01*
X32268849Y-50809892D01*
X31915949Y-51316253D01*
X31631850Y-51860618D01*
X31419523Y-52435874D01*
X31281944Y-53034905D01*
X31222084Y-53650598D01*
X31242916Y-54275839D01*
X31268607Y-54487233D01*
X31395692Y-55078018D01*
X31600483Y-55648515D01*
X31876868Y-56190401D01*
X32218736Y-56695352D01*
X32619973Y-57155041D01*
X33074469Y-57561145D01*
X33576112Y-57905338D01*
X33909847Y-58084829D01*
X34492222Y-58322057D01*
X35085294Y-58478716D01*
X35682503Y-58557127D01*
X36026513Y-58558563D01*
X36026513Y-57615785D01*
X35632500Y-57607471D01*
X35295380Y-57575104D01*
X34989516Y-57513542D01*
X34689273Y-57417643D01*
X34373183Y-57284193D01*
X33925618Y-57037056D01*
X33501284Y-56724863D01*
X33117339Y-56362908D01*
X32790944Y-55966484D01*
X32644939Y-55743930D01*
X32450259Y-55366802D01*
X32286941Y-54948093D01*
X32163779Y-54516111D01*
X32089571Y-54099164D01*
X32073572Y-53905150D01*
X32068347Y-53788733D01*
X39931947Y-53788733D01*
X39913418Y-53989817D01*
X39871597Y-54306782D01*
X39806740Y-54631646D01*
X39726191Y-54932247D01*
X39648382Y-55150630D01*
X39380620Y-55690862D01*
X39056407Y-56168010D01*
X38675494Y-56582298D01*
X38237637Y-56933946D01*
X37742587Y-57223178D01*
X37190098Y-57450214D01*
X37042513Y-57497421D01*
X36880507Y-57543850D01*
X36738491Y-57576141D01*
X36594040Y-57596904D01*
X36424732Y-57608753D01*
X36208145Y-57614299D01*
X36026513Y-57615785D01*
X36026513Y-58558563D01*
X36277288Y-58559610D01*
X36863090Y-58488486D01*
X37433349Y-58346075D01*
X37981504Y-58134698D01*
X38500995Y-57856675D01*
X38985263Y-57514327D01*
X39427746Y-57109975D01*
X39821886Y-56645938D01*
X40161121Y-56124538D01*
X40320486Y-55817180D01*
X40553223Y-55231460D01*
X40704233Y-54629775D01*
X40773565Y-54018092D01*
X40761271Y-53402379D01*
G36*
X47586824Y-53701021D02*
G01*
X47535945Y-53560832D01*
X47456075Y-53362230D01*
X47351249Y-53114072D01*
X47225498Y-52825214D01*
X47082856Y-52504515D01*
X46927357Y-52160830D01*
X46763032Y-51803016D01*
X46593916Y-51439931D01*
X46424041Y-51080430D01*
X46257441Y-50733372D01*
X46098148Y-50407613D01*
X45950196Y-50112010D01*
X45837934Y-49894067D01*
X45067649Y-48499591D01*
X44219162Y-47106664D01*
X43298563Y-45724787D01*
X42311942Y-44363463D01*
X42189667Y-44202287D01*
X42064999Y-44038489D01*
X41958545Y-43898129D01*
X41881108Y-43795487D01*
X41843493Y-43744843D01*
X41842623Y-43743602D01*
X41789844Y-43722951D01*
X41661053Y-43696342D01*
X41464612Y-43664853D01*
X41208882Y-43629557D01*
X40902226Y-43591529D01*
X40553006Y-43551844D01*
X40169583Y-43511577D01*
X39760320Y-43471803D01*
X39646013Y-43461246D01*
X38314293Y-43359071D01*
X37020407Y-43300634D01*
X35744526Y-43286233D01*
X34466825Y-43316166D01*
X33167475Y-43390729D01*
X31826651Y-43510219D01*
X31115847Y-43589100D01*
X30870052Y-43618587D01*
X30646626Y-43646341D01*
X30462154Y-43670229D01*
X30333226Y-43688117D01*
X30284006Y-43696101D01*
X30216180Y-43739887D01*
X30107486Y-43848935D01*
X29962377Y-44016990D01*
X29785305Y-44237800D01*
X29580723Y-44505109D01*
X29353084Y-44812665D01*
X29106840Y-45154213D01*
X28846443Y-45523500D01*
X28576348Y-45914271D01*
X28301005Y-46320272D01*
X28024868Y-46735250D01*
X27752389Y-47152951D01*
X27488021Y-47567121D01*
X27236217Y-47971505D01*
X27212469Y-48010233D01*
X26904438Y-48531479D01*
X26576783Y-49119444D01*
X26236356Y-49760427D01*
X25890009Y-50440726D01*
X25544592Y-51146640D01*
X25206957Y-51864466D01*
X24883954Y-52580503D01*
X24611370Y-53212212D01*
X24525482Y-53416741D01*
X24452923Y-53590984D01*
X24399304Y-53721344D01*
X24370241Y-53794226D01*
X24366678Y-53804878D01*
X24383713Y-53843334D01*
X24429724Y-53948175D01*
X24499804Y-54108194D01*
X24589047Y-54312186D01*
X24692546Y-54548943D01*
X24739572Y-54656567D01*
X25206401Y-55700029D01*
X25665719Y-56673769D01*
X26125022Y-57591392D01*
X26591808Y-58466502D01*
X27073575Y-59312704D01*
X27577821Y-60143601D01*
X28112043Y-60972798D01*
X28683739Y-61813900D01*
X28685864Y-61816951D01*
X28807212Y-61989404D01*
X28955195Y-62196868D01*
X29121834Y-62428440D01*
X29299151Y-62673216D01*
X29479168Y-62920292D01*
X29653906Y-63158766D01*
X29815387Y-63377732D01*
X29955633Y-63566289D01*
X30066664Y-63713531D01*
X30140504Y-63808555D01*
X30161600Y-63833764D01*
X30211972Y-63850101D01*
X30331372Y-63873508D01*
X30504707Y-63901469D01*
X30716883Y-63931468D01*
X30851443Y-63948765D01*
X32297414Y-64106608D01*
X33696731Y-64214279D01*
X35068732Y-64271900D01*
X36204342Y-64278304D01*
X36204342Y-59413792D01*
X35794912Y-59413501D01*
X35401117Y-59392412D01*
X35074013Y-59353552D01*
X34425672Y-59206301D01*
X33801294Y-58981224D01*
X33207749Y-58683417D01*
X32651910Y-58317979D01*
X32140646Y-57890005D01*
X31680828Y-57404594D01*
X31279329Y-56866843D01*
X30948661Y-56293179D01*
X30810404Y-55984174D01*
X30677985Y-55629972D01*
X30562364Y-55263852D01*
X30474498Y-54919093D01*
X30443246Y-54758305D01*
X30407873Y-54466499D01*
X30387271Y-54120706D01*
X30381508Y-53750319D01*
X30390651Y-53384730D01*
X30414768Y-53053333D01*
X30438880Y-52867878D01*
X30587658Y-52208153D01*
X30812368Y-51579000D01*
X31108148Y-50985682D01*
X31470134Y-50433458D01*
X31893465Y-49927588D01*
X32373278Y-49473332D01*
X32904710Y-49075951D01*
X33482900Y-48740706D01*
X34102985Y-48472856D01*
X34659291Y-48302121D01*
X34990575Y-48237110D01*
X35377408Y-48191260D01*
X35792646Y-48165558D01*
X36209144Y-48160995D01*
X36599757Y-48178560D01*
X36936680Y-48219127D01*
X37612667Y-48378592D01*
X38255302Y-48615521D01*
X38861500Y-48928306D01*
X39428174Y-49315338D01*
X39952235Y-49775008D01*
X39985109Y-49807722D01*
X40445320Y-50324145D01*
X40830393Y-50876450D01*
X41142779Y-51469192D01*
X41384935Y-52106923D01*
X41537445Y-52688067D01*
X41570640Y-52872691D01*
X41593566Y-53077000D01*
X41607528Y-53319609D01*
X41613828Y-53619133D01*
X41614513Y-53788733D01*
X41608761Y-54180281D01*
X41589163Y-54511842D01*
X41552207Y-54807465D01*
X41494379Y-55091198D01*
X41412168Y-55387088D01*
X41355217Y-55563929D01*
X41101395Y-56193609D01*
X40777227Y-56782276D01*
X40388505Y-57324962D01*
X39941023Y-57816694D01*
X39440575Y-58252503D01*
X38892953Y-58627418D01*
X38303951Y-58936469D01*
X37679363Y-59174685D01*
X37024982Y-59337096D01*
X36939804Y-59352084D01*
X36596831Y-59393312D01*
X36204342Y-59413792D01*
X36204342Y-64278304D01*
X36432759Y-64279593D01*
X37808151Y-64237478D01*
X39214249Y-64145676D01*
X40619680Y-64009947D01*
X40965203Y-63972044D01*
X41237283Y-63941586D01*
X41446470Y-63915333D01*
X41603310Y-63890048D01*
X41718353Y-63862493D01*
X41802146Y-63829429D01*
X41865238Y-63787618D01*
X41918176Y-63733822D01*
X41971508Y-63664803D01*
X42035783Y-63577322D01*
X42037847Y-63574569D01*
X42625662Y-62778219D01*
X43187574Y-61990417D01*
X43717566Y-61220194D01*
X44112180Y-60623838D01*
X44112180Y-54762400D01*
X43822511Y-54723644D01*
X43566837Y-54611783D01*
X43355732Y-54433424D01*
X43199770Y-54195176D01*
X43197774Y-54190900D01*
X43135453Y-53975619D01*
X43122325Y-53730375D01*
X43158418Y-53494134D01*
X43197206Y-53386567D01*
X43351279Y-53143872D01*
X43555773Y-52960419D01*
X43797555Y-52842395D01*
X44063497Y-52795982D01*
X44340469Y-52827364D01*
X44368261Y-52835017D01*
X44638266Y-52953028D01*
X44848979Y-53129266D01*
X44995268Y-53356881D01*
X45072002Y-53629024D01*
X45082715Y-53788733D01*
X45045318Y-54080296D01*
X44938368Y-54330149D01*
X44769730Y-54530405D01*
X44547270Y-54673172D01*
X44278851Y-54750560D01*
X44112180Y-54762400D01*
X44112180Y-60623838D01*
X44209621Y-60476581D01*
X44657724Y-59768608D01*
X45055858Y-59105307D01*
X45290926Y-58691702D01*
X45457643Y-58384762D01*
X45638549Y-58041036D01*
X45829954Y-57668365D01*
X46028169Y-57274590D01*
X46229505Y-56867552D01*
X46430274Y-56455093D01*
X46626785Y-56045053D01*
X46815350Y-55645273D01*
X46992280Y-55263595D01*
X47153885Y-54907859D01*
X47296476Y-54585907D01*
X47416365Y-54305580D01*
X47509862Y-54074718D01*
X47573277Y-53901162D01*
X47602923Y-53792755D01*
X47604680Y-53773941D01*
X47586824Y-53701021D01*
G37*
X47586824Y-53701021D02*
X47535945Y-53560832D01*
X47456075Y-53362230D01*
X47351249Y-53114072D01*
X47225498Y-52825214D01*
X47082856Y-52504515D01*
X46927357Y-52160830D01*
X46763032Y-51803016D01*
X46593916Y-51439931D01*
X46424041Y-51080430D01*
X46257441Y-50733372D01*
X46098148Y-50407613D01*
X45950196Y-50112010D01*
X45837934Y-49894067D01*
X45067649Y-48499591D01*
X44219162Y-47106664D01*
X43298563Y-45724787D01*
X42311942Y-44363463D01*
X42189667Y-44202287D01*
X42064999Y-44038489D01*
X41958545Y-43898129D01*
X41881108Y-43795487D01*
X41843493Y-43744843D01*
X41842623Y-43743602D01*
X41789844Y-43722951D01*
X41661053Y-43696342D01*
X41464612Y-43664853D01*
X41208882Y-43629557D01*
X40902226Y-43591529D01*
X40553006Y-43551844D01*
X40169583Y-43511577D01*
X39760320Y-43471803D01*
X39646013Y-43461246D01*
X38314293Y-43359071D01*
X37020407Y-43300634D01*
X35744526Y-43286233D01*
X34466825Y-43316166D01*
X33167475Y-43390729D01*
X31826651Y-43510219D01*
X31115847Y-43589100D01*
X30870052Y-43618587D01*
X30646626Y-43646341D01*
X30462154Y-43670229D01*
X30333226Y-43688117D01*
X30284006Y-43696101D01*
X30216180Y-43739887D01*
X30107486Y-43848935D01*
X29962377Y-44016990D01*
X29785305Y-44237800D01*
X29580723Y-44505109D01*
X29353084Y-44812665D01*
X29106840Y-45154213D01*
X28846443Y-45523500D01*
X28576348Y-45914271D01*
X28301005Y-46320272D01*
X28024868Y-46735250D01*
X27752389Y-47152951D01*
X27488021Y-47567121D01*
X27236217Y-47971505D01*
X27212469Y-48010233D01*
X26904438Y-48531479D01*
X26576783Y-49119444D01*
X26236356Y-49760427D01*
X25890009Y-50440726D01*
X25544592Y-51146640D01*
X25206957Y-51864466D01*
X24883954Y-52580503D01*
X24611370Y-53212212D01*
X24525482Y-53416741D01*
X24452923Y-53590984D01*
X24399304Y-53721344D01*
X24370241Y-53794226D01*
X24366678Y-53804878D01*
X24383713Y-53843334D01*
X24429724Y-53948175D01*
X24499804Y-54108194D01*
X24589047Y-54312186D01*
X24692546Y-54548943D01*
X24739572Y-54656567D01*
X25206401Y-55700029D01*
X25665719Y-56673769D01*
X26125022Y-57591392D01*
X26591808Y-58466502D01*
X27073575Y-59312704D01*
X27577821Y-60143601D01*
X28112043Y-60972798D01*
X28683739Y-61813900D01*
X28685864Y-61816951D01*
X28807212Y-61989404D01*
X28955195Y-62196868D01*
X29121834Y-62428440D01*
X29299151Y-62673216D01*
X29479168Y-62920292D01*
X29653906Y-63158766D01*
X29815387Y-63377732D01*
X29955633Y-63566289D01*
X30066664Y-63713531D01*
X30140504Y-63808555D01*
X30161600Y-63833764D01*
X30211972Y-63850101D01*
X30331372Y-63873508D01*
X30504707Y-63901469D01*
X30716883Y-63931468D01*
X30851443Y-63948765D01*
X32297414Y-64106608D01*
X33696731Y-64214279D01*
X35068732Y-64271900D01*
X36204342Y-64278304D01*
X36204342Y-59413792D01*
X35794912Y-59413501D01*
X35401117Y-59392412D01*
X35074013Y-59353552D01*
X34425672Y-59206301D01*
X33801294Y-58981224D01*
X33207749Y-58683417D01*
X32651910Y-58317979D01*
X32140646Y-57890005D01*
X31680828Y-57404594D01*
X31279329Y-56866843D01*
X30948661Y-56293179D01*
X30810404Y-55984174D01*
X30677985Y-55629972D01*
X30562364Y-55263852D01*
X30474498Y-54919093D01*
X30443246Y-54758305D01*
X30407873Y-54466499D01*
X30387271Y-54120706D01*
X30381508Y-53750319D01*
X30390651Y-53384730D01*
X30414768Y-53053333D01*
X30438880Y-52867878D01*
X30587658Y-52208153D01*
X30812368Y-51579000D01*
X31108148Y-50985682D01*
X31470134Y-50433458D01*
X31893465Y-49927588D01*
X32373278Y-49473332D01*
X32904710Y-49075951D01*
X33482900Y-48740706D01*
X34102985Y-48472856D01*
X34659291Y-48302121D01*
X34990575Y-48237110D01*
X35377408Y-48191260D01*
X35792646Y-48165558D01*
X36209144Y-48160995D01*
X36599757Y-48178560D01*
X36936680Y-48219127D01*
X37612667Y-48378592D01*
X38255302Y-48615521D01*
X38861500Y-48928306D01*
X39428174Y-49315338D01*
X39952235Y-49775008D01*
X39985109Y-49807722D01*
X40445320Y-50324145D01*
X40830393Y-50876450D01*
X41142779Y-51469192D01*
X41384935Y-52106923D01*
X41537445Y-52688067D01*
X41570640Y-52872691D01*
X41593566Y-53077000D01*
X41607528Y-53319609D01*
X41613828Y-53619133D01*
X41614513Y-53788733D01*
X41608761Y-54180281D01*
X41589163Y-54511842D01*
X41552207Y-54807465D01*
X41494379Y-55091198D01*
X41412168Y-55387088D01*
X41355217Y-55563929D01*
X41101395Y-56193609D01*
X40777227Y-56782276D01*
X40388505Y-57324962D01*
X39941023Y-57816694D01*
X39440575Y-58252503D01*
X38892953Y-58627418D01*
X38303951Y-58936469D01*
X37679363Y-59174685D01*
X37024982Y-59337096D01*
X36939804Y-59352084D01*
X36596831Y-59393312D01*
X36204342Y-59413792D01*
X36204342Y-64278304D01*
X36432759Y-64279593D01*
X37808151Y-64237478D01*
X39214249Y-64145676D01*
X40619680Y-64009947D01*
X40965203Y-63972044D01*
X41237283Y-63941586D01*
X41446470Y-63915333D01*
X41603310Y-63890048D01*
X41718353Y-63862493D01*
X41802146Y-63829429D01*
X41865238Y-63787618D01*
X41918176Y-63733822D01*
X41971508Y-63664803D01*
X42035783Y-63577322D01*
X42037847Y-63574569D01*
X42625662Y-62778219D01*
X43187574Y-61990417D01*
X43717566Y-61220194D01*
X44112180Y-60623838D01*
X44112180Y-54762400D01*
X43822511Y-54723644D01*
X43566837Y-54611783D01*
X43355732Y-54433424D01*
X43199770Y-54195176D01*
X43197774Y-54190900D01*
X43135453Y-53975619D01*
X43122325Y-53730375D01*
X43158418Y-53494134D01*
X43197206Y-53386567D01*
X43351279Y-53143872D01*
X43555773Y-52960419D01*
X43797555Y-52842395D01*
X44063497Y-52795982D01*
X44340469Y-52827364D01*
X44368261Y-52835017D01*
X44638266Y-52953028D01*
X44848979Y-53129266D01*
X44995268Y-53356881D01*
X45072002Y-53629024D01*
X45082715Y-53788733D01*
X45045318Y-54080296D01*
X44938368Y-54330149D01*
X44769730Y-54530405D01*
X44547270Y-54673172D01*
X44278851Y-54750560D01*
X44112180Y-54762400D01*
X44112180Y-60623838D01*
X44209621Y-60476581D01*
X44657724Y-59768608D01*
X45055858Y-59105307D01*
X45290926Y-58691702D01*
X45457643Y-58384762D01*
X45638549Y-58041036D01*
X45829954Y-57668365D01*
X46028169Y-57274590D01*
X46229505Y-56867552D01*
X46430274Y-56455093D01*
X46626785Y-56045053D01*
X46815350Y-55645273D01*
X46992280Y-55263595D01*
X47153885Y-54907859D01*
X47296476Y-54585907D01*
X47416365Y-54305580D01*
X47509862Y-54074718D01*
X47573277Y-53901162D01*
X47602923Y-53792755D01*
X47604680Y-53773941D01*
X47586824Y-53701021D01*
D13*
X33801280Y-55885080D02*
G75*
G03*
X33801280Y-55885080I-700000J0D01*
G01*
X35884080Y-55885080D02*
G75*
G03*
X35884080Y-55885080I-700000J0D01*
G01*
X24470579Y-86539800D02*
X24145021Y-86539800D01*
X24470579Y-85519800D02*
X24145021Y-85519800D01*
X24267379Y-16655932D02*
X23941821Y-16655932D01*
X24267379Y-15635932D02*
X23941821Y-15635932D01*
D12*
G36*
X59579469Y-87765066D02*
G01*
X59134845Y-87681245D01*
X59007347Y-87371960D01*
X58879849Y-87062674D01*
X59132154Y-86691634D01*
X59202404Y-86587723D01*
X59265128Y-86493793D01*
X59317462Y-86414228D01*
X59356543Y-86353410D01*
X59379507Y-86315723D01*
X59384458Y-86305459D01*
X59371724Y-86286970D01*
X59336518Y-86247460D01*
X59283338Y-86191358D01*
X59216682Y-86123093D01*
X59141046Y-86047094D01*
X59060928Y-85967788D01*
X58980826Y-85889605D01*
X58905236Y-85816973D01*
X58838655Y-85754321D01*
X58785582Y-85706077D01*
X58750513Y-85676670D01*
X58738777Y-85669639D01*
X58717140Y-85679757D01*
X58669738Y-85708121D01*
X58601207Y-85751751D01*
X58516185Y-85807662D01*
X58419307Y-85872874D01*
X58364050Y-85910661D01*
X58263152Y-85979537D01*
X58172101Y-86040740D01*
X58095430Y-86091302D01*
X58037672Y-86128252D01*
X58003357Y-86148622D01*
X57996146Y-86151683D01*
X57975652Y-86144744D01*
X57927887Y-86125829D01*
X57859568Y-86097793D01*
X57777411Y-86063489D01*
X57688130Y-86025771D01*
X57598442Y-85987493D01*
X57515062Y-85951510D01*
X57444706Y-85920674D01*
X57394090Y-85897841D01*
X57369929Y-85885863D01*
X57368978Y-85885156D01*
X57364364Y-85866349D01*
X57354072Y-85816262D01*
X57339113Y-85740087D01*
X57320499Y-85643015D01*
X57299241Y-85530237D01*
X57286982Y-85464438D01*
X57264038Y-85343930D01*
X57242205Y-85235083D01*
X57222678Y-85143404D01*
X57206652Y-85074399D01*
X57195321Y-85033576D01*
X57191726Y-85025369D01*
X57167394Y-85017332D01*
X57112441Y-85010847D01*
X57033292Y-85005910D01*
X56936374Y-85002516D01*
X56828113Y-85000662D01*
X56714935Y-85000342D01*
X56603265Y-85001553D01*
X56499532Y-85004290D01*
X56410159Y-85008549D01*
X56341574Y-85014325D01*
X56300203Y-85021613D01*
X56291590Y-85025985D01*
X56281267Y-85052116D01*
X56266508Y-85107487D01*
X56249048Y-85184773D01*
X56230620Y-85276650D01*
X56224659Y-85308722D01*
X56196334Y-85463356D01*
X56173524Y-85585505D01*
X56155320Y-85679207D01*
X56140817Y-85748496D01*
X56129108Y-85797409D01*
X56119285Y-85829983D01*
X56110444Y-85850252D01*
X56101676Y-85862254D01*
X56099943Y-85863933D01*
X56072029Y-85880696D01*
X56017705Y-85906266D01*
X55943623Y-85938092D01*
X55856435Y-85973620D01*
X55762792Y-86010297D01*
X55669348Y-86045569D01*
X55582753Y-86076884D01*
X55509660Y-86101687D01*
X55456722Y-86117426D01*
X55430589Y-86121548D01*
X55429674Y-86121204D01*
X55408314Y-86107239D01*
X55361316Y-86075558D01*
X55293573Y-86029489D01*
X55209977Y-85972362D01*
X55115418Y-85907507D01*
X55088546Y-85889037D01*
X54991125Y-85823181D01*
X54902237Y-85765230D01*
X54826988Y-85718342D01*
X54770480Y-85685673D01*
X54737819Y-85670380D01*
X54733807Y-85669639D01*
X54712716Y-85682488D01*
X54670936Y-85717992D01*
X54612955Y-85771587D01*
X54543265Y-85838709D01*
X54466355Y-85914793D01*
X54386717Y-85995276D01*
X54308839Y-86075593D01*
X54237214Y-86151181D01*
X54176330Y-86217475D01*
X54130679Y-86269911D01*
X54104750Y-86303925D01*
X54100517Y-86313335D01*
X54110488Y-86335237D01*
X54137380Y-86380080D01*
X54176664Y-86440559D01*
X54208283Y-86487091D01*
X54266302Y-86571405D01*
X54334616Y-86671254D01*
X54402821Y-86771407D01*
X54439325Y-86825253D01*
X54562600Y-87007509D01*
X54479880Y-87160499D01*
X54443641Y-87230198D01*
X54415474Y-87289466D01*
X54399409Y-87329569D01*
X54397174Y-87339777D01*
X54413678Y-87352051D01*
X54460318Y-87376267D01*
X54532791Y-87410617D01*
X54626794Y-87453292D01*
X54738026Y-87502486D01*
X54862185Y-87556390D01*
X54994968Y-87613196D01*
X55132073Y-87671098D01*
X55269198Y-87728287D01*
X55402042Y-87782956D01*
X55526302Y-87833296D01*
X55637675Y-87877500D01*
X55731861Y-87913761D01*
X55804556Y-87940271D01*
X55851459Y-87955222D01*
X55867567Y-87957626D01*
X55888114Y-87938569D01*
X55921467Y-87896844D01*
X55960698Y-87841174D01*
X55963801Y-87836502D01*
X56078977Y-87692616D01*
X56213347Y-87576597D01*
X56362616Y-87489450D01*
X56522487Y-87432181D01*
X56688663Y-87405794D01*
X56856848Y-87411295D01*
X57022745Y-87449690D01*
X57182058Y-87521985D01*
X57216913Y-87543254D01*
X57357663Y-87653884D01*
X57470686Y-87784578D01*
X57555397Y-87930816D01*
X57611206Y-88088072D01*
X57637526Y-88251823D01*
X57633770Y-88417547D01*
X57599350Y-88580718D01*
X57533677Y-88736815D01*
X57436165Y-88881313D01*
X57396587Y-88926011D01*
X57272697Y-89039768D01*
X57142276Y-89122662D01*
X56996085Y-89179524D01*
X56851312Y-89211193D01*
X56688540Y-89219011D01*
X56524960Y-89192942D01*
X56366102Y-89135635D01*
X56217494Y-89049736D01*
X56084665Y-88937894D01*
X55973144Y-88802757D01*
X55961389Y-88784997D01*
X55922892Y-88728730D01*
X55889537Y-88685957D01*
X55868240Y-88665508D01*
X55867567Y-88665211D01*
X55844529Y-88669601D01*
X55792243Y-88687004D01*
X55715010Y-88715612D01*
X55617132Y-88753615D01*
X55502909Y-88799206D01*
X55376642Y-88850577D01*
X55242633Y-88905918D01*
X55105182Y-88963422D01*
X54968592Y-89021279D01*
X54837163Y-89077682D01*
X54715195Y-89130822D01*
X54606991Y-89178890D01*
X54516851Y-89220079D01*
X54449077Y-89252579D01*
X54407970Y-89274583D01*
X54397174Y-89283444D01*
X54405581Y-89310520D01*
X54428128Y-89361183D01*
X54460787Y-89426697D01*
X54479880Y-89462721D01*
X54562600Y-89615712D01*
X54439325Y-89797968D01*
X54376172Y-89891005D01*
X54306673Y-89992865D01*
X54241235Y-90088318D01*
X54208283Y-90136130D01*
X54163127Y-90203375D01*
X54127343Y-90260316D01*
X54105462Y-90299526D01*
X54100837Y-90312261D01*
X54113315Y-90330797D01*
X54148148Y-90371821D01*
X54201722Y-90431355D01*
X54270417Y-90505422D01*
X54350619Y-90590045D01*
X54402114Y-90643565D01*
X54494114Y-90737199D01*
X54576401Y-90818121D01*
X54645455Y-90883057D01*
X54697756Y-90928738D01*
X54729784Y-90951891D01*
X54736284Y-90954112D01*
X54761006Y-90943804D01*
X54810995Y-90915319D01*
X54881188Y-90871817D01*
X54966525Y-90816457D01*
X55061944Y-90752400D01*
X55088546Y-90734183D01*
X55185233Y-90667807D01*
X55272283Y-90608258D01*
X55344805Y-90558864D01*
X55397907Y-90522955D01*
X55426697Y-90503861D01*
X55429674Y-90502016D01*
X55452618Y-90504775D01*
X55503064Y-90519418D01*
X55574359Y-90543393D01*
X55659853Y-90574146D01*
X55752893Y-90609124D01*
X55846826Y-90645773D01*
X55935001Y-90681541D01*
X56010766Y-90713874D01*
X56067469Y-90740218D01*
X56098457Y-90758022D01*
X56099943Y-90759287D01*
X56108799Y-90770174D01*
X56117557Y-90788562D01*
X56127123Y-90818486D01*
X56138404Y-90863983D01*
X56152307Y-90929089D01*
X56169737Y-91017841D01*
X56191602Y-91134273D01*
X56218809Y-91282422D01*
X56224659Y-91314498D01*
X56243026Y-91409566D01*
X56260995Y-91492445D01*
X56276831Y-91555810D01*
X56288800Y-91592338D01*
X56291590Y-91597236D01*
X56316328Y-91605307D01*
X56371610Y-91611867D01*
X56451011Y-91616913D01*
X56548104Y-91620439D01*
X56656462Y-91622441D01*
X56769660Y-91622916D01*
X56881272Y-91621857D01*
X56984871Y-91619262D01*
X57074032Y-91615126D01*
X57142328Y-91609443D01*
X57183334Y-91602211D01*
X57191726Y-91597851D01*
X57200192Y-91573578D01*
X57213965Y-91518306D01*
X57231850Y-91437542D01*
X57252652Y-91336792D01*
X57275177Y-91221563D01*
X57286982Y-91158782D01*
X57309249Y-91039667D01*
X57329421Y-90933445D01*
X57346485Y-90845307D01*
X57359431Y-90780446D01*
X57367245Y-90744054D01*
X57368978Y-90738064D01*
X57388510Y-90727941D01*
X57435557Y-90706542D01*
X57503397Y-90676719D01*
X57585309Y-90641325D01*
X57674572Y-90603212D01*
X57764465Y-90565233D01*
X57848265Y-90530240D01*
X57919253Y-90501086D01*
X57970706Y-90480623D01*
X57995903Y-90471703D01*
X57997004Y-90471537D01*
X58016881Y-90481649D01*
X58062623Y-90509997D01*
X58129683Y-90553603D01*
X58213516Y-90609486D01*
X58309574Y-90674667D01*
X58364750Y-90712559D01*
X58465919Y-90781605D01*
X58557770Y-90842930D01*
X58635656Y-90893543D01*
X58694931Y-90930451D01*
X58730949Y-90950662D01*
X58739023Y-90953581D01*
X58757816Y-90941033D01*
X58797943Y-90906343D01*
X58854907Y-90853943D01*
X58924215Y-90788264D01*
X59001369Y-90713736D01*
X59081875Y-90634793D01*
X59161237Y-90555863D01*
X59234960Y-90481380D01*
X59298548Y-90415774D01*
X59347506Y-90363476D01*
X59377339Y-90328919D01*
X59384458Y-90317358D01*
X59374447Y-90298534D01*
X59346322Y-90253511D01*
X59302946Y-90186667D01*
X59247182Y-90102379D01*
X59181894Y-90005024D01*
X59132154Y-89931587D01*
X58879849Y-89560547D01*
X59134845Y-88941975D01*
X59579469Y-88858155D01*
X60024093Y-88774334D01*
X60024093Y-87848886D01*
X59579469Y-87765066D01*
G37*
X59579469Y-87765066D02*
X59134845Y-87681245D01*
X59007347Y-87371960D01*
X58879849Y-87062674D01*
X59132154Y-86691634D01*
X59202404Y-86587723D01*
X59265128Y-86493793D01*
X59317462Y-86414228D01*
X59356543Y-86353410D01*
X59379507Y-86315723D01*
X59384458Y-86305459D01*
X59371724Y-86286970D01*
X59336518Y-86247460D01*
X59283338Y-86191358D01*
X59216682Y-86123093D01*
X59141046Y-86047094D01*
X59060928Y-85967788D01*
X58980826Y-85889605D01*
X58905236Y-85816973D01*
X58838655Y-85754321D01*
X58785582Y-85706077D01*
X58750513Y-85676670D01*
X58738777Y-85669639D01*
X58717140Y-85679757D01*
X58669738Y-85708121D01*
X58601207Y-85751751D01*
X58516185Y-85807662D01*
X58419307Y-85872874D01*
X58364050Y-85910661D01*
X58263152Y-85979537D01*
X58172101Y-86040740D01*
X58095430Y-86091302D01*
X58037672Y-86128252D01*
X58003357Y-86148622D01*
X57996146Y-86151683D01*
X57975652Y-86144744D01*
X57927887Y-86125829D01*
X57859568Y-86097793D01*
X57777411Y-86063489D01*
X57688130Y-86025771D01*
X57598442Y-85987493D01*
X57515062Y-85951510D01*
X57444706Y-85920674D01*
X57394090Y-85897841D01*
X57369929Y-85885863D01*
X57368978Y-85885156D01*
X57364364Y-85866349D01*
X57354072Y-85816262D01*
X57339113Y-85740087D01*
X57320499Y-85643015D01*
X57299241Y-85530237D01*
X57286982Y-85464438D01*
X57264038Y-85343930D01*
X57242205Y-85235083D01*
X57222678Y-85143404D01*
X57206652Y-85074399D01*
X57195321Y-85033576D01*
X57191726Y-85025369D01*
X57167394Y-85017332D01*
X57112441Y-85010847D01*
X57033292Y-85005910D01*
X56936374Y-85002516D01*
X56828113Y-85000662D01*
X56714935Y-85000342D01*
X56603265Y-85001553D01*
X56499532Y-85004290D01*
X56410159Y-85008549D01*
X56341574Y-85014325D01*
X56300203Y-85021613D01*
X56291590Y-85025985D01*
X56281267Y-85052116D01*
X56266508Y-85107487D01*
X56249048Y-85184773D01*
X56230620Y-85276650D01*
X56224659Y-85308722D01*
X56196334Y-85463356D01*
X56173524Y-85585505D01*
X56155320Y-85679207D01*
X56140817Y-85748496D01*
X56129108Y-85797409D01*
X56119285Y-85829983D01*
X56110444Y-85850252D01*
X56101676Y-85862254D01*
X56099943Y-85863933D01*
X56072029Y-85880696D01*
X56017705Y-85906266D01*
X55943623Y-85938092D01*
X55856435Y-85973620D01*
X55762792Y-86010297D01*
X55669348Y-86045569D01*
X55582753Y-86076884D01*
X55509660Y-86101687D01*
X55456722Y-86117426D01*
X55430589Y-86121548D01*
X55429674Y-86121204D01*
X55408314Y-86107239D01*
X55361316Y-86075558D01*
X55293573Y-86029489D01*
X55209977Y-85972362D01*
X55115418Y-85907507D01*
X55088546Y-85889037D01*
X54991125Y-85823181D01*
X54902237Y-85765230D01*
X54826988Y-85718342D01*
X54770480Y-85685673D01*
X54737819Y-85670380D01*
X54733807Y-85669639D01*
X54712716Y-85682488D01*
X54670936Y-85717992D01*
X54612955Y-85771587D01*
X54543265Y-85838709D01*
X54466355Y-85914793D01*
X54386717Y-85995276D01*
X54308839Y-86075593D01*
X54237214Y-86151181D01*
X54176330Y-86217475D01*
X54130679Y-86269911D01*
X54104750Y-86303925D01*
X54100517Y-86313335D01*
X54110488Y-86335237D01*
X54137380Y-86380080D01*
X54176664Y-86440559D01*
X54208283Y-86487091D01*
X54266302Y-86571405D01*
X54334616Y-86671254D01*
X54402821Y-86771407D01*
X54439325Y-86825253D01*
X54562600Y-87007509D01*
X54479880Y-87160499D01*
X54443641Y-87230198D01*
X54415474Y-87289466D01*
X54399409Y-87329569D01*
X54397174Y-87339777D01*
X54413678Y-87352051D01*
X54460318Y-87376267D01*
X54532791Y-87410617D01*
X54626794Y-87453292D01*
X54738026Y-87502486D01*
X54862185Y-87556390D01*
X54994968Y-87613196D01*
X55132073Y-87671098D01*
X55269198Y-87728287D01*
X55402042Y-87782956D01*
X55526302Y-87833296D01*
X55637675Y-87877500D01*
X55731861Y-87913761D01*
X55804556Y-87940271D01*
X55851459Y-87955222D01*
X55867567Y-87957626D01*
X55888114Y-87938569D01*
X55921467Y-87896844D01*
X55960698Y-87841174D01*
X55963801Y-87836502D01*
X56078977Y-87692616D01*
X56213347Y-87576597D01*
X56362616Y-87489450D01*
X56522487Y-87432181D01*
X56688663Y-87405794D01*
X56856848Y-87411295D01*
X57022745Y-87449690D01*
X57182058Y-87521985D01*
X57216913Y-87543254D01*
X57357663Y-87653884D01*
X57470686Y-87784578D01*
X57555397Y-87930816D01*
X57611206Y-88088072D01*
X57637526Y-88251823D01*
X57633770Y-88417547D01*
X57599350Y-88580718D01*
X57533677Y-88736815D01*
X57436165Y-88881313D01*
X57396587Y-88926011D01*
X57272697Y-89039768D01*
X57142276Y-89122662D01*
X56996085Y-89179524D01*
X56851312Y-89211193D01*
X56688540Y-89219011D01*
X56524960Y-89192942D01*
X56366102Y-89135635D01*
X56217494Y-89049736D01*
X56084665Y-88937894D01*
X55973144Y-88802757D01*
X55961389Y-88784997D01*
X55922892Y-88728730D01*
X55889537Y-88685957D01*
X55868240Y-88665508D01*
X55867567Y-88665211D01*
X55844529Y-88669601D01*
X55792243Y-88687004D01*
X55715010Y-88715612D01*
X55617132Y-88753615D01*
X55502909Y-88799206D01*
X55376642Y-88850577D01*
X55242633Y-88905918D01*
X55105182Y-88963422D01*
X54968592Y-89021279D01*
X54837163Y-89077682D01*
X54715195Y-89130822D01*
X54606991Y-89178890D01*
X54516851Y-89220079D01*
X54449077Y-89252579D01*
X54407970Y-89274583D01*
X54397174Y-89283444D01*
X54405581Y-89310520D01*
X54428128Y-89361183D01*
X54460787Y-89426697D01*
X54479880Y-89462721D01*
X54562600Y-89615712D01*
X54439325Y-89797968D01*
X54376172Y-89891005D01*
X54306673Y-89992865D01*
X54241235Y-90088318D01*
X54208283Y-90136130D01*
X54163127Y-90203375D01*
X54127343Y-90260316D01*
X54105462Y-90299526D01*
X54100837Y-90312261D01*
X54113315Y-90330797D01*
X54148148Y-90371821D01*
X54201722Y-90431355D01*
X54270417Y-90505422D01*
X54350619Y-90590045D01*
X54402114Y-90643565D01*
X54494114Y-90737199D01*
X54576401Y-90818121D01*
X54645455Y-90883057D01*
X54697756Y-90928738D01*
X54729784Y-90951891D01*
X54736284Y-90954112D01*
X54761006Y-90943804D01*
X54810995Y-90915319D01*
X54881188Y-90871817D01*
X54966525Y-90816457D01*
X55061944Y-90752400D01*
X55088546Y-90734183D01*
X55185233Y-90667807D01*
X55272283Y-90608258D01*
X55344805Y-90558864D01*
X55397907Y-90522955D01*
X55426697Y-90503861D01*
X55429674Y-90502016D01*
X55452618Y-90504775D01*
X55503064Y-90519418D01*
X55574359Y-90543393D01*
X55659853Y-90574146D01*
X55752893Y-90609124D01*
X55846826Y-90645773D01*
X55935001Y-90681541D01*
X56010766Y-90713874D01*
X56067469Y-90740218D01*
X56098457Y-90758022D01*
X56099943Y-90759287D01*
X56108799Y-90770174D01*
X56117557Y-90788562D01*
X56127123Y-90818486D01*
X56138404Y-90863983D01*
X56152307Y-90929089D01*
X56169737Y-91017841D01*
X56191602Y-91134273D01*
X56218809Y-91282422D01*
X56224659Y-91314498D01*
X56243026Y-91409566D01*
X56260995Y-91492445D01*
X56276831Y-91555810D01*
X56288800Y-91592338D01*
X56291590Y-91597236D01*
X56316328Y-91605307D01*
X56371610Y-91611867D01*
X56451011Y-91616913D01*
X56548104Y-91620439D01*
X56656462Y-91622441D01*
X56769660Y-91622916D01*
X56881272Y-91621857D01*
X56984871Y-91619262D01*
X57074032Y-91615126D01*
X57142328Y-91609443D01*
X57183334Y-91602211D01*
X57191726Y-91597851D01*
X57200192Y-91573578D01*
X57213965Y-91518306D01*
X57231850Y-91437542D01*
X57252652Y-91336792D01*
X57275177Y-91221563D01*
X57286982Y-91158782D01*
X57309249Y-91039667D01*
X57329421Y-90933445D01*
X57346485Y-90845307D01*
X57359431Y-90780446D01*
X57367245Y-90744054D01*
X57368978Y-90738064D01*
X57388510Y-90727941D01*
X57435557Y-90706542D01*
X57503397Y-90676719D01*
X57585309Y-90641325D01*
X57674572Y-90603212D01*
X57764465Y-90565233D01*
X57848265Y-90530240D01*
X57919253Y-90501086D01*
X57970706Y-90480623D01*
X57995903Y-90471703D01*
X57997004Y-90471537D01*
X58016881Y-90481649D01*
X58062623Y-90509997D01*
X58129683Y-90553603D01*
X58213516Y-90609486D01*
X58309574Y-90674667D01*
X58364750Y-90712559D01*
X58465919Y-90781605D01*
X58557770Y-90842930D01*
X58635656Y-90893543D01*
X58694931Y-90930451D01*
X58730949Y-90950662D01*
X58739023Y-90953581D01*
X58757816Y-90941033D01*
X58797943Y-90906343D01*
X58854907Y-90853943D01*
X58924215Y-90788264D01*
X59001369Y-90713736D01*
X59081875Y-90634793D01*
X59161237Y-90555863D01*
X59234960Y-90481380D01*
X59298548Y-90415774D01*
X59347506Y-90363476D01*
X59377339Y-90328919D01*
X59384458Y-90317358D01*
X59374447Y-90298534D01*
X59346322Y-90253511D01*
X59302946Y-90186667D01*
X59247182Y-90102379D01*
X59181894Y-90005024D01*
X59132154Y-89931587D01*
X58879849Y-89560547D01*
X59134845Y-88941975D01*
X59579469Y-88858155D01*
X60024093Y-88774334D01*
X60024093Y-87848886D01*
X59579469Y-87765066D01*
D13*
X12346800Y-82420000D02*
X12346800Y-82220000D01*
X8206800Y-85220000D02*
X7996800Y-85020000D01*
X8206800Y-83920000D02*
X7996800Y-84120000D01*
X9496800Y-85220000D02*
X8206800Y-85220000D01*
X7996800Y-85020000D02*
X7996800Y-84120000D01*
X8206800Y-83920000D02*
X9496800Y-83920000D01*
X9496800Y-86670000D02*
X9496800Y-80970000D01*
X12346800Y-85420000D02*
X12346800Y-83720000D01*
X11296800Y-87270000D02*
X10506800Y-87270000D01*
X10506800Y-80370000D02*
X11296800Y-80370000D01*
X17337000Y-30708600D02*
G75*
G03*
X17337000Y-30708600I-700000J0D01*
G01*
X6872200Y-73588880D02*
G75*
G03*
X6872200Y-73588880I-700000J0D01*
G01*
X3052040Y-73690480D02*
G75*
G03*
X3052040Y-73690480I-700000J0D01*
G01*
X3052040Y-71150480D02*
G75*
G03*
X3052040Y-71150480I-700000J0D01*
G01*
X6872200Y-71003160D02*
G75*
G03*
X6872200Y-71003160I-700000J0D01*
G01*
X5012920Y-16337280D02*
G75*
G03*
X5012920Y-16337280I-700000J0D01*
G01*
X17337000Y-28041600D02*
G75*
G03*
X17337000Y-28041600I-700000J0D01*
G01*
X3052040Y-56677560D02*
G75*
G03*
X3052040Y-56677560I-700000J0D01*
G01*
X5012920Y-13202920D02*
G75*
G03*
X5012920Y-13202920I-700000J0D01*
G01*
X5012920Y-10068560D02*
G75*
G03*
X5012920Y-10068560I-700000J0D01*
G01*
X3052040Y-54107080D02*
G75*
G03*
X3052040Y-54107080I-700000J0D01*
G01*
X3052040Y-51607720D02*
G75*
G03*
X3052040Y-51607720I-700000J0D01*
G01*
X6872200Y-36250880D02*
G75*
G03*
X6872200Y-36250880I-700000J0D01*
G01*
X6872200Y-31120080D02*
G75*
G03*
X6872200Y-31120080I-700000J0D01*
G01*
X6872200Y-33812480D02*
G75*
G03*
X6872200Y-33812480I-700000J0D01*
G01*
X3118080Y-31125160D02*
G75*
G03*
X3118080Y-31125160I-700000J0D01*
G01*
X3118080Y-33792160D02*
G75*
G03*
X3118080Y-33792160I-700000J0D01*
G01*
X6872200Y-56662320D02*
G75*
G03*
X6872200Y-56662320I-700000J0D01*
G01*
X6872200Y-54076600D02*
G75*
G03*
X6872200Y-54076600I-700000J0D01*
G01*
X17337000Y-24942800D02*
G75*
G03*
X17337000Y-24942800I-700000J0D01*
G01*
X17337000Y-20574000D02*
G75*
G03*
X17337000Y-20574000I-700000J0D01*
G01*
X17337000Y-18008600D02*
G75*
G03*
X17337000Y-18008600I-700000J0D01*
G01*
X3118080Y-36332160D02*
G75*
G03*
X3118080Y-36332160I-700000J0D01*
G01*
X6872200Y-51490880D02*
G75*
G03*
X6872200Y-51490880I-700000J0D01*
G01*
X22047200Y-58572400D02*
X26619200Y-58572400D01*
X22047200Y-61366400D02*
X22047200Y-62636400D01*
X22047200Y-62636400D02*
X26619200Y-62636400D01*
X2515840Y-65387960D02*
X2065840Y-64937960D01*
X2515840Y-61987960D02*
X2065840Y-62437960D01*
X7115840Y-61987960D02*
X7565840Y-62437960D01*
X7115840Y-65387960D02*
X7565840Y-64937960D01*
X5815840Y-60937960D02*
X3815840Y-60937960D01*
X2065840Y-64937960D02*
X2065840Y-62437960D01*
X5815840Y-66437960D02*
X3815840Y-66437960D01*
X7565840Y-64937960D02*
X7565840Y-62437960D01*
X2566640Y-45413400D02*
X2116640Y-44963400D01*
X2566640Y-42013400D02*
X2116640Y-42463400D01*
X7166640Y-42013400D02*
X7616640Y-42463400D01*
X7166640Y-45413400D02*
X7616640Y-44963400D01*
X5866640Y-40963400D02*
X3866640Y-40963400D01*
X2116640Y-44963400D02*
X2116640Y-42463400D01*
X5866640Y-46463400D02*
X3866640Y-46463400D01*
X7616640Y-44963400D02*
X7616640Y-42463400D01*
X2561560Y-25322000D02*
X2111560Y-24872000D01*
X2561560Y-21922000D02*
X2111560Y-22372000D01*
X7161560Y-21922000D02*
X7611560Y-22372000D01*
X7161560Y-25322000D02*
X7611560Y-24872000D01*
X5861560Y-20872000D02*
X3861560Y-20872000D01*
X2111560Y-24872000D02*
X2111560Y-22372000D01*
X5861560Y-26372000D02*
X3861560Y-26372000D01*
X7611560Y-24872000D02*
X7611560Y-22372000D01*
D12*
X26346800Y-87996000D02*
X24046800Y-87996000D01*
X26346800Y-89296000D02*
X24046800Y-89296000D01*
D14*
X23196800Y-87146000D02*
X27196800Y-87146000D01*
X27196800Y-87146000D02*
X27196800Y-90146000D01*
X27196800Y-90146000D02*
X23196800Y-90146000D01*
X23196800Y-90146000D02*
X23196800Y-87146000D01*
X25041800Y-88646000D02*
G75*
G03*
X25041800Y-88646000I-625000J0D01*
G01*
X27196800Y-89646000D02*
X26696800Y-90146000D01*
D12*
X26346800Y-18146000D02*
X24046800Y-18146000D01*
X26346800Y-19446000D02*
X24046800Y-19446000D01*
D14*
X23196800Y-17296000D02*
X27196800Y-17296000D01*
X27196800Y-17296000D02*
X27196800Y-20296000D01*
X27196800Y-20296000D02*
X23196800Y-20296000D01*
X23196800Y-20296000D02*
X23196800Y-17296000D01*
X25041800Y-18796000D02*
G75*
G03*
X25041800Y-18796000I-625000J0D01*
G01*
X27196800Y-19796000D02*
X26696800Y-20296000D01*
D13*
X33934400Y-42062400D02*
X38506400Y-42062400D01*
X33934400Y-40792400D02*
X33934400Y-42062400D01*
X33934400Y-37998400D02*
X38506400Y-37998400D01*
X26416000Y-38760400D02*
X30988000Y-38760400D01*
X26416000Y-41554400D02*
X26416000Y-42824400D01*
X26416000Y-42824400D02*
X30988000Y-42824400D01*
X22098000Y-48920400D02*
X26670000Y-48920400D01*
X22098000Y-47650400D02*
X22098000Y-48920400D01*
X22098000Y-44856400D02*
X26670000Y-44856400D01*
X18948400Y-51714400D02*
X23520400Y-51714400D01*
X18948400Y-54508400D02*
X18948400Y-55778400D01*
X18948400Y-55778400D02*
X23520400Y-55778400D01*
X26466800Y-68681600D02*
X31038800Y-68681600D01*
X26466800Y-67411600D02*
X26466800Y-68681600D01*
X26466800Y-64617600D02*
X31038800Y-64617600D01*
X33934400Y-65278000D02*
X38506400Y-65278000D01*
X33934400Y-68072000D02*
X33934400Y-69342000D01*
X33934400Y-69342000D02*
X38506400Y-69342000D01*
X41452800Y-68732400D02*
X46024800Y-68732400D01*
X41452800Y-67462400D02*
X41452800Y-68732400D01*
X41452800Y-64668400D02*
X46024800Y-64668400D01*
X45821600Y-58470800D02*
X50393600Y-58470800D01*
X45821600Y-61264800D02*
X45821600Y-62534800D01*
X45821600Y-62534800D02*
X50393600Y-62534800D01*
X48920400Y-55727600D02*
X53492400Y-55727600D01*
X48920400Y-54457600D02*
X48920400Y-55727600D01*
X48920400Y-51663600D02*
X53492400Y-51663600D01*
X45770800Y-44856400D02*
X50342800Y-44856400D01*
X45770800Y-47650400D02*
X45770800Y-48920400D01*
X45770800Y-48920400D02*
X50342800Y-48920400D01*
X41402000Y-42722800D02*
X45974000Y-42722800D01*
X41402000Y-41452800D02*
X41402000Y-42722800D01*
X41402000Y-38658800D02*
X45974000Y-38658800D01*
D15*
X33990647Y-54249830D02*
X33704933Y-54249830D01*
X33847790Y-54749830D02*
X33847790Y-54249830D01*
X33538266Y-54749830D02*
X33538266Y-54249830D01*
X33347790Y-54249830D01*
X33300171Y-54273640D01*
X33276361Y-54297449D01*
X33252552Y-54345068D01*
X33252552Y-54416497D01*
X33276361Y-54464116D01*
X33300171Y-54487925D01*
X33347790Y-54511735D01*
X33538266Y-54511735D01*
X33062076Y-54297449D02*
X33038266Y-54273640D01*
X32990647Y-54249830D01*
X32871600Y-54249830D01*
X32823980Y-54273640D01*
X32800171Y-54297449D01*
X32776361Y-54345068D01*
X32776361Y-54392687D01*
X32800171Y-54464116D01*
X33085885Y-54749830D01*
X32776361Y-54749830D01*
X32609695Y-54249830D02*
X32300171Y-54249830D01*
X32466838Y-54440306D01*
X32395409Y-54440306D01*
X32347790Y-54464116D01*
X32323980Y-54487925D01*
X32300171Y-54535544D01*
X32300171Y-54654592D01*
X32323980Y-54702211D01*
X32347790Y-54726020D01*
X32395409Y-54749830D01*
X32538266Y-54749830D01*
X32585885Y-54726020D01*
X32609695Y-54702211D01*
X36093767Y-54285390D02*
X35808053Y-54285390D01*
X35950910Y-54785390D02*
X35950910Y-54285390D01*
X35641386Y-54785390D02*
X35641386Y-54285390D01*
X35450910Y-54285390D01*
X35403291Y-54309200D01*
X35379481Y-54333009D01*
X35355672Y-54380628D01*
X35355672Y-54452057D01*
X35379481Y-54499676D01*
X35403291Y-54523485D01*
X35450910Y-54547295D01*
X35641386Y-54547295D01*
X35165196Y-54333009D02*
X35141386Y-54309200D01*
X35093767Y-54285390D01*
X34974720Y-54285390D01*
X34927100Y-54309200D01*
X34903291Y-54333009D01*
X34879481Y-54380628D01*
X34879481Y-54428247D01*
X34903291Y-54499676D01*
X35189005Y-54785390D01*
X34879481Y-54785390D01*
X34689005Y-54333009D02*
X34665196Y-54309200D01*
X34617577Y-54285390D01*
X34498529Y-54285390D01*
X34450910Y-54309200D01*
X34427100Y-54333009D01*
X34403291Y-54380628D01*
X34403291Y-54428247D01*
X34427100Y-54499676D01*
X34712815Y-54785390D01*
X34403291Y-54785390D01*
D14*
X28011333Y-86034571D02*
X28344666Y-86034571D01*
X28344666Y-86558380D02*
X28344666Y-85558380D01*
X27868476Y-85558380D01*
X27154190Y-86034571D02*
X27011333Y-86082190D01*
X26963714Y-86129809D01*
X26916095Y-86225047D01*
X26916095Y-86367904D01*
X26963714Y-86463142D01*
X27011333Y-86510761D01*
X27106571Y-86558380D01*
X27487523Y-86558380D01*
X27487523Y-85558380D01*
X27154190Y-85558380D01*
X27058952Y-85606000D01*
X27011333Y-85653619D01*
X26963714Y-85748857D01*
X26963714Y-85844095D01*
X27011333Y-85939333D01*
X27058952Y-85986952D01*
X27154190Y-86034571D01*
X27487523Y-86034571D01*
X26058952Y-85558380D02*
X26249428Y-85558380D01*
X26344666Y-85606000D01*
X26392285Y-85653619D01*
X26487523Y-85796476D01*
X26535142Y-85986952D01*
X26535142Y-86367904D01*
X26487523Y-86463142D01*
X26439904Y-86510761D01*
X26344666Y-86558380D01*
X26154190Y-86558380D01*
X26058952Y-86510761D01*
X26011333Y-86463142D01*
X25963714Y-86367904D01*
X25963714Y-86129809D01*
X26011333Y-86034571D01*
X26058952Y-85986952D01*
X26154190Y-85939333D01*
X26344666Y-85939333D01*
X26439904Y-85986952D01*
X26487523Y-86034571D01*
X26535142Y-86129809D01*
D15*
X26781866Y-16144085D02*
X26948533Y-16144085D01*
X26948533Y-16405990D02*
X26948533Y-15905990D01*
X26710438Y-15905990D01*
X26353295Y-16144085D02*
X26281866Y-16167895D01*
X26258057Y-16191704D01*
X26234247Y-16239323D01*
X26234247Y-16310752D01*
X26258057Y-16358371D01*
X26281866Y-16382180D01*
X26329485Y-16405990D01*
X26519961Y-16405990D01*
X26519961Y-15905990D01*
X26353295Y-15905990D01*
X26305676Y-15929800D01*
X26281866Y-15953609D01*
X26258057Y-16001228D01*
X26258057Y-16048847D01*
X26281866Y-16096466D01*
X26305676Y-16120276D01*
X26353295Y-16144085D01*
X26519961Y-16144085D01*
X25781866Y-15905990D02*
X26019961Y-15905990D01*
X26043771Y-16144085D01*
X26019961Y-16120276D01*
X25972342Y-16096466D01*
X25853295Y-16096466D01*
X25805676Y-16120276D01*
X25781866Y-16144085D01*
X25758057Y-16191704D01*
X25758057Y-16310752D01*
X25781866Y-16358371D01*
X25805676Y-16382180D01*
X25853295Y-16405990D01*
X25972342Y-16405990D01*
X26019961Y-16382180D01*
X26043771Y-16358371D01*
D14*
X14831561Y-82486666D02*
X14879180Y-82629523D01*
X14879180Y-82867619D01*
X14831561Y-82962857D01*
X14783942Y-83010476D01*
X14688704Y-83058095D01*
X14593466Y-83058095D01*
X14498228Y-83010476D01*
X14450609Y-82962857D01*
X14402990Y-82867619D01*
X14355371Y-82677142D01*
X14307752Y-82581904D01*
X14260133Y-82534285D01*
X14164895Y-82486666D01*
X14069657Y-82486666D01*
X13974419Y-82534285D01*
X13926800Y-82581904D01*
X13879180Y-82677142D01*
X13879180Y-82915238D01*
X13926800Y-83058095D01*
X13879180Y-83391428D02*
X14879180Y-83629523D01*
X14164895Y-83820000D01*
X14879180Y-84010476D01*
X13879180Y-84248571D01*
X14879180Y-85153333D02*
X14879180Y-84581904D01*
X14879180Y-84867619D02*
X13879180Y-84867619D01*
X14022038Y-84772380D01*
X14117276Y-84677142D01*
X14164895Y-84581904D01*
X7429180Y-81081904D02*
X6429180Y-81081904D01*
X7143466Y-81415238D01*
X6429180Y-81748571D01*
X7429180Y-81748571D01*
X6762514Y-82653333D02*
X7429180Y-82653333D01*
X6762514Y-82224761D02*
X7286323Y-82224761D01*
X7381561Y-82272380D01*
X7429180Y-82367619D01*
X7429180Y-82510476D01*
X7381561Y-82605714D01*
X7333942Y-82653333D01*
X6762514Y-82986666D02*
X6762514Y-83367619D01*
X6429180Y-83129523D02*
X7286323Y-83129523D01*
X7381561Y-83177142D01*
X7429180Y-83272380D01*
X7429180Y-83367619D01*
X7381561Y-84081904D02*
X7429180Y-83986666D01*
X7429180Y-83796190D01*
X7381561Y-83700952D01*
X7286323Y-83653333D01*
X6905371Y-83653333D01*
X6810133Y-83700952D01*
X6762514Y-83796190D01*
X6762514Y-83986666D01*
X6810133Y-84081904D01*
X6905371Y-84129523D01*
X7000609Y-84129523D01*
X7095847Y-83653333D01*
X7429180Y-84558095D02*
X6429180Y-84558095D01*
X7143466Y-84891428D01*
X6429180Y-85224761D01*
X7429180Y-85224761D01*
X7429180Y-85700952D02*
X6762514Y-85700952D01*
X6429180Y-85700952D02*
X6476800Y-85653333D01*
X6524419Y-85700952D01*
X6476800Y-85748571D01*
X6429180Y-85700952D01*
X6524419Y-85700952D01*
X7381561Y-86605714D02*
X7429180Y-86510476D01*
X7429180Y-86320000D01*
X7381561Y-86224761D01*
X7333942Y-86177142D01*
X7238704Y-86129523D01*
X6952990Y-86129523D01*
X6857752Y-86177142D01*
X6810133Y-86224761D01*
X6762514Y-86320000D01*
X6762514Y-86510476D01*
X6810133Y-86605714D01*
X18375095Y-31608980D02*
X17803666Y-31608980D01*
X18089380Y-32608980D02*
X18089380Y-31608980D01*
X17470333Y-32608980D02*
X17470333Y-31608980D01*
X17089380Y-31608980D01*
X16994142Y-31656600D01*
X16946523Y-31704219D01*
X16898904Y-31799457D01*
X16898904Y-31942314D01*
X16946523Y-32037552D01*
X16994142Y-32085171D01*
X17089380Y-32132790D01*
X17470333Y-32132790D01*
X16517952Y-31704219D02*
X16470333Y-31656600D01*
X16375095Y-31608980D01*
X16137000Y-31608980D01*
X16041761Y-31656600D01*
X15994142Y-31704219D01*
X15946523Y-31799457D01*
X15946523Y-31894695D01*
X15994142Y-32037552D01*
X16565571Y-32608980D01*
X15946523Y-32608980D01*
X15613190Y-31608980D02*
X14946523Y-31608980D01*
X15375095Y-32608980D01*
X7910295Y-74489260D02*
X7338866Y-74489260D01*
X7624580Y-75489260D02*
X7624580Y-74489260D01*
X7005533Y-75489260D02*
X7005533Y-74489260D01*
X6624580Y-74489260D01*
X6529342Y-74536880D01*
X6481723Y-74584499D01*
X6434104Y-74679737D01*
X6434104Y-74822594D01*
X6481723Y-74917832D01*
X6529342Y-74965451D01*
X6624580Y-75013070D01*
X7005533Y-75013070D01*
X6053152Y-74584499D02*
X6005533Y-74536880D01*
X5910295Y-74489260D01*
X5672200Y-74489260D01*
X5576961Y-74536880D01*
X5529342Y-74584499D01*
X5481723Y-74679737D01*
X5481723Y-74774975D01*
X5529342Y-74917832D01*
X6100771Y-75489260D01*
X5481723Y-75489260D01*
X4624580Y-74489260D02*
X4815057Y-74489260D01*
X4910295Y-74536880D01*
X4957914Y-74584499D01*
X5053152Y-74727356D01*
X5100771Y-74917832D01*
X5100771Y-75298784D01*
X5053152Y-75394022D01*
X5005533Y-75441641D01*
X4910295Y-75489260D01*
X4719819Y-75489260D01*
X4624580Y-75441641D01*
X4576961Y-75394022D01*
X4529342Y-75298784D01*
X4529342Y-75060689D01*
X4576961Y-74965451D01*
X4624580Y-74917832D01*
X4719819Y-74870213D01*
X4910295Y-74870213D01*
X5005533Y-74917832D01*
X5053152Y-74965451D01*
X5100771Y-75060689D01*
X4344135Y-74590660D02*
X3772706Y-74590660D01*
X4058420Y-75590660D02*
X4058420Y-74590660D01*
X3439373Y-75590660D02*
X3439373Y-74590660D01*
X3058420Y-74590660D01*
X2963182Y-74638280D01*
X2915563Y-74685899D01*
X2867944Y-74781137D01*
X2867944Y-74923994D01*
X2915563Y-75019232D01*
X2963182Y-75066851D01*
X3058420Y-75114470D01*
X3439373Y-75114470D01*
X2486992Y-74685899D02*
X2439373Y-74638280D01*
X2344135Y-74590660D01*
X2106040Y-74590660D01*
X2010801Y-74638280D01*
X1963182Y-74685899D01*
X1915563Y-74781137D01*
X1915563Y-74876375D01*
X1963182Y-75019232D01*
X2534611Y-75590660D01*
X1915563Y-75590660D01*
X963182Y-75590660D02*
X1534611Y-75590660D01*
X1248897Y-75590660D02*
X1248897Y-74590660D01*
X1344135Y-74733518D01*
X1439373Y-74828756D01*
X1534611Y-74876375D01*
X4445735Y-71999860D02*
X3874306Y-71999860D01*
X4160020Y-72999860D02*
X4160020Y-71999860D01*
X3540973Y-72999860D02*
X3540973Y-71999860D01*
X3160020Y-71999860D01*
X3064782Y-72047480D01*
X3017163Y-72095099D01*
X2969544Y-72190337D01*
X2969544Y-72333194D01*
X3017163Y-72428432D01*
X3064782Y-72476051D01*
X3160020Y-72523670D01*
X3540973Y-72523670D01*
X2588592Y-72095099D02*
X2540973Y-72047480D01*
X2445735Y-71999860D01*
X2207640Y-71999860D01*
X2112401Y-72047480D01*
X2064782Y-72095099D01*
X2017163Y-72190337D01*
X2017163Y-72285575D01*
X2064782Y-72428432D01*
X2636211Y-72999860D01*
X2017163Y-72999860D01*
X1398116Y-71999860D02*
X1302878Y-71999860D01*
X1207640Y-72047480D01*
X1160020Y-72095099D01*
X1112401Y-72190337D01*
X1064782Y-72380813D01*
X1064782Y-72618908D01*
X1112401Y-72809384D01*
X1160020Y-72904622D01*
X1207640Y-72952241D01*
X1302878Y-72999860D01*
X1398116Y-72999860D01*
X1493354Y-72952241D01*
X1540973Y-72904622D01*
X1588592Y-72809384D01*
X1636211Y-72618908D01*
X1636211Y-72380813D01*
X1588592Y-72190337D01*
X1540973Y-72095099D01*
X1493354Y-72047480D01*
X1398116Y-71999860D01*
X7910295Y-71903540D02*
X7338866Y-71903540D01*
X7624580Y-72903540D02*
X7624580Y-71903540D01*
X7005533Y-72903540D02*
X7005533Y-71903540D01*
X6624580Y-71903540D01*
X6529342Y-71951160D01*
X6481723Y-71998779D01*
X6434104Y-72094017D01*
X6434104Y-72236874D01*
X6481723Y-72332112D01*
X6529342Y-72379731D01*
X6624580Y-72427350D01*
X7005533Y-72427350D01*
X5481723Y-72903540D02*
X6053152Y-72903540D01*
X5767438Y-72903540D02*
X5767438Y-71903540D01*
X5862676Y-72046398D01*
X5957914Y-72141636D01*
X6053152Y-72189255D01*
X5005533Y-72903540D02*
X4815057Y-72903540D01*
X4719819Y-72855921D01*
X4672200Y-72808302D01*
X4576961Y-72665445D01*
X4529342Y-72474969D01*
X4529342Y-72094017D01*
X4576961Y-71998779D01*
X4624580Y-71951160D01*
X4719819Y-71903540D01*
X4910295Y-71903540D01*
X5005533Y-71951160D01*
X5053152Y-71998779D01*
X5100771Y-72094017D01*
X5100771Y-72332112D01*
X5053152Y-72427350D01*
X5005533Y-72474969D01*
X4910295Y-72522588D01*
X4719819Y-72522588D01*
X4624580Y-72474969D01*
X4576961Y-72427350D01*
X4529342Y-72332112D01*
X6406615Y-17237460D02*
X5835186Y-17237460D01*
X6120900Y-18237460D02*
X6120900Y-17237460D01*
X5501853Y-18237460D02*
X5501853Y-17237460D01*
X5120900Y-17237460D01*
X5025662Y-17285080D01*
X4978043Y-17332699D01*
X4930424Y-17427937D01*
X4930424Y-17570794D01*
X4978043Y-17666032D01*
X5025662Y-17713651D01*
X5120900Y-17761270D01*
X5501853Y-17761270D01*
X3978043Y-18237460D02*
X4549472Y-18237460D01*
X4263758Y-18237460D02*
X4263758Y-17237460D01*
X4358996Y-17380318D01*
X4454234Y-17475556D01*
X4549472Y-17523175D01*
X3406615Y-17666032D02*
X3501853Y-17618413D01*
X3549472Y-17570794D01*
X3597091Y-17475556D01*
X3597091Y-17427937D01*
X3549472Y-17332699D01*
X3501853Y-17285080D01*
X3406615Y-17237460D01*
X3216139Y-17237460D01*
X3120900Y-17285080D01*
X3073281Y-17332699D01*
X3025662Y-17427937D01*
X3025662Y-17475556D01*
X3073281Y-17570794D01*
X3120900Y-17618413D01*
X3216139Y-17666032D01*
X3406615Y-17666032D01*
X3501853Y-17713651D01*
X3549472Y-17761270D01*
X3597091Y-17856508D01*
X3597091Y-18046984D01*
X3549472Y-18142222D01*
X3501853Y-18189841D01*
X3406615Y-18237460D01*
X3216139Y-18237460D01*
X3120900Y-18189841D01*
X3073281Y-18142222D01*
X3025662Y-18046984D01*
X3025662Y-17856508D01*
X3073281Y-17761270D01*
X3120900Y-17713651D01*
X3216139Y-17666032D01*
X18375095Y-28941980D02*
X17803666Y-28941980D01*
X18089380Y-29941980D02*
X18089380Y-28941980D01*
X17470333Y-29941980D02*
X17470333Y-28941980D01*
X17089380Y-28941980D01*
X16994142Y-28989600D01*
X16946523Y-29037219D01*
X16898904Y-29132457D01*
X16898904Y-29275314D01*
X16946523Y-29370552D01*
X16994142Y-29418171D01*
X17089380Y-29465790D01*
X17470333Y-29465790D01*
X15946523Y-29941980D02*
X16517952Y-29941980D01*
X16232238Y-29941980D02*
X16232238Y-28941980D01*
X16327476Y-29084838D01*
X16422714Y-29180076D01*
X16517952Y-29227695D01*
X15613190Y-28941980D02*
X14946523Y-28941980D01*
X15375095Y-29941980D01*
X4547335Y-57603140D02*
X3975906Y-57603140D01*
X4261620Y-58603140D02*
X4261620Y-57603140D01*
X3642573Y-58603140D02*
X3642573Y-57603140D01*
X3261620Y-57603140D01*
X3166382Y-57650760D01*
X3118763Y-57698379D01*
X3071144Y-57793617D01*
X3071144Y-57936474D01*
X3118763Y-58031712D01*
X3166382Y-58079331D01*
X3261620Y-58126950D01*
X3642573Y-58126950D01*
X2118763Y-58603140D02*
X2690192Y-58603140D01*
X2404478Y-58603140D02*
X2404478Y-57603140D01*
X2499716Y-57745998D01*
X2594954Y-57841236D01*
X2690192Y-57888855D01*
X1261620Y-57603140D02*
X1452097Y-57603140D01*
X1547335Y-57650760D01*
X1594954Y-57698379D01*
X1690192Y-57841236D01*
X1737811Y-58031712D01*
X1737811Y-58412664D01*
X1690192Y-58507902D01*
X1642573Y-58555521D01*
X1547335Y-58603140D01*
X1356859Y-58603140D01*
X1261620Y-58555521D01*
X1214001Y-58507902D01*
X1166382Y-58412664D01*
X1166382Y-58174569D01*
X1214001Y-58079331D01*
X1261620Y-58031712D01*
X1356859Y-57984093D01*
X1547335Y-57984093D01*
X1642573Y-58031712D01*
X1690192Y-58079331D01*
X1737811Y-58174569D01*
X6457415Y-14077700D02*
X5885986Y-14077700D01*
X6171700Y-15077700D02*
X6171700Y-14077700D01*
X5552653Y-15077700D02*
X5552653Y-14077700D01*
X5171700Y-14077700D01*
X5076462Y-14125320D01*
X5028843Y-14172939D01*
X4981224Y-14268177D01*
X4981224Y-14411034D01*
X5028843Y-14506272D01*
X5076462Y-14553891D01*
X5171700Y-14601510D01*
X5552653Y-14601510D01*
X4028843Y-15077700D02*
X4600272Y-15077700D01*
X4314558Y-15077700D02*
X4314558Y-14077700D01*
X4409796Y-14220558D01*
X4505034Y-14315796D01*
X4600272Y-14363415D01*
X3124081Y-14077700D02*
X3600272Y-14077700D01*
X3647891Y-14553891D01*
X3600272Y-14506272D01*
X3505034Y-14458653D01*
X3266939Y-14458653D01*
X3171700Y-14506272D01*
X3124081Y-14553891D01*
X3076462Y-14649129D01*
X3076462Y-14887224D01*
X3124081Y-14982462D01*
X3171700Y-15030081D01*
X3266939Y-15077700D01*
X3505034Y-15077700D01*
X3600272Y-15030081D01*
X3647891Y-14982462D01*
X6432015Y-10790940D02*
X5860586Y-10790940D01*
X6146300Y-11790940D02*
X6146300Y-10790940D01*
X5527253Y-11790940D02*
X5527253Y-10790940D01*
X5146300Y-10790940D01*
X5051062Y-10838560D01*
X5003443Y-10886179D01*
X4955824Y-10981417D01*
X4955824Y-11124274D01*
X5003443Y-11219512D01*
X5051062Y-11267131D01*
X5146300Y-11314750D01*
X5527253Y-11314750D01*
X4003443Y-11790940D02*
X4574872Y-11790940D01*
X4289158Y-11790940D02*
X4289158Y-10790940D01*
X4384396Y-10933798D01*
X4479634Y-11029036D01*
X4574872Y-11076655D01*
X3146300Y-11124274D02*
X3146300Y-11790940D01*
X3384396Y-10743321D02*
X3622491Y-11457607D01*
X3003443Y-11457607D01*
X4090135Y-55007460D02*
X3518706Y-55007460D01*
X3804420Y-56007460D02*
X3804420Y-55007460D01*
X3185373Y-56007460D02*
X3185373Y-55007460D01*
X2804420Y-55007460D01*
X2709182Y-55055080D01*
X2661563Y-55102699D01*
X2613944Y-55197937D01*
X2613944Y-55340794D01*
X2661563Y-55436032D01*
X2709182Y-55483651D01*
X2804420Y-55531270D01*
X3185373Y-55531270D01*
X1661563Y-56007460D02*
X2232992Y-56007460D01*
X1947278Y-56007460D02*
X1947278Y-55007460D01*
X2042516Y-55150318D01*
X2137754Y-55245556D01*
X2232992Y-55293175D01*
X1328230Y-55007460D02*
X709182Y-55007460D01*
X1042516Y-55388413D01*
X899659Y-55388413D01*
X804420Y-55436032D01*
X756801Y-55483651D01*
X709182Y-55578889D01*
X709182Y-55816984D01*
X756801Y-55912222D01*
X804420Y-55959841D01*
X899659Y-56007460D01*
X1185373Y-56007460D01*
X1280611Y-55959841D01*
X1328230Y-55912222D01*
X4598135Y-52507900D02*
X4026706Y-52507900D01*
X4312420Y-53507900D02*
X4312420Y-52507900D01*
X3693373Y-53507900D02*
X3693373Y-52507900D01*
X3312420Y-52507900D01*
X3217182Y-52555520D01*
X3169563Y-52603139D01*
X3121944Y-52698377D01*
X3121944Y-52841234D01*
X3169563Y-52936472D01*
X3217182Y-52984091D01*
X3312420Y-53031710D01*
X3693373Y-53031710D01*
X2169563Y-53507900D02*
X2740992Y-53507900D01*
X2455278Y-53507900D02*
X2455278Y-52507900D01*
X2550516Y-52650758D01*
X2645754Y-52745996D01*
X2740992Y-52793615D01*
X1788611Y-52603139D02*
X1740992Y-52555520D01*
X1645754Y-52507900D01*
X1407659Y-52507900D01*
X1312420Y-52555520D01*
X1264801Y-52603139D01*
X1217182Y-52698377D01*
X1217182Y-52793615D01*
X1264801Y-52936472D01*
X1836230Y-53507900D01*
X1217182Y-53507900D01*
X7910295Y-37151260D02*
X7338866Y-37151260D01*
X7624580Y-38151260D02*
X7624580Y-37151260D01*
X7005533Y-38151260D02*
X7005533Y-37151260D01*
X6624580Y-37151260D01*
X6529342Y-37198880D01*
X6481723Y-37246499D01*
X6434104Y-37341737D01*
X6434104Y-37484594D01*
X6481723Y-37579832D01*
X6529342Y-37627451D01*
X6624580Y-37675070D01*
X7005533Y-37675070D01*
X5481723Y-38151260D02*
X6053152Y-38151260D01*
X5767438Y-38151260D02*
X5767438Y-37151260D01*
X5862676Y-37294118D01*
X5957914Y-37389356D01*
X6053152Y-37436975D01*
X4529342Y-38151260D02*
X5100771Y-38151260D01*
X4815057Y-38151260D02*
X4815057Y-37151260D01*
X4910295Y-37294118D01*
X5005533Y-37389356D01*
X5100771Y-37436975D01*
X7910295Y-32020460D02*
X7338866Y-32020460D01*
X7624580Y-33020460D02*
X7624580Y-32020460D01*
X7005533Y-33020460D02*
X7005533Y-32020460D01*
X6624580Y-32020460D01*
X6529342Y-32068080D01*
X6481723Y-32115699D01*
X6434104Y-32210937D01*
X6434104Y-32353794D01*
X6481723Y-32449032D01*
X6529342Y-32496651D01*
X6624580Y-32544270D01*
X7005533Y-32544270D01*
X5481723Y-33020460D02*
X6053152Y-33020460D01*
X5767438Y-33020460D02*
X5767438Y-32020460D01*
X5862676Y-32163318D01*
X5957914Y-32258556D01*
X6053152Y-32306175D01*
X4862676Y-32020460D02*
X4767438Y-32020460D01*
X4672200Y-32068080D01*
X4624580Y-32115699D01*
X4576961Y-32210937D01*
X4529342Y-32401413D01*
X4529342Y-32639508D01*
X4576961Y-32829984D01*
X4624580Y-32925222D01*
X4672200Y-32972841D01*
X4767438Y-33020460D01*
X4862676Y-33020460D01*
X4957914Y-32972841D01*
X5005533Y-32925222D01*
X5053152Y-32829984D01*
X5100771Y-32639508D01*
X5100771Y-32401413D01*
X5053152Y-32210937D01*
X5005533Y-32115699D01*
X4957914Y-32068080D01*
X4862676Y-32020460D01*
X7434104Y-34712860D02*
X6862676Y-34712860D01*
X7148390Y-35712860D02*
X7148390Y-34712860D01*
X6529342Y-35712860D02*
X6529342Y-34712860D01*
X6148390Y-34712860D01*
X6053152Y-34760480D01*
X6005533Y-34808099D01*
X5957914Y-34903337D01*
X5957914Y-35046194D01*
X6005533Y-35141432D01*
X6053152Y-35189051D01*
X6148390Y-35236670D01*
X6529342Y-35236670D01*
X5481723Y-35712860D02*
X5291247Y-35712860D01*
X5196009Y-35665241D01*
X5148390Y-35617622D01*
X5053152Y-35474765D01*
X5005533Y-35284289D01*
X5005533Y-34903337D01*
X5053152Y-34808099D01*
X5100771Y-34760480D01*
X5196009Y-34712860D01*
X5386485Y-34712860D01*
X5481723Y-34760480D01*
X5529342Y-34808099D01*
X5576961Y-34903337D01*
X5576961Y-35141432D01*
X5529342Y-35236670D01*
X5481723Y-35284289D01*
X5386485Y-35331908D01*
X5196009Y-35331908D01*
X5100771Y-35284289D01*
X5053152Y-35236670D01*
X5005533Y-35141432D01*
X3679984Y-32025540D02*
X3108556Y-32025540D01*
X3394270Y-33025540D02*
X3394270Y-32025540D01*
X2775222Y-33025540D02*
X2775222Y-32025540D01*
X2394270Y-32025540D01*
X2299032Y-32073160D01*
X2251413Y-32120779D01*
X2203794Y-32216017D01*
X2203794Y-32358874D01*
X2251413Y-32454112D01*
X2299032Y-32501731D01*
X2394270Y-32549350D01*
X2775222Y-32549350D01*
X1632365Y-32454112D02*
X1727603Y-32406493D01*
X1775222Y-32358874D01*
X1822841Y-32263636D01*
X1822841Y-32216017D01*
X1775222Y-32120779D01*
X1727603Y-32073160D01*
X1632365Y-32025540D01*
X1441889Y-32025540D01*
X1346651Y-32073160D01*
X1299032Y-32120779D01*
X1251413Y-32216017D01*
X1251413Y-32263636D01*
X1299032Y-32358874D01*
X1346651Y-32406493D01*
X1441889Y-32454112D01*
X1632365Y-32454112D01*
X1727603Y-32501731D01*
X1775222Y-32549350D01*
X1822841Y-32644588D01*
X1822841Y-32835064D01*
X1775222Y-32930302D01*
X1727603Y-32977921D01*
X1632365Y-33025540D01*
X1441889Y-33025540D01*
X1346651Y-32977921D01*
X1299032Y-32930302D01*
X1251413Y-32835064D01*
X1251413Y-32644588D01*
X1299032Y-32549350D01*
X1346651Y-32501731D01*
X1441889Y-32454112D01*
X3679984Y-34692540D02*
X3108556Y-34692540D01*
X3394270Y-35692540D02*
X3394270Y-34692540D01*
X2775222Y-35692540D02*
X2775222Y-34692540D01*
X2394270Y-34692540D01*
X2299032Y-34740160D01*
X2251413Y-34787779D01*
X2203794Y-34883017D01*
X2203794Y-35025874D01*
X2251413Y-35121112D01*
X2299032Y-35168731D01*
X2394270Y-35216350D01*
X2775222Y-35216350D01*
X1870460Y-34692540D02*
X1203794Y-34692540D01*
X1632365Y-35692540D01*
X7434104Y-57562700D02*
X6862676Y-57562700D01*
X7148390Y-58562700D02*
X7148390Y-57562700D01*
X6529342Y-58562700D02*
X6529342Y-57562700D01*
X6148390Y-57562700D01*
X6053152Y-57610320D01*
X6005533Y-57657939D01*
X5957914Y-57753177D01*
X5957914Y-57896034D01*
X6005533Y-57991272D01*
X6053152Y-58038891D01*
X6148390Y-58086510D01*
X6529342Y-58086510D01*
X5100771Y-57562700D02*
X5291247Y-57562700D01*
X5386485Y-57610320D01*
X5434104Y-57657939D01*
X5529342Y-57800796D01*
X5576961Y-57991272D01*
X5576961Y-58372224D01*
X5529342Y-58467462D01*
X5481723Y-58515081D01*
X5386485Y-58562700D01*
X5196009Y-58562700D01*
X5100771Y-58515081D01*
X5053152Y-58467462D01*
X5005533Y-58372224D01*
X5005533Y-58134129D01*
X5053152Y-58038891D01*
X5100771Y-57991272D01*
X5196009Y-57943653D01*
X5386485Y-57943653D01*
X5481723Y-57991272D01*
X5529342Y-58038891D01*
X5576961Y-58134129D01*
X7434104Y-54976980D02*
X6862676Y-54976980D01*
X7148390Y-55976980D02*
X7148390Y-54976980D01*
X6529342Y-55976980D02*
X6529342Y-54976980D01*
X6148390Y-54976980D01*
X6053152Y-55024600D01*
X6005533Y-55072219D01*
X5957914Y-55167457D01*
X5957914Y-55310314D01*
X6005533Y-55405552D01*
X6053152Y-55453171D01*
X6148390Y-55500790D01*
X6529342Y-55500790D01*
X5053152Y-54976980D02*
X5529342Y-54976980D01*
X5576961Y-55453171D01*
X5529342Y-55405552D01*
X5434104Y-55357933D01*
X5196009Y-55357933D01*
X5100771Y-55405552D01*
X5053152Y-55453171D01*
X5005533Y-55548409D01*
X5005533Y-55786504D01*
X5053152Y-55881742D01*
X5100771Y-55929361D01*
X5196009Y-55976980D01*
X5434104Y-55976980D01*
X5529342Y-55929361D01*
X5576961Y-55881742D01*
X17898904Y-25843180D02*
X17327476Y-25843180D01*
X17613190Y-26843180D02*
X17613190Y-25843180D01*
X16994142Y-26843180D02*
X16994142Y-25843180D01*
X16613190Y-25843180D01*
X16517952Y-25890800D01*
X16470333Y-25938419D01*
X16422714Y-26033657D01*
X16422714Y-26176514D01*
X16470333Y-26271752D01*
X16517952Y-26319371D01*
X16613190Y-26366990D01*
X16994142Y-26366990D01*
X15565571Y-26176514D02*
X15565571Y-26843180D01*
X15803666Y-25795561D02*
X16041761Y-26509847D01*
X15422714Y-26509847D01*
X17898904Y-21474380D02*
X17327476Y-21474380D01*
X17613190Y-22474380D02*
X17613190Y-21474380D01*
X16994142Y-22474380D02*
X16994142Y-21474380D01*
X16613190Y-21474380D01*
X16517952Y-21522000D01*
X16470333Y-21569619D01*
X16422714Y-21664857D01*
X16422714Y-21807714D01*
X16470333Y-21902952D01*
X16517952Y-21950571D01*
X16613190Y-21998190D01*
X16994142Y-21998190D01*
X16089380Y-21474380D02*
X15470333Y-21474380D01*
X15803666Y-21855333D01*
X15660809Y-21855333D01*
X15565571Y-21902952D01*
X15517952Y-21950571D01*
X15470333Y-22045809D01*
X15470333Y-22283904D01*
X15517952Y-22379142D01*
X15565571Y-22426761D01*
X15660809Y-22474380D01*
X15946523Y-22474380D01*
X16041761Y-22426761D01*
X16089380Y-22379142D01*
X17898904Y-18908980D02*
X17327476Y-18908980D01*
X17613190Y-19908980D02*
X17613190Y-18908980D01*
X16994142Y-19908980D02*
X16994142Y-18908980D01*
X16613190Y-18908980D01*
X16517952Y-18956600D01*
X16470333Y-19004219D01*
X16422714Y-19099457D01*
X16422714Y-19242314D01*
X16470333Y-19337552D01*
X16517952Y-19385171D01*
X16613190Y-19432790D01*
X16994142Y-19432790D01*
X16041761Y-19004219D02*
X15994142Y-18956600D01*
X15898904Y-18908980D01*
X15660809Y-18908980D01*
X15565571Y-18956600D01*
X15517952Y-19004219D01*
X15470333Y-19099457D01*
X15470333Y-19194695D01*
X15517952Y-19337552D01*
X16089380Y-19908980D01*
X15470333Y-19908980D01*
X3679984Y-37232540D02*
X3108556Y-37232540D01*
X3394270Y-38232540D02*
X3394270Y-37232540D01*
X2775222Y-38232540D02*
X2775222Y-37232540D01*
X2394270Y-37232540D01*
X2299032Y-37280160D01*
X2251413Y-37327779D01*
X2203794Y-37423017D01*
X2203794Y-37565874D01*
X2251413Y-37661112D01*
X2299032Y-37708731D01*
X2394270Y-37756350D01*
X2775222Y-37756350D01*
X1251413Y-38232540D02*
X1822841Y-38232540D01*
X1537127Y-38232540D02*
X1537127Y-37232540D01*
X1632365Y-37375398D01*
X1727603Y-37470636D01*
X1822841Y-37518255D01*
X7434104Y-52391260D02*
X6862676Y-52391260D01*
X7148390Y-53391260D02*
X7148390Y-52391260D01*
X6529342Y-53391260D02*
X6529342Y-52391260D01*
X6148390Y-52391260D01*
X6053152Y-52438880D01*
X6005533Y-52486499D01*
X5957914Y-52581737D01*
X5957914Y-52724594D01*
X6005533Y-52819832D01*
X6053152Y-52867451D01*
X6148390Y-52915070D01*
X6529342Y-52915070D01*
X5338866Y-52391260D02*
X5243628Y-52391260D01*
X5148390Y-52438880D01*
X5100771Y-52486499D01*
X5053152Y-52581737D01*
X5005533Y-52772213D01*
X5005533Y-53010308D01*
X5053152Y-53200784D01*
X5100771Y-53296022D01*
X5148390Y-53343641D01*
X5243628Y-53391260D01*
X5338866Y-53391260D01*
X5434104Y-53343641D01*
X5481723Y-53296022D01*
X5529342Y-53200784D01*
X5576961Y-53010308D01*
X5576961Y-52772213D01*
X5529342Y-52581737D01*
X5481723Y-52486499D01*
X5434104Y-52438880D01*
X5338866Y-52391260D01*
X29903657Y-84977242D02*
X29951276Y-85024861D01*
X30094133Y-85072480D01*
X30189371Y-85072480D01*
X30332228Y-85024861D01*
X30427466Y-84929623D01*
X30475085Y-84834385D01*
X30522704Y-84643909D01*
X30522704Y-84501052D01*
X30475085Y-84310576D01*
X30427466Y-84215338D01*
X30332228Y-84120100D01*
X30189371Y-84072480D01*
X30094133Y-84072480D01*
X29951276Y-84120100D01*
X29903657Y-84167719D01*
X28998895Y-84072480D02*
X29475085Y-84072480D01*
X29522704Y-84548671D01*
X29475085Y-84501052D01*
X29379847Y-84453433D01*
X29141752Y-84453433D01*
X29046514Y-84501052D01*
X28998895Y-84548671D01*
X28951276Y-84643909D01*
X28951276Y-84882004D01*
X28998895Y-84977242D01*
X29046514Y-85024861D01*
X29141752Y-85072480D01*
X29379847Y-85072480D01*
X29475085Y-85024861D01*
X29522704Y-84977242D01*
X28379847Y-84501052D02*
X28475085Y-84453433D01*
X28522704Y-84405814D01*
X28570323Y-84310576D01*
X28570323Y-84262957D01*
X28522704Y-84167719D01*
X28475085Y-84120100D01*
X28379847Y-84072480D01*
X28189371Y-84072480D01*
X28094133Y-84120100D01*
X28046514Y-84167719D01*
X27998895Y-84262957D01*
X27998895Y-84310576D01*
X28046514Y-84405814D01*
X28094133Y-84453433D01*
X28189371Y-84501052D01*
X28379847Y-84501052D01*
X28475085Y-84548671D01*
X28522704Y-84596290D01*
X28570323Y-84691528D01*
X28570323Y-84882004D01*
X28522704Y-84977242D01*
X28475085Y-85024861D01*
X28379847Y-85072480D01*
X28189371Y-85072480D01*
X28094133Y-85024861D01*
X28046514Y-84977242D01*
X27998895Y-84882004D01*
X27998895Y-84691528D01*
X28046514Y-84596290D01*
X28094133Y-84548671D01*
X28189371Y-84501052D01*
D15*
X28388428Y-15062971D02*
X28412238Y-15086780D01*
X28483666Y-15110590D01*
X28531285Y-15110590D01*
X28602714Y-15086780D01*
X28650333Y-15039161D01*
X28674142Y-14991542D01*
X28697952Y-14896304D01*
X28697952Y-14824876D01*
X28674142Y-14729638D01*
X28650333Y-14682019D01*
X28602714Y-14634400D01*
X28531285Y-14610590D01*
X28483666Y-14610590D01*
X28412238Y-14634400D01*
X28388428Y-14658209D01*
X27936047Y-14610590D02*
X28174142Y-14610590D01*
X28197952Y-14848685D01*
X28174142Y-14824876D01*
X28126523Y-14801066D01*
X28007476Y-14801066D01*
X27959857Y-14824876D01*
X27936047Y-14848685D01*
X27912238Y-14896304D01*
X27912238Y-15015352D01*
X27936047Y-15062971D01*
X27959857Y-15086780D01*
X28007476Y-15110590D01*
X28126523Y-15110590D01*
X28174142Y-15086780D01*
X28197952Y-15062971D01*
X27745571Y-14610590D02*
X27412238Y-14610590D01*
X27626523Y-15110590D01*
D14*
X29954457Y-83453242D02*
X30002076Y-83500861D01*
X30144933Y-83548480D01*
X30240171Y-83548480D01*
X30383028Y-83500861D01*
X30478266Y-83405623D01*
X30525885Y-83310385D01*
X30573504Y-83119909D01*
X30573504Y-82977052D01*
X30525885Y-82786576D01*
X30478266Y-82691338D01*
X30383028Y-82596100D01*
X30240171Y-82548480D01*
X30144933Y-82548480D01*
X30002076Y-82596100D01*
X29954457Y-82643719D01*
X29049695Y-82548480D02*
X29525885Y-82548480D01*
X29573504Y-83024671D01*
X29525885Y-82977052D01*
X29430647Y-82929433D01*
X29192552Y-82929433D01*
X29097314Y-82977052D01*
X29049695Y-83024671D01*
X29002076Y-83119909D01*
X29002076Y-83358004D01*
X29049695Y-83453242D01*
X29097314Y-83500861D01*
X29192552Y-83548480D01*
X29430647Y-83548480D01*
X29525885Y-83500861D01*
X29573504Y-83453242D01*
X28144933Y-82548480D02*
X28335409Y-82548480D01*
X28430647Y-82596100D01*
X28478266Y-82643719D01*
X28573504Y-82786576D01*
X28621123Y-82977052D01*
X28621123Y-83358004D01*
X28573504Y-83453242D01*
X28525885Y-83500861D01*
X28430647Y-83548480D01*
X28240171Y-83548480D01*
X28144933Y-83500861D01*
X28097314Y-83453242D01*
X28049695Y-83358004D01*
X28049695Y-83119909D01*
X28097314Y-83024671D01*
X28144933Y-82977052D01*
X28240171Y-82929433D01*
X28430647Y-82929433D01*
X28525885Y-82977052D01*
X28573504Y-83024671D01*
X28621123Y-83119909D01*
D15*
X26788228Y-12726171D02*
X26812038Y-12749980D01*
X26883466Y-12773790D01*
X26931085Y-12773790D01*
X27002514Y-12749980D01*
X27050133Y-12702361D01*
X27073942Y-12654742D01*
X27097752Y-12559504D01*
X27097752Y-12488076D01*
X27073942Y-12392838D01*
X27050133Y-12345219D01*
X27002514Y-12297600D01*
X26931085Y-12273790D01*
X26883466Y-12273790D01*
X26812038Y-12297600D01*
X26788228Y-12321409D01*
X26335847Y-12273790D02*
X26573942Y-12273790D01*
X26597752Y-12511885D01*
X26573942Y-12488076D01*
X26526323Y-12464266D01*
X26407276Y-12464266D01*
X26359657Y-12488076D01*
X26335847Y-12511885D01*
X26312038Y-12559504D01*
X26312038Y-12678552D01*
X26335847Y-12726171D01*
X26359657Y-12749980D01*
X26407276Y-12773790D01*
X26526323Y-12773790D01*
X26573942Y-12749980D01*
X26597752Y-12726171D01*
X25859657Y-12273790D02*
X26097752Y-12273790D01*
X26121561Y-12511885D01*
X26097752Y-12488076D01*
X26050133Y-12464266D01*
X25931085Y-12464266D01*
X25883466Y-12488076D01*
X25859657Y-12511885D01*
X25835847Y-12559504D01*
X25835847Y-12678552D01*
X25859657Y-12726171D01*
X25883466Y-12749980D01*
X25931085Y-12773790D01*
X26050133Y-12773790D01*
X26097752Y-12749980D01*
X26121561Y-12726171D01*
D14*
X36446697Y-36531822D02*
X36494316Y-36579441D01*
X36637173Y-36627060D01*
X36732411Y-36627060D01*
X36875268Y-36579441D01*
X36970506Y-36484203D01*
X37018125Y-36388965D01*
X37065744Y-36198489D01*
X37065744Y-36055632D01*
X37018125Y-35865156D01*
X36970506Y-35769918D01*
X36875268Y-35674680D01*
X36732411Y-35627060D01*
X36637173Y-35627060D01*
X36494316Y-35674680D01*
X36446697Y-35722299D01*
X36065744Y-35722299D02*
X36018125Y-35674680D01*
X35922887Y-35627060D01*
X35684792Y-35627060D01*
X35589554Y-35674680D01*
X35541935Y-35722299D01*
X35494316Y-35817537D01*
X35494316Y-35912775D01*
X35541935Y-36055632D01*
X36113363Y-36627060D01*
X35494316Y-36627060D01*
X34922887Y-36055632D02*
X35018125Y-36008013D01*
X35065744Y-35960394D01*
X35113363Y-35865156D01*
X35113363Y-35817537D01*
X35065744Y-35722299D01*
X35018125Y-35674680D01*
X34922887Y-35627060D01*
X34732411Y-35627060D01*
X34637173Y-35674680D01*
X34589554Y-35722299D01*
X34541935Y-35817537D01*
X34541935Y-35865156D01*
X34589554Y-35960394D01*
X34637173Y-36008013D01*
X34732411Y-36055632D01*
X34922887Y-36055632D01*
X35018125Y-36103251D01*
X35065744Y-36150870D01*
X35113363Y-36246108D01*
X35113363Y-36436584D01*
X35065744Y-36531822D01*
X35018125Y-36579441D01*
X34922887Y-36627060D01*
X34732411Y-36627060D01*
X34637173Y-36579441D01*
X34589554Y-36531822D01*
X34541935Y-36436584D01*
X34541935Y-36246108D01*
X34589554Y-36150870D01*
X34637173Y-36103251D01*
X34732411Y-36055632D01*
X22461457Y-83637380D02*
X22794790Y-83161190D01*
X23032885Y-83637380D02*
X23032885Y-82637380D01*
X22651933Y-82637380D01*
X22556695Y-82685000D01*
X22509076Y-82732619D01*
X22461457Y-82827857D01*
X22461457Y-82970714D01*
X22509076Y-83065952D01*
X22556695Y-83113571D01*
X22651933Y-83161190D01*
X23032885Y-83161190D01*
X21604314Y-82970714D02*
X21604314Y-83637380D01*
X21842409Y-82589761D02*
X22080504Y-83304047D01*
X21461457Y-83304047D01*
X20651933Y-82637380D02*
X20842409Y-82637380D01*
X20937647Y-82685000D01*
X20985266Y-82732619D01*
X21080504Y-82875476D01*
X21128123Y-83065952D01*
X21128123Y-83446904D01*
X21080504Y-83542142D01*
X21032885Y-83589761D01*
X20937647Y-83637380D01*
X20747171Y-83637380D01*
X20651933Y-83589761D01*
X20604314Y-83542142D01*
X20556695Y-83446904D01*
X20556695Y-83208809D01*
X20604314Y-83113571D01*
X20651933Y-83065952D01*
X20747171Y-83018333D01*
X20937647Y-83018333D01*
X21032885Y-83065952D01*
X21080504Y-83113571D01*
X21128123Y-83208809D01*
X22410657Y-85110580D02*
X22743990Y-84634390D01*
X22982085Y-85110580D02*
X22982085Y-84110580D01*
X22601133Y-84110580D01*
X22505895Y-84158200D01*
X22458276Y-84205819D01*
X22410657Y-84301057D01*
X22410657Y-84443914D01*
X22458276Y-84539152D01*
X22505895Y-84586771D01*
X22601133Y-84634390D01*
X22982085Y-84634390D01*
X21553514Y-84443914D02*
X21553514Y-85110580D01*
X21791609Y-84062961D02*
X22029704Y-84777247D01*
X21410657Y-84777247D01*
X20553514Y-84110580D02*
X21029704Y-84110580D01*
X21077323Y-84586771D01*
X21029704Y-84539152D01*
X20934466Y-84491533D01*
X20696371Y-84491533D01*
X20601133Y-84539152D01*
X20553514Y-84586771D01*
X20505895Y-84682009D01*
X20505895Y-84920104D01*
X20553514Y-85015342D01*
X20601133Y-85062961D01*
X20696371Y-85110580D01*
X20934466Y-85110580D01*
X21029704Y-85062961D01*
X21077323Y-85015342D01*
D15*
X22673428Y-13510390D02*
X22840095Y-13272295D01*
X22959142Y-13510390D02*
X22959142Y-13010390D01*
X22768666Y-13010390D01*
X22721047Y-13034200D01*
X22697238Y-13058009D01*
X22673428Y-13105628D01*
X22673428Y-13177057D01*
X22697238Y-13224676D01*
X22721047Y-13248485D01*
X22768666Y-13272295D01*
X22959142Y-13272295D01*
X22244857Y-13177057D02*
X22244857Y-13510390D01*
X22363904Y-12986580D02*
X22482952Y-13343723D01*
X22173428Y-13343723D01*
X21768666Y-13177057D02*
X21768666Y-13510390D01*
X21887714Y-12986580D02*
X22006761Y-13343723D01*
X21697238Y-13343723D01*
X22825828Y-15008990D02*
X22992495Y-14770895D01*
X23111542Y-15008990D02*
X23111542Y-14508990D01*
X22921066Y-14508990D01*
X22873447Y-14532800D01*
X22849638Y-14556609D01*
X22825828Y-14604228D01*
X22825828Y-14675657D01*
X22849638Y-14723276D01*
X22873447Y-14747085D01*
X22921066Y-14770895D01*
X23111542Y-14770895D01*
X22397257Y-14675657D02*
X22397257Y-15008990D01*
X22516304Y-14485180D02*
X22635352Y-14842323D01*
X22325828Y-14842323D01*
X22182971Y-14508990D02*
X21873447Y-14508990D01*
X22040114Y-14699466D01*
X21968685Y-14699466D01*
X21921066Y-14723276D01*
X21897257Y-14747085D01*
X21873447Y-14794704D01*
X21873447Y-14913752D01*
X21897257Y-14961371D01*
X21921066Y-14985180D01*
X21968685Y-15008990D01*
X22111542Y-15008990D01*
X22159161Y-14985180D01*
X22182971Y-14961371D01*
D14*
X25071295Y-64556780D02*
X25071295Y-63556780D01*
X24833200Y-63556780D01*
X24690342Y-63604400D01*
X24595104Y-63699638D01*
X24547485Y-63794876D01*
X24499866Y-63985352D01*
X24499866Y-64128209D01*
X24547485Y-64318685D01*
X24595104Y-64413923D01*
X24690342Y-64509161D01*
X24833200Y-64556780D01*
X25071295Y-64556780D01*
X23642723Y-63556780D02*
X23833200Y-63556780D01*
X23928438Y-63604400D01*
X23976057Y-63652019D01*
X24071295Y-63794876D01*
X24118914Y-63985352D01*
X24118914Y-64366304D01*
X24071295Y-64461542D01*
X24023676Y-64509161D01*
X23928438Y-64556780D01*
X23737961Y-64556780D01*
X23642723Y-64509161D01*
X23595104Y-64461542D01*
X23547485Y-64366304D01*
X23547485Y-64128209D01*
X23595104Y-64032971D01*
X23642723Y-63985352D01*
X23737961Y-63937733D01*
X23928438Y-63937733D01*
X24023676Y-63985352D01*
X24071295Y-64032971D01*
X24118914Y-64128209D01*
X8970601Y-62926055D02*
X9018220Y-63068912D01*
X9018220Y-63307007D01*
X8970601Y-63402245D01*
X8922982Y-63449864D01*
X8827744Y-63497483D01*
X8732506Y-63497483D01*
X8637268Y-63449864D01*
X8589649Y-63402245D01*
X8542030Y-63307007D01*
X8494411Y-63116531D01*
X8446792Y-63021293D01*
X8399173Y-62973674D01*
X8303935Y-62926055D01*
X8208697Y-62926055D01*
X8113459Y-62973674D01*
X8065840Y-63021293D01*
X8018220Y-63116531D01*
X8018220Y-63354626D01*
X8065840Y-63497483D01*
X8018220Y-63830817D02*
X8018220Y-64449864D01*
X8399173Y-64116531D01*
X8399173Y-64259388D01*
X8446792Y-64354626D01*
X8494411Y-64402245D01*
X8589649Y-64449864D01*
X8827744Y-64449864D01*
X8922982Y-64402245D01*
X8970601Y-64354626D01*
X9018220Y-64259388D01*
X9018220Y-63973674D01*
X8970601Y-63878436D01*
X8922982Y-63830817D01*
X518220Y-60711769D02*
X1518220Y-61045102D01*
X518220Y-61378436D01*
X1518220Y-61854626D02*
X1470601Y-61759388D01*
X1422982Y-61711769D01*
X1327744Y-61664150D01*
X1042030Y-61664150D01*
X946792Y-61711769D01*
X899173Y-61759388D01*
X851554Y-61854626D01*
X851554Y-61997483D01*
X899173Y-62092721D01*
X946792Y-62140340D01*
X1042030Y-62187960D01*
X1327744Y-62187960D01*
X1422982Y-62140340D01*
X1470601Y-62092721D01*
X1518220Y-61997483D01*
X1518220Y-61854626D01*
X1518220Y-62759388D02*
X1470601Y-62664150D01*
X1375363Y-62616531D01*
X518220Y-62616531D01*
X1518220Y-63140340D02*
X518220Y-63140340D01*
X518220Y-63378436D01*
X565840Y-63521293D01*
X661078Y-63616531D01*
X756316Y-63664150D01*
X946792Y-63711769D01*
X1089649Y-63711769D01*
X1280125Y-63664150D01*
X1375363Y-63616531D01*
X1470601Y-63521293D01*
X1518220Y-63378436D01*
X1518220Y-63140340D01*
X1518220Y-64283198D02*
X1470601Y-64187960D01*
X1422982Y-64140340D01*
X1327744Y-64092721D01*
X1042030Y-64092721D01*
X946792Y-64140340D01*
X899173Y-64187960D01*
X851554Y-64283198D01*
X851554Y-64426055D01*
X899173Y-64521293D01*
X946792Y-64568912D01*
X1042030Y-64616531D01*
X1327744Y-64616531D01*
X1422982Y-64568912D01*
X1470601Y-64521293D01*
X1518220Y-64426055D01*
X1518220Y-64283198D01*
X851554Y-64949864D02*
X1518220Y-65140340D01*
X1042030Y-65330817D01*
X1518220Y-65521293D01*
X851554Y-65711769D01*
X851554Y-66092721D02*
X1518220Y-66092721D01*
X946792Y-66092721D02*
X899173Y-66140340D01*
X851554Y-66235579D01*
X851554Y-66378436D01*
X899173Y-66473674D01*
X994411Y-66521293D01*
X1518220Y-66521293D01*
X9021401Y-42951495D02*
X9069020Y-43094352D01*
X9069020Y-43332447D01*
X9021401Y-43427685D01*
X8973782Y-43475304D01*
X8878544Y-43522923D01*
X8783306Y-43522923D01*
X8688068Y-43475304D01*
X8640449Y-43427685D01*
X8592830Y-43332447D01*
X8545211Y-43141971D01*
X8497592Y-43046733D01*
X8449973Y-42999114D01*
X8354735Y-42951495D01*
X8259497Y-42951495D01*
X8164259Y-42999114D01*
X8116640Y-43046733D01*
X8069020Y-43141971D01*
X8069020Y-43380066D01*
X8116640Y-43522923D01*
X8164259Y-43903876D02*
X8116640Y-43951495D01*
X8069020Y-44046733D01*
X8069020Y-44284828D01*
X8116640Y-44380066D01*
X8164259Y-44427685D01*
X8259497Y-44475304D01*
X8354735Y-44475304D01*
X8497592Y-44427685D01*
X9069020Y-43856257D01*
X9069020Y-44475304D01*
X569020Y-41689590D02*
X1569020Y-42022923D01*
X569020Y-42356257D01*
X1569020Y-42832447D02*
X1521401Y-42737209D01*
X1473782Y-42689590D01*
X1378544Y-42641971D01*
X1092830Y-42641971D01*
X997592Y-42689590D01*
X949973Y-42737209D01*
X902354Y-42832447D01*
X902354Y-42975304D01*
X949973Y-43070542D01*
X997592Y-43118161D01*
X1092830Y-43165780D01*
X1378544Y-43165780D01*
X1473782Y-43118161D01*
X1521401Y-43070542D01*
X1569020Y-42975304D01*
X1569020Y-42832447D01*
X1569020Y-43737209D02*
X1521401Y-43641971D01*
X1426163Y-43594352D01*
X569020Y-43594352D01*
X569020Y-44118161D02*
X1378544Y-44118161D01*
X1473782Y-44165780D01*
X1521401Y-44213400D01*
X1569020Y-44308638D01*
X1569020Y-44499114D01*
X1521401Y-44594352D01*
X1473782Y-44641971D01*
X1378544Y-44689590D01*
X569020Y-44689590D01*
X902354Y-45165780D02*
X1902354Y-45165780D01*
X949973Y-45165780D02*
X902354Y-45261019D01*
X902354Y-45451495D01*
X949973Y-45546733D01*
X997592Y-45594352D01*
X1092830Y-45641971D01*
X1378544Y-45641971D01*
X1473782Y-45594352D01*
X1521401Y-45546733D01*
X1569020Y-45451495D01*
X1569020Y-45261019D01*
X1521401Y-45165780D01*
X9016321Y-22860095D02*
X9063940Y-23002952D01*
X9063940Y-23241047D01*
X9016321Y-23336285D01*
X8968702Y-23383904D01*
X8873464Y-23431523D01*
X8778226Y-23431523D01*
X8682988Y-23383904D01*
X8635369Y-23336285D01*
X8587750Y-23241047D01*
X8540131Y-23050571D01*
X8492512Y-22955333D01*
X8444893Y-22907714D01*
X8349655Y-22860095D01*
X8254417Y-22860095D01*
X8159179Y-22907714D01*
X8111560Y-22955333D01*
X8063940Y-23050571D01*
X8063940Y-23288666D01*
X8111560Y-23431523D01*
X9063940Y-24383904D02*
X9063940Y-23812476D01*
X9063940Y-24098190D02*
X8063940Y-24098190D01*
X8206798Y-24002952D01*
X8302036Y-23907714D01*
X8349655Y-23812476D01*
X1278226Y-21526761D02*
X1278226Y-22002952D01*
X1563940Y-21431523D02*
X563940Y-21764857D01*
X1563940Y-22098190D01*
X1516321Y-22860095D02*
X1563940Y-22764857D01*
X1563940Y-22574380D01*
X1516321Y-22479142D01*
X1468702Y-22431523D01*
X1373464Y-22383904D01*
X1087750Y-22383904D01*
X992512Y-22431523D01*
X944893Y-22479142D01*
X897274Y-22574380D01*
X897274Y-22764857D01*
X944893Y-22860095D01*
X897274Y-23145809D02*
X897274Y-23526761D01*
X563940Y-23288666D02*
X1421083Y-23288666D01*
X1516321Y-23336285D01*
X1563940Y-23431523D01*
X1563940Y-23526761D01*
X1563940Y-23860095D02*
X897274Y-23860095D01*
X563940Y-23860095D02*
X611560Y-23812476D01*
X659179Y-23860095D01*
X611560Y-23907714D01*
X563940Y-23860095D01*
X659179Y-23860095D01*
X1563940Y-24479142D02*
X1516321Y-24383904D01*
X1468702Y-24336285D01*
X1373464Y-24288666D01*
X1087750Y-24288666D01*
X992512Y-24336285D01*
X944893Y-24383904D01*
X897274Y-24479142D01*
X897274Y-24622000D01*
X944893Y-24717238D01*
X992512Y-24764857D01*
X1087750Y-24812476D01*
X1373464Y-24812476D01*
X1468702Y-24764857D01*
X1516321Y-24717238D01*
X1563940Y-24622000D01*
X1563940Y-24479142D01*
X897274Y-25241047D02*
X1563940Y-25241047D01*
X992512Y-25241047D02*
X944893Y-25288666D01*
X897274Y-25383904D01*
X897274Y-25526761D01*
X944893Y-25622000D01*
X1040131Y-25669619D01*
X1563940Y-25669619D01*
X20585180Y-87534904D02*
X21394704Y-87534904D01*
X21489942Y-87582523D01*
X21537561Y-87630142D01*
X21585180Y-87725380D01*
X21585180Y-87915857D01*
X21537561Y-88011095D01*
X21489942Y-88058714D01*
X21394704Y-88106333D01*
X20585180Y-88106333D01*
X21585180Y-89106333D02*
X21585180Y-88534904D01*
X21585180Y-88820619D02*
X20585180Y-88820619D01*
X20728038Y-88725380D01*
X20823276Y-88630142D01*
X20870895Y-88534904D01*
X21585180Y-90058714D02*
X21585180Y-89487285D01*
X21585180Y-89773000D02*
X20585180Y-89773000D01*
X20728038Y-89677761D01*
X20823276Y-89582523D01*
X20870895Y-89487285D01*
X21601180Y-17557904D02*
X22410704Y-17557904D01*
X22505942Y-17605523D01*
X22553561Y-17653142D01*
X22601180Y-17748380D01*
X22601180Y-17938857D01*
X22553561Y-18034095D01*
X22505942Y-18081714D01*
X22410704Y-18129333D01*
X21601180Y-18129333D01*
X22601180Y-19129333D02*
X22601180Y-18557904D01*
X22601180Y-18843619D02*
X21601180Y-18843619D01*
X21744038Y-18748380D01*
X21839276Y-18653142D01*
X21886895Y-18557904D01*
X21601180Y-19748380D02*
X21601180Y-19843619D01*
X21648800Y-19938857D01*
X21696419Y-19986476D01*
X21791657Y-20034095D01*
X21982133Y-20081714D01*
X22220228Y-20081714D01*
X22410704Y-20034095D01*
X22505942Y-19986476D01*
X22553561Y-19938857D01*
X22601180Y-19843619D01*
X22601180Y-19748380D01*
X22553561Y-19653142D01*
X22505942Y-19605523D01*
X22410704Y-19557904D01*
X22220228Y-19510285D01*
X21982133Y-19510285D01*
X21791657Y-19557904D01*
X21696419Y-19605523D01*
X21648800Y-19653142D01*
X21601180Y-19748380D01*
X40184295Y-39207700D02*
X40184295Y-38207700D01*
X39946200Y-38207700D01*
X39803342Y-38255320D01*
X39708104Y-38350558D01*
X39660485Y-38445796D01*
X39612866Y-38636272D01*
X39612866Y-38779129D01*
X39660485Y-38969605D01*
X39708104Y-39064843D01*
X39803342Y-39160081D01*
X39946200Y-39207700D01*
X40184295Y-39207700D01*
X39231914Y-38302939D02*
X39184295Y-38255320D01*
X39089057Y-38207700D01*
X38850961Y-38207700D01*
X38755723Y-38255320D01*
X38708104Y-38302939D01*
X38660485Y-38398177D01*
X38660485Y-38493415D01*
X38708104Y-38636272D01*
X39279533Y-39207700D01*
X38660485Y-39207700D01*
X29318175Y-44074340D02*
X29318175Y-43074340D01*
X29080080Y-43074340D01*
X28937222Y-43121960D01*
X28841984Y-43217198D01*
X28794365Y-43312436D01*
X28746746Y-43502912D01*
X28746746Y-43645769D01*
X28794365Y-43836245D01*
X28841984Y-43931483D01*
X28937222Y-44026721D01*
X29080080Y-44074340D01*
X29318175Y-44074340D01*
X28413413Y-43074340D02*
X27794365Y-43074340D01*
X28127699Y-43455293D01*
X27984841Y-43455293D01*
X27889603Y-43502912D01*
X27841984Y-43550531D01*
X27794365Y-43645769D01*
X27794365Y-43883864D01*
X27841984Y-43979102D01*
X27889603Y-44026721D01*
X27984841Y-44074340D01*
X28270556Y-44074340D01*
X28365794Y-44026721D01*
X28413413Y-43979102D01*
X25122095Y-50840780D02*
X25122095Y-49840780D01*
X24884000Y-49840780D01*
X24741142Y-49888400D01*
X24645904Y-49983638D01*
X24598285Y-50078876D01*
X24550666Y-50269352D01*
X24550666Y-50412209D01*
X24598285Y-50602685D01*
X24645904Y-50697923D01*
X24741142Y-50793161D01*
X24884000Y-50840780D01*
X25122095Y-50840780D01*
X23693523Y-50174114D02*
X23693523Y-50840780D01*
X23931619Y-49793161D02*
X24169714Y-50507447D01*
X23550666Y-50507447D01*
X21972495Y-57698780D02*
X21972495Y-56698780D01*
X21734400Y-56698780D01*
X21591542Y-56746400D01*
X21496304Y-56841638D01*
X21448685Y-56936876D01*
X21401066Y-57127352D01*
X21401066Y-57270209D01*
X21448685Y-57460685D01*
X21496304Y-57555923D01*
X21591542Y-57651161D01*
X21734400Y-57698780D01*
X21972495Y-57698780D01*
X20496304Y-56698780D02*
X20972495Y-56698780D01*
X21020114Y-57174971D01*
X20972495Y-57127352D01*
X20877257Y-57079733D01*
X20639161Y-57079733D01*
X20543923Y-57127352D01*
X20496304Y-57174971D01*
X20448685Y-57270209D01*
X20448685Y-57508304D01*
X20496304Y-57603542D01*
X20543923Y-57651161D01*
X20639161Y-57698780D01*
X20877257Y-57698780D01*
X20972495Y-57651161D01*
X21020114Y-57603542D01*
X29490895Y-70601980D02*
X29490895Y-69601980D01*
X29252800Y-69601980D01*
X29109942Y-69649600D01*
X29014704Y-69744838D01*
X28967085Y-69840076D01*
X28919466Y-70030552D01*
X28919466Y-70173409D01*
X28967085Y-70363885D01*
X29014704Y-70459123D01*
X29109942Y-70554361D01*
X29252800Y-70601980D01*
X29490895Y-70601980D01*
X28586133Y-69601980D02*
X27919466Y-69601980D01*
X28348038Y-70601980D01*
X36958495Y-71262380D02*
X36958495Y-70262380D01*
X36720400Y-70262380D01*
X36577542Y-70310000D01*
X36482304Y-70405238D01*
X36434685Y-70500476D01*
X36387066Y-70690952D01*
X36387066Y-70833809D01*
X36434685Y-71024285D01*
X36482304Y-71119523D01*
X36577542Y-71214761D01*
X36720400Y-71262380D01*
X36958495Y-71262380D01*
X35815638Y-70690952D02*
X35910876Y-70643333D01*
X35958495Y-70595714D01*
X36006114Y-70500476D01*
X36006114Y-70452857D01*
X35958495Y-70357619D01*
X35910876Y-70310000D01*
X35815638Y-70262380D01*
X35625161Y-70262380D01*
X35529923Y-70310000D01*
X35482304Y-70357619D01*
X35434685Y-70452857D01*
X35434685Y-70500476D01*
X35482304Y-70595714D01*
X35529923Y-70643333D01*
X35625161Y-70690952D01*
X35815638Y-70690952D01*
X35910876Y-70738571D01*
X35958495Y-70786190D01*
X36006114Y-70881428D01*
X36006114Y-71071904D01*
X35958495Y-71167142D01*
X35910876Y-71214761D01*
X35815638Y-71262380D01*
X35625161Y-71262380D01*
X35529923Y-71214761D01*
X35482304Y-71167142D01*
X35434685Y-71071904D01*
X35434685Y-70881428D01*
X35482304Y-70786190D01*
X35529923Y-70738571D01*
X35625161Y-70690952D01*
X44476895Y-70652780D02*
X44476895Y-69652780D01*
X44238800Y-69652780D01*
X44095942Y-69700400D01*
X44000704Y-69795638D01*
X43953085Y-69890876D01*
X43905466Y-70081352D01*
X43905466Y-70224209D01*
X43953085Y-70414685D01*
X44000704Y-70509923D01*
X44095942Y-70605161D01*
X44238800Y-70652780D01*
X44476895Y-70652780D01*
X43429276Y-70652780D02*
X43238800Y-70652780D01*
X43143561Y-70605161D01*
X43095942Y-70557542D01*
X43000704Y-70414685D01*
X42953085Y-70224209D01*
X42953085Y-69843257D01*
X43000704Y-69748019D01*
X43048323Y-69700400D01*
X43143561Y-69652780D01*
X43334038Y-69652780D01*
X43429276Y-69700400D01*
X43476895Y-69748019D01*
X43524514Y-69843257D01*
X43524514Y-70081352D01*
X43476895Y-70176590D01*
X43429276Y-70224209D01*
X43334038Y-70271828D01*
X43143561Y-70271828D01*
X43048323Y-70224209D01*
X43000704Y-70176590D01*
X42953085Y-70081352D01*
X49321885Y-64455180D02*
X49321885Y-63455180D01*
X49083790Y-63455180D01*
X48940933Y-63502800D01*
X48845695Y-63598038D01*
X48798076Y-63693276D01*
X48750457Y-63883752D01*
X48750457Y-64026609D01*
X48798076Y-64217085D01*
X48845695Y-64312323D01*
X48940933Y-64407561D01*
X49083790Y-64455180D01*
X49321885Y-64455180D01*
X47798076Y-64455180D02*
X48369504Y-64455180D01*
X48083790Y-64455180D02*
X48083790Y-63455180D01*
X48179028Y-63598038D01*
X48274266Y-63693276D01*
X48369504Y-63740895D01*
X47179028Y-63455180D02*
X47083790Y-63455180D01*
X46988552Y-63502800D01*
X46940933Y-63550419D01*
X46893314Y-63645657D01*
X46845695Y-63836133D01*
X46845695Y-64074228D01*
X46893314Y-64264704D01*
X46940933Y-64359942D01*
X46988552Y-64407561D01*
X47083790Y-64455180D01*
X47179028Y-64455180D01*
X47274266Y-64407561D01*
X47321885Y-64359942D01*
X47369504Y-64264704D01*
X47417123Y-64074228D01*
X47417123Y-63836133D01*
X47369504Y-63645657D01*
X47321885Y-63550419D01*
X47274266Y-63502800D01*
X47179028Y-63455180D01*
X52420685Y-57647980D02*
X52420685Y-56647980D01*
X52182590Y-56647980D01*
X52039733Y-56695600D01*
X51944495Y-56790838D01*
X51896876Y-56886076D01*
X51849257Y-57076552D01*
X51849257Y-57219409D01*
X51896876Y-57409885D01*
X51944495Y-57505123D01*
X52039733Y-57600361D01*
X52182590Y-57647980D01*
X52420685Y-57647980D01*
X50896876Y-57647980D02*
X51468304Y-57647980D01*
X51182590Y-57647980D02*
X51182590Y-56647980D01*
X51277828Y-56790838D01*
X51373066Y-56886076D01*
X51468304Y-56933695D01*
X49944495Y-57647980D02*
X50515923Y-57647980D01*
X50230209Y-57647980D02*
X50230209Y-56647980D01*
X50325447Y-56790838D01*
X50420685Y-56886076D01*
X50515923Y-56933695D01*
X49271085Y-50840780D02*
X49271085Y-49840780D01*
X49032990Y-49840780D01*
X48890133Y-49888400D01*
X48794895Y-49983638D01*
X48747276Y-50078876D01*
X48699657Y-50269352D01*
X48699657Y-50412209D01*
X48747276Y-50602685D01*
X48794895Y-50697923D01*
X48890133Y-50793161D01*
X49032990Y-50840780D01*
X49271085Y-50840780D01*
X47747276Y-50840780D02*
X48318704Y-50840780D01*
X48032990Y-50840780D02*
X48032990Y-49840780D01*
X48128228Y-49983638D01*
X48223466Y-50078876D01*
X48318704Y-50126495D01*
X47366323Y-49936019D02*
X47318704Y-49888400D01*
X47223466Y-49840780D01*
X46985371Y-49840780D01*
X46890133Y-49888400D01*
X46842514Y-49936019D01*
X46794895Y-50031257D01*
X46794895Y-50126495D01*
X46842514Y-50269352D01*
X47413942Y-50840780D01*
X46794895Y-50840780D01*
X44902285Y-44643180D02*
X44902285Y-43643180D01*
X44664190Y-43643180D01*
X44521333Y-43690800D01*
X44426095Y-43786038D01*
X44378476Y-43881276D01*
X44330857Y-44071752D01*
X44330857Y-44214609D01*
X44378476Y-44405085D01*
X44426095Y-44500323D01*
X44521333Y-44595561D01*
X44664190Y-44643180D01*
X44902285Y-44643180D01*
X43378476Y-44643180D02*
X43949904Y-44643180D01*
X43664190Y-44643180D02*
X43664190Y-43643180D01*
X43759428Y-43786038D01*
X43854666Y-43881276D01*
X43949904Y-43928895D01*
X43045142Y-43643180D02*
X42426095Y-43643180D01*
X42759428Y-44024133D01*
X42616571Y-44024133D01*
X42521333Y-44071752D01*
X42473714Y-44119371D01*
X42426095Y-44214609D01*
X42426095Y-44452704D01*
X42473714Y-44547942D01*
X42521333Y-44595561D01*
X42616571Y-44643180D01*
X42902285Y-44643180D01*
X42997523Y-44595561D01*
X43045142Y-44547942D01*
M02*
