G04 #@! TF.GenerationSoftware,KiCad,Pcbnew,(5.1.6)-1*
G04 #@! TF.CreationDate,2020-07-25T07:52:59-07:00*
G04 #@! TF.ProjectId,Mycroft - Mark 2,4d796372-6f66-4742-902d-204d61726b20,rev?*
G04 #@! TF.SameCoordinates,Original*
G04 #@! TF.FileFunction,Legend,Top*
G04 #@! TF.FilePolarity,Positive*
%FSLAX46Y46*%
G04 Gerber Fmt 4.6, Leading zero omitted, Abs format (unit mm)*
G04 Created by KiCad (PCBNEW (5.1.6)-1) date 2020-07-25 07:52:59*
%MOMM*%
%LPD*%
G01*
G04 APERTURE LIST*
%ADD10C,0.100000*%
%ADD11C,0.150000*%
%ADD12C,0.120000*%
%ADD13C,0.152400*%
%ADD14C,0.050000*%
G04 APERTURE END LIST*
D10*
X26806822Y-90978485D02*
X27271108Y-90978485D01*
X27021108Y-91264200D01*
X27128251Y-91264200D01*
X27199680Y-91299914D01*
X27235394Y-91335628D01*
X27271108Y-91407057D01*
X27271108Y-91585628D01*
X27235394Y-91657057D01*
X27199680Y-91692771D01*
X27128251Y-91728485D01*
X26913965Y-91728485D01*
X26842537Y-91692771D01*
X26806822Y-91657057D01*
X27592537Y-91657057D02*
X27628251Y-91692771D01*
X27592537Y-91728485D01*
X27556822Y-91692771D01*
X27592537Y-91657057D01*
X27592537Y-91728485D01*
X27878251Y-90978485D02*
X28342537Y-90978485D01*
X28092537Y-91264200D01*
X28199680Y-91264200D01*
X28271108Y-91299914D01*
X28306822Y-91335628D01*
X28342537Y-91407057D01*
X28342537Y-91585628D01*
X28306822Y-91657057D01*
X28271108Y-91692771D01*
X28199680Y-91728485D01*
X27985394Y-91728485D01*
X27913965Y-91692771D01*
X27878251Y-91657057D01*
X28592537Y-91228485D02*
X28771108Y-91728485D01*
X28949680Y-91228485D01*
X29806822Y-91728485D02*
X29806822Y-90978485D01*
X30092537Y-90978485D01*
X30163965Y-91014200D01*
X30199680Y-91049914D01*
X30235394Y-91121342D01*
X30235394Y-91228485D01*
X30199680Y-91299914D01*
X30163965Y-91335628D01*
X30092537Y-91371342D01*
X29806822Y-91371342D01*
X30663965Y-91728485D02*
X30592537Y-91692771D01*
X30556822Y-91657057D01*
X30521108Y-91585628D01*
X30521108Y-91371342D01*
X30556822Y-91299914D01*
X30592537Y-91264200D01*
X30663965Y-91228485D01*
X30771108Y-91228485D01*
X30842537Y-91264200D01*
X30878251Y-91299914D01*
X30913965Y-91371342D01*
X30913965Y-91585628D01*
X30878251Y-91657057D01*
X30842537Y-91692771D01*
X30771108Y-91728485D01*
X30663965Y-91728485D01*
X31163965Y-91228485D02*
X31306822Y-91728485D01*
X31449680Y-91371342D01*
X31592537Y-91728485D01*
X31735394Y-91228485D01*
X32306822Y-91692771D02*
X32235394Y-91728485D01*
X32092537Y-91728485D01*
X32021108Y-91692771D01*
X31985394Y-91621342D01*
X31985394Y-91335628D01*
X32021108Y-91264200D01*
X32092537Y-91228485D01*
X32235394Y-91228485D01*
X32306822Y-91264200D01*
X32342537Y-91335628D01*
X32342537Y-91407057D01*
X31985394Y-91478485D01*
X32663965Y-91728485D02*
X32663965Y-91228485D01*
X32663965Y-91371342D02*
X32699680Y-91299914D01*
X32735394Y-91264200D01*
X32806822Y-91228485D01*
X32878251Y-91228485D01*
D11*
X64611239Y-32989780D02*
X64135048Y-32989780D01*
X64135048Y-31989780D01*
X64944572Y-32989780D02*
X64944572Y-32323114D01*
X64944572Y-31989780D02*
X64896953Y-32037400D01*
X64944572Y-32085019D01*
X64992191Y-32037400D01*
X64944572Y-31989780D01*
X64944572Y-32085019D01*
X65420762Y-32323114D02*
X65420762Y-32989780D01*
X65420762Y-32418352D02*
X65468381Y-32370733D01*
X65563620Y-32323114D01*
X65706477Y-32323114D01*
X65801715Y-32370733D01*
X65849334Y-32465971D01*
X65849334Y-32989780D01*
X66706477Y-32942161D02*
X66611239Y-32989780D01*
X66420762Y-32989780D01*
X66325524Y-32942161D01*
X66277905Y-32846923D01*
X66277905Y-32465971D01*
X66325524Y-32370733D01*
X66420762Y-32323114D01*
X66611239Y-32323114D01*
X66706477Y-32370733D01*
X66754096Y-32465971D01*
X66754096Y-32561209D01*
X66277905Y-32656447D01*
X68135048Y-31989780D02*
X68325524Y-31989780D01*
X68420762Y-32037400D01*
X68516000Y-32132638D01*
X68563620Y-32323114D01*
X68563620Y-32656447D01*
X68516000Y-32846923D01*
X68420762Y-32942161D01*
X68325524Y-32989780D01*
X68135048Y-32989780D01*
X68039810Y-32942161D01*
X67944572Y-32846923D01*
X67896953Y-32656447D01*
X67896953Y-32323114D01*
X67944572Y-32132638D01*
X68039810Y-32037400D01*
X68135048Y-31989780D01*
X69420762Y-32323114D02*
X69420762Y-32989780D01*
X68992191Y-32323114D02*
X68992191Y-32846923D01*
X69039810Y-32942161D01*
X69135048Y-32989780D01*
X69277905Y-32989780D01*
X69373143Y-32942161D01*
X69420762Y-32894542D01*
X69754096Y-32323114D02*
X70135048Y-32323114D01*
X69896953Y-31989780D02*
X69896953Y-32846923D01*
X69944572Y-32942161D01*
X70039810Y-32989780D01*
X70135048Y-32989780D01*
D10*
X4108347Y-83208641D02*
X4108347Y-82678641D01*
X4227395Y-82678641D01*
X4298823Y-82703880D01*
X4346442Y-82754356D01*
X4370252Y-82804832D01*
X4394061Y-82905784D01*
X4394061Y-82981499D01*
X4370252Y-83082451D01*
X4346442Y-83132927D01*
X4298823Y-83183403D01*
X4227395Y-83208641D01*
X4108347Y-83208641D01*
X4822633Y-83208641D02*
X4822633Y-82931022D01*
X4798823Y-82880546D01*
X4751204Y-82855308D01*
X4655966Y-82855308D01*
X4608347Y-82880546D01*
X4822633Y-83183403D02*
X4775014Y-83208641D01*
X4655966Y-83208641D01*
X4608347Y-83183403D01*
X4584538Y-83132927D01*
X4584538Y-83082451D01*
X4608347Y-83031975D01*
X4655966Y-83006737D01*
X4775014Y-83006737D01*
X4822633Y-82981499D01*
X4989300Y-82855308D02*
X5179776Y-82855308D01*
X5060728Y-82678641D02*
X5060728Y-83132927D01*
X5084538Y-83183403D01*
X5132157Y-83208641D01*
X5179776Y-83208641D01*
X5560728Y-83208641D02*
X5560728Y-82931022D01*
X5536919Y-82880546D01*
X5489300Y-82855308D01*
X5394061Y-82855308D01*
X5346442Y-82880546D01*
X5560728Y-83183403D02*
X5513109Y-83208641D01*
X5394061Y-83208641D01*
X5346442Y-83183403D01*
X5322633Y-83132927D01*
X5322633Y-83082451D01*
X5346442Y-83031975D01*
X5394061Y-83006737D01*
X5513109Y-83006737D01*
X5560728Y-82981499D01*
X4394061Y-85843165D02*
X4370252Y-85868403D01*
X4298823Y-85893641D01*
X4251204Y-85893641D01*
X4179776Y-85868403D01*
X4132157Y-85817927D01*
X4108347Y-85767451D01*
X4084538Y-85666499D01*
X4084538Y-85590784D01*
X4108347Y-85489832D01*
X4132157Y-85439356D01*
X4179776Y-85388880D01*
X4251204Y-85363641D01*
X4298823Y-85363641D01*
X4370252Y-85388880D01*
X4394061Y-85414118D01*
X4846442Y-85893641D02*
X4608347Y-85893641D01*
X4608347Y-85363641D01*
X5013109Y-85893641D02*
X5013109Y-85363641D01*
X5298823Y-85893641D02*
X5084538Y-85590784D01*
X5298823Y-85363641D02*
X5013109Y-85666499D01*
X5394061Y-85944118D02*
X5775014Y-85944118D01*
X5894061Y-85893641D02*
X5894061Y-85363641D01*
X6060728Y-85742213D01*
X6227395Y-85363641D01*
X6227395Y-85893641D01*
X4060728Y-88048641D02*
X4370252Y-88048641D01*
X4203585Y-88250546D01*
X4275014Y-88250546D01*
X4322633Y-88275784D01*
X4346442Y-88301022D01*
X4370252Y-88351499D01*
X4370252Y-88477689D01*
X4346442Y-88528165D01*
X4322633Y-88553403D01*
X4275014Y-88578641D01*
X4132157Y-88578641D01*
X4084538Y-88553403D01*
X4060728Y-88528165D01*
X4536919Y-88225308D02*
X4655966Y-88578641D01*
X4775014Y-88225308D01*
X4917871Y-88048641D02*
X5227395Y-88048641D01*
X5060728Y-88250546D01*
X5132157Y-88250546D01*
X5179776Y-88275784D01*
X5203585Y-88301022D01*
X5227395Y-88351499D01*
X5227395Y-88477689D01*
X5203585Y-88528165D01*
X5179776Y-88553403D01*
X5132157Y-88578641D01*
X4989300Y-88578641D01*
X4941680Y-88553403D01*
X4917871Y-88528165D01*
X5822633Y-88578641D02*
X5822633Y-88048641D01*
X5989300Y-88427213D01*
X6155966Y-88048641D01*
X6155966Y-88578641D01*
X6394061Y-88578641D02*
X6394061Y-88225308D01*
X6394061Y-88048641D02*
X6370252Y-88073880D01*
X6394061Y-88099118D01*
X6417871Y-88073880D01*
X6394061Y-88048641D01*
X6394061Y-88099118D01*
X6846442Y-88553403D02*
X6798823Y-88578641D01*
X6703585Y-88578641D01*
X6655966Y-88553403D01*
X6632157Y-88528165D01*
X6608347Y-88477689D01*
X6608347Y-88326260D01*
X6632157Y-88275784D01*
X6655966Y-88250546D01*
X6703585Y-88225308D01*
X6798823Y-88225308D01*
X6846442Y-88250546D01*
X4047387Y-71650261D02*
X4047387Y-71120261D01*
X4166435Y-71120261D01*
X4237863Y-71145500D01*
X4285482Y-71195976D01*
X4309292Y-71246452D01*
X4333101Y-71347404D01*
X4333101Y-71423119D01*
X4309292Y-71524071D01*
X4285482Y-71574547D01*
X4237863Y-71625023D01*
X4166435Y-71650261D01*
X4047387Y-71650261D01*
X4761673Y-71650261D02*
X4761673Y-71372642D01*
X4737863Y-71322166D01*
X4690244Y-71296928D01*
X4595006Y-71296928D01*
X4547387Y-71322166D01*
X4761673Y-71625023D02*
X4714054Y-71650261D01*
X4595006Y-71650261D01*
X4547387Y-71625023D01*
X4523578Y-71574547D01*
X4523578Y-71524071D01*
X4547387Y-71473595D01*
X4595006Y-71448357D01*
X4714054Y-71448357D01*
X4761673Y-71423119D01*
X4928340Y-71296928D02*
X5118816Y-71296928D01*
X4999768Y-71120261D02*
X4999768Y-71574547D01*
X5023578Y-71625023D01*
X5071197Y-71650261D01*
X5118816Y-71650261D01*
X5499768Y-71650261D02*
X5499768Y-71372642D01*
X5475959Y-71322166D01*
X5428340Y-71296928D01*
X5333101Y-71296928D01*
X5285482Y-71322166D01*
X5499768Y-71625023D02*
X5452149Y-71650261D01*
X5333101Y-71650261D01*
X5285482Y-71625023D01*
X5261673Y-71574547D01*
X5261673Y-71524071D01*
X5285482Y-71473595D01*
X5333101Y-71448357D01*
X5452149Y-71448357D01*
X5499768Y-71423119D01*
X4214054Y-74057642D02*
X4285482Y-74082880D01*
X4309292Y-74108119D01*
X4333101Y-74158595D01*
X4333101Y-74234309D01*
X4309292Y-74284785D01*
X4285482Y-74310023D01*
X4237863Y-74335261D01*
X4047387Y-74335261D01*
X4047387Y-73805261D01*
X4214054Y-73805261D01*
X4261673Y-73830500D01*
X4285482Y-73855738D01*
X4309292Y-73906214D01*
X4309292Y-73956690D01*
X4285482Y-74007166D01*
X4261673Y-74032404D01*
X4214054Y-74057642D01*
X4047387Y-74057642D01*
X4833101Y-74284785D02*
X4809292Y-74310023D01*
X4737863Y-74335261D01*
X4690244Y-74335261D01*
X4618816Y-74310023D01*
X4571197Y-74259547D01*
X4547387Y-74209071D01*
X4523578Y-74108119D01*
X4523578Y-74032404D01*
X4547387Y-73931452D01*
X4571197Y-73880976D01*
X4618816Y-73830500D01*
X4690244Y-73805261D01*
X4737863Y-73805261D01*
X4809292Y-73830500D01*
X4833101Y-73855738D01*
X5047387Y-74335261D02*
X5047387Y-73805261D01*
X5333101Y-74335261D02*
X5118816Y-74032404D01*
X5333101Y-73805261D02*
X5047387Y-74108119D01*
X4285482Y-77020261D02*
X4047387Y-77020261D01*
X4047387Y-76490261D01*
X4737863Y-77020261D02*
X4571197Y-76767880D01*
X4452149Y-77020261D02*
X4452149Y-76490261D01*
X4642625Y-76490261D01*
X4690244Y-76515500D01*
X4714054Y-76540738D01*
X4737863Y-76591214D01*
X4737863Y-76666928D01*
X4714054Y-76717404D01*
X4690244Y-76742642D01*
X4642625Y-76767880D01*
X4452149Y-76767880D01*
X5237863Y-76969785D02*
X5214054Y-76995023D01*
X5142625Y-77020261D01*
X5095006Y-77020261D01*
X5023578Y-76995023D01*
X4975959Y-76944547D01*
X4952149Y-76894071D01*
X4928340Y-76793119D01*
X4928340Y-76717404D01*
X4952149Y-76616452D01*
X4975959Y-76565976D01*
X5023578Y-76515500D01*
X5095006Y-76490261D01*
X5142625Y-76490261D01*
X5214054Y-76515500D01*
X5237863Y-76540738D01*
X5452149Y-77020261D02*
X5452149Y-76490261D01*
X5737863Y-77020261D02*
X5523578Y-76717404D01*
X5737863Y-76490261D02*
X5452149Y-76793119D01*
X4023578Y-79680023D02*
X4095006Y-79705261D01*
X4214054Y-79705261D01*
X4261673Y-79680023D01*
X4285482Y-79654785D01*
X4309292Y-79604309D01*
X4309292Y-79553833D01*
X4285482Y-79503357D01*
X4261673Y-79478119D01*
X4214054Y-79452880D01*
X4118816Y-79427642D01*
X4071197Y-79402404D01*
X4047387Y-79377166D01*
X4023578Y-79326690D01*
X4023578Y-79276214D01*
X4047387Y-79225738D01*
X4071197Y-79200500D01*
X4118816Y-79175261D01*
X4237863Y-79175261D01*
X4309292Y-79200500D01*
X4809292Y-79654785D02*
X4785482Y-79680023D01*
X4714054Y-79705261D01*
X4666435Y-79705261D01*
X4595006Y-79680023D01*
X4547387Y-79629547D01*
X4523578Y-79579071D01*
X4499768Y-79478119D01*
X4499768Y-79402404D01*
X4523578Y-79301452D01*
X4547387Y-79250976D01*
X4595006Y-79200500D01*
X4666435Y-79175261D01*
X4714054Y-79175261D01*
X4785482Y-79200500D01*
X4809292Y-79225738D01*
X5023578Y-79705261D02*
X5023578Y-79175261D01*
X5309292Y-79705261D02*
X5095006Y-79402404D01*
X5309292Y-79175261D02*
X5023578Y-79478119D01*
X31334719Y-6063820D02*
X31738780Y-6467881D01*
X31334719Y-6467881D02*
X31738780Y-6063820D01*
X32067079Y-7200242D02*
X31764033Y-6897196D01*
X31915556Y-7048719D02*
X32445886Y-6518389D01*
X32319617Y-6543643D01*
X32218602Y-6543643D01*
X32142841Y-6518389D01*
X32344871Y-7377018D02*
X32344871Y-7427526D01*
X32294364Y-7427526D01*
X32294364Y-7377018D01*
X32344871Y-7377018D01*
X32294364Y-7427526D01*
X33178247Y-7250749D02*
X33228755Y-7301257D01*
X33254008Y-7377018D01*
X33254008Y-7427526D01*
X33228755Y-7503287D01*
X33152993Y-7629556D01*
X33026724Y-7755826D01*
X32900455Y-7831587D01*
X32824694Y-7856841D01*
X32774186Y-7856841D01*
X32698425Y-7831587D01*
X32647917Y-7781079D01*
X32622663Y-7705318D01*
X32622663Y-7654810D01*
X32647917Y-7579049D01*
X32723678Y-7452780D01*
X32849947Y-7326511D01*
X32976216Y-7250749D01*
X33051978Y-7225495D01*
X33102486Y-7225495D01*
X33178247Y-7250749D01*
X33506547Y-7579049D02*
X33152993Y-8286156D01*
X33860100Y-7932602D01*
X7417934Y-203965D02*
X7060791Y-203965D01*
X7025077Y-561108D01*
X7060791Y-525394D01*
X7132220Y-489680D01*
X7310791Y-489680D01*
X7382220Y-525394D01*
X7417934Y-561108D01*
X7453648Y-632537D01*
X7453648Y-811108D01*
X7417934Y-882537D01*
X7382220Y-918251D01*
X7310791Y-953965D01*
X7132220Y-953965D01*
X7060791Y-918251D01*
X7025077Y-882537D01*
X7667934Y-203965D02*
X7917934Y-953965D01*
X8167934Y-203965D01*
X8989362Y-953965D02*
X8989362Y-203965D01*
X9275077Y-203965D01*
X9346505Y-239680D01*
X9382220Y-275394D01*
X9417934Y-346822D01*
X9417934Y-453965D01*
X9382220Y-525394D01*
X9346505Y-561108D01*
X9275077Y-596822D01*
X8989362Y-596822D01*
X9846505Y-953965D02*
X9775077Y-918251D01*
X9739362Y-882537D01*
X9703648Y-811108D01*
X9703648Y-596822D01*
X9739362Y-525394D01*
X9775077Y-489680D01*
X9846505Y-453965D01*
X9953648Y-453965D01*
X10025077Y-489680D01*
X10060791Y-525394D01*
X10096505Y-596822D01*
X10096505Y-811108D01*
X10060791Y-882537D01*
X10025077Y-918251D01*
X9953648Y-953965D01*
X9846505Y-953965D01*
X10346505Y-453965D02*
X10489362Y-953965D01*
X10632220Y-596822D01*
X10775077Y-953965D01*
X10917934Y-453965D01*
X11489362Y-918251D02*
X11417934Y-953965D01*
X11275077Y-953965D01*
X11203648Y-918251D01*
X11167934Y-846822D01*
X11167934Y-561108D01*
X11203648Y-489680D01*
X11275077Y-453965D01*
X11417934Y-453965D01*
X11489362Y-489680D01*
X11525077Y-561108D01*
X11525077Y-632537D01*
X11167934Y-703965D01*
X11846505Y-953965D02*
X11846505Y-453965D01*
X11846505Y-596822D02*
X11882220Y-525394D01*
X11917934Y-489680D01*
X11989362Y-453965D01*
X12060791Y-453965D01*
X24700239Y-3264740D02*
X25104300Y-3668801D01*
X24700239Y-3668801D02*
X25104300Y-3264740D01*
X25634630Y-3542532D02*
X25962929Y-3870832D01*
X25584122Y-3896085D01*
X25659884Y-3971847D01*
X25685137Y-4047608D01*
X25685137Y-4098116D01*
X25659884Y-4173877D01*
X25533614Y-4300146D01*
X25457853Y-4325400D01*
X25407345Y-4325400D01*
X25331584Y-4300146D01*
X25180061Y-4148624D01*
X25154807Y-4072862D01*
X25154807Y-4022354D01*
X25710391Y-4577938D02*
X25710391Y-4628446D01*
X25659884Y-4628446D01*
X25659884Y-4577938D01*
X25710391Y-4577938D01*
X25659884Y-4628446D01*
X26392244Y-4300146D02*
X26720544Y-4628446D01*
X26341736Y-4653700D01*
X26417498Y-4729461D01*
X26442752Y-4805223D01*
X26442752Y-4855730D01*
X26417498Y-4931492D01*
X26291229Y-5057761D01*
X26215467Y-5083015D01*
X26164960Y-5083015D01*
X26089198Y-5057761D01*
X25937675Y-4906238D01*
X25912422Y-4830476D01*
X25912422Y-4779969D01*
X26872067Y-4779969D02*
X26518513Y-5487076D01*
X27225620Y-5133522D01*
X26994008Y-10211720D02*
X26922580Y-10176005D01*
X26815437Y-10176005D01*
X26708294Y-10211720D01*
X26636865Y-10283148D01*
X26601151Y-10354577D01*
X26565437Y-10497434D01*
X26565437Y-10604577D01*
X26601151Y-10747434D01*
X26636865Y-10818862D01*
X26708294Y-10890291D01*
X26815437Y-10926005D01*
X26886865Y-10926005D01*
X26994008Y-10890291D01*
X27029722Y-10854577D01*
X27029722Y-10604577D01*
X26886865Y-10604577D01*
X27351151Y-10926005D02*
X27351151Y-10176005D01*
X27779722Y-10926005D01*
X27779722Y-10176005D01*
X28136865Y-10926005D02*
X28136865Y-10176005D01*
X28315437Y-10176005D01*
X28422580Y-10211720D01*
X28494008Y-10283148D01*
X28529722Y-10354577D01*
X28565437Y-10497434D01*
X28565437Y-10604577D01*
X28529722Y-10747434D01*
X28494008Y-10818862D01*
X28422580Y-10890291D01*
X28315437Y-10926005D01*
X28136865Y-10926005D01*
X29458294Y-10926005D02*
X29458294Y-10176005D01*
X29744008Y-10176005D01*
X29815437Y-10211720D01*
X29851151Y-10247434D01*
X29886865Y-10318862D01*
X29886865Y-10426005D01*
X29851151Y-10497434D01*
X29815437Y-10533148D01*
X29744008Y-10568862D01*
X29458294Y-10568862D01*
X30101151Y-10176005D02*
X30351151Y-10926005D01*
X30601151Y-10176005D01*
X30851151Y-10926005D02*
X30851151Y-10176005D01*
X31029722Y-10176005D01*
X31136865Y-10211720D01*
X31208294Y-10283148D01*
X31244008Y-10354577D01*
X31279722Y-10497434D01*
X31279722Y-10604577D01*
X31244008Y-10747434D01*
X31208294Y-10818862D01*
X31136865Y-10890291D01*
X31029722Y-10926005D01*
X30851151Y-10926005D01*
X31601151Y-10926005D02*
X31601151Y-10176005D01*
X31779722Y-10176005D01*
X31886865Y-10211720D01*
X31958294Y-10283148D01*
X31994008Y-10354577D01*
X32029722Y-10497434D01*
X32029722Y-10604577D01*
X31994008Y-10747434D01*
X31958294Y-10818862D01*
X31886865Y-10890291D01*
X31779722Y-10926005D01*
X31601151Y-10926005D01*
X26731780Y-1013691D02*
X27303208Y-1013691D01*
X27017494Y-1299405D02*
X27017494Y-727977D01*
X28017494Y-549405D02*
X27660351Y-549405D01*
X27624637Y-906548D01*
X27660351Y-870834D01*
X27731780Y-835120D01*
X27910351Y-835120D01*
X27981780Y-870834D01*
X28017494Y-906548D01*
X28053208Y-977977D01*
X28053208Y-1156548D01*
X28017494Y-1227977D01*
X27981780Y-1263691D01*
X27910351Y-1299405D01*
X27731780Y-1299405D01*
X27660351Y-1263691D01*
X27624637Y-1227977D01*
X28267494Y-549405D02*
X28517494Y-1299405D01*
X28767494Y-549405D01*
X29588922Y-1013691D02*
X30160351Y-1013691D01*
X29874637Y-1299405D02*
X29874637Y-727977D01*
X30910351Y-1299405D02*
X30481780Y-1299405D01*
X30696065Y-1299405D02*
X30696065Y-549405D01*
X30624637Y-656548D01*
X30553208Y-727977D01*
X30481780Y-763691D01*
X31196065Y-620834D02*
X31231780Y-585120D01*
X31303208Y-549405D01*
X31481780Y-549405D01*
X31553208Y-585120D01*
X31588922Y-620834D01*
X31624637Y-692262D01*
X31624637Y-763691D01*
X31588922Y-870834D01*
X31160351Y-1299405D01*
X31624637Y-1299405D01*
X31838922Y-549405D02*
X32088922Y-1299405D01*
X32338922Y-549405D01*
D11*
X15014200Y-49433097D02*
X14538010Y-49766430D01*
X15014200Y-50004525D02*
X14014200Y-50004525D01*
X14014200Y-49623573D01*
X14061820Y-49528335D01*
X14109439Y-49480716D01*
X14204677Y-49433097D01*
X14347534Y-49433097D01*
X14442772Y-49480716D01*
X14490391Y-49528335D01*
X14538010Y-49623573D01*
X14538010Y-50004525D01*
X15014200Y-48575954D02*
X14490391Y-48575954D01*
X14395153Y-48623573D01*
X14347534Y-48718811D01*
X14347534Y-48909287D01*
X14395153Y-49004525D01*
X14966581Y-48575954D02*
X15014200Y-48671192D01*
X15014200Y-48909287D01*
X14966581Y-49004525D01*
X14871343Y-49052144D01*
X14776105Y-49052144D01*
X14680867Y-49004525D01*
X14633248Y-48909287D01*
X14633248Y-48671192D01*
X14585629Y-48575954D01*
X14966581Y-48147382D02*
X15014200Y-48052144D01*
X15014200Y-47861668D01*
X14966581Y-47766430D01*
X14871343Y-47718811D01*
X14823724Y-47718811D01*
X14728486Y-47766430D01*
X14680867Y-47861668D01*
X14680867Y-48004525D01*
X14633248Y-48099763D01*
X14538010Y-48147382D01*
X14490391Y-48147382D01*
X14395153Y-48099763D01*
X14347534Y-48004525D01*
X14347534Y-47861668D01*
X14395153Y-47766430D01*
X14347534Y-47290240D02*
X15347534Y-47290240D01*
X14395153Y-47290240D02*
X14347534Y-47195001D01*
X14347534Y-47004525D01*
X14395153Y-46909287D01*
X14442772Y-46861668D01*
X14538010Y-46814049D01*
X14823724Y-46814049D01*
X14918962Y-46861668D01*
X14966581Y-46909287D01*
X15014200Y-47004525D01*
X15014200Y-47195001D01*
X14966581Y-47290240D01*
X15014200Y-46385478D02*
X14014200Y-46385478D01*
X14395153Y-46385478D02*
X14347534Y-46290240D01*
X14347534Y-46099763D01*
X14395153Y-46004525D01*
X14442772Y-45956906D01*
X14538010Y-45909287D01*
X14823724Y-45909287D01*
X14918962Y-45956906D01*
X14966581Y-46004525D01*
X15014200Y-46099763D01*
X15014200Y-46290240D01*
X14966581Y-46385478D01*
X14966581Y-45099763D02*
X15014200Y-45195001D01*
X15014200Y-45385478D01*
X14966581Y-45480716D01*
X14871343Y-45528335D01*
X14490391Y-45528335D01*
X14395153Y-45480716D01*
X14347534Y-45385478D01*
X14347534Y-45195001D01*
X14395153Y-45099763D01*
X14490391Y-45052144D01*
X14585629Y-45052144D01*
X14680867Y-45528335D01*
X15014200Y-44623573D02*
X14347534Y-44623573D01*
X14538010Y-44623573D02*
X14442772Y-44575954D01*
X14395153Y-44528335D01*
X14347534Y-44433097D01*
X14347534Y-44337859D01*
X15014200Y-44004525D02*
X14347534Y-44004525D01*
X14538010Y-44004525D02*
X14442772Y-43956906D01*
X14395153Y-43909287D01*
X14347534Y-43814049D01*
X14347534Y-43718811D01*
X14347534Y-43480716D02*
X15014200Y-43242620D01*
X14347534Y-43004525D02*
X15014200Y-43242620D01*
X15252296Y-43337859D01*
X15299915Y-43385478D01*
X15347534Y-43480716D01*
X15014200Y-41861668D02*
X14014200Y-41861668D01*
X14014200Y-41480716D01*
X14061820Y-41385478D01*
X14109439Y-41337859D01*
X14204677Y-41290240D01*
X14347534Y-41290240D01*
X14442772Y-41337859D01*
X14490391Y-41385478D01*
X14538010Y-41480716D01*
X14538010Y-41861668D01*
X15014200Y-40861668D02*
X14347534Y-40861668D01*
X14014200Y-40861668D02*
X14061820Y-40909287D01*
X14109439Y-40861668D01*
X14061820Y-40814049D01*
X14014200Y-40861668D01*
X14109439Y-40861668D01*
X14918962Y-39052144D02*
X14966581Y-39099763D01*
X15014200Y-39242620D01*
X15014200Y-39337859D01*
X14966581Y-39480716D01*
X14871343Y-39575954D01*
X14776105Y-39623573D01*
X14585629Y-39671192D01*
X14442772Y-39671192D01*
X14252296Y-39623573D01*
X14157058Y-39575954D01*
X14061820Y-39480716D01*
X14014200Y-39337859D01*
X14014200Y-39242620D01*
X14061820Y-39099763D01*
X14109439Y-39052144D01*
X15014200Y-38480716D02*
X14966581Y-38575954D01*
X14918962Y-38623573D01*
X14823724Y-38671192D01*
X14538010Y-38671192D01*
X14442772Y-38623573D01*
X14395153Y-38575954D01*
X14347534Y-38480716D01*
X14347534Y-38337859D01*
X14395153Y-38242620D01*
X14442772Y-38195001D01*
X14538010Y-38147382D01*
X14823724Y-38147382D01*
X14918962Y-38195001D01*
X14966581Y-38242620D01*
X15014200Y-38337859D01*
X15014200Y-38480716D01*
X14347534Y-37718811D02*
X15014200Y-37718811D01*
X14442772Y-37718811D02*
X14395153Y-37671192D01*
X14347534Y-37575954D01*
X14347534Y-37433097D01*
X14395153Y-37337859D01*
X14490391Y-37290240D01*
X15014200Y-37290240D01*
X14347534Y-36814049D02*
X15014200Y-36814049D01*
X14442772Y-36814049D02*
X14395153Y-36766430D01*
X14347534Y-36671192D01*
X14347534Y-36528335D01*
X14395153Y-36433097D01*
X14490391Y-36385478D01*
X15014200Y-36385478D01*
X14966581Y-35528335D02*
X15014200Y-35623573D01*
X15014200Y-35814049D01*
X14966581Y-35909287D01*
X14871343Y-35956906D01*
X14490391Y-35956906D01*
X14395153Y-35909287D01*
X14347534Y-35814049D01*
X14347534Y-35623573D01*
X14395153Y-35528335D01*
X14490391Y-35480716D01*
X14585629Y-35480716D01*
X14680867Y-35956906D01*
X14966581Y-34623573D02*
X15014200Y-34718811D01*
X15014200Y-34909287D01*
X14966581Y-35004525D01*
X14918962Y-35052144D01*
X14823724Y-35099763D01*
X14538010Y-35099763D01*
X14442772Y-35052144D01*
X14395153Y-35004525D01*
X14347534Y-34909287D01*
X14347534Y-34718811D01*
X14395153Y-34623573D01*
X14347534Y-34337859D02*
X14347534Y-33956906D01*
X14014200Y-34195001D02*
X14871343Y-34195001D01*
X14966581Y-34147382D01*
X15014200Y-34052144D01*
X15014200Y-33956906D01*
X15014200Y-33480716D02*
X14966581Y-33575954D01*
X14918962Y-33623573D01*
X14823724Y-33671192D01*
X14538010Y-33671192D01*
X14442772Y-33623573D01*
X14395153Y-33575954D01*
X14347534Y-33480716D01*
X14347534Y-33337859D01*
X14395153Y-33242620D01*
X14442772Y-33195001D01*
X14538010Y-33147382D01*
X14823724Y-33147382D01*
X14918962Y-33195001D01*
X14966581Y-33242620D01*
X15014200Y-33337859D01*
X15014200Y-33480716D01*
X15014200Y-32718811D02*
X14347534Y-32718811D01*
X14538010Y-32718811D02*
X14442772Y-32671192D01*
X14395153Y-32623573D01*
X14347534Y-32528335D01*
X14347534Y-32433097D01*
D12*
X20591780Y-57010720D02*
X17866780Y-57010720D01*
X17866780Y-57010720D02*
X17866780Y-57270720D01*
X20591780Y-57010720D02*
X23316780Y-57010720D01*
X23316780Y-57010720D02*
X23316780Y-57270720D01*
X20591780Y-62460720D02*
X17866780Y-62460720D01*
X17866780Y-62460720D02*
X17866780Y-62200720D01*
X20591780Y-62460720D02*
X23316780Y-62460720D01*
X23316780Y-62460720D02*
X23316780Y-62200720D01*
X23316780Y-62200720D02*
X24991780Y-62200720D01*
D11*
X71567040Y-50264060D02*
X64089950Y-50262672D01*
X71567040Y-41374060D02*
X71567040Y-50264060D01*
X64201040Y-41374060D02*
X71567040Y-41374060D01*
D12*
X65732947Y-45819060D02*
G75*
G03*
X65732947Y-45819060I-1023907J0D01*
G01*
D11*
X64089950Y-50262672D02*
G75*
G02*
X64201040Y-41374060I111090J4443612D01*
G01*
X63583821Y-34513521D02*
X71838820Y-34513521D01*
X71838820Y-34513521D02*
X71838820Y-39720520D01*
X71838820Y-39720520D02*
X62440820Y-39720520D01*
X62440820Y-39720520D02*
X62440820Y-34513520D01*
X62440820Y-34513520D02*
X63583820Y-34513520D01*
X69680838Y-34514633D02*
G75*
G03*
X63583821Y-34513521I-3049018J-2792887D01*
G01*
X64093404Y-39722186D02*
G75*
G03*
X69171820Y-39720520I2538416J2414666D01*
G01*
D12*
X765500Y-80552600D02*
X3425500Y-80552600D01*
X765500Y-72872600D02*
X765500Y-80552600D01*
X3425500Y-72872600D02*
X3425500Y-80552600D01*
X765500Y-72872600D02*
X3425500Y-72872600D01*
X765500Y-71602600D02*
X765500Y-70272600D01*
X765500Y-70272600D02*
X2095500Y-70272600D01*
X37663780Y-46634160D02*
X37663780Y-46184160D01*
X37663780Y-46184160D02*
X37213780Y-46184160D01*
X37663780Y-52954160D02*
X37663780Y-53404160D01*
X37663780Y-53404160D02*
X37213780Y-53404160D01*
X30443780Y-46634160D02*
X30443780Y-46184160D01*
X30443780Y-46184160D02*
X30893780Y-46184160D01*
X30443780Y-52954160D02*
X30443780Y-53404160D01*
X30443780Y-53404160D02*
X30893780Y-53404160D01*
X30893780Y-53404160D02*
X30893780Y-54694160D01*
X36112780Y-56588760D02*
X36112780Y-58873760D01*
X36112780Y-58873760D02*
X37582780Y-58873760D01*
X37582780Y-58873760D02*
X37582780Y-56588760D01*
X44146700Y-52511960D02*
G75*
G03*
X44146700Y-52511960I-700000J0D01*
G01*
X44146700Y-55636160D02*
G75*
G03*
X44146700Y-55636160I-700000J0D01*
G01*
X25452300Y-50891440D02*
G75*
G03*
X25452300Y-50891440I-700000J0D01*
G01*
X765500Y-81677200D02*
X2095500Y-81677200D01*
X765500Y-83007200D02*
X765500Y-81677200D01*
X765500Y-84277200D02*
X3425500Y-84277200D01*
X3425500Y-84277200D02*
X3425500Y-89417200D01*
X765500Y-84277200D02*
X765500Y-89417200D01*
X765500Y-89417200D02*
X3425500Y-89417200D01*
X49680180Y-6281320D02*
X49680180Y-7281320D01*
X49180180Y-6781320D02*
X50180180Y-6781320D01*
X50420180Y-12586883D02*
X51484617Y-13651320D01*
X50420180Y-5995757D02*
X51484617Y-4931320D01*
X50420180Y-5995757D02*
X50420180Y-7781320D01*
X50420180Y-12586883D02*
X50420180Y-10801320D01*
X51484617Y-13651320D02*
X59140180Y-13651320D01*
X51484617Y-4931320D02*
X59140180Y-4931320D01*
X59140180Y-4931320D02*
X59140180Y-7781320D01*
X59140180Y-13651320D02*
X59140180Y-10801320D01*
X52707100Y-83001360D02*
X48807100Y-83001360D01*
X52707100Y-81001360D02*
X48807100Y-81001360D01*
X52707100Y-83001360D02*
X52707100Y-81001360D01*
X46194661Y-83054920D02*
X46520219Y-83054920D01*
X46194661Y-82034920D02*
X46520219Y-82034920D01*
X51685220Y-84575760D02*
X51685220Y-87005760D01*
X54755220Y-86335760D02*
X54755220Y-84575760D01*
X48051804Y-83745240D02*
X46847676Y-83745240D01*
X48051804Y-86465240D02*
X46847676Y-86465240D01*
X57967560Y-56504940D02*
X57967560Y-55504940D01*
X58467560Y-56004940D02*
X57467560Y-56004940D01*
X57227560Y-50199377D02*
X56163123Y-49134940D01*
X57227560Y-56790503D02*
X56163123Y-57854940D01*
X57227560Y-56790503D02*
X57227560Y-55004940D01*
X57227560Y-50199377D02*
X57227560Y-51984940D01*
X56163123Y-49134940D02*
X48507560Y-49134940D01*
X56163123Y-57854940D02*
X48507560Y-57854940D01*
X48507560Y-57854940D02*
X48507560Y-55004940D01*
X48507560Y-49134940D02*
X48507560Y-51984940D01*
X15374940Y-14246760D02*
X15374940Y-15246760D01*
X14874940Y-14746760D02*
X15874940Y-14746760D01*
X16114940Y-20552323D02*
X17179377Y-21616760D01*
X16114940Y-13961197D02*
X17179377Y-12896760D01*
X16114940Y-13961197D02*
X16114940Y-15746760D01*
X16114940Y-20552323D02*
X16114940Y-18766760D01*
X17179377Y-21616760D02*
X24834940Y-21616760D01*
X17179377Y-12896760D02*
X24834940Y-12896760D01*
X24834940Y-12896760D02*
X24834940Y-15746760D01*
X24834940Y-21616760D02*
X24834940Y-18766760D01*
X18697159Y-79845440D02*
X18371601Y-79845440D01*
X18697159Y-80865440D02*
X18371601Y-80865440D01*
X52433001Y-34744120D02*
X52758559Y-34744120D01*
X52433001Y-33724120D02*
X52758559Y-33724120D01*
X15850180Y-85463320D02*
X20050180Y-85463320D01*
X15850180Y-81963320D02*
X15850180Y-85463320D01*
X56197584Y-43202180D02*
X54993456Y-43202180D01*
X56197584Y-45022180D02*
X54993456Y-45022180D01*
X51943084Y-35381520D02*
X50738956Y-35381520D01*
X51943084Y-37201520D02*
X50738956Y-37201520D01*
X61618540Y-23644944D02*
X61618540Y-22440816D01*
X59798540Y-23644944D02*
X59798540Y-22440816D01*
X59818860Y-27256656D02*
X59818860Y-28460784D01*
X61638860Y-27256656D02*
X61638860Y-28460784D01*
X59768060Y-17330336D02*
X59768060Y-18534464D01*
X61588060Y-17330336D02*
X61588060Y-18534464D01*
X61598220Y-13825304D02*
X61598220Y-12621176D01*
X59778220Y-13825304D02*
X59778220Y-12621176D01*
X36029900Y-66970760D02*
X32429900Y-66970760D01*
X36029900Y-66970760D02*
X38229900Y-66970760D01*
X36029900Y-72190760D02*
X33829900Y-72190760D01*
X36029900Y-72190760D02*
X38229900Y-72190760D01*
X57284401Y-65766220D02*
X57609959Y-65766220D01*
X57284401Y-66786220D02*
X57609959Y-66786220D01*
X22856380Y-76190120D02*
X23406380Y-76190120D01*
X15186380Y-67970120D02*
X15186380Y-68520120D01*
X15736380Y-67970120D02*
X15186380Y-67970120D01*
X23406380Y-67970120D02*
X23406380Y-68520120D01*
X22856380Y-67970120D02*
X23406380Y-67970120D01*
X15186380Y-76190120D02*
X15186380Y-75640120D01*
X15736380Y-76190120D02*
X15186380Y-76190120D01*
X18984180Y-87907320D02*
X18984180Y-88297320D01*
X18984180Y-87907320D02*
X19434180Y-87907320D01*
X24554180Y-88607320D02*
X23904180Y-88607320D01*
X24554180Y-90337320D02*
X24554180Y-88607320D01*
X16934180Y-92907320D02*
X16934180Y-92697320D01*
X24554180Y-92907320D02*
X24554180Y-92697320D01*
X16934180Y-90337320D02*
X16934180Y-88607320D01*
X16934180Y-88607320D02*
X17594180Y-88607320D01*
X-537060Y-9767880D02*
X8092940Y-9767880D01*
X-537060Y-9885975D02*
X8092940Y-9885975D01*
X-537060Y-10004070D02*
X8092940Y-10004070D01*
X-537060Y-10122165D02*
X8092940Y-10122165D01*
X-537060Y-10240260D02*
X8092940Y-10240260D01*
X-537060Y-10358355D02*
X8092940Y-10358355D01*
X-537060Y-10476450D02*
X8092940Y-10476450D01*
X-537060Y-10594545D02*
X8092940Y-10594545D01*
X-537060Y-10712640D02*
X8092940Y-10712640D01*
X-537060Y-10830735D02*
X8092940Y-10830735D01*
X-537060Y-10948830D02*
X8092940Y-10948830D01*
X-537060Y-11066925D02*
X8092940Y-11066925D01*
X-537060Y-11185020D02*
X8092940Y-11185020D01*
X-537060Y-11303115D02*
X8092940Y-11303115D01*
X-537060Y-11421210D02*
X8092940Y-11421210D01*
X-537060Y-11539305D02*
X8092940Y-11539305D01*
X-537060Y-11657400D02*
X8092940Y-11657400D01*
X-537060Y-11775495D02*
X8092940Y-11775495D01*
X-537060Y-11893590D02*
X8092940Y-11893590D01*
X-537060Y-12011685D02*
X8092940Y-12011685D01*
X-537060Y-12129780D02*
X8092940Y-12129780D01*
X8092940Y-10617880D02*
X8502940Y-10617880D01*
X10602940Y-10617880D02*
X10982940Y-10617880D01*
X8092940Y-11337880D02*
X8502940Y-11337880D01*
X10602940Y-11337880D02*
X10982940Y-11337880D01*
X8092940Y-13157880D02*
X8502940Y-13157880D01*
X10602940Y-13157880D02*
X11042940Y-13157880D01*
X8092940Y-13877880D02*
X8502940Y-13877880D01*
X10602940Y-13877880D02*
X11042940Y-13877880D01*
X8092940Y-15697880D02*
X8502940Y-15697880D01*
X10602940Y-15697880D02*
X11042940Y-15697880D01*
X8092940Y-16417880D02*
X8502940Y-16417880D01*
X10602940Y-16417880D02*
X11042940Y-16417880D01*
X8092940Y-18237880D02*
X8502940Y-18237880D01*
X10602940Y-18237880D02*
X11042940Y-18237880D01*
X8092940Y-18957880D02*
X8502940Y-18957880D01*
X10602940Y-18957880D02*
X11042940Y-18957880D01*
X8092940Y-20777880D02*
X8502940Y-20777880D01*
X10602940Y-20777880D02*
X11042940Y-20777880D01*
X8092940Y-21497880D02*
X8502940Y-21497880D01*
X10602940Y-21497880D02*
X11042940Y-21497880D01*
X8092940Y-23317880D02*
X8502940Y-23317880D01*
X10602940Y-23317880D02*
X11042940Y-23317880D01*
X8092940Y-24037880D02*
X8502940Y-24037880D01*
X10602940Y-24037880D02*
X11042940Y-24037880D01*
X8092940Y-25857880D02*
X8502940Y-25857880D01*
X10602940Y-25857880D02*
X11042940Y-25857880D01*
X8092940Y-26577880D02*
X8502940Y-26577880D01*
X10602940Y-26577880D02*
X11042940Y-26577880D01*
X8092940Y-28397880D02*
X8502940Y-28397880D01*
X10602940Y-28397880D02*
X11042940Y-28397880D01*
X8092940Y-29117880D02*
X8502940Y-29117880D01*
X10602940Y-29117880D02*
X11042940Y-29117880D01*
X8092940Y-30937880D02*
X8502940Y-30937880D01*
X10602940Y-30937880D02*
X11042940Y-30937880D01*
X8092940Y-31657880D02*
X8502940Y-31657880D01*
X10602940Y-31657880D02*
X11042940Y-31657880D01*
X8092940Y-33477880D02*
X8502940Y-33477880D01*
X10602940Y-33477880D02*
X11042940Y-33477880D01*
X8092940Y-34197880D02*
X8502940Y-34197880D01*
X10602940Y-34197880D02*
X11042940Y-34197880D01*
X8092940Y-36017880D02*
X8502940Y-36017880D01*
X10602940Y-36017880D02*
X11042940Y-36017880D01*
X8092940Y-36737880D02*
X8502940Y-36737880D01*
X10602940Y-36737880D02*
X11042940Y-36737880D01*
X8092940Y-38557880D02*
X8502940Y-38557880D01*
X10602940Y-38557880D02*
X11042940Y-38557880D01*
X8092940Y-39277880D02*
X8502940Y-39277880D01*
X10602940Y-39277880D02*
X11042940Y-39277880D01*
X8092940Y-41097880D02*
X8502940Y-41097880D01*
X10602940Y-41097880D02*
X11042940Y-41097880D01*
X8092940Y-41817880D02*
X8502940Y-41817880D01*
X10602940Y-41817880D02*
X11042940Y-41817880D01*
X8092940Y-43637880D02*
X8502940Y-43637880D01*
X10602940Y-43637880D02*
X11042940Y-43637880D01*
X8092940Y-44357880D02*
X8502940Y-44357880D01*
X10602940Y-44357880D02*
X11042940Y-44357880D01*
X8092940Y-46177880D02*
X8502940Y-46177880D01*
X10602940Y-46177880D02*
X11042940Y-46177880D01*
X8092940Y-46897880D02*
X8502940Y-46897880D01*
X10602940Y-46897880D02*
X11042940Y-46897880D01*
X8092940Y-48717880D02*
X8502940Y-48717880D01*
X10602940Y-48717880D02*
X11042940Y-48717880D01*
X8092940Y-49437880D02*
X8502940Y-49437880D01*
X10602940Y-49437880D02*
X11042940Y-49437880D01*
X8092940Y-51257880D02*
X8502940Y-51257880D01*
X10602940Y-51257880D02*
X11042940Y-51257880D01*
X8092940Y-51977880D02*
X8502940Y-51977880D01*
X10602940Y-51977880D02*
X11042940Y-51977880D01*
X8092940Y-53797880D02*
X8502940Y-53797880D01*
X10602940Y-53797880D02*
X11042940Y-53797880D01*
X8092940Y-54517880D02*
X8502940Y-54517880D01*
X10602940Y-54517880D02*
X11042940Y-54517880D01*
X8092940Y-56337880D02*
X8502940Y-56337880D01*
X10602940Y-56337880D02*
X11042940Y-56337880D01*
X8092940Y-57057880D02*
X8502940Y-57057880D01*
X10602940Y-57057880D02*
X11042940Y-57057880D01*
X8092940Y-58877880D02*
X8502940Y-58877880D01*
X10602940Y-58877880D02*
X11042940Y-58877880D01*
X8092940Y-59597880D02*
X8502940Y-59597880D01*
X10602940Y-59597880D02*
X11042940Y-59597880D01*
X-537060Y-12247880D02*
X8092940Y-12247880D01*
X-537060Y-14787880D02*
X8092940Y-14787880D01*
X-537060Y-17327880D02*
X8092940Y-17327880D01*
X-537060Y-19867880D02*
X8092940Y-19867880D01*
X-537060Y-22407880D02*
X8092940Y-22407880D01*
X-537060Y-24947880D02*
X8092940Y-24947880D01*
X-537060Y-27487880D02*
X8092940Y-27487880D01*
X-537060Y-30027880D02*
X8092940Y-30027880D01*
X-537060Y-32567880D02*
X8092940Y-32567880D01*
X-537060Y-35107880D02*
X8092940Y-35107880D01*
X-537060Y-37647880D02*
X8092940Y-37647880D01*
X-537060Y-40187880D02*
X8092940Y-40187880D01*
X-537060Y-42727880D02*
X8092940Y-42727880D01*
X-537060Y-45267880D02*
X8092940Y-45267880D01*
X-537060Y-47807880D02*
X8092940Y-47807880D01*
X-537060Y-50347880D02*
X8092940Y-50347880D01*
X-537060Y-52887880D02*
X8092940Y-52887880D01*
X-537060Y-55427880D02*
X8092940Y-55427880D01*
X-537060Y-57967880D02*
X8092940Y-57967880D01*
X-537060Y-9647880D02*
X8092940Y-9647880D01*
X8092940Y-9647880D02*
X8092940Y-60567880D01*
X-537060Y-60567880D02*
X8092940Y-60567880D01*
X-537060Y-9647880D02*
X-537060Y-60567880D01*
X13202940Y-9647880D02*
X13202940Y-10977880D01*
X12092940Y-9647880D02*
X13202940Y-9647880D01*
X42434780Y-22426720D02*
X42434780Y-27826720D01*
X39134780Y-22426720D02*
X39134780Y-27826720D01*
X42434780Y-22426720D02*
X39134780Y-22426720D01*
X37916780Y-21603320D02*
X39416780Y-21603320D01*
X39416780Y-21603320D02*
X39416780Y-20653320D01*
X39416780Y-20653320D02*
X44541780Y-20653320D01*
X37916780Y-11203320D02*
X39416780Y-11203320D01*
X39416780Y-11203320D02*
X39416780Y-12153320D01*
X39416780Y-12153320D02*
X40516780Y-12153320D01*
X27191380Y-23416120D02*
X23591380Y-23416120D01*
X23591380Y-23416120D02*
X23591380Y-36416120D01*
X23591380Y-36416120D02*
X27191380Y-36416120D01*
X32991380Y-23416120D02*
X36591380Y-23416120D01*
X36591380Y-23416120D02*
X36591380Y-36416120D01*
X36591380Y-36416120D02*
X32991380Y-36416120D01*
X14671380Y-1034120D02*
X14671380Y-4784120D01*
X14671380Y-11554120D02*
X14671380Y-7804120D01*
X24126943Y-11554120D02*
X14671380Y-11554120D01*
X24126943Y-1034120D02*
X14671380Y-1034120D01*
X25191380Y-2098557D02*
X25191380Y-4784120D01*
X25191380Y-10489683D02*
X25191380Y-7804120D01*
X25191380Y-10489683D02*
X24126943Y-11554120D01*
X25191380Y-2098557D02*
X24126943Y-1034120D01*
X26681380Y-9054120D02*
X25431380Y-9054120D01*
X26056380Y-9679120D02*
X26056380Y-8429120D01*
X42394100Y-90901520D02*
G75*
G03*
X42394100Y-90901520I-700000J0D01*
G01*
X35617580Y-82580120D02*
X37417580Y-82580120D01*
X37417580Y-79360120D02*
X34967580Y-79360120D01*
D10*
X36101280Y-72893920D02*
X35826280Y-72893920D01*
X35826280Y-72893920D02*
X35451280Y-73168920D01*
X35451280Y-73168920D02*
X35451280Y-73218920D01*
X35451280Y-73218920D02*
X34676280Y-73218920D01*
X35926280Y-76193920D02*
X35451280Y-76193920D01*
X35451280Y-76193920D02*
X35451280Y-75843920D01*
X37101280Y-75968920D02*
X37101280Y-75843920D01*
X37101280Y-75893920D02*
X37101280Y-76193920D01*
X37101280Y-76193920D02*
X36651280Y-76193920D01*
X36726280Y-72893920D02*
X37101280Y-72893920D01*
X37101280Y-72893920D02*
X37101280Y-73193920D01*
D12*
X31729580Y-87410620D02*
X29444580Y-87410620D01*
X29444580Y-87410620D02*
X29444580Y-88880620D01*
X29444580Y-88880620D02*
X31729580Y-88880620D01*
X26729380Y-9706920D02*
X31929380Y-9706920D01*
X26729380Y-4566920D02*
X26729380Y-9706920D01*
X31929380Y-1966920D02*
X31929380Y-9706920D01*
X26729380Y-4566920D02*
X29329380Y-4566920D01*
X29329380Y-4566920D02*
X29329380Y-1966920D01*
X29329380Y-1966920D02*
X31929380Y-1966920D01*
X26729380Y-3296920D02*
X26729380Y-1966920D01*
X26729380Y-1966920D02*
X28059380Y-1966920D01*
X42983380Y-3331720D02*
X41583380Y-3331720D01*
X40883380Y-2631720D02*
X40883380Y-2031720D01*
X41583380Y-1331720D02*
X42983380Y-1331720D01*
X43683380Y-2031720D02*
X43683380Y-2631720D01*
X43683380Y-2631720D02*
G75*
G02*
X42983380Y-3331720I-700000J0D01*
G01*
X42983380Y-1331720D02*
G75*
G02*
X43683380Y-2031720I0J-700000D01*
G01*
X40883380Y-2031720D02*
G75*
G02*
X41583380Y-1331720I700000J0D01*
G01*
X41583380Y-3331720D02*
G75*
G02*
X40883380Y-2631720I0J700000D01*
G01*
X21186359Y-34680620D02*
X20860801Y-34680620D01*
X21186359Y-33660620D02*
X20860801Y-33660620D01*
X49145420Y-43540680D02*
G75*
G03*
X49145420Y-43540680I-700000J0D01*
G01*
X52820800Y-43418760D02*
G75*
G03*
X52820800Y-43418760I-700000J0D01*
G01*
X60712580Y-36001960D02*
G75*
G03*
X60712580Y-36001960I-700000J0D01*
G01*
X56336180Y-71649320D02*
X56336180Y-74949320D01*
X56336180Y-74949320D02*
X60336180Y-74949320D01*
X15184580Y-92079320D02*
X12384580Y-92079320D01*
X12384580Y-92079320D02*
X12384580Y-90079320D01*
X12384580Y-90079320D02*
X15184580Y-90079320D01*
X15184580Y-90079320D02*
X15184580Y-92079320D01*
X9286020Y-2726200D02*
X11571020Y-2726200D01*
X11571020Y-2726200D02*
X11571020Y-1256200D01*
X11571020Y-1256200D02*
X9286020Y-1256200D01*
X42956380Y-75282120D02*
X40671380Y-75282120D01*
X40671380Y-75282120D02*
X40671380Y-76752120D01*
X40671380Y-76752120D02*
X42956380Y-76752120D01*
X42956380Y-73504120D02*
X40671380Y-73504120D01*
X40671380Y-73504120D02*
X40671380Y-74974120D01*
X40671380Y-74974120D02*
X42956380Y-74974120D01*
X44505880Y-76752120D02*
X46790880Y-76752120D01*
X46790880Y-76752120D02*
X46790880Y-75282120D01*
X46790880Y-75282120D02*
X44505880Y-75282120D01*
X44531380Y-74974120D02*
X46816380Y-74974120D01*
X46816380Y-74974120D02*
X46816380Y-73504120D01*
X46816380Y-73504120D02*
X44531380Y-73504120D01*
X43526380Y-70721120D02*
X43526380Y-68436120D01*
X43526380Y-68436120D02*
X42056380Y-68436120D01*
X42056380Y-68436120D02*
X42056380Y-70721120D01*
X17114080Y-38329820D02*
X23124080Y-38329820D01*
X19364080Y-45149820D02*
X23124080Y-45149820D01*
X23124080Y-38329820D02*
X23124080Y-39589820D01*
X23124080Y-45149820D02*
X23124080Y-43889820D01*
X70011380Y-29556120D02*
X69161380Y-29556120D01*
X70011380Y-21386120D02*
X70011380Y-29556120D01*
X69161380Y-21386120D02*
X70011380Y-21386120D01*
X64791380Y-29556120D02*
X64791380Y-27231120D01*
X65641380Y-29556120D02*
X64791380Y-29556120D01*
X64791380Y-23711120D02*
X62401380Y-23711120D01*
X64791380Y-21386120D02*
X64791380Y-23711120D01*
X65641380Y-21386120D02*
X64791380Y-21386120D01*
D13*
X56658134Y-23739668D02*
X56388726Y-23470260D01*
X56837739Y-23560063D02*
X56658134Y-23739668D01*
X56568332Y-23290655D02*
X56837739Y-23560063D01*
X56388726Y-23470260D02*
X56568332Y-23290655D01*
X57718794Y-28935912D02*
X57898399Y-29115517D01*
X57449387Y-29205319D02*
X57718794Y-28935912D01*
X57628992Y-29384924D02*
X57449387Y-29205319D01*
X57898399Y-29115517D02*
X57628992Y-29384924D01*
X52253141Y-30973087D02*
X51983733Y-30703679D01*
X52073536Y-31152692D02*
X52253141Y-30973087D01*
X51804128Y-30883284D02*
X52073536Y-31152692D01*
X51983733Y-30703679D02*
X51804128Y-30883284D01*
X49778267Y-25238027D02*
X49598661Y-25058422D01*
X49508859Y-25507435D02*
X49778267Y-25238027D01*
X49329254Y-25327830D02*
X49508859Y-25507435D01*
X49598661Y-25058422D02*
X49329254Y-25327830D01*
X54460842Y-22153033D02*
X53967380Y-21659571D01*
X58682467Y-27361582D02*
X59175929Y-26868120D01*
X53473918Y-31583207D02*
X53967380Y-32076669D01*
X49252293Y-26374658D02*
X48758831Y-26868120D01*
X53967380Y-21659571D02*
X53473918Y-22153033D01*
X59175929Y-26868120D02*
X58682467Y-26374658D01*
X53967380Y-32076669D02*
X54460842Y-31583207D01*
X48758831Y-26868120D02*
X49252293Y-27361582D01*
D12*
X70011380Y-19904120D02*
X69161380Y-19904120D01*
X70011380Y-11734120D02*
X70011380Y-19904120D01*
X69161380Y-11734120D02*
X70011380Y-11734120D01*
X64791380Y-19904120D02*
X64791380Y-17579120D01*
X65641380Y-19904120D02*
X64791380Y-19904120D01*
X64791380Y-14059120D02*
X62401380Y-14059120D01*
X64791380Y-11734120D02*
X64791380Y-14059120D01*
X65641380Y-11734120D02*
X64791380Y-11734120D01*
X58668380Y-79009120D02*
X60128380Y-79009120D01*
X58668380Y-82169120D02*
X60828380Y-82169120D01*
X58668380Y-82169120D02*
X58668380Y-81239120D01*
X58668380Y-79009120D02*
X58668380Y-79939120D01*
D11*
X54315180Y-75003720D02*
X55440180Y-75003720D01*
X54315180Y-65323720D02*
X50165180Y-65323720D01*
X54315180Y-75483720D02*
X50165180Y-75483720D01*
X54315180Y-65323720D02*
X54315180Y-65803720D01*
X50165180Y-65323720D02*
X50165180Y-65803720D01*
X50165180Y-75483720D02*
X50165180Y-75003720D01*
X54315180Y-75483720D02*
X54315180Y-75003720D01*
D10*
X57364900Y-41797740D02*
X57064900Y-41797740D01*
X57364900Y-41422740D02*
X57364900Y-41797740D01*
X54064900Y-41797740D02*
X54064900Y-41347740D01*
X54364900Y-41797740D02*
X54064900Y-41797740D01*
X54289900Y-41797740D02*
X54414900Y-41797740D01*
X54064900Y-40147740D02*
X54414900Y-40147740D01*
X54064900Y-40622740D02*
X54064900Y-40147740D01*
X57039900Y-40147740D02*
X57039900Y-39372740D01*
X57089900Y-40147740D02*
X57039900Y-40147740D01*
X57364900Y-40522740D02*
X57089900Y-40147740D01*
X57364900Y-40797740D02*
X57364900Y-40522740D01*
D12*
X64041980Y-57211920D02*
X65371980Y-57211920D01*
X64041980Y-58541920D02*
X64041980Y-57211920D01*
X66641980Y-57211920D02*
X69241980Y-57211920D01*
X66641980Y-59811920D02*
X66641980Y-57211920D01*
X64041980Y-59811920D02*
X66641980Y-59811920D01*
X69241980Y-57211920D02*
X69241980Y-82731920D01*
X64041980Y-59811920D02*
X64041980Y-82731920D01*
X64041980Y-82731920D02*
X69241980Y-82731920D01*
X15886060Y-30862400D02*
X17586060Y-30862400D01*
X17586060Y-30862400D02*
X17586060Y-28312400D01*
X15886060Y-30862400D02*
X15886060Y-28312400D01*
D11*
X19829875Y-62748100D02*
X19829875Y-63557624D01*
X19877494Y-63652862D01*
X19925113Y-63700481D01*
X20020351Y-63748100D01*
X20210827Y-63748100D01*
X20306065Y-63700481D01*
X20353684Y-63652862D01*
X20401303Y-63557624D01*
X20401303Y-62748100D01*
X20925113Y-63748100D02*
X21115589Y-63748100D01*
X21210827Y-63700481D01*
X21258446Y-63652862D01*
X21353684Y-63510005D01*
X21401303Y-63319529D01*
X21401303Y-62938577D01*
X21353684Y-62843339D01*
X21306065Y-62795720D01*
X21210827Y-62748100D01*
X21020351Y-62748100D01*
X20925113Y-62795720D01*
X20877494Y-62843339D01*
X20829875Y-62938577D01*
X20829875Y-63176672D01*
X20877494Y-63271910D01*
X20925113Y-63319529D01*
X21020351Y-63367148D01*
X21210827Y-63367148D01*
X21306065Y-63319529D01*
X21353684Y-63271910D01*
X21401303Y-63176672D01*
X68970566Y-52236120D02*
X68970566Y-52950406D01*
X68922947Y-53093263D01*
X68827709Y-53188501D01*
X68684852Y-53236120D01*
X68589614Y-53236120D01*
X69970566Y-53236120D02*
X69399138Y-53236120D01*
X69684852Y-53236120D02*
X69684852Y-52236120D01*
X69589614Y-52378978D01*
X69494376Y-52474216D01*
X69399138Y-52521835D01*
X1285976Y-68724980D02*
X1285976Y-69439266D01*
X1238357Y-69582123D01*
X1143119Y-69677361D01*
X1000261Y-69724980D01*
X905023Y-69724980D01*
X2285976Y-69724980D02*
X1714547Y-69724980D01*
X2000261Y-69724980D02*
X2000261Y-68724980D01*
X1905023Y-68867838D01*
X1809785Y-68963076D01*
X1714547Y-69010695D01*
X3238357Y-69724980D02*
X2666928Y-69724980D01*
X2952642Y-69724980D02*
X2952642Y-68724980D01*
X2857404Y-68867838D01*
X2762166Y-68963076D01*
X2666928Y-69010695D01*
X4109839Y-70830700D02*
X4109839Y-69830700D01*
X4538410Y-69925939D02*
X4586029Y-69878320D01*
X4681267Y-69830700D01*
X4919362Y-69830700D01*
X5014600Y-69878320D01*
X5062220Y-69925939D01*
X5109839Y-70021177D01*
X5109839Y-70116415D01*
X5062220Y-70259272D01*
X4490791Y-70830700D01*
X5109839Y-70830700D01*
X5490791Y-70783081D02*
X5633648Y-70830700D01*
X5871743Y-70830700D01*
X5966981Y-70783081D01*
X6014600Y-70735462D01*
X6062220Y-70640224D01*
X6062220Y-70544986D01*
X6014600Y-70449748D01*
X5966981Y-70402129D01*
X5871743Y-70354510D01*
X5681267Y-70306891D01*
X5586029Y-70259272D01*
X5538410Y-70211653D01*
X5490791Y-70116415D01*
X5490791Y-70021177D01*
X5538410Y-69925939D01*
X5586029Y-69878320D01*
X5681267Y-69830700D01*
X5919362Y-69830700D01*
X6062220Y-69878320D01*
X27656160Y-51032255D02*
X28465684Y-51032255D01*
X28560922Y-50984636D01*
X28608541Y-50937017D01*
X28656160Y-50841779D01*
X28656160Y-50651302D01*
X28608541Y-50556064D01*
X28560922Y-50508445D01*
X28465684Y-50460826D01*
X27656160Y-50460826D01*
X28656160Y-49460826D02*
X28656160Y-50032255D01*
X28656160Y-49746540D02*
X27656160Y-49746540D01*
X27799018Y-49841779D01*
X27894256Y-49937017D01*
X27941875Y-50032255D01*
X27656160Y-49127493D02*
X27656160Y-48508445D01*
X28037113Y-48841779D01*
X28037113Y-48698921D01*
X28084732Y-48603683D01*
X28132351Y-48556064D01*
X28227589Y-48508445D01*
X28465684Y-48508445D01*
X28560922Y-48556064D01*
X28608541Y-48603683D01*
X28656160Y-48698921D01*
X28656160Y-48984636D01*
X28608541Y-49079874D01*
X28560922Y-49127493D01*
D14*
X35491930Y-59874493D02*
X35896692Y-59874493D01*
X35944311Y-59850683D01*
X35968120Y-59826874D01*
X35991930Y-59779255D01*
X35991930Y-59684017D01*
X35968120Y-59636398D01*
X35944311Y-59612588D01*
X35896692Y-59588779D01*
X35491930Y-59588779D01*
X35968120Y-59374493D02*
X35991930Y-59303064D01*
X35991930Y-59184017D01*
X35968120Y-59136398D01*
X35944311Y-59112588D01*
X35896692Y-59088779D01*
X35849073Y-59088779D01*
X35801454Y-59112588D01*
X35777644Y-59136398D01*
X35753835Y-59184017D01*
X35730025Y-59279255D01*
X35706216Y-59326874D01*
X35682406Y-59350683D01*
X35634787Y-59374493D01*
X35587168Y-59374493D01*
X35539549Y-59350683D01*
X35515740Y-59326874D01*
X35491930Y-59279255D01*
X35491930Y-59160207D01*
X35515740Y-59088779D01*
X35730025Y-58707826D02*
X35753835Y-58636398D01*
X35777644Y-58612588D01*
X35825263Y-58588779D01*
X35896692Y-58588779D01*
X35944311Y-58612588D01*
X35968120Y-58636398D01*
X35991930Y-58684017D01*
X35991930Y-58874493D01*
X35491930Y-58874493D01*
X35491930Y-58707826D01*
X35515740Y-58660207D01*
X35539549Y-58636398D01*
X35587168Y-58612588D01*
X35634787Y-58612588D01*
X35682406Y-58636398D01*
X35706216Y-58660207D01*
X35730025Y-58707826D01*
X35730025Y-58874493D01*
X36039549Y-58493540D02*
X36039549Y-58112588D01*
X35968120Y-58017350D02*
X35991930Y-57945921D01*
X35991930Y-57826874D01*
X35968120Y-57779255D01*
X35944311Y-57755445D01*
X35896692Y-57731636D01*
X35849073Y-57731636D01*
X35801454Y-57755445D01*
X35777644Y-57779255D01*
X35753835Y-57826874D01*
X35730025Y-57922112D01*
X35706216Y-57969731D01*
X35682406Y-57993540D01*
X35634787Y-58017350D01*
X35587168Y-58017350D01*
X35539549Y-57993540D01*
X35515740Y-57969731D01*
X35491930Y-57922112D01*
X35491930Y-57803064D01*
X35515740Y-57731636D01*
X35491930Y-57422112D02*
X35491930Y-57326874D01*
X35515740Y-57279255D01*
X35563359Y-57231636D01*
X35658597Y-57207826D01*
X35825263Y-57207826D01*
X35920501Y-57231636D01*
X35968120Y-57279255D01*
X35991930Y-57326874D01*
X35991930Y-57422112D01*
X35968120Y-57469731D01*
X35920501Y-57517350D01*
X35825263Y-57541160D01*
X35658597Y-57541160D01*
X35563359Y-57517350D01*
X35515740Y-57469731D01*
X35491930Y-57422112D01*
X35491930Y-56993540D02*
X35896692Y-56993540D01*
X35944311Y-56969731D01*
X35968120Y-56945921D01*
X35991930Y-56898302D01*
X35991930Y-56803064D01*
X35968120Y-56755445D01*
X35944311Y-56731636D01*
X35896692Y-56707826D01*
X35491930Y-56707826D01*
X35991930Y-56469731D02*
X35491930Y-56469731D01*
X35991930Y-56184017D01*
X35491930Y-56184017D01*
X35991930Y-55945921D02*
X35491930Y-55945921D01*
X35491930Y-55826874D01*
X35515740Y-55755445D01*
X35563359Y-55707826D01*
X35610978Y-55684017D01*
X35706216Y-55660207D01*
X35777644Y-55660207D01*
X35872882Y-55684017D01*
X35920501Y-55707826D01*
X35968120Y-55755445D01*
X35991930Y-55826874D01*
X35991930Y-55945921D01*
X35991930Y-55184017D02*
X35991930Y-55469731D01*
X35991930Y-55326874D02*
X35491930Y-55326874D01*
X35563359Y-55374493D01*
X35610978Y-55422112D01*
X35634787Y-55469731D01*
X41887176Y-50790150D02*
X41887176Y-51194912D01*
X41910985Y-51242531D01*
X41934795Y-51266340D01*
X41982414Y-51290150D01*
X42077652Y-51290150D01*
X42125271Y-51266340D01*
X42149080Y-51242531D01*
X42172890Y-51194912D01*
X42172890Y-50790150D01*
X42387176Y-51266340D02*
X42458604Y-51290150D01*
X42577652Y-51290150D01*
X42625271Y-51266340D01*
X42649080Y-51242531D01*
X42672890Y-51194912D01*
X42672890Y-51147293D01*
X42649080Y-51099674D01*
X42625271Y-51075864D01*
X42577652Y-51052055D01*
X42482414Y-51028245D01*
X42434795Y-51004436D01*
X42410985Y-50980626D01*
X42387176Y-50933007D01*
X42387176Y-50885388D01*
X42410985Y-50837769D01*
X42434795Y-50813960D01*
X42482414Y-50790150D01*
X42601461Y-50790150D01*
X42672890Y-50813960D01*
X43053842Y-51028245D02*
X43125271Y-51052055D01*
X43149080Y-51075864D01*
X43172890Y-51123483D01*
X43172890Y-51194912D01*
X43149080Y-51242531D01*
X43125271Y-51266340D01*
X43077652Y-51290150D01*
X42887176Y-51290150D01*
X42887176Y-50790150D01*
X43053842Y-50790150D01*
X43101461Y-50813960D01*
X43125271Y-50837769D01*
X43149080Y-50885388D01*
X43149080Y-50933007D01*
X43125271Y-50980626D01*
X43101461Y-51004436D01*
X43053842Y-51028245D01*
X42887176Y-51028245D01*
X43268128Y-51337769D02*
X43649080Y-51337769D01*
X44030033Y-50813960D02*
X43982414Y-50790150D01*
X43910985Y-50790150D01*
X43839557Y-50813960D01*
X43791938Y-50861579D01*
X43768128Y-50909198D01*
X43744319Y-51004436D01*
X43744319Y-51075864D01*
X43768128Y-51171102D01*
X43791938Y-51218721D01*
X43839557Y-51266340D01*
X43910985Y-51290150D01*
X43958604Y-51290150D01*
X44030033Y-51266340D01*
X44053842Y-51242531D01*
X44053842Y-51075864D01*
X43958604Y-51075864D01*
X44268128Y-51290150D02*
X44268128Y-50790150D01*
X44458604Y-50790150D01*
X44506223Y-50813960D01*
X44530033Y-50837769D01*
X44553842Y-50885388D01*
X44553842Y-50956817D01*
X44530033Y-51004436D01*
X44506223Y-51028245D01*
X44458604Y-51052055D01*
X44268128Y-51052055D01*
X44982414Y-50956817D02*
X44982414Y-51290150D01*
X44863366Y-50766340D02*
X44744319Y-51123483D01*
X45053842Y-51123483D01*
X41887176Y-53914350D02*
X41887176Y-54319112D01*
X41910985Y-54366731D01*
X41934795Y-54390540D01*
X41982414Y-54414350D01*
X42077652Y-54414350D01*
X42125271Y-54390540D01*
X42149080Y-54366731D01*
X42172890Y-54319112D01*
X42172890Y-53914350D01*
X42387176Y-54390540D02*
X42458604Y-54414350D01*
X42577652Y-54414350D01*
X42625271Y-54390540D01*
X42649080Y-54366731D01*
X42672890Y-54319112D01*
X42672890Y-54271493D01*
X42649080Y-54223874D01*
X42625271Y-54200064D01*
X42577652Y-54176255D01*
X42482414Y-54152445D01*
X42434795Y-54128636D01*
X42410985Y-54104826D01*
X42387176Y-54057207D01*
X42387176Y-54009588D01*
X42410985Y-53961969D01*
X42434795Y-53938160D01*
X42482414Y-53914350D01*
X42601461Y-53914350D01*
X42672890Y-53938160D01*
X43053842Y-54152445D02*
X43125271Y-54176255D01*
X43149080Y-54200064D01*
X43172890Y-54247683D01*
X43172890Y-54319112D01*
X43149080Y-54366731D01*
X43125271Y-54390540D01*
X43077652Y-54414350D01*
X42887176Y-54414350D01*
X42887176Y-53914350D01*
X43053842Y-53914350D01*
X43101461Y-53938160D01*
X43125271Y-53961969D01*
X43149080Y-54009588D01*
X43149080Y-54057207D01*
X43125271Y-54104826D01*
X43101461Y-54128636D01*
X43053842Y-54152445D01*
X42887176Y-54152445D01*
X43268128Y-54461969D02*
X43649080Y-54461969D01*
X44030033Y-53938160D02*
X43982414Y-53914350D01*
X43910985Y-53914350D01*
X43839557Y-53938160D01*
X43791938Y-53985779D01*
X43768128Y-54033398D01*
X43744319Y-54128636D01*
X43744319Y-54200064D01*
X43768128Y-54295302D01*
X43791938Y-54342921D01*
X43839557Y-54390540D01*
X43910985Y-54414350D01*
X43958604Y-54414350D01*
X44030033Y-54390540D01*
X44053842Y-54366731D01*
X44053842Y-54200064D01*
X43958604Y-54200064D01*
X44268128Y-54414350D02*
X44268128Y-53914350D01*
X44458604Y-53914350D01*
X44506223Y-53938160D01*
X44530033Y-53961969D01*
X44553842Y-54009588D01*
X44553842Y-54081017D01*
X44530033Y-54128636D01*
X44506223Y-54152445D01*
X44458604Y-54176255D01*
X44268128Y-54176255D01*
X44720509Y-53914350D02*
X45030033Y-53914350D01*
X44863366Y-54104826D01*
X44934795Y-54104826D01*
X44982414Y-54128636D01*
X45006223Y-54152445D01*
X45030033Y-54200064D01*
X45030033Y-54319112D01*
X45006223Y-54366731D01*
X44982414Y-54390540D01*
X44934795Y-54414350D01*
X44791938Y-54414350D01*
X44744319Y-54390540D01*
X44720509Y-54366731D01*
X23192776Y-49169630D02*
X23192776Y-49574392D01*
X23216585Y-49622011D01*
X23240395Y-49645820D01*
X23288014Y-49669630D01*
X23383252Y-49669630D01*
X23430871Y-49645820D01*
X23454680Y-49622011D01*
X23478490Y-49574392D01*
X23478490Y-49169630D01*
X23692776Y-49645820D02*
X23764204Y-49669630D01*
X23883252Y-49669630D01*
X23930871Y-49645820D01*
X23954680Y-49622011D01*
X23978490Y-49574392D01*
X23978490Y-49526773D01*
X23954680Y-49479154D01*
X23930871Y-49455344D01*
X23883252Y-49431535D01*
X23788014Y-49407725D01*
X23740395Y-49383916D01*
X23716585Y-49360106D01*
X23692776Y-49312487D01*
X23692776Y-49264868D01*
X23716585Y-49217249D01*
X23740395Y-49193440D01*
X23788014Y-49169630D01*
X23907061Y-49169630D01*
X23978490Y-49193440D01*
X24359442Y-49407725D02*
X24430871Y-49431535D01*
X24454680Y-49455344D01*
X24478490Y-49502963D01*
X24478490Y-49574392D01*
X24454680Y-49622011D01*
X24430871Y-49645820D01*
X24383252Y-49669630D01*
X24192776Y-49669630D01*
X24192776Y-49169630D01*
X24359442Y-49169630D01*
X24407061Y-49193440D01*
X24430871Y-49217249D01*
X24454680Y-49264868D01*
X24454680Y-49312487D01*
X24430871Y-49360106D01*
X24407061Y-49383916D01*
X24359442Y-49407725D01*
X24192776Y-49407725D01*
X24573728Y-49717249D02*
X24954680Y-49717249D01*
X25335633Y-49193440D02*
X25288014Y-49169630D01*
X25216585Y-49169630D01*
X25145157Y-49193440D01*
X25097538Y-49241059D01*
X25073728Y-49288678D01*
X25049919Y-49383916D01*
X25049919Y-49455344D01*
X25073728Y-49550582D01*
X25097538Y-49598201D01*
X25145157Y-49645820D01*
X25216585Y-49669630D01*
X25264204Y-49669630D01*
X25335633Y-49645820D01*
X25359442Y-49622011D01*
X25359442Y-49455344D01*
X25264204Y-49455344D01*
X25573728Y-49669630D02*
X25573728Y-49169630D01*
X25764204Y-49169630D01*
X25811823Y-49193440D01*
X25835633Y-49217249D01*
X25859442Y-49264868D01*
X25859442Y-49336297D01*
X25835633Y-49383916D01*
X25811823Y-49407725D01*
X25764204Y-49431535D01*
X25573728Y-49431535D01*
X26335633Y-49669630D02*
X26049919Y-49669630D01*
X26192776Y-49669630D02*
X26192776Y-49169630D01*
X26145157Y-49241059D01*
X26097538Y-49288678D01*
X26049919Y-49312487D01*
X24552791Y-47526070D02*
X24386124Y-47287975D01*
X24267077Y-47526070D02*
X24267077Y-47026070D01*
X24457553Y-47026070D01*
X24505172Y-47049880D01*
X24528981Y-47073689D01*
X24552791Y-47121308D01*
X24552791Y-47192737D01*
X24528981Y-47240356D01*
X24505172Y-47264165D01*
X24457553Y-47287975D01*
X24267077Y-47287975D01*
X24719458Y-47026070D02*
X25028981Y-47026070D01*
X24862315Y-47216546D01*
X24933743Y-47216546D01*
X24981362Y-47240356D01*
X25005172Y-47264165D01*
X25028981Y-47311784D01*
X25028981Y-47430832D01*
X25005172Y-47478451D01*
X24981362Y-47502260D01*
X24933743Y-47526070D01*
X24790886Y-47526070D01*
X24743267Y-47502260D01*
X24719458Y-47478451D01*
X25195648Y-47026070D02*
X25528981Y-47026070D01*
X25314696Y-47526070D01*
X24491831Y-48674150D02*
X24325164Y-48436055D01*
X24206117Y-48674150D02*
X24206117Y-48174150D01*
X24396593Y-48174150D01*
X24444212Y-48197960D01*
X24468021Y-48221769D01*
X24491831Y-48269388D01*
X24491831Y-48340817D01*
X24468021Y-48388436D01*
X24444212Y-48412245D01*
X24396593Y-48436055D01*
X24206117Y-48436055D01*
X24682307Y-48221769D02*
X24706117Y-48197960D01*
X24753736Y-48174150D01*
X24872783Y-48174150D01*
X24920402Y-48197960D01*
X24944212Y-48221769D01*
X24968021Y-48269388D01*
X24968021Y-48317007D01*
X24944212Y-48388436D01*
X24658498Y-48674150D01*
X24968021Y-48674150D01*
X25420402Y-48174150D02*
X25182307Y-48174150D01*
X25158498Y-48412245D01*
X25182307Y-48388436D01*
X25229926Y-48364626D01*
X25348974Y-48364626D01*
X25396593Y-48388436D01*
X25420402Y-48412245D01*
X25444212Y-48459864D01*
X25444212Y-48578912D01*
X25420402Y-48626531D01*
X25396593Y-48650340D01*
X25348974Y-48674150D01*
X25229926Y-48674150D01*
X25182307Y-48650340D01*
X25158498Y-48626531D01*
X34483170Y-58650653D02*
X34245075Y-58817320D01*
X34483170Y-58936367D02*
X33983170Y-58936367D01*
X33983170Y-58745891D01*
X34006980Y-58698272D01*
X34030789Y-58674462D01*
X34078408Y-58650653D01*
X34149837Y-58650653D01*
X34197456Y-58674462D01*
X34221265Y-58698272D01*
X34245075Y-58745891D01*
X34245075Y-58936367D01*
X33983170Y-58483986D02*
X33983170Y-58150653D01*
X34483170Y-58364939D01*
X39613970Y-57466693D02*
X39375875Y-57633360D01*
X39613970Y-57752407D02*
X39113970Y-57752407D01*
X39113970Y-57561931D01*
X39137780Y-57514312D01*
X39161589Y-57490502D01*
X39209208Y-57466693D01*
X39280637Y-57466693D01*
X39328256Y-57490502D01*
X39352065Y-57514312D01*
X39375875Y-57561931D01*
X39375875Y-57752407D01*
X39113970Y-57038121D02*
X39113970Y-57133360D01*
X39137780Y-57180979D01*
X39161589Y-57204788D01*
X39233018Y-57252407D01*
X39328256Y-57276217D01*
X39518732Y-57276217D01*
X39566351Y-57252407D01*
X39590160Y-57228598D01*
X39613970Y-57180979D01*
X39613970Y-57085740D01*
X39590160Y-57038121D01*
X39566351Y-57014312D01*
X39518732Y-56990502D01*
X39399684Y-56990502D01*
X39352065Y-57014312D01*
X39328256Y-57038121D01*
X39304446Y-57085740D01*
X39304446Y-57180979D01*
X39328256Y-57228598D01*
X39352065Y-57252407D01*
X39399684Y-57276217D01*
X36371031Y-40494068D02*
X36394840Y-40517878D01*
X36418650Y-40589306D01*
X36418650Y-40636925D01*
X36394840Y-40708354D01*
X36347221Y-40755973D01*
X36299602Y-40779782D01*
X36204364Y-40803592D01*
X36132936Y-40803592D01*
X36037698Y-40779782D01*
X35990079Y-40755973D01*
X35942460Y-40708354D01*
X35918650Y-40636925D01*
X35918650Y-40589306D01*
X35942460Y-40517878D01*
X35966269Y-40494068D01*
X35918650Y-40327401D02*
X35918650Y-40017878D01*
X36109126Y-40184544D01*
X36109126Y-40113116D01*
X36132936Y-40065497D01*
X36156745Y-40041687D01*
X36204364Y-40017878D01*
X36323412Y-40017878D01*
X36371031Y-40041687D01*
X36394840Y-40065497D01*
X36418650Y-40113116D01*
X36418650Y-40255973D01*
X36394840Y-40303592D01*
X36371031Y-40327401D01*
X36132936Y-39732163D02*
X36109126Y-39779782D01*
X36085317Y-39803592D01*
X36037698Y-39827401D01*
X36013888Y-39827401D01*
X35966269Y-39803592D01*
X35942460Y-39779782D01*
X35918650Y-39732163D01*
X35918650Y-39636925D01*
X35942460Y-39589306D01*
X35966269Y-39565497D01*
X36013888Y-39541687D01*
X36037698Y-39541687D01*
X36085317Y-39565497D01*
X36109126Y-39589306D01*
X36132936Y-39636925D01*
X36132936Y-39732163D01*
X36156745Y-39779782D01*
X36180555Y-39803592D01*
X36228174Y-39827401D01*
X36323412Y-39827401D01*
X36371031Y-39803592D01*
X36394840Y-39779782D01*
X36418650Y-39732163D01*
X36418650Y-39636925D01*
X36394840Y-39589306D01*
X36371031Y-39565497D01*
X36323412Y-39541687D01*
X36228174Y-39541687D01*
X36180555Y-39565497D01*
X36156745Y-39589306D01*
X36132936Y-39636925D01*
D11*
X4063406Y-89749380D02*
X4063406Y-90463666D01*
X4015787Y-90606523D01*
X3920549Y-90701761D01*
X3777692Y-90749380D01*
X3682454Y-90749380D01*
X4682454Y-90177952D02*
X4587216Y-90130333D01*
X4539597Y-90082714D01*
X4491978Y-89987476D01*
X4491978Y-89939857D01*
X4539597Y-89844619D01*
X4587216Y-89797000D01*
X4682454Y-89749380D01*
X4872930Y-89749380D01*
X4968168Y-89797000D01*
X5015787Y-89844619D01*
X5063406Y-89939857D01*
X5063406Y-89987476D01*
X5015787Y-90082714D01*
X4968168Y-90130333D01*
X4872930Y-90177952D01*
X4682454Y-90177952D01*
X4587216Y-90225571D01*
X4539597Y-90273190D01*
X4491978Y-90368428D01*
X4491978Y-90558904D01*
X4539597Y-90654142D01*
X4587216Y-90701761D01*
X4682454Y-90749380D01*
X4872930Y-90749380D01*
X4968168Y-90701761D01*
X5015787Y-90654142D01*
X5063406Y-90558904D01*
X5063406Y-90368428D01*
X5015787Y-90273190D01*
X4968168Y-90225571D01*
X4872930Y-90177952D01*
X1024071Y-90869580D02*
X1024071Y-89869580D01*
X1357404Y-90583866D01*
X1690738Y-89869580D01*
X1690738Y-90869580D01*
X2166928Y-90869580D02*
X2166928Y-89869580D01*
X3214547Y-90774342D02*
X3166928Y-90821961D01*
X3024071Y-90869580D01*
X2928833Y-90869580D01*
X2785976Y-90821961D01*
X2690738Y-90726723D01*
X2643119Y-90631485D01*
X2595500Y-90441009D01*
X2595500Y-90298152D01*
X2643119Y-90107676D01*
X2690738Y-90012438D01*
X2785976Y-89917200D01*
X2928833Y-89869580D01*
X3024071Y-89869580D01*
X3166928Y-89917200D01*
X3214547Y-89964819D01*
X60182522Y-6315982D02*
X60134903Y-6363601D01*
X59992046Y-6411220D01*
X59896808Y-6411220D01*
X59753951Y-6363601D01*
X59658713Y-6268363D01*
X59611094Y-6173125D01*
X59563475Y-5982649D01*
X59563475Y-5839792D01*
X59611094Y-5649316D01*
X59658713Y-5554078D01*
X59753951Y-5458840D01*
X59896808Y-5411220D01*
X59992046Y-5411220D01*
X60134903Y-5458840D01*
X60182522Y-5506459D01*
X61039665Y-5411220D02*
X60849189Y-5411220D01*
X60753951Y-5458840D01*
X60706332Y-5506459D01*
X60611094Y-5649316D01*
X60563475Y-5839792D01*
X60563475Y-6220744D01*
X60611094Y-6315982D01*
X60658713Y-6363601D01*
X60753951Y-6411220D01*
X60944427Y-6411220D01*
X61039665Y-6363601D01*
X61087284Y-6315982D01*
X61134903Y-6220744D01*
X61134903Y-5982649D01*
X61087284Y-5887411D01*
X61039665Y-5839792D01*
X60944427Y-5792173D01*
X60753951Y-5792173D01*
X60658713Y-5839792D01*
X60611094Y-5887411D01*
X60563475Y-5982649D01*
X61515856Y-5506459D02*
X61563475Y-5458840D01*
X61658713Y-5411220D01*
X61896808Y-5411220D01*
X61992046Y-5458840D01*
X62039665Y-5506459D01*
X62087284Y-5601697D01*
X62087284Y-5696935D01*
X62039665Y-5839792D01*
X61468237Y-6411220D01*
X62087284Y-6411220D01*
D14*
X16525370Y-64995573D02*
X16287275Y-65162240D01*
X16525370Y-65281287D02*
X16025370Y-65281287D01*
X16025370Y-65090811D01*
X16049180Y-65043192D01*
X16072989Y-65019382D01*
X16120608Y-64995573D01*
X16192037Y-64995573D01*
X16239656Y-65019382D01*
X16263465Y-65043192D01*
X16287275Y-65090811D01*
X16287275Y-65281287D01*
X16025370Y-64543192D02*
X16025370Y-64781287D01*
X16263465Y-64805097D01*
X16239656Y-64781287D01*
X16215846Y-64733668D01*
X16215846Y-64614620D01*
X16239656Y-64567001D01*
X16263465Y-64543192D01*
X16311084Y-64519382D01*
X16430132Y-64519382D01*
X16477751Y-64543192D01*
X16501560Y-64567001D01*
X16525370Y-64614620D01*
X16525370Y-64733668D01*
X16501560Y-64781287D01*
X16477751Y-64805097D01*
D11*
X49542534Y-80645260D02*
X49542534Y-79645260D01*
X49780629Y-79645260D01*
X49923486Y-79692880D01*
X50018724Y-79788118D01*
X50066343Y-79883356D01*
X50113962Y-80073832D01*
X50113962Y-80216689D01*
X50066343Y-80407165D01*
X50018724Y-80502403D01*
X49923486Y-80597641D01*
X49780629Y-80645260D01*
X49542534Y-80645260D01*
X51066343Y-80645260D02*
X50494915Y-80645260D01*
X50780629Y-80645260D02*
X50780629Y-79645260D01*
X50685391Y-79788118D01*
X50590153Y-79883356D01*
X50494915Y-79930975D01*
X51971105Y-79645260D02*
X51494915Y-79645260D01*
X51447296Y-80121451D01*
X51494915Y-80073832D01*
X51590153Y-80026213D01*
X51828248Y-80026213D01*
X51923486Y-80073832D01*
X51971105Y-80121451D01*
X52018724Y-80216689D01*
X52018724Y-80454784D01*
X51971105Y-80550022D01*
X51923486Y-80597641D01*
X51828248Y-80645260D01*
X51590153Y-80645260D01*
X51494915Y-80597641D01*
X51447296Y-80550022D01*
D14*
X54110391Y-80281293D02*
X54134200Y-80305102D01*
X54158010Y-80376531D01*
X54158010Y-80424150D01*
X54134200Y-80495579D01*
X54086581Y-80543198D01*
X54038962Y-80567007D01*
X53943724Y-80590817D01*
X53872296Y-80590817D01*
X53777058Y-80567007D01*
X53729439Y-80543198D01*
X53681820Y-80495579D01*
X53658010Y-80424150D01*
X53658010Y-80376531D01*
X53681820Y-80305102D01*
X53705629Y-80281293D01*
X53658010Y-79828912D02*
X53658010Y-80067007D01*
X53896105Y-80090817D01*
X53872296Y-80067007D01*
X53848486Y-80019388D01*
X53848486Y-79900340D01*
X53872296Y-79852721D01*
X53896105Y-79828912D01*
X53943724Y-79805102D01*
X54062772Y-79805102D01*
X54110391Y-79828912D01*
X54134200Y-79852721D01*
X54158010Y-79900340D01*
X54158010Y-80019388D01*
X54134200Y-80067007D01*
X54110391Y-80090817D01*
X50757591Y-84711053D02*
X50781400Y-84734862D01*
X50805210Y-84806291D01*
X50805210Y-84853910D01*
X50781400Y-84925339D01*
X50733781Y-84972958D01*
X50686162Y-84996767D01*
X50590924Y-85020577D01*
X50519496Y-85020577D01*
X50424258Y-84996767D01*
X50376639Y-84972958D01*
X50329020Y-84925339D01*
X50305210Y-84853910D01*
X50305210Y-84806291D01*
X50329020Y-84734862D01*
X50352829Y-84711053D01*
X50305210Y-84544386D02*
X50305210Y-84211053D01*
X50805210Y-84425339D01*
X43689151Y-82743811D02*
X43665341Y-82767620D01*
X43593913Y-82791430D01*
X43546294Y-82791430D01*
X43474865Y-82767620D01*
X43427246Y-82720001D01*
X43403437Y-82672382D01*
X43379627Y-82577144D01*
X43379627Y-82505716D01*
X43403437Y-82410478D01*
X43427246Y-82362859D01*
X43474865Y-82315240D01*
X43546294Y-82291430D01*
X43593913Y-82291430D01*
X43665341Y-82315240D01*
X43689151Y-82339049D01*
X43855818Y-82291430D02*
X44165341Y-82291430D01*
X43998675Y-82481906D01*
X44070103Y-82481906D01*
X44117722Y-82505716D01*
X44141532Y-82529525D01*
X44165341Y-82577144D01*
X44165341Y-82696192D01*
X44141532Y-82743811D01*
X44117722Y-82767620D01*
X44070103Y-82791430D01*
X43927246Y-82791430D01*
X43879627Y-82767620D01*
X43855818Y-82743811D01*
X44332008Y-82291430D02*
X44665341Y-82291430D01*
X44451056Y-82791430D01*
X57663210Y-87987653D02*
X57425115Y-88154320D01*
X57663210Y-88273367D02*
X57163210Y-88273367D01*
X57163210Y-88082891D01*
X57187020Y-88035272D01*
X57210829Y-88011462D01*
X57258448Y-87987653D01*
X57329877Y-87987653D01*
X57377496Y-88011462D01*
X57401305Y-88035272D01*
X57425115Y-88082891D01*
X57425115Y-88273367D01*
X57163210Y-87820986D02*
X57163210Y-87511462D01*
X57353686Y-87678129D01*
X57353686Y-87606700D01*
X57377496Y-87559081D01*
X57401305Y-87535272D01*
X57448924Y-87511462D01*
X57567972Y-87511462D01*
X57615591Y-87535272D01*
X57639400Y-87559081D01*
X57663210Y-87606700D01*
X57663210Y-87749558D01*
X57639400Y-87797177D01*
X57615591Y-87820986D01*
X57632730Y-85996293D02*
X57394635Y-86162960D01*
X57632730Y-86282007D02*
X57132730Y-86282007D01*
X57132730Y-86091531D01*
X57156540Y-86043912D01*
X57180349Y-86020102D01*
X57227968Y-85996293D01*
X57299397Y-85996293D01*
X57347016Y-86020102D01*
X57370825Y-86043912D01*
X57394635Y-86091531D01*
X57394635Y-86282007D01*
X57299397Y-85567721D02*
X57632730Y-85567721D01*
X57108920Y-85686769D02*
X57466063Y-85805817D01*
X57466063Y-85496293D01*
D11*
X54943760Y-86197344D02*
X55753284Y-86197344D01*
X55848522Y-86149725D01*
X55896141Y-86102106D01*
X55943760Y-86006868D01*
X55943760Y-85816392D01*
X55896141Y-85721154D01*
X55848522Y-85673535D01*
X55753284Y-85625916D01*
X54943760Y-85625916D01*
X54943760Y-85244963D02*
X54943760Y-84578297D01*
X55943760Y-85006868D01*
X47283073Y-87837620D02*
X46806882Y-87837620D01*
X46806882Y-86837620D01*
X47568787Y-86932859D02*
X47616406Y-86885240D01*
X47711644Y-86837620D01*
X47949740Y-86837620D01*
X48044978Y-86885240D01*
X48092597Y-86932859D01*
X48140216Y-87028097D01*
X48140216Y-87123335D01*
X48092597Y-87266192D01*
X47521168Y-87837620D01*
X48140216Y-87837620D01*
D14*
X56647210Y-82861933D02*
X56409115Y-83028600D01*
X56647210Y-83147647D02*
X56147210Y-83147647D01*
X56147210Y-82957171D01*
X56171020Y-82909552D01*
X56194829Y-82885742D01*
X56242448Y-82861933D01*
X56313877Y-82861933D01*
X56361496Y-82885742D01*
X56385305Y-82909552D01*
X56409115Y-82957171D01*
X56409115Y-83147647D01*
X56194829Y-82671457D02*
X56171020Y-82647647D01*
X56147210Y-82600028D01*
X56147210Y-82480980D01*
X56171020Y-82433361D01*
X56194829Y-82409552D01*
X56242448Y-82385742D01*
X56290067Y-82385742D01*
X56361496Y-82409552D01*
X56647210Y-82695266D01*
X56647210Y-82385742D01*
D11*
X46230302Y-50392602D02*
X46182683Y-50440221D01*
X46039826Y-50487840D01*
X45944588Y-50487840D01*
X45801731Y-50440221D01*
X45706493Y-50344983D01*
X45658874Y-50249745D01*
X45611255Y-50059269D01*
X45611255Y-49916412D01*
X45658874Y-49725936D01*
X45706493Y-49630698D01*
X45801731Y-49535460D01*
X45944588Y-49487840D01*
X46039826Y-49487840D01*
X46182683Y-49535460D01*
X46230302Y-49583079D01*
X47087445Y-49487840D02*
X46896969Y-49487840D01*
X46801731Y-49535460D01*
X46754112Y-49583079D01*
X46658874Y-49725936D01*
X46611255Y-49916412D01*
X46611255Y-50297364D01*
X46658874Y-50392602D01*
X46706493Y-50440221D01*
X46801731Y-50487840D01*
X46992207Y-50487840D01*
X47087445Y-50440221D01*
X47135064Y-50392602D01*
X47182683Y-50297364D01*
X47182683Y-50059269D01*
X47135064Y-49964031D01*
X47087445Y-49916412D01*
X46992207Y-49868793D01*
X46801731Y-49868793D01*
X46706493Y-49916412D01*
X46658874Y-49964031D01*
X46611255Y-50059269D01*
X48039826Y-49821174D02*
X48039826Y-50487840D01*
X47801731Y-49440221D02*
X47563636Y-50154507D01*
X48182683Y-50154507D01*
X25820073Y-20326622D02*
X25772454Y-20374241D01*
X25629597Y-20421860D01*
X25534359Y-20421860D01*
X25391501Y-20374241D01*
X25296263Y-20279003D01*
X25248644Y-20183765D01*
X25201025Y-19993289D01*
X25201025Y-19850432D01*
X25248644Y-19659956D01*
X25296263Y-19564718D01*
X25391501Y-19469480D01*
X25534359Y-19421860D01*
X25629597Y-19421860D01*
X25772454Y-19469480D01*
X25820073Y-19517099D01*
X26677216Y-19421860D02*
X26486740Y-19421860D01*
X26391501Y-19469480D01*
X26343882Y-19517099D01*
X26248644Y-19659956D01*
X26201025Y-19850432D01*
X26201025Y-20231384D01*
X26248644Y-20326622D01*
X26296263Y-20374241D01*
X26391501Y-20421860D01*
X26581978Y-20421860D01*
X26677216Y-20374241D01*
X26724835Y-20326622D01*
X26772454Y-20231384D01*
X26772454Y-19993289D01*
X26724835Y-19898051D01*
X26677216Y-19850432D01*
X26581978Y-19802813D01*
X26391501Y-19802813D01*
X26296263Y-19850432D01*
X26248644Y-19898051D01*
X26201025Y-19993289D01*
D14*
X18360271Y-81648430D02*
X18193604Y-81410335D01*
X18074557Y-81648430D02*
X18074557Y-81148430D01*
X18265033Y-81148430D01*
X18312652Y-81172240D01*
X18336461Y-81196049D01*
X18360271Y-81243668D01*
X18360271Y-81315097D01*
X18336461Y-81362716D01*
X18312652Y-81386525D01*
X18265033Y-81410335D01*
X18074557Y-81410335D01*
X18550747Y-81196049D02*
X18574557Y-81172240D01*
X18622176Y-81148430D01*
X18741223Y-81148430D01*
X18788842Y-81172240D01*
X18812652Y-81196049D01*
X18836461Y-81243668D01*
X18836461Y-81291287D01*
X18812652Y-81362716D01*
X18526938Y-81648430D01*
X18836461Y-81648430D01*
X19265033Y-81315097D02*
X19265033Y-81648430D01*
X19145985Y-81124620D02*
X19026938Y-81481763D01*
X19336461Y-81481763D01*
X50110271Y-34438091D02*
X50086461Y-34461900D01*
X50015033Y-34485710D01*
X49967414Y-34485710D01*
X49895985Y-34461900D01*
X49848366Y-34414281D01*
X49824557Y-34366662D01*
X49800747Y-34271424D01*
X49800747Y-34199996D01*
X49824557Y-34104758D01*
X49848366Y-34057139D01*
X49895985Y-34009520D01*
X49967414Y-33985710D01*
X50015033Y-33985710D01*
X50086461Y-34009520D01*
X50110271Y-34033329D01*
X50300747Y-34033329D02*
X50324557Y-34009520D01*
X50372176Y-33985710D01*
X50491223Y-33985710D01*
X50538842Y-34009520D01*
X50562652Y-34033329D01*
X50586461Y-34080948D01*
X50586461Y-34128567D01*
X50562652Y-34199996D01*
X50276938Y-34485710D01*
X50586461Y-34485710D01*
X50753128Y-33985710D02*
X51062652Y-33985710D01*
X50895985Y-34176186D01*
X50967414Y-34176186D01*
X51015033Y-34199996D01*
X51038842Y-34223805D01*
X51062652Y-34271424D01*
X51062652Y-34390472D01*
X51038842Y-34438091D01*
X51015033Y-34461900D01*
X50967414Y-34485710D01*
X50824557Y-34485710D01*
X50776938Y-34461900D01*
X50753128Y-34438091D01*
D11*
X16033216Y-85705700D02*
X16699882Y-86705700D01*
X16699882Y-85705700D02*
X16033216Y-86705700D01*
X17604644Y-86705700D02*
X17033216Y-86705700D01*
X17318930Y-86705700D02*
X17318930Y-85705700D01*
X17223692Y-85848558D01*
X17128454Y-85943796D01*
X17033216Y-85991415D01*
X54762186Y-45860751D02*
X54428853Y-45860751D01*
X54428853Y-46384560D02*
X54428853Y-45384560D01*
X54905043Y-45384560D01*
X55619329Y-45860751D02*
X55762186Y-45908370D01*
X55809805Y-45955989D01*
X55857424Y-46051227D01*
X55857424Y-46194084D01*
X55809805Y-46289322D01*
X55762186Y-46336941D01*
X55666948Y-46384560D01*
X55285996Y-46384560D01*
X55285996Y-45384560D01*
X55619329Y-45384560D01*
X55714567Y-45432180D01*
X55762186Y-45479799D01*
X55809805Y-45575037D01*
X55809805Y-45670275D01*
X55762186Y-45765513D01*
X55714567Y-45813132D01*
X55619329Y-45860751D01*
X55285996Y-45860751D01*
X56428853Y-45813132D02*
X56333615Y-45765513D01*
X56285996Y-45717894D01*
X56238377Y-45622656D01*
X56238377Y-45575037D01*
X56285996Y-45479799D01*
X56333615Y-45432180D01*
X56428853Y-45384560D01*
X56619329Y-45384560D01*
X56714567Y-45432180D01*
X56762186Y-45479799D01*
X56809805Y-45575037D01*
X56809805Y-45622656D01*
X56762186Y-45717894D01*
X56714567Y-45765513D01*
X56619329Y-45813132D01*
X56428853Y-45813132D01*
X56333615Y-45860751D01*
X56285996Y-45908370D01*
X56238377Y-46003608D01*
X56238377Y-46194084D01*
X56285996Y-46289322D01*
X56333615Y-46336941D01*
X56428853Y-46384560D01*
X56619329Y-46384560D01*
X56714567Y-46336941D01*
X56762186Y-46289322D01*
X56809805Y-46194084D01*
X56809805Y-46003608D01*
X56762186Y-45908370D01*
X56714567Y-45860751D01*
X56619329Y-45813132D01*
X50507686Y-38040091D02*
X50174353Y-38040091D01*
X50174353Y-38563900D02*
X50174353Y-37563900D01*
X50650543Y-37563900D01*
X51364829Y-38040091D02*
X51507686Y-38087710D01*
X51555305Y-38135329D01*
X51602924Y-38230567D01*
X51602924Y-38373424D01*
X51555305Y-38468662D01*
X51507686Y-38516281D01*
X51412448Y-38563900D01*
X51031496Y-38563900D01*
X51031496Y-37563900D01*
X51364829Y-37563900D01*
X51460067Y-37611520D01*
X51507686Y-37659139D01*
X51555305Y-37754377D01*
X51555305Y-37849615D01*
X51507686Y-37944853D01*
X51460067Y-37992472D01*
X51364829Y-38040091D01*
X51031496Y-38040091D01*
X51936258Y-37563900D02*
X52602924Y-37563900D01*
X52174353Y-38563900D01*
X62511631Y-23170093D02*
X62511631Y-23503426D01*
X63035440Y-23503426D02*
X62035440Y-23503426D01*
X62035440Y-23027236D01*
X62511631Y-22312950D02*
X62559250Y-22170093D01*
X62606869Y-22122474D01*
X62702107Y-22074855D01*
X62844964Y-22074855D01*
X62940202Y-22122474D01*
X62987821Y-22170093D01*
X63035440Y-22265331D01*
X63035440Y-22646283D01*
X62035440Y-22646283D01*
X62035440Y-22312950D01*
X62083060Y-22217712D01*
X62130679Y-22170093D01*
X62225917Y-22122474D01*
X62321155Y-22122474D01*
X62416393Y-22170093D01*
X62464012Y-22217712D01*
X62511631Y-22312950D01*
X62511631Y-22646283D01*
X62368774Y-21217712D02*
X63035440Y-21217712D01*
X61987821Y-21455807D02*
X62702107Y-21693902D01*
X62702107Y-21074855D01*
X62567511Y-29494693D02*
X62567511Y-29828026D01*
X63091320Y-29828026D02*
X62091320Y-29828026D01*
X62091320Y-29351836D01*
X62567511Y-28637550D02*
X62615130Y-28494693D01*
X62662749Y-28447074D01*
X62757987Y-28399455D01*
X62900844Y-28399455D01*
X62996082Y-28447074D01*
X63043701Y-28494693D01*
X63091320Y-28589931D01*
X63091320Y-28970883D01*
X62091320Y-28970883D01*
X62091320Y-28637550D01*
X62138940Y-28542312D01*
X62186559Y-28494693D01*
X62281797Y-28447074D01*
X62377035Y-28447074D01*
X62472273Y-28494693D01*
X62519892Y-28542312D01*
X62567511Y-28637550D01*
X62567511Y-28970883D01*
X62091320Y-28066121D02*
X62091320Y-27447074D01*
X62472273Y-27780407D01*
X62472273Y-27637550D01*
X62519892Y-27542312D01*
X62567511Y-27494693D01*
X62662749Y-27447074D01*
X62900844Y-27447074D01*
X62996082Y-27494693D01*
X63043701Y-27542312D01*
X63091320Y-27637550D01*
X63091320Y-27923264D01*
X63043701Y-28018502D01*
X62996082Y-28066121D01*
X62547191Y-19563293D02*
X62547191Y-19896626D01*
X63071000Y-19896626D02*
X62071000Y-19896626D01*
X62071000Y-19420436D01*
X62547191Y-18706150D02*
X62594810Y-18563293D01*
X62642429Y-18515674D01*
X62737667Y-18468055D01*
X62880524Y-18468055D01*
X62975762Y-18515674D01*
X63023381Y-18563293D01*
X63071000Y-18658531D01*
X63071000Y-19039483D01*
X62071000Y-19039483D01*
X62071000Y-18706150D01*
X62118620Y-18610912D01*
X62166239Y-18563293D01*
X62261477Y-18515674D01*
X62356715Y-18515674D01*
X62451953Y-18563293D01*
X62499572Y-18610912D01*
X62547191Y-18706150D01*
X62547191Y-19039483D01*
X62166239Y-18087102D02*
X62118620Y-18039483D01*
X62071000Y-17944245D01*
X62071000Y-17706150D01*
X62118620Y-17610912D01*
X62166239Y-17563293D01*
X62261477Y-17515674D01*
X62356715Y-17515674D01*
X62499572Y-17563293D01*
X63071000Y-18134721D01*
X63071000Y-17515674D01*
X62491311Y-13431733D02*
X62491311Y-13765066D01*
X63015120Y-13765066D02*
X62015120Y-13765066D01*
X62015120Y-13288876D01*
X62491311Y-12574590D02*
X62538930Y-12431733D01*
X62586549Y-12384114D01*
X62681787Y-12336495D01*
X62824644Y-12336495D01*
X62919882Y-12384114D01*
X62967501Y-12431733D01*
X63015120Y-12526971D01*
X63015120Y-12907923D01*
X62015120Y-12907923D01*
X62015120Y-12574590D01*
X62062740Y-12479352D01*
X62110359Y-12431733D01*
X62205597Y-12384114D01*
X62300835Y-12384114D01*
X62396073Y-12431733D01*
X62443692Y-12479352D01*
X62491311Y-12574590D01*
X62491311Y-12907923D01*
X63015120Y-11384114D02*
X63015120Y-11955542D01*
X63015120Y-11669828D02*
X62015120Y-11669828D01*
X62157978Y-11765066D01*
X62253216Y-11860304D01*
X62300835Y-11955542D01*
X35267995Y-65583140D02*
X35267995Y-66392664D01*
X35315614Y-66487902D01*
X35363233Y-66535521D01*
X35458471Y-66583140D01*
X35648947Y-66583140D01*
X35744185Y-66535521D01*
X35791804Y-66487902D01*
X35839423Y-66392664D01*
X35839423Y-65583140D01*
X36791804Y-65583140D02*
X36315614Y-65583140D01*
X36267995Y-66059331D01*
X36315614Y-66011712D01*
X36410852Y-65964093D01*
X36648947Y-65964093D01*
X36744185Y-66011712D01*
X36791804Y-66059331D01*
X36839423Y-66154569D01*
X36839423Y-66392664D01*
X36791804Y-66487902D01*
X36744185Y-66535521D01*
X36648947Y-66583140D01*
X36410852Y-66583140D01*
X36315614Y-66535521D01*
X36267995Y-66487902D01*
D14*
X59279671Y-66565910D02*
X59113004Y-66327815D01*
X58993957Y-66565910D02*
X58993957Y-66065910D01*
X59184433Y-66065910D01*
X59232052Y-66089720D01*
X59255861Y-66113529D01*
X59279671Y-66161148D01*
X59279671Y-66232577D01*
X59255861Y-66280196D01*
X59232052Y-66304005D01*
X59184433Y-66327815D01*
X58993957Y-66327815D01*
X59446338Y-66065910D02*
X59755861Y-66065910D01*
X59589195Y-66256386D01*
X59660623Y-66256386D01*
X59708242Y-66280196D01*
X59732052Y-66304005D01*
X59755861Y-66351624D01*
X59755861Y-66470672D01*
X59732052Y-66518291D01*
X59708242Y-66542100D01*
X59660623Y-66565910D01*
X59517766Y-66565910D01*
X59470147Y-66542100D01*
X59446338Y-66518291D01*
X60232052Y-66565910D02*
X59946338Y-66565910D01*
X60089195Y-66565910D02*
X60089195Y-66065910D01*
X60041576Y-66137339D01*
X59993957Y-66184958D01*
X59946338Y-66208767D01*
D11*
X20541075Y-66401700D02*
X20541075Y-67211224D01*
X20588694Y-67306462D01*
X20636313Y-67354081D01*
X20731551Y-67401700D01*
X20922027Y-67401700D01*
X21017265Y-67354081D01*
X21064884Y-67306462D01*
X21112503Y-67211224D01*
X21112503Y-66401700D01*
X21731551Y-66830272D02*
X21636313Y-66782653D01*
X21588694Y-66735034D01*
X21541075Y-66639796D01*
X21541075Y-66592177D01*
X21588694Y-66496939D01*
X21636313Y-66449320D01*
X21731551Y-66401700D01*
X21922027Y-66401700D01*
X22017265Y-66449320D01*
X22064884Y-66496939D01*
X22112503Y-66592177D01*
X22112503Y-66639796D01*
X22064884Y-66735034D01*
X22017265Y-66782653D01*
X21922027Y-66830272D01*
X21731551Y-66830272D01*
X21636313Y-66877891D01*
X21588694Y-66925510D01*
X21541075Y-67020748D01*
X21541075Y-67211224D01*
X21588694Y-67306462D01*
X21636313Y-67354081D01*
X21731551Y-67401700D01*
X21922027Y-67401700D01*
X22017265Y-67354081D01*
X22064884Y-67306462D01*
X22112503Y-67211224D01*
X22112503Y-67020748D01*
X22064884Y-66925510D01*
X22017265Y-66877891D01*
X21922027Y-66830272D01*
X20410846Y-86469700D02*
X20410846Y-87183986D01*
X20363227Y-87326843D01*
X20267989Y-87422081D01*
X20125132Y-87469700D01*
X20029894Y-87469700D01*
X20791799Y-86469700D02*
X21458465Y-86469700D01*
X21029894Y-87469700D01*
X9417726Y-61184540D02*
X9417726Y-61898826D01*
X9370107Y-62041683D01*
X9274869Y-62136921D01*
X9132012Y-62184540D01*
X9036774Y-62184540D01*
X10322488Y-61184540D02*
X10132012Y-61184540D01*
X10036774Y-61232160D01*
X9989155Y-61279779D01*
X9893917Y-61422636D01*
X9846298Y-61613112D01*
X9846298Y-61994064D01*
X9893917Y-62089302D01*
X9941536Y-62136921D01*
X10036774Y-62184540D01*
X10227250Y-62184540D01*
X10322488Y-62136921D01*
X10370107Y-62089302D01*
X10417726Y-61994064D01*
X10417726Y-61755969D01*
X10370107Y-61660731D01*
X10322488Y-61613112D01*
X10227250Y-61565493D01*
X10036774Y-61565493D01*
X9941536Y-61613112D01*
X9893917Y-61660731D01*
X9846298Y-61755969D01*
X43737160Y-27041005D02*
X42737160Y-27041005D01*
X42737160Y-26802910D01*
X42784780Y-26660053D01*
X42880018Y-26564815D01*
X42975256Y-26517196D01*
X43165732Y-26469577D01*
X43308589Y-26469577D01*
X43499065Y-26517196D01*
X43594303Y-26564815D01*
X43689541Y-26660053D01*
X43737160Y-26802910D01*
X43737160Y-27041005D01*
X43737160Y-25517196D02*
X43737160Y-26088624D01*
X43737160Y-25802910D02*
X42737160Y-25802910D01*
X42880018Y-25898148D01*
X42975256Y-25993386D01*
X43022875Y-26088624D01*
X43070494Y-24660053D02*
X43737160Y-24660053D01*
X42689541Y-24898148D02*
X43403827Y-25136243D01*
X43403827Y-24517196D01*
X36878355Y-9475220D02*
X36878355Y-10284744D01*
X36925974Y-10379982D01*
X36973593Y-10427601D01*
X37068831Y-10475220D01*
X37259307Y-10475220D01*
X37354545Y-10427601D01*
X37402164Y-10379982D01*
X37449783Y-10284744D01*
X37449783Y-9475220D01*
X38449783Y-10475220D02*
X37878355Y-10475220D01*
X38164069Y-10475220D02*
X38164069Y-9475220D01*
X38068831Y-9618078D01*
X37973593Y-9713316D01*
X37878355Y-9760935D01*
D14*
X42139086Y-30741750D02*
X41972420Y-30503655D01*
X41853372Y-30741750D02*
X41853372Y-30241750D01*
X42043848Y-30241750D01*
X42091467Y-30265560D01*
X42115277Y-30289369D01*
X42139086Y-30336988D01*
X42139086Y-30408417D01*
X42115277Y-30456036D01*
X42091467Y-30479845D01*
X42043848Y-30503655D01*
X41853372Y-30503655D01*
X42615277Y-30741750D02*
X42329562Y-30741750D01*
X42472420Y-30741750D02*
X42472420Y-30241750D01*
X42424800Y-30313179D01*
X42377181Y-30360798D01*
X42329562Y-30384607D01*
D11*
X37943760Y-30082786D02*
X37943760Y-30558977D01*
X36943760Y-30558977D01*
X37943760Y-29225643D02*
X37943760Y-29797072D01*
X37943760Y-29511358D02*
X36943760Y-29511358D01*
X37086618Y-29606596D01*
X37181856Y-29701834D01*
X37229475Y-29797072D01*
D14*
X18070046Y-36406591D02*
X18046237Y-36430400D01*
X17974808Y-36454210D01*
X17927189Y-36454210D01*
X17855760Y-36430400D01*
X17808141Y-36382781D01*
X17784332Y-36335162D01*
X17760522Y-36239924D01*
X17760522Y-36168496D01*
X17784332Y-36073258D01*
X17808141Y-36025639D01*
X17855760Y-35978020D01*
X17927189Y-35954210D01*
X17974808Y-35954210D01*
X18046237Y-35978020D01*
X18070046Y-36001829D01*
X18498618Y-36120877D02*
X18498618Y-36454210D01*
X18379570Y-35930400D02*
X18260522Y-36287543D01*
X18570046Y-36287543D01*
X47981086Y-12091171D02*
X47957277Y-12114980D01*
X47885848Y-12138790D01*
X47838229Y-12138790D01*
X47766800Y-12114980D01*
X47719181Y-12067361D01*
X47695372Y-12019742D01*
X47671562Y-11924504D01*
X47671562Y-11853076D01*
X47695372Y-11757838D01*
X47719181Y-11710219D01*
X47766800Y-11662600D01*
X47838229Y-11638790D01*
X47885848Y-11638790D01*
X47957277Y-11662600D01*
X47981086Y-11686409D01*
X48147753Y-11638790D02*
X48457277Y-11638790D01*
X48290610Y-11829266D01*
X48362039Y-11829266D01*
X48409658Y-11853076D01*
X48433467Y-11876885D01*
X48457277Y-11924504D01*
X48457277Y-12043552D01*
X48433467Y-12091171D01*
X48409658Y-12114980D01*
X48362039Y-12138790D01*
X48219181Y-12138790D01*
X48171562Y-12114980D01*
X48147753Y-12091171D01*
D11*
X13252153Y-2307862D02*
X13204534Y-2355481D01*
X13061677Y-2403100D01*
X12966439Y-2403100D01*
X12823581Y-2355481D01*
X12728343Y-2260243D01*
X12680724Y-2165005D01*
X12633105Y-1974529D01*
X12633105Y-1831672D01*
X12680724Y-1641196D01*
X12728343Y-1545958D01*
X12823581Y-1450720D01*
X12966439Y-1403100D01*
X13061677Y-1403100D01*
X13204534Y-1450720D01*
X13252153Y-1498339D01*
X14204534Y-2403100D02*
X13633105Y-2403100D01*
X13918820Y-2403100D02*
X13918820Y-1403100D01*
X13823581Y-1545958D01*
X13728343Y-1641196D01*
X13633105Y-1688815D01*
X39114790Y-88855300D02*
X39686219Y-88855300D01*
X39400504Y-89855300D02*
X39400504Y-88855300D01*
X40019552Y-89855300D02*
X40019552Y-88855300D01*
X40400504Y-88855300D01*
X40495742Y-88902920D01*
X40543361Y-88950539D01*
X40590980Y-89045777D01*
X40590980Y-89188634D01*
X40543361Y-89283872D01*
X40495742Y-89331491D01*
X40400504Y-89379110D01*
X40019552Y-89379110D01*
X41543361Y-89855300D02*
X40971933Y-89855300D01*
X41257647Y-89855300D02*
X41257647Y-88855300D01*
X41162409Y-88998158D01*
X41067171Y-89093396D01*
X40971933Y-89141015D01*
X41733838Y-89950539D02*
X42495742Y-89950539D01*
X42924314Y-88855300D02*
X43019552Y-88855300D01*
X43114790Y-88902920D01*
X43162409Y-88950539D01*
X43210028Y-89045777D01*
X43257647Y-89236253D01*
X43257647Y-89474348D01*
X43210028Y-89664824D01*
X43162409Y-89760062D01*
X43114790Y-89807681D01*
X43019552Y-89855300D01*
X42924314Y-89855300D01*
X42829076Y-89807681D01*
X42781457Y-89760062D01*
X42733838Y-89664824D01*
X42686219Y-89474348D01*
X42686219Y-89236253D01*
X42733838Y-89045777D01*
X42781457Y-88950539D01*
X42829076Y-88902920D01*
X42924314Y-88855300D01*
X43543361Y-88855300D02*
X43876695Y-89855300D01*
X44210028Y-88855300D01*
X45067171Y-89855300D02*
X44495742Y-89855300D01*
X44781457Y-89855300D02*
X44781457Y-88855300D01*
X44686219Y-88998158D01*
X44590980Y-89093396D01*
X44495742Y-89141015D01*
X35203284Y-82822800D02*
X35203284Y-83632324D01*
X35250903Y-83727562D01*
X35298522Y-83775181D01*
X35393760Y-83822800D01*
X35584237Y-83822800D01*
X35679475Y-83775181D01*
X35727094Y-83727562D01*
X35774713Y-83632324D01*
X35774713Y-82822800D01*
X36774713Y-83822800D02*
X36203284Y-83822800D01*
X36488999Y-83822800D02*
X36488999Y-82822800D01*
X36393760Y-82965658D01*
X36298522Y-83060896D01*
X36203284Y-83108515D01*
X37155665Y-82918039D02*
X37203284Y-82870420D01*
X37298522Y-82822800D01*
X37536618Y-82822800D01*
X37631856Y-82870420D01*
X37679475Y-82918039D01*
X37727094Y-83013277D01*
X37727094Y-83108515D01*
X37679475Y-83251372D01*
X37108046Y-83822800D01*
X37727094Y-83822800D01*
D14*
X30486231Y-90919430D02*
X30319564Y-90681335D01*
X30200517Y-90919430D02*
X30200517Y-90419430D01*
X30390993Y-90419430D01*
X30438612Y-90443240D01*
X30462421Y-90467049D01*
X30486231Y-90514668D01*
X30486231Y-90586097D01*
X30462421Y-90633716D01*
X30438612Y-90657525D01*
X30390993Y-90681335D01*
X30200517Y-90681335D01*
X30938612Y-90419430D02*
X30700517Y-90419430D01*
X30676707Y-90657525D01*
X30700517Y-90633716D01*
X30748136Y-90609906D01*
X30867183Y-90609906D01*
X30914802Y-90633716D01*
X30938612Y-90657525D01*
X30962421Y-90705144D01*
X30962421Y-90824192D01*
X30938612Y-90871811D01*
X30914802Y-90895620D01*
X30867183Y-90919430D01*
X30748136Y-90919430D01*
X30700517Y-90895620D01*
X30676707Y-90871811D01*
X31129088Y-90419430D02*
X31438612Y-90419430D01*
X31271945Y-90609906D01*
X31343374Y-90609906D01*
X31390993Y-90633716D01*
X31414802Y-90657525D01*
X31438612Y-90705144D01*
X31438612Y-90824192D01*
X31414802Y-90871811D01*
X31390993Y-90895620D01*
X31343374Y-90919430D01*
X31200517Y-90919430D01*
X31152898Y-90895620D01*
X31129088Y-90871811D01*
X39410770Y-82459948D02*
X39172675Y-82626615D01*
X39410770Y-82745662D02*
X38910770Y-82745662D01*
X38910770Y-82555186D01*
X38934580Y-82507567D01*
X38958389Y-82483758D01*
X39006008Y-82459948D01*
X39077437Y-82459948D01*
X39125056Y-82483758D01*
X39148865Y-82507567D01*
X39172675Y-82555186D01*
X39172675Y-82745662D01*
X38910770Y-82007567D02*
X38910770Y-82245662D01*
X39148865Y-82269472D01*
X39125056Y-82245662D01*
X39101246Y-82198043D01*
X39101246Y-82078996D01*
X39125056Y-82031377D01*
X39148865Y-82007567D01*
X39196484Y-81983758D01*
X39315532Y-81983758D01*
X39363151Y-82007567D01*
X39386960Y-82031377D01*
X39410770Y-82078996D01*
X39410770Y-82198043D01*
X39386960Y-82245662D01*
X39363151Y-82269472D01*
X38958389Y-81793281D02*
X38934580Y-81769472D01*
X38910770Y-81721853D01*
X38910770Y-81602805D01*
X38934580Y-81555186D01*
X38958389Y-81531377D01*
X39006008Y-81507567D01*
X39053627Y-81507567D01*
X39125056Y-81531377D01*
X39410770Y-81817091D01*
X39410770Y-81507567D01*
D11*
X33404821Y-74426059D02*
X33309583Y-74378440D01*
X33214345Y-74283201D01*
X33071488Y-74140344D01*
X32976250Y-74092725D01*
X32881012Y-74092725D01*
X32928631Y-74330820D02*
X32833393Y-74283201D01*
X32738155Y-74187963D01*
X32690536Y-73997487D01*
X32690536Y-73664154D01*
X32738155Y-73473678D01*
X32833393Y-73378440D01*
X32928631Y-73330820D01*
X33119107Y-73330820D01*
X33214345Y-73378440D01*
X33309583Y-73473678D01*
X33357202Y-73664154D01*
X33357202Y-73997487D01*
X33309583Y-74187963D01*
X33214345Y-74283201D01*
X33119107Y-74330820D01*
X32928631Y-74330820D01*
X34214345Y-73664154D02*
X34214345Y-74330820D01*
X33976250Y-73283201D02*
X33738155Y-73997487D01*
X34357202Y-73997487D01*
X25538656Y-88725000D02*
X25538656Y-87725000D01*
X25919608Y-87725000D01*
X26014846Y-87772620D01*
X26062465Y-87820239D01*
X26110084Y-87915477D01*
X26110084Y-88058334D01*
X26062465Y-88153572D01*
X26014846Y-88201191D01*
X25919608Y-88248810D01*
X25538656Y-88248810D01*
X26443418Y-87725000D02*
X26681513Y-88725000D01*
X26871989Y-88010715D01*
X27062465Y-88725000D01*
X27300560Y-87725000D01*
X28252941Y-88725000D02*
X27919608Y-88248810D01*
X27681513Y-88725000D02*
X27681513Y-87725000D01*
X28062465Y-87725000D01*
X28157703Y-87772620D01*
X28205322Y-87820239D01*
X28252941Y-87915477D01*
X28252941Y-88058334D01*
X28205322Y-88153572D01*
X28157703Y-88201191D01*
X28062465Y-88248810D01*
X27681513Y-88248810D01*
X28633894Y-87820239D02*
X28681513Y-87772620D01*
X28776751Y-87725000D01*
X29014846Y-87725000D01*
X29110084Y-87772620D01*
X29157703Y-87820239D01*
X29205322Y-87915477D01*
X29205322Y-88010715D01*
X29157703Y-88153572D01*
X28586275Y-88725000D01*
X29205322Y-88725000D01*
D14*
X34484191Y-77953371D02*
X34460381Y-77977180D01*
X34388953Y-78000990D01*
X34341334Y-78000990D01*
X34269905Y-77977180D01*
X34222286Y-77929561D01*
X34198477Y-77881942D01*
X34174667Y-77786704D01*
X34174667Y-77715276D01*
X34198477Y-77620038D01*
X34222286Y-77572419D01*
X34269905Y-77524800D01*
X34341334Y-77500990D01*
X34388953Y-77500990D01*
X34460381Y-77524800D01*
X34484191Y-77548609D01*
X34912762Y-77500990D02*
X34817524Y-77500990D01*
X34769905Y-77524800D01*
X34746096Y-77548609D01*
X34698477Y-77620038D01*
X34674667Y-77715276D01*
X34674667Y-77905752D01*
X34698477Y-77953371D01*
X34722286Y-77977180D01*
X34769905Y-78000990D01*
X34865143Y-78000990D01*
X34912762Y-77977180D01*
X34936572Y-77953371D01*
X34960381Y-77905752D01*
X34960381Y-77786704D01*
X34936572Y-77739085D01*
X34912762Y-77715276D01*
X34865143Y-77691466D01*
X34769905Y-77691466D01*
X34722286Y-77715276D01*
X34698477Y-77739085D01*
X34674667Y-77786704D01*
X35388953Y-77500990D02*
X35293715Y-77500990D01*
X35246096Y-77524800D01*
X35222286Y-77548609D01*
X35174667Y-77620038D01*
X35150858Y-77715276D01*
X35150858Y-77905752D01*
X35174667Y-77953371D01*
X35198477Y-77977180D01*
X35246096Y-78000990D01*
X35341334Y-78000990D01*
X35388953Y-77977180D01*
X35412762Y-77953371D01*
X35436572Y-77905752D01*
X35436572Y-77786704D01*
X35412762Y-77739085D01*
X35388953Y-77715276D01*
X35341334Y-77691466D01*
X35246096Y-77691466D01*
X35198477Y-77715276D01*
X35174667Y-77739085D01*
X35150858Y-77786704D01*
X40582351Y-82498048D02*
X40606160Y-82521858D01*
X40629970Y-82593286D01*
X40629970Y-82640905D01*
X40606160Y-82712334D01*
X40558541Y-82759953D01*
X40510922Y-82783762D01*
X40415684Y-82807572D01*
X40344256Y-82807572D01*
X40249018Y-82783762D01*
X40201399Y-82759953D01*
X40153780Y-82712334D01*
X40129970Y-82640905D01*
X40129970Y-82593286D01*
X40153780Y-82521858D01*
X40177589Y-82498048D01*
X40129970Y-82069477D02*
X40129970Y-82164715D01*
X40153780Y-82212334D01*
X40177589Y-82236143D01*
X40249018Y-82283762D01*
X40344256Y-82307572D01*
X40534732Y-82307572D01*
X40582351Y-82283762D01*
X40606160Y-82259953D01*
X40629970Y-82212334D01*
X40629970Y-82117096D01*
X40606160Y-82069477D01*
X40582351Y-82045667D01*
X40534732Y-82021858D01*
X40415684Y-82021858D01*
X40368065Y-82045667D01*
X40344256Y-82069477D01*
X40320446Y-82117096D01*
X40320446Y-82212334D01*
X40344256Y-82259953D01*
X40368065Y-82283762D01*
X40415684Y-82307572D01*
X40129970Y-81569477D02*
X40129970Y-81807572D01*
X40368065Y-81831381D01*
X40344256Y-81807572D01*
X40320446Y-81759953D01*
X40320446Y-81640905D01*
X40344256Y-81593286D01*
X40368065Y-81569477D01*
X40415684Y-81545667D01*
X40534732Y-81545667D01*
X40582351Y-81569477D01*
X40606160Y-81593286D01*
X40629970Y-81640905D01*
X40629970Y-81759953D01*
X40606160Y-81807572D01*
X40582351Y-81831381D01*
D11*
X25399406Y-559820D02*
X25399406Y-1274106D01*
X25351787Y-1416963D01*
X25256549Y-1512201D01*
X25113692Y-1559820D01*
X25018454Y-1559820D01*
X26351787Y-559820D02*
X25875597Y-559820D01*
X25827978Y-1036011D01*
X25875597Y-988392D01*
X25970835Y-940773D01*
X26208930Y-940773D01*
X26304168Y-988392D01*
X26351787Y-1036011D01*
X26399406Y-1131249D01*
X26399406Y-1369344D01*
X26351787Y-1464582D01*
X26304168Y-1512201D01*
X26208930Y-1559820D01*
X25970835Y-1559820D01*
X25875597Y-1512201D01*
X25827978Y-1464582D01*
D14*
X54950431Y-17254350D02*
X54950431Y-16754350D01*
X55236145Y-17254350D01*
X55236145Y-16754350D01*
X55402812Y-16754350D02*
X55688526Y-16754350D01*
X55545669Y-17254350D02*
X55545669Y-16754350D01*
X56117098Y-17254350D02*
X55831383Y-17254350D01*
X55974240Y-17254350D02*
X55974240Y-16754350D01*
X55926621Y-16825779D01*
X55879002Y-16873398D01*
X55831383Y-16897207D01*
D11*
X44439246Y-1936500D02*
X44439246Y-2650786D01*
X44391627Y-2793643D01*
X44296389Y-2888881D01*
X44153532Y-2936500D01*
X44058294Y-2936500D01*
X44867818Y-2031739D02*
X44915437Y-1984120D01*
X45010675Y-1936500D01*
X45248770Y-1936500D01*
X45344008Y-1984120D01*
X45391627Y-2031739D01*
X45439246Y-2126977D01*
X45439246Y-2222215D01*
X45391627Y-2365072D01*
X44820199Y-2936500D01*
X45439246Y-2936500D01*
D14*
X18502511Y-34458411D02*
X18478701Y-34482220D01*
X18407273Y-34506030D01*
X18359654Y-34506030D01*
X18288225Y-34482220D01*
X18240606Y-34434601D01*
X18216797Y-34386982D01*
X18192987Y-34291744D01*
X18192987Y-34220316D01*
X18216797Y-34125078D01*
X18240606Y-34077459D01*
X18288225Y-34029840D01*
X18359654Y-34006030D01*
X18407273Y-34006030D01*
X18478701Y-34029840D01*
X18502511Y-34053649D01*
X18931082Y-34006030D02*
X18835844Y-34006030D01*
X18788225Y-34029840D01*
X18764416Y-34053649D01*
X18716797Y-34125078D01*
X18692987Y-34220316D01*
X18692987Y-34410792D01*
X18716797Y-34458411D01*
X18740606Y-34482220D01*
X18788225Y-34506030D01*
X18883463Y-34506030D01*
X18931082Y-34482220D01*
X18954892Y-34458411D01*
X18978701Y-34410792D01*
X18978701Y-34291744D01*
X18954892Y-34244125D01*
X18931082Y-34220316D01*
X18883463Y-34196506D01*
X18788225Y-34196506D01*
X18740606Y-34220316D01*
X18716797Y-34244125D01*
X18692987Y-34291744D01*
X19288225Y-34006030D02*
X19335844Y-34006030D01*
X19383463Y-34029840D01*
X19407273Y-34053649D01*
X19431082Y-34101268D01*
X19454892Y-34196506D01*
X19454892Y-34315554D01*
X19431082Y-34410792D01*
X19407273Y-34458411D01*
X19383463Y-34482220D01*
X19335844Y-34506030D01*
X19288225Y-34506030D01*
X19240606Y-34482220D01*
X19216797Y-34458411D01*
X19192987Y-34410792D01*
X19169178Y-34315554D01*
X19169178Y-34196506D01*
X19192987Y-34101268D01*
X19216797Y-34053649D01*
X19240606Y-34029840D01*
X19288225Y-34006030D01*
X20910431Y-30998931D02*
X20886621Y-31022740D01*
X20815193Y-31046550D01*
X20767574Y-31046550D01*
X20696145Y-31022740D01*
X20648526Y-30975121D01*
X20624717Y-30927502D01*
X20600907Y-30832264D01*
X20600907Y-30760836D01*
X20624717Y-30665598D01*
X20648526Y-30617979D01*
X20696145Y-30570360D01*
X20767574Y-30546550D01*
X20815193Y-30546550D01*
X20886621Y-30570360D01*
X20910431Y-30594169D01*
X21362812Y-30546550D02*
X21124717Y-30546550D01*
X21100907Y-30784645D01*
X21124717Y-30760836D01*
X21172336Y-30737026D01*
X21291383Y-30737026D01*
X21339002Y-30760836D01*
X21362812Y-30784645D01*
X21386621Y-30832264D01*
X21386621Y-30951312D01*
X21362812Y-30998931D01*
X21339002Y-31022740D01*
X21291383Y-31046550D01*
X21172336Y-31046550D01*
X21124717Y-31022740D01*
X21100907Y-30998931D01*
X21624717Y-31046550D02*
X21719955Y-31046550D01*
X21767574Y-31022740D01*
X21791383Y-30998931D01*
X21839002Y-30927502D01*
X21862812Y-30832264D01*
X21862812Y-30641788D01*
X21839002Y-30594169D01*
X21815193Y-30570360D01*
X21767574Y-30546550D01*
X21672336Y-30546550D01*
X21624717Y-30570360D01*
X21600907Y-30594169D01*
X21577098Y-30641788D01*
X21577098Y-30760836D01*
X21600907Y-30808455D01*
X21624717Y-30832264D01*
X21672336Y-30856074D01*
X21767574Y-30856074D01*
X21815193Y-30832264D01*
X21839002Y-30808455D01*
X21862812Y-30760836D01*
X54989611Y-47569891D02*
X54965801Y-47593700D01*
X54894373Y-47617510D01*
X54846754Y-47617510D01*
X54775325Y-47593700D01*
X54727706Y-47546081D01*
X54703897Y-47498462D01*
X54680087Y-47403224D01*
X54680087Y-47331796D01*
X54703897Y-47236558D01*
X54727706Y-47188939D01*
X54775325Y-47141320D01*
X54846754Y-47117510D01*
X54894373Y-47117510D01*
X54965801Y-47141320D01*
X54989611Y-47165129D01*
X55418182Y-47117510D02*
X55322944Y-47117510D01*
X55275325Y-47141320D01*
X55251516Y-47165129D01*
X55203897Y-47236558D01*
X55180087Y-47331796D01*
X55180087Y-47522272D01*
X55203897Y-47569891D01*
X55227706Y-47593700D01*
X55275325Y-47617510D01*
X55370563Y-47617510D01*
X55418182Y-47593700D01*
X55441992Y-47569891D01*
X55465801Y-47522272D01*
X55465801Y-47403224D01*
X55441992Y-47355605D01*
X55418182Y-47331796D01*
X55370563Y-47307986D01*
X55275325Y-47307986D01*
X55227706Y-47331796D01*
X55203897Y-47355605D01*
X55180087Y-47403224D01*
X55632468Y-47117510D02*
X55941992Y-47117510D01*
X55775325Y-47307986D01*
X55846754Y-47307986D01*
X55894373Y-47331796D01*
X55918182Y-47355605D01*
X55941992Y-47403224D01*
X55941992Y-47522272D01*
X55918182Y-47569891D01*
X55894373Y-47593700D01*
X55846754Y-47617510D01*
X55703897Y-47617510D01*
X55656278Y-47593700D01*
X55632468Y-47569891D01*
X48601511Y-22733771D02*
X48577701Y-22757580D01*
X48506273Y-22781390D01*
X48458654Y-22781390D01*
X48387225Y-22757580D01*
X48339606Y-22709961D01*
X48315797Y-22662342D01*
X48291987Y-22567104D01*
X48291987Y-22495676D01*
X48315797Y-22400438D01*
X48339606Y-22352819D01*
X48387225Y-22305200D01*
X48458654Y-22281390D01*
X48506273Y-22281390D01*
X48577701Y-22305200D01*
X48601511Y-22329009D01*
X49030082Y-22281390D02*
X48934844Y-22281390D01*
X48887225Y-22305200D01*
X48863416Y-22329009D01*
X48815797Y-22400438D01*
X48791987Y-22495676D01*
X48791987Y-22686152D01*
X48815797Y-22733771D01*
X48839606Y-22757580D01*
X48887225Y-22781390D01*
X48982463Y-22781390D01*
X49030082Y-22757580D01*
X49053892Y-22733771D01*
X49077701Y-22686152D01*
X49077701Y-22567104D01*
X49053892Y-22519485D01*
X49030082Y-22495676D01*
X48982463Y-22471866D01*
X48887225Y-22471866D01*
X48839606Y-22495676D01*
X48815797Y-22519485D01*
X48791987Y-22567104D01*
X49553892Y-22781390D02*
X49268178Y-22781390D01*
X49411035Y-22781390D02*
X49411035Y-22281390D01*
X49363416Y-22352819D01*
X49315797Y-22400438D01*
X49268178Y-22424247D01*
X47596692Y-44628310D02*
X47882406Y-44628310D01*
X47739549Y-45128310D02*
X47739549Y-44628310D01*
X48049073Y-45128310D02*
X48049073Y-44628310D01*
X48239549Y-44628310D01*
X48287168Y-44652120D01*
X48310978Y-44675929D01*
X48334787Y-44723548D01*
X48334787Y-44794977D01*
X48310978Y-44842596D01*
X48287168Y-44866405D01*
X48239549Y-44890215D01*
X48049073Y-44890215D01*
X48525263Y-44675929D02*
X48549073Y-44652120D01*
X48596692Y-44628310D01*
X48715740Y-44628310D01*
X48763359Y-44652120D01*
X48787168Y-44675929D01*
X48810978Y-44723548D01*
X48810978Y-44771167D01*
X48787168Y-44842596D01*
X48501454Y-45128310D01*
X48810978Y-45128310D01*
X48977644Y-44628310D02*
X49287168Y-44628310D01*
X49120501Y-44818786D01*
X49191930Y-44818786D01*
X49239549Y-44842596D01*
X49263359Y-44866405D01*
X49287168Y-44914024D01*
X49287168Y-45033072D01*
X49263359Y-45080691D01*
X49239549Y-45104500D01*
X49191930Y-45128310D01*
X49049073Y-45128310D01*
X49001454Y-45104500D01*
X48977644Y-45080691D01*
X51277152Y-44582590D02*
X51562866Y-44582590D01*
X51420009Y-45082590D02*
X51420009Y-44582590D01*
X51729533Y-45082590D02*
X51729533Y-44582590D01*
X51920009Y-44582590D01*
X51967628Y-44606400D01*
X51991438Y-44630209D01*
X52015247Y-44677828D01*
X52015247Y-44749257D01*
X51991438Y-44796876D01*
X51967628Y-44820685D01*
X51920009Y-44844495D01*
X51729533Y-44844495D01*
X52205723Y-44630209D02*
X52229533Y-44606400D01*
X52277152Y-44582590D01*
X52396200Y-44582590D01*
X52443819Y-44606400D01*
X52467628Y-44630209D01*
X52491438Y-44677828D01*
X52491438Y-44725447D01*
X52467628Y-44796876D01*
X52181914Y-45082590D01*
X52491438Y-45082590D01*
X52681914Y-44630209D02*
X52705723Y-44606400D01*
X52753342Y-44582590D01*
X52872390Y-44582590D01*
X52920009Y-44606400D01*
X52943819Y-44630209D01*
X52967628Y-44677828D01*
X52967628Y-44725447D01*
X52943819Y-44796876D01*
X52658104Y-45082590D01*
X52967628Y-45082590D01*
X59162831Y-34353630D02*
X58996164Y-34115535D01*
X58877117Y-34353630D02*
X58877117Y-33853630D01*
X59067593Y-33853630D01*
X59115212Y-33877440D01*
X59139021Y-33901249D01*
X59162831Y-33948868D01*
X59162831Y-34020297D01*
X59139021Y-34067916D01*
X59115212Y-34091725D01*
X59067593Y-34115535D01*
X58877117Y-34115535D01*
X59615212Y-33853630D02*
X59377117Y-33853630D01*
X59353307Y-34091725D01*
X59377117Y-34067916D01*
X59424736Y-34044106D01*
X59543783Y-34044106D01*
X59591402Y-34067916D01*
X59615212Y-34091725D01*
X59639021Y-34139344D01*
X59639021Y-34258392D01*
X59615212Y-34306011D01*
X59591402Y-34329820D01*
X59543783Y-34353630D01*
X59424736Y-34353630D01*
X59377117Y-34329820D01*
X59353307Y-34306011D01*
X60115212Y-34353630D02*
X59829498Y-34353630D01*
X59972355Y-34353630D02*
X59972355Y-33853630D01*
X59924736Y-33925059D01*
X59877117Y-33972678D01*
X59829498Y-33996487D01*
X46838751Y-30650310D02*
X46672084Y-30412215D01*
X46553037Y-30650310D02*
X46553037Y-30150310D01*
X46743513Y-30150310D01*
X46791132Y-30174120D01*
X46814941Y-30197929D01*
X46838751Y-30245548D01*
X46838751Y-30316977D01*
X46814941Y-30364596D01*
X46791132Y-30388405D01*
X46743513Y-30412215D01*
X46553037Y-30412215D01*
X47291132Y-30150310D02*
X47053037Y-30150310D01*
X47029227Y-30388405D01*
X47053037Y-30364596D01*
X47100656Y-30340786D01*
X47219703Y-30340786D01*
X47267322Y-30364596D01*
X47291132Y-30388405D01*
X47314941Y-30436024D01*
X47314941Y-30555072D01*
X47291132Y-30602691D01*
X47267322Y-30626500D01*
X47219703Y-30650310D01*
X47100656Y-30650310D01*
X47053037Y-30626500D01*
X47029227Y-30602691D01*
X47624465Y-30150310D02*
X47672084Y-30150310D01*
X47719703Y-30174120D01*
X47743513Y-30197929D01*
X47767322Y-30245548D01*
X47791132Y-30340786D01*
X47791132Y-30459834D01*
X47767322Y-30555072D01*
X47743513Y-30602691D01*
X47719703Y-30626500D01*
X47672084Y-30650310D01*
X47624465Y-30650310D01*
X47576846Y-30626500D01*
X47553037Y-30602691D01*
X47529227Y-30555072D01*
X47505418Y-30459834D01*
X47505418Y-30340786D01*
X47529227Y-30245548D01*
X47553037Y-30197929D01*
X47576846Y-30174120D01*
X47624465Y-30150310D01*
X46278930Y-29053908D02*
X46040835Y-29220575D01*
X46278930Y-29339622D02*
X45778930Y-29339622D01*
X45778930Y-29149146D01*
X45802740Y-29101527D01*
X45826549Y-29077718D01*
X45874168Y-29053908D01*
X45945597Y-29053908D01*
X45993216Y-29077718D01*
X46017025Y-29101527D01*
X46040835Y-29149146D01*
X46040835Y-29339622D01*
X45945597Y-28625337D02*
X46278930Y-28625337D01*
X45755120Y-28744384D02*
X46112263Y-28863432D01*
X46112263Y-28553908D01*
X45826549Y-28387241D02*
X45802740Y-28363432D01*
X45778930Y-28315813D01*
X45778930Y-28196765D01*
X45802740Y-28149146D01*
X45826549Y-28125337D01*
X45874168Y-28101527D01*
X45921787Y-28101527D01*
X45993216Y-28125337D01*
X46278930Y-28411051D01*
X46278930Y-28101527D01*
X6940431Y-5514470D02*
X6773764Y-5276375D01*
X6654717Y-5514470D02*
X6654717Y-5014470D01*
X6845193Y-5014470D01*
X6892812Y-5038280D01*
X6916621Y-5062089D01*
X6940431Y-5109708D01*
X6940431Y-5181137D01*
X6916621Y-5228756D01*
X6892812Y-5252565D01*
X6845193Y-5276375D01*
X6654717Y-5276375D01*
X7369002Y-5181137D02*
X7369002Y-5514470D01*
X7249955Y-4990660D02*
X7130907Y-5347803D01*
X7440431Y-5347803D01*
X7654717Y-5514470D02*
X7749955Y-5514470D01*
X7797574Y-5490660D01*
X7821383Y-5466851D01*
X7869002Y-5395422D01*
X7892812Y-5300184D01*
X7892812Y-5109708D01*
X7869002Y-5062089D01*
X7845193Y-5038280D01*
X7797574Y-5014470D01*
X7702336Y-5014470D01*
X7654717Y-5038280D01*
X7630907Y-5062089D01*
X7607098Y-5109708D01*
X7607098Y-5228756D01*
X7630907Y-5276375D01*
X7654717Y-5300184D01*
X7702336Y-5323994D01*
X7797574Y-5323994D01*
X7845193Y-5300184D01*
X7869002Y-5276375D01*
X7892812Y-5228756D01*
X6915031Y-6992750D02*
X6748364Y-6754655D01*
X6629317Y-6992750D02*
X6629317Y-6492750D01*
X6819793Y-6492750D01*
X6867412Y-6516560D01*
X6891221Y-6540369D01*
X6915031Y-6587988D01*
X6915031Y-6659417D01*
X6891221Y-6707036D01*
X6867412Y-6730845D01*
X6819793Y-6754655D01*
X6629317Y-6754655D01*
X7343602Y-6659417D02*
X7343602Y-6992750D01*
X7224555Y-6468940D02*
X7105507Y-6826083D01*
X7415031Y-6826083D01*
X7676936Y-6707036D02*
X7629317Y-6683226D01*
X7605507Y-6659417D01*
X7581698Y-6611798D01*
X7581698Y-6587988D01*
X7605507Y-6540369D01*
X7629317Y-6516560D01*
X7676936Y-6492750D01*
X7772174Y-6492750D01*
X7819793Y-6516560D01*
X7843602Y-6540369D01*
X7867412Y-6587988D01*
X7867412Y-6611798D01*
X7843602Y-6659417D01*
X7819793Y-6683226D01*
X7772174Y-6707036D01*
X7676936Y-6707036D01*
X7629317Y-6730845D01*
X7605507Y-6754655D01*
X7581698Y-6802274D01*
X7581698Y-6897512D01*
X7605507Y-6945131D01*
X7629317Y-6968940D01*
X7676936Y-6992750D01*
X7772174Y-6992750D01*
X7819793Y-6968940D01*
X7843602Y-6945131D01*
X7867412Y-6897512D01*
X7867412Y-6802274D01*
X7843602Y-6754655D01*
X7819793Y-6730845D01*
X7772174Y-6707036D01*
X57299492Y-35997390D02*
X57585206Y-35997390D01*
X57442349Y-36497390D02*
X57442349Y-35997390D01*
X57751873Y-36497390D02*
X57751873Y-35997390D01*
X57942349Y-35997390D01*
X57989968Y-36021200D01*
X58013778Y-36045009D01*
X58037587Y-36092628D01*
X58037587Y-36164057D01*
X58013778Y-36211676D01*
X57989968Y-36235485D01*
X57942349Y-36259295D01*
X57751873Y-36259295D01*
X58228063Y-36045009D02*
X58251873Y-36021200D01*
X58299492Y-35997390D01*
X58418540Y-35997390D01*
X58466159Y-36021200D01*
X58489968Y-36045009D01*
X58513778Y-36092628D01*
X58513778Y-36140247D01*
X58489968Y-36211676D01*
X58204254Y-36497390D01*
X58513778Y-36497390D01*
X58942349Y-36164057D02*
X58942349Y-36497390D01*
X58823301Y-35973580D02*
X58704254Y-36330723D01*
X59013778Y-36330723D01*
X45335071Y-26601550D02*
X45168404Y-26363455D01*
X45049357Y-26601550D02*
X45049357Y-26101550D01*
X45239833Y-26101550D01*
X45287452Y-26125360D01*
X45311261Y-26149169D01*
X45335071Y-26196788D01*
X45335071Y-26268217D01*
X45311261Y-26315836D01*
X45287452Y-26339645D01*
X45239833Y-26363455D01*
X45049357Y-26363455D01*
X45763642Y-26268217D02*
X45763642Y-26601550D01*
X45644595Y-26077740D02*
X45525547Y-26434883D01*
X45835071Y-26434883D01*
X45977928Y-26101550D02*
X46311261Y-26101550D01*
X46096976Y-26601550D01*
D11*
X57859989Y-70825510D02*
X57859989Y-71301700D01*
X57526656Y-70301700D02*
X57859989Y-70825510D01*
X58193322Y-70301700D01*
X58479037Y-70396939D02*
X58526656Y-70349320D01*
X58621894Y-70301700D01*
X58859989Y-70301700D01*
X58955227Y-70349320D01*
X59002846Y-70396939D01*
X59050465Y-70492177D01*
X59050465Y-70587415D01*
X59002846Y-70730272D01*
X58431418Y-71301700D01*
X59050465Y-71301700D01*
X3538126Y-91207340D02*
X3538126Y-92016864D01*
X3585745Y-92112102D01*
X3633364Y-92159721D01*
X3728602Y-92207340D01*
X3919079Y-92207340D01*
X4014317Y-92159721D01*
X4061936Y-92112102D01*
X4109555Y-92016864D01*
X4109555Y-91207340D01*
X4538126Y-92159721D02*
X4680983Y-92207340D01*
X4919079Y-92207340D01*
X5014317Y-92159721D01*
X5061936Y-92112102D01*
X5109555Y-92016864D01*
X5109555Y-91921626D01*
X5061936Y-91826388D01*
X5014317Y-91778769D01*
X4919079Y-91731150D01*
X4728602Y-91683531D01*
X4633364Y-91635912D01*
X4585745Y-91588293D01*
X4538126Y-91493055D01*
X4538126Y-91397817D01*
X4585745Y-91302579D01*
X4633364Y-91254960D01*
X4728602Y-91207340D01*
X4966698Y-91207340D01*
X5109555Y-91254960D01*
X5871460Y-91683531D02*
X6014317Y-91731150D01*
X6061936Y-91778769D01*
X6109555Y-91874007D01*
X6109555Y-92016864D01*
X6061936Y-92112102D01*
X6014317Y-92159721D01*
X5919079Y-92207340D01*
X5538126Y-92207340D01*
X5538126Y-91207340D01*
X5871460Y-91207340D01*
X5966698Y-91254960D01*
X6014317Y-91302579D01*
X6061936Y-91397817D01*
X6061936Y-91493055D01*
X6014317Y-91588293D01*
X5966698Y-91635912D01*
X5871460Y-91683531D01*
X5538126Y-91683531D01*
X6300031Y-92302579D02*
X7061936Y-92302579D01*
X7300031Y-92207340D02*
X7300031Y-91207340D01*
X7680983Y-91207340D01*
X7776221Y-91254960D01*
X7823840Y-91302579D01*
X7871460Y-91397817D01*
X7871460Y-91540674D01*
X7823840Y-91635912D01*
X7776221Y-91683531D01*
X7680983Y-91731150D01*
X7300031Y-91731150D01*
X8442888Y-92207340D02*
X8347650Y-92159721D01*
X8300031Y-92112102D01*
X8252412Y-92016864D01*
X8252412Y-91731150D01*
X8300031Y-91635912D01*
X8347650Y-91588293D01*
X8442888Y-91540674D01*
X8585745Y-91540674D01*
X8680983Y-91588293D01*
X8728602Y-91635912D01*
X8776221Y-91731150D01*
X8776221Y-92016864D01*
X8728602Y-92112102D01*
X8680983Y-92159721D01*
X8585745Y-92207340D01*
X8442888Y-92207340D01*
X9109555Y-91540674D02*
X9300031Y-92207340D01*
X9490507Y-91731150D01*
X9680983Y-92207340D01*
X9871460Y-91540674D01*
X10633364Y-92159721D02*
X10538126Y-92207340D01*
X10347650Y-92207340D01*
X10252412Y-92159721D01*
X10204793Y-92064483D01*
X10204793Y-91683531D01*
X10252412Y-91588293D01*
X10347650Y-91540674D01*
X10538126Y-91540674D01*
X10633364Y-91588293D01*
X10680983Y-91683531D01*
X10680983Y-91778769D01*
X10204793Y-91874007D01*
X11109555Y-92207340D02*
X11109555Y-91540674D01*
X11109555Y-91731150D02*
X11157174Y-91635912D01*
X11204793Y-91588293D01*
X11300031Y-91540674D01*
X11395269Y-91540674D01*
X12252412Y-92207340D02*
X11680983Y-92207340D01*
X11966698Y-92207340D02*
X11966698Y-91207340D01*
X11871460Y-91350198D01*
X11776221Y-91445436D01*
X11680983Y-91493055D01*
D14*
X28611711Y-68542030D02*
X28445044Y-68303935D01*
X28325997Y-68542030D02*
X28325997Y-68042030D01*
X28516473Y-68042030D01*
X28564092Y-68065840D01*
X28587901Y-68089649D01*
X28611711Y-68137268D01*
X28611711Y-68208697D01*
X28587901Y-68256316D01*
X28564092Y-68280125D01*
X28516473Y-68303935D01*
X28325997Y-68303935D01*
X29040282Y-68208697D02*
X29040282Y-68542030D01*
X28921235Y-68018220D02*
X28802187Y-68375363D01*
X29111711Y-68375363D01*
X29397425Y-68042030D02*
X29445044Y-68042030D01*
X29492663Y-68065840D01*
X29516473Y-68089649D01*
X29540282Y-68137268D01*
X29564092Y-68232506D01*
X29564092Y-68351554D01*
X29540282Y-68446792D01*
X29516473Y-68494411D01*
X29492663Y-68518220D01*
X29445044Y-68542030D01*
X29397425Y-68542030D01*
X29349806Y-68518220D01*
X29325997Y-68494411D01*
X29302187Y-68446792D01*
X29278378Y-68351554D01*
X29278378Y-68232506D01*
X29302187Y-68137268D01*
X29325997Y-68089649D01*
X29349806Y-68065840D01*
X29397425Y-68042030D01*
X28616791Y-67602230D02*
X28450124Y-67364135D01*
X28331077Y-67602230D02*
X28331077Y-67102230D01*
X28521553Y-67102230D01*
X28569172Y-67126040D01*
X28592981Y-67149849D01*
X28616791Y-67197468D01*
X28616791Y-67268897D01*
X28592981Y-67316516D01*
X28569172Y-67340325D01*
X28521553Y-67364135D01*
X28331077Y-67364135D01*
X28783458Y-67102230D02*
X29092981Y-67102230D01*
X28926315Y-67292706D01*
X28997743Y-67292706D01*
X29045362Y-67316516D01*
X29069172Y-67340325D01*
X29092981Y-67387944D01*
X29092981Y-67506992D01*
X29069172Y-67554611D01*
X29045362Y-67578420D01*
X28997743Y-67602230D01*
X28854886Y-67602230D01*
X28807267Y-67578420D01*
X28783458Y-67554611D01*
X29331077Y-67602230D02*
X29426315Y-67602230D01*
X29473934Y-67578420D01*
X29497743Y-67554611D01*
X29545362Y-67483182D01*
X29569172Y-67387944D01*
X29569172Y-67197468D01*
X29545362Y-67149849D01*
X29521553Y-67126040D01*
X29473934Y-67102230D01*
X29378696Y-67102230D01*
X29331077Y-67126040D01*
X29307267Y-67149849D01*
X29283458Y-67197468D01*
X29283458Y-67316516D01*
X29307267Y-67364135D01*
X29331077Y-67387944D01*
X29378696Y-67411754D01*
X29473934Y-67411754D01*
X29521553Y-67387944D01*
X29545362Y-67364135D01*
X29569172Y-67316516D01*
X46660951Y-67226310D02*
X46494284Y-66988215D01*
X46375237Y-67226310D02*
X46375237Y-66726310D01*
X46565713Y-66726310D01*
X46613332Y-66750120D01*
X46637141Y-66773929D01*
X46660951Y-66821548D01*
X46660951Y-66892977D01*
X46637141Y-66940596D01*
X46613332Y-66964405D01*
X46565713Y-66988215D01*
X46375237Y-66988215D01*
X46827618Y-66726310D02*
X47137141Y-66726310D01*
X46970475Y-66916786D01*
X47041903Y-66916786D01*
X47089522Y-66940596D01*
X47113332Y-66964405D01*
X47137141Y-67012024D01*
X47137141Y-67131072D01*
X47113332Y-67178691D01*
X47089522Y-67202500D01*
X47041903Y-67226310D01*
X46899046Y-67226310D01*
X46851427Y-67202500D01*
X46827618Y-67178691D01*
X47422856Y-66940596D02*
X47375237Y-66916786D01*
X47351427Y-66892977D01*
X47327618Y-66845358D01*
X47327618Y-66821548D01*
X47351427Y-66773929D01*
X47375237Y-66750120D01*
X47422856Y-66726310D01*
X47518094Y-66726310D01*
X47565713Y-66750120D01*
X47589522Y-66773929D01*
X47613332Y-66821548D01*
X47613332Y-66845358D01*
X47589522Y-66892977D01*
X47565713Y-66916786D01*
X47518094Y-66940596D01*
X47422856Y-66940596D01*
X47375237Y-66964405D01*
X47351427Y-66988215D01*
X47327618Y-67035834D01*
X47327618Y-67131072D01*
X47351427Y-67178691D01*
X47375237Y-67202500D01*
X47422856Y-67226310D01*
X47518094Y-67226310D01*
X47565713Y-67202500D01*
X47589522Y-67178691D01*
X47613332Y-67131072D01*
X47613332Y-67035834D01*
X47589522Y-66988215D01*
X47565713Y-66964405D01*
X47518094Y-66940596D01*
X49439711Y-77884150D02*
X49273044Y-77646055D01*
X49153997Y-77884150D02*
X49153997Y-77384150D01*
X49344473Y-77384150D01*
X49392092Y-77407960D01*
X49415901Y-77431769D01*
X49439711Y-77479388D01*
X49439711Y-77550817D01*
X49415901Y-77598436D01*
X49392092Y-77622245D01*
X49344473Y-77646055D01*
X49153997Y-77646055D01*
X49606378Y-77384150D02*
X49915901Y-77384150D01*
X49749235Y-77574626D01*
X49820663Y-77574626D01*
X49868282Y-77598436D01*
X49892092Y-77622245D01*
X49915901Y-77669864D01*
X49915901Y-77788912D01*
X49892092Y-77836531D01*
X49868282Y-77860340D01*
X49820663Y-77884150D01*
X49677806Y-77884150D01*
X49630187Y-77860340D01*
X49606378Y-77836531D01*
X50082568Y-77384150D02*
X50392092Y-77384150D01*
X50225425Y-77574626D01*
X50296854Y-77574626D01*
X50344473Y-77598436D01*
X50368282Y-77622245D01*
X50392092Y-77669864D01*
X50392092Y-77788912D01*
X50368282Y-77836531D01*
X50344473Y-77860340D01*
X50296854Y-77884150D01*
X50153997Y-77884150D01*
X50106378Y-77860340D01*
X50082568Y-77836531D01*
X44552751Y-71671310D02*
X44386084Y-71433215D01*
X44267037Y-71671310D02*
X44267037Y-71171310D01*
X44457513Y-71171310D01*
X44505132Y-71195120D01*
X44528941Y-71218929D01*
X44552751Y-71266548D01*
X44552751Y-71337977D01*
X44528941Y-71385596D01*
X44505132Y-71409405D01*
X44457513Y-71433215D01*
X44267037Y-71433215D01*
X44743227Y-71218929D02*
X44767037Y-71195120D01*
X44814656Y-71171310D01*
X44933703Y-71171310D01*
X44981322Y-71195120D01*
X45005132Y-71218929D01*
X45028941Y-71266548D01*
X45028941Y-71314167D01*
X45005132Y-71385596D01*
X44719418Y-71671310D01*
X45028941Y-71671310D01*
X45267037Y-71671310D02*
X45362275Y-71671310D01*
X45409894Y-71647500D01*
X45433703Y-71623691D01*
X45481322Y-71552262D01*
X45505132Y-71457024D01*
X45505132Y-71266548D01*
X45481322Y-71218929D01*
X45457513Y-71195120D01*
X45409894Y-71171310D01*
X45314656Y-71171310D01*
X45267037Y-71195120D01*
X45243227Y-71218929D01*
X45219418Y-71266548D01*
X45219418Y-71385596D01*
X45243227Y-71433215D01*
X45267037Y-71457024D01*
X45314656Y-71480834D01*
X45409894Y-71480834D01*
X45457513Y-71457024D01*
X45481322Y-71433215D01*
X45505132Y-71385596D01*
X6361311Y-3355470D02*
X6194644Y-3117375D01*
X6075597Y-3355470D02*
X6075597Y-2855470D01*
X6266073Y-2855470D01*
X6313692Y-2879280D01*
X6337501Y-2903089D01*
X6361311Y-2950708D01*
X6361311Y-3022137D01*
X6337501Y-3069756D01*
X6313692Y-3093565D01*
X6266073Y-3117375D01*
X6075597Y-3117375D01*
X6551787Y-2903089D02*
X6575597Y-2879280D01*
X6623216Y-2855470D01*
X6742263Y-2855470D01*
X6789882Y-2879280D01*
X6813692Y-2903089D01*
X6837501Y-2950708D01*
X6837501Y-2998327D01*
X6813692Y-3069756D01*
X6527978Y-3355470D01*
X6837501Y-3355470D01*
X7123216Y-3069756D02*
X7075597Y-3045946D01*
X7051787Y-3022137D01*
X7027978Y-2974518D01*
X7027978Y-2950708D01*
X7051787Y-2903089D01*
X7075597Y-2879280D01*
X7123216Y-2855470D01*
X7218454Y-2855470D01*
X7266073Y-2879280D01*
X7289882Y-2903089D01*
X7313692Y-2950708D01*
X7313692Y-2974518D01*
X7289882Y-3022137D01*
X7266073Y-3045946D01*
X7218454Y-3069756D01*
X7123216Y-3069756D01*
X7075597Y-3093565D01*
X7051787Y-3117375D01*
X7027978Y-3164994D01*
X7027978Y-3260232D01*
X7051787Y-3307851D01*
X7075597Y-3331660D01*
X7123216Y-3355470D01*
X7218454Y-3355470D01*
X7266073Y-3331660D01*
X7289882Y-3307851D01*
X7313692Y-3260232D01*
X7313692Y-3164994D01*
X7289882Y-3117375D01*
X7266073Y-3093565D01*
X7218454Y-3069756D01*
D11*
X8383496Y-3873580D02*
X8383496Y-2873580D01*
X8764448Y-2873580D01*
X8859686Y-2921200D01*
X8907305Y-2968819D01*
X8954924Y-3064057D01*
X8954924Y-3206914D01*
X8907305Y-3302152D01*
X8859686Y-3349771D01*
X8764448Y-3397390D01*
X8383496Y-3397390D01*
X9288258Y-2873580D02*
X9526353Y-3873580D01*
X9716829Y-3159295D01*
X9907305Y-3873580D01*
X10145400Y-2873580D01*
X11097781Y-3873580D02*
X10764448Y-3397390D01*
X10526353Y-3873580D02*
X10526353Y-2873580D01*
X10907305Y-2873580D01*
X11002543Y-2921200D01*
X11050162Y-2968819D01*
X11097781Y-3064057D01*
X11097781Y-3206914D01*
X11050162Y-3302152D01*
X11002543Y-3349771D01*
X10907305Y-3397390D01*
X10526353Y-3397390D01*
X12050162Y-3873580D02*
X11478734Y-3873580D01*
X11764448Y-3873580D02*
X11764448Y-2873580D01*
X11669210Y-3016438D01*
X11573972Y-3111676D01*
X11478734Y-3159295D01*
X38751284Y-76469500D02*
X38751284Y-75469500D01*
X39132237Y-75469500D01*
X39227475Y-75517120D01*
X39275094Y-75564739D01*
X39322713Y-75659977D01*
X39322713Y-75802834D01*
X39275094Y-75898072D01*
X39227475Y-75945691D01*
X39132237Y-75993310D01*
X38751284Y-75993310D01*
X40179856Y-75802834D02*
X40179856Y-76469500D01*
X39941760Y-75421881D02*
X39703665Y-76136167D01*
X40322713Y-76136167D01*
X38751284Y-74691500D02*
X38751284Y-73691500D01*
X39132237Y-73691500D01*
X39227475Y-73739120D01*
X39275094Y-73786739D01*
X39322713Y-73881977D01*
X39322713Y-74024834D01*
X39275094Y-74120072D01*
X39227475Y-74167691D01*
X39132237Y-74215310D01*
X38751284Y-74215310D01*
X39656046Y-73691500D02*
X40275094Y-73691500D01*
X39941760Y-74072453D01*
X40084618Y-74072453D01*
X40179856Y-74120072D01*
X40227475Y-74167691D01*
X40275094Y-74262929D01*
X40275094Y-74501024D01*
X40227475Y-74596262D01*
X40179856Y-74643881D01*
X40084618Y-74691500D01*
X39798903Y-74691500D01*
X39703665Y-74643881D01*
X39656046Y-74596262D01*
X47133284Y-76469500D02*
X47133284Y-75469500D01*
X47514237Y-75469500D01*
X47609475Y-75517120D01*
X47657094Y-75564739D01*
X47704713Y-75659977D01*
X47704713Y-75802834D01*
X47657094Y-75898072D01*
X47609475Y-75945691D01*
X47514237Y-75993310D01*
X47133284Y-75993310D01*
X48085665Y-75564739D02*
X48133284Y-75517120D01*
X48228522Y-75469500D01*
X48466618Y-75469500D01*
X48561856Y-75517120D01*
X48609475Y-75564739D01*
X48657094Y-75659977D01*
X48657094Y-75755215D01*
X48609475Y-75898072D01*
X48038046Y-76469500D01*
X48657094Y-76469500D01*
X47133284Y-74691500D02*
X47133284Y-73691500D01*
X47514237Y-73691500D01*
X47609475Y-73739120D01*
X47657094Y-73786739D01*
X47704713Y-73881977D01*
X47704713Y-74024834D01*
X47657094Y-74120072D01*
X47609475Y-74167691D01*
X47514237Y-74215310D01*
X47133284Y-74215310D01*
X48657094Y-74691500D02*
X48085665Y-74691500D01*
X48371380Y-74691500D02*
X48371380Y-73691500D01*
X48276141Y-73834358D01*
X48180903Y-73929596D01*
X48085665Y-73977215D01*
X42958046Y-68087358D02*
X42958046Y-67611167D01*
X43243760Y-68182596D02*
X42243760Y-67849262D01*
X43243760Y-67515929D01*
X43148522Y-66611167D02*
X43196141Y-66658786D01*
X43243760Y-66801643D01*
X43243760Y-66896881D01*
X43196141Y-67039739D01*
X43100903Y-67134977D01*
X43005665Y-67182596D01*
X42815189Y-67230215D01*
X42672332Y-67230215D01*
X42481856Y-67182596D01*
X42386618Y-67134977D01*
X42291380Y-67039739D01*
X42243760Y-66896881D01*
X42243760Y-66801643D01*
X42291380Y-66658786D01*
X42338999Y-66611167D01*
X42243760Y-66325453D02*
X42243760Y-65754024D01*
X43243760Y-66039739D02*
X42243760Y-66039739D01*
X43243760Y-64896881D02*
X43243760Y-65468310D01*
X43243760Y-65182596D02*
X42243760Y-65182596D01*
X42386618Y-65277834D01*
X42481856Y-65373072D01*
X42529475Y-65468310D01*
X23449375Y-38245800D02*
X23449375Y-39055324D01*
X23496994Y-39150562D01*
X23544613Y-39198181D01*
X23639851Y-39245800D01*
X23830327Y-39245800D01*
X23925565Y-39198181D01*
X23973184Y-39150562D01*
X24020803Y-39055324D01*
X24020803Y-38245800D01*
X24925565Y-38579134D02*
X24925565Y-39245800D01*
X24687470Y-38198181D02*
X24449375Y-38912467D01*
X25068422Y-38912467D01*
D14*
X54846991Y-62272028D02*
X54870800Y-62295838D01*
X54894610Y-62367266D01*
X54894610Y-62414885D01*
X54870800Y-62486314D01*
X54823181Y-62533933D01*
X54775562Y-62557742D01*
X54680324Y-62581552D01*
X54608896Y-62581552D01*
X54513658Y-62557742D01*
X54466039Y-62533933D01*
X54418420Y-62486314D01*
X54394610Y-62414885D01*
X54394610Y-62367266D01*
X54418420Y-62295838D01*
X54442229Y-62272028D01*
X54394610Y-62105361D02*
X54394610Y-61795838D01*
X54585086Y-61962504D01*
X54585086Y-61891076D01*
X54608896Y-61843457D01*
X54632705Y-61819647D01*
X54680324Y-61795838D01*
X54799372Y-61795838D01*
X54846991Y-61819647D01*
X54870800Y-61843457D01*
X54894610Y-61891076D01*
X54894610Y-62033933D01*
X54870800Y-62081552D01*
X54846991Y-62105361D01*
X54561277Y-61367266D02*
X54894610Y-61367266D01*
X54370800Y-61486314D02*
X54727943Y-61605361D01*
X54727943Y-61295838D01*
X12655431Y-61931051D02*
X12631621Y-61954860D01*
X12560193Y-61978670D01*
X12512574Y-61978670D01*
X12441145Y-61954860D01*
X12393526Y-61907241D01*
X12369717Y-61859622D01*
X12345907Y-61764384D01*
X12345907Y-61692956D01*
X12369717Y-61597718D01*
X12393526Y-61550099D01*
X12441145Y-61502480D01*
X12512574Y-61478670D01*
X12560193Y-61478670D01*
X12631621Y-61502480D01*
X12655431Y-61526289D01*
X13107812Y-61478670D02*
X12869717Y-61478670D01*
X12845907Y-61716765D01*
X12869717Y-61692956D01*
X12917336Y-61669146D01*
X13036383Y-61669146D01*
X13084002Y-61692956D01*
X13107812Y-61716765D01*
X13131621Y-61764384D01*
X13131621Y-61883432D01*
X13107812Y-61931051D01*
X13084002Y-61954860D01*
X13036383Y-61978670D01*
X12917336Y-61978670D01*
X12869717Y-61954860D01*
X12845907Y-61931051D01*
X13560193Y-61645337D02*
X13560193Y-61978670D01*
X13441145Y-61454860D02*
X13322098Y-61812003D01*
X13631621Y-61812003D01*
X28012271Y-79187811D02*
X27988461Y-79211620D01*
X27917033Y-79235430D01*
X27869414Y-79235430D01*
X27797985Y-79211620D01*
X27750366Y-79164001D01*
X27726557Y-79116382D01*
X27702747Y-79021144D01*
X27702747Y-78949716D01*
X27726557Y-78854478D01*
X27750366Y-78806859D01*
X27797985Y-78759240D01*
X27869414Y-78735430D01*
X27917033Y-78735430D01*
X27988461Y-78759240D01*
X28012271Y-78783049D01*
X28464652Y-78735430D02*
X28226557Y-78735430D01*
X28202747Y-78973525D01*
X28226557Y-78949716D01*
X28274176Y-78925906D01*
X28393223Y-78925906D01*
X28440842Y-78949716D01*
X28464652Y-78973525D01*
X28488461Y-79021144D01*
X28488461Y-79140192D01*
X28464652Y-79187811D01*
X28440842Y-79211620D01*
X28393223Y-79235430D01*
X28274176Y-79235430D01*
X28226557Y-79211620D01*
X28202747Y-79187811D01*
X28655128Y-78735430D02*
X28964652Y-78735430D01*
X28797985Y-78925906D01*
X28869414Y-78925906D01*
X28917033Y-78949716D01*
X28940842Y-78973525D01*
X28964652Y-79021144D01*
X28964652Y-79140192D01*
X28940842Y-79187811D01*
X28917033Y-79211620D01*
X28869414Y-79235430D01*
X28726557Y-79235430D01*
X28678938Y-79211620D01*
X28655128Y-79187811D01*
X28032591Y-82052931D02*
X28008781Y-82076740D01*
X27937353Y-82100550D01*
X27889734Y-82100550D01*
X27818305Y-82076740D01*
X27770686Y-82029121D01*
X27746877Y-81981502D01*
X27723067Y-81886264D01*
X27723067Y-81814836D01*
X27746877Y-81719598D01*
X27770686Y-81671979D01*
X27818305Y-81624360D01*
X27889734Y-81600550D01*
X27937353Y-81600550D01*
X28008781Y-81624360D01*
X28032591Y-81648169D01*
X28484972Y-81600550D02*
X28246877Y-81600550D01*
X28223067Y-81838645D01*
X28246877Y-81814836D01*
X28294496Y-81791026D01*
X28413543Y-81791026D01*
X28461162Y-81814836D01*
X28484972Y-81838645D01*
X28508781Y-81886264D01*
X28508781Y-82005312D01*
X28484972Y-82052931D01*
X28461162Y-82076740D01*
X28413543Y-82100550D01*
X28294496Y-82100550D01*
X28246877Y-82076740D01*
X28223067Y-82052931D01*
X28699258Y-81648169D02*
X28723067Y-81624360D01*
X28770686Y-81600550D01*
X28889734Y-81600550D01*
X28937353Y-81624360D01*
X28961162Y-81648169D01*
X28984972Y-81695788D01*
X28984972Y-81743407D01*
X28961162Y-81814836D01*
X28675448Y-82100550D01*
X28984972Y-82100550D01*
X28256111Y-76541131D02*
X28232301Y-76564940D01*
X28160873Y-76588750D01*
X28113254Y-76588750D01*
X28041825Y-76564940D01*
X27994206Y-76517321D01*
X27970397Y-76469702D01*
X27946587Y-76374464D01*
X27946587Y-76303036D01*
X27970397Y-76207798D01*
X27994206Y-76160179D01*
X28041825Y-76112560D01*
X28113254Y-76088750D01*
X28160873Y-76088750D01*
X28232301Y-76112560D01*
X28256111Y-76136369D01*
X28708492Y-76088750D02*
X28470397Y-76088750D01*
X28446587Y-76326845D01*
X28470397Y-76303036D01*
X28518016Y-76279226D01*
X28637063Y-76279226D01*
X28684682Y-76303036D01*
X28708492Y-76326845D01*
X28732301Y-76374464D01*
X28732301Y-76493512D01*
X28708492Y-76541131D01*
X28684682Y-76564940D01*
X28637063Y-76588750D01*
X28518016Y-76588750D01*
X28470397Y-76564940D01*
X28446587Y-76541131D01*
X29208492Y-76588750D02*
X28922778Y-76588750D01*
X29065635Y-76588750D02*
X29065635Y-76088750D01*
X29018016Y-76160179D01*
X28970397Y-76207798D01*
X28922778Y-76231607D01*
X15373697Y-64951728D02*
X15397506Y-64975538D01*
X15421316Y-65046966D01*
X15421316Y-65094585D01*
X15397506Y-65166014D01*
X15349887Y-65213633D01*
X15302268Y-65237442D01*
X15207030Y-65261252D01*
X15135602Y-65261252D01*
X15040364Y-65237442D01*
X14992745Y-65213633D01*
X14945126Y-65166014D01*
X14921316Y-65094585D01*
X14921316Y-65046966D01*
X14945126Y-64975538D01*
X14968935Y-64951728D01*
X14921316Y-64499347D02*
X14921316Y-64737442D01*
X15159411Y-64761252D01*
X15135602Y-64737442D01*
X15111792Y-64689823D01*
X15111792Y-64570776D01*
X15135602Y-64523157D01*
X15159411Y-64499347D01*
X15207030Y-64475538D01*
X15326078Y-64475538D01*
X15373697Y-64499347D01*
X15397506Y-64523157D01*
X15421316Y-64570776D01*
X15421316Y-64689823D01*
X15397506Y-64737442D01*
X15373697Y-64761252D01*
X14921316Y-64166014D02*
X14921316Y-64118395D01*
X14945126Y-64070776D01*
X14968935Y-64046966D01*
X15016554Y-64023157D01*
X15111792Y-63999347D01*
X15230840Y-63999347D01*
X15326078Y-64023157D01*
X15373697Y-64046966D01*
X15397506Y-64070776D01*
X15421316Y-64118395D01*
X15421316Y-64166014D01*
X15397506Y-64213633D01*
X15373697Y-64237442D01*
X15326078Y-64261252D01*
X15230840Y-64285061D01*
X15111792Y-64285061D01*
X15016554Y-64261252D01*
X14968935Y-64237442D01*
X14945126Y-64213633D01*
X14921316Y-64166014D01*
X20287751Y-77887948D02*
X20311560Y-77911758D01*
X20335370Y-77983186D01*
X20335370Y-78030805D01*
X20311560Y-78102234D01*
X20263941Y-78149853D01*
X20216322Y-78173662D01*
X20121084Y-78197472D01*
X20049656Y-78197472D01*
X19954418Y-78173662D01*
X19906799Y-78149853D01*
X19859180Y-78102234D01*
X19835370Y-78030805D01*
X19835370Y-77983186D01*
X19859180Y-77911758D01*
X19882989Y-77887948D01*
X20002037Y-77459377D02*
X20335370Y-77459377D01*
X19811560Y-77578424D02*
X20168703Y-77697472D01*
X20168703Y-77387948D01*
X20335370Y-77173662D02*
X20335370Y-77078424D01*
X20311560Y-77030805D01*
X20287751Y-77006996D01*
X20216322Y-76959377D01*
X20121084Y-76935567D01*
X19930608Y-76935567D01*
X19882989Y-76959377D01*
X19859180Y-76983186D01*
X19835370Y-77030805D01*
X19835370Y-77126043D01*
X19859180Y-77173662D01*
X19882989Y-77197472D01*
X19930608Y-77221281D01*
X20049656Y-77221281D01*
X20097275Y-77197472D01*
X20121084Y-77173662D01*
X20144894Y-77126043D01*
X20144894Y-77030805D01*
X20121084Y-76983186D01*
X20097275Y-76959377D01*
X20049656Y-76935567D01*
X14743311Y-77577451D02*
X14719501Y-77601260D01*
X14648073Y-77625070D01*
X14600454Y-77625070D01*
X14529025Y-77601260D01*
X14481406Y-77553641D01*
X14457597Y-77506022D01*
X14433787Y-77410784D01*
X14433787Y-77339356D01*
X14457597Y-77244118D01*
X14481406Y-77196499D01*
X14529025Y-77148880D01*
X14600454Y-77125070D01*
X14648073Y-77125070D01*
X14719501Y-77148880D01*
X14743311Y-77172689D01*
X15171882Y-77291737D02*
X15171882Y-77625070D01*
X15052835Y-77101260D02*
X14933787Y-77458403D01*
X15243311Y-77458403D01*
X15505216Y-77339356D02*
X15457597Y-77315546D01*
X15433787Y-77291737D01*
X15409978Y-77244118D01*
X15409978Y-77220308D01*
X15433787Y-77172689D01*
X15457597Y-77148880D01*
X15505216Y-77125070D01*
X15600454Y-77125070D01*
X15648073Y-77148880D01*
X15671882Y-77172689D01*
X15695692Y-77220308D01*
X15695692Y-77244118D01*
X15671882Y-77291737D01*
X15648073Y-77315546D01*
X15600454Y-77339356D01*
X15505216Y-77339356D01*
X15457597Y-77363165D01*
X15433787Y-77386975D01*
X15409978Y-77434594D01*
X15409978Y-77529832D01*
X15433787Y-77577451D01*
X15457597Y-77601260D01*
X15505216Y-77625070D01*
X15600454Y-77625070D01*
X15648073Y-77601260D01*
X15671882Y-77577451D01*
X15695692Y-77529832D01*
X15695692Y-77434594D01*
X15671882Y-77386975D01*
X15648073Y-77363165D01*
X15600454Y-77339356D01*
X10915391Y-70333371D02*
X10891581Y-70357180D01*
X10820153Y-70380990D01*
X10772534Y-70380990D01*
X10701105Y-70357180D01*
X10653486Y-70309561D01*
X10629677Y-70261942D01*
X10605867Y-70166704D01*
X10605867Y-70095276D01*
X10629677Y-70000038D01*
X10653486Y-69952419D01*
X10701105Y-69904800D01*
X10772534Y-69880990D01*
X10820153Y-69880990D01*
X10891581Y-69904800D01*
X10915391Y-69928609D01*
X11343962Y-70047657D02*
X11343962Y-70380990D01*
X11224915Y-69857180D02*
X11105867Y-70214323D01*
X11415391Y-70214323D01*
X11558248Y-69880990D02*
X11891581Y-69880990D01*
X11677296Y-70380990D01*
X29734391Y-77069451D02*
X29710581Y-77093260D01*
X29639153Y-77117070D01*
X29591534Y-77117070D01*
X29520105Y-77093260D01*
X29472486Y-77045641D01*
X29448677Y-76998022D01*
X29424867Y-76902784D01*
X29424867Y-76831356D01*
X29448677Y-76736118D01*
X29472486Y-76688499D01*
X29520105Y-76640880D01*
X29591534Y-76617070D01*
X29639153Y-76617070D01*
X29710581Y-76640880D01*
X29734391Y-76664689D01*
X30162962Y-76783737D02*
X30162962Y-77117070D01*
X30043915Y-76593260D02*
X29924867Y-76950403D01*
X30234391Y-76950403D01*
X30639153Y-76617070D02*
X30543915Y-76617070D01*
X30496296Y-76640880D01*
X30472486Y-76664689D01*
X30424867Y-76736118D01*
X30401058Y-76831356D01*
X30401058Y-77021832D01*
X30424867Y-77069451D01*
X30448677Y-77093260D01*
X30496296Y-77117070D01*
X30591534Y-77117070D01*
X30639153Y-77093260D01*
X30662962Y-77069451D01*
X30686772Y-77021832D01*
X30686772Y-76902784D01*
X30662962Y-76855165D01*
X30639153Y-76831356D01*
X30591534Y-76807546D01*
X30496296Y-76807546D01*
X30448677Y-76831356D01*
X30424867Y-76855165D01*
X30401058Y-76902784D01*
X11009511Y-74244971D02*
X10985701Y-74268780D01*
X10914273Y-74292590D01*
X10866654Y-74292590D01*
X10795225Y-74268780D01*
X10747606Y-74221161D01*
X10723797Y-74173542D01*
X10699987Y-74078304D01*
X10699987Y-74006876D01*
X10723797Y-73911638D01*
X10747606Y-73864019D01*
X10795225Y-73816400D01*
X10866654Y-73792590D01*
X10914273Y-73792590D01*
X10985701Y-73816400D01*
X11009511Y-73840209D01*
X11438082Y-73959257D02*
X11438082Y-74292590D01*
X11319035Y-73768780D02*
X11199987Y-74125923D01*
X11509511Y-74125923D01*
X11938082Y-73792590D02*
X11699987Y-73792590D01*
X11676178Y-74030685D01*
X11699987Y-74006876D01*
X11747606Y-73983066D01*
X11866654Y-73983066D01*
X11914273Y-74006876D01*
X11938082Y-74030685D01*
X11961892Y-74078304D01*
X11961892Y-74197352D01*
X11938082Y-74244971D01*
X11914273Y-74268780D01*
X11866654Y-74292590D01*
X11747606Y-74292590D01*
X11699987Y-74268780D01*
X11676178Y-74244971D01*
X10956031Y-72395851D02*
X10932221Y-72419660D01*
X10860793Y-72443470D01*
X10813174Y-72443470D01*
X10741745Y-72419660D01*
X10694126Y-72372041D01*
X10670317Y-72324422D01*
X10646507Y-72229184D01*
X10646507Y-72157756D01*
X10670317Y-72062518D01*
X10694126Y-72014899D01*
X10741745Y-71967280D01*
X10813174Y-71943470D01*
X10860793Y-71943470D01*
X10932221Y-71967280D01*
X10956031Y-71991089D01*
X11384602Y-72110137D02*
X11384602Y-72443470D01*
X11265555Y-71919660D02*
X11146507Y-72276803D01*
X11456031Y-72276803D01*
X11860793Y-72110137D02*
X11860793Y-72443470D01*
X11741745Y-71919660D02*
X11622698Y-72276803D01*
X11932221Y-72276803D01*
X15238231Y-85213308D02*
X15262040Y-85237118D01*
X15285850Y-85308546D01*
X15285850Y-85356165D01*
X15262040Y-85427594D01*
X15214421Y-85475213D01*
X15166802Y-85499022D01*
X15071564Y-85522832D01*
X15000136Y-85522832D01*
X14904898Y-85499022D01*
X14857279Y-85475213D01*
X14809660Y-85427594D01*
X14785850Y-85356165D01*
X14785850Y-85308546D01*
X14809660Y-85237118D01*
X14833469Y-85213308D01*
X14952517Y-84784737D02*
X15285850Y-84784737D01*
X14762040Y-84903784D02*
X15119183Y-85022832D01*
X15119183Y-84713308D01*
X14785850Y-84570451D02*
X14785850Y-84260927D01*
X14976326Y-84427594D01*
X14976326Y-84356165D01*
X15000136Y-84308546D01*
X15023945Y-84284737D01*
X15071564Y-84260927D01*
X15190612Y-84260927D01*
X15238231Y-84284737D01*
X15262040Y-84308546D01*
X15285850Y-84356165D01*
X15285850Y-84499022D01*
X15262040Y-84546641D01*
X15238231Y-84570451D01*
X14311131Y-64900928D02*
X14334940Y-64924738D01*
X14358750Y-64996166D01*
X14358750Y-65043785D01*
X14334940Y-65115214D01*
X14287321Y-65162833D01*
X14239702Y-65186642D01*
X14144464Y-65210452D01*
X14073036Y-65210452D01*
X13977798Y-65186642D01*
X13930179Y-65162833D01*
X13882560Y-65115214D01*
X13858750Y-65043785D01*
X13858750Y-64996166D01*
X13882560Y-64924738D01*
X13906369Y-64900928D01*
X14025417Y-64472357D02*
X14358750Y-64472357D01*
X13834940Y-64591404D02*
X14192083Y-64710452D01*
X14192083Y-64400928D01*
X13906369Y-64234261D02*
X13882560Y-64210452D01*
X13858750Y-64162833D01*
X13858750Y-64043785D01*
X13882560Y-63996166D01*
X13906369Y-63972357D01*
X13953988Y-63948547D01*
X14001607Y-63948547D01*
X14073036Y-63972357D01*
X14358750Y-64258071D01*
X14358750Y-63948547D01*
X25528151Y-67244731D02*
X25504341Y-67268540D01*
X25432913Y-67292350D01*
X25385294Y-67292350D01*
X25313865Y-67268540D01*
X25266246Y-67220921D01*
X25242437Y-67173302D01*
X25218627Y-67078064D01*
X25218627Y-67006636D01*
X25242437Y-66911398D01*
X25266246Y-66863779D01*
X25313865Y-66816160D01*
X25385294Y-66792350D01*
X25432913Y-66792350D01*
X25504341Y-66816160D01*
X25528151Y-66839969D01*
X25956722Y-66959017D02*
X25956722Y-67292350D01*
X25837675Y-66768540D02*
X25718627Y-67125683D01*
X26028151Y-67125683D01*
X26480532Y-67292350D02*
X26194818Y-67292350D01*
X26337675Y-67292350D02*
X26337675Y-66792350D01*
X26290056Y-66863779D01*
X26242437Y-66911398D01*
X26194818Y-66935207D01*
X13302751Y-85243788D02*
X13326560Y-85267598D01*
X13350370Y-85339026D01*
X13350370Y-85386645D01*
X13326560Y-85458074D01*
X13278941Y-85505693D01*
X13231322Y-85529502D01*
X13136084Y-85553312D01*
X13064656Y-85553312D01*
X12969418Y-85529502D01*
X12921799Y-85505693D01*
X12874180Y-85458074D01*
X12850370Y-85386645D01*
X12850370Y-85339026D01*
X12874180Y-85267598D01*
X12897989Y-85243788D01*
X13017037Y-84815217D02*
X13350370Y-84815217D01*
X12826560Y-84934264D02*
X13183703Y-85053312D01*
X13183703Y-84743788D01*
X12850370Y-84458074D02*
X12850370Y-84410455D01*
X12874180Y-84362836D01*
X12897989Y-84339026D01*
X12945608Y-84315217D01*
X13040846Y-84291407D01*
X13159894Y-84291407D01*
X13255132Y-84315217D01*
X13302751Y-84339026D01*
X13326560Y-84362836D01*
X13350370Y-84410455D01*
X13350370Y-84458074D01*
X13326560Y-84505693D01*
X13302751Y-84529502D01*
X13255132Y-84553312D01*
X13159894Y-84577121D01*
X13040846Y-84577121D01*
X12945608Y-84553312D01*
X12897989Y-84529502D01*
X12874180Y-84505693D01*
X12850370Y-84458074D01*
X15794871Y-78735691D02*
X15771061Y-78759500D01*
X15699633Y-78783310D01*
X15652014Y-78783310D01*
X15580585Y-78759500D01*
X15532966Y-78711881D01*
X15509157Y-78664262D01*
X15485347Y-78569024D01*
X15485347Y-78497596D01*
X15509157Y-78402358D01*
X15532966Y-78354739D01*
X15580585Y-78307120D01*
X15652014Y-78283310D01*
X15699633Y-78283310D01*
X15771061Y-78307120D01*
X15794871Y-78330929D01*
X15961538Y-78283310D02*
X16271061Y-78283310D01*
X16104395Y-78473786D01*
X16175823Y-78473786D01*
X16223442Y-78497596D01*
X16247252Y-78521405D01*
X16271061Y-78569024D01*
X16271061Y-78688072D01*
X16247252Y-78735691D01*
X16223442Y-78759500D01*
X16175823Y-78783310D01*
X16032966Y-78783310D01*
X15985347Y-78759500D01*
X15961538Y-78735691D01*
X16699633Y-78283310D02*
X16604395Y-78283310D01*
X16556776Y-78307120D01*
X16532966Y-78330929D01*
X16485347Y-78402358D01*
X16461538Y-78497596D01*
X16461538Y-78688072D01*
X16485347Y-78735691D01*
X16509157Y-78759500D01*
X16556776Y-78783310D01*
X16652014Y-78783310D01*
X16699633Y-78759500D01*
X16723442Y-78735691D01*
X16747252Y-78688072D01*
X16747252Y-78569024D01*
X16723442Y-78521405D01*
X16699633Y-78497596D01*
X16652014Y-78473786D01*
X16556776Y-78473786D01*
X16509157Y-78497596D01*
X16485347Y-78521405D01*
X16461538Y-78569024D01*
X19906751Y-64781548D02*
X19930560Y-64805358D01*
X19954370Y-64876786D01*
X19954370Y-64924405D01*
X19930560Y-64995834D01*
X19882941Y-65043453D01*
X19835322Y-65067262D01*
X19740084Y-65091072D01*
X19668656Y-65091072D01*
X19573418Y-65067262D01*
X19525799Y-65043453D01*
X19478180Y-64995834D01*
X19454370Y-64924405D01*
X19454370Y-64876786D01*
X19478180Y-64805358D01*
X19501989Y-64781548D01*
X19454370Y-64614881D02*
X19454370Y-64305358D01*
X19644846Y-64472024D01*
X19644846Y-64400596D01*
X19668656Y-64352977D01*
X19692465Y-64329167D01*
X19740084Y-64305358D01*
X19859132Y-64305358D01*
X19906751Y-64329167D01*
X19930560Y-64352977D01*
X19954370Y-64400596D01*
X19954370Y-64543453D01*
X19930560Y-64591072D01*
X19906751Y-64614881D01*
X19454370Y-63852977D02*
X19454370Y-64091072D01*
X19692465Y-64114881D01*
X19668656Y-64091072D01*
X19644846Y-64043453D01*
X19644846Y-63924405D01*
X19668656Y-63876786D01*
X19692465Y-63852977D01*
X19740084Y-63829167D01*
X19859132Y-63829167D01*
X19906751Y-63852977D01*
X19930560Y-63876786D01*
X19954370Y-63924405D01*
X19954370Y-64043453D01*
X19930560Y-64091072D01*
X19906751Y-64114881D01*
X56569111Y-62256788D02*
X56592920Y-62280598D01*
X56616730Y-62352026D01*
X56616730Y-62399645D01*
X56592920Y-62471074D01*
X56545301Y-62518693D01*
X56497682Y-62542502D01*
X56402444Y-62566312D01*
X56331016Y-62566312D01*
X56235778Y-62542502D01*
X56188159Y-62518693D01*
X56140540Y-62471074D01*
X56116730Y-62399645D01*
X56116730Y-62352026D01*
X56140540Y-62280598D01*
X56164349Y-62256788D01*
X56116730Y-62090121D02*
X56116730Y-61780598D01*
X56307206Y-61947264D01*
X56307206Y-61875836D01*
X56331016Y-61828217D01*
X56354825Y-61804407D01*
X56402444Y-61780598D01*
X56521492Y-61780598D01*
X56569111Y-61804407D01*
X56592920Y-61828217D01*
X56616730Y-61875836D01*
X56616730Y-62018693D01*
X56592920Y-62066312D01*
X56569111Y-62090121D01*
X56116730Y-61613931D02*
X56116730Y-61304407D01*
X56307206Y-61471074D01*
X56307206Y-61399645D01*
X56331016Y-61352026D01*
X56354825Y-61328217D01*
X56402444Y-61304407D01*
X56521492Y-61304407D01*
X56569111Y-61328217D01*
X56592920Y-61352026D01*
X56616730Y-61399645D01*
X56616730Y-61542502D01*
X56592920Y-61590121D01*
X56569111Y-61613931D01*
X51473871Y-62236468D02*
X51497680Y-62260278D01*
X51521490Y-62331706D01*
X51521490Y-62379325D01*
X51497680Y-62450754D01*
X51450061Y-62498373D01*
X51402442Y-62522182D01*
X51307204Y-62545992D01*
X51235776Y-62545992D01*
X51140538Y-62522182D01*
X51092919Y-62498373D01*
X51045300Y-62450754D01*
X51021490Y-62379325D01*
X51021490Y-62331706D01*
X51045300Y-62260278D01*
X51069109Y-62236468D01*
X51021490Y-62069801D02*
X51021490Y-61760278D01*
X51211966Y-61926944D01*
X51211966Y-61855516D01*
X51235776Y-61807897D01*
X51259585Y-61784087D01*
X51307204Y-61760278D01*
X51426252Y-61760278D01*
X51473871Y-61784087D01*
X51497680Y-61807897D01*
X51521490Y-61855516D01*
X51521490Y-61998373D01*
X51497680Y-62045992D01*
X51473871Y-62069801D01*
X51069109Y-61569801D02*
X51045300Y-61545992D01*
X51021490Y-61498373D01*
X51021490Y-61379325D01*
X51045300Y-61331706D01*
X51069109Y-61307897D01*
X51116728Y-61284087D01*
X51164347Y-61284087D01*
X51235776Y-61307897D01*
X51521490Y-61593611D01*
X51521490Y-61284087D01*
X53175671Y-62261868D02*
X53199480Y-62285678D01*
X53223290Y-62357106D01*
X53223290Y-62404725D01*
X53199480Y-62476154D01*
X53151861Y-62523773D01*
X53104242Y-62547582D01*
X53009004Y-62571392D01*
X52937576Y-62571392D01*
X52842338Y-62547582D01*
X52794719Y-62523773D01*
X52747100Y-62476154D01*
X52723290Y-62404725D01*
X52723290Y-62357106D01*
X52747100Y-62285678D01*
X52770909Y-62261868D01*
X52723290Y-62095201D02*
X52723290Y-61785678D01*
X52913766Y-61952344D01*
X52913766Y-61880916D01*
X52937576Y-61833297D01*
X52961385Y-61809487D01*
X53009004Y-61785678D01*
X53128052Y-61785678D01*
X53175671Y-61809487D01*
X53199480Y-61833297D01*
X53223290Y-61880916D01*
X53223290Y-62023773D01*
X53199480Y-62071392D01*
X53175671Y-62095201D01*
X53223290Y-61309487D02*
X53223290Y-61595201D01*
X53223290Y-61452344D02*
X52723290Y-61452344D01*
X52794719Y-61499963D01*
X52842338Y-61547582D01*
X52866147Y-61595201D01*
X48314111Y-62256788D02*
X48337920Y-62280598D01*
X48361730Y-62352026D01*
X48361730Y-62399645D01*
X48337920Y-62471074D01*
X48290301Y-62518693D01*
X48242682Y-62542502D01*
X48147444Y-62566312D01*
X48076016Y-62566312D01*
X47980778Y-62542502D01*
X47933159Y-62518693D01*
X47885540Y-62471074D01*
X47861730Y-62399645D01*
X47861730Y-62352026D01*
X47885540Y-62280598D01*
X47909349Y-62256788D01*
X47861730Y-62090121D02*
X47861730Y-61780598D01*
X48052206Y-61947264D01*
X48052206Y-61875836D01*
X48076016Y-61828217D01*
X48099825Y-61804407D01*
X48147444Y-61780598D01*
X48266492Y-61780598D01*
X48314111Y-61804407D01*
X48337920Y-61828217D01*
X48361730Y-61875836D01*
X48361730Y-62018693D01*
X48337920Y-62066312D01*
X48314111Y-62090121D01*
X47861730Y-61471074D02*
X47861730Y-61423455D01*
X47885540Y-61375836D01*
X47909349Y-61352026D01*
X47956968Y-61328217D01*
X48052206Y-61304407D01*
X48171254Y-61304407D01*
X48266492Y-61328217D01*
X48314111Y-61352026D01*
X48337920Y-61375836D01*
X48361730Y-61423455D01*
X48361730Y-61471074D01*
X48337920Y-61518693D01*
X48314111Y-61542502D01*
X48266492Y-61566312D01*
X48171254Y-61590121D01*
X48052206Y-61590121D01*
X47956968Y-61566312D01*
X47909349Y-61542502D01*
X47885540Y-61518693D01*
X47861730Y-61471074D01*
X49843191Y-62226308D02*
X49867000Y-62250118D01*
X49890810Y-62321546D01*
X49890810Y-62369165D01*
X49867000Y-62440594D01*
X49819381Y-62488213D01*
X49771762Y-62512022D01*
X49676524Y-62535832D01*
X49605096Y-62535832D01*
X49509858Y-62512022D01*
X49462239Y-62488213D01*
X49414620Y-62440594D01*
X49390810Y-62369165D01*
X49390810Y-62321546D01*
X49414620Y-62250118D01*
X49438429Y-62226308D01*
X49438429Y-62035832D02*
X49414620Y-62012022D01*
X49390810Y-61964403D01*
X49390810Y-61845356D01*
X49414620Y-61797737D01*
X49438429Y-61773927D01*
X49486048Y-61750118D01*
X49533667Y-61750118D01*
X49605096Y-61773927D01*
X49890810Y-62059641D01*
X49890810Y-61750118D01*
X49890810Y-61512022D02*
X49890810Y-61416784D01*
X49867000Y-61369165D01*
X49843191Y-61345356D01*
X49771762Y-61297737D01*
X49676524Y-61273927D01*
X49486048Y-61273927D01*
X49438429Y-61297737D01*
X49414620Y-61321546D01*
X49390810Y-61369165D01*
X49390810Y-61464403D01*
X49414620Y-61512022D01*
X49438429Y-61535832D01*
X49486048Y-61559641D01*
X49605096Y-61559641D01*
X49652715Y-61535832D01*
X49676524Y-61512022D01*
X49700334Y-61464403D01*
X49700334Y-61369165D01*
X49676524Y-61321546D01*
X49652715Y-61297737D01*
X49605096Y-61273927D01*
X38837751Y-34092651D02*
X38813941Y-34116460D01*
X38742513Y-34140270D01*
X38694894Y-34140270D01*
X38623465Y-34116460D01*
X38575846Y-34068841D01*
X38552037Y-34021222D01*
X38528227Y-33925984D01*
X38528227Y-33854556D01*
X38552037Y-33759318D01*
X38575846Y-33711699D01*
X38623465Y-33664080D01*
X38694894Y-33640270D01*
X38742513Y-33640270D01*
X38813941Y-33664080D01*
X38837751Y-33687889D01*
X39028227Y-33687889D02*
X39052037Y-33664080D01*
X39099656Y-33640270D01*
X39218703Y-33640270D01*
X39266322Y-33664080D01*
X39290132Y-33687889D01*
X39313941Y-33735508D01*
X39313941Y-33783127D01*
X39290132Y-33854556D01*
X39004418Y-34140270D01*
X39313941Y-34140270D01*
X39599656Y-33854556D02*
X39552037Y-33830746D01*
X39528227Y-33806937D01*
X39504418Y-33759318D01*
X39504418Y-33735508D01*
X39528227Y-33687889D01*
X39552037Y-33664080D01*
X39599656Y-33640270D01*
X39694894Y-33640270D01*
X39742513Y-33664080D01*
X39766322Y-33687889D01*
X39790132Y-33735508D01*
X39790132Y-33759318D01*
X39766322Y-33806937D01*
X39742513Y-33830746D01*
X39694894Y-33854556D01*
X39599656Y-33854556D01*
X39552037Y-33878365D01*
X39528227Y-33902175D01*
X39504418Y-33949794D01*
X39504418Y-34045032D01*
X39528227Y-34092651D01*
X39552037Y-34116460D01*
X39599656Y-34140270D01*
X39694894Y-34140270D01*
X39742513Y-34116460D01*
X39766322Y-34092651D01*
X39790132Y-34045032D01*
X39790132Y-33949794D01*
X39766322Y-33902175D01*
X39742513Y-33878365D01*
X39694894Y-33854556D01*
X61367551Y-30704291D02*
X61343741Y-30728100D01*
X61272313Y-30751910D01*
X61224694Y-30751910D01*
X61153265Y-30728100D01*
X61105646Y-30680481D01*
X61081837Y-30632862D01*
X61058027Y-30537624D01*
X61058027Y-30466196D01*
X61081837Y-30370958D01*
X61105646Y-30323339D01*
X61153265Y-30275720D01*
X61224694Y-30251910D01*
X61272313Y-30251910D01*
X61343741Y-30275720D01*
X61367551Y-30299529D01*
X61558027Y-30299529D02*
X61581837Y-30275720D01*
X61629456Y-30251910D01*
X61748503Y-30251910D01*
X61796122Y-30275720D01*
X61819932Y-30299529D01*
X61843741Y-30347148D01*
X61843741Y-30394767D01*
X61819932Y-30466196D01*
X61534218Y-30751910D01*
X61843741Y-30751910D01*
X62010408Y-30251910D02*
X62343741Y-30251910D01*
X62129456Y-30751910D01*
X53112551Y-16043411D02*
X53088741Y-16067220D01*
X53017313Y-16091030D01*
X52969694Y-16091030D01*
X52898265Y-16067220D01*
X52850646Y-16019601D01*
X52826837Y-15971982D01*
X52803027Y-15876744D01*
X52803027Y-15805316D01*
X52826837Y-15710078D01*
X52850646Y-15662459D01*
X52898265Y-15614840D01*
X52969694Y-15591030D01*
X53017313Y-15591030D01*
X53088741Y-15614840D01*
X53112551Y-15638649D01*
X53303027Y-15638649D02*
X53326837Y-15614840D01*
X53374456Y-15591030D01*
X53493503Y-15591030D01*
X53541122Y-15614840D01*
X53564932Y-15638649D01*
X53588741Y-15686268D01*
X53588741Y-15733887D01*
X53564932Y-15805316D01*
X53279218Y-16091030D01*
X53588741Y-16091030D01*
X54017313Y-15591030D02*
X53922075Y-15591030D01*
X53874456Y-15614840D01*
X53850646Y-15638649D01*
X53803027Y-15710078D01*
X53779218Y-15805316D01*
X53779218Y-15995792D01*
X53803027Y-16043411D01*
X53826837Y-16067220D01*
X53874456Y-16091030D01*
X53969694Y-16091030D01*
X54017313Y-16067220D01*
X54041122Y-16043411D01*
X54064932Y-15995792D01*
X54064932Y-15876744D01*
X54041122Y-15829125D01*
X54017313Y-15805316D01*
X53969694Y-15781506D01*
X53874456Y-15781506D01*
X53826837Y-15805316D01*
X53803027Y-15829125D01*
X53779218Y-15876744D01*
X64313951Y-30755091D02*
X64290141Y-30778900D01*
X64218713Y-30802710D01*
X64171094Y-30802710D01*
X64099665Y-30778900D01*
X64052046Y-30731281D01*
X64028237Y-30683662D01*
X64004427Y-30588424D01*
X64004427Y-30516996D01*
X64028237Y-30421758D01*
X64052046Y-30374139D01*
X64099665Y-30326520D01*
X64171094Y-30302710D01*
X64218713Y-30302710D01*
X64290141Y-30326520D01*
X64313951Y-30350329D01*
X64504427Y-30350329D02*
X64528237Y-30326520D01*
X64575856Y-30302710D01*
X64694903Y-30302710D01*
X64742522Y-30326520D01*
X64766332Y-30350329D01*
X64790141Y-30397948D01*
X64790141Y-30445567D01*
X64766332Y-30516996D01*
X64480618Y-30802710D01*
X64790141Y-30802710D01*
X65242522Y-30302710D02*
X65004427Y-30302710D01*
X64980618Y-30540805D01*
X65004427Y-30516996D01*
X65052046Y-30493186D01*
X65171094Y-30493186D01*
X65218713Y-30516996D01*
X65242522Y-30540805D01*
X65266332Y-30588424D01*
X65266332Y-30707472D01*
X65242522Y-30755091D01*
X65218713Y-30778900D01*
X65171094Y-30802710D01*
X65052046Y-30802710D01*
X65004427Y-30778900D01*
X64980618Y-30755091D01*
X53051591Y-14712451D02*
X53027781Y-14736260D01*
X52956353Y-14760070D01*
X52908734Y-14760070D01*
X52837305Y-14736260D01*
X52789686Y-14688641D01*
X52765877Y-14641022D01*
X52742067Y-14545784D01*
X52742067Y-14474356D01*
X52765877Y-14379118D01*
X52789686Y-14331499D01*
X52837305Y-14283880D01*
X52908734Y-14260070D01*
X52956353Y-14260070D01*
X53027781Y-14283880D01*
X53051591Y-14307689D01*
X53242067Y-14307689D02*
X53265877Y-14283880D01*
X53313496Y-14260070D01*
X53432543Y-14260070D01*
X53480162Y-14283880D01*
X53503972Y-14307689D01*
X53527781Y-14355308D01*
X53527781Y-14402927D01*
X53503972Y-14474356D01*
X53218258Y-14760070D01*
X53527781Y-14760070D01*
X53956353Y-14426737D02*
X53956353Y-14760070D01*
X53837305Y-14236260D02*
X53718258Y-14593403D01*
X54027781Y-14593403D01*
X57783611Y-24074891D02*
X57759801Y-24098700D01*
X57688373Y-24122510D01*
X57640754Y-24122510D01*
X57569325Y-24098700D01*
X57521706Y-24051081D01*
X57497897Y-24003462D01*
X57474087Y-23908224D01*
X57474087Y-23836796D01*
X57497897Y-23741558D01*
X57521706Y-23693939D01*
X57569325Y-23646320D01*
X57640754Y-23622510D01*
X57688373Y-23622510D01*
X57759801Y-23646320D01*
X57783611Y-23670129D01*
X57974087Y-23670129D02*
X57997897Y-23646320D01*
X58045516Y-23622510D01*
X58164563Y-23622510D01*
X58212182Y-23646320D01*
X58235992Y-23670129D01*
X58259801Y-23717748D01*
X58259801Y-23765367D01*
X58235992Y-23836796D01*
X57950278Y-24122510D01*
X58259801Y-24122510D01*
X58450278Y-23670129D02*
X58474087Y-23646320D01*
X58521706Y-23622510D01*
X58640754Y-23622510D01*
X58688373Y-23646320D01*
X58712182Y-23670129D01*
X58735992Y-23717748D01*
X58735992Y-23765367D01*
X58712182Y-23836796D01*
X58426468Y-24122510D01*
X58735992Y-24122510D01*
X59104031Y-31299268D02*
X59127840Y-31323078D01*
X59151650Y-31394506D01*
X59151650Y-31442125D01*
X59127840Y-31513554D01*
X59080221Y-31561173D01*
X59032602Y-31584982D01*
X58937364Y-31608792D01*
X58865936Y-31608792D01*
X58770698Y-31584982D01*
X58723079Y-31561173D01*
X58675460Y-31513554D01*
X58651650Y-31442125D01*
X58651650Y-31394506D01*
X58675460Y-31323078D01*
X58699269Y-31299268D01*
X58699269Y-31108792D02*
X58675460Y-31084982D01*
X58651650Y-31037363D01*
X58651650Y-30918316D01*
X58675460Y-30870697D01*
X58699269Y-30846887D01*
X58746888Y-30823078D01*
X58794507Y-30823078D01*
X58865936Y-30846887D01*
X59151650Y-31132601D01*
X59151650Y-30823078D01*
X59151650Y-30346887D02*
X59151650Y-30632601D01*
X59151650Y-30489744D02*
X58651650Y-30489744D01*
X58723079Y-30537363D01*
X58770698Y-30584982D01*
X58794507Y-30632601D01*
X57709951Y-20950691D02*
X57686141Y-20974500D01*
X57614713Y-20998310D01*
X57567094Y-20998310D01*
X57495665Y-20974500D01*
X57448046Y-20926881D01*
X57424237Y-20879262D01*
X57400427Y-20784024D01*
X57400427Y-20712596D01*
X57424237Y-20617358D01*
X57448046Y-20569739D01*
X57495665Y-20522120D01*
X57567094Y-20498310D01*
X57614713Y-20498310D01*
X57686141Y-20522120D01*
X57709951Y-20545929D01*
X57900427Y-20545929D02*
X57924237Y-20522120D01*
X57971856Y-20498310D01*
X58090903Y-20498310D01*
X58138522Y-20522120D01*
X58162332Y-20545929D01*
X58186141Y-20593548D01*
X58186141Y-20641167D01*
X58162332Y-20712596D01*
X57876618Y-20998310D01*
X58186141Y-20998310D01*
X58495665Y-20498310D02*
X58543284Y-20498310D01*
X58590903Y-20522120D01*
X58614713Y-20545929D01*
X58638522Y-20593548D01*
X58662332Y-20688786D01*
X58662332Y-20807834D01*
X58638522Y-20903072D01*
X58614713Y-20950691D01*
X58590903Y-20974500D01*
X58543284Y-20998310D01*
X58495665Y-20998310D01*
X58448046Y-20974500D01*
X58424237Y-20950691D01*
X58400427Y-20903072D01*
X58376618Y-20807834D01*
X58376618Y-20688786D01*
X58400427Y-20593548D01*
X58424237Y-20545929D01*
X58448046Y-20522120D01*
X58495665Y-20498310D01*
X53483391Y-19137131D02*
X53459581Y-19160940D01*
X53388153Y-19184750D01*
X53340534Y-19184750D01*
X53269105Y-19160940D01*
X53221486Y-19113321D01*
X53197677Y-19065702D01*
X53173867Y-18970464D01*
X53173867Y-18899036D01*
X53197677Y-18803798D01*
X53221486Y-18756179D01*
X53269105Y-18708560D01*
X53340534Y-18684750D01*
X53388153Y-18684750D01*
X53459581Y-18708560D01*
X53483391Y-18732369D01*
X53959581Y-19184750D02*
X53673867Y-19184750D01*
X53816724Y-19184750D02*
X53816724Y-18684750D01*
X53769105Y-18756179D01*
X53721486Y-18803798D01*
X53673867Y-18827607D01*
X54197677Y-19184750D02*
X54292915Y-19184750D01*
X54340534Y-19160940D01*
X54364343Y-19137131D01*
X54411962Y-19065702D01*
X54435772Y-18970464D01*
X54435772Y-18779988D01*
X54411962Y-18732369D01*
X54388153Y-18708560D01*
X54340534Y-18684750D01*
X54245296Y-18684750D01*
X54197677Y-18708560D01*
X54173867Y-18732369D01*
X54150058Y-18779988D01*
X54150058Y-18899036D01*
X54173867Y-18946655D01*
X54197677Y-18970464D01*
X54245296Y-18994274D01*
X54340534Y-18994274D01*
X54388153Y-18970464D01*
X54411962Y-18946655D01*
X54435772Y-18899036D01*
X58217951Y-19121891D02*
X58194141Y-19145700D01*
X58122713Y-19169510D01*
X58075094Y-19169510D01*
X58003665Y-19145700D01*
X57956046Y-19098081D01*
X57932237Y-19050462D01*
X57908427Y-18955224D01*
X57908427Y-18883796D01*
X57932237Y-18788558D01*
X57956046Y-18740939D01*
X58003665Y-18693320D01*
X58075094Y-18669510D01*
X58122713Y-18669510D01*
X58194141Y-18693320D01*
X58217951Y-18717129D01*
X58694141Y-19169510D02*
X58408427Y-19169510D01*
X58551284Y-19169510D02*
X58551284Y-18669510D01*
X58503665Y-18740939D01*
X58456046Y-18788558D01*
X58408427Y-18812367D01*
X58979856Y-18883796D02*
X58932237Y-18859986D01*
X58908427Y-18836177D01*
X58884618Y-18788558D01*
X58884618Y-18764748D01*
X58908427Y-18717129D01*
X58932237Y-18693320D01*
X58979856Y-18669510D01*
X59075094Y-18669510D01*
X59122713Y-18693320D01*
X59146522Y-18717129D01*
X59170332Y-18764748D01*
X59170332Y-18788558D01*
X59146522Y-18836177D01*
X59122713Y-18859986D01*
X59075094Y-18883796D01*
X58979856Y-18883796D01*
X58932237Y-18907605D01*
X58908427Y-18931415D01*
X58884618Y-18979034D01*
X58884618Y-19074272D01*
X58908427Y-19121891D01*
X58932237Y-19145700D01*
X58979856Y-19169510D01*
X59075094Y-19169510D01*
X59122713Y-19145700D01*
X59146522Y-19121891D01*
X59170332Y-19074272D01*
X59170332Y-18979034D01*
X59146522Y-18931415D01*
X59122713Y-18907605D01*
X59075094Y-18883796D01*
X56185951Y-19172691D02*
X56162141Y-19196500D01*
X56090713Y-19220310D01*
X56043094Y-19220310D01*
X55971665Y-19196500D01*
X55924046Y-19148881D01*
X55900237Y-19101262D01*
X55876427Y-19006024D01*
X55876427Y-18934596D01*
X55900237Y-18839358D01*
X55924046Y-18791739D01*
X55971665Y-18744120D01*
X56043094Y-18720310D01*
X56090713Y-18720310D01*
X56162141Y-18744120D01*
X56185951Y-18767929D01*
X56662141Y-19220310D02*
X56376427Y-19220310D01*
X56519284Y-19220310D02*
X56519284Y-18720310D01*
X56471665Y-18791739D01*
X56424046Y-18839358D01*
X56376427Y-18863167D01*
X56828808Y-18720310D02*
X57162141Y-18720310D01*
X56947856Y-19220310D01*
X33373831Y-40463588D02*
X33397640Y-40487398D01*
X33421450Y-40558826D01*
X33421450Y-40606445D01*
X33397640Y-40677874D01*
X33350021Y-40725493D01*
X33302402Y-40749302D01*
X33207164Y-40773112D01*
X33135736Y-40773112D01*
X33040498Y-40749302D01*
X32992879Y-40725493D01*
X32945260Y-40677874D01*
X32921450Y-40606445D01*
X32921450Y-40558826D01*
X32945260Y-40487398D01*
X32969069Y-40463588D01*
X33421450Y-39987398D02*
X33421450Y-40273112D01*
X33421450Y-40130255D02*
X32921450Y-40130255D01*
X32992879Y-40177874D01*
X33040498Y-40225493D01*
X33064307Y-40273112D01*
X33088117Y-39558826D02*
X33421450Y-39558826D01*
X32897640Y-39677874D02*
X33254783Y-39796921D01*
X33254783Y-39487398D01*
X34821631Y-40448348D02*
X34845440Y-40472158D01*
X34869250Y-40543586D01*
X34869250Y-40591205D01*
X34845440Y-40662634D01*
X34797821Y-40710253D01*
X34750202Y-40734062D01*
X34654964Y-40757872D01*
X34583536Y-40757872D01*
X34488298Y-40734062D01*
X34440679Y-40710253D01*
X34393060Y-40662634D01*
X34369250Y-40591205D01*
X34369250Y-40543586D01*
X34393060Y-40472158D01*
X34416869Y-40448348D01*
X34869250Y-39972158D02*
X34869250Y-40257872D01*
X34869250Y-40115015D02*
X34369250Y-40115015D01*
X34440679Y-40162634D01*
X34488298Y-40210253D01*
X34512107Y-40257872D01*
X34369250Y-39805491D02*
X34369250Y-39495967D01*
X34559726Y-39662634D01*
X34559726Y-39591205D01*
X34583536Y-39543586D01*
X34607345Y-39519777D01*
X34654964Y-39495967D01*
X34774012Y-39495967D01*
X34821631Y-39519777D01*
X34845440Y-39543586D01*
X34869250Y-39591205D01*
X34869250Y-39734062D01*
X34845440Y-39781681D01*
X34821631Y-39805491D01*
X47889786Y-20026131D02*
X47865977Y-20049940D01*
X47794548Y-20073750D01*
X47746929Y-20073750D01*
X47675500Y-20049940D01*
X47627881Y-20002321D01*
X47604072Y-19954702D01*
X47580262Y-19859464D01*
X47580262Y-19788036D01*
X47604072Y-19692798D01*
X47627881Y-19645179D01*
X47675500Y-19597560D01*
X47746929Y-19573750D01*
X47794548Y-19573750D01*
X47865977Y-19597560D01*
X47889786Y-19621369D01*
X48175500Y-19788036D02*
X48127881Y-19764226D01*
X48104072Y-19740417D01*
X48080262Y-19692798D01*
X48080262Y-19668988D01*
X48104072Y-19621369D01*
X48127881Y-19597560D01*
X48175500Y-19573750D01*
X48270739Y-19573750D01*
X48318358Y-19597560D01*
X48342167Y-19621369D01*
X48365977Y-19668988D01*
X48365977Y-19692798D01*
X48342167Y-19740417D01*
X48318358Y-19764226D01*
X48270739Y-19788036D01*
X48175500Y-19788036D01*
X48127881Y-19811845D01*
X48104072Y-19835655D01*
X48080262Y-19883274D01*
X48080262Y-19978512D01*
X48104072Y-20026131D01*
X48127881Y-20049940D01*
X48175500Y-20073750D01*
X48270739Y-20073750D01*
X48318358Y-20049940D01*
X48342167Y-20026131D01*
X48365977Y-19978512D01*
X48365977Y-19883274D01*
X48342167Y-19835655D01*
X48318358Y-19811845D01*
X48270739Y-19788036D01*
X47938046Y-13351011D02*
X47914237Y-13374820D01*
X47842808Y-13398630D01*
X47795189Y-13398630D01*
X47723760Y-13374820D01*
X47676141Y-13327201D01*
X47652332Y-13279582D01*
X47628522Y-13184344D01*
X47628522Y-13112916D01*
X47652332Y-13017678D01*
X47676141Y-12970059D01*
X47723760Y-12922440D01*
X47795189Y-12898630D01*
X47842808Y-12898630D01*
X47914237Y-12922440D01*
X47938046Y-12946249D01*
X48128522Y-12946249D02*
X48152332Y-12922440D01*
X48199951Y-12898630D01*
X48318999Y-12898630D01*
X48366618Y-12922440D01*
X48390427Y-12946249D01*
X48414237Y-12993868D01*
X48414237Y-13041487D01*
X48390427Y-13112916D01*
X48104713Y-13398630D01*
X48414237Y-13398630D01*
X61291351Y-38534470D02*
X61124684Y-38296375D01*
X61005637Y-38534470D02*
X61005637Y-38034470D01*
X61196113Y-38034470D01*
X61243732Y-38058280D01*
X61267541Y-38082089D01*
X61291351Y-38129708D01*
X61291351Y-38201137D01*
X61267541Y-38248756D01*
X61243732Y-38272565D01*
X61196113Y-38296375D01*
X61005637Y-38296375D01*
X61481827Y-38082089D02*
X61505637Y-38058280D01*
X61553256Y-38034470D01*
X61672303Y-38034470D01*
X61719922Y-38058280D01*
X61743732Y-38082089D01*
X61767541Y-38129708D01*
X61767541Y-38177327D01*
X61743732Y-38248756D01*
X61458018Y-38534470D01*
X61767541Y-38534470D01*
X61934208Y-38034470D02*
X62267541Y-38034470D01*
X62053256Y-38534470D01*
X28235791Y-69283710D02*
X28069124Y-69045615D01*
X27950077Y-69283710D02*
X27950077Y-68783710D01*
X28140553Y-68783710D01*
X28188172Y-68807520D01*
X28211981Y-68831329D01*
X28235791Y-68878948D01*
X28235791Y-68950377D01*
X28211981Y-68997996D01*
X28188172Y-69021805D01*
X28140553Y-69045615D01*
X27950077Y-69045615D01*
X28664362Y-68950377D02*
X28664362Y-69283710D01*
X28545315Y-68759900D02*
X28426267Y-69117043D01*
X28735791Y-69117043D01*
X29188172Y-69283710D02*
X28902458Y-69283710D01*
X29045315Y-69283710D02*
X29045315Y-68783710D01*
X28997696Y-68855139D01*
X28950077Y-68902758D01*
X28902458Y-68926567D01*
X28571071Y-71767830D02*
X28404404Y-71529735D01*
X28285357Y-71767830D02*
X28285357Y-71267830D01*
X28475833Y-71267830D01*
X28523452Y-71291640D01*
X28547261Y-71315449D01*
X28571071Y-71363068D01*
X28571071Y-71434497D01*
X28547261Y-71482116D01*
X28523452Y-71505925D01*
X28475833Y-71529735D01*
X28285357Y-71529735D01*
X28737738Y-71267830D02*
X29047261Y-71267830D01*
X28880595Y-71458306D01*
X28952023Y-71458306D01*
X28999642Y-71482116D01*
X29023452Y-71505925D01*
X29047261Y-71553544D01*
X29047261Y-71672592D01*
X29023452Y-71720211D01*
X28999642Y-71744020D01*
X28952023Y-71767830D01*
X28809166Y-71767830D01*
X28761547Y-71744020D01*
X28737738Y-71720211D01*
X29475833Y-71267830D02*
X29380595Y-71267830D01*
X29332976Y-71291640D01*
X29309166Y-71315449D01*
X29261547Y-71386878D01*
X29237738Y-71482116D01*
X29237738Y-71672592D01*
X29261547Y-71720211D01*
X29285357Y-71744020D01*
X29332976Y-71767830D01*
X29428214Y-71767830D01*
X29475833Y-71744020D01*
X29499642Y-71720211D01*
X29523452Y-71672592D01*
X29523452Y-71553544D01*
X29499642Y-71505925D01*
X29475833Y-71482116D01*
X29428214Y-71458306D01*
X29332976Y-71458306D01*
X29285357Y-71482116D01*
X29261547Y-71505925D01*
X29237738Y-71553544D01*
X28540591Y-72865110D02*
X28373924Y-72627015D01*
X28254877Y-72865110D02*
X28254877Y-72365110D01*
X28445353Y-72365110D01*
X28492972Y-72388920D01*
X28516781Y-72412729D01*
X28540591Y-72460348D01*
X28540591Y-72531777D01*
X28516781Y-72579396D01*
X28492972Y-72603205D01*
X28445353Y-72627015D01*
X28254877Y-72627015D01*
X28707258Y-72365110D02*
X29016781Y-72365110D01*
X28850115Y-72555586D01*
X28921543Y-72555586D01*
X28969162Y-72579396D01*
X28992972Y-72603205D01*
X29016781Y-72650824D01*
X29016781Y-72769872D01*
X28992972Y-72817491D01*
X28969162Y-72841300D01*
X28921543Y-72865110D01*
X28778686Y-72865110D01*
X28731067Y-72841300D01*
X28707258Y-72817491D01*
X29469162Y-72365110D02*
X29231067Y-72365110D01*
X29207258Y-72603205D01*
X29231067Y-72579396D01*
X29278686Y-72555586D01*
X29397734Y-72555586D01*
X29445353Y-72579396D01*
X29469162Y-72603205D01*
X29492972Y-72650824D01*
X29492972Y-72769872D01*
X29469162Y-72817491D01*
X29445353Y-72841300D01*
X29397734Y-72865110D01*
X29278686Y-72865110D01*
X29231067Y-72841300D01*
X29207258Y-72817491D01*
X17609950Y-65002528D02*
X17371855Y-65169195D01*
X17609950Y-65288242D02*
X17109950Y-65288242D01*
X17109950Y-65097766D01*
X17133760Y-65050147D01*
X17157569Y-65026338D01*
X17205188Y-65002528D01*
X17276617Y-65002528D01*
X17324236Y-65026338D01*
X17348045Y-65050147D01*
X17371855Y-65097766D01*
X17371855Y-65288242D01*
X17109950Y-64835861D02*
X17109950Y-64526338D01*
X17300426Y-64693004D01*
X17300426Y-64621576D01*
X17324236Y-64573957D01*
X17348045Y-64550147D01*
X17395664Y-64526338D01*
X17514712Y-64526338D01*
X17562331Y-64550147D01*
X17586140Y-64573957D01*
X17609950Y-64621576D01*
X17609950Y-64764433D01*
X17586140Y-64812052D01*
X17562331Y-64835861D01*
X17276617Y-64097766D02*
X17609950Y-64097766D01*
X17086140Y-64216814D02*
X17443283Y-64335861D01*
X17443283Y-64026338D01*
X22093050Y-80128228D02*
X21854955Y-80294895D01*
X22093050Y-80413942D02*
X21593050Y-80413942D01*
X21593050Y-80223466D01*
X21616860Y-80175847D01*
X21640669Y-80152038D01*
X21688288Y-80128228D01*
X21759717Y-80128228D01*
X21807336Y-80152038D01*
X21831145Y-80175847D01*
X21854955Y-80223466D01*
X21854955Y-80413942D01*
X21593050Y-79961561D02*
X21593050Y-79652038D01*
X21783526Y-79818704D01*
X21783526Y-79747276D01*
X21807336Y-79699657D01*
X21831145Y-79675847D01*
X21878764Y-79652038D01*
X21997812Y-79652038D01*
X22045431Y-79675847D01*
X22069240Y-79699657D01*
X22093050Y-79747276D01*
X22093050Y-79890133D01*
X22069240Y-79937752D01*
X22045431Y-79961561D01*
X21640669Y-79461561D02*
X21616860Y-79437752D01*
X21593050Y-79390133D01*
X21593050Y-79271085D01*
X21616860Y-79223466D01*
X21640669Y-79199657D01*
X21688288Y-79175847D01*
X21735907Y-79175847D01*
X21807336Y-79199657D01*
X22093050Y-79485371D01*
X22093050Y-79175847D01*
X44501951Y-68496310D02*
X44335284Y-68258215D01*
X44216237Y-68496310D02*
X44216237Y-67996310D01*
X44406713Y-67996310D01*
X44454332Y-68020120D01*
X44478141Y-68043929D01*
X44501951Y-68091548D01*
X44501951Y-68162977D01*
X44478141Y-68210596D01*
X44454332Y-68234405D01*
X44406713Y-68258215D01*
X44216237Y-68258215D01*
X44668618Y-67996310D02*
X44978141Y-67996310D01*
X44811475Y-68186786D01*
X44882903Y-68186786D01*
X44930522Y-68210596D01*
X44954332Y-68234405D01*
X44978141Y-68282024D01*
X44978141Y-68401072D01*
X44954332Y-68448691D01*
X44930522Y-68472500D01*
X44882903Y-68496310D01*
X44740046Y-68496310D01*
X44692427Y-68472500D01*
X44668618Y-68448691D01*
X45287665Y-67996310D02*
X45335284Y-67996310D01*
X45382903Y-68020120D01*
X45406713Y-68043929D01*
X45430522Y-68091548D01*
X45454332Y-68186786D01*
X45454332Y-68305834D01*
X45430522Y-68401072D01*
X45406713Y-68448691D01*
X45382903Y-68472500D01*
X45335284Y-68496310D01*
X45287665Y-68496310D01*
X45240046Y-68472500D01*
X45216237Y-68448691D01*
X45192427Y-68401072D01*
X45168618Y-68305834D01*
X45168618Y-68186786D01*
X45192427Y-68091548D01*
X45216237Y-68043929D01*
X45240046Y-68020120D01*
X45287665Y-67996310D01*
X12685911Y-63075950D02*
X12519244Y-62837855D01*
X12400197Y-63075950D02*
X12400197Y-62575950D01*
X12590673Y-62575950D01*
X12638292Y-62599760D01*
X12662101Y-62623569D01*
X12685911Y-62671188D01*
X12685911Y-62742617D01*
X12662101Y-62790236D01*
X12638292Y-62814045D01*
X12590673Y-62837855D01*
X12400197Y-62837855D01*
X12876387Y-62623569D02*
X12900197Y-62599760D01*
X12947816Y-62575950D01*
X13066863Y-62575950D01*
X13114482Y-62599760D01*
X13138292Y-62623569D01*
X13162101Y-62671188D01*
X13162101Y-62718807D01*
X13138292Y-62790236D01*
X12852578Y-63075950D01*
X13162101Y-63075950D01*
X13590673Y-62575950D02*
X13495435Y-62575950D01*
X13447816Y-62599760D01*
X13424006Y-62623569D01*
X13376387Y-62694998D01*
X13352578Y-62790236D01*
X13352578Y-62980712D01*
X13376387Y-63028331D01*
X13400197Y-63052140D01*
X13447816Y-63075950D01*
X13543054Y-63075950D01*
X13590673Y-63052140D01*
X13614482Y-63028331D01*
X13638292Y-62980712D01*
X13638292Y-62861664D01*
X13614482Y-62814045D01*
X13590673Y-62790236D01*
X13543054Y-62766426D01*
X13447816Y-62766426D01*
X13400197Y-62790236D01*
X13376387Y-62814045D01*
X13352578Y-62861664D01*
X44501951Y-69715510D02*
X44335284Y-69477415D01*
X44216237Y-69715510D02*
X44216237Y-69215510D01*
X44406713Y-69215510D01*
X44454332Y-69239320D01*
X44478141Y-69263129D01*
X44501951Y-69310748D01*
X44501951Y-69382177D01*
X44478141Y-69429796D01*
X44454332Y-69453605D01*
X44406713Y-69477415D01*
X44216237Y-69477415D01*
X44692427Y-69263129D02*
X44716237Y-69239320D01*
X44763856Y-69215510D01*
X44882903Y-69215510D01*
X44930522Y-69239320D01*
X44954332Y-69263129D01*
X44978141Y-69310748D01*
X44978141Y-69358367D01*
X44954332Y-69429796D01*
X44668618Y-69715510D01*
X44978141Y-69715510D01*
X45144808Y-69215510D02*
X45454332Y-69215510D01*
X45287665Y-69405986D01*
X45359094Y-69405986D01*
X45406713Y-69429796D01*
X45430522Y-69453605D01*
X45454332Y-69501224D01*
X45454332Y-69620272D01*
X45430522Y-69667891D01*
X45406713Y-69691700D01*
X45359094Y-69715510D01*
X45216237Y-69715510D01*
X45168618Y-69691700D01*
X45144808Y-69667891D01*
X42403911Y-40408990D02*
X42237244Y-40170895D01*
X42118197Y-40408990D02*
X42118197Y-39908990D01*
X42308673Y-39908990D01*
X42356292Y-39932800D01*
X42380101Y-39956609D01*
X42403911Y-40004228D01*
X42403911Y-40075657D01*
X42380101Y-40123276D01*
X42356292Y-40147085D01*
X42308673Y-40170895D01*
X42118197Y-40170895D01*
X42594387Y-39956609D02*
X42618197Y-39932800D01*
X42665816Y-39908990D01*
X42784863Y-39908990D01*
X42832482Y-39932800D01*
X42856292Y-39956609D01*
X42880101Y-40004228D01*
X42880101Y-40051847D01*
X42856292Y-40123276D01*
X42570578Y-40408990D01*
X42880101Y-40408990D01*
X43070578Y-39956609D02*
X43094387Y-39932800D01*
X43142006Y-39908990D01*
X43261054Y-39908990D01*
X43308673Y-39932800D01*
X43332482Y-39956609D01*
X43356292Y-40004228D01*
X43356292Y-40051847D01*
X43332482Y-40123276D01*
X43046768Y-40408990D01*
X43356292Y-40408990D01*
X46335831Y-34104710D02*
X46169164Y-33866615D01*
X46050117Y-34104710D02*
X46050117Y-33604710D01*
X46240593Y-33604710D01*
X46288212Y-33628520D01*
X46312021Y-33652329D01*
X46335831Y-33699948D01*
X46335831Y-33771377D01*
X46312021Y-33818996D01*
X46288212Y-33842805D01*
X46240593Y-33866615D01*
X46050117Y-33866615D01*
X46526307Y-33652329D02*
X46550117Y-33628520D01*
X46597736Y-33604710D01*
X46716783Y-33604710D01*
X46764402Y-33628520D01*
X46788212Y-33652329D01*
X46812021Y-33699948D01*
X46812021Y-33747567D01*
X46788212Y-33818996D01*
X46502498Y-34104710D01*
X46812021Y-34104710D01*
X47288212Y-34104710D02*
X47002498Y-34104710D01*
X47145355Y-34104710D02*
X47145355Y-33604710D01*
X47097736Y-33676139D01*
X47050117Y-33723758D01*
X47002498Y-33747567D01*
X55819170Y-32955348D02*
X55581075Y-33122015D01*
X55819170Y-33241062D02*
X55319170Y-33241062D01*
X55319170Y-33050586D01*
X55342980Y-33002967D01*
X55366789Y-32979158D01*
X55414408Y-32955348D01*
X55485837Y-32955348D01*
X55533456Y-32979158D01*
X55557265Y-33002967D01*
X55581075Y-33050586D01*
X55581075Y-33241062D01*
X55366789Y-32764872D02*
X55342980Y-32741062D01*
X55319170Y-32693443D01*
X55319170Y-32574396D01*
X55342980Y-32526777D01*
X55366789Y-32502967D01*
X55414408Y-32479158D01*
X55462027Y-32479158D01*
X55533456Y-32502967D01*
X55819170Y-32788681D01*
X55819170Y-32479158D01*
X55319170Y-32169634D02*
X55319170Y-32122015D01*
X55342980Y-32074396D01*
X55366789Y-32050586D01*
X55414408Y-32026777D01*
X55509646Y-32002967D01*
X55628694Y-32002967D01*
X55723932Y-32026777D01*
X55771551Y-32050586D01*
X55795360Y-32074396D01*
X55819170Y-32122015D01*
X55819170Y-32169634D01*
X55795360Y-32217253D01*
X55771551Y-32241062D01*
X55723932Y-32264872D01*
X55628694Y-32288681D01*
X55509646Y-32288681D01*
X55414408Y-32264872D01*
X55366789Y-32241062D01*
X55342980Y-32217253D01*
X55319170Y-32169634D01*
X42393751Y-42075230D02*
X42227084Y-41837135D01*
X42108037Y-42075230D02*
X42108037Y-41575230D01*
X42298513Y-41575230D01*
X42346132Y-41599040D01*
X42369941Y-41622849D01*
X42393751Y-41670468D01*
X42393751Y-41741897D01*
X42369941Y-41789516D01*
X42346132Y-41813325D01*
X42298513Y-41837135D01*
X42108037Y-41837135D01*
X42869941Y-42075230D02*
X42584227Y-42075230D01*
X42727084Y-42075230D02*
X42727084Y-41575230D01*
X42679465Y-41646659D01*
X42631846Y-41694278D01*
X42584227Y-41718087D01*
X43155656Y-41789516D02*
X43108037Y-41765706D01*
X43084227Y-41741897D01*
X43060418Y-41694278D01*
X43060418Y-41670468D01*
X43084227Y-41622849D01*
X43108037Y-41599040D01*
X43155656Y-41575230D01*
X43250894Y-41575230D01*
X43298513Y-41599040D01*
X43322322Y-41622849D01*
X43346132Y-41670468D01*
X43346132Y-41694278D01*
X43322322Y-41741897D01*
X43298513Y-41765706D01*
X43250894Y-41789516D01*
X43155656Y-41789516D01*
X43108037Y-41813325D01*
X43084227Y-41837135D01*
X43060418Y-41884754D01*
X43060418Y-41979992D01*
X43084227Y-42027611D01*
X43108037Y-42051420D01*
X43155656Y-42075230D01*
X43250894Y-42075230D01*
X43298513Y-42051420D01*
X43322322Y-42027611D01*
X43346132Y-41979992D01*
X43346132Y-41884754D01*
X43322322Y-41837135D01*
X43298513Y-41813325D01*
X43250894Y-41789516D01*
X42383591Y-38864670D02*
X42216924Y-38626575D01*
X42097877Y-38864670D02*
X42097877Y-38364670D01*
X42288353Y-38364670D01*
X42335972Y-38388480D01*
X42359781Y-38412289D01*
X42383591Y-38459908D01*
X42383591Y-38531337D01*
X42359781Y-38578956D01*
X42335972Y-38602765D01*
X42288353Y-38626575D01*
X42097877Y-38626575D01*
X42859781Y-38864670D02*
X42574067Y-38864670D01*
X42716924Y-38864670D02*
X42716924Y-38364670D01*
X42669305Y-38436099D01*
X42621686Y-38483718D01*
X42574067Y-38507527D01*
X43026448Y-38364670D02*
X43359781Y-38364670D01*
X43145496Y-38864670D01*
X47930426Y-18392270D02*
X47763760Y-18154175D01*
X47644712Y-18392270D02*
X47644712Y-17892270D01*
X47835188Y-17892270D01*
X47882807Y-17916080D01*
X47906617Y-17939889D01*
X47930426Y-17987508D01*
X47930426Y-18058937D01*
X47906617Y-18106556D01*
X47882807Y-18130365D01*
X47835188Y-18154175D01*
X47644712Y-18154175D01*
X48216140Y-18106556D02*
X48168521Y-18082746D01*
X48144712Y-18058937D01*
X48120902Y-18011318D01*
X48120902Y-17987508D01*
X48144712Y-17939889D01*
X48168521Y-17916080D01*
X48216140Y-17892270D01*
X48311379Y-17892270D01*
X48358998Y-17916080D01*
X48382807Y-17939889D01*
X48406617Y-17987508D01*
X48406617Y-18011318D01*
X48382807Y-18058937D01*
X48358998Y-18082746D01*
X48311379Y-18106556D01*
X48216140Y-18106556D01*
X48168521Y-18130365D01*
X48144712Y-18154175D01*
X48120902Y-18201794D01*
X48120902Y-18297032D01*
X48144712Y-18344651D01*
X48168521Y-18368460D01*
X48216140Y-18392270D01*
X48311379Y-18392270D01*
X48358998Y-18368460D01*
X48382807Y-18344651D01*
X48406617Y-18297032D01*
X48406617Y-18201794D01*
X48382807Y-18154175D01*
X48358998Y-18130365D01*
X48311379Y-18106556D01*
D11*
X70590160Y-21664253D02*
X71304446Y-21664253D01*
X71447303Y-21711872D01*
X71542541Y-21807110D01*
X71590160Y-21949967D01*
X71590160Y-22045205D01*
X70923494Y-20759491D02*
X71590160Y-20759491D01*
X70542541Y-20997586D02*
X71256827Y-21235681D01*
X71256827Y-20616634D01*
X71593341Y-29890291D02*
X71640960Y-29747434D01*
X71640960Y-29509339D01*
X71593341Y-29414100D01*
X71545722Y-29366481D01*
X71450484Y-29318862D01*
X71355246Y-29318862D01*
X71260008Y-29366481D01*
X71212389Y-29414100D01*
X71164770Y-29509339D01*
X71117151Y-29699815D01*
X71069532Y-29795053D01*
X71021913Y-29842672D01*
X70926675Y-29890291D01*
X70831437Y-29890291D01*
X70736199Y-29842672D01*
X70688580Y-29795053D01*
X70640960Y-29699815D01*
X70640960Y-29461720D01*
X70688580Y-29318862D01*
X71640960Y-28890291D02*
X70640960Y-28890291D01*
X70640960Y-28509339D01*
X70688580Y-28414100D01*
X70736199Y-28366481D01*
X70831437Y-28318862D01*
X70974294Y-28318862D01*
X71069532Y-28366481D01*
X71117151Y-28414100D01*
X71164770Y-28509339D01*
X71164770Y-28890291D01*
X71640960Y-27890291D02*
X70640960Y-27890291D01*
X71640960Y-27318862D02*
X71069532Y-27747434D01*
X70640960Y-27318862D02*
X71212389Y-27890291D01*
X71640960Y-26318862D02*
X71164770Y-26652196D01*
X71640960Y-26890291D02*
X70640960Y-26890291D01*
X70640960Y-26509339D01*
X70688580Y-26414100D01*
X70736199Y-26366481D01*
X70831437Y-26318862D01*
X70974294Y-26318862D01*
X71069532Y-26366481D01*
X71117151Y-26414100D01*
X71164770Y-26509339D01*
X71164770Y-26890291D01*
X71640960Y-25890291D02*
X70640960Y-25890291D01*
X70688580Y-24890291D02*
X70640960Y-24985529D01*
X70640960Y-25128386D01*
X70688580Y-25271243D01*
X70783818Y-25366481D01*
X70879056Y-25414100D01*
X71069532Y-25461720D01*
X71212389Y-25461720D01*
X71402865Y-25414100D01*
X71498103Y-25366481D01*
X71593341Y-25271243D01*
X71640960Y-25128386D01*
X71640960Y-25033148D01*
X71593341Y-24890291D01*
X71545722Y-24842672D01*
X71212389Y-24842672D01*
X71212389Y-25033148D01*
X71640960Y-24414100D02*
X70640960Y-24414100D01*
X71117151Y-24414100D02*
X71117151Y-23842672D01*
X71640960Y-23842672D02*
X70640960Y-23842672D01*
X70640960Y-23509339D02*
X70640960Y-22937910D01*
X71640960Y-23223624D02*
X70640960Y-23223624D01*
X55339857Y-20735146D02*
X54767437Y-21307566D01*
X54733765Y-21408581D01*
X54733765Y-21475925D01*
X54767437Y-21576940D01*
X54902124Y-21711627D01*
X55003139Y-21745299D01*
X55070483Y-21745299D01*
X55171498Y-21711627D01*
X55743918Y-21139207D01*
X56013292Y-21408581D02*
X56451024Y-21846314D01*
X55945948Y-21879986D01*
X56046963Y-21981001D01*
X56080635Y-22082016D01*
X56080635Y-22149360D01*
X56046963Y-22250375D01*
X55878605Y-22418734D01*
X55777589Y-22452406D01*
X55710246Y-22452406D01*
X55609231Y-22418734D01*
X55407200Y-22216703D01*
X55373528Y-22115688D01*
X55373528Y-22048345D01*
X47615162Y-28966166D02*
X48322269Y-28259059D01*
X48052895Y-28999837D01*
X48793674Y-28730463D01*
X48086567Y-29437570D01*
X48591643Y-29538585D02*
X48928361Y-29875303D01*
X48322269Y-29673272D02*
X49265078Y-29201868D01*
X48793674Y-30144677D01*
X49669139Y-29605929D02*
X49433437Y-30784440D01*
X50140544Y-30077333D02*
X48962032Y-30313036D01*
X49736483Y-31087486D02*
X49871170Y-31222173D01*
X49972185Y-31255845D01*
X50039528Y-31255845D01*
X50207887Y-31222173D01*
X50376246Y-31121158D01*
X50645620Y-30851784D01*
X50679292Y-30750768D01*
X50679292Y-30683425D01*
X50645620Y-30582410D01*
X50510933Y-30447723D01*
X50409918Y-30414051D01*
X50342574Y-30414051D01*
X50241559Y-30447723D01*
X50073200Y-30616081D01*
X50039528Y-30717097D01*
X50039528Y-30784440D01*
X50073200Y-30885455D01*
X50207887Y-31020142D01*
X50308902Y-31053814D01*
X50376246Y-31053814D01*
X50477261Y-31020142D01*
X51016009Y-30952799D02*
X51487414Y-31424203D01*
X50477261Y-31828264D01*
X51824131Y-32232325D02*
X51352727Y-32703730D01*
X51925146Y-31794593D02*
X51251711Y-32131310D01*
X51689444Y-32569043D01*
X52497566Y-32905760D02*
X52026162Y-33377165D01*
X52598581Y-32468028D02*
X51925146Y-32804745D01*
X52362879Y-33242478D01*
X53120138Y-21357340D02*
X52951779Y-21525699D01*
X52850764Y-21289997D02*
X52951779Y-21525699D01*
X53187481Y-21626714D01*
X52716077Y-21559371D02*
X52951779Y-21525699D01*
X52918107Y-21761401D01*
X53120138Y-21357340D02*
X52951779Y-21525699D01*
X52850764Y-21289997D02*
X52951779Y-21525699D01*
X53187481Y-21626714D01*
X52716077Y-21559371D02*
X52951779Y-21525699D01*
X52918107Y-21761401D01*
X70640960Y-12164653D02*
X71355246Y-12164653D01*
X71498103Y-12212272D01*
X71593341Y-12307510D01*
X71640960Y-12450367D01*
X71640960Y-12545605D01*
X70640960Y-11783700D02*
X70640960Y-11164653D01*
X71021913Y-11497986D01*
X71021913Y-11355129D01*
X71069532Y-11259891D01*
X71117151Y-11212272D01*
X71212389Y-11164653D01*
X71450484Y-11164653D01*
X71545722Y-11212272D01*
X71593341Y-11259891D01*
X71640960Y-11355129D01*
X71640960Y-11640843D01*
X71593341Y-11736081D01*
X71545722Y-11783700D01*
X71491741Y-19152500D02*
X71539360Y-19009643D01*
X71539360Y-18771548D01*
X71491741Y-18676310D01*
X71444122Y-18628691D01*
X71348884Y-18581072D01*
X71253646Y-18581072D01*
X71158408Y-18628691D01*
X71110789Y-18676310D01*
X71063170Y-18771548D01*
X71015551Y-18962024D01*
X70967932Y-19057262D01*
X70920313Y-19104881D01*
X70825075Y-19152500D01*
X70729837Y-19152500D01*
X70634599Y-19104881D01*
X70586980Y-19057262D01*
X70539360Y-18962024D01*
X70539360Y-18723929D01*
X70586980Y-18581072D01*
X71539360Y-18152500D02*
X70539360Y-18152500D01*
X70539360Y-17771548D01*
X70586980Y-17676310D01*
X70634599Y-17628691D01*
X70729837Y-17581072D01*
X70872694Y-17581072D01*
X70967932Y-17628691D01*
X71015551Y-17676310D01*
X71063170Y-17771548D01*
X71063170Y-18152500D01*
X71539360Y-17152500D02*
X70539360Y-17152500D01*
X71539360Y-16581072D02*
X70967932Y-17009643D01*
X70539360Y-16581072D02*
X71110789Y-17152500D01*
X71539360Y-15676310D02*
X71539360Y-16152500D01*
X70539360Y-16152500D01*
X71015551Y-15342977D02*
X71015551Y-15009643D01*
X71539360Y-14866786D02*
X71539360Y-15342977D01*
X70539360Y-15342977D01*
X70539360Y-14866786D01*
X71015551Y-14104881D02*
X71015551Y-14438215D01*
X71539360Y-14438215D02*
X70539360Y-14438215D01*
X70539360Y-13962024D01*
X70539360Y-13723929D02*
X70539360Y-13152500D01*
X71539360Y-13438215D02*
X70539360Y-13438215D01*
X58214094Y-83541500D02*
X58214094Y-82541500D01*
X58452189Y-82541500D01*
X58595046Y-82589120D01*
X58690284Y-82684358D01*
X58737903Y-82779596D01*
X58785522Y-82970072D01*
X58785522Y-83112929D01*
X58737903Y-83303405D01*
X58690284Y-83398643D01*
X58595046Y-83493881D01*
X58452189Y-83541500D01*
X58214094Y-83541500D01*
X59166475Y-82636739D02*
X59214094Y-82589120D01*
X59309332Y-82541500D01*
X59547427Y-82541500D01*
X59642665Y-82589120D01*
X59690284Y-82636739D01*
X59737903Y-82731977D01*
X59737903Y-82827215D01*
X59690284Y-82970072D01*
X59118856Y-83541500D01*
X59737903Y-83541500D01*
X60356951Y-82541500D02*
X60452189Y-82541500D01*
X60547427Y-82589120D01*
X60595046Y-82636739D01*
X60642665Y-82731977D01*
X60690284Y-82922453D01*
X60690284Y-83160548D01*
X60642665Y-83351024D01*
X60595046Y-83446262D01*
X60547427Y-83493881D01*
X60452189Y-83541500D01*
X60356951Y-83541500D01*
X60261713Y-83493881D01*
X60214094Y-83446262D01*
X60166475Y-83351024D01*
X60118856Y-83160548D01*
X60118856Y-82922453D01*
X60166475Y-82731977D01*
X60214094Y-82636739D01*
X60261713Y-82589120D01*
X60356951Y-82541500D01*
X51478275Y-75756100D02*
X51478275Y-76565624D01*
X51525894Y-76660862D01*
X51573513Y-76708481D01*
X51668751Y-76756100D01*
X51859227Y-76756100D01*
X51954465Y-76708481D01*
X52002084Y-76660862D01*
X52049703Y-76565624D01*
X52049703Y-75756100D01*
X52954465Y-75756100D02*
X52763989Y-75756100D01*
X52668751Y-75803720D01*
X52621132Y-75851339D01*
X52525894Y-75994196D01*
X52478275Y-76184672D01*
X52478275Y-76565624D01*
X52525894Y-76660862D01*
X52573513Y-76708481D01*
X52668751Y-76756100D01*
X52859227Y-76756100D01*
X52954465Y-76708481D01*
X53002084Y-76660862D01*
X53049703Y-76565624D01*
X53049703Y-76327529D01*
X53002084Y-76232291D01*
X52954465Y-76184672D01*
X52859227Y-76137053D01*
X52668751Y-76137053D01*
X52573513Y-76184672D01*
X52525894Y-76232291D01*
X52478275Y-76327529D01*
X53671719Y-41525178D02*
X53624100Y-41620416D01*
X53528861Y-41715654D01*
X53386004Y-41858511D01*
X53338385Y-41953749D01*
X53338385Y-42048987D01*
X53576480Y-42001368D02*
X53528861Y-42096606D01*
X53433623Y-42191844D01*
X53243147Y-42239463D01*
X52909814Y-42239463D01*
X52719338Y-42191844D01*
X52624100Y-42096606D01*
X52576480Y-42001368D01*
X52576480Y-41810892D01*
X52624100Y-41715654D01*
X52719338Y-41620416D01*
X52909814Y-41572797D01*
X53243147Y-41572797D01*
X53433623Y-41620416D01*
X53528861Y-41715654D01*
X53576480Y-41810892D01*
X53576480Y-42001368D01*
X52576480Y-41239463D02*
X52576480Y-40620416D01*
X52957433Y-40953749D01*
X52957433Y-40810892D01*
X53005052Y-40715654D01*
X53052671Y-40668035D01*
X53147909Y-40620416D01*
X53386004Y-40620416D01*
X53481242Y-40668035D01*
X53528861Y-40715654D01*
X53576480Y-40810892D01*
X53576480Y-41096606D01*
X53528861Y-41191844D01*
X53481242Y-41239463D01*
X65832456Y-55664300D02*
X65832456Y-56378586D01*
X65784837Y-56521443D01*
X65689599Y-56616681D01*
X65546741Y-56664300D01*
X65451503Y-56664300D01*
X66832456Y-56664300D02*
X66261027Y-56664300D01*
X66546741Y-56664300D02*
X66546741Y-55664300D01*
X66451503Y-55807158D01*
X66356265Y-55902396D01*
X66261027Y-55950015D01*
X67451503Y-55664300D02*
X67546741Y-55664300D01*
X67641980Y-55711920D01*
X67689599Y-55759539D01*
X67737218Y-55854777D01*
X67784837Y-56045253D01*
X67784837Y-56283348D01*
X67737218Y-56473824D01*
X67689599Y-56569062D01*
X67641980Y-56616681D01*
X67546741Y-56664300D01*
X67451503Y-56664300D01*
X67356265Y-56616681D01*
X67308646Y-56569062D01*
X67261027Y-56473824D01*
X67213408Y-56283348D01*
X67213408Y-56045253D01*
X67261027Y-55854777D01*
X67308646Y-55759539D01*
X67356265Y-55711920D01*
X67451503Y-55664300D01*
X71158360Y-74638396D02*
X70158360Y-74638396D01*
X70158360Y-74400300D01*
X70205980Y-74257443D01*
X70301218Y-74162205D01*
X70396456Y-74114586D01*
X70586932Y-74066967D01*
X70729789Y-74066967D01*
X70920265Y-74114586D01*
X71015503Y-74162205D01*
X71110741Y-74257443D01*
X71158360Y-74400300D01*
X71158360Y-74638396D01*
X71110741Y-73257443D02*
X71158360Y-73352681D01*
X71158360Y-73543158D01*
X71110741Y-73638396D01*
X71015503Y-73686015D01*
X70634551Y-73686015D01*
X70539313Y-73638396D01*
X70491694Y-73543158D01*
X70491694Y-73352681D01*
X70539313Y-73257443D01*
X70634551Y-73209824D01*
X70729789Y-73209824D01*
X70825027Y-73686015D01*
X71158360Y-72781253D02*
X70158360Y-72781253D01*
X70539313Y-72781253D02*
X70491694Y-72686015D01*
X70491694Y-72495539D01*
X70539313Y-72400300D01*
X70586932Y-72352681D01*
X70682170Y-72305062D01*
X70967884Y-72305062D01*
X71063122Y-72352681D01*
X71110741Y-72400300D01*
X71158360Y-72495539D01*
X71158360Y-72686015D01*
X71110741Y-72781253D01*
X70491694Y-71447920D02*
X71158360Y-71447920D01*
X70491694Y-71876491D02*
X71015503Y-71876491D01*
X71110741Y-71828872D01*
X71158360Y-71733634D01*
X71158360Y-71590777D01*
X71110741Y-71495539D01*
X71063122Y-71447920D01*
X70491694Y-70543158D02*
X71301218Y-70543158D01*
X71396456Y-70590777D01*
X71444075Y-70638396D01*
X71491694Y-70733634D01*
X71491694Y-70876491D01*
X71444075Y-70971729D01*
X71110741Y-70543158D02*
X71158360Y-70638396D01*
X71158360Y-70828872D01*
X71110741Y-70924110D01*
X71063122Y-70971729D01*
X70967884Y-71019348D01*
X70682170Y-71019348D01*
X70586932Y-70971729D01*
X70539313Y-70924110D01*
X70491694Y-70828872D01*
X70491694Y-70638396D01*
X70539313Y-70543158D01*
X71063122Y-68733634D02*
X71110741Y-68781253D01*
X71158360Y-68924110D01*
X71158360Y-69019348D01*
X71110741Y-69162205D01*
X71015503Y-69257443D01*
X70920265Y-69305062D01*
X70729789Y-69352681D01*
X70586932Y-69352681D01*
X70396456Y-69305062D01*
X70301218Y-69257443D01*
X70205980Y-69162205D01*
X70158360Y-69019348D01*
X70158360Y-68924110D01*
X70205980Y-68781253D01*
X70253599Y-68733634D01*
X71158360Y-68162205D02*
X71110741Y-68257443D01*
X71063122Y-68305062D01*
X70967884Y-68352681D01*
X70682170Y-68352681D01*
X70586932Y-68305062D01*
X70539313Y-68257443D01*
X70491694Y-68162205D01*
X70491694Y-68019348D01*
X70539313Y-67924110D01*
X70586932Y-67876491D01*
X70682170Y-67828872D01*
X70967884Y-67828872D01*
X71063122Y-67876491D01*
X71110741Y-67924110D01*
X71158360Y-68019348D01*
X71158360Y-68162205D01*
X70491694Y-67400300D02*
X71158360Y-67400300D01*
X70586932Y-67400300D02*
X70539313Y-67352681D01*
X70491694Y-67257443D01*
X70491694Y-67114586D01*
X70539313Y-67019348D01*
X70634551Y-66971729D01*
X71158360Y-66971729D01*
X70491694Y-66495539D02*
X71158360Y-66495539D01*
X70586932Y-66495539D02*
X70539313Y-66447920D01*
X70491694Y-66352681D01*
X70491694Y-66209824D01*
X70539313Y-66114586D01*
X70634551Y-66066967D01*
X71158360Y-66066967D01*
X71110741Y-65209824D02*
X71158360Y-65305062D01*
X71158360Y-65495539D01*
X71110741Y-65590777D01*
X71015503Y-65638396D01*
X70634551Y-65638396D01*
X70539313Y-65590777D01*
X70491694Y-65495539D01*
X70491694Y-65305062D01*
X70539313Y-65209824D01*
X70634551Y-65162205D01*
X70729789Y-65162205D01*
X70825027Y-65638396D01*
X71110741Y-64305062D02*
X71158360Y-64400300D01*
X71158360Y-64590777D01*
X71110741Y-64686015D01*
X71063122Y-64733634D01*
X70967884Y-64781253D01*
X70682170Y-64781253D01*
X70586932Y-64733634D01*
X70539313Y-64686015D01*
X70491694Y-64590777D01*
X70491694Y-64400300D01*
X70539313Y-64305062D01*
X70491694Y-64019348D02*
X70491694Y-63638396D01*
X70158360Y-63876491D02*
X71015503Y-63876491D01*
X71110741Y-63828872D01*
X71158360Y-63733634D01*
X71158360Y-63638396D01*
X71158360Y-63162205D02*
X71110741Y-63257443D01*
X71063122Y-63305062D01*
X70967884Y-63352681D01*
X70682170Y-63352681D01*
X70586932Y-63305062D01*
X70539313Y-63257443D01*
X70491694Y-63162205D01*
X70491694Y-63019348D01*
X70539313Y-62924110D01*
X70586932Y-62876491D01*
X70682170Y-62828872D01*
X70967884Y-62828872D01*
X71063122Y-62876491D01*
X71110741Y-62924110D01*
X71158360Y-63019348D01*
X71158360Y-63162205D01*
X71158360Y-62400300D02*
X70491694Y-62400300D01*
X70682170Y-62400300D02*
X70586932Y-62352681D01*
X70539313Y-62305062D01*
X70491694Y-62209824D01*
X70491694Y-62114586D01*
X15338440Y-30100495D02*
X14338440Y-30100495D01*
X14338440Y-29862400D01*
X14386060Y-29719542D01*
X14481298Y-29624304D01*
X14576536Y-29576685D01*
X14767012Y-29529066D01*
X14909869Y-29529066D01*
X15100345Y-29576685D01*
X15195583Y-29624304D01*
X15290821Y-29719542D01*
X15338440Y-29862400D01*
X15338440Y-30100495D01*
X15338440Y-28576685D02*
X15338440Y-29148114D01*
X15338440Y-28862400D02*
X14338440Y-28862400D01*
X14481298Y-28957638D01*
X14576536Y-29052876D01*
X14624155Y-29148114D01*
M02*
