G04 #@! TF.GenerationSoftware,KiCad,Pcbnew,(5.1.6)-1*
G04 #@! TF.CreationDate,2020-10-08T11:29:36-07:00*
G04 #@! TF.ProjectId,Mycroft - Mark 2,4d796372-6f66-4742-902d-204d61726b20,rev?*
G04 #@! TF.SameCoordinates,Original*
G04 #@! TF.FileFunction,Legend,Top*
G04 #@! TF.FilePolarity,Positive*
%FSLAX46Y46*%
G04 Gerber Fmt 4.6, Leading zero omitted, Abs format (unit mm)*
G04 Created by KiCad (PCBNEW (5.1.6)-1) date 2020-10-08 11:29:36*
%MOMM*%
%LPD*%
G01*
G04 APERTURE LIST*
%ADD10C,0.150000*%
%ADD11C,0.100000*%
%ADD12C,0.120000*%
%ADD13C,0.152400*%
%ADD14C,0.050000*%
G04 APERTURE END LIST*
D10*
X67334523Y-11027380D02*
X66858333Y-11027380D01*
X66858333Y-10027380D01*
X68048809Y-10979761D02*
X67953571Y-11027380D01*
X67763095Y-11027380D01*
X67667857Y-10979761D01*
X67620238Y-10884523D01*
X67620238Y-10503571D01*
X67667857Y-10408333D01*
X67763095Y-10360714D01*
X67953571Y-10360714D01*
X68048809Y-10408333D01*
X68096428Y-10503571D01*
X68096428Y-10598809D01*
X67620238Y-10694047D01*
X68382142Y-10360714D02*
X68763095Y-10360714D01*
X68525000Y-11027380D02*
X68525000Y-10170238D01*
X68572619Y-10075000D01*
X68667857Y-10027380D01*
X68763095Y-10027380D01*
X68953571Y-10360714D02*
X69334523Y-10360714D01*
X69096428Y-10027380D02*
X69096428Y-10884523D01*
X69144047Y-10979761D01*
X69239285Y-11027380D01*
X69334523Y-11027380D01*
X66730952Y-31302380D02*
X66397619Y-30826190D01*
X66159523Y-31302380D02*
X66159523Y-30302380D01*
X66540476Y-30302380D01*
X66635714Y-30350000D01*
X66683333Y-30397619D01*
X66730952Y-30492857D01*
X66730952Y-30635714D01*
X66683333Y-30730952D01*
X66635714Y-30778571D01*
X66540476Y-30826190D01*
X66159523Y-30826190D01*
X67159523Y-31302380D02*
X67159523Y-30635714D01*
X67159523Y-30302380D02*
X67111904Y-30350000D01*
X67159523Y-30397619D01*
X67207142Y-30350000D01*
X67159523Y-30302380D01*
X67159523Y-30397619D01*
X68064285Y-30635714D02*
X68064285Y-31445238D01*
X68016666Y-31540476D01*
X67969047Y-31588095D01*
X67873809Y-31635714D01*
X67730952Y-31635714D01*
X67635714Y-31588095D01*
X68064285Y-31254761D02*
X67969047Y-31302380D01*
X67778571Y-31302380D01*
X67683333Y-31254761D01*
X67635714Y-31207142D01*
X67588095Y-31111904D01*
X67588095Y-30826190D01*
X67635714Y-30730952D01*
X67683333Y-30683333D01*
X67778571Y-30635714D01*
X67969047Y-30635714D01*
X68064285Y-30683333D01*
X68540476Y-31302380D02*
X68540476Y-30302380D01*
X68969047Y-31302380D02*
X68969047Y-30778571D01*
X68921428Y-30683333D01*
X68826190Y-30635714D01*
X68683333Y-30635714D01*
X68588095Y-30683333D01*
X68540476Y-30730952D01*
X69302380Y-30635714D02*
X69683333Y-30635714D01*
X69445238Y-30302380D02*
X69445238Y-31159523D01*
X69492857Y-31254761D01*
X69588095Y-31302380D01*
X69683333Y-31302380D01*
D11*
X32100000Y-90114285D02*
X32100000Y-90721428D01*
X32135714Y-90792857D01*
X32171428Y-90828571D01*
X32242857Y-90864285D01*
X32385714Y-90864285D01*
X32457142Y-90828571D01*
X32492857Y-90792857D01*
X32528571Y-90721428D01*
X32528571Y-90114285D01*
X32850000Y-90828571D02*
X32957142Y-90864285D01*
X33135714Y-90864285D01*
X33207142Y-90828571D01*
X33242857Y-90792857D01*
X33278571Y-90721428D01*
X33278571Y-90650000D01*
X33242857Y-90578571D01*
X33207142Y-90542857D01*
X33135714Y-90507142D01*
X32992857Y-90471428D01*
X32921428Y-90435714D01*
X32885714Y-90400000D01*
X32850000Y-90328571D01*
X32850000Y-90257142D01*
X32885714Y-90185714D01*
X32921428Y-90150000D01*
X32992857Y-90114285D01*
X33171428Y-90114285D01*
X33278571Y-90150000D01*
X33850000Y-90471428D02*
X33957142Y-90507142D01*
X33992857Y-90542857D01*
X34028571Y-90614285D01*
X34028571Y-90721428D01*
X33992857Y-90792857D01*
X33957142Y-90828571D01*
X33885714Y-90864285D01*
X33600000Y-90864285D01*
X33600000Y-90114285D01*
X33850000Y-90114285D01*
X33921428Y-90150000D01*
X33957142Y-90185714D01*
X33992857Y-90257142D01*
X33992857Y-90328571D01*
X33957142Y-90400000D01*
X33921428Y-90435714D01*
X33850000Y-90471428D01*
X33600000Y-90471428D01*
X35135714Y-90114285D02*
X35135714Y-90650000D01*
X35100000Y-90757142D01*
X35028571Y-90828571D01*
X34921428Y-90864285D01*
X34850000Y-90864285D01*
X35814285Y-90364285D02*
X35814285Y-90864285D01*
X35492857Y-90364285D02*
X35492857Y-90757142D01*
X35528571Y-90828571D01*
X35600000Y-90864285D01*
X35707142Y-90864285D01*
X35778571Y-90828571D01*
X35814285Y-90792857D01*
X36171428Y-90864285D02*
X36171428Y-90364285D01*
X36171428Y-90435714D02*
X36207142Y-90400000D01*
X36278571Y-90364285D01*
X36385714Y-90364285D01*
X36457142Y-90400000D01*
X36492857Y-90471428D01*
X36492857Y-90864285D01*
X36492857Y-90471428D02*
X36528571Y-90400000D01*
X36600000Y-90364285D01*
X36707142Y-90364285D01*
X36778571Y-90400000D01*
X36814285Y-90471428D01*
X36814285Y-90864285D01*
X37171428Y-90364285D02*
X37171428Y-91114285D01*
X37171428Y-90400000D02*
X37242857Y-90364285D01*
X37385714Y-90364285D01*
X37457142Y-90400000D01*
X37492857Y-90435714D01*
X37528571Y-90507142D01*
X37528571Y-90721428D01*
X37492857Y-90792857D01*
X37457142Y-90828571D01*
X37385714Y-90864285D01*
X37242857Y-90864285D01*
X37171428Y-90828571D01*
X38135714Y-90828571D02*
X38064285Y-90864285D01*
X37921428Y-90864285D01*
X37850000Y-90828571D01*
X37814285Y-90757142D01*
X37814285Y-90471428D01*
X37850000Y-90400000D01*
X37921428Y-90364285D01*
X38064285Y-90364285D01*
X38135714Y-90400000D01*
X38171428Y-90471428D01*
X38171428Y-90542857D01*
X37814285Y-90614285D01*
X38492857Y-90864285D02*
X38492857Y-90364285D01*
X38492857Y-90507142D02*
X38528571Y-90435714D01*
X38564285Y-90400000D01*
X38635714Y-90364285D01*
X38707142Y-90364285D01*
D12*
X35800000Y-34550000D02*
X42800000Y-34550000D01*
X35800000Y-26850000D02*
X35800000Y-34550000D01*
X42850000Y-26850000D02*
X35800000Y-26850000D01*
X42800000Y-34550000D02*
X42850000Y-26850000D01*
X35850000Y-31250000D02*
X42800000Y-31250000D01*
D10*
X36327380Y-32542738D02*
X36327380Y-33018928D01*
X36803571Y-33066547D01*
X36755952Y-33018928D01*
X36708333Y-32923690D01*
X36708333Y-32685595D01*
X36755952Y-32590357D01*
X36803571Y-32542738D01*
X36898809Y-32495119D01*
X37136904Y-32495119D01*
X37232142Y-32542738D01*
X37279761Y-32590357D01*
X37327380Y-32685595D01*
X37327380Y-32923690D01*
X37279761Y-33018928D01*
X37232142Y-33066547D01*
X36327380Y-32209404D02*
X37327380Y-31876071D01*
X36327380Y-31542738D01*
X37977380Y-33971309D02*
X37977380Y-33352261D01*
X38358333Y-33685595D01*
X38358333Y-33542738D01*
X38405952Y-33447500D01*
X38453571Y-33399880D01*
X38548809Y-33352261D01*
X38786904Y-33352261D01*
X38882142Y-33399880D01*
X38929761Y-33447500D01*
X38977380Y-33542738D01*
X38977380Y-33828452D01*
X38929761Y-33923690D01*
X38882142Y-33971309D01*
X38310714Y-33018928D02*
X38977380Y-32780833D01*
X38310714Y-32542738D01*
X37977380Y-32257023D02*
X37977380Y-31637976D01*
X38358333Y-31971309D01*
X38358333Y-31828452D01*
X38405952Y-31733214D01*
X38453571Y-31685595D01*
X38548809Y-31637976D01*
X38786904Y-31637976D01*
X38882142Y-31685595D01*
X38929761Y-31733214D01*
X38977380Y-31828452D01*
X38977380Y-32114166D01*
X38929761Y-32209404D01*
X38882142Y-32257023D01*
X39675000Y-33733214D02*
X39627380Y-33828452D01*
X39627380Y-33971309D01*
X39675000Y-34114166D01*
X39770238Y-34209404D01*
X39865476Y-34257023D01*
X40055952Y-34304642D01*
X40198809Y-34304642D01*
X40389285Y-34257023D01*
X40484523Y-34209404D01*
X40579761Y-34114166D01*
X40627380Y-33971309D01*
X40627380Y-33876071D01*
X40579761Y-33733214D01*
X40532142Y-33685595D01*
X40198809Y-33685595D01*
X40198809Y-33876071D01*
X40627380Y-33257023D02*
X39627380Y-33257023D01*
X40627380Y-32685595D01*
X39627380Y-32685595D01*
X40627380Y-32209404D02*
X39627380Y-32209404D01*
X39627380Y-31971309D01*
X39675000Y-31828452D01*
X39770238Y-31733214D01*
X39865476Y-31685595D01*
X40055952Y-31637976D01*
X40198809Y-31637976D01*
X40389285Y-31685595D01*
X40484523Y-31733214D01*
X40579761Y-31828452D01*
X40627380Y-31971309D01*
X40627380Y-32209404D01*
X41325000Y-33733214D02*
X41277380Y-33828452D01*
X41277380Y-33971309D01*
X41325000Y-34114166D01*
X41420238Y-34209404D01*
X41515476Y-34257023D01*
X41705952Y-34304642D01*
X41848809Y-34304642D01*
X42039285Y-34257023D01*
X42134523Y-34209404D01*
X42229761Y-34114166D01*
X42277380Y-33971309D01*
X42277380Y-33876071D01*
X42229761Y-33733214D01*
X42182142Y-33685595D01*
X41848809Y-33685595D01*
X41848809Y-33876071D01*
X42277380Y-33257023D02*
X41277380Y-33257023D01*
X42277380Y-32685595D01*
X41277380Y-32685595D01*
X42277380Y-32209404D02*
X41277380Y-32209404D01*
X41277380Y-31971309D01*
X41325000Y-31828452D01*
X41420238Y-31733214D01*
X41515476Y-31685595D01*
X41705952Y-31637976D01*
X41848809Y-31637976D01*
X42039285Y-31685595D01*
X42134523Y-31733214D01*
X42229761Y-31828452D01*
X42277380Y-31971309D01*
X42277380Y-32209404D01*
X37327380Y-29990595D02*
X37327380Y-30562023D01*
X37327380Y-30276309D02*
X36327380Y-30276309D01*
X36470238Y-30371547D01*
X36565476Y-30466785D01*
X36613095Y-30562023D01*
X36422619Y-29609642D02*
X36375000Y-29562023D01*
X36327380Y-29466785D01*
X36327380Y-29228690D01*
X36375000Y-29133452D01*
X36422619Y-29085833D01*
X36517857Y-29038214D01*
X36613095Y-29038214D01*
X36755952Y-29085833D01*
X37327380Y-29657261D01*
X37327380Y-29038214D01*
X36660714Y-28704880D02*
X37327380Y-28466785D01*
X36660714Y-28228690D01*
X38977380Y-29990595D02*
X38977380Y-30562023D01*
X38977380Y-30276309D02*
X37977380Y-30276309D01*
X38120238Y-30371547D01*
X38215476Y-30466785D01*
X38263095Y-30562023D01*
X38310714Y-29657261D02*
X38977380Y-29419166D01*
X38310714Y-29181071D01*
X40627380Y-30514404D02*
X39627380Y-30514404D01*
X39627380Y-30133452D01*
X39675000Y-30038214D01*
X39722619Y-29990595D01*
X39817857Y-29942976D01*
X39960714Y-29942976D01*
X40055952Y-29990595D01*
X40103571Y-30038214D01*
X40151190Y-30133452D01*
X40151190Y-30514404D01*
X39960714Y-29609642D02*
X40627380Y-29371547D01*
X39960714Y-29133452D01*
X40627380Y-28323928D02*
X39627380Y-28323928D01*
X40579761Y-28323928D02*
X40627380Y-28419166D01*
X40627380Y-28609642D01*
X40579761Y-28704880D01*
X40532142Y-28752500D01*
X40436904Y-28800119D01*
X40151190Y-28800119D01*
X40055952Y-28752500D01*
X40008333Y-28704880D01*
X39960714Y-28609642D01*
X39960714Y-28419166D01*
X40008333Y-28323928D01*
X40627380Y-27419166D02*
X39627380Y-27419166D01*
X40579761Y-27419166D02*
X40627380Y-27514404D01*
X40627380Y-27704880D01*
X40579761Y-27800119D01*
X40532142Y-27847738D01*
X40436904Y-27895357D01*
X40151190Y-27895357D01*
X40055952Y-27847738D01*
X40008333Y-27800119D01*
X39960714Y-27704880D01*
X39960714Y-27514404D01*
X40008333Y-27419166D01*
X42277380Y-30514404D02*
X41277380Y-30514404D01*
X41277380Y-30133452D01*
X41325000Y-30038214D01*
X41372619Y-29990595D01*
X41467857Y-29942976D01*
X41610714Y-29942976D01*
X41705952Y-29990595D01*
X41753571Y-30038214D01*
X41801190Y-30133452D01*
X41801190Y-30514404D01*
X41325000Y-28990595D02*
X41277380Y-29085833D01*
X41277380Y-29228690D01*
X41325000Y-29371547D01*
X41420238Y-29466785D01*
X41515476Y-29514404D01*
X41705952Y-29562023D01*
X41848809Y-29562023D01*
X42039285Y-29514404D01*
X42134523Y-29466785D01*
X42229761Y-29371547D01*
X42277380Y-29228690D01*
X42277380Y-29133452D01*
X42229761Y-28990595D01*
X42182142Y-28942976D01*
X41848809Y-28942976D01*
X41848809Y-29133452D01*
X42277380Y-28514404D02*
X41277380Y-28514404D01*
X42277380Y-27942976D01*
X41277380Y-27942976D01*
X42277380Y-27466785D02*
X41277380Y-27466785D01*
X41277380Y-27228690D01*
X41325000Y-27085833D01*
X41420238Y-26990595D01*
X41515476Y-26942976D01*
X41705952Y-26895357D01*
X41848809Y-26895357D01*
X42039285Y-26942976D01*
X42134523Y-26990595D01*
X42229761Y-27085833D01*
X42277380Y-27228690D01*
X42277380Y-27466785D01*
D11*
X31028571Y-36189285D02*
X31492857Y-36189285D01*
X31242857Y-36475000D01*
X31350000Y-36475000D01*
X31421428Y-36510714D01*
X31457142Y-36546428D01*
X31492857Y-36617857D01*
X31492857Y-36796428D01*
X31457142Y-36867857D01*
X31421428Y-36903571D01*
X31350000Y-36939285D01*
X31135714Y-36939285D01*
X31064285Y-36903571D01*
X31028571Y-36867857D01*
X31814285Y-36867857D02*
X31850000Y-36903571D01*
X31814285Y-36939285D01*
X31778571Y-36903571D01*
X31814285Y-36867857D01*
X31814285Y-36939285D01*
X32100000Y-36189285D02*
X32564285Y-36189285D01*
X32314285Y-36475000D01*
X32421428Y-36475000D01*
X32492857Y-36510714D01*
X32528571Y-36546428D01*
X32564285Y-36617857D01*
X32564285Y-36796428D01*
X32528571Y-36867857D01*
X32492857Y-36903571D01*
X32421428Y-36939285D01*
X32207142Y-36939285D01*
X32135714Y-36903571D01*
X32100000Y-36867857D01*
X32814285Y-36439285D02*
X32992857Y-36939285D01*
X33171428Y-36439285D01*
D10*
X64611239Y-32989780D02*
X64135048Y-32989780D01*
X64135048Y-31989780D01*
X64944572Y-32989780D02*
X64944572Y-32323114D01*
X64944572Y-31989780D02*
X64896953Y-32037400D01*
X64944572Y-32085019D01*
X64992191Y-32037400D01*
X64944572Y-31989780D01*
X64944572Y-32085019D01*
X65420762Y-32323114D02*
X65420762Y-32989780D01*
X65420762Y-32418352D02*
X65468381Y-32370733D01*
X65563620Y-32323114D01*
X65706477Y-32323114D01*
X65801715Y-32370733D01*
X65849334Y-32465971D01*
X65849334Y-32989780D01*
X66706477Y-32942161D02*
X66611239Y-32989780D01*
X66420762Y-32989780D01*
X66325524Y-32942161D01*
X66277905Y-32846923D01*
X66277905Y-32465971D01*
X66325524Y-32370733D01*
X66420762Y-32323114D01*
X66611239Y-32323114D01*
X66706477Y-32370733D01*
X66754096Y-32465971D01*
X66754096Y-32561209D01*
X66277905Y-32656447D01*
X68135048Y-31989780D02*
X68325524Y-31989780D01*
X68420762Y-32037400D01*
X68516000Y-32132638D01*
X68563620Y-32323114D01*
X68563620Y-32656447D01*
X68516000Y-32846923D01*
X68420762Y-32942161D01*
X68325524Y-32989780D01*
X68135048Y-32989780D01*
X68039810Y-32942161D01*
X67944572Y-32846923D01*
X67896953Y-32656447D01*
X67896953Y-32323114D01*
X67944572Y-32132638D01*
X68039810Y-32037400D01*
X68135048Y-31989780D01*
X69420762Y-32323114D02*
X69420762Y-32989780D01*
X68992191Y-32323114D02*
X68992191Y-32846923D01*
X69039810Y-32942161D01*
X69135048Y-32989780D01*
X69277905Y-32989780D01*
X69373143Y-32942161D01*
X69420762Y-32894542D01*
X69754096Y-32323114D02*
X70135048Y-32323114D01*
X69896953Y-31989780D02*
X69896953Y-32846923D01*
X69944572Y-32942161D01*
X70039810Y-32989780D01*
X70135048Y-32989780D01*
X4187976Y-84361904D02*
X4187976Y-83561904D01*
X4378452Y-83561904D01*
X4492738Y-83600000D01*
X4568928Y-83676190D01*
X4607023Y-83752380D01*
X4645119Y-83904761D01*
X4645119Y-84019047D01*
X4607023Y-84171428D01*
X4568928Y-84247619D01*
X4492738Y-84323809D01*
X4378452Y-84361904D01*
X4187976Y-84361904D01*
X5330833Y-84361904D02*
X5330833Y-83942857D01*
X5292738Y-83866666D01*
X5216547Y-83828571D01*
X5064166Y-83828571D01*
X4987976Y-83866666D01*
X5330833Y-84323809D02*
X5254642Y-84361904D01*
X5064166Y-84361904D01*
X4987976Y-84323809D01*
X4949880Y-84247619D01*
X4949880Y-84171428D01*
X4987976Y-84095238D01*
X5064166Y-84057142D01*
X5254642Y-84057142D01*
X5330833Y-84019047D01*
X5597500Y-83828571D02*
X5902261Y-83828571D01*
X5711785Y-83561904D02*
X5711785Y-84247619D01*
X5749880Y-84323809D01*
X5826071Y-84361904D01*
X5902261Y-84361904D01*
X6511785Y-84361904D02*
X6511785Y-83942857D01*
X6473690Y-83866666D01*
X6397500Y-83828571D01*
X6245119Y-83828571D01*
X6168928Y-83866666D01*
X6511785Y-84323809D02*
X6435595Y-84361904D01*
X6245119Y-84361904D01*
X6168928Y-84323809D01*
X6130833Y-84247619D01*
X6130833Y-84171428D01*
X6168928Y-84095238D01*
X6245119Y-84057142D01*
X6435595Y-84057142D01*
X6511785Y-84019047D01*
X4645119Y-86985714D02*
X4607023Y-87023809D01*
X4492738Y-87061904D01*
X4416547Y-87061904D01*
X4302261Y-87023809D01*
X4226071Y-86947619D01*
X4187976Y-86871428D01*
X4149880Y-86719047D01*
X4149880Y-86604761D01*
X4187976Y-86452380D01*
X4226071Y-86376190D01*
X4302261Y-86300000D01*
X4416547Y-86261904D01*
X4492738Y-86261904D01*
X4607023Y-86300000D01*
X4645119Y-86338095D01*
X5368928Y-87061904D02*
X4987976Y-87061904D01*
X4987976Y-86261904D01*
X5635595Y-87061904D02*
X5635595Y-86261904D01*
X6092738Y-87061904D02*
X5749880Y-86604761D01*
X6092738Y-86261904D02*
X5635595Y-86719047D01*
X6245119Y-87138095D02*
X6854642Y-87138095D01*
X7045119Y-87061904D02*
X7045119Y-86261904D01*
X7311785Y-86833333D01*
X7578452Y-86261904D01*
X7578452Y-87061904D01*
X4111785Y-88961904D02*
X4607023Y-88961904D01*
X4340357Y-89266666D01*
X4454642Y-89266666D01*
X4530833Y-89304761D01*
X4568928Y-89342857D01*
X4607023Y-89419047D01*
X4607023Y-89609523D01*
X4568928Y-89685714D01*
X4530833Y-89723809D01*
X4454642Y-89761904D01*
X4226071Y-89761904D01*
X4149880Y-89723809D01*
X4111785Y-89685714D01*
X4873690Y-89228571D02*
X5064166Y-89761904D01*
X5254642Y-89228571D01*
X5483214Y-88961904D02*
X5978452Y-88961904D01*
X5711785Y-89266666D01*
X5826071Y-89266666D01*
X5902261Y-89304761D01*
X5940357Y-89342857D01*
X5978452Y-89419047D01*
X5978452Y-89609523D01*
X5940357Y-89685714D01*
X5902261Y-89723809D01*
X5826071Y-89761904D01*
X5597500Y-89761904D01*
X5521309Y-89723809D01*
X5483214Y-89685714D01*
X6930833Y-89761904D02*
X6930833Y-88961904D01*
X7197500Y-89533333D01*
X7464166Y-88961904D01*
X7464166Y-89761904D01*
X7845119Y-89761904D02*
X7845119Y-89228571D01*
X7845119Y-88961904D02*
X7807023Y-89000000D01*
X7845119Y-89038095D01*
X7883214Y-89000000D01*
X7845119Y-88961904D01*
X7845119Y-89038095D01*
X8568928Y-89723809D02*
X8492738Y-89761904D01*
X8340357Y-89761904D01*
X8264166Y-89723809D01*
X8226071Y-89685714D01*
X8187976Y-89609523D01*
X8187976Y-89380952D01*
X8226071Y-89304761D01*
X8264166Y-89266666D01*
X8340357Y-89228571D01*
X8492738Y-89228571D01*
X8568928Y-89266666D01*
X4151316Y-70561904D02*
X4151316Y-69761904D01*
X4341792Y-69761904D01*
X4456078Y-69800000D01*
X4532268Y-69876190D01*
X4570363Y-69952380D01*
X4608459Y-70104761D01*
X4608459Y-70219047D01*
X4570363Y-70371428D01*
X4532268Y-70447619D01*
X4456078Y-70523809D01*
X4341792Y-70561904D01*
X4151316Y-70561904D01*
X5103697Y-69761904D02*
X5256078Y-69761904D01*
X5332268Y-69800000D01*
X5408459Y-69876190D01*
X5446554Y-70028571D01*
X5446554Y-70295238D01*
X5408459Y-70447619D01*
X5332268Y-70523809D01*
X5256078Y-70561904D01*
X5103697Y-70561904D01*
X5027506Y-70523809D01*
X4951316Y-70447619D01*
X4913220Y-70295238D01*
X4913220Y-70028571D01*
X4951316Y-69876190D01*
X5027506Y-69800000D01*
X5103697Y-69761904D01*
X6132268Y-70028571D02*
X6132268Y-70561904D01*
X5789411Y-70028571D02*
X5789411Y-70447619D01*
X5827506Y-70523809D01*
X5903697Y-70561904D01*
X6017982Y-70561904D01*
X6094173Y-70523809D01*
X6132268Y-70485714D01*
X6398935Y-70028571D02*
X6703697Y-70028571D01*
X6513220Y-69761904D02*
X6513220Y-70447619D01*
X6551316Y-70523809D01*
X6627506Y-70561904D01*
X6703697Y-70561904D01*
X4151316Y-73261904D02*
X4151316Y-72461904D01*
X4341792Y-72461904D01*
X4456078Y-72500000D01*
X4532268Y-72576190D01*
X4570363Y-72652380D01*
X4608459Y-72804761D01*
X4608459Y-72919047D01*
X4570363Y-73071428D01*
X4532268Y-73147619D01*
X4456078Y-73223809D01*
X4341792Y-73261904D01*
X4151316Y-73261904D01*
X5294173Y-73261904D02*
X5294173Y-72842857D01*
X5256078Y-72766666D01*
X5179887Y-72728571D01*
X5027506Y-72728571D01*
X4951316Y-72766666D01*
X5294173Y-73223809D02*
X5217982Y-73261904D01*
X5027506Y-73261904D01*
X4951316Y-73223809D01*
X4913220Y-73147619D01*
X4913220Y-73071428D01*
X4951316Y-72995238D01*
X5027506Y-72957142D01*
X5217982Y-72957142D01*
X5294173Y-72919047D01*
X5560840Y-72728571D02*
X5865601Y-72728571D01*
X5675125Y-72461904D02*
X5675125Y-73147619D01*
X5713220Y-73223809D01*
X5789411Y-73261904D01*
X5865601Y-73261904D01*
X6475125Y-73261904D02*
X6475125Y-72842857D01*
X6437030Y-72766666D01*
X6360840Y-72728571D01*
X6208459Y-72728571D01*
X6132268Y-72766666D01*
X6475125Y-73223809D02*
X6398935Y-73261904D01*
X6208459Y-73261904D01*
X6132268Y-73223809D01*
X6094173Y-73147619D01*
X6094173Y-73071428D01*
X6132268Y-72995238D01*
X6208459Y-72957142D01*
X6398935Y-72957142D01*
X6475125Y-72919047D01*
X4417982Y-75542857D02*
X4532268Y-75580952D01*
X4570363Y-75619047D01*
X4608459Y-75695238D01*
X4608459Y-75809523D01*
X4570363Y-75885714D01*
X4532268Y-75923809D01*
X4456078Y-75961904D01*
X4151316Y-75961904D01*
X4151316Y-75161904D01*
X4417982Y-75161904D01*
X4494173Y-75200000D01*
X4532268Y-75238095D01*
X4570363Y-75314285D01*
X4570363Y-75390476D01*
X4532268Y-75466666D01*
X4494173Y-75504761D01*
X4417982Y-75542857D01*
X4151316Y-75542857D01*
X5408459Y-75885714D02*
X5370363Y-75923809D01*
X5256078Y-75961904D01*
X5179887Y-75961904D01*
X5065601Y-75923809D01*
X4989411Y-75847619D01*
X4951316Y-75771428D01*
X4913220Y-75619047D01*
X4913220Y-75504761D01*
X4951316Y-75352380D01*
X4989411Y-75276190D01*
X5065601Y-75200000D01*
X5179887Y-75161904D01*
X5256078Y-75161904D01*
X5370363Y-75200000D01*
X5408459Y-75238095D01*
X5751316Y-75961904D02*
X5751316Y-75161904D01*
X6208459Y-75961904D02*
X5865601Y-75504761D01*
X6208459Y-75161904D02*
X5751316Y-75619047D01*
X4532268Y-78661904D02*
X4151316Y-78661904D01*
X4151316Y-77861904D01*
X5256078Y-78661904D02*
X4989411Y-78280952D01*
X4798935Y-78661904D02*
X4798935Y-77861904D01*
X5103697Y-77861904D01*
X5179887Y-77900000D01*
X5217982Y-77938095D01*
X5256078Y-78014285D01*
X5256078Y-78128571D01*
X5217982Y-78204761D01*
X5179887Y-78242857D01*
X5103697Y-78280952D01*
X4798935Y-78280952D01*
X6056078Y-78585714D02*
X6017982Y-78623809D01*
X5903697Y-78661904D01*
X5827506Y-78661904D01*
X5713220Y-78623809D01*
X5637030Y-78547619D01*
X5598935Y-78471428D01*
X5560840Y-78319047D01*
X5560840Y-78204761D01*
X5598935Y-78052380D01*
X5637030Y-77976190D01*
X5713220Y-77900000D01*
X5827506Y-77861904D01*
X5903697Y-77861904D01*
X6017982Y-77900000D01*
X6056078Y-77938095D01*
X6398935Y-78661904D02*
X6398935Y-77861904D01*
X6856078Y-78661904D02*
X6513220Y-78204761D01*
X6856078Y-77861904D02*
X6398935Y-78319047D01*
X4113220Y-81323809D02*
X4227506Y-81361904D01*
X4417982Y-81361904D01*
X4494173Y-81323809D01*
X4532268Y-81285714D01*
X4570363Y-81209523D01*
X4570363Y-81133333D01*
X4532268Y-81057142D01*
X4494173Y-81019047D01*
X4417982Y-80980952D01*
X4265601Y-80942857D01*
X4189411Y-80904761D01*
X4151316Y-80866666D01*
X4113220Y-80790476D01*
X4113220Y-80714285D01*
X4151316Y-80638095D01*
X4189411Y-80600000D01*
X4265601Y-80561904D01*
X4456078Y-80561904D01*
X4570363Y-80600000D01*
X5370363Y-81285714D02*
X5332268Y-81323809D01*
X5217982Y-81361904D01*
X5141792Y-81361904D01*
X5027506Y-81323809D01*
X4951316Y-81247619D01*
X4913220Y-81171428D01*
X4875125Y-81019047D01*
X4875125Y-80904761D01*
X4913220Y-80752380D01*
X4951316Y-80676190D01*
X5027506Y-80600000D01*
X5141792Y-80561904D01*
X5217982Y-80561904D01*
X5332268Y-80600000D01*
X5370363Y-80638095D01*
X5713220Y-81361904D02*
X5713220Y-80561904D01*
X6170363Y-81361904D02*
X5827506Y-80904761D01*
X6170363Y-80561904D02*
X5713220Y-81019047D01*
D11*
X28342857Y-36189285D02*
X27985714Y-36189285D01*
X27950000Y-36546428D01*
X27985714Y-36510714D01*
X28057142Y-36475000D01*
X28235714Y-36475000D01*
X28307142Y-36510714D01*
X28342857Y-36546428D01*
X28378571Y-36617857D01*
X28378571Y-36796428D01*
X28342857Y-36867857D01*
X28307142Y-36903571D01*
X28235714Y-36939285D01*
X28057142Y-36939285D01*
X27985714Y-36903571D01*
X27950000Y-36867857D01*
X28628571Y-36439285D02*
X28807142Y-36939285D01*
X28985714Y-36439285D01*
D10*
X15014200Y-49433097D02*
X14538010Y-49766430D01*
X15014200Y-50004525D02*
X14014200Y-50004525D01*
X14014200Y-49623573D01*
X14061820Y-49528335D01*
X14109439Y-49480716D01*
X14204677Y-49433097D01*
X14347534Y-49433097D01*
X14442772Y-49480716D01*
X14490391Y-49528335D01*
X14538010Y-49623573D01*
X14538010Y-50004525D01*
X15014200Y-48575954D02*
X14490391Y-48575954D01*
X14395153Y-48623573D01*
X14347534Y-48718811D01*
X14347534Y-48909287D01*
X14395153Y-49004525D01*
X14966581Y-48575954D02*
X15014200Y-48671192D01*
X15014200Y-48909287D01*
X14966581Y-49004525D01*
X14871343Y-49052144D01*
X14776105Y-49052144D01*
X14680867Y-49004525D01*
X14633248Y-48909287D01*
X14633248Y-48671192D01*
X14585629Y-48575954D01*
X14966581Y-48147382D02*
X15014200Y-48052144D01*
X15014200Y-47861668D01*
X14966581Y-47766430D01*
X14871343Y-47718811D01*
X14823724Y-47718811D01*
X14728486Y-47766430D01*
X14680867Y-47861668D01*
X14680867Y-48004525D01*
X14633248Y-48099763D01*
X14538010Y-48147382D01*
X14490391Y-48147382D01*
X14395153Y-48099763D01*
X14347534Y-48004525D01*
X14347534Y-47861668D01*
X14395153Y-47766430D01*
X14347534Y-47290240D02*
X15347534Y-47290240D01*
X14395153Y-47290240D02*
X14347534Y-47195001D01*
X14347534Y-47004525D01*
X14395153Y-46909287D01*
X14442772Y-46861668D01*
X14538010Y-46814049D01*
X14823724Y-46814049D01*
X14918962Y-46861668D01*
X14966581Y-46909287D01*
X15014200Y-47004525D01*
X15014200Y-47195001D01*
X14966581Y-47290240D01*
X15014200Y-46385478D02*
X14014200Y-46385478D01*
X14395153Y-46385478D02*
X14347534Y-46290240D01*
X14347534Y-46099763D01*
X14395153Y-46004525D01*
X14442772Y-45956906D01*
X14538010Y-45909287D01*
X14823724Y-45909287D01*
X14918962Y-45956906D01*
X14966581Y-46004525D01*
X15014200Y-46099763D01*
X15014200Y-46290240D01*
X14966581Y-46385478D01*
X14966581Y-45099763D02*
X15014200Y-45195001D01*
X15014200Y-45385478D01*
X14966581Y-45480716D01*
X14871343Y-45528335D01*
X14490391Y-45528335D01*
X14395153Y-45480716D01*
X14347534Y-45385478D01*
X14347534Y-45195001D01*
X14395153Y-45099763D01*
X14490391Y-45052144D01*
X14585629Y-45052144D01*
X14680867Y-45528335D01*
X15014200Y-44623573D02*
X14347534Y-44623573D01*
X14538010Y-44623573D02*
X14442772Y-44575954D01*
X14395153Y-44528335D01*
X14347534Y-44433097D01*
X14347534Y-44337859D01*
X15014200Y-44004525D02*
X14347534Y-44004525D01*
X14538010Y-44004525D02*
X14442772Y-43956906D01*
X14395153Y-43909287D01*
X14347534Y-43814049D01*
X14347534Y-43718811D01*
X14347534Y-43480716D02*
X15014200Y-43242620D01*
X14347534Y-43004525D02*
X15014200Y-43242620D01*
X15252296Y-43337859D01*
X15299915Y-43385478D01*
X15347534Y-43480716D01*
X15014200Y-41861668D02*
X14014200Y-41861668D01*
X14014200Y-41480716D01*
X14061820Y-41385478D01*
X14109439Y-41337859D01*
X14204677Y-41290240D01*
X14347534Y-41290240D01*
X14442772Y-41337859D01*
X14490391Y-41385478D01*
X14538010Y-41480716D01*
X14538010Y-41861668D01*
X15014200Y-40861668D02*
X14347534Y-40861668D01*
X14014200Y-40861668D02*
X14061820Y-40909287D01*
X14109439Y-40861668D01*
X14061820Y-40814049D01*
X14014200Y-40861668D01*
X14109439Y-40861668D01*
X14918962Y-39052144D02*
X14966581Y-39099763D01*
X15014200Y-39242620D01*
X15014200Y-39337859D01*
X14966581Y-39480716D01*
X14871343Y-39575954D01*
X14776105Y-39623573D01*
X14585629Y-39671192D01*
X14442772Y-39671192D01*
X14252296Y-39623573D01*
X14157058Y-39575954D01*
X14061820Y-39480716D01*
X14014200Y-39337859D01*
X14014200Y-39242620D01*
X14061820Y-39099763D01*
X14109439Y-39052144D01*
X15014200Y-38480716D02*
X14966581Y-38575954D01*
X14918962Y-38623573D01*
X14823724Y-38671192D01*
X14538010Y-38671192D01*
X14442772Y-38623573D01*
X14395153Y-38575954D01*
X14347534Y-38480716D01*
X14347534Y-38337859D01*
X14395153Y-38242620D01*
X14442772Y-38195001D01*
X14538010Y-38147382D01*
X14823724Y-38147382D01*
X14918962Y-38195001D01*
X14966581Y-38242620D01*
X15014200Y-38337859D01*
X15014200Y-38480716D01*
X14347534Y-37718811D02*
X15014200Y-37718811D01*
X14442772Y-37718811D02*
X14395153Y-37671192D01*
X14347534Y-37575954D01*
X14347534Y-37433097D01*
X14395153Y-37337859D01*
X14490391Y-37290240D01*
X15014200Y-37290240D01*
X14347534Y-36814049D02*
X15014200Y-36814049D01*
X14442772Y-36814049D02*
X14395153Y-36766430D01*
X14347534Y-36671192D01*
X14347534Y-36528335D01*
X14395153Y-36433097D01*
X14490391Y-36385478D01*
X15014200Y-36385478D01*
X14966581Y-35528335D02*
X15014200Y-35623573D01*
X15014200Y-35814049D01*
X14966581Y-35909287D01*
X14871343Y-35956906D01*
X14490391Y-35956906D01*
X14395153Y-35909287D01*
X14347534Y-35814049D01*
X14347534Y-35623573D01*
X14395153Y-35528335D01*
X14490391Y-35480716D01*
X14585629Y-35480716D01*
X14680867Y-35956906D01*
X14966581Y-34623573D02*
X15014200Y-34718811D01*
X15014200Y-34909287D01*
X14966581Y-35004525D01*
X14918962Y-35052144D01*
X14823724Y-35099763D01*
X14538010Y-35099763D01*
X14442772Y-35052144D01*
X14395153Y-35004525D01*
X14347534Y-34909287D01*
X14347534Y-34718811D01*
X14395153Y-34623573D01*
X14347534Y-34337859D02*
X14347534Y-33956906D01*
X14014200Y-34195001D02*
X14871343Y-34195001D01*
X14966581Y-34147382D01*
X15014200Y-34052144D01*
X15014200Y-33956906D01*
X15014200Y-33480716D02*
X14966581Y-33575954D01*
X14918962Y-33623573D01*
X14823724Y-33671192D01*
X14538010Y-33671192D01*
X14442772Y-33623573D01*
X14395153Y-33575954D01*
X14347534Y-33480716D01*
X14347534Y-33337859D01*
X14395153Y-33242620D01*
X14442772Y-33195001D01*
X14538010Y-33147382D01*
X14823724Y-33147382D01*
X14918962Y-33195001D01*
X14966581Y-33242620D01*
X15014200Y-33337859D01*
X15014200Y-33480716D01*
X15014200Y-32718811D02*
X14347534Y-32718811D01*
X14538010Y-32718811D02*
X14442772Y-32671192D01*
X14395153Y-32623573D01*
X14347534Y-32528335D01*
X14347534Y-32433097D01*
D12*
X35287221Y-88765000D02*
X35612779Y-88765000D01*
X35287221Y-89785000D02*
X35612779Y-89785000D01*
X53627064Y-2835000D02*
X52422936Y-2835000D01*
X53627064Y-1015000D02*
X52422936Y-1015000D01*
X8290000Y-82470000D02*
X8290000Y-83840000D01*
X8290000Y-79930000D02*
X8290000Y-81300000D01*
X10510000Y-81200000D02*
X10510000Y-82570000D01*
X10510000Y-83740000D02*
X10510000Y-83850000D01*
X8290000Y-78650000D02*
X8290000Y-78760000D01*
X8290000Y-78760000D02*
X6460000Y-78760000D01*
X10510000Y-78660000D02*
X10510000Y-80030000D01*
X8290000Y-83850000D02*
X10510000Y-83850000D01*
X8290000Y-78650000D02*
X10510000Y-78650000D01*
X54134900Y-41732740D02*
X55064900Y-41732740D01*
X57294900Y-41732740D02*
X56364900Y-41732740D01*
X57294900Y-41732740D02*
X57294900Y-39572740D01*
X54134900Y-41732740D02*
X54134900Y-40272740D01*
X34200000Y-33380000D02*
X34200000Y-28180000D01*
X26520000Y-33380000D02*
X34200000Y-33380000D01*
X23920000Y-28180000D02*
X34200000Y-28180000D01*
X26520000Y-33380000D02*
X26520000Y-30780000D01*
X26520000Y-30780000D02*
X23920000Y-30780000D01*
X23920000Y-30780000D02*
X23920000Y-28180000D01*
X25250000Y-33380000D02*
X23920000Y-33380000D01*
X23920000Y-33380000D02*
X23920000Y-32050000D01*
X33050000Y-37115000D02*
X30765000Y-37115000D01*
X30765000Y-37115000D02*
X30765000Y-38585000D01*
X30765000Y-38585000D02*
X33050000Y-38585000D01*
X41910000Y-42290000D02*
X40210000Y-42290000D01*
X36390000Y-42290000D02*
X38090000Y-42290000D01*
X36390000Y-46745563D02*
X36390000Y-42290000D01*
X41910000Y-46745563D02*
X41910000Y-42290000D01*
X40845563Y-47810000D02*
X40210000Y-47810000D01*
X37454437Y-47810000D02*
X38090000Y-47810000D01*
X37454437Y-47810000D02*
X36390000Y-46745563D01*
X40845563Y-47810000D02*
X41910000Y-46745563D01*
X37465000Y-48675000D02*
X37465000Y-48050000D01*
X37152500Y-48362500D02*
X37777500Y-48362500D01*
X34460000Y-42290000D02*
X32760000Y-42290000D01*
X28940000Y-42290000D02*
X30640000Y-42290000D01*
X28940000Y-46745563D02*
X28940000Y-42290000D01*
X34460000Y-46745563D02*
X34460000Y-42290000D01*
X33395563Y-47810000D02*
X32760000Y-47810000D01*
X30004437Y-47810000D02*
X30640000Y-47810000D01*
X30004437Y-47810000D02*
X28940000Y-46745563D01*
X33395563Y-47810000D02*
X34460000Y-46745563D01*
X30015000Y-48675000D02*
X30015000Y-48050000D01*
X29702500Y-48362500D02*
X30327500Y-48362500D01*
D10*
X31850000Y-50850000D02*
X31950000Y-50850000D01*
X37375000Y-50825000D02*
X37350000Y-50825000D01*
X37375000Y-55475000D02*
X37350000Y-55475000D01*
X31850000Y-56550000D02*
X31850000Y-50850000D01*
X37375000Y-55475000D02*
X37375000Y-50825000D01*
D12*
X520000Y-81790000D02*
X3180000Y-81790000D01*
X520000Y-71570000D02*
X520000Y-81790000D01*
X3180000Y-71570000D02*
X3180000Y-81790000D01*
X520000Y-71570000D02*
X3180000Y-71570000D01*
X520000Y-70300000D02*
X520000Y-68970000D01*
X520000Y-68970000D02*
X1850000Y-68970000D01*
X28502064Y-51710000D02*
X27297936Y-51710000D01*
X28502064Y-49890000D02*
X27297936Y-49890000D01*
X18720000Y-88400000D02*
X18720000Y-87290000D01*
X18720000Y-87290000D02*
X20050000Y-87290000D01*
X18720000Y-98490000D02*
X29000000Y-98490000D01*
X29000000Y-98490000D02*
X29000000Y-89860000D01*
X18720000Y-89860000D02*
X29000000Y-89860000D01*
X18720000Y-98490000D02*
X18720000Y-89860000D01*
X26400000Y-98490000D02*
X26400000Y-89860000D01*
X23860000Y-98490000D02*
X23860000Y-89860000D01*
X21320000Y-98490000D02*
X21320000Y-89860000D01*
X28030000Y-89860000D02*
X28030000Y-89450000D01*
X27310000Y-89860000D02*
X27310000Y-89450000D01*
X25490000Y-89860000D02*
X25490000Y-89450000D01*
X24770000Y-89860000D02*
X24770000Y-89450000D01*
X22950000Y-89860000D02*
X22950000Y-89450000D01*
X22230000Y-89860000D02*
X22230000Y-89450000D01*
X20410000Y-89860000D02*
X20410000Y-89510000D01*
X19690000Y-89860000D02*
X19690000Y-89510000D01*
X21201900Y-98490000D02*
X21201900Y-89860000D01*
X21083805Y-98490000D02*
X21083805Y-89860000D01*
X20965710Y-98490000D02*
X20965710Y-89860000D01*
X20847615Y-98490000D02*
X20847615Y-89860000D01*
X20729520Y-98490000D02*
X20729520Y-89860000D01*
X20611425Y-98490000D02*
X20611425Y-89860000D01*
X20493330Y-98490000D02*
X20493330Y-89860000D01*
X20375235Y-98490000D02*
X20375235Y-89860000D01*
X20257140Y-98490000D02*
X20257140Y-89860000D01*
X20139045Y-98490000D02*
X20139045Y-89860000D01*
X20020950Y-98490000D02*
X20020950Y-89860000D01*
X19902855Y-98490000D02*
X19902855Y-89860000D01*
X19784760Y-98490000D02*
X19784760Y-89860000D01*
X19666665Y-98490000D02*
X19666665Y-89860000D01*
X19548570Y-98490000D02*
X19548570Y-89860000D01*
X19430475Y-98490000D02*
X19430475Y-89860000D01*
X19312380Y-98490000D02*
X19312380Y-89860000D01*
X19194285Y-98490000D02*
X19194285Y-89860000D01*
X19076190Y-98490000D02*
X19076190Y-89860000D01*
X18958095Y-98490000D02*
X18958095Y-89860000D01*
X18840000Y-98490000D02*
X18840000Y-89860000D01*
D10*
X16248380Y-69159120D02*
X16248380Y-69032120D01*
D12*
X22856380Y-76190120D02*
X23406380Y-76190120D01*
X15186380Y-67970120D02*
X15186380Y-68520120D01*
X15736380Y-67970120D02*
X15186380Y-67970120D01*
X23406380Y-67970120D02*
X23406380Y-68520120D01*
X22856380Y-67970120D02*
X23406380Y-67970120D01*
X15186380Y-76190120D02*
X15186380Y-75640120D01*
X15736380Y-76190120D02*
X15186380Y-76190120D01*
X66200000Y-82500000D02*
G75*
G03*
X66200000Y-82500000I-1200000J0D01*
G01*
X59371660Y-88063980D02*
X61171660Y-88063980D01*
X61171660Y-84843980D02*
X58721660Y-84843980D01*
X69800000Y-82500000D02*
G75*
G03*
X69800000Y-82500000I-1200000J0D01*
G01*
X20591780Y-57010720D02*
X17866780Y-57010720D01*
X17866780Y-57010720D02*
X17866780Y-57270720D01*
X20591780Y-57010720D02*
X23316780Y-57010720D01*
X23316780Y-57010720D02*
X23316780Y-57270720D01*
X20591780Y-62460720D02*
X17866780Y-62460720D01*
X17866780Y-62460720D02*
X17866780Y-62200720D01*
X20591780Y-62460720D02*
X23316780Y-62460720D01*
X23316780Y-62460720D02*
X23316780Y-62200720D01*
X23316780Y-62200720D02*
X24991780Y-62200720D01*
D10*
X71567040Y-50264060D02*
X64089950Y-50262672D01*
X71567040Y-41374060D02*
X71567040Y-50264060D01*
X64201040Y-41374060D02*
X71567040Y-41374060D01*
D12*
X65732947Y-45819060D02*
G75*
G03*
X65732947Y-45819060I-1023907J0D01*
G01*
D10*
X64089950Y-50262672D02*
G75*
G02*
X64201040Y-41374060I111090J4443612D01*
G01*
X63583821Y-34513521D02*
X71838820Y-34513521D01*
X71838820Y-34513521D02*
X71838820Y-39720520D01*
X71838820Y-39720520D02*
X62440820Y-39720520D01*
X62440820Y-39720520D02*
X62440820Y-34513520D01*
X62440820Y-34513520D02*
X63583820Y-34513520D01*
X69680838Y-34514633D02*
G75*
G03*
X63583821Y-34513521I-3049018J-2792887D01*
G01*
X64093404Y-39722186D02*
G75*
G03*
X69171820Y-39720520I2538416J2414666D01*
G01*
D12*
X21155158Y-22160160D02*
X20638002Y-22160160D01*
X21155158Y-23580160D02*
X20638002Y-23580160D01*
X520000Y-82820000D02*
X1850000Y-82820000D01*
X520000Y-84150000D02*
X520000Y-82820000D01*
X520000Y-85420000D02*
X3180000Y-85420000D01*
X3180000Y-85420000D02*
X3180000Y-90560000D01*
X520000Y-85420000D02*
X520000Y-90560000D01*
X520000Y-90560000D02*
X3180000Y-90560000D01*
X49680180Y-6281320D02*
X49680180Y-7281320D01*
X49180180Y-6781320D02*
X50180180Y-6781320D01*
X50420180Y-12586883D02*
X51484617Y-13651320D01*
X50420180Y-5995757D02*
X51484617Y-4931320D01*
X50420180Y-5995757D02*
X50420180Y-7781320D01*
X50420180Y-12586883D02*
X50420180Y-10801320D01*
X51484617Y-13651320D02*
X59140180Y-13651320D01*
X51484617Y-4931320D02*
X59140180Y-4931320D01*
X59140180Y-4931320D02*
X59140180Y-7781320D01*
X59140180Y-13651320D02*
X59140180Y-10801320D01*
X52707100Y-83001360D02*
X48807100Y-83001360D01*
X52707100Y-81001360D02*
X48807100Y-81001360D01*
X52707100Y-83001360D02*
X52707100Y-81001360D01*
X46194661Y-83054920D02*
X46520219Y-83054920D01*
X46194661Y-82034920D02*
X46520219Y-82034920D01*
X51685220Y-84575760D02*
X51685220Y-87005760D01*
X54755220Y-86335760D02*
X54755220Y-84575760D01*
X48051804Y-83745240D02*
X46847676Y-83745240D01*
X48051804Y-86465240D02*
X46847676Y-86465240D01*
X57967560Y-56504940D02*
X57967560Y-55504940D01*
X58467560Y-56004940D02*
X57467560Y-56004940D01*
X57227560Y-50199377D02*
X56163123Y-49134940D01*
X57227560Y-56790503D02*
X56163123Y-57854940D01*
X57227560Y-56790503D02*
X57227560Y-55004940D01*
X57227560Y-50199377D02*
X57227560Y-51984940D01*
X56163123Y-49134940D02*
X48507560Y-49134940D01*
X56163123Y-57854940D02*
X48507560Y-57854940D01*
X48507560Y-57854940D02*
X48507560Y-55004940D01*
X48507560Y-49134940D02*
X48507560Y-51984940D01*
X15374940Y-14246760D02*
X15374940Y-15246760D01*
X14874940Y-14746760D02*
X15874940Y-14746760D01*
X16114940Y-20552323D02*
X17179377Y-21616760D01*
X16114940Y-13961197D02*
X17179377Y-12896760D01*
X16114940Y-13961197D02*
X16114940Y-15746760D01*
X16114940Y-20552323D02*
X16114940Y-18766760D01*
X17179377Y-21616760D02*
X24834940Y-21616760D01*
X17179377Y-12896760D02*
X24834940Y-12896760D01*
X24834940Y-12896760D02*
X24834940Y-15746760D01*
X24834940Y-21616760D02*
X24834940Y-18766760D01*
X16162779Y-79890000D02*
X15837221Y-79890000D01*
X16162779Y-80910000D02*
X15837221Y-80910000D01*
X52433001Y-34744120D02*
X52758559Y-34744120D01*
X52433001Y-33724120D02*
X52758559Y-33724120D01*
X16200000Y-85200000D02*
X20400000Y-85200000D01*
X16200000Y-81700000D02*
X16200000Y-85200000D01*
X56197584Y-43202180D02*
X54993456Y-43202180D01*
X56197584Y-45022180D02*
X54993456Y-45022180D01*
X51002064Y-35381520D02*
X49797936Y-35381520D01*
X51002064Y-37201520D02*
X49797936Y-37201520D01*
X61618540Y-23644944D02*
X61618540Y-22440816D01*
X59798540Y-23644944D02*
X59798540Y-22440816D01*
X59818860Y-27256656D02*
X59818860Y-28460784D01*
X61638860Y-27256656D02*
X61638860Y-28460784D01*
X59768060Y-17330336D02*
X59768060Y-18534464D01*
X61588060Y-17330336D02*
X61588060Y-18534464D01*
X61598220Y-13825304D02*
X61598220Y-12621176D01*
X59778220Y-13825304D02*
X59778220Y-12621176D01*
X36029900Y-66970760D02*
X32429900Y-66970760D01*
X36029900Y-66970760D02*
X38229900Y-66970760D01*
X36029900Y-72190760D02*
X33829900Y-72190760D01*
X36029900Y-72190760D02*
X38229900Y-72190760D01*
X24973060Y-80170698D02*
X24973060Y-79653542D01*
X23553060Y-80170698D02*
X23553060Y-79653542D01*
X57284401Y-65766220D02*
X57609959Y-65766220D01*
X57284401Y-66786220D02*
X57609959Y-66786220D01*
X42240000Y-87890000D02*
X42240000Y-88280000D01*
X42240000Y-87890000D02*
X42690000Y-87890000D01*
X47810000Y-88590000D02*
X47160000Y-88590000D01*
X47810000Y-90320000D02*
X47810000Y-88590000D01*
X40190000Y-92890000D02*
X40190000Y-92680000D01*
X47810000Y-92890000D02*
X47810000Y-92680000D01*
X40190000Y-90320000D02*
X40190000Y-88590000D01*
X40190000Y-88590000D02*
X40850000Y-88590000D01*
X-537060Y-9767880D02*
X8092940Y-9767880D01*
X-537060Y-9885975D02*
X8092940Y-9885975D01*
X-537060Y-10004070D02*
X8092940Y-10004070D01*
X-537060Y-10122165D02*
X8092940Y-10122165D01*
X-537060Y-10240260D02*
X8092940Y-10240260D01*
X-537060Y-10358355D02*
X8092940Y-10358355D01*
X-537060Y-10476450D02*
X8092940Y-10476450D01*
X-537060Y-10594545D02*
X8092940Y-10594545D01*
X-537060Y-10712640D02*
X8092940Y-10712640D01*
X-537060Y-10830735D02*
X8092940Y-10830735D01*
X-537060Y-10948830D02*
X8092940Y-10948830D01*
X-537060Y-11066925D02*
X8092940Y-11066925D01*
X-537060Y-11185020D02*
X8092940Y-11185020D01*
X-537060Y-11303115D02*
X8092940Y-11303115D01*
X-537060Y-11421210D02*
X8092940Y-11421210D01*
X-537060Y-11539305D02*
X8092940Y-11539305D01*
X-537060Y-11657400D02*
X8092940Y-11657400D01*
X-537060Y-11775495D02*
X8092940Y-11775495D01*
X-537060Y-11893590D02*
X8092940Y-11893590D01*
X-537060Y-12011685D02*
X8092940Y-12011685D01*
X-537060Y-12129780D02*
X8092940Y-12129780D01*
X8092940Y-10617880D02*
X8502940Y-10617880D01*
X10602940Y-10617880D02*
X10982940Y-10617880D01*
X8092940Y-11337880D02*
X8502940Y-11337880D01*
X10602940Y-11337880D02*
X10982940Y-11337880D01*
X8092940Y-13157880D02*
X8502940Y-13157880D01*
X10602940Y-13157880D02*
X11042940Y-13157880D01*
X8092940Y-13877880D02*
X8502940Y-13877880D01*
X10602940Y-13877880D02*
X11042940Y-13877880D01*
X8092940Y-15697880D02*
X8502940Y-15697880D01*
X10602940Y-15697880D02*
X11042940Y-15697880D01*
X8092940Y-16417880D02*
X8502940Y-16417880D01*
X10602940Y-16417880D02*
X11042940Y-16417880D01*
X8092940Y-18237880D02*
X8502940Y-18237880D01*
X10602940Y-18237880D02*
X11042940Y-18237880D01*
X8092940Y-18957880D02*
X8502940Y-18957880D01*
X10602940Y-18957880D02*
X11042940Y-18957880D01*
X8092940Y-20777880D02*
X8502940Y-20777880D01*
X10602940Y-20777880D02*
X11042940Y-20777880D01*
X8092940Y-21497880D02*
X8502940Y-21497880D01*
X10602940Y-21497880D02*
X11042940Y-21497880D01*
X8092940Y-23317880D02*
X8502940Y-23317880D01*
X10602940Y-23317880D02*
X11042940Y-23317880D01*
X8092940Y-24037880D02*
X8502940Y-24037880D01*
X10602940Y-24037880D02*
X11042940Y-24037880D01*
X8092940Y-25857880D02*
X8502940Y-25857880D01*
X10602940Y-25857880D02*
X11042940Y-25857880D01*
X8092940Y-26577880D02*
X8502940Y-26577880D01*
X10602940Y-26577880D02*
X11042940Y-26577880D01*
X8092940Y-28397880D02*
X8502940Y-28397880D01*
X10602940Y-28397880D02*
X11042940Y-28397880D01*
X8092940Y-29117880D02*
X8502940Y-29117880D01*
X10602940Y-29117880D02*
X11042940Y-29117880D01*
X8092940Y-30937880D02*
X8502940Y-30937880D01*
X10602940Y-30937880D02*
X11042940Y-30937880D01*
X8092940Y-31657880D02*
X8502940Y-31657880D01*
X10602940Y-31657880D02*
X11042940Y-31657880D01*
X8092940Y-33477880D02*
X8502940Y-33477880D01*
X10602940Y-33477880D02*
X11042940Y-33477880D01*
X8092940Y-34197880D02*
X8502940Y-34197880D01*
X10602940Y-34197880D02*
X11042940Y-34197880D01*
X8092940Y-36017880D02*
X8502940Y-36017880D01*
X10602940Y-36017880D02*
X11042940Y-36017880D01*
X8092940Y-36737880D02*
X8502940Y-36737880D01*
X10602940Y-36737880D02*
X11042940Y-36737880D01*
X8092940Y-38557880D02*
X8502940Y-38557880D01*
X10602940Y-38557880D02*
X11042940Y-38557880D01*
X8092940Y-39277880D02*
X8502940Y-39277880D01*
X10602940Y-39277880D02*
X11042940Y-39277880D01*
X8092940Y-41097880D02*
X8502940Y-41097880D01*
X10602940Y-41097880D02*
X11042940Y-41097880D01*
X8092940Y-41817880D02*
X8502940Y-41817880D01*
X10602940Y-41817880D02*
X11042940Y-41817880D01*
X8092940Y-43637880D02*
X8502940Y-43637880D01*
X10602940Y-43637880D02*
X11042940Y-43637880D01*
X8092940Y-44357880D02*
X8502940Y-44357880D01*
X10602940Y-44357880D02*
X11042940Y-44357880D01*
X8092940Y-46177880D02*
X8502940Y-46177880D01*
X10602940Y-46177880D02*
X11042940Y-46177880D01*
X8092940Y-46897880D02*
X8502940Y-46897880D01*
X10602940Y-46897880D02*
X11042940Y-46897880D01*
X8092940Y-48717880D02*
X8502940Y-48717880D01*
X10602940Y-48717880D02*
X11042940Y-48717880D01*
X8092940Y-49437880D02*
X8502940Y-49437880D01*
X10602940Y-49437880D02*
X11042940Y-49437880D01*
X8092940Y-51257880D02*
X8502940Y-51257880D01*
X10602940Y-51257880D02*
X11042940Y-51257880D01*
X8092940Y-51977880D02*
X8502940Y-51977880D01*
X10602940Y-51977880D02*
X11042940Y-51977880D01*
X8092940Y-53797880D02*
X8502940Y-53797880D01*
X10602940Y-53797880D02*
X11042940Y-53797880D01*
X8092940Y-54517880D02*
X8502940Y-54517880D01*
X10602940Y-54517880D02*
X11042940Y-54517880D01*
X8092940Y-56337880D02*
X8502940Y-56337880D01*
X10602940Y-56337880D02*
X11042940Y-56337880D01*
X8092940Y-57057880D02*
X8502940Y-57057880D01*
X10602940Y-57057880D02*
X11042940Y-57057880D01*
X8092940Y-58877880D02*
X8502940Y-58877880D01*
X10602940Y-58877880D02*
X11042940Y-58877880D01*
X8092940Y-59597880D02*
X8502940Y-59597880D01*
X10602940Y-59597880D02*
X11042940Y-59597880D01*
X-537060Y-12247880D02*
X8092940Y-12247880D01*
X-537060Y-14787880D02*
X8092940Y-14787880D01*
X-537060Y-17327880D02*
X8092940Y-17327880D01*
X-537060Y-19867880D02*
X8092940Y-19867880D01*
X-537060Y-22407880D02*
X8092940Y-22407880D01*
X-537060Y-24947880D02*
X8092940Y-24947880D01*
X-537060Y-27487880D02*
X8092940Y-27487880D01*
X-537060Y-30027880D02*
X8092940Y-30027880D01*
X-537060Y-32567880D02*
X8092940Y-32567880D01*
X-537060Y-35107880D02*
X8092940Y-35107880D01*
X-537060Y-37647880D02*
X8092940Y-37647880D01*
X-537060Y-40187880D02*
X8092940Y-40187880D01*
X-537060Y-42727880D02*
X8092940Y-42727880D01*
X-537060Y-45267880D02*
X8092940Y-45267880D01*
X-537060Y-47807880D02*
X8092940Y-47807880D01*
X-537060Y-50347880D02*
X8092940Y-50347880D01*
X-537060Y-52887880D02*
X8092940Y-52887880D01*
X-537060Y-55427880D02*
X8092940Y-55427880D01*
X-537060Y-57967880D02*
X8092940Y-57967880D01*
X-537060Y-9647880D02*
X8092940Y-9647880D01*
X8092940Y-9647880D02*
X8092940Y-60567880D01*
X-537060Y-60567880D02*
X8092940Y-60567880D01*
X-537060Y-9647880D02*
X-537060Y-60567880D01*
X13202940Y-9647880D02*
X13202940Y-10977880D01*
X12092940Y-9647880D02*
X13202940Y-9647880D01*
X49200000Y-12950000D02*
X49200000Y-18350000D01*
X45900000Y-12950000D02*
X45900000Y-18350000D01*
X49200000Y-12950000D02*
X45900000Y-12950000D01*
X40700000Y-11200000D02*
X42200000Y-11200000D01*
X42200000Y-11200000D02*
X42200000Y-10250000D01*
X42200000Y-10250000D02*
X47325000Y-10250000D01*
X40700000Y-800000D02*
X42200000Y-800000D01*
X42200000Y-800000D02*
X42200000Y-1750000D01*
X42200000Y-1750000D02*
X43300000Y-1750000D01*
X42550000Y-17250000D02*
X42550000Y-13650000D01*
X42550000Y-13650000D02*
X29550000Y-13650000D01*
X29550000Y-13650000D02*
X29550000Y-17250000D01*
X42550000Y-23050000D02*
X42550000Y-26650000D01*
X42550000Y-26650000D02*
X29550000Y-26650000D01*
X29550000Y-26650000D02*
X29550000Y-23050000D01*
X18390000Y-490000D02*
X18390000Y-4240000D01*
X18390000Y-11010000D02*
X18390000Y-7260000D01*
X27845563Y-11010000D02*
X18390000Y-11010000D01*
X27845563Y-490000D02*
X18390000Y-490000D01*
X28910000Y-1554437D02*
X28910000Y-4240000D01*
X28910000Y-9945563D02*
X28910000Y-7260000D01*
X28910000Y-9945563D02*
X27845563Y-11010000D01*
X28910000Y-1554437D02*
X27845563Y-490000D01*
X30400000Y-8510000D02*
X29150000Y-8510000D01*
X29775000Y-9135000D02*
X29775000Y-7885000D01*
X35617580Y-82580120D02*
X37417580Y-82580120D01*
X37417580Y-79360120D02*
X34967580Y-79360120D01*
D11*
X36101280Y-72893920D02*
X35826280Y-72893920D01*
X35826280Y-72893920D02*
X35451280Y-73168920D01*
X35451280Y-73168920D02*
X35451280Y-73218920D01*
X35451280Y-73218920D02*
X34676280Y-73218920D01*
X35926280Y-76193920D02*
X35451280Y-76193920D01*
X35451280Y-76193920D02*
X35451280Y-75843920D01*
X37101280Y-75968920D02*
X37101280Y-75843920D01*
X37101280Y-75893920D02*
X37101280Y-76193920D01*
X37101280Y-76193920D02*
X36651280Y-76193920D01*
X36726280Y-72893920D02*
X37101280Y-72893920D01*
X37101280Y-72893920D02*
X37101280Y-73193920D01*
D12*
X21097779Y-47960000D02*
X20772221Y-47960000D01*
X21097779Y-46940000D02*
X20772221Y-46940000D01*
X56336180Y-71649320D02*
X56336180Y-74949320D01*
X56336180Y-74949320D02*
X60336180Y-74949320D01*
X27686020Y-38585000D02*
X29971020Y-38585000D01*
X29971020Y-38585000D02*
X29971020Y-37115000D01*
X29971020Y-37115000D02*
X27686020Y-37115000D01*
X42956380Y-75282120D02*
X40671380Y-75282120D01*
X40671380Y-75282120D02*
X40671380Y-76752120D01*
X40671380Y-76752120D02*
X42956380Y-76752120D01*
X42956380Y-73504120D02*
X40671380Y-73504120D01*
X40671380Y-73504120D02*
X40671380Y-74974120D01*
X40671380Y-74974120D02*
X42956380Y-74974120D01*
X44505880Y-76752120D02*
X46790880Y-76752120D01*
X46790880Y-76752120D02*
X46790880Y-75282120D01*
X46790880Y-75282120D02*
X44505880Y-75282120D01*
X44531380Y-74974120D02*
X46816380Y-74974120D01*
X46816380Y-74974120D02*
X46816380Y-73504120D01*
X46816380Y-73504120D02*
X44531380Y-73504120D01*
X43526380Y-70721120D02*
X43526380Y-68436120D01*
X43526380Y-68436120D02*
X42056380Y-68436120D01*
X42056380Y-68436120D02*
X42056380Y-70721120D01*
X16600000Y-39490000D02*
X22610000Y-39490000D01*
X18850000Y-46310000D02*
X22610000Y-46310000D01*
X22610000Y-39490000D02*
X22610000Y-40750000D01*
X22610000Y-46310000D02*
X22610000Y-45050000D01*
X70853980Y-21893440D02*
X70853980Y-22743440D01*
X62683980Y-21893440D02*
X70853980Y-21893440D01*
X62683980Y-22743440D02*
X62683980Y-21893440D01*
X70853980Y-27113440D02*
X68528980Y-27113440D01*
X70853980Y-26263440D02*
X70853980Y-27113440D01*
X65008980Y-27113440D02*
X65008980Y-29503440D01*
X62683980Y-27113440D02*
X65008980Y-27113440D01*
X62683980Y-26263440D02*
X62683980Y-27113440D01*
D13*
X56658134Y-23739668D02*
X56388726Y-23470260D01*
X56837739Y-23560063D02*
X56658134Y-23739668D01*
X56568332Y-23290655D02*
X56837739Y-23560063D01*
X56388726Y-23470260D02*
X56568332Y-23290655D01*
X57718794Y-28935912D02*
X57898399Y-29115517D01*
X57449387Y-29205319D02*
X57718794Y-28935912D01*
X57628992Y-29384924D02*
X57449387Y-29205319D01*
X57898399Y-29115517D02*
X57628992Y-29384924D01*
X52253141Y-30973087D02*
X51983733Y-30703679D01*
X52073536Y-31152692D02*
X52253141Y-30973087D01*
X51804128Y-30883284D02*
X52073536Y-31152692D01*
X51983733Y-30703679D02*
X51804128Y-30883284D01*
X49778267Y-25238027D02*
X49598661Y-25058422D01*
X49508859Y-25507435D02*
X49778267Y-25238027D01*
X49329254Y-25327830D02*
X49508859Y-25507435D01*
X49598661Y-25058422D02*
X49329254Y-25327830D01*
X54460842Y-22153033D02*
X53967380Y-21659571D01*
X58682467Y-27361582D02*
X59175929Y-26868120D01*
X53473918Y-31583207D02*
X53967380Y-32076669D01*
X49252293Y-26374658D02*
X48758831Y-26868120D01*
X53967380Y-21659571D02*
X53473918Y-22153033D01*
X59175929Y-26868120D02*
X58682467Y-26374658D01*
X53967380Y-32076669D02*
X54460842Y-31583207D01*
X48758831Y-26868120D02*
X49252293Y-27361582D01*
D12*
X62836380Y-19457760D02*
X62836380Y-18607760D01*
X71006380Y-19457760D02*
X62836380Y-19457760D01*
X71006380Y-18607760D02*
X71006380Y-19457760D01*
X62836380Y-14237760D02*
X65161380Y-14237760D01*
X62836380Y-15087760D02*
X62836380Y-14237760D01*
X68681380Y-14237760D02*
X68681380Y-11847760D01*
X71006380Y-14237760D02*
X68681380Y-14237760D01*
X71006380Y-15087760D02*
X71006380Y-14237760D01*
X58668380Y-79009120D02*
X60128380Y-79009120D01*
X58668380Y-82169120D02*
X60828380Y-82169120D01*
X58668380Y-82169120D02*
X58668380Y-81239120D01*
X58668380Y-79009120D02*
X58668380Y-79939120D01*
D10*
X54315180Y-75003720D02*
X55440180Y-75003720D01*
X54315180Y-65323720D02*
X50165180Y-65323720D01*
X54315180Y-75483720D02*
X50165180Y-75483720D01*
X54315180Y-65323720D02*
X54315180Y-65803720D01*
X50165180Y-65323720D02*
X50165180Y-65803720D01*
X50165180Y-75483720D02*
X50165180Y-75003720D01*
X54315180Y-75483720D02*
X54315180Y-75003720D01*
D12*
X64170000Y-54770000D02*
X65500000Y-54770000D01*
X64170000Y-56100000D02*
X64170000Y-54770000D01*
X66770000Y-54770000D02*
X69370000Y-54770000D01*
X66770000Y-57370000D02*
X66770000Y-54770000D01*
X64170000Y-57370000D02*
X66770000Y-57370000D01*
X69370000Y-54770000D02*
X69370000Y-80290000D01*
X64170000Y-57370000D02*
X64170000Y-80290000D01*
X64170000Y-80290000D02*
X69370000Y-80290000D01*
X15886060Y-30862400D02*
X17586060Y-30862400D01*
X17586060Y-30862400D02*
X17586060Y-28312400D01*
X15886060Y-30862400D02*
X15886060Y-28312400D01*
D10*
X34807142Y-88297380D02*
X34473809Y-87821190D01*
X34235714Y-88297380D02*
X34235714Y-87297380D01*
X34616666Y-87297380D01*
X34711904Y-87345000D01*
X34759523Y-87392619D01*
X34807142Y-87487857D01*
X34807142Y-87630714D01*
X34759523Y-87725952D01*
X34711904Y-87773571D01*
X34616666Y-87821190D01*
X34235714Y-87821190D01*
X35711904Y-87297380D02*
X35235714Y-87297380D01*
X35188095Y-87773571D01*
X35235714Y-87725952D01*
X35330952Y-87678333D01*
X35569047Y-87678333D01*
X35664285Y-87725952D01*
X35711904Y-87773571D01*
X35759523Y-87868809D01*
X35759523Y-88106904D01*
X35711904Y-88202142D01*
X35664285Y-88249761D01*
X35569047Y-88297380D01*
X35330952Y-88297380D01*
X35235714Y-88249761D01*
X35188095Y-88202142D01*
X36092857Y-87297380D02*
X36759523Y-87297380D01*
X36330952Y-88297380D01*
X52382142Y-4197380D02*
X52048809Y-3721190D01*
X51810714Y-4197380D02*
X51810714Y-3197380D01*
X52191666Y-3197380D01*
X52286904Y-3245000D01*
X52334523Y-3292619D01*
X52382142Y-3387857D01*
X52382142Y-3530714D01*
X52334523Y-3625952D01*
X52286904Y-3673571D01*
X52191666Y-3721190D01*
X51810714Y-3721190D01*
X53286904Y-3197380D02*
X52810714Y-3197380D01*
X52763095Y-3673571D01*
X52810714Y-3625952D01*
X52905952Y-3578333D01*
X53144047Y-3578333D01*
X53239285Y-3625952D01*
X53286904Y-3673571D01*
X53334523Y-3768809D01*
X53334523Y-4006904D01*
X53286904Y-4102142D01*
X53239285Y-4149761D01*
X53144047Y-4197380D01*
X52905952Y-4197380D01*
X52810714Y-4149761D01*
X52763095Y-4102142D01*
X54191666Y-3197380D02*
X54001190Y-3197380D01*
X53905952Y-3245000D01*
X53858333Y-3292619D01*
X53763095Y-3435476D01*
X53715476Y-3625952D01*
X53715476Y-4006904D01*
X53763095Y-4102142D01*
X53810714Y-4149761D01*
X53905952Y-4197380D01*
X54096428Y-4197380D01*
X54191666Y-4149761D01*
X54239285Y-4102142D01*
X54286904Y-4006904D01*
X54286904Y-3768809D01*
X54239285Y-3673571D01*
X54191666Y-3625952D01*
X54096428Y-3578333D01*
X53905952Y-3578333D01*
X53810714Y-3625952D01*
X53763095Y-3673571D01*
X53715476Y-3768809D01*
X8590476Y-77102380D02*
X8590476Y-77816666D01*
X8542857Y-77959523D01*
X8447619Y-78054761D01*
X8304761Y-78102380D01*
X8209523Y-78102380D01*
X9590476Y-78102380D02*
X9019047Y-78102380D01*
X9304761Y-78102380D02*
X9304761Y-77102380D01*
X9209523Y-77245238D01*
X9114285Y-77340476D01*
X9019047Y-77388095D01*
X10495238Y-77102380D02*
X10019047Y-77102380D01*
X9971428Y-77578571D01*
X10019047Y-77530952D01*
X10114285Y-77483333D01*
X10352380Y-77483333D01*
X10447619Y-77530952D01*
X10495238Y-77578571D01*
X10542857Y-77673809D01*
X10542857Y-77911904D01*
X10495238Y-78007142D01*
X10447619Y-78054761D01*
X10352380Y-78102380D01*
X10114285Y-78102380D01*
X10019047Y-78054761D01*
X9971428Y-78007142D01*
X12713095Y-92552380D02*
X12713095Y-91552380D01*
X12713095Y-92028571D02*
X13284523Y-92028571D01*
X13284523Y-92552380D02*
X13284523Y-91552380D01*
X14189285Y-91885714D02*
X14189285Y-92552380D01*
X13951190Y-91504761D02*
X13713095Y-92219047D01*
X14332142Y-92219047D01*
X12738095Y-1452380D02*
X12738095Y-452380D01*
X12738095Y-928571D02*
X13309523Y-928571D01*
X13309523Y-1452380D02*
X13309523Y-452380D01*
X13690476Y-452380D02*
X14309523Y-452380D01*
X13976190Y-833333D01*
X14119047Y-833333D01*
X14214285Y-880952D01*
X14261904Y-928571D01*
X14309523Y-1023809D01*
X14309523Y-1261904D01*
X14261904Y-1357142D01*
X14214285Y-1404761D01*
X14119047Y-1452380D01*
X13833333Y-1452380D01*
X13738095Y-1404761D01*
X13690476Y-1357142D01*
X66238095Y-92502380D02*
X66238095Y-91502380D01*
X66238095Y-91978571D02*
X66809523Y-91978571D01*
X66809523Y-92502380D02*
X66809523Y-91502380D01*
X67238095Y-91597619D02*
X67285714Y-91550000D01*
X67380952Y-91502380D01*
X67619047Y-91502380D01*
X67714285Y-91550000D01*
X67761904Y-91597619D01*
X67809523Y-91692857D01*
X67809523Y-91788095D01*
X67761904Y-91930952D01*
X67190476Y-92502380D01*
X67809523Y-92502380D01*
X66159475Y-1452380D02*
X66159475Y-452380D01*
X66159475Y-928571D02*
X66730903Y-928571D01*
X66730903Y-1452380D02*
X66730903Y-452380D01*
X67730903Y-1452380D02*
X67159475Y-1452380D01*
X67445189Y-1452380D02*
X67445189Y-452380D01*
X67349951Y-595238D01*
X67254713Y-690476D01*
X67159475Y-738095D01*
X58762519Y-41067978D02*
X58714900Y-41163216D01*
X58619661Y-41258454D01*
X58476804Y-41401311D01*
X58429185Y-41496549D01*
X58429185Y-41591787D01*
X58667280Y-41544168D02*
X58619661Y-41639406D01*
X58524423Y-41734644D01*
X58333947Y-41782263D01*
X58000614Y-41782263D01*
X57810138Y-41734644D01*
X57714900Y-41639406D01*
X57667280Y-41544168D01*
X57667280Y-41353692D01*
X57714900Y-41258454D01*
X57810138Y-41163216D01*
X58000614Y-41115597D01*
X58333947Y-41115597D01*
X58524423Y-41163216D01*
X58619661Y-41258454D01*
X58667280Y-41353692D01*
X58667280Y-41544168D01*
X57667280Y-40782263D02*
X57667280Y-40163216D01*
X58048233Y-40496549D01*
X58048233Y-40353692D01*
X58095852Y-40258454D01*
X58143471Y-40210835D01*
X58238709Y-40163216D01*
X58476804Y-40163216D01*
X58572042Y-40210835D01*
X58619661Y-40258454D01*
X58667280Y-40353692D01*
X58667280Y-40639406D01*
X58619661Y-40734644D01*
X58572042Y-40782263D01*
D14*
X30278571Y-57228571D02*
X30254761Y-57252380D01*
X30183333Y-57276190D01*
X30135714Y-57276190D01*
X30064285Y-57252380D01*
X30016666Y-57204761D01*
X29992857Y-57157142D01*
X29969047Y-57061904D01*
X29969047Y-56990476D01*
X29992857Y-56895238D01*
X30016666Y-56847619D01*
X30064285Y-56800000D01*
X30135714Y-56776190D01*
X30183333Y-56776190D01*
X30254761Y-56800000D01*
X30278571Y-56823809D01*
X30754761Y-57276190D02*
X30469047Y-57276190D01*
X30611904Y-57276190D02*
X30611904Y-56776190D01*
X30564285Y-56847619D01*
X30516666Y-56895238D01*
X30469047Y-56919047D01*
X31183333Y-56776190D02*
X31088095Y-56776190D01*
X31040476Y-56800000D01*
X31016666Y-56823809D01*
X30969047Y-56895238D01*
X30945238Y-56990476D01*
X30945238Y-57180952D01*
X30969047Y-57228571D01*
X30992857Y-57252380D01*
X31040476Y-57276190D01*
X31135714Y-57276190D01*
X31183333Y-57252380D01*
X31207142Y-57228571D01*
X31230952Y-57180952D01*
X31230952Y-57061904D01*
X31207142Y-57014285D01*
X31183333Y-56990476D01*
X31135714Y-56966666D01*
X31040476Y-56966666D01*
X30992857Y-56990476D01*
X30969047Y-57014285D01*
X30945238Y-57061904D01*
D10*
X22372380Y-31113333D02*
X23086666Y-31113333D01*
X23229523Y-31160952D01*
X23324761Y-31256190D01*
X23372380Y-31399047D01*
X23372380Y-31494285D01*
X22372380Y-30160952D02*
X22372380Y-30637142D01*
X22848571Y-30684761D01*
X22800952Y-30637142D01*
X22753333Y-30541904D01*
X22753333Y-30303809D01*
X22800952Y-30208571D01*
X22848571Y-30160952D01*
X22943809Y-30113333D01*
X23181904Y-30113333D01*
X23277142Y-30160952D01*
X23324761Y-30208571D01*
X23372380Y-30303809D01*
X23372380Y-30541904D01*
X23324761Y-30637142D01*
X23277142Y-30684761D01*
D14*
X31883651Y-40896610D02*
X31716984Y-40658515D01*
X31597937Y-40896610D02*
X31597937Y-40396610D01*
X31788413Y-40396610D01*
X31836032Y-40420420D01*
X31859841Y-40444229D01*
X31883651Y-40491848D01*
X31883651Y-40563277D01*
X31859841Y-40610896D01*
X31836032Y-40634705D01*
X31788413Y-40658515D01*
X31597937Y-40658515D01*
X32336032Y-40396610D02*
X32097937Y-40396610D01*
X32074127Y-40634705D01*
X32097937Y-40610896D01*
X32145556Y-40587086D01*
X32264603Y-40587086D01*
X32312222Y-40610896D01*
X32336032Y-40634705D01*
X32359841Y-40682324D01*
X32359841Y-40801372D01*
X32336032Y-40848991D01*
X32312222Y-40872800D01*
X32264603Y-40896610D01*
X32145556Y-40896610D01*
X32097937Y-40872800D01*
X32074127Y-40848991D01*
X32526508Y-40396610D02*
X32836032Y-40396610D01*
X32669365Y-40587086D01*
X32740794Y-40587086D01*
X32788413Y-40610896D01*
X32812222Y-40634705D01*
X32836032Y-40682324D01*
X32836032Y-40801372D01*
X32812222Y-40848991D01*
X32788413Y-40872800D01*
X32740794Y-40896610D01*
X32597937Y-40896610D01*
X32550318Y-40872800D01*
X32526508Y-40848991D01*
X31595238Y-39226190D02*
X31595238Y-38726190D01*
X31785714Y-38726190D01*
X31833333Y-38750000D01*
X31857142Y-38773809D01*
X31880952Y-38821428D01*
X31880952Y-38892857D01*
X31857142Y-38940476D01*
X31833333Y-38964285D01*
X31785714Y-38988095D01*
X31595238Y-38988095D01*
X32047619Y-38726190D02*
X32166666Y-39226190D01*
X32261904Y-38869047D01*
X32357142Y-39226190D01*
X32476190Y-38726190D01*
X32952380Y-39226190D02*
X32785714Y-38988095D01*
X32666666Y-39226190D02*
X32666666Y-38726190D01*
X32857142Y-38726190D01*
X32904761Y-38750000D01*
X32928571Y-38773809D01*
X32952380Y-38821428D01*
X32952380Y-38892857D01*
X32928571Y-38940476D01*
X32904761Y-38964285D01*
X32857142Y-38988095D01*
X32666666Y-38988095D01*
X33142857Y-38773809D02*
X33166666Y-38750000D01*
X33214285Y-38726190D01*
X33333333Y-38726190D01*
X33380952Y-38750000D01*
X33404761Y-38773809D01*
X33428571Y-38821428D01*
X33428571Y-38869047D01*
X33404761Y-38940476D01*
X33119047Y-39226190D01*
X33428571Y-39226190D01*
D10*
X35807142Y-45692857D02*
X35854761Y-45740476D01*
X35902380Y-45883333D01*
X35902380Y-45978571D01*
X35854761Y-46121428D01*
X35759523Y-46216666D01*
X35664285Y-46264285D01*
X35473809Y-46311904D01*
X35330952Y-46311904D01*
X35140476Y-46264285D01*
X35045238Y-46216666D01*
X34950000Y-46121428D01*
X34902380Y-45978571D01*
X34902380Y-45883333D01*
X34950000Y-45740476D01*
X34997619Y-45692857D01*
X35902380Y-44740476D02*
X35902380Y-45311904D01*
X35902380Y-45026190D02*
X34902380Y-45026190D01*
X35045238Y-45121428D01*
X35140476Y-45216666D01*
X35188095Y-45311904D01*
X34902380Y-44407142D02*
X34902380Y-43788095D01*
X35283333Y-44121428D01*
X35283333Y-43978571D01*
X35330952Y-43883333D01*
X35378571Y-43835714D01*
X35473809Y-43788095D01*
X35711904Y-43788095D01*
X35807142Y-43835714D01*
X35854761Y-43883333D01*
X35902380Y-43978571D01*
X35902380Y-44264285D01*
X35854761Y-44359523D01*
X35807142Y-44407142D01*
D14*
X37268571Y-40171428D02*
X37292380Y-40195238D01*
X37316190Y-40266666D01*
X37316190Y-40314285D01*
X37292380Y-40385714D01*
X37244761Y-40433333D01*
X37197142Y-40457142D01*
X37101904Y-40480952D01*
X37030476Y-40480952D01*
X36935238Y-40457142D01*
X36887619Y-40433333D01*
X36840000Y-40385714D01*
X36816190Y-40314285D01*
X36816190Y-40266666D01*
X36840000Y-40195238D01*
X36863809Y-40171428D01*
X37316190Y-39695238D02*
X37316190Y-39980952D01*
X37316190Y-39838095D02*
X36816190Y-39838095D01*
X36887619Y-39885714D01*
X36935238Y-39933333D01*
X36959047Y-39980952D01*
X36982857Y-39266666D02*
X37316190Y-39266666D01*
X36792380Y-39385714D02*
X37149523Y-39504761D01*
X37149523Y-39195238D01*
X40928571Y-40271428D02*
X40952380Y-40295238D01*
X40976190Y-40366666D01*
X40976190Y-40414285D01*
X40952380Y-40485714D01*
X40904761Y-40533333D01*
X40857142Y-40557142D01*
X40761904Y-40580952D01*
X40690476Y-40580952D01*
X40595238Y-40557142D01*
X40547619Y-40533333D01*
X40500000Y-40485714D01*
X40476190Y-40414285D01*
X40476190Y-40366666D01*
X40500000Y-40295238D01*
X40523809Y-40271428D01*
X40976190Y-39795238D02*
X40976190Y-40080952D01*
X40976190Y-39938095D02*
X40476190Y-39938095D01*
X40547619Y-39985714D01*
X40595238Y-40033333D01*
X40619047Y-40080952D01*
X40476190Y-39342857D02*
X40476190Y-39580952D01*
X40714285Y-39604761D01*
X40690476Y-39580952D01*
X40666666Y-39533333D01*
X40666666Y-39414285D01*
X40690476Y-39366666D01*
X40714285Y-39342857D01*
X40761904Y-39319047D01*
X40880952Y-39319047D01*
X40928571Y-39342857D01*
X40952380Y-39366666D01*
X40976190Y-39414285D01*
X40976190Y-39533333D01*
X40952380Y-39580952D01*
X40928571Y-39604761D01*
X39776190Y-40171428D02*
X39538095Y-40338095D01*
X39776190Y-40457142D02*
X39276190Y-40457142D01*
X39276190Y-40266666D01*
X39300000Y-40219047D01*
X39323809Y-40195238D01*
X39371428Y-40171428D01*
X39442857Y-40171428D01*
X39490476Y-40195238D01*
X39514285Y-40219047D01*
X39538095Y-40266666D01*
X39538095Y-40457142D01*
X39776190Y-39695238D02*
X39776190Y-39980952D01*
X39776190Y-39838095D02*
X39276190Y-39838095D01*
X39347619Y-39885714D01*
X39395238Y-39933333D01*
X39419047Y-39980952D01*
X39776190Y-39219047D02*
X39776190Y-39504761D01*
X39776190Y-39361904D02*
X39276190Y-39361904D01*
X39347619Y-39409523D01*
X39395238Y-39457142D01*
X39419047Y-39504761D01*
X38576190Y-39733333D02*
X38338095Y-39900000D01*
X38576190Y-40019047D02*
X38076190Y-40019047D01*
X38076190Y-39828571D01*
X38100000Y-39780952D01*
X38123809Y-39757142D01*
X38171428Y-39733333D01*
X38242857Y-39733333D01*
X38290476Y-39757142D01*
X38314285Y-39780952D01*
X38338095Y-39828571D01*
X38338095Y-40019047D01*
X38076190Y-39566666D02*
X38076190Y-39233333D01*
X38576190Y-39447619D01*
X34876190Y-39733333D02*
X34638095Y-39900000D01*
X34876190Y-40019047D02*
X34376190Y-40019047D01*
X34376190Y-39828571D01*
X34400000Y-39780952D01*
X34423809Y-39757142D01*
X34471428Y-39733333D01*
X34542857Y-39733333D01*
X34590476Y-39757142D01*
X34614285Y-39780952D01*
X34638095Y-39828571D01*
X34638095Y-40019047D01*
X34376190Y-39304761D02*
X34376190Y-39400000D01*
X34400000Y-39447619D01*
X34423809Y-39471428D01*
X34495238Y-39519047D01*
X34590476Y-39542857D01*
X34780952Y-39542857D01*
X34828571Y-39519047D01*
X34852380Y-39495238D01*
X34876190Y-39447619D01*
X34876190Y-39352380D01*
X34852380Y-39304761D01*
X34828571Y-39280952D01*
X34780952Y-39257142D01*
X34661904Y-39257142D01*
X34614285Y-39280952D01*
X34590476Y-39304761D01*
X34566666Y-39352380D01*
X34566666Y-39447619D01*
X34590476Y-39495238D01*
X34614285Y-39519047D01*
X34661904Y-39542857D01*
D10*
X28357142Y-45692857D02*
X28404761Y-45740476D01*
X28452380Y-45883333D01*
X28452380Y-45978571D01*
X28404761Y-46121428D01*
X28309523Y-46216666D01*
X28214285Y-46264285D01*
X28023809Y-46311904D01*
X27880952Y-46311904D01*
X27690476Y-46264285D01*
X27595238Y-46216666D01*
X27500000Y-46121428D01*
X27452380Y-45978571D01*
X27452380Y-45883333D01*
X27500000Y-45740476D01*
X27547619Y-45692857D01*
X28452380Y-44740476D02*
X28452380Y-45311904D01*
X28452380Y-45026190D02*
X27452380Y-45026190D01*
X27595238Y-45121428D01*
X27690476Y-45216666D01*
X27738095Y-45311904D01*
X27547619Y-44359523D02*
X27500000Y-44311904D01*
X27452380Y-44216666D01*
X27452380Y-43978571D01*
X27500000Y-43883333D01*
X27547619Y-43835714D01*
X27642857Y-43788095D01*
X27738095Y-43788095D01*
X27880952Y-43835714D01*
X28452380Y-44407142D01*
X28452380Y-43788095D01*
D14*
X36096190Y-40171428D02*
X35858095Y-40338095D01*
X36096190Y-40457142D02*
X35596190Y-40457142D01*
X35596190Y-40266666D01*
X35620000Y-40219047D01*
X35643809Y-40195238D01*
X35691428Y-40171428D01*
X35762857Y-40171428D01*
X35810476Y-40195238D01*
X35834285Y-40219047D01*
X35858095Y-40266666D01*
X35858095Y-40457142D01*
X36096190Y-39695238D02*
X36096190Y-39980952D01*
X36096190Y-39838095D02*
X35596190Y-39838095D01*
X35667619Y-39885714D01*
X35715238Y-39933333D01*
X35739047Y-39980952D01*
X35596190Y-39385714D02*
X35596190Y-39338095D01*
X35620000Y-39290476D01*
X35643809Y-39266666D01*
X35691428Y-39242857D01*
X35786666Y-39219047D01*
X35905714Y-39219047D01*
X36000952Y-39242857D01*
X36048571Y-39266666D01*
X36072380Y-39290476D01*
X36096190Y-39338095D01*
X36096190Y-39385714D01*
X36072380Y-39433333D01*
X36048571Y-39457142D01*
X36000952Y-39480952D01*
X35905714Y-39504761D01*
X35786666Y-39504761D01*
X35691428Y-39480952D01*
X35643809Y-39457142D01*
X35620000Y-39433333D01*
X35596190Y-39385714D01*
D10*
X30452380Y-54388095D02*
X31261904Y-54388095D01*
X31357142Y-54340476D01*
X31404761Y-54292857D01*
X31452380Y-54197619D01*
X31452380Y-54007142D01*
X31404761Y-53911904D01*
X31357142Y-53864285D01*
X31261904Y-53816666D01*
X30452380Y-53816666D01*
X31452380Y-52816666D02*
X31452380Y-53388095D01*
X31452380Y-53102380D02*
X30452380Y-53102380D01*
X30595238Y-53197619D01*
X30690476Y-53292857D01*
X30738095Y-53388095D01*
X30452380Y-52483333D02*
X30452380Y-51864285D01*
X30833333Y-52197619D01*
X30833333Y-52054761D01*
X30880952Y-51959523D01*
X30928571Y-51911904D01*
X31023809Y-51864285D01*
X31261904Y-51864285D01*
X31357142Y-51911904D01*
X31404761Y-51959523D01*
X31452380Y-52054761D01*
X31452380Y-52340476D01*
X31404761Y-52435714D01*
X31357142Y-52483333D01*
X1040476Y-67422380D02*
X1040476Y-68136666D01*
X992857Y-68279523D01*
X897619Y-68374761D01*
X754761Y-68422380D01*
X659523Y-68422380D01*
X2040476Y-68422380D02*
X1469047Y-68422380D01*
X1754761Y-68422380D02*
X1754761Y-67422380D01*
X1659523Y-67565238D01*
X1564285Y-67660476D01*
X1469047Y-67708095D01*
X2992857Y-68422380D02*
X2421428Y-68422380D01*
X2707142Y-68422380D02*
X2707142Y-67422380D01*
X2611904Y-67565238D01*
X2516666Y-67660476D01*
X2421428Y-67708095D01*
X4147619Y-68952380D02*
X4147619Y-67952380D01*
X4576190Y-68047619D02*
X4623809Y-68000000D01*
X4719047Y-67952380D01*
X4957142Y-67952380D01*
X5052380Y-68000000D01*
X5100000Y-68047619D01*
X5147619Y-68142857D01*
X5147619Y-68238095D01*
X5100000Y-68380952D01*
X4528571Y-68952380D01*
X5147619Y-68952380D01*
X5528571Y-68904761D02*
X5671428Y-68952380D01*
X5909523Y-68952380D01*
X6004761Y-68904761D01*
X6052380Y-68857142D01*
X6100000Y-68761904D01*
X6100000Y-68666666D01*
X6052380Y-68571428D01*
X6004761Y-68523809D01*
X5909523Y-68476190D01*
X5719047Y-68428571D01*
X5623809Y-68380952D01*
X5576190Y-68333333D01*
X5528571Y-68238095D01*
X5528571Y-68142857D01*
X5576190Y-68047619D01*
X5623809Y-68000000D01*
X5719047Y-67952380D01*
X5957142Y-67952380D01*
X6100000Y-68000000D01*
X27066666Y-52548571D02*
X26733333Y-52548571D01*
X26733333Y-53072380D02*
X26733333Y-52072380D01*
X27209523Y-52072380D01*
X27923809Y-52548571D02*
X28066666Y-52596190D01*
X28114285Y-52643809D01*
X28161904Y-52739047D01*
X28161904Y-52881904D01*
X28114285Y-52977142D01*
X28066666Y-53024761D01*
X27971428Y-53072380D01*
X27590476Y-53072380D01*
X27590476Y-52072380D01*
X27923809Y-52072380D01*
X28019047Y-52120000D01*
X28066666Y-52167619D01*
X28114285Y-52262857D01*
X28114285Y-52358095D01*
X28066666Y-52453333D01*
X28019047Y-52500952D01*
X27923809Y-52548571D01*
X27590476Y-52548571D01*
X28638095Y-53072380D02*
X28828571Y-53072380D01*
X28923809Y-53024761D01*
X28971428Y-52977142D01*
X29066666Y-52834285D01*
X29114285Y-52643809D01*
X29114285Y-52262857D01*
X29066666Y-52167619D01*
X29019047Y-52120000D01*
X28923809Y-52072380D01*
X28733333Y-52072380D01*
X28638095Y-52120000D01*
X28590476Y-52167619D01*
X28542857Y-52262857D01*
X28542857Y-52500952D01*
X28590476Y-52596190D01*
X28638095Y-52643809D01*
X28733333Y-52691428D01*
X28923809Y-52691428D01*
X29019047Y-52643809D01*
X29066666Y-52596190D01*
X29114285Y-52500952D01*
D14*
X41978571Y-50278571D02*
X41954761Y-50302380D01*
X41883333Y-50326190D01*
X41835714Y-50326190D01*
X41764285Y-50302380D01*
X41716666Y-50254761D01*
X41692857Y-50207142D01*
X41669047Y-50111904D01*
X41669047Y-50040476D01*
X41692857Y-49945238D01*
X41716666Y-49897619D01*
X41764285Y-49850000D01*
X41835714Y-49826190D01*
X41883333Y-49826190D01*
X41954761Y-49850000D01*
X41978571Y-49873809D01*
X42454761Y-50326190D02*
X42169047Y-50326190D01*
X42311904Y-50326190D02*
X42311904Y-49826190D01*
X42264285Y-49897619D01*
X42216666Y-49945238D01*
X42169047Y-49969047D01*
X42930952Y-50326190D02*
X42645238Y-50326190D01*
X42788095Y-50326190D02*
X42788095Y-49826190D01*
X42740476Y-49897619D01*
X42692857Y-49945238D01*
X42645238Y-49969047D01*
X41928571Y-51528571D02*
X41904761Y-51552380D01*
X41833333Y-51576190D01*
X41785714Y-51576190D01*
X41714285Y-51552380D01*
X41666666Y-51504761D01*
X41642857Y-51457142D01*
X41619047Y-51361904D01*
X41619047Y-51290476D01*
X41642857Y-51195238D01*
X41666666Y-51147619D01*
X41714285Y-51100000D01*
X41785714Y-51076190D01*
X41833333Y-51076190D01*
X41904761Y-51100000D01*
X41928571Y-51123809D01*
X42404761Y-51576190D02*
X42119047Y-51576190D01*
X42261904Y-51576190D02*
X42261904Y-51076190D01*
X42214285Y-51147619D01*
X42166666Y-51195238D01*
X42119047Y-51219047D01*
X42714285Y-51076190D02*
X42761904Y-51076190D01*
X42809523Y-51100000D01*
X42833333Y-51123809D01*
X42857142Y-51171428D01*
X42880952Y-51266666D01*
X42880952Y-51385714D01*
X42857142Y-51480952D01*
X42833333Y-51528571D01*
X42809523Y-51552380D01*
X42761904Y-51576190D01*
X42714285Y-51576190D01*
X42666666Y-51552380D01*
X42642857Y-51528571D01*
X42619047Y-51480952D01*
X42595238Y-51385714D01*
X42595238Y-51266666D01*
X42619047Y-51171428D01*
X42642857Y-51123809D01*
X42666666Y-51100000D01*
X42714285Y-51076190D01*
D10*
X17477380Y-91459523D02*
X18191666Y-91459523D01*
X18334523Y-91507142D01*
X18429761Y-91602380D01*
X18477380Y-91745238D01*
X18477380Y-91840476D01*
X18477380Y-90459523D02*
X18477380Y-91030952D01*
X18477380Y-90745238D02*
X17477380Y-90745238D01*
X17620238Y-90840476D01*
X17715476Y-90935714D01*
X17763095Y-91030952D01*
X17477380Y-90126190D02*
X17477380Y-89507142D01*
X17858333Y-89840476D01*
X17858333Y-89697619D01*
X17905952Y-89602380D01*
X17953571Y-89554761D01*
X18048809Y-89507142D01*
X18286904Y-89507142D01*
X18382142Y-89554761D01*
X18429761Y-89602380D01*
X18477380Y-89697619D01*
X18477380Y-89983333D01*
X18429761Y-90078571D01*
X18382142Y-90126190D01*
X22238095Y-76832500D02*
X22238095Y-77642024D01*
X22285714Y-77737262D01*
X22333333Y-77784881D01*
X22428571Y-77832500D01*
X22619047Y-77832500D01*
X22714285Y-77784881D01*
X22761904Y-77737262D01*
X22809523Y-77642024D01*
X22809523Y-76832500D01*
X23428571Y-77261072D02*
X23333333Y-77213453D01*
X23285714Y-77165834D01*
X23238095Y-77070596D01*
X23238095Y-77022977D01*
X23285714Y-76927739D01*
X23333333Y-76880120D01*
X23428571Y-76832500D01*
X23619047Y-76832500D01*
X23714285Y-76880120D01*
X23761904Y-76927739D01*
X23809523Y-77022977D01*
X23809523Y-77070596D01*
X23761904Y-77165834D01*
X23714285Y-77213453D01*
X23619047Y-77261072D01*
X23428571Y-77261072D01*
X23333333Y-77308691D01*
X23285714Y-77356310D01*
X23238095Y-77451548D01*
X23238095Y-77642024D01*
X23285714Y-77737262D01*
X23333333Y-77784881D01*
X23428571Y-77832500D01*
X23619047Y-77832500D01*
X23714285Y-77784881D01*
X23761904Y-77737262D01*
X23809523Y-77642024D01*
X23809523Y-77451548D01*
X23761904Y-77356310D01*
X23714285Y-77308691D01*
X23619047Y-77261072D01*
X62026190Y-83852380D02*
X62597619Y-83852380D01*
X62311904Y-84852380D02*
X62311904Y-83852380D01*
X62930952Y-84852380D02*
X62930952Y-83852380D01*
X63311904Y-83852380D01*
X63407142Y-83900000D01*
X63454761Y-83947619D01*
X63502380Y-84042857D01*
X63502380Y-84185714D01*
X63454761Y-84280952D01*
X63407142Y-84328571D01*
X63311904Y-84376190D01*
X62930952Y-84376190D01*
X64454761Y-84852380D02*
X63883333Y-84852380D01*
X64169047Y-84852380D02*
X64169047Y-83852380D01*
X64073809Y-83995238D01*
X63978571Y-84090476D01*
X63883333Y-84138095D01*
X64645238Y-84947619D02*
X65407142Y-84947619D01*
X65835714Y-83852380D02*
X65930952Y-83852380D01*
X66026190Y-83900000D01*
X66073809Y-83947619D01*
X66121428Y-84042857D01*
X66169047Y-84233333D01*
X66169047Y-84471428D01*
X66121428Y-84661904D01*
X66073809Y-84757142D01*
X66026190Y-84804761D01*
X65930952Y-84852380D01*
X65835714Y-84852380D01*
X65740476Y-84804761D01*
X65692857Y-84757142D01*
X65645238Y-84661904D01*
X65597619Y-84471428D01*
X65597619Y-84233333D01*
X65645238Y-84042857D01*
X65692857Y-83947619D01*
X65740476Y-83900000D01*
X65835714Y-83852380D01*
X66454761Y-83852380D02*
X66788095Y-84852380D01*
X67121428Y-83852380D01*
X67978571Y-84852380D02*
X67407142Y-84852380D01*
X67692857Y-84852380D02*
X67692857Y-83852380D01*
X67597619Y-83995238D01*
X67502380Y-84090476D01*
X67407142Y-84138095D01*
X59537695Y-83574640D02*
X59537695Y-84384164D01*
X59585314Y-84479402D01*
X59632933Y-84527021D01*
X59728171Y-84574640D01*
X59918647Y-84574640D01*
X60013885Y-84527021D01*
X60061504Y-84479402D01*
X60109123Y-84384164D01*
X60109123Y-83574640D01*
X60537695Y-83669879D02*
X60585314Y-83622260D01*
X60680552Y-83574640D01*
X60918647Y-83574640D01*
X61013885Y-83622260D01*
X61061504Y-83669879D01*
X61109123Y-83765117D01*
X61109123Y-83860355D01*
X61061504Y-84003212D01*
X60490076Y-84574640D01*
X61109123Y-84574640D01*
X68261904Y-84102380D02*
X68833333Y-84102380D01*
X68547619Y-85102380D02*
X68547619Y-84102380D01*
X69166666Y-85102380D02*
X69166666Y-84102380D01*
X69547619Y-84102380D01*
X69642857Y-84150000D01*
X69690476Y-84197619D01*
X69738095Y-84292857D01*
X69738095Y-84435714D01*
X69690476Y-84530952D01*
X69642857Y-84578571D01*
X69547619Y-84626190D01*
X69166666Y-84626190D01*
X70119047Y-84197619D02*
X70166666Y-84150000D01*
X70261904Y-84102380D01*
X70500000Y-84102380D01*
X70595238Y-84150000D01*
X70642857Y-84197619D01*
X70690476Y-84292857D01*
X70690476Y-84388095D01*
X70642857Y-84530952D01*
X70071428Y-85102380D01*
X70690476Y-85102380D01*
X71595238Y-84102380D02*
X71119047Y-84102380D01*
X71071428Y-84578571D01*
X71119047Y-84530952D01*
X71214285Y-84483333D01*
X71452380Y-84483333D01*
X71547619Y-84530952D01*
X71595238Y-84578571D01*
X71642857Y-84673809D01*
X71642857Y-84911904D01*
X71595238Y-85007142D01*
X71547619Y-85054761D01*
X71452380Y-85102380D01*
X71214285Y-85102380D01*
X71119047Y-85054761D01*
X71071428Y-85007142D01*
D14*
X57920106Y-91795730D02*
X57753440Y-91557635D01*
X57634392Y-91795730D02*
X57634392Y-91295730D01*
X57824868Y-91295730D01*
X57872487Y-91319540D01*
X57896297Y-91343349D01*
X57920106Y-91390968D01*
X57920106Y-91462397D01*
X57896297Y-91510016D01*
X57872487Y-91533825D01*
X57824868Y-91557635D01*
X57634392Y-91557635D01*
X58110582Y-91343349D02*
X58134392Y-91319540D01*
X58182011Y-91295730D01*
X58301059Y-91295730D01*
X58348678Y-91319540D01*
X58372487Y-91343349D01*
X58396297Y-91390968D01*
X58396297Y-91438587D01*
X58372487Y-91510016D01*
X58086773Y-91795730D01*
X58396297Y-91795730D01*
X56439286Y-89878671D02*
X56415477Y-89902480D01*
X56344048Y-89926290D01*
X56296429Y-89926290D01*
X56225000Y-89902480D01*
X56177381Y-89854861D01*
X56153572Y-89807242D01*
X56129762Y-89712004D01*
X56129762Y-89640576D01*
X56153572Y-89545338D01*
X56177381Y-89497719D01*
X56225000Y-89450100D01*
X56296429Y-89426290D01*
X56344048Y-89426290D01*
X56415477Y-89450100D01*
X56439286Y-89473909D01*
X56677381Y-89926290D02*
X56772620Y-89926290D01*
X56820239Y-89902480D01*
X56844048Y-89878671D01*
X56891667Y-89807242D01*
X56915477Y-89712004D01*
X56915477Y-89521528D01*
X56891667Y-89473909D01*
X56867858Y-89450100D01*
X56820239Y-89426290D01*
X56725000Y-89426290D01*
X56677381Y-89450100D01*
X56653572Y-89473909D01*
X56629762Y-89521528D01*
X56629762Y-89640576D01*
X56653572Y-89688195D01*
X56677381Y-89712004D01*
X56725000Y-89735814D01*
X56820239Y-89735814D01*
X56867858Y-89712004D01*
X56891667Y-89688195D01*
X56915477Y-89640576D01*
X60223886Y-90612731D02*
X60200077Y-90636540D01*
X60128648Y-90660350D01*
X60081029Y-90660350D01*
X60009600Y-90636540D01*
X59961981Y-90588921D01*
X59938172Y-90541302D01*
X59914362Y-90446064D01*
X59914362Y-90374636D01*
X59938172Y-90279398D01*
X59961981Y-90231779D01*
X60009600Y-90184160D01*
X60081029Y-90160350D01*
X60128648Y-90160350D01*
X60200077Y-90184160D01*
X60223886Y-90207969D01*
X60414362Y-90207969D02*
X60438172Y-90184160D01*
X60485791Y-90160350D01*
X60604839Y-90160350D01*
X60652458Y-90184160D01*
X60676267Y-90207969D01*
X60700077Y-90255588D01*
X60700077Y-90303207D01*
X60676267Y-90374636D01*
X60390553Y-90660350D01*
X60700077Y-90660350D01*
D10*
X19829875Y-62748100D02*
X19829875Y-63557624D01*
X19877494Y-63652862D01*
X19925113Y-63700481D01*
X20020351Y-63748100D01*
X20210827Y-63748100D01*
X20306065Y-63700481D01*
X20353684Y-63652862D01*
X20401303Y-63557624D01*
X20401303Y-62748100D01*
X20925113Y-63748100D02*
X21115589Y-63748100D01*
X21210827Y-63700481D01*
X21258446Y-63652862D01*
X21353684Y-63510005D01*
X21401303Y-63319529D01*
X21401303Y-62938577D01*
X21353684Y-62843339D01*
X21306065Y-62795720D01*
X21210827Y-62748100D01*
X21020351Y-62748100D01*
X20925113Y-62795720D01*
X20877494Y-62843339D01*
X20829875Y-62938577D01*
X20829875Y-63176672D01*
X20877494Y-63271910D01*
X20925113Y-63319529D01*
X21020351Y-63367148D01*
X21210827Y-63367148D01*
X21306065Y-63319529D01*
X21353684Y-63271910D01*
X21401303Y-63176672D01*
X68970566Y-50652380D02*
X68970566Y-51366666D01*
X68922947Y-51509523D01*
X68827709Y-51604761D01*
X68684852Y-51652380D01*
X68589614Y-51652380D01*
X69970566Y-51652380D02*
X69399138Y-51652380D01*
X69684852Y-51652380D02*
X69684852Y-50652380D01*
X69589614Y-50795238D01*
X69494376Y-50890476D01*
X69399138Y-50938095D01*
X17101606Y-23009551D02*
X16768273Y-23009551D01*
X16768273Y-23533360D02*
X16768273Y-22533360D01*
X17244463Y-22533360D01*
X17958749Y-23009551D02*
X18101606Y-23057170D01*
X18149225Y-23104789D01*
X18196844Y-23200027D01*
X18196844Y-23342884D01*
X18149225Y-23438122D01*
X18101606Y-23485741D01*
X18006368Y-23533360D01*
X17625416Y-23533360D01*
X17625416Y-22533360D01*
X17958749Y-22533360D01*
X18053987Y-22580980D01*
X18101606Y-22628599D01*
X18149225Y-22723837D01*
X18149225Y-22819075D01*
X18101606Y-22914313D01*
X18053987Y-22961932D01*
X17958749Y-23009551D01*
X17625416Y-23009551D01*
X19101606Y-22533360D02*
X18625416Y-22533360D01*
X18577797Y-23009551D01*
X18625416Y-22961932D01*
X18720654Y-22914313D01*
X18958749Y-22914313D01*
X19053987Y-22961932D01*
X19101606Y-23009551D01*
X19149225Y-23104789D01*
X19149225Y-23342884D01*
X19101606Y-23438122D01*
X19053987Y-23485741D01*
X18958749Y-23533360D01*
X18720654Y-23533360D01*
X18625416Y-23485741D01*
X18577797Y-23438122D01*
X1566666Y-91102380D02*
X1566666Y-91816666D01*
X1519047Y-91959523D01*
X1423809Y-92054761D01*
X1280952Y-92102380D01*
X1185714Y-92102380D01*
X2185714Y-91530952D02*
X2090476Y-91483333D01*
X2042857Y-91435714D01*
X1995238Y-91340476D01*
X1995238Y-91292857D01*
X2042857Y-91197619D01*
X2090476Y-91150000D01*
X2185714Y-91102380D01*
X2376190Y-91102380D01*
X2471428Y-91150000D01*
X2519047Y-91197619D01*
X2566666Y-91292857D01*
X2566666Y-91340476D01*
X2519047Y-91435714D01*
X2471428Y-91483333D01*
X2376190Y-91530952D01*
X2185714Y-91530952D01*
X2090476Y-91578571D01*
X2042857Y-91626190D01*
X1995238Y-91721428D01*
X1995238Y-91911904D01*
X2042857Y-92007142D01*
X2090476Y-92054761D01*
X2185714Y-92102380D01*
X2376190Y-92102380D01*
X2471428Y-92054761D01*
X2519047Y-92007142D01*
X2566666Y-91911904D01*
X2566666Y-91721428D01*
X2519047Y-91626190D01*
X2471428Y-91578571D01*
X2376190Y-91530952D01*
X4078571Y-91202380D02*
X4078571Y-90202380D01*
X4411904Y-90916666D01*
X4745238Y-90202380D01*
X4745238Y-91202380D01*
X5221428Y-91202380D02*
X5221428Y-90202380D01*
X6269047Y-91107142D02*
X6221428Y-91154761D01*
X6078571Y-91202380D01*
X5983333Y-91202380D01*
X5840476Y-91154761D01*
X5745238Y-91059523D01*
X5697619Y-90964285D01*
X5650000Y-90773809D01*
X5650000Y-90630952D01*
X5697619Y-90440476D01*
X5745238Y-90345238D01*
X5840476Y-90250000D01*
X5983333Y-90202380D01*
X6078571Y-90202380D01*
X6221428Y-90250000D01*
X6269047Y-90297619D01*
X60182522Y-6315982D02*
X60134903Y-6363601D01*
X59992046Y-6411220D01*
X59896808Y-6411220D01*
X59753951Y-6363601D01*
X59658713Y-6268363D01*
X59611094Y-6173125D01*
X59563475Y-5982649D01*
X59563475Y-5839792D01*
X59611094Y-5649316D01*
X59658713Y-5554078D01*
X59753951Y-5458840D01*
X59896808Y-5411220D01*
X59992046Y-5411220D01*
X60134903Y-5458840D01*
X60182522Y-5506459D01*
X61039665Y-5411220D02*
X60849189Y-5411220D01*
X60753951Y-5458840D01*
X60706332Y-5506459D01*
X60611094Y-5649316D01*
X60563475Y-5839792D01*
X60563475Y-6220744D01*
X60611094Y-6315982D01*
X60658713Y-6363601D01*
X60753951Y-6411220D01*
X60944427Y-6411220D01*
X61039665Y-6363601D01*
X61087284Y-6315982D01*
X61134903Y-6220744D01*
X61134903Y-5982649D01*
X61087284Y-5887411D01*
X61039665Y-5839792D01*
X60944427Y-5792173D01*
X60753951Y-5792173D01*
X60658713Y-5839792D01*
X60611094Y-5887411D01*
X60563475Y-5982649D01*
X61515856Y-5506459D02*
X61563475Y-5458840D01*
X61658713Y-5411220D01*
X61896808Y-5411220D01*
X61992046Y-5458840D01*
X62039665Y-5506459D01*
X62087284Y-5601697D01*
X62087284Y-5696935D01*
X62039665Y-5839792D01*
X61468237Y-6411220D01*
X62087284Y-6411220D01*
D14*
X16507590Y-64581553D02*
X16269495Y-64748220D01*
X16507590Y-64867267D02*
X16007590Y-64867267D01*
X16007590Y-64676791D01*
X16031400Y-64629172D01*
X16055209Y-64605362D01*
X16102828Y-64581553D01*
X16174257Y-64581553D01*
X16221876Y-64605362D01*
X16245685Y-64629172D01*
X16269495Y-64676791D01*
X16269495Y-64867267D01*
X16007590Y-64129172D02*
X16007590Y-64367267D01*
X16245685Y-64391077D01*
X16221876Y-64367267D01*
X16198066Y-64319648D01*
X16198066Y-64200600D01*
X16221876Y-64152981D01*
X16245685Y-64129172D01*
X16293304Y-64105362D01*
X16412352Y-64105362D01*
X16459971Y-64129172D01*
X16483780Y-64152981D01*
X16507590Y-64200600D01*
X16507590Y-64319648D01*
X16483780Y-64367267D01*
X16459971Y-64391077D01*
D10*
X49542534Y-80645260D02*
X49542534Y-79645260D01*
X49780629Y-79645260D01*
X49923486Y-79692880D01*
X50018724Y-79788118D01*
X50066343Y-79883356D01*
X50113962Y-80073832D01*
X50113962Y-80216689D01*
X50066343Y-80407165D01*
X50018724Y-80502403D01*
X49923486Y-80597641D01*
X49780629Y-80645260D01*
X49542534Y-80645260D01*
X51066343Y-80645260D02*
X50494915Y-80645260D01*
X50780629Y-80645260D02*
X50780629Y-79645260D01*
X50685391Y-79788118D01*
X50590153Y-79883356D01*
X50494915Y-79930975D01*
X51971105Y-79645260D02*
X51494915Y-79645260D01*
X51447296Y-80121451D01*
X51494915Y-80073832D01*
X51590153Y-80026213D01*
X51828248Y-80026213D01*
X51923486Y-80073832D01*
X51971105Y-80121451D01*
X52018724Y-80216689D01*
X52018724Y-80454784D01*
X51971105Y-80550022D01*
X51923486Y-80597641D01*
X51828248Y-80645260D01*
X51590153Y-80645260D01*
X51494915Y-80597641D01*
X51447296Y-80550022D01*
D14*
X54110391Y-80281293D02*
X54134200Y-80305102D01*
X54158010Y-80376531D01*
X54158010Y-80424150D01*
X54134200Y-80495579D01*
X54086581Y-80543198D01*
X54038962Y-80567007D01*
X53943724Y-80590817D01*
X53872296Y-80590817D01*
X53777058Y-80567007D01*
X53729439Y-80543198D01*
X53681820Y-80495579D01*
X53658010Y-80424150D01*
X53658010Y-80376531D01*
X53681820Y-80305102D01*
X53705629Y-80281293D01*
X53658010Y-79828912D02*
X53658010Y-80067007D01*
X53896105Y-80090817D01*
X53872296Y-80067007D01*
X53848486Y-80019388D01*
X53848486Y-79900340D01*
X53872296Y-79852721D01*
X53896105Y-79828912D01*
X53943724Y-79805102D01*
X54062772Y-79805102D01*
X54110391Y-79828912D01*
X54134200Y-79852721D01*
X54158010Y-79900340D01*
X54158010Y-80019388D01*
X54134200Y-80067007D01*
X54110391Y-80090817D01*
X50757591Y-84711053D02*
X50781400Y-84734862D01*
X50805210Y-84806291D01*
X50805210Y-84853910D01*
X50781400Y-84925339D01*
X50733781Y-84972958D01*
X50686162Y-84996767D01*
X50590924Y-85020577D01*
X50519496Y-85020577D01*
X50424258Y-84996767D01*
X50376639Y-84972958D01*
X50329020Y-84925339D01*
X50305210Y-84853910D01*
X50305210Y-84806291D01*
X50329020Y-84734862D01*
X50352829Y-84711053D01*
X50305210Y-84544386D02*
X50305210Y-84211053D01*
X50805210Y-84425339D01*
X43689151Y-82743811D02*
X43665341Y-82767620D01*
X43593913Y-82791430D01*
X43546294Y-82791430D01*
X43474865Y-82767620D01*
X43427246Y-82720001D01*
X43403437Y-82672382D01*
X43379627Y-82577144D01*
X43379627Y-82505716D01*
X43403437Y-82410478D01*
X43427246Y-82362859D01*
X43474865Y-82315240D01*
X43546294Y-82291430D01*
X43593913Y-82291430D01*
X43665341Y-82315240D01*
X43689151Y-82339049D01*
X43855818Y-82291430D02*
X44165341Y-82291430D01*
X43998675Y-82481906D01*
X44070103Y-82481906D01*
X44117722Y-82505716D01*
X44141532Y-82529525D01*
X44165341Y-82577144D01*
X44165341Y-82696192D01*
X44141532Y-82743811D01*
X44117722Y-82767620D01*
X44070103Y-82791430D01*
X43927246Y-82791430D01*
X43879627Y-82767620D01*
X43855818Y-82743811D01*
X44332008Y-82291430D02*
X44665341Y-82291430D01*
X44451056Y-82791430D01*
X57663210Y-87987653D02*
X57425115Y-88154320D01*
X57663210Y-88273367D02*
X57163210Y-88273367D01*
X57163210Y-88082891D01*
X57187020Y-88035272D01*
X57210829Y-88011462D01*
X57258448Y-87987653D01*
X57329877Y-87987653D01*
X57377496Y-88011462D01*
X57401305Y-88035272D01*
X57425115Y-88082891D01*
X57425115Y-88273367D01*
X57163210Y-87820986D02*
X57163210Y-87511462D01*
X57353686Y-87678129D01*
X57353686Y-87606700D01*
X57377496Y-87559081D01*
X57401305Y-87535272D01*
X57448924Y-87511462D01*
X57567972Y-87511462D01*
X57615591Y-87535272D01*
X57639400Y-87559081D01*
X57663210Y-87606700D01*
X57663210Y-87749558D01*
X57639400Y-87797177D01*
X57615591Y-87820986D01*
X57632730Y-85996293D02*
X57394635Y-86162960D01*
X57632730Y-86282007D02*
X57132730Y-86282007D01*
X57132730Y-86091531D01*
X57156540Y-86043912D01*
X57180349Y-86020102D01*
X57227968Y-85996293D01*
X57299397Y-85996293D01*
X57347016Y-86020102D01*
X57370825Y-86043912D01*
X57394635Y-86091531D01*
X57394635Y-86282007D01*
X57299397Y-85567721D02*
X57632730Y-85567721D01*
X57108920Y-85686769D02*
X57466063Y-85805817D01*
X57466063Y-85496293D01*
D10*
X54943760Y-86197344D02*
X55753284Y-86197344D01*
X55848522Y-86149725D01*
X55896141Y-86102106D01*
X55943760Y-86006868D01*
X55943760Y-85816392D01*
X55896141Y-85721154D01*
X55848522Y-85673535D01*
X55753284Y-85625916D01*
X54943760Y-85625916D01*
X54943760Y-85244963D02*
X54943760Y-84578297D01*
X55943760Y-85006868D01*
X47283073Y-87837620D02*
X46806882Y-87837620D01*
X46806882Y-86837620D01*
X47568787Y-86932859D02*
X47616406Y-86885240D01*
X47711644Y-86837620D01*
X47949740Y-86837620D01*
X48044978Y-86885240D01*
X48092597Y-86932859D01*
X48140216Y-87028097D01*
X48140216Y-87123335D01*
X48092597Y-87266192D01*
X47521168Y-87837620D01*
X48140216Y-87837620D01*
X46230302Y-50392602D02*
X46182683Y-50440221D01*
X46039826Y-50487840D01*
X45944588Y-50487840D01*
X45801731Y-50440221D01*
X45706493Y-50344983D01*
X45658874Y-50249745D01*
X45611255Y-50059269D01*
X45611255Y-49916412D01*
X45658874Y-49725936D01*
X45706493Y-49630698D01*
X45801731Y-49535460D01*
X45944588Y-49487840D01*
X46039826Y-49487840D01*
X46182683Y-49535460D01*
X46230302Y-49583079D01*
X47087445Y-49487840D02*
X46896969Y-49487840D01*
X46801731Y-49535460D01*
X46754112Y-49583079D01*
X46658874Y-49725936D01*
X46611255Y-49916412D01*
X46611255Y-50297364D01*
X46658874Y-50392602D01*
X46706493Y-50440221D01*
X46801731Y-50487840D01*
X46992207Y-50487840D01*
X47087445Y-50440221D01*
X47135064Y-50392602D01*
X47182683Y-50297364D01*
X47182683Y-50059269D01*
X47135064Y-49964031D01*
X47087445Y-49916412D01*
X46992207Y-49868793D01*
X46801731Y-49868793D01*
X46706493Y-49916412D01*
X46658874Y-49964031D01*
X46611255Y-50059269D01*
X48039826Y-49821174D02*
X48039826Y-50487840D01*
X47801731Y-49440221D02*
X47563636Y-50154507D01*
X48182683Y-50154507D01*
X25820073Y-20326622D02*
X25772454Y-20374241D01*
X25629597Y-20421860D01*
X25534359Y-20421860D01*
X25391501Y-20374241D01*
X25296263Y-20279003D01*
X25248644Y-20183765D01*
X25201025Y-19993289D01*
X25201025Y-19850432D01*
X25248644Y-19659956D01*
X25296263Y-19564718D01*
X25391501Y-19469480D01*
X25534359Y-19421860D01*
X25629597Y-19421860D01*
X25772454Y-19469480D01*
X25820073Y-19517099D01*
X26677216Y-19421860D02*
X26486740Y-19421860D01*
X26391501Y-19469480D01*
X26343882Y-19517099D01*
X26248644Y-19659956D01*
X26201025Y-19850432D01*
X26201025Y-20231384D01*
X26248644Y-20326622D01*
X26296263Y-20374241D01*
X26391501Y-20421860D01*
X26581978Y-20421860D01*
X26677216Y-20374241D01*
X26724835Y-20326622D01*
X26772454Y-20231384D01*
X26772454Y-19993289D01*
X26724835Y-19898051D01*
X26677216Y-19850432D01*
X26581978Y-19802813D01*
X26391501Y-19802813D01*
X26296263Y-19850432D01*
X26248644Y-19898051D01*
X26201025Y-19993289D01*
D14*
X13528571Y-80676190D02*
X13361904Y-80438095D01*
X13242857Y-80676190D02*
X13242857Y-80176190D01*
X13433333Y-80176190D01*
X13480952Y-80200000D01*
X13504761Y-80223809D01*
X13528571Y-80271428D01*
X13528571Y-80342857D01*
X13504761Y-80390476D01*
X13480952Y-80414285D01*
X13433333Y-80438095D01*
X13242857Y-80438095D01*
X13719047Y-80223809D02*
X13742857Y-80200000D01*
X13790476Y-80176190D01*
X13909523Y-80176190D01*
X13957142Y-80200000D01*
X13980952Y-80223809D01*
X14004761Y-80271428D01*
X14004761Y-80319047D01*
X13980952Y-80390476D01*
X13695238Y-80676190D01*
X14004761Y-80676190D01*
X14433333Y-80342857D02*
X14433333Y-80676190D01*
X14314285Y-80152380D02*
X14195238Y-80509523D01*
X14504761Y-80509523D01*
X50110271Y-34438091D02*
X50086461Y-34461900D01*
X50015033Y-34485710D01*
X49967414Y-34485710D01*
X49895985Y-34461900D01*
X49848366Y-34414281D01*
X49824557Y-34366662D01*
X49800747Y-34271424D01*
X49800747Y-34199996D01*
X49824557Y-34104758D01*
X49848366Y-34057139D01*
X49895985Y-34009520D01*
X49967414Y-33985710D01*
X50015033Y-33985710D01*
X50086461Y-34009520D01*
X50110271Y-34033329D01*
X50300747Y-34033329D02*
X50324557Y-34009520D01*
X50372176Y-33985710D01*
X50491223Y-33985710D01*
X50538842Y-34009520D01*
X50562652Y-34033329D01*
X50586461Y-34080948D01*
X50586461Y-34128567D01*
X50562652Y-34199996D01*
X50276938Y-34485710D01*
X50586461Y-34485710D01*
X50753128Y-33985710D02*
X51062652Y-33985710D01*
X50895985Y-34176186D01*
X50967414Y-34176186D01*
X51015033Y-34199996D01*
X51038842Y-34223805D01*
X51062652Y-34271424D01*
X51062652Y-34390472D01*
X51038842Y-34438091D01*
X51015033Y-34461900D01*
X50967414Y-34485710D01*
X50824557Y-34485710D01*
X50776938Y-34461900D01*
X50753128Y-34438091D01*
D10*
X16383036Y-85442380D02*
X17049702Y-86442380D01*
X17049702Y-85442380D02*
X16383036Y-86442380D01*
X17954464Y-86442380D02*
X17383036Y-86442380D01*
X17668750Y-86442380D02*
X17668750Y-85442380D01*
X17573512Y-85585238D01*
X17478274Y-85680476D01*
X17383036Y-85728095D01*
X54762186Y-45860751D02*
X54428853Y-45860751D01*
X54428853Y-46384560D02*
X54428853Y-45384560D01*
X54905043Y-45384560D01*
X55619329Y-45860751D02*
X55762186Y-45908370D01*
X55809805Y-45955989D01*
X55857424Y-46051227D01*
X55857424Y-46194084D01*
X55809805Y-46289322D01*
X55762186Y-46336941D01*
X55666948Y-46384560D01*
X55285996Y-46384560D01*
X55285996Y-45384560D01*
X55619329Y-45384560D01*
X55714567Y-45432180D01*
X55762186Y-45479799D01*
X55809805Y-45575037D01*
X55809805Y-45670275D01*
X55762186Y-45765513D01*
X55714567Y-45813132D01*
X55619329Y-45860751D01*
X55285996Y-45860751D01*
X56428853Y-45813132D02*
X56333615Y-45765513D01*
X56285996Y-45717894D01*
X56238377Y-45622656D01*
X56238377Y-45575037D01*
X56285996Y-45479799D01*
X56333615Y-45432180D01*
X56428853Y-45384560D01*
X56619329Y-45384560D01*
X56714567Y-45432180D01*
X56762186Y-45479799D01*
X56809805Y-45575037D01*
X56809805Y-45622656D01*
X56762186Y-45717894D01*
X56714567Y-45765513D01*
X56619329Y-45813132D01*
X56428853Y-45813132D01*
X56333615Y-45860751D01*
X56285996Y-45908370D01*
X56238377Y-46003608D01*
X56238377Y-46194084D01*
X56285996Y-46289322D01*
X56333615Y-46336941D01*
X56428853Y-46384560D01*
X56619329Y-46384560D01*
X56714567Y-46336941D01*
X56762186Y-46289322D01*
X56809805Y-46194084D01*
X56809805Y-46003608D01*
X56762186Y-45908370D01*
X56714567Y-45860751D01*
X56619329Y-45813132D01*
X49566666Y-38040091D02*
X49233333Y-38040091D01*
X49233333Y-38563900D02*
X49233333Y-37563900D01*
X49709523Y-37563900D01*
X50423809Y-38040091D02*
X50566666Y-38087710D01*
X50614285Y-38135329D01*
X50661904Y-38230567D01*
X50661904Y-38373424D01*
X50614285Y-38468662D01*
X50566666Y-38516281D01*
X50471428Y-38563900D01*
X50090476Y-38563900D01*
X50090476Y-37563900D01*
X50423809Y-37563900D01*
X50519047Y-37611520D01*
X50566666Y-37659139D01*
X50614285Y-37754377D01*
X50614285Y-37849615D01*
X50566666Y-37944853D01*
X50519047Y-37992472D01*
X50423809Y-38040091D01*
X50090476Y-38040091D01*
X50995238Y-37563900D02*
X51661904Y-37563900D01*
X51233333Y-38563900D01*
X62566666Y-21128571D02*
X62233333Y-21128571D01*
X62233333Y-21652380D02*
X62233333Y-20652380D01*
X62709523Y-20652380D01*
X63423809Y-21128571D02*
X63566666Y-21176190D01*
X63614285Y-21223809D01*
X63661904Y-21319047D01*
X63661904Y-21461904D01*
X63614285Y-21557142D01*
X63566666Y-21604761D01*
X63471428Y-21652380D01*
X63090476Y-21652380D01*
X63090476Y-20652380D01*
X63423809Y-20652380D01*
X63519047Y-20700000D01*
X63566666Y-20747619D01*
X63614285Y-20842857D01*
X63614285Y-20938095D01*
X63566666Y-21033333D01*
X63519047Y-21080952D01*
X63423809Y-21128571D01*
X63090476Y-21128571D01*
X64519047Y-20985714D02*
X64519047Y-21652380D01*
X64280952Y-20604761D02*
X64042857Y-21319047D01*
X64661904Y-21319047D01*
X62341546Y-29296051D02*
X62008213Y-29296051D01*
X62008213Y-29819860D02*
X62008213Y-28819860D01*
X62484403Y-28819860D01*
X63198689Y-29296051D02*
X63341546Y-29343670D01*
X63389165Y-29391289D01*
X63436784Y-29486527D01*
X63436784Y-29629384D01*
X63389165Y-29724622D01*
X63341546Y-29772241D01*
X63246308Y-29819860D01*
X62865356Y-29819860D01*
X62865356Y-28819860D01*
X63198689Y-28819860D01*
X63293927Y-28867480D01*
X63341546Y-28915099D01*
X63389165Y-29010337D01*
X63389165Y-29105575D01*
X63341546Y-29200813D01*
X63293927Y-29248432D01*
X63198689Y-29296051D01*
X62865356Y-29296051D01*
X63770118Y-28819860D02*
X64389165Y-28819860D01*
X64055832Y-29200813D01*
X64198689Y-29200813D01*
X64293927Y-29248432D01*
X64341546Y-29296051D01*
X64389165Y-29391289D01*
X64389165Y-29629384D01*
X64341546Y-29724622D01*
X64293927Y-29772241D01*
X64198689Y-29819860D01*
X63912975Y-29819860D01*
X63817737Y-29772241D01*
X63770118Y-29724622D01*
X57466666Y-17528571D02*
X57133333Y-17528571D01*
X57133333Y-18052380D02*
X57133333Y-17052380D01*
X57609523Y-17052380D01*
X58323809Y-17528571D02*
X58466666Y-17576190D01*
X58514285Y-17623809D01*
X58561904Y-17719047D01*
X58561904Y-17861904D01*
X58514285Y-17957142D01*
X58466666Y-18004761D01*
X58371428Y-18052380D01*
X57990476Y-18052380D01*
X57990476Y-17052380D01*
X58323809Y-17052380D01*
X58419047Y-17100000D01*
X58466666Y-17147619D01*
X58514285Y-17242857D01*
X58514285Y-17338095D01*
X58466666Y-17433333D01*
X58419047Y-17480952D01*
X58323809Y-17528571D01*
X57990476Y-17528571D01*
X58942857Y-17147619D02*
X58990476Y-17100000D01*
X59085714Y-17052380D01*
X59323809Y-17052380D01*
X59419047Y-17100000D01*
X59466666Y-17147619D01*
X59514285Y-17242857D01*
X59514285Y-17338095D01*
X59466666Y-17480952D01*
X58895238Y-18052380D01*
X59514285Y-18052380D01*
X62766666Y-13128571D02*
X62433333Y-13128571D01*
X62433333Y-13652380D02*
X62433333Y-12652380D01*
X62909523Y-12652380D01*
X63623809Y-13128571D02*
X63766666Y-13176190D01*
X63814285Y-13223809D01*
X63861904Y-13319047D01*
X63861904Y-13461904D01*
X63814285Y-13557142D01*
X63766666Y-13604761D01*
X63671428Y-13652380D01*
X63290476Y-13652380D01*
X63290476Y-12652380D01*
X63623809Y-12652380D01*
X63719047Y-12700000D01*
X63766666Y-12747619D01*
X63814285Y-12842857D01*
X63814285Y-12938095D01*
X63766666Y-13033333D01*
X63719047Y-13080952D01*
X63623809Y-13128571D01*
X63290476Y-13128571D01*
X64814285Y-13652380D02*
X64242857Y-13652380D01*
X64528571Y-13652380D02*
X64528571Y-12652380D01*
X64433333Y-12795238D01*
X64338095Y-12890476D01*
X64242857Y-12938095D01*
X35267995Y-65583140D02*
X35267995Y-66392664D01*
X35315614Y-66487902D01*
X35363233Y-66535521D01*
X35458471Y-66583140D01*
X35648947Y-66583140D01*
X35744185Y-66535521D01*
X35791804Y-66487902D01*
X35839423Y-66392664D01*
X35839423Y-65583140D01*
X36791804Y-65583140D02*
X36315614Y-65583140D01*
X36267995Y-66059331D01*
X36315614Y-66011712D01*
X36410852Y-65964093D01*
X36648947Y-65964093D01*
X36744185Y-66011712D01*
X36791804Y-66059331D01*
X36839423Y-66154569D01*
X36839423Y-66392664D01*
X36791804Y-66487902D01*
X36744185Y-66535521D01*
X36648947Y-66583140D01*
X36410852Y-66583140D01*
X36315614Y-66535521D01*
X36267995Y-66487902D01*
X24225268Y-81979466D02*
X24225268Y-81646133D01*
X23701459Y-81646133D02*
X24701459Y-81646133D01*
X24701459Y-82122323D01*
X24225268Y-82836609D02*
X24177649Y-82979466D01*
X24130030Y-83027085D01*
X24034792Y-83074704D01*
X23891935Y-83074704D01*
X23796697Y-83027085D01*
X23749078Y-82979466D01*
X23701459Y-82884228D01*
X23701459Y-82503276D01*
X24701459Y-82503276D01*
X24701459Y-82836609D01*
X24653840Y-82931847D01*
X24606220Y-82979466D01*
X24510982Y-83027085D01*
X24415744Y-83027085D01*
X24320506Y-82979466D01*
X24272887Y-82931847D01*
X24225268Y-82836609D01*
X24225268Y-82503276D01*
X24701459Y-83931847D02*
X24701459Y-83741371D01*
X24653840Y-83646133D01*
X24606220Y-83598514D01*
X24463363Y-83503276D01*
X24272887Y-83455657D01*
X23891935Y-83455657D01*
X23796697Y-83503276D01*
X23749078Y-83550895D01*
X23701459Y-83646133D01*
X23701459Y-83836609D01*
X23749078Y-83931847D01*
X23796697Y-83979466D01*
X23891935Y-84027085D01*
X24130030Y-84027085D01*
X24225268Y-83979466D01*
X24272887Y-83931847D01*
X24320506Y-83836609D01*
X24320506Y-83646133D01*
X24272887Y-83550895D01*
X24225268Y-83503276D01*
X24130030Y-83455657D01*
D14*
X59279671Y-66565910D02*
X59113004Y-66327815D01*
X58993957Y-66565910D02*
X58993957Y-66065910D01*
X59184433Y-66065910D01*
X59232052Y-66089720D01*
X59255861Y-66113529D01*
X59279671Y-66161148D01*
X59279671Y-66232577D01*
X59255861Y-66280196D01*
X59232052Y-66304005D01*
X59184433Y-66327815D01*
X58993957Y-66327815D01*
X59446338Y-66065910D02*
X59755861Y-66065910D01*
X59589195Y-66256386D01*
X59660623Y-66256386D01*
X59708242Y-66280196D01*
X59732052Y-66304005D01*
X59755861Y-66351624D01*
X59755861Y-66470672D01*
X59732052Y-66518291D01*
X59708242Y-66542100D01*
X59660623Y-66565910D01*
X59517766Y-66565910D01*
X59470147Y-66542100D01*
X59446338Y-66518291D01*
X60232052Y-66565910D02*
X59946338Y-66565910D01*
X60089195Y-66565910D02*
X60089195Y-66065910D01*
X60041576Y-66137339D01*
X59993957Y-66184958D01*
X59946338Y-66208767D01*
D10*
X43666666Y-86452380D02*
X43666666Y-87166666D01*
X43619047Y-87309523D01*
X43523809Y-87404761D01*
X43380952Y-87452380D01*
X43285714Y-87452380D01*
X44047619Y-86452380D02*
X44714285Y-86452380D01*
X44285714Y-87452380D01*
X9417726Y-61184540D02*
X9417726Y-61898826D01*
X9370107Y-62041683D01*
X9274869Y-62136921D01*
X9132012Y-62184540D01*
X9036774Y-62184540D01*
X10322488Y-61184540D02*
X10132012Y-61184540D01*
X10036774Y-61232160D01*
X9989155Y-61279779D01*
X9893917Y-61422636D01*
X9846298Y-61613112D01*
X9846298Y-61994064D01*
X9893917Y-62089302D01*
X9941536Y-62136921D01*
X10036774Y-62184540D01*
X10227250Y-62184540D01*
X10322488Y-62136921D01*
X10370107Y-62089302D01*
X10417726Y-61994064D01*
X10417726Y-61755969D01*
X10370107Y-61660731D01*
X10322488Y-61613112D01*
X10227250Y-61565493D01*
X10036774Y-61565493D01*
X9941536Y-61613112D01*
X9893917Y-61660731D01*
X9846298Y-61755969D01*
X50502380Y-17564285D02*
X49502380Y-17564285D01*
X49502380Y-17326190D01*
X49550000Y-17183333D01*
X49645238Y-17088095D01*
X49740476Y-17040476D01*
X49930952Y-16992857D01*
X50073809Y-16992857D01*
X50264285Y-17040476D01*
X50359523Y-17088095D01*
X50454761Y-17183333D01*
X50502380Y-17326190D01*
X50502380Y-17564285D01*
X50502380Y-16040476D02*
X50502380Y-16611904D01*
X50502380Y-16326190D02*
X49502380Y-16326190D01*
X49645238Y-16421428D01*
X49740476Y-16516666D01*
X49788095Y-16611904D01*
X49835714Y-15183333D02*
X50502380Y-15183333D01*
X49454761Y-15421428D02*
X50169047Y-15659523D01*
X50169047Y-15040476D01*
X29038095Y-10252380D02*
X29038095Y-11061904D01*
X29085714Y-11157142D01*
X29133333Y-11204761D01*
X29228571Y-11252380D01*
X29419047Y-11252380D01*
X29514285Y-11204761D01*
X29561904Y-11157142D01*
X29609523Y-11061904D01*
X29609523Y-10252380D01*
X30609523Y-11252380D02*
X30038095Y-11252380D01*
X30323809Y-11252380D02*
X30323809Y-10252380D01*
X30228571Y-10395238D01*
X30133333Y-10490476D01*
X30038095Y-10538095D01*
D14*
X24858706Y-24329530D02*
X24692040Y-24091435D01*
X24572992Y-24329530D02*
X24572992Y-23829530D01*
X24763468Y-23829530D01*
X24811087Y-23853340D01*
X24834897Y-23877149D01*
X24858706Y-23924768D01*
X24858706Y-23996197D01*
X24834897Y-24043816D01*
X24811087Y-24067625D01*
X24763468Y-24091435D01*
X24572992Y-24091435D01*
X25334897Y-24329530D02*
X25049182Y-24329530D01*
X25192040Y-24329530D02*
X25192040Y-23829530D01*
X25144420Y-23900959D01*
X25096801Y-23948578D01*
X25049182Y-23972387D01*
D10*
X44483333Y-21102380D02*
X44007142Y-21102380D01*
X44007142Y-20102380D01*
X45340476Y-21102380D02*
X44769047Y-21102380D01*
X45054761Y-21102380D02*
X45054761Y-20102380D01*
X44959523Y-20245238D01*
X44864285Y-20340476D01*
X44769047Y-20388095D01*
D14*
X24820466Y-25429371D02*
X24796657Y-25453180D01*
X24725228Y-25476990D01*
X24677609Y-25476990D01*
X24606180Y-25453180D01*
X24558561Y-25405561D01*
X24534752Y-25357942D01*
X24510942Y-25262704D01*
X24510942Y-25191276D01*
X24534752Y-25096038D01*
X24558561Y-25048419D01*
X24606180Y-25000800D01*
X24677609Y-24976990D01*
X24725228Y-24976990D01*
X24796657Y-25000800D01*
X24820466Y-25024609D01*
X25249038Y-25143657D02*
X25249038Y-25476990D01*
X25129990Y-24953180D02*
X25010942Y-25310323D01*
X25320466Y-25310323D01*
X50282906Y-2821751D02*
X50259097Y-2845560D01*
X50187668Y-2869370D01*
X50140049Y-2869370D01*
X50068620Y-2845560D01*
X50021001Y-2797941D01*
X49997192Y-2750322D01*
X49973382Y-2655084D01*
X49973382Y-2583656D01*
X49997192Y-2488418D01*
X50021001Y-2440799D01*
X50068620Y-2393180D01*
X50140049Y-2369370D01*
X50187668Y-2369370D01*
X50259097Y-2393180D01*
X50282906Y-2416989D01*
X50449573Y-2369370D02*
X50759097Y-2369370D01*
X50592430Y-2559846D01*
X50663859Y-2559846D01*
X50711478Y-2583656D01*
X50735287Y-2607465D01*
X50759097Y-2655084D01*
X50759097Y-2774132D01*
X50735287Y-2821751D01*
X50711478Y-2845560D01*
X50663859Y-2869370D01*
X50521001Y-2869370D01*
X50473382Y-2845560D01*
X50449573Y-2821751D01*
D10*
X16970773Y-1763742D02*
X16923154Y-1811361D01*
X16780297Y-1858980D01*
X16685059Y-1858980D01*
X16542201Y-1811361D01*
X16446963Y-1716123D01*
X16399344Y-1620885D01*
X16351725Y-1430409D01*
X16351725Y-1287552D01*
X16399344Y-1097076D01*
X16446963Y-1001838D01*
X16542201Y-906600D01*
X16685059Y-858980D01*
X16780297Y-858980D01*
X16923154Y-906600D01*
X16970773Y-954219D01*
X17923154Y-1858980D02*
X17351725Y-1858980D01*
X17637440Y-1858980D02*
X17637440Y-858980D01*
X17542201Y-1001838D01*
X17446963Y-1097076D01*
X17351725Y-1144695D01*
X35203284Y-82822800D02*
X35203284Y-83632324D01*
X35250903Y-83727562D01*
X35298522Y-83775181D01*
X35393760Y-83822800D01*
X35584237Y-83822800D01*
X35679475Y-83775181D01*
X35727094Y-83727562D01*
X35774713Y-83632324D01*
X35774713Y-82822800D01*
X36774713Y-83822800D02*
X36203284Y-83822800D01*
X36488999Y-83822800D02*
X36488999Y-82822800D01*
X36393760Y-82965658D01*
X36298522Y-83060896D01*
X36203284Y-83108515D01*
X37155665Y-82918039D02*
X37203284Y-82870420D01*
X37298522Y-82822800D01*
X37536618Y-82822800D01*
X37631856Y-82870420D01*
X37679475Y-82918039D01*
X37727094Y-83013277D01*
X37727094Y-83108515D01*
X37679475Y-83251372D01*
X37108046Y-83822800D01*
X37727094Y-83822800D01*
D14*
X39410770Y-82459948D02*
X39172675Y-82626615D01*
X39410770Y-82745662D02*
X38910770Y-82745662D01*
X38910770Y-82555186D01*
X38934580Y-82507567D01*
X38958389Y-82483758D01*
X39006008Y-82459948D01*
X39077437Y-82459948D01*
X39125056Y-82483758D01*
X39148865Y-82507567D01*
X39172675Y-82555186D01*
X39172675Y-82745662D01*
X38910770Y-82007567D02*
X38910770Y-82245662D01*
X39148865Y-82269472D01*
X39125056Y-82245662D01*
X39101246Y-82198043D01*
X39101246Y-82078996D01*
X39125056Y-82031377D01*
X39148865Y-82007567D01*
X39196484Y-81983758D01*
X39315532Y-81983758D01*
X39363151Y-82007567D01*
X39386960Y-82031377D01*
X39410770Y-82078996D01*
X39410770Y-82198043D01*
X39386960Y-82245662D01*
X39363151Y-82269472D01*
X38958389Y-81793281D02*
X38934580Y-81769472D01*
X38910770Y-81721853D01*
X38910770Y-81602805D01*
X38934580Y-81555186D01*
X38958389Y-81531377D01*
X39006008Y-81507567D01*
X39053627Y-81507567D01*
X39125056Y-81531377D01*
X39410770Y-81817091D01*
X39410770Y-81507567D01*
D10*
X33404821Y-74426059D02*
X33309583Y-74378440D01*
X33214345Y-74283201D01*
X33071488Y-74140344D01*
X32976250Y-74092725D01*
X32881012Y-74092725D01*
X32928631Y-74330820D02*
X32833393Y-74283201D01*
X32738155Y-74187963D01*
X32690536Y-73997487D01*
X32690536Y-73664154D01*
X32738155Y-73473678D01*
X32833393Y-73378440D01*
X32928631Y-73330820D01*
X33119107Y-73330820D01*
X33214345Y-73378440D01*
X33309583Y-73473678D01*
X33357202Y-73664154D01*
X33357202Y-73997487D01*
X33309583Y-74187963D01*
X33214345Y-74283201D01*
X33119107Y-74330820D01*
X32928631Y-74330820D01*
X34214345Y-73664154D02*
X34214345Y-74330820D01*
X33976250Y-73283201D02*
X33738155Y-73997487D01*
X34357202Y-73997487D01*
D14*
X34484191Y-77953371D02*
X34460381Y-77977180D01*
X34388953Y-78000990D01*
X34341334Y-78000990D01*
X34269905Y-77977180D01*
X34222286Y-77929561D01*
X34198477Y-77881942D01*
X34174667Y-77786704D01*
X34174667Y-77715276D01*
X34198477Y-77620038D01*
X34222286Y-77572419D01*
X34269905Y-77524800D01*
X34341334Y-77500990D01*
X34388953Y-77500990D01*
X34460381Y-77524800D01*
X34484191Y-77548609D01*
X34912762Y-77500990D02*
X34817524Y-77500990D01*
X34769905Y-77524800D01*
X34746096Y-77548609D01*
X34698477Y-77620038D01*
X34674667Y-77715276D01*
X34674667Y-77905752D01*
X34698477Y-77953371D01*
X34722286Y-77977180D01*
X34769905Y-78000990D01*
X34865143Y-78000990D01*
X34912762Y-77977180D01*
X34936572Y-77953371D01*
X34960381Y-77905752D01*
X34960381Y-77786704D01*
X34936572Y-77739085D01*
X34912762Y-77715276D01*
X34865143Y-77691466D01*
X34769905Y-77691466D01*
X34722286Y-77715276D01*
X34698477Y-77739085D01*
X34674667Y-77786704D01*
X35388953Y-77500990D02*
X35293715Y-77500990D01*
X35246096Y-77524800D01*
X35222286Y-77548609D01*
X35174667Y-77620038D01*
X35150858Y-77715276D01*
X35150858Y-77905752D01*
X35174667Y-77953371D01*
X35198477Y-77977180D01*
X35246096Y-78000990D01*
X35341334Y-78000990D01*
X35388953Y-77977180D01*
X35412762Y-77953371D01*
X35436572Y-77905752D01*
X35436572Y-77786704D01*
X35412762Y-77739085D01*
X35388953Y-77715276D01*
X35341334Y-77691466D01*
X35246096Y-77691466D01*
X35198477Y-77715276D01*
X35174667Y-77739085D01*
X35150858Y-77786704D01*
X40582351Y-82498048D02*
X40606160Y-82521858D01*
X40629970Y-82593286D01*
X40629970Y-82640905D01*
X40606160Y-82712334D01*
X40558541Y-82759953D01*
X40510922Y-82783762D01*
X40415684Y-82807572D01*
X40344256Y-82807572D01*
X40249018Y-82783762D01*
X40201399Y-82759953D01*
X40153780Y-82712334D01*
X40129970Y-82640905D01*
X40129970Y-82593286D01*
X40153780Y-82521858D01*
X40177589Y-82498048D01*
X40129970Y-82069477D02*
X40129970Y-82164715D01*
X40153780Y-82212334D01*
X40177589Y-82236143D01*
X40249018Y-82283762D01*
X40344256Y-82307572D01*
X40534732Y-82307572D01*
X40582351Y-82283762D01*
X40606160Y-82259953D01*
X40629970Y-82212334D01*
X40629970Y-82117096D01*
X40606160Y-82069477D01*
X40582351Y-82045667D01*
X40534732Y-82021858D01*
X40415684Y-82021858D01*
X40368065Y-82045667D01*
X40344256Y-82069477D01*
X40320446Y-82117096D01*
X40320446Y-82212334D01*
X40344256Y-82259953D01*
X40368065Y-82283762D01*
X40415684Y-82307572D01*
X40129970Y-81569477D02*
X40129970Y-81807572D01*
X40368065Y-81831381D01*
X40344256Y-81807572D01*
X40320446Y-81759953D01*
X40320446Y-81640905D01*
X40344256Y-81593286D01*
X40368065Y-81569477D01*
X40415684Y-81545667D01*
X40534732Y-81545667D01*
X40582351Y-81569477D01*
X40606160Y-81593286D01*
X40629970Y-81640905D01*
X40629970Y-81759953D01*
X40606160Y-81807572D01*
X40582351Y-81831381D01*
X54950431Y-17254350D02*
X54950431Y-16754350D01*
X55236145Y-17254350D01*
X55236145Y-16754350D01*
X55402812Y-16754350D02*
X55688526Y-16754350D01*
X55545669Y-17254350D02*
X55545669Y-16754350D01*
X56117098Y-17254350D02*
X55831383Y-17254350D01*
X55974240Y-17254350D02*
X55974240Y-16754350D01*
X55926621Y-16825779D01*
X55879002Y-16873398D01*
X55831383Y-16897207D01*
X18413931Y-47737791D02*
X18390121Y-47761600D01*
X18318693Y-47785410D01*
X18271074Y-47785410D01*
X18199645Y-47761600D01*
X18152026Y-47713981D01*
X18128217Y-47666362D01*
X18104407Y-47571124D01*
X18104407Y-47499696D01*
X18128217Y-47404458D01*
X18152026Y-47356839D01*
X18199645Y-47309220D01*
X18271074Y-47285410D01*
X18318693Y-47285410D01*
X18390121Y-47309220D01*
X18413931Y-47333029D01*
X18842502Y-47285410D02*
X18747264Y-47285410D01*
X18699645Y-47309220D01*
X18675836Y-47333029D01*
X18628217Y-47404458D01*
X18604407Y-47499696D01*
X18604407Y-47690172D01*
X18628217Y-47737791D01*
X18652026Y-47761600D01*
X18699645Y-47785410D01*
X18794883Y-47785410D01*
X18842502Y-47761600D01*
X18866312Y-47737791D01*
X18890121Y-47690172D01*
X18890121Y-47571124D01*
X18866312Y-47523505D01*
X18842502Y-47499696D01*
X18794883Y-47475886D01*
X18699645Y-47475886D01*
X18652026Y-47499696D01*
X18628217Y-47523505D01*
X18604407Y-47571124D01*
X19199645Y-47285410D02*
X19247264Y-47285410D01*
X19294883Y-47309220D01*
X19318693Y-47333029D01*
X19342502Y-47380648D01*
X19366312Y-47475886D01*
X19366312Y-47594934D01*
X19342502Y-47690172D01*
X19318693Y-47737791D01*
X19294883Y-47761600D01*
X19247264Y-47785410D01*
X19199645Y-47785410D01*
X19152026Y-47761600D01*
X19128217Y-47737791D01*
X19104407Y-47690172D01*
X19080598Y-47594934D01*
X19080598Y-47475886D01*
X19104407Y-47380648D01*
X19128217Y-47333029D01*
X19152026Y-47309220D01*
X19199645Y-47285410D01*
X18906691Y-49076031D02*
X18882881Y-49099840D01*
X18811453Y-49123650D01*
X18763834Y-49123650D01*
X18692405Y-49099840D01*
X18644786Y-49052221D01*
X18620977Y-49004602D01*
X18597167Y-48909364D01*
X18597167Y-48837936D01*
X18620977Y-48742698D01*
X18644786Y-48695079D01*
X18692405Y-48647460D01*
X18763834Y-48623650D01*
X18811453Y-48623650D01*
X18882881Y-48647460D01*
X18906691Y-48671269D01*
X19359072Y-48623650D02*
X19120977Y-48623650D01*
X19097167Y-48861745D01*
X19120977Y-48837936D01*
X19168596Y-48814126D01*
X19287643Y-48814126D01*
X19335262Y-48837936D01*
X19359072Y-48861745D01*
X19382881Y-48909364D01*
X19382881Y-49028412D01*
X19359072Y-49076031D01*
X19335262Y-49099840D01*
X19287643Y-49123650D01*
X19168596Y-49123650D01*
X19120977Y-49099840D01*
X19097167Y-49076031D01*
X19620977Y-49123650D02*
X19716215Y-49123650D01*
X19763834Y-49099840D01*
X19787643Y-49076031D01*
X19835262Y-49004602D01*
X19859072Y-48909364D01*
X19859072Y-48718888D01*
X19835262Y-48671269D01*
X19811453Y-48647460D01*
X19763834Y-48623650D01*
X19668596Y-48623650D01*
X19620977Y-48647460D01*
X19597167Y-48671269D01*
X19573358Y-48718888D01*
X19573358Y-48837936D01*
X19597167Y-48885555D01*
X19620977Y-48909364D01*
X19668596Y-48933174D01*
X19763834Y-48933174D01*
X19811453Y-48909364D01*
X19835262Y-48885555D01*
X19859072Y-48837936D01*
X54989611Y-47569891D02*
X54965801Y-47593700D01*
X54894373Y-47617510D01*
X54846754Y-47617510D01*
X54775325Y-47593700D01*
X54727706Y-47546081D01*
X54703897Y-47498462D01*
X54680087Y-47403224D01*
X54680087Y-47331796D01*
X54703897Y-47236558D01*
X54727706Y-47188939D01*
X54775325Y-47141320D01*
X54846754Y-47117510D01*
X54894373Y-47117510D01*
X54965801Y-47141320D01*
X54989611Y-47165129D01*
X55418182Y-47117510D02*
X55322944Y-47117510D01*
X55275325Y-47141320D01*
X55251516Y-47165129D01*
X55203897Y-47236558D01*
X55180087Y-47331796D01*
X55180087Y-47522272D01*
X55203897Y-47569891D01*
X55227706Y-47593700D01*
X55275325Y-47617510D01*
X55370563Y-47617510D01*
X55418182Y-47593700D01*
X55441992Y-47569891D01*
X55465801Y-47522272D01*
X55465801Y-47403224D01*
X55441992Y-47355605D01*
X55418182Y-47331796D01*
X55370563Y-47307986D01*
X55275325Y-47307986D01*
X55227706Y-47331796D01*
X55203897Y-47355605D01*
X55180087Y-47403224D01*
X55632468Y-47117510D02*
X55941992Y-47117510D01*
X55775325Y-47307986D01*
X55846754Y-47307986D01*
X55894373Y-47331796D01*
X55918182Y-47355605D01*
X55941992Y-47403224D01*
X55941992Y-47522272D01*
X55918182Y-47569891D01*
X55894373Y-47593700D01*
X55846754Y-47617510D01*
X55703897Y-47617510D01*
X55656278Y-47593700D01*
X55632468Y-47569891D01*
X48601511Y-22733771D02*
X48577701Y-22757580D01*
X48506273Y-22781390D01*
X48458654Y-22781390D01*
X48387225Y-22757580D01*
X48339606Y-22709961D01*
X48315797Y-22662342D01*
X48291987Y-22567104D01*
X48291987Y-22495676D01*
X48315797Y-22400438D01*
X48339606Y-22352819D01*
X48387225Y-22305200D01*
X48458654Y-22281390D01*
X48506273Y-22281390D01*
X48577701Y-22305200D01*
X48601511Y-22329009D01*
X49030082Y-22281390D02*
X48934844Y-22281390D01*
X48887225Y-22305200D01*
X48863416Y-22329009D01*
X48815797Y-22400438D01*
X48791987Y-22495676D01*
X48791987Y-22686152D01*
X48815797Y-22733771D01*
X48839606Y-22757580D01*
X48887225Y-22781390D01*
X48982463Y-22781390D01*
X49030082Y-22757580D01*
X49053892Y-22733771D01*
X49077701Y-22686152D01*
X49077701Y-22567104D01*
X49053892Y-22519485D01*
X49030082Y-22495676D01*
X48982463Y-22471866D01*
X48887225Y-22471866D01*
X48839606Y-22495676D01*
X48815797Y-22519485D01*
X48791987Y-22567104D01*
X49553892Y-22781390D02*
X49268178Y-22781390D01*
X49411035Y-22781390D02*
X49411035Y-22281390D01*
X49363416Y-22352819D01*
X49315797Y-22400438D01*
X49268178Y-22424247D01*
X27734651Y-26672710D02*
X27567984Y-26434615D01*
X27448937Y-26672710D02*
X27448937Y-26172710D01*
X27639413Y-26172710D01*
X27687032Y-26196520D01*
X27710841Y-26220329D01*
X27734651Y-26267948D01*
X27734651Y-26339377D01*
X27710841Y-26386996D01*
X27687032Y-26410805D01*
X27639413Y-26434615D01*
X27448937Y-26434615D01*
X28187032Y-26172710D02*
X27948937Y-26172710D01*
X27925127Y-26410805D01*
X27948937Y-26386996D01*
X27996556Y-26363186D01*
X28115603Y-26363186D01*
X28163222Y-26386996D01*
X28187032Y-26410805D01*
X28210841Y-26458424D01*
X28210841Y-26577472D01*
X28187032Y-26625091D01*
X28163222Y-26648900D01*
X28115603Y-26672710D01*
X27996556Y-26672710D01*
X27948937Y-26648900D01*
X27925127Y-26625091D01*
X28687032Y-26672710D02*
X28401318Y-26672710D01*
X28544175Y-26672710D02*
X28544175Y-26172710D01*
X28496556Y-26244139D01*
X28448937Y-26291758D01*
X28401318Y-26315567D01*
X14778571Y-27426190D02*
X14611904Y-27188095D01*
X14492857Y-27426190D02*
X14492857Y-26926190D01*
X14683333Y-26926190D01*
X14730952Y-26950000D01*
X14754761Y-26973809D01*
X14778571Y-27021428D01*
X14778571Y-27092857D01*
X14754761Y-27140476D01*
X14730952Y-27164285D01*
X14683333Y-27188095D01*
X14492857Y-27188095D01*
X15230952Y-26926190D02*
X14992857Y-26926190D01*
X14969047Y-27164285D01*
X14992857Y-27140476D01*
X15040476Y-27116666D01*
X15159523Y-27116666D01*
X15207142Y-27140476D01*
X15230952Y-27164285D01*
X15254761Y-27211904D01*
X15254761Y-27330952D01*
X15230952Y-27378571D01*
X15207142Y-27402380D01*
X15159523Y-27426190D01*
X15040476Y-27426190D01*
X14992857Y-27402380D01*
X14969047Y-27378571D01*
X15564285Y-26926190D02*
X15611904Y-26926190D01*
X15659523Y-26950000D01*
X15683333Y-26973809D01*
X15707142Y-27021428D01*
X15730952Y-27116666D01*
X15730952Y-27235714D01*
X15707142Y-27330952D01*
X15683333Y-27378571D01*
X15659523Y-27402380D01*
X15611904Y-27426190D01*
X15564285Y-27426190D01*
X15516666Y-27402380D01*
X15492857Y-27378571D01*
X15469047Y-27330952D01*
X15445238Y-27235714D01*
X15445238Y-27116666D01*
X15469047Y-27021428D01*
X15492857Y-26973809D01*
X15516666Y-26950000D01*
X15564285Y-26926190D01*
X46278930Y-29053908D02*
X46040835Y-29220575D01*
X46278930Y-29339622D02*
X45778930Y-29339622D01*
X45778930Y-29149146D01*
X45802740Y-29101527D01*
X45826549Y-29077718D01*
X45874168Y-29053908D01*
X45945597Y-29053908D01*
X45993216Y-29077718D01*
X46017025Y-29101527D01*
X46040835Y-29149146D01*
X46040835Y-29339622D01*
X45945597Y-28625337D02*
X46278930Y-28625337D01*
X45755120Y-28744384D02*
X46112263Y-28863432D01*
X46112263Y-28553908D01*
X45826549Y-28387241D02*
X45802740Y-28363432D01*
X45778930Y-28315813D01*
X45778930Y-28196765D01*
X45802740Y-28149146D01*
X45826549Y-28125337D01*
X45874168Y-28101527D01*
X45921787Y-28101527D01*
X45993216Y-28125337D01*
X46278930Y-28411051D01*
X46278930Y-28101527D01*
X44426190Y-25371428D02*
X44188095Y-25538095D01*
X44426190Y-25657142D02*
X43926190Y-25657142D01*
X43926190Y-25466666D01*
X43950000Y-25419047D01*
X43973809Y-25395238D01*
X44021428Y-25371428D01*
X44092857Y-25371428D01*
X44140476Y-25395238D01*
X44164285Y-25419047D01*
X44188095Y-25466666D01*
X44188095Y-25657142D01*
X44092857Y-24942857D02*
X44426190Y-24942857D01*
X43902380Y-25061904D02*
X44259523Y-25180952D01*
X44259523Y-24871428D01*
X44426190Y-24657142D02*
X44426190Y-24561904D01*
X44402380Y-24514285D01*
X44378571Y-24490476D01*
X44307142Y-24442857D01*
X44211904Y-24419047D01*
X44021428Y-24419047D01*
X43973809Y-24442857D01*
X43950000Y-24466666D01*
X43926190Y-24514285D01*
X43926190Y-24609523D01*
X43950000Y-24657142D01*
X43973809Y-24680952D01*
X44021428Y-24704761D01*
X44140476Y-24704761D01*
X44188095Y-24680952D01*
X44211904Y-24657142D01*
X44235714Y-24609523D01*
X44235714Y-24514285D01*
X44211904Y-24466666D01*
X44188095Y-24442857D01*
X44140476Y-24419047D01*
X44376190Y-27971428D02*
X44138095Y-28138095D01*
X44376190Y-28257142D02*
X43876190Y-28257142D01*
X43876190Y-28066666D01*
X43900000Y-28019047D01*
X43923809Y-27995238D01*
X43971428Y-27971428D01*
X44042857Y-27971428D01*
X44090476Y-27995238D01*
X44114285Y-28019047D01*
X44138095Y-28066666D01*
X44138095Y-28257142D01*
X44042857Y-27542857D02*
X44376190Y-27542857D01*
X43852380Y-27661904D02*
X44209523Y-27780952D01*
X44209523Y-27471428D01*
X44090476Y-27209523D02*
X44066666Y-27257142D01*
X44042857Y-27280952D01*
X43995238Y-27304761D01*
X43971428Y-27304761D01*
X43923809Y-27280952D01*
X43900000Y-27257142D01*
X43876190Y-27209523D01*
X43876190Y-27114285D01*
X43900000Y-27066666D01*
X43923809Y-27042857D01*
X43971428Y-27019047D01*
X43995238Y-27019047D01*
X44042857Y-27042857D01*
X44066666Y-27066666D01*
X44090476Y-27114285D01*
X44090476Y-27209523D01*
X44114285Y-27257142D01*
X44138095Y-27280952D01*
X44185714Y-27304761D01*
X44280952Y-27304761D01*
X44328571Y-27280952D01*
X44352380Y-27257142D01*
X44376190Y-27209523D01*
X44376190Y-27114285D01*
X44352380Y-27066666D01*
X44328571Y-27042857D01*
X44280952Y-27019047D01*
X44185714Y-27019047D01*
X44138095Y-27042857D01*
X44114285Y-27066666D01*
X44090476Y-27114285D01*
X47578571Y-25776190D02*
X47411904Y-25538095D01*
X47292857Y-25776190D02*
X47292857Y-25276190D01*
X47483333Y-25276190D01*
X47530952Y-25300000D01*
X47554761Y-25323809D01*
X47578571Y-25371428D01*
X47578571Y-25442857D01*
X47554761Y-25490476D01*
X47530952Y-25514285D01*
X47483333Y-25538095D01*
X47292857Y-25538095D01*
X48007142Y-25442857D02*
X48007142Y-25776190D01*
X47888095Y-25252380D02*
X47769047Y-25609523D01*
X48078571Y-25609523D01*
X48221428Y-25276190D02*
X48554761Y-25276190D01*
X48340476Y-25776190D01*
D10*
X57859989Y-70825510D02*
X57859989Y-71301700D01*
X57526656Y-70301700D02*
X57859989Y-70825510D01*
X58193322Y-70301700D01*
X58479037Y-70396939D02*
X58526656Y-70349320D01*
X58621894Y-70301700D01*
X58859989Y-70301700D01*
X58955227Y-70349320D01*
X59002846Y-70396939D01*
X59050465Y-70492177D01*
X59050465Y-70587415D01*
X59002846Y-70730272D01*
X58431418Y-71301700D01*
X59050465Y-71301700D01*
D14*
X28611711Y-68542030D02*
X28445044Y-68303935D01*
X28325997Y-68542030D02*
X28325997Y-68042030D01*
X28516473Y-68042030D01*
X28564092Y-68065840D01*
X28587901Y-68089649D01*
X28611711Y-68137268D01*
X28611711Y-68208697D01*
X28587901Y-68256316D01*
X28564092Y-68280125D01*
X28516473Y-68303935D01*
X28325997Y-68303935D01*
X29040282Y-68208697D02*
X29040282Y-68542030D01*
X28921235Y-68018220D02*
X28802187Y-68375363D01*
X29111711Y-68375363D01*
X29397425Y-68042030D02*
X29445044Y-68042030D01*
X29492663Y-68065840D01*
X29516473Y-68089649D01*
X29540282Y-68137268D01*
X29564092Y-68232506D01*
X29564092Y-68351554D01*
X29540282Y-68446792D01*
X29516473Y-68494411D01*
X29492663Y-68518220D01*
X29445044Y-68542030D01*
X29397425Y-68542030D01*
X29349806Y-68518220D01*
X29325997Y-68494411D01*
X29302187Y-68446792D01*
X29278378Y-68351554D01*
X29278378Y-68232506D01*
X29302187Y-68137268D01*
X29325997Y-68089649D01*
X29349806Y-68065840D01*
X29397425Y-68042030D01*
X28616791Y-67602230D02*
X28450124Y-67364135D01*
X28331077Y-67602230D02*
X28331077Y-67102230D01*
X28521553Y-67102230D01*
X28569172Y-67126040D01*
X28592981Y-67149849D01*
X28616791Y-67197468D01*
X28616791Y-67268897D01*
X28592981Y-67316516D01*
X28569172Y-67340325D01*
X28521553Y-67364135D01*
X28331077Y-67364135D01*
X28783458Y-67102230D02*
X29092981Y-67102230D01*
X28926315Y-67292706D01*
X28997743Y-67292706D01*
X29045362Y-67316516D01*
X29069172Y-67340325D01*
X29092981Y-67387944D01*
X29092981Y-67506992D01*
X29069172Y-67554611D01*
X29045362Y-67578420D01*
X28997743Y-67602230D01*
X28854886Y-67602230D01*
X28807267Y-67578420D01*
X28783458Y-67554611D01*
X29331077Y-67602230D02*
X29426315Y-67602230D01*
X29473934Y-67578420D01*
X29497743Y-67554611D01*
X29545362Y-67483182D01*
X29569172Y-67387944D01*
X29569172Y-67197468D01*
X29545362Y-67149849D01*
X29521553Y-67126040D01*
X29473934Y-67102230D01*
X29378696Y-67102230D01*
X29331077Y-67126040D01*
X29307267Y-67149849D01*
X29283458Y-67197468D01*
X29283458Y-67316516D01*
X29307267Y-67364135D01*
X29331077Y-67387944D01*
X29378696Y-67411754D01*
X29473934Y-67411754D01*
X29521553Y-67387944D01*
X29545362Y-67364135D01*
X29569172Y-67316516D01*
X46660951Y-67226310D02*
X46494284Y-66988215D01*
X46375237Y-67226310D02*
X46375237Y-66726310D01*
X46565713Y-66726310D01*
X46613332Y-66750120D01*
X46637141Y-66773929D01*
X46660951Y-66821548D01*
X46660951Y-66892977D01*
X46637141Y-66940596D01*
X46613332Y-66964405D01*
X46565713Y-66988215D01*
X46375237Y-66988215D01*
X46827618Y-66726310D02*
X47137141Y-66726310D01*
X46970475Y-66916786D01*
X47041903Y-66916786D01*
X47089522Y-66940596D01*
X47113332Y-66964405D01*
X47137141Y-67012024D01*
X47137141Y-67131072D01*
X47113332Y-67178691D01*
X47089522Y-67202500D01*
X47041903Y-67226310D01*
X46899046Y-67226310D01*
X46851427Y-67202500D01*
X46827618Y-67178691D01*
X47422856Y-66940596D02*
X47375237Y-66916786D01*
X47351427Y-66892977D01*
X47327618Y-66845358D01*
X47327618Y-66821548D01*
X47351427Y-66773929D01*
X47375237Y-66750120D01*
X47422856Y-66726310D01*
X47518094Y-66726310D01*
X47565713Y-66750120D01*
X47589522Y-66773929D01*
X47613332Y-66821548D01*
X47613332Y-66845358D01*
X47589522Y-66892977D01*
X47565713Y-66916786D01*
X47518094Y-66940596D01*
X47422856Y-66940596D01*
X47375237Y-66964405D01*
X47351427Y-66988215D01*
X47327618Y-67035834D01*
X47327618Y-67131072D01*
X47351427Y-67178691D01*
X47375237Y-67202500D01*
X47422856Y-67226310D01*
X47518094Y-67226310D01*
X47565713Y-67202500D01*
X47589522Y-67178691D01*
X47613332Y-67131072D01*
X47613332Y-67035834D01*
X47589522Y-66988215D01*
X47565713Y-66964405D01*
X47518094Y-66940596D01*
X44528571Y-72876190D02*
X44361904Y-72638095D01*
X44242857Y-72876190D02*
X44242857Y-72376190D01*
X44433333Y-72376190D01*
X44480952Y-72400000D01*
X44504761Y-72423809D01*
X44528571Y-72471428D01*
X44528571Y-72542857D01*
X44504761Y-72590476D01*
X44480952Y-72614285D01*
X44433333Y-72638095D01*
X44242857Y-72638095D01*
X44695238Y-72376190D02*
X45004761Y-72376190D01*
X44838095Y-72566666D01*
X44909523Y-72566666D01*
X44957142Y-72590476D01*
X44980952Y-72614285D01*
X45004761Y-72661904D01*
X45004761Y-72780952D01*
X44980952Y-72828571D01*
X44957142Y-72852380D01*
X44909523Y-72876190D01*
X44766666Y-72876190D01*
X44719047Y-72852380D01*
X44695238Y-72828571D01*
X45171428Y-72376190D02*
X45480952Y-72376190D01*
X45314285Y-72566666D01*
X45385714Y-72566666D01*
X45433333Y-72590476D01*
X45457142Y-72614285D01*
X45480952Y-72661904D01*
X45480952Y-72780952D01*
X45457142Y-72828571D01*
X45433333Y-72852380D01*
X45385714Y-72876190D01*
X45242857Y-72876190D01*
X45195238Y-72852380D01*
X45171428Y-72828571D01*
X44552751Y-71671310D02*
X44386084Y-71433215D01*
X44267037Y-71671310D02*
X44267037Y-71171310D01*
X44457513Y-71171310D01*
X44505132Y-71195120D01*
X44528941Y-71218929D01*
X44552751Y-71266548D01*
X44552751Y-71337977D01*
X44528941Y-71385596D01*
X44505132Y-71409405D01*
X44457513Y-71433215D01*
X44267037Y-71433215D01*
X44743227Y-71218929D02*
X44767037Y-71195120D01*
X44814656Y-71171310D01*
X44933703Y-71171310D01*
X44981322Y-71195120D01*
X45005132Y-71218929D01*
X45028941Y-71266548D01*
X45028941Y-71314167D01*
X45005132Y-71385596D01*
X44719418Y-71671310D01*
X45028941Y-71671310D01*
X45267037Y-71671310D02*
X45362275Y-71671310D01*
X45409894Y-71647500D01*
X45433703Y-71623691D01*
X45481322Y-71552262D01*
X45505132Y-71457024D01*
X45505132Y-71266548D01*
X45481322Y-71218929D01*
X45457513Y-71195120D01*
X45409894Y-71171310D01*
X45314656Y-71171310D01*
X45267037Y-71195120D01*
X45243227Y-71218929D01*
X45219418Y-71266548D01*
X45219418Y-71385596D01*
X45243227Y-71433215D01*
X45267037Y-71457024D01*
X45314656Y-71480834D01*
X45409894Y-71480834D01*
X45457513Y-71457024D01*
X45481322Y-71433215D01*
X45505132Y-71385596D01*
X28385291Y-40964270D02*
X28218624Y-40726175D01*
X28099577Y-40964270D02*
X28099577Y-40464270D01*
X28290053Y-40464270D01*
X28337672Y-40488080D01*
X28361481Y-40511889D01*
X28385291Y-40559508D01*
X28385291Y-40630937D01*
X28361481Y-40678556D01*
X28337672Y-40702365D01*
X28290053Y-40726175D01*
X28099577Y-40726175D01*
X28575767Y-40511889D02*
X28599577Y-40488080D01*
X28647196Y-40464270D01*
X28766243Y-40464270D01*
X28813862Y-40488080D01*
X28837672Y-40511889D01*
X28861481Y-40559508D01*
X28861481Y-40607127D01*
X28837672Y-40678556D01*
X28551958Y-40964270D01*
X28861481Y-40964270D01*
X29147196Y-40678556D02*
X29099577Y-40654746D01*
X29075767Y-40630937D01*
X29051958Y-40583318D01*
X29051958Y-40559508D01*
X29075767Y-40511889D01*
X29099577Y-40488080D01*
X29147196Y-40464270D01*
X29242434Y-40464270D01*
X29290053Y-40488080D01*
X29313862Y-40511889D01*
X29337672Y-40559508D01*
X29337672Y-40583318D01*
X29313862Y-40630937D01*
X29290053Y-40654746D01*
X29242434Y-40678556D01*
X29147196Y-40678556D01*
X29099577Y-40702365D01*
X29075767Y-40726175D01*
X29051958Y-40773794D01*
X29051958Y-40869032D01*
X29075767Y-40916651D01*
X29099577Y-40940460D01*
X29147196Y-40964270D01*
X29242434Y-40964270D01*
X29290053Y-40940460D01*
X29313862Y-40916651D01*
X29337672Y-40869032D01*
X29337672Y-40773794D01*
X29313862Y-40726175D01*
X29290053Y-40702365D01*
X29242434Y-40678556D01*
X27845238Y-39276190D02*
X27845238Y-38776190D01*
X28035714Y-38776190D01*
X28083333Y-38800000D01*
X28107142Y-38823809D01*
X28130952Y-38871428D01*
X28130952Y-38942857D01*
X28107142Y-38990476D01*
X28083333Y-39014285D01*
X28035714Y-39038095D01*
X27845238Y-39038095D01*
X28297619Y-38776190D02*
X28416666Y-39276190D01*
X28511904Y-38919047D01*
X28607142Y-39276190D01*
X28726190Y-38776190D01*
X29202380Y-39276190D02*
X29035714Y-39038095D01*
X28916666Y-39276190D02*
X28916666Y-38776190D01*
X29107142Y-38776190D01*
X29154761Y-38800000D01*
X29178571Y-38823809D01*
X29202380Y-38871428D01*
X29202380Y-38942857D01*
X29178571Y-38990476D01*
X29154761Y-39014285D01*
X29107142Y-39038095D01*
X28916666Y-39038095D01*
X29678571Y-39276190D02*
X29392857Y-39276190D01*
X29535714Y-39276190D02*
X29535714Y-38776190D01*
X29488095Y-38847619D01*
X29440476Y-38895238D01*
X29392857Y-38919047D01*
D10*
X38751284Y-76469500D02*
X38751284Y-75469500D01*
X39132237Y-75469500D01*
X39227475Y-75517120D01*
X39275094Y-75564739D01*
X39322713Y-75659977D01*
X39322713Y-75802834D01*
X39275094Y-75898072D01*
X39227475Y-75945691D01*
X39132237Y-75993310D01*
X38751284Y-75993310D01*
X40179856Y-75802834D02*
X40179856Y-76469500D01*
X39941760Y-75421881D02*
X39703665Y-76136167D01*
X40322713Y-76136167D01*
X38751284Y-74691500D02*
X38751284Y-73691500D01*
X39132237Y-73691500D01*
X39227475Y-73739120D01*
X39275094Y-73786739D01*
X39322713Y-73881977D01*
X39322713Y-74024834D01*
X39275094Y-74120072D01*
X39227475Y-74167691D01*
X39132237Y-74215310D01*
X38751284Y-74215310D01*
X39656046Y-73691500D02*
X40275094Y-73691500D01*
X39941760Y-74072453D01*
X40084618Y-74072453D01*
X40179856Y-74120072D01*
X40227475Y-74167691D01*
X40275094Y-74262929D01*
X40275094Y-74501024D01*
X40227475Y-74596262D01*
X40179856Y-74643881D01*
X40084618Y-74691500D01*
X39798903Y-74691500D01*
X39703665Y-74643881D01*
X39656046Y-74596262D01*
X47133284Y-76469500D02*
X47133284Y-75469500D01*
X47514237Y-75469500D01*
X47609475Y-75517120D01*
X47657094Y-75564739D01*
X47704713Y-75659977D01*
X47704713Y-75802834D01*
X47657094Y-75898072D01*
X47609475Y-75945691D01*
X47514237Y-75993310D01*
X47133284Y-75993310D01*
X48085665Y-75564739D02*
X48133284Y-75517120D01*
X48228522Y-75469500D01*
X48466618Y-75469500D01*
X48561856Y-75517120D01*
X48609475Y-75564739D01*
X48657094Y-75659977D01*
X48657094Y-75755215D01*
X48609475Y-75898072D01*
X48038046Y-76469500D01*
X48657094Y-76469500D01*
X47133284Y-74691500D02*
X47133284Y-73691500D01*
X47514237Y-73691500D01*
X47609475Y-73739120D01*
X47657094Y-73786739D01*
X47704713Y-73881977D01*
X47704713Y-74024834D01*
X47657094Y-74120072D01*
X47609475Y-74167691D01*
X47514237Y-74215310D01*
X47133284Y-74215310D01*
X48657094Y-74691500D02*
X48085665Y-74691500D01*
X48371380Y-74691500D02*
X48371380Y-73691500D01*
X48276141Y-73834358D01*
X48180903Y-73929596D01*
X48085665Y-73977215D01*
X42958046Y-68087358D02*
X42958046Y-67611167D01*
X43243760Y-68182596D02*
X42243760Y-67849262D01*
X43243760Y-67515929D01*
X43148522Y-66611167D02*
X43196141Y-66658786D01*
X43243760Y-66801643D01*
X43243760Y-66896881D01*
X43196141Y-67039739D01*
X43100903Y-67134977D01*
X43005665Y-67182596D01*
X42815189Y-67230215D01*
X42672332Y-67230215D01*
X42481856Y-67182596D01*
X42386618Y-67134977D01*
X42291380Y-67039739D01*
X42243760Y-66896881D01*
X42243760Y-66801643D01*
X42291380Y-66658786D01*
X42338999Y-66611167D01*
X42243760Y-66325453D02*
X42243760Y-65754024D01*
X43243760Y-66039739D02*
X42243760Y-66039739D01*
X43243760Y-64896881D02*
X43243760Y-65468310D01*
X43243760Y-65182596D02*
X42243760Y-65182596D01*
X42386618Y-65277834D01*
X42481856Y-65373072D01*
X42529475Y-65468310D01*
X22935295Y-39405980D02*
X22935295Y-40215504D01*
X22982914Y-40310742D01*
X23030533Y-40358361D01*
X23125771Y-40405980D01*
X23316247Y-40405980D01*
X23411485Y-40358361D01*
X23459104Y-40310742D01*
X23506723Y-40215504D01*
X23506723Y-39405980D01*
X24411485Y-39739314D02*
X24411485Y-40405980D01*
X24173390Y-39358361D02*
X23935295Y-40072647D01*
X24554342Y-40072647D01*
D14*
X54846991Y-62272028D02*
X54870800Y-62295838D01*
X54894610Y-62367266D01*
X54894610Y-62414885D01*
X54870800Y-62486314D01*
X54823181Y-62533933D01*
X54775562Y-62557742D01*
X54680324Y-62581552D01*
X54608896Y-62581552D01*
X54513658Y-62557742D01*
X54466039Y-62533933D01*
X54418420Y-62486314D01*
X54394610Y-62414885D01*
X54394610Y-62367266D01*
X54418420Y-62295838D01*
X54442229Y-62272028D01*
X54394610Y-62105361D02*
X54394610Y-61795838D01*
X54585086Y-61962504D01*
X54585086Y-61891076D01*
X54608896Y-61843457D01*
X54632705Y-61819647D01*
X54680324Y-61795838D01*
X54799372Y-61795838D01*
X54846991Y-61819647D01*
X54870800Y-61843457D01*
X54894610Y-61891076D01*
X54894610Y-62033933D01*
X54870800Y-62081552D01*
X54846991Y-62105361D01*
X54561277Y-61367266D02*
X54894610Y-61367266D01*
X54370800Y-61486314D02*
X54727943Y-61605361D01*
X54727943Y-61295838D01*
X28128571Y-80028571D02*
X28104761Y-80052380D01*
X28033333Y-80076190D01*
X27985714Y-80076190D01*
X27914285Y-80052380D01*
X27866666Y-80004761D01*
X27842857Y-79957142D01*
X27819047Y-79861904D01*
X27819047Y-79790476D01*
X27842857Y-79695238D01*
X27866666Y-79647619D01*
X27914285Y-79600000D01*
X27985714Y-79576190D01*
X28033333Y-79576190D01*
X28104761Y-79600000D01*
X28128571Y-79623809D01*
X28580952Y-79576190D02*
X28342857Y-79576190D01*
X28319047Y-79814285D01*
X28342857Y-79790476D01*
X28390476Y-79766666D01*
X28509523Y-79766666D01*
X28557142Y-79790476D01*
X28580952Y-79814285D01*
X28604761Y-79861904D01*
X28604761Y-79980952D01*
X28580952Y-80028571D01*
X28557142Y-80052380D01*
X28509523Y-80076190D01*
X28390476Y-80076190D01*
X28342857Y-80052380D01*
X28319047Y-80028571D01*
X28890476Y-79790476D02*
X28842857Y-79766666D01*
X28819047Y-79742857D01*
X28795238Y-79695238D01*
X28795238Y-79671428D01*
X28819047Y-79623809D01*
X28842857Y-79600000D01*
X28890476Y-79576190D01*
X28985714Y-79576190D01*
X29033333Y-79600000D01*
X29057142Y-79623809D01*
X29080952Y-79671428D01*
X29080952Y-79695238D01*
X29057142Y-79742857D01*
X29033333Y-79766666D01*
X28985714Y-79790476D01*
X28890476Y-79790476D01*
X28842857Y-79814285D01*
X28819047Y-79838095D01*
X28795238Y-79885714D01*
X28795238Y-79980952D01*
X28819047Y-80028571D01*
X28842857Y-80052380D01*
X28890476Y-80076190D01*
X28985714Y-80076190D01*
X29033333Y-80052380D01*
X29057142Y-80028571D01*
X29080952Y-79980952D01*
X29080952Y-79885714D01*
X29057142Y-79838095D01*
X29033333Y-79814285D01*
X28985714Y-79790476D01*
X21204431Y-28097951D02*
X21180621Y-28121760D01*
X21109193Y-28145570D01*
X21061574Y-28145570D01*
X20990145Y-28121760D01*
X20942526Y-28074141D01*
X20918717Y-28026522D01*
X20894907Y-27931284D01*
X20894907Y-27859856D01*
X20918717Y-27764618D01*
X20942526Y-27716999D01*
X20990145Y-27669380D01*
X21061574Y-27645570D01*
X21109193Y-27645570D01*
X21180621Y-27669380D01*
X21204431Y-27693189D01*
X21656812Y-27645570D02*
X21418717Y-27645570D01*
X21394907Y-27883665D01*
X21418717Y-27859856D01*
X21466336Y-27836046D01*
X21585383Y-27836046D01*
X21633002Y-27859856D01*
X21656812Y-27883665D01*
X21680621Y-27931284D01*
X21680621Y-28050332D01*
X21656812Y-28097951D01*
X21633002Y-28121760D01*
X21585383Y-28145570D01*
X21466336Y-28145570D01*
X21418717Y-28121760D01*
X21394907Y-28097951D01*
X21847288Y-27645570D02*
X22180621Y-27645570D01*
X21966336Y-28145570D01*
X26400351Y-81863611D02*
X26376541Y-81887420D01*
X26305113Y-81911230D01*
X26257494Y-81911230D01*
X26186065Y-81887420D01*
X26138446Y-81839801D01*
X26114637Y-81792182D01*
X26090827Y-81696944D01*
X26090827Y-81625516D01*
X26114637Y-81530278D01*
X26138446Y-81482659D01*
X26186065Y-81435040D01*
X26257494Y-81411230D01*
X26305113Y-81411230D01*
X26376541Y-81435040D01*
X26400351Y-81458849D01*
X26852732Y-81411230D02*
X26614637Y-81411230D01*
X26590827Y-81649325D01*
X26614637Y-81625516D01*
X26662256Y-81601706D01*
X26781303Y-81601706D01*
X26828922Y-81625516D01*
X26852732Y-81649325D01*
X26876541Y-81696944D01*
X26876541Y-81815992D01*
X26852732Y-81863611D01*
X26828922Y-81887420D01*
X26781303Y-81911230D01*
X26662256Y-81911230D01*
X26614637Y-81887420D01*
X26590827Y-81863611D01*
X27305113Y-81411230D02*
X27209875Y-81411230D01*
X27162256Y-81435040D01*
X27138446Y-81458849D01*
X27090827Y-81530278D01*
X27067018Y-81625516D01*
X27067018Y-81815992D01*
X27090827Y-81863611D01*
X27114637Y-81887420D01*
X27162256Y-81911230D01*
X27257494Y-81911230D01*
X27305113Y-81887420D01*
X27328922Y-81863611D01*
X27352732Y-81815992D01*
X27352732Y-81696944D01*
X27328922Y-81649325D01*
X27305113Y-81625516D01*
X27257494Y-81601706D01*
X27162256Y-81601706D01*
X27114637Y-81625516D01*
X27090827Y-81649325D01*
X27067018Y-81696944D01*
X21219671Y-26995591D02*
X21195861Y-27019400D01*
X21124433Y-27043210D01*
X21076814Y-27043210D01*
X21005385Y-27019400D01*
X20957766Y-26971781D01*
X20933957Y-26924162D01*
X20910147Y-26828924D01*
X20910147Y-26757496D01*
X20933957Y-26662258D01*
X20957766Y-26614639D01*
X21005385Y-26567020D01*
X21076814Y-26543210D01*
X21124433Y-26543210D01*
X21195861Y-26567020D01*
X21219671Y-26590829D01*
X21672052Y-26543210D02*
X21433957Y-26543210D01*
X21410147Y-26781305D01*
X21433957Y-26757496D01*
X21481576Y-26733686D01*
X21600623Y-26733686D01*
X21648242Y-26757496D01*
X21672052Y-26781305D01*
X21695861Y-26828924D01*
X21695861Y-26947972D01*
X21672052Y-26995591D01*
X21648242Y-27019400D01*
X21600623Y-27043210D01*
X21481576Y-27043210D01*
X21433957Y-27019400D01*
X21410147Y-26995591D01*
X22148242Y-26543210D02*
X21910147Y-26543210D01*
X21886338Y-26781305D01*
X21910147Y-26757496D01*
X21957766Y-26733686D01*
X22076814Y-26733686D01*
X22124433Y-26757496D01*
X22148242Y-26781305D01*
X22172052Y-26828924D01*
X22172052Y-26947972D01*
X22148242Y-26995591D01*
X22124433Y-27019400D01*
X22076814Y-27043210D01*
X21957766Y-27043210D01*
X21910147Y-27019400D01*
X21886338Y-26995591D01*
X12655431Y-61931051D02*
X12631621Y-61954860D01*
X12560193Y-61978670D01*
X12512574Y-61978670D01*
X12441145Y-61954860D01*
X12393526Y-61907241D01*
X12369717Y-61859622D01*
X12345907Y-61764384D01*
X12345907Y-61692956D01*
X12369717Y-61597718D01*
X12393526Y-61550099D01*
X12441145Y-61502480D01*
X12512574Y-61478670D01*
X12560193Y-61478670D01*
X12631621Y-61502480D01*
X12655431Y-61526289D01*
X13107812Y-61478670D02*
X12869717Y-61478670D01*
X12845907Y-61716765D01*
X12869717Y-61692956D01*
X12917336Y-61669146D01*
X13036383Y-61669146D01*
X13084002Y-61692956D01*
X13107812Y-61716765D01*
X13131621Y-61764384D01*
X13131621Y-61883432D01*
X13107812Y-61931051D01*
X13084002Y-61954860D01*
X13036383Y-61978670D01*
X12917336Y-61978670D01*
X12869717Y-61954860D01*
X12845907Y-61931051D01*
X13560193Y-61645337D02*
X13560193Y-61978670D01*
X13441145Y-61454860D02*
X13322098Y-61812003D01*
X13631621Y-61812003D01*
X31378571Y-78878571D02*
X31354761Y-78902380D01*
X31283333Y-78926190D01*
X31235714Y-78926190D01*
X31164285Y-78902380D01*
X31116666Y-78854761D01*
X31092857Y-78807142D01*
X31069047Y-78711904D01*
X31069047Y-78640476D01*
X31092857Y-78545238D01*
X31116666Y-78497619D01*
X31164285Y-78450000D01*
X31235714Y-78426190D01*
X31283333Y-78426190D01*
X31354761Y-78450000D01*
X31378571Y-78473809D01*
X31830952Y-78426190D02*
X31592857Y-78426190D01*
X31569047Y-78664285D01*
X31592857Y-78640476D01*
X31640476Y-78616666D01*
X31759523Y-78616666D01*
X31807142Y-78640476D01*
X31830952Y-78664285D01*
X31854761Y-78711904D01*
X31854761Y-78830952D01*
X31830952Y-78878571D01*
X31807142Y-78902380D01*
X31759523Y-78926190D01*
X31640476Y-78926190D01*
X31592857Y-78902380D01*
X31569047Y-78878571D01*
X32021428Y-78426190D02*
X32330952Y-78426190D01*
X32164285Y-78616666D01*
X32235714Y-78616666D01*
X32283333Y-78640476D01*
X32307142Y-78664285D01*
X32330952Y-78711904D01*
X32330952Y-78830952D01*
X32307142Y-78878571D01*
X32283333Y-78902380D01*
X32235714Y-78926190D01*
X32092857Y-78926190D01*
X32045238Y-78902380D01*
X32021428Y-78878571D01*
X31328571Y-80028571D02*
X31304761Y-80052380D01*
X31233333Y-80076190D01*
X31185714Y-80076190D01*
X31114285Y-80052380D01*
X31066666Y-80004761D01*
X31042857Y-79957142D01*
X31019047Y-79861904D01*
X31019047Y-79790476D01*
X31042857Y-79695238D01*
X31066666Y-79647619D01*
X31114285Y-79600000D01*
X31185714Y-79576190D01*
X31233333Y-79576190D01*
X31304761Y-79600000D01*
X31328571Y-79623809D01*
X31780952Y-79576190D02*
X31542857Y-79576190D01*
X31519047Y-79814285D01*
X31542857Y-79790476D01*
X31590476Y-79766666D01*
X31709523Y-79766666D01*
X31757142Y-79790476D01*
X31780952Y-79814285D01*
X31804761Y-79861904D01*
X31804761Y-79980952D01*
X31780952Y-80028571D01*
X31757142Y-80052380D01*
X31709523Y-80076190D01*
X31590476Y-80076190D01*
X31542857Y-80052380D01*
X31519047Y-80028571D01*
X31995238Y-79623809D02*
X32019047Y-79600000D01*
X32066666Y-79576190D01*
X32185714Y-79576190D01*
X32233333Y-79600000D01*
X32257142Y-79623809D01*
X32280952Y-79671428D01*
X32280952Y-79719047D01*
X32257142Y-79790476D01*
X31971428Y-80076190D01*
X32280952Y-80076190D01*
X28256111Y-76541131D02*
X28232301Y-76564940D01*
X28160873Y-76588750D01*
X28113254Y-76588750D01*
X28041825Y-76564940D01*
X27994206Y-76517321D01*
X27970397Y-76469702D01*
X27946587Y-76374464D01*
X27946587Y-76303036D01*
X27970397Y-76207798D01*
X27994206Y-76160179D01*
X28041825Y-76112560D01*
X28113254Y-76088750D01*
X28160873Y-76088750D01*
X28232301Y-76112560D01*
X28256111Y-76136369D01*
X28708492Y-76088750D02*
X28470397Y-76088750D01*
X28446587Y-76326845D01*
X28470397Y-76303036D01*
X28518016Y-76279226D01*
X28637063Y-76279226D01*
X28684682Y-76303036D01*
X28708492Y-76326845D01*
X28732301Y-76374464D01*
X28732301Y-76493512D01*
X28708492Y-76541131D01*
X28684682Y-76564940D01*
X28637063Y-76588750D01*
X28518016Y-76588750D01*
X28470397Y-76564940D01*
X28446587Y-76541131D01*
X29208492Y-76588750D02*
X28922778Y-76588750D01*
X29065635Y-76588750D02*
X29065635Y-76088750D01*
X29018016Y-76160179D01*
X28970397Y-76207798D01*
X28922778Y-76231607D01*
X15355917Y-64537708D02*
X15379726Y-64561518D01*
X15403536Y-64632946D01*
X15403536Y-64680565D01*
X15379726Y-64751994D01*
X15332107Y-64799613D01*
X15284488Y-64823422D01*
X15189250Y-64847232D01*
X15117822Y-64847232D01*
X15022584Y-64823422D01*
X14974965Y-64799613D01*
X14927346Y-64751994D01*
X14903536Y-64680565D01*
X14903536Y-64632946D01*
X14927346Y-64561518D01*
X14951155Y-64537708D01*
X14903536Y-64085327D02*
X14903536Y-64323422D01*
X15141631Y-64347232D01*
X15117822Y-64323422D01*
X15094012Y-64275803D01*
X15094012Y-64156756D01*
X15117822Y-64109137D01*
X15141631Y-64085327D01*
X15189250Y-64061518D01*
X15308298Y-64061518D01*
X15355917Y-64085327D01*
X15379726Y-64109137D01*
X15403536Y-64156756D01*
X15403536Y-64275803D01*
X15379726Y-64323422D01*
X15355917Y-64347232D01*
X14903536Y-63751994D02*
X14903536Y-63704375D01*
X14927346Y-63656756D01*
X14951155Y-63632946D01*
X14998774Y-63609137D01*
X15094012Y-63585327D01*
X15213060Y-63585327D01*
X15308298Y-63609137D01*
X15355917Y-63632946D01*
X15379726Y-63656756D01*
X15403536Y-63704375D01*
X15403536Y-63751994D01*
X15379726Y-63799613D01*
X15355917Y-63823422D01*
X15308298Y-63847232D01*
X15213060Y-63871041D01*
X15094012Y-63871041D01*
X14998774Y-63847232D01*
X14951155Y-63823422D01*
X14927346Y-63799613D01*
X14903536Y-63751994D01*
X19337091Y-78947128D02*
X19360900Y-78970938D01*
X19384710Y-79042366D01*
X19384710Y-79089985D01*
X19360900Y-79161414D01*
X19313281Y-79209033D01*
X19265662Y-79232842D01*
X19170424Y-79256652D01*
X19098996Y-79256652D01*
X19003758Y-79232842D01*
X18956139Y-79209033D01*
X18908520Y-79161414D01*
X18884710Y-79089985D01*
X18884710Y-79042366D01*
X18908520Y-78970938D01*
X18932329Y-78947128D01*
X19051377Y-78518557D02*
X19384710Y-78518557D01*
X18860900Y-78637604D02*
X19218043Y-78756652D01*
X19218043Y-78447128D01*
X19384710Y-78232842D02*
X19384710Y-78137604D01*
X19360900Y-78089985D01*
X19337091Y-78066176D01*
X19265662Y-78018557D01*
X19170424Y-77994747D01*
X18979948Y-77994747D01*
X18932329Y-78018557D01*
X18908520Y-78042366D01*
X18884710Y-78089985D01*
X18884710Y-78185223D01*
X18908520Y-78232842D01*
X18932329Y-78256652D01*
X18979948Y-78280461D01*
X19098996Y-78280461D01*
X19146615Y-78256652D01*
X19170424Y-78232842D01*
X19194234Y-78185223D01*
X19194234Y-78089985D01*
X19170424Y-78042366D01*
X19146615Y-78018557D01*
X19098996Y-77994747D01*
X13421131Y-77909671D02*
X13397321Y-77933480D01*
X13325893Y-77957290D01*
X13278274Y-77957290D01*
X13206845Y-77933480D01*
X13159226Y-77885861D01*
X13135417Y-77838242D01*
X13111607Y-77743004D01*
X13111607Y-77671576D01*
X13135417Y-77576338D01*
X13159226Y-77528719D01*
X13206845Y-77481100D01*
X13278274Y-77457290D01*
X13325893Y-77457290D01*
X13397321Y-77481100D01*
X13421131Y-77504909D01*
X13849702Y-77623957D02*
X13849702Y-77957290D01*
X13730655Y-77433480D02*
X13611607Y-77790623D01*
X13921131Y-77790623D01*
X14183036Y-77671576D02*
X14135417Y-77647766D01*
X14111607Y-77623957D01*
X14087798Y-77576338D01*
X14087798Y-77552528D01*
X14111607Y-77504909D01*
X14135417Y-77481100D01*
X14183036Y-77457290D01*
X14278274Y-77457290D01*
X14325893Y-77481100D01*
X14349702Y-77504909D01*
X14373512Y-77552528D01*
X14373512Y-77576338D01*
X14349702Y-77623957D01*
X14325893Y-77647766D01*
X14278274Y-77671576D01*
X14183036Y-77671576D01*
X14135417Y-77695385D01*
X14111607Y-77719195D01*
X14087798Y-77766814D01*
X14087798Y-77862052D01*
X14111607Y-77909671D01*
X14135417Y-77933480D01*
X14183036Y-77957290D01*
X14278274Y-77957290D01*
X14325893Y-77933480D01*
X14349702Y-77909671D01*
X14373512Y-77862052D01*
X14373512Y-77766814D01*
X14349702Y-77719195D01*
X14325893Y-77695385D01*
X14278274Y-77671576D01*
X10367371Y-70118271D02*
X10343561Y-70142080D01*
X10272133Y-70165890D01*
X10224514Y-70165890D01*
X10153085Y-70142080D01*
X10105466Y-70094461D01*
X10081657Y-70046842D01*
X10057847Y-69951604D01*
X10057847Y-69880176D01*
X10081657Y-69784938D01*
X10105466Y-69737319D01*
X10153085Y-69689700D01*
X10224514Y-69665890D01*
X10272133Y-69665890D01*
X10343561Y-69689700D01*
X10367371Y-69713509D01*
X10795942Y-69832557D02*
X10795942Y-70165890D01*
X10676895Y-69642080D02*
X10557847Y-69999223D01*
X10867371Y-69999223D01*
X11010228Y-69665890D02*
X11343561Y-69665890D01*
X11129276Y-70165890D01*
X29854710Y-76564930D02*
X29830900Y-76588739D01*
X29759472Y-76612549D01*
X29711853Y-76612549D01*
X29640424Y-76588739D01*
X29592805Y-76541120D01*
X29568996Y-76493501D01*
X29545186Y-76398263D01*
X29545186Y-76326835D01*
X29568996Y-76231597D01*
X29592805Y-76183978D01*
X29640424Y-76136359D01*
X29711853Y-76112549D01*
X29759472Y-76112549D01*
X29830900Y-76136359D01*
X29854710Y-76160168D01*
X30283281Y-76279216D02*
X30283281Y-76612549D01*
X30164234Y-76088739D02*
X30045186Y-76445882D01*
X30354710Y-76445882D01*
X30759472Y-76112549D02*
X30664234Y-76112549D01*
X30616615Y-76136359D01*
X30592805Y-76160168D01*
X30545186Y-76231597D01*
X30521377Y-76326835D01*
X30521377Y-76517311D01*
X30545186Y-76564930D01*
X30568996Y-76588739D01*
X30616615Y-76612549D01*
X30711853Y-76612549D01*
X30759472Y-76588739D01*
X30783281Y-76564930D01*
X30807091Y-76517311D01*
X30807091Y-76398263D01*
X30783281Y-76350644D01*
X30759472Y-76326835D01*
X30711853Y-76303025D01*
X30616615Y-76303025D01*
X30568996Y-76326835D01*
X30545186Y-76350644D01*
X30521377Y-76398263D01*
X10461491Y-74172111D02*
X10437681Y-74195920D01*
X10366253Y-74219730D01*
X10318634Y-74219730D01*
X10247205Y-74195920D01*
X10199586Y-74148301D01*
X10175777Y-74100682D01*
X10151967Y-74005444D01*
X10151967Y-73934016D01*
X10175777Y-73838778D01*
X10199586Y-73791159D01*
X10247205Y-73743540D01*
X10318634Y-73719730D01*
X10366253Y-73719730D01*
X10437681Y-73743540D01*
X10461491Y-73767349D01*
X10890062Y-73886397D02*
X10890062Y-74219730D01*
X10771015Y-73695920D02*
X10651967Y-74053063D01*
X10961491Y-74053063D01*
X11390062Y-73719730D02*
X11151967Y-73719730D01*
X11128158Y-73957825D01*
X11151967Y-73934016D01*
X11199586Y-73910206D01*
X11318634Y-73910206D01*
X11366253Y-73934016D01*
X11390062Y-73957825D01*
X11413872Y-74005444D01*
X11413872Y-74124492D01*
X11390062Y-74172111D01*
X11366253Y-74195920D01*
X11318634Y-74219730D01*
X11199586Y-74219730D01*
X11151967Y-74195920D01*
X11128158Y-74172111D01*
X10433451Y-72665731D02*
X10409641Y-72689540D01*
X10338213Y-72713350D01*
X10290594Y-72713350D01*
X10219165Y-72689540D01*
X10171546Y-72641921D01*
X10147737Y-72594302D01*
X10123927Y-72499064D01*
X10123927Y-72427636D01*
X10147737Y-72332398D01*
X10171546Y-72284779D01*
X10219165Y-72237160D01*
X10290594Y-72213350D01*
X10338213Y-72213350D01*
X10409641Y-72237160D01*
X10433451Y-72260969D01*
X10862022Y-72380017D02*
X10862022Y-72713350D01*
X10742975Y-72189540D02*
X10623927Y-72546683D01*
X10933451Y-72546683D01*
X11338213Y-72380017D02*
X11338213Y-72713350D01*
X11219165Y-72189540D02*
X11100118Y-72546683D01*
X11409641Y-72546683D01*
X15078571Y-84346428D02*
X15102380Y-84370238D01*
X15126190Y-84441666D01*
X15126190Y-84489285D01*
X15102380Y-84560714D01*
X15054761Y-84608333D01*
X15007142Y-84632142D01*
X14911904Y-84655952D01*
X14840476Y-84655952D01*
X14745238Y-84632142D01*
X14697619Y-84608333D01*
X14650000Y-84560714D01*
X14626190Y-84489285D01*
X14626190Y-84441666D01*
X14650000Y-84370238D01*
X14673809Y-84346428D01*
X14792857Y-83917857D02*
X15126190Y-83917857D01*
X14602380Y-84036904D02*
X14959523Y-84155952D01*
X14959523Y-83846428D01*
X14626190Y-83703571D02*
X14626190Y-83394047D01*
X14816666Y-83560714D01*
X14816666Y-83489285D01*
X14840476Y-83441666D01*
X14864285Y-83417857D01*
X14911904Y-83394047D01*
X15030952Y-83394047D01*
X15078571Y-83417857D01*
X15102380Y-83441666D01*
X15126190Y-83489285D01*
X15126190Y-83632142D01*
X15102380Y-83679761D01*
X15078571Y-83703571D01*
X14293351Y-64486908D02*
X14317160Y-64510718D01*
X14340970Y-64582146D01*
X14340970Y-64629765D01*
X14317160Y-64701194D01*
X14269541Y-64748813D01*
X14221922Y-64772622D01*
X14126684Y-64796432D01*
X14055256Y-64796432D01*
X13960018Y-64772622D01*
X13912399Y-64748813D01*
X13864780Y-64701194D01*
X13840970Y-64629765D01*
X13840970Y-64582146D01*
X13864780Y-64510718D01*
X13888589Y-64486908D01*
X14007637Y-64058337D02*
X14340970Y-64058337D01*
X13817160Y-64177384D02*
X14174303Y-64296432D01*
X14174303Y-63986908D01*
X13888589Y-63820241D02*
X13864780Y-63796432D01*
X13840970Y-63748813D01*
X13840970Y-63629765D01*
X13864780Y-63582146D01*
X13888589Y-63558337D01*
X13936208Y-63534527D01*
X13983827Y-63534527D01*
X14055256Y-63558337D01*
X14340970Y-63844051D01*
X14340970Y-63534527D01*
X27346411Y-66971028D02*
X27370220Y-66994838D01*
X27394030Y-67066266D01*
X27394030Y-67113885D01*
X27370220Y-67185314D01*
X27322601Y-67232933D01*
X27274982Y-67256742D01*
X27179744Y-67280552D01*
X27108316Y-67280552D01*
X27013078Y-67256742D01*
X26965459Y-67232933D01*
X26917840Y-67185314D01*
X26894030Y-67113885D01*
X26894030Y-67066266D01*
X26917840Y-66994838D01*
X26941649Y-66971028D01*
X27060697Y-66542457D02*
X27394030Y-66542457D01*
X26870220Y-66661504D02*
X27227363Y-66780552D01*
X27227363Y-66471028D01*
X27394030Y-66018647D02*
X27394030Y-66304361D01*
X27394030Y-66161504D02*
X26894030Y-66161504D01*
X26965459Y-66209123D01*
X27013078Y-66256742D01*
X27036887Y-66304361D01*
X13853571Y-84346428D02*
X13877380Y-84370238D01*
X13901190Y-84441666D01*
X13901190Y-84489285D01*
X13877380Y-84560714D01*
X13829761Y-84608333D01*
X13782142Y-84632142D01*
X13686904Y-84655952D01*
X13615476Y-84655952D01*
X13520238Y-84632142D01*
X13472619Y-84608333D01*
X13425000Y-84560714D01*
X13401190Y-84489285D01*
X13401190Y-84441666D01*
X13425000Y-84370238D01*
X13448809Y-84346428D01*
X13567857Y-83917857D02*
X13901190Y-83917857D01*
X13377380Y-84036904D02*
X13734523Y-84155952D01*
X13734523Y-83846428D01*
X13401190Y-83560714D02*
X13401190Y-83513095D01*
X13425000Y-83465476D01*
X13448809Y-83441666D01*
X13496428Y-83417857D01*
X13591666Y-83394047D01*
X13710714Y-83394047D01*
X13805952Y-83417857D01*
X13853571Y-83441666D01*
X13877380Y-83465476D01*
X13901190Y-83513095D01*
X13901190Y-83560714D01*
X13877380Y-83608333D01*
X13853571Y-83632142D01*
X13805952Y-83655952D01*
X13710714Y-83679761D01*
X13591666Y-83679761D01*
X13496428Y-83655952D01*
X13448809Y-83632142D01*
X13425000Y-83608333D01*
X13401190Y-83560714D01*
X13507491Y-79090771D02*
X13483681Y-79114580D01*
X13412253Y-79138390D01*
X13364634Y-79138390D01*
X13293205Y-79114580D01*
X13245586Y-79066961D01*
X13221777Y-79019342D01*
X13197967Y-78924104D01*
X13197967Y-78852676D01*
X13221777Y-78757438D01*
X13245586Y-78709819D01*
X13293205Y-78662200D01*
X13364634Y-78638390D01*
X13412253Y-78638390D01*
X13483681Y-78662200D01*
X13507491Y-78686009D01*
X13674158Y-78638390D02*
X13983681Y-78638390D01*
X13817015Y-78828866D01*
X13888443Y-78828866D01*
X13936062Y-78852676D01*
X13959872Y-78876485D01*
X13983681Y-78924104D01*
X13983681Y-79043152D01*
X13959872Y-79090771D01*
X13936062Y-79114580D01*
X13888443Y-79138390D01*
X13745586Y-79138390D01*
X13697967Y-79114580D01*
X13674158Y-79090771D01*
X14412253Y-78638390D02*
X14317015Y-78638390D01*
X14269396Y-78662200D01*
X14245586Y-78686009D01*
X14197967Y-78757438D01*
X14174158Y-78852676D01*
X14174158Y-79043152D01*
X14197967Y-79090771D01*
X14221777Y-79114580D01*
X14269396Y-79138390D01*
X14364634Y-79138390D01*
X14412253Y-79114580D01*
X14436062Y-79090771D01*
X14459872Y-79043152D01*
X14459872Y-78924104D01*
X14436062Y-78876485D01*
X14412253Y-78852676D01*
X14364634Y-78828866D01*
X14269396Y-78828866D01*
X14221777Y-78852676D01*
X14197967Y-78876485D01*
X14174158Y-78924104D01*
X11756891Y-67187111D02*
X11733081Y-67210920D01*
X11661653Y-67234730D01*
X11614034Y-67234730D01*
X11542605Y-67210920D01*
X11494986Y-67163301D01*
X11471177Y-67115682D01*
X11447367Y-67020444D01*
X11447367Y-66949016D01*
X11471177Y-66853778D01*
X11494986Y-66806159D01*
X11542605Y-66758540D01*
X11614034Y-66734730D01*
X11661653Y-66734730D01*
X11733081Y-66758540D01*
X11756891Y-66782349D01*
X11923558Y-66734730D02*
X12233081Y-66734730D01*
X12066415Y-66925206D01*
X12137843Y-66925206D01*
X12185462Y-66949016D01*
X12209272Y-66972825D01*
X12233081Y-67020444D01*
X12233081Y-67139492D01*
X12209272Y-67187111D01*
X12185462Y-67210920D01*
X12137843Y-67234730D01*
X11994986Y-67234730D01*
X11947367Y-67210920D01*
X11923558Y-67187111D01*
X12685462Y-66734730D02*
X12447367Y-66734730D01*
X12423558Y-66972825D01*
X12447367Y-66949016D01*
X12494986Y-66925206D01*
X12614034Y-66925206D01*
X12661653Y-66949016D01*
X12685462Y-66972825D01*
X12709272Y-67020444D01*
X12709272Y-67139492D01*
X12685462Y-67187111D01*
X12661653Y-67210920D01*
X12614034Y-67234730D01*
X12494986Y-67234730D01*
X12447367Y-67210920D01*
X12423558Y-67187111D01*
X56569111Y-62256788D02*
X56592920Y-62280598D01*
X56616730Y-62352026D01*
X56616730Y-62399645D01*
X56592920Y-62471074D01*
X56545301Y-62518693D01*
X56497682Y-62542502D01*
X56402444Y-62566312D01*
X56331016Y-62566312D01*
X56235778Y-62542502D01*
X56188159Y-62518693D01*
X56140540Y-62471074D01*
X56116730Y-62399645D01*
X56116730Y-62352026D01*
X56140540Y-62280598D01*
X56164349Y-62256788D01*
X56116730Y-62090121D02*
X56116730Y-61780598D01*
X56307206Y-61947264D01*
X56307206Y-61875836D01*
X56331016Y-61828217D01*
X56354825Y-61804407D01*
X56402444Y-61780598D01*
X56521492Y-61780598D01*
X56569111Y-61804407D01*
X56592920Y-61828217D01*
X56616730Y-61875836D01*
X56616730Y-62018693D01*
X56592920Y-62066312D01*
X56569111Y-62090121D01*
X56116730Y-61613931D02*
X56116730Y-61304407D01*
X56307206Y-61471074D01*
X56307206Y-61399645D01*
X56331016Y-61352026D01*
X56354825Y-61328217D01*
X56402444Y-61304407D01*
X56521492Y-61304407D01*
X56569111Y-61328217D01*
X56592920Y-61352026D01*
X56616730Y-61399645D01*
X56616730Y-61542502D01*
X56592920Y-61590121D01*
X56569111Y-61613931D01*
X51473871Y-62236468D02*
X51497680Y-62260278D01*
X51521490Y-62331706D01*
X51521490Y-62379325D01*
X51497680Y-62450754D01*
X51450061Y-62498373D01*
X51402442Y-62522182D01*
X51307204Y-62545992D01*
X51235776Y-62545992D01*
X51140538Y-62522182D01*
X51092919Y-62498373D01*
X51045300Y-62450754D01*
X51021490Y-62379325D01*
X51021490Y-62331706D01*
X51045300Y-62260278D01*
X51069109Y-62236468D01*
X51021490Y-62069801D02*
X51021490Y-61760278D01*
X51211966Y-61926944D01*
X51211966Y-61855516D01*
X51235776Y-61807897D01*
X51259585Y-61784087D01*
X51307204Y-61760278D01*
X51426252Y-61760278D01*
X51473871Y-61784087D01*
X51497680Y-61807897D01*
X51521490Y-61855516D01*
X51521490Y-61998373D01*
X51497680Y-62045992D01*
X51473871Y-62069801D01*
X51069109Y-61569801D02*
X51045300Y-61545992D01*
X51021490Y-61498373D01*
X51021490Y-61379325D01*
X51045300Y-61331706D01*
X51069109Y-61307897D01*
X51116728Y-61284087D01*
X51164347Y-61284087D01*
X51235776Y-61307897D01*
X51521490Y-61593611D01*
X51521490Y-61284087D01*
X53175671Y-62261868D02*
X53199480Y-62285678D01*
X53223290Y-62357106D01*
X53223290Y-62404725D01*
X53199480Y-62476154D01*
X53151861Y-62523773D01*
X53104242Y-62547582D01*
X53009004Y-62571392D01*
X52937576Y-62571392D01*
X52842338Y-62547582D01*
X52794719Y-62523773D01*
X52747100Y-62476154D01*
X52723290Y-62404725D01*
X52723290Y-62357106D01*
X52747100Y-62285678D01*
X52770909Y-62261868D01*
X52723290Y-62095201D02*
X52723290Y-61785678D01*
X52913766Y-61952344D01*
X52913766Y-61880916D01*
X52937576Y-61833297D01*
X52961385Y-61809487D01*
X53009004Y-61785678D01*
X53128052Y-61785678D01*
X53175671Y-61809487D01*
X53199480Y-61833297D01*
X53223290Y-61880916D01*
X53223290Y-62023773D01*
X53199480Y-62071392D01*
X53175671Y-62095201D01*
X53223290Y-61309487D02*
X53223290Y-61595201D01*
X53223290Y-61452344D02*
X52723290Y-61452344D01*
X52794719Y-61499963D01*
X52842338Y-61547582D01*
X52866147Y-61595201D01*
X48314111Y-62256788D02*
X48337920Y-62280598D01*
X48361730Y-62352026D01*
X48361730Y-62399645D01*
X48337920Y-62471074D01*
X48290301Y-62518693D01*
X48242682Y-62542502D01*
X48147444Y-62566312D01*
X48076016Y-62566312D01*
X47980778Y-62542502D01*
X47933159Y-62518693D01*
X47885540Y-62471074D01*
X47861730Y-62399645D01*
X47861730Y-62352026D01*
X47885540Y-62280598D01*
X47909349Y-62256788D01*
X47861730Y-62090121D02*
X47861730Y-61780598D01*
X48052206Y-61947264D01*
X48052206Y-61875836D01*
X48076016Y-61828217D01*
X48099825Y-61804407D01*
X48147444Y-61780598D01*
X48266492Y-61780598D01*
X48314111Y-61804407D01*
X48337920Y-61828217D01*
X48361730Y-61875836D01*
X48361730Y-62018693D01*
X48337920Y-62066312D01*
X48314111Y-62090121D01*
X47861730Y-61471074D02*
X47861730Y-61423455D01*
X47885540Y-61375836D01*
X47909349Y-61352026D01*
X47956968Y-61328217D01*
X48052206Y-61304407D01*
X48171254Y-61304407D01*
X48266492Y-61328217D01*
X48314111Y-61352026D01*
X48337920Y-61375836D01*
X48361730Y-61423455D01*
X48361730Y-61471074D01*
X48337920Y-61518693D01*
X48314111Y-61542502D01*
X48266492Y-61566312D01*
X48171254Y-61590121D01*
X48052206Y-61590121D01*
X47956968Y-61566312D01*
X47909349Y-61542502D01*
X47885540Y-61518693D01*
X47861730Y-61471074D01*
X49843191Y-62226308D02*
X49867000Y-62250118D01*
X49890810Y-62321546D01*
X49890810Y-62369165D01*
X49867000Y-62440594D01*
X49819381Y-62488213D01*
X49771762Y-62512022D01*
X49676524Y-62535832D01*
X49605096Y-62535832D01*
X49509858Y-62512022D01*
X49462239Y-62488213D01*
X49414620Y-62440594D01*
X49390810Y-62369165D01*
X49390810Y-62321546D01*
X49414620Y-62250118D01*
X49438429Y-62226308D01*
X49438429Y-62035832D02*
X49414620Y-62012022D01*
X49390810Y-61964403D01*
X49390810Y-61845356D01*
X49414620Y-61797737D01*
X49438429Y-61773927D01*
X49486048Y-61750118D01*
X49533667Y-61750118D01*
X49605096Y-61773927D01*
X49890810Y-62059641D01*
X49890810Y-61750118D01*
X49890810Y-61512022D02*
X49890810Y-61416784D01*
X49867000Y-61369165D01*
X49843191Y-61345356D01*
X49771762Y-61297737D01*
X49676524Y-61273927D01*
X49486048Y-61273927D01*
X49438429Y-61297737D01*
X49414620Y-61321546D01*
X49390810Y-61369165D01*
X49390810Y-61464403D01*
X49414620Y-61512022D01*
X49438429Y-61535832D01*
X49486048Y-61559641D01*
X49605096Y-61559641D01*
X49652715Y-61535832D01*
X49676524Y-61512022D01*
X49700334Y-61464403D01*
X49700334Y-61369165D01*
X49676524Y-61321546D01*
X49652715Y-61297737D01*
X49605096Y-61273927D01*
X16418411Y-32940291D02*
X16394601Y-32964100D01*
X16323173Y-32987910D01*
X16275554Y-32987910D01*
X16204125Y-32964100D01*
X16156506Y-32916481D01*
X16132697Y-32868862D01*
X16108887Y-32773624D01*
X16108887Y-32702196D01*
X16132697Y-32606958D01*
X16156506Y-32559339D01*
X16204125Y-32511720D01*
X16275554Y-32487910D01*
X16323173Y-32487910D01*
X16394601Y-32511720D01*
X16418411Y-32535529D01*
X16608887Y-32535529D02*
X16632697Y-32511720D01*
X16680316Y-32487910D01*
X16799363Y-32487910D01*
X16846982Y-32511720D01*
X16870792Y-32535529D01*
X16894601Y-32583148D01*
X16894601Y-32630767D01*
X16870792Y-32702196D01*
X16585078Y-32987910D01*
X16894601Y-32987910D01*
X17180316Y-32702196D02*
X17132697Y-32678386D01*
X17108887Y-32654577D01*
X17085078Y-32606958D01*
X17085078Y-32583148D01*
X17108887Y-32535529D01*
X17132697Y-32511720D01*
X17180316Y-32487910D01*
X17275554Y-32487910D01*
X17323173Y-32511720D01*
X17346982Y-32535529D01*
X17370792Y-32583148D01*
X17370792Y-32606958D01*
X17346982Y-32654577D01*
X17323173Y-32678386D01*
X17275554Y-32702196D01*
X17180316Y-32702196D01*
X17132697Y-32726005D01*
X17108887Y-32749815D01*
X17085078Y-32797434D01*
X17085078Y-32892672D01*
X17108887Y-32940291D01*
X17132697Y-32964100D01*
X17180316Y-32987910D01*
X17275554Y-32987910D01*
X17323173Y-32964100D01*
X17346982Y-32940291D01*
X17370792Y-32892672D01*
X17370792Y-32797434D01*
X17346982Y-32749815D01*
X17323173Y-32726005D01*
X17275554Y-32702196D01*
X61367551Y-30704291D02*
X61343741Y-30728100D01*
X61272313Y-30751910D01*
X61224694Y-30751910D01*
X61153265Y-30728100D01*
X61105646Y-30680481D01*
X61081837Y-30632862D01*
X61058027Y-30537624D01*
X61058027Y-30466196D01*
X61081837Y-30370958D01*
X61105646Y-30323339D01*
X61153265Y-30275720D01*
X61224694Y-30251910D01*
X61272313Y-30251910D01*
X61343741Y-30275720D01*
X61367551Y-30299529D01*
X61558027Y-30299529D02*
X61581837Y-30275720D01*
X61629456Y-30251910D01*
X61748503Y-30251910D01*
X61796122Y-30275720D01*
X61819932Y-30299529D01*
X61843741Y-30347148D01*
X61843741Y-30394767D01*
X61819932Y-30466196D01*
X61534218Y-30751910D01*
X61843741Y-30751910D01*
X62010408Y-30251910D02*
X62343741Y-30251910D01*
X62129456Y-30751910D01*
X53112551Y-16043411D02*
X53088741Y-16067220D01*
X53017313Y-16091030D01*
X52969694Y-16091030D01*
X52898265Y-16067220D01*
X52850646Y-16019601D01*
X52826837Y-15971982D01*
X52803027Y-15876744D01*
X52803027Y-15805316D01*
X52826837Y-15710078D01*
X52850646Y-15662459D01*
X52898265Y-15614840D01*
X52969694Y-15591030D01*
X53017313Y-15591030D01*
X53088741Y-15614840D01*
X53112551Y-15638649D01*
X53303027Y-15638649D02*
X53326837Y-15614840D01*
X53374456Y-15591030D01*
X53493503Y-15591030D01*
X53541122Y-15614840D01*
X53564932Y-15638649D01*
X53588741Y-15686268D01*
X53588741Y-15733887D01*
X53564932Y-15805316D01*
X53279218Y-16091030D01*
X53588741Y-16091030D01*
X54017313Y-15591030D02*
X53922075Y-15591030D01*
X53874456Y-15614840D01*
X53850646Y-15638649D01*
X53803027Y-15710078D01*
X53779218Y-15805316D01*
X53779218Y-15995792D01*
X53803027Y-16043411D01*
X53826837Y-16067220D01*
X53874456Y-16091030D01*
X53969694Y-16091030D01*
X54017313Y-16067220D01*
X54041122Y-16043411D01*
X54064932Y-15995792D01*
X54064932Y-15876744D01*
X54041122Y-15829125D01*
X54017313Y-15805316D01*
X53969694Y-15781506D01*
X53874456Y-15781506D01*
X53826837Y-15805316D01*
X53803027Y-15829125D01*
X53779218Y-15876744D01*
X61568211Y-33386531D02*
X61544401Y-33410340D01*
X61472973Y-33434150D01*
X61425354Y-33434150D01*
X61353925Y-33410340D01*
X61306306Y-33362721D01*
X61282497Y-33315102D01*
X61258687Y-33219864D01*
X61258687Y-33148436D01*
X61282497Y-33053198D01*
X61306306Y-33005579D01*
X61353925Y-32957960D01*
X61425354Y-32934150D01*
X61472973Y-32934150D01*
X61544401Y-32957960D01*
X61568211Y-32981769D01*
X61758687Y-32981769D02*
X61782497Y-32957960D01*
X61830116Y-32934150D01*
X61949163Y-32934150D01*
X61996782Y-32957960D01*
X62020592Y-32981769D01*
X62044401Y-33029388D01*
X62044401Y-33077007D01*
X62020592Y-33148436D01*
X61734878Y-33434150D01*
X62044401Y-33434150D01*
X62496782Y-32934150D02*
X62258687Y-32934150D01*
X62234878Y-33172245D01*
X62258687Y-33148436D01*
X62306306Y-33124626D01*
X62425354Y-33124626D01*
X62472973Y-33148436D01*
X62496782Y-33172245D01*
X62520592Y-33219864D01*
X62520592Y-33338912D01*
X62496782Y-33386531D01*
X62472973Y-33410340D01*
X62425354Y-33434150D01*
X62306306Y-33434150D01*
X62258687Y-33410340D01*
X62234878Y-33386531D01*
X53051591Y-14712451D02*
X53027781Y-14736260D01*
X52956353Y-14760070D01*
X52908734Y-14760070D01*
X52837305Y-14736260D01*
X52789686Y-14688641D01*
X52765877Y-14641022D01*
X52742067Y-14545784D01*
X52742067Y-14474356D01*
X52765877Y-14379118D01*
X52789686Y-14331499D01*
X52837305Y-14283880D01*
X52908734Y-14260070D01*
X52956353Y-14260070D01*
X53027781Y-14283880D01*
X53051591Y-14307689D01*
X53242067Y-14307689D02*
X53265877Y-14283880D01*
X53313496Y-14260070D01*
X53432543Y-14260070D01*
X53480162Y-14283880D01*
X53503972Y-14307689D01*
X53527781Y-14355308D01*
X53527781Y-14402927D01*
X53503972Y-14474356D01*
X53218258Y-14760070D01*
X53527781Y-14760070D01*
X53956353Y-14426737D02*
X53956353Y-14760070D01*
X53837305Y-14236260D02*
X53718258Y-14593403D01*
X54027781Y-14593403D01*
X57783611Y-24074891D02*
X57759801Y-24098700D01*
X57688373Y-24122510D01*
X57640754Y-24122510D01*
X57569325Y-24098700D01*
X57521706Y-24051081D01*
X57497897Y-24003462D01*
X57474087Y-23908224D01*
X57474087Y-23836796D01*
X57497897Y-23741558D01*
X57521706Y-23693939D01*
X57569325Y-23646320D01*
X57640754Y-23622510D01*
X57688373Y-23622510D01*
X57759801Y-23646320D01*
X57783611Y-23670129D01*
X57974087Y-23670129D02*
X57997897Y-23646320D01*
X58045516Y-23622510D01*
X58164563Y-23622510D01*
X58212182Y-23646320D01*
X58235992Y-23670129D01*
X58259801Y-23717748D01*
X58259801Y-23765367D01*
X58235992Y-23836796D01*
X57950278Y-24122510D01*
X58259801Y-24122510D01*
X58450278Y-23670129D02*
X58474087Y-23646320D01*
X58521706Y-23622510D01*
X58640754Y-23622510D01*
X58688373Y-23646320D01*
X58712182Y-23670129D01*
X58735992Y-23717748D01*
X58735992Y-23765367D01*
X58712182Y-23836796D01*
X58426468Y-24122510D01*
X58735992Y-24122510D01*
X59319931Y-31256088D02*
X59343740Y-31279898D01*
X59367550Y-31351326D01*
X59367550Y-31398945D01*
X59343740Y-31470374D01*
X59296121Y-31517993D01*
X59248502Y-31541802D01*
X59153264Y-31565612D01*
X59081836Y-31565612D01*
X58986598Y-31541802D01*
X58938979Y-31517993D01*
X58891360Y-31470374D01*
X58867550Y-31398945D01*
X58867550Y-31351326D01*
X58891360Y-31279898D01*
X58915169Y-31256088D01*
X58915169Y-31065612D02*
X58891360Y-31041802D01*
X58867550Y-30994183D01*
X58867550Y-30875136D01*
X58891360Y-30827517D01*
X58915169Y-30803707D01*
X58962788Y-30779898D01*
X59010407Y-30779898D01*
X59081836Y-30803707D01*
X59367550Y-31089421D01*
X59367550Y-30779898D01*
X59367550Y-30303707D02*
X59367550Y-30589421D01*
X59367550Y-30446564D02*
X58867550Y-30446564D01*
X58938979Y-30494183D01*
X58986598Y-30541802D01*
X59010407Y-30589421D01*
X57709951Y-20950691D02*
X57686141Y-20974500D01*
X57614713Y-20998310D01*
X57567094Y-20998310D01*
X57495665Y-20974500D01*
X57448046Y-20926881D01*
X57424237Y-20879262D01*
X57400427Y-20784024D01*
X57400427Y-20712596D01*
X57424237Y-20617358D01*
X57448046Y-20569739D01*
X57495665Y-20522120D01*
X57567094Y-20498310D01*
X57614713Y-20498310D01*
X57686141Y-20522120D01*
X57709951Y-20545929D01*
X57900427Y-20545929D02*
X57924237Y-20522120D01*
X57971856Y-20498310D01*
X58090903Y-20498310D01*
X58138522Y-20522120D01*
X58162332Y-20545929D01*
X58186141Y-20593548D01*
X58186141Y-20641167D01*
X58162332Y-20712596D01*
X57876618Y-20998310D01*
X58186141Y-20998310D01*
X58495665Y-20498310D02*
X58543284Y-20498310D01*
X58590903Y-20522120D01*
X58614713Y-20545929D01*
X58638522Y-20593548D01*
X58662332Y-20688786D01*
X58662332Y-20807834D01*
X58638522Y-20903072D01*
X58614713Y-20950691D01*
X58590903Y-20974500D01*
X58543284Y-20998310D01*
X58495665Y-20998310D01*
X58448046Y-20974500D01*
X58424237Y-20950691D01*
X58400427Y-20903072D01*
X58376618Y-20807834D01*
X58376618Y-20688786D01*
X58400427Y-20593548D01*
X58424237Y-20545929D01*
X58448046Y-20522120D01*
X58495665Y-20498310D01*
X53483391Y-19137131D02*
X53459581Y-19160940D01*
X53388153Y-19184750D01*
X53340534Y-19184750D01*
X53269105Y-19160940D01*
X53221486Y-19113321D01*
X53197677Y-19065702D01*
X53173867Y-18970464D01*
X53173867Y-18899036D01*
X53197677Y-18803798D01*
X53221486Y-18756179D01*
X53269105Y-18708560D01*
X53340534Y-18684750D01*
X53388153Y-18684750D01*
X53459581Y-18708560D01*
X53483391Y-18732369D01*
X53959581Y-19184750D02*
X53673867Y-19184750D01*
X53816724Y-19184750D02*
X53816724Y-18684750D01*
X53769105Y-18756179D01*
X53721486Y-18803798D01*
X53673867Y-18827607D01*
X54197677Y-19184750D02*
X54292915Y-19184750D01*
X54340534Y-19160940D01*
X54364343Y-19137131D01*
X54411962Y-19065702D01*
X54435772Y-18970464D01*
X54435772Y-18779988D01*
X54411962Y-18732369D01*
X54388153Y-18708560D01*
X54340534Y-18684750D01*
X54245296Y-18684750D01*
X54197677Y-18708560D01*
X54173867Y-18732369D01*
X54150058Y-18779988D01*
X54150058Y-18899036D01*
X54173867Y-18946655D01*
X54197677Y-18970464D01*
X54245296Y-18994274D01*
X54340534Y-18994274D01*
X54388153Y-18970464D01*
X54411962Y-18946655D01*
X54435772Y-18899036D01*
X58217951Y-19121891D02*
X58194141Y-19145700D01*
X58122713Y-19169510D01*
X58075094Y-19169510D01*
X58003665Y-19145700D01*
X57956046Y-19098081D01*
X57932237Y-19050462D01*
X57908427Y-18955224D01*
X57908427Y-18883796D01*
X57932237Y-18788558D01*
X57956046Y-18740939D01*
X58003665Y-18693320D01*
X58075094Y-18669510D01*
X58122713Y-18669510D01*
X58194141Y-18693320D01*
X58217951Y-18717129D01*
X58694141Y-19169510D02*
X58408427Y-19169510D01*
X58551284Y-19169510D02*
X58551284Y-18669510D01*
X58503665Y-18740939D01*
X58456046Y-18788558D01*
X58408427Y-18812367D01*
X58979856Y-18883796D02*
X58932237Y-18859986D01*
X58908427Y-18836177D01*
X58884618Y-18788558D01*
X58884618Y-18764748D01*
X58908427Y-18717129D01*
X58932237Y-18693320D01*
X58979856Y-18669510D01*
X59075094Y-18669510D01*
X59122713Y-18693320D01*
X59146522Y-18717129D01*
X59170332Y-18764748D01*
X59170332Y-18788558D01*
X59146522Y-18836177D01*
X59122713Y-18859986D01*
X59075094Y-18883796D01*
X58979856Y-18883796D01*
X58932237Y-18907605D01*
X58908427Y-18931415D01*
X58884618Y-18979034D01*
X58884618Y-19074272D01*
X58908427Y-19121891D01*
X58932237Y-19145700D01*
X58979856Y-19169510D01*
X59075094Y-19169510D01*
X59122713Y-19145700D01*
X59146522Y-19121891D01*
X59170332Y-19074272D01*
X59170332Y-18979034D01*
X59146522Y-18931415D01*
X59122713Y-18907605D01*
X59075094Y-18883796D01*
X56185951Y-19172691D02*
X56162141Y-19196500D01*
X56090713Y-19220310D01*
X56043094Y-19220310D01*
X55971665Y-19196500D01*
X55924046Y-19148881D01*
X55900237Y-19101262D01*
X55876427Y-19006024D01*
X55876427Y-18934596D01*
X55900237Y-18839358D01*
X55924046Y-18791739D01*
X55971665Y-18744120D01*
X56043094Y-18720310D01*
X56090713Y-18720310D01*
X56162141Y-18744120D01*
X56185951Y-18767929D01*
X56662141Y-19220310D02*
X56376427Y-19220310D01*
X56519284Y-19220310D02*
X56519284Y-18720310D01*
X56471665Y-18791739D01*
X56424046Y-18839358D01*
X56376427Y-18863167D01*
X56828808Y-18720310D02*
X57162141Y-18720310D01*
X56947856Y-19220310D01*
X50191606Y-5468411D02*
X50167797Y-5492220D01*
X50096368Y-5516030D01*
X50048749Y-5516030D01*
X49977320Y-5492220D01*
X49929701Y-5444601D01*
X49905892Y-5396982D01*
X49882082Y-5301744D01*
X49882082Y-5230316D01*
X49905892Y-5135078D01*
X49929701Y-5087459D01*
X49977320Y-5039840D01*
X50048749Y-5016030D01*
X50096368Y-5016030D01*
X50167797Y-5039840D01*
X50191606Y-5063649D01*
X50477320Y-5230316D02*
X50429701Y-5206506D01*
X50405892Y-5182697D01*
X50382082Y-5135078D01*
X50382082Y-5111268D01*
X50405892Y-5063649D01*
X50429701Y-5039840D01*
X50477320Y-5016030D01*
X50572559Y-5016030D01*
X50620178Y-5039840D01*
X50643987Y-5063649D01*
X50667797Y-5111268D01*
X50667797Y-5135078D01*
X50643987Y-5182697D01*
X50620178Y-5206506D01*
X50572559Y-5230316D01*
X50477320Y-5230316D01*
X50429701Y-5254125D01*
X50405892Y-5277935D01*
X50382082Y-5325554D01*
X50382082Y-5420792D01*
X50405892Y-5468411D01*
X50429701Y-5492220D01*
X50477320Y-5516030D01*
X50572559Y-5516030D01*
X50620178Y-5492220D01*
X50643987Y-5468411D01*
X50667797Y-5420792D01*
X50667797Y-5325554D01*
X50643987Y-5277935D01*
X50620178Y-5254125D01*
X50572559Y-5230316D01*
X61291351Y-38534470D02*
X61124684Y-38296375D01*
X61005637Y-38534470D02*
X61005637Y-38034470D01*
X61196113Y-38034470D01*
X61243732Y-38058280D01*
X61267541Y-38082089D01*
X61291351Y-38129708D01*
X61291351Y-38201137D01*
X61267541Y-38248756D01*
X61243732Y-38272565D01*
X61196113Y-38296375D01*
X61005637Y-38296375D01*
X61481827Y-38082089D02*
X61505637Y-38058280D01*
X61553256Y-38034470D01*
X61672303Y-38034470D01*
X61719922Y-38058280D01*
X61743732Y-38082089D01*
X61767541Y-38129708D01*
X61767541Y-38177327D01*
X61743732Y-38248756D01*
X61458018Y-38534470D01*
X61767541Y-38534470D01*
X61934208Y-38034470D02*
X62267541Y-38034470D01*
X62053256Y-38534470D01*
X28128571Y-79026190D02*
X27961904Y-78788095D01*
X27842857Y-79026190D02*
X27842857Y-78526190D01*
X28033333Y-78526190D01*
X28080952Y-78550000D01*
X28104761Y-78573809D01*
X28128571Y-78621428D01*
X28128571Y-78692857D01*
X28104761Y-78740476D01*
X28080952Y-78764285D01*
X28033333Y-78788095D01*
X27842857Y-78788095D01*
X28557142Y-78692857D02*
X28557142Y-79026190D01*
X28438095Y-78502380D02*
X28319047Y-78859523D01*
X28628571Y-78859523D01*
X29033333Y-78526190D02*
X28938095Y-78526190D01*
X28890476Y-78550000D01*
X28866666Y-78573809D01*
X28819047Y-78645238D01*
X28795238Y-78740476D01*
X28795238Y-78930952D01*
X28819047Y-78978571D01*
X28842857Y-79002380D01*
X28890476Y-79026190D01*
X28985714Y-79026190D01*
X29033333Y-79002380D01*
X29057142Y-78978571D01*
X29080952Y-78930952D01*
X29080952Y-78811904D01*
X29057142Y-78764285D01*
X29033333Y-78740476D01*
X28985714Y-78716666D01*
X28890476Y-78716666D01*
X28842857Y-78740476D01*
X28819047Y-78764285D01*
X28795238Y-78811904D01*
X31404971Y-81261750D02*
X31238304Y-81023655D01*
X31119257Y-81261750D02*
X31119257Y-80761750D01*
X31309733Y-80761750D01*
X31357352Y-80785560D01*
X31381161Y-80809369D01*
X31404971Y-80856988D01*
X31404971Y-80928417D01*
X31381161Y-80976036D01*
X31357352Y-80999845D01*
X31309733Y-81023655D01*
X31119257Y-81023655D01*
X31833542Y-80928417D02*
X31833542Y-81261750D01*
X31714495Y-80737940D02*
X31595447Y-81095083D01*
X31904971Y-81095083D01*
X32333542Y-80761750D02*
X32095447Y-80761750D01*
X32071638Y-80999845D01*
X32095447Y-80976036D01*
X32143066Y-80952226D01*
X32262114Y-80952226D01*
X32309733Y-80976036D01*
X32333542Y-80999845D01*
X32357352Y-81047464D01*
X32357352Y-81166512D01*
X32333542Y-81214131D01*
X32309733Y-81237940D01*
X32262114Y-81261750D01*
X32143066Y-81261750D01*
X32095447Y-81237940D01*
X32071638Y-81214131D01*
X17864971Y-24747350D02*
X17698304Y-24509255D01*
X17579257Y-24747350D02*
X17579257Y-24247350D01*
X17769733Y-24247350D01*
X17817352Y-24271160D01*
X17841161Y-24294969D01*
X17864971Y-24342588D01*
X17864971Y-24414017D01*
X17841161Y-24461636D01*
X17817352Y-24485445D01*
X17769733Y-24509255D01*
X17579257Y-24509255D01*
X18293542Y-24414017D02*
X18293542Y-24747350D01*
X18174495Y-24223540D02*
X18055447Y-24580683D01*
X18364971Y-24580683D01*
X18769733Y-24414017D02*
X18769733Y-24747350D01*
X18650685Y-24223540D02*
X18531638Y-24580683D01*
X18841161Y-24580683D01*
X17885291Y-25842090D02*
X17718624Y-25603995D01*
X17599577Y-25842090D02*
X17599577Y-25342090D01*
X17790053Y-25342090D01*
X17837672Y-25365900D01*
X17861481Y-25389709D01*
X17885291Y-25437328D01*
X17885291Y-25508757D01*
X17861481Y-25556376D01*
X17837672Y-25580185D01*
X17790053Y-25603995D01*
X17599577Y-25603995D01*
X18313862Y-25508757D02*
X18313862Y-25842090D01*
X18194815Y-25318280D02*
X18075767Y-25675423D01*
X18385291Y-25675423D01*
X18528148Y-25342090D02*
X18837672Y-25342090D01*
X18671005Y-25532566D01*
X18742434Y-25532566D01*
X18790053Y-25556376D01*
X18813862Y-25580185D01*
X18837672Y-25627804D01*
X18837672Y-25746852D01*
X18813862Y-25794471D01*
X18790053Y-25818280D01*
X18742434Y-25842090D01*
X18599577Y-25842090D01*
X18551958Y-25818280D01*
X18528148Y-25794471D01*
X26451690Y-67026908D02*
X26213595Y-67193575D01*
X26451690Y-67312622D02*
X25951690Y-67312622D01*
X25951690Y-67122146D01*
X25975500Y-67074527D01*
X25999309Y-67050718D01*
X26046928Y-67026908D01*
X26118357Y-67026908D01*
X26165976Y-67050718D01*
X26189785Y-67074527D01*
X26213595Y-67122146D01*
X26213595Y-67312622D01*
X26118357Y-66598337D02*
X26451690Y-66598337D01*
X25927880Y-66717384D02*
X26285023Y-66836432D01*
X26285023Y-66526908D01*
X26451690Y-66074527D02*
X26451690Y-66360241D01*
X26451690Y-66217384D02*
X25951690Y-66217384D01*
X26023119Y-66265003D01*
X26070738Y-66312622D01*
X26094547Y-66360241D01*
X63071071Y-53817830D02*
X62904404Y-53579735D01*
X62785357Y-53817830D02*
X62785357Y-53317830D01*
X62975833Y-53317830D01*
X63023452Y-53341640D01*
X63047261Y-53365449D01*
X63071071Y-53413068D01*
X63071071Y-53484497D01*
X63047261Y-53532116D01*
X63023452Y-53555925D01*
X62975833Y-53579735D01*
X62785357Y-53579735D01*
X63237738Y-53317830D02*
X63547261Y-53317830D01*
X63380595Y-53508306D01*
X63452023Y-53508306D01*
X63499642Y-53532116D01*
X63523452Y-53555925D01*
X63547261Y-53603544D01*
X63547261Y-53722592D01*
X63523452Y-53770211D01*
X63499642Y-53794020D01*
X63452023Y-53817830D01*
X63309166Y-53817830D01*
X63261547Y-53794020D01*
X63237738Y-53770211D01*
X63975833Y-53317830D02*
X63880595Y-53317830D01*
X63832976Y-53341640D01*
X63809166Y-53365449D01*
X63761547Y-53436878D01*
X63737738Y-53532116D01*
X63737738Y-53722592D01*
X63761547Y-53770211D01*
X63785357Y-53794020D01*
X63832976Y-53817830D01*
X63928214Y-53817830D01*
X63975833Y-53794020D01*
X63999642Y-53770211D01*
X64023452Y-53722592D01*
X64023452Y-53603544D01*
X63999642Y-53555925D01*
X63975833Y-53532116D01*
X63928214Y-53508306D01*
X63832976Y-53508306D01*
X63785357Y-53532116D01*
X63761547Y-53555925D01*
X63737738Y-53603544D01*
X63040591Y-54915110D02*
X62873924Y-54677015D01*
X62754877Y-54915110D02*
X62754877Y-54415110D01*
X62945353Y-54415110D01*
X62992972Y-54438920D01*
X63016781Y-54462729D01*
X63040591Y-54510348D01*
X63040591Y-54581777D01*
X63016781Y-54629396D01*
X62992972Y-54653205D01*
X62945353Y-54677015D01*
X62754877Y-54677015D01*
X63207258Y-54415110D02*
X63516781Y-54415110D01*
X63350115Y-54605586D01*
X63421543Y-54605586D01*
X63469162Y-54629396D01*
X63492972Y-54653205D01*
X63516781Y-54700824D01*
X63516781Y-54819872D01*
X63492972Y-54867491D01*
X63469162Y-54891300D01*
X63421543Y-54915110D01*
X63278686Y-54915110D01*
X63231067Y-54891300D01*
X63207258Y-54867491D01*
X63969162Y-54415110D02*
X63731067Y-54415110D01*
X63707258Y-54653205D01*
X63731067Y-54629396D01*
X63778686Y-54605586D01*
X63897734Y-54605586D01*
X63945353Y-54629396D01*
X63969162Y-54653205D01*
X63992972Y-54700824D01*
X63992972Y-54819872D01*
X63969162Y-54867491D01*
X63945353Y-54891300D01*
X63897734Y-54915110D01*
X63778686Y-54915110D01*
X63731067Y-54891300D01*
X63707258Y-54867491D01*
X17592170Y-64588508D02*
X17354075Y-64755175D01*
X17592170Y-64874222D02*
X17092170Y-64874222D01*
X17092170Y-64683746D01*
X17115980Y-64636127D01*
X17139789Y-64612318D01*
X17187408Y-64588508D01*
X17258837Y-64588508D01*
X17306456Y-64612318D01*
X17330265Y-64636127D01*
X17354075Y-64683746D01*
X17354075Y-64874222D01*
X17092170Y-64421841D02*
X17092170Y-64112318D01*
X17282646Y-64278984D01*
X17282646Y-64207556D01*
X17306456Y-64159937D01*
X17330265Y-64136127D01*
X17377884Y-64112318D01*
X17496932Y-64112318D01*
X17544551Y-64136127D01*
X17568360Y-64159937D01*
X17592170Y-64207556D01*
X17592170Y-64350413D01*
X17568360Y-64398032D01*
X17544551Y-64421841D01*
X17258837Y-63683746D02*
X17592170Y-63683746D01*
X17068360Y-63802794D02*
X17425503Y-63921841D01*
X17425503Y-63612318D01*
X21476190Y-81271428D02*
X21238095Y-81438095D01*
X21476190Y-81557142D02*
X20976190Y-81557142D01*
X20976190Y-81366666D01*
X21000000Y-81319047D01*
X21023809Y-81295238D01*
X21071428Y-81271428D01*
X21142857Y-81271428D01*
X21190476Y-81295238D01*
X21214285Y-81319047D01*
X21238095Y-81366666D01*
X21238095Y-81557142D01*
X20976190Y-81104761D02*
X20976190Y-80795238D01*
X21166666Y-80961904D01*
X21166666Y-80890476D01*
X21190476Y-80842857D01*
X21214285Y-80819047D01*
X21261904Y-80795238D01*
X21380952Y-80795238D01*
X21428571Y-80819047D01*
X21452380Y-80842857D01*
X21476190Y-80890476D01*
X21476190Y-81033333D01*
X21452380Y-81080952D01*
X21428571Y-81104761D01*
X21023809Y-80604761D02*
X21000000Y-80580952D01*
X20976190Y-80533333D01*
X20976190Y-80414285D01*
X21000000Y-80366666D01*
X21023809Y-80342857D01*
X21071428Y-80319047D01*
X21119047Y-80319047D01*
X21190476Y-80342857D01*
X21476190Y-80628571D01*
X21476190Y-80319047D01*
X44501951Y-68496310D02*
X44335284Y-68258215D01*
X44216237Y-68496310D02*
X44216237Y-67996310D01*
X44406713Y-67996310D01*
X44454332Y-68020120D01*
X44478141Y-68043929D01*
X44501951Y-68091548D01*
X44501951Y-68162977D01*
X44478141Y-68210596D01*
X44454332Y-68234405D01*
X44406713Y-68258215D01*
X44216237Y-68258215D01*
X44668618Y-67996310D02*
X44978141Y-67996310D01*
X44811475Y-68186786D01*
X44882903Y-68186786D01*
X44930522Y-68210596D01*
X44954332Y-68234405D01*
X44978141Y-68282024D01*
X44978141Y-68401072D01*
X44954332Y-68448691D01*
X44930522Y-68472500D01*
X44882903Y-68496310D01*
X44740046Y-68496310D01*
X44692427Y-68472500D01*
X44668618Y-68448691D01*
X45287665Y-67996310D02*
X45335284Y-67996310D01*
X45382903Y-68020120D01*
X45406713Y-68043929D01*
X45430522Y-68091548D01*
X45454332Y-68186786D01*
X45454332Y-68305834D01*
X45430522Y-68401072D01*
X45406713Y-68448691D01*
X45382903Y-68472500D01*
X45335284Y-68496310D01*
X45287665Y-68496310D01*
X45240046Y-68472500D01*
X45216237Y-68448691D01*
X45192427Y-68401072D01*
X45168618Y-68305834D01*
X45168618Y-68186786D01*
X45192427Y-68091548D01*
X45216237Y-68043929D01*
X45240046Y-68020120D01*
X45287665Y-67996310D01*
X12685911Y-63075950D02*
X12519244Y-62837855D01*
X12400197Y-63075950D02*
X12400197Y-62575950D01*
X12590673Y-62575950D01*
X12638292Y-62599760D01*
X12662101Y-62623569D01*
X12685911Y-62671188D01*
X12685911Y-62742617D01*
X12662101Y-62790236D01*
X12638292Y-62814045D01*
X12590673Y-62837855D01*
X12400197Y-62837855D01*
X12876387Y-62623569D02*
X12900197Y-62599760D01*
X12947816Y-62575950D01*
X13066863Y-62575950D01*
X13114482Y-62599760D01*
X13138292Y-62623569D01*
X13162101Y-62671188D01*
X13162101Y-62718807D01*
X13138292Y-62790236D01*
X12852578Y-63075950D01*
X13162101Y-63075950D01*
X13590673Y-62575950D02*
X13495435Y-62575950D01*
X13447816Y-62599760D01*
X13424006Y-62623569D01*
X13376387Y-62694998D01*
X13352578Y-62790236D01*
X13352578Y-62980712D01*
X13376387Y-63028331D01*
X13400197Y-63052140D01*
X13447816Y-63075950D01*
X13543054Y-63075950D01*
X13590673Y-63052140D01*
X13614482Y-63028331D01*
X13638292Y-62980712D01*
X13638292Y-62861664D01*
X13614482Y-62814045D01*
X13590673Y-62790236D01*
X13543054Y-62766426D01*
X13447816Y-62766426D01*
X13400197Y-62790236D01*
X13376387Y-62814045D01*
X13352578Y-62861664D01*
X44501951Y-69715510D02*
X44335284Y-69477415D01*
X44216237Y-69715510D02*
X44216237Y-69215510D01*
X44406713Y-69215510D01*
X44454332Y-69239320D01*
X44478141Y-69263129D01*
X44501951Y-69310748D01*
X44501951Y-69382177D01*
X44478141Y-69429796D01*
X44454332Y-69453605D01*
X44406713Y-69477415D01*
X44216237Y-69477415D01*
X44692427Y-69263129D02*
X44716237Y-69239320D01*
X44763856Y-69215510D01*
X44882903Y-69215510D01*
X44930522Y-69239320D01*
X44954332Y-69263129D01*
X44978141Y-69310748D01*
X44978141Y-69358367D01*
X44954332Y-69429796D01*
X44668618Y-69715510D01*
X44978141Y-69715510D01*
X45144808Y-69215510D02*
X45454332Y-69215510D01*
X45287665Y-69405986D01*
X45359094Y-69405986D01*
X45406713Y-69429796D01*
X45430522Y-69453605D01*
X45454332Y-69501224D01*
X45454332Y-69620272D01*
X45430522Y-69667891D01*
X45406713Y-69691700D01*
X45359094Y-69715510D01*
X45216237Y-69715510D01*
X45168618Y-69691700D01*
X45144808Y-69667891D01*
X42403911Y-40408990D02*
X42237244Y-40170895D01*
X42118197Y-40408990D02*
X42118197Y-39908990D01*
X42308673Y-39908990D01*
X42356292Y-39932800D01*
X42380101Y-39956609D01*
X42403911Y-40004228D01*
X42403911Y-40075657D01*
X42380101Y-40123276D01*
X42356292Y-40147085D01*
X42308673Y-40170895D01*
X42118197Y-40170895D01*
X42594387Y-39956609D02*
X42618197Y-39932800D01*
X42665816Y-39908990D01*
X42784863Y-39908990D01*
X42832482Y-39932800D01*
X42856292Y-39956609D01*
X42880101Y-40004228D01*
X42880101Y-40051847D01*
X42856292Y-40123276D01*
X42570578Y-40408990D01*
X42880101Y-40408990D01*
X43070578Y-39956609D02*
X43094387Y-39932800D01*
X43142006Y-39908990D01*
X43261054Y-39908990D01*
X43308673Y-39932800D01*
X43332482Y-39956609D01*
X43356292Y-40004228D01*
X43356292Y-40051847D01*
X43332482Y-40123276D01*
X43046768Y-40408990D01*
X43356292Y-40408990D01*
X46335831Y-34104710D02*
X46169164Y-33866615D01*
X46050117Y-34104710D02*
X46050117Y-33604710D01*
X46240593Y-33604710D01*
X46288212Y-33628520D01*
X46312021Y-33652329D01*
X46335831Y-33699948D01*
X46335831Y-33771377D01*
X46312021Y-33818996D01*
X46288212Y-33842805D01*
X46240593Y-33866615D01*
X46050117Y-33866615D01*
X46526307Y-33652329D02*
X46550117Y-33628520D01*
X46597736Y-33604710D01*
X46716783Y-33604710D01*
X46764402Y-33628520D01*
X46788212Y-33652329D01*
X46812021Y-33699948D01*
X46812021Y-33747567D01*
X46788212Y-33818996D01*
X46502498Y-34104710D01*
X46812021Y-34104710D01*
X47288212Y-34104710D02*
X47002498Y-34104710D01*
X47145355Y-34104710D02*
X47145355Y-33604710D01*
X47097736Y-33676139D01*
X47050117Y-33723758D01*
X47002498Y-33747567D01*
X55819170Y-32955348D02*
X55581075Y-33122015D01*
X55819170Y-33241062D02*
X55319170Y-33241062D01*
X55319170Y-33050586D01*
X55342980Y-33002967D01*
X55366789Y-32979158D01*
X55414408Y-32955348D01*
X55485837Y-32955348D01*
X55533456Y-32979158D01*
X55557265Y-33002967D01*
X55581075Y-33050586D01*
X55581075Y-33241062D01*
X55366789Y-32764872D02*
X55342980Y-32741062D01*
X55319170Y-32693443D01*
X55319170Y-32574396D01*
X55342980Y-32526777D01*
X55366789Y-32502967D01*
X55414408Y-32479158D01*
X55462027Y-32479158D01*
X55533456Y-32502967D01*
X55819170Y-32788681D01*
X55819170Y-32479158D01*
X55319170Y-32169634D02*
X55319170Y-32122015D01*
X55342980Y-32074396D01*
X55366789Y-32050586D01*
X55414408Y-32026777D01*
X55509646Y-32002967D01*
X55628694Y-32002967D01*
X55723932Y-32026777D01*
X55771551Y-32050586D01*
X55795360Y-32074396D01*
X55819170Y-32122015D01*
X55819170Y-32169634D01*
X55795360Y-32217253D01*
X55771551Y-32241062D01*
X55723932Y-32264872D01*
X55628694Y-32288681D01*
X55509646Y-32288681D01*
X55414408Y-32264872D01*
X55366789Y-32241062D01*
X55342980Y-32217253D01*
X55319170Y-32169634D01*
X42393751Y-42075230D02*
X42227084Y-41837135D01*
X42108037Y-42075230D02*
X42108037Y-41575230D01*
X42298513Y-41575230D01*
X42346132Y-41599040D01*
X42369941Y-41622849D01*
X42393751Y-41670468D01*
X42393751Y-41741897D01*
X42369941Y-41789516D01*
X42346132Y-41813325D01*
X42298513Y-41837135D01*
X42108037Y-41837135D01*
X42869941Y-42075230D02*
X42584227Y-42075230D01*
X42727084Y-42075230D02*
X42727084Y-41575230D01*
X42679465Y-41646659D01*
X42631846Y-41694278D01*
X42584227Y-41718087D01*
X43155656Y-41789516D02*
X43108037Y-41765706D01*
X43084227Y-41741897D01*
X43060418Y-41694278D01*
X43060418Y-41670468D01*
X43084227Y-41622849D01*
X43108037Y-41599040D01*
X43155656Y-41575230D01*
X43250894Y-41575230D01*
X43298513Y-41599040D01*
X43322322Y-41622849D01*
X43346132Y-41670468D01*
X43346132Y-41694278D01*
X43322322Y-41741897D01*
X43298513Y-41765706D01*
X43250894Y-41789516D01*
X43155656Y-41789516D01*
X43108037Y-41813325D01*
X43084227Y-41837135D01*
X43060418Y-41884754D01*
X43060418Y-41979992D01*
X43084227Y-42027611D01*
X43108037Y-42051420D01*
X43155656Y-42075230D01*
X43250894Y-42075230D01*
X43298513Y-42051420D01*
X43322322Y-42027611D01*
X43346132Y-41979992D01*
X43346132Y-41884754D01*
X43322322Y-41837135D01*
X43298513Y-41813325D01*
X43250894Y-41789516D01*
X42383591Y-38864670D02*
X42216924Y-38626575D01*
X42097877Y-38864670D02*
X42097877Y-38364670D01*
X42288353Y-38364670D01*
X42335972Y-38388480D01*
X42359781Y-38412289D01*
X42383591Y-38459908D01*
X42383591Y-38531337D01*
X42359781Y-38578956D01*
X42335972Y-38602765D01*
X42288353Y-38626575D01*
X42097877Y-38626575D01*
X42859781Y-38864670D02*
X42574067Y-38864670D01*
X42716924Y-38864670D02*
X42716924Y-38364670D01*
X42669305Y-38436099D01*
X42621686Y-38483718D01*
X42574067Y-38507527D01*
X43026448Y-38364670D02*
X43359781Y-38364670D01*
X43145496Y-38864670D01*
X50232246Y-4375250D02*
X50065580Y-4137155D01*
X49946532Y-4375250D02*
X49946532Y-3875250D01*
X50137008Y-3875250D01*
X50184627Y-3899060D01*
X50208437Y-3922869D01*
X50232246Y-3970488D01*
X50232246Y-4041917D01*
X50208437Y-4089536D01*
X50184627Y-4113345D01*
X50137008Y-4137155D01*
X49946532Y-4137155D01*
X50517960Y-4089536D02*
X50470341Y-4065726D01*
X50446532Y-4041917D01*
X50422722Y-3994298D01*
X50422722Y-3970488D01*
X50446532Y-3922869D01*
X50470341Y-3899060D01*
X50517960Y-3875250D01*
X50613199Y-3875250D01*
X50660818Y-3899060D01*
X50684627Y-3922869D01*
X50708437Y-3970488D01*
X50708437Y-3994298D01*
X50684627Y-4041917D01*
X50660818Y-4065726D01*
X50613199Y-4089536D01*
X50517960Y-4089536D01*
X50470341Y-4113345D01*
X50446532Y-4137155D01*
X50422722Y-4184774D01*
X50422722Y-4280012D01*
X50446532Y-4327631D01*
X50470341Y-4351440D01*
X50517960Y-4375250D01*
X50613199Y-4375250D01*
X50660818Y-4351440D01*
X50684627Y-4327631D01*
X50708437Y-4280012D01*
X50708437Y-4184774D01*
X50684627Y-4137155D01*
X50660818Y-4113345D01*
X50613199Y-4089536D01*
D10*
X69266666Y-27777380D02*
X69266666Y-28491666D01*
X69219047Y-28634523D01*
X69123809Y-28729761D01*
X68980952Y-28777380D01*
X68885714Y-28777380D01*
X70171428Y-28110714D02*
X70171428Y-28777380D01*
X69933333Y-27729761D02*
X69695238Y-28444047D01*
X70314285Y-28444047D01*
X63239285Y-31279761D02*
X63382142Y-31327380D01*
X63620238Y-31327380D01*
X63715476Y-31279761D01*
X63763095Y-31232142D01*
X63810714Y-31136904D01*
X63810714Y-31041666D01*
X63763095Y-30946428D01*
X63715476Y-30898809D01*
X63620238Y-30851190D01*
X63429761Y-30803571D01*
X63334523Y-30755952D01*
X63286904Y-30708333D01*
X63239285Y-30613095D01*
X63239285Y-30517857D01*
X63286904Y-30422619D01*
X63334523Y-30375000D01*
X63429761Y-30327380D01*
X63667857Y-30327380D01*
X63810714Y-30375000D01*
X64239285Y-31327380D02*
X64239285Y-30327380D01*
X64620238Y-30327380D01*
X64715476Y-30375000D01*
X64763095Y-30422619D01*
X64810714Y-30517857D01*
X64810714Y-30660714D01*
X64763095Y-30755952D01*
X64715476Y-30803571D01*
X64620238Y-30851190D01*
X64239285Y-30851190D01*
X65239285Y-31327380D02*
X65239285Y-30327380D01*
X65810714Y-31327380D02*
X65382142Y-30755952D01*
X65810714Y-30327380D02*
X65239285Y-30898809D01*
X55339857Y-20735146D02*
X54767437Y-21307566D01*
X54733765Y-21408581D01*
X54733765Y-21475925D01*
X54767437Y-21576940D01*
X54902124Y-21711627D01*
X55003139Y-21745299D01*
X55070483Y-21745299D01*
X55171498Y-21711627D01*
X55743918Y-21139207D01*
X56013292Y-21408581D02*
X56451024Y-21846314D01*
X55945948Y-21879986D01*
X56046963Y-21981001D01*
X56080635Y-22082016D01*
X56080635Y-22149360D01*
X56046963Y-22250375D01*
X55878605Y-22418734D01*
X55777589Y-22452406D01*
X55710246Y-22452406D01*
X55609231Y-22418734D01*
X55407200Y-22216703D01*
X55373528Y-22115688D01*
X55373528Y-22048345D01*
X47615162Y-28966166D02*
X48322269Y-28259059D01*
X48052895Y-28999837D01*
X48793674Y-28730463D01*
X48086567Y-29437570D01*
X48591643Y-29538585D02*
X48928361Y-29875303D01*
X48322269Y-29673272D02*
X49265078Y-29201868D01*
X48793674Y-30144677D01*
X49669139Y-29605929D02*
X49433437Y-30784440D01*
X50140544Y-30077333D02*
X48962032Y-30313036D01*
X49736483Y-31087486D02*
X49871170Y-31222173D01*
X49972185Y-31255845D01*
X50039528Y-31255845D01*
X50207887Y-31222173D01*
X50376246Y-31121158D01*
X50645620Y-30851784D01*
X50679292Y-30750768D01*
X50679292Y-30683425D01*
X50645620Y-30582410D01*
X50510933Y-30447723D01*
X50409918Y-30414051D01*
X50342574Y-30414051D01*
X50241559Y-30447723D01*
X50073200Y-30616081D01*
X50039528Y-30717097D01*
X50039528Y-30784440D01*
X50073200Y-30885455D01*
X50207887Y-31020142D01*
X50308902Y-31053814D01*
X50376246Y-31053814D01*
X50477261Y-31020142D01*
X51016009Y-30952799D02*
X51487414Y-31424203D01*
X50477261Y-31828264D01*
X51824131Y-32232325D02*
X51352727Y-32703730D01*
X51925146Y-31794593D02*
X51251711Y-32131310D01*
X51689444Y-32569043D01*
X52497566Y-32905760D02*
X52026162Y-33377165D01*
X52598581Y-32468028D02*
X51925146Y-32804745D01*
X52362879Y-33242478D01*
X53120138Y-21357340D02*
X52951779Y-21525699D01*
X52850764Y-21289997D02*
X52951779Y-21525699D01*
X53187481Y-21626714D01*
X52716077Y-21559371D02*
X52951779Y-21525699D01*
X52918107Y-21761401D01*
X53120138Y-21357340D02*
X52951779Y-21525699D01*
X52850764Y-21289997D02*
X52951779Y-21525699D01*
X53187481Y-21626714D01*
X52716077Y-21559371D02*
X52951779Y-21525699D01*
X52918107Y-21761401D01*
X69516666Y-12452380D02*
X69516666Y-13166666D01*
X69469047Y-13309523D01*
X69373809Y-13404761D01*
X69230952Y-13452380D01*
X69135714Y-13452380D01*
X69897619Y-12452380D02*
X70516666Y-12452380D01*
X70183333Y-12833333D01*
X70326190Y-12833333D01*
X70421428Y-12880952D01*
X70469047Y-12928571D01*
X70516666Y-13023809D01*
X70516666Y-13261904D01*
X70469047Y-13357142D01*
X70421428Y-13404761D01*
X70326190Y-13452380D01*
X70040476Y-13452380D01*
X69945238Y-13404761D01*
X69897619Y-13357142D01*
X63864285Y-10954761D02*
X64007142Y-11002380D01*
X64245238Y-11002380D01*
X64340476Y-10954761D01*
X64388095Y-10907142D01*
X64435714Y-10811904D01*
X64435714Y-10716666D01*
X64388095Y-10621428D01*
X64340476Y-10573809D01*
X64245238Y-10526190D01*
X64054761Y-10478571D01*
X63959523Y-10430952D01*
X63911904Y-10383333D01*
X63864285Y-10288095D01*
X63864285Y-10192857D01*
X63911904Y-10097619D01*
X63959523Y-10050000D01*
X64054761Y-10002380D01*
X64292857Y-10002380D01*
X64435714Y-10050000D01*
X64864285Y-11002380D02*
X64864285Y-10002380D01*
X65245238Y-10002380D01*
X65340476Y-10050000D01*
X65388095Y-10097619D01*
X65435714Y-10192857D01*
X65435714Y-10335714D01*
X65388095Y-10430952D01*
X65340476Y-10478571D01*
X65245238Y-10526190D01*
X64864285Y-10526190D01*
X65864285Y-11002380D02*
X65864285Y-10002380D01*
X66435714Y-11002380D02*
X66007142Y-10430952D01*
X66435714Y-10002380D02*
X65864285Y-10573809D01*
X58313154Y-78702380D02*
X58313154Y-77702380D01*
X58551249Y-77702380D01*
X58694106Y-77750000D01*
X58789344Y-77845238D01*
X58836963Y-77940476D01*
X58884582Y-78130952D01*
X58884582Y-78273809D01*
X58836963Y-78464285D01*
X58789344Y-78559523D01*
X58694106Y-78654761D01*
X58551249Y-78702380D01*
X58313154Y-78702380D01*
X59265535Y-77797619D02*
X59313154Y-77750000D01*
X59408392Y-77702380D01*
X59646487Y-77702380D01*
X59741725Y-77750000D01*
X59789344Y-77797619D01*
X59836963Y-77892857D01*
X59836963Y-77988095D01*
X59789344Y-78130952D01*
X59217916Y-78702380D01*
X59836963Y-78702380D01*
X60456011Y-77702380D02*
X60551249Y-77702380D01*
X60646487Y-77750000D01*
X60694106Y-77797619D01*
X60741725Y-77892857D01*
X60789344Y-78083333D01*
X60789344Y-78321428D01*
X60741725Y-78511904D01*
X60694106Y-78607142D01*
X60646487Y-78654761D01*
X60551249Y-78702380D01*
X60456011Y-78702380D01*
X60360773Y-78654761D01*
X60313154Y-78607142D01*
X60265535Y-78511904D01*
X60217916Y-78321428D01*
X60217916Y-78083333D01*
X60265535Y-77892857D01*
X60313154Y-77797619D01*
X60360773Y-77750000D01*
X60456011Y-77702380D01*
X51478275Y-75756100D02*
X51478275Y-76565624D01*
X51525894Y-76660862D01*
X51573513Y-76708481D01*
X51668751Y-76756100D01*
X51859227Y-76756100D01*
X51954465Y-76708481D01*
X52002084Y-76660862D01*
X52049703Y-76565624D01*
X52049703Y-75756100D01*
X52954465Y-75756100D02*
X52763989Y-75756100D01*
X52668751Y-75803720D01*
X52621132Y-75851339D01*
X52525894Y-75994196D01*
X52478275Y-76184672D01*
X52478275Y-76565624D01*
X52525894Y-76660862D01*
X52573513Y-76708481D01*
X52668751Y-76756100D01*
X52859227Y-76756100D01*
X52954465Y-76708481D01*
X53002084Y-76660862D01*
X53049703Y-76565624D01*
X53049703Y-76327529D01*
X53002084Y-76232291D01*
X52954465Y-76184672D01*
X52859227Y-76137053D01*
X52668751Y-76137053D01*
X52573513Y-76184672D01*
X52525894Y-76232291D01*
X52478275Y-76327529D01*
X65960476Y-53222380D02*
X65960476Y-53936666D01*
X65912857Y-54079523D01*
X65817619Y-54174761D01*
X65674761Y-54222380D01*
X65579523Y-54222380D01*
X66960476Y-54222380D02*
X66389047Y-54222380D01*
X66674761Y-54222380D02*
X66674761Y-53222380D01*
X66579523Y-53365238D01*
X66484285Y-53460476D01*
X66389047Y-53508095D01*
X67579523Y-53222380D02*
X67674761Y-53222380D01*
X67770000Y-53270000D01*
X67817619Y-53317619D01*
X67865238Y-53412857D01*
X67912857Y-53603333D01*
X67912857Y-53841428D01*
X67865238Y-54031904D01*
X67817619Y-54127142D01*
X67770000Y-54174761D01*
X67674761Y-54222380D01*
X67579523Y-54222380D01*
X67484285Y-54174761D01*
X67436666Y-54127142D01*
X67389047Y-54031904D01*
X67341428Y-53841428D01*
X67341428Y-53603333D01*
X67389047Y-53412857D01*
X67436666Y-53317619D01*
X67484285Y-53270000D01*
X67579523Y-53222380D01*
X71286380Y-72196476D02*
X70286380Y-72196476D01*
X70286380Y-71958380D01*
X70334000Y-71815523D01*
X70429238Y-71720285D01*
X70524476Y-71672666D01*
X70714952Y-71625047D01*
X70857809Y-71625047D01*
X71048285Y-71672666D01*
X71143523Y-71720285D01*
X71238761Y-71815523D01*
X71286380Y-71958380D01*
X71286380Y-72196476D01*
X71238761Y-70815523D02*
X71286380Y-70910761D01*
X71286380Y-71101238D01*
X71238761Y-71196476D01*
X71143523Y-71244095D01*
X70762571Y-71244095D01*
X70667333Y-71196476D01*
X70619714Y-71101238D01*
X70619714Y-70910761D01*
X70667333Y-70815523D01*
X70762571Y-70767904D01*
X70857809Y-70767904D01*
X70953047Y-71244095D01*
X71286380Y-70339333D02*
X70286380Y-70339333D01*
X70667333Y-70339333D02*
X70619714Y-70244095D01*
X70619714Y-70053619D01*
X70667333Y-69958380D01*
X70714952Y-69910761D01*
X70810190Y-69863142D01*
X71095904Y-69863142D01*
X71191142Y-69910761D01*
X71238761Y-69958380D01*
X71286380Y-70053619D01*
X71286380Y-70244095D01*
X71238761Y-70339333D01*
X70619714Y-69006000D02*
X71286380Y-69006000D01*
X70619714Y-69434571D02*
X71143523Y-69434571D01*
X71238761Y-69386952D01*
X71286380Y-69291714D01*
X71286380Y-69148857D01*
X71238761Y-69053619D01*
X71191142Y-69006000D01*
X70619714Y-68101238D02*
X71429238Y-68101238D01*
X71524476Y-68148857D01*
X71572095Y-68196476D01*
X71619714Y-68291714D01*
X71619714Y-68434571D01*
X71572095Y-68529809D01*
X71238761Y-68101238D02*
X71286380Y-68196476D01*
X71286380Y-68386952D01*
X71238761Y-68482190D01*
X71191142Y-68529809D01*
X71095904Y-68577428D01*
X70810190Y-68577428D01*
X70714952Y-68529809D01*
X70667333Y-68482190D01*
X70619714Y-68386952D01*
X70619714Y-68196476D01*
X70667333Y-68101238D01*
X71191142Y-66291714D02*
X71238761Y-66339333D01*
X71286380Y-66482190D01*
X71286380Y-66577428D01*
X71238761Y-66720285D01*
X71143523Y-66815523D01*
X71048285Y-66863142D01*
X70857809Y-66910761D01*
X70714952Y-66910761D01*
X70524476Y-66863142D01*
X70429238Y-66815523D01*
X70334000Y-66720285D01*
X70286380Y-66577428D01*
X70286380Y-66482190D01*
X70334000Y-66339333D01*
X70381619Y-66291714D01*
X71286380Y-65720285D02*
X71238761Y-65815523D01*
X71191142Y-65863142D01*
X71095904Y-65910761D01*
X70810190Y-65910761D01*
X70714952Y-65863142D01*
X70667333Y-65815523D01*
X70619714Y-65720285D01*
X70619714Y-65577428D01*
X70667333Y-65482190D01*
X70714952Y-65434571D01*
X70810190Y-65386952D01*
X71095904Y-65386952D01*
X71191142Y-65434571D01*
X71238761Y-65482190D01*
X71286380Y-65577428D01*
X71286380Y-65720285D01*
X70619714Y-64958380D02*
X71286380Y-64958380D01*
X70714952Y-64958380D02*
X70667333Y-64910761D01*
X70619714Y-64815523D01*
X70619714Y-64672666D01*
X70667333Y-64577428D01*
X70762571Y-64529809D01*
X71286380Y-64529809D01*
X70619714Y-64053619D02*
X71286380Y-64053619D01*
X70714952Y-64053619D02*
X70667333Y-64006000D01*
X70619714Y-63910761D01*
X70619714Y-63767904D01*
X70667333Y-63672666D01*
X70762571Y-63625047D01*
X71286380Y-63625047D01*
X71238761Y-62767904D02*
X71286380Y-62863142D01*
X71286380Y-63053619D01*
X71238761Y-63148857D01*
X71143523Y-63196476D01*
X70762571Y-63196476D01*
X70667333Y-63148857D01*
X70619714Y-63053619D01*
X70619714Y-62863142D01*
X70667333Y-62767904D01*
X70762571Y-62720285D01*
X70857809Y-62720285D01*
X70953047Y-63196476D01*
X71238761Y-61863142D02*
X71286380Y-61958380D01*
X71286380Y-62148857D01*
X71238761Y-62244095D01*
X71191142Y-62291714D01*
X71095904Y-62339333D01*
X70810190Y-62339333D01*
X70714952Y-62291714D01*
X70667333Y-62244095D01*
X70619714Y-62148857D01*
X70619714Y-61958380D01*
X70667333Y-61863142D01*
X70619714Y-61577428D02*
X70619714Y-61196476D01*
X70286380Y-61434571D02*
X71143523Y-61434571D01*
X71238761Y-61386952D01*
X71286380Y-61291714D01*
X71286380Y-61196476D01*
X71286380Y-60720285D02*
X71238761Y-60815523D01*
X71191142Y-60863142D01*
X71095904Y-60910761D01*
X70810190Y-60910761D01*
X70714952Y-60863142D01*
X70667333Y-60815523D01*
X70619714Y-60720285D01*
X70619714Y-60577428D01*
X70667333Y-60482190D01*
X70714952Y-60434571D01*
X70810190Y-60386952D01*
X71095904Y-60386952D01*
X71191142Y-60434571D01*
X71238761Y-60482190D01*
X71286380Y-60577428D01*
X71286380Y-60720285D01*
X71286380Y-59958380D02*
X70619714Y-59958380D01*
X70810190Y-59958380D02*
X70714952Y-59910761D01*
X70667333Y-59863142D01*
X70619714Y-59767904D01*
X70619714Y-59672666D01*
X15338440Y-30100495D02*
X14338440Y-30100495D01*
X14338440Y-29862400D01*
X14386060Y-29719542D01*
X14481298Y-29624304D01*
X14576536Y-29576685D01*
X14767012Y-29529066D01*
X14909869Y-29529066D01*
X15100345Y-29576685D01*
X15195583Y-29624304D01*
X15290821Y-29719542D01*
X15338440Y-29862400D01*
X15338440Y-30100495D01*
X15338440Y-28576685D02*
X15338440Y-29148114D01*
X15338440Y-28862400D02*
X14338440Y-28862400D01*
X14481298Y-28957638D01*
X14576536Y-29052876D01*
X14624155Y-29148114D01*
M02*
