G04 #@! TF.GenerationSoftware,KiCad,Pcbnew,(5.1.6)-1*
G04 #@! TF.CreationDate,2020-07-23T23:07:15-07:00*
G04 #@! TF.ProjectId,Mycroft - Mark 2,4d796372-6f66-4742-902d-204d61726b20,rev?*
G04 #@! TF.SameCoordinates,Original*
G04 #@! TF.FileFunction,Legend,Bot*
G04 #@! TF.FilePolarity,Positive*
%FSLAX46Y46*%
G04 Gerber Fmt 4.6, Leading zero omitted, Abs format (unit mm)*
G04 Created by KiCad (PCBNEW (5.1.6)-1) date 2020-07-23 23:07:15*
%MOMM*%
%LPD*%
G01*
G04 APERTURE LIST*
%ADD10C,0.050000*%
%ADD11C,0.100000*%
%ADD12C,0.300000*%
%ADD13C,0.120000*%
%ADD14C,0.150000*%
%ADD15C,0.010000*%
G04 APERTURE END LIST*
D10*
X14915783Y-18705003D02*
X14844355Y-18730241D01*
X14725307Y-18730241D01*
X14677688Y-18705003D01*
X14653879Y-18679765D01*
X14630069Y-18629289D01*
X14630069Y-18578813D01*
X14653879Y-18528337D01*
X14677688Y-18503099D01*
X14725307Y-18477860D01*
X14820545Y-18452622D01*
X14868164Y-18427384D01*
X14891974Y-18402146D01*
X14915783Y-18351670D01*
X14915783Y-18301194D01*
X14891974Y-18250718D01*
X14868164Y-18225480D01*
X14820545Y-18200241D01*
X14701498Y-18200241D01*
X14630069Y-18225480D01*
X14415783Y-18730241D02*
X14415783Y-18200241D01*
X14296736Y-18200241D01*
X14225307Y-18225480D01*
X14177688Y-18275956D01*
X14153879Y-18326432D01*
X14130069Y-18427384D01*
X14130069Y-18503099D01*
X14153879Y-18604051D01*
X14177688Y-18654527D01*
X14225307Y-18705003D01*
X14296736Y-18730241D01*
X14415783Y-18730241D01*
X13939593Y-18578813D02*
X13701498Y-18578813D01*
X13987212Y-18730241D02*
X13820545Y-18200241D01*
X13653879Y-18730241D01*
X14891974Y-21240003D02*
X14820545Y-21265241D01*
X14701498Y-21265241D01*
X14653879Y-21240003D01*
X14630069Y-21214765D01*
X14606260Y-21164289D01*
X14606260Y-21113813D01*
X14630069Y-21063337D01*
X14653879Y-21038099D01*
X14701498Y-21012860D01*
X14796736Y-20987622D01*
X14844355Y-20962384D01*
X14868164Y-20937146D01*
X14891974Y-20886670D01*
X14891974Y-20836194D01*
X14868164Y-20785718D01*
X14844355Y-20760480D01*
X14796736Y-20735241D01*
X14677688Y-20735241D01*
X14606260Y-20760480D01*
X14106260Y-21214765D02*
X14130069Y-21240003D01*
X14201498Y-21265241D01*
X14249117Y-21265241D01*
X14320545Y-21240003D01*
X14368164Y-21189527D01*
X14391974Y-21139051D01*
X14415783Y-21038099D01*
X14415783Y-20962384D01*
X14391974Y-20861432D01*
X14368164Y-20810956D01*
X14320545Y-20760480D01*
X14249117Y-20735241D01*
X14201498Y-20735241D01*
X14130069Y-20760480D01*
X14106260Y-20785718D01*
X13653879Y-21265241D02*
X13891974Y-21265241D01*
X13891974Y-20735241D01*
X15177688Y-23295480D02*
X15225307Y-23270241D01*
X15296736Y-23270241D01*
X15368164Y-23295480D01*
X15415783Y-23345956D01*
X15439593Y-23396432D01*
X15463402Y-23497384D01*
X15463402Y-23573099D01*
X15439593Y-23674051D01*
X15415783Y-23724527D01*
X15368164Y-23775003D01*
X15296736Y-23800241D01*
X15249117Y-23800241D01*
X15177688Y-23775003D01*
X15153879Y-23749765D01*
X15153879Y-23573099D01*
X15249117Y-23573099D01*
X14939593Y-23800241D02*
X14939593Y-23270241D01*
X14749117Y-23270241D01*
X14701498Y-23295480D01*
X14677688Y-23320718D01*
X14653879Y-23371194D01*
X14653879Y-23446908D01*
X14677688Y-23497384D01*
X14701498Y-23522622D01*
X14749117Y-23547860D01*
X14939593Y-23547860D01*
X14344355Y-23270241D02*
X14296736Y-23270241D01*
X14249117Y-23295480D01*
X14225307Y-23320718D01*
X14201498Y-23371194D01*
X14177688Y-23472146D01*
X14177688Y-23598337D01*
X14201498Y-23699289D01*
X14225307Y-23749765D01*
X14249117Y-23775003D01*
X14296736Y-23800241D01*
X14344355Y-23800241D01*
X14391974Y-23775003D01*
X14415783Y-23749765D01*
X14439593Y-23699289D01*
X14463402Y-23598337D01*
X14463402Y-23472146D01*
X14439593Y-23371194D01*
X14415783Y-23320718D01*
X14391974Y-23295480D01*
X14344355Y-23270241D01*
X13749117Y-23446908D02*
X13749117Y-23800241D01*
X13868164Y-23245003D02*
X13987212Y-23623575D01*
X13677688Y-23623575D01*
X14749117Y-25830480D02*
X14796736Y-25805241D01*
X14868164Y-25805241D01*
X14939593Y-25830480D01*
X14987212Y-25880956D01*
X15011021Y-25931432D01*
X15034831Y-26032384D01*
X15034831Y-26108099D01*
X15011021Y-26209051D01*
X14987212Y-26259527D01*
X14939593Y-26310003D01*
X14868164Y-26335241D01*
X14820545Y-26335241D01*
X14749117Y-26310003D01*
X14725307Y-26284765D01*
X14725307Y-26108099D01*
X14820545Y-26108099D01*
X14511021Y-26335241D02*
X14511021Y-25805241D01*
X14225307Y-26335241D01*
X14225307Y-25805241D01*
X13987212Y-26335241D02*
X13987212Y-25805241D01*
X13868164Y-25805241D01*
X13796736Y-25830480D01*
X13749117Y-25880956D01*
X13725307Y-25931432D01*
X13701498Y-26032384D01*
X13701498Y-26108099D01*
X13725307Y-26209051D01*
X13749117Y-26259527D01*
X13796736Y-26310003D01*
X13868164Y-26335241D01*
X13987212Y-26335241D01*
X15177688Y-33435480D02*
X15225307Y-33410241D01*
X15296736Y-33410241D01*
X15368164Y-33435480D01*
X15415783Y-33485956D01*
X15439593Y-33536432D01*
X15463402Y-33637384D01*
X15463402Y-33713099D01*
X15439593Y-33814051D01*
X15415783Y-33864527D01*
X15368164Y-33915003D01*
X15296736Y-33940241D01*
X15249117Y-33940241D01*
X15177688Y-33915003D01*
X15153879Y-33889765D01*
X15153879Y-33713099D01*
X15249117Y-33713099D01*
X14939593Y-33940241D02*
X14939593Y-33410241D01*
X14749117Y-33410241D01*
X14701498Y-33435480D01*
X14677688Y-33460718D01*
X14653879Y-33511194D01*
X14653879Y-33586908D01*
X14677688Y-33637384D01*
X14701498Y-33662622D01*
X14749117Y-33687860D01*
X14939593Y-33687860D01*
X14463402Y-33460718D02*
X14439593Y-33435480D01*
X14391974Y-33410241D01*
X14272926Y-33410241D01*
X14225307Y-33435480D01*
X14201498Y-33460718D01*
X14177688Y-33511194D01*
X14177688Y-33561670D01*
X14201498Y-33637384D01*
X14487212Y-33940241D01*
X14177688Y-33940241D01*
X13987212Y-33460718D02*
X13963402Y-33435480D01*
X13915783Y-33410241D01*
X13796736Y-33410241D01*
X13749117Y-33435480D01*
X13725307Y-33460718D01*
X13701498Y-33511194D01*
X13701498Y-33561670D01*
X13725307Y-33637384D01*
X14011021Y-33940241D01*
X13701498Y-33940241D01*
X14749117Y-46110480D02*
X14796736Y-46085241D01*
X14868164Y-46085241D01*
X14939593Y-46110480D01*
X14987212Y-46160956D01*
X15011021Y-46211432D01*
X15034831Y-46312384D01*
X15034831Y-46388099D01*
X15011021Y-46489051D01*
X14987212Y-46539527D01*
X14939593Y-46590003D01*
X14868164Y-46615241D01*
X14820545Y-46615241D01*
X14749117Y-46590003D01*
X14725307Y-46564765D01*
X14725307Y-46388099D01*
X14820545Y-46388099D01*
X14511021Y-46615241D02*
X14511021Y-46085241D01*
X14225307Y-46615241D01*
X14225307Y-46085241D01*
X13987212Y-46615241D02*
X13987212Y-46085241D01*
X13868164Y-46085241D01*
X13796736Y-46110480D01*
X13749117Y-46160956D01*
X13725307Y-46211432D01*
X13701498Y-46312384D01*
X13701498Y-46388099D01*
X13725307Y-46489051D01*
X13749117Y-46539527D01*
X13796736Y-46590003D01*
X13868164Y-46615241D01*
X13987212Y-46615241D01*
X15177688Y-51180480D02*
X15225307Y-51155241D01*
X15296736Y-51155241D01*
X15368164Y-51180480D01*
X15415783Y-51230956D01*
X15439593Y-51281432D01*
X15463402Y-51382384D01*
X15463402Y-51458099D01*
X15439593Y-51559051D01*
X15415783Y-51609527D01*
X15368164Y-51660003D01*
X15296736Y-51685241D01*
X15249117Y-51685241D01*
X15177688Y-51660003D01*
X15153879Y-51634765D01*
X15153879Y-51458099D01*
X15249117Y-51458099D01*
X14939593Y-51685241D02*
X14939593Y-51155241D01*
X14749117Y-51155241D01*
X14701498Y-51180480D01*
X14677688Y-51205718D01*
X14653879Y-51256194D01*
X14653879Y-51331908D01*
X14677688Y-51382384D01*
X14701498Y-51407622D01*
X14749117Y-51432860D01*
X14939593Y-51432860D01*
X14344355Y-51155241D02*
X14296736Y-51155241D01*
X14249117Y-51180480D01*
X14225307Y-51205718D01*
X14201498Y-51256194D01*
X14177688Y-51357146D01*
X14177688Y-51483337D01*
X14201498Y-51584289D01*
X14225307Y-51634765D01*
X14249117Y-51660003D01*
X14296736Y-51685241D01*
X14344355Y-51685241D01*
X14391974Y-51660003D01*
X14415783Y-51634765D01*
X14439593Y-51584289D01*
X14463402Y-51483337D01*
X14463402Y-51357146D01*
X14439593Y-51256194D01*
X14415783Y-51205718D01*
X14391974Y-51180480D01*
X14344355Y-51155241D01*
X13725307Y-51155241D02*
X13963402Y-51155241D01*
X13987212Y-51407622D01*
X13963402Y-51382384D01*
X13915783Y-51357146D01*
X13796736Y-51357146D01*
X13749117Y-51382384D01*
X13725307Y-51407622D01*
X13701498Y-51458099D01*
X13701498Y-51584289D01*
X13725307Y-51634765D01*
X13749117Y-51660003D01*
X13796736Y-51685241D01*
X13915783Y-51685241D01*
X13963402Y-51660003D01*
X13987212Y-51634765D01*
X14749117Y-63855480D02*
X14796736Y-63830241D01*
X14868164Y-63830241D01*
X14939593Y-63855480D01*
X14987212Y-63905956D01*
X15011021Y-63956432D01*
X15034831Y-64057384D01*
X15034831Y-64133099D01*
X15011021Y-64234051D01*
X14987212Y-64284527D01*
X14939593Y-64335003D01*
X14868164Y-64360241D01*
X14820545Y-64360241D01*
X14749117Y-64335003D01*
X14725307Y-64309765D01*
X14725307Y-64133099D01*
X14820545Y-64133099D01*
X14511021Y-64360241D02*
X14511021Y-63830241D01*
X14225307Y-64360241D01*
X14225307Y-63830241D01*
X13987212Y-64360241D02*
X13987212Y-63830241D01*
X13868164Y-63830241D01*
X13796736Y-63855480D01*
X13749117Y-63905956D01*
X13725307Y-63956432D01*
X13701498Y-64057384D01*
X13701498Y-64133099D01*
X13725307Y-64234051D01*
X13749117Y-64284527D01*
X13796736Y-64335003D01*
X13868164Y-64360241D01*
X13987212Y-64360241D01*
X8424157Y-15680641D02*
X8662252Y-15680641D01*
X8686061Y-15933022D01*
X8662252Y-15907784D01*
X8614633Y-15882546D01*
X8495585Y-15882546D01*
X8447966Y-15907784D01*
X8424157Y-15933022D01*
X8400347Y-15983499D01*
X8400347Y-16109689D01*
X8424157Y-16160165D01*
X8447966Y-16185403D01*
X8495585Y-16210641D01*
X8614633Y-16210641D01*
X8662252Y-16185403D01*
X8686061Y-16160165D01*
X8257490Y-15680641D02*
X8090823Y-16210641D01*
X7924157Y-15680641D01*
X8424157Y-18215641D02*
X8662252Y-18215641D01*
X8686061Y-18468022D01*
X8662252Y-18442784D01*
X8614633Y-18417546D01*
X8495585Y-18417546D01*
X8447966Y-18442784D01*
X8424157Y-18468022D01*
X8400347Y-18518499D01*
X8400347Y-18644689D01*
X8424157Y-18695165D01*
X8447966Y-18720403D01*
X8495585Y-18745641D01*
X8614633Y-18745641D01*
X8662252Y-18720403D01*
X8686061Y-18695165D01*
X8257490Y-18215641D02*
X8090823Y-18745641D01*
X7924157Y-18215641D01*
X8400347Y-20775880D02*
X8447966Y-20750641D01*
X8519395Y-20750641D01*
X8590823Y-20775880D01*
X8638442Y-20826356D01*
X8662252Y-20876832D01*
X8686061Y-20977784D01*
X8686061Y-21053499D01*
X8662252Y-21154451D01*
X8638442Y-21204927D01*
X8590823Y-21255403D01*
X8519395Y-21280641D01*
X8471776Y-21280641D01*
X8400347Y-21255403D01*
X8376538Y-21230165D01*
X8376538Y-21053499D01*
X8471776Y-21053499D01*
X8162252Y-21280641D02*
X8162252Y-20750641D01*
X7876538Y-21280641D01*
X7876538Y-20750641D01*
X7638442Y-21280641D02*
X7638442Y-20750641D01*
X7519395Y-20750641D01*
X7447966Y-20775880D01*
X7400347Y-20826356D01*
X7376538Y-20876832D01*
X7352728Y-20977784D01*
X7352728Y-21053499D01*
X7376538Y-21154451D01*
X7400347Y-21204927D01*
X7447966Y-21255403D01*
X7519395Y-21280641D01*
X7638442Y-21280641D01*
X8400347Y-28380880D02*
X8447966Y-28355641D01*
X8519395Y-28355641D01*
X8590823Y-28380880D01*
X8638442Y-28431356D01*
X8662252Y-28481832D01*
X8686061Y-28582784D01*
X8686061Y-28658499D01*
X8662252Y-28759451D01*
X8638442Y-28809927D01*
X8590823Y-28860403D01*
X8519395Y-28885641D01*
X8471776Y-28885641D01*
X8400347Y-28860403D01*
X8376538Y-28835165D01*
X8376538Y-28658499D01*
X8471776Y-28658499D01*
X8162252Y-28885641D02*
X8162252Y-28355641D01*
X7971776Y-28355641D01*
X7924157Y-28380880D01*
X7900347Y-28406118D01*
X7876538Y-28456594D01*
X7876538Y-28532308D01*
X7900347Y-28582784D01*
X7924157Y-28608022D01*
X7971776Y-28633260D01*
X8162252Y-28633260D01*
X7400347Y-28885641D02*
X7686061Y-28885641D01*
X7543204Y-28885641D02*
X7543204Y-28355641D01*
X7590823Y-28431356D01*
X7638442Y-28481832D01*
X7686061Y-28507070D01*
X7114633Y-28582784D02*
X7162252Y-28557546D01*
X7186061Y-28532308D01*
X7209871Y-28481832D01*
X7209871Y-28456594D01*
X7186061Y-28406118D01*
X7162252Y-28380880D01*
X7114633Y-28355641D01*
X7019395Y-28355641D01*
X6971776Y-28380880D01*
X6947966Y-28406118D01*
X6924157Y-28456594D01*
X6924157Y-28481832D01*
X6947966Y-28532308D01*
X6971776Y-28557546D01*
X7019395Y-28582784D01*
X7114633Y-28582784D01*
X7162252Y-28608022D01*
X7186061Y-28633260D01*
X7209871Y-28683737D01*
X7209871Y-28784689D01*
X7186061Y-28835165D01*
X7162252Y-28860403D01*
X7114633Y-28885641D01*
X7019395Y-28885641D01*
X6971776Y-28860403D01*
X6947966Y-28835165D01*
X6924157Y-28784689D01*
X6924157Y-28683737D01*
X6947966Y-28633260D01*
X6971776Y-28608022D01*
X7019395Y-28582784D01*
X8400347Y-30915880D02*
X8447966Y-30890641D01*
X8519395Y-30890641D01*
X8590823Y-30915880D01*
X8638442Y-30966356D01*
X8662252Y-31016832D01*
X8686061Y-31117784D01*
X8686061Y-31193499D01*
X8662252Y-31294451D01*
X8638442Y-31344927D01*
X8590823Y-31395403D01*
X8519395Y-31420641D01*
X8471776Y-31420641D01*
X8400347Y-31395403D01*
X8376538Y-31370165D01*
X8376538Y-31193499D01*
X8471776Y-31193499D01*
X8162252Y-31420641D02*
X8162252Y-30890641D01*
X7876538Y-31420641D01*
X7876538Y-30890641D01*
X7638442Y-31420641D02*
X7638442Y-30890641D01*
X7519395Y-30890641D01*
X7447966Y-30915880D01*
X7400347Y-30966356D01*
X7376538Y-31016832D01*
X7352728Y-31117784D01*
X7352728Y-31193499D01*
X7376538Y-31294451D01*
X7400347Y-31344927D01*
X7447966Y-31395403D01*
X7519395Y-31420641D01*
X7638442Y-31420641D01*
X8400347Y-33450880D02*
X8447966Y-33425641D01*
X8519395Y-33425641D01*
X8590823Y-33450880D01*
X8638442Y-33501356D01*
X8662252Y-33551832D01*
X8686061Y-33652784D01*
X8686061Y-33728499D01*
X8662252Y-33829451D01*
X8638442Y-33879927D01*
X8590823Y-33930403D01*
X8519395Y-33955641D01*
X8471776Y-33955641D01*
X8400347Y-33930403D01*
X8376538Y-33905165D01*
X8376538Y-33728499D01*
X8471776Y-33728499D01*
X8162252Y-33955641D02*
X8162252Y-33425641D01*
X7971776Y-33425641D01*
X7924157Y-33450880D01*
X7900347Y-33476118D01*
X7876538Y-33526594D01*
X7876538Y-33602308D01*
X7900347Y-33652784D01*
X7924157Y-33678022D01*
X7971776Y-33703260D01*
X8162252Y-33703260D01*
X7686061Y-33476118D02*
X7662252Y-33450880D01*
X7614633Y-33425641D01*
X7495585Y-33425641D01*
X7447966Y-33450880D01*
X7424157Y-33476118D01*
X7400347Y-33526594D01*
X7400347Y-33577070D01*
X7424157Y-33652784D01*
X7709871Y-33955641D01*
X7400347Y-33955641D01*
X7233680Y-33425641D02*
X6924157Y-33425641D01*
X7090823Y-33627546D01*
X7019395Y-33627546D01*
X6971776Y-33652784D01*
X6947966Y-33678022D01*
X6924157Y-33728499D01*
X6924157Y-33854689D01*
X6947966Y-33905165D01*
X6971776Y-33930403D01*
X7019395Y-33955641D01*
X7162252Y-33955641D01*
X7209871Y-33930403D01*
X7233680Y-33905165D01*
X8400347Y-35985880D02*
X8447966Y-35960641D01*
X8519395Y-35960641D01*
X8590823Y-35985880D01*
X8638442Y-36036356D01*
X8662252Y-36086832D01*
X8686061Y-36187784D01*
X8686061Y-36263499D01*
X8662252Y-36364451D01*
X8638442Y-36414927D01*
X8590823Y-36465403D01*
X8519395Y-36490641D01*
X8471776Y-36490641D01*
X8400347Y-36465403D01*
X8376538Y-36440165D01*
X8376538Y-36263499D01*
X8471776Y-36263499D01*
X8162252Y-36490641D02*
X8162252Y-35960641D01*
X7971776Y-35960641D01*
X7924157Y-35985880D01*
X7900347Y-36011118D01*
X7876538Y-36061594D01*
X7876538Y-36137308D01*
X7900347Y-36187784D01*
X7924157Y-36213022D01*
X7971776Y-36238260D01*
X8162252Y-36238260D01*
X7686061Y-36011118D02*
X7662252Y-35985880D01*
X7614633Y-35960641D01*
X7495585Y-35960641D01*
X7447966Y-35985880D01*
X7424157Y-36011118D01*
X7400347Y-36061594D01*
X7400347Y-36112070D01*
X7424157Y-36187784D01*
X7709871Y-36490641D01*
X7400347Y-36490641D01*
X6971776Y-36137308D02*
X6971776Y-36490641D01*
X7090823Y-35935403D02*
X7209871Y-36313975D01*
X6900347Y-36313975D01*
X8400347Y-38520880D02*
X8447966Y-38495641D01*
X8519395Y-38495641D01*
X8590823Y-38520880D01*
X8638442Y-38571356D01*
X8662252Y-38621832D01*
X8686061Y-38722784D01*
X8686061Y-38798499D01*
X8662252Y-38899451D01*
X8638442Y-38949927D01*
X8590823Y-39000403D01*
X8519395Y-39025641D01*
X8471776Y-39025641D01*
X8400347Y-39000403D01*
X8376538Y-38975165D01*
X8376538Y-38798499D01*
X8471776Y-38798499D01*
X8162252Y-39025641D02*
X8162252Y-38495641D01*
X7876538Y-39025641D01*
X7876538Y-38495641D01*
X7638442Y-39025641D02*
X7638442Y-38495641D01*
X7519395Y-38495641D01*
X7447966Y-38520880D01*
X7400347Y-38571356D01*
X7376538Y-38621832D01*
X7352728Y-38722784D01*
X7352728Y-38798499D01*
X7376538Y-38899451D01*
X7400347Y-38949927D01*
X7447966Y-39000403D01*
X7519395Y-39025641D01*
X7638442Y-39025641D01*
X8400347Y-41055880D02*
X8447966Y-41030641D01*
X8519395Y-41030641D01*
X8590823Y-41055880D01*
X8638442Y-41106356D01*
X8662252Y-41156832D01*
X8686061Y-41257784D01*
X8686061Y-41333499D01*
X8662252Y-41434451D01*
X8638442Y-41484927D01*
X8590823Y-41535403D01*
X8519395Y-41560641D01*
X8471776Y-41560641D01*
X8400347Y-41535403D01*
X8376538Y-41510165D01*
X8376538Y-41333499D01*
X8471776Y-41333499D01*
X8162252Y-41560641D02*
X8162252Y-41030641D01*
X7971776Y-41030641D01*
X7924157Y-41055880D01*
X7900347Y-41081118D01*
X7876538Y-41131594D01*
X7876538Y-41207308D01*
X7900347Y-41257784D01*
X7924157Y-41283022D01*
X7971776Y-41308260D01*
X8162252Y-41308260D01*
X7686061Y-41081118D02*
X7662252Y-41055880D01*
X7614633Y-41030641D01*
X7495585Y-41030641D01*
X7447966Y-41055880D01*
X7424157Y-41081118D01*
X7400347Y-41131594D01*
X7400347Y-41182070D01*
X7424157Y-41257784D01*
X7709871Y-41560641D01*
X7400347Y-41560641D01*
X6947966Y-41030641D02*
X7186061Y-41030641D01*
X7209871Y-41283022D01*
X7186061Y-41257784D01*
X7138442Y-41232546D01*
X7019395Y-41232546D01*
X6971776Y-41257784D01*
X6947966Y-41283022D01*
X6924157Y-41333499D01*
X6924157Y-41459689D01*
X6947966Y-41510165D01*
X6971776Y-41535403D01*
X7019395Y-41560641D01*
X7138442Y-41560641D01*
X7186061Y-41535403D01*
X7209871Y-41510165D01*
X8400347Y-51195880D02*
X8447966Y-51170641D01*
X8519395Y-51170641D01*
X8590823Y-51195880D01*
X8638442Y-51246356D01*
X8662252Y-51296832D01*
X8686061Y-51397784D01*
X8686061Y-51473499D01*
X8662252Y-51574451D01*
X8638442Y-51624927D01*
X8590823Y-51675403D01*
X8519395Y-51700641D01*
X8471776Y-51700641D01*
X8400347Y-51675403D01*
X8376538Y-51650165D01*
X8376538Y-51473499D01*
X8471776Y-51473499D01*
X8162252Y-51700641D02*
X8162252Y-51170641D01*
X7876538Y-51700641D01*
X7876538Y-51170641D01*
X7638442Y-51700641D02*
X7638442Y-51170641D01*
X7519395Y-51170641D01*
X7447966Y-51195880D01*
X7400347Y-51246356D01*
X7376538Y-51296832D01*
X7352728Y-51397784D01*
X7352728Y-51473499D01*
X7376538Y-51574451D01*
X7400347Y-51624927D01*
X7447966Y-51675403D01*
X7519395Y-51700641D01*
X7638442Y-51700641D01*
X8400347Y-56265880D02*
X8447966Y-56240641D01*
X8519395Y-56240641D01*
X8590823Y-56265880D01*
X8638442Y-56316356D01*
X8662252Y-56366832D01*
X8686061Y-56467784D01*
X8686061Y-56543499D01*
X8662252Y-56644451D01*
X8638442Y-56694927D01*
X8590823Y-56745403D01*
X8519395Y-56770641D01*
X8471776Y-56770641D01*
X8400347Y-56745403D01*
X8376538Y-56720165D01*
X8376538Y-56543499D01*
X8471776Y-56543499D01*
X8162252Y-56770641D02*
X8162252Y-56240641D01*
X7876538Y-56770641D01*
X7876538Y-56240641D01*
X7638442Y-56770641D02*
X7638442Y-56240641D01*
X7519395Y-56240641D01*
X7447966Y-56265880D01*
X7400347Y-56316356D01*
X7376538Y-56366832D01*
X7352728Y-56467784D01*
X7352728Y-56543499D01*
X7376538Y-56644451D01*
X7400347Y-56694927D01*
X7447966Y-56745403D01*
X7519395Y-56770641D01*
X7638442Y-56770641D01*
D11*
X60898274Y-25232085D02*
X60362560Y-25232085D01*
X60255417Y-25267800D01*
X60183988Y-25339228D01*
X60148274Y-25446371D01*
X60148274Y-25517800D01*
X60148274Y-24517800D02*
X60148274Y-24874942D01*
X60898274Y-24874942D01*
X60219702Y-23839228D02*
X60183988Y-23874942D01*
X60148274Y-23982085D01*
X60148274Y-24053514D01*
X60183988Y-24160657D01*
X60255417Y-24232085D01*
X60326845Y-24267800D01*
X60469702Y-24303514D01*
X60576845Y-24303514D01*
X60719702Y-24267800D01*
X60791131Y-24232085D01*
X60862560Y-24160657D01*
X60898274Y-24053514D01*
X60898274Y-23982085D01*
X60862560Y-23874942D01*
X60826845Y-23839228D01*
X60898274Y-23303514D02*
X60362560Y-23303514D01*
X60255417Y-23339228D01*
X60183988Y-23410657D01*
X60148274Y-23517800D01*
X60148274Y-23589228D01*
X60148274Y-22589228D02*
X60148274Y-22946371D01*
X60898274Y-22946371D01*
X60219702Y-21910657D02*
X60183988Y-21946371D01*
X60148274Y-22053514D01*
X60148274Y-22124942D01*
X60183988Y-22232085D01*
X60255417Y-22303514D01*
X60326845Y-22339228D01*
X60469702Y-22374942D01*
X60576845Y-22374942D01*
X60719702Y-22339228D01*
X60791131Y-22303514D01*
X60862560Y-22232085D01*
X60898274Y-22124942D01*
X60898274Y-22053514D01*
X60862560Y-21946371D01*
X60826845Y-21910657D01*
X60898274Y-21374942D02*
X60362560Y-21374942D01*
X60255417Y-21410657D01*
X60183988Y-21482085D01*
X60148274Y-21589228D01*
X60148274Y-21660657D01*
X60148274Y-20660657D02*
X60148274Y-21017800D01*
X60898274Y-21017800D01*
X60219702Y-19982085D02*
X60183988Y-20017800D01*
X60148274Y-20124942D01*
X60148274Y-20196371D01*
X60183988Y-20303514D01*
X60255417Y-20374942D01*
X60326845Y-20410657D01*
X60469702Y-20446371D01*
X60576845Y-20446371D01*
X60719702Y-20410657D01*
X60791131Y-20374942D01*
X60862560Y-20303514D01*
X60898274Y-20196371D01*
X60898274Y-20124942D01*
X60862560Y-20017800D01*
X60826845Y-19982085D01*
X60898274Y-19446371D02*
X60362560Y-19446371D01*
X60255417Y-19482085D01*
X60183988Y-19553514D01*
X60148274Y-19660657D01*
X60148274Y-19732085D01*
X60148274Y-18732085D02*
X60148274Y-19089228D01*
X60898274Y-19089228D01*
X60219702Y-18053514D02*
X60183988Y-18089228D01*
X60148274Y-18196371D01*
X60148274Y-18267800D01*
X60183988Y-18374942D01*
X60255417Y-18446371D01*
X60326845Y-18482085D01*
X60469702Y-18517800D01*
X60576845Y-18517800D01*
X60719702Y-18482085D01*
X60791131Y-18446371D01*
X60862560Y-18374942D01*
X60898274Y-18267800D01*
X60898274Y-18196371D01*
X60862560Y-18089228D01*
X60826845Y-18053514D01*
D10*
X64438103Y-68322581D02*
X64135246Y-68322581D01*
X64286675Y-68852581D02*
X64286675Y-68322581D01*
X63958580Y-68852581D02*
X63958580Y-68322581D01*
X63832389Y-68322581D01*
X63756675Y-68347820D01*
X63706199Y-68398296D01*
X63680960Y-68448772D01*
X63655722Y-68549724D01*
X63655722Y-68625439D01*
X63680960Y-68726391D01*
X63706199Y-68776867D01*
X63756675Y-68827343D01*
X63832389Y-68852581D01*
X63958580Y-68852581D01*
X63428580Y-68852581D02*
X63428580Y-68322581D01*
X64438103Y-70857581D02*
X64135246Y-70857581D01*
X64286675Y-71387581D02*
X64286675Y-70857581D01*
X63958580Y-71387581D02*
X63958580Y-70857581D01*
X63781913Y-71236153D01*
X63605246Y-70857581D01*
X63605246Y-71387581D01*
X63378103Y-71362343D02*
X63302389Y-71387581D01*
X63176199Y-71387581D01*
X63125722Y-71362343D01*
X63100484Y-71337105D01*
X63075246Y-71286629D01*
X63075246Y-71236153D01*
X63100484Y-71185677D01*
X63125722Y-71160439D01*
X63176199Y-71135200D01*
X63277151Y-71109962D01*
X63327627Y-71084724D01*
X63352865Y-71059486D01*
X63378103Y-71009010D01*
X63378103Y-70958534D01*
X63352865Y-70908058D01*
X63327627Y-70882820D01*
X63277151Y-70857581D01*
X63150960Y-70857581D01*
X63075246Y-70882820D01*
X64438103Y-73392581D02*
X64135246Y-73392581D01*
X64286675Y-73922581D02*
X64286675Y-73392581D01*
X63655722Y-73872105D02*
X63680960Y-73897343D01*
X63756675Y-73922581D01*
X63807151Y-73922581D01*
X63882865Y-73897343D01*
X63933341Y-73846867D01*
X63958580Y-73796391D01*
X63983818Y-73695439D01*
X63983818Y-73619724D01*
X63958580Y-73518772D01*
X63933341Y-73468296D01*
X63882865Y-73417820D01*
X63807151Y-73392581D01*
X63756675Y-73392581D01*
X63680960Y-73417820D01*
X63655722Y-73443058D01*
X63428580Y-73922581D02*
X63428580Y-73392581D01*
X63125722Y-73922581D02*
X63352865Y-73619724D01*
X63125722Y-73392581D02*
X63428580Y-73695439D01*
X64438103Y-78462581D02*
X64135246Y-78462581D01*
X64286675Y-78992581D02*
X64286675Y-78462581D01*
X63958580Y-78992581D02*
X63958580Y-78462581D01*
X63832389Y-78462581D01*
X63756675Y-78487820D01*
X63706199Y-78538296D01*
X63680960Y-78588772D01*
X63655722Y-78689724D01*
X63655722Y-78765439D01*
X63680960Y-78866391D01*
X63706199Y-78916867D01*
X63756675Y-78967343D01*
X63832389Y-78992581D01*
X63958580Y-78992581D01*
X63327627Y-78462581D02*
X63226675Y-78462581D01*
X63176199Y-78487820D01*
X63125722Y-78538296D01*
X63100484Y-78639248D01*
X63100484Y-78815915D01*
X63125722Y-78916867D01*
X63176199Y-78967343D01*
X63226675Y-78992581D01*
X63327627Y-78992581D01*
X63378103Y-78967343D01*
X63428580Y-78916867D01*
X63453818Y-78815915D01*
X63453818Y-78639248D01*
X63428580Y-78538296D01*
X63378103Y-78487820D01*
X63327627Y-78462581D01*
X64059532Y-81527581D02*
X64236199Y-81275200D01*
X64362389Y-81527581D02*
X64362389Y-80997581D01*
X64160484Y-80997581D01*
X64110008Y-81022820D01*
X64084770Y-81048058D01*
X64059532Y-81098534D01*
X64059532Y-81174248D01*
X64084770Y-81224724D01*
X64110008Y-81249962D01*
X64160484Y-81275200D01*
X64362389Y-81275200D01*
X63857627Y-81502343D02*
X63781913Y-81527581D01*
X63655722Y-81527581D01*
X63605246Y-81502343D01*
X63580008Y-81477105D01*
X63554770Y-81426629D01*
X63554770Y-81376153D01*
X63580008Y-81325677D01*
X63605246Y-81300439D01*
X63655722Y-81275200D01*
X63756675Y-81249962D01*
X63807151Y-81224724D01*
X63832389Y-81199486D01*
X63857627Y-81149010D01*
X63857627Y-81098534D01*
X63832389Y-81048058D01*
X63807151Y-81022820D01*
X63756675Y-80997581D01*
X63630484Y-80997581D01*
X63554770Y-81022820D01*
X63403341Y-80997581D02*
X63100484Y-80997581D01*
X63251913Y-81527581D02*
X63251913Y-80997581D01*
X70766277Y-65861040D02*
X70813896Y-65835801D01*
X70885324Y-65835801D01*
X70956753Y-65861040D01*
X71004372Y-65911516D01*
X71028181Y-65961992D01*
X71051991Y-66062944D01*
X71051991Y-66138659D01*
X71028181Y-66239611D01*
X71004372Y-66290087D01*
X70956753Y-66340563D01*
X70885324Y-66365801D01*
X70837705Y-66365801D01*
X70766277Y-66340563D01*
X70742467Y-66315325D01*
X70742467Y-66138659D01*
X70837705Y-66138659D01*
X70528181Y-66365801D02*
X70528181Y-65835801D01*
X70242467Y-66365801D01*
X70242467Y-65835801D01*
X70004372Y-66365801D02*
X70004372Y-65835801D01*
X69885324Y-65835801D01*
X69813896Y-65861040D01*
X69766277Y-65911516D01*
X69742467Y-65961992D01*
X69718658Y-66062944D01*
X69718658Y-66138659D01*
X69742467Y-66239611D01*
X69766277Y-66290087D01*
X69813896Y-66340563D01*
X69885324Y-66365801D01*
X70004372Y-66365801D01*
X70909134Y-68370801D02*
X70575800Y-68900801D01*
X70575800Y-68370801D02*
X70909134Y-68900801D01*
X70147229Y-68900801D02*
X70385324Y-68900801D01*
X70385324Y-68370801D01*
X69718658Y-68900801D02*
X70004372Y-68900801D01*
X69861515Y-68900801D02*
X69861515Y-68370801D01*
X69909134Y-68446516D01*
X69956753Y-68496992D01*
X70004372Y-68522230D01*
X71004372Y-69215801D02*
X71004372Y-69644849D01*
X70980562Y-69695325D01*
X70956753Y-69720563D01*
X70909134Y-69745801D01*
X70813896Y-69745801D01*
X70766277Y-69720563D01*
X70742467Y-69695325D01*
X70718658Y-69644849D01*
X70718658Y-69215801D01*
X70480562Y-69745801D02*
X70480562Y-69215801D01*
X70290086Y-69215801D01*
X70242467Y-69241040D01*
X70218658Y-69266278D01*
X70194848Y-69316754D01*
X70194848Y-69392468D01*
X70218658Y-69442944D01*
X70242467Y-69468182D01*
X70290086Y-69493420D01*
X70480562Y-69493420D01*
X69718658Y-69745801D02*
X70004372Y-69745801D01*
X69861515Y-69745801D02*
X69861515Y-69215801D01*
X69909134Y-69291516D01*
X69956753Y-69341992D01*
X70004372Y-69367230D01*
X70766277Y-70931040D02*
X70813896Y-70905801D01*
X70885324Y-70905801D01*
X70956753Y-70931040D01*
X71004372Y-70981516D01*
X71028181Y-71031992D01*
X71051991Y-71132944D01*
X71051991Y-71208659D01*
X71028181Y-71309611D01*
X71004372Y-71360087D01*
X70956753Y-71410563D01*
X70885324Y-71435801D01*
X70837705Y-71435801D01*
X70766277Y-71410563D01*
X70742467Y-71385325D01*
X70742467Y-71208659D01*
X70837705Y-71208659D01*
X70528181Y-71435801D02*
X70528181Y-70905801D01*
X70242467Y-71435801D01*
X70242467Y-70905801D01*
X70004372Y-71435801D02*
X70004372Y-70905801D01*
X69885324Y-70905801D01*
X69813896Y-70931040D01*
X69766277Y-70981516D01*
X69742467Y-71031992D01*
X69718658Y-71132944D01*
X69718658Y-71208659D01*
X69742467Y-71309611D01*
X69766277Y-71360087D01*
X69813896Y-71410563D01*
X69885324Y-71435801D01*
X70004372Y-71435801D01*
X70432943Y-72595801D02*
X70099610Y-73125801D01*
X70099610Y-72595801D02*
X70432943Y-73125801D01*
X69671039Y-73125801D02*
X69909134Y-73125801D01*
X69909134Y-72595801D01*
X71004372Y-73440801D02*
X71004372Y-73869849D01*
X70980562Y-73920325D01*
X70956753Y-73945563D01*
X70909134Y-73970801D01*
X70813896Y-73970801D01*
X70766277Y-73945563D01*
X70742467Y-73920325D01*
X70718658Y-73869849D01*
X70718658Y-73440801D01*
X70480562Y-73970801D02*
X70480562Y-73440801D01*
X70290086Y-73440801D01*
X70242467Y-73466040D01*
X70218658Y-73491278D01*
X70194848Y-73541754D01*
X70194848Y-73617468D01*
X70218658Y-73667944D01*
X70242467Y-73693182D01*
X70290086Y-73718420D01*
X70480562Y-73718420D01*
X69885324Y-73440801D02*
X69837705Y-73440801D01*
X69790086Y-73466040D01*
X69766277Y-73491278D01*
X69742467Y-73541754D01*
X69718658Y-73642706D01*
X69718658Y-73768897D01*
X69742467Y-73869849D01*
X69766277Y-73920325D01*
X69790086Y-73945563D01*
X69837705Y-73970801D01*
X69885324Y-73970801D01*
X69932943Y-73945563D01*
X69956753Y-73920325D01*
X69980562Y-73869849D01*
X70004372Y-73768897D01*
X70004372Y-73642706D01*
X69980562Y-73541754D01*
X69956753Y-73491278D01*
X69932943Y-73466040D01*
X69885324Y-73440801D01*
X70766277Y-76001040D02*
X70813896Y-75975801D01*
X70885324Y-75975801D01*
X70956753Y-76001040D01*
X71004372Y-76051516D01*
X71028181Y-76101992D01*
X71051991Y-76202944D01*
X71051991Y-76278659D01*
X71028181Y-76379611D01*
X71004372Y-76430087D01*
X70956753Y-76480563D01*
X70885324Y-76505801D01*
X70837705Y-76505801D01*
X70766277Y-76480563D01*
X70742467Y-76455325D01*
X70742467Y-76278659D01*
X70837705Y-76278659D01*
X70528181Y-76505801D02*
X70528181Y-75975801D01*
X70242467Y-76505801D01*
X70242467Y-75975801D01*
X70004372Y-76505801D02*
X70004372Y-75975801D01*
X69885324Y-75975801D01*
X69813896Y-76001040D01*
X69766277Y-76051516D01*
X69742467Y-76101992D01*
X69718658Y-76202944D01*
X69718658Y-76278659D01*
X69742467Y-76379611D01*
X69766277Y-76430087D01*
X69813896Y-76480563D01*
X69885324Y-76505801D01*
X70004372Y-76505801D01*
X70432943Y-77665801D02*
X70099610Y-78195801D01*
X70099610Y-77665801D02*
X70432943Y-78195801D01*
X69671039Y-78195801D02*
X69909134Y-78195801D01*
X69909134Y-77665801D01*
X71004372Y-79040801D02*
X71004372Y-78510801D01*
X70885324Y-78510801D01*
X70813896Y-78536040D01*
X70766277Y-78586516D01*
X70742467Y-78636992D01*
X70718658Y-78737944D01*
X70718658Y-78813659D01*
X70742467Y-78914611D01*
X70766277Y-78965087D01*
X70813896Y-79015563D01*
X70885324Y-79040801D01*
X71004372Y-79040801D01*
X70504372Y-79040801D02*
X70504372Y-78510801D01*
X70218658Y-79040801D01*
X70218658Y-78510801D01*
X69885324Y-78510801D02*
X69837705Y-78510801D01*
X69790086Y-78536040D01*
X69766277Y-78561278D01*
X69742467Y-78611754D01*
X69718658Y-78712706D01*
X69718658Y-78838897D01*
X69742467Y-78939849D01*
X69766277Y-78990325D01*
X69790086Y-79015563D01*
X69837705Y-79040801D01*
X69885324Y-79040801D01*
X69932943Y-79015563D01*
X69956753Y-78990325D01*
X69980562Y-78939849D01*
X70004372Y-78838897D01*
X70004372Y-78712706D01*
X69980562Y-78611754D01*
X69956753Y-78561278D01*
X69932943Y-78536040D01*
X69885324Y-78510801D01*
X70766277Y-81071040D02*
X70813896Y-81045801D01*
X70885324Y-81045801D01*
X70956753Y-81071040D01*
X71004372Y-81121516D01*
X71028181Y-81171992D01*
X71051991Y-81272944D01*
X71051991Y-81348659D01*
X71028181Y-81449611D01*
X71004372Y-81500087D01*
X70956753Y-81550563D01*
X70885324Y-81575801D01*
X70837705Y-81575801D01*
X70766277Y-81550563D01*
X70742467Y-81525325D01*
X70742467Y-81348659D01*
X70837705Y-81348659D01*
X70528181Y-81575801D02*
X70528181Y-81045801D01*
X70242467Y-81575801D01*
X70242467Y-81045801D01*
X70004372Y-81575801D02*
X70004372Y-81045801D01*
X69885324Y-81045801D01*
X69813896Y-81071040D01*
X69766277Y-81121516D01*
X69742467Y-81171992D01*
X69718658Y-81272944D01*
X69718658Y-81348659D01*
X69742467Y-81449611D01*
X69766277Y-81500087D01*
X69813896Y-81550563D01*
X69885324Y-81575801D01*
X70004372Y-81575801D01*
X70432943Y-83580801D02*
X70099610Y-84110801D01*
X70099610Y-83580801D02*
X70432943Y-84110801D01*
X69671039Y-84110801D02*
X69909134Y-84110801D01*
X69909134Y-83580801D01*
X71004372Y-84955801D02*
X71004372Y-84425801D01*
X70885324Y-84425801D01*
X70813896Y-84451040D01*
X70766277Y-84501516D01*
X70742467Y-84551992D01*
X70718658Y-84652944D01*
X70718658Y-84728659D01*
X70742467Y-84829611D01*
X70766277Y-84880087D01*
X70813896Y-84930563D01*
X70885324Y-84955801D01*
X71004372Y-84955801D01*
X70504372Y-84955801D02*
X70504372Y-84425801D01*
X70218658Y-84955801D01*
X70218658Y-84425801D01*
X69718658Y-84955801D02*
X70004372Y-84955801D01*
X69861515Y-84955801D02*
X69861515Y-84425801D01*
X69909134Y-84501516D01*
X69956753Y-84551992D01*
X70004372Y-84577230D01*
X70766277Y-86141040D02*
X70813896Y-86115801D01*
X70885324Y-86115801D01*
X70956753Y-86141040D01*
X71004372Y-86191516D01*
X71028181Y-86241992D01*
X71051991Y-86342944D01*
X71051991Y-86418659D01*
X71028181Y-86519611D01*
X71004372Y-86570087D01*
X70956753Y-86620563D01*
X70885324Y-86645801D01*
X70837705Y-86645801D01*
X70766277Y-86620563D01*
X70742467Y-86595325D01*
X70742467Y-86418659D01*
X70837705Y-86418659D01*
X70528181Y-86645801D02*
X70528181Y-86115801D01*
X70242467Y-86645801D01*
X70242467Y-86115801D01*
X70004372Y-86645801D02*
X70004372Y-86115801D01*
X69885324Y-86115801D01*
X69813896Y-86141040D01*
X69766277Y-86191516D01*
X69742467Y-86241992D01*
X69718658Y-86342944D01*
X69718658Y-86418659D01*
X69742467Y-86519611D01*
X69766277Y-86570087D01*
X69813896Y-86620563D01*
X69885324Y-86645801D01*
X70004372Y-86645801D01*
D12*
X65364217Y-48485360D02*
X65507074Y-48413931D01*
X65721360Y-48413931D01*
X65935645Y-48485360D01*
X66078502Y-48628217D01*
X66149931Y-48771074D01*
X66221360Y-49056788D01*
X66221360Y-49271074D01*
X66149931Y-49556788D01*
X66078502Y-49699645D01*
X65935645Y-49842502D01*
X65721360Y-49913931D01*
X65578502Y-49913931D01*
X65364217Y-49842502D01*
X65292788Y-49771074D01*
X65292788Y-49271074D01*
X65578502Y-49271074D01*
X64649931Y-49913931D02*
X64649931Y-48413931D01*
X63792788Y-49913931D01*
X63792788Y-48413931D01*
X63078502Y-49913931D02*
X63078502Y-48413931D01*
X62721360Y-48413931D01*
X62507074Y-48485360D01*
X62364217Y-48628217D01*
X62292788Y-48771074D01*
X62221360Y-49056788D01*
X62221360Y-49271074D01*
X62292788Y-49556788D01*
X62364217Y-49699645D01*
X62507074Y-49842502D01*
X62721360Y-49913931D01*
X63078502Y-49913931D01*
X70645897Y-56453268D02*
X70788754Y-56381840D01*
X70860182Y-56310411D01*
X70931611Y-56167554D01*
X70931611Y-56096125D01*
X70860182Y-55953268D01*
X70788754Y-55881840D01*
X70645897Y-55810411D01*
X70360182Y-55810411D01*
X70217325Y-55881840D01*
X70145897Y-55953268D01*
X70074468Y-56096125D01*
X70074468Y-56167554D01*
X70145897Y-56310411D01*
X70217325Y-56381840D01*
X70360182Y-56453268D01*
X70645897Y-56453268D01*
X70788754Y-56524697D01*
X70860182Y-56596125D01*
X70931611Y-56738982D01*
X70931611Y-57024697D01*
X70860182Y-57167554D01*
X70788754Y-57238982D01*
X70645897Y-57310411D01*
X70360182Y-57310411D01*
X70217325Y-57238982D01*
X70145897Y-57167554D01*
X70074468Y-57024697D01*
X70074468Y-56738982D01*
X70145897Y-56596125D01*
X70217325Y-56524697D01*
X70360182Y-56453268D01*
X69431611Y-56738982D02*
X68288754Y-56738982D01*
X66788754Y-57310411D02*
X67645897Y-57310411D01*
X67217325Y-57310411D02*
X67217325Y-55810411D01*
X67360182Y-56024697D01*
X67503040Y-56167554D01*
X67645897Y-56238982D01*
X65503040Y-55810411D02*
X65788754Y-55810411D01*
X65931611Y-55881840D01*
X66003040Y-55953268D01*
X66145897Y-56167554D01*
X66217325Y-56453268D01*
X66217325Y-57024697D01*
X66145897Y-57167554D01*
X66074468Y-57238982D01*
X65931611Y-57310411D01*
X65645897Y-57310411D01*
X65503040Y-57238982D01*
X65431611Y-57167554D01*
X65360182Y-57024697D01*
X65360182Y-56667554D01*
X65431611Y-56524697D01*
X65503040Y-56453268D01*
X65645897Y-56381840D01*
X65931611Y-56381840D01*
X66074468Y-56453268D01*
X66145897Y-56524697D01*
X66217325Y-56667554D01*
X64931611Y-55810411D02*
X64431611Y-57310411D01*
X63931611Y-55810411D01*
D11*
X34220579Y-13615660D02*
X33816518Y-13211599D01*
X33816518Y-13615660D02*
X34220579Y-13211599D01*
X33084157Y-12883300D02*
X33387203Y-13186346D01*
X33235680Y-13034823D02*
X33766010Y-12504493D01*
X33740756Y-12630762D01*
X33740756Y-12731777D01*
X33766010Y-12807538D01*
X32907381Y-12605508D02*
X32856873Y-12605508D01*
X32856873Y-12656015D01*
X32907381Y-12656015D01*
X32907381Y-12605508D01*
X32856873Y-12656015D01*
X33033650Y-11772132D02*
X32983142Y-11721624D01*
X32907381Y-11696371D01*
X32856873Y-11696371D01*
X32781112Y-11721624D01*
X32654843Y-11797386D01*
X32528573Y-11923655D01*
X32452812Y-12049924D01*
X32427558Y-12125685D01*
X32427558Y-12176193D01*
X32452812Y-12251954D01*
X32503320Y-12302462D01*
X32579081Y-12327716D01*
X32629589Y-12327716D01*
X32705350Y-12302462D01*
X32831619Y-12226701D01*
X32957888Y-12100432D01*
X33033650Y-11974163D01*
X33058904Y-11898401D01*
X33058904Y-11847893D01*
X33033650Y-11772132D01*
X32705350Y-11443832D02*
X31998243Y-11797386D01*
X32351797Y-11090279D01*
X32354788Y-15660565D02*
X32354788Y-14910565D01*
X32069074Y-14910565D01*
X31997645Y-14946280D01*
X31961931Y-14981994D01*
X31926217Y-15053422D01*
X31926217Y-15160565D01*
X31961931Y-15231994D01*
X31997645Y-15267708D01*
X32069074Y-15303422D01*
X32354788Y-15303422D01*
X31711931Y-14910565D02*
X31461931Y-15660565D01*
X31211931Y-14910565D01*
X30961931Y-15660565D02*
X30961931Y-14910565D01*
X30783360Y-14910565D01*
X30676217Y-14946280D01*
X30604788Y-15017708D01*
X30569074Y-15089137D01*
X30533360Y-15231994D01*
X30533360Y-15339137D01*
X30569074Y-15481994D01*
X30604788Y-15553422D01*
X30676217Y-15624851D01*
X30783360Y-15660565D01*
X30961931Y-15660565D01*
X30211931Y-15660565D02*
X30211931Y-14910565D01*
X30033360Y-14910565D01*
X29926217Y-14946280D01*
X29854788Y-15017708D01*
X29819074Y-15089137D01*
X29783360Y-15231994D01*
X29783360Y-15339137D01*
X29819074Y-15481994D01*
X29854788Y-15553422D01*
X29926217Y-15624851D01*
X30033360Y-15660565D01*
X30211931Y-15660565D01*
X28497645Y-14946280D02*
X28569074Y-14910565D01*
X28676217Y-14910565D01*
X28783360Y-14946280D01*
X28854788Y-15017708D01*
X28890502Y-15089137D01*
X28926217Y-15231994D01*
X28926217Y-15339137D01*
X28890502Y-15481994D01*
X28854788Y-15553422D01*
X28783360Y-15624851D01*
X28676217Y-15660565D01*
X28604788Y-15660565D01*
X28497645Y-15624851D01*
X28461931Y-15589137D01*
X28461931Y-15339137D01*
X28604788Y-15339137D01*
X28140502Y-15660565D02*
X28140502Y-14910565D01*
X27711931Y-15660565D01*
X27711931Y-14910565D01*
X27354788Y-15660565D02*
X27354788Y-14910565D01*
X27176217Y-14910565D01*
X27069074Y-14946280D01*
X26997645Y-15017708D01*
X26961931Y-15089137D01*
X26926217Y-15231994D01*
X26926217Y-15339137D01*
X26961931Y-15481994D01*
X26997645Y-15553422D01*
X27069074Y-15624851D01*
X27176217Y-15660565D01*
X27354788Y-15660565D01*
X26859668Y-10714485D02*
X26395382Y-10714485D01*
X26645382Y-11000200D01*
X26538240Y-11000200D01*
X26466811Y-11035914D01*
X26431097Y-11071628D01*
X26395382Y-11143057D01*
X26395382Y-11321628D01*
X26431097Y-11393057D01*
X26466811Y-11428771D01*
X26538240Y-11464485D01*
X26752525Y-11464485D01*
X26823954Y-11428771D01*
X26859668Y-11393057D01*
X26073954Y-11393057D02*
X26038240Y-11428771D01*
X26073954Y-11464485D01*
X26109668Y-11428771D01*
X26073954Y-11393057D01*
X26073954Y-11464485D01*
X25788240Y-10714485D02*
X25323954Y-10714485D01*
X25573954Y-11000200D01*
X25466811Y-11000200D01*
X25395382Y-11035914D01*
X25359668Y-11071628D01*
X25323954Y-11143057D01*
X25323954Y-11321628D01*
X25359668Y-11393057D01*
X25395382Y-11428771D01*
X25466811Y-11464485D01*
X25681097Y-11464485D01*
X25752525Y-11428771D01*
X25788240Y-11393057D01*
X25109668Y-10714485D02*
X24859668Y-11464485D01*
X24609668Y-10714485D01*
X24359668Y-11178771D02*
X23788240Y-11178771D01*
X24073954Y-11464485D02*
X24073954Y-10893057D01*
X32650880Y-5992091D02*
X32079451Y-5992091D01*
X32365165Y-6277805D02*
X32365165Y-5706377D01*
X31329451Y-6277805D02*
X31758022Y-6277805D01*
X31543737Y-6277805D02*
X31543737Y-5527805D01*
X31615165Y-5634948D01*
X31686594Y-5706377D01*
X31758022Y-5742091D01*
X31043737Y-5599234D02*
X31008022Y-5563520D01*
X30936594Y-5527805D01*
X30758022Y-5527805D01*
X30686594Y-5563520D01*
X30650880Y-5599234D01*
X30615165Y-5670662D01*
X30615165Y-5742091D01*
X30650880Y-5849234D01*
X31079451Y-6277805D01*
X30615165Y-6277805D01*
X30400880Y-5527805D02*
X30150880Y-6277805D01*
X29900880Y-5527805D01*
X29079451Y-5992091D02*
X28508022Y-5992091D01*
X28793737Y-6277805D02*
X28793737Y-5706377D01*
X27793737Y-5527805D02*
X28150880Y-5527805D01*
X28186594Y-5884948D01*
X28150880Y-5849234D01*
X28079451Y-5813520D01*
X27900880Y-5813520D01*
X27829451Y-5849234D01*
X27793737Y-5884948D01*
X27758022Y-5956377D01*
X27758022Y-6134948D01*
X27793737Y-6206377D01*
X27829451Y-6242091D01*
X27900880Y-6277805D01*
X28079451Y-6277805D01*
X28150880Y-6242091D01*
X28186594Y-6206377D01*
X27543737Y-5527805D02*
X27293737Y-6277805D01*
X27043737Y-5527805D01*
G36*
X66107945Y-17560290D02*
G01*
X66009520Y-37581840D01*
X61008260Y-37602160D01*
X61176535Y-17552670D01*
X66107945Y-17560290D01*
G37*
X66107945Y-17560290D02*
X66009520Y-37581840D01*
X61008260Y-37602160D01*
X61176535Y-17552670D01*
X66107945Y-17560290D01*
D12*
X69562508Y-37364977D02*
X71062508Y-37364977D01*
X69991080Y-36864977D01*
X71062508Y-36364977D01*
X69562508Y-36364977D01*
X70562508Y-35793548D02*
X69562508Y-35436405D01*
X70562508Y-35079262D02*
X69562508Y-35436405D01*
X69205365Y-35579262D01*
X69133937Y-35650691D01*
X69062508Y-35793548D01*
X69633937Y-33864977D02*
X69562508Y-34007834D01*
X69562508Y-34293548D01*
X69633937Y-34436405D01*
X69705365Y-34507834D01*
X69848222Y-34579262D01*
X70276794Y-34579262D01*
X70419651Y-34507834D01*
X70491080Y-34436405D01*
X70562508Y-34293548D01*
X70562508Y-34007834D01*
X70491080Y-33864977D01*
X69562508Y-33222120D02*
X70562508Y-33222120D01*
X70276794Y-33222120D02*
X70419651Y-33150691D01*
X70491080Y-33079262D01*
X70562508Y-32936405D01*
X70562508Y-32793548D01*
X69562508Y-32079262D02*
X69633937Y-32222120D01*
X69705365Y-32293548D01*
X69848222Y-32364977D01*
X70276794Y-32364977D01*
X70419651Y-32293548D01*
X70491080Y-32222120D01*
X70562508Y-32079262D01*
X70562508Y-31864977D01*
X70491080Y-31722120D01*
X70419651Y-31650691D01*
X70276794Y-31579262D01*
X69848222Y-31579262D01*
X69705365Y-31650691D01*
X69633937Y-31722120D01*
X69562508Y-31864977D01*
X69562508Y-32079262D01*
X70562508Y-31150691D02*
X70562508Y-30579262D01*
X69562508Y-30936405D02*
X70848222Y-30936405D01*
X70991080Y-30864977D01*
X71062508Y-30722120D01*
X71062508Y-30579262D01*
X70562508Y-30293548D02*
X70562508Y-29722120D01*
X71062508Y-30079262D02*
X69776794Y-30079262D01*
X69633937Y-30007834D01*
X69562508Y-29864977D01*
X69562508Y-29722120D01*
X69562508Y-28079262D02*
X71062508Y-28079262D01*
X69991080Y-27579262D01*
X71062508Y-27079262D01*
X69562508Y-27079262D01*
X69562508Y-26364977D02*
X71062508Y-26364977D01*
X69562508Y-25507834D02*
X70419651Y-26150691D01*
X71062508Y-25507834D02*
X70205365Y-26364977D01*
X70919651Y-24936405D02*
X70991080Y-24864977D01*
X71062508Y-24722120D01*
X71062508Y-24364977D01*
X70991080Y-24222120D01*
X70919651Y-24150691D01*
X70776794Y-24079262D01*
X70633937Y-24079262D01*
X70419651Y-24150691D01*
X69562508Y-25007834D01*
X69562508Y-24079262D01*
X70562508Y-22436405D02*
X69562508Y-22079262D01*
X70562508Y-21722120D01*
X71062508Y-20864977D02*
X71062508Y-20722120D01*
X70991080Y-20579262D01*
X70919651Y-20507834D01*
X70776794Y-20436405D01*
X70491080Y-20364977D01*
X70133937Y-20364977D01*
X69848222Y-20436405D01*
X69705365Y-20507834D01*
X69633937Y-20579262D01*
X69562508Y-20722120D01*
X69562508Y-20864977D01*
X69633937Y-21007834D01*
X69705365Y-21079262D01*
X69848222Y-21150691D01*
X70133937Y-21222120D01*
X70491080Y-21222120D01*
X70776794Y-21150691D01*
X70919651Y-21079262D01*
X70991080Y-21007834D01*
X71062508Y-20864977D01*
X69705365Y-19722120D02*
X69633937Y-19650691D01*
X69562508Y-19722120D01*
X69633937Y-19793548D01*
X69705365Y-19722120D01*
X69562508Y-19722120D01*
X71062508Y-18364977D02*
X71062508Y-18650691D01*
X70991080Y-18793548D01*
X70919651Y-18864977D01*
X70705365Y-19007834D01*
X70419651Y-19079262D01*
X69848222Y-19079262D01*
X69705365Y-19007834D01*
X69633937Y-18936405D01*
X69562508Y-18793548D01*
X69562508Y-18507834D01*
X69633937Y-18364977D01*
X69705365Y-18293548D01*
X69848222Y-18222120D01*
X70205365Y-18222120D01*
X70348222Y-18293548D01*
X70419651Y-18364977D01*
X70491080Y-18507834D01*
X70491080Y-18793548D01*
X70419651Y-18936405D01*
X70348222Y-19007834D01*
X70205365Y-19079262D01*
X70562508Y-16936405D02*
X69562508Y-16936405D01*
X71133937Y-17293548D02*
X70062508Y-17650691D01*
X70062508Y-16722120D01*
X67083937Y-37436405D02*
X67012508Y-37222120D01*
X67012508Y-36864977D01*
X67083937Y-36722120D01*
X67155365Y-36650691D01*
X67298222Y-36579262D01*
X67441080Y-36579262D01*
X67583937Y-36650691D01*
X67655365Y-36722120D01*
X67726794Y-36864977D01*
X67798222Y-37150691D01*
X67869651Y-37293548D01*
X67941080Y-37364977D01*
X68083937Y-37436405D01*
X68226794Y-37436405D01*
X68369651Y-37364977D01*
X68441080Y-37293548D01*
X68512508Y-37150691D01*
X68512508Y-36793548D01*
X68441080Y-36579262D01*
X68512508Y-35507834D02*
X67441080Y-35507834D01*
X67226794Y-35579262D01*
X67083937Y-35722120D01*
X67012508Y-35936405D01*
X67012508Y-36079262D01*
X68369651Y-34864977D02*
X68441080Y-34793548D01*
X68512508Y-34650691D01*
X68512508Y-34293548D01*
X68441080Y-34150691D01*
X68369651Y-34079262D01*
X68226794Y-34007834D01*
X68083937Y-34007834D01*
X67869651Y-34079262D01*
X67012508Y-34936405D01*
X67012508Y-34007834D01*
X68512508Y-33079262D02*
X68512508Y-32936405D01*
X68441080Y-32793548D01*
X68369651Y-32722120D01*
X68226794Y-32650691D01*
X67941080Y-32579262D01*
X67583937Y-32579262D01*
X67298222Y-32650691D01*
X67155365Y-32722120D01*
X67083937Y-32793548D01*
X67012508Y-32936405D01*
X67012508Y-33079262D01*
X67083937Y-33222120D01*
X67155365Y-33293548D01*
X67298222Y-33364977D01*
X67583937Y-33436405D01*
X67941080Y-33436405D01*
X68226794Y-33364977D01*
X68369651Y-33293548D01*
X68441080Y-33222120D01*
X68512508Y-33079262D01*
X67012508Y-31150691D02*
X67012508Y-32007834D01*
X67012508Y-31579262D02*
X68512508Y-31579262D01*
X68298222Y-31722120D01*
X68155365Y-31864977D01*
X68083937Y-32007834D01*
X67583937Y-30507834D02*
X67583937Y-29364977D01*
X68512508Y-28364977D02*
X68512508Y-28222120D01*
X68441080Y-28079262D01*
X68369651Y-28007834D01*
X68226794Y-27936405D01*
X67941080Y-27864977D01*
X67583937Y-27864977D01*
X67298222Y-27936405D01*
X67155365Y-28007834D01*
X67083937Y-28079262D01*
X67012508Y-28222120D01*
X67012508Y-28364977D01*
X67083937Y-28507834D01*
X67155365Y-28579262D01*
X67298222Y-28650691D01*
X67583937Y-28722120D01*
X67941080Y-28722120D01*
X68226794Y-28650691D01*
X68369651Y-28579262D01*
X68441080Y-28507834D01*
X68512508Y-28364977D01*
X67012508Y-26436405D02*
X67012508Y-27293548D01*
X67012508Y-26864977D02*
X68512508Y-26864977D01*
X68298222Y-27007834D01*
X68155365Y-27150691D01*
X68083937Y-27293548D01*
X67583937Y-25793548D02*
X67583937Y-24650691D01*
X68512508Y-23650691D02*
X68512508Y-23507834D01*
X68441080Y-23364977D01*
X68369651Y-23293548D01*
X68226794Y-23222120D01*
X67941080Y-23150691D01*
X67583937Y-23150691D01*
X67298222Y-23222120D01*
X67155365Y-23293548D01*
X67083937Y-23364977D01*
X67012508Y-23507834D01*
X67012508Y-23650691D01*
X67083937Y-23793548D01*
X67155365Y-23864977D01*
X67298222Y-23936405D01*
X67583937Y-24007834D01*
X67941080Y-24007834D01*
X68226794Y-23936405D01*
X68369651Y-23864977D01*
X68441080Y-23793548D01*
X68512508Y-23650691D01*
X67012508Y-21722120D02*
X67012508Y-22579262D01*
X67012508Y-22150691D02*
X68512508Y-22150691D01*
X68298222Y-22293548D01*
X68155365Y-22436405D01*
X68083937Y-22579262D01*
D13*
X21264378Y-16386880D02*
X20747222Y-16386880D01*
X21264378Y-14966880D02*
X20747222Y-14966880D01*
D14*
X70068439Y-39395401D02*
G75*
G03*
X63972441Y-39395401I-3047999J-2793999D01*
G01*
X64480440Y-44602400D02*
G75*
G03*
X69560440Y-44602400I2540000J2413000D01*
G01*
X63972441Y-39395401D02*
X72227440Y-39395401D01*
X72227440Y-39395401D02*
X72227440Y-44602400D01*
X72227440Y-44602400D02*
X62829440Y-44602400D01*
X62829440Y-44602400D02*
X62829440Y-39395400D01*
X62829440Y-39395400D02*
X63972440Y-39395400D01*
D13*
X41402000Y-38658800D02*
X45974000Y-38658800D01*
X41402000Y-41452800D02*
X41402000Y-42722800D01*
X41402000Y-42722800D02*
X45974000Y-42722800D01*
X45770800Y-44856400D02*
X50342800Y-44856400D01*
X45770800Y-47650400D02*
X45770800Y-48920400D01*
X45770800Y-48920400D02*
X50342800Y-48920400D01*
X48920400Y-51663600D02*
X53492400Y-51663600D01*
X48920400Y-54457600D02*
X48920400Y-55727600D01*
X48920400Y-55727600D02*
X53492400Y-55727600D01*
X45821600Y-58470800D02*
X50393600Y-58470800D01*
X45821600Y-61264800D02*
X45821600Y-62534800D01*
X45821600Y-62534800D02*
X50393600Y-62534800D01*
X41452800Y-64668400D02*
X46024800Y-64668400D01*
X41452800Y-67462400D02*
X41452800Y-68732400D01*
X41452800Y-68732400D02*
X46024800Y-68732400D01*
X33934400Y-65278000D02*
X38506400Y-65278000D01*
X33934400Y-68072000D02*
X33934400Y-69342000D01*
X33934400Y-69342000D02*
X38506400Y-69342000D01*
X26466800Y-64617600D02*
X31038800Y-64617600D01*
X26466800Y-67411600D02*
X26466800Y-68681600D01*
X26466800Y-68681600D02*
X31038800Y-68681600D01*
X22047200Y-58572400D02*
X26619200Y-58572400D01*
X22047200Y-61366400D02*
X22047200Y-62636400D01*
X22047200Y-62636400D02*
X26619200Y-62636400D01*
X18948400Y-51714400D02*
X23520400Y-51714400D01*
X18948400Y-54508400D02*
X18948400Y-55778400D01*
X18948400Y-55778400D02*
X23520400Y-55778400D01*
X22098000Y-44856400D02*
X26670000Y-44856400D01*
X22098000Y-47650400D02*
X22098000Y-48920400D01*
X22098000Y-48920400D02*
X26670000Y-48920400D01*
X26416000Y-38760400D02*
X30988000Y-38760400D01*
X26416000Y-41554400D02*
X26416000Y-42824400D01*
X26416000Y-42824400D02*
X30988000Y-42824400D01*
X33934400Y-37998400D02*
X38506400Y-37998400D01*
X33934400Y-40792400D02*
X33934400Y-42062400D01*
X33934400Y-42062400D02*
X38506400Y-42062400D01*
X53623440Y-76210160D02*
G75*
G03*
X53623440Y-76210160I-700000J0D01*
G01*
X53603120Y-78353920D02*
G75*
G03*
X53603120Y-78353920I-700000J0D01*
G01*
D14*
X27196800Y-19796000D02*
X26696800Y-20296000D01*
X25041800Y-18796000D02*
G75*
G03*
X25041800Y-18796000I-625000J0D01*
G01*
X23196800Y-20296000D02*
X23196800Y-17296000D01*
X27196800Y-20296000D02*
X23196800Y-20296000D01*
X27196800Y-17296000D02*
X27196800Y-20296000D01*
X23196800Y-17296000D02*
X27196800Y-17296000D01*
D15*
X26346800Y-19446000D02*
X24046800Y-19446000D01*
X26346800Y-18146000D02*
X24046800Y-18146000D01*
D14*
X27196800Y-89646000D02*
X26696800Y-90146000D01*
X25041800Y-88646000D02*
G75*
G03*
X25041800Y-88646000I-625000J0D01*
G01*
X23196800Y-90146000D02*
X23196800Y-87146000D01*
X27196800Y-90146000D02*
X23196800Y-90146000D01*
X27196800Y-87146000D02*
X27196800Y-90146000D01*
X23196800Y-87146000D02*
X27196800Y-87146000D01*
D15*
X26346800Y-89296000D02*
X24046800Y-89296000D01*
X26346800Y-87996000D02*
X24046800Y-87996000D01*
D13*
X25243022Y-91258320D02*
X25760178Y-91258320D01*
X25243022Y-92678320D02*
X25760178Y-92678320D01*
D15*
G36*
X59372711Y-51700557D02*
G01*
X59329337Y-51450240D01*
X59176171Y-51023958D01*
X58952629Y-50638985D01*
X58665644Y-50302110D01*
X58322150Y-50020121D01*
X57929081Y-49799808D01*
X57493369Y-49647960D01*
X57487003Y-49646353D01*
X57208172Y-49602856D01*
X56887512Y-49595022D01*
X56559162Y-49621131D01*
X56257259Y-49679462D01*
X56144043Y-49714033D01*
X55746043Y-49896934D01*
X55383440Y-50149835D01*
X55067346Y-50461626D01*
X54808875Y-50821196D01*
X54619140Y-51217436D01*
X54607291Y-51250309D01*
X54547613Y-51482460D01*
X54509029Y-51762172D01*
X54492882Y-52059345D01*
X54500515Y-52343879D01*
X54533273Y-52585672D01*
X54545452Y-52635573D01*
X54705685Y-53069291D01*
X54933695Y-53459483D01*
X55222526Y-53799187D01*
X55565223Y-54081441D01*
X55954832Y-54299287D01*
X56343974Y-54435603D01*
X56608130Y-54480380D01*
X56914102Y-54494494D01*
X57033032Y-54488812D01*
X57033032Y-53944228D01*
X56662531Y-53926541D01*
X56311898Y-53838740D01*
X55988665Y-53688014D01*
X55700361Y-53481556D01*
X55454518Y-53226556D01*
X55258666Y-52930205D01*
X55120336Y-52599694D01*
X55047060Y-52242215D01*
X55046366Y-51864958D01*
X55079277Y-51653407D01*
X55176344Y-51349365D01*
X55331001Y-51044873D01*
X55524356Y-50775800D01*
X55565866Y-50729544D01*
X55823158Y-50509956D01*
X56135159Y-50332671D01*
X56478363Y-50207573D01*
X56829267Y-50144544D01*
X56970474Y-50138941D01*
X57339772Y-50181654D01*
X57692459Y-50299976D01*
X58017188Y-50485011D01*
X58302611Y-50727866D01*
X58537379Y-51019645D01*
X58710146Y-51351454D01*
X58776348Y-51554384D01*
X58838671Y-51954869D01*
X58818753Y-52345463D01*
X58718919Y-52718067D01*
X58541492Y-53064584D01*
X58288797Y-53376915D01*
X58239354Y-53425242D01*
X57995129Y-53628271D01*
X57745742Y-53771310D01*
X57456494Y-53873717D01*
X57415871Y-53884608D01*
X57033032Y-53944228D01*
X57033032Y-54488812D01*
X57230840Y-54479360D01*
X57527296Y-54436393D01*
X57762140Y-54370976D01*
X58006621Y-54259381D01*
X58263152Y-54110887D01*
X58502287Y-53944500D01*
X58694580Y-53779223D01*
X58720866Y-53752208D01*
X58923416Y-53500062D01*
X59109316Y-53200545D01*
X59255769Y-52890725D01*
X59264412Y-52868406D01*
X59332712Y-52620220D01*
X59374474Y-52322181D01*
X59388280Y-52005292D01*
X59372711Y-51700557D01*
G37*
X59372711Y-51700557D02*
X59329337Y-51450240D01*
X59176171Y-51023958D01*
X58952629Y-50638985D01*
X58665644Y-50302110D01*
X58322150Y-50020121D01*
X57929081Y-49799808D01*
X57493369Y-49647960D01*
X57487003Y-49646353D01*
X57208172Y-49602856D01*
X56887512Y-49595022D01*
X56559162Y-49621131D01*
X56257259Y-49679462D01*
X56144043Y-49714033D01*
X55746043Y-49896934D01*
X55383440Y-50149835D01*
X55067346Y-50461626D01*
X54808875Y-50821196D01*
X54619140Y-51217436D01*
X54607291Y-51250309D01*
X54547613Y-51482460D01*
X54509029Y-51762172D01*
X54492882Y-52059345D01*
X54500515Y-52343879D01*
X54533273Y-52585672D01*
X54545452Y-52635573D01*
X54705685Y-53069291D01*
X54933695Y-53459483D01*
X55222526Y-53799187D01*
X55565223Y-54081441D01*
X55954832Y-54299287D01*
X56343974Y-54435603D01*
X56608130Y-54480380D01*
X56914102Y-54494494D01*
X57033032Y-54488812D01*
X57033032Y-53944228D01*
X56662531Y-53926541D01*
X56311898Y-53838740D01*
X55988665Y-53688014D01*
X55700361Y-53481556D01*
X55454518Y-53226556D01*
X55258666Y-52930205D01*
X55120336Y-52599694D01*
X55047060Y-52242215D01*
X55046366Y-51864958D01*
X55079277Y-51653407D01*
X55176344Y-51349365D01*
X55331001Y-51044873D01*
X55524356Y-50775800D01*
X55565866Y-50729544D01*
X55823158Y-50509956D01*
X56135159Y-50332671D01*
X56478363Y-50207573D01*
X56829267Y-50144544D01*
X56970474Y-50138941D01*
X57339772Y-50181654D01*
X57692459Y-50299976D01*
X58017188Y-50485011D01*
X58302611Y-50727866D01*
X58537379Y-51019645D01*
X58710146Y-51351454D01*
X58776348Y-51554384D01*
X58838671Y-51954869D01*
X58818753Y-52345463D01*
X58718919Y-52718067D01*
X58541492Y-53064584D01*
X58288797Y-53376915D01*
X58239354Y-53425242D01*
X57995129Y-53628271D01*
X57745742Y-53771310D01*
X57456494Y-53873717D01*
X57415871Y-53884608D01*
X57033032Y-53944228D01*
X57033032Y-54488812D01*
X57230840Y-54479360D01*
X57527296Y-54436393D01*
X57762140Y-54370976D01*
X58006621Y-54259381D01*
X58263152Y-54110887D01*
X58502287Y-53944500D01*
X58694580Y-53779223D01*
X58720866Y-53752208D01*
X58923416Y-53500062D01*
X59109316Y-53200545D01*
X59255769Y-52890725D01*
X59264412Y-52868406D01*
X59332712Y-52620220D01*
X59374474Y-52322181D01*
X59388280Y-52005292D01*
X59372711Y-51700557D01*
G36*
X59273950Y-61071070D02*
G01*
X59216552Y-60870994D01*
X59118039Y-60625617D01*
X58995390Y-60394596D01*
X58858567Y-60190965D01*
X58717531Y-60027761D01*
X58582244Y-59918019D01*
X58462667Y-59874773D01*
X58455073Y-59874573D01*
X58316451Y-59908791D01*
X58222523Y-59996804D01*
X58184427Y-60116655D01*
X58213302Y-60246383D01*
X58243127Y-60292410D01*
X58458958Y-60587878D01*
X58613520Y-60854575D01*
X58715292Y-61111725D01*
X58772754Y-61378554D01*
X58787949Y-61527680D01*
X58775865Y-61917632D01*
X58683243Y-62281761D01*
X58509877Y-62620633D01*
X58281391Y-62907933D01*
X57998445Y-63158897D01*
X57691982Y-63333568D01*
X57350849Y-63436630D01*
X56963892Y-63472763D01*
X56935584Y-63472906D01*
X56552346Y-63433351D01*
X56197783Y-63319991D01*
X55879893Y-63140792D01*
X55606675Y-62903716D01*
X55386126Y-62616727D01*
X55226245Y-62287786D01*
X55135030Y-61924859D01*
X55116307Y-61661592D01*
X55152011Y-61279654D01*
X55261822Y-60924243D01*
X55449788Y-60584725D01*
X55603430Y-60382227D01*
X55710494Y-60223253D01*
X55740132Y-60090298D01*
X55692552Y-59975608D01*
X55616420Y-59904257D01*
X55524553Y-59849259D01*
X55443207Y-59848283D01*
X55377437Y-59871620D01*
X55272656Y-59937584D01*
X55160999Y-60040336D01*
X55127630Y-60078956D01*
X54862705Y-60468977D01*
X54680440Y-60875705D01*
X54579972Y-61301977D01*
X54560439Y-61750631D01*
X54571857Y-61906573D01*
X54654969Y-62324423D01*
X54812147Y-62713617D01*
X55035426Y-63066455D01*
X55316838Y-63375242D01*
X55648419Y-63632277D01*
X56022203Y-63829864D01*
X56430223Y-63960304D01*
X56747297Y-64008888D01*
X57178518Y-64005961D01*
X57587206Y-63927622D01*
X57967435Y-63781399D01*
X58313282Y-63574818D01*
X58618825Y-63315407D01*
X58878138Y-63010695D01*
X59085299Y-62668209D01*
X59234385Y-62295475D01*
X59319470Y-61900023D01*
X59334633Y-61489378D01*
X59273950Y-61071070D01*
G37*
X59273950Y-61071070D02*
X59216552Y-60870994D01*
X59118039Y-60625617D01*
X58995390Y-60394596D01*
X58858567Y-60190965D01*
X58717531Y-60027761D01*
X58582244Y-59918019D01*
X58462667Y-59874773D01*
X58455073Y-59874573D01*
X58316451Y-59908791D01*
X58222523Y-59996804D01*
X58184427Y-60116655D01*
X58213302Y-60246383D01*
X58243127Y-60292410D01*
X58458958Y-60587878D01*
X58613520Y-60854575D01*
X58715292Y-61111725D01*
X58772754Y-61378554D01*
X58787949Y-61527680D01*
X58775865Y-61917632D01*
X58683243Y-62281761D01*
X58509877Y-62620633D01*
X58281391Y-62907933D01*
X57998445Y-63158897D01*
X57691982Y-63333568D01*
X57350849Y-63436630D01*
X56963892Y-63472763D01*
X56935584Y-63472906D01*
X56552346Y-63433351D01*
X56197783Y-63319991D01*
X55879893Y-63140792D01*
X55606675Y-62903716D01*
X55386126Y-62616727D01*
X55226245Y-62287786D01*
X55135030Y-61924859D01*
X55116307Y-61661592D01*
X55152011Y-61279654D01*
X55261822Y-60924243D01*
X55449788Y-60584725D01*
X55603430Y-60382227D01*
X55710494Y-60223253D01*
X55740132Y-60090298D01*
X55692552Y-59975608D01*
X55616420Y-59904257D01*
X55524553Y-59849259D01*
X55443207Y-59848283D01*
X55377437Y-59871620D01*
X55272656Y-59937584D01*
X55160999Y-60040336D01*
X55127630Y-60078956D01*
X54862705Y-60468977D01*
X54680440Y-60875705D01*
X54579972Y-61301977D01*
X54560439Y-61750631D01*
X54571857Y-61906573D01*
X54654969Y-62324423D01*
X54812147Y-62713617D01*
X55035426Y-63066455D01*
X55316838Y-63375242D01*
X55648419Y-63632277D01*
X56022203Y-63829864D01*
X56430223Y-63960304D01*
X56747297Y-64008888D01*
X57178518Y-64005961D01*
X57587206Y-63927622D01*
X57967435Y-63781399D01*
X58313282Y-63574818D01*
X58618825Y-63315407D01*
X58878138Y-63010695D01*
X59085299Y-62668209D01*
X59234385Y-62295475D01*
X59319470Y-61900023D01*
X59334633Y-61489378D01*
X59273950Y-61071070D01*
G36*
X59264915Y-69400191D02*
G01*
X59181276Y-69231517D01*
X59057630Y-69115371D01*
X58913786Y-69018573D01*
X54773792Y-69018573D01*
X54669883Y-69122482D01*
X54583095Y-69248176D01*
X54580269Y-69371608D01*
X54661466Y-69498548D01*
X54674092Y-69511540D01*
X54782211Y-69619658D01*
X56723747Y-69604866D01*
X57119762Y-69601944D01*
X57488342Y-69599409D01*
X57821159Y-69597306D01*
X58109885Y-69595677D01*
X58346193Y-69594568D01*
X58521754Y-69594021D01*
X58628240Y-69594080D01*
X58658211Y-69594662D01*
X58618480Y-69610162D01*
X58507139Y-69652906D01*
X58331706Y-69720023D01*
X58099702Y-69808644D01*
X57818645Y-69915897D01*
X57496056Y-70038913D01*
X57139454Y-70174820D01*
X56756358Y-70320749D01*
X56669050Y-70353996D01*
X56217396Y-70526289D01*
X55838500Y-70671700D01*
X55525825Y-70793019D01*
X55272834Y-70893035D01*
X55072988Y-70974540D01*
X54919749Y-71040323D01*
X54806580Y-71093175D01*
X54726944Y-71135885D01*
X54674301Y-71171244D01*
X54642114Y-71202043D01*
X54626467Y-71225721D01*
X54582360Y-71337803D01*
X54565974Y-71427110D01*
X54569989Y-71478202D01*
X54586177Y-71526055D01*
X54620749Y-71573644D01*
X54679919Y-71623945D01*
X54769900Y-71679933D01*
X54896904Y-71744584D01*
X55067144Y-71820873D01*
X55286832Y-71911777D01*
X55562182Y-72020270D01*
X55899406Y-72149329D01*
X56304717Y-72301928D01*
X56703807Y-72451028D01*
X57088720Y-72594610D01*
X57448658Y-72728991D01*
X57776006Y-72851318D01*
X58063144Y-72958740D01*
X58302457Y-73048405D01*
X58486327Y-73117460D01*
X58607137Y-73163054D01*
X58657270Y-73182335D01*
X58658211Y-73182770D01*
X58618746Y-73183607D01*
X58502932Y-73183784D01*
X58319086Y-73183342D01*
X58075525Y-73182319D01*
X57780564Y-73180755D01*
X57442519Y-73178689D01*
X57069707Y-73176160D01*
X56718129Y-73173574D01*
X54770976Y-73158742D01*
X54668475Y-73255037D01*
X54582880Y-73380696D01*
X54577535Y-73512275D01*
X54650640Y-73632906D01*
X54672075Y-73651998D01*
X54699694Y-73667982D01*
X54740684Y-73681134D01*
X54802228Y-73691730D01*
X54891514Y-73700045D01*
X55015726Y-73706356D01*
X55182050Y-73710938D01*
X55397672Y-73714068D01*
X55669777Y-73716020D01*
X56005550Y-73717071D01*
X56412178Y-73717497D01*
X56856207Y-73717573D01*
X58977107Y-73717573D01*
X59121040Y-73573640D01*
X59210217Y-73472482D01*
X59252629Y-73377716D01*
X59264739Y-73248263D01*
X59264974Y-73214474D01*
X59263844Y-73129304D01*
X59256151Y-73055435D01*
X59235439Y-72989211D01*
X59195256Y-72926978D01*
X59129144Y-72865081D01*
X59030650Y-72799866D01*
X58893320Y-72727676D01*
X58710697Y-72644858D01*
X58476328Y-72547757D01*
X58183757Y-72432717D01*
X57826530Y-72296084D01*
X57398193Y-72134204D01*
X57275307Y-72087878D01*
X56909253Y-71949474D01*
X56567607Y-71819495D01*
X56258538Y-71701105D01*
X55990214Y-71597470D01*
X55770802Y-71511756D01*
X55608470Y-71447130D01*
X55511385Y-71406757D01*
X55486477Y-71394491D01*
X55518010Y-71373486D01*
X55621025Y-71325799D01*
X55787767Y-71254586D01*
X56010484Y-71163001D01*
X56281422Y-71054200D01*
X56592829Y-70931341D01*
X56936950Y-70797577D01*
X57220531Y-70688679D01*
X57591240Y-70545896D01*
X57940666Y-70409076D01*
X58260154Y-70281770D01*
X58541049Y-70167527D01*
X58774694Y-70069897D01*
X58952436Y-69992431D01*
X59065618Y-69938679D01*
X59101785Y-69917074D01*
X59226279Y-69763113D01*
X59280286Y-69584104D01*
X59264915Y-69400191D01*
G37*
X59264915Y-69400191D02*
X59181276Y-69231517D01*
X59057630Y-69115371D01*
X58913786Y-69018573D01*
X54773792Y-69018573D01*
X54669883Y-69122482D01*
X54583095Y-69248176D01*
X54580269Y-69371608D01*
X54661466Y-69498548D01*
X54674092Y-69511540D01*
X54782211Y-69619658D01*
X56723747Y-69604866D01*
X57119762Y-69601944D01*
X57488342Y-69599409D01*
X57821159Y-69597306D01*
X58109885Y-69595677D01*
X58346193Y-69594568D01*
X58521754Y-69594021D01*
X58628240Y-69594080D01*
X58658211Y-69594662D01*
X58618480Y-69610162D01*
X58507139Y-69652906D01*
X58331706Y-69720023D01*
X58099702Y-69808644D01*
X57818645Y-69915897D01*
X57496056Y-70038913D01*
X57139454Y-70174820D01*
X56756358Y-70320749D01*
X56669050Y-70353996D01*
X56217396Y-70526289D01*
X55838500Y-70671700D01*
X55525825Y-70793019D01*
X55272834Y-70893035D01*
X55072988Y-70974540D01*
X54919749Y-71040323D01*
X54806580Y-71093175D01*
X54726944Y-71135885D01*
X54674301Y-71171244D01*
X54642114Y-71202043D01*
X54626467Y-71225721D01*
X54582360Y-71337803D01*
X54565974Y-71427110D01*
X54569989Y-71478202D01*
X54586177Y-71526055D01*
X54620749Y-71573644D01*
X54679919Y-71623945D01*
X54769900Y-71679933D01*
X54896904Y-71744584D01*
X55067144Y-71820873D01*
X55286832Y-71911777D01*
X55562182Y-72020270D01*
X55899406Y-72149329D01*
X56304717Y-72301928D01*
X56703807Y-72451028D01*
X57088720Y-72594610D01*
X57448658Y-72728991D01*
X57776006Y-72851318D01*
X58063144Y-72958740D01*
X58302457Y-73048405D01*
X58486327Y-73117460D01*
X58607137Y-73163054D01*
X58657270Y-73182335D01*
X58658211Y-73182770D01*
X58618746Y-73183607D01*
X58502932Y-73183784D01*
X58319086Y-73183342D01*
X58075525Y-73182319D01*
X57780564Y-73180755D01*
X57442519Y-73178689D01*
X57069707Y-73176160D01*
X56718129Y-73173574D01*
X54770976Y-73158742D01*
X54668475Y-73255037D01*
X54582880Y-73380696D01*
X54577535Y-73512275D01*
X54650640Y-73632906D01*
X54672075Y-73651998D01*
X54699694Y-73667982D01*
X54740684Y-73681134D01*
X54802228Y-73691730D01*
X54891514Y-73700045D01*
X55015726Y-73706356D01*
X55182050Y-73710938D01*
X55397672Y-73714068D01*
X55669777Y-73716020D01*
X56005550Y-73717071D01*
X56412178Y-73717497D01*
X56856207Y-73717573D01*
X58977107Y-73717573D01*
X59121040Y-73573640D01*
X59210217Y-73472482D01*
X59252629Y-73377716D01*
X59264739Y-73248263D01*
X59264974Y-73214474D01*
X59263844Y-73129304D01*
X59256151Y-73055435D01*
X59235439Y-72989211D01*
X59195256Y-72926978D01*
X59129144Y-72865081D01*
X59030650Y-72799866D01*
X58893320Y-72727676D01*
X58710697Y-72644858D01*
X58476328Y-72547757D01*
X58183757Y-72432717D01*
X57826530Y-72296084D01*
X57398193Y-72134204D01*
X57275307Y-72087878D01*
X56909253Y-71949474D01*
X56567607Y-71819495D01*
X56258538Y-71701105D01*
X55990214Y-71597470D01*
X55770802Y-71511756D01*
X55608470Y-71447130D01*
X55511385Y-71406757D01*
X55486477Y-71394491D01*
X55518010Y-71373486D01*
X55621025Y-71325799D01*
X55787767Y-71254586D01*
X56010484Y-71163001D01*
X56281422Y-71054200D01*
X56592829Y-70931341D01*
X56936950Y-70797577D01*
X57220531Y-70688679D01*
X57591240Y-70545896D01*
X57940666Y-70409076D01*
X58260154Y-70281770D01*
X58541049Y-70167527D01*
X58774694Y-70069897D01*
X58952436Y-69992431D01*
X59065618Y-69938679D01*
X59101785Y-69917074D01*
X59226279Y-69763113D01*
X59280286Y-69584104D01*
X59264915Y-69400191D01*
G36*
X59293734Y-67586801D02*
G01*
X59248496Y-67524220D01*
X59164810Y-67450533D01*
X59035895Y-67361276D01*
X58854972Y-67251985D01*
X58615258Y-67118195D01*
X58309972Y-66955443D01*
X58085510Y-66838406D01*
X57811386Y-66695477D01*
X57563435Y-66564549D01*
X57351169Y-66450776D01*
X57184099Y-66359314D01*
X57071737Y-66295319D01*
X57023594Y-66263946D01*
X57022481Y-66262239D01*
X57058123Y-66236666D01*
X57159506Y-66176871D01*
X57317401Y-66087968D01*
X57522574Y-65975072D01*
X57765795Y-65843295D01*
X58037831Y-65697752D01*
X58126103Y-65650885D01*
X58461849Y-65472114D01*
X58729305Y-65326731D01*
X58935434Y-65209333D01*
X59087203Y-65114515D01*
X59191578Y-65036875D01*
X59255524Y-64971008D01*
X59286006Y-64911511D01*
X59289991Y-64852981D01*
X59274445Y-64790013D01*
X59265952Y-64766647D01*
X59186528Y-64654230D01*
X59067482Y-64584290D01*
X59001733Y-64573573D01*
X58952263Y-64593191D01*
X58837553Y-64648933D01*
X58666557Y-64736135D01*
X58448227Y-64850130D01*
X58191517Y-64986251D01*
X57905380Y-65139835D01*
X57661418Y-65272073D01*
X56378243Y-65970573D01*
X55556775Y-65970573D01*
X55271849Y-65971115D01*
X55059307Y-65973505D01*
X54906869Y-65978890D01*
X54802255Y-65988419D01*
X54733184Y-66003238D01*
X54687377Y-66024495D01*
X54652554Y-66053338D01*
X54650640Y-66055240D01*
X54576208Y-66182061D01*
X54575309Y-66321498D01*
X54646264Y-66447289D01*
X54677516Y-66475501D01*
X54722200Y-66506436D01*
X54774716Y-66529127D01*
X54848079Y-66544839D01*
X54955304Y-66554839D01*
X55109406Y-66560394D01*
X55323399Y-66562771D01*
X55579013Y-66563240D01*
X56368968Y-66563240D01*
X57637054Y-67240402D01*
X57961472Y-67411882D01*
X58257716Y-67565039D01*
X58517438Y-67695780D01*
X58732287Y-67800011D01*
X58893913Y-67873636D01*
X58993966Y-67912563D01*
X59018485Y-67917736D01*
X59121824Y-67884364D01*
X59223385Y-67803009D01*
X59293163Y-67702236D01*
X59307307Y-67642740D01*
X59293734Y-67586801D01*
G37*
X59293734Y-67586801D02*
X59248496Y-67524220D01*
X59164810Y-67450533D01*
X59035895Y-67361276D01*
X58854972Y-67251985D01*
X58615258Y-67118195D01*
X58309972Y-66955443D01*
X58085510Y-66838406D01*
X57811386Y-66695477D01*
X57563435Y-66564549D01*
X57351169Y-66450776D01*
X57184099Y-66359314D01*
X57071737Y-66295319D01*
X57023594Y-66263946D01*
X57022481Y-66262239D01*
X57058123Y-66236666D01*
X57159506Y-66176871D01*
X57317401Y-66087968D01*
X57522574Y-65975072D01*
X57765795Y-65843295D01*
X58037831Y-65697752D01*
X58126103Y-65650885D01*
X58461849Y-65472114D01*
X58729305Y-65326731D01*
X58935434Y-65209333D01*
X59087203Y-65114515D01*
X59191578Y-65036875D01*
X59255524Y-64971008D01*
X59286006Y-64911511D01*
X59289991Y-64852981D01*
X59274445Y-64790013D01*
X59265952Y-64766647D01*
X59186528Y-64654230D01*
X59067482Y-64584290D01*
X59001733Y-64573573D01*
X58952263Y-64593191D01*
X58837553Y-64648933D01*
X58666557Y-64736135D01*
X58448227Y-64850130D01*
X58191517Y-64986251D01*
X57905380Y-65139835D01*
X57661418Y-65272073D01*
X56378243Y-65970573D01*
X55556775Y-65970573D01*
X55271849Y-65971115D01*
X55059307Y-65973505D01*
X54906869Y-65978890D01*
X54802255Y-65988419D01*
X54733184Y-66003238D01*
X54687377Y-66024495D01*
X54652554Y-66053338D01*
X54650640Y-66055240D01*
X54576208Y-66182061D01*
X54575309Y-66321498D01*
X54646264Y-66447289D01*
X54677516Y-66475501D01*
X54722200Y-66506436D01*
X54774716Y-66529127D01*
X54848079Y-66544839D01*
X54955304Y-66554839D01*
X55109406Y-66560394D01*
X55323399Y-66562771D01*
X55579013Y-66563240D01*
X56368968Y-66563240D01*
X57637054Y-67240402D01*
X57961472Y-67411882D01*
X58257716Y-67565039D01*
X58517438Y-67695780D01*
X58732287Y-67800011D01*
X58893913Y-67873636D01*
X58993966Y-67912563D01*
X59018485Y-67917736D01*
X59121824Y-67884364D01*
X59223385Y-67803009D01*
X59293163Y-67702236D01*
X59307307Y-67642740D01*
X59293734Y-67586801D01*
G36*
X59295214Y-57641490D02*
G01*
X59283898Y-57276941D01*
X59268826Y-56983886D01*
X59247795Y-56749168D01*
X59218600Y-56559627D01*
X59179040Y-56402106D01*
X59126910Y-56263447D01*
X59060007Y-56130492D01*
X59034823Y-56086498D01*
X58885919Y-55899640D01*
X58682054Y-55735218D01*
X58452929Y-55616558D01*
X58422573Y-55605621D01*
X58310344Y-55582013D01*
X58146212Y-55564752D01*
X57962883Y-55557103D01*
X57935740Y-55556987D01*
X57726421Y-55564020D01*
X57567402Y-55588533D01*
X57425095Y-55636533D01*
X57381140Y-55656177D01*
X57159490Y-55797641D01*
X56956534Y-55996553D01*
X56798174Y-56226001D01*
X56762015Y-56299511D01*
X56681596Y-56481312D01*
X55827250Y-55955442D01*
X55509381Y-55763063D01*
X55249427Y-55612731D01*
X55050443Y-55506101D01*
X54915483Y-55444826D01*
X54855754Y-55429573D01*
X54720112Y-55465313D01*
X54622590Y-55556904D01*
X54575441Y-55680906D01*
X54590918Y-55813876D01*
X54623758Y-55873416D01*
X54675252Y-55916205D01*
X54789318Y-55994536D01*
X54955226Y-56101587D01*
X55162244Y-56230535D01*
X55399642Y-56374554D01*
X55586842Y-56485805D01*
X56492140Y-57019169D01*
X56516080Y-57969573D01*
X54741452Y-57969573D01*
X54653713Y-58081116D01*
X54592509Y-58179811D01*
X54566004Y-58263955D01*
X54565974Y-58265906D01*
X54590994Y-58348810D01*
X54651421Y-58447759D01*
X54653713Y-58450697D01*
X54741452Y-58562240D01*
X58756974Y-58562240D01*
X58756974Y-57969573D01*
X57021307Y-57969573D01*
X57021307Y-57527157D01*
X57025824Y-57314502D01*
X57037951Y-57108164D01*
X57055555Y-56938847D01*
X57066817Y-56872538D01*
X57161014Y-56610462D01*
X57313484Y-56401456D01*
X57513256Y-56252396D01*
X57749359Y-56170157D01*
X58010823Y-56161614D01*
X58156628Y-56189505D01*
X58356610Y-56269345D01*
X58511945Y-56393387D01*
X58626137Y-56568936D01*
X58702687Y-56803299D01*
X58745097Y-57103783D01*
X58756974Y-57441995D01*
X58756974Y-57969573D01*
X58756974Y-58562240D01*
X59318359Y-58562240D01*
X59295214Y-57641490D01*
G37*
X59295214Y-57641490D02*
X59283898Y-57276941D01*
X59268826Y-56983886D01*
X59247795Y-56749168D01*
X59218600Y-56559627D01*
X59179040Y-56402106D01*
X59126910Y-56263447D01*
X59060007Y-56130492D01*
X59034823Y-56086498D01*
X58885919Y-55899640D01*
X58682054Y-55735218D01*
X58452929Y-55616558D01*
X58422573Y-55605621D01*
X58310344Y-55582013D01*
X58146212Y-55564752D01*
X57962883Y-55557103D01*
X57935740Y-55556987D01*
X57726421Y-55564020D01*
X57567402Y-55588533D01*
X57425095Y-55636533D01*
X57381140Y-55656177D01*
X57159490Y-55797641D01*
X56956534Y-55996553D01*
X56798174Y-56226001D01*
X56762015Y-56299511D01*
X56681596Y-56481312D01*
X55827250Y-55955442D01*
X55509381Y-55763063D01*
X55249427Y-55612731D01*
X55050443Y-55506101D01*
X54915483Y-55444826D01*
X54855754Y-55429573D01*
X54720112Y-55465313D01*
X54622590Y-55556904D01*
X54575441Y-55680906D01*
X54590918Y-55813876D01*
X54623758Y-55873416D01*
X54675252Y-55916205D01*
X54789318Y-55994536D01*
X54955226Y-56101587D01*
X55162244Y-56230535D01*
X55399642Y-56374554D01*
X55586842Y-56485805D01*
X56492140Y-57019169D01*
X56516080Y-57969573D01*
X54741452Y-57969573D01*
X54653713Y-58081116D01*
X54592509Y-58179811D01*
X54566004Y-58263955D01*
X54565974Y-58265906D01*
X54590994Y-58348810D01*
X54651421Y-58447759D01*
X54653713Y-58450697D01*
X54741452Y-58562240D01*
X58756974Y-58562240D01*
X58756974Y-57969573D01*
X57021307Y-57969573D01*
X57021307Y-57527157D01*
X57025824Y-57314502D01*
X57037951Y-57108164D01*
X57055555Y-56938847D01*
X57066817Y-56872538D01*
X57161014Y-56610462D01*
X57313484Y-56401456D01*
X57513256Y-56252396D01*
X57749359Y-56170157D01*
X58010823Y-56161614D01*
X58156628Y-56189505D01*
X58356610Y-56269345D01*
X58511945Y-56393387D01*
X58626137Y-56568936D01*
X58702687Y-56803299D01*
X58745097Y-57103783D01*
X58756974Y-57441995D01*
X58756974Y-57969573D01*
X58756974Y-58562240D01*
X59318359Y-58562240D01*
X59295214Y-57641490D01*
G36*
X59306683Y-47206323D02*
G01*
X59305939Y-46825391D01*
X59303090Y-46520497D01*
X59296552Y-46283012D01*
X59284740Y-46104308D01*
X59266070Y-45975759D01*
X59238956Y-45888736D01*
X59201813Y-45834611D01*
X59153058Y-45804757D01*
X59091105Y-45790546D01*
X59045773Y-45785841D01*
X58959118Y-45782870D01*
X58891735Y-45796381D01*
X58841211Y-45835569D01*
X58805137Y-45909634D01*
X58781102Y-46027771D01*
X58766694Y-46199177D01*
X58759504Y-46433050D01*
X58757121Y-46738588D01*
X58756974Y-46887659D01*
X58756974Y-47809573D01*
X57105974Y-47809573D01*
X57105974Y-46951159D01*
X57104662Y-46626329D01*
X57099019Y-46376409D01*
X57086485Y-46191657D01*
X57064499Y-46062337D01*
X57030500Y-45978707D01*
X56981928Y-45931029D01*
X56916222Y-45909565D01*
X56830821Y-45904573D01*
X56830807Y-45904573D01*
X56745403Y-45909563D01*
X56679695Y-45931024D01*
X56631120Y-45978697D01*
X56597119Y-46062321D01*
X56575132Y-46191634D01*
X56562596Y-46376376D01*
X56556953Y-46626287D01*
X56555641Y-46951105D01*
X56555640Y-46951159D01*
X56555640Y-47809573D01*
X55652853Y-47809573D01*
X55354318Y-47809838D01*
X55128761Y-47811399D01*
X54964494Y-47815409D01*
X54849828Y-47823018D01*
X54773075Y-47835376D01*
X54722546Y-47853637D01*
X54686554Y-47878950D01*
X54658020Y-47907552D01*
X54578642Y-48038540D01*
X54583766Y-48170793D01*
X54669883Y-48298331D01*
X54773792Y-48402240D01*
X59307307Y-48402240D01*
X59306683Y-47206323D01*
G37*
X59306683Y-47206323D02*
X59305939Y-46825391D01*
X59303090Y-46520497D01*
X59296552Y-46283012D01*
X59284740Y-46104308D01*
X59266070Y-45975759D01*
X59238956Y-45888736D01*
X59201813Y-45834611D01*
X59153058Y-45804757D01*
X59091105Y-45790546D01*
X59045773Y-45785841D01*
X58959118Y-45782870D01*
X58891735Y-45796381D01*
X58841211Y-45835569D01*
X58805137Y-45909634D01*
X58781102Y-46027771D01*
X58766694Y-46199177D01*
X58759504Y-46433050D01*
X58757121Y-46738588D01*
X58756974Y-46887659D01*
X58756974Y-47809573D01*
X57105974Y-47809573D01*
X57105974Y-46951159D01*
X57104662Y-46626329D01*
X57099019Y-46376409D01*
X57086485Y-46191657D01*
X57064499Y-46062337D01*
X57030500Y-45978707D01*
X56981928Y-45931029D01*
X56916222Y-45909565D01*
X56830821Y-45904573D01*
X56830807Y-45904573D01*
X56745403Y-45909563D01*
X56679695Y-45931024D01*
X56631120Y-45978697D01*
X56597119Y-46062321D01*
X56575132Y-46191634D01*
X56562596Y-46376376D01*
X56556953Y-46626287D01*
X56555641Y-46951105D01*
X56555640Y-46951159D01*
X56555640Y-47809573D01*
X55652853Y-47809573D01*
X55354318Y-47809838D01*
X55128761Y-47811399D01*
X54964494Y-47815409D01*
X54849828Y-47823018D01*
X54773075Y-47835376D01*
X54722546Y-47853637D01*
X54686554Y-47878950D01*
X54658020Y-47907552D01*
X54578642Y-48038540D01*
X54583766Y-48170793D01*
X54669883Y-48298331D01*
X54773792Y-48402240D01*
X59307307Y-48402240D01*
X59306683Y-47206323D01*
G36*
X59203398Y-41605816D02*
G01*
X59081580Y-41519129D01*
X58967575Y-41515551D01*
X58853709Y-41594954D01*
X58849020Y-41599885D01*
X58813610Y-41642824D01*
X58788647Y-41693574D01*
X58772318Y-41766723D01*
X58762810Y-41876858D01*
X58758313Y-42038566D01*
X58757012Y-42266435D01*
X58756974Y-42340718D01*
X58756974Y-42983573D01*
X54738605Y-42983573D01*
X54652290Y-43076222D01*
X54576732Y-43206720D01*
X54585342Y-43345856D01*
X54653713Y-43464697D01*
X54741452Y-43576240D01*
X58756974Y-43576240D01*
X58756974Y-44232406D01*
X58757817Y-44484337D01*
X58761421Y-44665693D01*
X58769395Y-44790563D01*
X58783348Y-44873031D01*
X58804891Y-44927183D01*
X58835633Y-44967104D01*
X58841640Y-44973240D01*
X58961121Y-45047493D01*
X59085729Y-45037407D01*
X59203398Y-44953997D01*
X59307307Y-44850088D01*
X59307307Y-41709725D01*
X59203398Y-41605816D01*
G37*
X59203398Y-41605816D02*
X59081580Y-41519129D01*
X58967575Y-41515551D01*
X58853709Y-41594954D01*
X58849020Y-41599885D01*
X58813610Y-41642824D01*
X58788647Y-41693574D01*
X58772318Y-41766723D01*
X58762810Y-41876858D01*
X58758313Y-42038566D01*
X58757012Y-42266435D01*
X58756974Y-42340718D01*
X58756974Y-42983573D01*
X54738605Y-42983573D01*
X54652290Y-43076222D01*
X54576732Y-43206720D01*
X54585342Y-43345856D01*
X54653713Y-43464697D01*
X54741452Y-43576240D01*
X58756974Y-43576240D01*
X58756974Y-44232406D01*
X58757817Y-44484337D01*
X58761421Y-44665693D01*
X58769395Y-44790563D01*
X58783348Y-44873031D01*
X58804891Y-44927183D01*
X58835633Y-44967104D01*
X58841640Y-44973240D01*
X58961121Y-45047493D01*
X59085729Y-45037407D01*
X59203398Y-44953997D01*
X59307307Y-44850088D01*
X59307307Y-41709725D01*
X59203398Y-41605816D01*
G36*
X59239888Y-35510586D02*
G01*
X59212057Y-35476094D01*
X59159533Y-35439244D01*
X59050460Y-35383060D01*
X58881551Y-35306169D01*
X58649514Y-35207197D01*
X58351061Y-35084773D01*
X57982903Y-34937523D01*
X57541749Y-34764074D01*
X57025638Y-34563567D01*
X56624204Y-34408990D01*
X56244641Y-34264102D01*
X55894628Y-34131749D01*
X55581849Y-34014776D01*
X55313984Y-33916027D01*
X55098716Y-33838349D01*
X54943727Y-33784586D01*
X54856699Y-33757583D01*
X54842267Y-33754906D01*
X54738385Y-33790291D01*
X54639451Y-33876236D01*
X54575475Y-33982432D01*
X54565974Y-34033966D01*
X54576653Y-34110612D01*
X54615154Y-34179650D01*
X54691171Y-34247388D01*
X54814399Y-34320135D01*
X54994533Y-34404199D01*
X55241269Y-34505888D01*
X55367557Y-34555553D01*
X56047640Y-34820575D01*
X56047640Y-36663917D01*
X55402057Y-36908680D01*
X55094774Y-37030501D01*
X54863474Y-37136191D01*
X54702231Y-37231051D01*
X54605118Y-37320384D01*
X54566211Y-37409493D01*
X54579583Y-37503679D01*
X54631874Y-37597820D01*
X54731604Y-37675776D01*
X54835083Y-37691906D01*
X54901448Y-37676765D01*
X55039154Y-37633132D01*
X55240825Y-37563694D01*
X55499084Y-37471140D01*
X55806557Y-37358154D01*
X56155866Y-37227426D01*
X56539636Y-37081641D01*
X56608557Y-37055111D01*
X56608557Y-36453326D01*
X56588487Y-36442337D01*
X56573855Y-36385982D01*
X56563981Y-36275237D01*
X56558188Y-36101077D01*
X56555798Y-35854478D01*
X56555640Y-35749102D01*
X56558061Y-35447168D01*
X56565410Y-35227721D01*
X56577815Y-35088716D01*
X56595407Y-35028110D01*
X56601507Y-35024906D01*
X56653275Y-35038923D01*
X56772128Y-35078120D01*
X56945775Y-35138222D01*
X57161923Y-35214949D01*
X57408282Y-35304025D01*
X57501090Y-35337959D01*
X57762417Y-35432799D01*
X58004706Y-35518887D01*
X58213907Y-35591378D01*
X58375972Y-35645424D01*
X58476853Y-35676178D01*
X58492760Y-35680070D01*
X58588172Y-35711816D01*
X58600847Y-35746986D01*
X58532446Y-35782260D01*
X58429358Y-35806710D01*
X58336751Y-35831671D01*
X58172888Y-35884639D01*
X57945411Y-35962901D01*
X57661960Y-36063745D01*
X57330178Y-36184455D01*
X56957704Y-36322319D01*
X56608557Y-36453326D01*
X56608557Y-37055111D01*
X56950491Y-36923487D01*
X57044599Y-36886982D01*
X57543423Y-36692439D01*
X57967361Y-36525323D01*
X58320950Y-36383726D01*
X58608726Y-36265736D01*
X58835225Y-36169445D01*
X59004982Y-36092943D01*
X59122534Y-36034319D01*
X59192416Y-35991665D01*
X59212057Y-35974455D01*
X59292291Y-35826611D01*
X59301568Y-35662830D01*
X59239888Y-35510586D01*
G37*
X59239888Y-35510586D02*
X59212057Y-35476094D01*
X59159533Y-35439244D01*
X59050460Y-35383060D01*
X58881551Y-35306169D01*
X58649514Y-35207197D01*
X58351061Y-35084773D01*
X57982903Y-34937523D01*
X57541749Y-34764074D01*
X57025638Y-34563567D01*
X56624204Y-34408990D01*
X56244641Y-34264102D01*
X55894628Y-34131749D01*
X55581849Y-34014776D01*
X55313984Y-33916027D01*
X55098716Y-33838349D01*
X54943727Y-33784586D01*
X54856699Y-33757583D01*
X54842267Y-33754906D01*
X54738385Y-33790291D01*
X54639451Y-33876236D01*
X54575475Y-33982432D01*
X54565974Y-34033966D01*
X54576653Y-34110612D01*
X54615154Y-34179650D01*
X54691171Y-34247388D01*
X54814399Y-34320135D01*
X54994533Y-34404199D01*
X55241269Y-34505888D01*
X55367557Y-34555553D01*
X56047640Y-34820575D01*
X56047640Y-36663917D01*
X55402057Y-36908680D01*
X55094774Y-37030501D01*
X54863474Y-37136191D01*
X54702231Y-37231051D01*
X54605118Y-37320384D01*
X54566211Y-37409493D01*
X54579583Y-37503679D01*
X54631874Y-37597820D01*
X54731604Y-37675776D01*
X54835083Y-37691906D01*
X54901448Y-37676765D01*
X55039154Y-37633132D01*
X55240825Y-37563694D01*
X55499084Y-37471140D01*
X55806557Y-37358154D01*
X56155866Y-37227426D01*
X56539636Y-37081641D01*
X56608557Y-37055111D01*
X56608557Y-36453326D01*
X56588487Y-36442337D01*
X56573855Y-36385982D01*
X56563981Y-36275237D01*
X56558188Y-36101077D01*
X56555798Y-35854478D01*
X56555640Y-35749102D01*
X56558061Y-35447168D01*
X56565410Y-35227721D01*
X56577815Y-35088716D01*
X56595407Y-35028110D01*
X56601507Y-35024906D01*
X56653275Y-35038923D01*
X56772128Y-35078120D01*
X56945775Y-35138222D01*
X57161923Y-35214949D01*
X57408282Y-35304025D01*
X57501090Y-35337959D01*
X57762417Y-35432799D01*
X58004706Y-35518887D01*
X58213907Y-35591378D01*
X58375972Y-35645424D01*
X58476853Y-35676178D01*
X58492760Y-35680070D01*
X58588172Y-35711816D01*
X58600847Y-35746986D01*
X58532446Y-35782260D01*
X58429358Y-35806710D01*
X58336751Y-35831671D01*
X58172888Y-35884639D01*
X57945411Y-35962901D01*
X57661960Y-36063745D01*
X57330178Y-36184455D01*
X56957704Y-36322319D01*
X56608557Y-36453326D01*
X56608557Y-37055111D01*
X56950491Y-36923487D01*
X57044599Y-36886982D01*
X57543423Y-36692439D01*
X57967361Y-36525323D01*
X58320950Y-36383726D01*
X58608726Y-36265736D01*
X58835225Y-36169445D01*
X59004982Y-36092943D01*
X59122534Y-36034319D01*
X59192416Y-35991665D01*
X59212057Y-35974455D01*
X59292291Y-35826611D01*
X59301568Y-35662830D01*
X59239888Y-35510586D01*
G36*
X59292576Y-32198110D02*
G01*
X59211560Y-32071067D01*
X59209329Y-32068952D01*
X59111350Y-31976906D01*
X54741452Y-31976906D01*
X54653713Y-32088449D01*
X54592509Y-32187145D01*
X54566004Y-32271288D01*
X54565974Y-32273240D01*
X54590994Y-32356144D01*
X54651421Y-32455092D01*
X54653713Y-32458031D01*
X54741452Y-32569573D01*
X59123215Y-32569573D01*
X59215261Y-32471595D01*
X59293892Y-32337243D01*
X59292576Y-32198110D01*
G37*
X59292576Y-32198110D02*
X59211560Y-32071067D01*
X59209329Y-32068952D01*
X59111350Y-31976906D01*
X54741452Y-31976906D01*
X54653713Y-32088449D01*
X54592509Y-32187145D01*
X54566004Y-32271288D01*
X54565974Y-32273240D01*
X54590994Y-32356144D01*
X54651421Y-32455092D01*
X54653713Y-32458031D01*
X54741452Y-32569573D01*
X59123215Y-32569573D01*
X59215261Y-32471595D01*
X59293892Y-32337243D01*
X59292576Y-32198110D01*
G36*
X60729349Y-51803908D02*
G01*
X60613186Y-51665781D01*
X60499505Y-51594457D01*
X60313606Y-51546373D01*
X60136126Y-51569741D01*
X59980671Y-51651808D01*
X59860849Y-51779824D01*
X59790268Y-51941036D01*
X59782534Y-52122693D01*
X59813989Y-52236859D01*
X59902738Y-52366748D01*
X60039840Y-52475890D01*
X60192592Y-52541520D01*
X60265157Y-52550906D01*
X60461013Y-52516726D01*
X60614738Y-52424928D01*
X60722383Y-52291630D01*
X60779999Y-52132950D01*
X60783637Y-51965003D01*
X60729349Y-51803908D01*
G37*
X60729349Y-51803908D02*
X60613186Y-51665781D01*
X60499505Y-51594457D01*
X60313606Y-51546373D01*
X60136126Y-51569741D01*
X59980671Y-51651808D01*
X59860849Y-51779824D01*
X59790268Y-51941036D01*
X59782534Y-52122693D01*
X59813989Y-52236859D01*
X59902738Y-52366748D01*
X60039840Y-52475890D01*
X60192592Y-52541520D01*
X60265157Y-52550906D01*
X60461013Y-52516726D01*
X60614738Y-52424928D01*
X60722383Y-52291630D01*
X60779999Y-52132950D01*
X60783637Y-51965003D01*
X60729349Y-51803908D01*
G36*
X58402677Y-52082401D02*
G01*
X58351045Y-52070189D01*
X58256303Y-52060611D01*
X58111338Y-52053400D01*
X57909042Y-52048292D01*
X57642305Y-52045020D01*
X57304014Y-52043317D01*
X56957807Y-52042906D01*
X55497307Y-52042906D01*
X55500946Y-52201656D01*
X55512290Y-52339513D01*
X55534925Y-52459519D01*
X55536894Y-52466240D01*
X55669890Y-52762784D01*
X55870566Y-53025959D01*
X56124740Y-53244007D01*
X56418230Y-53405168D01*
X56736854Y-53497684D01*
X56790293Y-53505465D01*
X57090338Y-53503095D01*
X57395993Y-53429819D01*
X57686604Y-53295219D01*
X57941516Y-53108880D01*
X58140072Y-52880383D01*
X58141167Y-52878730D01*
X58225984Y-52724794D01*
X58306449Y-52535587D01*
X58371833Y-52341351D01*
X58411407Y-52172326D01*
X58418307Y-52097512D01*
X58402677Y-52082401D01*
G37*
X58402677Y-52082401D02*
X58351045Y-52070189D01*
X58256303Y-52060611D01*
X58111338Y-52053400D01*
X57909042Y-52048292D01*
X57642305Y-52045020D01*
X57304014Y-52043317D01*
X56957807Y-52042906D01*
X55497307Y-52042906D01*
X55500946Y-52201656D01*
X55512290Y-52339513D01*
X55534925Y-52459519D01*
X55536894Y-52466240D01*
X55669890Y-52762784D01*
X55870566Y-53025959D01*
X56124740Y-53244007D01*
X56418230Y-53405168D01*
X56736854Y-53497684D01*
X56790293Y-53505465D01*
X57090338Y-53503095D01*
X57395993Y-53429819D01*
X57686604Y-53295219D01*
X57941516Y-53108880D01*
X58140072Y-52880383D01*
X58141167Y-52878730D01*
X58225984Y-52724794D01*
X58306449Y-52535587D01*
X58371833Y-52341351D01*
X58411407Y-52172326D01*
X58418307Y-52097512D01*
X58402677Y-52082401D01*
G36*
X47586824Y-53701021D02*
G01*
X47535945Y-53560832D01*
X47456075Y-53362230D01*
X47351249Y-53114072D01*
X47225498Y-52825214D01*
X47082856Y-52504515D01*
X46927357Y-52160830D01*
X46763032Y-51803016D01*
X46593916Y-51439931D01*
X46424041Y-51080430D01*
X46257441Y-50733372D01*
X46098148Y-50407613D01*
X45950196Y-50112010D01*
X45837934Y-49894067D01*
X45067649Y-48499591D01*
X44219162Y-47106664D01*
X43298563Y-45724787D01*
X42311942Y-44363463D01*
X42189667Y-44202287D01*
X42064999Y-44038489D01*
X41958545Y-43898129D01*
X41881108Y-43795487D01*
X41843493Y-43744843D01*
X41842623Y-43743602D01*
X41789844Y-43722951D01*
X41661053Y-43696342D01*
X41464612Y-43664853D01*
X41208882Y-43629557D01*
X40902226Y-43591529D01*
X40553006Y-43551844D01*
X40169583Y-43511577D01*
X39760320Y-43471803D01*
X39646013Y-43461246D01*
X38314293Y-43359071D01*
X37020407Y-43300634D01*
X35744526Y-43286233D01*
X34466825Y-43316166D01*
X33167475Y-43390729D01*
X31826651Y-43510219D01*
X31115847Y-43589100D01*
X30870052Y-43618587D01*
X30646626Y-43646341D01*
X30462154Y-43670229D01*
X30333226Y-43688117D01*
X30284006Y-43696101D01*
X30216180Y-43739887D01*
X30107486Y-43848935D01*
X29962377Y-44016990D01*
X29785305Y-44237800D01*
X29580723Y-44505109D01*
X29353084Y-44812665D01*
X29106840Y-45154213D01*
X28846443Y-45523500D01*
X28576348Y-45914271D01*
X28301005Y-46320272D01*
X28024868Y-46735250D01*
X27752389Y-47152951D01*
X27488021Y-47567121D01*
X27236217Y-47971505D01*
X27212469Y-48010233D01*
X26904438Y-48531479D01*
X26576783Y-49119444D01*
X26236356Y-49760427D01*
X25890009Y-50440726D01*
X25544592Y-51146640D01*
X25206957Y-51864466D01*
X24883954Y-52580503D01*
X24611370Y-53212212D01*
X24525482Y-53416741D01*
X24452923Y-53590984D01*
X24399304Y-53721344D01*
X24370241Y-53794226D01*
X24366678Y-53804878D01*
X24383713Y-53843334D01*
X24429724Y-53948175D01*
X24499804Y-54108194D01*
X24589047Y-54312186D01*
X24692546Y-54548943D01*
X24739572Y-54656567D01*
X25206401Y-55700029D01*
X25665719Y-56673769D01*
X26125022Y-57591392D01*
X26591808Y-58466502D01*
X27073575Y-59312704D01*
X27577821Y-60143601D01*
X28112043Y-60972798D01*
X28683739Y-61813900D01*
X28685864Y-61816951D01*
X28807212Y-61989404D01*
X28955195Y-62196868D01*
X29121834Y-62428440D01*
X29299151Y-62673216D01*
X29479168Y-62920292D01*
X29653906Y-63158766D01*
X29815387Y-63377732D01*
X29955633Y-63566289D01*
X30066664Y-63713531D01*
X30140504Y-63808555D01*
X30161600Y-63833764D01*
X30211972Y-63850101D01*
X30331372Y-63873508D01*
X30504707Y-63901469D01*
X30716883Y-63931468D01*
X30851443Y-63948765D01*
X32297414Y-64106608D01*
X33696731Y-64214279D01*
X35068732Y-64271900D01*
X36204342Y-64278304D01*
X36204342Y-59413792D01*
X35794912Y-59413501D01*
X35401117Y-59392412D01*
X35074013Y-59353552D01*
X34425672Y-59206301D01*
X33801294Y-58981224D01*
X33207749Y-58683417D01*
X32651910Y-58317979D01*
X32140646Y-57890005D01*
X31680828Y-57404594D01*
X31279329Y-56866843D01*
X30948661Y-56293179D01*
X30810404Y-55984174D01*
X30677985Y-55629972D01*
X30562364Y-55263852D01*
X30474498Y-54919093D01*
X30443246Y-54758305D01*
X30407873Y-54466499D01*
X30387271Y-54120706D01*
X30381508Y-53750319D01*
X30390651Y-53384730D01*
X30414768Y-53053333D01*
X30438880Y-52867878D01*
X30587658Y-52208153D01*
X30812368Y-51579000D01*
X31108148Y-50985682D01*
X31470134Y-50433458D01*
X31893465Y-49927588D01*
X32373278Y-49473332D01*
X32904710Y-49075951D01*
X33482900Y-48740706D01*
X34102985Y-48472856D01*
X34659291Y-48302121D01*
X34990575Y-48237110D01*
X35377408Y-48191260D01*
X35792646Y-48165558D01*
X36209144Y-48160995D01*
X36599757Y-48178560D01*
X36936680Y-48219127D01*
X37612667Y-48378592D01*
X38255302Y-48615521D01*
X38861500Y-48928306D01*
X39428174Y-49315338D01*
X39952235Y-49775008D01*
X39985109Y-49807722D01*
X40445320Y-50324145D01*
X40830393Y-50876450D01*
X41142779Y-51469192D01*
X41384935Y-52106923D01*
X41537445Y-52688067D01*
X41570640Y-52872691D01*
X41593566Y-53077000D01*
X41607528Y-53319609D01*
X41613828Y-53619133D01*
X41614513Y-53788733D01*
X41608761Y-54180281D01*
X41589163Y-54511842D01*
X41552207Y-54807465D01*
X41494379Y-55091198D01*
X41412168Y-55387088D01*
X41355217Y-55563929D01*
X41101395Y-56193609D01*
X40777227Y-56782276D01*
X40388505Y-57324962D01*
X39941023Y-57816694D01*
X39440575Y-58252503D01*
X38892953Y-58627418D01*
X38303951Y-58936469D01*
X37679363Y-59174685D01*
X37024982Y-59337096D01*
X36939804Y-59352084D01*
X36596831Y-59393312D01*
X36204342Y-59413792D01*
X36204342Y-64278304D01*
X36432759Y-64279593D01*
X37808151Y-64237478D01*
X39214249Y-64145676D01*
X40619680Y-64009947D01*
X40965203Y-63972044D01*
X41237283Y-63941586D01*
X41446470Y-63915333D01*
X41603310Y-63890048D01*
X41718353Y-63862493D01*
X41802146Y-63829429D01*
X41865238Y-63787618D01*
X41918176Y-63733822D01*
X41971508Y-63664803D01*
X42035783Y-63577322D01*
X42037847Y-63574569D01*
X42625662Y-62778219D01*
X43187574Y-61990417D01*
X43717566Y-61220194D01*
X44112180Y-60623838D01*
X44112180Y-54762400D01*
X43822511Y-54723644D01*
X43566837Y-54611783D01*
X43355732Y-54433424D01*
X43199770Y-54195176D01*
X43197774Y-54190900D01*
X43135453Y-53975619D01*
X43122325Y-53730375D01*
X43158418Y-53494134D01*
X43197206Y-53386567D01*
X43351279Y-53143872D01*
X43555773Y-52960419D01*
X43797555Y-52842395D01*
X44063497Y-52795982D01*
X44340469Y-52827364D01*
X44368261Y-52835017D01*
X44638266Y-52953028D01*
X44848979Y-53129266D01*
X44995268Y-53356881D01*
X45072002Y-53629024D01*
X45082715Y-53788733D01*
X45045318Y-54080296D01*
X44938368Y-54330149D01*
X44769730Y-54530405D01*
X44547270Y-54673172D01*
X44278851Y-54750560D01*
X44112180Y-54762400D01*
X44112180Y-60623838D01*
X44209621Y-60476581D01*
X44657724Y-59768608D01*
X45055858Y-59105307D01*
X45290926Y-58691702D01*
X45457643Y-58384762D01*
X45638549Y-58041036D01*
X45829954Y-57668365D01*
X46028169Y-57274590D01*
X46229505Y-56867552D01*
X46430274Y-56455093D01*
X46626785Y-56045053D01*
X46815350Y-55645273D01*
X46992280Y-55263595D01*
X47153885Y-54907859D01*
X47296476Y-54585907D01*
X47416365Y-54305580D01*
X47509862Y-54074718D01*
X47573277Y-53901162D01*
X47602923Y-53792755D01*
X47604680Y-53773941D01*
X47586824Y-53701021D01*
G37*
X47586824Y-53701021D02*
X47535945Y-53560832D01*
X47456075Y-53362230D01*
X47351249Y-53114072D01*
X47225498Y-52825214D01*
X47082856Y-52504515D01*
X46927357Y-52160830D01*
X46763032Y-51803016D01*
X46593916Y-51439931D01*
X46424041Y-51080430D01*
X46257441Y-50733372D01*
X46098148Y-50407613D01*
X45950196Y-50112010D01*
X45837934Y-49894067D01*
X45067649Y-48499591D01*
X44219162Y-47106664D01*
X43298563Y-45724787D01*
X42311942Y-44363463D01*
X42189667Y-44202287D01*
X42064999Y-44038489D01*
X41958545Y-43898129D01*
X41881108Y-43795487D01*
X41843493Y-43744843D01*
X41842623Y-43743602D01*
X41789844Y-43722951D01*
X41661053Y-43696342D01*
X41464612Y-43664853D01*
X41208882Y-43629557D01*
X40902226Y-43591529D01*
X40553006Y-43551844D01*
X40169583Y-43511577D01*
X39760320Y-43471803D01*
X39646013Y-43461246D01*
X38314293Y-43359071D01*
X37020407Y-43300634D01*
X35744526Y-43286233D01*
X34466825Y-43316166D01*
X33167475Y-43390729D01*
X31826651Y-43510219D01*
X31115847Y-43589100D01*
X30870052Y-43618587D01*
X30646626Y-43646341D01*
X30462154Y-43670229D01*
X30333226Y-43688117D01*
X30284006Y-43696101D01*
X30216180Y-43739887D01*
X30107486Y-43848935D01*
X29962377Y-44016990D01*
X29785305Y-44237800D01*
X29580723Y-44505109D01*
X29353084Y-44812665D01*
X29106840Y-45154213D01*
X28846443Y-45523500D01*
X28576348Y-45914271D01*
X28301005Y-46320272D01*
X28024868Y-46735250D01*
X27752389Y-47152951D01*
X27488021Y-47567121D01*
X27236217Y-47971505D01*
X27212469Y-48010233D01*
X26904438Y-48531479D01*
X26576783Y-49119444D01*
X26236356Y-49760427D01*
X25890009Y-50440726D01*
X25544592Y-51146640D01*
X25206957Y-51864466D01*
X24883954Y-52580503D01*
X24611370Y-53212212D01*
X24525482Y-53416741D01*
X24452923Y-53590984D01*
X24399304Y-53721344D01*
X24370241Y-53794226D01*
X24366678Y-53804878D01*
X24383713Y-53843334D01*
X24429724Y-53948175D01*
X24499804Y-54108194D01*
X24589047Y-54312186D01*
X24692546Y-54548943D01*
X24739572Y-54656567D01*
X25206401Y-55700029D01*
X25665719Y-56673769D01*
X26125022Y-57591392D01*
X26591808Y-58466502D01*
X27073575Y-59312704D01*
X27577821Y-60143601D01*
X28112043Y-60972798D01*
X28683739Y-61813900D01*
X28685864Y-61816951D01*
X28807212Y-61989404D01*
X28955195Y-62196868D01*
X29121834Y-62428440D01*
X29299151Y-62673216D01*
X29479168Y-62920292D01*
X29653906Y-63158766D01*
X29815387Y-63377732D01*
X29955633Y-63566289D01*
X30066664Y-63713531D01*
X30140504Y-63808555D01*
X30161600Y-63833764D01*
X30211972Y-63850101D01*
X30331372Y-63873508D01*
X30504707Y-63901469D01*
X30716883Y-63931468D01*
X30851443Y-63948765D01*
X32297414Y-64106608D01*
X33696731Y-64214279D01*
X35068732Y-64271900D01*
X36204342Y-64278304D01*
X36204342Y-59413792D01*
X35794912Y-59413501D01*
X35401117Y-59392412D01*
X35074013Y-59353552D01*
X34425672Y-59206301D01*
X33801294Y-58981224D01*
X33207749Y-58683417D01*
X32651910Y-58317979D01*
X32140646Y-57890005D01*
X31680828Y-57404594D01*
X31279329Y-56866843D01*
X30948661Y-56293179D01*
X30810404Y-55984174D01*
X30677985Y-55629972D01*
X30562364Y-55263852D01*
X30474498Y-54919093D01*
X30443246Y-54758305D01*
X30407873Y-54466499D01*
X30387271Y-54120706D01*
X30381508Y-53750319D01*
X30390651Y-53384730D01*
X30414768Y-53053333D01*
X30438880Y-52867878D01*
X30587658Y-52208153D01*
X30812368Y-51579000D01*
X31108148Y-50985682D01*
X31470134Y-50433458D01*
X31893465Y-49927588D01*
X32373278Y-49473332D01*
X32904710Y-49075951D01*
X33482900Y-48740706D01*
X34102985Y-48472856D01*
X34659291Y-48302121D01*
X34990575Y-48237110D01*
X35377408Y-48191260D01*
X35792646Y-48165558D01*
X36209144Y-48160995D01*
X36599757Y-48178560D01*
X36936680Y-48219127D01*
X37612667Y-48378592D01*
X38255302Y-48615521D01*
X38861500Y-48928306D01*
X39428174Y-49315338D01*
X39952235Y-49775008D01*
X39985109Y-49807722D01*
X40445320Y-50324145D01*
X40830393Y-50876450D01*
X41142779Y-51469192D01*
X41384935Y-52106923D01*
X41537445Y-52688067D01*
X41570640Y-52872691D01*
X41593566Y-53077000D01*
X41607528Y-53319609D01*
X41613828Y-53619133D01*
X41614513Y-53788733D01*
X41608761Y-54180281D01*
X41589163Y-54511842D01*
X41552207Y-54807465D01*
X41494379Y-55091198D01*
X41412168Y-55387088D01*
X41355217Y-55563929D01*
X41101395Y-56193609D01*
X40777227Y-56782276D01*
X40388505Y-57324962D01*
X39941023Y-57816694D01*
X39440575Y-58252503D01*
X38892953Y-58627418D01*
X38303951Y-58936469D01*
X37679363Y-59174685D01*
X37024982Y-59337096D01*
X36939804Y-59352084D01*
X36596831Y-59393312D01*
X36204342Y-59413792D01*
X36204342Y-64278304D01*
X36432759Y-64279593D01*
X37808151Y-64237478D01*
X39214249Y-64145676D01*
X40619680Y-64009947D01*
X40965203Y-63972044D01*
X41237283Y-63941586D01*
X41446470Y-63915333D01*
X41603310Y-63890048D01*
X41718353Y-63862493D01*
X41802146Y-63829429D01*
X41865238Y-63787618D01*
X41918176Y-63733822D01*
X41971508Y-63664803D01*
X42035783Y-63577322D01*
X42037847Y-63574569D01*
X42625662Y-62778219D01*
X43187574Y-61990417D01*
X43717566Y-61220194D01*
X44112180Y-60623838D01*
X44112180Y-54762400D01*
X43822511Y-54723644D01*
X43566837Y-54611783D01*
X43355732Y-54433424D01*
X43199770Y-54195176D01*
X43197774Y-54190900D01*
X43135453Y-53975619D01*
X43122325Y-53730375D01*
X43158418Y-53494134D01*
X43197206Y-53386567D01*
X43351279Y-53143872D01*
X43555773Y-52960419D01*
X43797555Y-52842395D01*
X44063497Y-52795982D01*
X44340469Y-52827364D01*
X44368261Y-52835017D01*
X44638266Y-52953028D01*
X44848979Y-53129266D01*
X44995268Y-53356881D01*
X45072002Y-53629024D01*
X45082715Y-53788733D01*
X45045318Y-54080296D01*
X44938368Y-54330149D01*
X44769730Y-54530405D01*
X44547270Y-54673172D01*
X44278851Y-54750560D01*
X44112180Y-54762400D01*
X44112180Y-60623838D01*
X44209621Y-60476581D01*
X44657724Y-59768608D01*
X45055858Y-59105307D01*
X45290926Y-58691702D01*
X45457643Y-58384762D01*
X45638549Y-58041036D01*
X45829954Y-57668365D01*
X46028169Y-57274590D01*
X46229505Y-56867552D01*
X46430274Y-56455093D01*
X46626785Y-56045053D01*
X46815350Y-55645273D01*
X46992280Y-55263595D01*
X47153885Y-54907859D01*
X47296476Y-54585907D01*
X47416365Y-54305580D01*
X47509862Y-54074718D01*
X47573277Y-53901162D01*
X47602923Y-53792755D01*
X47604680Y-53773941D01*
X47586824Y-53701021D01*
G36*
X40761271Y-53402379D02*
G01*
X40667399Y-52788601D01*
X40491999Y-52182727D01*
X40286039Y-51693233D01*
X39980638Y-51153031D01*
X39617691Y-50669387D01*
X39203984Y-50243972D01*
X38746300Y-49878458D01*
X38251424Y-49574518D01*
X37726139Y-49333822D01*
X37177229Y-49158042D01*
X36611480Y-49048850D01*
X36035674Y-49007918D01*
X35456597Y-49036916D01*
X34881032Y-49137517D01*
X34315764Y-49311392D01*
X33767577Y-49560213D01*
X33243254Y-49885652D01*
X33169158Y-49939636D01*
X32687577Y-50348648D01*
X32268849Y-50809892D01*
X31915949Y-51316253D01*
X31631850Y-51860618D01*
X31419523Y-52435874D01*
X31281944Y-53034905D01*
X31222084Y-53650598D01*
X31242916Y-54275839D01*
X31268607Y-54487233D01*
X31395692Y-55078018D01*
X31600483Y-55648515D01*
X31876868Y-56190401D01*
X32218736Y-56695352D01*
X32619973Y-57155041D01*
X33074469Y-57561145D01*
X33576112Y-57905338D01*
X33909847Y-58084829D01*
X34492222Y-58322057D01*
X35085294Y-58478716D01*
X35682503Y-58557127D01*
X36026513Y-58558563D01*
X36026513Y-57615785D01*
X35632500Y-57607471D01*
X35295380Y-57575104D01*
X34989516Y-57513542D01*
X34689273Y-57417643D01*
X34373183Y-57284193D01*
X33925618Y-57037056D01*
X33501284Y-56724863D01*
X33117339Y-56362908D01*
X32790944Y-55966484D01*
X32644939Y-55743930D01*
X32450259Y-55366802D01*
X32286941Y-54948093D01*
X32163779Y-54516111D01*
X32089571Y-54099164D01*
X32073572Y-53905150D01*
X32068347Y-53788733D01*
X39931947Y-53788733D01*
X39913418Y-53989817D01*
X39871597Y-54306782D01*
X39806740Y-54631646D01*
X39726191Y-54932247D01*
X39648382Y-55150630D01*
X39380620Y-55690862D01*
X39056407Y-56168010D01*
X38675494Y-56582298D01*
X38237637Y-56933946D01*
X37742587Y-57223178D01*
X37190098Y-57450214D01*
X37042513Y-57497421D01*
X36880507Y-57543850D01*
X36738491Y-57576141D01*
X36594040Y-57596904D01*
X36424732Y-57608753D01*
X36208145Y-57614299D01*
X36026513Y-57615785D01*
X36026513Y-58558563D01*
X36277288Y-58559610D01*
X36863090Y-58488486D01*
X37433349Y-58346075D01*
X37981504Y-58134698D01*
X38500995Y-57856675D01*
X38985263Y-57514327D01*
X39427746Y-57109975D01*
X39821886Y-56645938D01*
X40161121Y-56124538D01*
X40320486Y-55817180D01*
X40553223Y-55231460D01*
X40704233Y-54629775D01*
X40773565Y-54018092D01*
X40761271Y-53402379D01*
G37*
X40761271Y-53402379D02*
X40667399Y-52788601D01*
X40491999Y-52182727D01*
X40286039Y-51693233D01*
X39980638Y-51153031D01*
X39617691Y-50669387D01*
X39203984Y-50243972D01*
X38746300Y-49878458D01*
X38251424Y-49574518D01*
X37726139Y-49333822D01*
X37177229Y-49158042D01*
X36611480Y-49048850D01*
X36035674Y-49007918D01*
X35456597Y-49036916D01*
X34881032Y-49137517D01*
X34315764Y-49311392D01*
X33767577Y-49560213D01*
X33243254Y-49885652D01*
X33169158Y-49939636D01*
X32687577Y-50348648D01*
X32268849Y-50809892D01*
X31915949Y-51316253D01*
X31631850Y-51860618D01*
X31419523Y-52435874D01*
X31281944Y-53034905D01*
X31222084Y-53650598D01*
X31242916Y-54275839D01*
X31268607Y-54487233D01*
X31395692Y-55078018D01*
X31600483Y-55648515D01*
X31876868Y-56190401D01*
X32218736Y-56695352D01*
X32619973Y-57155041D01*
X33074469Y-57561145D01*
X33576112Y-57905338D01*
X33909847Y-58084829D01*
X34492222Y-58322057D01*
X35085294Y-58478716D01*
X35682503Y-58557127D01*
X36026513Y-58558563D01*
X36026513Y-57615785D01*
X35632500Y-57607471D01*
X35295380Y-57575104D01*
X34989516Y-57513542D01*
X34689273Y-57417643D01*
X34373183Y-57284193D01*
X33925618Y-57037056D01*
X33501284Y-56724863D01*
X33117339Y-56362908D01*
X32790944Y-55966484D01*
X32644939Y-55743930D01*
X32450259Y-55366802D01*
X32286941Y-54948093D01*
X32163779Y-54516111D01*
X32089571Y-54099164D01*
X32073572Y-53905150D01*
X32068347Y-53788733D01*
X39931947Y-53788733D01*
X39913418Y-53989817D01*
X39871597Y-54306782D01*
X39806740Y-54631646D01*
X39726191Y-54932247D01*
X39648382Y-55150630D01*
X39380620Y-55690862D01*
X39056407Y-56168010D01*
X38675494Y-56582298D01*
X38237637Y-56933946D01*
X37742587Y-57223178D01*
X37190098Y-57450214D01*
X37042513Y-57497421D01*
X36880507Y-57543850D01*
X36738491Y-57576141D01*
X36594040Y-57596904D01*
X36424732Y-57608753D01*
X36208145Y-57614299D01*
X36026513Y-57615785D01*
X36026513Y-58558563D01*
X36277288Y-58559610D01*
X36863090Y-58488486D01*
X37433349Y-58346075D01*
X37981504Y-58134698D01*
X38500995Y-57856675D01*
X38985263Y-57514327D01*
X39427746Y-57109975D01*
X39821886Y-56645938D01*
X40161121Y-56124538D01*
X40320486Y-55817180D01*
X40553223Y-55231460D01*
X40704233Y-54629775D01*
X40773565Y-54018092D01*
X40761271Y-53402379D01*
G36*
X59579469Y-87765066D02*
G01*
X59134845Y-87681245D01*
X59007347Y-87371960D01*
X58879849Y-87062674D01*
X59132154Y-86691634D01*
X59202404Y-86587723D01*
X59265128Y-86493793D01*
X59317462Y-86414228D01*
X59356543Y-86353410D01*
X59379507Y-86315723D01*
X59384458Y-86305459D01*
X59371724Y-86286970D01*
X59336518Y-86247460D01*
X59283338Y-86191358D01*
X59216682Y-86123093D01*
X59141046Y-86047094D01*
X59060928Y-85967788D01*
X58980826Y-85889605D01*
X58905236Y-85816973D01*
X58838655Y-85754321D01*
X58785582Y-85706077D01*
X58750513Y-85676670D01*
X58738777Y-85669639D01*
X58717140Y-85679757D01*
X58669738Y-85708121D01*
X58601207Y-85751751D01*
X58516185Y-85807662D01*
X58419307Y-85872874D01*
X58364050Y-85910661D01*
X58263152Y-85979537D01*
X58172101Y-86040740D01*
X58095430Y-86091302D01*
X58037672Y-86128252D01*
X58003357Y-86148622D01*
X57996146Y-86151683D01*
X57975652Y-86144744D01*
X57927887Y-86125829D01*
X57859568Y-86097793D01*
X57777411Y-86063489D01*
X57688130Y-86025771D01*
X57598442Y-85987493D01*
X57515062Y-85951510D01*
X57444706Y-85920674D01*
X57394090Y-85897841D01*
X57369929Y-85885863D01*
X57368978Y-85885156D01*
X57364364Y-85866349D01*
X57354072Y-85816262D01*
X57339113Y-85740087D01*
X57320499Y-85643015D01*
X57299241Y-85530237D01*
X57286982Y-85464438D01*
X57264038Y-85343930D01*
X57242205Y-85235083D01*
X57222678Y-85143404D01*
X57206652Y-85074399D01*
X57195321Y-85033576D01*
X57191726Y-85025369D01*
X57167394Y-85017332D01*
X57112441Y-85010847D01*
X57033292Y-85005910D01*
X56936374Y-85002516D01*
X56828113Y-85000662D01*
X56714935Y-85000342D01*
X56603265Y-85001553D01*
X56499532Y-85004290D01*
X56410159Y-85008549D01*
X56341574Y-85014325D01*
X56300203Y-85021613D01*
X56291590Y-85025985D01*
X56281267Y-85052116D01*
X56266508Y-85107487D01*
X56249048Y-85184773D01*
X56230620Y-85276650D01*
X56224659Y-85308722D01*
X56196334Y-85463356D01*
X56173524Y-85585505D01*
X56155320Y-85679207D01*
X56140817Y-85748496D01*
X56129108Y-85797409D01*
X56119285Y-85829983D01*
X56110444Y-85850252D01*
X56101676Y-85862254D01*
X56099943Y-85863933D01*
X56072029Y-85880696D01*
X56017705Y-85906266D01*
X55943623Y-85938092D01*
X55856435Y-85973620D01*
X55762792Y-86010297D01*
X55669348Y-86045569D01*
X55582753Y-86076884D01*
X55509660Y-86101687D01*
X55456722Y-86117426D01*
X55430589Y-86121548D01*
X55429674Y-86121204D01*
X55408314Y-86107239D01*
X55361316Y-86075558D01*
X55293573Y-86029489D01*
X55209977Y-85972362D01*
X55115418Y-85907507D01*
X55088546Y-85889037D01*
X54991125Y-85823181D01*
X54902237Y-85765230D01*
X54826988Y-85718342D01*
X54770480Y-85685673D01*
X54737819Y-85670380D01*
X54733807Y-85669639D01*
X54712716Y-85682488D01*
X54670936Y-85717992D01*
X54612955Y-85771587D01*
X54543265Y-85838709D01*
X54466355Y-85914793D01*
X54386717Y-85995276D01*
X54308839Y-86075593D01*
X54237214Y-86151181D01*
X54176330Y-86217475D01*
X54130679Y-86269911D01*
X54104750Y-86303925D01*
X54100517Y-86313335D01*
X54110488Y-86335237D01*
X54137380Y-86380080D01*
X54176664Y-86440559D01*
X54208283Y-86487091D01*
X54266302Y-86571405D01*
X54334616Y-86671254D01*
X54402821Y-86771407D01*
X54439325Y-86825253D01*
X54562600Y-87007509D01*
X54479880Y-87160499D01*
X54443641Y-87230198D01*
X54415474Y-87289466D01*
X54399409Y-87329569D01*
X54397174Y-87339777D01*
X54413678Y-87352051D01*
X54460318Y-87376267D01*
X54532791Y-87410617D01*
X54626794Y-87453292D01*
X54738026Y-87502486D01*
X54862185Y-87556390D01*
X54994968Y-87613196D01*
X55132073Y-87671098D01*
X55269198Y-87728287D01*
X55402042Y-87782956D01*
X55526302Y-87833296D01*
X55637675Y-87877500D01*
X55731861Y-87913761D01*
X55804556Y-87940271D01*
X55851459Y-87955222D01*
X55867567Y-87957626D01*
X55888114Y-87938569D01*
X55921467Y-87896844D01*
X55960698Y-87841174D01*
X55963801Y-87836502D01*
X56078977Y-87692616D01*
X56213347Y-87576597D01*
X56362616Y-87489450D01*
X56522487Y-87432181D01*
X56688663Y-87405794D01*
X56856848Y-87411295D01*
X57022745Y-87449690D01*
X57182058Y-87521985D01*
X57216913Y-87543254D01*
X57357663Y-87653884D01*
X57470686Y-87784578D01*
X57555397Y-87930816D01*
X57611206Y-88088072D01*
X57637526Y-88251823D01*
X57633770Y-88417547D01*
X57599350Y-88580718D01*
X57533677Y-88736815D01*
X57436165Y-88881313D01*
X57396587Y-88926011D01*
X57272697Y-89039768D01*
X57142276Y-89122662D01*
X56996085Y-89179524D01*
X56851312Y-89211193D01*
X56688540Y-89219011D01*
X56524960Y-89192942D01*
X56366102Y-89135635D01*
X56217494Y-89049736D01*
X56084665Y-88937894D01*
X55973144Y-88802757D01*
X55961389Y-88784997D01*
X55922892Y-88728730D01*
X55889537Y-88685957D01*
X55868240Y-88665508D01*
X55867567Y-88665211D01*
X55844529Y-88669601D01*
X55792243Y-88687004D01*
X55715010Y-88715612D01*
X55617132Y-88753615D01*
X55502909Y-88799206D01*
X55376642Y-88850577D01*
X55242633Y-88905918D01*
X55105182Y-88963422D01*
X54968592Y-89021279D01*
X54837163Y-89077682D01*
X54715195Y-89130822D01*
X54606991Y-89178890D01*
X54516851Y-89220079D01*
X54449077Y-89252579D01*
X54407970Y-89274583D01*
X54397174Y-89283444D01*
X54405581Y-89310520D01*
X54428128Y-89361183D01*
X54460787Y-89426697D01*
X54479880Y-89462721D01*
X54562600Y-89615712D01*
X54439325Y-89797968D01*
X54376172Y-89891005D01*
X54306673Y-89992865D01*
X54241235Y-90088318D01*
X54208283Y-90136130D01*
X54163127Y-90203375D01*
X54127343Y-90260316D01*
X54105462Y-90299526D01*
X54100837Y-90312261D01*
X54113315Y-90330797D01*
X54148148Y-90371821D01*
X54201722Y-90431355D01*
X54270417Y-90505422D01*
X54350619Y-90590045D01*
X54402114Y-90643565D01*
X54494114Y-90737199D01*
X54576401Y-90818121D01*
X54645455Y-90883057D01*
X54697756Y-90928738D01*
X54729784Y-90951891D01*
X54736284Y-90954112D01*
X54761006Y-90943804D01*
X54810995Y-90915319D01*
X54881188Y-90871817D01*
X54966525Y-90816457D01*
X55061944Y-90752400D01*
X55088546Y-90734183D01*
X55185233Y-90667807D01*
X55272283Y-90608258D01*
X55344805Y-90558864D01*
X55397907Y-90522955D01*
X55426697Y-90503861D01*
X55429674Y-90502016D01*
X55452618Y-90504775D01*
X55503064Y-90519418D01*
X55574359Y-90543393D01*
X55659853Y-90574146D01*
X55752893Y-90609124D01*
X55846826Y-90645773D01*
X55935001Y-90681541D01*
X56010766Y-90713874D01*
X56067469Y-90740218D01*
X56098457Y-90758022D01*
X56099943Y-90759287D01*
X56108799Y-90770174D01*
X56117557Y-90788562D01*
X56127123Y-90818486D01*
X56138404Y-90863983D01*
X56152307Y-90929089D01*
X56169737Y-91017841D01*
X56191602Y-91134273D01*
X56218809Y-91282422D01*
X56224659Y-91314498D01*
X56243026Y-91409566D01*
X56260995Y-91492445D01*
X56276831Y-91555810D01*
X56288800Y-91592338D01*
X56291590Y-91597236D01*
X56316328Y-91605307D01*
X56371610Y-91611867D01*
X56451011Y-91616913D01*
X56548104Y-91620439D01*
X56656462Y-91622441D01*
X56769660Y-91622916D01*
X56881272Y-91621857D01*
X56984871Y-91619262D01*
X57074032Y-91615126D01*
X57142328Y-91609443D01*
X57183334Y-91602211D01*
X57191726Y-91597851D01*
X57200192Y-91573578D01*
X57213965Y-91518306D01*
X57231850Y-91437542D01*
X57252652Y-91336792D01*
X57275177Y-91221563D01*
X57286982Y-91158782D01*
X57309249Y-91039667D01*
X57329421Y-90933445D01*
X57346485Y-90845307D01*
X57359431Y-90780446D01*
X57367245Y-90744054D01*
X57368978Y-90738064D01*
X57388510Y-90727941D01*
X57435557Y-90706542D01*
X57503397Y-90676719D01*
X57585309Y-90641325D01*
X57674572Y-90603212D01*
X57764465Y-90565233D01*
X57848265Y-90530240D01*
X57919253Y-90501086D01*
X57970706Y-90480623D01*
X57995903Y-90471703D01*
X57997004Y-90471537D01*
X58016881Y-90481649D01*
X58062623Y-90509997D01*
X58129683Y-90553603D01*
X58213516Y-90609486D01*
X58309574Y-90674667D01*
X58364750Y-90712559D01*
X58465919Y-90781605D01*
X58557770Y-90842930D01*
X58635656Y-90893543D01*
X58694931Y-90930451D01*
X58730949Y-90950662D01*
X58739023Y-90953581D01*
X58757816Y-90941033D01*
X58797943Y-90906343D01*
X58854907Y-90853943D01*
X58924215Y-90788264D01*
X59001369Y-90713736D01*
X59081875Y-90634793D01*
X59161237Y-90555863D01*
X59234960Y-90481380D01*
X59298548Y-90415774D01*
X59347506Y-90363476D01*
X59377339Y-90328919D01*
X59384458Y-90317358D01*
X59374447Y-90298534D01*
X59346322Y-90253511D01*
X59302946Y-90186667D01*
X59247182Y-90102379D01*
X59181894Y-90005024D01*
X59132154Y-89931587D01*
X58879849Y-89560547D01*
X59134845Y-88941975D01*
X59579469Y-88858155D01*
X60024093Y-88774334D01*
X60024093Y-87848886D01*
X59579469Y-87765066D01*
G37*
X59579469Y-87765066D02*
X59134845Y-87681245D01*
X59007347Y-87371960D01*
X58879849Y-87062674D01*
X59132154Y-86691634D01*
X59202404Y-86587723D01*
X59265128Y-86493793D01*
X59317462Y-86414228D01*
X59356543Y-86353410D01*
X59379507Y-86315723D01*
X59384458Y-86305459D01*
X59371724Y-86286970D01*
X59336518Y-86247460D01*
X59283338Y-86191358D01*
X59216682Y-86123093D01*
X59141046Y-86047094D01*
X59060928Y-85967788D01*
X58980826Y-85889605D01*
X58905236Y-85816973D01*
X58838655Y-85754321D01*
X58785582Y-85706077D01*
X58750513Y-85676670D01*
X58738777Y-85669639D01*
X58717140Y-85679757D01*
X58669738Y-85708121D01*
X58601207Y-85751751D01*
X58516185Y-85807662D01*
X58419307Y-85872874D01*
X58364050Y-85910661D01*
X58263152Y-85979537D01*
X58172101Y-86040740D01*
X58095430Y-86091302D01*
X58037672Y-86128252D01*
X58003357Y-86148622D01*
X57996146Y-86151683D01*
X57975652Y-86144744D01*
X57927887Y-86125829D01*
X57859568Y-86097793D01*
X57777411Y-86063489D01*
X57688130Y-86025771D01*
X57598442Y-85987493D01*
X57515062Y-85951510D01*
X57444706Y-85920674D01*
X57394090Y-85897841D01*
X57369929Y-85885863D01*
X57368978Y-85885156D01*
X57364364Y-85866349D01*
X57354072Y-85816262D01*
X57339113Y-85740087D01*
X57320499Y-85643015D01*
X57299241Y-85530237D01*
X57286982Y-85464438D01*
X57264038Y-85343930D01*
X57242205Y-85235083D01*
X57222678Y-85143404D01*
X57206652Y-85074399D01*
X57195321Y-85033576D01*
X57191726Y-85025369D01*
X57167394Y-85017332D01*
X57112441Y-85010847D01*
X57033292Y-85005910D01*
X56936374Y-85002516D01*
X56828113Y-85000662D01*
X56714935Y-85000342D01*
X56603265Y-85001553D01*
X56499532Y-85004290D01*
X56410159Y-85008549D01*
X56341574Y-85014325D01*
X56300203Y-85021613D01*
X56291590Y-85025985D01*
X56281267Y-85052116D01*
X56266508Y-85107487D01*
X56249048Y-85184773D01*
X56230620Y-85276650D01*
X56224659Y-85308722D01*
X56196334Y-85463356D01*
X56173524Y-85585505D01*
X56155320Y-85679207D01*
X56140817Y-85748496D01*
X56129108Y-85797409D01*
X56119285Y-85829983D01*
X56110444Y-85850252D01*
X56101676Y-85862254D01*
X56099943Y-85863933D01*
X56072029Y-85880696D01*
X56017705Y-85906266D01*
X55943623Y-85938092D01*
X55856435Y-85973620D01*
X55762792Y-86010297D01*
X55669348Y-86045569D01*
X55582753Y-86076884D01*
X55509660Y-86101687D01*
X55456722Y-86117426D01*
X55430589Y-86121548D01*
X55429674Y-86121204D01*
X55408314Y-86107239D01*
X55361316Y-86075558D01*
X55293573Y-86029489D01*
X55209977Y-85972362D01*
X55115418Y-85907507D01*
X55088546Y-85889037D01*
X54991125Y-85823181D01*
X54902237Y-85765230D01*
X54826988Y-85718342D01*
X54770480Y-85685673D01*
X54737819Y-85670380D01*
X54733807Y-85669639D01*
X54712716Y-85682488D01*
X54670936Y-85717992D01*
X54612955Y-85771587D01*
X54543265Y-85838709D01*
X54466355Y-85914793D01*
X54386717Y-85995276D01*
X54308839Y-86075593D01*
X54237214Y-86151181D01*
X54176330Y-86217475D01*
X54130679Y-86269911D01*
X54104750Y-86303925D01*
X54100517Y-86313335D01*
X54110488Y-86335237D01*
X54137380Y-86380080D01*
X54176664Y-86440559D01*
X54208283Y-86487091D01*
X54266302Y-86571405D01*
X54334616Y-86671254D01*
X54402821Y-86771407D01*
X54439325Y-86825253D01*
X54562600Y-87007509D01*
X54479880Y-87160499D01*
X54443641Y-87230198D01*
X54415474Y-87289466D01*
X54399409Y-87329569D01*
X54397174Y-87339777D01*
X54413678Y-87352051D01*
X54460318Y-87376267D01*
X54532791Y-87410617D01*
X54626794Y-87453292D01*
X54738026Y-87502486D01*
X54862185Y-87556390D01*
X54994968Y-87613196D01*
X55132073Y-87671098D01*
X55269198Y-87728287D01*
X55402042Y-87782956D01*
X55526302Y-87833296D01*
X55637675Y-87877500D01*
X55731861Y-87913761D01*
X55804556Y-87940271D01*
X55851459Y-87955222D01*
X55867567Y-87957626D01*
X55888114Y-87938569D01*
X55921467Y-87896844D01*
X55960698Y-87841174D01*
X55963801Y-87836502D01*
X56078977Y-87692616D01*
X56213347Y-87576597D01*
X56362616Y-87489450D01*
X56522487Y-87432181D01*
X56688663Y-87405794D01*
X56856848Y-87411295D01*
X57022745Y-87449690D01*
X57182058Y-87521985D01*
X57216913Y-87543254D01*
X57357663Y-87653884D01*
X57470686Y-87784578D01*
X57555397Y-87930816D01*
X57611206Y-88088072D01*
X57637526Y-88251823D01*
X57633770Y-88417547D01*
X57599350Y-88580718D01*
X57533677Y-88736815D01*
X57436165Y-88881313D01*
X57396587Y-88926011D01*
X57272697Y-89039768D01*
X57142276Y-89122662D01*
X56996085Y-89179524D01*
X56851312Y-89211193D01*
X56688540Y-89219011D01*
X56524960Y-89192942D01*
X56366102Y-89135635D01*
X56217494Y-89049736D01*
X56084665Y-88937894D01*
X55973144Y-88802757D01*
X55961389Y-88784997D01*
X55922892Y-88728730D01*
X55889537Y-88685957D01*
X55868240Y-88665508D01*
X55867567Y-88665211D01*
X55844529Y-88669601D01*
X55792243Y-88687004D01*
X55715010Y-88715612D01*
X55617132Y-88753615D01*
X55502909Y-88799206D01*
X55376642Y-88850577D01*
X55242633Y-88905918D01*
X55105182Y-88963422D01*
X54968592Y-89021279D01*
X54837163Y-89077682D01*
X54715195Y-89130822D01*
X54606991Y-89178890D01*
X54516851Y-89220079D01*
X54449077Y-89252579D01*
X54407970Y-89274583D01*
X54397174Y-89283444D01*
X54405581Y-89310520D01*
X54428128Y-89361183D01*
X54460787Y-89426697D01*
X54479880Y-89462721D01*
X54562600Y-89615712D01*
X54439325Y-89797968D01*
X54376172Y-89891005D01*
X54306673Y-89992865D01*
X54241235Y-90088318D01*
X54208283Y-90136130D01*
X54163127Y-90203375D01*
X54127343Y-90260316D01*
X54105462Y-90299526D01*
X54100837Y-90312261D01*
X54113315Y-90330797D01*
X54148148Y-90371821D01*
X54201722Y-90431355D01*
X54270417Y-90505422D01*
X54350619Y-90590045D01*
X54402114Y-90643565D01*
X54494114Y-90737199D01*
X54576401Y-90818121D01*
X54645455Y-90883057D01*
X54697756Y-90928738D01*
X54729784Y-90951891D01*
X54736284Y-90954112D01*
X54761006Y-90943804D01*
X54810995Y-90915319D01*
X54881188Y-90871817D01*
X54966525Y-90816457D01*
X55061944Y-90752400D01*
X55088546Y-90734183D01*
X55185233Y-90667807D01*
X55272283Y-90608258D01*
X55344805Y-90558864D01*
X55397907Y-90522955D01*
X55426697Y-90503861D01*
X55429674Y-90502016D01*
X55452618Y-90504775D01*
X55503064Y-90519418D01*
X55574359Y-90543393D01*
X55659853Y-90574146D01*
X55752893Y-90609124D01*
X55846826Y-90645773D01*
X55935001Y-90681541D01*
X56010766Y-90713874D01*
X56067469Y-90740218D01*
X56098457Y-90758022D01*
X56099943Y-90759287D01*
X56108799Y-90770174D01*
X56117557Y-90788562D01*
X56127123Y-90818486D01*
X56138404Y-90863983D01*
X56152307Y-90929089D01*
X56169737Y-91017841D01*
X56191602Y-91134273D01*
X56218809Y-91282422D01*
X56224659Y-91314498D01*
X56243026Y-91409566D01*
X56260995Y-91492445D01*
X56276831Y-91555810D01*
X56288800Y-91592338D01*
X56291590Y-91597236D01*
X56316328Y-91605307D01*
X56371610Y-91611867D01*
X56451011Y-91616913D01*
X56548104Y-91620439D01*
X56656462Y-91622441D01*
X56769660Y-91622916D01*
X56881272Y-91621857D01*
X56984871Y-91619262D01*
X57074032Y-91615126D01*
X57142328Y-91609443D01*
X57183334Y-91602211D01*
X57191726Y-91597851D01*
X57200192Y-91573578D01*
X57213965Y-91518306D01*
X57231850Y-91437542D01*
X57252652Y-91336792D01*
X57275177Y-91221563D01*
X57286982Y-91158782D01*
X57309249Y-91039667D01*
X57329421Y-90933445D01*
X57346485Y-90845307D01*
X57359431Y-90780446D01*
X57367245Y-90744054D01*
X57368978Y-90738064D01*
X57388510Y-90727941D01*
X57435557Y-90706542D01*
X57503397Y-90676719D01*
X57585309Y-90641325D01*
X57674572Y-90603212D01*
X57764465Y-90565233D01*
X57848265Y-90530240D01*
X57919253Y-90501086D01*
X57970706Y-90480623D01*
X57995903Y-90471703D01*
X57997004Y-90471537D01*
X58016881Y-90481649D01*
X58062623Y-90509997D01*
X58129683Y-90553603D01*
X58213516Y-90609486D01*
X58309574Y-90674667D01*
X58364750Y-90712559D01*
X58465919Y-90781605D01*
X58557770Y-90842930D01*
X58635656Y-90893543D01*
X58694931Y-90930451D01*
X58730949Y-90950662D01*
X58739023Y-90953581D01*
X58757816Y-90941033D01*
X58797943Y-90906343D01*
X58854907Y-90853943D01*
X58924215Y-90788264D01*
X59001369Y-90713736D01*
X59081875Y-90634793D01*
X59161237Y-90555863D01*
X59234960Y-90481380D01*
X59298548Y-90415774D01*
X59347506Y-90363476D01*
X59377339Y-90328919D01*
X59384458Y-90317358D01*
X59374447Y-90298534D01*
X59346322Y-90253511D01*
X59302946Y-90186667D01*
X59247182Y-90102379D01*
X59181894Y-90005024D01*
X59132154Y-89931587D01*
X58879849Y-89560547D01*
X59134845Y-88941975D01*
X59579469Y-88858155D01*
X60024093Y-88774334D01*
X60024093Y-87848886D01*
X59579469Y-87765066D01*
D13*
X5853520Y-80314120D02*
X6643520Y-80314120D01*
X6643520Y-87214120D02*
X5853520Y-87214120D01*
X7693520Y-85364120D02*
X7693520Y-83664120D01*
X4843520Y-86614120D02*
X4843520Y-80914120D01*
X3553520Y-83864120D02*
X4843520Y-83864120D01*
X3343520Y-84964120D02*
X3343520Y-84064120D01*
X4843520Y-85164120D02*
X3553520Y-85164120D01*
X3553520Y-83864120D02*
X3343520Y-84064120D01*
X3553520Y-85164120D02*
X3343520Y-84964120D01*
X7693520Y-82364120D02*
X7693520Y-82164120D01*
X17337000Y-30708600D02*
G75*
G03*
X17337000Y-30708600I-700000J0D01*
G01*
X6999200Y-71790560D02*
G75*
G03*
X6999200Y-71790560I-700000J0D01*
G01*
X3179040Y-71892160D02*
G75*
G03*
X3179040Y-71892160I-700000J0D01*
G01*
X3179040Y-69352160D02*
G75*
G03*
X3179040Y-69352160I-700000J0D01*
G01*
X6999200Y-69204840D02*
G75*
G03*
X6999200Y-69204840I-700000J0D01*
G01*
X5012920Y-16337280D02*
G75*
G03*
X5012920Y-16337280I-700000J0D01*
G01*
X17337000Y-28041600D02*
G75*
G03*
X17337000Y-28041600I-700000J0D01*
G01*
X3052040Y-56677560D02*
G75*
G03*
X3052040Y-56677560I-700000J0D01*
G01*
X5012920Y-13202920D02*
G75*
G03*
X5012920Y-13202920I-700000J0D01*
G01*
X5012920Y-10068560D02*
G75*
G03*
X5012920Y-10068560I-700000J0D01*
G01*
X3052040Y-54107080D02*
G75*
G03*
X3052040Y-54107080I-700000J0D01*
G01*
X3052040Y-51607720D02*
G75*
G03*
X3052040Y-51607720I-700000J0D01*
G01*
X6872200Y-36250880D02*
G75*
G03*
X6872200Y-36250880I-700000J0D01*
G01*
X6872200Y-31120080D02*
G75*
G03*
X6872200Y-31120080I-700000J0D01*
G01*
X6872200Y-33812480D02*
G75*
G03*
X6872200Y-33812480I-700000J0D01*
G01*
X3118080Y-31125160D02*
G75*
G03*
X3118080Y-31125160I-700000J0D01*
G01*
X3118080Y-33792160D02*
G75*
G03*
X3118080Y-33792160I-700000J0D01*
G01*
X6872200Y-56662320D02*
G75*
G03*
X6872200Y-56662320I-700000J0D01*
G01*
X6872200Y-54076600D02*
G75*
G03*
X6872200Y-54076600I-700000J0D01*
G01*
X17337000Y-24942800D02*
G75*
G03*
X17337000Y-24942800I-700000J0D01*
G01*
X17337000Y-20574000D02*
G75*
G03*
X17337000Y-20574000I-700000J0D01*
G01*
X17337000Y-18008600D02*
G75*
G03*
X17337000Y-18008600I-700000J0D01*
G01*
X3118080Y-36332160D02*
G75*
G03*
X3118080Y-36332160I-700000J0D01*
G01*
X6872200Y-51490880D02*
G75*
G03*
X6872200Y-51490880I-700000J0D01*
G01*
X7565840Y-64937960D02*
X7565840Y-62437960D01*
X5815840Y-66437960D02*
X3815840Y-66437960D01*
X2065840Y-64937960D02*
X2065840Y-62437960D01*
X5815840Y-60937960D02*
X3815840Y-60937960D01*
X7115840Y-65387960D02*
X7565840Y-64937960D01*
X7115840Y-61987960D02*
X7565840Y-62437960D01*
X2515840Y-61987960D02*
X2065840Y-62437960D01*
X2515840Y-65387960D02*
X2065840Y-64937960D01*
X7616640Y-44963400D02*
X7616640Y-42463400D01*
X5866640Y-46463400D02*
X3866640Y-46463400D01*
X2116640Y-44963400D02*
X2116640Y-42463400D01*
X5866640Y-40963400D02*
X3866640Y-40963400D01*
X7166640Y-45413400D02*
X7616640Y-44963400D01*
X7166640Y-42013400D02*
X7616640Y-42463400D01*
X2566640Y-42013400D02*
X2116640Y-42463400D01*
X2566640Y-45413400D02*
X2116640Y-44963400D01*
X7611560Y-24872000D02*
X7611560Y-22372000D01*
X5861560Y-26372000D02*
X3861560Y-26372000D01*
X2111560Y-24872000D02*
X2111560Y-22372000D01*
X5861560Y-20872000D02*
X3861560Y-20872000D01*
X7161560Y-25322000D02*
X7611560Y-24872000D01*
X7161560Y-21922000D02*
X7611560Y-22372000D01*
X2561560Y-21922000D02*
X2111560Y-22372000D01*
X2561560Y-25322000D02*
X2111560Y-24872000D01*
D14*
X18826693Y-15768011D02*
X19160026Y-15768011D01*
X19160026Y-16291820D02*
X19160026Y-15291820D01*
X18683836Y-15291820D01*
X17969550Y-15768011D02*
X17826693Y-15815630D01*
X17779074Y-15863249D01*
X17731455Y-15958487D01*
X17731455Y-16101344D01*
X17779074Y-16196582D01*
X17826693Y-16244201D01*
X17921931Y-16291820D01*
X18302883Y-16291820D01*
X18302883Y-15291820D01*
X17969550Y-15291820D01*
X17874312Y-15339440D01*
X17826693Y-15387059D01*
X17779074Y-15482297D01*
X17779074Y-15577535D01*
X17826693Y-15672773D01*
X17874312Y-15720392D01*
X17969550Y-15768011D01*
X18302883Y-15768011D01*
X16826693Y-15291820D02*
X17302883Y-15291820D01*
X17350502Y-15768011D01*
X17302883Y-15720392D01*
X17207645Y-15672773D01*
X16969550Y-15672773D01*
X16874312Y-15720392D01*
X16826693Y-15768011D01*
X16779074Y-15863249D01*
X16779074Y-16101344D01*
X16826693Y-16196582D01*
X16874312Y-16244201D01*
X16969550Y-16291820D01*
X17207645Y-16291820D01*
X17302883Y-16244201D01*
X17350502Y-16196582D01*
X67353773Y-41141780D02*
X67353773Y-41856066D01*
X67401392Y-41998923D01*
X67496630Y-42094161D01*
X67639487Y-42141780D01*
X67734725Y-42141780D01*
X66829963Y-42141780D02*
X66639487Y-42141780D01*
X66544249Y-42094161D01*
X66496630Y-42046542D01*
X66401392Y-41903685D01*
X66353773Y-41713209D01*
X66353773Y-41332257D01*
X66401392Y-41237019D01*
X66449011Y-41189400D01*
X66544249Y-41141780D01*
X66734725Y-41141780D01*
X66829963Y-41189400D01*
X66877582Y-41237019D01*
X66925201Y-41332257D01*
X66925201Y-41570352D01*
X66877582Y-41665590D01*
X66829963Y-41713209D01*
X66734725Y-41760828D01*
X66544249Y-41760828D01*
X66449011Y-41713209D01*
X66401392Y-41665590D01*
X66353773Y-41570352D01*
X44902285Y-44643180D02*
X44902285Y-43643180D01*
X44664190Y-43643180D01*
X44521333Y-43690800D01*
X44426095Y-43786038D01*
X44378476Y-43881276D01*
X44330857Y-44071752D01*
X44330857Y-44214609D01*
X44378476Y-44405085D01*
X44426095Y-44500323D01*
X44521333Y-44595561D01*
X44664190Y-44643180D01*
X44902285Y-44643180D01*
X43378476Y-44643180D02*
X43949904Y-44643180D01*
X43664190Y-44643180D02*
X43664190Y-43643180D01*
X43759428Y-43786038D01*
X43854666Y-43881276D01*
X43949904Y-43928895D01*
X43045142Y-43643180D02*
X42426095Y-43643180D01*
X42759428Y-44024133D01*
X42616571Y-44024133D01*
X42521333Y-44071752D01*
X42473714Y-44119371D01*
X42426095Y-44214609D01*
X42426095Y-44452704D01*
X42473714Y-44547942D01*
X42521333Y-44595561D01*
X42616571Y-44643180D01*
X42902285Y-44643180D01*
X42997523Y-44595561D01*
X43045142Y-44547942D01*
X49271085Y-50840780D02*
X49271085Y-49840780D01*
X49032990Y-49840780D01*
X48890133Y-49888400D01*
X48794895Y-49983638D01*
X48747276Y-50078876D01*
X48699657Y-50269352D01*
X48699657Y-50412209D01*
X48747276Y-50602685D01*
X48794895Y-50697923D01*
X48890133Y-50793161D01*
X49032990Y-50840780D01*
X49271085Y-50840780D01*
X47747276Y-50840780D02*
X48318704Y-50840780D01*
X48032990Y-50840780D02*
X48032990Y-49840780D01*
X48128228Y-49983638D01*
X48223466Y-50078876D01*
X48318704Y-50126495D01*
X47366323Y-49936019D02*
X47318704Y-49888400D01*
X47223466Y-49840780D01*
X46985371Y-49840780D01*
X46890133Y-49888400D01*
X46842514Y-49936019D01*
X46794895Y-50031257D01*
X46794895Y-50126495D01*
X46842514Y-50269352D01*
X47413942Y-50840780D01*
X46794895Y-50840780D01*
X52420685Y-57647980D02*
X52420685Y-56647980D01*
X52182590Y-56647980D01*
X52039733Y-56695600D01*
X51944495Y-56790838D01*
X51896876Y-56886076D01*
X51849257Y-57076552D01*
X51849257Y-57219409D01*
X51896876Y-57409885D01*
X51944495Y-57505123D01*
X52039733Y-57600361D01*
X52182590Y-57647980D01*
X52420685Y-57647980D01*
X50896876Y-57647980D02*
X51468304Y-57647980D01*
X51182590Y-57647980D02*
X51182590Y-56647980D01*
X51277828Y-56790838D01*
X51373066Y-56886076D01*
X51468304Y-56933695D01*
X49944495Y-57647980D02*
X50515923Y-57647980D01*
X50230209Y-57647980D02*
X50230209Y-56647980D01*
X50325447Y-56790838D01*
X50420685Y-56886076D01*
X50515923Y-56933695D01*
X49321885Y-64455180D02*
X49321885Y-63455180D01*
X49083790Y-63455180D01*
X48940933Y-63502800D01*
X48845695Y-63598038D01*
X48798076Y-63693276D01*
X48750457Y-63883752D01*
X48750457Y-64026609D01*
X48798076Y-64217085D01*
X48845695Y-64312323D01*
X48940933Y-64407561D01*
X49083790Y-64455180D01*
X49321885Y-64455180D01*
X47798076Y-64455180D02*
X48369504Y-64455180D01*
X48083790Y-64455180D02*
X48083790Y-63455180D01*
X48179028Y-63598038D01*
X48274266Y-63693276D01*
X48369504Y-63740895D01*
X47179028Y-63455180D02*
X47083790Y-63455180D01*
X46988552Y-63502800D01*
X46940933Y-63550419D01*
X46893314Y-63645657D01*
X46845695Y-63836133D01*
X46845695Y-64074228D01*
X46893314Y-64264704D01*
X46940933Y-64359942D01*
X46988552Y-64407561D01*
X47083790Y-64455180D01*
X47179028Y-64455180D01*
X47274266Y-64407561D01*
X47321885Y-64359942D01*
X47369504Y-64264704D01*
X47417123Y-64074228D01*
X47417123Y-63836133D01*
X47369504Y-63645657D01*
X47321885Y-63550419D01*
X47274266Y-63502800D01*
X47179028Y-63455180D01*
X44476895Y-70652780D02*
X44476895Y-69652780D01*
X44238800Y-69652780D01*
X44095942Y-69700400D01*
X44000704Y-69795638D01*
X43953085Y-69890876D01*
X43905466Y-70081352D01*
X43905466Y-70224209D01*
X43953085Y-70414685D01*
X44000704Y-70509923D01*
X44095942Y-70605161D01*
X44238800Y-70652780D01*
X44476895Y-70652780D01*
X43429276Y-70652780D02*
X43238800Y-70652780D01*
X43143561Y-70605161D01*
X43095942Y-70557542D01*
X43000704Y-70414685D01*
X42953085Y-70224209D01*
X42953085Y-69843257D01*
X43000704Y-69748019D01*
X43048323Y-69700400D01*
X43143561Y-69652780D01*
X43334038Y-69652780D01*
X43429276Y-69700400D01*
X43476895Y-69748019D01*
X43524514Y-69843257D01*
X43524514Y-70081352D01*
X43476895Y-70176590D01*
X43429276Y-70224209D01*
X43334038Y-70271828D01*
X43143561Y-70271828D01*
X43048323Y-70224209D01*
X43000704Y-70176590D01*
X42953085Y-70081352D01*
X36958495Y-71262380D02*
X36958495Y-70262380D01*
X36720400Y-70262380D01*
X36577542Y-70310000D01*
X36482304Y-70405238D01*
X36434685Y-70500476D01*
X36387066Y-70690952D01*
X36387066Y-70833809D01*
X36434685Y-71024285D01*
X36482304Y-71119523D01*
X36577542Y-71214761D01*
X36720400Y-71262380D01*
X36958495Y-71262380D01*
X35815638Y-70690952D02*
X35910876Y-70643333D01*
X35958495Y-70595714D01*
X36006114Y-70500476D01*
X36006114Y-70452857D01*
X35958495Y-70357619D01*
X35910876Y-70310000D01*
X35815638Y-70262380D01*
X35625161Y-70262380D01*
X35529923Y-70310000D01*
X35482304Y-70357619D01*
X35434685Y-70452857D01*
X35434685Y-70500476D01*
X35482304Y-70595714D01*
X35529923Y-70643333D01*
X35625161Y-70690952D01*
X35815638Y-70690952D01*
X35910876Y-70738571D01*
X35958495Y-70786190D01*
X36006114Y-70881428D01*
X36006114Y-71071904D01*
X35958495Y-71167142D01*
X35910876Y-71214761D01*
X35815638Y-71262380D01*
X35625161Y-71262380D01*
X35529923Y-71214761D01*
X35482304Y-71167142D01*
X35434685Y-71071904D01*
X35434685Y-70881428D01*
X35482304Y-70786190D01*
X35529923Y-70738571D01*
X35625161Y-70690952D01*
X29490895Y-70601980D02*
X29490895Y-69601980D01*
X29252800Y-69601980D01*
X29109942Y-69649600D01*
X29014704Y-69744838D01*
X28967085Y-69840076D01*
X28919466Y-70030552D01*
X28919466Y-70173409D01*
X28967085Y-70363885D01*
X29014704Y-70459123D01*
X29109942Y-70554361D01*
X29252800Y-70601980D01*
X29490895Y-70601980D01*
X28586133Y-69601980D02*
X27919466Y-69601980D01*
X28348038Y-70601980D01*
X25071295Y-64556780D02*
X25071295Y-63556780D01*
X24833200Y-63556780D01*
X24690342Y-63604400D01*
X24595104Y-63699638D01*
X24547485Y-63794876D01*
X24499866Y-63985352D01*
X24499866Y-64128209D01*
X24547485Y-64318685D01*
X24595104Y-64413923D01*
X24690342Y-64509161D01*
X24833200Y-64556780D01*
X25071295Y-64556780D01*
X23642723Y-63556780D02*
X23833200Y-63556780D01*
X23928438Y-63604400D01*
X23976057Y-63652019D01*
X24071295Y-63794876D01*
X24118914Y-63985352D01*
X24118914Y-64366304D01*
X24071295Y-64461542D01*
X24023676Y-64509161D01*
X23928438Y-64556780D01*
X23737961Y-64556780D01*
X23642723Y-64509161D01*
X23595104Y-64461542D01*
X23547485Y-64366304D01*
X23547485Y-64128209D01*
X23595104Y-64032971D01*
X23642723Y-63985352D01*
X23737961Y-63937733D01*
X23928438Y-63937733D01*
X24023676Y-63985352D01*
X24071295Y-64032971D01*
X24118914Y-64128209D01*
X21972495Y-57698780D02*
X21972495Y-56698780D01*
X21734400Y-56698780D01*
X21591542Y-56746400D01*
X21496304Y-56841638D01*
X21448685Y-56936876D01*
X21401066Y-57127352D01*
X21401066Y-57270209D01*
X21448685Y-57460685D01*
X21496304Y-57555923D01*
X21591542Y-57651161D01*
X21734400Y-57698780D01*
X21972495Y-57698780D01*
X20496304Y-56698780D02*
X20972495Y-56698780D01*
X21020114Y-57174971D01*
X20972495Y-57127352D01*
X20877257Y-57079733D01*
X20639161Y-57079733D01*
X20543923Y-57127352D01*
X20496304Y-57174971D01*
X20448685Y-57270209D01*
X20448685Y-57508304D01*
X20496304Y-57603542D01*
X20543923Y-57651161D01*
X20639161Y-57698780D01*
X20877257Y-57698780D01*
X20972495Y-57651161D01*
X21020114Y-57603542D01*
X25122095Y-50840780D02*
X25122095Y-49840780D01*
X24884000Y-49840780D01*
X24741142Y-49888400D01*
X24645904Y-49983638D01*
X24598285Y-50078876D01*
X24550666Y-50269352D01*
X24550666Y-50412209D01*
X24598285Y-50602685D01*
X24645904Y-50697923D01*
X24741142Y-50793161D01*
X24884000Y-50840780D01*
X25122095Y-50840780D01*
X23693523Y-50174114D02*
X23693523Y-50840780D01*
X23931619Y-49793161D02*
X24169714Y-50507447D01*
X23550666Y-50507447D01*
X29440095Y-44744780D02*
X29440095Y-43744780D01*
X29202000Y-43744780D01*
X29059142Y-43792400D01*
X28963904Y-43887638D01*
X28916285Y-43982876D01*
X28868666Y-44173352D01*
X28868666Y-44316209D01*
X28916285Y-44506685D01*
X28963904Y-44601923D01*
X29059142Y-44697161D01*
X29202000Y-44744780D01*
X29440095Y-44744780D01*
X28535333Y-43744780D02*
X27916285Y-43744780D01*
X28249619Y-44125733D01*
X28106761Y-44125733D01*
X28011523Y-44173352D01*
X27963904Y-44220971D01*
X27916285Y-44316209D01*
X27916285Y-44554304D01*
X27963904Y-44649542D01*
X28011523Y-44697161D01*
X28106761Y-44744780D01*
X28392476Y-44744780D01*
X28487714Y-44697161D01*
X28535333Y-44649542D01*
X36958495Y-43982780D02*
X36958495Y-42982780D01*
X36720400Y-42982780D01*
X36577542Y-43030400D01*
X36482304Y-43125638D01*
X36434685Y-43220876D01*
X36387066Y-43411352D01*
X36387066Y-43554209D01*
X36434685Y-43744685D01*
X36482304Y-43839923D01*
X36577542Y-43935161D01*
X36720400Y-43982780D01*
X36958495Y-43982780D01*
X36006114Y-43078019D02*
X35958495Y-43030400D01*
X35863257Y-42982780D01*
X35625161Y-42982780D01*
X35529923Y-43030400D01*
X35482304Y-43078019D01*
X35434685Y-43173257D01*
X35434685Y-43268495D01*
X35482304Y-43411352D01*
X36053733Y-43982780D01*
X35434685Y-43982780D01*
X56706615Y-76723500D02*
X56706615Y-75723500D01*
X56468520Y-75723500D01*
X56325662Y-75771120D01*
X56230424Y-75866358D01*
X56182805Y-75961596D01*
X56135186Y-76152072D01*
X56135186Y-76294929D01*
X56182805Y-76485405D01*
X56230424Y-76580643D01*
X56325662Y-76675881D01*
X56468520Y-76723500D01*
X56706615Y-76723500D01*
X55706615Y-76723500D02*
X55706615Y-75723500D01*
X55325662Y-75723500D01*
X55230424Y-75771120D01*
X55182805Y-75818739D01*
X55135186Y-75913977D01*
X55135186Y-76056834D01*
X55182805Y-76152072D01*
X55230424Y-76199691D01*
X55325662Y-76247310D01*
X55706615Y-76247310D01*
X54801853Y-75723500D02*
X54182805Y-75723500D01*
X54516139Y-76104453D01*
X54373281Y-76104453D01*
X54278043Y-76152072D01*
X54230424Y-76199691D01*
X54182805Y-76294929D01*
X54182805Y-76533024D01*
X54230424Y-76628262D01*
X54278043Y-76675881D01*
X54373281Y-76723500D01*
X54658996Y-76723500D01*
X54754234Y-76675881D01*
X54801853Y-76628262D01*
X56778043Y-78958700D02*
X56778043Y-77958700D01*
X56539948Y-77958700D01*
X56397091Y-78006320D01*
X56301853Y-78101558D01*
X56254234Y-78196796D01*
X56206615Y-78387272D01*
X56206615Y-78530129D01*
X56254234Y-78720605D01*
X56301853Y-78815843D01*
X56397091Y-78911081D01*
X56539948Y-78958700D01*
X56778043Y-78958700D01*
X55778043Y-78958700D02*
X55778043Y-77958700D01*
X55444710Y-78672986D01*
X55111377Y-77958700D01*
X55111377Y-78958700D01*
X54730424Y-77958700D02*
X54111377Y-77958700D01*
X54444710Y-78339653D01*
X54301853Y-78339653D01*
X54206615Y-78387272D01*
X54158996Y-78434891D01*
X54111377Y-78530129D01*
X54111377Y-78768224D01*
X54158996Y-78863462D01*
X54206615Y-78911081D01*
X54301853Y-78958700D01*
X54587567Y-78958700D01*
X54682805Y-78911081D01*
X54730424Y-78863462D01*
X21601180Y-17557904D02*
X22410704Y-17557904D01*
X22505942Y-17605523D01*
X22553561Y-17653142D01*
X22601180Y-17748380D01*
X22601180Y-17938857D01*
X22553561Y-18034095D01*
X22505942Y-18081714D01*
X22410704Y-18129333D01*
X21601180Y-18129333D01*
X22601180Y-19129333D02*
X22601180Y-18557904D01*
X22601180Y-18843619D02*
X21601180Y-18843619D01*
X21744038Y-18748380D01*
X21839276Y-18653142D01*
X21886895Y-18557904D01*
X21601180Y-19748380D02*
X21601180Y-19843619D01*
X21648800Y-19938857D01*
X21696419Y-19986476D01*
X21791657Y-20034095D01*
X21982133Y-20081714D01*
X22220228Y-20081714D01*
X22410704Y-20034095D01*
X22505942Y-19986476D01*
X22553561Y-19938857D01*
X22601180Y-19843619D01*
X22601180Y-19748380D01*
X22553561Y-19653142D01*
X22505942Y-19605523D01*
X22410704Y-19557904D01*
X22220228Y-19510285D01*
X21982133Y-19510285D01*
X21791657Y-19557904D01*
X21696419Y-19605523D01*
X21648800Y-19653142D01*
X21601180Y-19748380D01*
X27524460Y-87600944D02*
X28333984Y-87600944D01*
X28429222Y-87648563D01*
X28476841Y-87696182D01*
X28524460Y-87791420D01*
X28524460Y-87981897D01*
X28476841Y-88077135D01*
X28429222Y-88124754D01*
X28333984Y-88172373D01*
X27524460Y-88172373D01*
X28524460Y-89172373D02*
X28524460Y-88600944D01*
X28524460Y-88886659D02*
X27524460Y-88886659D01*
X27667318Y-88791420D01*
X27762556Y-88696182D01*
X27810175Y-88600944D01*
X28524460Y-90124754D02*
X28524460Y-89553325D01*
X28524460Y-89839040D02*
X27524460Y-89839040D01*
X27667318Y-89743801D01*
X27762556Y-89648563D01*
X27810175Y-89553325D01*
X26334933Y-93546891D02*
X26668266Y-93546891D01*
X26668266Y-94070700D02*
X26668266Y-93070700D01*
X26192076Y-93070700D01*
X25477790Y-93546891D02*
X25334933Y-93594510D01*
X25287314Y-93642129D01*
X25239695Y-93737367D01*
X25239695Y-93880224D01*
X25287314Y-93975462D01*
X25334933Y-94023081D01*
X25430171Y-94070700D01*
X25811123Y-94070700D01*
X25811123Y-93070700D01*
X25477790Y-93070700D01*
X25382552Y-93118320D01*
X25334933Y-93165939D01*
X25287314Y-93261177D01*
X25287314Y-93356415D01*
X25334933Y-93451653D01*
X25382552Y-93499272D01*
X25477790Y-93546891D01*
X25811123Y-93546891D01*
X24382552Y-93070700D02*
X24573028Y-93070700D01*
X24668266Y-93118320D01*
X24715885Y-93165939D01*
X24811123Y-93308796D01*
X24858742Y-93499272D01*
X24858742Y-93880224D01*
X24811123Y-93975462D01*
X24763504Y-94023081D01*
X24668266Y-94070700D01*
X24477790Y-94070700D01*
X24382552Y-94023081D01*
X24334933Y-93975462D01*
X24287314Y-93880224D01*
X24287314Y-93642129D01*
X24334933Y-93546891D01*
X24382552Y-93499272D01*
X24477790Y-93451653D01*
X24668266Y-93451653D01*
X24763504Y-93499272D01*
X24811123Y-93546891D01*
X24858742Y-93642129D01*
X10178281Y-82430786D02*
X10225900Y-82573643D01*
X10225900Y-82811739D01*
X10178281Y-82906977D01*
X10130662Y-82954596D01*
X10035424Y-83002215D01*
X9940186Y-83002215D01*
X9844948Y-82954596D01*
X9797329Y-82906977D01*
X9749710Y-82811739D01*
X9702091Y-82621262D01*
X9654472Y-82526024D01*
X9606853Y-82478405D01*
X9511615Y-82430786D01*
X9416377Y-82430786D01*
X9321139Y-82478405D01*
X9273520Y-82526024D01*
X9225900Y-82621262D01*
X9225900Y-82859358D01*
X9273520Y-83002215D01*
X9225900Y-83335548D02*
X10225900Y-83573643D01*
X9511615Y-83764120D01*
X10225900Y-83954596D01*
X9225900Y-84192691D01*
X10225900Y-85097453D02*
X10225900Y-84526024D01*
X10225900Y-84811739D02*
X9225900Y-84811739D01*
X9368758Y-84716500D01*
X9463996Y-84621262D01*
X9511615Y-84526024D01*
X2775900Y-81026024D02*
X1775900Y-81026024D01*
X2490186Y-81359358D01*
X1775900Y-81692691D01*
X2775900Y-81692691D01*
X2109234Y-82597453D02*
X2775900Y-82597453D01*
X2109234Y-82168881D02*
X2633043Y-82168881D01*
X2728281Y-82216500D01*
X2775900Y-82311739D01*
X2775900Y-82454596D01*
X2728281Y-82549834D01*
X2680662Y-82597453D01*
X2109234Y-82930786D02*
X2109234Y-83311739D01*
X1775900Y-83073643D02*
X2633043Y-83073643D01*
X2728281Y-83121262D01*
X2775900Y-83216500D01*
X2775900Y-83311739D01*
X2728281Y-84026024D02*
X2775900Y-83930786D01*
X2775900Y-83740310D01*
X2728281Y-83645072D01*
X2633043Y-83597453D01*
X2252091Y-83597453D01*
X2156853Y-83645072D01*
X2109234Y-83740310D01*
X2109234Y-83930786D01*
X2156853Y-84026024D01*
X2252091Y-84073643D01*
X2347329Y-84073643D01*
X2442567Y-83597453D01*
X2775900Y-84502215D02*
X1775900Y-84502215D01*
X2490186Y-84835548D01*
X1775900Y-85168881D01*
X2775900Y-85168881D01*
X2775900Y-85645072D02*
X2109234Y-85645072D01*
X1775900Y-85645072D02*
X1823520Y-85597453D01*
X1871139Y-85645072D01*
X1823520Y-85692691D01*
X1775900Y-85645072D01*
X1871139Y-85645072D01*
X2728281Y-86549834D02*
X2775900Y-86454596D01*
X2775900Y-86264120D01*
X2728281Y-86168881D01*
X2680662Y-86121262D01*
X2585424Y-86073643D01*
X2299710Y-86073643D01*
X2204472Y-86121262D01*
X2156853Y-86168881D01*
X2109234Y-86264120D01*
X2109234Y-86454596D01*
X2156853Y-86549834D01*
D10*
X19466927Y-30617670D02*
X19181213Y-30617670D01*
X19324070Y-31117670D02*
X19324070Y-30617670D01*
X19014546Y-31117670D02*
X19014546Y-30617670D01*
X18824070Y-30617670D01*
X18776451Y-30641480D01*
X18752641Y-30665289D01*
X18728832Y-30712908D01*
X18728832Y-30784337D01*
X18752641Y-30831956D01*
X18776451Y-30855765D01*
X18824070Y-30879575D01*
X19014546Y-30879575D01*
X18538356Y-30665289D02*
X18514546Y-30641480D01*
X18466927Y-30617670D01*
X18347880Y-30617670D01*
X18300260Y-30641480D01*
X18276451Y-30665289D01*
X18252641Y-30712908D01*
X18252641Y-30760527D01*
X18276451Y-30831956D01*
X18562165Y-31117670D01*
X18252641Y-31117670D01*
X18085975Y-30617670D02*
X17752641Y-30617670D01*
X17966927Y-31117670D01*
X10165447Y-71755510D02*
X9879733Y-71755510D01*
X10022590Y-72255510D02*
X10022590Y-71755510D01*
X9713066Y-72255510D02*
X9713066Y-71755510D01*
X9522590Y-71755510D01*
X9474971Y-71779320D01*
X9451161Y-71803129D01*
X9427352Y-71850748D01*
X9427352Y-71922177D01*
X9451161Y-71969796D01*
X9474971Y-71993605D01*
X9522590Y-72017415D01*
X9713066Y-72017415D01*
X9236876Y-71803129D02*
X9213066Y-71779320D01*
X9165447Y-71755510D01*
X9046400Y-71755510D01*
X8998780Y-71779320D01*
X8974971Y-71803129D01*
X8951161Y-71850748D01*
X8951161Y-71898367D01*
X8974971Y-71969796D01*
X9260685Y-72255510D01*
X8951161Y-72255510D01*
X8522590Y-71755510D02*
X8617828Y-71755510D01*
X8665447Y-71779320D01*
X8689257Y-71803129D01*
X8736876Y-71874558D01*
X8760685Y-71969796D01*
X8760685Y-72160272D01*
X8736876Y-72207891D01*
X8713066Y-72231700D01*
X8665447Y-72255510D01*
X8570209Y-72255510D01*
X8522590Y-72231700D01*
X8498780Y-72207891D01*
X8474971Y-72160272D01*
X8474971Y-72041224D01*
X8498780Y-71993605D01*
X8522590Y-71969796D01*
X8570209Y-71945986D01*
X8665447Y-71945986D01*
X8713066Y-71969796D01*
X8736876Y-71993605D01*
X8760685Y-72041224D01*
X3602087Y-73066150D02*
X3316373Y-73066150D01*
X3459230Y-73566150D02*
X3459230Y-73066150D01*
X3149706Y-73566150D02*
X3149706Y-73066150D01*
X2959230Y-73066150D01*
X2911611Y-73089960D01*
X2887801Y-73113769D01*
X2863992Y-73161388D01*
X2863992Y-73232817D01*
X2887801Y-73280436D01*
X2911611Y-73304245D01*
X2959230Y-73328055D01*
X3149706Y-73328055D01*
X2673516Y-73113769D02*
X2649706Y-73089960D01*
X2602087Y-73066150D01*
X2483040Y-73066150D01*
X2435420Y-73089960D01*
X2411611Y-73113769D01*
X2387801Y-73161388D01*
X2387801Y-73209007D01*
X2411611Y-73280436D01*
X2697325Y-73566150D01*
X2387801Y-73566150D01*
X1911611Y-73566150D02*
X2197325Y-73566150D01*
X2054468Y-73566150D02*
X2054468Y-73066150D01*
X2102087Y-73137579D01*
X2149706Y-73185198D01*
X2197325Y-73209007D01*
X3718927Y-67488310D02*
X3433213Y-67488310D01*
X3576070Y-67988310D02*
X3576070Y-67488310D01*
X3266546Y-67988310D02*
X3266546Y-67488310D01*
X3076070Y-67488310D01*
X3028451Y-67512120D01*
X3004641Y-67535929D01*
X2980832Y-67583548D01*
X2980832Y-67654977D01*
X3004641Y-67702596D01*
X3028451Y-67726405D01*
X3076070Y-67750215D01*
X3266546Y-67750215D01*
X2790356Y-67535929D02*
X2766546Y-67512120D01*
X2718927Y-67488310D01*
X2599880Y-67488310D01*
X2552260Y-67512120D01*
X2528451Y-67535929D01*
X2504641Y-67583548D01*
X2504641Y-67631167D01*
X2528451Y-67702596D01*
X2814165Y-67988310D01*
X2504641Y-67988310D01*
X2195118Y-67488310D02*
X2147499Y-67488310D01*
X2099880Y-67512120D01*
X2076070Y-67535929D01*
X2052260Y-67583548D01*
X2028451Y-67678786D01*
X2028451Y-67797834D01*
X2052260Y-67893072D01*
X2076070Y-67940691D01*
X2099880Y-67964500D01*
X2147499Y-67988310D01*
X2195118Y-67988310D01*
X2242737Y-67964500D01*
X2266546Y-67940691D01*
X2290356Y-67893072D01*
X2314165Y-67797834D01*
X2314165Y-67678786D01*
X2290356Y-67583548D01*
X2266546Y-67535929D01*
X2242737Y-67512120D01*
X2195118Y-67488310D01*
X10129887Y-69042790D02*
X9844173Y-69042790D01*
X9987030Y-69542790D02*
X9987030Y-69042790D01*
X9677506Y-69542790D02*
X9677506Y-69042790D01*
X9487030Y-69042790D01*
X9439411Y-69066600D01*
X9415601Y-69090409D01*
X9391792Y-69138028D01*
X9391792Y-69209457D01*
X9415601Y-69257076D01*
X9439411Y-69280885D01*
X9487030Y-69304695D01*
X9677506Y-69304695D01*
X8915601Y-69542790D02*
X9201316Y-69542790D01*
X9058459Y-69542790D02*
X9058459Y-69042790D01*
X9106078Y-69114219D01*
X9153697Y-69161838D01*
X9201316Y-69185647D01*
X8677506Y-69542790D02*
X8582268Y-69542790D01*
X8534649Y-69518980D01*
X8510840Y-69495171D01*
X8463220Y-69423742D01*
X8439411Y-69328504D01*
X8439411Y-69138028D01*
X8463220Y-69090409D01*
X8487030Y-69066600D01*
X8534649Y-69042790D01*
X8629887Y-69042790D01*
X8677506Y-69066600D01*
X8701316Y-69090409D01*
X8725125Y-69138028D01*
X8725125Y-69257076D01*
X8701316Y-69304695D01*
X8677506Y-69328504D01*
X8629887Y-69352314D01*
X8534649Y-69352314D01*
X8487030Y-69328504D01*
X8463220Y-69304695D01*
X8439411Y-69257076D01*
X3216007Y-16226030D02*
X2930293Y-16226030D01*
X3073150Y-16726030D02*
X3073150Y-16226030D01*
X2763626Y-16726030D02*
X2763626Y-16226030D01*
X2573150Y-16226030D01*
X2525531Y-16249840D01*
X2501721Y-16273649D01*
X2477912Y-16321268D01*
X2477912Y-16392697D01*
X2501721Y-16440316D01*
X2525531Y-16464125D01*
X2573150Y-16487935D01*
X2763626Y-16487935D01*
X2001721Y-16726030D02*
X2287436Y-16726030D01*
X2144579Y-16726030D02*
X2144579Y-16226030D01*
X2192198Y-16297459D01*
X2239817Y-16345078D01*
X2287436Y-16368887D01*
X1716007Y-16440316D02*
X1763626Y-16416506D01*
X1787436Y-16392697D01*
X1811245Y-16345078D01*
X1811245Y-16321268D01*
X1787436Y-16273649D01*
X1763626Y-16249840D01*
X1716007Y-16226030D01*
X1620769Y-16226030D01*
X1573150Y-16249840D01*
X1549340Y-16273649D01*
X1525531Y-16321268D01*
X1525531Y-16345078D01*
X1549340Y-16392697D01*
X1573150Y-16416506D01*
X1620769Y-16440316D01*
X1716007Y-16440316D01*
X1763626Y-16464125D01*
X1787436Y-16487935D01*
X1811245Y-16535554D01*
X1811245Y-16630792D01*
X1787436Y-16678411D01*
X1763626Y-16702220D01*
X1716007Y-16726030D01*
X1620769Y-16726030D01*
X1573150Y-16702220D01*
X1549340Y-16678411D01*
X1525531Y-16630792D01*
X1525531Y-16535554D01*
X1549340Y-16487935D01*
X1573150Y-16464125D01*
X1620769Y-16440316D01*
X19380567Y-27823670D02*
X19094853Y-27823670D01*
X19237710Y-28323670D02*
X19237710Y-27823670D01*
X18928186Y-28323670D02*
X18928186Y-27823670D01*
X18737710Y-27823670D01*
X18690091Y-27847480D01*
X18666281Y-27871289D01*
X18642472Y-27918908D01*
X18642472Y-27990337D01*
X18666281Y-28037956D01*
X18690091Y-28061765D01*
X18737710Y-28085575D01*
X18928186Y-28085575D01*
X18166281Y-28323670D02*
X18451996Y-28323670D01*
X18309139Y-28323670D02*
X18309139Y-27823670D01*
X18356758Y-27895099D01*
X18404377Y-27942718D01*
X18451996Y-27966527D01*
X17999615Y-27823670D02*
X17666281Y-27823670D01*
X17880567Y-28323670D01*
X3195687Y-57678830D02*
X2909973Y-57678830D01*
X3052830Y-58178830D02*
X3052830Y-57678830D01*
X2743306Y-58178830D02*
X2743306Y-57678830D01*
X2552830Y-57678830D01*
X2505211Y-57702640D01*
X2481401Y-57726449D01*
X2457592Y-57774068D01*
X2457592Y-57845497D01*
X2481401Y-57893116D01*
X2505211Y-57916925D01*
X2552830Y-57940735D01*
X2743306Y-57940735D01*
X1981401Y-58178830D02*
X2267116Y-58178830D01*
X2124259Y-58178830D02*
X2124259Y-57678830D01*
X2171878Y-57750259D01*
X2219497Y-57797878D01*
X2267116Y-57821687D01*
X1552830Y-57678830D02*
X1648068Y-57678830D01*
X1695687Y-57702640D01*
X1719497Y-57726449D01*
X1767116Y-57797878D01*
X1790925Y-57893116D01*
X1790925Y-58083592D01*
X1767116Y-58131211D01*
X1743306Y-58155020D01*
X1695687Y-58178830D01*
X1600449Y-58178830D01*
X1552830Y-58155020D01*
X1529020Y-58131211D01*
X1505211Y-58083592D01*
X1505211Y-57964544D01*
X1529020Y-57916925D01*
X1552830Y-57893116D01*
X1600449Y-57869306D01*
X1695687Y-57869306D01*
X1743306Y-57893116D01*
X1767116Y-57916925D01*
X1790925Y-57964544D01*
X3216007Y-12979910D02*
X2930293Y-12979910D01*
X3073150Y-13479910D02*
X3073150Y-12979910D01*
X2763626Y-13479910D02*
X2763626Y-12979910D01*
X2573150Y-12979910D01*
X2525531Y-13003720D01*
X2501721Y-13027529D01*
X2477912Y-13075148D01*
X2477912Y-13146577D01*
X2501721Y-13194196D01*
X2525531Y-13218005D01*
X2573150Y-13241815D01*
X2763626Y-13241815D01*
X2001721Y-13479910D02*
X2287436Y-13479910D01*
X2144579Y-13479910D02*
X2144579Y-12979910D01*
X2192198Y-13051339D01*
X2239817Y-13098958D01*
X2287436Y-13122767D01*
X1549340Y-12979910D02*
X1787436Y-12979910D01*
X1811245Y-13218005D01*
X1787436Y-13194196D01*
X1739817Y-13170386D01*
X1620769Y-13170386D01*
X1573150Y-13194196D01*
X1549340Y-13218005D01*
X1525531Y-13265624D01*
X1525531Y-13384672D01*
X1549340Y-13432291D01*
X1573150Y-13456100D01*
X1620769Y-13479910D01*
X1739817Y-13479910D01*
X1787436Y-13456100D01*
X1811245Y-13432291D01*
X3200767Y-9794750D02*
X2915053Y-9794750D01*
X3057910Y-10294750D02*
X3057910Y-9794750D01*
X2748386Y-10294750D02*
X2748386Y-9794750D01*
X2557910Y-9794750D01*
X2510291Y-9818560D01*
X2486481Y-9842369D01*
X2462672Y-9889988D01*
X2462672Y-9961417D01*
X2486481Y-10009036D01*
X2510291Y-10032845D01*
X2557910Y-10056655D01*
X2748386Y-10056655D01*
X1986481Y-10294750D02*
X2272196Y-10294750D01*
X2129339Y-10294750D02*
X2129339Y-9794750D01*
X2176958Y-9866179D01*
X2224577Y-9913798D01*
X2272196Y-9937607D01*
X1557910Y-9961417D02*
X1557910Y-10294750D01*
X1676958Y-9770940D02*
X1796005Y-10128083D01*
X1486481Y-10128083D01*
X3175367Y-55082950D02*
X2889653Y-55082950D01*
X3032510Y-55582950D02*
X3032510Y-55082950D01*
X2722986Y-55582950D02*
X2722986Y-55082950D01*
X2532510Y-55082950D01*
X2484891Y-55106760D01*
X2461081Y-55130569D01*
X2437272Y-55178188D01*
X2437272Y-55249617D01*
X2461081Y-55297236D01*
X2484891Y-55321045D01*
X2532510Y-55344855D01*
X2722986Y-55344855D01*
X1961081Y-55582950D02*
X2246796Y-55582950D01*
X2103939Y-55582950D02*
X2103939Y-55082950D01*
X2151558Y-55154379D01*
X2199177Y-55201998D01*
X2246796Y-55225807D01*
X1794415Y-55082950D02*
X1484891Y-55082950D01*
X1651558Y-55273426D01*
X1580129Y-55273426D01*
X1532510Y-55297236D01*
X1508700Y-55321045D01*
X1484891Y-55368664D01*
X1484891Y-55487712D01*
X1508700Y-55535331D01*
X1532510Y-55559140D01*
X1580129Y-55582950D01*
X1722986Y-55582950D01*
X1770605Y-55559140D01*
X1794415Y-55535331D01*
X3226167Y-52522630D02*
X2940453Y-52522630D01*
X3083310Y-53022630D02*
X3083310Y-52522630D01*
X2773786Y-53022630D02*
X2773786Y-52522630D01*
X2583310Y-52522630D01*
X2535691Y-52546440D01*
X2511881Y-52570249D01*
X2488072Y-52617868D01*
X2488072Y-52689297D01*
X2511881Y-52736916D01*
X2535691Y-52760725D01*
X2583310Y-52784535D01*
X2773786Y-52784535D01*
X2011881Y-53022630D02*
X2297596Y-53022630D01*
X2154739Y-53022630D02*
X2154739Y-52522630D01*
X2202358Y-52594059D01*
X2249977Y-52641678D01*
X2297596Y-52665487D01*
X1821405Y-52570249D02*
X1797596Y-52546440D01*
X1749977Y-52522630D01*
X1630929Y-52522630D01*
X1583310Y-52546440D01*
X1559500Y-52570249D01*
X1535691Y-52617868D01*
X1535691Y-52665487D01*
X1559500Y-52736916D01*
X1845215Y-53022630D01*
X1535691Y-53022630D01*
X7041247Y-37318190D02*
X6755533Y-37318190D01*
X6898390Y-37818190D02*
X6898390Y-37318190D01*
X6588866Y-37818190D02*
X6588866Y-37318190D01*
X6398390Y-37318190D01*
X6350771Y-37342000D01*
X6326961Y-37365809D01*
X6303152Y-37413428D01*
X6303152Y-37484857D01*
X6326961Y-37532476D01*
X6350771Y-37556285D01*
X6398390Y-37580095D01*
X6588866Y-37580095D01*
X5826961Y-37818190D02*
X6112676Y-37818190D01*
X5969819Y-37818190D02*
X5969819Y-37318190D01*
X6017438Y-37389619D01*
X6065057Y-37437238D01*
X6112676Y-37461047D01*
X5350771Y-37818190D02*
X5636485Y-37818190D01*
X5493628Y-37818190D02*
X5493628Y-37318190D01*
X5541247Y-37389619D01*
X5588866Y-37437238D01*
X5636485Y-37461047D01*
X7000607Y-32177230D02*
X6714893Y-32177230D01*
X6857750Y-32677230D02*
X6857750Y-32177230D01*
X6548226Y-32677230D02*
X6548226Y-32177230D01*
X6357750Y-32177230D01*
X6310131Y-32201040D01*
X6286321Y-32224849D01*
X6262512Y-32272468D01*
X6262512Y-32343897D01*
X6286321Y-32391516D01*
X6310131Y-32415325D01*
X6357750Y-32439135D01*
X6548226Y-32439135D01*
X5786321Y-32677230D02*
X6072036Y-32677230D01*
X5929179Y-32677230D02*
X5929179Y-32177230D01*
X5976798Y-32248659D01*
X6024417Y-32296278D01*
X6072036Y-32320087D01*
X5476798Y-32177230D02*
X5429179Y-32177230D01*
X5381560Y-32201040D01*
X5357750Y-32224849D01*
X5333940Y-32272468D01*
X5310131Y-32367706D01*
X5310131Y-32486754D01*
X5333940Y-32581992D01*
X5357750Y-32629611D01*
X5381560Y-32653420D01*
X5429179Y-32677230D01*
X5476798Y-32677230D01*
X5524417Y-32653420D01*
X5548226Y-32629611D01*
X5572036Y-32581992D01*
X5595845Y-32486754D01*
X5595845Y-32367706D01*
X5572036Y-32272468D01*
X5548226Y-32224849D01*
X5524417Y-32201040D01*
X5476798Y-32177230D01*
X6808232Y-34823910D02*
X6522518Y-34823910D01*
X6665375Y-35323910D02*
X6665375Y-34823910D01*
X6355851Y-35323910D02*
X6355851Y-34823910D01*
X6165375Y-34823910D01*
X6117756Y-34847720D01*
X6093946Y-34871529D01*
X6070137Y-34919148D01*
X6070137Y-34990577D01*
X6093946Y-35038196D01*
X6117756Y-35062005D01*
X6165375Y-35085815D01*
X6355851Y-35085815D01*
X5832041Y-35323910D02*
X5736803Y-35323910D01*
X5689184Y-35300100D01*
X5665375Y-35276291D01*
X5617756Y-35204862D01*
X5593946Y-35109624D01*
X5593946Y-34919148D01*
X5617756Y-34871529D01*
X5641565Y-34847720D01*
X5689184Y-34823910D01*
X5784422Y-34823910D01*
X5832041Y-34847720D01*
X5855851Y-34871529D01*
X5879660Y-34919148D01*
X5879660Y-35038196D01*
X5855851Y-35085815D01*
X5832041Y-35109624D01*
X5784422Y-35133434D01*
X5689184Y-35133434D01*
X5641565Y-35109624D01*
X5617756Y-35085815D01*
X5593946Y-35038196D01*
X2947432Y-32131510D02*
X2661718Y-32131510D01*
X2804575Y-32631510D02*
X2804575Y-32131510D01*
X2495051Y-32631510D02*
X2495051Y-32131510D01*
X2304575Y-32131510D01*
X2256956Y-32155320D01*
X2233146Y-32179129D01*
X2209337Y-32226748D01*
X2209337Y-32298177D01*
X2233146Y-32345796D01*
X2256956Y-32369605D01*
X2304575Y-32393415D01*
X2495051Y-32393415D01*
X1923622Y-32345796D02*
X1971241Y-32321986D01*
X1995051Y-32298177D01*
X2018860Y-32250558D01*
X2018860Y-32226748D01*
X1995051Y-32179129D01*
X1971241Y-32155320D01*
X1923622Y-32131510D01*
X1828384Y-32131510D01*
X1780765Y-32155320D01*
X1756956Y-32179129D01*
X1733146Y-32226748D01*
X1733146Y-32250558D01*
X1756956Y-32298177D01*
X1780765Y-32321986D01*
X1828384Y-32345796D01*
X1923622Y-32345796D01*
X1971241Y-32369605D01*
X1995051Y-32393415D01*
X2018860Y-32441034D01*
X2018860Y-32536272D01*
X1995051Y-32583891D01*
X1971241Y-32607700D01*
X1923622Y-32631510D01*
X1828384Y-32631510D01*
X1780765Y-32607700D01*
X1756956Y-32583891D01*
X1733146Y-32536272D01*
X1733146Y-32441034D01*
X1756956Y-32393415D01*
X1780765Y-32369605D01*
X1828384Y-32345796D01*
X2988072Y-34762950D02*
X2702358Y-34762950D01*
X2845215Y-35262950D02*
X2845215Y-34762950D01*
X2535691Y-35262950D02*
X2535691Y-34762950D01*
X2345215Y-34762950D01*
X2297596Y-34786760D01*
X2273786Y-34810569D01*
X2249977Y-34858188D01*
X2249977Y-34929617D01*
X2273786Y-34977236D01*
X2297596Y-35001045D01*
X2345215Y-35024855D01*
X2535691Y-35024855D01*
X2083310Y-34762950D02*
X1749977Y-34762950D01*
X1964262Y-35262950D01*
X6752352Y-57699150D02*
X6466638Y-57699150D01*
X6609495Y-58199150D02*
X6609495Y-57699150D01*
X6299971Y-58199150D02*
X6299971Y-57699150D01*
X6109495Y-57699150D01*
X6061876Y-57722960D01*
X6038066Y-57746769D01*
X6014257Y-57794388D01*
X6014257Y-57865817D01*
X6038066Y-57913436D01*
X6061876Y-57937245D01*
X6109495Y-57961055D01*
X6299971Y-57961055D01*
X5585685Y-57699150D02*
X5680923Y-57699150D01*
X5728542Y-57722960D01*
X5752352Y-57746769D01*
X5799971Y-57818198D01*
X5823780Y-57913436D01*
X5823780Y-58103912D01*
X5799971Y-58151531D01*
X5776161Y-58175340D01*
X5728542Y-58199150D01*
X5633304Y-58199150D01*
X5585685Y-58175340D01*
X5561876Y-58151531D01*
X5538066Y-58103912D01*
X5538066Y-57984864D01*
X5561876Y-57937245D01*
X5585685Y-57913436D01*
X5633304Y-57889626D01*
X5728542Y-57889626D01*
X5776161Y-57913436D01*
X5799971Y-57937245D01*
X5823780Y-57984864D01*
X6782832Y-55113430D02*
X6497118Y-55113430D01*
X6639975Y-55613430D02*
X6639975Y-55113430D01*
X6330451Y-55613430D02*
X6330451Y-55113430D01*
X6139975Y-55113430D01*
X6092356Y-55137240D01*
X6068546Y-55161049D01*
X6044737Y-55208668D01*
X6044737Y-55280097D01*
X6068546Y-55327716D01*
X6092356Y-55351525D01*
X6139975Y-55375335D01*
X6330451Y-55375335D01*
X5592356Y-55113430D02*
X5830451Y-55113430D01*
X5854260Y-55351525D01*
X5830451Y-55327716D01*
X5782832Y-55303906D01*
X5663784Y-55303906D01*
X5616165Y-55327716D01*
X5592356Y-55351525D01*
X5568546Y-55399144D01*
X5568546Y-55518192D01*
X5592356Y-55565811D01*
X5616165Y-55589620D01*
X5663784Y-55613430D01*
X5782832Y-55613430D01*
X5830451Y-55589620D01*
X5854260Y-55565811D01*
X19071352Y-24689310D02*
X18785638Y-24689310D01*
X18928495Y-25189310D02*
X18928495Y-24689310D01*
X18618971Y-25189310D02*
X18618971Y-24689310D01*
X18428495Y-24689310D01*
X18380876Y-24713120D01*
X18357066Y-24736929D01*
X18333257Y-24784548D01*
X18333257Y-24855977D01*
X18357066Y-24903596D01*
X18380876Y-24927405D01*
X18428495Y-24951215D01*
X18618971Y-24951215D01*
X17904685Y-24855977D02*
X17904685Y-25189310D01*
X18023733Y-24665500D02*
X18142780Y-25022643D01*
X17833257Y-25022643D01*
X18984992Y-20290030D02*
X18699278Y-20290030D01*
X18842135Y-20790030D02*
X18842135Y-20290030D01*
X18532611Y-20790030D02*
X18532611Y-20290030D01*
X18342135Y-20290030D01*
X18294516Y-20313840D01*
X18270706Y-20337649D01*
X18246897Y-20385268D01*
X18246897Y-20456697D01*
X18270706Y-20504316D01*
X18294516Y-20528125D01*
X18342135Y-20551935D01*
X18532611Y-20551935D01*
X18080230Y-20290030D02*
X17770706Y-20290030D01*
X17937373Y-20480506D01*
X17865944Y-20480506D01*
X17818325Y-20504316D01*
X17794516Y-20528125D01*
X17770706Y-20575744D01*
X17770706Y-20694792D01*
X17794516Y-20742411D01*
X17818325Y-20766220D01*
X17865944Y-20790030D01*
X18008801Y-20790030D01*
X18056420Y-20766220D01*
X18080230Y-20742411D01*
X18959592Y-17770350D02*
X18673878Y-17770350D01*
X18816735Y-18270350D02*
X18816735Y-17770350D01*
X18507211Y-18270350D02*
X18507211Y-17770350D01*
X18316735Y-17770350D01*
X18269116Y-17794160D01*
X18245306Y-17817969D01*
X18221497Y-17865588D01*
X18221497Y-17937017D01*
X18245306Y-17984636D01*
X18269116Y-18008445D01*
X18316735Y-18032255D01*
X18507211Y-18032255D01*
X18031020Y-17817969D02*
X18007211Y-17794160D01*
X17959592Y-17770350D01*
X17840544Y-17770350D01*
X17792925Y-17794160D01*
X17769116Y-17817969D01*
X17745306Y-17865588D01*
X17745306Y-17913207D01*
X17769116Y-17984636D01*
X18054830Y-18270350D01*
X17745306Y-18270350D01*
X3038872Y-37363910D02*
X2753158Y-37363910D01*
X2896015Y-37863910D02*
X2896015Y-37363910D01*
X2586491Y-37863910D02*
X2586491Y-37363910D01*
X2396015Y-37363910D01*
X2348396Y-37387720D01*
X2324586Y-37411529D01*
X2300777Y-37459148D01*
X2300777Y-37530577D01*
X2324586Y-37578196D01*
X2348396Y-37602005D01*
X2396015Y-37625815D01*
X2586491Y-37625815D01*
X1824586Y-37863910D02*
X2110300Y-37863910D01*
X1967443Y-37863910D02*
X1967443Y-37363910D01*
X2015062Y-37435339D01*
X2062681Y-37482958D01*
X2110300Y-37506767D01*
X6782832Y-52492150D02*
X6497118Y-52492150D01*
X6639975Y-52992150D02*
X6639975Y-52492150D01*
X6330451Y-52992150D02*
X6330451Y-52492150D01*
X6139975Y-52492150D01*
X6092356Y-52515960D01*
X6068546Y-52539769D01*
X6044737Y-52587388D01*
X6044737Y-52658817D01*
X6068546Y-52706436D01*
X6092356Y-52730245D01*
X6139975Y-52754055D01*
X6330451Y-52754055D01*
X5735213Y-52492150D02*
X5687594Y-52492150D01*
X5639975Y-52515960D01*
X5616165Y-52539769D01*
X5592356Y-52587388D01*
X5568546Y-52682626D01*
X5568546Y-52801674D01*
X5592356Y-52896912D01*
X5616165Y-52944531D01*
X5639975Y-52968340D01*
X5687594Y-52992150D01*
X5735213Y-52992150D01*
X5782832Y-52968340D01*
X5806641Y-52944531D01*
X5830451Y-52896912D01*
X5854260Y-52801674D01*
X5854260Y-52682626D01*
X5830451Y-52587388D01*
X5806641Y-52539769D01*
X5782832Y-52515960D01*
X5735213Y-52492150D01*
X24812108Y-85283811D02*
X24835918Y-85307620D01*
X24907346Y-85331430D01*
X24954965Y-85331430D01*
X25026394Y-85307620D01*
X25074013Y-85260001D01*
X25097822Y-85212382D01*
X25121632Y-85117144D01*
X25121632Y-85045716D01*
X25097822Y-84950478D01*
X25074013Y-84902859D01*
X25026394Y-84855240D01*
X24954965Y-84831430D01*
X24907346Y-84831430D01*
X24835918Y-84855240D01*
X24812108Y-84879049D01*
X24359727Y-84831430D02*
X24597822Y-84831430D01*
X24621632Y-85069525D01*
X24597822Y-85045716D01*
X24550203Y-85021906D01*
X24431156Y-85021906D01*
X24383537Y-85045716D01*
X24359727Y-85069525D01*
X24335918Y-85117144D01*
X24335918Y-85236192D01*
X24359727Y-85283811D01*
X24383537Y-85307620D01*
X24431156Y-85331430D01*
X24550203Y-85331430D01*
X24597822Y-85307620D01*
X24621632Y-85283811D01*
X24050203Y-85045716D02*
X24097822Y-85021906D01*
X24121632Y-84998097D01*
X24145441Y-84950478D01*
X24145441Y-84926668D01*
X24121632Y-84879049D01*
X24097822Y-84855240D01*
X24050203Y-84831430D01*
X23954965Y-84831430D01*
X23907346Y-84855240D01*
X23883537Y-84879049D01*
X23859727Y-84926668D01*
X23859727Y-84950478D01*
X23883537Y-84998097D01*
X23907346Y-85021906D01*
X23954965Y-85045716D01*
X24050203Y-85045716D01*
X24097822Y-85069525D01*
X24121632Y-85093335D01*
X24145441Y-85140954D01*
X24145441Y-85236192D01*
X24121632Y-85283811D01*
X24097822Y-85307620D01*
X24050203Y-85331430D01*
X23954965Y-85331430D01*
X23907346Y-85307620D01*
X23883537Y-85283811D01*
X23859727Y-85236192D01*
X23859727Y-85140954D01*
X23883537Y-85093335D01*
X23907346Y-85069525D01*
X23954965Y-85045716D01*
X24227908Y-14773411D02*
X24251718Y-14797220D01*
X24323146Y-14821030D01*
X24370765Y-14821030D01*
X24442194Y-14797220D01*
X24489813Y-14749601D01*
X24513622Y-14701982D01*
X24537432Y-14606744D01*
X24537432Y-14535316D01*
X24513622Y-14440078D01*
X24489813Y-14392459D01*
X24442194Y-14344840D01*
X24370765Y-14321030D01*
X24323146Y-14321030D01*
X24251718Y-14344840D01*
X24227908Y-14368649D01*
X23775527Y-14321030D02*
X24013622Y-14321030D01*
X24037432Y-14559125D01*
X24013622Y-14535316D01*
X23966003Y-14511506D01*
X23846956Y-14511506D01*
X23799337Y-14535316D01*
X23775527Y-14559125D01*
X23751718Y-14606744D01*
X23751718Y-14725792D01*
X23775527Y-14773411D01*
X23799337Y-14797220D01*
X23846956Y-14821030D01*
X23966003Y-14821030D01*
X24013622Y-14797220D01*
X24037432Y-14773411D01*
X23585051Y-14321030D02*
X23251718Y-14321030D01*
X23466003Y-14821030D01*
X24776548Y-86467451D02*
X24800358Y-86491260D01*
X24871786Y-86515070D01*
X24919405Y-86515070D01*
X24990834Y-86491260D01*
X25038453Y-86443641D01*
X25062262Y-86396022D01*
X25086072Y-86300784D01*
X25086072Y-86229356D01*
X25062262Y-86134118D01*
X25038453Y-86086499D01*
X24990834Y-86038880D01*
X24919405Y-86015070D01*
X24871786Y-86015070D01*
X24800358Y-86038880D01*
X24776548Y-86062689D01*
X24324167Y-86015070D02*
X24562262Y-86015070D01*
X24586072Y-86253165D01*
X24562262Y-86229356D01*
X24514643Y-86205546D01*
X24395596Y-86205546D01*
X24347977Y-86229356D01*
X24324167Y-86253165D01*
X24300358Y-86300784D01*
X24300358Y-86419832D01*
X24324167Y-86467451D01*
X24347977Y-86491260D01*
X24395596Y-86515070D01*
X24514643Y-86515070D01*
X24562262Y-86491260D01*
X24586072Y-86467451D01*
X23871786Y-86015070D02*
X23967024Y-86015070D01*
X24014643Y-86038880D01*
X24038453Y-86062689D01*
X24086072Y-86134118D01*
X24109881Y-86229356D01*
X24109881Y-86419832D01*
X24086072Y-86467451D01*
X24062262Y-86491260D01*
X24014643Y-86515070D01*
X23919405Y-86515070D01*
X23871786Y-86491260D01*
X23847977Y-86467451D01*
X23824167Y-86419832D01*
X23824167Y-86300784D01*
X23847977Y-86253165D01*
X23871786Y-86229356D01*
X23919405Y-86205546D01*
X24014643Y-86205546D01*
X24062262Y-86229356D01*
X24086072Y-86253165D01*
X24109881Y-86300784D01*
X25970348Y-16780011D02*
X25994158Y-16803820D01*
X26065586Y-16827630D01*
X26113205Y-16827630D01*
X26184634Y-16803820D01*
X26232253Y-16756201D01*
X26256062Y-16708582D01*
X26279872Y-16613344D01*
X26279872Y-16541916D01*
X26256062Y-16446678D01*
X26232253Y-16399059D01*
X26184634Y-16351440D01*
X26113205Y-16327630D01*
X26065586Y-16327630D01*
X25994158Y-16351440D01*
X25970348Y-16375249D01*
X25517967Y-16327630D02*
X25756062Y-16327630D01*
X25779872Y-16565725D01*
X25756062Y-16541916D01*
X25708443Y-16518106D01*
X25589396Y-16518106D01*
X25541777Y-16541916D01*
X25517967Y-16565725D01*
X25494158Y-16613344D01*
X25494158Y-16732392D01*
X25517967Y-16780011D01*
X25541777Y-16803820D01*
X25589396Y-16827630D01*
X25708443Y-16827630D01*
X25756062Y-16803820D01*
X25779872Y-16780011D01*
X25041777Y-16327630D02*
X25279872Y-16327630D01*
X25303681Y-16565725D01*
X25279872Y-16541916D01*
X25232253Y-16518106D01*
X25113205Y-16518106D01*
X25065586Y-16541916D01*
X25041777Y-16565725D01*
X25017967Y-16613344D01*
X25017967Y-16732392D01*
X25041777Y-16780011D01*
X25065586Y-16803820D01*
X25113205Y-16827630D01*
X25232253Y-16827630D01*
X25279872Y-16803820D01*
X25303681Y-16780011D01*
X24832428Y-84356070D02*
X24999095Y-84117975D01*
X25118142Y-84356070D02*
X25118142Y-83856070D01*
X24927666Y-83856070D01*
X24880047Y-83879880D01*
X24856238Y-83903689D01*
X24832428Y-83951308D01*
X24832428Y-84022737D01*
X24856238Y-84070356D01*
X24880047Y-84094165D01*
X24927666Y-84117975D01*
X25118142Y-84117975D01*
X24403857Y-84022737D02*
X24403857Y-84356070D01*
X24522904Y-83832260D02*
X24641952Y-84189403D01*
X24332428Y-84189403D01*
X23927666Y-83856070D02*
X24022904Y-83856070D01*
X24070523Y-83879880D01*
X24094333Y-83903689D01*
X24141952Y-83975118D01*
X24165761Y-84070356D01*
X24165761Y-84260832D01*
X24141952Y-84308451D01*
X24118142Y-84332260D01*
X24070523Y-84356070D01*
X23975285Y-84356070D01*
X23927666Y-84332260D01*
X23903857Y-84308451D01*
X23880047Y-84260832D01*
X23880047Y-84141784D01*
X23903857Y-84094165D01*
X23927666Y-84070356D01*
X23975285Y-84046546D01*
X24070523Y-84046546D01*
X24118142Y-84070356D01*
X24141952Y-84094165D01*
X24165761Y-84141784D01*
X22232750Y-86013171D02*
X21994655Y-85846504D01*
X22232750Y-85727457D02*
X21732750Y-85727457D01*
X21732750Y-85917933D01*
X21756560Y-85965552D01*
X21780369Y-85989361D01*
X21827988Y-86013171D01*
X21899417Y-86013171D01*
X21947036Y-85989361D01*
X21970845Y-85965552D01*
X21994655Y-85917933D01*
X21994655Y-85727457D01*
X21899417Y-86441742D02*
X22232750Y-86441742D01*
X21708940Y-86322695D02*
X22066083Y-86203647D01*
X22066083Y-86513171D01*
X21732750Y-86941742D02*
X21732750Y-86703647D01*
X21970845Y-86679838D01*
X21947036Y-86703647D01*
X21923226Y-86751266D01*
X21923226Y-86870314D01*
X21947036Y-86917933D01*
X21970845Y-86941742D01*
X22018464Y-86965552D01*
X22137512Y-86965552D01*
X22185131Y-86941742D01*
X22208940Y-86917933D01*
X22232750Y-86870314D01*
X22232750Y-86751266D01*
X22208940Y-86703647D01*
X22185131Y-86679838D01*
X19620348Y-13236070D02*
X19787015Y-12997975D01*
X19906062Y-13236070D02*
X19906062Y-12736070D01*
X19715586Y-12736070D01*
X19667967Y-12759880D01*
X19644158Y-12783689D01*
X19620348Y-12831308D01*
X19620348Y-12902737D01*
X19644158Y-12950356D01*
X19667967Y-12974165D01*
X19715586Y-12997975D01*
X19906062Y-12997975D01*
X19191777Y-12902737D02*
X19191777Y-13236070D01*
X19310824Y-12712260D02*
X19429872Y-13069403D01*
X19120348Y-13069403D01*
X18715586Y-12902737D02*
X18715586Y-13236070D01*
X18834634Y-12712260D02*
X18953681Y-13069403D01*
X18644158Y-13069403D01*
X19640668Y-14272390D02*
X19807335Y-14034295D01*
X19926382Y-14272390D02*
X19926382Y-13772390D01*
X19735906Y-13772390D01*
X19688287Y-13796200D01*
X19664478Y-13820009D01*
X19640668Y-13867628D01*
X19640668Y-13939057D01*
X19664478Y-13986676D01*
X19688287Y-14010485D01*
X19735906Y-14034295D01*
X19926382Y-14034295D01*
X19212097Y-13939057D02*
X19212097Y-14272390D01*
X19331144Y-13748580D02*
X19450192Y-14105723D01*
X19140668Y-14105723D01*
X18997811Y-13772390D02*
X18688287Y-13772390D01*
X18854954Y-13962866D01*
X18783525Y-13962866D01*
X18735906Y-13986676D01*
X18712097Y-14010485D01*
X18688287Y-14058104D01*
X18688287Y-14177152D01*
X18712097Y-14224771D01*
X18735906Y-14248580D01*
X18783525Y-14272390D01*
X18926382Y-14272390D01*
X18974001Y-14248580D01*
X18997811Y-14224771D01*
D14*
X1578241Y-59390375D02*
X1625860Y-59533232D01*
X1625860Y-59771327D01*
X1578241Y-59866565D01*
X1530622Y-59914184D01*
X1435384Y-59961803D01*
X1340146Y-59961803D01*
X1244908Y-59914184D01*
X1197289Y-59866565D01*
X1149670Y-59771327D01*
X1102051Y-59580851D01*
X1054432Y-59485613D01*
X1006813Y-59437994D01*
X911575Y-59390375D01*
X816337Y-59390375D01*
X721099Y-59437994D01*
X673480Y-59485613D01*
X625860Y-59580851D01*
X625860Y-59818946D01*
X673480Y-59961803D01*
X625860Y-60295137D02*
X625860Y-60914184D01*
X1006813Y-60580851D01*
X1006813Y-60723708D01*
X1054432Y-60818946D01*
X1102051Y-60866565D01*
X1197289Y-60914184D01*
X1435384Y-60914184D01*
X1530622Y-60866565D01*
X1578241Y-60818946D01*
X1625860Y-60723708D01*
X1625860Y-60437994D01*
X1578241Y-60342756D01*
X1530622Y-60295137D01*
X610620Y-61778569D02*
X1610620Y-62111902D01*
X610620Y-62445236D01*
X1610620Y-62921426D02*
X1563001Y-62826188D01*
X1515382Y-62778569D01*
X1420144Y-62730950D01*
X1134430Y-62730950D01*
X1039192Y-62778569D01*
X991573Y-62826188D01*
X943954Y-62921426D01*
X943954Y-63064283D01*
X991573Y-63159521D01*
X1039192Y-63207140D01*
X1134430Y-63254760D01*
X1420144Y-63254760D01*
X1515382Y-63207140D01*
X1563001Y-63159521D01*
X1610620Y-63064283D01*
X1610620Y-62921426D01*
X1610620Y-63826188D02*
X1563001Y-63730950D01*
X1467763Y-63683331D01*
X610620Y-63683331D01*
X1610620Y-64207140D02*
X610620Y-64207140D01*
X610620Y-64445236D01*
X658240Y-64588093D01*
X753478Y-64683331D01*
X848716Y-64730950D01*
X1039192Y-64778569D01*
X1182049Y-64778569D01*
X1372525Y-64730950D01*
X1467763Y-64683331D01*
X1563001Y-64588093D01*
X1610620Y-64445236D01*
X1610620Y-64207140D01*
X1610620Y-65349998D02*
X1563001Y-65254760D01*
X1515382Y-65207140D01*
X1420144Y-65159521D01*
X1134430Y-65159521D01*
X1039192Y-65207140D01*
X991573Y-65254760D01*
X943954Y-65349998D01*
X943954Y-65492855D01*
X991573Y-65588093D01*
X1039192Y-65635712D01*
X1134430Y-65683331D01*
X1420144Y-65683331D01*
X1515382Y-65635712D01*
X1563001Y-65588093D01*
X1610620Y-65492855D01*
X1610620Y-65349998D01*
X943954Y-66016664D02*
X1610620Y-66207140D01*
X1134430Y-66397617D01*
X1610620Y-66588093D01*
X943954Y-66778569D01*
X943954Y-67159521D02*
X1610620Y-67159521D01*
X1039192Y-67159521D02*
X991573Y-67207140D01*
X943954Y-67302379D01*
X943954Y-67445236D01*
X991573Y-67540474D01*
X1086811Y-67588093D01*
X1610620Y-67588093D01*
X1603641Y-39507255D02*
X1651260Y-39650112D01*
X1651260Y-39888207D01*
X1603641Y-39983445D01*
X1556022Y-40031064D01*
X1460784Y-40078683D01*
X1365546Y-40078683D01*
X1270308Y-40031064D01*
X1222689Y-39983445D01*
X1175070Y-39888207D01*
X1127451Y-39697731D01*
X1079832Y-39602493D01*
X1032213Y-39554874D01*
X936975Y-39507255D01*
X841737Y-39507255D01*
X746499Y-39554874D01*
X698880Y-39602493D01*
X651260Y-39697731D01*
X651260Y-39935826D01*
X698880Y-40078683D01*
X746499Y-40459636D02*
X698880Y-40507255D01*
X651260Y-40602493D01*
X651260Y-40840588D01*
X698880Y-40935826D01*
X746499Y-40983445D01*
X841737Y-41031064D01*
X936975Y-41031064D01*
X1079832Y-40983445D01*
X1651260Y-40412017D01*
X1651260Y-41031064D01*
X671580Y-43096750D02*
X1671580Y-43430083D01*
X671580Y-43763417D01*
X1671580Y-44239607D02*
X1623961Y-44144369D01*
X1576342Y-44096750D01*
X1481104Y-44049131D01*
X1195390Y-44049131D01*
X1100152Y-44096750D01*
X1052533Y-44144369D01*
X1004914Y-44239607D01*
X1004914Y-44382464D01*
X1052533Y-44477702D01*
X1100152Y-44525321D01*
X1195390Y-44572940D01*
X1481104Y-44572940D01*
X1576342Y-44525321D01*
X1623961Y-44477702D01*
X1671580Y-44382464D01*
X1671580Y-44239607D01*
X1671580Y-45144369D02*
X1623961Y-45049131D01*
X1528723Y-45001512D01*
X671580Y-45001512D01*
X671580Y-45525321D02*
X1481104Y-45525321D01*
X1576342Y-45572940D01*
X1623961Y-45620560D01*
X1671580Y-45715798D01*
X1671580Y-45906274D01*
X1623961Y-46001512D01*
X1576342Y-46049131D01*
X1481104Y-46096750D01*
X671580Y-46096750D01*
X1004914Y-46572940D02*
X2004914Y-46572940D01*
X1052533Y-46572940D02*
X1004914Y-46668179D01*
X1004914Y-46858655D01*
X1052533Y-46953893D01*
X1100152Y-47001512D01*
X1195390Y-47049131D01*
X1481104Y-47049131D01*
X1576342Y-47001512D01*
X1623961Y-46953893D01*
X1671580Y-46858655D01*
X1671580Y-46668179D01*
X1623961Y-46572940D01*
X1588401Y-19334575D02*
X1636020Y-19477432D01*
X1636020Y-19715527D01*
X1588401Y-19810765D01*
X1540782Y-19858384D01*
X1445544Y-19906003D01*
X1350306Y-19906003D01*
X1255068Y-19858384D01*
X1207449Y-19810765D01*
X1159830Y-19715527D01*
X1112211Y-19525051D01*
X1064592Y-19429813D01*
X1016973Y-19382194D01*
X921735Y-19334575D01*
X826497Y-19334575D01*
X731259Y-19382194D01*
X683640Y-19429813D01*
X636020Y-19525051D01*
X636020Y-19763146D01*
X683640Y-19906003D01*
X1636020Y-20858384D02*
X1636020Y-20286956D01*
X1636020Y-20572670D02*
X636020Y-20572670D01*
X778878Y-20477432D01*
X874116Y-20382194D01*
X921735Y-20286956D01*
X1243626Y-22867881D02*
X1243626Y-23344072D01*
X1529340Y-22772643D02*
X529340Y-23105977D01*
X1529340Y-23439310D01*
X1481721Y-24201215D02*
X1529340Y-24105977D01*
X1529340Y-23915500D01*
X1481721Y-23820262D01*
X1434102Y-23772643D01*
X1338864Y-23725024D01*
X1053150Y-23725024D01*
X957912Y-23772643D01*
X910293Y-23820262D01*
X862674Y-23915500D01*
X862674Y-24105977D01*
X910293Y-24201215D01*
X862674Y-24486929D02*
X862674Y-24867881D01*
X529340Y-24629786D02*
X1386483Y-24629786D01*
X1481721Y-24677405D01*
X1529340Y-24772643D01*
X1529340Y-24867881D01*
X1529340Y-25201215D02*
X862674Y-25201215D01*
X529340Y-25201215D02*
X576960Y-25153596D01*
X624579Y-25201215D01*
X576960Y-25248834D01*
X529340Y-25201215D01*
X624579Y-25201215D01*
X1529340Y-25820262D02*
X1481721Y-25725024D01*
X1434102Y-25677405D01*
X1338864Y-25629786D01*
X1053150Y-25629786D01*
X957912Y-25677405D01*
X910293Y-25725024D01*
X862674Y-25820262D01*
X862674Y-25963120D01*
X910293Y-26058358D01*
X957912Y-26105977D01*
X1053150Y-26153596D01*
X1338864Y-26153596D01*
X1434102Y-26105977D01*
X1481721Y-26058358D01*
X1529340Y-25963120D01*
X1529340Y-25820262D01*
X862674Y-26582167D02*
X1529340Y-26582167D01*
X957912Y-26582167D02*
X910293Y-26629786D01*
X862674Y-26725024D01*
X862674Y-26867881D01*
X910293Y-26963120D01*
X1005531Y-27010739D01*
X1529340Y-27010739D01*
M02*
