G04 #@! TF.GenerationSoftware,KiCad,Pcbnew,(5.1.6)-1*
G04 #@! TF.CreationDate,2020-07-13T18:59:42-07:00*
G04 #@! TF.ProjectId,Mycroft - Mark 2,4d796372-6f66-4742-902d-204d61726b20,rev?*
G04 #@! TF.SameCoordinates,Original*
G04 #@! TF.FileFunction,Soldermask,Bot*
G04 #@! TF.FilePolarity,Negative*
%FSLAX46Y46*%
G04 Gerber Fmt 4.6, Leading zero omitted, Abs format (unit mm)*
G04 Created by KiCad (PCBNEW (5.1.6)-1) date 2020-07-13 18:59:42*
%MOMM*%
%LPD*%
G01*
G04 APERTURE LIST*
%ADD10C,0.100000*%
G04 APERTURE END LIST*
D10*
G36*
X17670716Y-95406534D02*
G01*
X17779292Y-95439471D01*
X17779295Y-95439472D01*
X17815401Y-95458771D01*
X17879357Y-95492956D01*
X17967064Y-95564936D01*
X18039044Y-95652643D01*
X18073229Y-95716599D01*
X18092528Y-95752705D01*
X18092528Y-95752706D01*
X18092529Y-95752708D01*
X18125466Y-95861284D01*
X18133800Y-95945902D01*
X18133800Y-96852498D01*
X18125466Y-96937116D01*
X18092529Y-97045691D01*
X18092528Y-97045695D01*
X18073229Y-97081801D01*
X18039044Y-97145757D01*
X17967064Y-97233464D01*
X17879356Y-97305444D01*
X17815400Y-97339629D01*
X17779294Y-97358928D01*
X17779291Y-97358929D01*
X17670715Y-97391866D01*
X17557800Y-97402987D01*
X17444884Y-97391866D01*
X17336308Y-97358929D01*
X17336305Y-97358928D01*
X17300199Y-97339629D01*
X17236243Y-97305444D01*
X17148536Y-97233464D01*
X17076556Y-97145756D01*
X17023073Y-97045695D01*
X17023072Y-97045694D01*
X17023071Y-97045691D01*
X16990134Y-96937115D01*
X16981800Y-96852497D01*
X16981800Y-95945902D01*
X16990135Y-95861284D01*
X17023072Y-95752708D01*
X17023073Y-95752706D01*
X17023073Y-95752705D01*
X17042372Y-95716599D01*
X17076557Y-95652643D01*
X17148537Y-95564936D01*
X17236244Y-95492956D01*
X17300200Y-95458771D01*
X17336306Y-95439472D01*
X17336309Y-95439471D01*
X17444885Y-95406534D01*
X17557800Y-95395413D01*
X17670716Y-95406534D01*
G37*
G36*
X24820715Y-95406534D02*
G01*
X24929291Y-95439471D01*
X24929294Y-95439472D01*
X24965400Y-95458771D01*
X25029356Y-95492956D01*
X25117064Y-95564936D01*
X25189044Y-95652643D01*
X25223229Y-95716599D01*
X25242528Y-95752705D01*
X25242528Y-95752706D01*
X25242529Y-95752708D01*
X25275466Y-95861284D01*
X25283800Y-95945902D01*
X25283800Y-96852498D01*
X25275466Y-96937116D01*
X25242529Y-97045691D01*
X25242528Y-97045695D01*
X25223229Y-97081801D01*
X25189044Y-97145757D01*
X25117064Y-97233464D01*
X25029357Y-97305444D01*
X24965401Y-97339629D01*
X24929295Y-97358928D01*
X24929292Y-97358929D01*
X24820716Y-97391866D01*
X24707800Y-97402987D01*
X24594885Y-97391866D01*
X24486309Y-97358929D01*
X24486306Y-97358928D01*
X24450200Y-97339629D01*
X24386244Y-97305444D01*
X24298537Y-97233464D01*
X24226557Y-97145757D01*
X24192372Y-97081801D01*
X24173073Y-97045695D01*
X24173072Y-97045691D01*
X24140135Y-96937116D01*
X24131800Y-96852498D01*
X24131800Y-95945903D01*
X24140134Y-95861285D01*
X24173071Y-95752709D01*
X24173072Y-95752706D01*
X24192371Y-95716600D01*
X24226556Y-95652644D01*
X24298536Y-95564936D01*
X24386243Y-95492956D01*
X24450199Y-95458771D01*
X24486305Y-95439472D01*
X24486308Y-95439471D01*
X24594884Y-95406534D01*
X24707800Y-95395413D01*
X24820715Y-95406534D01*
G37*
G36*
X37211943Y-90030248D02*
G01*
X37767189Y-90260238D01*
X37972387Y-90397347D01*
X38266899Y-90594134D01*
X38691866Y-91019101D01*
X38840440Y-91241458D01*
X39025762Y-91518811D01*
X39255752Y-92074057D01*
X39373000Y-92663501D01*
X39373000Y-93264499D01*
X39255752Y-93853943D01*
X39025762Y-94409189D01*
X39025761Y-94409190D01*
X38691866Y-94908899D01*
X38266899Y-95333866D01*
X38028804Y-95492956D01*
X37767189Y-95667762D01*
X37211943Y-95897752D01*
X36622499Y-96015000D01*
X36021501Y-96015000D01*
X35432057Y-95897752D01*
X34876811Y-95667762D01*
X34615196Y-95492956D01*
X34377101Y-95333866D01*
X33952134Y-94908899D01*
X33618239Y-94409190D01*
X33618238Y-94409189D01*
X33388248Y-93853943D01*
X33271000Y-93264499D01*
X33271000Y-92663501D01*
X33388248Y-92074057D01*
X33618238Y-91518811D01*
X33803560Y-91241458D01*
X33952134Y-91019101D01*
X34377101Y-90594134D01*
X34671613Y-90397347D01*
X34876811Y-90260238D01*
X35432057Y-90030248D01*
X36021501Y-89913000D01*
X36622499Y-89913000D01*
X37211943Y-90030248D01*
G37*
G36*
X68199943Y-90030248D02*
G01*
X68755189Y-90260238D01*
X68960387Y-90397347D01*
X69254899Y-90594134D01*
X69679866Y-91019101D01*
X69828440Y-91241458D01*
X70013762Y-91518811D01*
X70243752Y-92074057D01*
X70361000Y-92663501D01*
X70361000Y-93264499D01*
X70243752Y-93853943D01*
X70013762Y-94409189D01*
X70013761Y-94409190D01*
X69679866Y-94908899D01*
X69254899Y-95333866D01*
X69016804Y-95492956D01*
X68755189Y-95667762D01*
X68199943Y-95897752D01*
X67610499Y-96015000D01*
X67009501Y-96015000D01*
X66420057Y-95897752D01*
X65864811Y-95667762D01*
X65603196Y-95492956D01*
X65365101Y-95333866D01*
X64940134Y-94908899D01*
X64606239Y-94409190D01*
X64606238Y-94409189D01*
X64376248Y-93853943D01*
X64259000Y-93264499D01*
X64259000Y-92663501D01*
X64376248Y-92074057D01*
X64606238Y-91518811D01*
X64791560Y-91241458D01*
X64940134Y-91019101D01*
X65365101Y-90594134D01*
X65659613Y-90397347D01*
X65864811Y-90260238D01*
X66420057Y-90030248D01*
X67009501Y-89913000D01*
X67610499Y-89913000D01*
X68199943Y-90030248D01*
G37*
G36*
X43684041Y-91290471D02*
G01*
X43888959Y-91375351D01*
X43888961Y-91375352D01*
X44073383Y-91498579D01*
X44230221Y-91655417D01*
X44230222Y-91655419D01*
X44353449Y-91839841D01*
X44438329Y-92044759D01*
X44481600Y-92262297D01*
X44481600Y-92484103D01*
X44438329Y-92701641D01*
X44418144Y-92750371D01*
X44353448Y-92906561D01*
X44230221Y-93090983D01*
X44073383Y-93247821D01*
X43888961Y-93371048D01*
X43888960Y-93371049D01*
X43888959Y-93371049D01*
X43684041Y-93455929D01*
X43466503Y-93499200D01*
X43244697Y-93499200D01*
X43027159Y-93455929D01*
X42822241Y-93371049D01*
X42822240Y-93371049D01*
X42822239Y-93371048D01*
X42637817Y-93247821D01*
X42480979Y-93090983D01*
X42357752Y-92906561D01*
X42293056Y-92750371D01*
X42272871Y-92701641D01*
X42229600Y-92484103D01*
X42229600Y-92262297D01*
X42272871Y-92044759D01*
X42357751Y-91839841D01*
X42480978Y-91655419D01*
X42480979Y-91655417D01*
X42637817Y-91498579D01*
X42822239Y-91375352D01*
X42822241Y-91375351D01*
X43027159Y-91290471D01*
X43244697Y-91247200D01*
X43466503Y-91247200D01*
X43684041Y-91290471D01*
G37*
G36*
X49124041Y-91290471D02*
G01*
X49328959Y-91375351D01*
X49328961Y-91375352D01*
X49513383Y-91498579D01*
X49670221Y-91655417D01*
X49670222Y-91655419D01*
X49793449Y-91839841D01*
X49878329Y-92044759D01*
X49921600Y-92262297D01*
X49921600Y-92484103D01*
X49878329Y-92701641D01*
X49858144Y-92750371D01*
X49793448Y-92906561D01*
X49670221Y-93090983D01*
X49513383Y-93247821D01*
X49328961Y-93371048D01*
X49328960Y-93371049D01*
X49328959Y-93371049D01*
X49124041Y-93455929D01*
X48906503Y-93499200D01*
X48684697Y-93499200D01*
X48467159Y-93455929D01*
X48262241Y-93371049D01*
X48262240Y-93371049D01*
X48262239Y-93371048D01*
X48077817Y-93247821D01*
X47920979Y-93090983D01*
X47797752Y-92906561D01*
X47733056Y-92750371D01*
X47712871Y-92701641D01*
X47669600Y-92484103D01*
X47669600Y-92262297D01*
X47712871Y-92044759D01*
X47797751Y-91839841D01*
X47920978Y-91655419D01*
X47920979Y-91655417D01*
X48077817Y-91498579D01*
X48262239Y-91375352D01*
X48262241Y-91375351D01*
X48467159Y-91290471D01*
X48684697Y-91247200D01*
X48906503Y-91247200D01*
X49124041Y-91290471D01*
G37*
G36*
X46926600Y-92494200D02*
G01*
X45224600Y-92494200D01*
X45224600Y-90792200D01*
X46926600Y-90792200D01*
X46926600Y-92494200D01*
G37*
G36*
X46323828Y-88824903D02*
G01*
X46478700Y-88889053D01*
X46618081Y-88982185D01*
X46736615Y-89100719D01*
X46829747Y-89240100D01*
X46893897Y-89394972D01*
X46926600Y-89559384D01*
X46926600Y-89727016D01*
X46893897Y-89891428D01*
X46829747Y-90046300D01*
X46736615Y-90185681D01*
X46618081Y-90304215D01*
X46478700Y-90397347D01*
X46323828Y-90461497D01*
X46159416Y-90494200D01*
X45991784Y-90494200D01*
X45827372Y-90461497D01*
X45672500Y-90397347D01*
X45533119Y-90304215D01*
X45414585Y-90185681D01*
X45321453Y-90046300D01*
X45257303Y-89891428D01*
X45224600Y-89727016D01*
X45224600Y-89559384D01*
X45257303Y-89394972D01*
X45321453Y-89240100D01*
X45414585Y-89100719D01*
X45533119Y-88982185D01*
X45672500Y-88889053D01*
X45827372Y-88824903D01*
X45991784Y-88792200D01*
X46159416Y-88792200D01*
X46323828Y-88824903D01*
G37*
G36*
X26397800Y-90097000D02*
G01*
X23995800Y-90097000D01*
X23995800Y-89645000D01*
X26397800Y-89645000D01*
X26397800Y-90097000D01*
G37*
G36*
X23697800Y-89347000D02*
G01*
X23245800Y-89347000D01*
X23245800Y-87945000D01*
X23697800Y-87945000D01*
X23697800Y-89347000D01*
G37*
G36*
X27147800Y-89347000D02*
G01*
X26695800Y-89347000D01*
X26695800Y-87945000D01*
X27147800Y-87945000D01*
X27147800Y-89347000D01*
G37*
G36*
X25047800Y-89322000D02*
G01*
X23995800Y-89322000D01*
X23995800Y-88820000D01*
X25047800Y-88820000D01*
X25047800Y-89322000D01*
G37*
G36*
X26397800Y-89322000D02*
G01*
X25345800Y-89322000D01*
X25345800Y-88820000D01*
X26397800Y-88820000D01*
X26397800Y-89322000D01*
G37*
G36*
X46323828Y-86824903D02*
G01*
X46478700Y-86889053D01*
X46618081Y-86982185D01*
X46736615Y-87100719D01*
X46829747Y-87240100D01*
X46893897Y-87394972D01*
X46926600Y-87559384D01*
X46926600Y-87727016D01*
X46893897Y-87891428D01*
X46829747Y-88046300D01*
X46736615Y-88185681D01*
X46618081Y-88304215D01*
X46478700Y-88397347D01*
X46323828Y-88461497D01*
X46159416Y-88494200D01*
X45991784Y-88494200D01*
X45827372Y-88461497D01*
X45672500Y-88397347D01*
X45533119Y-88304215D01*
X45414585Y-88185681D01*
X45321453Y-88046300D01*
X45257303Y-87891428D01*
X45224600Y-87727016D01*
X45224600Y-87559384D01*
X45257303Y-87394972D01*
X45321453Y-87240100D01*
X45414585Y-87100719D01*
X45533119Y-86982185D01*
X45672500Y-86889053D01*
X45827372Y-86824903D01*
X45991784Y-86792200D01*
X46159416Y-86792200D01*
X46323828Y-86824903D01*
G37*
G36*
X25047800Y-88472000D02*
G01*
X23995800Y-88472000D01*
X23995800Y-87970000D01*
X25047800Y-87970000D01*
X25047800Y-88472000D01*
G37*
G36*
X26397800Y-88472000D02*
G01*
X25345800Y-88472000D01*
X25345800Y-87970000D01*
X26397800Y-87970000D01*
X26397800Y-88472000D01*
G37*
G36*
X12457800Y-88021000D02*
G01*
X11555800Y-88021000D01*
X11555800Y-86919000D01*
X12457800Y-86919000D01*
X12457800Y-88021000D01*
G37*
G36*
X10247800Y-88021000D02*
G01*
X9345800Y-88021000D01*
X9345800Y-86919000D01*
X10247800Y-86919000D01*
X10247800Y-88021000D01*
G37*
G36*
X26397800Y-87647000D02*
G01*
X23995800Y-87647000D01*
X23995800Y-87195000D01*
X26397800Y-87195000D01*
X26397800Y-87647000D01*
G37*
G36*
X65874112Y-85387727D02*
G01*
X66023412Y-85417424D01*
X66187384Y-85485344D01*
X66334954Y-85583947D01*
X66460453Y-85709446D01*
X66559056Y-85857016D01*
X66626976Y-86020988D01*
X66656673Y-86170288D01*
X66659735Y-86185680D01*
X66661600Y-86195059D01*
X66661600Y-86372541D01*
X66626976Y-86546612D01*
X66559056Y-86710584D01*
X66460453Y-86858154D01*
X66334954Y-86983653D01*
X66187384Y-87082256D01*
X66023412Y-87150176D01*
X65874112Y-87179873D01*
X65849342Y-87184800D01*
X65671858Y-87184800D01*
X65647088Y-87179873D01*
X65497788Y-87150176D01*
X65333816Y-87082256D01*
X65186246Y-86983653D01*
X65060747Y-86858154D01*
X64962144Y-86710584D01*
X64894224Y-86546612D01*
X64859600Y-86372541D01*
X64859600Y-86195059D01*
X64861466Y-86185680D01*
X64864527Y-86170288D01*
X64894224Y-86020988D01*
X64962144Y-85857016D01*
X65060747Y-85709446D01*
X65186246Y-85583947D01*
X65333816Y-85485344D01*
X65497788Y-85417424D01*
X65647088Y-85387727D01*
X65671858Y-85382800D01*
X65849342Y-85382800D01*
X65874112Y-85387727D01*
G37*
G36*
X68414112Y-85387727D02*
G01*
X68563412Y-85417424D01*
X68727384Y-85485344D01*
X68874954Y-85583947D01*
X69000453Y-85709446D01*
X69099056Y-85857016D01*
X69166976Y-86020988D01*
X69196673Y-86170288D01*
X69199735Y-86185680D01*
X69201600Y-86195059D01*
X69201600Y-86372541D01*
X69166976Y-86546612D01*
X69099056Y-86710584D01*
X69000453Y-86858154D01*
X68874954Y-86983653D01*
X68727384Y-87082256D01*
X68563412Y-87150176D01*
X68414112Y-87179873D01*
X68389342Y-87184800D01*
X68211858Y-87184800D01*
X68187088Y-87179873D01*
X68037788Y-87150176D01*
X67873816Y-87082256D01*
X67726246Y-86983653D01*
X67600747Y-86858154D01*
X67502144Y-86710584D01*
X67434224Y-86546612D01*
X67399600Y-86372541D01*
X67399600Y-86195059D01*
X67401466Y-86185680D01*
X67404527Y-86170288D01*
X67434224Y-86020988D01*
X67502144Y-85857016D01*
X67600747Y-85709446D01*
X67726246Y-85583947D01*
X67873816Y-85485344D01*
X68037788Y-85417424D01*
X68187088Y-85387727D01*
X68211858Y-85382800D01*
X68389342Y-85382800D01*
X68414112Y-85387727D01*
G37*
G36*
X23862391Y-85507885D02*
G01*
X23896369Y-85518193D01*
X23927690Y-85534934D01*
X23955139Y-85557461D01*
X23977666Y-85584910D01*
X23994407Y-85616231D01*
X24004715Y-85650209D01*
X24008800Y-85691690D01*
X24008800Y-86367910D01*
X24004715Y-86409391D01*
X23994407Y-86443369D01*
X23977666Y-86474690D01*
X23955139Y-86502139D01*
X23927690Y-86524666D01*
X23896369Y-86541407D01*
X23862391Y-86551715D01*
X23820910Y-86555800D01*
X23219690Y-86555800D01*
X23178209Y-86551715D01*
X23144231Y-86541407D01*
X23112910Y-86524666D01*
X23085461Y-86502139D01*
X23062934Y-86474690D01*
X23046193Y-86443369D01*
X23035885Y-86409391D01*
X23031800Y-86367910D01*
X23031800Y-85691690D01*
X23035885Y-85650209D01*
X23046193Y-85616231D01*
X23062934Y-85584910D01*
X23085461Y-85557461D01*
X23112910Y-85534934D01*
X23144231Y-85518193D01*
X23178209Y-85507885D01*
X23219690Y-85503800D01*
X23820910Y-85503800D01*
X23862391Y-85507885D01*
G37*
G36*
X25437391Y-85507885D02*
G01*
X25471369Y-85518193D01*
X25502690Y-85534934D01*
X25530139Y-85557461D01*
X25552666Y-85584910D01*
X25569407Y-85616231D01*
X25579715Y-85650209D01*
X25583800Y-85691690D01*
X25583800Y-86367910D01*
X25579715Y-86409391D01*
X25569407Y-86443369D01*
X25552666Y-86474690D01*
X25530139Y-86502139D01*
X25502690Y-86524666D01*
X25471369Y-86541407D01*
X25437391Y-86551715D01*
X25395910Y-86555800D01*
X24794690Y-86555800D01*
X24753209Y-86551715D01*
X24719231Y-86541407D01*
X24687910Y-86524666D01*
X24660461Y-86502139D01*
X24637934Y-86474690D01*
X24621193Y-86443369D01*
X24610885Y-86409391D01*
X24606800Y-86367910D01*
X24606800Y-85691690D01*
X24610885Y-85650209D01*
X24621193Y-85616231D01*
X24637934Y-85584910D01*
X24660461Y-85557461D01*
X24687910Y-85534934D01*
X24719231Y-85518193D01*
X24753209Y-85507885D01*
X24794690Y-85503800D01*
X25395910Y-85503800D01*
X25437391Y-85507885D01*
G37*
G36*
X49124041Y-84290471D02*
G01*
X49319179Y-84371300D01*
X49328961Y-84375352D01*
X49513383Y-84498579D01*
X49670221Y-84655417D01*
X49793448Y-84839839D01*
X49793449Y-84839841D01*
X49878329Y-85044759D01*
X49921600Y-85262297D01*
X49921600Y-85484103D01*
X49878329Y-85701641D01*
X49799716Y-85891428D01*
X49793448Y-85906561D01*
X49670221Y-86090983D01*
X49513383Y-86247821D01*
X49328961Y-86371048D01*
X49328960Y-86371049D01*
X49328959Y-86371049D01*
X49124041Y-86455929D01*
X48906503Y-86499200D01*
X48684697Y-86499200D01*
X48467159Y-86455929D01*
X48262241Y-86371049D01*
X48262240Y-86371049D01*
X48262239Y-86371048D01*
X48077817Y-86247821D01*
X47920979Y-86090983D01*
X47797752Y-85906561D01*
X47791484Y-85891428D01*
X47712871Y-85701641D01*
X47669600Y-85484103D01*
X47669600Y-85262297D01*
X47712871Y-85044759D01*
X47797751Y-84839841D01*
X47797752Y-84839839D01*
X47920979Y-84655417D01*
X48077817Y-84498579D01*
X48262239Y-84375352D01*
X48272021Y-84371300D01*
X48467159Y-84290471D01*
X48684697Y-84247200D01*
X48906503Y-84247200D01*
X49124041Y-84290471D01*
G37*
G36*
X43684041Y-84290471D02*
G01*
X43879179Y-84371300D01*
X43888961Y-84375352D01*
X44073383Y-84498579D01*
X44230221Y-84655417D01*
X44353448Y-84839839D01*
X44353449Y-84839841D01*
X44438329Y-85044759D01*
X44481600Y-85262297D01*
X44481600Y-85484103D01*
X44438329Y-85701641D01*
X44359716Y-85891428D01*
X44353448Y-85906561D01*
X44230221Y-86090983D01*
X44073383Y-86247821D01*
X43888961Y-86371048D01*
X43888960Y-86371049D01*
X43888959Y-86371049D01*
X43684041Y-86455929D01*
X43466503Y-86499200D01*
X43244697Y-86499200D01*
X43027159Y-86455929D01*
X42822241Y-86371049D01*
X42822240Y-86371049D01*
X42822239Y-86371048D01*
X42637817Y-86247821D01*
X42480979Y-86090983D01*
X42357752Y-85906561D01*
X42351484Y-85891428D01*
X42272871Y-85701641D01*
X42229600Y-85484103D01*
X42229600Y-85262297D01*
X42272871Y-85044759D01*
X42357751Y-84839841D01*
X42357752Y-84839839D01*
X42480979Y-84655417D01*
X42637817Y-84498579D01*
X42822239Y-84375352D01*
X42832021Y-84371300D01*
X43027159Y-84290471D01*
X43244697Y-84247200D01*
X43466503Y-84247200D01*
X43684041Y-84290471D01*
G37*
G36*
X46323828Y-84824903D02*
G01*
X46478700Y-84889053D01*
X46618081Y-84982185D01*
X46736615Y-85100719D01*
X46829747Y-85240100D01*
X46893897Y-85394972D01*
X46926600Y-85559384D01*
X46926600Y-85727016D01*
X46893897Y-85891428D01*
X46829747Y-86046300D01*
X46736615Y-86185681D01*
X46618081Y-86304215D01*
X46478700Y-86397347D01*
X46323828Y-86461497D01*
X46159416Y-86494200D01*
X45991784Y-86494200D01*
X45827372Y-86461497D01*
X45672500Y-86397347D01*
X45533119Y-86304215D01*
X45414585Y-86185681D01*
X45321453Y-86046300D01*
X45257303Y-85891428D01*
X45224600Y-85727016D01*
X45224600Y-85559384D01*
X45257303Y-85394972D01*
X45321453Y-85240100D01*
X45414585Y-85100719D01*
X45533119Y-84982185D01*
X45672500Y-84889053D01*
X45827372Y-84824903D01*
X45991784Y-84792200D01*
X46159416Y-84792200D01*
X46323828Y-84824903D01*
G37*
G36*
X13457800Y-86471000D02*
G01*
X11855800Y-86471000D01*
X11855800Y-85669000D01*
X13457800Y-85669000D01*
X13457800Y-86471000D01*
G37*
G36*
X10969572Y-84823660D02*
G01*
X11042936Y-84838253D01*
X11073019Y-84850714D01*
X11134111Y-84876019D01*
X11162231Y-84894808D01*
X11216169Y-84930848D01*
X11285952Y-85000631D01*
X11285953Y-85000633D01*
X11340781Y-85082689D01*
X11378547Y-85173865D01*
X11397800Y-85270655D01*
X11397800Y-85369345D01*
X11392703Y-85394971D01*
X11378547Y-85466136D01*
X11362946Y-85503800D01*
X11340781Y-85557311D01*
X11339396Y-85559384D01*
X11285952Y-85639369D01*
X11216169Y-85709152D01*
X11215727Y-85709447D01*
X11134111Y-85763981D01*
X11080702Y-85786104D01*
X11042936Y-85801747D01*
X10994540Y-85811374D01*
X10946145Y-85821000D01*
X10847455Y-85821000D01*
X10799060Y-85811374D01*
X10750664Y-85801747D01*
X10712898Y-85786104D01*
X10659489Y-85763981D01*
X10577873Y-85709447D01*
X10577431Y-85709152D01*
X10507648Y-85639369D01*
X10454204Y-85559384D01*
X10452819Y-85557311D01*
X10430654Y-85503800D01*
X10415053Y-85466136D01*
X10400897Y-85394971D01*
X10395800Y-85369345D01*
X10395800Y-85270655D01*
X10415053Y-85173865D01*
X10452819Y-85082689D01*
X10507647Y-85000633D01*
X10507648Y-85000631D01*
X10577431Y-84930848D01*
X10631369Y-84894808D01*
X10659489Y-84876019D01*
X10720581Y-84850714D01*
X10750664Y-84838253D01*
X10824028Y-84823660D01*
X10847455Y-84819000D01*
X10946145Y-84819000D01*
X10969572Y-84823660D01*
G37*
G36*
X26492738Y-84201016D02*
G01*
X26513357Y-84207271D01*
X26532353Y-84217424D01*
X26549008Y-84231092D01*
X26562676Y-84247747D01*
X26572829Y-84266743D01*
X26579084Y-84287362D01*
X26581800Y-84314940D01*
X26581800Y-84823660D01*
X26579084Y-84851238D01*
X26572829Y-84871857D01*
X26562676Y-84890853D01*
X26549008Y-84907508D01*
X26532353Y-84921176D01*
X26513357Y-84931329D01*
X26492738Y-84937584D01*
X26465160Y-84940300D01*
X26006440Y-84940300D01*
X25978862Y-84937584D01*
X25958243Y-84931329D01*
X25939247Y-84921176D01*
X25922592Y-84907508D01*
X25908924Y-84890853D01*
X25898771Y-84871857D01*
X25892516Y-84851238D01*
X25889800Y-84823660D01*
X25889800Y-84314940D01*
X25892516Y-84287362D01*
X25898771Y-84266743D01*
X25908924Y-84247747D01*
X25922592Y-84231092D01*
X25939247Y-84217424D01*
X25958243Y-84207271D01*
X25978862Y-84201016D01*
X26006440Y-84198300D01*
X26465160Y-84198300D01*
X26492738Y-84201016D01*
G37*
G36*
X27462738Y-84201016D02*
G01*
X27483357Y-84207271D01*
X27502353Y-84217424D01*
X27519008Y-84231092D01*
X27532676Y-84247747D01*
X27542829Y-84266743D01*
X27549084Y-84287362D01*
X27551800Y-84314940D01*
X27551800Y-84823660D01*
X27549084Y-84851238D01*
X27542829Y-84871857D01*
X27532676Y-84890853D01*
X27519008Y-84907508D01*
X27502353Y-84921176D01*
X27483357Y-84931329D01*
X27462738Y-84937584D01*
X27435160Y-84940300D01*
X26976440Y-84940300D01*
X26948862Y-84937584D01*
X26928243Y-84931329D01*
X26909247Y-84921176D01*
X26892592Y-84907508D01*
X26878924Y-84890853D01*
X26868771Y-84871857D01*
X26862516Y-84851238D01*
X26859800Y-84823660D01*
X26859800Y-84314940D01*
X26862516Y-84287362D01*
X26868771Y-84266743D01*
X26878924Y-84247747D01*
X26892592Y-84231092D01*
X26909247Y-84217424D01*
X26928243Y-84207271D01*
X26948862Y-84201016D01*
X26976440Y-84198300D01*
X27435160Y-84198300D01*
X27462738Y-84201016D01*
G37*
G36*
X25049738Y-84188316D02*
G01*
X25070357Y-84194571D01*
X25089353Y-84204724D01*
X25106008Y-84218392D01*
X25119676Y-84235047D01*
X25129829Y-84254043D01*
X25136084Y-84274662D01*
X25138800Y-84302240D01*
X25138800Y-84810960D01*
X25136084Y-84838538D01*
X25129829Y-84859157D01*
X25119676Y-84878153D01*
X25106008Y-84894808D01*
X25089353Y-84908476D01*
X25070357Y-84918629D01*
X25049738Y-84924884D01*
X25022160Y-84927600D01*
X24563440Y-84927600D01*
X24535862Y-84924884D01*
X24515243Y-84918629D01*
X24496247Y-84908476D01*
X24479592Y-84894808D01*
X24465924Y-84878153D01*
X24455771Y-84859157D01*
X24449516Y-84838538D01*
X24446800Y-84810960D01*
X24446800Y-84302240D01*
X24449516Y-84274662D01*
X24455771Y-84254043D01*
X24465924Y-84235047D01*
X24479592Y-84218392D01*
X24496247Y-84204724D01*
X24515243Y-84194571D01*
X24535862Y-84188316D01*
X24563440Y-84185600D01*
X25022160Y-84185600D01*
X25049738Y-84188316D01*
G37*
G36*
X24079738Y-84188316D02*
G01*
X24100357Y-84194571D01*
X24119353Y-84204724D01*
X24136008Y-84218392D01*
X24149676Y-84235047D01*
X24159829Y-84254043D01*
X24166084Y-84274662D01*
X24168800Y-84302240D01*
X24168800Y-84810960D01*
X24166084Y-84838538D01*
X24159829Y-84859157D01*
X24149676Y-84878153D01*
X24136008Y-84894808D01*
X24119353Y-84908476D01*
X24100357Y-84918629D01*
X24079738Y-84924884D01*
X24052160Y-84927600D01*
X23593440Y-84927600D01*
X23565862Y-84924884D01*
X23545243Y-84918629D01*
X23526247Y-84908476D01*
X23509592Y-84894808D01*
X23495924Y-84878153D01*
X23485771Y-84859157D01*
X23479516Y-84838538D01*
X23476800Y-84810960D01*
X23476800Y-84302240D01*
X23479516Y-84274662D01*
X23485771Y-84254043D01*
X23495924Y-84235047D01*
X23509592Y-84218392D01*
X23526247Y-84204724D01*
X23545243Y-84194571D01*
X23565862Y-84188316D01*
X23593440Y-84185600D01*
X24052160Y-84185600D01*
X24079738Y-84188316D01*
G37*
G36*
X68414112Y-82847727D02*
G01*
X68563412Y-82877424D01*
X68727384Y-82945344D01*
X68874954Y-83043947D01*
X69000453Y-83169446D01*
X69099056Y-83317016D01*
X69166976Y-83480988D01*
X69201600Y-83655059D01*
X69201600Y-83832541D01*
X69166976Y-84006612D01*
X69099056Y-84170584D01*
X69000453Y-84318154D01*
X68874954Y-84443653D01*
X68727384Y-84542256D01*
X68563412Y-84610176D01*
X68414112Y-84639873D01*
X68389342Y-84644800D01*
X68211858Y-84644800D01*
X68187088Y-84639873D01*
X68037788Y-84610176D01*
X67873816Y-84542256D01*
X67726246Y-84443653D01*
X67600747Y-84318154D01*
X67502144Y-84170584D01*
X67434224Y-84006612D01*
X67399600Y-83832541D01*
X67399600Y-83655059D01*
X67434224Y-83480988D01*
X67502144Y-83317016D01*
X67600747Y-83169446D01*
X67726246Y-83043947D01*
X67873816Y-82945344D01*
X68037788Y-82877424D01*
X68187088Y-82847727D01*
X68211858Y-82842800D01*
X68389342Y-82842800D01*
X68414112Y-82847727D01*
G37*
G36*
X65874112Y-82847727D02*
G01*
X66023412Y-82877424D01*
X66187384Y-82945344D01*
X66334954Y-83043947D01*
X66460453Y-83169446D01*
X66559056Y-83317016D01*
X66626976Y-83480988D01*
X66661600Y-83655059D01*
X66661600Y-83832541D01*
X66626976Y-84006612D01*
X66559056Y-84170584D01*
X66460453Y-84318154D01*
X66334954Y-84443653D01*
X66187384Y-84542256D01*
X66023412Y-84610176D01*
X65874112Y-84639873D01*
X65849342Y-84644800D01*
X65671858Y-84644800D01*
X65647088Y-84639873D01*
X65497788Y-84610176D01*
X65333816Y-84542256D01*
X65186246Y-84443653D01*
X65060747Y-84318154D01*
X64962144Y-84170584D01*
X64894224Y-84006612D01*
X64859600Y-83832541D01*
X64859600Y-83655059D01*
X64894224Y-83480988D01*
X64962144Y-83317016D01*
X65060747Y-83169446D01*
X65186246Y-83043947D01*
X65333816Y-82945344D01*
X65497788Y-82877424D01*
X65647088Y-82847727D01*
X65671858Y-82842800D01*
X65849342Y-82842800D01*
X65874112Y-82847727D01*
G37*
G36*
X24079738Y-82765916D02*
G01*
X24100357Y-82772171D01*
X24119353Y-82782324D01*
X24136008Y-82795992D01*
X24149676Y-82812647D01*
X24159829Y-82831643D01*
X24166084Y-82852262D01*
X24168800Y-82879840D01*
X24168800Y-83388560D01*
X24166084Y-83416138D01*
X24159829Y-83436757D01*
X24149676Y-83455753D01*
X24136008Y-83472408D01*
X24119353Y-83486076D01*
X24100357Y-83496229D01*
X24079738Y-83502484D01*
X24052160Y-83505200D01*
X23593440Y-83505200D01*
X23565862Y-83502484D01*
X23545243Y-83496229D01*
X23526247Y-83486076D01*
X23509592Y-83472408D01*
X23495924Y-83455753D01*
X23485771Y-83436757D01*
X23479516Y-83416138D01*
X23476800Y-83388560D01*
X23476800Y-82879840D01*
X23479516Y-82852262D01*
X23485771Y-82831643D01*
X23495924Y-82812647D01*
X23509592Y-82795992D01*
X23526247Y-82782324D01*
X23545243Y-82772171D01*
X23565862Y-82765916D01*
X23593440Y-82763200D01*
X24052160Y-82763200D01*
X24079738Y-82765916D01*
G37*
G36*
X25049738Y-82765916D02*
G01*
X25070357Y-82772171D01*
X25089353Y-82782324D01*
X25106008Y-82795992D01*
X25119676Y-82812647D01*
X25129829Y-82831643D01*
X25136084Y-82852262D01*
X25138800Y-82879840D01*
X25138800Y-83388560D01*
X25136084Y-83416138D01*
X25129829Y-83436757D01*
X25119676Y-83455753D01*
X25106008Y-83472408D01*
X25089353Y-83486076D01*
X25070357Y-83496229D01*
X25049738Y-83502484D01*
X25022160Y-83505200D01*
X24563440Y-83505200D01*
X24535862Y-83502484D01*
X24515243Y-83496229D01*
X24496247Y-83486076D01*
X24479592Y-83472408D01*
X24465924Y-83455753D01*
X24455771Y-83436757D01*
X24449516Y-83416138D01*
X24446800Y-83388560D01*
X24446800Y-82879840D01*
X24449516Y-82852262D01*
X24455771Y-82831643D01*
X24465924Y-82812647D01*
X24479592Y-82795992D01*
X24496247Y-82782324D01*
X24515243Y-82772171D01*
X24535862Y-82765916D01*
X24563440Y-82763200D01*
X25022160Y-82763200D01*
X25049738Y-82765916D01*
G37*
G36*
X13457800Y-83471000D02*
G01*
X11855800Y-83471000D01*
X11855800Y-82669000D01*
X13457800Y-82669000D01*
X13457800Y-83471000D01*
G37*
G36*
X26492738Y-82727816D02*
G01*
X26513357Y-82734071D01*
X26532353Y-82744224D01*
X26549008Y-82757892D01*
X26562676Y-82774547D01*
X26572829Y-82793543D01*
X26579084Y-82814162D01*
X26581800Y-82841740D01*
X26581800Y-83350460D01*
X26579084Y-83378038D01*
X26572829Y-83398657D01*
X26562676Y-83417653D01*
X26549008Y-83434308D01*
X26532353Y-83447976D01*
X26513357Y-83458129D01*
X26492738Y-83464384D01*
X26465160Y-83467100D01*
X26006440Y-83467100D01*
X25978862Y-83464384D01*
X25958243Y-83458129D01*
X25939247Y-83447976D01*
X25922592Y-83434308D01*
X25908924Y-83417653D01*
X25898771Y-83398657D01*
X25892516Y-83378038D01*
X25889800Y-83350460D01*
X25889800Y-82841740D01*
X25892516Y-82814162D01*
X25898771Y-82793543D01*
X25908924Y-82774547D01*
X25922592Y-82757892D01*
X25939247Y-82744224D01*
X25958243Y-82734071D01*
X25978862Y-82727816D01*
X26006440Y-82725100D01*
X26465160Y-82725100D01*
X26492738Y-82727816D01*
G37*
G36*
X27462738Y-82727816D02*
G01*
X27483357Y-82734071D01*
X27502353Y-82744224D01*
X27519008Y-82757892D01*
X27532676Y-82774547D01*
X27542829Y-82793543D01*
X27549084Y-82814162D01*
X27551800Y-82841740D01*
X27551800Y-83350460D01*
X27549084Y-83378038D01*
X27542829Y-83398657D01*
X27532676Y-83417653D01*
X27519008Y-83434308D01*
X27502353Y-83447976D01*
X27483357Y-83458129D01*
X27462738Y-83464384D01*
X27435160Y-83467100D01*
X26976440Y-83467100D01*
X26948862Y-83464384D01*
X26928243Y-83458129D01*
X26909247Y-83447976D01*
X26892592Y-83434308D01*
X26878924Y-83417653D01*
X26868771Y-83398657D01*
X26862516Y-83378038D01*
X26859800Y-83350460D01*
X26859800Y-82841740D01*
X26862516Y-82814162D01*
X26868771Y-82793543D01*
X26878924Y-82774547D01*
X26892592Y-82757892D01*
X26909247Y-82744224D01*
X26928243Y-82734071D01*
X26948862Y-82727816D01*
X26976440Y-82725100D01*
X27435160Y-82725100D01*
X27462738Y-82727816D01*
G37*
G36*
X10994540Y-81828626D02*
G01*
X11042936Y-81838253D01*
X11080702Y-81853896D01*
X11134111Y-81876019D01*
X11134112Y-81876020D01*
X11216169Y-81930848D01*
X11285952Y-82000631D01*
X11313552Y-82041938D01*
X11340781Y-82082689D01*
X11378547Y-82173865D01*
X11397800Y-82270655D01*
X11397800Y-82369345D01*
X11378547Y-82466135D01*
X11340781Y-82557311D01*
X11340780Y-82557312D01*
X11285952Y-82639369D01*
X11216169Y-82709152D01*
X11192301Y-82725100D01*
X11134111Y-82763981D01*
X11080702Y-82786104D01*
X11042936Y-82801747D01*
X10994540Y-82811373D01*
X10946145Y-82821000D01*
X10847455Y-82821000D01*
X10799060Y-82811373D01*
X10750664Y-82801747D01*
X10712898Y-82786104D01*
X10659489Y-82763981D01*
X10601299Y-82725100D01*
X10577431Y-82709152D01*
X10507648Y-82639369D01*
X10452820Y-82557312D01*
X10452819Y-82557311D01*
X10415053Y-82466135D01*
X10395800Y-82369345D01*
X10395800Y-82270655D01*
X10415053Y-82173865D01*
X10452819Y-82082689D01*
X10480048Y-82041938D01*
X10507648Y-82000631D01*
X10577431Y-81930848D01*
X10659488Y-81876020D01*
X10659489Y-81876019D01*
X10712898Y-81853896D01*
X10750664Y-81838253D01*
X10799060Y-81828626D01*
X10847455Y-81819000D01*
X10946145Y-81819000D01*
X10994540Y-81828626D01*
G37*
G36*
X68414112Y-80307727D02*
G01*
X68563412Y-80337424D01*
X68727384Y-80405344D01*
X68874954Y-80503947D01*
X69000453Y-80629446D01*
X69099056Y-80777016D01*
X69166976Y-80940988D01*
X69201600Y-81115059D01*
X69201600Y-81292541D01*
X69166976Y-81466612D01*
X69099056Y-81630584D01*
X69000453Y-81778154D01*
X68874954Y-81903653D01*
X68727384Y-82002256D01*
X68563412Y-82070176D01*
X68414112Y-82099873D01*
X68389342Y-82104800D01*
X68211858Y-82104800D01*
X68187088Y-82099873D01*
X68037788Y-82070176D01*
X67873816Y-82002256D01*
X67726246Y-81903653D01*
X67600747Y-81778154D01*
X67502144Y-81630584D01*
X67434224Y-81466612D01*
X67399600Y-81292541D01*
X67399600Y-81115059D01*
X67434224Y-80940988D01*
X67502144Y-80777016D01*
X67600747Y-80629446D01*
X67726246Y-80503947D01*
X67873816Y-80405344D01*
X68037788Y-80337424D01*
X68187088Y-80307727D01*
X68211858Y-80302800D01*
X68389342Y-80302800D01*
X68414112Y-80307727D01*
G37*
G36*
X65874112Y-80307727D02*
G01*
X66023412Y-80337424D01*
X66187384Y-80405344D01*
X66334954Y-80503947D01*
X66460453Y-80629446D01*
X66559056Y-80777016D01*
X66626976Y-80940988D01*
X66661600Y-81115059D01*
X66661600Y-81292541D01*
X66626976Y-81466612D01*
X66559056Y-81630584D01*
X66460453Y-81778154D01*
X66334954Y-81903653D01*
X66187384Y-82002256D01*
X66023412Y-82070176D01*
X65874112Y-82099873D01*
X65849342Y-82104800D01*
X65671858Y-82104800D01*
X65647088Y-82099873D01*
X65497788Y-82070176D01*
X65333816Y-82002256D01*
X65186246Y-81903653D01*
X65060747Y-81778154D01*
X64962144Y-81630584D01*
X64894224Y-81466612D01*
X64859600Y-81292541D01*
X64859600Y-81115059D01*
X64894224Y-80940988D01*
X64962144Y-80777016D01*
X65060747Y-80629446D01*
X65186246Y-80503947D01*
X65333816Y-80405344D01*
X65497788Y-80337424D01*
X65647088Y-80307727D01*
X65671858Y-80302800D01*
X65849342Y-80302800D01*
X65874112Y-80307727D01*
G37*
G36*
X13457800Y-81971000D02*
G01*
X11855800Y-81971000D01*
X11855800Y-81169000D01*
X13457800Y-81169000D01*
X13457800Y-81971000D01*
G37*
G36*
X12457800Y-80721000D02*
G01*
X11555800Y-80721000D01*
X11555800Y-79619000D01*
X12457800Y-79619000D01*
X12457800Y-80721000D01*
G37*
G36*
X10247800Y-80721000D02*
G01*
X9345800Y-80721000D01*
X9345800Y-79619000D01*
X10247800Y-79619000D01*
X10247800Y-80721000D01*
G37*
G36*
X68414112Y-77767727D02*
G01*
X68563412Y-77797424D01*
X68727384Y-77865344D01*
X68874954Y-77963947D01*
X69000453Y-78089446D01*
X69099056Y-78237016D01*
X69166976Y-78400988D01*
X69201600Y-78575059D01*
X69201600Y-78752541D01*
X69166976Y-78926612D01*
X69099056Y-79090584D01*
X69000453Y-79238154D01*
X68874954Y-79363653D01*
X68727384Y-79462256D01*
X68563412Y-79530176D01*
X68414112Y-79559873D01*
X68389342Y-79564800D01*
X68211858Y-79564800D01*
X68187088Y-79559873D01*
X68037788Y-79530176D01*
X67873816Y-79462256D01*
X67726246Y-79363653D01*
X67600747Y-79238154D01*
X67502144Y-79090584D01*
X67434224Y-78926612D01*
X67399600Y-78752541D01*
X67399600Y-78575059D01*
X67434224Y-78400988D01*
X67502144Y-78237016D01*
X67600747Y-78089446D01*
X67726246Y-77963947D01*
X67873816Y-77865344D01*
X68037788Y-77797424D01*
X68187088Y-77767727D01*
X68211858Y-77762800D01*
X68389342Y-77762800D01*
X68414112Y-77767727D01*
G37*
G36*
X65874112Y-77767727D02*
G01*
X66023412Y-77797424D01*
X66187384Y-77865344D01*
X66334954Y-77963947D01*
X66460453Y-78089446D01*
X66559056Y-78237016D01*
X66626976Y-78400988D01*
X66661600Y-78575059D01*
X66661600Y-78752541D01*
X66626976Y-78926612D01*
X66559056Y-79090584D01*
X66460453Y-79238154D01*
X66334954Y-79363653D01*
X66187384Y-79462256D01*
X66023412Y-79530176D01*
X65874112Y-79559873D01*
X65849342Y-79564800D01*
X65671858Y-79564800D01*
X65647088Y-79559873D01*
X65497788Y-79530176D01*
X65333816Y-79462256D01*
X65186246Y-79363653D01*
X65060747Y-79238154D01*
X64962144Y-79090584D01*
X64894224Y-78926612D01*
X64859600Y-78752541D01*
X64859600Y-78575059D01*
X64894224Y-78400988D01*
X64962144Y-78237016D01*
X65060747Y-78089446D01*
X65186246Y-77963947D01*
X65333816Y-77865344D01*
X65497788Y-77797424D01*
X65647088Y-77767727D01*
X65671858Y-77762800D01*
X65849342Y-77762800D01*
X65874112Y-77767727D01*
G37*
G36*
X20677797Y-78704567D02*
G01*
X20732575Y-78727257D01*
X20732577Y-78727258D01*
X20781876Y-78760198D01*
X20823802Y-78802124D01*
X20856742Y-78851423D01*
X20856743Y-78851425D01*
X20879433Y-78906203D01*
X20891000Y-78964353D01*
X20891000Y-79023647D01*
X20879433Y-79081797D01*
X20875794Y-79090582D01*
X20856742Y-79136577D01*
X20823802Y-79185876D01*
X20781876Y-79227802D01*
X20732577Y-79260742D01*
X20732576Y-79260743D01*
X20732575Y-79260743D01*
X20677797Y-79283433D01*
X20619647Y-79295000D01*
X20560353Y-79295000D01*
X20502203Y-79283433D01*
X20447425Y-79260743D01*
X20447424Y-79260743D01*
X20447423Y-79260742D01*
X20398124Y-79227802D01*
X20356198Y-79185876D01*
X20323258Y-79136577D01*
X20304206Y-79090582D01*
X20300567Y-79081797D01*
X20289000Y-79023647D01*
X20289000Y-78964353D01*
X20300567Y-78906203D01*
X20323257Y-78851425D01*
X20323258Y-78851423D01*
X20356198Y-78802124D01*
X20398124Y-78760198D01*
X20447423Y-78727258D01*
X20447425Y-78727257D01*
X20502203Y-78704567D01*
X20560353Y-78693000D01*
X20619647Y-78693000D01*
X20677797Y-78704567D01*
G37*
G36*
X21677797Y-78704567D02*
G01*
X21732575Y-78727257D01*
X21732577Y-78727258D01*
X21781876Y-78760198D01*
X21823802Y-78802124D01*
X21856742Y-78851423D01*
X21856743Y-78851425D01*
X21879433Y-78906203D01*
X21891000Y-78964353D01*
X21891000Y-79023647D01*
X21879433Y-79081797D01*
X21875794Y-79090582D01*
X21856742Y-79136577D01*
X21823802Y-79185876D01*
X21781876Y-79227802D01*
X21732577Y-79260742D01*
X21732576Y-79260743D01*
X21732575Y-79260743D01*
X21677797Y-79283433D01*
X21619647Y-79295000D01*
X21560353Y-79295000D01*
X21502203Y-79283433D01*
X21447425Y-79260743D01*
X21447424Y-79260743D01*
X21447423Y-79260742D01*
X21398124Y-79227802D01*
X21356198Y-79185876D01*
X21323258Y-79136577D01*
X21304206Y-79090582D01*
X21300567Y-79081797D01*
X21289000Y-79023647D01*
X21289000Y-78964353D01*
X21300567Y-78906203D01*
X21323257Y-78851425D01*
X21323258Y-78851423D01*
X21356198Y-78802124D01*
X21398124Y-78760198D01*
X21447423Y-78727258D01*
X21447425Y-78727257D01*
X21502203Y-78704567D01*
X21560353Y-78693000D01*
X21619647Y-78693000D01*
X21677797Y-78704567D01*
G37*
G36*
X19677797Y-78704567D02*
G01*
X19732575Y-78727257D01*
X19732577Y-78727258D01*
X19781876Y-78760198D01*
X19823802Y-78802124D01*
X19856742Y-78851423D01*
X19856743Y-78851425D01*
X19879433Y-78906203D01*
X19891000Y-78964353D01*
X19891000Y-79023647D01*
X19879433Y-79081797D01*
X19875794Y-79090582D01*
X19856742Y-79136577D01*
X19823802Y-79185876D01*
X19781876Y-79227802D01*
X19732577Y-79260742D01*
X19732576Y-79260743D01*
X19732575Y-79260743D01*
X19677797Y-79283433D01*
X19619647Y-79295000D01*
X19560353Y-79295000D01*
X19502203Y-79283433D01*
X19447425Y-79260743D01*
X19447424Y-79260743D01*
X19447423Y-79260742D01*
X19398124Y-79227802D01*
X19356198Y-79185876D01*
X19323258Y-79136577D01*
X19304206Y-79090582D01*
X19300567Y-79081797D01*
X19289000Y-79023647D01*
X19289000Y-78964353D01*
X19300567Y-78906203D01*
X19323257Y-78851425D01*
X19323258Y-78851423D01*
X19356198Y-78802124D01*
X19398124Y-78760198D01*
X19447423Y-78727258D01*
X19447425Y-78727257D01*
X19502203Y-78704567D01*
X19560353Y-78693000D01*
X19619647Y-78693000D01*
X19677797Y-78704567D01*
G37*
G36*
X18677797Y-78704567D02*
G01*
X18732575Y-78727257D01*
X18732577Y-78727258D01*
X18781876Y-78760198D01*
X18823802Y-78802124D01*
X18856742Y-78851423D01*
X18856743Y-78851425D01*
X18879433Y-78906203D01*
X18891000Y-78964353D01*
X18891000Y-79023647D01*
X18879433Y-79081797D01*
X18875794Y-79090582D01*
X18856742Y-79136577D01*
X18823802Y-79185876D01*
X18781876Y-79227802D01*
X18732577Y-79260742D01*
X18732576Y-79260743D01*
X18732575Y-79260743D01*
X18677797Y-79283433D01*
X18619647Y-79295000D01*
X18560353Y-79295000D01*
X18502203Y-79283433D01*
X18447425Y-79260743D01*
X18447424Y-79260743D01*
X18447423Y-79260742D01*
X18398124Y-79227802D01*
X18356198Y-79185876D01*
X18323258Y-79136577D01*
X18304206Y-79090582D01*
X18300567Y-79081797D01*
X18289000Y-79023647D01*
X18289000Y-78964353D01*
X18300567Y-78906203D01*
X18323257Y-78851425D01*
X18323258Y-78851423D01*
X18356198Y-78802124D01*
X18398124Y-78760198D01*
X18447423Y-78727258D01*
X18447425Y-78727257D01*
X18502203Y-78704567D01*
X18560353Y-78693000D01*
X18619647Y-78693000D01*
X18677797Y-78704567D01*
G37*
G36*
X17677797Y-78704567D02*
G01*
X17732575Y-78727257D01*
X17732577Y-78727258D01*
X17781876Y-78760198D01*
X17823802Y-78802124D01*
X17856742Y-78851423D01*
X17856743Y-78851425D01*
X17879433Y-78906203D01*
X17891000Y-78964353D01*
X17891000Y-79023647D01*
X17879433Y-79081797D01*
X17875794Y-79090582D01*
X17856742Y-79136577D01*
X17823802Y-79185876D01*
X17781876Y-79227802D01*
X17732577Y-79260742D01*
X17732576Y-79260743D01*
X17732575Y-79260743D01*
X17677797Y-79283433D01*
X17619647Y-79295000D01*
X17560353Y-79295000D01*
X17502203Y-79283433D01*
X17447425Y-79260743D01*
X17447424Y-79260743D01*
X17447423Y-79260742D01*
X17398124Y-79227802D01*
X17356198Y-79185876D01*
X17323258Y-79136577D01*
X17304206Y-79090582D01*
X17300567Y-79081797D01*
X17289000Y-79023647D01*
X17289000Y-78964353D01*
X17300567Y-78906203D01*
X17323257Y-78851425D01*
X17323258Y-78851423D01*
X17356198Y-78802124D01*
X17398124Y-78760198D01*
X17447423Y-78727258D01*
X17447425Y-78727257D01*
X17502203Y-78704567D01*
X17560353Y-78693000D01*
X17619647Y-78693000D01*
X17677797Y-78704567D01*
G37*
G36*
X21677797Y-77704567D02*
G01*
X21732575Y-77727257D01*
X21732577Y-77727258D01*
X21781876Y-77760198D01*
X21823802Y-77802124D01*
X21856742Y-77851423D01*
X21856743Y-77851425D01*
X21879433Y-77906203D01*
X21891000Y-77964353D01*
X21891000Y-78023647D01*
X21879433Y-78081797D01*
X21876264Y-78089447D01*
X21856742Y-78136577D01*
X21823802Y-78185876D01*
X21781876Y-78227802D01*
X21732577Y-78260742D01*
X21732576Y-78260743D01*
X21732575Y-78260743D01*
X21677797Y-78283433D01*
X21619647Y-78295000D01*
X21560353Y-78295000D01*
X21502203Y-78283433D01*
X21447425Y-78260743D01*
X21447424Y-78260743D01*
X21447423Y-78260742D01*
X21398124Y-78227802D01*
X21356198Y-78185876D01*
X21323258Y-78136577D01*
X21303736Y-78089447D01*
X21300567Y-78081797D01*
X21289000Y-78023647D01*
X21289000Y-77964353D01*
X21300567Y-77906203D01*
X21323257Y-77851425D01*
X21323258Y-77851423D01*
X21356198Y-77802124D01*
X21398124Y-77760198D01*
X21447423Y-77727258D01*
X21447425Y-77727257D01*
X21502203Y-77704567D01*
X21560353Y-77693000D01*
X21619647Y-77693000D01*
X21677797Y-77704567D01*
G37*
G36*
X17677797Y-77704567D02*
G01*
X17732575Y-77727257D01*
X17732577Y-77727258D01*
X17781876Y-77760198D01*
X17823802Y-77802124D01*
X17856742Y-77851423D01*
X17856743Y-77851425D01*
X17879433Y-77906203D01*
X17891000Y-77964353D01*
X17891000Y-78023647D01*
X17879433Y-78081797D01*
X17876264Y-78089447D01*
X17856742Y-78136577D01*
X17823802Y-78185876D01*
X17781876Y-78227802D01*
X17732577Y-78260742D01*
X17732576Y-78260743D01*
X17732575Y-78260743D01*
X17677797Y-78283433D01*
X17619647Y-78295000D01*
X17560353Y-78295000D01*
X17502203Y-78283433D01*
X17447425Y-78260743D01*
X17447424Y-78260743D01*
X17447423Y-78260742D01*
X17398124Y-78227802D01*
X17356198Y-78185876D01*
X17323258Y-78136577D01*
X17303736Y-78089447D01*
X17300567Y-78081797D01*
X17289000Y-78023647D01*
X17289000Y-77964353D01*
X17300567Y-77906203D01*
X17323257Y-77851425D01*
X17323258Y-77851423D01*
X17356198Y-77802124D01*
X17398124Y-77760198D01*
X17447423Y-77727258D01*
X17447425Y-77727257D01*
X17502203Y-77704567D01*
X17560353Y-77693000D01*
X17619647Y-77693000D01*
X17677797Y-77704567D01*
G37*
G36*
X18677797Y-77704567D02*
G01*
X18732575Y-77727257D01*
X18732577Y-77727258D01*
X18781876Y-77760198D01*
X18823802Y-77802124D01*
X18856742Y-77851423D01*
X18856743Y-77851425D01*
X18879433Y-77906203D01*
X18891000Y-77964353D01*
X18891000Y-78023647D01*
X18879433Y-78081797D01*
X18876264Y-78089447D01*
X18856742Y-78136577D01*
X18823802Y-78185876D01*
X18781876Y-78227802D01*
X18732577Y-78260742D01*
X18732576Y-78260743D01*
X18732575Y-78260743D01*
X18677797Y-78283433D01*
X18619647Y-78295000D01*
X18560353Y-78295000D01*
X18502203Y-78283433D01*
X18447425Y-78260743D01*
X18447424Y-78260743D01*
X18447423Y-78260742D01*
X18398124Y-78227802D01*
X18356198Y-78185876D01*
X18323258Y-78136577D01*
X18303736Y-78089447D01*
X18300567Y-78081797D01*
X18289000Y-78023647D01*
X18289000Y-77964353D01*
X18300567Y-77906203D01*
X18323257Y-77851425D01*
X18323258Y-77851423D01*
X18356198Y-77802124D01*
X18398124Y-77760198D01*
X18447423Y-77727258D01*
X18447425Y-77727257D01*
X18502203Y-77704567D01*
X18560353Y-77693000D01*
X18619647Y-77693000D01*
X18677797Y-77704567D01*
G37*
G36*
X20677797Y-77704567D02*
G01*
X20732575Y-77727257D01*
X20732577Y-77727258D01*
X20781876Y-77760198D01*
X20823802Y-77802124D01*
X20856742Y-77851423D01*
X20856743Y-77851425D01*
X20879433Y-77906203D01*
X20891000Y-77964353D01*
X20891000Y-78023647D01*
X20879433Y-78081797D01*
X20876264Y-78089447D01*
X20856742Y-78136577D01*
X20823802Y-78185876D01*
X20781876Y-78227802D01*
X20732577Y-78260742D01*
X20732576Y-78260743D01*
X20732575Y-78260743D01*
X20677797Y-78283433D01*
X20619647Y-78295000D01*
X20560353Y-78295000D01*
X20502203Y-78283433D01*
X20447425Y-78260743D01*
X20447424Y-78260743D01*
X20447423Y-78260742D01*
X20398124Y-78227802D01*
X20356198Y-78185876D01*
X20323258Y-78136577D01*
X20303736Y-78089447D01*
X20300567Y-78081797D01*
X20289000Y-78023647D01*
X20289000Y-77964353D01*
X20300567Y-77906203D01*
X20323257Y-77851425D01*
X20323258Y-77851423D01*
X20356198Y-77802124D01*
X20398124Y-77760198D01*
X20447423Y-77727258D01*
X20447425Y-77727257D01*
X20502203Y-77704567D01*
X20560353Y-77693000D01*
X20619647Y-77693000D01*
X20677797Y-77704567D01*
G37*
G36*
X19677797Y-77704567D02*
G01*
X19732575Y-77727257D01*
X19732577Y-77727258D01*
X19781876Y-77760198D01*
X19823802Y-77802124D01*
X19856742Y-77851423D01*
X19856743Y-77851425D01*
X19879433Y-77906203D01*
X19891000Y-77964353D01*
X19891000Y-78023647D01*
X19879433Y-78081797D01*
X19876264Y-78089447D01*
X19856742Y-78136577D01*
X19823802Y-78185876D01*
X19781876Y-78227802D01*
X19732577Y-78260742D01*
X19732576Y-78260743D01*
X19732575Y-78260743D01*
X19677797Y-78283433D01*
X19619647Y-78295000D01*
X19560353Y-78295000D01*
X19502203Y-78283433D01*
X19447425Y-78260743D01*
X19447424Y-78260743D01*
X19447423Y-78260742D01*
X19398124Y-78227802D01*
X19356198Y-78185876D01*
X19323258Y-78136577D01*
X19303736Y-78089447D01*
X19300567Y-78081797D01*
X19289000Y-78023647D01*
X19289000Y-77964353D01*
X19300567Y-77906203D01*
X19323257Y-77851425D01*
X19323258Y-77851423D01*
X19356198Y-77802124D01*
X19398124Y-77760198D01*
X19447423Y-77727258D01*
X19447425Y-77727257D01*
X19502203Y-77704567D01*
X19560353Y-77693000D01*
X19619647Y-77693000D01*
X19677797Y-77704567D01*
G37*
G36*
X17677797Y-76704567D02*
G01*
X17732575Y-76727257D01*
X17732577Y-76727258D01*
X17781876Y-76760198D01*
X17823802Y-76802124D01*
X17856742Y-76851423D01*
X17856743Y-76851425D01*
X17879433Y-76906203D01*
X17891000Y-76964353D01*
X17891000Y-77023647D01*
X17879433Y-77081797D01*
X17856743Y-77136575D01*
X17856742Y-77136577D01*
X17823802Y-77185876D01*
X17781876Y-77227802D01*
X17732577Y-77260742D01*
X17732576Y-77260743D01*
X17732575Y-77260743D01*
X17677797Y-77283433D01*
X17619647Y-77295000D01*
X17560353Y-77295000D01*
X17502203Y-77283433D01*
X17447425Y-77260743D01*
X17447424Y-77260743D01*
X17447423Y-77260742D01*
X17398124Y-77227802D01*
X17356198Y-77185876D01*
X17323258Y-77136577D01*
X17323257Y-77136575D01*
X17300567Y-77081797D01*
X17289000Y-77023647D01*
X17289000Y-76964353D01*
X17300567Y-76906203D01*
X17323257Y-76851425D01*
X17323258Y-76851423D01*
X17356198Y-76802124D01*
X17398124Y-76760198D01*
X17447423Y-76727258D01*
X17447425Y-76727257D01*
X17502203Y-76704567D01*
X17560353Y-76693000D01*
X17619647Y-76693000D01*
X17677797Y-76704567D01*
G37*
G36*
X21677797Y-76704567D02*
G01*
X21732575Y-76727257D01*
X21732577Y-76727258D01*
X21781876Y-76760198D01*
X21823802Y-76802124D01*
X21856742Y-76851423D01*
X21856743Y-76851425D01*
X21879433Y-76906203D01*
X21891000Y-76964353D01*
X21891000Y-77023647D01*
X21879433Y-77081797D01*
X21856743Y-77136575D01*
X21856742Y-77136577D01*
X21823802Y-77185876D01*
X21781876Y-77227802D01*
X21732577Y-77260742D01*
X21732576Y-77260743D01*
X21732575Y-77260743D01*
X21677797Y-77283433D01*
X21619647Y-77295000D01*
X21560353Y-77295000D01*
X21502203Y-77283433D01*
X21447425Y-77260743D01*
X21447424Y-77260743D01*
X21447423Y-77260742D01*
X21398124Y-77227802D01*
X21356198Y-77185876D01*
X21323258Y-77136577D01*
X21323257Y-77136575D01*
X21300567Y-77081797D01*
X21289000Y-77023647D01*
X21289000Y-76964353D01*
X21300567Y-76906203D01*
X21323257Y-76851425D01*
X21323258Y-76851423D01*
X21356198Y-76802124D01*
X21398124Y-76760198D01*
X21447423Y-76727258D01*
X21447425Y-76727257D01*
X21502203Y-76704567D01*
X21560353Y-76693000D01*
X21619647Y-76693000D01*
X21677797Y-76704567D01*
G37*
G36*
X19677797Y-76704567D02*
G01*
X19732575Y-76727257D01*
X19732577Y-76727258D01*
X19781876Y-76760198D01*
X19823802Y-76802124D01*
X19856742Y-76851423D01*
X19856743Y-76851425D01*
X19879433Y-76906203D01*
X19891000Y-76964353D01*
X19891000Y-77023647D01*
X19879433Y-77081797D01*
X19856743Y-77136575D01*
X19856742Y-77136577D01*
X19823802Y-77185876D01*
X19781876Y-77227802D01*
X19732577Y-77260742D01*
X19732576Y-77260743D01*
X19732575Y-77260743D01*
X19677797Y-77283433D01*
X19619647Y-77295000D01*
X19560353Y-77295000D01*
X19502203Y-77283433D01*
X19447425Y-77260743D01*
X19447424Y-77260743D01*
X19447423Y-77260742D01*
X19398124Y-77227802D01*
X19356198Y-77185876D01*
X19323258Y-77136577D01*
X19323257Y-77136575D01*
X19300567Y-77081797D01*
X19289000Y-77023647D01*
X19289000Y-76964353D01*
X19300567Y-76906203D01*
X19323257Y-76851425D01*
X19323258Y-76851423D01*
X19356198Y-76802124D01*
X19398124Y-76760198D01*
X19447423Y-76727258D01*
X19447425Y-76727257D01*
X19502203Y-76704567D01*
X19560353Y-76693000D01*
X19619647Y-76693000D01*
X19677797Y-76704567D01*
G37*
G36*
X18677797Y-76704567D02*
G01*
X18732575Y-76727257D01*
X18732577Y-76727258D01*
X18781876Y-76760198D01*
X18823802Y-76802124D01*
X18856742Y-76851423D01*
X18856743Y-76851425D01*
X18879433Y-76906203D01*
X18891000Y-76964353D01*
X18891000Y-77023647D01*
X18879433Y-77081797D01*
X18856743Y-77136575D01*
X18856742Y-77136577D01*
X18823802Y-77185876D01*
X18781876Y-77227802D01*
X18732577Y-77260742D01*
X18732576Y-77260743D01*
X18732575Y-77260743D01*
X18677797Y-77283433D01*
X18619647Y-77295000D01*
X18560353Y-77295000D01*
X18502203Y-77283433D01*
X18447425Y-77260743D01*
X18447424Y-77260743D01*
X18447423Y-77260742D01*
X18398124Y-77227802D01*
X18356198Y-77185876D01*
X18323258Y-77136577D01*
X18323257Y-77136575D01*
X18300567Y-77081797D01*
X18289000Y-77023647D01*
X18289000Y-76964353D01*
X18300567Y-76906203D01*
X18323257Y-76851425D01*
X18323258Y-76851423D01*
X18356198Y-76802124D01*
X18398124Y-76760198D01*
X18447423Y-76727258D01*
X18447425Y-76727257D01*
X18502203Y-76704567D01*
X18560353Y-76693000D01*
X18619647Y-76693000D01*
X18677797Y-76704567D01*
G37*
G36*
X20677797Y-76704567D02*
G01*
X20732575Y-76727257D01*
X20732577Y-76727258D01*
X20781876Y-76760198D01*
X20823802Y-76802124D01*
X20856742Y-76851423D01*
X20856743Y-76851425D01*
X20879433Y-76906203D01*
X20891000Y-76964353D01*
X20891000Y-77023647D01*
X20879433Y-77081797D01*
X20856743Y-77136575D01*
X20856742Y-77136577D01*
X20823802Y-77185876D01*
X20781876Y-77227802D01*
X20732577Y-77260742D01*
X20732576Y-77260743D01*
X20732575Y-77260743D01*
X20677797Y-77283433D01*
X20619647Y-77295000D01*
X20560353Y-77295000D01*
X20502203Y-77283433D01*
X20447425Y-77260743D01*
X20447424Y-77260743D01*
X20447423Y-77260742D01*
X20398124Y-77227802D01*
X20356198Y-77185876D01*
X20323258Y-77136577D01*
X20323257Y-77136575D01*
X20300567Y-77081797D01*
X20289000Y-77023647D01*
X20289000Y-76964353D01*
X20300567Y-76906203D01*
X20323257Y-76851425D01*
X20323258Y-76851423D01*
X20356198Y-76802124D01*
X20398124Y-76760198D01*
X20447423Y-76727258D01*
X20447425Y-76727257D01*
X20502203Y-76704567D01*
X20560353Y-76693000D01*
X20619647Y-76693000D01*
X20677797Y-76704567D01*
G37*
G36*
X65874112Y-75227727D02*
G01*
X66023412Y-75257424D01*
X66187384Y-75325344D01*
X66334954Y-75423947D01*
X66460453Y-75549446D01*
X66559056Y-75697016D01*
X66626976Y-75860988D01*
X66647536Y-75964353D01*
X66661600Y-76035058D01*
X66661600Y-76212542D01*
X66656673Y-76237312D01*
X66626976Y-76386612D01*
X66559056Y-76550584D01*
X66460453Y-76698154D01*
X66334954Y-76823653D01*
X66187384Y-76922256D01*
X66023412Y-76990176D01*
X65874112Y-77019873D01*
X65849342Y-77024800D01*
X65671858Y-77024800D01*
X65647088Y-77019873D01*
X65497788Y-76990176D01*
X65333816Y-76922256D01*
X65186246Y-76823653D01*
X65060747Y-76698154D01*
X64962144Y-76550584D01*
X64894224Y-76386612D01*
X64864527Y-76237312D01*
X64859600Y-76212542D01*
X64859600Y-76035058D01*
X64873664Y-75964353D01*
X64894224Y-75860988D01*
X64962144Y-75697016D01*
X65060747Y-75549446D01*
X65186246Y-75423947D01*
X65333816Y-75325344D01*
X65497788Y-75257424D01*
X65647088Y-75227727D01*
X65671858Y-75222800D01*
X65849342Y-75222800D01*
X65874112Y-75227727D01*
G37*
G36*
X68414112Y-75227727D02*
G01*
X68563412Y-75257424D01*
X68727384Y-75325344D01*
X68874954Y-75423947D01*
X69000453Y-75549446D01*
X69099056Y-75697016D01*
X69166976Y-75860988D01*
X69187536Y-75964353D01*
X69201600Y-76035058D01*
X69201600Y-76212542D01*
X69196673Y-76237312D01*
X69166976Y-76386612D01*
X69099056Y-76550584D01*
X69000453Y-76698154D01*
X68874954Y-76823653D01*
X68727384Y-76922256D01*
X68563412Y-76990176D01*
X68414112Y-77019873D01*
X68389342Y-77024800D01*
X68211858Y-77024800D01*
X68187088Y-77019873D01*
X68037788Y-76990176D01*
X67873816Y-76922256D01*
X67726246Y-76823653D01*
X67600747Y-76698154D01*
X67502144Y-76550584D01*
X67434224Y-76386612D01*
X67404527Y-76237312D01*
X67399600Y-76212542D01*
X67399600Y-76035058D01*
X67413664Y-75964353D01*
X67434224Y-75860988D01*
X67502144Y-75697016D01*
X67600747Y-75549446D01*
X67726246Y-75423947D01*
X67873816Y-75325344D01*
X68037788Y-75257424D01*
X68187088Y-75227727D01*
X68211858Y-75222800D01*
X68389342Y-75222800D01*
X68414112Y-75227727D01*
G37*
G36*
X17677797Y-75704567D02*
G01*
X17732575Y-75727257D01*
X17732577Y-75727258D01*
X17781876Y-75760198D01*
X17823802Y-75802124D01*
X17856742Y-75851423D01*
X17856743Y-75851425D01*
X17879433Y-75906203D01*
X17891000Y-75964353D01*
X17891000Y-76023647D01*
X17879433Y-76081797D01*
X17856743Y-76136575D01*
X17856742Y-76136577D01*
X17823802Y-76185876D01*
X17781876Y-76227802D01*
X17732577Y-76260742D01*
X17732576Y-76260743D01*
X17732575Y-76260743D01*
X17677797Y-76283433D01*
X17619647Y-76295000D01*
X17560353Y-76295000D01*
X17502203Y-76283433D01*
X17447425Y-76260743D01*
X17447424Y-76260743D01*
X17447423Y-76260742D01*
X17398124Y-76227802D01*
X17356198Y-76185876D01*
X17323258Y-76136577D01*
X17323257Y-76136575D01*
X17300567Y-76081797D01*
X17289000Y-76023647D01*
X17289000Y-75964353D01*
X17300567Y-75906203D01*
X17323257Y-75851425D01*
X17323258Y-75851423D01*
X17356198Y-75802124D01*
X17398124Y-75760198D01*
X17447423Y-75727258D01*
X17447425Y-75727257D01*
X17502203Y-75704567D01*
X17560353Y-75693000D01*
X17619647Y-75693000D01*
X17677797Y-75704567D01*
G37*
G36*
X18677797Y-75704567D02*
G01*
X18732575Y-75727257D01*
X18732577Y-75727258D01*
X18781876Y-75760198D01*
X18823802Y-75802124D01*
X18856742Y-75851423D01*
X18856743Y-75851425D01*
X18879433Y-75906203D01*
X18891000Y-75964353D01*
X18891000Y-76023647D01*
X18879433Y-76081797D01*
X18856743Y-76136575D01*
X18856742Y-76136577D01*
X18823802Y-76185876D01*
X18781876Y-76227802D01*
X18732577Y-76260742D01*
X18732576Y-76260743D01*
X18732575Y-76260743D01*
X18677797Y-76283433D01*
X18619647Y-76295000D01*
X18560353Y-76295000D01*
X18502203Y-76283433D01*
X18447425Y-76260743D01*
X18447424Y-76260743D01*
X18447423Y-76260742D01*
X18398124Y-76227802D01*
X18356198Y-76185876D01*
X18323258Y-76136577D01*
X18323257Y-76136575D01*
X18300567Y-76081797D01*
X18289000Y-76023647D01*
X18289000Y-75964353D01*
X18300567Y-75906203D01*
X18323257Y-75851425D01*
X18323258Y-75851423D01*
X18356198Y-75802124D01*
X18398124Y-75760198D01*
X18447423Y-75727258D01*
X18447425Y-75727257D01*
X18502203Y-75704567D01*
X18560353Y-75693000D01*
X18619647Y-75693000D01*
X18677797Y-75704567D01*
G37*
G36*
X19677797Y-75704567D02*
G01*
X19732575Y-75727257D01*
X19732577Y-75727258D01*
X19781876Y-75760198D01*
X19823802Y-75802124D01*
X19856742Y-75851423D01*
X19856743Y-75851425D01*
X19879433Y-75906203D01*
X19891000Y-75964353D01*
X19891000Y-76023647D01*
X19879433Y-76081797D01*
X19856743Y-76136575D01*
X19856742Y-76136577D01*
X19823802Y-76185876D01*
X19781876Y-76227802D01*
X19732577Y-76260742D01*
X19732576Y-76260743D01*
X19732575Y-76260743D01*
X19677797Y-76283433D01*
X19619647Y-76295000D01*
X19560353Y-76295000D01*
X19502203Y-76283433D01*
X19447425Y-76260743D01*
X19447424Y-76260743D01*
X19447423Y-76260742D01*
X19398124Y-76227802D01*
X19356198Y-76185876D01*
X19323258Y-76136577D01*
X19323257Y-76136575D01*
X19300567Y-76081797D01*
X19289000Y-76023647D01*
X19289000Y-75964353D01*
X19300567Y-75906203D01*
X19323257Y-75851425D01*
X19323258Y-75851423D01*
X19356198Y-75802124D01*
X19398124Y-75760198D01*
X19447423Y-75727258D01*
X19447425Y-75727257D01*
X19502203Y-75704567D01*
X19560353Y-75693000D01*
X19619647Y-75693000D01*
X19677797Y-75704567D01*
G37*
G36*
X20677797Y-75704567D02*
G01*
X20732575Y-75727257D01*
X20732577Y-75727258D01*
X20781876Y-75760198D01*
X20823802Y-75802124D01*
X20856742Y-75851423D01*
X20856743Y-75851425D01*
X20879433Y-75906203D01*
X20891000Y-75964353D01*
X20891000Y-76023647D01*
X20879433Y-76081797D01*
X20856743Y-76136575D01*
X20856742Y-76136577D01*
X20823802Y-76185876D01*
X20781876Y-76227802D01*
X20732577Y-76260742D01*
X20732576Y-76260743D01*
X20732575Y-76260743D01*
X20677797Y-76283433D01*
X20619647Y-76295000D01*
X20560353Y-76295000D01*
X20502203Y-76283433D01*
X20447425Y-76260743D01*
X20447424Y-76260743D01*
X20447423Y-76260742D01*
X20398124Y-76227802D01*
X20356198Y-76185876D01*
X20323258Y-76136577D01*
X20323257Y-76136575D01*
X20300567Y-76081797D01*
X20289000Y-76023647D01*
X20289000Y-75964353D01*
X20300567Y-75906203D01*
X20323257Y-75851425D01*
X20323258Y-75851423D01*
X20356198Y-75802124D01*
X20398124Y-75760198D01*
X20447423Y-75727258D01*
X20447425Y-75727257D01*
X20502203Y-75704567D01*
X20560353Y-75693000D01*
X20619647Y-75693000D01*
X20677797Y-75704567D01*
G37*
G36*
X21677797Y-75704567D02*
G01*
X21732575Y-75727257D01*
X21732577Y-75727258D01*
X21781876Y-75760198D01*
X21823802Y-75802124D01*
X21856742Y-75851423D01*
X21856743Y-75851425D01*
X21879433Y-75906203D01*
X21891000Y-75964353D01*
X21891000Y-76023647D01*
X21879433Y-76081797D01*
X21856743Y-76136575D01*
X21856742Y-76136577D01*
X21823802Y-76185876D01*
X21781876Y-76227802D01*
X21732577Y-76260742D01*
X21732576Y-76260743D01*
X21732575Y-76260743D01*
X21677797Y-76283433D01*
X21619647Y-76295000D01*
X21560353Y-76295000D01*
X21502203Y-76283433D01*
X21447425Y-76260743D01*
X21447424Y-76260743D01*
X21447423Y-76260742D01*
X21398124Y-76227802D01*
X21356198Y-76185876D01*
X21323258Y-76136577D01*
X21323257Y-76136575D01*
X21300567Y-76081797D01*
X21289000Y-76023647D01*
X21289000Y-75964353D01*
X21300567Y-75906203D01*
X21323257Y-75851425D01*
X21323258Y-75851423D01*
X21356198Y-75802124D01*
X21398124Y-75760198D01*
X21447423Y-75727258D01*
X21447425Y-75727257D01*
X21502203Y-75704567D01*
X21560353Y-75693000D01*
X21619647Y-75693000D01*
X21677797Y-75704567D01*
G37*
G36*
X20677797Y-74704567D02*
G01*
X20732575Y-74727257D01*
X20732577Y-74727258D01*
X20781876Y-74760198D01*
X20823802Y-74802124D01*
X20856742Y-74851423D01*
X20856743Y-74851425D01*
X20879433Y-74906203D01*
X20891000Y-74964353D01*
X20891000Y-75023647D01*
X20879433Y-75081797D01*
X20856743Y-75136575D01*
X20856742Y-75136577D01*
X20823802Y-75185876D01*
X20781876Y-75227802D01*
X20732577Y-75260742D01*
X20732576Y-75260743D01*
X20732575Y-75260743D01*
X20677797Y-75283433D01*
X20619647Y-75295000D01*
X20560353Y-75295000D01*
X20502203Y-75283433D01*
X20447425Y-75260743D01*
X20447424Y-75260743D01*
X20447423Y-75260742D01*
X20398124Y-75227802D01*
X20356198Y-75185876D01*
X20323258Y-75136577D01*
X20323257Y-75136575D01*
X20300567Y-75081797D01*
X20289000Y-75023647D01*
X20289000Y-74964353D01*
X20300567Y-74906203D01*
X20323257Y-74851425D01*
X20323258Y-74851423D01*
X20356198Y-74802124D01*
X20398124Y-74760198D01*
X20447423Y-74727258D01*
X20447425Y-74727257D01*
X20502203Y-74704567D01*
X20560353Y-74693000D01*
X20619647Y-74693000D01*
X20677797Y-74704567D01*
G37*
G36*
X21677797Y-74704567D02*
G01*
X21732575Y-74727257D01*
X21732577Y-74727258D01*
X21781876Y-74760198D01*
X21823802Y-74802124D01*
X21856742Y-74851423D01*
X21856743Y-74851425D01*
X21879433Y-74906203D01*
X21891000Y-74964353D01*
X21891000Y-75023647D01*
X21879433Y-75081797D01*
X21856743Y-75136575D01*
X21856742Y-75136577D01*
X21823802Y-75185876D01*
X21781876Y-75227802D01*
X21732577Y-75260742D01*
X21732576Y-75260743D01*
X21732575Y-75260743D01*
X21677797Y-75283433D01*
X21619647Y-75295000D01*
X21560353Y-75295000D01*
X21502203Y-75283433D01*
X21447425Y-75260743D01*
X21447424Y-75260743D01*
X21447423Y-75260742D01*
X21398124Y-75227802D01*
X21356198Y-75185876D01*
X21323258Y-75136577D01*
X21323257Y-75136575D01*
X21300567Y-75081797D01*
X21289000Y-75023647D01*
X21289000Y-74964353D01*
X21300567Y-74906203D01*
X21323257Y-74851425D01*
X21323258Y-74851423D01*
X21356198Y-74802124D01*
X21398124Y-74760198D01*
X21447423Y-74727258D01*
X21447425Y-74727257D01*
X21502203Y-74704567D01*
X21560353Y-74693000D01*
X21619647Y-74693000D01*
X21677797Y-74704567D01*
G37*
G36*
X18677797Y-74704567D02*
G01*
X18732575Y-74727257D01*
X18732577Y-74727258D01*
X18781876Y-74760198D01*
X18823802Y-74802124D01*
X18856742Y-74851423D01*
X18856743Y-74851425D01*
X18879433Y-74906203D01*
X18891000Y-74964353D01*
X18891000Y-75023647D01*
X18879433Y-75081797D01*
X18856743Y-75136575D01*
X18856742Y-75136577D01*
X18823802Y-75185876D01*
X18781876Y-75227802D01*
X18732577Y-75260742D01*
X18732576Y-75260743D01*
X18732575Y-75260743D01*
X18677797Y-75283433D01*
X18619647Y-75295000D01*
X18560353Y-75295000D01*
X18502203Y-75283433D01*
X18447425Y-75260743D01*
X18447424Y-75260743D01*
X18447423Y-75260742D01*
X18398124Y-75227802D01*
X18356198Y-75185876D01*
X18323258Y-75136577D01*
X18323257Y-75136575D01*
X18300567Y-75081797D01*
X18289000Y-75023647D01*
X18289000Y-74964353D01*
X18300567Y-74906203D01*
X18323257Y-74851425D01*
X18323258Y-74851423D01*
X18356198Y-74802124D01*
X18398124Y-74760198D01*
X18447423Y-74727258D01*
X18447425Y-74727257D01*
X18502203Y-74704567D01*
X18560353Y-74693000D01*
X18619647Y-74693000D01*
X18677797Y-74704567D01*
G37*
G36*
X19677797Y-74704567D02*
G01*
X19732575Y-74727257D01*
X19732577Y-74727258D01*
X19781876Y-74760198D01*
X19823802Y-74802124D01*
X19856742Y-74851423D01*
X19856743Y-74851425D01*
X19879433Y-74906203D01*
X19891000Y-74964353D01*
X19891000Y-75023647D01*
X19879433Y-75081797D01*
X19856743Y-75136575D01*
X19856742Y-75136577D01*
X19823802Y-75185876D01*
X19781876Y-75227802D01*
X19732577Y-75260742D01*
X19732576Y-75260743D01*
X19732575Y-75260743D01*
X19677797Y-75283433D01*
X19619647Y-75295000D01*
X19560353Y-75295000D01*
X19502203Y-75283433D01*
X19447425Y-75260743D01*
X19447424Y-75260743D01*
X19447423Y-75260742D01*
X19398124Y-75227802D01*
X19356198Y-75185876D01*
X19323258Y-75136577D01*
X19323257Y-75136575D01*
X19300567Y-75081797D01*
X19289000Y-75023647D01*
X19289000Y-74964353D01*
X19300567Y-74906203D01*
X19323257Y-74851425D01*
X19323258Y-74851423D01*
X19356198Y-74802124D01*
X19398124Y-74760198D01*
X19447423Y-74727258D01*
X19447425Y-74727257D01*
X19502203Y-74704567D01*
X19560353Y-74693000D01*
X19619647Y-74693000D01*
X19677797Y-74704567D01*
G37*
G36*
X17677797Y-74704567D02*
G01*
X17732575Y-74727257D01*
X17732577Y-74727258D01*
X17781876Y-74760198D01*
X17823802Y-74802124D01*
X17856742Y-74851423D01*
X17856743Y-74851425D01*
X17879433Y-74906203D01*
X17891000Y-74964353D01*
X17891000Y-75023647D01*
X17879433Y-75081797D01*
X17856743Y-75136575D01*
X17856742Y-75136577D01*
X17823802Y-75185876D01*
X17781876Y-75227802D01*
X17732577Y-75260742D01*
X17732576Y-75260743D01*
X17732575Y-75260743D01*
X17677797Y-75283433D01*
X17619647Y-75295000D01*
X17560353Y-75295000D01*
X17502203Y-75283433D01*
X17447425Y-75260743D01*
X17447424Y-75260743D01*
X17447423Y-75260742D01*
X17398124Y-75227802D01*
X17356198Y-75185876D01*
X17323258Y-75136577D01*
X17323257Y-75136575D01*
X17300567Y-75081797D01*
X17289000Y-75023647D01*
X17289000Y-74964353D01*
X17300567Y-74906203D01*
X17323257Y-74851425D01*
X17323258Y-74851423D01*
X17356198Y-74802124D01*
X17398124Y-74760198D01*
X17447423Y-74727258D01*
X17447425Y-74727257D01*
X17502203Y-74704567D01*
X17560353Y-74693000D01*
X17619647Y-74693000D01*
X17677797Y-74704567D01*
G37*
G36*
X65874112Y-72687727D02*
G01*
X66023412Y-72717424D01*
X66187384Y-72785344D01*
X66334954Y-72883947D01*
X66460453Y-73009446D01*
X66559056Y-73157016D01*
X66626976Y-73320988D01*
X66661600Y-73495059D01*
X66661600Y-73672541D01*
X66626976Y-73846612D01*
X66559056Y-74010584D01*
X66460453Y-74158154D01*
X66334954Y-74283653D01*
X66187384Y-74382256D01*
X66023412Y-74450176D01*
X65874112Y-74479873D01*
X65849342Y-74484800D01*
X65671858Y-74484800D01*
X65647088Y-74479873D01*
X65497788Y-74450176D01*
X65333816Y-74382256D01*
X65186246Y-74283653D01*
X65060747Y-74158154D01*
X64962144Y-74010584D01*
X64894224Y-73846612D01*
X64859600Y-73672541D01*
X64859600Y-73495059D01*
X64894224Y-73320988D01*
X64962144Y-73157016D01*
X65060747Y-73009446D01*
X65186246Y-72883947D01*
X65333816Y-72785344D01*
X65497788Y-72717424D01*
X65647088Y-72687727D01*
X65671858Y-72682800D01*
X65849342Y-72682800D01*
X65874112Y-72687727D01*
G37*
G36*
X68414112Y-72687727D02*
G01*
X68563412Y-72717424D01*
X68727384Y-72785344D01*
X68874954Y-72883947D01*
X69000453Y-73009446D01*
X69099056Y-73157016D01*
X69166976Y-73320988D01*
X69201600Y-73495059D01*
X69201600Y-73672541D01*
X69166976Y-73846612D01*
X69099056Y-74010584D01*
X69000453Y-74158154D01*
X68874954Y-74283653D01*
X68727384Y-74382256D01*
X68563412Y-74450176D01*
X68414112Y-74479873D01*
X68389342Y-74484800D01*
X68211858Y-74484800D01*
X68187088Y-74479873D01*
X68037788Y-74450176D01*
X67873816Y-74382256D01*
X67726246Y-74283653D01*
X67600747Y-74158154D01*
X67502144Y-74010584D01*
X67434224Y-73846612D01*
X67399600Y-73672541D01*
X67399600Y-73495059D01*
X67434224Y-73320988D01*
X67502144Y-73157016D01*
X67600747Y-73009446D01*
X67726246Y-72883947D01*
X67873816Y-72785344D01*
X68037788Y-72717424D01*
X68187088Y-72687727D01*
X68211858Y-72682800D01*
X68389342Y-72682800D01*
X68414112Y-72687727D01*
G37*
G36*
X68414112Y-70147727D02*
G01*
X68563412Y-70177424D01*
X68727384Y-70245344D01*
X68874954Y-70343947D01*
X69000453Y-70469446D01*
X69099056Y-70617016D01*
X69166976Y-70780988D01*
X69201600Y-70955059D01*
X69201600Y-71132541D01*
X69166976Y-71306612D01*
X69099056Y-71470584D01*
X69000453Y-71618154D01*
X68874954Y-71743653D01*
X68727384Y-71842256D01*
X68563412Y-71910176D01*
X68414112Y-71939873D01*
X68389342Y-71944800D01*
X68211858Y-71944800D01*
X68187088Y-71939873D01*
X68037788Y-71910176D01*
X67873816Y-71842256D01*
X67726246Y-71743653D01*
X67600747Y-71618154D01*
X67502144Y-71470584D01*
X67434224Y-71306612D01*
X67399600Y-71132541D01*
X67399600Y-70955059D01*
X67434224Y-70780988D01*
X67502144Y-70617016D01*
X67600747Y-70469446D01*
X67726246Y-70343947D01*
X67873816Y-70245344D01*
X68037788Y-70177424D01*
X68187088Y-70147727D01*
X68211858Y-70142800D01*
X68389342Y-70142800D01*
X68414112Y-70147727D01*
G37*
G36*
X65874112Y-70147727D02*
G01*
X66023412Y-70177424D01*
X66187384Y-70245344D01*
X66334954Y-70343947D01*
X66460453Y-70469446D01*
X66559056Y-70617016D01*
X66626976Y-70780988D01*
X66661600Y-70955059D01*
X66661600Y-71132541D01*
X66626976Y-71306612D01*
X66559056Y-71470584D01*
X66460453Y-71618154D01*
X66334954Y-71743653D01*
X66187384Y-71842256D01*
X66023412Y-71910176D01*
X65874112Y-71939873D01*
X65849342Y-71944800D01*
X65671858Y-71944800D01*
X65647088Y-71939873D01*
X65497788Y-71910176D01*
X65333816Y-71842256D01*
X65186246Y-71743653D01*
X65060747Y-71618154D01*
X64962144Y-71470584D01*
X64894224Y-71306612D01*
X64859600Y-71132541D01*
X64859600Y-70955059D01*
X64894224Y-70780988D01*
X64962144Y-70617016D01*
X65060747Y-70469446D01*
X65186246Y-70343947D01*
X65333816Y-70245344D01*
X65497788Y-70177424D01*
X65647088Y-70147727D01*
X65671858Y-70142800D01*
X65849342Y-70142800D01*
X65874112Y-70147727D01*
G37*
G36*
X65874112Y-67607727D02*
G01*
X66023412Y-67637424D01*
X66187384Y-67705344D01*
X66334954Y-67803947D01*
X66460453Y-67929446D01*
X66559056Y-68077016D01*
X66626976Y-68240988D01*
X66661600Y-68415059D01*
X66661600Y-68592541D01*
X66626976Y-68766612D01*
X66559056Y-68930584D01*
X66460453Y-69078154D01*
X66334954Y-69203653D01*
X66187384Y-69302256D01*
X66023412Y-69370176D01*
X65874112Y-69399873D01*
X65849342Y-69404800D01*
X65671858Y-69404800D01*
X65647088Y-69399873D01*
X65497788Y-69370176D01*
X65333816Y-69302256D01*
X65186246Y-69203653D01*
X65060747Y-69078154D01*
X64962144Y-68930584D01*
X64894224Y-68766612D01*
X64859600Y-68592541D01*
X64859600Y-68415059D01*
X64894224Y-68240988D01*
X64962144Y-68077016D01*
X65060747Y-67929446D01*
X65186246Y-67803947D01*
X65333816Y-67705344D01*
X65497788Y-67637424D01*
X65647088Y-67607727D01*
X65671858Y-67602800D01*
X65849342Y-67602800D01*
X65874112Y-67607727D01*
G37*
G36*
X68414112Y-67607727D02*
G01*
X68563412Y-67637424D01*
X68727384Y-67705344D01*
X68874954Y-67803947D01*
X69000453Y-67929446D01*
X69099056Y-68077016D01*
X69166976Y-68240988D01*
X69201600Y-68415059D01*
X69201600Y-68592541D01*
X69166976Y-68766612D01*
X69099056Y-68930584D01*
X69000453Y-69078154D01*
X68874954Y-69203653D01*
X68727384Y-69302256D01*
X68563412Y-69370176D01*
X68414112Y-69399873D01*
X68389342Y-69404800D01*
X68211858Y-69404800D01*
X68187088Y-69399873D01*
X68037788Y-69370176D01*
X67873816Y-69302256D01*
X67726246Y-69203653D01*
X67600747Y-69078154D01*
X67502144Y-68930584D01*
X67434224Y-68766612D01*
X67399600Y-68592541D01*
X67399600Y-68415059D01*
X67434224Y-68240988D01*
X67502144Y-68077016D01*
X67600747Y-67929446D01*
X67726246Y-67803947D01*
X67873816Y-67705344D01*
X68037788Y-67637424D01*
X68187088Y-67607727D01*
X68211858Y-67602800D01*
X68389342Y-67602800D01*
X68414112Y-67607727D01*
G37*
G36*
X38371400Y-68761000D02*
G01*
X37069400Y-68761000D01*
X37069400Y-68059000D01*
X38371400Y-68059000D01*
X38371400Y-68761000D01*
G37*
G36*
X35371400Y-68761000D02*
G01*
X34069400Y-68761000D01*
X34069400Y-68059000D01*
X35371400Y-68059000D01*
X35371400Y-68761000D01*
G37*
G36*
X45889800Y-68151400D02*
G01*
X44587800Y-68151400D01*
X44587800Y-67449400D01*
X45889800Y-67449400D01*
X45889800Y-68151400D01*
G37*
G36*
X42889800Y-68151400D02*
G01*
X41587800Y-68151400D01*
X41587800Y-67449400D01*
X42889800Y-67449400D01*
X42889800Y-68151400D01*
G37*
G36*
X30903800Y-68100600D02*
G01*
X29601800Y-68100600D01*
X29601800Y-67398600D01*
X30903800Y-67398600D01*
X30903800Y-68100600D01*
G37*
G36*
X27903800Y-68100600D02*
G01*
X26601800Y-68100600D01*
X26601800Y-67398600D01*
X27903800Y-67398600D01*
X27903800Y-68100600D01*
G37*
G36*
X38371400Y-67661000D02*
G01*
X37069400Y-67661000D01*
X37069400Y-66959000D01*
X38371400Y-66959000D01*
X38371400Y-67661000D01*
G37*
G36*
X35371400Y-67661000D02*
G01*
X34069400Y-67661000D01*
X34069400Y-66959000D01*
X35371400Y-66959000D01*
X35371400Y-67661000D01*
G37*
G36*
X42889800Y-67051400D02*
G01*
X41587800Y-67051400D01*
X41587800Y-66349400D01*
X42889800Y-66349400D01*
X42889800Y-67051400D01*
G37*
G36*
X45889800Y-67051400D02*
G01*
X44587800Y-67051400D01*
X44587800Y-66349400D01*
X45889800Y-66349400D01*
X45889800Y-67051400D01*
G37*
G36*
X27903800Y-67000600D02*
G01*
X26601800Y-67000600D01*
X26601800Y-66298600D01*
X27903800Y-66298600D01*
X27903800Y-67000600D01*
G37*
G36*
X30903800Y-67000600D02*
G01*
X29601800Y-67000600D01*
X29601800Y-66298600D01*
X30903800Y-66298600D01*
X30903800Y-67000600D01*
G37*
G36*
X65874112Y-65067727D02*
G01*
X66023412Y-65097424D01*
X66187384Y-65165344D01*
X66334954Y-65263947D01*
X66460453Y-65389446D01*
X66559056Y-65537016D01*
X66626976Y-65700988D01*
X66661600Y-65875059D01*
X66661600Y-66052541D01*
X66626976Y-66226612D01*
X66559056Y-66390584D01*
X66460453Y-66538154D01*
X66334954Y-66663653D01*
X66187384Y-66762256D01*
X66023412Y-66830176D01*
X65874112Y-66859873D01*
X65849342Y-66864800D01*
X65671858Y-66864800D01*
X65647088Y-66859873D01*
X65497788Y-66830176D01*
X65333816Y-66762256D01*
X65186246Y-66663653D01*
X65060747Y-66538154D01*
X64962144Y-66390584D01*
X64894224Y-66226612D01*
X64859600Y-66052541D01*
X64859600Y-65875059D01*
X64894224Y-65700988D01*
X64962144Y-65537016D01*
X65060747Y-65389446D01*
X65186246Y-65263947D01*
X65333816Y-65165344D01*
X65497788Y-65097424D01*
X65647088Y-65067727D01*
X65671858Y-65062800D01*
X65849342Y-65062800D01*
X65874112Y-65067727D01*
G37*
G36*
X68414112Y-65067727D02*
G01*
X68563412Y-65097424D01*
X68727384Y-65165344D01*
X68874954Y-65263947D01*
X69000453Y-65389446D01*
X69099056Y-65537016D01*
X69166976Y-65700988D01*
X69201600Y-65875059D01*
X69201600Y-66052541D01*
X69166976Y-66226612D01*
X69099056Y-66390584D01*
X69000453Y-66538154D01*
X68874954Y-66663653D01*
X68727384Y-66762256D01*
X68563412Y-66830176D01*
X68414112Y-66859873D01*
X68389342Y-66864800D01*
X68211858Y-66864800D01*
X68187088Y-66859873D01*
X68037788Y-66830176D01*
X67873816Y-66762256D01*
X67726246Y-66663653D01*
X67600747Y-66538154D01*
X67502144Y-66390584D01*
X67434224Y-66226612D01*
X67399600Y-66052541D01*
X67399600Y-65875059D01*
X67434224Y-65700988D01*
X67502144Y-65537016D01*
X67600747Y-65389446D01*
X67726246Y-65263947D01*
X67873816Y-65165344D01*
X68037788Y-65097424D01*
X68187088Y-65067727D01*
X68211858Y-65062800D01*
X68389342Y-65062800D01*
X68414112Y-65067727D01*
G37*
G36*
X38371400Y-66561000D02*
G01*
X37069400Y-66561000D01*
X37069400Y-65859000D01*
X38371400Y-65859000D01*
X38371400Y-66561000D01*
G37*
G36*
X35371400Y-66561000D02*
G01*
X34069400Y-66561000D01*
X34069400Y-65859000D01*
X35371400Y-65859000D01*
X35371400Y-66561000D01*
G37*
G36*
X6793400Y-66205000D02*
G01*
X4991400Y-66205000D01*
X4991400Y-65103000D01*
X6793400Y-65103000D01*
X6793400Y-66205000D01*
G37*
G36*
X13093400Y-66205000D02*
G01*
X11291400Y-66205000D01*
X11291400Y-65103000D01*
X13093400Y-65103000D01*
X13093400Y-66205000D01*
G37*
G36*
X45889800Y-65951400D02*
G01*
X44587800Y-65951400D01*
X44587800Y-65249400D01*
X45889800Y-65249400D01*
X45889800Y-65951400D01*
G37*
G36*
X42889800Y-65951400D02*
G01*
X41587800Y-65951400D01*
X41587800Y-65249400D01*
X42889800Y-65249400D01*
X42889800Y-65951400D01*
G37*
G36*
X30903800Y-65900600D02*
G01*
X29601800Y-65900600D01*
X29601800Y-65198600D01*
X30903800Y-65198600D01*
X30903800Y-65900600D01*
G37*
G36*
X27903800Y-65900600D02*
G01*
X26601800Y-65900600D01*
X26601800Y-65198600D01*
X27903800Y-65198600D01*
X27903800Y-65900600D01*
G37*
G36*
X68414112Y-62527727D02*
G01*
X68563412Y-62557424D01*
X68727384Y-62625344D01*
X68874954Y-62723947D01*
X69000453Y-62849446D01*
X69099056Y-62997016D01*
X69166976Y-63160988D01*
X69201600Y-63335059D01*
X69201600Y-63512541D01*
X69166976Y-63686612D01*
X69099056Y-63850584D01*
X69000453Y-63998154D01*
X68874954Y-64123653D01*
X68727384Y-64222256D01*
X68563412Y-64290176D01*
X68414112Y-64319873D01*
X68389342Y-64324800D01*
X68211858Y-64324800D01*
X68187088Y-64319873D01*
X68037788Y-64290176D01*
X67873816Y-64222256D01*
X67726246Y-64123653D01*
X67600747Y-63998154D01*
X67502144Y-63850584D01*
X67434224Y-63686612D01*
X67399600Y-63512541D01*
X67399600Y-63335059D01*
X67434224Y-63160988D01*
X67502144Y-62997016D01*
X67600747Y-62849446D01*
X67726246Y-62723947D01*
X67873816Y-62625344D01*
X68037788Y-62557424D01*
X68187088Y-62527727D01*
X68211858Y-62522800D01*
X68389342Y-62522800D01*
X68414112Y-62527727D01*
G37*
G36*
X66661600Y-64324800D02*
G01*
X64859600Y-64324800D01*
X64859600Y-62522800D01*
X66661600Y-62522800D01*
X66661600Y-64324800D01*
G37*
G36*
X2192721Y-63224174D02*
G01*
X2292995Y-63265709D01*
X2292996Y-63265710D01*
X2383242Y-63326010D01*
X2459990Y-63402758D01*
X2459991Y-63402760D01*
X2520291Y-63493005D01*
X2561826Y-63593279D01*
X2583000Y-63699730D01*
X2583000Y-63808270D01*
X2561826Y-63914721D01*
X2520291Y-64014995D01*
X2520290Y-64014996D01*
X2459990Y-64105242D01*
X2383242Y-64181990D01*
X2337812Y-64212345D01*
X2292995Y-64242291D01*
X2192721Y-64283826D01*
X2086270Y-64305000D01*
X1977730Y-64305000D01*
X1871279Y-64283826D01*
X1771005Y-64242291D01*
X1726188Y-64212345D01*
X1680758Y-64181990D01*
X1604010Y-64105242D01*
X1543710Y-64014996D01*
X1543709Y-64014995D01*
X1502174Y-63914721D01*
X1481000Y-63808270D01*
X1481000Y-63699730D01*
X1502174Y-63593279D01*
X1543709Y-63493005D01*
X1604009Y-63402760D01*
X1604010Y-63402758D01*
X1680758Y-63326010D01*
X1771004Y-63265710D01*
X1771005Y-63265709D01*
X1871279Y-63224174D01*
X1977730Y-63203000D01*
X2086270Y-63203000D01*
X2192721Y-63224174D01*
G37*
G36*
X13093400Y-62405000D02*
G01*
X11291400Y-62405000D01*
X11291400Y-61303000D01*
X13093400Y-61303000D01*
X13093400Y-62405000D01*
G37*
G36*
X6793400Y-62405000D02*
G01*
X4991400Y-62405000D01*
X4991400Y-61303000D01*
X6793400Y-61303000D01*
X6793400Y-62405000D01*
G37*
G36*
X26484200Y-62055400D02*
G01*
X25182200Y-62055400D01*
X25182200Y-61353400D01*
X26484200Y-61353400D01*
X26484200Y-62055400D01*
G37*
G36*
X23484200Y-62055400D02*
G01*
X22182200Y-62055400D01*
X22182200Y-61353400D01*
X23484200Y-61353400D01*
X23484200Y-62055400D01*
G37*
G36*
X47258600Y-61953800D02*
G01*
X45956600Y-61953800D01*
X45956600Y-61251800D01*
X47258600Y-61251800D01*
X47258600Y-61953800D01*
G37*
G36*
X50258600Y-61953800D02*
G01*
X48956600Y-61953800D01*
X48956600Y-61251800D01*
X50258600Y-61251800D01*
X50258600Y-61953800D01*
G37*
G36*
X2192721Y-60684174D02*
G01*
X2292995Y-60725709D01*
X2307214Y-60735210D01*
X2383242Y-60786010D01*
X2459990Y-60862758D01*
X2459991Y-60862760D01*
X2520291Y-60953005D01*
X2561826Y-61053279D01*
X2583000Y-61159730D01*
X2583000Y-61268270D01*
X2561826Y-61374721D01*
X2520291Y-61474995D01*
X2520290Y-61474996D01*
X2459990Y-61565242D01*
X2383242Y-61641990D01*
X2337812Y-61672345D01*
X2292995Y-61702291D01*
X2192721Y-61743826D01*
X2086270Y-61765000D01*
X1977730Y-61765000D01*
X1871279Y-61743826D01*
X1771005Y-61702291D01*
X1726188Y-61672345D01*
X1680758Y-61641990D01*
X1604010Y-61565242D01*
X1543710Y-61474996D01*
X1543709Y-61474995D01*
X1502174Y-61374721D01*
X1481000Y-61268270D01*
X1481000Y-61159730D01*
X1502174Y-61053279D01*
X1543709Y-60953005D01*
X1604009Y-60862760D01*
X1604010Y-60862758D01*
X1680758Y-60786010D01*
X1756786Y-60735210D01*
X1771005Y-60725709D01*
X1871279Y-60684174D01*
X1977730Y-60663000D01*
X2086270Y-60663000D01*
X2192721Y-60684174D01*
G37*
G36*
X16797721Y-60633374D02*
G01*
X16897995Y-60674909D01*
X16897996Y-60674910D01*
X16988242Y-60735210D01*
X17064990Y-60811958D01*
X17064991Y-60811960D01*
X17125291Y-60902205D01*
X17166826Y-61002479D01*
X17188000Y-61108930D01*
X17188000Y-61217470D01*
X17166826Y-61323921D01*
X17125291Y-61424195D01*
X17125290Y-61424196D01*
X17064990Y-61514442D01*
X16988242Y-61591190D01*
X16942812Y-61621545D01*
X16897995Y-61651491D01*
X16797721Y-61693026D01*
X16691270Y-61714200D01*
X16582730Y-61714200D01*
X16476279Y-61693026D01*
X16376005Y-61651491D01*
X16331188Y-61621545D01*
X16285758Y-61591190D01*
X16209010Y-61514442D01*
X16148710Y-61424196D01*
X16148709Y-61424195D01*
X16107174Y-61323921D01*
X16086000Y-61217470D01*
X16086000Y-61108930D01*
X16107174Y-61002479D01*
X16148709Y-60902205D01*
X16209009Y-60811960D01*
X16209010Y-60811958D01*
X16285758Y-60735210D01*
X16376004Y-60674910D01*
X16376005Y-60674909D01*
X16476279Y-60633374D01*
X16582730Y-60612200D01*
X16691270Y-60612200D01*
X16797721Y-60633374D01*
G37*
G36*
X23484200Y-60955400D02*
G01*
X22182200Y-60955400D01*
X22182200Y-60253400D01*
X23484200Y-60253400D01*
X23484200Y-60955400D01*
G37*
G36*
X26484200Y-60955400D02*
G01*
X25182200Y-60955400D01*
X25182200Y-60253400D01*
X26484200Y-60253400D01*
X26484200Y-60955400D01*
G37*
G36*
X47258600Y-60853800D02*
G01*
X45956600Y-60853800D01*
X45956600Y-60151800D01*
X47258600Y-60151800D01*
X47258600Y-60853800D01*
G37*
G36*
X50258600Y-60853800D02*
G01*
X48956600Y-60853800D01*
X48956600Y-60151800D01*
X50258600Y-60151800D01*
X50258600Y-60853800D01*
G37*
G36*
X26484200Y-59855400D02*
G01*
X25182200Y-59855400D01*
X25182200Y-59153400D01*
X26484200Y-59153400D01*
X26484200Y-59855400D01*
G37*
G36*
X23484200Y-59855400D02*
G01*
X22182200Y-59855400D01*
X22182200Y-59153400D01*
X23484200Y-59153400D01*
X23484200Y-59855400D01*
G37*
G36*
X50258600Y-59753800D02*
G01*
X48956600Y-59753800D01*
X48956600Y-59051800D01*
X50258600Y-59051800D01*
X50258600Y-59753800D01*
G37*
G36*
X47258600Y-59753800D02*
G01*
X45956600Y-59753800D01*
X45956600Y-59051800D01*
X47258600Y-59051800D01*
X47258600Y-59753800D01*
G37*
G36*
X2192721Y-58271174D02*
G01*
X2292995Y-58312709D01*
X2298646Y-58316485D01*
X2383242Y-58373010D01*
X2459990Y-58449758D01*
X2459991Y-58449760D01*
X2520291Y-58540005D01*
X2561826Y-58640279D01*
X2583000Y-58746730D01*
X2583000Y-58855270D01*
X2561826Y-58961721D01*
X2520291Y-59061995D01*
X2517768Y-59065771D01*
X2459990Y-59152242D01*
X2383242Y-59228990D01*
X2337812Y-59259345D01*
X2292995Y-59289291D01*
X2192721Y-59330826D01*
X2086270Y-59352000D01*
X1977730Y-59352000D01*
X1871279Y-59330826D01*
X1771005Y-59289291D01*
X1726188Y-59259345D01*
X1680758Y-59228990D01*
X1604010Y-59152242D01*
X1546232Y-59065771D01*
X1543709Y-59061995D01*
X1502174Y-58961721D01*
X1481000Y-58855270D01*
X1481000Y-58746730D01*
X1502174Y-58640279D01*
X1543709Y-58540005D01*
X1604009Y-58449760D01*
X1604010Y-58449758D01*
X1680758Y-58373010D01*
X1765354Y-58316485D01*
X1771005Y-58312709D01*
X1871279Y-58271174D01*
X1977730Y-58250000D01*
X2086270Y-58250000D01*
X2192721Y-58271174D01*
G37*
G36*
X16797721Y-58047654D02*
G01*
X16897995Y-58089189D01*
X16897996Y-58089190D01*
X16988242Y-58149490D01*
X17064990Y-58226238D01*
X17064991Y-58226240D01*
X17125291Y-58316485D01*
X17166826Y-58416759D01*
X17188000Y-58523210D01*
X17188000Y-58631750D01*
X17166826Y-58738201D01*
X17125291Y-58838475D01*
X17114069Y-58855270D01*
X17064990Y-58928722D01*
X16988242Y-59005470D01*
X16942812Y-59035825D01*
X16897995Y-59065771D01*
X16797721Y-59107306D01*
X16691270Y-59128480D01*
X16582730Y-59128480D01*
X16476279Y-59107306D01*
X16376005Y-59065771D01*
X16331188Y-59035825D01*
X16285758Y-59005470D01*
X16209010Y-58928722D01*
X16159931Y-58855270D01*
X16148709Y-58838475D01*
X16107174Y-58738201D01*
X16086000Y-58631750D01*
X16086000Y-58523210D01*
X16107174Y-58416759D01*
X16148709Y-58316485D01*
X16209009Y-58226240D01*
X16209010Y-58226238D01*
X16285758Y-58149490D01*
X16376004Y-58089190D01*
X16376005Y-58089189D01*
X16476279Y-58047654D01*
X16582730Y-58026480D01*
X16691270Y-58026480D01*
X16797721Y-58047654D01*
G37*
G36*
X62588408Y-53851448D02*
G01*
X62740151Y-53897478D01*
X62879998Y-53972228D01*
X63002575Y-54072825D01*
X63103172Y-54195402D01*
X63177922Y-54335249D01*
X63223952Y-54486992D01*
X63235600Y-54605254D01*
X63235600Y-56192346D01*
X63223952Y-56310608D01*
X63177922Y-56462351D01*
X63103172Y-56602198D01*
X63002575Y-56724775D01*
X62879997Y-56825372D01*
X62740150Y-56900122D01*
X62588407Y-56946152D01*
X62430600Y-56961695D01*
X62272792Y-56946152D01*
X62121049Y-56900122D01*
X61981202Y-56825372D01*
X61858625Y-56724775D01*
X61758028Y-56602197D01*
X61683278Y-56462350D01*
X61637248Y-56310607D01*
X61625600Y-56192345D01*
X61625601Y-54605254D01*
X61637249Y-54486992D01*
X61683279Y-54335249D01*
X61758029Y-54195402D01*
X61858626Y-54072825D01*
X61981203Y-53972228D01*
X62121050Y-53897478D01*
X62272793Y-53851448D01*
X62430600Y-53835905D01*
X62588408Y-53851448D01*
G37*
G36*
X16797721Y-55461934D02*
G01*
X16897995Y-55503469D01*
X16897996Y-55503470D01*
X16988242Y-55563770D01*
X17064990Y-55640518D01*
X17064991Y-55640520D01*
X17125291Y-55730765D01*
X17166826Y-55831039D01*
X17188000Y-55937490D01*
X17188000Y-56046030D01*
X17166826Y-56152481D01*
X17125291Y-56252755D01*
X17125290Y-56252756D01*
X17064990Y-56343002D01*
X16988242Y-56419750D01*
X16963802Y-56436080D01*
X16897995Y-56480051D01*
X16797721Y-56521586D01*
X16691270Y-56542760D01*
X16582730Y-56542760D01*
X16476279Y-56521586D01*
X16376005Y-56480051D01*
X16310198Y-56436080D01*
X16285758Y-56419750D01*
X16209010Y-56343002D01*
X16148710Y-56252756D01*
X16148709Y-56252755D01*
X16107174Y-56152481D01*
X16086000Y-56046030D01*
X16086000Y-55937490D01*
X16107174Y-55831039D01*
X16148709Y-55730765D01*
X16209009Y-55640520D01*
X16209010Y-55640518D01*
X16285758Y-55563770D01*
X16376004Y-55503470D01*
X16376005Y-55503469D01*
X16476279Y-55461934D01*
X16582730Y-55440760D01*
X16691270Y-55440760D01*
X16797721Y-55461934D01*
G37*
G36*
X33262001Y-55355254D02*
G01*
X33362275Y-55396789D01*
X33362276Y-55396790D01*
X33452522Y-55457090D01*
X33529270Y-55533838D01*
X33529271Y-55533840D01*
X33589571Y-55624085D01*
X33631106Y-55724359D01*
X33652280Y-55830810D01*
X33652280Y-55939350D01*
X33631106Y-56045801D01*
X33589571Y-56146075D01*
X33559625Y-56190892D01*
X33529270Y-56236322D01*
X33452522Y-56313070D01*
X33407728Y-56343000D01*
X33362275Y-56373371D01*
X33262001Y-56414906D01*
X33155550Y-56436080D01*
X33047010Y-56436080D01*
X32940559Y-56414906D01*
X32840285Y-56373371D01*
X32794832Y-56343000D01*
X32750038Y-56313070D01*
X32673290Y-56236322D01*
X32642935Y-56190892D01*
X32612989Y-56146075D01*
X32571454Y-56045801D01*
X32550280Y-55939350D01*
X32550280Y-55830810D01*
X32571454Y-55724359D01*
X32612989Y-55624085D01*
X32673289Y-55533840D01*
X32673290Y-55533838D01*
X32750038Y-55457090D01*
X32840284Y-55396790D01*
X32840285Y-55396789D01*
X32940559Y-55355254D01*
X33047010Y-55334080D01*
X33155550Y-55334080D01*
X33262001Y-55355254D01*
G37*
G36*
X35344801Y-55355254D02*
G01*
X35445075Y-55396789D01*
X35445076Y-55396790D01*
X35535322Y-55457090D01*
X35612070Y-55533838D01*
X35612071Y-55533840D01*
X35672371Y-55624085D01*
X35713906Y-55724359D01*
X35735080Y-55830810D01*
X35735080Y-55939350D01*
X35713906Y-56045801D01*
X35672371Y-56146075D01*
X35642425Y-56190892D01*
X35612070Y-56236322D01*
X35535322Y-56313070D01*
X35490528Y-56343000D01*
X35445075Y-56373371D01*
X35344801Y-56414906D01*
X35238350Y-56436080D01*
X35129810Y-56436080D01*
X35023359Y-56414906D01*
X34923085Y-56373371D01*
X34877632Y-56343000D01*
X34832838Y-56313070D01*
X34756090Y-56236322D01*
X34725735Y-56190892D01*
X34695789Y-56146075D01*
X34654254Y-56045801D01*
X34633080Y-55939350D01*
X34633080Y-55830810D01*
X34654254Y-55724359D01*
X34695789Y-55624085D01*
X34756089Y-55533840D01*
X34756090Y-55533838D01*
X34832838Y-55457090D01*
X34923084Y-55396790D01*
X34923085Y-55396789D01*
X35023359Y-55355254D01*
X35129810Y-55334080D01*
X35238350Y-55334080D01*
X35344801Y-55355254D01*
G37*
G36*
X67333185Y-52377602D02*
G01*
X67483010Y-52407404D01*
X67765274Y-52524321D01*
X68019305Y-52694059D01*
X68235341Y-52910095D01*
X68405079Y-53164126D01*
X68521996Y-53446390D01*
X68524765Y-53460310D01*
X68581600Y-53746039D01*
X68581600Y-54051561D01*
X68563014Y-54145000D01*
X68521996Y-54351210D01*
X68405079Y-54633474D01*
X68235341Y-54887505D01*
X68019305Y-55103541D01*
X67765274Y-55273279D01*
X67483010Y-55390196D01*
X67333185Y-55419998D01*
X67183361Y-55449800D01*
X66877839Y-55449800D01*
X66728015Y-55419998D01*
X66578190Y-55390196D01*
X66295926Y-55273279D01*
X66041895Y-55103541D01*
X65825859Y-54887505D01*
X65656121Y-54633474D01*
X65539204Y-54351210D01*
X65498186Y-54145000D01*
X65479600Y-54051561D01*
X65479600Y-53746039D01*
X65536435Y-53460310D01*
X65539204Y-53446390D01*
X65656121Y-53164126D01*
X65825859Y-52910095D01*
X66041895Y-52694059D01*
X66295926Y-52524321D01*
X66578190Y-52407404D01*
X66728015Y-52377602D01*
X66877839Y-52347800D01*
X67183361Y-52347800D01*
X67333185Y-52377602D01*
G37*
G36*
X20385400Y-55197400D02*
G01*
X19083400Y-55197400D01*
X19083400Y-54495400D01*
X20385400Y-54495400D01*
X20385400Y-55197400D01*
G37*
G36*
X23385400Y-55197400D02*
G01*
X22083400Y-55197400D01*
X22083400Y-54495400D01*
X23385400Y-54495400D01*
X23385400Y-55197400D01*
G37*
G36*
X50357400Y-55146600D02*
G01*
X49055400Y-55146600D01*
X49055400Y-54444600D01*
X50357400Y-54444600D01*
X50357400Y-55146600D01*
G37*
G36*
X53357400Y-55146600D02*
G01*
X52055400Y-55146600D01*
X52055400Y-54444600D01*
X53357400Y-54444600D01*
X53357400Y-55146600D01*
G37*
G36*
X2192721Y-53064174D02*
G01*
X2292995Y-53105709D01*
X2292996Y-53105710D01*
X2383242Y-53166010D01*
X2459990Y-53242758D01*
X2459991Y-53242760D01*
X2520291Y-53333005D01*
X2561826Y-53433279D01*
X2583000Y-53539730D01*
X2583000Y-53648270D01*
X2561826Y-53754721D01*
X2520291Y-53854995D01*
X2520290Y-53854996D01*
X2459990Y-53945242D01*
X2383242Y-54021990D01*
X2346410Y-54046600D01*
X2292995Y-54082291D01*
X2192721Y-54123826D01*
X2086270Y-54145000D01*
X1977730Y-54145000D01*
X1871279Y-54123826D01*
X1771005Y-54082291D01*
X1717590Y-54046600D01*
X1680758Y-54021990D01*
X1604010Y-53945242D01*
X1543710Y-53854996D01*
X1543709Y-53854995D01*
X1502174Y-53754721D01*
X1481000Y-53648270D01*
X1481000Y-53539730D01*
X1502174Y-53433279D01*
X1543709Y-53333005D01*
X1604009Y-53242760D01*
X1604010Y-53242758D01*
X1680758Y-53166010D01*
X1771004Y-53105710D01*
X1771005Y-53105709D01*
X1871279Y-53064174D01*
X1977730Y-53043000D01*
X2086270Y-53043000D01*
X2192721Y-53064174D01*
G37*
G36*
X23385400Y-54097400D02*
G01*
X22083400Y-54097400D01*
X22083400Y-53395400D01*
X23385400Y-53395400D01*
X23385400Y-54097400D01*
G37*
G36*
X20385400Y-54097400D02*
G01*
X19083400Y-54097400D01*
X19083400Y-53395400D01*
X20385400Y-53395400D01*
X20385400Y-54097400D01*
G37*
G36*
X50357400Y-54046600D02*
G01*
X49055400Y-54046600D01*
X49055400Y-53344600D01*
X50357400Y-53344600D01*
X50357400Y-54046600D01*
G37*
G36*
X53357400Y-54046600D02*
G01*
X52055400Y-54046600D01*
X52055400Y-53344600D01*
X53357400Y-53344600D01*
X53357400Y-54046600D01*
G37*
G36*
X16797721Y-52876214D02*
G01*
X16897995Y-52917749D01*
X16897996Y-52917750D01*
X16988242Y-52978050D01*
X17064990Y-53054798D01*
X17064991Y-53054800D01*
X17125291Y-53145045D01*
X17166826Y-53245319D01*
X17188000Y-53351770D01*
X17188000Y-53460310D01*
X17166826Y-53566761D01*
X17125291Y-53667035D01*
X17125290Y-53667036D01*
X17064990Y-53757282D01*
X16988242Y-53834030D01*
X16985434Y-53835906D01*
X16897995Y-53894331D01*
X16797721Y-53935866D01*
X16691270Y-53957040D01*
X16582730Y-53957040D01*
X16476279Y-53935866D01*
X16376005Y-53894331D01*
X16288566Y-53835906D01*
X16285758Y-53834030D01*
X16209010Y-53757282D01*
X16148710Y-53667036D01*
X16148709Y-53667035D01*
X16107174Y-53566761D01*
X16086000Y-53460310D01*
X16086000Y-53351770D01*
X16107174Y-53245319D01*
X16148709Y-53145045D01*
X16209009Y-53054800D01*
X16209010Y-53054798D01*
X16285758Y-52978050D01*
X16376004Y-52917750D01*
X16376005Y-52917749D01*
X16476279Y-52876214D01*
X16582730Y-52855040D01*
X16691270Y-52855040D01*
X16797721Y-52876214D01*
G37*
G36*
X23385400Y-52997400D02*
G01*
X22083400Y-52997400D01*
X22083400Y-52295400D01*
X23385400Y-52295400D01*
X23385400Y-52997400D01*
G37*
G36*
X20385400Y-52997400D02*
G01*
X19083400Y-52997400D01*
X19083400Y-52295400D01*
X20385400Y-52295400D01*
X20385400Y-52997400D01*
G37*
G36*
X50357400Y-52946600D02*
G01*
X49055400Y-52946600D01*
X49055400Y-52244600D01*
X50357400Y-52244600D01*
X50357400Y-52946600D01*
G37*
G36*
X53357400Y-52946600D02*
G01*
X52055400Y-52946600D01*
X52055400Y-52244600D01*
X53357400Y-52244600D01*
X53357400Y-52946600D01*
G37*
G36*
X65617025Y-50161560D02*
G01*
X65617028Y-50161561D01*
X65617029Y-50161561D01*
X65796293Y-50215940D01*
X65796296Y-50215942D01*
X65796297Y-50215942D01*
X65961503Y-50304246D01*
X66106312Y-50423088D01*
X66225154Y-50567897D01*
X66274169Y-50659599D01*
X66313460Y-50733107D01*
X66323453Y-50766051D01*
X66367840Y-50912375D01*
X66386201Y-51098800D01*
X66367840Y-51285225D01*
X66367839Y-51285228D01*
X66367839Y-51285229D01*
X66313460Y-51464493D01*
X66313458Y-51464496D01*
X66313458Y-51464497D01*
X66225154Y-51629703D01*
X66106312Y-51774512D01*
X65961503Y-51893354D01*
X65796297Y-51981658D01*
X65796293Y-51981660D01*
X65617029Y-52036039D01*
X65617028Y-52036039D01*
X65617025Y-52036040D01*
X65477318Y-52049800D01*
X63583882Y-52049800D01*
X63444175Y-52036040D01*
X63444172Y-52036039D01*
X63444171Y-52036039D01*
X63264907Y-51981660D01*
X63264903Y-51981658D01*
X63099697Y-51893354D01*
X62954888Y-51774512D01*
X62836046Y-51629703D01*
X62747742Y-51464497D01*
X62747742Y-51464496D01*
X62747740Y-51464493D01*
X62693361Y-51285229D01*
X62693361Y-51285228D01*
X62693360Y-51285225D01*
X62674999Y-51098800D01*
X62693360Y-50912375D01*
X62737747Y-50766051D01*
X62747740Y-50733107D01*
X62787031Y-50659599D01*
X62836046Y-50567897D01*
X62954888Y-50423088D01*
X63099697Y-50304246D01*
X63264903Y-50215942D01*
X63264904Y-50215942D01*
X63264907Y-50215940D01*
X63444171Y-50161561D01*
X63444172Y-50161561D01*
X63444175Y-50161560D01*
X63583882Y-50147800D01*
X65477318Y-50147800D01*
X65617025Y-50161560D01*
G37*
G36*
X16797721Y-50290494D02*
G01*
X16897995Y-50332029D01*
X16897996Y-50332030D01*
X16988242Y-50392330D01*
X17064990Y-50469078D01*
X17064991Y-50469080D01*
X17125291Y-50559325D01*
X17166826Y-50659599D01*
X17188000Y-50766050D01*
X17188000Y-50874590D01*
X17166826Y-50981041D01*
X17125291Y-51081315D01*
X17125290Y-51081316D01*
X17064990Y-51171562D01*
X16988242Y-51248310D01*
X16942812Y-51278665D01*
X16897995Y-51308611D01*
X16797721Y-51350146D01*
X16691270Y-51371320D01*
X16582730Y-51371320D01*
X16476279Y-51350146D01*
X16376005Y-51308611D01*
X16331188Y-51278665D01*
X16285758Y-51248310D01*
X16209010Y-51171562D01*
X16148710Y-51081316D01*
X16148709Y-51081315D01*
X16107174Y-50981041D01*
X16086000Y-50874590D01*
X16086000Y-50766050D01*
X16107174Y-50659599D01*
X16148709Y-50559325D01*
X16209009Y-50469080D01*
X16209010Y-50469078D01*
X16285758Y-50392330D01*
X16376004Y-50332030D01*
X16376005Y-50332029D01*
X16476279Y-50290494D01*
X16582730Y-50269320D01*
X16691270Y-50269320D01*
X16797721Y-50290494D01*
G37*
G36*
X69317025Y-47661560D02*
G01*
X69317028Y-47661561D01*
X69317029Y-47661561D01*
X69496293Y-47715940D01*
X69496296Y-47715942D01*
X69496297Y-47715942D01*
X69661503Y-47804246D01*
X69806312Y-47923088D01*
X69925154Y-48067897D01*
X70002718Y-48213010D01*
X70013460Y-48233107D01*
X70058021Y-48380005D01*
X70067840Y-48412375D01*
X70086201Y-48598800D01*
X70067840Y-48785225D01*
X70067839Y-48785228D01*
X70067839Y-48785229D01*
X70013460Y-48964493D01*
X70013458Y-48964496D01*
X70013458Y-48964497D01*
X69925154Y-49129703D01*
X69806312Y-49274512D01*
X69661503Y-49393354D01*
X69496297Y-49481658D01*
X69496293Y-49481660D01*
X69317029Y-49536039D01*
X69317028Y-49536039D01*
X69317025Y-49536040D01*
X69177318Y-49549800D01*
X67283882Y-49549800D01*
X67144175Y-49536040D01*
X67144172Y-49536039D01*
X67144171Y-49536039D01*
X66964907Y-49481660D01*
X66964903Y-49481658D01*
X66799697Y-49393354D01*
X66654888Y-49274512D01*
X66536046Y-49129703D01*
X66447742Y-48964497D01*
X66447742Y-48964496D01*
X66447740Y-48964493D01*
X66393361Y-48785229D01*
X66393361Y-48785228D01*
X66393360Y-48785225D01*
X66374999Y-48598800D01*
X66393360Y-48412375D01*
X66403179Y-48380005D01*
X66447740Y-48233107D01*
X66458482Y-48213010D01*
X66536046Y-48067897D01*
X66654888Y-47923088D01*
X66799697Y-47804246D01*
X66964903Y-47715942D01*
X66964904Y-47715942D01*
X66964907Y-47715940D01*
X67144171Y-47661561D01*
X67144172Y-47661561D01*
X67144175Y-47661560D01*
X67283882Y-47647800D01*
X69177318Y-47647800D01*
X69317025Y-47661560D01*
G37*
G36*
X2192721Y-48111174D02*
G01*
X2292995Y-48152709D01*
X2292996Y-48152710D01*
X2383242Y-48213010D01*
X2459990Y-48289758D01*
X2459991Y-48289760D01*
X2520291Y-48380005D01*
X2561826Y-48480279D01*
X2583000Y-48586730D01*
X2583000Y-48695270D01*
X2561826Y-48801721D01*
X2520291Y-48901995D01*
X2520290Y-48901996D01*
X2459990Y-48992242D01*
X2383242Y-49068990D01*
X2337812Y-49099345D01*
X2292995Y-49129291D01*
X2192721Y-49170826D01*
X2086270Y-49192000D01*
X1977730Y-49192000D01*
X1871279Y-49170826D01*
X1771005Y-49129291D01*
X1726188Y-49099345D01*
X1680758Y-49068990D01*
X1604010Y-48992242D01*
X1543710Y-48901996D01*
X1543709Y-48901995D01*
X1502174Y-48801721D01*
X1481000Y-48695270D01*
X1481000Y-48586730D01*
X1502174Y-48480279D01*
X1543709Y-48380005D01*
X1604009Y-48289760D01*
X1604010Y-48289758D01*
X1680758Y-48213010D01*
X1771004Y-48152710D01*
X1771005Y-48152709D01*
X1871279Y-48111174D01*
X1977730Y-48090000D01*
X2086270Y-48090000D01*
X2192721Y-48111174D01*
G37*
G36*
X16797721Y-47704774D02*
G01*
X16897995Y-47746309D01*
X16897996Y-47746310D01*
X16988242Y-47806610D01*
X17064990Y-47883358D01*
X17095345Y-47928788D01*
X17125291Y-47973605D01*
X17166826Y-48073879D01*
X17188000Y-48180330D01*
X17188000Y-48288870D01*
X17166826Y-48395321D01*
X17125291Y-48495595D01*
X17125290Y-48495596D01*
X17064990Y-48585842D01*
X16988242Y-48662590D01*
X16942812Y-48692945D01*
X16897995Y-48722891D01*
X16797721Y-48764426D01*
X16691270Y-48785600D01*
X16582730Y-48785600D01*
X16476279Y-48764426D01*
X16376005Y-48722891D01*
X16331188Y-48692945D01*
X16285758Y-48662590D01*
X16209010Y-48585842D01*
X16148710Y-48495596D01*
X16148709Y-48495595D01*
X16107174Y-48395321D01*
X16086000Y-48288870D01*
X16086000Y-48180330D01*
X16107174Y-48073879D01*
X16148709Y-47973605D01*
X16178655Y-47928788D01*
X16209010Y-47883358D01*
X16285758Y-47806610D01*
X16376004Y-47746310D01*
X16376005Y-47746309D01*
X16476279Y-47704774D01*
X16582730Y-47683600D01*
X16691270Y-47683600D01*
X16797721Y-47704774D01*
G37*
G36*
X26535000Y-48339400D02*
G01*
X25233000Y-48339400D01*
X25233000Y-47637400D01*
X26535000Y-47637400D01*
X26535000Y-48339400D01*
G37*
G36*
X23535000Y-48339400D02*
G01*
X22233000Y-48339400D01*
X22233000Y-47637400D01*
X23535000Y-47637400D01*
X23535000Y-48339400D01*
G37*
G36*
X50207800Y-48339400D02*
G01*
X48905800Y-48339400D01*
X48905800Y-47637400D01*
X50207800Y-47637400D01*
X50207800Y-48339400D01*
G37*
G36*
X47207800Y-48339400D02*
G01*
X45905800Y-48339400D01*
X45905800Y-47637400D01*
X47207800Y-47637400D01*
X47207800Y-48339400D01*
G37*
G36*
X47207800Y-47239400D02*
G01*
X45905800Y-47239400D01*
X45905800Y-46537400D01*
X47207800Y-46537400D01*
X47207800Y-47239400D01*
G37*
G36*
X50207800Y-47239400D02*
G01*
X48905800Y-47239400D01*
X48905800Y-46537400D01*
X50207800Y-46537400D01*
X50207800Y-47239400D01*
G37*
G36*
X26535000Y-47239400D02*
G01*
X25233000Y-47239400D01*
X25233000Y-46537400D01*
X26535000Y-46537400D01*
X26535000Y-47239400D01*
G37*
G36*
X23535000Y-47239400D02*
G01*
X22233000Y-47239400D01*
X22233000Y-46537400D01*
X23535000Y-46537400D01*
X23535000Y-47239400D01*
G37*
G36*
X2192721Y-45571174D02*
G01*
X2292995Y-45612709D01*
X2292996Y-45612710D01*
X2383242Y-45673010D01*
X2459990Y-45749758D01*
X2459991Y-45749760D01*
X2520291Y-45840005D01*
X2561826Y-45940279D01*
X2583000Y-46046730D01*
X2583000Y-46155270D01*
X2561826Y-46261721D01*
X2520291Y-46361995D01*
X2520290Y-46361996D01*
X2459990Y-46452242D01*
X2383242Y-46528990D01*
X2370655Y-46537400D01*
X2292995Y-46589291D01*
X2192721Y-46630826D01*
X2086270Y-46652000D01*
X1977730Y-46652000D01*
X1871279Y-46630826D01*
X1771005Y-46589291D01*
X1693345Y-46537400D01*
X1680758Y-46528990D01*
X1604010Y-46452242D01*
X1543710Y-46361996D01*
X1543709Y-46361995D01*
X1502174Y-46261721D01*
X1481000Y-46155270D01*
X1481000Y-46046730D01*
X1502174Y-45940279D01*
X1543709Y-45840005D01*
X1604009Y-45749760D01*
X1604010Y-45749758D01*
X1680758Y-45673010D01*
X1771004Y-45612710D01*
X1771005Y-45612709D01*
X1871279Y-45571174D01*
X1977730Y-45550000D01*
X2086270Y-45550000D01*
X2192721Y-45571174D01*
G37*
G36*
X50207800Y-46139400D02*
G01*
X48905800Y-46139400D01*
X48905800Y-45437400D01*
X50207800Y-45437400D01*
X50207800Y-46139400D01*
G37*
G36*
X26535000Y-46139400D02*
G01*
X25233000Y-46139400D01*
X25233000Y-45437400D01*
X26535000Y-45437400D01*
X26535000Y-46139400D01*
G37*
G36*
X47207800Y-46139400D02*
G01*
X45905800Y-46139400D01*
X45905800Y-45437400D01*
X47207800Y-45437400D01*
X47207800Y-46139400D01*
G37*
G36*
X23535000Y-46139400D02*
G01*
X22233000Y-46139400D01*
X22233000Y-45437400D01*
X23535000Y-45437400D01*
X23535000Y-46139400D01*
G37*
G36*
X6895000Y-46139000D02*
G01*
X5093000Y-46139000D01*
X5093000Y-45037000D01*
X6895000Y-45037000D01*
X6895000Y-46139000D01*
G37*
G36*
X13195000Y-46139000D02*
G01*
X11393000Y-46139000D01*
X11393000Y-45037000D01*
X13195000Y-45037000D01*
X13195000Y-46139000D01*
G37*
G36*
X2192721Y-42904174D02*
G01*
X2292995Y-42945709D01*
X2292996Y-42945710D01*
X2383242Y-43006010D01*
X2459990Y-43082758D01*
X2459991Y-43082760D01*
X2520291Y-43173005D01*
X2561826Y-43273279D01*
X2583000Y-43379730D01*
X2583000Y-43488270D01*
X2561826Y-43594721D01*
X2520291Y-43694995D01*
X2520290Y-43694996D01*
X2459990Y-43785242D01*
X2383242Y-43861990D01*
X2351199Y-43883400D01*
X2292995Y-43922291D01*
X2192721Y-43963826D01*
X2086270Y-43985000D01*
X1977730Y-43985000D01*
X1871279Y-43963826D01*
X1771005Y-43922291D01*
X1712801Y-43883400D01*
X1680758Y-43861990D01*
X1604010Y-43785242D01*
X1543710Y-43694996D01*
X1543709Y-43694995D01*
X1502174Y-43594721D01*
X1481000Y-43488270D01*
X1481000Y-43379730D01*
X1502174Y-43273279D01*
X1543709Y-43173005D01*
X1604009Y-43082760D01*
X1604010Y-43082758D01*
X1680758Y-43006010D01*
X1771004Y-42945710D01*
X1771005Y-42945709D01*
X1871279Y-42904174D01*
X1977730Y-42883000D01*
X2086270Y-42883000D01*
X2192721Y-42904174D01*
G37*
G36*
X16797721Y-42802574D02*
G01*
X16897995Y-42844109D01*
X16897996Y-42844110D01*
X16988242Y-42904410D01*
X17064990Y-42981158D01*
X17064991Y-42981160D01*
X17125291Y-43071405D01*
X17166826Y-43171679D01*
X17188000Y-43278130D01*
X17188000Y-43386670D01*
X17166826Y-43493121D01*
X17125291Y-43593395D01*
X17125290Y-43593396D01*
X17064990Y-43683642D01*
X16988242Y-43760390D01*
X16951051Y-43785240D01*
X16897995Y-43820691D01*
X16797721Y-43862226D01*
X16691270Y-43883400D01*
X16582730Y-43883400D01*
X16476279Y-43862226D01*
X16376005Y-43820691D01*
X16322949Y-43785240D01*
X16285758Y-43760390D01*
X16209010Y-43683642D01*
X16148710Y-43593396D01*
X16148709Y-43593395D01*
X16107174Y-43493121D01*
X16086000Y-43386670D01*
X16086000Y-43278130D01*
X16107174Y-43171679D01*
X16148709Y-43071405D01*
X16209009Y-42981160D01*
X16209010Y-42981158D01*
X16285758Y-42904410D01*
X16376004Y-42844110D01*
X16376005Y-42844109D01*
X16476279Y-42802574D01*
X16582730Y-42781400D01*
X16691270Y-42781400D01*
X16797721Y-42802574D01*
G37*
G36*
X13195000Y-42339000D02*
G01*
X11393000Y-42339000D01*
X11393000Y-41237000D01*
X13195000Y-41237000D01*
X13195000Y-42339000D01*
G37*
G36*
X6895000Y-42339000D02*
G01*
X5093000Y-42339000D01*
X5093000Y-41237000D01*
X6895000Y-41237000D01*
X6895000Y-42339000D01*
G37*
G36*
X30853000Y-42243400D02*
G01*
X29551000Y-42243400D01*
X29551000Y-41541400D01*
X30853000Y-41541400D01*
X30853000Y-42243400D01*
G37*
G36*
X27853000Y-42243400D02*
G01*
X26551000Y-42243400D01*
X26551000Y-41541400D01*
X27853000Y-41541400D01*
X27853000Y-42243400D01*
G37*
G36*
X45839000Y-42141800D02*
G01*
X44537000Y-42141800D01*
X44537000Y-41439800D01*
X45839000Y-41439800D01*
X45839000Y-42141800D01*
G37*
G36*
X42839000Y-42141800D02*
G01*
X41537000Y-42141800D01*
X41537000Y-41439800D01*
X42839000Y-41439800D01*
X42839000Y-42141800D01*
G37*
G36*
X38371400Y-41481400D02*
G01*
X37069400Y-41481400D01*
X37069400Y-40779400D01*
X38371400Y-40779400D01*
X38371400Y-41481400D01*
G37*
G36*
X35371400Y-41481400D02*
G01*
X34069400Y-41481400D01*
X34069400Y-40779400D01*
X35371400Y-40779400D01*
X35371400Y-41481400D01*
G37*
G36*
X16797721Y-40364174D02*
G01*
X16897995Y-40405709D01*
X16897996Y-40405710D01*
X16988242Y-40466010D01*
X17064990Y-40542758D01*
X17064991Y-40542760D01*
X17125291Y-40633005D01*
X17166826Y-40733279D01*
X17188000Y-40839730D01*
X17188000Y-40948270D01*
X17166826Y-41054721D01*
X17125291Y-41154995D01*
X17125290Y-41154996D01*
X17064990Y-41245242D01*
X16988242Y-41321990D01*
X16942812Y-41352345D01*
X16897995Y-41382291D01*
X16797721Y-41423826D01*
X16691270Y-41445000D01*
X16582730Y-41445000D01*
X16476279Y-41423826D01*
X16376005Y-41382291D01*
X16331188Y-41352345D01*
X16285758Y-41321990D01*
X16209010Y-41245242D01*
X16148710Y-41154996D01*
X16148709Y-41154995D01*
X16107174Y-41054721D01*
X16086000Y-40948270D01*
X16086000Y-40839730D01*
X16107174Y-40733279D01*
X16148709Y-40633005D01*
X16209009Y-40542760D01*
X16209010Y-40542758D01*
X16285758Y-40466010D01*
X16376004Y-40405710D01*
X16376005Y-40405709D01*
X16476279Y-40364174D01*
X16582730Y-40343000D01*
X16691270Y-40343000D01*
X16797721Y-40364174D01*
G37*
G36*
X27853000Y-41143400D02*
G01*
X26551000Y-41143400D01*
X26551000Y-40441400D01*
X27853000Y-40441400D01*
X27853000Y-41143400D01*
G37*
G36*
X30853000Y-41143400D02*
G01*
X29551000Y-41143400D01*
X29551000Y-40441400D01*
X30853000Y-40441400D01*
X30853000Y-41143400D01*
G37*
G36*
X45839000Y-41041800D02*
G01*
X44537000Y-41041800D01*
X44537000Y-40339800D01*
X45839000Y-40339800D01*
X45839000Y-41041800D01*
G37*
G36*
X42839000Y-41041800D02*
G01*
X41537000Y-41041800D01*
X41537000Y-40339800D01*
X42839000Y-40339800D01*
X42839000Y-41041800D01*
G37*
G36*
X38371400Y-40381400D02*
G01*
X37069400Y-40381400D01*
X37069400Y-39679400D01*
X38371400Y-39679400D01*
X38371400Y-40381400D01*
G37*
G36*
X35371400Y-40381400D02*
G01*
X34069400Y-40381400D01*
X34069400Y-39679400D01*
X35371400Y-39679400D01*
X35371400Y-40381400D01*
G37*
G36*
X30853000Y-40043400D02*
G01*
X29551000Y-40043400D01*
X29551000Y-39341400D01*
X30853000Y-39341400D01*
X30853000Y-40043400D01*
G37*
G36*
X27853000Y-40043400D02*
G01*
X26551000Y-40043400D01*
X26551000Y-39341400D01*
X27853000Y-39341400D01*
X27853000Y-40043400D01*
G37*
G36*
X42839000Y-39941800D02*
G01*
X41537000Y-39941800D01*
X41537000Y-39239800D01*
X42839000Y-39239800D01*
X42839000Y-39941800D01*
G37*
G36*
X45839000Y-39941800D02*
G01*
X44537000Y-39941800D01*
X44537000Y-39239800D01*
X45839000Y-39239800D01*
X45839000Y-39941800D01*
G37*
G36*
X38371400Y-39281400D02*
G01*
X37069400Y-39281400D01*
X37069400Y-38579400D01*
X38371400Y-38579400D01*
X38371400Y-39281400D01*
G37*
G36*
X35371400Y-39281400D02*
G01*
X34069400Y-39281400D01*
X34069400Y-38579400D01*
X35371400Y-38579400D01*
X35371400Y-39281400D01*
G37*
G36*
X16797721Y-37671774D02*
G01*
X16897995Y-37713309D01*
X16897996Y-37713310D01*
X16988242Y-37773610D01*
X17064990Y-37850358D01*
X17064991Y-37850360D01*
X17125291Y-37940605D01*
X17166826Y-38040879D01*
X17188000Y-38147330D01*
X17188000Y-38255870D01*
X17166826Y-38362321D01*
X17125291Y-38462595D01*
X17125290Y-38462596D01*
X17064990Y-38552842D01*
X16988242Y-38629590D01*
X16942812Y-38659945D01*
X16897995Y-38689891D01*
X16797721Y-38731426D01*
X16691270Y-38752600D01*
X16582730Y-38752600D01*
X16476279Y-38731426D01*
X16376005Y-38689891D01*
X16331188Y-38659945D01*
X16285758Y-38629590D01*
X16209010Y-38552842D01*
X16148710Y-38462596D01*
X16148709Y-38462595D01*
X16107174Y-38362321D01*
X16086000Y-38255870D01*
X16086000Y-38147330D01*
X16107174Y-38040879D01*
X16148709Y-37940605D01*
X16209009Y-37850360D01*
X16209010Y-37850358D01*
X16285758Y-37773610D01*
X16376004Y-37713310D01*
X16376005Y-37713309D01*
X16476279Y-37671774D01*
X16582730Y-37650600D01*
X16691270Y-37650600D01*
X16797721Y-37671774D01*
G37*
G36*
X35585938Y-36868116D02*
G01*
X35606557Y-36874371D01*
X35625553Y-36884524D01*
X35642208Y-36898192D01*
X35655876Y-36914847D01*
X35666029Y-36933843D01*
X35672284Y-36954462D01*
X35675000Y-36982040D01*
X35675000Y-37490760D01*
X35672284Y-37518338D01*
X35666029Y-37538957D01*
X35655876Y-37557953D01*
X35642208Y-37574608D01*
X35625553Y-37588276D01*
X35606557Y-37598429D01*
X35585938Y-37604684D01*
X35558360Y-37607400D01*
X35099640Y-37607400D01*
X35072062Y-37604684D01*
X35051443Y-37598429D01*
X35032447Y-37588276D01*
X35015792Y-37574608D01*
X35002124Y-37557953D01*
X34991971Y-37538957D01*
X34985716Y-37518338D01*
X34983000Y-37490760D01*
X34983000Y-36982040D01*
X34985716Y-36954462D01*
X34991971Y-36933843D01*
X35002124Y-36914847D01*
X35015792Y-36898192D01*
X35032447Y-36884524D01*
X35051443Y-36874371D01*
X35072062Y-36868116D01*
X35099640Y-36865400D01*
X35558360Y-36865400D01*
X35585938Y-36868116D01*
G37*
G36*
X36555938Y-36868116D02*
G01*
X36576557Y-36874371D01*
X36595553Y-36884524D01*
X36612208Y-36898192D01*
X36625876Y-36914847D01*
X36636029Y-36933843D01*
X36642284Y-36954462D01*
X36645000Y-36982040D01*
X36645000Y-37490760D01*
X36642284Y-37518338D01*
X36636029Y-37538957D01*
X36625876Y-37557953D01*
X36612208Y-37574608D01*
X36595553Y-37588276D01*
X36576557Y-37598429D01*
X36555938Y-37604684D01*
X36528360Y-37607400D01*
X36069640Y-37607400D01*
X36042062Y-37604684D01*
X36021443Y-37598429D01*
X36002447Y-37588276D01*
X35985792Y-37574608D01*
X35972124Y-37557953D01*
X35961971Y-37538957D01*
X35955716Y-37518338D01*
X35953000Y-37490760D01*
X35953000Y-36982040D01*
X35955716Y-36954462D01*
X35961971Y-36933843D01*
X35972124Y-36914847D01*
X35985792Y-36898192D01*
X36002447Y-36884524D01*
X36021443Y-36874371D01*
X36042062Y-36868116D01*
X36069640Y-36865400D01*
X36528360Y-36865400D01*
X36555938Y-36868116D01*
G37*
G36*
X16797721Y-30178774D02*
G01*
X16897995Y-30220309D01*
X16897996Y-30220310D01*
X16988242Y-30280610D01*
X17064990Y-30357358D01*
X17064991Y-30357360D01*
X17125291Y-30447605D01*
X17166826Y-30547879D01*
X17188000Y-30654330D01*
X17188000Y-30762870D01*
X17166826Y-30869321D01*
X17125291Y-30969595D01*
X17125290Y-30969596D01*
X17064990Y-31059842D01*
X16988242Y-31136590D01*
X16942812Y-31166945D01*
X16897995Y-31196891D01*
X16797721Y-31238426D01*
X16691270Y-31259600D01*
X16582730Y-31259600D01*
X16476279Y-31238426D01*
X16376005Y-31196891D01*
X16331188Y-31166945D01*
X16285758Y-31136590D01*
X16209010Y-31059842D01*
X16148710Y-30969596D01*
X16148709Y-30969595D01*
X16107174Y-30869321D01*
X16086000Y-30762870D01*
X16086000Y-30654330D01*
X16107174Y-30547879D01*
X16148709Y-30447605D01*
X16209009Y-30357360D01*
X16209010Y-30357358D01*
X16285758Y-30280610D01*
X16376004Y-30220310D01*
X16376005Y-30220309D01*
X16476279Y-30178774D01*
X16582730Y-30157600D01*
X16691270Y-30157600D01*
X16797721Y-30178774D01*
G37*
G36*
X2192721Y-27664174D02*
G01*
X2292995Y-27705709D01*
X2292996Y-27705710D01*
X2383242Y-27766010D01*
X2459990Y-27842758D01*
X2459991Y-27842760D01*
X2520291Y-27933005D01*
X2561826Y-28033279D01*
X2583000Y-28139730D01*
X2583000Y-28248270D01*
X2561826Y-28354721D01*
X2520291Y-28454995D01*
X2520290Y-28454996D01*
X2459990Y-28545242D01*
X2383242Y-28621990D01*
X2337812Y-28652345D01*
X2292995Y-28682291D01*
X2192721Y-28723826D01*
X2086270Y-28745000D01*
X1977730Y-28745000D01*
X1871279Y-28723826D01*
X1771005Y-28682291D01*
X1726188Y-28652345D01*
X1680758Y-28621990D01*
X1604010Y-28545242D01*
X1543710Y-28454996D01*
X1543709Y-28454995D01*
X1502174Y-28354721D01*
X1481000Y-28248270D01*
X1481000Y-28139730D01*
X1502174Y-28033279D01*
X1543709Y-27933005D01*
X1604009Y-27842760D01*
X1604010Y-27842758D01*
X1680758Y-27766010D01*
X1771004Y-27705710D01*
X1771005Y-27705709D01*
X1871279Y-27664174D01*
X1977730Y-27643000D01*
X2086270Y-27643000D01*
X2192721Y-27664174D01*
G37*
G36*
X16797721Y-27511774D02*
G01*
X16897995Y-27553309D01*
X16897996Y-27553310D01*
X16988242Y-27613610D01*
X17064990Y-27690358D01*
X17064991Y-27690360D01*
X17125291Y-27780605D01*
X17166826Y-27880879D01*
X17188000Y-27987330D01*
X17188000Y-28095870D01*
X17166826Y-28202321D01*
X17125291Y-28302595D01*
X17125290Y-28302596D01*
X17064990Y-28392842D01*
X16988242Y-28469590D01*
X16942812Y-28499945D01*
X16897995Y-28529891D01*
X16797721Y-28571426D01*
X16691270Y-28592600D01*
X16582730Y-28592600D01*
X16476279Y-28571426D01*
X16376005Y-28529891D01*
X16331188Y-28499945D01*
X16285758Y-28469590D01*
X16209010Y-28392842D01*
X16148710Y-28302596D01*
X16148709Y-28302595D01*
X16107174Y-28202321D01*
X16086000Y-28095870D01*
X16086000Y-27987330D01*
X16107174Y-27880879D01*
X16148709Y-27780605D01*
X16209009Y-27690360D01*
X16209010Y-27690358D01*
X16285758Y-27613610D01*
X16376004Y-27553310D01*
X16376005Y-27553309D01*
X16476279Y-27511774D01*
X16582730Y-27490600D01*
X16691270Y-27490600D01*
X16797721Y-27511774D01*
G37*
G36*
X13753800Y-26327000D02*
G01*
X11951800Y-26327000D01*
X11951800Y-25225000D01*
X13753800Y-25225000D01*
X13753800Y-26327000D01*
G37*
G36*
X7453800Y-26327000D02*
G01*
X5651800Y-26327000D01*
X5651800Y-25225000D01*
X7453800Y-25225000D01*
X7453800Y-26327000D01*
G37*
G36*
X2192721Y-25124174D02*
G01*
X2292995Y-25165709D01*
X2292996Y-25165710D01*
X2383242Y-25226010D01*
X2459990Y-25302758D01*
X2459991Y-25302760D01*
X2520291Y-25393005D01*
X2561826Y-25493279D01*
X2583000Y-25599730D01*
X2583000Y-25708270D01*
X2561826Y-25814721D01*
X2520291Y-25914995D01*
X2520290Y-25914996D01*
X2459990Y-26005242D01*
X2383242Y-26081990D01*
X2337812Y-26112345D01*
X2292995Y-26142291D01*
X2192721Y-26183826D01*
X2086270Y-26205000D01*
X1977730Y-26205000D01*
X1871279Y-26183826D01*
X1771005Y-26142291D01*
X1726188Y-26112345D01*
X1680758Y-26081990D01*
X1604010Y-26005242D01*
X1543710Y-25914996D01*
X1543709Y-25914995D01*
X1502174Y-25814721D01*
X1481000Y-25708270D01*
X1481000Y-25599730D01*
X1502174Y-25493279D01*
X1543709Y-25393005D01*
X1604009Y-25302760D01*
X1604010Y-25302758D01*
X1680758Y-25226010D01*
X1771004Y-25165710D01*
X1771005Y-25165709D01*
X1871279Y-25124174D01*
X1977730Y-25103000D01*
X2086270Y-25103000D01*
X2192721Y-25124174D01*
G37*
G36*
X16797721Y-24412974D02*
G01*
X16897995Y-24454509D01*
X16897996Y-24454510D01*
X16988242Y-24514810D01*
X17064990Y-24591558D01*
X17064991Y-24591560D01*
X17125291Y-24681805D01*
X17166826Y-24782079D01*
X17188000Y-24888530D01*
X17188000Y-24997070D01*
X17166826Y-25103521D01*
X17125291Y-25203795D01*
X17125290Y-25203796D01*
X17064990Y-25294042D01*
X16988242Y-25370790D01*
X16954996Y-25393004D01*
X16897995Y-25431091D01*
X16797721Y-25472626D01*
X16691270Y-25493800D01*
X16582730Y-25493800D01*
X16476279Y-25472626D01*
X16376005Y-25431091D01*
X16319004Y-25393004D01*
X16285758Y-25370790D01*
X16209010Y-25294042D01*
X16148710Y-25203796D01*
X16148709Y-25203795D01*
X16107174Y-25103521D01*
X16086000Y-24997070D01*
X16086000Y-24888530D01*
X16107174Y-24782079D01*
X16148709Y-24681805D01*
X16209009Y-24591560D01*
X16209010Y-24591558D01*
X16285758Y-24514810D01*
X16376004Y-24454510D01*
X16376005Y-24454509D01*
X16476279Y-24412974D01*
X16582730Y-24391800D01*
X16691270Y-24391800D01*
X16797721Y-24412974D01*
G37*
G36*
X2192721Y-22584174D02*
G01*
X2292995Y-22625709D01*
X2292996Y-22625710D01*
X2383242Y-22686010D01*
X2459990Y-22762758D01*
X2459991Y-22762760D01*
X2520291Y-22853005D01*
X2561826Y-22953279D01*
X2583000Y-23059730D01*
X2583000Y-23168270D01*
X2561826Y-23274721D01*
X2520291Y-23374995D01*
X2520290Y-23374996D01*
X2459990Y-23465242D01*
X2383242Y-23541990D01*
X2337812Y-23572345D01*
X2292995Y-23602291D01*
X2192721Y-23643826D01*
X2086270Y-23665000D01*
X1977730Y-23665000D01*
X1871279Y-23643826D01*
X1771005Y-23602291D01*
X1726188Y-23572345D01*
X1680758Y-23541990D01*
X1604010Y-23465242D01*
X1543710Y-23374996D01*
X1543709Y-23374995D01*
X1502174Y-23274721D01*
X1481000Y-23168270D01*
X1481000Y-23059730D01*
X1502174Y-22953279D01*
X1543709Y-22853005D01*
X1604009Y-22762760D01*
X1604010Y-22762758D01*
X1680758Y-22686010D01*
X1771004Y-22625710D01*
X1771005Y-22625709D01*
X1871279Y-22584174D01*
X1977730Y-22563000D01*
X2086270Y-22563000D01*
X2192721Y-22584174D01*
G37*
G36*
X13753800Y-22527000D02*
G01*
X11951800Y-22527000D01*
X11951800Y-21425000D01*
X13753800Y-21425000D01*
X13753800Y-22527000D01*
G37*
G36*
X7453800Y-22527000D02*
G01*
X5651800Y-22527000D01*
X5651800Y-21425000D01*
X7453800Y-21425000D01*
X7453800Y-22527000D01*
G37*
G36*
X16797721Y-20044174D02*
G01*
X16897995Y-20085709D01*
X16897996Y-20085710D01*
X16988242Y-20146010D01*
X17064990Y-20222758D01*
X17064991Y-20222760D01*
X17125291Y-20313005D01*
X17166826Y-20413279D01*
X17188000Y-20519730D01*
X17188000Y-20628270D01*
X17166826Y-20734721D01*
X17125291Y-20834995D01*
X17125290Y-20834996D01*
X17064990Y-20925242D01*
X16988242Y-21001990D01*
X16942812Y-21032345D01*
X16897995Y-21062291D01*
X16797721Y-21103826D01*
X16691270Y-21125000D01*
X16582730Y-21125000D01*
X16476279Y-21103826D01*
X16376005Y-21062291D01*
X16331188Y-21032345D01*
X16285758Y-21001990D01*
X16209010Y-20925242D01*
X16148710Y-20834996D01*
X16148709Y-20834995D01*
X16107174Y-20734721D01*
X16086000Y-20628270D01*
X16086000Y-20519730D01*
X16107174Y-20413279D01*
X16148709Y-20313005D01*
X16209009Y-20222760D01*
X16209010Y-20222758D01*
X16285758Y-20146010D01*
X16376004Y-20085710D01*
X16376005Y-20085709D01*
X16476279Y-20044174D01*
X16582730Y-20023000D01*
X16691270Y-20023000D01*
X16797721Y-20044174D01*
G37*
G36*
X26397800Y-20247000D02*
G01*
X23995800Y-20247000D01*
X23995800Y-19795000D01*
X26397800Y-19795000D01*
X26397800Y-20247000D01*
G37*
G36*
X23697800Y-19497000D02*
G01*
X23245800Y-19497000D01*
X23245800Y-18095000D01*
X23697800Y-18095000D01*
X23697800Y-19497000D01*
G37*
G36*
X27147800Y-19497000D02*
G01*
X26695800Y-19497000D01*
X26695800Y-18095000D01*
X27147800Y-18095000D01*
X27147800Y-19497000D01*
G37*
G36*
X25047800Y-19472000D02*
G01*
X23995800Y-19472000D01*
X23995800Y-18970000D01*
X25047800Y-18970000D01*
X25047800Y-19472000D01*
G37*
G36*
X26397800Y-19472000D02*
G01*
X25345800Y-19472000D01*
X25345800Y-18970000D01*
X26397800Y-18970000D01*
X26397800Y-19472000D01*
G37*
G36*
X26397800Y-18622000D02*
G01*
X25345800Y-18622000D01*
X25345800Y-18120000D01*
X26397800Y-18120000D01*
X26397800Y-18622000D01*
G37*
G36*
X25047800Y-18622000D02*
G01*
X23995800Y-18622000D01*
X23995800Y-18120000D01*
X25047800Y-18120000D01*
X25047800Y-18622000D01*
G37*
G36*
X16797721Y-17478774D02*
G01*
X16897995Y-17520309D01*
X16897996Y-17520310D01*
X16988242Y-17580610D01*
X17064990Y-17657358D01*
X17064991Y-17657360D01*
X17125291Y-17747605D01*
X17166826Y-17847879D01*
X17188000Y-17954330D01*
X17188000Y-18062870D01*
X17166826Y-18169321D01*
X17125291Y-18269595D01*
X17125290Y-18269596D01*
X17064990Y-18359842D01*
X16988242Y-18436590D01*
X16942812Y-18466945D01*
X16897995Y-18496891D01*
X16797721Y-18538426D01*
X16691270Y-18559600D01*
X16582730Y-18559600D01*
X16476279Y-18538426D01*
X16376005Y-18496891D01*
X16331188Y-18466945D01*
X16285758Y-18436590D01*
X16209010Y-18359842D01*
X16148710Y-18269596D01*
X16148709Y-18269595D01*
X16107174Y-18169321D01*
X16086000Y-18062870D01*
X16086000Y-17954330D01*
X16107174Y-17847879D01*
X16148709Y-17747605D01*
X16209009Y-17657360D01*
X16209010Y-17657358D01*
X16285758Y-17580610D01*
X16376004Y-17520310D01*
X16376005Y-17520309D01*
X16476279Y-17478774D01*
X16582730Y-17457600D01*
X16691270Y-17457600D01*
X16797721Y-17478774D01*
G37*
G36*
X26397800Y-17797000D02*
G01*
X23995800Y-17797000D01*
X23995800Y-17345000D01*
X26397800Y-17345000D01*
X26397800Y-17797000D01*
G37*
G36*
X25234191Y-15624017D02*
G01*
X25268169Y-15634325D01*
X25299490Y-15651066D01*
X25326939Y-15673593D01*
X25349466Y-15701042D01*
X25366207Y-15732363D01*
X25376515Y-15766341D01*
X25380600Y-15807822D01*
X25380600Y-16484042D01*
X25376515Y-16525523D01*
X25366207Y-16559501D01*
X25349466Y-16590822D01*
X25326939Y-16618271D01*
X25299490Y-16640798D01*
X25268169Y-16657539D01*
X25234191Y-16667847D01*
X25192710Y-16671932D01*
X24591490Y-16671932D01*
X24550009Y-16667847D01*
X24516031Y-16657539D01*
X24484710Y-16640798D01*
X24457261Y-16618271D01*
X24434734Y-16590822D01*
X24417993Y-16559501D01*
X24407685Y-16525523D01*
X24403600Y-16484042D01*
X24403600Y-15807822D01*
X24407685Y-15766341D01*
X24417993Y-15732363D01*
X24434734Y-15701042D01*
X24457261Y-15673593D01*
X24484710Y-15651066D01*
X24516031Y-15634325D01*
X24550009Y-15624017D01*
X24591490Y-15619932D01*
X25192710Y-15619932D01*
X25234191Y-15624017D01*
G37*
G36*
X23659191Y-15624017D02*
G01*
X23693169Y-15634325D01*
X23724490Y-15651066D01*
X23751939Y-15673593D01*
X23774466Y-15701042D01*
X23791207Y-15732363D01*
X23801515Y-15766341D01*
X23805600Y-15807822D01*
X23805600Y-16484042D01*
X23801515Y-16525523D01*
X23791207Y-16559501D01*
X23774466Y-16590822D01*
X23751939Y-16618271D01*
X23724490Y-16640798D01*
X23693169Y-16657539D01*
X23659191Y-16667847D01*
X23617710Y-16671932D01*
X23016490Y-16671932D01*
X22975009Y-16667847D01*
X22941031Y-16657539D01*
X22909710Y-16640798D01*
X22882261Y-16618271D01*
X22859734Y-16590822D01*
X22842993Y-16559501D01*
X22832685Y-16525523D01*
X22828600Y-16484042D01*
X22828600Y-15807822D01*
X22832685Y-15766341D01*
X22842993Y-15732363D01*
X22859734Y-15701042D01*
X22882261Y-15673593D01*
X22909710Y-15651066D01*
X22941031Y-15634325D01*
X22975009Y-15624017D01*
X23016490Y-15619932D01*
X23617710Y-15619932D01*
X23659191Y-15624017D01*
G37*
G36*
X26162538Y-14389116D02*
G01*
X26183157Y-14395371D01*
X26202153Y-14405524D01*
X26218808Y-14419192D01*
X26232476Y-14435847D01*
X26242629Y-14454843D01*
X26248884Y-14475462D01*
X26251600Y-14503040D01*
X26251600Y-15011760D01*
X26248884Y-15039338D01*
X26242629Y-15059957D01*
X26232476Y-15078953D01*
X26218808Y-15095608D01*
X26202153Y-15109276D01*
X26183157Y-15119429D01*
X26162538Y-15125684D01*
X26134960Y-15128400D01*
X25676240Y-15128400D01*
X25648662Y-15125684D01*
X25628043Y-15119429D01*
X25609047Y-15109276D01*
X25592392Y-15095608D01*
X25578724Y-15078953D01*
X25568571Y-15059957D01*
X25562316Y-15039338D01*
X25559600Y-15011760D01*
X25559600Y-14503040D01*
X25562316Y-14475462D01*
X25568571Y-14454843D01*
X25578724Y-14435847D01*
X25592392Y-14419192D01*
X25609047Y-14405524D01*
X25628043Y-14395371D01*
X25648662Y-14389116D01*
X25676240Y-14386400D01*
X26134960Y-14386400D01*
X26162538Y-14389116D01*
G37*
G36*
X27132538Y-14389116D02*
G01*
X27153157Y-14395371D01*
X27172153Y-14405524D01*
X27188808Y-14419192D01*
X27202476Y-14435847D01*
X27212629Y-14454843D01*
X27218884Y-14475462D01*
X27221600Y-14503040D01*
X27221600Y-15011760D01*
X27218884Y-15039338D01*
X27212629Y-15059957D01*
X27202476Y-15078953D01*
X27188808Y-15095608D01*
X27172153Y-15109276D01*
X27153157Y-15119429D01*
X27132538Y-15125684D01*
X27104960Y-15128400D01*
X26646240Y-15128400D01*
X26618662Y-15125684D01*
X26598043Y-15119429D01*
X26579047Y-15109276D01*
X26562392Y-15095608D01*
X26548724Y-15078953D01*
X26538571Y-15059957D01*
X26532316Y-15039338D01*
X26529600Y-15011760D01*
X26529600Y-14503040D01*
X26532316Y-14475462D01*
X26538571Y-14454843D01*
X26548724Y-14435847D01*
X26562392Y-14419192D01*
X26579047Y-14405524D01*
X26598043Y-14395371D01*
X26618662Y-14389116D01*
X26646240Y-14386400D01*
X27104960Y-14386400D01*
X27132538Y-14389116D01*
G37*
G36*
X24846538Y-14372182D02*
G01*
X24867157Y-14378437D01*
X24886153Y-14388590D01*
X24902808Y-14402258D01*
X24916476Y-14418913D01*
X24926629Y-14437909D01*
X24932884Y-14458528D01*
X24935600Y-14486106D01*
X24935600Y-14994826D01*
X24932884Y-15022404D01*
X24926629Y-15043023D01*
X24916476Y-15062019D01*
X24902808Y-15078674D01*
X24886153Y-15092342D01*
X24867157Y-15102495D01*
X24846538Y-15108750D01*
X24818960Y-15111466D01*
X24360240Y-15111466D01*
X24332662Y-15108750D01*
X24312043Y-15102495D01*
X24293047Y-15092342D01*
X24276392Y-15078674D01*
X24262724Y-15062019D01*
X24252571Y-15043023D01*
X24246316Y-15022404D01*
X24243600Y-14994826D01*
X24243600Y-14486106D01*
X24246316Y-14458528D01*
X24252571Y-14437909D01*
X24262724Y-14418913D01*
X24276392Y-14402258D01*
X24293047Y-14388590D01*
X24312043Y-14378437D01*
X24332662Y-14372182D01*
X24360240Y-14369466D01*
X24818960Y-14369466D01*
X24846538Y-14372182D01*
G37*
G36*
X23876538Y-14372182D02*
G01*
X23897157Y-14378437D01*
X23916153Y-14388590D01*
X23932808Y-14402258D01*
X23946476Y-14418913D01*
X23956629Y-14437909D01*
X23962884Y-14458528D01*
X23965600Y-14486106D01*
X23965600Y-14994826D01*
X23962884Y-15022404D01*
X23956629Y-15043023D01*
X23946476Y-15062019D01*
X23932808Y-15078674D01*
X23916153Y-15092342D01*
X23897157Y-15102495D01*
X23876538Y-15108750D01*
X23848960Y-15111466D01*
X23390240Y-15111466D01*
X23362662Y-15108750D01*
X23342043Y-15102495D01*
X23323047Y-15092342D01*
X23306392Y-15078674D01*
X23292724Y-15062019D01*
X23282571Y-15043023D01*
X23276316Y-15022404D01*
X23273600Y-14994826D01*
X23273600Y-14486106D01*
X23276316Y-14458528D01*
X23282571Y-14437909D01*
X23292724Y-14418913D01*
X23306392Y-14402258D01*
X23323047Y-14388590D01*
X23342043Y-14378437D01*
X23362662Y-14372182D01*
X23390240Y-14369466D01*
X23848960Y-14369466D01*
X23876538Y-14372182D01*
G37*
G36*
X31101512Y-12362727D02*
G01*
X31250812Y-12392424D01*
X31414784Y-12460344D01*
X31562354Y-12558947D01*
X31687853Y-12684446D01*
X31786456Y-12832016D01*
X31854376Y-12995988D01*
X31889000Y-13170059D01*
X31889000Y-13347541D01*
X31854376Y-13521612D01*
X31786456Y-13685584D01*
X31687853Y-13833154D01*
X31562354Y-13958653D01*
X31414784Y-14057256D01*
X31250812Y-14125176D01*
X31101512Y-14154873D01*
X31076742Y-14159800D01*
X30899258Y-14159800D01*
X30874488Y-14154873D01*
X30725188Y-14125176D01*
X30561216Y-14057256D01*
X30413646Y-13958653D01*
X30288147Y-13833154D01*
X30189544Y-13685584D01*
X30121624Y-13521612D01*
X30087000Y-13347541D01*
X30087000Y-13170059D01*
X30121624Y-12995988D01*
X30189544Y-12832016D01*
X30288147Y-12684446D01*
X30413646Y-12558947D01*
X30561216Y-12460344D01*
X30725188Y-12392424D01*
X30874488Y-12362727D01*
X30899258Y-12357800D01*
X31076742Y-12357800D01*
X31101512Y-12362727D01*
G37*
G36*
X28561512Y-12362727D02*
G01*
X28710812Y-12392424D01*
X28874784Y-12460344D01*
X29022354Y-12558947D01*
X29147853Y-12684446D01*
X29246456Y-12832016D01*
X29314376Y-12995988D01*
X29349000Y-13170059D01*
X29349000Y-13347541D01*
X29314376Y-13521612D01*
X29246456Y-13685584D01*
X29147853Y-13833154D01*
X29022354Y-13958653D01*
X28874784Y-14057256D01*
X28710812Y-14125176D01*
X28561512Y-14154873D01*
X28536742Y-14159800D01*
X28359258Y-14159800D01*
X28334488Y-14154873D01*
X28185188Y-14125176D01*
X28021216Y-14057256D01*
X27873646Y-13958653D01*
X27748147Y-13833154D01*
X27649544Y-13685584D01*
X27581624Y-13521612D01*
X27547000Y-13347541D01*
X27547000Y-13170059D01*
X27581624Y-12995988D01*
X27649544Y-12832016D01*
X27748147Y-12684446D01*
X27873646Y-12558947D01*
X28021216Y-12460344D01*
X28185188Y-12392424D01*
X28334488Y-12362727D01*
X28359258Y-12357800D01*
X28536742Y-12357800D01*
X28561512Y-12362727D01*
G37*
G36*
X23876538Y-12966716D02*
G01*
X23897157Y-12972971D01*
X23916153Y-12983124D01*
X23932808Y-12996792D01*
X23946476Y-13013447D01*
X23956629Y-13032443D01*
X23962884Y-13053062D01*
X23965600Y-13080640D01*
X23965600Y-13589360D01*
X23962884Y-13616938D01*
X23956629Y-13637557D01*
X23946476Y-13656553D01*
X23932808Y-13673208D01*
X23916153Y-13686876D01*
X23897157Y-13697029D01*
X23876538Y-13703284D01*
X23848960Y-13706000D01*
X23390240Y-13706000D01*
X23362662Y-13703284D01*
X23342043Y-13697029D01*
X23323047Y-13686876D01*
X23306392Y-13673208D01*
X23292724Y-13656553D01*
X23282571Y-13637557D01*
X23276316Y-13616938D01*
X23273600Y-13589360D01*
X23273600Y-13080640D01*
X23276316Y-13053062D01*
X23282571Y-13032443D01*
X23292724Y-13013447D01*
X23306392Y-12996792D01*
X23323047Y-12983124D01*
X23342043Y-12972971D01*
X23362662Y-12966716D01*
X23390240Y-12964000D01*
X23848960Y-12964000D01*
X23876538Y-12966716D01*
G37*
G36*
X24846538Y-12966716D02*
G01*
X24867157Y-12972971D01*
X24886153Y-12983124D01*
X24902808Y-12996792D01*
X24916476Y-13013447D01*
X24926629Y-13032443D01*
X24932884Y-13053062D01*
X24935600Y-13080640D01*
X24935600Y-13589360D01*
X24932884Y-13616938D01*
X24926629Y-13637557D01*
X24916476Y-13656553D01*
X24902808Y-13673208D01*
X24886153Y-13686876D01*
X24867157Y-13697029D01*
X24846538Y-13703284D01*
X24818960Y-13706000D01*
X24360240Y-13706000D01*
X24332662Y-13703284D01*
X24312043Y-13697029D01*
X24293047Y-13686876D01*
X24276392Y-13673208D01*
X24262724Y-13656553D01*
X24252571Y-13637557D01*
X24246316Y-13616938D01*
X24243600Y-13589360D01*
X24243600Y-13080640D01*
X24246316Y-13053062D01*
X24252571Y-13032443D01*
X24262724Y-13013447D01*
X24276392Y-12996792D01*
X24293047Y-12983124D01*
X24312043Y-12972971D01*
X24332662Y-12966716D01*
X24360240Y-12964000D01*
X24818960Y-12964000D01*
X24846538Y-12966716D01*
G37*
G36*
X26185538Y-12966716D02*
G01*
X26206157Y-12972971D01*
X26225153Y-12983124D01*
X26241808Y-12996792D01*
X26255476Y-13013447D01*
X26265629Y-13032443D01*
X26271884Y-13053062D01*
X26274600Y-13080640D01*
X26274600Y-13589360D01*
X26271884Y-13616938D01*
X26265629Y-13637557D01*
X26255476Y-13656553D01*
X26241808Y-13673208D01*
X26225153Y-13686876D01*
X26206157Y-13697029D01*
X26185538Y-13703284D01*
X26157960Y-13706000D01*
X25699240Y-13706000D01*
X25671662Y-13703284D01*
X25651043Y-13697029D01*
X25632047Y-13686876D01*
X25615392Y-13673208D01*
X25601724Y-13656553D01*
X25591571Y-13637557D01*
X25585316Y-13616938D01*
X25582600Y-13589360D01*
X25582600Y-13080640D01*
X25585316Y-13053062D01*
X25591571Y-13032443D01*
X25601724Y-13013447D01*
X25615392Y-12996792D01*
X25632047Y-12983124D01*
X25651043Y-12972971D01*
X25671662Y-12966716D01*
X25699240Y-12964000D01*
X26157960Y-12964000D01*
X26185538Y-12966716D01*
G37*
G36*
X27155538Y-12966716D02*
G01*
X27176157Y-12972971D01*
X27195153Y-12983124D01*
X27211808Y-12996792D01*
X27225476Y-13013447D01*
X27235629Y-13032443D01*
X27241884Y-13053062D01*
X27244600Y-13080640D01*
X27244600Y-13589360D01*
X27241884Y-13616938D01*
X27235629Y-13637557D01*
X27225476Y-13656553D01*
X27211808Y-13673208D01*
X27195153Y-13686876D01*
X27176157Y-13697029D01*
X27155538Y-13703284D01*
X27127960Y-13706000D01*
X26669240Y-13706000D01*
X26641662Y-13703284D01*
X26621043Y-13697029D01*
X26602047Y-13686876D01*
X26585392Y-13673208D01*
X26571724Y-13656553D01*
X26561571Y-13637557D01*
X26555316Y-13616938D01*
X26552600Y-13589360D01*
X26552600Y-13080640D01*
X26555316Y-13053062D01*
X26561571Y-13032443D01*
X26571724Y-13013447D01*
X26585392Y-12996792D01*
X26602047Y-12983124D01*
X26621043Y-12972971D01*
X26641662Y-12966716D01*
X26669240Y-12964000D01*
X27127960Y-12964000D01*
X27155538Y-12966716D01*
G37*
G36*
X37211943Y-6972248D02*
G01*
X37767189Y-7202238D01*
X37932095Y-7312425D01*
X38266899Y-7536134D01*
X38691866Y-7961101D01*
X38840440Y-8183458D01*
X39025762Y-8460811D01*
X39255752Y-9016057D01*
X39373000Y-9605501D01*
X39373000Y-10206499D01*
X39255752Y-10795943D01*
X39025762Y-11351189D01*
X38859948Y-11599347D01*
X38691866Y-11850899D01*
X38266899Y-12275866D01*
X38144276Y-12357800D01*
X37767189Y-12609762D01*
X37211943Y-12839752D01*
X36622499Y-12957000D01*
X36021501Y-12957000D01*
X35432057Y-12839752D01*
X34876811Y-12609762D01*
X34499724Y-12357800D01*
X34377101Y-12275866D01*
X33952134Y-11850899D01*
X33784052Y-11599347D01*
X33618238Y-11351189D01*
X33388248Y-10795943D01*
X33271000Y-10206499D01*
X33271000Y-9605501D01*
X33388248Y-9016057D01*
X33618238Y-8460811D01*
X33803560Y-8183458D01*
X33952134Y-7961101D01*
X34377101Y-7536134D01*
X34711905Y-7312425D01*
X34876811Y-7202238D01*
X35432057Y-6972248D01*
X36021501Y-6855000D01*
X36622499Y-6855000D01*
X37211943Y-6972248D01*
G37*
G36*
X68199943Y-6972248D02*
G01*
X68755189Y-7202238D01*
X68920095Y-7312425D01*
X69254899Y-7536134D01*
X69679866Y-7961101D01*
X69828440Y-8183458D01*
X70013762Y-8460811D01*
X70243752Y-9016057D01*
X70361000Y-9605501D01*
X70361000Y-10206499D01*
X70243752Y-10795943D01*
X70013762Y-11351189D01*
X69847948Y-11599347D01*
X69679866Y-11850899D01*
X69254899Y-12275866D01*
X69132276Y-12357800D01*
X68755189Y-12609762D01*
X68199943Y-12839752D01*
X67610499Y-12957000D01*
X67009501Y-12957000D01*
X66420057Y-12839752D01*
X65864811Y-12609762D01*
X65487724Y-12357800D01*
X65365101Y-12275866D01*
X64940134Y-11850899D01*
X64772052Y-11599347D01*
X64606238Y-11351189D01*
X64376248Y-10795943D01*
X64259000Y-10206499D01*
X64259000Y-9605501D01*
X64376248Y-9016057D01*
X64606238Y-8460811D01*
X64791560Y-8183458D01*
X64940134Y-7961101D01*
X65365101Y-7536134D01*
X65699905Y-7312425D01*
X65864811Y-7202238D01*
X66420057Y-6972248D01*
X67009501Y-6855000D01*
X67610499Y-6855000D01*
X68199943Y-6972248D01*
G37*
G36*
X31101512Y-9822727D02*
G01*
X31250812Y-9852424D01*
X31414784Y-9920344D01*
X31562354Y-10018947D01*
X31687853Y-10144446D01*
X31786456Y-10292016D01*
X31854376Y-10455988D01*
X31889000Y-10630059D01*
X31889000Y-10807541D01*
X31854376Y-10981612D01*
X31786456Y-11145584D01*
X31687853Y-11293154D01*
X31562354Y-11418653D01*
X31414784Y-11517256D01*
X31250812Y-11585176D01*
X31101512Y-11614873D01*
X31076742Y-11619800D01*
X30899258Y-11619800D01*
X30874488Y-11614873D01*
X30725188Y-11585176D01*
X30561216Y-11517256D01*
X30413646Y-11418653D01*
X30288147Y-11293154D01*
X30189544Y-11145584D01*
X30121624Y-10981612D01*
X30087000Y-10807541D01*
X30087000Y-10630059D01*
X30121624Y-10455988D01*
X30189544Y-10292016D01*
X30288147Y-10144446D01*
X30413646Y-10018947D01*
X30561216Y-9920344D01*
X30725188Y-9852424D01*
X30874488Y-9822727D01*
X30899258Y-9817800D01*
X31076742Y-9817800D01*
X31101512Y-9822727D01*
G37*
G36*
X28561512Y-9822727D02*
G01*
X28710812Y-9852424D01*
X28874784Y-9920344D01*
X29022354Y-10018947D01*
X29147853Y-10144446D01*
X29246456Y-10292016D01*
X29314376Y-10455988D01*
X29349000Y-10630059D01*
X29349000Y-10807541D01*
X29314376Y-10981612D01*
X29246456Y-11145584D01*
X29147853Y-11293154D01*
X29022354Y-11418653D01*
X28874784Y-11517256D01*
X28710812Y-11585176D01*
X28561512Y-11614873D01*
X28536742Y-11619800D01*
X28359258Y-11619800D01*
X28334488Y-11614873D01*
X28185188Y-11585176D01*
X28021216Y-11517256D01*
X27873646Y-11418653D01*
X27748147Y-11293154D01*
X27649544Y-11145584D01*
X27581624Y-10981612D01*
X27547000Y-10807541D01*
X27547000Y-10630059D01*
X27581624Y-10455988D01*
X27649544Y-10292016D01*
X27748147Y-10144446D01*
X27873646Y-10018947D01*
X28021216Y-9920344D01*
X28185188Y-9852424D01*
X28334488Y-9822727D01*
X28359258Y-9817800D01*
X28536742Y-9817800D01*
X28561512Y-9822727D01*
G37*
G36*
X29349000Y-9079800D02*
G01*
X27547000Y-9079800D01*
X27547000Y-7277800D01*
X29349000Y-7277800D01*
X29349000Y-9079800D01*
G37*
G36*
X31101512Y-7282727D02*
G01*
X31250812Y-7312424D01*
X31414784Y-7380344D01*
X31562354Y-7478947D01*
X31687853Y-7604446D01*
X31786456Y-7752016D01*
X31854376Y-7915988D01*
X31889000Y-8090059D01*
X31889000Y-8267541D01*
X31854376Y-8441612D01*
X31786456Y-8605584D01*
X31687853Y-8753154D01*
X31562354Y-8878653D01*
X31414784Y-8977256D01*
X31250812Y-9045176D01*
X31101512Y-9074873D01*
X31076742Y-9079800D01*
X30899258Y-9079800D01*
X30874488Y-9074873D01*
X30725188Y-9045176D01*
X30561216Y-8977256D01*
X30413646Y-8878653D01*
X30288147Y-8753154D01*
X30189544Y-8605584D01*
X30121624Y-8441612D01*
X30087000Y-8267541D01*
X30087000Y-8090059D01*
X30121624Y-7915988D01*
X30189544Y-7752016D01*
X30288147Y-7604446D01*
X30413646Y-7478947D01*
X30561216Y-7380344D01*
X30725188Y-7312424D01*
X30874488Y-7282727D01*
X30899258Y-7277800D01*
X31076742Y-7277800D01*
X31101512Y-7282727D01*
G37*
M02*
