G04 #@! TF.GenerationSoftware,KiCad,Pcbnew,(5.1.6)-1*
G04 #@! TF.CreationDate,2020-07-25T07:53:00-07:00*
G04 #@! TF.ProjectId,Mycroft - Mark 2,4d796372-6f66-4742-902d-204d61726b20,rev?*
G04 #@! TF.SameCoordinates,Original*
G04 #@! TF.FileFunction,Soldermask,Bot*
G04 #@! TF.FilePolarity,Negative*
%FSLAX46Y46*%
G04 Gerber Fmt 4.6, Leading zero omitted, Abs format (unit mm)*
G04 Created by KiCad (PCBNEW (5.1.6)-1) date 2020-07-25 07:53:00*
%MOMM*%
%LPD*%
G01*
G04 APERTURE LIST*
%ADD10C,0.100000*%
G04 APERTURE END LIST*
D10*
G36*
X24446797Y-90525740D02*
G01*
X24537583Y-90553280D01*
X24569515Y-90562966D01*
X24682604Y-90623414D01*
X24781734Y-90704767D01*
X24863086Y-90803895D01*
X24923534Y-90916984D01*
X24933220Y-90948916D01*
X24960760Y-91039702D01*
X24970180Y-91135347D01*
X24970180Y-91899293D01*
X24960760Y-91994938D01*
X24948565Y-92035138D01*
X24923534Y-92117656D01*
X24863086Y-92230745D01*
X24781734Y-92329874D01*
X24682605Y-92411226D01*
X24569516Y-92471674D01*
X24537584Y-92481360D01*
X24446798Y-92508900D01*
X24319180Y-92521469D01*
X24191563Y-92508900D01*
X24100777Y-92481360D01*
X24068845Y-92471674D01*
X23955756Y-92411226D01*
X23856627Y-92329874D01*
X23775275Y-92230745D01*
X23714828Y-92117657D01*
X23714825Y-92117652D01*
X23677600Y-91994938D01*
X23668180Y-91899293D01*
X23668180Y-91135348D01*
X23677600Y-91039703D01*
X23714825Y-90916989D01*
X23714826Y-90916985D01*
X23775274Y-90803896D01*
X23856627Y-90704766D01*
X23955755Y-90623414D01*
X24068844Y-90562966D01*
X24100776Y-90553280D01*
X24191562Y-90525740D01*
X24319180Y-90513171D01*
X24446797Y-90525740D01*
G37*
G36*
X17286998Y-90525016D02*
G01*
X17400285Y-90559382D01*
X17504692Y-90615189D01*
X17596207Y-90690293D01*
X17671311Y-90781808D01*
X17727118Y-90886215D01*
X17761484Y-90999502D01*
X17770180Y-91087801D01*
X17770180Y-91946839D01*
X17761484Y-92035138D01*
X17727118Y-92148425D01*
X17671311Y-92252832D01*
X17671310Y-92252833D01*
X17596207Y-92344347D01*
X17521103Y-92405982D01*
X17504691Y-92419451D01*
X17400284Y-92475258D01*
X17286997Y-92509624D01*
X17169180Y-92521227D01*
X17051362Y-92509624D01*
X16938075Y-92475258D01*
X16833668Y-92419451D01*
X16819752Y-92408031D01*
X16742153Y-92344347D01*
X16667050Y-92252832D01*
X16667049Y-92252831D01*
X16611242Y-92148424D01*
X16576876Y-92035137D01*
X16568180Y-91946838D01*
X16568180Y-91087801D01*
X16576876Y-90999504D01*
X16611244Y-90886214D01*
X16667050Y-90781808D01*
X16742154Y-90690293D01*
X16833669Y-90615189D01*
X16938076Y-90559382D01*
X17051363Y-90525016D01*
X17169180Y-90513413D01*
X17286998Y-90525016D01*
G37*
G36*
X36823323Y-85148368D02*
G01*
X37378569Y-85378358D01*
X37626727Y-85544172D01*
X37878279Y-85712254D01*
X38303246Y-86137221D01*
X38435692Y-86335440D01*
X38637142Y-86636931D01*
X38867132Y-87192177D01*
X38984380Y-87781621D01*
X38984380Y-88382619D01*
X38867132Y-88972063D01*
X38637142Y-89527309D01*
X38637141Y-89527310D01*
X38303246Y-90027019D01*
X37878279Y-90451986D01*
X37717548Y-90559383D01*
X37378569Y-90785882D01*
X36823323Y-91015872D01*
X36233879Y-91133120D01*
X35632881Y-91133120D01*
X35043437Y-91015872D01*
X34488191Y-90785882D01*
X34149212Y-90559383D01*
X33988481Y-90451986D01*
X33563514Y-90027019D01*
X33229619Y-89527310D01*
X33229618Y-89527309D01*
X32999628Y-88972063D01*
X32882380Y-88382619D01*
X32882380Y-87781621D01*
X32999628Y-87192177D01*
X33229618Y-86636931D01*
X33431068Y-86335440D01*
X33563514Y-86137221D01*
X33988481Y-85712254D01*
X34240033Y-85544172D01*
X34488191Y-85378358D01*
X35043437Y-85148368D01*
X35632881Y-85031120D01*
X36233879Y-85031120D01*
X36823323Y-85148368D01*
G37*
G36*
X67811323Y-85148368D02*
G01*
X68366569Y-85378358D01*
X68614727Y-85544172D01*
X68866279Y-85712254D01*
X69291246Y-86137221D01*
X69423692Y-86335440D01*
X69625142Y-86636931D01*
X69855132Y-87192177D01*
X69972380Y-87781621D01*
X69972380Y-88382619D01*
X69855132Y-88972063D01*
X69625142Y-89527309D01*
X69625141Y-89527310D01*
X69291246Y-90027019D01*
X68866279Y-90451986D01*
X68705548Y-90559383D01*
X68366569Y-90785882D01*
X67811323Y-91015872D01*
X67221879Y-91133120D01*
X66620881Y-91133120D01*
X66031437Y-91015872D01*
X65476191Y-90785882D01*
X65137212Y-90559383D01*
X64976481Y-90451986D01*
X64551514Y-90027019D01*
X64217619Y-89527310D01*
X64217618Y-89527309D01*
X63987628Y-88972063D01*
X63870380Y-88382619D01*
X63870380Y-87781621D01*
X63987628Y-87192177D01*
X64217618Y-86636931D01*
X64419068Y-86335440D01*
X64551514Y-86137221D01*
X64976481Y-85712254D01*
X65228033Y-85544172D01*
X65476191Y-85378358D01*
X66031437Y-85148368D01*
X66620881Y-85031120D01*
X67221879Y-85031120D01*
X67811323Y-85148368D01*
G37*
G36*
X2209012Y-87191127D02*
G01*
X2358312Y-87220824D01*
X2522284Y-87288744D01*
X2669854Y-87387347D01*
X2795353Y-87512846D01*
X2893956Y-87660416D01*
X2961876Y-87824388D01*
X2996500Y-87998459D01*
X2996500Y-88175941D01*
X2961876Y-88350012D01*
X2893956Y-88513984D01*
X2795353Y-88661554D01*
X2669854Y-88787053D01*
X2522284Y-88885656D01*
X2358312Y-88953576D01*
X2209012Y-88983273D01*
X2184242Y-88988200D01*
X2006758Y-88988200D01*
X1981988Y-88983273D01*
X1832688Y-88953576D01*
X1668716Y-88885656D01*
X1521146Y-88787053D01*
X1395647Y-88661554D01*
X1297044Y-88513984D01*
X1229124Y-88350012D01*
X1194500Y-88175941D01*
X1194500Y-87998459D01*
X1229124Y-87824388D01*
X1297044Y-87660416D01*
X1395647Y-87512846D01*
X1521146Y-87387347D01*
X1668716Y-87288744D01*
X1832688Y-87220824D01*
X1981988Y-87191127D01*
X2006758Y-87186200D01*
X2184242Y-87186200D01*
X2209012Y-87191127D01*
G37*
G36*
X24547448Y-86340005D02*
G01*
X24586118Y-86351736D01*
X24621757Y-86370786D01*
X24652997Y-86396423D01*
X24678634Y-86427663D01*
X24697684Y-86463302D01*
X24709415Y-86501972D01*
X24713980Y-86548328D01*
X24713980Y-87624552D01*
X24709415Y-87670908D01*
X24697684Y-87709578D01*
X24678634Y-87745217D01*
X24652997Y-87776457D01*
X24621757Y-87802094D01*
X24586118Y-87821144D01*
X24547448Y-87832875D01*
X24501092Y-87837440D01*
X23849868Y-87837440D01*
X23803512Y-87832875D01*
X23764842Y-87821144D01*
X23729203Y-87802094D01*
X23697963Y-87776457D01*
X23672326Y-87745217D01*
X23653276Y-87709578D01*
X23641545Y-87670908D01*
X23636980Y-87624552D01*
X23636980Y-86548328D01*
X23641545Y-86501972D01*
X23653276Y-86463302D01*
X23672326Y-86427663D01*
X23697963Y-86396423D01*
X23729203Y-86370786D01*
X23764842Y-86351736D01*
X23803512Y-86340005D01*
X23849868Y-86335440D01*
X24501092Y-86335440D01*
X24547448Y-86340005D01*
G37*
G36*
X26422448Y-86340005D02*
G01*
X26461118Y-86351736D01*
X26496757Y-86370786D01*
X26527997Y-86396423D01*
X26553634Y-86427663D01*
X26572684Y-86463302D01*
X26584415Y-86501972D01*
X26588980Y-86548328D01*
X26588980Y-87624552D01*
X26584415Y-87670908D01*
X26572684Y-87709578D01*
X26553634Y-87745217D01*
X26527997Y-87776457D01*
X26496757Y-87802094D01*
X26461118Y-87821144D01*
X26422448Y-87832875D01*
X26376092Y-87837440D01*
X25724868Y-87837440D01*
X25678512Y-87832875D01*
X25639842Y-87821144D01*
X25604203Y-87802094D01*
X25572963Y-87776457D01*
X25547326Y-87745217D01*
X25528276Y-87709578D01*
X25516545Y-87670908D01*
X25511980Y-87624552D01*
X25511980Y-86548328D01*
X25516545Y-86501972D01*
X25528276Y-86463302D01*
X25547326Y-86427663D01*
X25572963Y-86396423D01*
X25604203Y-86370786D01*
X25639842Y-86351736D01*
X25678512Y-86340005D01*
X25724868Y-86335440D01*
X26376092Y-86335440D01*
X26422448Y-86340005D01*
G37*
G36*
X2209012Y-84651127D02*
G01*
X2358312Y-84680824D01*
X2522284Y-84748744D01*
X2669854Y-84847347D01*
X2795353Y-84972846D01*
X2893956Y-85120416D01*
X2961876Y-85284388D01*
X2996500Y-85458459D01*
X2996500Y-85635941D01*
X2961876Y-85810012D01*
X2893956Y-85973984D01*
X2795353Y-86121554D01*
X2669854Y-86247053D01*
X2522284Y-86345656D01*
X2358312Y-86413576D01*
X2209012Y-86443273D01*
X2184242Y-86448200D01*
X2006758Y-86448200D01*
X1981988Y-86443273D01*
X1832688Y-86413576D01*
X1668716Y-86345656D01*
X1521146Y-86247053D01*
X1395647Y-86121554D01*
X1297044Y-85973984D01*
X1229124Y-85810012D01*
X1194500Y-85635941D01*
X1194500Y-85458459D01*
X1229124Y-85284388D01*
X1297044Y-85120416D01*
X1395647Y-84972846D01*
X1521146Y-84847347D01*
X1668716Y-84748744D01*
X1832688Y-84680824D01*
X1981988Y-84651127D01*
X2006758Y-84646200D01*
X2184242Y-84646200D01*
X2209012Y-84651127D01*
G37*
G36*
X25867271Y-84767098D02*
G01*
X25900205Y-84777089D01*
X25930553Y-84793310D01*
X25957157Y-84815143D01*
X25978990Y-84841747D01*
X25995211Y-84872095D01*
X26005202Y-84905029D01*
X26009180Y-84945419D01*
X26009180Y-85032821D01*
X26005202Y-85073211D01*
X25995211Y-85106145D01*
X25978990Y-85136493D01*
X25957157Y-85163097D01*
X25930553Y-85184930D01*
X25900205Y-85201151D01*
X25867271Y-85211142D01*
X25826881Y-85215120D01*
X23789479Y-85215120D01*
X23749089Y-85211142D01*
X23716155Y-85201151D01*
X23685807Y-85184930D01*
X23659203Y-85163097D01*
X23637370Y-85136493D01*
X23621149Y-85106145D01*
X23611158Y-85073211D01*
X23607180Y-85032821D01*
X23607180Y-84945419D01*
X23611158Y-84905029D01*
X23621149Y-84872095D01*
X23637370Y-84841747D01*
X23659203Y-84815143D01*
X23685807Y-84793310D01*
X23716155Y-84777089D01*
X23749089Y-84767098D01*
X23789479Y-84763120D01*
X25826881Y-84763120D01*
X25867271Y-84767098D01*
G37*
G36*
X26617271Y-83067098D02*
G01*
X26650205Y-83077089D01*
X26680553Y-83093310D01*
X26707157Y-83115143D01*
X26728990Y-83141747D01*
X26745211Y-83172095D01*
X26755202Y-83205029D01*
X26759180Y-83245419D01*
X26759180Y-84282821D01*
X26755202Y-84323211D01*
X26745211Y-84356145D01*
X26728990Y-84386493D01*
X26707157Y-84413097D01*
X26680553Y-84434930D01*
X26650205Y-84451151D01*
X26617271Y-84461142D01*
X26576881Y-84465120D01*
X26489479Y-84465120D01*
X26449089Y-84461142D01*
X26416155Y-84451151D01*
X26385807Y-84434930D01*
X26359203Y-84413097D01*
X26337370Y-84386493D01*
X26321149Y-84356145D01*
X26311158Y-84323211D01*
X26307180Y-84282821D01*
X26307180Y-83245419D01*
X26311158Y-83205029D01*
X26321149Y-83172095D01*
X26337370Y-83141747D01*
X26359203Y-83115143D01*
X26385807Y-83093310D01*
X26416155Y-83077089D01*
X26449089Y-83067098D01*
X26489479Y-83063120D01*
X26576881Y-83063120D01*
X26617271Y-83067098D01*
G37*
G36*
X23167271Y-83067098D02*
G01*
X23200205Y-83077089D01*
X23230553Y-83093310D01*
X23257157Y-83115143D01*
X23278990Y-83141747D01*
X23295211Y-83172095D01*
X23305202Y-83205029D01*
X23309180Y-83245419D01*
X23309180Y-84282821D01*
X23305202Y-84323211D01*
X23295211Y-84356145D01*
X23278990Y-84386493D01*
X23257157Y-84413097D01*
X23230553Y-84434930D01*
X23200205Y-84451151D01*
X23167271Y-84461142D01*
X23126881Y-84465120D01*
X23039479Y-84465120D01*
X22999089Y-84461142D01*
X22966155Y-84451151D01*
X22935807Y-84434930D01*
X22909203Y-84413097D01*
X22887370Y-84386493D01*
X22871149Y-84356145D01*
X22861158Y-84323211D01*
X22857180Y-84282821D01*
X22857180Y-83245419D01*
X22861158Y-83205029D01*
X22871149Y-83172095D01*
X22887370Y-83141747D01*
X22909203Y-83115143D01*
X22935807Y-83093310D01*
X22966155Y-83077089D01*
X22999089Y-83067098D01*
X23039479Y-83063120D01*
X23126881Y-83063120D01*
X23167271Y-83067098D01*
G37*
G36*
X26009180Y-84440120D02*
G01*
X24957180Y-84440120D01*
X24957180Y-83938120D01*
X26009180Y-83938120D01*
X26009180Y-84440120D01*
G37*
G36*
X24659180Y-84440120D02*
G01*
X23607180Y-84440120D01*
X23607180Y-83938120D01*
X24659180Y-83938120D01*
X24659180Y-84440120D01*
G37*
G36*
X21935438Y-83270836D02*
G01*
X21956057Y-83277091D01*
X21975053Y-83287244D01*
X21991708Y-83300912D01*
X22005376Y-83317567D01*
X22015529Y-83336563D01*
X22021784Y-83357182D01*
X22024500Y-83384760D01*
X22024500Y-83843480D01*
X22021784Y-83871058D01*
X22015529Y-83891677D01*
X22005376Y-83910673D01*
X21991708Y-83927328D01*
X21975053Y-83940996D01*
X21956057Y-83951149D01*
X21935438Y-83957404D01*
X21907860Y-83960120D01*
X21399140Y-83960120D01*
X21371562Y-83957404D01*
X21350943Y-83951149D01*
X21331947Y-83940996D01*
X21315292Y-83927328D01*
X21301624Y-83910673D01*
X21291471Y-83891677D01*
X21285216Y-83871058D01*
X21282500Y-83843480D01*
X21282500Y-83384760D01*
X21285216Y-83357182D01*
X21291471Y-83336563D01*
X21301624Y-83317567D01*
X21315292Y-83300912D01*
X21331947Y-83287244D01*
X21350943Y-83277091D01*
X21371562Y-83270836D01*
X21399140Y-83268120D01*
X21907860Y-83268120D01*
X21935438Y-83270836D01*
G37*
G36*
X2996500Y-83908200D02*
G01*
X1194500Y-83908200D01*
X1194500Y-82106200D01*
X2996500Y-82106200D01*
X2996500Y-83908200D01*
G37*
G36*
X26009180Y-83590120D02*
G01*
X24957180Y-83590120D01*
X24957180Y-83088120D01*
X26009180Y-83088120D01*
X26009180Y-83590120D01*
G37*
G36*
X24659180Y-83590120D02*
G01*
X23607180Y-83590120D01*
X23607180Y-83088120D01*
X24659180Y-83088120D01*
X24659180Y-83590120D01*
G37*
G36*
X7415900Y-83083240D02*
G01*
X6513900Y-83083240D01*
X6513900Y-81981240D01*
X7415900Y-81981240D01*
X7415900Y-83083240D01*
G37*
G36*
X5205900Y-83083240D02*
G01*
X4303900Y-83083240D01*
X4303900Y-81981240D01*
X5205900Y-81981240D01*
X5205900Y-83083240D01*
G37*
G36*
X21935438Y-82300836D02*
G01*
X21956057Y-82307091D01*
X21975053Y-82317244D01*
X21991708Y-82330912D01*
X22005376Y-82347567D01*
X22015529Y-82366563D01*
X22021784Y-82387182D01*
X22024500Y-82414760D01*
X22024500Y-82873480D01*
X22021784Y-82901058D01*
X22015529Y-82921677D01*
X22005376Y-82940673D01*
X21991708Y-82957328D01*
X21975053Y-82970996D01*
X21956057Y-82981149D01*
X21935438Y-82987404D01*
X21907860Y-82990120D01*
X21399140Y-82990120D01*
X21371562Y-82987404D01*
X21350943Y-82981149D01*
X21331947Y-82970996D01*
X21315292Y-82957328D01*
X21301624Y-82940673D01*
X21291471Y-82921677D01*
X21285216Y-82901058D01*
X21282500Y-82873480D01*
X21282500Y-82414760D01*
X21285216Y-82387182D01*
X21291471Y-82366563D01*
X21301624Y-82347567D01*
X21315292Y-82330912D01*
X21331947Y-82317244D01*
X21350943Y-82307091D01*
X21371562Y-82300836D01*
X21399140Y-82298120D01*
X21907860Y-82298120D01*
X21935438Y-82300836D01*
G37*
G36*
X25867271Y-82317098D02*
G01*
X25900205Y-82327089D01*
X25930553Y-82343310D01*
X25957157Y-82365143D01*
X25978990Y-82391747D01*
X25995211Y-82422095D01*
X26005202Y-82455029D01*
X26009180Y-82495419D01*
X26009180Y-82582821D01*
X26005202Y-82623211D01*
X25995211Y-82656145D01*
X25978990Y-82686493D01*
X25957157Y-82713097D01*
X25930553Y-82734930D01*
X25900205Y-82751151D01*
X25867271Y-82761142D01*
X25826881Y-82765120D01*
X23789479Y-82765120D01*
X23749089Y-82761142D01*
X23716155Y-82751151D01*
X23685807Y-82734930D01*
X23659203Y-82713097D01*
X23637370Y-82686493D01*
X23621149Y-82656145D01*
X23611158Y-82623211D01*
X23607180Y-82582821D01*
X23607180Y-82495419D01*
X23611158Y-82455029D01*
X23621149Y-82422095D01*
X23637370Y-82391747D01*
X23659203Y-82365143D01*
X23685807Y-82343310D01*
X23716155Y-82327089D01*
X23749089Y-82317098D01*
X23789479Y-82313120D01*
X25826881Y-82313120D01*
X25867271Y-82317098D01*
G37*
G36*
X65485492Y-80505847D02*
G01*
X65634792Y-80535544D01*
X65798764Y-80603464D01*
X65946334Y-80702067D01*
X66071833Y-80827566D01*
X66170436Y-80975136D01*
X66238356Y-81139108D01*
X66272980Y-81313179D01*
X66272980Y-81490661D01*
X66238356Y-81664732D01*
X66170436Y-81828704D01*
X66071833Y-81976274D01*
X65946334Y-82101773D01*
X65798764Y-82200376D01*
X65634792Y-82268296D01*
X65485492Y-82297993D01*
X65460722Y-82302920D01*
X65283238Y-82302920D01*
X65258468Y-82297993D01*
X65109168Y-82268296D01*
X64945196Y-82200376D01*
X64797626Y-82101773D01*
X64672127Y-81976274D01*
X64573524Y-81828704D01*
X64505604Y-81664732D01*
X64470980Y-81490661D01*
X64470980Y-81313179D01*
X64505604Y-81139108D01*
X64573524Y-80975136D01*
X64672127Y-80827566D01*
X64797626Y-80702067D01*
X64945196Y-80603464D01*
X65109168Y-80535544D01*
X65258468Y-80505847D01*
X65283238Y-80500920D01*
X65460722Y-80500920D01*
X65485492Y-80505847D01*
G37*
G36*
X68025492Y-80505847D02*
G01*
X68174792Y-80535544D01*
X68338764Y-80603464D01*
X68486334Y-80702067D01*
X68611833Y-80827566D01*
X68710436Y-80975136D01*
X68778356Y-81139108D01*
X68812980Y-81313179D01*
X68812980Y-81490661D01*
X68778356Y-81664732D01*
X68710436Y-81828704D01*
X68611833Y-81976274D01*
X68486334Y-82101773D01*
X68338764Y-82200376D01*
X68174792Y-82268296D01*
X68025492Y-82297993D01*
X68000722Y-82302920D01*
X67823238Y-82302920D01*
X67798468Y-82297993D01*
X67649168Y-82268296D01*
X67485196Y-82200376D01*
X67337626Y-82101773D01*
X67212127Y-81976274D01*
X67113524Y-81828704D01*
X67045604Y-81664732D01*
X67010980Y-81490661D01*
X67010980Y-81313179D01*
X67045604Y-81139108D01*
X67113524Y-80975136D01*
X67212127Y-80827566D01*
X67337626Y-80702067D01*
X67485196Y-80603464D01*
X67649168Y-80535544D01*
X67798468Y-80505847D01*
X67823238Y-80500920D01*
X68000722Y-80500920D01*
X68025492Y-80505847D01*
G37*
G36*
X26474678Y-81013316D02*
G01*
X26495297Y-81019571D01*
X26514293Y-81029724D01*
X26530948Y-81043392D01*
X26544616Y-81060047D01*
X26554769Y-81079043D01*
X26561024Y-81099662D01*
X26563740Y-81127240D01*
X26563740Y-81635960D01*
X26561024Y-81663538D01*
X26554769Y-81684157D01*
X26544616Y-81703153D01*
X26530948Y-81719808D01*
X26514293Y-81733476D01*
X26495297Y-81743629D01*
X26474678Y-81749884D01*
X26447100Y-81752600D01*
X25988380Y-81752600D01*
X25960802Y-81749884D01*
X25940183Y-81743629D01*
X25921187Y-81733476D01*
X25904532Y-81719808D01*
X25890864Y-81703153D01*
X25880711Y-81684157D01*
X25874456Y-81663538D01*
X25871740Y-81635960D01*
X25871740Y-81127240D01*
X25874456Y-81099662D01*
X25880711Y-81079043D01*
X25890864Y-81060047D01*
X25904532Y-81043392D01*
X25921187Y-81029724D01*
X25940183Y-81019571D01*
X25960802Y-81013316D01*
X25988380Y-81010600D01*
X26447100Y-81010600D01*
X26474678Y-81013316D01*
G37*
G36*
X25504678Y-81013316D02*
G01*
X25525297Y-81019571D01*
X25544293Y-81029724D01*
X25560948Y-81043392D01*
X25574616Y-81060047D01*
X25584769Y-81079043D01*
X25591024Y-81099662D01*
X25593740Y-81127240D01*
X25593740Y-81635960D01*
X25591024Y-81663538D01*
X25584769Y-81684157D01*
X25574616Y-81703153D01*
X25560948Y-81719808D01*
X25544293Y-81733476D01*
X25525297Y-81743629D01*
X25504678Y-81749884D01*
X25477100Y-81752600D01*
X25018380Y-81752600D01*
X24990802Y-81749884D01*
X24970183Y-81743629D01*
X24951187Y-81733476D01*
X24934532Y-81719808D01*
X24920864Y-81703153D01*
X24910711Y-81684157D01*
X24904456Y-81663538D01*
X24901740Y-81635960D01*
X24901740Y-81127240D01*
X24904456Y-81099662D01*
X24910711Y-81079043D01*
X24920864Y-81060047D01*
X24934532Y-81043392D01*
X24951187Y-81029724D01*
X24970183Y-81019571D01*
X24990802Y-81013316D01*
X25018380Y-81010600D01*
X25477100Y-81010600D01*
X25504678Y-81013316D01*
G37*
G36*
X8415900Y-81533240D02*
G01*
X6813900Y-81533240D01*
X6813900Y-80731240D01*
X8415900Y-80731240D01*
X8415900Y-81533240D01*
G37*
G36*
X5952640Y-79890866D02*
G01*
X6001036Y-79900493D01*
X6038802Y-79916136D01*
X6092211Y-79938259D01*
X6092212Y-79938260D01*
X6174269Y-79993088D01*
X6244052Y-80062871D01*
X6271652Y-80104178D01*
X6298881Y-80144929D01*
X6336647Y-80236105D01*
X6355900Y-80332895D01*
X6355900Y-80431585D01*
X6336647Y-80528375D01*
X6298881Y-80619551D01*
X6298880Y-80619552D01*
X6244052Y-80701609D01*
X6174269Y-80771392D01*
X6132962Y-80798992D01*
X6092211Y-80826221D01*
X6038802Y-80848344D01*
X6001036Y-80863987D01*
X5952640Y-80873613D01*
X5904245Y-80883240D01*
X5805555Y-80883240D01*
X5757160Y-80873613D01*
X5708764Y-80863987D01*
X5670998Y-80848344D01*
X5617589Y-80826221D01*
X5576838Y-80798992D01*
X5535531Y-80771392D01*
X5465748Y-80701609D01*
X5410920Y-80619552D01*
X5410919Y-80619551D01*
X5373153Y-80528375D01*
X5353900Y-80431585D01*
X5353900Y-80332895D01*
X5373153Y-80236105D01*
X5410919Y-80144929D01*
X5438148Y-80104178D01*
X5465748Y-80062871D01*
X5535531Y-79993088D01*
X5617588Y-79938260D01*
X5617589Y-79938259D01*
X5670998Y-79916136D01*
X5708764Y-79900493D01*
X5757160Y-79890866D01*
X5805555Y-79881240D01*
X5904245Y-79881240D01*
X5952640Y-79890866D01*
G37*
G36*
X25504678Y-79936356D02*
G01*
X25525297Y-79942611D01*
X25544293Y-79952764D01*
X25560948Y-79966432D01*
X25574616Y-79983087D01*
X25584769Y-80002083D01*
X25591024Y-80022702D01*
X25593740Y-80050280D01*
X25593740Y-80559000D01*
X25591024Y-80586578D01*
X25584769Y-80607197D01*
X25574616Y-80626193D01*
X25560948Y-80642848D01*
X25544293Y-80656516D01*
X25525297Y-80666669D01*
X25504678Y-80672924D01*
X25477100Y-80675640D01*
X25018380Y-80675640D01*
X24990802Y-80672924D01*
X24970183Y-80666669D01*
X24951187Y-80656516D01*
X24934532Y-80642848D01*
X24920864Y-80626193D01*
X24910711Y-80607197D01*
X24904456Y-80586578D01*
X24901740Y-80559000D01*
X24901740Y-80050280D01*
X24904456Y-80022702D01*
X24910711Y-80002083D01*
X24920864Y-79983087D01*
X24934532Y-79966432D01*
X24951187Y-79952764D01*
X24970183Y-79942611D01*
X24990802Y-79936356D01*
X25018380Y-79933640D01*
X25477100Y-79933640D01*
X25504678Y-79936356D01*
G37*
G36*
X26474678Y-79936356D02*
G01*
X26495297Y-79942611D01*
X26514293Y-79952764D01*
X26530948Y-79966432D01*
X26544616Y-79983087D01*
X26554769Y-80002083D01*
X26561024Y-80022702D01*
X26563740Y-80050280D01*
X26563740Y-80559000D01*
X26561024Y-80586578D01*
X26554769Y-80607197D01*
X26544616Y-80626193D01*
X26530948Y-80642848D01*
X26514293Y-80656516D01*
X26495297Y-80666669D01*
X26474678Y-80672924D01*
X26447100Y-80675640D01*
X25988380Y-80675640D01*
X25960802Y-80672924D01*
X25940183Y-80666669D01*
X25921187Y-80656516D01*
X25904532Y-80642848D01*
X25890864Y-80626193D01*
X25880711Y-80607197D01*
X25874456Y-80586578D01*
X25871740Y-80559000D01*
X25871740Y-80050280D01*
X25874456Y-80022702D01*
X25880711Y-80002083D01*
X25890864Y-79983087D01*
X25904532Y-79966432D01*
X25921187Y-79952764D01*
X25940183Y-79942611D01*
X25960802Y-79936356D01*
X25988380Y-79933640D01*
X26447100Y-79933640D01*
X26474678Y-79936356D01*
G37*
G36*
X2209012Y-78326527D02*
G01*
X2358312Y-78356224D01*
X2522284Y-78424144D01*
X2669854Y-78522747D01*
X2795353Y-78648246D01*
X2893956Y-78795816D01*
X2961876Y-78959788D01*
X2996500Y-79133859D01*
X2996500Y-79311341D01*
X2961876Y-79485412D01*
X2893956Y-79649384D01*
X2795353Y-79796954D01*
X2669854Y-79922453D01*
X2522284Y-80021056D01*
X2358312Y-80088976D01*
X2209012Y-80118673D01*
X2184242Y-80123600D01*
X2006758Y-80123600D01*
X1981988Y-80118673D01*
X1832688Y-80088976D01*
X1668716Y-80021056D01*
X1521146Y-79922453D01*
X1395647Y-79796954D01*
X1297044Y-79649384D01*
X1229124Y-79485412D01*
X1194500Y-79311341D01*
X1194500Y-79133859D01*
X1229124Y-78959788D01*
X1297044Y-78795816D01*
X1395647Y-78648246D01*
X1521146Y-78522747D01*
X1668716Y-78424144D01*
X1832688Y-78356224D01*
X1981988Y-78326527D01*
X2006758Y-78321600D01*
X2184242Y-78321600D01*
X2209012Y-78326527D01*
G37*
G36*
X68025492Y-77965847D02*
G01*
X68174792Y-77995544D01*
X68338764Y-78063464D01*
X68486334Y-78162067D01*
X68611833Y-78287566D01*
X68710436Y-78435136D01*
X68778356Y-78599108D01*
X68812980Y-78773179D01*
X68812980Y-78950661D01*
X68778356Y-79124732D01*
X68710436Y-79288704D01*
X68611833Y-79436274D01*
X68486334Y-79561773D01*
X68338764Y-79660376D01*
X68174792Y-79728296D01*
X68025492Y-79757993D01*
X68000722Y-79762920D01*
X67823238Y-79762920D01*
X67798468Y-79757993D01*
X67649168Y-79728296D01*
X67485196Y-79660376D01*
X67337626Y-79561773D01*
X67212127Y-79436274D01*
X67113524Y-79288704D01*
X67045604Y-79124732D01*
X67010980Y-78950661D01*
X67010980Y-78773179D01*
X67045604Y-78599108D01*
X67113524Y-78435136D01*
X67212127Y-78287566D01*
X67337626Y-78162067D01*
X67485196Y-78063464D01*
X67649168Y-77995544D01*
X67798468Y-77965847D01*
X67823238Y-77960920D01*
X68000722Y-77960920D01*
X68025492Y-77965847D01*
G37*
G36*
X65485492Y-77965847D02*
G01*
X65634792Y-77995544D01*
X65798764Y-78063464D01*
X65946334Y-78162067D01*
X66071833Y-78287566D01*
X66170436Y-78435136D01*
X66238356Y-78599108D01*
X66272980Y-78773179D01*
X66272980Y-78950661D01*
X66238356Y-79124732D01*
X66170436Y-79288704D01*
X66071833Y-79436274D01*
X65946334Y-79561773D01*
X65798764Y-79660376D01*
X65634792Y-79728296D01*
X65485492Y-79757993D01*
X65460722Y-79762920D01*
X65283238Y-79762920D01*
X65258468Y-79757993D01*
X65109168Y-79728296D01*
X64945196Y-79660376D01*
X64797626Y-79561773D01*
X64672127Y-79436274D01*
X64573524Y-79288704D01*
X64505604Y-79124732D01*
X64470980Y-78950661D01*
X64470980Y-78773179D01*
X64505604Y-78599108D01*
X64573524Y-78435136D01*
X64672127Y-78287566D01*
X64797626Y-78162067D01*
X64945196Y-78063464D01*
X65109168Y-77995544D01*
X65258468Y-77965847D01*
X65283238Y-77960920D01*
X65460722Y-77960920D01*
X65485492Y-77965847D01*
G37*
G36*
X26484838Y-78884796D02*
G01*
X26505457Y-78891051D01*
X26524453Y-78901204D01*
X26541108Y-78914872D01*
X26554776Y-78931527D01*
X26564929Y-78950523D01*
X26571184Y-78971142D01*
X26573900Y-78998720D01*
X26573900Y-79507440D01*
X26571184Y-79535018D01*
X26564929Y-79555637D01*
X26554776Y-79574633D01*
X26541108Y-79591288D01*
X26524453Y-79604956D01*
X26505457Y-79615109D01*
X26484838Y-79621364D01*
X26457260Y-79624080D01*
X25998540Y-79624080D01*
X25970962Y-79621364D01*
X25950343Y-79615109D01*
X25931347Y-79604956D01*
X25914692Y-79591288D01*
X25901024Y-79574633D01*
X25890871Y-79555637D01*
X25884616Y-79535018D01*
X25881900Y-79507440D01*
X25881900Y-78998720D01*
X25884616Y-78971142D01*
X25890871Y-78950523D01*
X25901024Y-78931527D01*
X25914692Y-78914872D01*
X25931347Y-78901204D01*
X25950343Y-78891051D01*
X25970962Y-78884796D01*
X25998540Y-78882080D01*
X26457260Y-78882080D01*
X26484838Y-78884796D01*
G37*
G36*
X25514838Y-78884796D02*
G01*
X25535457Y-78891051D01*
X25554453Y-78901204D01*
X25571108Y-78914872D01*
X25584776Y-78931527D01*
X25594929Y-78950523D01*
X25601184Y-78971142D01*
X25603900Y-78998720D01*
X25603900Y-79507440D01*
X25601184Y-79535018D01*
X25594929Y-79555637D01*
X25584776Y-79574633D01*
X25571108Y-79591288D01*
X25554453Y-79604956D01*
X25535457Y-79615109D01*
X25514838Y-79621364D01*
X25487260Y-79624080D01*
X25028540Y-79624080D01*
X25000962Y-79621364D01*
X24980343Y-79615109D01*
X24961347Y-79604956D01*
X24944692Y-79591288D01*
X24931024Y-79574633D01*
X24920871Y-79555637D01*
X24914616Y-79535018D01*
X24911900Y-79507440D01*
X24911900Y-78998720D01*
X24914616Y-78971142D01*
X24920871Y-78950523D01*
X24931024Y-78931527D01*
X24944692Y-78914872D01*
X24961347Y-78901204D01*
X24980343Y-78891051D01*
X25000962Y-78884796D01*
X25028540Y-78882080D01*
X25487260Y-78882080D01*
X25514838Y-78884796D01*
G37*
G36*
X8415900Y-78533240D02*
G01*
X6813900Y-78533240D01*
X6813900Y-77731240D01*
X8415900Y-77731240D01*
X8415900Y-78533240D01*
G37*
G36*
X5952640Y-76890867D02*
G01*
X6001036Y-76900493D01*
X6038802Y-76916136D01*
X6092211Y-76938259D01*
X6102916Y-76945412D01*
X6174269Y-76993088D01*
X6244052Y-77062871D01*
X6244053Y-77062873D01*
X6298881Y-77144929D01*
X6336647Y-77236105D01*
X6355900Y-77332895D01*
X6355900Y-77431585D01*
X6336647Y-77528375D01*
X6298881Y-77619551D01*
X6298880Y-77619552D01*
X6244052Y-77701609D01*
X6174269Y-77771392D01*
X6132962Y-77798992D01*
X6092211Y-77826221D01*
X6038802Y-77848344D01*
X6001036Y-77863987D01*
X5952640Y-77873614D01*
X5904245Y-77883240D01*
X5805555Y-77883240D01*
X5757160Y-77873614D01*
X5708764Y-77863987D01*
X5670998Y-77848344D01*
X5617589Y-77826221D01*
X5576838Y-77798992D01*
X5535531Y-77771392D01*
X5465748Y-77701609D01*
X5410920Y-77619552D01*
X5410919Y-77619551D01*
X5373153Y-77528375D01*
X5353900Y-77431585D01*
X5353900Y-77332895D01*
X5373153Y-77236105D01*
X5410919Y-77144929D01*
X5465747Y-77062873D01*
X5465748Y-77062871D01*
X5535531Y-76993088D01*
X5606884Y-76945412D01*
X5617589Y-76938259D01*
X5670998Y-76916136D01*
X5708764Y-76900493D01*
X5757160Y-76890867D01*
X5805555Y-76881240D01*
X5904245Y-76881240D01*
X5952640Y-76890867D01*
G37*
G36*
X2209012Y-75786527D02*
G01*
X2358312Y-75816224D01*
X2522284Y-75884144D01*
X2669854Y-75982747D01*
X2795353Y-76108246D01*
X2893956Y-76255816D01*
X2961876Y-76419788D01*
X2996500Y-76593859D01*
X2996500Y-76771341D01*
X2961876Y-76945412D01*
X2893956Y-77109384D01*
X2795353Y-77256954D01*
X2669854Y-77382453D01*
X2522284Y-77481056D01*
X2358312Y-77548976D01*
X2209012Y-77578673D01*
X2184242Y-77583600D01*
X2006758Y-77583600D01*
X1981988Y-77578673D01*
X1832688Y-77548976D01*
X1668716Y-77481056D01*
X1521146Y-77382453D01*
X1395647Y-77256954D01*
X1297044Y-77109384D01*
X1229124Y-76945412D01*
X1194500Y-76771341D01*
X1194500Y-76593859D01*
X1229124Y-76419788D01*
X1297044Y-76255816D01*
X1395647Y-76108246D01*
X1521146Y-75982747D01*
X1668716Y-75884144D01*
X1832688Y-75816224D01*
X1981988Y-75786527D01*
X2006758Y-75781600D01*
X2184242Y-75781600D01*
X2209012Y-75786527D01*
G37*
G36*
X68025492Y-75425847D02*
G01*
X68174792Y-75455544D01*
X68338764Y-75523464D01*
X68486334Y-75622067D01*
X68611833Y-75747566D01*
X68710436Y-75895136D01*
X68778356Y-76059108D01*
X68808053Y-76208408D01*
X68812595Y-76231240D01*
X68812980Y-76233179D01*
X68812980Y-76410661D01*
X68778356Y-76584732D01*
X68710436Y-76748704D01*
X68611833Y-76896274D01*
X68486334Y-77021773D01*
X68338764Y-77120376D01*
X68174792Y-77188296D01*
X68025492Y-77217993D01*
X68000722Y-77222920D01*
X67823238Y-77222920D01*
X67798468Y-77217993D01*
X67649168Y-77188296D01*
X67485196Y-77120376D01*
X67337626Y-77021773D01*
X67212127Y-76896274D01*
X67113524Y-76748704D01*
X67045604Y-76584732D01*
X67010980Y-76410661D01*
X67010980Y-76233179D01*
X67011366Y-76231240D01*
X67015907Y-76208408D01*
X67045604Y-76059108D01*
X67113524Y-75895136D01*
X67212127Y-75747566D01*
X67337626Y-75622067D01*
X67485196Y-75523464D01*
X67649168Y-75455544D01*
X67798468Y-75425847D01*
X67823238Y-75420920D01*
X68000722Y-75420920D01*
X68025492Y-75425847D01*
G37*
G36*
X65485492Y-75425847D02*
G01*
X65634792Y-75455544D01*
X65798764Y-75523464D01*
X65946334Y-75622067D01*
X66071833Y-75747566D01*
X66170436Y-75895136D01*
X66238356Y-76059108D01*
X66268053Y-76208408D01*
X66272595Y-76231240D01*
X66272980Y-76233179D01*
X66272980Y-76410661D01*
X66238356Y-76584732D01*
X66170436Y-76748704D01*
X66071833Y-76896274D01*
X65946334Y-77021773D01*
X65798764Y-77120376D01*
X65634792Y-77188296D01*
X65485492Y-77217993D01*
X65460722Y-77222920D01*
X65283238Y-77222920D01*
X65258468Y-77217993D01*
X65109168Y-77188296D01*
X64945196Y-77120376D01*
X64797626Y-77021773D01*
X64672127Y-76896274D01*
X64573524Y-76748704D01*
X64505604Y-76584732D01*
X64470980Y-76410661D01*
X64470980Y-76233179D01*
X64471366Y-76231240D01*
X64475907Y-76208408D01*
X64505604Y-76059108D01*
X64573524Y-75895136D01*
X64672127Y-75747566D01*
X64797626Y-75622067D01*
X64945196Y-75523464D01*
X65109168Y-75455544D01*
X65258468Y-75425847D01*
X65283238Y-75420920D01*
X65460722Y-75420920D01*
X65485492Y-75425847D01*
G37*
G36*
X8415900Y-77033240D02*
G01*
X6813900Y-77033240D01*
X6813900Y-76231240D01*
X8415900Y-76231240D01*
X8415900Y-77033240D01*
G37*
G36*
X7415900Y-75783240D02*
G01*
X6513900Y-75783240D01*
X6513900Y-74681240D01*
X7415900Y-74681240D01*
X7415900Y-75783240D01*
G37*
G36*
X5205900Y-75783240D02*
G01*
X4303900Y-75783240D01*
X4303900Y-74681240D01*
X5205900Y-74681240D01*
X5205900Y-75783240D01*
G37*
G36*
X2209012Y-73246527D02*
G01*
X2358312Y-73276224D01*
X2522284Y-73344144D01*
X2669854Y-73442747D01*
X2795353Y-73568246D01*
X2893956Y-73715816D01*
X2961876Y-73879788D01*
X2996500Y-74053859D01*
X2996500Y-74231341D01*
X2961876Y-74405412D01*
X2893956Y-74569384D01*
X2795353Y-74716954D01*
X2669854Y-74842453D01*
X2522284Y-74941056D01*
X2358312Y-75008976D01*
X2209012Y-75038673D01*
X2184242Y-75043600D01*
X2006758Y-75043600D01*
X1981988Y-75038673D01*
X1832688Y-75008976D01*
X1668716Y-74941056D01*
X1521146Y-74842453D01*
X1395647Y-74716954D01*
X1297044Y-74569384D01*
X1229124Y-74405412D01*
X1194500Y-74231341D01*
X1194500Y-74053859D01*
X1229124Y-73879788D01*
X1297044Y-73715816D01*
X1395647Y-73568246D01*
X1521146Y-73442747D01*
X1668716Y-73344144D01*
X1832688Y-73276224D01*
X1981988Y-73246527D01*
X2006758Y-73241600D01*
X2184242Y-73241600D01*
X2209012Y-73246527D01*
G37*
G36*
X65485492Y-72885847D02*
G01*
X65634792Y-72915544D01*
X65798764Y-72983464D01*
X65946334Y-73082067D01*
X66071833Y-73207566D01*
X66170436Y-73355136D01*
X66238356Y-73519108D01*
X66272980Y-73693179D01*
X66272980Y-73870661D01*
X66238356Y-74044732D01*
X66170436Y-74208704D01*
X66071833Y-74356274D01*
X65946334Y-74481773D01*
X65798764Y-74580376D01*
X65634792Y-74648296D01*
X65485492Y-74677993D01*
X65460722Y-74682920D01*
X65283238Y-74682920D01*
X65258468Y-74677993D01*
X65109168Y-74648296D01*
X64945196Y-74580376D01*
X64797626Y-74481773D01*
X64672127Y-74356274D01*
X64573524Y-74208704D01*
X64505604Y-74044732D01*
X64470980Y-73870661D01*
X64470980Y-73693179D01*
X64505604Y-73519108D01*
X64573524Y-73355136D01*
X64672127Y-73207566D01*
X64797626Y-73082067D01*
X64945196Y-72983464D01*
X65109168Y-72915544D01*
X65258468Y-72885847D01*
X65283238Y-72880920D01*
X65460722Y-72880920D01*
X65485492Y-72885847D01*
G37*
G36*
X68025492Y-72885847D02*
G01*
X68174792Y-72915544D01*
X68338764Y-72983464D01*
X68486334Y-73082067D01*
X68611833Y-73207566D01*
X68710436Y-73355136D01*
X68778356Y-73519108D01*
X68812980Y-73693179D01*
X68812980Y-73870661D01*
X68778356Y-74044732D01*
X68710436Y-74208704D01*
X68611833Y-74356274D01*
X68486334Y-74481773D01*
X68338764Y-74580376D01*
X68174792Y-74648296D01*
X68025492Y-74677993D01*
X68000722Y-74682920D01*
X67823238Y-74682920D01*
X67798468Y-74677993D01*
X67649168Y-74648296D01*
X67485196Y-74580376D01*
X67337626Y-74481773D01*
X67212127Y-74356274D01*
X67113524Y-74208704D01*
X67045604Y-74044732D01*
X67010980Y-73870661D01*
X67010980Y-73693179D01*
X67045604Y-73519108D01*
X67113524Y-73355136D01*
X67212127Y-73207566D01*
X67337626Y-73082067D01*
X67485196Y-72983464D01*
X67649168Y-72915544D01*
X67798468Y-72885847D01*
X67823238Y-72880920D01*
X68000722Y-72880920D01*
X68025492Y-72885847D01*
G37*
G36*
X20303763Y-73774609D02*
G01*
X20303766Y-73774610D01*
X20303765Y-73774610D01*
X20367638Y-73801066D01*
X20425128Y-73839480D01*
X20474020Y-73888372D01*
X20512434Y-73945862D01*
X20534004Y-73997938D01*
X20538891Y-74009737D01*
X20552380Y-74077550D01*
X20552380Y-74146690D01*
X20538891Y-74214503D01*
X20538890Y-74214505D01*
X20512434Y-74278378D01*
X20474020Y-74335868D01*
X20425128Y-74384760D01*
X20367638Y-74423174D01*
X20315562Y-74444744D01*
X20303763Y-74449631D01*
X20235950Y-74463120D01*
X20166810Y-74463120D01*
X20098997Y-74449631D01*
X20087198Y-74444744D01*
X20035122Y-74423174D01*
X19977632Y-74384760D01*
X19928740Y-74335868D01*
X19890326Y-74278378D01*
X19863870Y-74214505D01*
X19863869Y-74214503D01*
X19850380Y-74146690D01*
X19850380Y-74077550D01*
X19863869Y-74009737D01*
X19868756Y-73997938D01*
X19890326Y-73945862D01*
X19928740Y-73888372D01*
X19977632Y-73839480D01*
X20035122Y-73801066D01*
X20098995Y-73774610D01*
X20098994Y-73774610D01*
X20098997Y-73774609D01*
X20166810Y-73761120D01*
X20235950Y-73761120D01*
X20303763Y-73774609D01*
G37*
G36*
X21303763Y-73774609D02*
G01*
X21303766Y-73774610D01*
X21303765Y-73774610D01*
X21367638Y-73801066D01*
X21425128Y-73839480D01*
X21474020Y-73888372D01*
X21512434Y-73945862D01*
X21534004Y-73997938D01*
X21538891Y-74009737D01*
X21552380Y-74077550D01*
X21552380Y-74146690D01*
X21538891Y-74214503D01*
X21538890Y-74214505D01*
X21512434Y-74278378D01*
X21474020Y-74335868D01*
X21425128Y-74384760D01*
X21367638Y-74423174D01*
X21315562Y-74444744D01*
X21303763Y-74449631D01*
X21235950Y-74463120D01*
X21166810Y-74463120D01*
X21098997Y-74449631D01*
X21087198Y-74444744D01*
X21035122Y-74423174D01*
X20977632Y-74384760D01*
X20928740Y-74335868D01*
X20890326Y-74278378D01*
X20863870Y-74214505D01*
X20863869Y-74214503D01*
X20850380Y-74146690D01*
X20850380Y-74077550D01*
X20863869Y-74009737D01*
X20868756Y-73997938D01*
X20890326Y-73945862D01*
X20928740Y-73888372D01*
X20977632Y-73839480D01*
X21035122Y-73801066D01*
X21098995Y-73774610D01*
X21098994Y-73774610D01*
X21098997Y-73774609D01*
X21166810Y-73761120D01*
X21235950Y-73761120D01*
X21303763Y-73774609D01*
G37*
G36*
X19303763Y-73774609D02*
G01*
X19303766Y-73774610D01*
X19303765Y-73774610D01*
X19367638Y-73801066D01*
X19425128Y-73839480D01*
X19474020Y-73888372D01*
X19512434Y-73945862D01*
X19534004Y-73997938D01*
X19538891Y-74009737D01*
X19552380Y-74077550D01*
X19552380Y-74146690D01*
X19538891Y-74214503D01*
X19538890Y-74214505D01*
X19512434Y-74278378D01*
X19474020Y-74335868D01*
X19425128Y-74384760D01*
X19367638Y-74423174D01*
X19315562Y-74444744D01*
X19303763Y-74449631D01*
X19235950Y-74463120D01*
X19166810Y-74463120D01*
X19098997Y-74449631D01*
X19087198Y-74444744D01*
X19035122Y-74423174D01*
X18977632Y-74384760D01*
X18928740Y-74335868D01*
X18890326Y-74278378D01*
X18863870Y-74214505D01*
X18863869Y-74214503D01*
X18850380Y-74146690D01*
X18850380Y-74077550D01*
X18863869Y-74009737D01*
X18868756Y-73997938D01*
X18890326Y-73945862D01*
X18928740Y-73888372D01*
X18977632Y-73839480D01*
X19035122Y-73801066D01*
X19098995Y-73774610D01*
X19098994Y-73774610D01*
X19098997Y-73774609D01*
X19166810Y-73761120D01*
X19235950Y-73761120D01*
X19303763Y-73774609D01*
G37*
G36*
X18303763Y-73774609D02*
G01*
X18303766Y-73774610D01*
X18303765Y-73774610D01*
X18367638Y-73801066D01*
X18425128Y-73839480D01*
X18474020Y-73888372D01*
X18512434Y-73945862D01*
X18534004Y-73997938D01*
X18538891Y-74009737D01*
X18552380Y-74077550D01*
X18552380Y-74146690D01*
X18538891Y-74214503D01*
X18538890Y-74214505D01*
X18512434Y-74278378D01*
X18474020Y-74335868D01*
X18425128Y-74384760D01*
X18367638Y-74423174D01*
X18315562Y-74444744D01*
X18303763Y-74449631D01*
X18235950Y-74463120D01*
X18166810Y-74463120D01*
X18098997Y-74449631D01*
X18087198Y-74444744D01*
X18035122Y-74423174D01*
X17977632Y-74384760D01*
X17928740Y-74335868D01*
X17890326Y-74278378D01*
X17863870Y-74214505D01*
X17863869Y-74214503D01*
X17850380Y-74146690D01*
X17850380Y-74077550D01*
X17863869Y-74009737D01*
X17868756Y-73997938D01*
X17890326Y-73945862D01*
X17928740Y-73888372D01*
X17977632Y-73839480D01*
X18035122Y-73801066D01*
X18098995Y-73774610D01*
X18098994Y-73774610D01*
X18098997Y-73774609D01*
X18166810Y-73761120D01*
X18235950Y-73761120D01*
X18303763Y-73774609D01*
G37*
G36*
X17303763Y-73774609D02*
G01*
X17303766Y-73774610D01*
X17303765Y-73774610D01*
X17367638Y-73801066D01*
X17425128Y-73839480D01*
X17474020Y-73888372D01*
X17512434Y-73945862D01*
X17534004Y-73997938D01*
X17538891Y-74009737D01*
X17552380Y-74077550D01*
X17552380Y-74146690D01*
X17538891Y-74214503D01*
X17538890Y-74214505D01*
X17512434Y-74278378D01*
X17474020Y-74335868D01*
X17425128Y-74384760D01*
X17367638Y-74423174D01*
X17315562Y-74444744D01*
X17303763Y-74449631D01*
X17235950Y-74463120D01*
X17166810Y-74463120D01*
X17098997Y-74449631D01*
X17087198Y-74444744D01*
X17035122Y-74423174D01*
X16977632Y-74384760D01*
X16928740Y-74335868D01*
X16890326Y-74278378D01*
X16863870Y-74214505D01*
X16863869Y-74214503D01*
X16850380Y-74146690D01*
X16850380Y-74077550D01*
X16863869Y-74009737D01*
X16868756Y-73997938D01*
X16890326Y-73945862D01*
X16928740Y-73888372D01*
X16977632Y-73839480D01*
X17035122Y-73801066D01*
X17098995Y-73774610D01*
X17098994Y-73774610D01*
X17098997Y-73774609D01*
X17166810Y-73761120D01*
X17235950Y-73761120D01*
X17303763Y-73774609D01*
G37*
G36*
X52675221Y-72942214D02*
G01*
X52775495Y-72983749D01*
X52775496Y-72983750D01*
X52865742Y-73044050D01*
X52942490Y-73120798D01*
X52942491Y-73120800D01*
X53002791Y-73211045D01*
X53044326Y-73311319D01*
X53065500Y-73417770D01*
X53065500Y-73526310D01*
X53044326Y-73632761D01*
X53002791Y-73733035D01*
X53002790Y-73733036D01*
X52942490Y-73823282D01*
X52865742Y-73900030D01*
X52820312Y-73930385D01*
X52775495Y-73960331D01*
X52675221Y-74001866D01*
X52568770Y-74023040D01*
X52460230Y-74023040D01*
X52353779Y-74001866D01*
X52253505Y-73960331D01*
X52208688Y-73930385D01*
X52163258Y-73900030D01*
X52086510Y-73823282D01*
X52026210Y-73733036D01*
X52026209Y-73733035D01*
X51984674Y-73632761D01*
X51963500Y-73526310D01*
X51963500Y-73417770D01*
X51984674Y-73311319D01*
X52026209Y-73211045D01*
X52086509Y-73120800D01*
X52086510Y-73120798D01*
X52163258Y-73044050D01*
X52253504Y-72983750D01*
X52253505Y-72983749D01*
X52353779Y-72942214D01*
X52460230Y-72921040D01*
X52568770Y-72921040D01*
X52675221Y-72942214D01*
G37*
G36*
X21303763Y-72774609D02*
G01*
X21303766Y-72774610D01*
X21303765Y-72774610D01*
X21367638Y-72801066D01*
X21425128Y-72839480D01*
X21474020Y-72888372D01*
X21512434Y-72945862D01*
X21528127Y-72983750D01*
X21538891Y-73009737D01*
X21552380Y-73077550D01*
X21552380Y-73146690D01*
X21538891Y-73214503D01*
X21538890Y-73214505D01*
X21512434Y-73278378D01*
X21474020Y-73335868D01*
X21425128Y-73384760D01*
X21367638Y-73423174D01*
X21320383Y-73442747D01*
X21303763Y-73449631D01*
X21235950Y-73463120D01*
X21166810Y-73463120D01*
X21098997Y-73449631D01*
X21082377Y-73442747D01*
X21035122Y-73423174D01*
X20977632Y-73384760D01*
X20928740Y-73335868D01*
X20890326Y-73278378D01*
X20863870Y-73214505D01*
X20863869Y-73214503D01*
X20850380Y-73146690D01*
X20850380Y-73077550D01*
X20863869Y-73009737D01*
X20874633Y-72983750D01*
X20890326Y-72945862D01*
X20928740Y-72888372D01*
X20977632Y-72839480D01*
X21035122Y-72801066D01*
X21098995Y-72774610D01*
X21098994Y-72774610D01*
X21098997Y-72774609D01*
X21166810Y-72761120D01*
X21235950Y-72761120D01*
X21303763Y-72774609D01*
G37*
G36*
X17303763Y-72774609D02*
G01*
X17303766Y-72774610D01*
X17303765Y-72774610D01*
X17367638Y-72801066D01*
X17425128Y-72839480D01*
X17474020Y-72888372D01*
X17512434Y-72945862D01*
X17528127Y-72983750D01*
X17538891Y-73009737D01*
X17552380Y-73077550D01*
X17552380Y-73146690D01*
X17538891Y-73214503D01*
X17538890Y-73214505D01*
X17512434Y-73278378D01*
X17474020Y-73335868D01*
X17425128Y-73384760D01*
X17367638Y-73423174D01*
X17320383Y-73442747D01*
X17303763Y-73449631D01*
X17235950Y-73463120D01*
X17166810Y-73463120D01*
X17098997Y-73449631D01*
X17082377Y-73442747D01*
X17035122Y-73423174D01*
X16977632Y-73384760D01*
X16928740Y-73335868D01*
X16890326Y-73278378D01*
X16863870Y-73214505D01*
X16863869Y-73214503D01*
X16850380Y-73146690D01*
X16850380Y-73077550D01*
X16863869Y-73009737D01*
X16874633Y-72983750D01*
X16890326Y-72945862D01*
X16928740Y-72888372D01*
X16977632Y-72839480D01*
X17035122Y-72801066D01*
X17098995Y-72774610D01*
X17098994Y-72774610D01*
X17098997Y-72774609D01*
X17166810Y-72761120D01*
X17235950Y-72761120D01*
X17303763Y-72774609D01*
G37*
G36*
X18303763Y-72774609D02*
G01*
X18303766Y-72774610D01*
X18303765Y-72774610D01*
X18367638Y-72801066D01*
X18425128Y-72839480D01*
X18474020Y-72888372D01*
X18512434Y-72945862D01*
X18528127Y-72983750D01*
X18538891Y-73009737D01*
X18552380Y-73077550D01*
X18552380Y-73146690D01*
X18538891Y-73214503D01*
X18538890Y-73214505D01*
X18512434Y-73278378D01*
X18474020Y-73335868D01*
X18425128Y-73384760D01*
X18367638Y-73423174D01*
X18320383Y-73442747D01*
X18303763Y-73449631D01*
X18235950Y-73463120D01*
X18166810Y-73463120D01*
X18098997Y-73449631D01*
X18082377Y-73442747D01*
X18035122Y-73423174D01*
X17977632Y-73384760D01*
X17928740Y-73335868D01*
X17890326Y-73278378D01*
X17863870Y-73214505D01*
X17863869Y-73214503D01*
X17850380Y-73146690D01*
X17850380Y-73077550D01*
X17863869Y-73009737D01*
X17874633Y-72983750D01*
X17890326Y-72945862D01*
X17928740Y-72888372D01*
X17977632Y-72839480D01*
X18035122Y-72801066D01*
X18098995Y-72774610D01*
X18098994Y-72774610D01*
X18098997Y-72774609D01*
X18166810Y-72761120D01*
X18235950Y-72761120D01*
X18303763Y-72774609D01*
G37*
G36*
X19303763Y-72774609D02*
G01*
X19303766Y-72774610D01*
X19303765Y-72774610D01*
X19367638Y-72801066D01*
X19425128Y-72839480D01*
X19474020Y-72888372D01*
X19512434Y-72945862D01*
X19528127Y-72983750D01*
X19538891Y-73009737D01*
X19552380Y-73077550D01*
X19552380Y-73146690D01*
X19538891Y-73214503D01*
X19538890Y-73214505D01*
X19512434Y-73278378D01*
X19474020Y-73335868D01*
X19425128Y-73384760D01*
X19367638Y-73423174D01*
X19320383Y-73442747D01*
X19303763Y-73449631D01*
X19235950Y-73463120D01*
X19166810Y-73463120D01*
X19098997Y-73449631D01*
X19082377Y-73442747D01*
X19035122Y-73423174D01*
X18977632Y-73384760D01*
X18928740Y-73335868D01*
X18890326Y-73278378D01*
X18863870Y-73214505D01*
X18863869Y-73214503D01*
X18850380Y-73146690D01*
X18850380Y-73077550D01*
X18863869Y-73009737D01*
X18874633Y-72983750D01*
X18890326Y-72945862D01*
X18928740Y-72888372D01*
X18977632Y-72839480D01*
X19035122Y-72801066D01*
X19098995Y-72774610D01*
X19098994Y-72774610D01*
X19098997Y-72774609D01*
X19166810Y-72761120D01*
X19235950Y-72761120D01*
X19303763Y-72774609D01*
G37*
G36*
X20303763Y-72774609D02*
G01*
X20303766Y-72774610D01*
X20303765Y-72774610D01*
X20367638Y-72801066D01*
X20425128Y-72839480D01*
X20474020Y-72888372D01*
X20512434Y-72945862D01*
X20528127Y-72983750D01*
X20538891Y-73009737D01*
X20552380Y-73077550D01*
X20552380Y-73146690D01*
X20538891Y-73214503D01*
X20538890Y-73214505D01*
X20512434Y-73278378D01*
X20474020Y-73335868D01*
X20425128Y-73384760D01*
X20367638Y-73423174D01*
X20320383Y-73442747D01*
X20303763Y-73449631D01*
X20235950Y-73463120D01*
X20166810Y-73463120D01*
X20098997Y-73449631D01*
X20082377Y-73442747D01*
X20035122Y-73423174D01*
X19977632Y-73384760D01*
X19928740Y-73335868D01*
X19890326Y-73278378D01*
X19863870Y-73214505D01*
X19863869Y-73214503D01*
X19850380Y-73146690D01*
X19850380Y-73077550D01*
X19863869Y-73009737D01*
X19874633Y-72983750D01*
X19890326Y-72945862D01*
X19928740Y-72888372D01*
X19977632Y-72839480D01*
X20035122Y-72801066D01*
X20098995Y-72774610D01*
X20098994Y-72774610D01*
X20098997Y-72774609D01*
X20166810Y-72761120D01*
X20235950Y-72761120D01*
X20303763Y-72774609D01*
G37*
G36*
X2996500Y-72503600D02*
G01*
X1194500Y-72503600D01*
X1194500Y-70701600D01*
X2996500Y-70701600D01*
X2996500Y-72503600D01*
G37*
G36*
X21303763Y-71774609D02*
G01*
X21303766Y-71774610D01*
X21303765Y-71774610D01*
X21367638Y-71801066D01*
X21425128Y-71839480D01*
X21474020Y-71888372D01*
X21512434Y-71945862D01*
X21534004Y-71997938D01*
X21538891Y-72009737D01*
X21552380Y-72077550D01*
X21552380Y-72146690D01*
X21538891Y-72214503D01*
X21538890Y-72214505D01*
X21512434Y-72278378D01*
X21474020Y-72335868D01*
X21425128Y-72384760D01*
X21367638Y-72423174D01*
X21315562Y-72444744D01*
X21303763Y-72449631D01*
X21235950Y-72463120D01*
X21166810Y-72463120D01*
X21098997Y-72449631D01*
X21087198Y-72444744D01*
X21035122Y-72423174D01*
X20977632Y-72384760D01*
X20928740Y-72335868D01*
X20890326Y-72278378D01*
X20863870Y-72214505D01*
X20863869Y-72214503D01*
X20850380Y-72146690D01*
X20850380Y-72077550D01*
X20863869Y-72009737D01*
X20868756Y-71997938D01*
X20890326Y-71945862D01*
X20928740Y-71888372D01*
X20977632Y-71839480D01*
X21035122Y-71801066D01*
X21098995Y-71774610D01*
X21098994Y-71774610D01*
X21098997Y-71774609D01*
X21166810Y-71761120D01*
X21235950Y-71761120D01*
X21303763Y-71774609D01*
G37*
G36*
X20303763Y-71774609D02*
G01*
X20303766Y-71774610D01*
X20303765Y-71774610D01*
X20367638Y-71801066D01*
X20425128Y-71839480D01*
X20474020Y-71888372D01*
X20512434Y-71945862D01*
X20534004Y-71997938D01*
X20538891Y-72009737D01*
X20552380Y-72077550D01*
X20552380Y-72146690D01*
X20538891Y-72214503D01*
X20538890Y-72214505D01*
X20512434Y-72278378D01*
X20474020Y-72335868D01*
X20425128Y-72384760D01*
X20367638Y-72423174D01*
X20315562Y-72444744D01*
X20303763Y-72449631D01*
X20235950Y-72463120D01*
X20166810Y-72463120D01*
X20098997Y-72449631D01*
X20087198Y-72444744D01*
X20035122Y-72423174D01*
X19977632Y-72384760D01*
X19928740Y-72335868D01*
X19890326Y-72278378D01*
X19863870Y-72214505D01*
X19863869Y-72214503D01*
X19850380Y-72146690D01*
X19850380Y-72077550D01*
X19863869Y-72009737D01*
X19868756Y-71997938D01*
X19890326Y-71945862D01*
X19928740Y-71888372D01*
X19977632Y-71839480D01*
X20035122Y-71801066D01*
X20098995Y-71774610D01*
X20098994Y-71774610D01*
X20098997Y-71774609D01*
X20166810Y-71761120D01*
X20235950Y-71761120D01*
X20303763Y-71774609D01*
G37*
G36*
X19303763Y-71774609D02*
G01*
X19303766Y-71774610D01*
X19303765Y-71774610D01*
X19367638Y-71801066D01*
X19425128Y-71839480D01*
X19474020Y-71888372D01*
X19512434Y-71945862D01*
X19534004Y-71997938D01*
X19538891Y-72009737D01*
X19552380Y-72077550D01*
X19552380Y-72146690D01*
X19538891Y-72214503D01*
X19538890Y-72214505D01*
X19512434Y-72278378D01*
X19474020Y-72335868D01*
X19425128Y-72384760D01*
X19367638Y-72423174D01*
X19315562Y-72444744D01*
X19303763Y-72449631D01*
X19235950Y-72463120D01*
X19166810Y-72463120D01*
X19098997Y-72449631D01*
X19087198Y-72444744D01*
X19035122Y-72423174D01*
X18977632Y-72384760D01*
X18928740Y-72335868D01*
X18890326Y-72278378D01*
X18863870Y-72214505D01*
X18863869Y-72214503D01*
X18850380Y-72146690D01*
X18850380Y-72077550D01*
X18863869Y-72009737D01*
X18868756Y-71997938D01*
X18890326Y-71945862D01*
X18928740Y-71888372D01*
X18977632Y-71839480D01*
X19035122Y-71801066D01*
X19098995Y-71774610D01*
X19098994Y-71774610D01*
X19098997Y-71774609D01*
X19166810Y-71761120D01*
X19235950Y-71761120D01*
X19303763Y-71774609D01*
G37*
G36*
X18303763Y-71774609D02*
G01*
X18303766Y-71774610D01*
X18303765Y-71774610D01*
X18367638Y-71801066D01*
X18425128Y-71839480D01*
X18474020Y-71888372D01*
X18512434Y-71945862D01*
X18534004Y-71997938D01*
X18538891Y-72009737D01*
X18552380Y-72077550D01*
X18552380Y-72146690D01*
X18538891Y-72214503D01*
X18538890Y-72214505D01*
X18512434Y-72278378D01*
X18474020Y-72335868D01*
X18425128Y-72384760D01*
X18367638Y-72423174D01*
X18315562Y-72444744D01*
X18303763Y-72449631D01*
X18235950Y-72463120D01*
X18166810Y-72463120D01*
X18098997Y-72449631D01*
X18087198Y-72444744D01*
X18035122Y-72423174D01*
X17977632Y-72384760D01*
X17928740Y-72335868D01*
X17890326Y-72278378D01*
X17863870Y-72214505D01*
X17863869Y-72214503D01*
X17850380Y-72146690D01*
X17850380Y-72077550D01*
X17863869Y-72009737D01*
X17868756Y-71997938D01*
X17890326Y-71945862D01*
X17928740Y-71888372D01*
X17977632Y-71839480D01*
X18035122Y-71801066D01*
X18098995Y-71774610D01*
X18098994Y-71774610D01*
X18098997Y-71774609D01*
X18166810Y-71761120D01*
X18235950Y-71761120D01*
X18303763Y-71774609D01*
G37*
G36*
X17303763Y-71774609D02*
G01*
X17303766Y-71774610D01*
X17303765Y-71774610D01*
X17367638Y-71801066D01*
X17425128Y-71839480D01*
X17474020Y-71888372D01*
X17512434Y-71945862D01*
X17534004Y-71997938D01*
X17538891Y-72009737D01*
X17552380Y-72077550D01*
X17552380Y-72146690D01*
X17538891Y-72214503D01*
X17538890Y-72214505D01*
X17512434Y-72278378D01*
X17474020Y-72335868D01*
X17425128Y-72384760D01*
X17367638Y-72423174D01*
X17315562Y-72444744D01*
X17303763Y-72449631D01*
X17235950Y-72463120D01*
X17166810Y-72463120D01*
X17098997Y-72449631D01*
X17087198Y-72444744D01*
X17035122Y-72423174D01*
X16977632Y-72384760D01*
X16928740Y-72335868D01*
X16890326Y-72278378D01*
X16863870Y-72214505D01*
X16863869Y-72214503D01*
X16850380Y-72146690D01*
X16850380Y-72077550D01*
X16863869Y-72009737D01*
X16868756Y-71997938D01*
X16890326Y-71945862D01*
X16928740Y-71888372D01*
X16977632Y-71839480D01*
X17035122Y-71801066D01*
X17098995Y-71774610D01*
X17098994Y-71774610D01*
X17098997Y-71774609D01*
X17166810Y-71761120D01*
X17235950Y-71761120D01*
X17303763Y-71774609D01*
G37*
G36*
X65485492Y-70345847D02*
G01*
X65634792Y-70375544D01*
X65798764Y-70443464D01*
X65946334Y-70542067D01*
X66071833Y-70667566D01*
X66170436Y-70815136D01*
X66238356Y-70979108D01*
X66272980Y-71153179D01*
X66272980Y-71330661D01*
X66238356Y-71504732D01*
X66170436Y-71668704D01*
X66071833Y-71816274D01*
X65946334Y-71941773D01*
X65798764Y-72040376D01*
X65634792Y-72108296D01*
X65485492Y-72137993D01*
X65460722Y-72142920D01*
X65283238Y-72142920D01*
X65258468Y-72137993D01*
X65109168Y-72108296D01*
X64945196Y-72040376D01*
X64797626Y-71941773D01*
X64672127Y-71816274D01*
X64573524Y-71668704D01*
X64505604Y-71504732D01*
X64470980Y-71330661D01*
X64470980Y-71153179D01*
X64505604Y-70979108D01*
X64573524Y-70815136D01*
X64672127Y-70667566D01*
X64797626Y-70542067D01*
X64945196Y-70443464D01*
X65109168Y-70375544D01*
X65258468Y-70345847D01*
X65283238Y-70340920D01*
X65460722Y-70340920D01*
X65485492Y-70345847D01*
G37*
G36*
X68025492Y-70345847D02*
G01*
X68174792Y-70375544D01*
X68338764Y-70443464D01*
X68486334Y-70542067D01*
X68611833Y-70667566D01*
X68710436Y-70815136D01*
X68778356Y-70979108D01*
X68812980Y-71153179D01*
X68812980Y-71330661D01*
X68778356Y-71504732D01*
X68710436Y-71668704D01*
X68611833Y-71816274D01*
X68486334Y-71941773D01*
X68338764Y-72040376D01*
X68174792Y-72108296D01*
X68025492Y-72137993D01*
X68000722Y-72142920D01*
X67823238Y-72142920D01*
X67798468Y-72137993D01*
X67649168Y-72108296D01*
X67485196Y-72040376D01*
X67337626Y-71941773D01*
X67212127Y-71816274D01*
X67113524Y-71668704D01*
X67045604Y-71504732D01*
X67010980Y-71330661D01*
X67010980Y-71153179D01*
X67045604Y-70979108D01*
X67113524Y-70815136D01*
X67212127Y-70667566D01*
X67337626Y-70542067D01*
X67485196Y-70443464D01*
X67649168Y-70375544D01*
X67798468Y-70345847D01*
X67823238Y-70340920D01*
X68000722Y-70340920D01*
X68025492Y-70345847D01*
G37*
G36*
X52695541Y-70798454D02*
G01*
X52795815Y-70839989D01*
X52795816Y-70839990D01*
X52886062Y-70900290D01*
X52962810Y-70977038D01*
X52984657Y-71009735D01*
X53023111Y-71067285D01*
X53064646Y-71167559D01*
X53085820Y-71274010D01*
X53085820Y-71382550D01*
X53064646Y-71489001D01*
X53023111Y-71589275D01*
X53023110Y-71589276D01*
X52962810Y-71679522D01*
X52886062Y-71756270D01*
X52858614Y-71774610D01*
X52795815Y-71816571D01*
X52695541Y-71858106D01*
X52589090Y-71879280D01*
X52480550Y-71879280D01*
X52374099Y-71858106D01*
X52273825Y-71816571D01*
X52211026Y-71774610D01*
X52183578Y-71756270D01*
X52106830Y-71679522D01*
X52046530Y-71589276D01*
X52046529Y-71589275D01*
X52004994Y-71489001D01*
X51983820Y-71382550D01*
X51983820Y-71274010D01*
X52004994Y-71167559D01*
X52046529Y-71067285D01*
X52084983Y-71009735D01*
X52106830Y-70977038D01*
X52183578Y-70900290D01*
X52273824Y-70839990D01*
X52273825Y-70839989D01*
X52374099Y-70798454D01*
X52480550Y-70777280D01*
X52589090Y-70777280D01*
X52695541Y-70798454D01*
G37*
G36*
X20303763Y-70774609D02*
G01*
X20303766Y-70774610D01*
X20303765Y-70774610D01*
X20367638Y-70801066D01*
X20425128Y-70839480D01*
X20474020Y-70888372D01*
X20512434Y-70945862D01*
X20525347Y-70977038D01*
X20538891Y-71009737D01*
X20552380Y-71077550D01*
X20552380Y-71146690D01*
X20538891Y-71214503D01*
X20538890Y-71214505D01*
X20512434Y-71278378D01*
X20474020Y-71335868D01*
X20425128Y-71384760D01*
X20367638Y-71423174D01*
X20315562Y-71444744D01*
X20303763Y-71449631D01*
X20235950Y-71463120D01*
X20166810Y-71463120D01*
X20098997Y-71449631D01*
X20087198Y-71444744D01*
X20035122Y-71423174D01*
X19977632Y-71384760D01*
X19928740Y-71335868D01*
X19890326Y-71278378D01*
X19863870Y-71214505D01*
X19863869Y-71214503D01*
X19850380Y-71146690D01*
X19850380Y-71077550D01*
X19863869Y-71009737D01*
X19877413Y-70977038D01*
X19890326Y-70945862D01*
X19928740Y-70888372D01*
X19977632Y-70839480D01*
X20035122Y-70801066D01*
X20098995Y-70774610D01*
X20098994Y-70774610D01*
X20098997Y-70774609D01*
X20166810Y-70761120D01*
X20235950Y-70761120D01*
X20303763Y-70774609D01*
G37*
G36*
X21303763Y-70774609D02*
G01*
X21303766Y-70774610D01*
X21303765Y-70774610D01*
X21367638Y-70801066D01*
X21425128Y-70839480D01*
X21474020Y-70888372D01*
X21512434Y-70945862D01*
X21525347Y-70977038D01*
X21538891Y-71009737D01*
X21552380Y-71077550D01*
X21552380Y-71146690D01*
X21538891Y-71214503D01*
X21538890Y-71214505D01*
X21512434Y-71278378D01*
X21474020Y-71335868D01*
X21425128Y-71384760D01*
X21367638Y-71423174D01*
X21315562Y-71444744D01*
X21303763Y-71449631D01*
X21235950Y-71463120D01*
X21166810Y-71463120D01*
X21098997Y-71449631D01*
X21087198Y-71444744D01*
X21035122Y-71423174D01*
X20977632Y-71384760D01*
X20928740Y-71335868D01*
X20890326Y-71278378D01*
X20863870Y-71214505D01*
X20863869Y-71214503D01*
X20850380Y-71146690D01*
X20850380Y-71077550D01*
X20863869Y-71009737D01*
X20877413Y-70977038D01*
X20890326Y-70945862D01*
X20928740Y-70888372D01*
X20977632Y-70839480D01*
X21035122Y-70801066D01*
X21098995Y-70774610D01*
X21098994Y-70774610D01*
X21098997Y-70774609D01*
X21166810Y-70761120D01*
X21235950Y-70761120D01*
X21303763Y-70774609D01*
G37*
G36*
X18303763Y-70774609D02*
G01*
X18303766Y-70774610D01*
X18303765Y-70774610D01*
X18367638Y-70801066D01*
X18425128Y-70839480D01*
X18474020Y-70888372D01*
X18512434Y-70945862D01*
X18525347Y-70977038D01*
X18538891Y-71009737D01*
X18552380Y-71077550D01*
X18552380Y-71146690D01*
X18538891Y-71214503D01*
X18538890Y-71214505D01*
X18512434Y-71278378D01*
X18474020Y-71335868D01*
X18425128Y-71384760D01*
X18367638Y-71423174D01*
X18315562Y-71444744D01*
X18303763Y-71449631D01*
X18235950Y-71463120D01*
X18166810Y-71463120D01*
X18098997Y-71449631D01*
X18087198Y-71444744D01*
X18035122Y-71423174D01*
X17977632Y-71384760D01*
X17928740Y-71335868D01*
X17890326Y-71278378D01*
X17863870Y-71214505D01*
X17863869Y-71214503D01*
X17850380Y-71146690D01*
X17850380Y-71077550D01*
X17863869Y-71009737D01*
X17877413Y-70977038D01*
X17890326Y-70945862D01*
X17928740Y-70888372D01*
X17977632Y-70839480D01*
X18035122Y-70801066D01*
X18098995Y-70774610D01*
X18098994Y-70774610D01*
X18098997Y-70774609D01*
X18166810Y-70761120D01*
X18235950Y-70761120D01*
X18303763Y-70774609D01*
G37*
G36*
X17303763Y-70774609D02*
G01*
X17303766Y-70774610D01*
X17303765Y-70774610D01*
X17367638Y-70801066D01*
X17425128Y-70839480D01*
X17474020Y-70888372D01*
X17512434Y-70945862D01*
X17525347Y-70977038D01*
X17538891Y-71009737D01*
X17552380Y-71077550D01*
X17552380Y-71146690D01*
X17538891Y-71214503D01*
X17538890Y-71214505D01*
X17512434Y-71278378D01*
X17474020Y-71335868D01*
X17425128Y-71384760D01*
X17367638Y-71423174D01*
X17315562Y-71444744D01*
X17303763Y-71449631D01*
X17235950Y-71463120D01*
X17166810Y-71463120D01*
X17098997Y-71449631D01*
X17087198Y-71444744D01*
X17035122Y-71423174D01*
X16977632Y-71384760D01*
X16928740Y-71335868D01*
X16890326Y-71278378D01*
X16863870Y-71214505D01*
X16863869Y-71214503D01*
X16850380Y-71146690D01*
X16850380Y-71077550D01*
X16863869Y-71009737D01*
X16877413Y-70977038D01*
X16890326Y-70945862D01*
X16928740Y-70888372D01*
X16977632Y-70839480D01*
X17035122Y-70801066D01*
X17098995Y-70774610D01*
X17098994Y-70774610D01*
X17098997Y-70774609D01*
X17166810Y-70761120D01*
X17235950Y-70761120D01*
X17303763Y-70774609D01*
G37*
G36*
X19303763Y-70774609D02*
G01*
X19303766Y-70774610D01*
X19303765Y-70774610D01*
X19367638Y-70801066D01*
X19425128Y-70839480D01*
X19474020Y-70888372D01*
X19512434Y-70945862D01*
X19525347Y-70977038D01*
X19538891Y-71009737D01*
X19552380Y-71077550D01*
X19552380Y-71146690D01*
X19538891Y-71214503D01*
X19538890Y-71214505D01*
X19512434Y-71278378D01*
X19474020Y-71335868D01*
X19425128Y-71384760D01*
X19367638Y-71423174D01*
X19315562Y-71444744D01*
X19303763Y-71449631D01*
X19235950Y-71463120D01*
X19166810Y-71463120D01*
X19098997Y-71449631D01*
X19087198Y-71444744D01*
X19035122Y-71423174D01*
X18977632Y-71384760D01*
X18928740Y-71335868D01*
X18890326Y-71278378D01*
X18863870Y-71214505D01*
X18863869Y-71214503D01*
X18850380Y-71146690D01*
X18850380Y-71077550D01*
X18863869Y-71009737D01*
X18877413Y-70977038D01*
X18890326Y-70945862D01*
X18928740Y-70888372D01*
X18977632Y-70839480D01*
X19035122Y-70801066D01*
X19098995Y-70774610D01*
X19098994Y-70774610D01*
X19098997Y-70774609D01*
X19166810Y-70761120D01*
X19235950Y-70761120D01*
X19303763Y-70774609D01*
G37*
G36*
X21303763Y-69774609D02*
G01*
X21303766Y-69774610D01*
X21303765Y-69774610D01*
X21367638Y-69801066D01*
X21425128Y-69839480D01*
X21474020Y-69888372D01*
X21512434Y-69945862D01*
X21534004Y-69997938D01*
X21538891Y-70009737D01*
X21552380Y-70077550D01*
X21552380Y-70146690D01*
X21538891Y-70214503D01*
X21538890Y-70214505D01*
X21512434Y-70278378D01*
X21474020Y-70335868D01*
X21425128Y-70384760D01*
X21367638Y-70423174D01*
X21318652Y-70443464D01*
X21303763Y-70449631D01*
X21235950Y-70463120D01*
X21166810Y-70463120D01*
X21098997Y-70449631D01*
X21084108Y-70443464D01*
X21035122Y-70423174D01*
X20977632Y-70384760D01*
X20928740Y-70335868D01*
X20890326Y-70278378D01*
X20863870Y-70214505D01*
X20863869Y-70214503D01*
X20850380Y-70146690D01*
X20850380Y-70077550D01*
X20863869Y-70009737D01*
X20868756Y-69997938D01*
X20890326Y-69945862D01*
X20928740Y-69888372D01*
X20977632Y-69839480D01*
X21035122Y-69801066D01*
X21098995Y-69774610D01*
X21098994Y-69774610D01*
X21098997Y-69774609D01*
X21166810Y-69761120D01*
X21235950Y-69761120D01*
X21303763Y-69774609D01*
G37*
G36*
X18303763Y-69774609D02*
G01*
X18303766Y-69774610D01*
X18303765Y-69774610D01*
X18367638Y-69801066D01*
X18425128Y-69839480D01*
X18474020Y-69888372D01*
X18512434Y-69945862D01*
X18534004Y-69997938D01*
X18538891Y-70009737D01*
X18552380Y-70077550D01*
X18552380Y-70146690D01*
X18538891Y-70214503D01*
X18538890Y-70214505D01*
X18512434Y-70278378D01*
X18474020Y-70335868D01*
X18425128Y-70384760D01*
X18367638Y-70423174D01*
X18318652Y-70443464D01*
X18303763Y-70449631D01*
X18235950Y-70463120D01*
X18166810Y-70463120D01*
X18098997Y-70449631D01*
X18084108Y-70443464D01*
X18035122Y-70423174D01*
X17977632Y-70384760D01*
X17928740Y-70335868D01*
X17890326Y-70278378D01*
X17863870Y-70214505D01*
X17863869Y-70214503D01*
X17850380Y-70146690D01*
X17850380Y-70077550D01*
X17863869Y-70009737D01*
X17868756Y-69997938D01*
X17890326Y-69945862D01*
X17928740Y-69888372D01*
X17977632Y-69839480D01*
X18035122Y-69801066D01*
X18098995Y-69774610D01*
X18098994Y-69774610D01*
X18098997Y-69774609D01*
X18166810Y-69761120D01*
X18235950Y-69761120D01*
X18303763Y-69774609D01*
G37*
G36*
X20303763Y-69774609D02*
G01*
X20303766Y-69774610D01*
X20303765Y-69774610D01*
X20367638Y-69801066D01*
X20425128Y-69839480D01*
X20474020Y-69888372D01*
X20512434Y-69945862D01*
X20534004Y-69997938D01*
X20538891Y-70009737D01*
X20552380Y-70077550D01*
X20552380Y-70146690D01*
X20538891Y-70214503D01*
X20538890Y-70214505D01*
X20512434Y-70278378D01*
X20474020Y-70335868D01*
X20425128Y-70384760D01*
X20367638Y-70423174D01*
X20318652Y-70443464D01*
X20303763Y-70449631D01*
X20235950Y-70463120D01*
X20166810Y-70463120D01*
X20098997Y-70449631D01*
X20084108Y-70443464D01*
X20035122Y-70423174D01*
X19977632Y-70384760D01*
X19928740Y-70335868D01*
X19890326Y-70278378D01*
X19863870Y-70214505D01*
X19863869Y-70214503D01*
X19850380Y-70146690D01*
X19850380Y-70077550D01*
X19863869Y-70009737D01*
X19868756Y-69997938D01*
X19890326Y-69945862D01*
X19928740Y-69888372D01*
X19977632Y-69839480D01*
X20035122Y-69801066D01*
X20098995Y-69774610D01*
X20098994Y-69774610D01*
X20098997Y-69774609D01*
X20166810Y-69761120D01*
X20235950Y-69761120D01*
X20303763Y-69774609D01*
G37*
G36*
X19303763Y-69774609D02*
G01*
X19303766Y-69774610D01*
X19303765Y-69774610D01*
X19367638Y-69801066D01*
X19425128Y-69839480D01*
X19474020Y-69888372D01*
X19512434Y-69945862D01*
X19534004Y-69997938D01*
X19538891Y-70009737D01*
X19552380Y-70077550D01*
X19552380Y-70146690D01*
X19538891Y-70214503D01*
X19538890Y-70214505D01*
X19512434Y-70278378D01*
X19474020Y-70335868D01*
X19425128Y-70384760D01*
X19367638Y-70423174D01*
X19318652Y-70443464D01*
X19303763Y-70449631D01*
X19235950Y-70463120D01*
X19166810Y-70463120D01*
X19098997Y-70449631D01*
X19084108Y-70443464D01*
X19035122Y-70423174D01*
X18977632Y-70384760D01*
X18928740Y-70335868D01*
X18890326Y-70278378D01*
X18863870Y-70214505D01*
X18863869Y-70214503D01*
X18850380Y-70146690D01*
X18850380Y-70077550D01*
X18863869Y-70009737D01*
X18868756Y-69997938D01*
X18890326Y-69945862D01*
X18928740Y-69888372D01*
X18977632Y-69839480D01*
X19035122Y-69801066D01*
X19098995Y-69774610D01*
X19098994Y-69774610D01*
X19098997Y-69774609D01*
X19166810Y-69761120D01*
X19235950Y-69761120D01*
X19303763Y-69774609D01*
G37*
G36*
X17303763Y-69774609D02*
G01*
X17303766Y-69774610D01*
X17303765Y-69774610D01*
X17367638Y-69801066D01*
X17425128Y-69839480D01*
X17474020Y-69888372D01*
X17512434Y-69945862D01*
X17534004Y-69997938D01*
X17538891Y-70009737D01*
X17552380Y-70077550D01*
X17552380Y-70146690D01*
X17538891Y-70214503D01*
X17538890Y-70214505D01*
X17512434Y-70278378D01*
X17474020Y-70335868D01*
X17425128Y-70384760D01*
X17367638Y-70423174D01*
X17318652Y-70443464D01*
X17303763Y-70449631D01*
X17235950Y-70463120D01*
X17166810Y-70463120D01*
X17098997Y-70449631D01*
X17084108Y-70443464D01*
X17035122Y-70423174D01*
X16977632Y-70384760D01*
X16928740Y-70335868D01*
X16890326Y-70278378D01*
X16863870Y-70214505D01*
X16863869Y-70214503D01*
X16850380Y-70146690D01*
X16850380Y-70077550D01*
X16863869Y-70009737D01*
X16868756Y-69997938D01*
X16890326Y-69945862D01*
X16928740Y-69888372D01*
X16977632Y-69839480D01*
X17035122Y-69801066D01*
X17098995Y-69774610D01*
X17098994Y-69774610D01*
X17098997Y-69774609D01*
X17166810Y-69761120D01*
X17235950Y-69761120D01*
X17303763Y-69774609D01*
G37*
G36*
X65485492Y-67805847D02*
G01*
X65634792Y-67835544D01*
X65798764Y-67903464D01*
X65946334Y-68002067D01*
X66071833Y-68127566D01*
X66170436Y-68275136D01*
X66238356Y-68439108D01*
X66272980Y-68613179D01*
X66272980Y-68790661D01*
X66238356Y-68964732D01*
X66170436Y-69128704D01*
X66071833Y-69276274D01*
X65946334Y-69401773D01*
X65798764Y-69500376D01*
X65634792Y-69568296D01*
X65485492Y-69597993D01*
X65460722Y-69602920D01*
X65283238Y-69602920D01*
X65258468Y-69597993D01*
X65109168Y-69568296D01*
X64945196Y-69500376D01*
X64797626Y-69401773D01*
X64672127Y-69276274D01*
X64573524Y-69128704D01*
X64505604Y-68964732D01*
X64470980Y-68790661D01*
X64470980Y-68613179D01*
X64505604Y-68439108D01*
X64573524Y-68275136D01*
X64672127Y-68127566D01*
X64797626Y-68002067D01*
X64945196Y-67903464D01*
X65109168Y-67835544D01*
X65258468Y-67805847D01*
X65283238Y-67800920D01*
X65460722Y-67800920D01*
X65485492Y-67805847D01*
G37*
G36*
X68025492Y-67805847D02*
G01*
X68174792Y-67835544D01*
X68338764Y-67903464D01*
X68486334Y-68002067D01*
X68611833Y-68127566D01*
X68710436Y-68275136D01*
X68778356Y-68439108D01*
X68812980Y-68613179D01*
X68812980Y-68790661D01*
X68778356Y-68964732D01*
X68710436Y-69128704D01*
X68611833Y-69276274D01*
X68486334Y-69401773D01*
X68338764Y-69500376D01*
X68174792Y-69568296D01*
X68025492Y-69597993D01*
X68000722Y-69602920D01*
X67823238Y-69602920D01*
X67798468Y-69597993D01*
X67649168Y-69568296D01*
X67485196Y-69500376D01*
X67337626Y-69401773D01*
X67212127Y-69276274D01*
X67113524Y-69128704D01*
X67045604Y-68964732D01*
X67010980Y-68790661D01*
X67010980Y-68613179D01*
X67045604Y-68439108D01*
X67113524Y-68275136D01*
X67212127Y-68127566D01*
X67337626Y-68002067D01*
X67485196Y-67903464D01*
X67649168Y-67835544D01*
X67798468Y-67805847D01*
X67823238Y-67800920D01*
X68000722Y-67800920D01*
X68025492Y-67805847D01*
G37*
G36*
X2251141Y-66480454D02*
G01*
X2351415Y-66521989D01*
X2351416Y-66521990D01*
X2441662Y-66582290D01*
X2518410Y-66659038D01*
X2518411Y-66659040D01*
X2578711Y-66749285D01*
X2620246Y-66849559D01*
X2641420Y-66956010D01*
X2641420Y-67064550D01*
X2620246Y-67171001D01*
X2578711Y-67271275D01*
X2578710Y-67271276D01*
X2518410Y-67361522D01*
X2441662Y-67438270D01*
X2409619Y-67459680D01*
X2351415Y-67498571D01*
X2251141Y-67540106D01*
X2144690Y-67561280D01*
X2036150Y-67561280D01*
X1929699Y-67540106D01*
X1829425Y-67498571D01*
X1771221Y-67459680D01*
X1739178Y-67438270D01*
X1662430Y-67361522D01*
X1602130Y-67271276D01*
X1602129Y-67271275D01*
X1560594Y-67171001D01*
X1539420Y-67064550D01*
X1539420Y-66956010D01*
X1560594Y-66849559D01*
X1602129Y-66749285D01*
X1662429Y-66659040D01*
X1662430Y-66659038D01*
X1739178Y-66582290D01*
X1829424Y-66521990D01*
X1829425Y-66521989D01*
X1929699Y-66480454D01*
X2036150Y-66459280D01*
X2144690Y-66459280D01*
X2251141Y-66480454D01*
G37*
G36*
X6071301Y-66378854D02*
G01*
X6171575Y-66420389D01*
X6216392Y-66450335D01*
X6261822Y-66480690D01*
X6338570Y-66557438D01*
X6338571Y-66557440D01*
X6398871Y-66647685D01*
X6440406Y-66747959D01*
X6461580Y-66854410D01*
X6461580Y-66962950D01*
X6440406Y-67069401D01*
X6398871Y-67169675D01*
X6398870Y-67169676D01*
X6338570Y-67259922D01*
X6261822Y-67336670D01*
X6224631Y-67361520D01*
X6171575Y-67396971D01*
X6071301Y-67438506D01*
X5964850Y-67459680D01*
X5856310Y-67459680D01*
X5749859Y-67438506D01*
X5649585Y-67396971D01*
X5596529Y-67361520D01*
X5559338Y-67336670D01*
X5482590Y-67259922D01*
X5422290Y-67169676D01*
X5422289Y-67169675D01*
X5380754Y-67069401D01*
X5359580Y-66962950D01*
X5359580Y-66854410D01*
X5380754Y-66747959D01*
X5422289Y-66647685D01*
X5482589Y-66557440D01*
X5482590Y-66557438D01*
X5559338Y-66480690D01*
X5604768Y-66450335D01*
X5649585Y-66420389D01*
X5749859Y-66378854D01*
X5856310Y-66357680D01*
X5964850Y-66357680D01*
X6071301Y-66378854D01*
G37*
G36*
X65485492Y-65265847D02*
G01*
X65634792Y-65295544D01*
X65798764Y-65363464D01*
X65946334Y-65462067D01*
X66071833Y-65587566D01*
X66170436Y-65735136D01*
X66238356Y-65899108D01*
X66272980Y-66073179D01*
X66272980Y-66250661D01*
X66238356Y-66424732D01*
X66170436Y-66588704D01*
X66071833Y-66736274D01*
X65946334Y-66861773D01*
X65798764Y-66960376D01*
X65634792Y-67028296D01*
X65485492Y-67057993D01*
X65460722Y-67062920D01*
X65283238Y-67062920D01*
X65258468Y-67057993D01*
X65109168Y-67028296D01*
X64945196Y-66960376D01*
X64797626Y-66861773D01*
X64672127Y-66736274D01*
X64573524Y-66588704D01*
X64505604Y-66424732D01*
X64470980Y-66250661D01*
X64470980Y-66073179D01*
X64505604Y-65899108D01*
X64573524Y-65735136D01*
X64672127Y-65587566D01*
X64797626Y-65462067D01*
X64945196Y-65363464D01*
X65109168Y-65295544D01*
X65258468Y-65265847D01*
X65283238Y-65260920D01*
X65460722Y-65260920D01*
X65485492Y-65265847D01*
G37*
G36*
X68025492Y-65265847D02*
G01*
X68174792Y-65295544D01*
X68338764Y-65363464D01*
X68486334Y-65462067D01*
X68611833Y-65587566D01*
X68710436Y-65735136D01*
X68778356Y-65899108D01*
X68812980Y-66073179D01*
X68812980Y-66250661D01*
X68778356Y-66424732D01*
X68710436Y-66588704D01*
X68611833Y-66736274D01*
X68486334Y-66861773D01*
X68338764Y-66960376D01*
X68174792Y-67028296D01*
X68025492Y-67057993D01*
X68000722Y-67062920D01*
X67823238Y-67062920D01*
X67798468Y-67057993D01*
X67649168Y-67028296D01*
X67485196Y-66960376D01*
X67337626Y-66861773D01*
X67212127Y-66736274D01*
X67113524Y-66588704D01*
X67045604Y-66424732D01*
X67010980Y-66250661D01*
X67010980Y-66073179D01*
X67045604Y-65899108D01*
X67113524Y-65735136D01*
X67212127Y-65587566D01*
X67337626Y-65462067D01*
X67485196Y-65363464D01*
X67649168Y-65295544D01*
X67798468Y-65265847D01*
X67823238Y-65260920D01*
X68000722Y-65260920D01*
X68025492Y-65265847D01*
G37*
G36*
X2251141Y-63940454D02*
G01*
X2351415Y-63981989D01*
X2351416Y-63981990D01*
X2441662Y-64042290D01*
X2518410Y-64119038D01*
X2518411Y-64119040D01*
X2578711Y-64209285D01*
X2620246Y-64309559D01*
X2641420Y-64416010D01*
X2641420Y-64524550D01*
X2620246Y-64631001D01*
X2578711Y-64731275D01*
X2565564Y-64750951D01*
X2518410Y-64821522D01*
X2441662Y-64898270D01*
X2396232Y-64928625D01*
X2351415Y-64958571D01*
X2251141Y-65000106D01*
X2144690Y-65021280D01*
X2036150Y-65021280D01*
X1929699Y-65000106D01*
X1829425Y-64958571D01*
X1784608Y-64928625D01*
X1739178Y-64898270D01*
X1662430Y-64821522D01*
X1615276Y-64750951D01*
X1602129Y-64731275D01*
X1560594Y-64631001D01*
X1539420Y-64524550D01*
X1539420Y-64416010D01*
X1560594Y-64309559D01*
X1602129Y-64209285D01*
X1662429Y-64119040D01*
X1662430Y-64119038D01*
X1739178Y-64042290D01*
X1829424Y-63981990D01*
X1829425Y-63981989D01*
X1929699Y-63940454D01*
X2036150Y-63919280D01*
X2144690Y-63919280D01*
X2251141Y-63940454D01*
G37*
G36*
X6071301Y-63793134D02*
G01*
X6171575Y-63834669D01*
X6171576Y-63834670D01*
X6261822Y-63894970D01*
X6338570Y-63971718D01*
X6338571Y-63971720D01*
X6398871Y-64061965D01*
X6440406Y-64162239D01*
X6461580Y-64268690D01*
X6461580Y-64377230D01*
X6440406Y-64483681D01*
X6398871Y-64583955D01*
X6398870Y-64583956D01*
X6338570Y-64674202D01*
X6261822Y-64750950D01*
X6216392Y-64781305D01*
X6171575Y-64811251D01*
X6071301Y-64852786D01*
X5964850Y-64873960D01*
X5856310Y-64873960D01*
X5749859Y-64852786D01*
X5649585Y-64811251D01*
X5604768Y-64781305D01*
X5559338Y-64750950D01*
X5482590Y-64674202D01*
X5422290Y-64583956D01*
X5422289Y-64583955D01*
X5380754Y-64483681D01*
X5359580Y-64377230D01*
X5359580Y-64268690D01*
X5380754Y-64162239D01*
X5422289Y-64061965D01*
X5482589Y-63971720D01*
X5482590Y-63971718D01*
X5559338Y-63894970D01*
X5649584Y-63834670D01*
X5649585Y-63834669D01*
X5749859Y-63793134D01*
X5856310Y-63771960D01*
X5964850Y-63771960D01*
X6071301Y-63793134D01*
G37*
G36*
X65485492Y-62725847D02*
G01*
X65634792Y-62755544D01*
X65798764Y-62823464D01*
X65946334Y-62922067D01*
X66071833Y-63047566D01*
X66170436Y-63195136D01*
X66238356Y-63359108D01*
X66272980Y-63533179D01*
X66272980Y-63710661D01*
X66238356Y-63884732D01*
X66170436Y-64048704D01*
X66071833Y-64196274D01*
X65946334Y-64321773D01*
X65798764Y-64420376D01*
X65634792Y-64488296D01*
X65485492Y-64517993D01*
X65460722Y-64522920D01*
X65283238Y-64522920D01*
X65258468Y-64517993D01*
X65109168Y-64488296D01*
X64945196Y-64420376D01*
X64797626Y-64321773D01*
X64672127Y-64196274D01*
X64573524Y-64048704D01*
X64505604Y-63884732D01*
X64470980Y-63710661D01*
X64470980Y-63533179D01*
X64505604Y-63359108D01*
X64573524Y-63195136D01*
X64672127Y-63047566D01*
X64797626Y-62922067D01*
X64945196Y-62823464D01*
X65109168Y-62755544D01*
X65258468Y-62725847D01*
X65283238Y-62720920D01*
X65460722Y-62720920D01*
X65485492Y-62725847D01*
G37*
G36*
X68025492Y-62725847D02*
G01*
X68174792Y-62755544D01*
X68338764Y-62823464D01*
X68486334Y-62922067D01*
X68611833Y-63047566D01*
X68710436Y-63195136D01*
X68778356Y-63359108D01*
X68812980Y-63533179D01*
X68812980Y-63710661D01*
X68778356Y-63884732D01*
X68710436Y-64048704D01*
X68611833Y-64196274D01*
X68486334Y-64321773D01*
X68338764Y-64420376D01*
X68174792Y-64488296D01*
X68025492Y-64517993D01*
X68000722Y-64522920D01*
X67823238Y-64522920D01*
X67798468Y-64517993D01*
X67649168Y-64488296D01*
X67485196Y-64420376D01*
X67337626Y-64321773D01*
X67212127Y-64196274D01*
X67113524Y-64048704D01*
X67045604Y-63884732D01*
X67010980Y-63710661D01*
X67010980Y-63533179D01*
X67045604Y-63359108D01*
X67113524Y-63195136D01*
X67212127Y-63047566D01*
X67337626Y-62922067D01*
X67485196Y-62823464D01*
X67649168Y-62755544D01*
X67798468Y-62725847D01*
X67823238Y-62720920D01*
X68000722Y-62720920D01*
X68025492Y-62725847D01*
G37*
G36*
X34982780Y-63879120D02*
G01*
X33680780Y-63879120D01*
X33680780Y-63177120D01*
X34982780Y-63177120D01*
X34982780Y-63879120D01*
G37*
G36*
X37982780Y-63879120D02*
G01*
X36680780Y-63879120D01*
X36680780Y-63177120D01*
X37982780Y-63177120D01*
X37982780Y-63879120D01*
G37*
G36*
X42501180Y-63269520D02*
G01*
X41199180Y-63269520D01*
X41199180Y-62567520D01*
X42501180Y-62567520D01*
X42501180Y-63269520D01*
G37*
G36*
X45501180Y-63269520D02*
G01*
X44199180Y-63269520D01*
X44199180Y-62567520D01*
X45501180Y-62567520D01*
X45501180Y-63269520D01*
G37*
G36*
X27515180Y-63218720D02*
G01*
X26213180Y-63218720D01*
X26213180Y-62516720D01*
X27515180Y-62516720D01*
X27515180Y-63218720D01*
G37*
G36*
X30515180Y-63218720D02*
G01*
X29213180Y-63218720D01*
X29213180Y-62516720D01*
X30515180Y-62516720D01*
X30515180Y-63218720D01*
G37*
G36*
X3078220Y-62857080D02*
G01*
X1976220Y-62857080D01*
X1976220Y-61055080D01*
X3078220Y-61055080D01*
X3078220Y-62857080D01*
G37*
G36*
X6878220Y-62857080D02*
G01*
X5776220Y-62857080D01*
X5776220Y-61055080D01*
X6878220Y-61055080D01*
X6878220Y-62857080D01*
G37*
G36*
X68025492Y-60185847D02*
G01*
X68174792Y-60215544D01*
X68338764Y-60283464D01*
X68486334Y-60382067D01*
X68611833Y-60507566D01*
X68710436Y-60655136D01*
X68778356Y-60819108D01*
X68812980Y-60993179D01*
X68812980Y-61170661D01*
X68778356Y-61344732D01*
X68710436Y-61508704D01*
X68611833Y-61656274D01*
X68486334Y-61781773D01*
X68338764Y-61880376D01*
X68174792Y-61948296D01*
X68025492Y-61977993D01*
X68000722Y-61982920D01*
X67823238Y-61982920D01*
X67798468Y-61977993D01*
X67649168Y-61948296D01*
X67485196Y-61880376D01*
X67337626Y-61781773D01*
X67212127Y-61656274D01*
X67113524Y-61508704D01*
X67045604Y-61344732D01*
X67010980Y-61170661D01*
X67010980Y-60993179D01*
X67045604Y-60819108D01*
X67113524Y-60655136D01*
X67212127Y-60507566D01*
X67337626Y-60382067D01*
X67485196Y-60283464D01*
X67649168Y-60215544D01*
X67798468Y-60185847D01*
X67823238Y-60180920D01*
X68000722Y-60180920D01*
X68025492Y-60185847D01*
G37*
G36*
X65485492Y-60185847D02*
G01*
X65634792Y-60215544D01*
X65798764Y-60283464D01*
X65946334Y-60382067D01*
X66071833Y-60507566D01*
X66170436Y-60655136D01*
X66238356Y-60819108D01*
X66272980Y-60993179D01*
X66272980Y-61170661D01*
X66238356Y-61344732D01*
X66170436Y-61508704D01*
X66071833Y-61656274D01*
X65946334Y-61781773D01*
X65798764Y-61880376D01*
X65634792Y-61948296D01*
X65485492Y-61977993D01*
X65460722Y-61982920D01*
X65283238Y-61982920D01*
X65258468Y-61977993D01*
X65109168Y-61948296D01*
X64945196Y-61880376D01*
X64797626Y-61781773D01*
X64672127Y-61656274D01*
X64573524Y-61508704D01*
X64505604Y-61344732D01*
X64470980Y-61170661D01*
X64470980Y-60993179D01*
X64505604Y-60819108D01*
X64573524Y-60655136D01*
X64672127Y-60507566D01*
X64797626Y-60382067D01*
X64945196Y-60283464D01*
X65109168Y-60215544D01*
X65258468Y-60185847D01*
X65283238Y-60180920D01*
X65460722Y-60180920D01*
X65485492Y-60185847D01*
G37*
G36*
X37982780Y-61679120D02*
G01*
X36680780Y-61679120D01*
X36680780Y-60977120D01*
X37982780Y-60977120D01*
X37982780Y-61679120D01*
G37*
G36*
X34982780Y-61679120D02*
G01*
X33680780Y-61679120D01*
X33680780Y-60977120D01*
X34982780Y-60977120D01*
X34982780Y-61679120D01*
G37*
G36*
X42501180Y-61069520D02*
G01*
X41199180Y-61069520D01*
X41199180Y-60367520D01*
X42501180Y-60367520D01*
X42501180Y-61069520D01*
G37*
G36*
X45501180Y-61069520D02*
G01*
X44199180Y-61069520D01*
X44199180Y-60367520D01*
X45501180Y-60367520D01*
X45501180Y-61069520D01*
G37*
G36*
X30515180Y-61018720D02*
G01*
X29213180Y-61018720D01*
X29213180Y-60316720D01*
X30515180Y-60316720D01*
X30515180Y-61018720D01*
G37*
G36*
X27515180Y-61018720D02*
G01*
X26213180Y-61018720D01*
X26213180Y-60316720D01*
X27515180Y-60316720D01*
X27515180Y-61018720D01*
G37*
G36*
X12206452Y-58341807D02*
G01*
X12355752Y-58371504D01*
X12519724Y-58439424D01*
X12667294Y-58538027D01*
X12792793Y-58663526D01*
X12891396Y-58811096D01*
X12959316Y-58975068D01*
X12993940Y-59149139D01*
X12993940Y-59326621D01*
X12959316Y-59500692D01*
X12891396Y-59664664D01*
X12792793Y-59812234D01*
X12667294Y-59937733D01*
X12519724Y-60036336D01*
X12355752Y-60104256D01*
X12206452Y-60133953D01*
X12181682Y-60138880D01*
X12004198Y-60138880D01*
X11979428Y-60133953D01*
X11830128Y-60104256D01*
X11666156Y-60036336D01*
X11518586Y-59937733D01*
X11393087Y-59812234D01*
X11294484Y-59664664D01*
X11226564Y-59500692D01*
X11191940Y-59326621D01*
X11191940Y-59149139D01*
X11226564Y-58975068D01*
X11294484Y-58811096D01*
X11393087Y-58663526D01*
X11518586Y-58538027D01*
X11666156Y-58439424D01*
X11830128Y-58371504D01*
X11979428Y-58341807D01*
X12004198Y-58336880D01*
X12181682Y-58336880D01*
X12206452Y-58341807D01*
G37*
G36*
X9666452Y-58341807D02*
G01*
X9815752Y-58371504D01*
X9979724Y-58439424D01*
X10127294Y-58538027D01*
X10252793Y-58663526D01*
X10351396Y-58811096D01*
X10419316Y-58975068D01*
X10453940Y-59149139D01*
X10453940Y-59326621D01*
X10419316Y-59500692D01*
X10351396Y-59664664D01*
X10252793Y-59812234D01*
X10127294Y-59937733D01*
X9979724Y-60036336D01*
X9815752Y-60104256D01*
X9666452Y-60133953D01*
X9641682Y-60138880D01*
X9464198Y-60138880D01*
X9439428Y-60133953D01*
X9290128Y-60104256D01*
X9126156Y-60036336D01*
X8978586Y-59937733D01*
X8853087Y-59812234D01*
X8754484Y-59664664D01*
X8686564Y-59500692D01*
X8651940Y-59326621D01*
X8651940Y-59149139D01*
X8686564Y-58975068D01*
X8754484Y-58811096D01*
X8853087Y-58663526D01*
X8978586Y-58538027D01*
X9126156Y-58439424D01*
X9290128Y-58371504D01*
X9439428Y-58341807D01*
X9464198Y-58336880D01*
X9641682Y-58336880D01*
X9666452Y-58341807D01*
G37*
G36*
X68025492Y-57645847D02*
G01*
X68174792Y-57675544D01*
X68338764Y-57743464D01*
X68486334Y-57842067D01*
X68611833Y-57967566D01*
X68710436Y-58115136D01*
X68778356Y-58279108D01*
X68812980Y-58453179D01*
X68812980Y-58630661D01*
X68778356Y-58804732D01*
X68710436Y-58968704D01*
X68611833Y-59116274D01*
X68486334Y-59241773D01*
X68338764Y-59340376D01*
X68174792Y-59408296D01*
X68025492Y-59437993D01*
X68000722Y-59442920D01*
X67823238Y-59442920D01*
X67798468Y-59437993D01*
X67649168Y-59408296D01*
X67485196Y-59340376D01*
X67337626Y-59241773D01*
X67212127Y-59116274D01*
X67113524Y-58968704D01*
X67045604Y-58804732D01*
X67010980Y-58630661D01*
X67010980Y-58453179D01*
X67045604Y-58279108D01*
X67113524Y-58115136D01*
X67212127Y-57967566D01*
X67337626Y-57842067D01*
X67485196Y-57743464D01*
X67649168Y-57675544D01*
X67798468Y-57645847D01*
X67823238Y-57640920D01*
X68000722Y-57640920D01*
X68025492Y-57645847D01*
G37*
G36*
X66272980Y-59442920D02*
G01*
X64470980Y-59442920D01*
X64470980Y-57640920D01*
X66272980Y-57640920D01*
X66272980Y-59442920D01*
G37*
G36*
X9666452Y-55801807D02*
G01*
X9815752Y-55831504D01*
X9979724Y-55899424D01*
X10127294Y-55998027D01*
X10252793Y-56123526D01*
X10351396Y-56271096D01*
X10419316Y-56435068D01*
X10453940Y-56609139D01*
X10453940Y-56786621D01*
X10419316Y-56960692D01*
X10351396Y-57124664D01*
X10252793Y-57272234D01*
X10127294Y-57397733D01*
X9979724Y-57496336D01*
X9815752Y-57564256D01*
X9666452Y-57593953D01*
X9641682Y-57598880D01*
X9464198Y-57598880D01*
X9439428Y-57593953D01*
X9290128Y-57564256D01*
X9126156Y-57496336D01*
X8978586Y-57397733D01*
X8853087Y-57272234D01*
X8754484Y-57124664D01*
X8686564Y-56960692D01*
X8651940Y-56786621D01*
X8651940Y-56609139D01*
X8686564Y-56435068D01*
X8754484Y-56271096D01*
X8853087Y-56123526D01*
X8978586Y-55998027D01*
X9126156Y-55899424D01*
X9290128Y-55831504D01*
X9439428Y-55801807D01*
X9464198Y-55796880D01*
X9641682Y-55796880D01*
X9666452Y-55801807D01*
G37*
G36*
X12206452Y-55801807D02*
G01*
X12355752Y-55831504D01*
X12519724Y-55899424D01*
X12667294Y-55998027D01*
X12792793Y-56123526D01*
X12891396Y-56271096D01*
X12959316Y-56435068D01*
X12993940Y-56609139D01*
X12993940Y-56786621D01*
X12959316Y-56960692D01*
X12891396Y-57124664D01*
X12792793Y-57272234D01*
X12667294Y-57397733D01*
X12519724Y-57496336D01*
X12355752Y-57564256D01*
X12206452Y-57593953D01*
X12181682Y-57598880D01*
X12004198Y-57598880D01*
X11979428Y-57593953D01*
X11830128Y-57564256D01*
X11666156Y-57496336D01*
X11518586Y-57397733D01*
X11393087Y-57272234D01*
X11294484Y-57124664D01*
X11226564Y-56960692D01*
X11191940Y-56786621D01*
X11191940Y-56609139D01*
X11226564Y-56435068D01*
X11294484Y-56271096D01*
X11393087Y-56123526D01*
X11518586Y-55998027D01*
X11666156Y-55899424D01*
X11830128Y-55831504D01*
X11979428Y-55801807D01*
X12004198Y-55796880D01*
X12181682Y-55796880D01*
X12206452Y-55801807D01*
G37*
G36*
X23095580Y-57173520D02*
G01*
X21793580Y-57173520D01*
X21793580Y-56471520D01*
X23095580Y-56471520D01*
X23095580Y-57173520D01*
G37*
G36*
X26095580Y-57173520D02*
G01*
X24793580Y-57173520D01*
X24793580Y-56471520D01*
X26095580Y-56471520D01*
X26095580Y-57173520D01*
G37*
G36*
X49869980Y-57071920D02*
G01*
X48567980Y-57071920D01*
X48567980Y-56369920D01*
X49869980Y-56369920D01*
X49869980Y-57071920D01*
G37*
G36*
X46869980Y-57071920D02*
G01*
X45567980Y-57071920D01*
X45567980Y-56369920D01*
X46869980Y-56369920D01*
X46869980Y-57071920D01*
G37*
G36*
X6878220Y-56557080D02*
G01*
X5776220Y-56557080D01*
X5776220Y-54755080D01*
X6878220Y-54755080D01*
X6878220Y-56557080D01*
G37*
G36*
X3078220Y-56557080D02*
G01*
X1976220Y-56557080D01*
X1976220Y-54755080D01*
X3078220Y-54755080D01*
X3078220Y-56557080D01*
G37*
G36*
X9666452Y-53261807D02*
G01*
X9815752Y-53291504D01*
X9979724Y-53359424D01*
X10127294Y-53458027D01*
X10252793Y-53583526D01*
X10351396Y-53731096D01*
X10419316Y-53895068D01*
X10453940Y-54069139D01*
X10453940Y-54246621D01*
X10419316Y-54420692D01*
X10351396Y-54584664D01*
X10252793Y-54732234D01*
X10127294Y-54857733D01*
X9979724Y-54956336D01*
X9815752Y-55024256D01*
X9666452Y-55053953D01*
X9641682Y-55058880D01*
X9464198Y-55058880D01*
X9439428Y-55053953D01*
X9290128Y-55024256D01*
X9126156Y-54956336D01*
X8978586Y-54857733D01*
X8853087Y-54732234D01*
X8754484Y-54584664D01*
X8686564Y-54420692D01*
X8651940Y-54246621D01*
X8651940Y-54069139D01*
X8686564Y-53895068D01*
X8754484Y-53731096D01*
X8853087Y-53583526D01*
X8978586Y-53458027D01*
X9126156Y-53359424D01*
X9290128Y-53291504D01*
X9439428Y-53261807D01*
X9464198Y-53256880D01*
X9641682Y-53256880D01*
X9666452Y-53261807D01*
G37*
G36*
X12206452Y-53261807D02*
G01*
X12355752Y-53291504D01*
X12519724Y-53359424D01*
X12667294Y-53458027D01*
X12792793Y-53583526D01*
X12891396Y-53731096D01*
X12959316Y-53895068D01*
X12993940Y-54069139D01*
X12993940Y-54246621D01*
X12959316Y-54420692D01*
X12891396Y-54584664D01*
X12792793Y-54732234D01*
X12667294Y-54857733D01*
X12519724Y-54956336D01*
X12355752Y-55024256D01*
X12206452Y-55053953D01*
X12181682Y-55058880D01*
X12004198Y-55058880D01*
X11979428Y-55053953D01*
X11830128Y-55024256D01*
X11666156Y-54956336D01*
X11518586Y-54857733D01*
X11393087Y-54732234D01*
X11294484Y-54584664D01*
X11226564Y-54420692D01*
X11191940Y-54246621D01*
X11191940Y-54069139D01*
X11226564Y-53895068D01*
X11294484Y-53731096D01*
X11393087Y-53583526D01*
X11518586Y-53458027D01*
X11666156Y-53359424D01*
X11830128Y-53291504D01*
X11979428Y-53261807D01*
X12004198Y-53256880D01*
X12181682Y-53256880D01*
X12206452Y-53261807D01*
G37*
G36*
X26095580Y-54973520D02*
G01*
X24793580Y-54973520D01*
X24793580Y-54271520D01*
X26095580Y-54271520D01*
X26095580Y-54973520D01*
G37*
G36*
X23095580Y-54973520D02*
G01*
X21793580Y-54973520D01*
X21793580Y-54271520D01*
X23095580Y-54271520D01*
X23095580Y-54973520D01*
G37*
G36*
X49869980Y-54871920D02*
G01*
X48567980Y-54871920D01*
X48567980Y-54169920D01*
X49869980Y-54169920D01*
X49869980Y-54871920D01*
G37*
G36*
X46869980Y-54871920D02*
G01*
X45567980Y-54871920D01*
X45567980Y-54169920D01*
X46869980Y-54169920D01*
X46869980Y-54871920D01*
G37*
G36*
X9666452Y-50721807D02*
G01*
X9815752Y-50751504D01*
X9979724Y-50819424D01*
X10127294Y-50918027D01*
X10252793Y-51043526D01*
X10351396Y-51191096D01*
X10419316Y-51355068D01*
X10453940Y-51529139D01*
X10453940Y-51706621D01*
X10419316Y-51880692D01*
X10351396Y-52044664D01*
X10252793Y-52192234D01*
X10127294Y-52317733D01*
X9979724Y-52416336D01*
X9815752Y-52484256D01*
X9666452Y-52513953D01*
X9641682Y-52518880D01*
X9464198Y-52518880D01*
X9439428Y-52513953D01*
X9290128Y-52484256D01*
X9126156Y-52416336D01*
X8978586Y-52317733D01*
X8853087Y-52192234D01*
X8754484Y-52044664D01*
X8686564Y-51880692D01*
X8651940Y-51706621D01*
X8651940Y-51529139D01*
X8686564Y-51355068D01*
X8754484Y-51191096D01*
X8853087Y-51043526D01*
X8978586Y-50918027D01*
X9126156Y-50819424D01*
X9290128Y-50751504D01*
X9439428Y-50721807D01*
X9464198Y-50716880D01*
X9641682Y-50716880D01*
X9666452Y-50721807D01*
G37*
G36*
X12206452Y-50721807D02*
G01*
X12355752Y-50751504D01*
X12519724Y-50819424D01*
X12667294Y-50918027D01*
X12792793Y-51043526D01*
X12891396Y-51191096D01*
X12959316Y-51355068D01*
X12993940Y-51529139D01*
X12993940Y-51706621D01*
X12959316Y-51880692D01*
X12891396Y-52044664D01*
X12792793Y-52192234D01*
X12667294Y-52317733D01*
X12519724Y-52416336D01*
X12355752Y-52484256D01*
X12206452Y-52513953D01*
X12181682Y-52518880D01*
X12004198Y-52518880D01*
X11979428Y-52513953D01*
X11830128Y-52484256D01*
X11666156Y-52416336D01*
X11518586Y-52317733D01*
X11393087Y-52192234D01*
X11294484Y-52044664D01*
X11226564Y-51880692D01*
X11191940Y-51706621D01*
X11191940Y-51529139D01*
X11226564Y-51355068D01*
X11294484Y-51191096D01*
X11393087Y-51043526D01*
X11518586Y-50918027D01*
X11666156Y-50819424D01*
X11830128Y-50751504D01*
X11979428Y-50721807D01*
X12004198Y-50716880D01*
X12181682Y-50716880D01*
X12206452Y-50721807D01*
G37*
G36*
X2124141Y-51265854D02*
G01*
X2224415Y-51307389D01*
X2224416Y-51307390D01*
X2314662Y-51367690D01*
X2391410Y-51444438D01*
X2391411Y-51444440D01*
X2451711Y-51534685D01*
X2493246Y-51634959D01*
X2514420Y-51741410D01*
X2514420Y-51849950D01*
X2493246Y-51956401D01*
X2451711Y-52056675D01*
X2451710Y-52056676D01*
X2391410Y-52146922D01*
X2314662Y-52223670D01*
X2269232Y-52254025D01*
X2224415Y-52283971D01*
X2124141Y-52325506D01*
X2017690Y-52346680D01*
X1909150Y-52346680D01*
X1802699Y-52325506D01*
X1702425Y-52283971D01*
X1657608Y-52254025D01*
X1612178Y-52223670D01*
X1535430Y-52146922D01*
X1475130Y-52056676D01*
X1475129Y-52056675D01*
X1433594Y-51956401D01*
X1412420Y-51849950D01*
X1412420Y-51741410D01*
X1433594Y-51634959D01*
X1475129Y-51534685D01*
X1535429Y-51444440D01*
X1535430Y-51444438D01*
X1612178Y-51367690D01*
X1702424Y-51307390D01*
X1702425Y-51307389D01*
X1802699Y-51265854D01*
X1909150Y-51244680D01*
X2017690Y-51244680D01*
X2124141Y-51265854D01*
G37*
G36*
X5944301Y-51250614D02*
G01*
X6044575Y-51292149D01*
X6089392Y-51322095D01*
X6134822Y-51352450D01*
X6211570Y-51429198D01*
X6211571Y-51429200D01*
X6271871Y-51519445D01*
X6313406Y-51619719D01*
X6334580Y-51726170D01*
X6334580Y-51834710D01*
X6313406Y-51941161D01*
X6271871Y-52041435D01*
X6269713Y-52044664D01*
X6211570Y-52131682D01*
X6134822Y-52208430D01*
X6112012Y-52223671D01*
X6044575Y-52268731D01*
X5944301Y-52310266D01*
X5837850Y-52331440D01*
X5729310Y-52331440D01*
X5622859Y-52310266D01*
X5522585Y-52268731D01*
X5455148Y-52223671D01*
X5432338Y-52208430D01*
X5355590Y-52131682D01*
X5297447Y-52044664D01*
X5295289Y-52041435D01*
X5253754Y-51941161D01*
X5232580Y-51834710D01*
X5232580Y-51726170D01*
X5253754Y-51619719D01*
X5295289Y-51519445D01*
X5355589Y-51429200D01*
X5355590Y-51429198D01*
X5432338Y-51352450D01*
X5477768Y-51322095D01*
X5522585Y-51292149D01*
X5622859Y-51250614D01*
X5729310Y-51229440D01*
X5837850Y-51229440D01*
X5944301Y-51250614D01*
G37*
G36*
X66510040Y-50370060D02*
G01*
X62908040Y-50370060D01*
X62908040Y-48268060D01*
X66510040Y-48268060D01*
X66510040Y-50370060D01*
G37*
G36*
X22996780Y-50315520D02*
G01*
X21694780Y-50315520D01*
X21694780Y-49613520D01*
X22996780Y-49613520D01*
X22996780Y-50315520D01*
G37*
G36*
X19996780Y-50315520D02*
G01*
X18694780Y-50315520D01*
X18694780Y-49613520D01*
X19996780Y-49613520D01*
X19996780Y-50315520D01*
G37*
G36*
X49968780Y-50264720D02*
G01*
X48666780Y-50264720D01*
X48666780Y-49562720D01*
X49968780Y-49562720D01*
X49968780Y-50264720D01*
G37*
G36*
X52968780Y-50264720D02*
G01*
X51666780Y-50264720D01*
X51666780Y-49562720D01*
X52968780Y-49562720D01*
X52968780Y-50264720D01*
G37*
G36*
X12206452Y-48181807D02*
G01*
X12355752Y-48211504D01*
X12519724Y-48279424D01*
X12667294Y-48378027D01*
X12792793Y-48503526D01*
X12891396Y-48651096D01*
X12959316Y-48815068D01*
X12982918Y-48933725D01*
X12991756Y-48978156D01*
X12993940Y-48989139D01*
X12993940Y-49166621D01*
X12959316Y-49340692D01*
X12891396Y-49504664D01*
X12792793Y-49652234D01*
X12667294Y-49777733D01*
X12519724Y-49876336D01*
X12355752Y-49944256D01*
X12206452Y-49973953D01*
X12181682Y-49978880D01*
X12004198Y-49978880D01*
X11979428Y-49973953D01*
X11830128Y-49944256D01*
X11666156Y-49876336D01*
X11518586Y-49777733D01*
X11393087Y-49652234D01*
X11294484Y-49504664D01*
X11226564Y-49340692D01*
X11191940Y-49166621D01*
X11191940Y-48989139D01*
X11194125Y-48978156D01*
X11202962Y-48933725D01*
X11226564Y-48815068D01*
X11294484Y-48651096D01*
X11393087Y-48503526D01*
X11518586Y-48378027D01*
X11666156Y-48279424D01*
X11830128Y-48211504D01*
X11979428Y-48181807D01*
X12004198Y-48176880D01*
X12181682Y-48176880D01*
X12206452Y-48181807D01*
G37*
G36*
X9666452Y-48181807D02*
G01*
X9815752Y-48211504D01*
X9979724Y-48279424D01*
X10127294Y-48378027D01*
X10252793Y-48503526D01*
X10351396Y-48651096D01*
X10419316Y-48815068D01*
X10442918Y-48933725D01*
X10451756Y-48978156D01*
X10453940Y-48989139D01*
X10453940Y-49166621D01*
X10419316Y-49340692D01*
X10351396Y-49504664D01*
X10252793Y-49652234D01*
X10127294Y-49777733D01*
X9979724Y-49876336D01*
X9815752Y-49944256D01*
X9666452Y-49973953D01*
X9641682Y-49978880D01*
X9464198Y-49978880D01*
X9439428Y-49973953D01*
X9290128Y-49944256D01*
X9126156Y-49876336D01*
X8978586Y-49777733D01*
X8853087Y-49652234D01*
X8754484Y-49504664D01*
X8686564Y-49340692D01*
X8651940Y-49166621D01*
X8651940Y-48989139D01*
X8654125Y-48978156D01*
X8662962Y-48933725D01*
X8686564Y-48815068D01*
X8754484Y-48651096D01*
X8853087Y-48503526D01*
X8978586Y-48378027D01*
X9126156Y-48279424D01*
X9290128Y-48211504D01*
X9439428Y-48181807D01*
X9464198Y-48176880D01*
X9641682Y-48176880D01*
X9666452Y-48181807D01*
G37*
G36*
X2124141Y-48695374D02*
G01*
X2224415Y-48736909D01*
X2224416Y-48736910D01*
X2314662Y-48797210D01*
X2391410Y-48873958D01*
X2421765Y-48919388D01*
X2451711Y-48964205D01*
X2493246Y-49064479D01*
X2514420Y-49170930D01*
X2514420Y-49279470D01*
X2493246Y-49385921D01*
X2451711Y-49486195D01*
X2451710Y-49486196D01*
X2391410Y-49576442D01*
X2314662Y-49653190D01*
X2270033Y-49683010D01*
X2224415Y-49713491D01*
X2124141Y-49755026D01*
X2017690Y-49776200D01*
X1909150Y-49776200D01*
X1802699Y-49755026D01*
X1702425Y-49713491D01*
X1656807Y-49683010D01*
X1612178Y-49653190D01*
X1535430Y-49576442D01*
X1475130Y-49486196D01*
X1475129Y-49486195D01*
X1433594Y-49385921D01*
X1412420Y-49279470D01*
X1412420Y-49170930D01*
X1433594Y-49064479D01*
X1475129Y-48964205D01*
X1505075Y-48919388D01*
X1535430Y-48873958D01*
X1612178Y-48797210D01*
X1702424Y-48736910D01*
X1702425Y-48736909D01*
X1802699Y-48695374D01*
X1909150Y-48674200D01*
X2017690Y-48674200D01*
X2124141Y-48695374D01*
G37*
G36*
X5944301Y-48664894D02*
G01*
X6044575Y-48706429D01*
X6044576Y-48706430D01*
X6134822Y-48766730D01*
X6211570Y-48843478D01*
X6211571Y-48843480D01*
X6271871Y-48933725D01*
X6313406Y-49033999D01*
X6334580Y-49140450D01*
X6334580Y-49248990D01*
X6313406Y-49355441D01*
X6271871Y-49455715D01*
X6271870Y-49455716D01*
X6211570Y-49545962D01*
X6134822Y-49622710D01*
X6090637Y-49652233D01*
X6044575Y-49683011D01*
X5944301Y-49724546D01*
X5837850Y-49745720D01*
X5729310Y-49745720D01*
X5622859Y-49724546D01*
X5522585Y-49683011D01*
X5476523Y-49652233D01*
X5432338Y-49622710D01*
X5355590Y-49545962D01*
X5295290Y-49455716D01*
X5295289Y-49455715D01*
X5253754Y-49355441D01*
X5232580Y-49248990D01*
X5232580Y-49140450D01*
X5253754Y-49033999D01*
X5295289Y-48933725D01*
X5355589Y-48843480D01*
X5355590Y-48843478D01*
X5432338Y-48766730D01*
X5522584Y-48706430D01*
X5522585Y-48706429D01*
X5622859Y-48664894D01*
X5729310Y-48643720D01*
X5837850Y-48643720D01*
X5944301Y-48664894D01*
G37*
G36*
X68417124Y-42628030D02*
G01*
X68508562Y-42655767D01*
X68592821Y-42700805D01*
X68666681Y-42761419D01*
X68727295Y-42835279D01*
X68772333Y-42919538D01*
X68800070Y-43010976D01*
X68810040Y-43112200D01*
X68810040Y-45506168D01*
X68812442Y-45530554D01*
X68819555Y-45554003D01*
X68831106Y-45575614D01*
X68846651Y-45594556D01*
X68865593Y-45610101D01*
X68887204Y-45621652D01*
X68910653Y-45628765D01*
X68935039Y-45631167D01*
X68959425Y-45628765D01*
X68982874Y-45621652D01*
X69004485Y-45610101D01*
X69023427Y-45594556D01*
X69031665Y-45585466D01*
X69051399Y-45561419D01*
X69125259Y-45500805D01*
X69209518Y-45455767D01*
X69300956Y-45428030D01*
X69402180Y-45418060D01*
X70615900Y-45418060D01*
X70717124Y-45428030D01*
X70808562Y-45455767D01*
X70892821Y-45500805D01*
X70966681Y-45561419D01*
X71027295Y-45635279D01*
X71072333Y-45719538D01*
X71100070Y-45810976D01*
X71110040Y-45912200D01*
X71110040Y-48525920D01*
X71100070Y-48627144D01*
X71072333Y-48718582D01*
X71027295Y-48802841D01*
X70966681Y-48876701D01*
X70892821Y-48937315D01*
X70808562Y-48982353D01*
X70717124Y-49010090D01*
X70615900Y-49020060D01*
X69402180Y-49020060D01*
X69300956Y-49010090D01*
X69209518Y-48982353D01*
X69125259Y-48937315D01*
X69051399Y-48876701D01*
X68990785Y-48802841D01*
X68945747Y-48718582D01*
X68918010Y-48627144D01*
X68908040Y-48525920D01*
X68908040Y-46131952D01*
X68905638Y-46107566D01*
X68898525Y-46084117D01*
X68886974Y-46062506D01*
X68871429Y-46043564D01*
X68852487Y-46028019D01*
X68830876Y-46016468D01*
X68807427Y-46009355D01*
X68783041Y-46006953D01*
X68758655Y-46009355D01*
X68735206Y-46016468D01*
X68713595Y-46028019D01*
X68694653Y-46043564D01*
X68686415Y-46052654D01*
X68666681Y-46076701D01*
X68592821Y-46137315D01*
X68508562Y-46182353D01*
X68417124Y-46210090D01*
X68315900Y-46220060D01*
X67102180Y-46220060D01*
X67000956Y-46210090D01*
X66909518Y-46182353D01*
X66825259Y-46137315D01*
X66751399Y-46076701D01*
X66690785Y-46002841D01*
X66645747Y-45918582D01*
X66618010Y-45827144D01*
X66608040Y-45725920D01*
X66608040Y-43112200D01*
X66618010Y-43010976D01*
X66645747Y-42919538D01*
X66690785Y-42835279D01*
X66751399Y-42761419D01*
X66825259Y-42700805D01*
X66909518Y-42655767D01*
X67000956Y-42628030D01*
X67102180Y-42618060D01*
X68315900Y-42618060D01*
X68417124Y-42628030D01*
G37*
G36*
X22996780Y-48115520D02*
G01*
X21694780Y-48115520D01*
X21694780Y-47413520D01*
X22996780Y-47413520D01*
X22996780Y-48115520D01*
G37*
G36*
X19996780Y-48115520D02*
G01*
X18694780Y-48115520D01*
X18694780Y-47413520D01*
X19996780Y-47413520D01*
X19996780Y-48115520D01*
G37*
G36*
X49968780Y-48064720D02*
G01*
X48666780Y-48064720D01*
X48666780Y-47362720D01*
X49968780Y-47362720D01*
X49968780Y-48064720D01*
G37*
G36*
X52968780Y-48064720D02*
G01*
X51666780Y-48064720D01*
X51666780Y-47362720D01*
X52968780Y-47362720D01*
X52968780Y-48064720D01*
G37*
G36*
X9666452Y-45641807D02*
G01*
X9815752Y-45671504D01*
X9979724Y-45739424D01*
X10127294Y-45838027D01*
X10252793Y-45963526D01*
X10351396Y-46111096D01*
X10419316Y-46275068D01*
X10453940Y-46449139D01*
X10453940Y-46626621D01*
X10419316Y-46800692D01*
X10351396Y-46964664D01*
X10252793Y-47112234D01*
X10127294Y-47237733D01*
X9979724Y-47336336D01*
X9815752Y-47404256D01*
X9666452Y-47433953D01*
X9641682Y-47438880D01*
X9464198Y-47438880D01*
X9439428Y-47433953D01*
X9290128Y-47404256D01*
X9126156Y-47336336D01*
X8978586Y-47237733D01*
X8853087Y-47112234D01*
X8754484Y-46964664D01*
X8686564Y-46800692D01*
X8651940Y-46626621D01*
X8651940Y-46449139D01*
X8686564Y-46275068D01*
X8754484Y-46111096D01*
X8853087Y-45963526D01*
X8978586Y-45838027D01*
X9126156Y-45739424D01*
X9290128Y-45671504D01*
X9439428Y-45641807D01*
X9464198Y-45636880D01*
X9641682Y-45636880D01*
X9666452Y-45641807D01*
G37*
G36*
X12206452Y-45641807D02*
G01*
X12355752Y-45671504D01*
X12519724Y-45739424D01*
X12667294Y-45838027D01*
X12792793Y-45963526D01*
X12891396Y-46111096D01*
X12959316Y-46275068D01*
X12993940Y-46449139D01*
X12993940Y-46626621D01*
X12959316Y-46800692D01*
X12891396Y-46964664D01*
X12792793Y-47112234D01*
X12667294Y-47237733D01*
X12519724Y-47336336D01*
X12355752Y-47404256D01*
X12206452Y-47433953D01*
X12181682Y-47438880D01*
X12004198Y-47438880D01*
X11979428Y-47433953D01*
X11830128Y-47404256D01*
X11666156Y-47336336D01*
X11518586Y-47237733D01*
X11393087Y-47112234D01*
X11294484Y-46964664D01*
X11226564Y-46800692D01*
X11191940Y-46626621D01*
X11191940Y-46449139D01*
X11226564Y-46275068D01*
X11294484Y-46111096D01*
X11393087Y-45963526D01*
X11518586Y-45838027D01*
X11666156Y-45739424D01*
X11830128Y-45671504D01*
X11979428Y-45641807D01*
X12004198Y-45636880D01*
X12181682Y-45636880D01*
X12206452Y-45641807D01*
G37*
G36*
X2124141Y-46196014D02*
G01*
X2224415Y-46237549D01*
X2224416Y-46237550D01*
X2314662Y-46297850D01*
X2391410Y-46374598D01*
X2391411Y-46374600D01*
X2451711Y-46464845D01*
X2493246Y-46565119D01*
X2514420Y-46671570D01*
X2514420Y-46780110D01*
X2493246Y-46886561D01*
X2451711Y-46986835D01*
X2451710Y-46986836D01*
X2391410Y-47077082D01*
X2314662Y-47153830D01*
X2269232Y-47184185D01*
X2224415Y-47214131D01*
X2124141Y-47255666D01*
X2017690Y-47276840D01*
X1909150Y-47276840D01*
X1802699Y-47255666D01*
X1702425Y-47214131D01*
X1657608Y-47184185D01*
X1612178Y-47153830D01*
X1535430Y-47077082D01*
X1475130Y-46986836D01*
X1475129Y-46986835D01*
X1433594Y-46886561D01*
X1412420Y-46780110D01*
X1412420Y-46671570D01*
X1433594Y-46565119D01*
X1475129Y-46464845D01*
X1535429Y-46374600D01*
X1535430Y-46374598D01*
X1612178Y-46297850D01*
X1702424Y-46237550D01*
X1702425Y-46237549D01*
X1802699Y-46196014D01*
X1909150Y-46174840D01*
X2017690Y-46174840D01*
X2124141Y-46196014D01*
G37*
G36*
X5944301Y-46079174D02*
G01*
X6044575Y-46120709D01*
X6089392Y-46150655D01*
X6134822Y-46181010D01*
X6211570Y-46257758D01*
X6211571Y-46257760D01*
X6271871Y-46348005D01*
X6313406Y-46448279D01*
X6334580Y-46554730D01*
X6334580Y-46663270D01*
X6313406Y-46769721D01*
X6271871Y-46869995D01*
X6271870Y-46869996D01*
X6211570Y-46960242D01*
X6134822Y-47036990D01*
X6089392Y-47067345D01*
X6044575Y-47097291D01*
X5944301Y-47138826D01*
X5837850Y-47160000D01*
X5729310Y-47160000D01*
X5622859Y-47138826D01*
X5522585Y-47097291D01*
X5477768Y-47067345D01*
X5432338Y-47036990D01*
X5355590Y-46960242D01*
X5295290Y-46869996D01*
X5295289Y-46869995D01*
X5253754Y-46769721D01*
X5232580Y-46663270D01*
X5232580Y-46554730D01*
X5253754Y-46448279D01*
X5295289Y-46348005D01*
X5355589Y-46257760D01*
X5355590Y-46257758D01*
X5432338Y-46181010D01*
X5477768Y-46150655D01*
X5522585Y-46120709D01*
X5622859Y-46079174D01*
X5729310Y-46058000D01*
X5837850Y-46058000D01*
X5944301Y-46079174D01*
G37*
G36*
X12206452Y-43101807D02*
G01*
X12355752Y-43131504D01*
X12519724Y-43199424D01*
X12667294Y-43298027D01*
X12792793Y-43423526D01*
X12891396Y-43571096D01*
X12959316Y-43735068D01*
X12993940Y-43909139D01*
X12993940Y-44086621D01*
X12959316Y-44260692D01*
X12891396Y-44424664D01*
X12792793Y-44572234D01*
X12667294Y-44697733D01*
X12519724Y-44796336D01*
X12355752Y-44864256D01*
X12206452Y-44893953D01*
X12181682Y-44898880D01*
X12004198Y-44898880D01*
X11979428Y-44893953D01*
X11830128Y-44864256D01*
X11666156Y-44796336D01*
X11518586Y-44697733D01*
X11393087Y-44572234D01*
X11294484Y-44424664D01*
X11226564Y-44260692D01*
X11191940Y-44086621D01*
X11191940Y-43909139D01*
X11226564Y-43735068D01*
X11294484Y-43571096D01*
X11393087Y-43423526D01*
X11518586Y-43298027D01*
X11666156Y-43199424D01*
X11830128Y-43131504D01*
X11979428Y-43101807D01*
X12004198Y-43096880D01*
X12181682Y-43096880D01*
X12206452Y-43101807D01*
G37*
G36*
X9666452Y-43101807D02*
G01*
X9815752Y-43131504D01*
X9979724Y-43199424D01*
X10127294Y-43298027D01*
X10252793Y-43423526D01*
X10351396Y-43571096D01*
X10419316Y-43735068D01*
X10453940Y-43909139D01*
X10453940Y-44086621D01*
X10419316Y-44260692D01*
X10351396Y-44424664D01*
X10252793Y-44572234D01*
X10127294Y-44697733D01*
X9979724Y-44796336D01*
X9815752Y-44864256D01*
X9666452Y-44893953D01*
X9641682Y-44898880D01*
X9464198Y-44898880D01*
X9439428Y-44893953D01*
X9290128Y-44864256D01*
X9126156Y-44796336D01*
X8978586Y-44697733D01*
X8853087Y-44572234D01*
X8754484Y-44424664D01*
X8686564Y-44260692D01*
X8651940Y-44086621D01*
X8651940Y-43909139D01*
X8686564Y-43735068D01*
X8754484Y-43571096D01*
X8853087Y-43423526D01*
X8978586Y-43298027D01*
X9126156Y-43199424D01*
X9290128Y-43131504D01*
X9439428Y-43101807D01*
X9464198Y-43096880D01*
X9641682Y-43096880D01*
X9666452Y-43101807D01*
G37*
G36*
X26146380Y-43457520D02*
G01*
X24844380Y-43457520D01*
X24844380Y-42755520D01*
X26146380Y-42755520D01*
X26146380Y-43457520D01*
G37*
G36*
X23146380Y-43457520D02*
G01*
X21844380Y-43457520D01*
X21844380Y-42755520D01*
X23146380Y-42755520D01*
X23146380Y-43457520D01*
G37*
G36*
X46819180Y-43457520D02*
G01*
X45517180Y-43457520D01*
X45517180Y-42755520D01*
X46819180Y-42755520D01*
X46819180Y-43457520D01*
G37*
G36*
X49819180Y-43457520D02*
G01*
X48517180Y-43457520D01*
X48517180Y-42755520D01*
X49819180Y-42755520D01*
X49819180Y-43457520D01*
G37*
G36*
X3129020Y-42882520D02*
G01*
X2027020Y-42882520D01*
X2027020Y-41080520D01*
X3129020Y-41080520D01*
X3129020Y-42882520D01*
G37*
G36*
X6929020Y-42882520D02*
G01*
X5827020Y-42882520D01*
X5827020Y-41080520D01*
X6929020Y-41080520D01*
X6929020Y-42882520D01*
G37*
G36*
X12206452Y-40561807D02*
G01*
X12355752Y-40591504D01*
X12519724Y-40659424D01*
X12667294Y-40758027D01*
X12792793Y-40883526D01*
X12891396Y-41031096D01*
X12959316Y-41195068D01*
X12993940Y-41369139D01*
X12993940Y-41546621D01*
X12959316Y-41720692D01*
X12891396Y-41884664D01*
X12792793Y-42032234D01*
X12667294Y-42157733D01*
X12519724Y-42256336D01*
X12355752Y-42324256D01*
X12206452Y-42353953D01*
X12181682Y-42358880D01*
X12004198Y-42358880D01*
X11979428Y-42353953D01*
X11830128Y-42324256D01*
X11666156Y-42256336D01*
X11518586Y-42157733D01*
X11393087Y-42032234D01*
X11294484Y-41884664D01*
X11226564Y-41720692D01*
X11191940Y-41546621D01*
X11191940Y-41369139D01*
X11226564Y-41195068D01*
X11294484Y-41031096D01*
X11393087Y-40883526D01*
X11518586Y-40758027D01*
X11666156Y-40659424D01*
X11830128Y-40591504D01*
X11979428Y-40561807D01*
X12004198Y-40556880D01*
X12181682Y-40556880D01*
X12206452Y-40561807D01*
G37*
G36*
X9666452Y-40561807D02*
G01*
X9815752Y-40591504D01*
X9979724Y-40659424D01*
X10127294Y-40758027D01*
X10252793Y-40883526D01*
X10351396Y-41031096D01*
X10419316Y-41195068D01*
X10453940Y-41369139D01*
X10453940Y-41546621D01*
X10419316Y-41720692D01*
X10351396Y-41884664D01*
X10252793Y-42032234D01*
X10127294Y-42157733D01*
X9979724Y-42256336D01*
X9815752Y-42324256D01*
X9666452Y-42353953D01*
X9641682Y-42358880D01*
X9464198Y-42358880D01*
X9439428Y-42353953D01*
X9290128Y-42324256D01*
X9126156Y-42256336D01*
X8978586Y-42157733D01*
X8853087Y-42032234D01*
X8754484Y-41884664D01*
X8686564Y-41720692D01*
X8651940Y-41546621D01*
X8651940Y-41369139D01*
X8686564Y-41195068D01*
X8754484Y-41031096D01*
X8853087Y-40883526D01*
X8978586Y-40758027D01*
X9126156Y-40659424D01*
X9290128Y-40591504D01*
X9439428Y-40561807D01*
X9464198Y-40556880D01*
X9641682Y-40556880D01*
X9666452Y-40561807D01*
G37*
G36*
X46819180Y-41257520D02*
G01*
X45517180Y-41257520D01*
X45517180Y-40555520D01*
X46819180Y-40555520D01*
X46819180Y-41257520D01*
G37*
G36*
X23146380Y-41257520D02*
G01*
X21844380Y-41257520D01*
X21844380Y-40555520D01*
X23146380Y-40555520D01*
X23146380Y-41257520D01*
G37*
G36*
X26146380Y-41257520D02*
G01*
X24844380Y-41257520D01*
X24844380Y-40555520D01*
X26146380Y-40555520D01*
X26146380Y-41257520D01*
G37*
G36*
X49819180Y-41257520D02*
G01*
X48517180Y-41257520D01*
X48517180Y-40555520D01*
X49819180Y-40555520D01*
X49819180Y-41257520D01*
G37*
G36*
X71100886Y-38737647D02*
G01*
X71154805Y-38754003D01*
X71204487Y-38780559D01*
X71248039Y-38816301D01*
X71283781Y-38859853D01*
X71310337Y-38909535D01*
X71326693Y-38963454D01*
X71332820Y-39025661D01*
X71332820Y-39839379D01*
X71326693Y-39901586D01*
X71310337Y-39955505D01*
X71283781Y-40005187D01*
X71248039Y-40048739D01*
X71204487Y-40084481D01*
X71154805Y-40111037D01*
X71100886Y-40127393D01*
X71038679Y-40133520D01*
X69424961Y-40133520D01*
X69362754Y-40127393D01*
X69308835Y-40111037D01*
X69259153Y-40084481D01*
X69215601Y-40048739D01*
X69179859Y-40005187D01*
X69153303Y-39955505D01*
X69136947Y-39901586D01*
X69130820Y-39839379D01*
X69130820Y-39025661D01*
X69136947Y-38963454D01*
X69153303Y-38909535D01*
X69179859Y-38859853D01*
X69215601Y-38816301D01*
X69259153Y-38780559D01*
X69308835Y-38754003D01*
X69362754Y-38737647D01*
X69424961Y-38731520D01*
X71038679Y-38731520D01*
X71100886Y-38737647D01*
G37*
G36*
X66400886Y-38737647D02*
G01*
X66454805Y-38754003D01*
X66504487Y-38780559D01*
X66548039Y-38816301D01*
X66583781Y-38859853D01*
X66610337Y-38909535D01*
X66626693Y-38963454D01*
X66632820Y-39025661D01*
X66632820Y-39839379D01*
X66626693Y-39901586D01*
X66610337Y-39955505D01*
X66583781Y-40005187D01*
X66548039Y-40048739D01*
X66504487Y-40084481D01*
X66454805Y-40111037D01*
X66400886Y-40127393D01*
X66338679Y-40133520D01*
X64724961Y-40133520D01*
X64662754Y-40127393D01*
X64608835Y-40111037D01*
X64559153Y-40084481D01*
X64515601Y-40048739D01*
X64479859Y-40005187D01*
X64453303Y-39955505D01*
X64436947Y-39901586D01*
X64430820Y-39839379D01*
X64430820Y-39025661D01*
X64436947Y-38963454D01*
X64453303Y-38909535D01*
X64479859Y-38859853D01*
X64515601Y-38816301D01*
X64559153Y-38780559D01*
X64608835Y-38754003D01*
X64662754Y-38737647D01*
X64724961Y-38731520D01*
X66338679Y-38731520D01*
X66400886Y-38737647D01*
G37*
G36*
X12206452Y-38021807D02*
G01*
X12355752Y-38051504D01*
X12519724Y-38119424D01*
X12667294Y-38218027D01*
X12792793Y-38343526D01*
X12891396Y-38491096D01*
X12959316Y-38655068D01*
X12984277Y-38780559D01*
X12991387Y-38816301D01*
X12993940Y-38829139D01*
X12993940Y-39006621D01*
X12959316Y-39180692D01*
X12891396Y-39344664D01*
X12792793Y-39492234D01*
X12667294Y-39617733D01*
X12519724Y-39716336D01*
X12355752Y-39784256D01*
X12206452Y-39813953D01*
X12181682Y-39818880D01*
X12004198Y-39818880D01*
X11979428Y-39813953D01*
X11830128Y-39784256D01*
X11666156Y-39716336D01*
X11518586Y-39617733D01*
X11393087Y-39492234D01*
X11294484Y-39344664D01*
X11226564Y-39180692D01*
X11191940Y-39006621D01*
X11191940Y-38829139D01*
X11194494Y-38816301D01*
X11201603Y-38780559D01*
X11226564Y-38655068D01*
X11294484Y-38491096D01*
X11393087Y-38343526D01*
X11518586Y-38218027D01*
X11666156Y-38119424D01*
X11830128Y-38051504D01*
X11979428Y-38021807D01*
X12004198Y-38016880D01*
X12181682Y-38016880D01*
X12206452Y-38021807D01*
G37*
G36*
X9666452Y-38021807D02*
G01*
X9815752Y-38051504D01*
X9979724Y-38119424D01*
X10127294Y-38218027D01*
X10252793Y-38343526D01*
X10351396Y-38491096D01*
X10419316Y-38655068D01*
X10444277Y-38780559D01*
X10451387Y-38816301D01*
X10453940Y-38829139D01*
X10453940Y-39006621D01*
X10419316Y-39180692D01*
X10351396Y-39344664D01*
X10252793Y-39492234D01*
X10127294Y-39617733D01*
X9979724Y-39716336D01*
X9815752Y-39784256D01*
X9666452Y-39813953D01*
X9641682Y-39818880D01*
X9464198Y-39818880D01*
X9439428Y-39813953D01*
X9290128Y-39784256D01*
X9126156Y-39716336D01*
X8978586Y-39617733D01*
X8853087Y-39492234D01*
X8754484Y-39344664D01*
X8686564Y-39180692D01*
X8651940Y-39006621D01*
X8651940Y-38829139D01*
X8654494Y-38816301D01*
X8661603Y-38780559D01*
X8686564Y-38655068D01*
X8754484Y-38491096D01*
X8853087Y-38343526D01*
X8978586Y-38218027D01*
X9126156Y-38119424D01*
X9290128Y-38051504D01*
X9439428Y-38021807D01*
X9464198Y-38016880D01*
X9641682Y-38016880D01*
X9666452Y-38021807D01*
G37*
G36*
X63550886Y-36612647D02*
G01*
X63604805Y-36629003D01*
X63654487Y-36655559D01*
X63698039Y-36691301D01*
X63733781Y-36734853D01*
X63760337Y-36784535D01*
X63776693Y-36838454D01*
X63782820Y-36900661D01*
X63782820Y-38514379D01*
X63776693Y-38576586D01*
X63760337Y-38630505D01*
X63733781Y-38680187D01*
X63698039Y-38723739D01*
X63654487Y-38759481D01*
X63604805Y-38786037D01*
X63550886Y-38802393D01*
X63488679Y-38808520D01*
X62674961Y-38808520D01*
X62612754Y-38802393D01*
X62558835Y-38786037D01*
X62509153Y-38759481D01*
X62465601Y-38723739D01*
X62429859Y-38680187D01*
X62403303Y-38630505D01*
X62386947Y-38576586D01*
X62380820Y-38514379D01*
X62380820Y-36900661D01*
X62386947Y-36838454D01*
X62403303Y-36784535D01*
X62429859Y-36734853D01*
X62465601Y-36691301D01*
X62509153Y-36655559D01*
X62558835Y-36629003D01*
X62612754Y-36612647D01*
X62674961Y-36606520D01*
X63488679Y-36606520D01*
X63550886Y-36612647D01*
G37*
G36*
X71450886Y-35812647D02*
G01*
X71504805Y-35829003D01*
X71554487Y-35855559D01*
X71598039Y-35891301D01*
X71633781Y-35934853D01*
X71660337Y-35984535D01*
X71676693Y-36038454D01*
X71682820Y-36100661D01*
X71682820Y-37714379D01*
X71676693Y-37776586D01*
X71660337Y-37830505D01*
X71633781Y-37880187D01*
X71598039Y-37923739D01*
X71554487Y-37959481D01*
X71504805Y-37986037D01*
X71450886Y-38002393D01*
X71388679Y-38008520D01*
X70574961Y-38008520D01*
X70512754Y-38002393D01*
X70458835Y-37986037D01*
X70409153Y-37959481D01*
X70365601Y-37923739D01*
X70329859Y-37880187D01*
X70303303Y-37830505D01*
X70286947Y-37776586D01*
X70280820Y-37714379D01*
X70280820Y-36100661D01*
X70286947Y-36038454D01*
X70303303Y-35984535D01*
X70329859Y-35934853D01*
X70365601Y-35891301D01*
X70409153Y-35855559D01*
X70458835Y-35829003D01*
X70512754Y-35812647D01*
X70574961Y-35806520D01*
X71388679Y-35806520D01*
X71450886Y-35812647D01*
G37*
G36*
X27464380Y-37361520D02*
G01*
X26162380Y-37361520D01*
X26162380Y-36659520D01*
X27464380Y-36659520D01*
X27464380Y-37361520D01*
G37*
G36*
X30464380Y-37361520D02*
G01*
X29162380Y-37361520D01*
X29162380Y-36659520D01*
X30464380Y-36659520D01*
X30464380Y-37361520D01*
G37*
G36*
X9666452Y-35481807D02*
G01*
X9815752Y-35511504D01*
X9979724Y-35579424D01*
X10127294Y-35678027D01*
X10252793Y-35803526D01*
X10351396Y-35951096D01*
X10419316Y-36115068D01*
X10453940Y-36289139D01*
X10453940Y-36466621D01*
X10419316Y-36640692D01*
X10351396Y-36804664D01*
X10252793Y-36952234D01*
X10127294Y-37077733D01*
X9979724Y-37176336D01*
X9815752Y-37244256D01*
X9666452Y-37273953D01*
X9641682Y-37278880D01*
X9464198Y-37278880D01*
X9439428Y-37273953D01*
X9290128Y-37244256D01*
X9126156Y-37176336D01*
X8978586Y-37077733D01*
X8853087Y-36952234D01*
X8754484Y-36804664D01*
X8686564Y-36640692D01*
X8651940Y-36466621D01*
X8651940Y-36289139D01*
X8686564Y-36115068D01*
X8754484Y-35951096D01*
X8853087Y-35803526D01*
X8978586Y-35678027D01*
X9126156Y-35579424D01*
X9290128Y-35511504D01*
X9439428Y-35481807D01*
X9464198Y-35476880D01*
X9641682Y-35476880D01*
X9666452Y-35481807D01*
G37*
G36*
X12206452Y-35481807D02*
G01*
X12355752Y-35511504D01*
X12519724Y-35579424D01*
X12667294Y-35678027D01*
X12792793Y-35803526D01*
X12891396Y-35951096D01*
X12959316Y-36115068D01*
X12993940Y-36289139D01*
X12993940Y-36466621D01*
X12959316Y-36640692D01*
X12891396Y-36804664D01*
X12792793Y-36952234D01*
X12667294Y-37077733D01*
X12519724Y-37176336D01*
X12355752Y-37244256D01*
X12206452Y-37273953D01*
X12181682Y-37278880D01*
X12004198Y-37278880D01*
X11979428Y-37273953D01*
X11830128Y-37244256D01*
X11666156Y-37176336D01*
X11518586Y-37077733D01*
X11393087Y-36952234D01*
X11294484Y-36804664D01*
X11226564Y-36640692D01*
X11191940Y-36466621D01*
X11191940Y-36289139D01*
X11226564Y-36115068D01*
X11294484Y-35951096D01*
X11393087Y-35803526D01*
X11518586Y-35678027D01*
X11666156Y-35579424D01*
X11830128Y-35511504D01*
X11979428Y-35481807D01*
X12004198Y-35476880D01*
X12181682Y-35476880D01*
X12206452Y-35481807D01*
G37*
G36*
X42450380Y-37259920D02*
G01*
X41148380Y-37259920D01*
X41148380Y-36557920D01*
X42450380Y-36557920D01*
X42450380Y-37259920D01*
G37*
G36*
X45450380Y-37259920D02*
G01*
X44148380Y-37259920D01*
X44148380Y-36557920D01*
X45450380Y-36557920D01*
X45450380Y-37259920D01*
G37*
G36*
X37982780Y-36599520D02*
G01*
X36680780Y-36599520D01*
X36680780Y-35897520D01*
X37982780Y-35897520D01*
X37982780Y-36599520D01*
G37*
G36*
X34982780Y-36599520D02*
G01*
X33680780Y-36599520D01*
X33680780Y-35897520D01*
X34982780Y-35897520D01*
X34982780Y-36599520D01*
G37*
G36*
X6929020Y-36582520D02*
G01*
X5827020Y-36582520D01*
X5827020Y-34780520D01*
X6929020Y-34780520D01*
X6929020Y-36582520D01*
G37*
G36*
X3129020Y-36582520D02*
G01*
X2027020Y-36582520D01*
X2027020Y-34780520D01*
X3129020Y-34780520D01*
X3129020Y-36582520D01*
G37*
G36*
X64800886Y-34487647D02*
G01*
X64854805Y-34504003D01*
X64904487Y-34530559D01*
X64948039Y-34566301D01*
X64983781Y-34609853D01*
X65010337Y-34659535D01*
X65026693Y-34713454D01*
X65032820Y-34775661D01*
X65032820Y-35589379D01*
X65026693Y-35651586D01*
X65010337Y-35705505D01*
X64983781Y-35755187D01*
X64948039Y-35798739D01*
X64904487Y-35834481D01*
X64854805Y-35861037D01*
X64800886Y-35877393D01*
X64738679Y-35883520D01*
X63124961Y-35883520D01*
X63062754Y-35877393D01*
X63008835Y-35861037D01*
X62959153Y-35834481D01*
X62915601Y-35798739D01*
X62879859Y-35755187D01*
X62853303Y-35705505D01*
X62836947Y-35651586D01*
X62830820Y-35589379D01*
X62830820Y-34775661D01*
X62836947Y-34713454D01*
X62853303Y-34659535D01*
X62879859Y-34609853D01*
X62915601Y-34566301D01*
X62959153Y-34530559D01*
X63008835Y-34504003D01*
X63062754Y-34487647D01*
X63124961Y-34481520D01*
X64738679Y-34481520D01*
X64800886Y-34487647D01*
G37*
G36*
X27464380Y-35161520D02*
G01*
X26162380Y-35161520D01*
X26162380Y-34459520D01*
X27464380Y-34459520D01*
X27464380Y-35161520D01*
G37*
G36*
X30464380Y-35161520D02*
G01*
X29162380Y-35161520D01*
X29162380Y-34459520D01*
X30464380Y-34459520D01*
X30464380Y-35161520D01*
G37*
G36*
X42450380Y-35059920D02*
G01*
X41148380Y-35059920D01*
X41148380Y-34357920D01*
X42450380Y-34357920D01*
X42450380Y-35059920D01*
G37*
G36*
X45450380Y-35059920D02*
G01*
X44148380Y-35059920D01*
X44148380Y-34357920D01*
X45450380Y-34357920D01*
X45450380Y-35059920D01*
G37*
G36*
X12206452Y-32941807D02*
G01*
X12355752Y-32971504D01*
X12519724Y-33039424D01*
X12667294Y-33138027D01*
X12792793Y-33263526D01*
X12891396Y-33411096D01*
X12959316Y-33575068D01*
X12993940Y-33749139D01*
X12993940Y-33926621D01*
X12959316Y-34100692D01*
X12891396Y-34264664D01*
X12792793Y-34412234D01*
X12667294Y-34537733D01*
X12519724Y-34636336D01*
X12355752Y-34704256D01*
X12206452Y-34733953D01*
X12181682Y-34738880D01*
X12004198Y-34738880D01*
X11979428Y-34733953D01*
X11830128Y-34704256D01*
X11666156Y-34636336D01*
X11518586Y-34537733D01*
X11393087Y-34412234D01*
X11294484Y-34264664D01*
X11226564Y-34100692D01*
X11191940Y-33926621D01*
X11191940Y-33749139D01*
X11226564Y-33575068D01*
X11294484Y-33411096D01*
X11393087Y-33263526D01*
X11518586Y-33138027D01*
X11666156Y-33039424D01*
X11830128Y-32971504D01*
X11979428Y-32941807D01*
X12004198Y-32936880D01*
X12181682Y-32936880D01*
X12206452Y-32941807D01*
G37*
G36*
X9666452Y-32941807D02*
G01*
X9815752Y-32971504D01*
X9979724Y-33039424D01*
X10127294Y-33138027D01*
X10252793Y-33263526D01*
X10351396Y-33411096D01*
X10419316Y-33575068D01*
X10453940Y-33749139D01*
X10453940Y-33926621D01*
X10419316Y-34100692D01*
X10351396Y-34264664D01*
X10252793Y-34412234D01*
X10127294Y-34537733D01*
X9979724Y-34636336D01*
X9815752Y-34704256D01*
X9666452Y-34733953D01*
X9641682Y-34738880D01*
X9464198Y-34738880D01*
X9439428Y-34733953D01*
X9290128Y-34704256D01*
X9126156Y-34636336D01*
X8978586Y-34537733D01*
X8853087Y-34412234D01*
X8754484Y-34264664D01*
X8686564Y-34100692D01*
X8651940Y-33926621D01*
X8651940Y-33749139D01*
X8686564Y-33575068D01*
X8754484Y-33411096D01*
X8853087Y-33263526D01*
X8978586Y-33138027D01*
X9126156Y-33039424D01*
X9290128Y-32971504D01*
X9439428Y-32941807D01*
X9464198Y-32936880D01*
X9641682Y-32936880D01*
X9666452Y-32941807D01*
G37*
G36*
X37982780Y-34399520D02*
G01*
X36680780Y-34399520D01*
X36680780Y-33697520D01*
X37982780Y-33697520D01*
X37982780Y-34399520D01*
G37*
G36*
X34982780Y-34399520D02*
G01*
X33680780Y-34399520D01*
X33680780Y-33697520D01*
X34982780Y-33697520D01*
X34982780Y-34399520D01*
G37*
G36*
X9666452Y-30401807D02*
G01*
X9815752Y-30431504D01*
X9979724Y-30499424D01*
X10127294Y-30598027D01*
X10252793Y-30723526D01*
X10351396Y-30871096D01*
X10419316Y-31035068D01*
X10449013Y-31184368D01*
X10453940Y-31209138D01*
X10453940Y-31386622D01*
X10452072Y-31396011D01*
X10419316Y-31560692D01*
X10351396Y-31724664D01*
X10252793Y-31872234D01*
X10127294Y-31997733D01*
X9979724Y-32096336D01*
X9815752Y-32164256D01*
X9666452Y-32193953D01*
X9641682Y-32198880D01*
X9464198Y-32198880D01*
X9439428Y-32193953D01*
X9290128Y-32164256D01*
X9126156Y-32096336D01*
X8978586Y-31997733D01*
X8853087Y-31872234D01*
X8754484Y-31724664D01*
X8686564Y-31560692D01*
X8653808Y-31396011D01*
X8651940Y-31386622D01*
X8651940Y-31209138D01*
X8656867Y-31184368D01*
X8686564Y-31035068D01*
X8754484Y-30871096D01*
X8853087Y-30723526D01*
X8978586Y-30598027D01*
X9126156Y-30499424D01*
X9290128Y-30431504D01*
X9439428Y-30401807D01*
X9464198Y-30396880D01*
X9641682Y-30396880D01*
X9666452Y-30401807D01*
G37*
G36*
X12206452Y-30401807D02*
G01*
X12355752Y-30431504D01*
X12519724Y-30499424D01*
X12667294Y-30598027D01*
X12792793Y-30723526D01*
X12891396Y-30871096D01*
X12959316Y-31035068D01*
X12989013Y-31184368D01*
X12993940Y-31209138D01*
X12993940Y-31386622D01*
X12992072Y-31396011D01*
X12959316Y-31560692D01*
X12891396Y-31724664D01*
X12792793Y-31872234D01*
X12667294Y-31997733D01*
X12519724Y-32096336D01*
X12355752Y-32164256D01*
X12206452Y-32193953D01*
X12181682Y-32198880D01*
X12004198Y-32198880D01*
X11979428Y-32193953D01*
X11830128Y-32164256D01*
X11666156Y-32096336D01*
X11518586Y-31997733D01*
X11393087Y-31872234D01*
X11294484Y-31724664D01*
X11226564Y-31560692D01*
X11193808Y-31396011D01*
X11191940Y-31386622D01*
X11191940Y-31209138D01*
X11196867Y-31184368D01*
X11226564Y-31035068D01*
X11294484Y-30871096D01*
X11393087Y-30723526D01*
X11518586Y-30598027D01*
X11666156Y-30499424D01*
X11830128Y-30431504D01*
X11979428Y-30401807D01*
X12004198Y-30396880D01*
X12181682Y-30396880D01*
X12206452Y-30401807D01*
G37*
G36*
X2190181Y-30920454D02*
G01*
X2290455Y-30961989D01*
X2290456Y-30961990D01*
X2380702Y-31022290D01*
X2457450Y-31099038D01*
X2487805Y-31144468D01*
X2517751Y-31189285D01*
X2559286Y-31289559D01*
X2580460Y-31396010D01*
X2580460Y-31504550D01*
X2559286Y-31611001D01*
X2517751Y-31711275D01*
X2487805Y-31756092D01*
X2457450Y-31801522D01*
X2380702Y-31878270D01*
X2335272Y-31908625D01*
X2290455Y-31938571D01*
X2190181Y-31980106D01*
X2083730Y-32001280D01*
X1975190Y-32001280D01*
X1868739Y-31980106D01*
X1768465Y-31938571D01*
X1723648Y-31908625D01*
X1678218Y-31878270D01*
X1601470Y-31801522D01*
X1571115Y-31756092D01*
X1541169Y-31711275D01*
X1499634Y-31611001D01*
X1478460Y-31504550D01*
X1478460Y-31396010D01*
X1499634Y-31289559D01*
X1541169Y-31189285D01*
X1571115Y-31144468D01*
X1601470Y-31099038D01*
X1678218Y-31022290D01*
X1768464Y-30961990D01*
X1768465Y-30961989D01*
X1868739Y-30920454D01*
X1975190Y-30899280D01*
X2083730Y-30899280D01*
X2190181Y-30920454D01*
G37*
G36*
X5944301Y-30839174D02*
G01*
X6044575Y-30880709D01*
X6044576Y-30880710D01*
X6134822Y-30941010D01*
X6211570Y-31017758D01*
X6211571Y-31017760D01*
X6271871Y-31108005D01*
X6313406Y-31208279D01*
X6334580Y-31314730D01*
X6334580Y-31423270D01*
X6313406Y-31529721D01*
X6271871Y-31629995D01*
X6271870Y-31629996D01*
X6211570Y-31720242D01*
X6134822Y-31796990D01*
X6128042Y-31801520D01*
X6044575Y-31857291D01*
X5944301Y-31898826D01*
X5837850Y-31920000D01*
X5729310Y-31920000D01*
X5622859Y-31898826D01*
X5522585Y-31857291D01*
X5439118Y-31801520D01*
X5432338Y-31796990D01*
X5355590Y-31720242D01*
X5295290Y-31629996D01*
X5295289Y-31629995D01*
X5253754Y-31529721D01*
X5232580Y-31423270D01*
X5232580Y-31314730D01*
X5253754Y-31208279D01*
X5295289Y-31108005D01*
X5355589Y-31017760D01*
X5355590Y-31017758D01*
X5432338Y-30941010D01*
X5522584Y-30880710D01*
X5522585Y-30880709D01*
X5622859Y-30839174D01*
X5729310Y-30818000D01*
X5837850Y-30818000D01*
X5944301Y-30839174D01*
G37*
G36*
X9666452Y-27861807D02*
G01*
X9815752Y-27891504D01*
X9979724Y-27959424D01*
X10127294Y-28058027D01*
X10252793Y-28183526D01*
X10351396Y-28331096D01*
X10419316Y-28495068D01*
X10436082Y-28579360D01*
X10453940Y-28669138D01*
X10453940Y-28846622D01*
X10452072Y-28856011D01*
X10419316Y-29020692D01*
X10351396Y-29184664D01*
X10252793Y-29332234D01*
X10127294Y-29457733D01*
X9979724Y-29556336D01*
X9815752Y-29624256D01*
X9666452Y-29653953D01*
X9641682Y-29658880D01*
X9464198Y-29658880D01*
X9439428Y-29653953D01*
X9290128Y-29624256D01*
X9126156Y-29556336D01*
X8978586Y-29457733D01*
X8853087Y-29332234D01*
X8754484Y-29184664D01*
X8686564Y-29020692D01*
X8653808Y-28856011D01*
X8651940Y-28846622D01*
X8651940Y-28669138D01*
X8669798Y-28579360D01*
X8686564Y-28495068D01*
X8754484Y-28331096D01*
X8853087Y-28183526D01*
X8978586Y-28058027D01*
X9126156Y-27959424D01*
X9290128Y-27891504D01*
X9439428Y-27861807D01*
X9464198Y-27856880D01*
X9641682Y-27856880D01*
X9666452Y-27861807D01*
G37*
G36*
X12206452Y-27861807D02*
G01*
X12355752Y-27891504D01*
X12519724Y-27959424D01*
X12667294Y-28058027D01*
X12792793Y-28183526D01*
X12891396Y-28331096D01*
X12959316Y-28495068D01*
X12976082Y-28579360D01*
X12993940Y-28669138D01*
X12993940Y-28846622D01*
X12992072Y-28856011D01*
X12959316Y-29020692D01*
X12891396Y-29184664D01*
X12792793Y-29332234D01*
X12667294Y-29457733D01*
X12519724Y-29556336D01*
X12355752Y-29624256D01*
X12206452Y-29653953D01*
X12181682Y-29658880D01*
X12004198Y-29658880D01*
X11979428Y-29653953D01*
X11830128Y-29624256D01*
X11666156Y-29556336D01*
X11518586Y-29457733D01*
X11393087Y-29332234D01*
X11294484Y-29184664D01*
X11226564Y-29020692D01*
X11193808Y-28856011D01*
X11191940Y-28846622D01*
X11191940Y-28669138D01*
X11209798Y-28579360D01*
X11226564Y-28495068D01*
X11294484Y-28331096D01*
X11393087Y-28183526D01*
X11518586Y-28058027D01*
X11666156Y-27959424D01*
X11830128Y-27891504D01*
X11979428Y-27861807D01*
X12004198Y-27856880D01*
X12181682Y-27856880D01*
X12206452Y-27861807D01*
G37*
G36*
X5944301Y-28400774D02*
G01*
X6044575Y-28442309D01*
X6044576Y-28442310D01*
X6134822Y-28502610D01*
X6211570Y-28579358D01*
X6211571Y-28579360D01*
X6271871Y-28669605D01*
X6313406Y-28769879D01*
X6334580Y-28876330D01*
X6334580Y-28984870D01*
X6313406Y-29091321D01*
X6271871Y-29191595D01*
X6271870Y-29191596D01*
X6211570Y-29281842D01*
X6134822Y-29358590D01*
X6089392Y-29388945D01*
X6044575Y-29418891D01*
X5944301Y-29460426D01*
X5837850Y-29481600D01*
X5729310Y-29481600D01*
X5622859Y-29460426D01*
X5522585Y-29418891D01*
X5477768Y-29388945D01*
X5432338Y-29358590D01*
X5355590Y-29281842D01*
X5295290Y-29191596D01*
X5295289Y-29191595D01*
X5253754Y-29091321D01*
X5232580Y-28984870D01*
X5232580Y-28876330D01*
X5253754Y-28769879D01*
X5295289Y-28669605D01*
X5355589Y-28579360D01*
X5355590Y-28579358D01*
X5432338Y-28502610D01*
X5522584Y-28442310D01*
X5522585Y-28442309D01*
X5622859Y-28400774D01*
X5729310Y-28379600D01*
X5837850Y-28379600D01*
X5944301Y-28400774D01*
G37*
G36*
X2190181Y-28380454D02*
G01*
X2290455Y-28421989D01*
X2290456Y-28421990D01*
X2380702Y-28482290D01*
X2457450Y-28559038D01*
X2487805Y-28604468D01*
X2517751Y-28649285D01*
X2559286Y-28749559D01*
X2580460Y-28856010D01*
X2580460Y-28964550D01*
X2559286Y-29071001D01*
X2517751Y-29171275D01*
X2504173Y-29191596D01*
X2457450Y-29261522D01*
X2380702Y-29338270D01*
X2350291Y-29358590D01*
X2290455Y-29398571D01*
X2190181Y-29440106D01*
X2083730Y-29461280D01*
X1975190Y-29461280D01*
X1868739Y-29440106D01*
X1768465Y-29398571D01*
X1708629Y-29358590D01*
X1678218Y-29338270D01*
X1601470Y-29261522D01*
X1554747Y-29191596D01*
X1541169Y-29171275D01*
X1499634Y-29071001D01*
X1478460Y-28964550D01*
X1478460Y-28856010D01*
X1499634Y-28749559D01*
X1541169Y-28649285D01*
X1571115Y-28604468D01*
X1601470Y-28559038D01*
X1678218Y-28482290D01*
X1768464Y-28421990D01*
X1768465Y-28421989D01*
X1868739Y-28380454D01*
X1975190Y-28359280D01*
X2083730Y-28359280D01*
X2190181Y-28380454D01*
G37*
G36*
X12206452Y-25321807D02*
G01*
X12355752Y-25351504D01*
X12519724Y-25419424D01*
X12667294Y-25518027D01*
X12792793Y-25643526D01*
X12891396Y-25791096D01*
X12959316Y-25955068D01*
X12993940Y-26129139D01*
X12993940Y-26306621D01*
X12959316Y-26480692D01*
X12891396Y-26644664D01*
X12792793Y-26792234D01*
X12667294Y-26917733D01*
X12519724Y-27016336D01*
X12355752Y-27084256D01*
X12206452Y-27113953D01*
X12181682Y-27118880D01*
X12004198Y-27118880D01*
X11979428Y-27113953D01*
X11830128Y-27084256D01*
X11666156Y-27016336D01*
X11518586Y-26917733D01*
X11393087Y-26792234D01*
X11294484Y-26644664D01*
X11226564Y-26480692D01*
X11191940Y-26306621D01*
X11191940Y-26129139D01*
X11226564Y-25955068D01*
X11294484Y-25791096D01*
X11393087Y-25643526D01*
X11518586Y-25518027D01*
X11666156Y-25419424D01*
X11830128Y-25351504D01*
X11979428Y-25321807D01*
X12004198Y-25316880D01*
X12181682Y-25316880D01*
X12206452Y-25321807D01*
G37*
G36*
X9666452Y-25321807D02*
G01*
X9815752Y-25351504D01*
X9979724Y-25419424D01*
X10127294Y-25518027D01*
X10252793Y-25643526D01*
X10351396Y-25791096D01*
X10419316Y-25955068D01*
X10453940Y-26129139D01*
X10453940Y-26306621D01*
X10419316Y-26480692D01*
X10351396Y-26644664D01*
X10252793Y-26792234D01*
X10127294Y-26917733D01*
X9979724Y-27016336D01*
X9815752Y-27084256D01*
X9666452Y-27113953D01*
X9641682Y-27118880D01*
X9464198Y-27118880D01*
X9439428Y-27113953D01*
X9290128Y-27084256D01*
X9126156Y-27016336D01*
X8978586Y-26917733D01*
X8853087Y-26792234D01*
X8754484Y-26644664D01*
X8686564Y-26480692D01*
X8651940Y-26306621D01*
X8651940Y-26129139D01*
X8686564Y-25955068D01*
X8754484Y-25791096D01*
X8853087Y-25643526D01*
X8978586Y-25518027D01*
X9126156Y-25419424D01*
X9290128Y-25351504D01*
X9439428Y-25321807D01*
X9464198Y-25316880D01*
X9641682Y-25316880D01*
X9666452Y-25321807D01*
G37*
G36*
X2190181Y-25713454D02*
G01*
X2290455Y-25754989D01*
X2335272Y-25784935D01*
X2380702Y-25815290D01*
X2457450Y-25892038D01*
X2457451Y-25892040D01*
X2517751Y-25982285D01*
X2559286Y-26082559D01*
X2580460Y-26189010D01*
X2580460Y-26297550D01*
X2559286Y-26404001D01*
X2517751Y-26504275D01*
X2517750Y-26504276D01*
X2457450Y-26594522D01*
X2380702Y-26671270D01*
X2335272Y-26701625D01*
X2290455Y-26731571D01*
X2190181Y-26773106D01*
X2083730Y-26794280D01*
X1975190Y-26794280D01*
X1868739Y-26773106D01*
X1768465Y-26731571D01*
X1723648Y-26701625D01*
X1678218Y-26671270D01*
X1601470Y-26594522D01*
X1541170Y-26504276D01*
X1541169Y-26504275D01*
X1499634Y-26404001D01*
X1478460Y-26297550D01*
X1478460Y-26189010D01*
X1499634Y-26082559D01*
X1541169Y-25982285D01*
X1601469Y-25892040D01*
X1601470Y-25892038D01*
X1678218Y-25815290D01*
X1723648Y-25784935D01*
X1768465Y-25754989D01*
X1868739Y-25713454D01*
X1975190Y-25692280D01*
X2083730Y-25692280D01*
X2190181Y-25713454D01*
G37*
G36*
X5944301Y-25708374D02*
G01*
X6044575Y-25749909D01*
X6052179Y-25754990D01*
X6134822Y-25810210D01*
X6211570Y-25886958D01*
X6241925Y-25932388D01*
X6271871Y-25977205D01*
X6313406Y-26077479D01*
X6334580Y-26183930D01*
X6334580Y-26292470D01*
X6313406Y-26398921D01*
X6271871Y-26499195D01*
X6268476Y-26504276D01*
X6211570Y-26589442D01*
X6134822Y-26666190D01*
X6089392Y-26696545D01*
X6044575Y-26726491D01*
X5944301Y-26768026D01*
X5837850Y-26789200D01*
X5729310Y-26789200D01*
X5622859Y-26768026D01*
X5522585Y-26726491D01*
X5477768Y-26696545D01*
X5432338Y-26666190D01*
X5355590Y-26589442D01*
X5298684Y-26504276D01*
X5295289Y-26499195D01*
X5253754Y-26398921D01*
X5232580Y-26292470D01*
X5232580Y-26183930D01*
X5253754Y-26077479D01*
X5295289Y-25977205D01*
X5325235Y-25932388D01*
X5355590Y-25886958D01*
X5432338Y-25810210D01*
X5514981Y-25754990D01*
X5522585Y-25749909D01*
X5622859Y-25708374D01*
X5729310Y-25687200D01*
X5837850Y-25687200D01*
X5944301Y-25708374D01*
G37*
G36*
X16409101Y-25296894D02*
G01*
X16509375Y-25338429D01*
X16554192Y-25368375D01*
X16599622Y-25398730D01*
X16676370Y-25475478D01*
X16676371Y-25475480D01*
X16736671Y-25565725D01*
X16778206Y-25665999D01*
X16799380Y-25772450D01*
X16799380Y-25880990D01*
X16778206Y-25987440D01*
X16736671Y-26087715D01*
X16736670Y-26087716D01*
X16676370Y-26177962D01*
X16599622Y-26254710D01*
X16554192Y-26285065D01*
X16509375Y-26315011D01*
X16409101Y-26356546D01*
X16302650Y-26377720D01*
X16194110Y-26377720D01*
X16087659Y-26356546D01*
X15987385Y-26315011D01*
X15942568Y-26285065D01*
X15897138Y-26254710D01*
X15820390Y-26177962D01*
X15760090Y-26087716D01*
X15760089Y-26087715D01*
X15718554Y-25987440D01*
X15697380Y-25880990D01*
X15697380Y-25772450D01*
X15718554Y-25665999D01*
X15760089Y-25565725D01*
X15820389Y-25475480D01*
X15820390Y-25475478D01*
X15897138Y-25398730D01*
X15942568Y-25368375D01*
X15987385Y-25338429D01*
X16087659Y-25296894D01*
X16194110Y-25275720D01*
X16302650Y-25275720D01*
X16409101Y-25296894D01*
G37*
G36*
X12206452Y-22781807D02*
G01*
X12355752Y-22811504D01*
X12519724Y-22879424D01*
X12667294Y-22978027D01*
X12792793Y-23103526D01*
X12891396Y-23251096D01*
X12959316Y-23415068D01*
X12993940Y-23589139D01*
X12993940Y-23766621D01*
X12959316Y-23940692D01*
X12891396Y-24104664D01*
X12792793Y-24252234D01*
X12667294Y-24377733D01*
X12519724Y-24476336D01*
X12355752Y-24544256D01*
X12206452Y-24573953D01*
X12181682Y-24578880D01*
X12004198Y-24578880D01*
X11979428Y-24573953D01*
X11830128Y-24544256D01*
X11666156Y-24476336D01*
X11518586Y-24377733D01*
X11393087Y-24252234D01*
X11294484Y-24104664D01*
X11226564Y-23940692D01*
X11191940Y-23766621D01*
X11191940Y-23589139D01*
X11226564Y-23415068D01*
X11294484Y-23251096D01*
X11393087Y-23103526D01*
X11518586Y-22978027D01*
X11666156Y-22879424D01*
X11830128Y-22811504D01*
X11979428Y-22781807D01*
X12004198Y-22776880D01*
X12181682Y-22776880D01*
X12206452Y-22781807D01*
G37*
G36*
X9666452Y-22781807D02*
G01*
X9815752Y-22811504D01*
X9979724Y-22879424D01*
X10127294Y-22978027D01*
X10252793Y-23103526D01*
X10351396Y-23251096D01*
X10419316Y-23415068D01*
X10453940Y-23589139D01*
X10453940Y-23766621D01*
X10419316Y-23940692D01*
X10351396Y-24104664D01*
X10252793Y-24252234D01*
X10127294Y-24377733D01*
X9979724Y-24476336D01*
X9815752Y-24544256D01*
X9666452Y-24573953D01*
X9641682Y-24578880D01*
X9464198Y-24578880D01*
X9439428Y-24573953D01*
X9290128Y-24544256D01*
X9126156Y-24476336D01*
X8978586Y-24377733D01*
X8853087Y-24252234D01*
X8754484Y-24104664D01*
X8686564Y-23940692D01*
X8651940Y-23766621D01*
X8651940Y-23589139D01*
X8686564Y-23415068D01*
X8754484Y-23251096D01*
X8853087Y-23103526D01*
X8978586Y-22978027D01*
X9126156Y-22879424D01*
X9290128Y-22811504D01*
X9439428Y-22781807D01*
X9464198Y-22776880D01*
X9641682Y-22776880D01*
X9666452Y-22781807D01*
G37*
G36*
X16409101Y-22629894D02*
G01*
X16509375Y-22671429D01*
X16509376Y-22671430D01*
X16599622Y-22731730D01*
X16676370Y-22808478D01*
X16706725Y-22853908D01*
X16736671Y-22898725D01*
X16778206Y-22998999D01*
X16799380Y-23105450D01*
X16799380Y-23213990D01*
X16778206Y-23320441D01*
X16736671Y-23420715D01*
X16736670Y-23420716D01*
X16676370Y-23510962D01*
X16599622Y-23587710D01*
X16597483Y-23589139D01*
X16509375Y-23648011D01*
X16409101Y-23689546D01*
X16302650Y-23710720D01*
X16194110Y-23710720D01*
X16087659Y-23689546D01*
X15987385Y-23648011D01*
X15899277Y-23589139D01*
X15897138Y-23587710D01*
X15820390Y-23510962D01*
X15760090Y-23420716D01*
X15760089Y-23420715D01*
X15718554Y-23320441D01*
X15697380Y-23213990D01*
X15697380Y-23105450D01*
X15718554Y-22998999D01*
X15760089Y-22898725D01*
X15790035Y-22853908D01*
X15820390Y-22808478D01*
X15897138Y-22731730D01*
X15987384Y-22671430D01*
X15987385Y-22671429D01*
X16087659Y-22629894D01*
X16194110Y-22608720D01*
X16302650Y-22608720D01*
X16409101Y-22629894D01*
G37*
G36*
X6923940Y-22791120D02*
G01*
X5821940Y-22791120D01*
X5821940Y-20989120D01*
X6923940Y-20989120D01*
X6923940Y-22791120D01*
G37*
G36*
X3123940Y-22791120D02*
G01*
X2021940Y-22791120D01*
X2021940Y-20989120D01*
X3123940Y-20989120D01*
X3123940Y-22791120D01*
G37*
G36*
X9666452Y-20241807D02*
G01*
X9815752Y-20271504D01*
X9979724Y-20339424D01*
X10127294Y-20438027D01*
X10252793Y-20563526D01*
X10351396Y-20711096D01*
X10419316Y-20875068D01*
X10453940Y-21049139D01*
X10453940Y-21226621D01*
X10419316Y-21400692D01*
X10351396Y-21564664D01*
X10252793Y-21712234D01*
X10127294Y-21837733D01*
X9979724Y-21936336D01*
X9815752Y-22004256D01*
X9666452Y-22033953D01*
X9641682Y-22038880D01*
X9464198Y-22038880D01*
X9439428Y-22033953D01*
X9290128Y-22004256D01*
X9126156Y-21936336D01*
X8978586Y-21837733D01*
X8853087Y-21712234D01*
X8754484Y-21564664D01*
X8686564Y-21400692D01*
X8651940Y-21226621D01*
X8651940Y-21049139D01*
X8686564Y-20875068D01*
X8754484Y-20711096D01*
X8853087Y-20563526D01*
X8978586Y-20438027D01*
X9126156Y-20339424D01*
X9290128Y-20271504D01*
X9439428Y-20241807D01*
X9464198Y-20236880D01*
X9641682Y-20236880D01*
X9666452Y-20241807D01*
G37*
G36*
X12206452Y-20241807D02*
G01*
X12355752Y-20271504D01*
X12519724Y-20339424D01*
X12667294Y-20438027D01*
X12792793Y-20563526D01*
X12891396Y-20711096D01*
X12959316Y-20875068D01*
X12993940Y-21049139D01*
X12993940Y-21226621D01*
X12959316Y-21400692D01*
X12891396Y-21564664D01*
X12792793Y-21712234D01*
X12667294Y-21837733D01*
X12519724Y-21936336D01*
X12355752Y-22004256D01*
X12206452Y-22033953D01*
X12181682Y-22038880D01*
X12004198Y-22038880D01*
X11979428Y-22033953D01*
X11830128Y-22004256D01*
X11666156Y-21936336D01*
X11518586Y-21837733D01*
X11393087Y-21712234D01*
X11294484Y-21564664D01*
X11226564Y-21400692D01*
X11191940Y-21226621D01*
X11191940Y-21049139D01*
X11226564Y-20875068D01*
X11294484Y-20711096D01*
X11393087Y-20563526D01*
X11518586Y-20438027D01*
X11666156Y-20339424D01*
X11830128Y-20271504D01*
X11979428Y-20241807D01*
X12004198Y-20236880D01*
X12181682Y-20236880D01*
X12206452Y-20241807D01*
G37*
G36*
X16409101Y-19531094D02*
G01*
X16509375Y-19572629D01*
X16509376Y-19572630D01*
X16599622Y-19632930D01*
X16676370Y-19709678D01*
X16676371Y-19709680D01*
X16736671Y-19799925D01*
X16778206Y-19900199D01*
X16799380Y-20006650D01*
X16799380Y-20115190D01*
X16778206Y-20221641D01*
X16736671Y-20321915D01*
X16736670Y-20321916D01*
X16676370Y-20412162D01*
X16599622Y-20488910D01*
X16554192Y-20519265D01*
X16509375Y-20549211D01*
X16409101Y-20590746D01*
X16302650Y-20611920D01*
X16194110Y-20611920D01*
X16087659Y-20590746D01*
X15987385Y-20549211D01*
X15942568Y-20519265D01*
X15897138Y-20488910D01*
X15820390Y-20412162D01*
X15760090Y-20321916D01*
X15760089Y-20321915D01*
X15718554Y-20221641D01*
X15697380Y-20115190D01*
X15697380Y-20006650D01*
X15718554Y-19900199D01*
X15760089Y-19799925D01*
X15820389Y-19709680D01*
X15820390Y-19709678D01*
X15897138Y-19632930D01*
X15987384Y-19572630D01*
X15987385Y-19572629D01*
X16087659Y-19531094D01*
X16194110Y-19509920D01*
X16302650Y-19509920D01*
X16409101Y-19531094D01*
G37*
G36*
X12206452Y-17701807D02*
G01*
X12355752Y-17731504D01*
X12519724Y-17799424D01*
X12667294Y-17898027D01*
X12792793Y-18023526D01*
X12891396Y-18171096D01*
X12959316Y-18335068D01*
X12993940Y-18509139D01*
X12993940Y-18686621D01*
X12959316Y-18860692D01*
X12891396Y-19024664D01*
X12792793Y-19172234D01*
X12667294Y-19297733D01*
X12519724Y-19396336D01*
X12355752Y-19464256D01*
X12206452Y-19493953D01*
X12181682Y-19498880D01*
X12004198Y-19498880D01*
X11979428Y-19493953D01*
X11830128Y-19464256D01*
X11666156Y-19396336D01*
X11518586Y-19297733D01*
X11393087Y-19172234D01*
X11294484Y-19024664D01*
X11226564Y-18860692D01*
X11191940Y-18686621D01*
X11191940Y-18509139D01*
X11226564Y-18335068D01*
X11294484Y-18171096D01*
X11393087Y-18023526D01*
X11518586Y-17898027D01*
X11666156Y-17799424D01*
X11830128Y-17731504D01*
X11979428Y-17701807D01*
X12004198Y-17696880D01*
X12181682Y-17696880D01*
X12206452Y-17701807D01*
G37*
G36*
X9666452Y-17701807D02*
G01*
X9815752Y-17731504D01*
X9979724Y-17799424D01*
X10127294Y-17898027D01*
X10252793Y-18023526D01*
X10351396Y-18171096D01*
X10419316Y-18335068D01*
X10453940Y-18509139D01*
X10453940Y-18686621D01*
X10419316Y-18860692D01*
X10351396Y-19024664D01*
X10252793Y-19172234D01*
X10127294Y-19297733D01*
X9979724Y-19396336D01*
X9815752Y-19464256D01*
X9666452Y-19493953D01*
X9641682Y-19498880D01*
X9464198Y-19498880D01*
X9439428Y-19493953D01*
X9290128Y-19464256D01*
X9126156Y-19396336D01*
X8978586Y-19297733D01*
X8853087Y-19172234D01*
X8754484Y-19024664D01*
X8686564Y-18860692D01*
X8651940Y-18686621D01*
X8651940Y-18509139D01*
X8686564Y-18335068D01*
X8754484Y-18171096D01*
X8853087Y-18023526D01*
X8978586Y-17898027D01*
X9126156Y-17799424D01*
X9290128Y-17731504D01*
X9439428Y-17701807D01*
X9464198Y-17696880D01*
X9641682Y-17696880D01*
X9666452Y-17701807D01*
G37*
G36*
X9666452Y-15161807D02*
G01*
X9815752Y-15191504D01*
X9979724Y-15259424D01*
X10127294Y-15358027D01*
X10252793Y-15483526D01*
X10351396Y-15631096D01*
X10419316Y-15795068D01*
X10453940Y-15969139D01*
X10453940Y-16146621D01*
X10419316Y-16320692D01*
X10351396Y-16484664D01*
X10252793Y-16632234D01*
X10127294Y-16757733D01*
X9979724Y-16856336D01*
X9815752Y-16924256D01*
X9666452Y-16953953D01*
X9641682Y-16958880D01*
X9464198Y-16958880D01*
X9439428Y-16953953D01*
X9290128Y-16924256D01*
X9126156Y-16856336D01*
X8978586Y-16757733D01*
X8853087Y-16632234D01*
X8754484Y-16484664D01*
X8686564Y-16320692D01*
X8651940Y-16146621D01*
X8651940Y-15969139D01*
X8686564Y-15795068D01*
X8754484Y-15631096D01*
X8853087Y-15483526D01*
X8978586Y-15358027D01*
X9126156Y-15259424D01*
X9290128Y-15191504D01*
X9439428Y-15161807D01*
X9464198Y-15156880D01*
X9641682Y-15156880D01*
X9666452Y-15161807D01*
G37*
G36*
X12206452Y-15161807D02*
G01*
X12355752Y-15191504D01*
X12519724Y-15259424D01*
X12667294Y-15358027D01*
X12792793Y-15483526D01*
X12891396Y-15631096D01*
X12959316Y-15795068D01*
X12993940Y-15969139D01*
X12993940Y-16146621D01*
X12959316Y-16320692D01*
X12891396Y-16484664D01*
X12792793Y-16632234D01*
X12667294Y-16757733D01*
X12519724Y-16856336D01*
X12355752Y-16924256D01*
X12206452Y-16953953D01*
X12181682Y-16958880D01*
X12004198Y-16958880D01*
X11979428Y-16953953D01*
X11830128Y-16924256D01*
X11666156Y-16856336D01*
X11518586Y-16757733D01*
X11393087Y-16632234D01*
X11294484Y-16484664D01*
X11226564Y-16320692D01*
X11191940Y-16146621D01*
X11191940Y-15969139D01*
X11226564Y-15795068D01*
X11294484Y-15631096D01*
X11393087Y-15483526D01*
X11518586Y-15358027D01*
X11666156Y-15259424D01*
X11830128Y-15191504D01*
X11979428Y-15161807D01*
X12004198Y-15156880D01*
X12181682Y-15156880D01*
X12206452Y-15161807D01*
G37*
G36*
X6923940Y-16491120D02*
G01*
X5821940Y-16491120D01*
X5821940Y-14689120D01*
X6923940Y-14689120D01*
X6923940Y-16491120D01*
G37*
G36*
X3123940Y-16491120D02*
G01*
X2021940Y-16491120D01*
X2021940Y-14689120D01*
X3123940Y-14689120D01*
X3123940Y-16491120D01*
G37*
G36*
X16409101Y-15162294D02*
G01*
X16509375Y-15203829D01*
X16538382Y-15223211D01*
X16599622Y-15264130D01*
X16676370Y-15340878D01*
X16687829Y-15358028D01*
X16736671Y-15431125D01*
X16778206Y-15531399D01*
X16799380Y-15637850D01*
X16799380Y-15746390D01*
X16778206Y-15852841D01*
X16736671Y-15953115D01*
X16736670Y-15953116D01*
X16676370Y-16043362D01*
X16599622Y-16120110D01*
X16559945Y-16146621D01*
X16509375Y-16180411D01*
X16409101Y-16221946D01*
X16302650Y-16243120D01*
X16194110Y-16243120D01*
X16087659Y-16221946D01*
X15987385Y-16180411D01*
X15936815Y-16146621D01*
X15897138Y-16120110D01*
X15820390Y-16043362D01*
X15760090Y-15953116D01*
X15760089Y-15953115D01*
X15718554Y-15852841D01*
X15697380Y-15746390D01*
X15697380Y-15637850D01*
X15718554Y-15531399D01*
X15760089Y-15431125D01*
X15808931Y-15358028D01*
X15820390Y-15340878D01*
X15897138Y-15264130D01*
X15958378Y-15223211D01*
X15987385Y-15203829D01*
X16087659Y-15162294D01*
X16194110Y-15141120D01*
X16302650Y-15141120D01*
X16409101Y-15162294D01*
G37*
G36*
X25867271Y-14917098D02*
G01*
X25900205Y-14927089D01*
X25930553Y-14943310D01*
X25957157Y-14965143D01*
X25978990Y-14991747D01*
X25995211Y-15022095D01*
X26005202Y-15055029D01*
X26009180Y-15095419D01*
X26009180Y-15182821D01*
X26005202Y-15223211D01*
X25995211Y-15256145D01*
X25978990Y-15286493D01*
X25957157Y-15313097D01*
X25930553Y-15334930D01*
X25900205Y-15351151D01*
X25867271Y-15361142D01*
X25826881Y-15365120D01*
X23789479Y-15365120D01*
X23749089Y-15361142D01*
X23716155Y-15351151D01*
X23685807Y-15334930D01*
X23659203Y-15313097D01*
X23637370Y-15286493D01*
X23621149Y-15256145D01*
X23611158Y-15223211D01*
X23607180Y-15182821D01*
X23607180Y-15095419D01*
X23611158Y-15055029D01*
X23621149Y-15022095D01*
X23637370Y-14991747D01*
X23659203Y-14965143D01*
X23685807Y-14943310D01*
X23716155Y-14927089D01*
X23749089Y-14917098D01*
X23789479Y-14913120D01*
X25826881Y-14913120D01*
X25867271Y-14917098D01*
G37*
G36*
X26617271Y-13217098D02*
G01*
X26650205Y-13227089D01*
X26680553Y-13243310D01*
X26707157Y-13265143D01*
X26728990Y-13291747D01*
X26745211Y-13322095D01*
X26755202Y-13355029D01*
X26759180Y-13395419D01*
X26759180Y-14432821D01*
X26755202Y-14473211D01*
X26745211Y-14506145D01*
X26728990Y-14536493D01*
X26707157Y-14563097D01*
X26680553Y-14584930D01*
X26650205Y-14601151D01*
X26617271Y-14611142D01*
X26576881Y-14615120D01*
X26489479Y-14615120D01*
X26449089Y-14611142D01*
X26416155Y-14601151D01*
X26385807Y-14584930D01*
X26359203Y-14563097D01*
X26337370Y-14536493D01*
X26321149Y-14506145D01*
X26311158Y-14473211D01*
X26307180Y-14432821D01*
X26307180Y-13395419D01*
X26311158Y-13355029D01*
X26321149Y-13322095D01*
X26337370Y-13291747D01*
X26359203Y-13265143D01*
X26385807Y-13243310D01*
X26416155Y-13227089D01*
X26449089Y-13217098D01*
X26489479Y-13213120D01*
X26576881Y-13213120D01*
X26617271Y-13217098D01*
G37*
G36*
X23167271Y-13217098D02*
G01*
X23200205Y-13227089D01*
X23230553Y-13243310D01*
X23257157Y-13265143D01*
X23278990Y-13291747D01*
X23295211Y-13322095D01*
X23305202Y-13355029D01*
X23309180Y-13395419D01*
X23309180Y-14432821D01*
X23305202Y-14473211D01*
X23295211Y-14506145D01*
X23278990Y-14536493D01*
X23257157Y-14563097D01*
X23230553Y-14584930D01*
X23200205Y-14601151D01*
X23167271Y-14611142D01*
X23126881Y-14615120D01*
X23039479Y-14615120D01*
X22999089Y-14611142D01*
X22966155Y-14601151D01*
X22935807Y-14584930D01*
X22909203Y-14563097D01*
X22887370Y-14536493D01*
X22871149Y-14506145D01*
X22861158Y-14473211D01*
X22857180Y-14432821D01*
X22857180Y-13395419D01*
X22861158Y-13355029D01*
X22871149Y-13322095D01*
X22887370Y-13291747D01*
X22909203Y-13265143D01*
X22935807Y-13243310D01*
X22966155Y-13227089D01*
X22999089Y-13217098D01*
X23039479Y-13213120D01*
X23126881Y-13213120D01*
X23167271Y-13217098D01*
G37*
G36*
X26009180Y-14590120D02*
G01*
X24957180Y-14590120D01*
X24957180Y-14088120D01*
X26009180Y-14088120D01*
X26009180Y-14590120D01*
G37*
G36*
X24659180Y-14590120D02*
G01*
X23607180Y-14590120D01*
X23607180Y-14088120D01*
X24659180Y-14088120D01*
X24659180Y-14590120D01*
G37*
G36*
X9653335Y-12619198D02*
G01*
X9815752Y-12651504D01*
X9979724Y-12719424D01*
X10127294Y-12818027D01*
X10252793Y-12943526D01*
X10351396Y-13091096D01*
X10419316Y-13255068D01*
X10453940Y-13429139D01*
X10453940Y-13606621D01*
X10419316Y-13780692D01*
X10351396Y-13944664D01*
X10252793Y-14092234D01*
X10127294Y-14217733D01*
X9979724Y-14316336D01*
X9815752Y-14384256D01*
X9666452Y-14413953D01*
X9641682Y-14418880D01*
X9464198Y-14418880D01*
X9439428Y-14413953D01*
X9290128Y-14384256D01*
X9126156Y-14316336D01*
X8978586Y-14217733D01*
X8853087Y-14092234D01*
X8754484Y-13944664D01*
X8686564Y-13780692D01*
X8651940Y-13606621D01*
X8651940Y-13429139D01*
X8686564Y-13255068D01*
X8754484Y-13091096D01*
X8853087Y-12943526D01*
X8978586Y-12818027D01*
X9126156Y-12719424D01*
X9290128Y-12651504D01*
X9452545Y-12619198D01*
X9464198Y-12616880D01*
X9641682Y-12616880D01*
X9653335Y-12619198D01*
G37*
G36*
X12193335Y-12619198D02*
G01*
X12355752Y-12651504D01*
X12519724Y-12719424D01*
X12667294Y-12818027D01*
X12792793Y-12943526D01*
X12891396Y-13091096D01*
X12959316Y-13255068D01*
X12993940Y-13429139D01*
X12993940Y-13606621D01*
X12959316Y-13780692D01*
X12891396Y-13944664D01*
X12792793Y-14092234D01*
X12667294Y-14217733D01*
X12519724Y-14316336D01*
X12355752Y-14384256D01*
X12206452Y-14413953D01*
X12181682Y-14418880D01*
X12004198Y-14418880D01*
X11979428Y-14413953D01*
X11830128Y-14384256D01*
X11666156Y-14316336D01*
X11518586Y-14217733D01*
X11393087Y-14092234D01*
X11294484Y-13944664D01*
X11226564Y-13780692D01*
X11191940Y-13606621D01*
X11191940Y-13429139D01*
X11226564Y-13255068D01*
X11294484Y-13091096D01*
X11393087Y-12943526D01*
X11518586Y-12818027D01*
X11666156Y-12719424D01*
X11830128Y-12651504D01*
X11992545Y-12619198D01*
X12004198Y-12616880D01*
X12181682Y-12616880D01*
X12193335Y-12619198D01*
G37*
G36*
X26009180Y-13740120D02*
G01*
X24957180Y-13740120D01*
X24957180Y-13238120D01*
X26009180Y-13238120D01*
X26009180Y-13740120D01*
G37*
G36*
X24659180Y-13740120D02*
G01*
X23607180Y-13740120D01*
X23607180Y-13238120D01*
X24659180Y-13238120D01*
X24659180Y-13740120D01*
G37*
G36*
X16409101Y-12596894D02*
G01*
X16509375Y-12638429D01*
X16537210Y-12657028D01*
X16599622Y-12698730D01*
X16676370Y-12775478D01*
X16676371Y-12775480D01*
X16736671Y-12865725D01*
X16778206Y-12965999D01*
X16799380Y-13072450D01*
X16799380Y-13180990D01*
X16778206Y-13287441D01*
X16736671Y-13387715D01*
X16736670Y-13387716D01*
X16676370Y-13477962D01*
X16599622Y-13554710D01*
X16554192Y-13585065D01*
X16509375Y-13615011D01*
X16409101Y-13656546D01*
X16302650Y-13677720D01*
X16194110Y-13677720D01*
X16087659Y-13656546D01*
X15987385Y-13615011D01*
X15942568Y-13585065D01*
X15897138Y-13554710D01*
X15820390Y-13477962D01*
X15760090Y-13387716D01*
X15760089Y-13387715D01*
X15718554Y-13287441D01*
X15697380Y-13180990D01*
X15697380Y-13072450D01*
X15718554Y-12965999D01*
X15760089Y-12865725D01*
X15820389Y-12775480D01*
X15820390Y-12775478D01*
X15897138Y-12698730D01*
X15959550Y-12657028D01*
X15987385Y-12638429D01*
X16087659Y-12596894D01*
X16194110Y-12575720D01*
X16302650Y-12575720D01*
X16409101Y-12596894D01*
G37*
G36*
X25867271Y-12467098D02*
G01*
X25900205Y-12477089D01*
X25930553Y-12493310D01*
X25957157Y-12515143D01*
X25978990Y-12541747D01*
X25995211Y-12572095D01*
X26005202Y-12605029D01*
X26009180Y-12645419D01*
X26009180Y-12732821D01*
X26005202Y-12773211D01*
X25995211Y-12806145D01*
X25978990Y-12836493D01*
X25957157Y-12863097D01*
X25930553Y-12884930D01*
X25900205Y-12901151D01*
X25867271Y-12911142D01*
X25826881Y-12915120D01*
X23789479Y-12915120D01*
X23749089Y-12911142D01*
X23716155Y-12901151D01*
X23685807Y-12884930D01*
X23659203Y-12863097D01*
X23637370Y-12836493D01*
X23621149Y-12806145D01*
X23611158Y-12773211D01*
X23607180Y-12732821D01*
X23607180Y-12645419D01*
X23611158Y-12605029D01*
X23621149Y-12572095D01*
X23637370Y-12541747D01*
X23659203Y-12515143D01*
X23685807Y-12493310D01*
X23716155Y-12477089D01*
X23749089Y-12467098D01*
X23789479Y-12463120D01*
X25826881Y-12463120D01*
X25867271Y-12467098D01*
G37*
G36*
X4085021Y-10925574D02*
G01*
X4185295Y-10967109D01*
X4185296Y-10967110D01*
X4275542Y-11027410D01*
X4352290Y-11104158D01*
X4352291Y-11104160D01*
X4412591Y-11194405D01*
X4454126Y-11294679D01*
X4475300Y-11401130D01*
X4475300Y-11509670D01*
X4454126Y-11616121D01*
X4412591Y-11716395D01*
X4412590Y-11716396D01*
X4352290Y-11806642D01*
X4275542Y-11883390D01*
X4230112Y-11913745D01*
X4185295Y-11943691D01*
X4085021Y-11985226D01*
X3978570Y-12006400D01*
X3870030Y-12006400D01*
X3763579Y-11985226D01*
X3663305Y-11943691D01*
X3618488Y-11913745D01*
X3573058Y-11883390D01*
X3496310Y-11806642D01*
X3436010Y-11716396D01*
X3436009Y-11716395D01*
X3394474Y-11616121D01*
X3373300Y-11509670D01*
X3373300Y-11401130D01*
X3394474Y-11294679D01*
X3436009Y-11194405D01*
X3496309Y-11104160D01*
X3496310Y-11104158D01*
X3573058Y-11027410D01*
X3663304Y-10967110D01*
X3663305Y-10967109D01*
X3763579Y-10925574D01*
X3870030Y-10904400D01*
X3978570Y-10904400D01*
X4085021Y-10925574D01*
G37*
G36*
X9654079Y-10079346D02*
G01*
X9815752Y-10111504D01*
X9979724Y-10179424D01*
X10127294Y-10278027D01*
X10252793Y-10403526D01*
X10351396Y-10551096D01*
X10419316Y-10715068D01*
X10453940Y-10889139D01*
X10453940Y-11066621D01*
X10419316Y-11240692D01*
X10351396Y-11404664D01*
X10252793Y-11552234D01*
X10127294Y-11677733D01*
X9979724Y-11776336D01*
X9815752Y-11844256D01*
X9666452Y-11873953D01*
X9641682Y-11878880D01*
X9464198Y-11878880D01*
X9439428Y-11873953D01*
X9290128Y-11844256D01*
X9126156Y-11776336D01*
X8978586Y-11677733D01*
X8853087Y-11552234D01*
X8754484Y-11404664D01*
X8686564Y-11240692D01*
X8651940Y-11066621D01*
X8651940Y-10889139D01*
X8686564Y-10715068D01*
X8754484Y-10551096D01*
X8853087Y-10403526D01*
X8978586Y-10278027D01*
X9126156Y-10179424D01*
X9290128Y-10111504D01*
X9451801Y-10079346D01*
X9464198Y-10076880D01*
X9641682Y-10076880D01*
X9654079Y-10079346D01*
G37*
G36*
X12993940Y-11878880D02*
G01*
X11191940Y-11878880D01*
X11191940Y-10076880D01*
X12993940Y-10076880D01*
X12993940Y-11878880D01*
G37*
G36*
X20051648Y-10048565D02*
G01*
X20090318Y-10060296D01*
X20125957Y-10079346D01*
X20157197Y-10104983D01*
X20182834Y-10136223D01*
X20201884Y-10171862D01*
X20213615Y-10210532D01*
X20218180Y-10256888D01*
X20218180Y-11333112D01*
X20213615Y-11379468D01*
X20201884Y-11418138D01*
X20182834Y-11453777D01*
X20157197Y-11485017D01*
X20125957Y-11510654D01*
X20090318Y-11529704D01*
X20051648Y-11541435D01*
X20005292Y-11546000D01*
X19354068Y-11546000D01*
X19307712Y-11541435D01*
X19269042Y-11529704D01*
X19233403Y-11510654D01*
X19202163Y-11485017D01*
X19176526Y-11453777D01*
X19157476Y-11418138D01*
X19145745Y-11379468D01*
X19141180Y-11333112D01*
X19141180Y-10256888D01*
X19145745Y-10210532D01*
X19157476Y-10171862D01*
X19176526Y-10136223D01*
X19202163Y-10104983D01*
X19233403Y-10079346D01*
X19269042Y-10060296D01*
X19307712Y-10048565D01*
X19354068Y-10044000D01*
X20005292Y-10044000D01*
X20051648Y-10048565D01*
G37*
G36*
X21926648Y-10048565D02*
G01*
X21965318Y-10060296D01*
X22000957Y-10079346D01*
X22032197Y-10104983D01*
X22057834Y-10136223D01*
X22076884Y-10171862D01*
X22088615Y-10210532D01*
X22093180Y-10256888D01*
X22093180Y-11333112D01*
X22088615Y-11379468D01*
X22076884Y-11418138D01*
X22057834Y-11453777D01*
X22032197Y-11485017D01*
X22000957Y-11510654D01*
X21965318Y-11529704D01*
X21926648Y-11541435D01*
X21880292Y-11546000D01*
X21229068Y-11546000D01*
X21182712Y-11541435D01*
X21144042Y-11529704D01*
X21108403Y-11510654D01*
X21077163Y-11485017D01*
X21051526Y-11453777D01*
X21032476Y-11418138D01*
X21020745Y-11379468D01*
X21016180Y-11333112D01*
X21016180Y-10256888D01*
X21020745Y-10210532D01*
X21032476Y-10171862D01*
X21051526Y-10136223D01*
X21077163Y-10104983D01*
X21108403Y-10079346D01*
X21144042Y-10060296D01*
X21182712Y-10048565D01*
X21229068Y-10044000D01*
X21880292Y-10044000D01*
X21926648Y-10048565D01*
G37*
G36*
X24940798Y-10533396D02*
G01*
X24961417Y-10539651D01*
X24980413Y-10549804D01*
X24997068Y-10563472D01*
X25010736Y-10580127D01*
X25020889Y-10599123D01*
X25027144Y-10619742D01*
X25029860Y-10647320D01*
X25029860Y-11156040D01*
X25027144Y-11183618D01*
X25020889Y-11204237D01*
X25010736Y-11223233D01*
X24997068Y-11239888D01*
X24980413Y-11253556D01*
X24961417Y-11263709D01*
X24940798Y-11269964D01*
X24913220Y-11272680D01*
X24454500Y-11272680D01*
X24426922Y-11269964D01*
X24406303Y-11263709D01*
X24387307Y-11253556D01*
X24370652Y-11239888D01*
X24356984Y-11223233D01*
X24346831Y-11204237D01*
X24340576Y-11183618D01*
X24337860Y-11156040D01*
X24337860Y-10647320D01*
X24340576Y-10619742D01*
X24346831Y-10599123D01*
X24356984Y-10580127D01*
X24370652Y-10563472D01*
X24387307Y-10549804D01*
X24406303Y-10539651D01*
X24426922Y-10533396D01*
X24454500Y-10530680D01*
X24913220Y-10530680D01*
X24940798Y-10533396D01*
G37*
G36*
X25910798Y-10533396D02*
G01*
X25931417Y-10539651D01*
X25950413Y-10549804D01*
X25967068Y-10563472D01*
X25980736Y-10580127D01*
X25990889Y-10599123D01*
X25997144Y-10619742D01*
X25999860Y-10647320D01*
X25999860Y-11156040D01*
X25997144Y-11183618D01*
X25990889Y-11204237D01*
X25980736Y-11223233D01*
X25967068Y-11239888D01*
X25950413Y-11253556D01*
X25931417Y-11263709D01*
X25910798Y-11269964D01*
X25883220Y-11272680D01*
X25424500Y-11272680D01*
X25396922Y-11269964D01*
X25376303Y-11263709D01*
X25357307Y-11253556D01*
X25340652Y-11239888D01*
X25326984Y-11223233D01*
X25316831Y-11204237D01*
X25310576Y-11183618D01*
X25307860Y-11156040D01*
X25307860Y-10647320D01*
X25310576Y-10619742D01*
X25316831Y-10599123D01*
X25326984Y-10580127D01*
X25340652Y-10563472D01*
X25357307Y-10549804D01*
X25376303Y-10539651D01*
X25396922Y-10533396D01*
X25424500Y-10530680D01*
X25883220Y-10530680D01*
X25910798Y-10533396D01*
G37*
G36*
X24940798Y-9405636D02*
G01*
X24961417Y-9411891D01*
X24980413Y-9422044D01*
X24997068Y-9435712D01*
X25010736Y-9452367D01*
X25020889Y-9471363D01*
X25027144Y-9491982D01*
X25029860Y-9519560D01*
X25029860Y-10028280D01*
X25027144Y-10055858D01*
X25020889Y-10076477D01*
X25010736Y-10095473D01*
X24997068Y-10112128D01*
X24980413Y-10125796D01*
X24961417Y-10135949D01*
X24940798Y-10142204D01*
X24913220Y-10144920D01*
X24454500Y-10144920D01*
X24426922Y-10142204D01*
X24406303Y-10135949D01*
X24387307Y-10125796D01*
X24370652Y-10112128D01*
X24356984Y-10095473D01*
X24346831Y-10076477D01*
X24340576Y-10055858D01*
X24337860Y-10028280D01*
X24337860Y-9519560D01*
X24340576Y-9491982D01*
X24346831Y-9471363D01*
X24356984Y-9452367D01*
X24370652Y-9435712D01*
X24387307Y-9422044D01*
X24406303Y-9411891D01*
X24426922Y-9405636D01*
X24454500Y-9402920D01*
X24913220Y-9402920D01*
X24940798Y-9405636D01*
G37*
G36*
X25910798Y-9405636D02*
G01*
X25931417Y-9411891D01*
X25950413Y-9422044D01*
X25967068Y-9435712D01*
X25980736Y-9452367D01*
X25990889Y-9471363D01*
X25997144Y-9491982D01*
X25999860Y-9519560D01*
X25999860Y-10028280D01*
X25997144Y-10055858D01*
X25990889Y-10076477D01*
X25980736Y-10095473D01*
X25967068Y-10112128D01*
X25950413Y-10125796D01*
X25931417Y-10135949D01*
X25910798Y-10142204D01*
X25883220Y-10144920D01*
X25424500Y-10144920D01*
X25396922Y-10142204D01*
X25376303Y-10135949D01*
X25357307Y-10125796D01*
X25340652Y-10112128D01*
X25326984Y-10095473D01*
X25316831Y-10076477D01*
X25310576Y-10055858D01*
X25307860Y-10028280D01*
X25307860Y-9519560D01*
X25310576Y-9491982D01*
X25316831Y-9471363D01*
X25326984Y-9452367D01*
X25340652Y-9435712D01*
X25357307Y-9422044D01*
X25376303Y-9411891D01*
X25396922Y-9405636D01*
X25424500Y-9402920D01*
X25883220Y-9402920D01*
X25910798Y-9405636D01*
G37*
G36*
X20429758Y-8831596D02*
G01*
X20450377Y-8837851D01*
X20469373Y-8848004D01*
X20486028Y-8861672D01*
X20499696Y-8878327D01*
X20509849Y-8897323D01*
X20516104Y-8917942D01*
X20518820Y-8945520D01*
X20518820Y-9454240D01*
X20516104Y-9481818D01*
X20509849Y-9502437D01*
X20499696Y-9521433D01*
X20486028Y-9538088D01*
X20469373Y-9551756D01*
X20450377Y-9561909D01*
X20429758Y-9568164D01*
X20402180Y-9570880D01*
X19943460Y-9570880D01*
X19915882Y-9568164D01*
X19895263Y-9561909D01*
X19876267Y-9551756D01*
X19859612Y-9538088D01*
X19845944Y-9521433D01*
X19835791Y-9502437D01*
X19829536Y-9481818D01*
X19826820Y-9454240D01*
X19826820Y-8945520D01*
X19829536Y-8917942D01*
X19835791Y-8897323D01*
X19845944Y-8878327D01*
X19859612Y-8861672D01*
X19876267Y-8848004D01*
X19895263Y-8837851D01*
X19915882Y-8831596D01*
X19943460Y-8828880D01*
X20402180Y-8828880D01*
X20429758Y-8831596D01*
G37*
G36*
X21399758Y-8831596D02*
G01*
X21420377Y-8837851D01*
X21439373Y-8848004D01*
X21456028Y-8861672D01*
X21469696Y-8878327D01*
X21479849Y-8897323D01*
X21486104Y-8917942D01*
X21488820Y-8945520D01*
X21488820Y-9454240D01*
X21486104Y-9481818D01*
X21479849Y-9502437D01*
X21469696Y-9521433D01*
X21456028Y-9538088D01*
X21439373Y-9551756D01*
X21420377Y-9561909D01*
X21399758Y-9568164D01*
X21372180Y-9570880D01*
X20913460Y-9570880D01*
X20885882Y-9568164D01*
X20865263Y-9561909D01*
X20846267Y-9551756D01*
X20829612Y-9538088D01*
X20815944Y-9521433D01*
X20805791Y-9502437D01*
X20799536Y-9481818D01*
X20796820Y-9454240D01*
X20796820Y-8945520D01*
X20799536Y-8917942D01*
X20805791Y-8897323D01*
X20815944Y-8878327D01*
X20829612Y-8861672D01*
X20846267Y-8848004D01*
X20865263Y-8837851D01*
X20885882Y-8831596D01*
X20913460Y-8828880D01*
X21372180Y-8828880D01*
X21399758Y-8831596D01*
G37*
G36*
X28172892Y-7480847D02*
G01*
X28322192Y-7510544D01*
X28486164Y-7578464D01*
X28633734Y-7677067D01*
X28759233Y-7802566D01*
X28857836Y-7950136D01*
X28925756Y-8114108D01*
X28960380Y-8288179D01*
X28960380Y-8465661D01*
X28925756Y-8639732D01*
X28857836Y-8803704D01*
X28759233Y-8951274D01*
X28633734Y-9076773D01*
X28486164Y-9175376D01*
X28322192Y-9243296D01*
X28172892Y-9272993D01*
X28148122Y-9277920D01*
X27970638Y-9277920D01*
X27945868Y-9272993D01*
X27796568Y-9243296D01*
X27632596Y-9175376D01*
X27485026Y-9076773D01*
X27359527Y-8951274D01*
X27260924Y-8803704D01*
X27193004Y-8639732D01*
X27158380Y-8465661D01*
X27158380Y-8288179D01*
X27193004Y-8114108D01*
X27260924Y-7950136D01*
X27359527Y-7802566D01*
X27485026Y-7677067D01*
X27632596Y-7578464D01*
X27796568Y-7510544D01*
X27945868Y-7480847D01*
X27970638Y-7475920D01*
X28148122Y-7475920D01*
X28172892Y-7480847D01*
G37*
G36*
X30712892Y-7480847D02*
G01*
X30862192Y-7510544D01*
X31026164Y-7578464D01*
X31173734Y-7677067D01*
X31299233Y-7802566D01*
X31397836Y-7950136D01*
X31465756Y-8114108D01*
X31500380Y-8288179D01*
X31500380Y-8465661D01*
X31465756Y-8639732D01*
X31397836Y-8803704D01*
X31299233Y-8951274D01*
X31173734Y-9076773D01*
X31026164Y-9175376D01*
X30862192Y-9243296D01*
X30712892Y-9272993D01*
X30688122Y-9277920D01*
X30510638Y-9277920D01*
X30485868Y-9272993D01*
X30336568Y-9243296D01*
X30172596Y-9175376D01*
X30025026Y-9076773D01*
X29899527Y-8951274D01*
X29800924Y-8803704D01*
X29733004Y-8639732D01*
X29698380Y-8465661D01*
X29698380Y-8288179D01*
X29733004Y-8114108D01*
X29800924Y-7950136D01*
X29899527Y-7802566D01*
X30025026Y-7677067D01*
X30172596Y-7578464D01*
X30336568Y-7510544D01*
X30485868Y-7480847D01*
X30510638Y-7475920D01*
X30688122Y-7475920D01*
X30712892Y-7480847D01*
G37*
G36*
X4085021Y-7791214D02*
G01*
X4185295Y-7832749D01*
X4230112Y-7862695D01*
X4275542Y-7893050D01*
X4352290Y-7969798D01*
X4352291Y-7969800D01*
X4412591Y-8060045D01*
X4454126Y-8160319D01*
X4475300Y-8266770D01*
X4475300Y-8375310D01*
X4454126Y-8481761D01*
X4412591Y-8582035D01*
X4412590Y-8582036D01*
X4352290Y-8672282D01*
X4275542Y-8749030D01*
X4230112Y-8779385D01*
X4185295Y-8809331D01*
X4085021Y-8850866D01*
X3978570Y-8872040D01*
X3870030Y-8872040D01*
X3763579Y-8850866D01*
X3663305Y-8809331D01*
X3618488Y-8779385D01*
X3573058Y-8749030D01*
X3496310Y-8672282D01*
X3436010Y-8582036D01*
X3436009Y-8582035D01*
X3394474Y-8481761D01*
X3373300Y-8375310D01*
X3373300Y-8266770D01*
X3394474Y-8160319D01*
X3436009Y-8060045D01*
X3496309Y-7969800D01*
X3496310Y-7969798D01*
X3573058Y-7893050D01*
X3618488Y-7862695D01*
X3663305Y-7832749D01*
X3763579Y-7791214D01*
X3870030Y-7770040D01*
X3978570Y-7770040D01*
X4085021Y-7791214D01*
G37*
G36*
X21404838Y-7810516D02*
G01*
X21425457Y-7816771D01*
X21444453Y-7826924D01*
X21461108Y-7840592D01*
X21474776Y-7857247D01*
X21484929Y-7876243D01*
X21491184Y-7896862D01*
X21493900Y-7924440D01*
X21493900Y-8433160D01*
X21491184Y-8460738D01*
X21484929Y-8481357D01*
X21474776Y-8500353D01*
X21461108Y-8517008D01*
X21444453Y-8530676D01*
X21425457Y-8540829D01*
X21404838Y-8547084D01*
X21377260Y-8549800D01*
X20918540Y-8549800D01*
X20890962Y-8547084D01*
X20870343Y-8540829D01*
X20851347Y-8530676D01*
X20834692Y-8517008D01*
X20821024Y-8500353D01*
X20810871Y-8481357D01*
X20804616Y-8460738D01*
X20801900Y-8433160D01*
X20801900Y-7924440D01*
X20804616Y-7896862D01*
X20810871Y-7876243D01*
X20821024Y-7857247D01*
X20834692Y-7840592D01*
X20851347Y-7826924D01*
X20870343Y-7816771D01*
X20890962Y-7810516D01*
X20918540Y-7807800D01*
X21377260Y-7807800D01*
X21404838Y-7810516D01*
G37*
G36*
X20434838Y-7810516D02*
G01*
X20455457Y-7816771D01*
X20474453Y-7826924D01*
X20491108Y-7840592D01*
X20504776Y-7857247D01*
X20514929Y-7876243D01*
X20521184Y-7896862D01*
X20523900Y-7924440D01*
X20523900Y-8433160D01*
X20521184Y-8460738D01*
X20514929Y-8481357D01*
X20504776Y-8500353D01*
X20491108Y-8517008D01*
X20474453Y-8530676D01*
X20455457Y-8540829D01*
X20434838Y-8547084D01*
X20407260Y-8549800D01*
X19948540Y-8549800D01*
X19920962Y-8547084D01*
X19900343Y-8540829D01*
X19881347Y-8530676D01*
X19864692Y-8517008D01*
X19851024Y-8500353D01*
X19840871Y-8481357D01*
X19834616Y-8460738D01*
X19831900Y-8433160D01*
X19831900Y-7924440D01*
X19834616Y-7896862D01*
X19840871Y-7876243D01*
X19851024Y-7857247D01*
X19864692Y-7840592D01*
X19881347Y-7826924D01*
X19900343Y-7816771D01*
X19920962Y-7810516D01*
X19948540Y-7807800D01*
X20407260Y-7807800D01*
X20434838Y-7810516D01*
G37*
G36*
X67811323Y-2090368D02*
G01*
X68366569Y-2320358D01*
X68531475Y-2430545D01*
X68866279Y-2654254D01*
X69291246Y-3079221D01*
X69439820Y-3301578D01*
X69625142Y-3578931D01*
X69855132Y-4134177D01*
X69972380Y-4723621D01*
X69972380Y-5324619D01*
X69855132Y-5914063D01*
X69625142Y-6469309D01*
X69459328Y-6717467D01*
X69291246Y-6969019D01*
X68866279Y-7393986D01*
X68743656Y-7475920D01*
X68366569Y-7727882D01*
X67811323Y-7957872D01*
X67221879Y-8075120D01*
X66620881Y-8075120D01*
X66031437Y-7957872D01*
X65476191Y-7727882D01*
X65099104Y-7475920D01*
X64976481Y-7393986D01*
X64551514Y-6969019D01*
X64383432Y-6717467D01*
X64217618Y-6469309D01*
X63987628Y-5914063D01*
X63870380Y-5324619D01*
X63870380Y-4723621D01*
X63987628Y-4134177D01*
X64217618Y-3578931D01*
X64402940Y-3301578D01*
X64551514Y-3079221D01*
X64976481Y-2654254D01*
X65311285Y-2430545D01*
X65476191Y-2320358D01*
X66031437Y-2090368D01*
X66620881Y-1973120D01*
X67221879Y-1973120D01*
X67811323Y-2090368D01*
G37*
G36*
X36823323Y-2090368D02*
G01*
X37378569Y-2320358D01*
X37543475Y-2430545D01*
X37878279Y-2654254D01*
X38303246Y-3079221D01*
X38451820Y-3301578D01*
X38637142Y-3578931D01*
X38867132Y-4134177D01*
X38984380Y-4723621D01*
X38984380Y-5324619D01*
X38867132Y-5914063D01*
X38637142Y-6469309D01*
X38471328Y-6717467D01*
X38303246Y-6969019D01*
X37878279Y-7393986D01*
X37755656Y-7475920D01*
X37378569Y-7727882D01*
X36823323Y-7957872D01*
X36233879Y-8075120D01*
X35632881Y-8075120D01*
X35043437Y-7957872D01*
X34488191Y-7727882D01*
X34111104Y-7475920D01*
X33988481Y-7393986D01*
X33563514Y-6969019D01*
X33395432Y-6717467D01*
X33229618Y-6469309D01*
X32999628Y-5914063D01*
X32882380Y-5324619D01*
X32882380Y-4723621D01*
X32999628Y-4134177D01*
X33229618Y-3578931D01*
X33414940Y-3301578D01*
X33563514Y-3079221D01*
X33988481Y-2654254D01*
X34323285Y-2430545D01*
X34488191Y-2320358D01*
X35043437Y-2090368D01*
X35632881Y-1973120D01*
X36233879Y-1973120D01*
X36823323Y-2090368D01*
G37*
G36*
X28172892Y-4940847D02*
G01*
X28322192Y-4970544D01*
X28486164Y-5038464D01*
X28633734Y-5137067D01*
X28759233Y-5262566D01*
X28857836Y-5410136D01*
X28925756Y-5574108D01*
X28960380Y-5748179D01*
X28960380Y-5925661D01*
X28925756Y-6099732D01*
X28857836Y-6263704D01*
X28759233Y-6411274D01*
X28633734Y-6536773D01*
X28486164Y-6635376D01*
X28322192Y-6703296D01*
X28172892Y-6732993D01*
X28148122Y-6737920D01*
X27970638Y-6737920D01*
X27945868Y-6732993D01*
X27796568Y-6703296D01*
X27632596Y-6635376D01*
X27485026Y-6536773D01*
X27359527Y-6411274D01*
X27260924Y-6263704D01*
X27193004Y-6099732D01*
X27158380Y-5925661D01*
X27158380Y-5748179D01*
X27193004Y-5574108D01*
X27260924Y-5410136D01*
X27359527Y-5262566D01*
X27485026Y-5137067D01*
X27632596Y-5038464D01*
X27796568Y-4970544D01*
X27945868Y-4940847D01*
X27970638Y-4935920D01*
X28148122Y-4935920D01*
X28172892Y-4940847D01*
G37*
G36*
X30712892Y-4940847D02*
G01*
X30862192Y-4970544D01*
X31026164Y-5038464D01*
X31173734Y-5137067D01*
X31299233Y-5262566D01*
X31397836Y-5410136D01*
X31465756Y-5574108D01*
X31500380Y-5748179D01*
X31500380Y-5925661D01*
X31465756Y-6099732D01*
X31397836Y-6263704D01*
X31299233Y-6411274D01*
X31173734Y-6536773D01*
X31026164Y-6635376D01*
X30862192Y-6703296D01*
X30712892Y-6732993D01*
X30688122Y-6737920D01*
X30510638Y-6737920D01*
X30485868Y-6732993D01*
X30336568Y-6703296D01*
X30172596Y-6635376D01*
X30025026Y-6536773D01*
X29899527Y-6411274D01*
X29800924Y-6263704D01*
X29733004Y-6099732D01*
X29698380Y-5925661D01*
X29698380Y-5748179D01*
X29733004Y-5574108D01*
X29800924Y-5410136D01*
X29899527Y-5262566D01*
X30025026Y-5137067D01*
X30172596Y-5038464D01*
X30336568Y-4970544D01*
X30485868Y-4940847D01*
X30510638Y-4935920D01*
X30688122Y-4935920D01*
X30712892Y-4940847D01*
G37*
G36*
X4085021Y-4656854D02*
G01*
X4185295Y-4698389D01*
X4185296Y-4698390D01*
X4275542Y-4758690D01*
X4352290Y-4835438D01*
X4352291Y-4835440D01*
X4412591Y-4925685D01*
X4454126Y-5025959D01*
X4475300Y-5132410D01*
X4475300Y-5240950D01*
X4454126Y-5347401D01*
X4412591Y-5447675D01*
X4394253Y-5475120D01*
X4352290Y-5537922D01*
X4275542Y-5614670D01*
X4230112Y-5645025D01*
X4185295Y-5674971D01*
X4085021Y-5716506D01*
X3978570Y-5737680D01*
X3870030Y-5737680D01*
X3763579Y-5716506D01*
X3663305Y-5674971D01*
X3618488Y-5645025D01*
X3573058Y-5614670D01*
X3496310Y-5537922D01*
X3454347Y-5475120D01*
X3436009Y-5447675D01*
X3394474Y-5347401D01*
X3373300Y-5240950D01*
X3373300Y-5132410D01*
X3394474Y-5025959D01*
X3436009Y-4925685D01*
X3496309Y-4835440D01*
X3496310Y-4835438D01*
X3573058Y-4758690D01*
X3663304Y-4698390D01*
X3663305Y-4698389D01*
X3763579Y-4656854D01*
X3870030Y-4635680D01*
X3978570Y-4635680D01*
X4085021Y-4656854D01*
G37*
G36*
X30712892Y-2400847D02*
G01*
X30862192Y-2430544D01*
X31026164Y-2498464D01*
X31173734Y-2597067D01*
X31299233Y-2722566D01*
X31397836Y-2870136D01*
X31465756Y-3034108D01*
X31500380Y-3208179D01*
X31500380Y-3385661D01*
X31465756Y-3559732D01*
X31397836Y-3723704D01*
X31299233Y-3871274D01*
X31173734Y-3996773D01*
X31026164Y-4095376D01*
X30862192Y-4163296D01*
X30712892Y-4192993D01*
X30688122Y-4197920D01*
X30510638Y-4197920D01*
X30485868Y-4192993D01*
X30336568Y-4163296D01*
X30172596Y-4095376D01*
X30025026Y-3996773D01*
X29899527Y-3871274D01*
X29800924Y-3723704D01*
X29733004Y-3559732D01*
X29698380Y-3385661D01*
X29698380Y-3208179D01*
X29733004Y-3034108D01*
X29800924Y-2870136D01*
X29899527Y-2722566D01*
X30025026Y-2597067D01*
X30172596Y-2498464D01*
X30336568Y-2430544D01*
X30485868Y-2400847D01*
X30510638Y-2395920D01*
X30688122Y-2395920D01*
X30712892Y-2400847D01*
G37*
G36*
X28960380Y-4197920D02*
G01*
X27158380Y-4197920D01*
X27158380Y-2395920D01*
X28960380Y-2395920D01*
X28960380Y-4197920D01*
G37*
M02*
