G04 #@! TF.GenerationSoftware,KiCad,Pcbnew,(5.1.6)-1*
G04 #@! TF.CreationDate,2020-07-13T18:59:41-07:00*
G04 #@! TF.ProjectId,Mycroft - Mark 2,4d796372-6f66-4742-902d-204d61726b20,rev?*
G04 #@! TF.SameCoordinates,Original*
G04 #@! TF.FileFunction,Paste,Bot*
G04 #@! TF.FilePolarity,Positive*
%FSLAX46Y46*%
G04 Gerber Fmt 4.6, Leading zero omitted, Abs format (unit mm)*
G04 Created by KiCad (PCBNEW (5.1.6)-1) date 2020-07-13 18:59:41*
%MOMM*%
%LPD*%
G01*
G04 APERTURE LIST*
%ADD10R,0.800000X1.000000*%
%ADD11R,1.500000X0.700000*%
%ADD12R,1.200000X0.600000*%
%ADD13R,1.700000X1.000000*%
%ADD14R,2.300000X0.350000*%
%ADD15R,0.350000X1.300000*%
%ADD16R,0.950000X0.400000*%
G04 APERTURE END LIST*
G36*
G01*
X23957800Y-85773550D02*
X23957800Y-86286050D01*
G75*
G02*
X23739050Y-86504800I-218750J0D01*
G01*
X23301550Y-86504800D01*
G75*
G02*
X23082800Y-86286050I0J218750D01*
G01*
X23082800Y-85773550D01*
G75*
G02*
X23301550Y-85554800I218750J0D01*
G01*
X23739050Y-85554800D01*
G75*
G02*
X23957800Y-85773550I0J-218750D01*
G01*
G37*
G36*
G01*
X25532800Y-85773550D02*
X25532800Y-86286050D01*
G75*
G02*
X25314050Y-86504800I-218750J0D01*
G01*
X24876550Y-86504800D01*
G75*
G02*
X24657800Y-86286050I0J218750D01*
G01*
X24657800Y-85773550D01*
G75*
G02*
X24876550Y-85554800I218750J0D01*
G01*
X25314050Y-85554800D01*
G75*
G02*
X25532800Y-85773550I0J-218750D01*
G01*
G37*
G36*
G01*
X23754600Y-15889682D02*
X23754600Y-16402182D01*
G75*
G02*
X23535850Y-16620932I-218750J0D01*
G01*
X23098350Y-16620932D01*
G75*
G02*
X22879600Y-16402182I0J218750D01*
G01*
X22879600Y-15889682D01*
G75*
G02*
X23098350Y-15670932I218750J0D01*
G01*
X23535850Y-15670932D01*
G75*
G02*
X23754600Y-15889682I0J-218750D01*
G01*
G37*
G36*
G01*
X25329600Y-15889682D02*
X25329600Y-16402182D01*
G75*
G02*
X25110850Y-16620932I-218750J0D01*
G01*
X24673350Y-16620932D01*
G75*
G02*
X24454600Y-16402182I0J218750D01*
G01*
X24454600Y-15889682D01*
G75*
G02*
X24673350Y-15670932I218750J0D01*
G01*
X25110850Y-15670932D01*
G75*
G02*
X25329600Y-15889682I0J-218750D01*
G01*
G37*
D10*
X12006800Y-87470000D03*
X12006800Y-80170000D03*
X9796800Y-80170000D03*
X9796800Y-87470000D03*
D11*
X12656800Y-81570000D03*
X12656800Y-83070000D03*
X12656800Y-86070000D03*
G36*
G01*
X26910800Y-84741800D02*
X26910800Y-84396800D01*
G75*
G02*
X27058300Y-84249300I147500J0D01*
G01*
X27353300Y-84249300D01*
G75*
G02*
X27500800Y-84396800I0J-147500D01*
G01*
X27500800Y-84741800D01*
G75*
G02*
X27353300Y-84889300I-147500J0D01*
G01*
X27058300Y-84889300D01*
G75*
G02*
X26910800Y-84741800I0J147500D01*
G01*
G37*
G36*
G01*
X25940800Y-84741800D02*
X25940800Y-84396800D01*
G75*
G02*
X26088300Y-84249300I147500J0D01*
G01*
X26383300Y-84249300D01*
G75*
G02*
X26530800Y-84396800I0J-147500D01*
G01*
X26530800Y-84741800D01*
G75*
G02*
X26383300Y-84889300I-147500J0D01*
G01*
X26088300Y-84889300D01*
G75*
G02*
X25940800Y-84741800I0J147500D01*
G01*
G37*
G36*
G01*
X26580600Y-14929900D02*
X26580600Y-14584900D01*
G75*
G02*
X26728100Y-14437400I147500J0D01*
G01*
X27023100Y-14437400D01*
G75*
G02*
X27170600Y-14584900I0J-147500D01*
G01*
X27170600Y-14929900D01*
G75*
G02*
X27023100Y-15077400I-147500J0D01*
G01*
X26728100Y-15077400D01*
G75*
G02*
X26580600Y-14929900I0J147500D01*
G01*
G37*
G36*
G01*
X25610600Y-14929900D02*
X25610600Y-14584900D01*
G75*
G02*
X25758100Y-14437400I147500J0D01*
G01*
X26053100Y-14437400D01*
G75*
G02*
X26200600Y-14584900I0J-147500D01*
G01*
X26200600Y-14929900D01*
G75*
G02*
X26053100Y-15077400I-147500J0D01*
G01*
X25758100Y-15077400D01*
G75*
G02*
X25610600Y-14929900I0J147500D01*
G01*
G37*
G36*
G01*
X26910800Y-83268600D02*
X26910800Y-82923600D01*
G75*
G02*
X27058300Y-82776100I147500J0D01*
G01*
X27353300Y-82776100D01*
G75*
G02*
X27500800Y-82923600I0J-147500D01*
G01*
X27500800Y-83268600D01*
G75*
G02*
X27353300Y-83416100I-147500J0D01*
G01*
X27058300Y-83416100D01*
G75*
G02*
X26910800Y-83268600I0J147500D01*
G01*
G37*
G36*
G01*
X25940800Y-83268600D02*
X25940800Y-82923600D01*
G75*
G02*
X26088300Y-82776100I147500J0D01*
G01*
X26383300Y-82776100D01*
G75*
G02*
X26530800Y-82923600I0J-147500D01*
G01*
X26530800Y-83268600D01*
G75*
G02*
X26383300Y-83416100I-147500J0D01*
G01*
X26088300Y-83416100D01*
G75*
G02*
X25940800Y-83268600I0J147500D01*
G01*
G37*
G36*
G01*
X26603600Y-13507500D02*
X26603600Y-13162500D01*
G75*
G02*
X26751100Y-13015000I147500J0D01*
G01*
X27046100Y-13015000D01*
G75*
G02*
X27193600Y-13162500I0J-147500D01*
G01*
X27193600Y-13507500D01*
G75*
G02*
X27046100Y-13655000I-147500J0D01*
G01*
X26751100Y-13655000D01*
G75*
G02*
X26603600Y-13507500I0J147500D01*
G01*
G37*
G36*
G01*
X25633600Y-13507500D02*
X25633600Y-13162500D01*
G75*
G02*
X25781100Y-13015000I147500J0D01*
G01*
X26076100Y-13015000D01*
G75*
G02*
X26223600Y-13162500I0J-147500D01*
G01*
X26223600Y-13507500D01*
G75*
G02*
X26076100Y-13655000I-147500J0D01*
G01*
X25781100Y-13655000D01*
G75*
G02*
X25633600Y-13507500I0J147500D01*
G01*
G37*
G36*
G01*
X36004000Y-37408900D02*
X36004000Y-37063900D01*
G75*
G02*
X36151500Y-36916400I147500J0D01*
G01*
X36446500Y-36916400D01*
G75*
G02*
X36594000Y-37063900I0J-147500D01*
G01*
X36594000Y-37408900D01*
G75*
G02*
X36446500Y-37556400I-147500J0D01*
G01*
X36151500Y-37556400D01*
G75*
G02*
X36004000Y-37408900I0J147500D01*
G01*
G37*
G36*
G01*
X35034000Y-37408900D02*
X35034000Y-37063900D01*
G75*
G02*
X35181500Y-36916400I147500J0D01*
G01*
X35476500Y-36916400D01*
G75*
G02*
X35624000Y-37063900I0J-147500D01*
G01*
X35624000Y-37408900D01*
G75*
G02*
X35476500Y-37556400I-147500J0D01*
G01*
X35181500Y-37556400D01*
G75*
G02*
X35034000Y-37408900I0J147500D01*
G01*
G37*
G36*
G01*
X24497800Y-83306700D02*
X24497800Y-82961700D01*
G75*
G02*
X24645300Y-82814200I147500J0D01*
G01*
X24940300Y-82814200D01*
G75*
G02*
X25087800Y-82961700I0J-147500D01*
G01*
X25087800Y-83306700D01*
G75*
G02*
X24940300Y-83454200I-147500J0D01*
G01*
X24645300Y-83454200D01*
G75*
G02*
X24497800Y-83306700I0J147500D01*
G01*
G37*
G36*
G01*
X23527800Y-83306700D02*
X23527800Y-82961700D01*
G75*
G02*
X23675300Y-82814200I147500J0D01*
G01*
X23970300Y-82814200D01*
G75*
G02*
X24117800Y-82961700I0J-147500D01*
G01*
X24117800Y-83306700D01*
G75*
G02*
X23970300Y-83454200I-147500J0D01*
G01*
X23675300Y-83454200D01*
G75*
G02*
X23527800Y-83306700I0J147500D01*
G01*
G37*
G36*
G01*
X24497800Y-84729100D02*
X24497800Y-84384100D01*
G75*
G02*
X24645300Y-84236600I147500J0D01*
G01*
X24940300Y-84236600D01*
G75*
G02*
X25087800Y-84384100I0J-147500D01*
G01*
X25087800Y-84729100D01*
G75*
G02*
X24940300Y-84876600I-147500J0D01*
G01*
X24645300Y-84876600D01*
G75*
G02*
X24497800Y-84729100I0J147500D01*
G01*
G37*
G36*
G01*
X23527800Y-84729100D02*
X23527800Y-84384100D01*
G75*
G02*
X23675300Y-84236600I147500J0D01*
G01*
X23970300Y-84236600D01*
G75*
G02*
X24117800Y-84384100I0J-147500D01*
G01*
X24117800Y-84729100D01*
G75*
G02*
X23970300Y-84876600I-147500J0D01*
G01*
X23675300Y-84876600D01*
G75*
G02*
X23527800Y-84729100I0J147500D01*
G01*
G37*
G36*
G01*
X24294600Y-13507500D02*
X24294600Y-13162500D01*
G75*
G02*
X24442100Y-13015000I147500J0D01*
G01*
X24737100Y-13015000D01*
G75*
G02*
X24884600Y-13162500I0J-147500D01*
G01*
X24884600Y-13507500D01*
G75*
G02*
X24737100Y-13655000I-147500J0D01*
G01*
X24442100Y-13655000D01*
G75*
G02*
X24294600Y-13507500I0J147500D01*
G01*
G37*
G36*
G01*
X23324600Y-13507500D02*
X23324600Y-13162500D01*
G75*
G02*
X23472100Y-13015000I147500J0D01*
G01*
X23767100Y-13015000D01*
G75*
G02*
X23914600Y-13162500I0J-147500D01*
G01*
X23914600Y-13507500D01*
G75*
G02*
X23767100Y-13655000I-147500J0D01*
G01*
X23472100Y-13655000D01*
G75*
G02*
X23324600Y-13507500I0J147500D01*
G01*
G37*
G36*
G01*
X23914600Y-14567966D02*
X23914600Y-14912966D01*
G75*
G02*
X23767100Y-15060466I-147500J0D01*
G01*
X23472100Y-15060466D01*
G75*
G02*
X23324600Y-14912966I0J147500D01*
G01*
X23324600Y-14567966D01*
G75*
G02*
X23472100Y-14420466I147500J0D01*
G01*
X23767100Y-14420466D01*
G75*
G02*
X23914600Y-14567966I0J-147500D01*
G01*
G37*
G36*
G01*
X24884600Y-14567966D02*
X24884600Y-14912966D01*
G75*
G02*
X24737100Y-15060466I-147500J0D01*
G01*
X24442100Y-15060466D01*
G75*
G02*
X24294600Y-14912966I0J147500D01*
G01*
X24294600Y-14567966D01*
G75*
G02*
X24442100Y-14420466I147500J0D01*
G01*
X24737100Y-14420466D01*
G75*
G02*
X24884600Y-14567966I0J-147500D01*
G01*
G37*
D12*
X22833200Y-61704400D03*
X22833200Y-60604400D03*
X22833200Y-59504400D03*
X25833200Y-61704400D03*
X25833200Y-60604400D03*
X25833200Y-59504400D03*
D13*
X12192400Y-61854000D03*
X5892400Y-61854000D03*
X12192400Y-65654000D03*
X5892400Y-65654000D03*
X12294000Y-41788000D03*
X5994000Y-41788000D03*
X12294000Y-45588000D03*
X5994000Y-45588000D03*
X12852800Y-21976000D03*
X6552800Y-21976000D03*
X12852800Y-25776000D03*
X6552800Y-25776000D03*
D14*
X25196800Y-87421000D03*
X25196800Y-89871000D03*
D15*
X26921800Y-88646000D03*
X23471800Y-88646000D03*
D16*
X25871800Y-89071000D03*
X25871800Y-88221000D03*
X24521800Y-88221000D03*
X24521800Y-89071000D03*
D14*
X25196800Y-17571000D03*
X25196800Y-20021000D03*
D15*
X26921800Y-18796000D03*
X23471800Y-18796000D03*
D16*
X25871800Y-19221000D03*
X25871800Y-18371000D03*
X24521800Y-18371000D03*
X24521800Y-19221000D03*
D12*
X37720400Y-38930400D03*
X37720400Y-40030400D03*
X37720400Y-41130400D03*
X34720400Y-38930400D03*
X34720400Y-40030400D03*
X34720400Y-41130400D03*
X27202000Y-41892400D03*
X27202000Y-40792400D03*
X27202000Y-39692400D03*
X30202000Y-41892400D03*
X30202000Y-40792400D03*
X30202000Y-39692400D03*
X25884000Y-45788400D03*
X25884000Y-46888400D03*
X25884000Y-47988400D03*
X22884000Y-45788400D03*
X22884000Y-46888400D03*
X22884000Y-47988400D03*
X19734400Y-54846400D03*
X19734400Y-53746400D03*
X19734400Y-52646400D03*
X22734400Y-54846400D03*
X22734400Y-53746400D03*
X22734400Y-52646400D03*
X30252800Y-65549600D03*
X30252800Y-66649600D03*
X30252800Y-67749600D03*
X27252800Y-65549600D03*
X27252800Y-66649600D03*
X27252800Y-67749600D03*
X34720400Y-68410000D03*
X34720400Y-67310000D03*
X34720400Y-66210000D03*
X37720400Y-68410000D03*
X37720400Y-67310000D03*
X37720400Y-66210000D03*
X45238800Y-65600400D03*
X45238800Y-66700400D03*
X45238800Y-67800400D03*
X42238800Y-65600400D03*
X42238800Y-66700400D03*
X42238800Y-67800400D03*
X46607600Y-61602800D03*
X46607600Y-60502800D03*
X46607600Y-59402800D03*
X49607600Y-61602800D03*
X49607600Y-60502800D03*
X49607600Y-59402800D03*
X52706400Y-52595600D03*
X52706400Y-53695600D03*
X52706400Y-54795600D03*
X49706400Y-52595600D03*
X49706400Y-53695600D03*
X49706400Y-54795600D03*
X46556800Y-47988400D03*
X46556800Y-46888400D03*
X46556800Y-45788400D03*
X49556800Y-47988400D03*
X49556800Y-46888400D03*
X49556800Y-45788400D03*
X45188000Y-39590800D03*
X45188000Y-40690800D03*
X45188000Y-41790800D03*
X42188000Y-39590800D03*
X42188000Y-40690800D03*
X42188000Y-41790800D03*
M02*
