M48
; DRILL file {KiCad (5.1.6)-1} date 08/17/20 08:46:22
; FORMAT={-:-/ absolute / inch / decimal}
; #@! TF.CreationDate,2020-08-17T08:46:22-07:00
; #@! TF.GenerationSoftware,Kicad,Pcbnew,(5.1.6)-1
; #@! TF.FileFunction,Plated,1,4,PTH
FMAT,2
INCH
T1C0.0118
T2C0.0157
T3C0.0197
T4C0.0236
T5C0.0394
T6C0.1181
%
G90
G05
T1
X0.6772Y-2.7603
X0.6772Y-2.7997
X0.6772Y-2.8391
X0.6772Y-2.8784
X0.6772Y-2.9178
X0.7166Y-2.7603
X0.7166Y-2.7997
X0.7166Y-2.8391
X0.7166Y-2.8784
X0.7166Y-2.9178
X0.756Y-2.7603
X0.756Y-2.7997
X0.756Y-2.8391
X0.756Y-2.8784
X0.756Y-2.9178
X0.7953Y-2.7603
X0.7953Y-2.7997
X0.7953Y-2.8391
X0.7953Y-2.8784
X0.7953Y-2.9178
X0.8347Y-2.7603
X0.8347Y-2.7997
X0.8347Y-2.8391
X0.8347Y-2.8784
T2
X0.0477Y-2.6156
X0.0582Y-2.22
X0.0687Y-2.1248
X0.0747Y-1.475
X0.0839Y-1.2402
X0.0985Y-1.0976
X0.1007Y-1.5502
X0.1013Y-0.743
X0.1021Y-2.3184
X0.1149Y-1.3444
X0.1171Y-1.1914
X0.1193Y-1.7592
X0.1207Y-1.9964
X0.1227Y-1.8898
X0.1273Y-2.872
X0.1297Y-2.2752
X0.1331Y-2.0898
X0.1524Y-3.5087
X0.1531Y-1.4876
X0.1575Y-1.2402
X0.1649Y-0.9276
X0.1673Y-3.1038
X0.1783Y-1.1914
X0.1933Y-3.504
X0.1933Y-2.5536
X0.1995Y-2.7314
X0.2019Y-2.4658
X0.2029Y-1.3158
X0.2085Y-1.5216
X0.2265Y-2.9166
X0.2309Y-0.2384
X0.2423Y-0.054
X0.2468Y-3.3326
X0.2519Y-0.7318
X0.2637Y-1.7166
X0.2641Y-1.2876
X0.2643Y-3.3634
X0.2689Y-1.8868
X0.2703Y-1.7922
X0.2712Y-3.4075
X0.2835Y-1.139
X0.2871Y-0.9716
X0.2889Y-1.9854
X0.2993Y-3.0178
X0.3019Y-3.1038
X0.3029Y-3.4532
X0.3041Y-2.7946
X0.3055Y-2.1782
X0.3154Y-2.0913
X0.3187Y-2.9388
X0.3197Y-2.4396
X0.322Y-2.5488
X0.3243Y-1.2985
X0.3452Y-2.8971
X0.3567Y-2.8384
X0.3901Y-2.5132
X0.4027Y-2.6202
X0.4177Y-0.162
X0.4235Y-2.8782
X0.4314Y-2.0801
X0.433Y-2.763
X0.4331Y-0.2876
X0.4477Y-2.4256
X0.4545Y-2.5786
X0.4579Y-2.9642
X0.4748Y-0.078
X0.4757Y-2.6735
X0.4805Y-3.4111
X0.5158Y-2.5508
X0.5243Y-3.5026
X0.5272Y-2.5019
X0.5287Y-0.9858
X0.5341Y-1.4906
X0.5341Y-2.1644
X0.5345Y-2.2216
X0.5503Y-3.0801
X0.552Y-2.9048
X0.5542Y-3.2283
X0.5553Y-3.3166
X0.5559Y-3.3614
X0.5586Y-2.9725
X0.5631Y-2.7603
X0.5647Y-0.2128
X0.5647Y-0.2828
X0.5669Y-0.9484
X0.5867Y-0.0518
X0.5971Y-2.6717
X0.6007Y-1.0792
X0.6027Y-0.8298
X0.6047Y-1.2458
X0.6052Y-0.9818
X0.6073Y-1.8046
X0.6146Y-1.0419
X0.6164Y-2.1068
X0.6165Y-0.1464
X0.619Y-0.6566
X0.619Y-0.7058
X0.6267Y-2.0535
X0.6268Y-2.0036
X0.6307Y-1.8656
X0.6347Y-0.2128
X0.6347Y-0.2828
X0.6387Y-0.8847
X0.6396Y-2.172
X0.6397Y-0.5168
X0.6397Y-0.5793
X0.6615Y-0.9627
X0.6671Y-2.1306
X0.678Y-0.6566
X0.678Y-0.7058
X0.6951Y-2.2134
X0.6989Y-2.4984
X0.706Y-3.2971
X0.7097Y-0.2128
X0.7097Y-0.2828
X0.7206Y-2.6232
X0.7252Y-2.5784
X0.7264Y-1.0551
X0.7339Y-2.2308
X0.734Y-2.1424
X0.734Y-2.2778
X0.7388Y-0.3219
X0.7394Y-3.0373
X0.7404Y-2.4168
X0.7419Y-0.9381
X0.7421Y-3.4028
X0.7474Y-3.1362
X0.7506Y-2.072
X0.7586Y-2.3715
X0.7589Y-2.3361
X0.7653Y-0.5168
X0.7675Y-1.3003
X0.7708Y-0.63
X0.773Y-2.5713
X0.7769Y-3.196
X0.7796Y-2.464
X0.7811Y-2.0377
X0.7835Y-1.7126
X0.7845Y-1.6676
X0.7874Y-1.622
X0.7877Y-1.7554
X0.7913Y-1.5709
X0.7913Y-1.7992
X0.7955Y-2.4144
X0.7978Y-1.2596
X0.8021Y-1.9248
X0.8105Y-0.5756
X0.8147Y-3.3284
X0.8212Y-3.3799
X0.824Y-0.9554
X0.8271Y-2.5625
X0.8305Y-1.7243
X0.8348Y-2.3137
X0.8516Y-3.2255
X0.8579Y-1.1685
X0.8588Y-3.3286
X0.8596Y-0.9004
X0.8602Y-1.2963
X0.8616Y-1.1153
X0.8627Y-0.2798
X0.8667Y-0.2178
X0.8675Y-3.0806
X0.8727Y-2.3517
X0.874Y-1.0591
X0.8807Y-2.6287
X0.8846Y-2.5317
X0.8865Y-3.3774
X0.8865Y-2.3908
X0.9004Y-3.0451
X0.9043Y-2.5754
X0.9068Y-0.6468
X0.9068Y-0.696
X0.9079Y-2.9808
X0.913Y-2.2215
X0.9139Y-3.2047
X0.9145Y-3.1314
X0.9201Y-2.6167
X0.9291Y-1.0039
X0.9327Y-0.2158
X0.9327Y-0.2798
X0.9345Y-0.4636
X0.9377Y-2.4634
X0.939Y-1.689
X0.9457Y-1.9277
X0.9487Y-1.8612
X0.9503Y-2.1492
X0.9535Y-2.9726
X0.9591Y-3.1698
X0.9658Y-0.6468
X0.9658Y-0.696
X0.9714Y-2.9398
X0.9717Y-1.4245
X0.9745Y-2.7342
X0.9838Y-1.8874
X0.9906Y-2.5912
X0.995Y-2.7029
X0.9987Y-0.2798
X1.0007Y-0.2158
X1.0047Y-3.2818
X1.0174Y-2.7578
X1.0251Y-3.0742
X1.0345Y-1.271
X1.0368Y-2.5803
X1.0375Y-2.6344
X1.0419Y-0.901
X1.0454Y-3.0093
X1.0565Y-2.0266
X1.0603Y-3.5162
X1.0733Y-2.5651
X1.0812Y-2.9723
X1.0828Y-0.4971
X1.0838Y-3.0528
X1.0851Y-0.5478
X1.0866Y-1.622
X1.0885Y-1.7932
X1.0885Y-3.2354
X1.0898Y-1.987
X1.0929Y-3.5564
X1.0984Y-1.685
X1.1056Y-2.2621
X1.1068Y-2.3069
X1.1082Y-2.4631
X1.1082Y-3.4311
X1.1089Y-3.3676
X1.1118Y-1.4826
X1.1126Y-1.3572
X1.1147Y-1.4138
X1.1283Y-3.3996
X1.1333Y-2.9297
X1.1356Y-2.7599
X1.1579Y-2.9042
X1.1617Y-3.1653
X1.17Y-2.9712
X1.1749Y-2.5706
X1.1831Y-3.1964
X1.189Y-1.3583
X1.1973Y-2.738
X1.2189Y-3.3858
X1.2193Y-3.141
X1.2235Y-2.8249
X1.2249Y-3.424
X1.2273Y-2.7157
X1.2311Y-3.3296
X1.2357Y-2.7896
X1.2438Y-2.9297
X1.2453Y-1.8814
X1.2469Y-1.6824
X1.2474Y-2.7506
X1.2519Y-1.6453
X1.2662Y-3.5628
X1.2677Y-1.4173
X1.2682Y-2.904
X1.2707Y-1.3478
X1.2707Y-1.4961
X1.2724Y-2.5343
X1.2756Y-2.3701
X1.2831Y-2.4681
X1.2967Y-1.8806
X1.2983Y-3.2617
X1.3031Y-2.843
X1.3036Y-3.0253
X1.3036Y-3.1058
X1.3039Y-3.1458
X1.3093Y-2.9438
X1.318Y-1.4613
X1.3357Y-3.2261
X1.3383Y-1.3488
X1.3528Y-3.1149
X1.3556Y-1.1754
X1.3629Y-1.8934
X1.3637Y-1.2704
X1.376Y-2.6518
X1.3781Y-1.7064
X1.3917Y-1.1068
X1.4085Y-2.4492
X1.4153Y-2.0462
X1.4165Y-1.865
X1.427Y-2.9093
X1.4408Y-1.2775
X1.443Y-1.1957
X1.4443Y-2.5726
X1.4493Y-3.191
X1.4627Y-2.7964
X1.4729Y-1.6256
X1.4742Y-2.9878
X1.5025Y-3.0655
X1.5039Y-3.1187
X1.5441Y-2.5956
X1.55Y-1.4395
X1.5601Y-2.2262
X1.5635Y-3.2644
X1.5707Y-0.7913
X1.5707Y-0.8405
X1.5712Y-0.4418
X1.5712Y-0.491
X1.5738Y-1.3392
X1.5745Y-3.0754
X1.5747Y-1.0678
X1.5755Y-2.4909
X1.5767Y-1.1363
X1.5781Y-2.9164
X1.5815Y-1.9564
X1.5939Y-2.7134
X1.5942Y-1.2812
X1.5999Y-2.7748
X1.6001Y-3.3168
X1.6027Y-1.5768
X1.6078Y-2.8114
X1.6087Y-2.5853
X1.6091Y-2.6644
X1.6149Y-1.9838
X1.6199Y-0.7913
X1.6199Y-0.8405
X1.6204Y-0.4418
X1.6204Y-0.491
X1.6259Y-3.1414
X1.6297Y-1.0663
X1.6301Y-3.2684
X1.6306Y-3.0661
X1.6322Y-1.1348
X1.6367Y-0.0938
X1.6433Y-3.4386
X1.6565Y-1.4928
X1.6691Y-0.7913
X1.6691Y-0.8405
X1.6696Y-0.4418
X1.6696Y-0.491
X1.6751Y-3.193
X1.6759Y-2.8846
X1.6915Y-2.8238
X1.6942Y-3.0341
X1.7063Y-2.4353
X1.7092Y-1.1213
X1.714Y-1.4024
X1.7181Y-0.9013
X1.7183Y-0.7913
X1.7183Y-0.8405
X1.7188Y-0.4418
X1.7188Y-0.491
X1.7326Y-1.6439
X1.74Y-2.7153
X1.7431Y-3.1942
X1.7442Y-1.1483
X1.7609Y-2.8192
X1.7658Y-2.2592
X1.7676Y-0.7913
X1.7676Y-0.8405
X1.7681Y-0.4418
X1.7681Y-0.491
X1.7712Y-0.9223
X1.7727Y-1.5798
X1.7772Y-1.2223
X1.7819Y-0.7508
X1.8033Y-0.5781
X1.8087Y-0.9669
X1.8117Y-1.1963
X1.8213Y-1.757
X1.8242Y-3.0343
X1.8381Y-1.4976
X1.8497Y-3.1528
X1.8593Y-2.5314
X1.862Y-1.9704
X1.8657Y-2.0766
X1.8679Y-1.5398
X1.8683Y-1.377
X1.8745Y-2.6141
X1.8833Y-2.8748
X1.8908Y-2.718
X1.8972Y-0.8358
X1.9092Y-1.4311
X1.9117Y-2.0738
X1.9169Y-1.1725
X1.9207Y-1.0338
X1.9272Y-2.5238
X1.9302Y-0.7913
X1.933Y-2.4711
X1.9367Y-0.6488
X1.9387Y-0.3358
X1.9393Y-1.3676
X1.9437Y-0.3998
X1.9579Y-0.9188
X1.965Y-1.1721
X1.9788Y-1.2068
X1.9853Y-2.4224
X1.9863Y-1.244
X1.9882Y-1.7913
X1.9897Y-2.0698
X1.9904Y-2.1102
X2.0027Y-0.3358
X2.0027Y-2.5998
X2.0037Y-2.9273
X2.0057Y-0.3998
X2.0079Y-1.3031
X2.0093Y-2.2777
X2.0167Y-1.0578
X2.0253Y-2.1784
X2.035Y-1.6264
X2.0391Y-2.2408
X2.0561Y-2.465
X2.0607Y-2.5518
X2.0667Y-1.1118
X2.0675Y-2.8926
X2.0683Y-2.8082
X2.0702Y-1.0578
X2.0722Y-0.7738
X2.0722Y-0.7738
X2.0727Y-0.3358
X2.0727Y-0.9978
X2.0767Y-0.3998
X2.0827Y-1.3038
X2.0866Y-1.4134
X2.0906Y-1.8268
X2.0961Y-1.5007
X2.0987Y-2.9308
X2.1096Y-2.6653
X2.1247Y-0.9478
X2.1247Y-0.9993
X2.1247Y-1.0508
X2.1247Y-1.1023
X2.1247Y-1.1538
X2.1275Y-3.3642
X2.1477Y-0.6653
X2.1567Y-1.4888
X2.1567Y-1.5321
X2.1567Y-1.5754
X2.1574Y-2.0742
X2.164Y-2.132
X2.1671Y-3.1562
X2.1687Y-1.1058
X2.1727Y-1.0583
X2.1767Y-1.0038
X2.1909Y-2.4598
X2.2Y-1.4888
X2.2041Y-1.3579
X2.214Y-3.237
X2.2187Y-2.1278
X2.2197Y-2.0698
X2.2207Y-1.3038
X2.2228Y-1.9042
X2.2237Y-0.1826
X2.2237Y-0.2318
X2.2253Y-0.7392
X2.2267Y-0.0318
X2.2267Y-0.081
X2.2267Y-0.1302
X2.2267Y-1.0578
X2.2272Y-1.2325
X2.2323Y-0.6542
X2.2327Y-0.3998
X2.2347Y-0.3358
X2.2387Y-0.8263
X2.2401Y-3.5275
X2.2433Y-2.5576
X2.2433Y-1.4888
X2.2491Y-3.2372
X2.2499Y-3.2756
X2.2511Y-2.4843
X2.2535Y-3.1446
X2.2536Y-2.5216
X2.2567Y-2.2974
X2.2575Y-3.3624
X2.2596Y-2.7832
X2.2644Y-3.4874
X2.2709Y-0.1826
X2.2709Y-0.2318
X2.2721Y-0.7358
X2.2739Y-0.0318
X2.2739Y-0.081
X2.2739Y-0.1302
X2.2827Y-2.1278
X2.2832Y-2.0698
X2.2866Y-1.4888
X2.2866Y-1.5321
X2.2901Y-2.5574
X2.2987Y-0.3998
X2.3007Y-0.3358
X2.3022Y-2.5088
X2.3069Y-2.6612
X2.3145Y-2.746
X2.3182Y-0.1826
X2.3182Y-0.2318
X2.3205Y-0.7298
X2.3212Y-0.0318
X2.3212Y-0.081
X2.3212Y-0.1302
X2.3224Y-3.2283
X2.3262Y-3.4818
X2.3346Y-1.3031
X2.3358Y-1.3518
X2.3367Y-0.5113
X2.3387Y-2.3266
X2.3417Y-0.9718
X2.343Y-3.5755
X2.3487Y-2.6718
X2.3527Y-2.7158
X2.3627Y-1.4174
X2.3654Y-0.1826
X2.3654Y-0.2318
X2.3667Y-1.9393
X2.3684Y-0.0318
X2.3684Y-0.081
X2.3684Y-0.1302
X2.3713Y-3.4023
X2.3727Y-0.3358
X2.3727Y-0.3998
X2.3752Y-1.2744
X2.3767Y-1.5463
X2.3829Y-2.3358
X2.3837Y-3.0546
X2.3877Y-1.2257
X2.4065Y-2.0542
X2.4096Y-2.9173
X2.4127Y-0.1826
X2.4127Y-0.2318
X2.4129Y-2.6118
X2.4157Y-0.0318
X2.4157Y-0.081
X2.4157Y-0.1302
X2.4267Y-2.2958
X2.4447Y-2.4258
X2.4491Y-3.2005
X2.4599Y-0.1826
X2.4599Y-0.2318
X2.461Y-3.313
X2.4629Y-0.0318
X2.4629Y-0.081
X2.4629Y-0.1302
X2.4693Y-0.792
X2.4796Y-2.4448
X2.4917Y-2.6438
X2.4921Y-1.2992
X2.5068Y-2.4191
X2.5102Y-0.0318
X2.5102Y-0.081
X2.5335Y-1.1217
X2.6227Y-3.2628
X2.7345Y-0.3392
X2.7345Y-0.3884
X2.7817Y-0.3392
X2.7817Y-0.3884
T3
X2.5461Y-3.4678
X2.5721Y-3.4052
X2.5721Y-3.5304
X2.6347Y-3.3792
X2.6347Y-3.5564
X2.6973Y-3.4052
X2.6973Y-3.5304
X2.7233Y-3.4678
X2.5461Y-0.1978
X2.5721Y-0.1352
X2.5721Y-0.2604
X2.6347Y-0.1092
X2.6347Y-0.2864
X2.6973Y-0.1352
X2.6973Y-0.2604
X2.7233Y-0.1978
X1.3261Y-3.4678
X1.3521Y-3.4052
X1.3521Y-3.5304
X1.4147Y-3.3792
X1.4147Y-3.5564
X1.4773Y-3.4052
X1.4773Y-3.5304
X1.5033Y-3.4678
X1.3261Y-0.1978
X1.3521Y-0.1352
X1.3521Y-0.2604
X1.4147Y-0.1092
X1.4147Y-0.2864
X1.4773Y-0.1352
X1.4773Y-0.2604
X1.5033Y-0.1978
T5
X2.5737Y-2.3048
X2.5737Y-2.4048
X2.5737Y-2.5048
X2.5737Y-2.6048
X2.5737Y-2.7048
X2.5737Y-2.8048
X2.5737Y-2.9048
X2.5737Y-3.0048
X2.5737Y-3.1048
X2.5737Y-3.2048
X2.6737Y-2.3048
X2.6737Y-2.4048
X2.6737Y-2.5048
X2.6737Y-2.6048
X2.6737Y-2.7048
X2.6737Y-2.8048
X2.6737Y-2.9048
X2.6737Y-3.0048
X2.6737Y-3.1048
X2.6737Y-3.2048
X1.1047Y-0.1298
X1.1047Y-0.2298
X1.1047Y-0.3298
X1.2047Y-0.1298
X1.2047Y-0.2298
X1.2047Y-0.3298
X0.3761Y-0.4322
X0.3761Y-0.5322
X0.3761Y-0.6322
X0.3761Y-0.7322
X0.3761Y-0.8322
X0.3761Y-0.9322
X0.3761Y-1.0322
X0.3761Y-1.1322
X0.3761Y-1.2322
X0.3761Y-1.3322
X0.3761Y-1.4322
X0.3761Y-1.5322
X0.3761Y-1.6322
X0.3761Y-1.7322
X0.3761Y-1.8322
X0.3761Y-1.9322
X0.3761Y-2.0322
X0.3761Y-2.1322
X0.3761Y-2.2322
X0.3761Y-2.3322
X0.4761Y-0.4322
X0.4761Y-0.5322
X0.4761Y-0.6322
X0.4761Y-0.7322
X0.4761Y-0.8322
X0.4761Y-0.9322
X0.4761Y-1.0322
X0.4761Y-1.1322
X0.4761Y-1.2322
X0.4761Y-1.3322
X0.4761Y-1.4322
X0.4761Y-1.5322
X0.4761Y-1.6322
X0.4761Y-1.7322
X0.4761Y-1.8322
X0.4761Y-1.9322
X0.4761Y-2.0322
X0.4761Y-2.1322
X0.4761Y-2.2322
X0.4761Y-2.3322
X0.0827Y-3.315
X0.0827Y-3.415
X0.0827Y-3.515
X0.0825Y-2.819
X0.0825Y-2.919
X0.0825Y-3.019
X0.0825Y-3.119
X1.6614Y-0.2756
X1.7614Y-0.2756
T6
X2.6347Y-3.4678
X2.6347Y-0.1978
X1.4147Y-3.4678
X1.4147Y-0.1978
T4
G00X0.676Y-3.6188
M15
G01X0.676Y-3.5873
M16
G05
G00X0.9574Y-3.5873
M15
G01X0.9574Y-3.6188
M16
G05
G00X2.4835Y-1.4708
M15
G01X2.4835Y-1.4983
M16
G05
G00X2.5032Y-1.3851
M15
G01X2.5308Y-1.3851
M16
G05
G00X2.5662Y-1.5525
M15
G01X2.5938Y-1.5525
M16
G05
G00X2.7788Y-1.5525
M15
G01X2.7513Y-1.5525
M16
G05
G00X2.7946Y-1.4668
M15
G01X2.7946Y-1.4393
M16
G05
T5
G00X2.5082Y-1.9417
M15
G01X2.587Y-1.9417
M16
G05
G00X2.6657Y-1.7882
M15
G01X2.6657Y-1.7094
M16
G05
G00X2.7563Y-1.8984
M15
G01X2.7563Y-1.8196
M16
G05
T0
M30
