M48
; DRILL file {KiCad (5.1.6)-1} date 07/14/20 17:50:05
; FORMAT={-:-/ absolute / inch / decimal}
; #@! TF.CreationDate,2020-07-14T17:50:05-07:00
; #@! TF.GenerationSoftware,Kicad,Pcbnew,(5.1.6)-1
; #@! TF.FileFunction,Plated,1,4,PTH
FMAT,2
INCH
T1C0.0079
T2C0.0157
T3C0.0197
T4C0.0362
T5C0.0394
T6C0.0591
T7C0.0787
T8C0.1181
%
G90
G05
T1
X0.6925Y-2.9525
X0.6925Y-2.9919
X0.6925Y-3.0313
X0.6925Y-3.0706
X0.6925Y-3.11
X0.7319Y-2.9525
X0.7319Y-2.9919
X0.7319Y-3.0313
X0.7319Y-3.0706
X0.7319Y-3.11
X0.7713Y-2.9525
X0.7713Y-2.9919
X0.7713Y-3.0313
X0.7713Y-3.0706
X0.7713Y-3.11
X0.8106Y-2.9525
X0.8106Y-2.9919
X0.8106Y-3.0313
X0.8106Y-3.0706
X0.8106Y-3.11
X0.85Y-2.9525
X0.85Y-2.9919
X0.85Y-3.0313
X0.85Y-3.0706
X0.85Y-3.11
T2
X0.0406Y-2.0826
X0.0446Y-1.3018
X0.0484Y-1.5754
X0.0486Y-1.3774
X0.0492Y-2.1832
X0.0566Y-2.4122
X0.0592Y-2.3038
X0.0646Y-1.7054
X0.0848Y-3.0224
X0.0992Y-1.4324
X0.104Y-3.448
X0.1046Y-3.29
X0.1046Y-3.375
X0.116Y-1.7424
X0.1166Y-0.9352
X0.1174Y-2.5106
X0.122Y-3.2265
X0.1346Y-1.9514
X0.145Y-2.4674
X0.1684Y-1.6798
X0.1725Y-3.1832
X0.1728Y-1.4324
X0.1802Y-1.1198
X0.182Y-3.331
X0.19Y-3.5
X0.1936Y-1.3836
X0.1952Y-3.4488
X0.215Y-3.1336
X0.2172Y-2.658
X0.2182Y-1.508
X0.2238Y-1.7138
X0.2545Y-3.4779
X0.2672Y-0.924
X0.268Y-3.56
X0.279Y-1.9088
X0.2794Y-1.4798
X0.2842Y-2.079
X0.2856Y-1.9844
X0.2915Y-3.135
X0.2986Y-0.4332
X0.2988Y-1.3312
X0.3024Y-1.1638
X0.3042Y-2.1776
X0.3099Y-3.5525
X0.3194Y-2.9868
X0.3208Y-2.3704
X0.326Y-3.282
X0.3285Y-3.617
X0.335Y-3.3583
X0.335Y-2.6318
X0.3396Y-1.4907
X0.342Y-3.6545
X0.3558Y-2.741
X0.3594Y-3.0906
X0.369Y-3.7175
X0.372Y-3.0306
X0.374Y-3.326
X0.433Y-0.3542
X0.4484Y-0.4798
X0.458Y-3.0517
X0.4625Y-2.953
X0.47Y-3.1065
X0.4754Y-3.2756
X0.4843Y-2.6391
X0.4975Y-3.3125
X0.498Y-3.6525
X0.528Y-3.174
X0.542Y-2.738
X0.544Y-1.178
X0.5458Y-2.5412
X0.5494Y-2.3566
X0.559Y-0.675
X0.5664Y-2.8882
X0.5685Y-2.786
X0.5695Y-3.4205
X0.5715Y-3.512
X0.574Y-2.704
X0.574Y-3.182
X0.58Y-0.405
X0.58Y-0.475
X0.585Y-3.106
X0.5865Y-2.9505
X0.5865Y-3.012
X0.5936Y-1.6744
X0.602Y-0.244
X0.616Y-1.2714
X0.6174Y-3.2544
X0.618Y-1.022
X0.62Y-1.438
X0.6205Y-1.174
X0.6343Y-0.8488
X0.6343Y-0.898
X0.6394Y-1.9689
X0.6422Y-2.3642
X0.644Y-2.7266
X0.65Y-0.405
X0.65Y-0.475
X0.654Y-1.104
X0.655Y-0.709
X0.655Y-0.7715
X0.6551Y-2.202
X0.656Y-1.208
X0.6582Y-2.0013
X0.6695Y-2.621
X0.6738Y-2.3158
X0.6933Y-0.8488
X0.6933Y-0.898
X0.6977Y-0.5782
X0.6995Y-3.3655
X0.725Y-0.405
X0.725Y-0.475
X0.725Y-0.523
X0.726Y-2.754
X0.74Y-2.836
X0.7434Y-3.2179
X0.75Y-2.328
X0.752Y-2.396
X0.7651Y-2.7469
X0.7755Y-3.3665
X0.777Y-1.4925
X0.781Y-1.6836
X0.7865Y-2.57
X0.7885Y-2.5215
X0.79Y-0.526
X0.793Y-3.6105
X0.794Y-2.47
X0.7945Y-1.7535
X0.7998Y-1.8598
X0.802Y-2.404
X0.803Y-3.5055
X0.8034Y-1.2454
X0.804Y-1.932
X0.8044Y-2.7385
X0.8065Y-0.8092
X0.8077Y-2.6531
X0.8131Y-1.4518
X0.819Y-2.0475
X0.824Y-2.163
X0.8333Y-2.7703
X0.84Y-0.714
X0.8405Y-2.393
X0.8445Y-3.5718
X0.854Y-0.654
X0.856Y-2.5
X0.8587Y-2.6265
X0.86Y-1.216
X0.86Y-3.3635
X0.8605Y-2.3075
X0.8755Y-1.4885
X0.878Y-0.472
X0.882Y-0.41
X0.8937Y-3.5463
X0.8945Y-1.7625
X0.9036Y-2.788
X0.9088Y-2.8388
X0.9134Y-3.2282
X0.9221Y-0.839
X0.9221Y-0.8882
X0.9269Y-3.177
X0.928Y-0.524
X0.928Y-0.582
X0.934Y-2.808
X0.944Y-2.192
X0.948Y-0.408
X0.948Y-0.472
X0.9527Y-2.659
X0.956Y-2.1055
X0.962Y-1.488
X0.9626Y-3.166
X0.964Y-0.722
X0.964Y-3.506
X0.9654Y-0.5742
X0.9675Y-2.3605
X0.9681Y-0.6357
X0.9739Y-2.9541
X0.9811Y-0.839
X0.9811Y-0.8882
X0.984Y-2.5675
X0.988Y-2.619
X0.9894Y-3.1399
X0.9935Y-1.5515
X0.996Y-2.48
X1.0005Y-3.5644
X1.006Y-3.2395
X1.0073Y-2.9423
X1.008Y-2.06
X1.014Y-0.472
X1.016Y-0.408
X1.02Y-0.666
X1.02Y-3.474
X1.022Y-2.79
X1.0226Y-0.5809
X1.03Y-3.377
X1.048Y-2.873
X1.06Y-2.5285
X1.061Y-3.162
X1.0645Y-1.9235
X1.0655Y-1.733
X1.0771Y-2.4737
X1.0775Y-0.8055
X1.086Y-0.652
X1.09Y-2.212
X1.0934Y-2.9099
X1.1004Y-3.2437
X1.1014Y-3.1589
X1.107Y-0.741
X1.1081Y-3.5241
X1.1085Y-2.553
X1.1149Y-3.5827
X1.1219Y-3.454
X1.122Y-2.623
X1.129Y-1.5048
X1.132Y-1.54
X1.132Y-1.586
X1.132Y-1.636
X1.1406Y-3.2374
X1.1415Y-3.627
X1.154Y-2.364
X1.155Y-3.1444
X1.1571Y-1.7511
X1.158Y-1.958
X1.1699Y-3.1788
X1.177Y-3.3575
X1.1835Y-1.44
X1.188Y-1.696
X1.196Y-3.15
X1.206Y-2.924
X1.2083Y-2.0559
X1.2091Y-2.8734
X1.21Y-2.836
X1.224Y-2.104
X1.2295Y-3.6075
X1.233Y-2.251
X1.238Y-1.4507
X1.238Y-2.608
X1.238Y-2.708
X1.2428Y-2.8896
X1.262Y-2.651
X1.2646Y-2.79
X1.2655Y-1.783
X1.2815Y-3.755
X1.2823Y-3.3079
X1.2844Y-1.5024
X1.286Y-3.1701
X1.286Y-1.54
X1.286Y-1.586
X1.286Y-1.636
X1.292Y-2.714
X1.308Y-2.048
X1.3085Y-2.656
X1.315Y-3.0715
X1.3175Y-3.2175
X1.326Y-3.0334
X1.347Y-3.3805
X1.3485Y-3.3015
X1.3495Y-1.495
X1.35Y-3.4295
X1.357Y-3.097
X1.36Y-2.05
X1.3708Y-2.9112
X1.3709Y-1.3676
X1.376Y-2.546
X1.404Y-2.8876
X1.407Y-1.299
X1.421Y-2.038
X1.424Y-2.16
X1.4317Y-1.6857
X1.4365Y-2.7085
X1.438Y-2.852
X1.4598Y-1.4828
X1.4715Y-1.797
X1.4895Y-3.18
X1.507Y-1.3705
X1.5075Y-2.568
X1.508Y-3.3015
X1.5175Y-1.9525
X1.5194Y-3.2483
X1.5284Y-3.021
X1.534Y-2.6485
X1.5345Y-1.574
X1.5365Y-1.8595
X1.5381Y-2.7938
X1.568Y-1.737
X1.5753Y-2.7893
X1.5773Y-3.0921
X1.5775Y-3.24
X1.586Y-0.9835
X1.586Y-1.0327
X1.5865Y-0.634
X1.5865Y-0.6832
X1.588Y-3.415
X1.59Y-1.26
X1.592Y-1.3285
X1.604Y-1.607
X1.607Y-2.303
X1.611Y-2.6275
X1.618Y-1.769
X1.6225Y-3.309
X1.63Y-2.905
X1.6352Y-0.9835
X1.6352Y-1.0327
X1.6357Y-0.634
X1.6357Y-0.6832
X1.645Y-1.2585
X1.6475Y-1.327
X1.652Y-0.286
X1.6596Y-1.5252
X1.67Y-2.01
X1.6735Y-2.22
X1.6766Y-2.3138
X1.6844Y-0.9835
X1.6844Y-1.0327
X1.6849Y-0.634
X1.6849Y-0.6832
X1.7035Y-2.0763
X1.709Y-2.1845
X1.7095Y-3.2263
X1.7115Y-2.1295
X1.7143Y-3.0589
X1.722Y-1.5836
X1.7245Y-1.3135
X1.7275Y-2.6255
X1.729Y-2.67
X1.7334Y-1.0935
X1.7336Y-0.9835
X1.7336Y-1.0327
X1.7341Y-0.634
X1.7341Y-0.6832
X1.7479Y-1.8361
X1.7525Y-2.33
X1.7595Y-1.3405
X1.7749Y-2.111
X1.779Y-2.388
X1.7795Y-2.5435
X1.78Y-1.696
X1.7829Y-0.9835
X1.7829Y-1.0327
X1.7834Y-0.634
X1.7834Y-0.6832
X1.7865Y-1.1145
X1.788Y-1.772
X1.7925Y-1.4145
X1.7935Y-2.8605
X1.8095Y-0.9405
X1.824Y-1.1591
X1.8243Y-1.6072
X1.827Y-1.3885
X1.829Y-1.652
X1.8395Y-3.2265
X1.846Y-2.714
X1.85Y-2.014
X1.876Y-2.8266
X1.877Y-2.226
X1.8796Y-1.7026
X1.8835Y-1.869
X1.896Y-1.5635
X1.9061Y-2.9102
X1.9125Y-1.028
X1.93Y-2.574
X1.9322Y-1.3647
X1.936Y-1.226
X1.939Y-2.654
X1.9425Y-2.716
X1.9455Y-0.9835
X1.9498Y-1.0825
X1.952Y-0.841
X1.954Y-0.528
X1.9569Y-2.114
X1.959Y-0.592
X1.964Y-2.5154
X1.9655Y-1.6055
X1.9685Y-1.5485
X1.97Y-1.676
X1.9803Y-1.3643
X1.9941Y-1.399
X1.9987Y-1.4362
X2.005Y-2.262
X2.006Y-2.32
X2.007Y-2.382
X2.0089Y-1.8501
X2.0125Y-1.8915
X2.018Y-0.528
X2.018Y-2.792
X2.019Y-3.1195
X2.0195Y-1.796
X2.021Y-0.592
X2.032Y-1.25
X2.033Y-2.6416
X2.0385Y-1.48
X2.053Y-2.262
X2.056Y-2.32
X2.0751Y-2.0707
X2.076Y-2.116
X2.076Y-2.744
X2.082Y-1.304
X2.0855Y-1.25
X2.0875Y-0.966
X2.0875Y-0.966
X2.088Y-0.528
X2.088Y-1.19
X2.092Y-0.592
X2.098Y-1.496
X2.1043Y-2.9812
X2.1125Y-3.0345
X2.114Y-3.123
X2.1249Y-2.8575
X2.14Y-1.14
X2.14Y-1.1905
X2.14Y-1.25
X2.14Y-1.3025
X2.14Y-1.346
X2.152Y-1.584
X2.156Y-1.634
X2.164Y-0.86
X2.172Y-1.681
X2.172Y-1.7243
X2.172Y-1.7676
X2.184Y-1.298
X2.188Y-1.2505
X2.192Y-1.196
X2.1941Y-2.6465
X2.2Y-2.5749
X2.2153Y-1.681
X2.2153Y-1.7243
X2.2153Y-1.7676
X2.222Y-0.862
X2.234Y-2.32
X2.235Y-2.262
X2.236Y-1.496
X2.242Y-0.224
X2.242Y-0.2732
X2.242Y-0.3224
X2.242Y-1.25
X2.248Y-0.592
X2.25Y-0.528
X2.254Y-1.0185
X2.256Y-2.766
X2.2586Y-1.681
X2.2586Y-1.7243
X2.2586Y-1.7676
X2.259Y-0.923
X2.26Y-1.571
X2.26Y-2.44
X2.266Y-2.976
X2.2665Y-2.6785
X2.268Y-2.717
X2.272Y-2.498
X2.2795Y-1.4728
X2.2892Y-0.224
X2.2892Y-0.2732
X2.2892Y-0.3224
X2.296Y-0.9295
X2.296Y-2.164
X2.298Y-2.32
X2.2985Y-2.262
X2.2985Y-2.768
X2.3019Y-1.681
X2.3019Y-1.7243
X2.3019Y-1.7676
X2.312Y-1.5775
X2.314Y-0.592
X2.316Y-0.528
X2.3175Y-2.701
X2.32Y-2.938
X2.3365Y-0.224
X2.3365Y-0.2732
X2.3365Y-0.3224
X2.341Y-2.096
X2.348Y-2.808
X2.352Y-0.7035
X2.352Y-2.542
X2.357Y-1.164
X2.362Y-2.262
X2.362Y-2.32
X2.364Y-2.864
X2.368Y-2.908
X2.372Y-0.974
X2.3837Y-0.224
X2.3837Y-0.2732
X2.3837Y-0.3224
X2.388Y-0.528
X2.388Y-0.592
X2.392Y-1.512
X2.392Y-1.7385
X2.3925Y-1.426
X2.399Y-3.239
X2.4095Y-3.045
X2.4263Y-2.804
X2.431Y-0.224
X2.431Y-0.2732
X2.431Y-0.3224
X2.442Y-2.488
X2.46Y-2.618
X2.461Y-3.402
X2.4645Y-0.9465
X2.466Y-0.537
X2.466Y-0.5862
X2.4782Y-0.224
X2.4782Y-0.2732
X2.4782Y-0.3224
X2.4949Y-2.637
X2.496Y-1.522
X2.5Y-1.426
X2.507Y-2.836
X2.5132Y-0.537
X2.5132Y-0.5862
X2.5221Y-2.6113
X2.5255Y-0.224
X2.5255Y-0.2732
X2.5455Y-1.681
X2.5605Y-0.537
X2.5605Y-0.5862
X2.6077Y-0.537
X2.6077Y-0.5862
X2.638Y-3.455
X2.655Y-0.537
X2.655Y-0.5862
X2.7022Y-0.537
X2.7022Y-0.5862
X2.7495Y-0.537
X2.7495Y-0.5862
X2.778Y-1.705
X2.7967Y-0.537
X2.7967Y-0.5862
T3
X2.5614Y-3.66
X2.5874Y-3.5974
X2.5874Y-3.7226
X2.65Y-3.5714
X2.65Y-3.7486
X2.7126Y-3.5974
X2.7126Y-3.7226
X2.7386Y-3.66
X2.5614Y-0.39
X2.5874Y-0.3274
X2.5874Y-0.4526
X2.65Y-0.3014
X2.65Y-0.4786
X2.7126Y-0.3274
X2.7126Y-0.4526
X2.7386Y-0.39
X1.3414Y-0.39
X1.3674Y-0.3274
X1.3674Y-0.4526
X1.43Y-0.3014
X1.43Y-0.4786
X1.4926Y-0.3274
X1.4926Y-0.4526
X1.5186Y-0.39
X1.3414Y-3.66
X1.3674Y-3.5974
X1.3674Y-3.7226
X1.43Y-3.5714
X1.43Y-3.7486
X1.4926Y-3.5974
X1.4926Y-3.7226
X1.5186Y-3.66
T4
X1.814Y-3.3718
X1.814Y-3.4505
X1.814Y-3.5293
X1.814Y-3.608
T5
X2.589Y-2.497
X2.589Y-2.597
X2.589Y-2.697
X2.589Y-2.797
X2.589Y-2.897
X2.589Y-2.997
X2.589Y-3.097
X2.589Y-3.197
X2.589Y-3.297
X2.589Y-3.397
X2.689Y-2.497
X2.689Y-2.597
X2.689Y-2.697
X2.689Y-2.797
X2.689Y-2.897
X2.689Y-2.997
X2.689Y-3.097
X2.689Y-3.197
X2.689Y-3.297
X2.689Y-3.397
X0.3914Y-0.6244
X0.3914Y-0.7244
X0.3914Y-0.8244
X0.3914Y-0.9244
X0.3914Y-1.0244
X0.3914Y-1.1244
X0.3914Y-1.2244
X0.3914Y-1.3244
X0.3914Y-1.4244
X0.3914Y-1.5244
X0.3914Y-1.6244
X0.3914Y-1.7244
X0.3914Y-1.8244
X0.3914Y-1.9244
X0.3914Y-2.0244
X0.3914Y-2.1244
X0.3914Y-2.2244
X0.3914Y-2.3244
X0.3914Y-2.4244
X0.3914Y-2.5244
X0.4914Y-0.6244
X0.4914Y-0.7244
X0.4914Y-0.8244
X0.4914Y-0.9244
X0.4914Y-1.0244
X0.4914Y-1.1244
X0.4914Y-1.2244
X0.4914Y-1.3244
X0.4914Y-1.4244
X0.4914Y-1.5244
X0.4914Y-1.6244
X0.4914Y-1.7244
X0.4914Y-1.8244
X0.4914Y-1.9244
X0.4914Y-2.0244
X0.4914Y-2.1244
X0.4914Y-2.2244
X0.4914Y-2.3244
X0.4914Y-2.4244
X0.4914Y-2.5244
X1.12Y-0.322
X1.12Y-0.422
X1.12Y-0.522
X1.22Y-0.322
X1.22Y-0.422
X1.22Y-0.522
T6
X1.7069Y-3.3611
X1.7069Y-3.6367
X1.9211Y-3.3611
X1.9211Y-3.6367
T7
X2.639Y-2.122
T8
X2.65Y-3.66
X2.65Y-0.39
X1.43Y-0.39
X1.43Y-3.66
T3
G00X0.6913Y-3.81
M15
G01X0.6913Y-3.7805
M16
G05
G00X0.9727Y-3.7805
M15
G01X0.9727Y-3.81
M16
G05
T5
G00X2.4579Y-2.2106
M15
G01X2.4579Y-2.1515
M16
G05
G00X2.576Y-2.0118
M15
G01X2.5051Y-2.0118
M16
G05
G00X2.7217Y-1.9133
M15
G01X2.6508Y-1.9133
M16
G05
T0
M30
