G04 #@! TF.GenerationSoftware,KiCad,Pcbnew,(5.1.6)-1*
G04 #@! TF.CreationDate,2020-07-24T10:27:29-07:00*
G04 #@! TF.ProjectId,Mycroft - Mark 2,4d796372-6f66-4742-902d-204d61726b20,rev?*
G04 #@! TF.SameCoordinates,Original*
G04 #@! TF.FileFunction,Legend,Bot*
G04 #@! TF.FilePolarity,Positive*
%FSLAX46Y46*%
G04 Gerber Fmt 4.6, Leading zero omitted, Abs format (unit mm)*
G04 Created by KiCad (PCBNEW (5.1.6)-1) date 2020-07-24 10:27:29*
%MOMM*%
%LPD*%
G01*
G04 APERTURE LIST*
%ADD10C,0.050000*%
%ADD11C,0.100000*%
%ADD12C,0.300000*%
%ADD13C,0.120000*%
%ADD14C,0.010000*%
%ADD15C,0.150000*%
G04 APERTURE END LIST*
D10*
X14527163Y-13823123D02*
X14455735Y-13848361D01*
X14336687Y-13848361D01*
X14289068Y-13823123D01*
X14265259Y-13797885D01*
X14241449Y-13747409D01*
X14241449Y-13696933D01*
X14265259Y-13646457D01*
X14289068Y-13621219D01*
X14336687Y-13595980D01*
X14431925Y-13570742D01*
X14479544Y-13545504D01*
X14503354Y-13520266D01*
X14527163Y-13469790D01*
X14527163Y-13419314D01*
X14503354Y-13368838D01*
X14479544Y-13343600D01*
X14431925Y-13318361D01*
X14312878Y-13318361D01*
X14241449Y-13343600D01*
X14027163Y-13848361D02*
X14027163Y-13318361D01*
X13908116Y-13318361D01*
X13836687Y-13343600D01*
X13789068Y-13394076D01*
X13765259Y-13444552D01*
X13741449Y-13545504D01*
X13741449Y-13621219D01*
X13765259Y-13722171D01*
X13789068Y-13772647D01*
X13836687Y-13823123D01*
X13908116Y-13848361D01*
X14027163Y-13848361D01*
X13550973Y-13696933D02*
X13312878Y-13696933D01*
X13598592Y-13848361D02*
X13431925Y-13318361D01*
X13265259Y-13848361D01*
X14503354Y-16358123D02*
X14431925Y-16383361D01*
X14312878Y-16383361D01*
X14265259Y-16358123D01*
X14241449Y-16332885D01*
X14217640Y-16282409D01*
X14217640Y-16231933D01*
X14241449Y-16181457D01*
X14265259Y-16156219D01*
X14312878Y-16130980D01*
X14408116Y-16105742D01*
X14455735Y-16080504D01*
X14479544Y-16055266D01*
X14503354Y-16004790D01*
X14503354Y-15954314D01*
X14479544Y-15903838D01*
X14455735Y-15878600D01*
X14408116Y-15853361D01*
X14289068Y-15853361D01*
X14217640Y-15878600D01*
X13717640Y-16332885D02*
X13741449Y-16358123D01*
X13812878Y-16383361D01*
X13860497Y-16383361D01*
X13931925Y-16358123D01*
X13979544Y-16307647D01*
X14003354Y-16257171D01*
X14027163Y-16156219D01*
X14027163Y-16080504D01*
X14003354Y-15979552D01*
X13979544Y-15929076D01*
X13931925Y-15878600D01*
X13860497Y-15853361D01*
X13812878Y-15853361D01*
X13741449Y-15878600D01*
X13717640Y-15903838D01*
X13265259Y-16383361D02*
X13503354Y-16383361D01*
X13503354Y-15853361D01*
X14789068Y-18413600D02*
X14836687Y-18388361D01*
X14908116Y-18388361D01*
X14979544Y-18413600D01*
X15027163Y-18464076D01*
X15050973Y-18514552D01*
X15074782Y-18615504D01*
X15074782Y-18691219D01*
X15050973Y-18792171D01*
X15027163Y-18842647D01*
X14979544Y-18893123D01*
X14908116Y-18918361D01*
X14860497Y-18918361D01*
X14789068Y-18893123D01*
X14765259Y-18867885D01*
X14765259Y-18691219D01*
X14860497Y-18691219D01*
X14550973Y-18918361D02*
X14550973Y-18388361D01*
X14360497Y-18388361D01*
X14312878Y-18413600D01*
X14289068Y-18438838D01*
X14265259Y-18489314D01*
X14265259Y-18565028D01*
X14289068Y-18615504D01*
X14312878Y-18640742D01*
X14360497Y-18665980D01*
X14550973Y-18665980D01*
X13955735Y-18388361D02*
X13908116Y-18388361D01*
X13860497Y-18413600D01*
X13836687Y-18438838D01*
X13812878Y-18489314D01*
X13789068Y-18590266D01*
X13789068Y-18716457D01*
X13812878Y-18817409D01*
X13836687Y-18867885D01*
X13860497Y-18893123D01*
X13908116Y-18918361D01*
X13955735Y-18918361D01*
X14003354Y-18893123D01*
X14027163Y-18867885D01*
X14050973Y-18817409D01*
X14074782Y-18716457D01*
X14074782Y-18590266D01*
X14050973Y-18489314D01*
X14027163Y-18438838D01*
X14003354Y-18413600D01*
X13955735Y-18388361D01*
X13360497Y-18565028D02*
X13360497Y-18918361D01*
X13479544Y-18363123D02*
X13598592Y-18741695D01*
X13289068Y-18741695D01*
X14360497Y-20948600D02*
X14408116Y-20923361D01*
X14479544Y-20923361D01*
X14550973Y-20948600D01*
X14598592Y-20999076D01*
X14622401Y-21049552D01*
X14646211Y-21150504D01*
X14646211Y-21226219D01*
X14622401Y-21327171D01*
X14598592Y-21377647D01*
X14550973Y-21428123D01*
X14479544Y-21453361D01*
X14431925Y-21453361D01*
X14360497Y-21428123D01*
X14336687Y-21402885D01*
X14336687Y-21226219D01*
X14431925Y-21226219D01*
X14122401Y-21453361D02*
X14122401Y-20923361D01*
X13836687Y-21453361D01*
X13836687Y-20923361D01*
X13598592Y-21453361D02*
X13598592Y-20923361D01*
X13479544Y-20923361D01*
X13408116Y-20948600D01*
X13360497Y-20999076D01*
X13336687Y-21049552D01*
X13312878Y-21150504D01*
X13312878Y-21226219D01*
X13336687Y-21327171D01*
X13360497Y-21377647D01*
X13408116Y-21428123D01*
X13479544Y-21453361D01*
X13598592Y-21453361D01*
X14789068Y-28553600D02*
X14836687Y-28528361D01*
X14908116Y-28528361D01*
X14979544Y-28553600D01*
X15027163Y-28604076D01*
X15050973Y-28654552D01*
X15074782Y-28755504D01*
X15074782Y-28831219D01*
X15050973Y-28932171D01*
X15027163Y-28982647D01*
X14979544Y-29033123D01*
X14908116Y-29058361D01*
X14860497Y-29058361D01*
X14789068Y-29033123D01*
X14765259Y-29007885D01*
X14765259Y-28831219D01*
X14860497Y-28831219D01*
X14550973Y-29058361D02*
X14550973Y-28528361D01*
X14360497Y-28528361D01*
X14312878Y-28553600D01*
X14289068Y-28578838D01*
X14265259Y-28629314D01*
X14265259Y-28705028D01*
X14289068Y-28755504D01*
X14312878Y-28780742D01*
X14360497Y-28805980D01*
X14550973Y-28805980D01*
X14074782Y-28578838D02*
X14050973Y-28553600D01*
X14003354Y-28528361D01*
X13884306Y-28528361D01*
X13836687Y-28553600D01*
X13812878Y-28578838D01*
X13789068Y-28629314D01*
X13789068Y-28679790D01*
X13812878Y-28755504D01*
X14098592Y-29058361D01*
X13789068Y-29058361D01*
X13598592Y-28578838D02*
X13574782Y-28553600D01*
X13527163Y-28528361D01*
X13408116Y-28528361D01*
X13360497Y-28553600D01*
X13336687Y-28578838D01*
X13312878Y-28629314D01*
X13312878Y-28679790D01*
X13336687Y-28755504D01*
X13622401Y-29058361D01*
X13312878Y-29058361D01*
X14360497Y-41228600D02*
X14408116Y-41203361D01*
X14479544Y-41203361D01*
X14550973Y-41228600D01*
X14598592Y-41279076D01*
X14622401Y-41329552D01*
X14646211Y-41430504D01*
X14646211Y-41506219D01*
X14622401Y-41607171D01*
X14598592Y-41657647D01*
X14550973Y-41708123D01*
X14479544Y-41733361D01*
X14431925Y-41733361D01*
X14360497Y-41708123D01*
X14336687Y-41682885D01*
X14336687Y-41506219D01*
X14431925Y-41506219D01*
X14122401Y-41733361D02*
X14122401Y-41203361D01*
X13836687Y-41733361D01*
X13836687Y-41203361D01*
X13598592Y-41733361D02*
X13598592Y-41203361D01*
X13479544Y-41203361D01*
X13408116Y-41228600D01*
X13360497Y-41279076D01*
X13336687Y-41329552D01*
X13312878Y-41430504D01*
X13312878Y-41506219D01*
X13336687Y-41607171D01*
X13360497Y-41657647D01*
X13408116Y-41708123D01*
X13479544Y-41733361D01*
X13598592Y-41733361D01*
X14789068Y-46298600D02*
X14836687Y-46273361D01*
X14908116Y-46273361D01*
X14979544Y-46298600D01*
X15027163Y-46349076D01*
X15050973Y-46399552D01*
X15074782Y-46500504D01*
X15074782Y-46576219D01*
X15050973Y-46677171D01*
X15027163Y-46727647D01*
X14979544Y-46778123D01*
X14908116Y-46803361D01*
X14860497Y-46803361D01*
X14789068Y-46778123D01*
X14765259Y-46752885D01*
X14765259Y-46576219D01*
X14860497Y-46576219D01*
X14550973Y-46803361D02*
X14550973Y-46273361D01*
X14360497Y-46273361D01*
X14312878Y-46298600D01*
X14289068Y-46323838D01*
X14265259Y-46374314D01*
X14265259Y-46450028D01*
X14289068Y-46500504D01*
X14312878Y-46525742D01*
X14360497Y-46550980D01*
X14550973Y-46550980D01*
X13955735Y-46273361D02*
X13908116Y-46273361D01*
X13860497Y-46298600D01*
X13836687Y-46323838D01*
X13812878Y-46374314D01*
X13789068Y-46475266D01*
X13789068Y-46601457D01*
X13812878Y-46702409D01*
X13836687Y-46752885D01*
X13860497Y-46778123D01*
X13908116Y-46803361D01*
X13955735Y-46803361D01*
X14003354Y-46778123D01*
X14027163Y-46752885D01*
X14050973Y-46702409D01*
X14074782Y-46601457D01*
X14074782Y-46475266D01*
X14050973Y-46374314D01*
X14027163Y-46323838D01*
X14003354Y-46298600D01*
X13955735Y-46273361D01*
X13336687Y-46273361D02*
X13574782Y-46273361D01*
X13598592Y-46525742D01*
X13574782Y-46500504D01*
X13527163Y-46475266D01*
X13408116Y-46475266D01*
X13360497Y-46500504D01*
X13336687Y-46525742D01*
X13312878Y-46576219D01*
X13312878Y-46702409D01*
X13336687Y-46752885D01*
X13360497Y-46778123D01*
X13408116Y-46803361D01*
X13527163Y-46803361D01*
X13574782Y-46778123D01*
X13598592Y-46752885D01*
X14360497Y-58973600D02*
X14408116Y-58948361D01*
X14479544Y-58948361D01*
X14550973Y-58973600D01*
X14598592Y-59024076D01*
X14622401Y-59074552D01*
X14646211Y-59175504D01*
X14646211Y-59251219D01*
X14622401Y-59352171D01*
X14598592Y-59402647D01*
X14550973Y-59453123D01*
X14479544Y-59478361D01*
X14431925Y-59478361D01*
X14360497Y-59453123D01*
X14336687Y-59427885D01*
X14336687Y-59251219D01*
X14431925Y-59251219D01*
X14122401Y-59478361D02*
X14122401Y-58948361D01*
X13836687Y-59478361D01*
X13836687Y-58948361D01*
X13598592Y-59478361D02*
X13598592Y-58948361D01*
X13479544Y-58948361D01*
X13408116Y-58973600D01*
X13360497Y-59024076D01*
X13336687Y-59074552D01*
X13312878Y-59175504D01*
X13312878Y-59251219D01*
X13336687Y-59352171D01*
X13360497Y-59402647D01*
X13408116Y-59453123D01*
X13479544Y-59478361D01*
X13598592Y-59478361D01*
X8035537Y-10798761D02*
X8273632Y-10798761D01*
X8297441Y-11051142D01*
X8273632Y-11025904D01*
X8226013Y-11000666D01*
X8106965Y-11000666D01*
X8059346Y-11025904D01*
X8035537Y-11051142D01*
X8011727Y-11101619D01*
X8011727Y-11227809D01*
X8035537Y-11278285D01*
X8059346Y-11303523D01*
X8106965Y-11328761D01*
X8226013Y-11328761D01*
X8273632Y-11303523D01*
X8297441Y-11278285D01*
X7868870Y-10798761D02*
X7702203Y-11328761D01*
X7535537Y-10798761D01*
X8035537Y-13333761D02*
X8273632Y-13333761D01*
X8297441Y-13586142D01*
X8273632Y-13560904D01*
X8226013Y-13535666D01*
X8106965Y-13535666D01*
X8059346Y-13560904D01*
X8035537Y-13586142D01*
X8011727Y-13636619D01*
X8011727Y-13762809D01*
X8035537Y-13813285D01*
X8059346Y-13838523D01*
X8106965Y-13863761D01*
X8226013Y-13863761D01*
X8273632Y-13838523D01*
X8297441Y-13813285D01*
X7868870Y-13333761D02*
X7702203Y-13863761D01*
X7535537Y-13333761D01*
X8011727Y-15894000D02*
X8059346Y-15868761D01*
X8130775Y-15868761D01*
X8202203Y-15894000D01*
X8249822Y-15944476D01*
X8273632Y-15994952D01*
X8297441Y-16095904D01*
X8297441Y-16171619D01*
X8273632Y-16272571D01*
X8249822Y-16323047D01*
X8202203Y-16373523D01*
X8130775Y-16398761D01*
X8083156Y-16398761D01*
X8011727Y-16373523D01*
X7987918Y-16348285D01*
X7987918Y-16171619D01*
X8083156Y-16171619D01*
X7773632Y-16398761D02*
X7773632Y-15868761D01*
X7487918Y-16398761D01*
X7487918Y-15868761D01*
X7249822Y-16398761D02*
X7249822Y-15868761D01*
X7130775Y-15868761D01*
X7059346Y-15894000D01*
X7011727Y-15944476D01*
X6987918Y-15994952D01*
X6964108Y-16095904D01*
X6964108Y-16171619D01*
X6987918Y-16272571D01*
X7011727Y-16323047D01*
X7059346Y-16373523D01*
X7130775Y-16398761D01*
X7249822Y-16398761D01*
X8011727Y-23499000D02*
X8059346Y-23473761D01*
X8130775Y-23473761D01*
X8202203Y-23499000D01*
X8249822Y-23549476D01*
X8273632Y-23599952D01*
X8297441Y-23700904D01*
X8297441Y-23776619D01*
X8273632Y-23877571D01*
X8249822Y-23928047D01*
X8202203Y-23978523D01*
X8130775Y-24003761D01*
X8083156Y-24003761D01*
X8011727Y-23978523D01*
X7987918Y-23953285D01*
X7987918Y-23776619D01*
X8083156Y-23776619D01*
X7773632Y-24003761D02*
X7773632Y-23473761D01*
X7583156Y-23473761D01*
X7535537Y-23499000D01*
X7511727Y-23524238D01*
X7487918Y-23574714D01*
X7487918Y-23650428D01*
X7511727Y-23700904D01*
X7535537Y-23726142D01*
X7583156Y-23751380D01*
X7773632Y-23751380D01*
X7011727Y-24003761D02*
X7297441Y-24003761D01*
X7154584Y-24003761D02*
X7154584Y-23473761D01*
X7202203Y-23549476D01*
X7249822Y-23599952D01*
X7297441Y-23625190D01*
X6726013Y-23700904D02*
X6773632Y-23675666D01*
X6797441Y-23650428D01*
X6821251Y-23599952D01*
X6821251Y-23574714D01*
X6797441Y-23524238D01*
X6773632Y-23499000D01*
X6726013Y-23473761D01*
X6630775Y-23473761D01*
X6583156Y-23499000D01*
X6559346Y-23524238D01*
X6535537Y-23574714D01*
X6535537Y-23599952D01*
X6559346Y-23650428D01*
X6583156Y-23675666D01*
X6630775Y-23700904D01*
X6726013Y-23700904D01*
X6773632Y-23726142D01*
X6797441Y-23751380D01*
X6821251Y-23801857D01*
X6821251Y-23902809D01*
X6797441Y-23953285D01*
X6773632Y-23978523D01*
X6726013Y-24003761D01*
X6630775Y-24003761D01*
X6583156Y-23978523D01*
X6559346Y-23953285D01*
X6535537Y-23902809D01*
X6535537Y-23801857D01*
X6559346Y-23751380D01*
X6583156Y-23726142D01*
X6630775Y-23700904D01*
X8011727Y-26034000D02*
X8059346Y-26008761D01*
X8130775Y-26008761D01*
X8202203Y-26034000D01*
X8249822Y-26084476D01*
X8273632Y-26134952D01*
X8297441Y-26235904D01*
X8297441Y-26311619D01*
X8273632Y-26412571D01*
X8249822Y-26463047D01*
X8202203Y-26513523D01*
X8130775Y-26538761D01*
X8083156Y-26538761D01*
X8011727Y-26513523D01*
X7987918Y-26488285D01*
X7987918Y-26311619D01*
X8083156Y-26311619D01*
X7773632Y-26538761D02*
X7773632Y-26008761D01*
X7487918Y-26538761D01*
X7487918Y-26008761D01*
X7249822Y-26538761D02*
X7249822Y-26008761D01*
X7130775Y-26008761D01*
X7059346Y-26034000D01*
X7011727Y-26084476D01*
X6987918Y-26134952D01*
X6964108Y-26235904D01*
X6964108Y-26311619D01*
X6987918Y-26412571D01*
X7011727Y-26463047D01*
X7059346Y-26513523D01*
X7130775Y-26538761D01*
X7249822Y-26538761D01*
X8011727Y-28569000D02*
X8059346Y-28543761D01*
X8130775Y-28543761D01*
X8202203Y-28569000D01*
X8249822Y-28619476D01*
X8273632Y-28669952D01*
X8297441Y-28770904D01*
X8297441Y-28846619D01*
X8273632Y-28947571D01*
X8249822Y-28998047D01*
X8202203Y-29048523D01*
X8130775Y-29073761D01*
X8083156Y-29073761D01*
X8011727Y-29048523D01*
X7987918Y-29023285D01*
X7987918Y-28846619D01*
X8083156Y-28846619D01*
X7773632Y-29073761D02*
X7773632Y-28543761D01*
X7583156Y-28543761D01*
X7535537Y-28569000D01*
X7511727Y-28594238D01*
X7487918Y-28644714D01*
X7487918Y-28720428D01*
X7511727Y-28770904D01*
X7535537Y-28796142D01*
X7583156Y-28821380D01*
X7773632Y-28821380D01*
X7297441Y-28594238D02*
X7273632Y-28569000D01*
X7226013Y-28543761D01*
X7106965Y-28543761D01*
X7059346Y-28569000D01*
X7035537Y-28594238D01*
X7011727Y-28644714D01*
X7011727Y-28695190D01*
X7035537Y-28770904D01*
X7321251Y-29073761D01*
X7011727Y-29073761D01*
X6845060Y-28543761D02*
X6535537Y-28543761D01*
X6702203Y-28745666D01*
X6630775Y-28745666D01*
X6583156Y-28770904D01*
X6559346Y-28796142D01*
X6535537Y-28846619D01*
X6535537Y-28972809D01*
X6559346Y-29023285D01*
X6583156Y-29048523D01*
X6630775Y-29073761D01*
X6773632Y-29073761D01*
X6821251Y-29048523D01*
X6845060Y-29023285D01*
X8011727Y-31104000D02*
X8059346Y-31078761D01*
X8130775Y-31078761D01*
X8202203Y-31104000D01*
X8249822Y-31154476D01*
X8273632Y-31204952D01*
X8297441Y-31305904D01*
X8297441Y-31381619D01*
X8273632Y-31482571D01*
X8249822Y-31533047D01*
X8202203Y-31583523D01*
X8130775Y-31608761D01*
X8083156Y-31608761D01*
X8011727Y-31583523D01*
X7987918Y-31558285D01*
X7987918Y-31381619D01*
X8083156Y-31381619D01*
X7773632Y-31608761D02*
X7773632Y-31078761D01*
X7583156Y-31078761D01*
X7535537Y-31104000D01*
X7511727Y-31129238D01*
X7487918Y-31179714D01*
X7487918Y-31255428D01*
X7511727Y-31305904D01*
X7535537Y-31331142D01*
X7583156Y-31356380D01*
X7773632Y-31356380D01*
X7297441Y-31129238D02*
X7273632Y-31104000D01*
X7226013Y-31078761D01*
X7106965Y-31078761D01*
X7059346Y-31104000D01*
X7035537Y-31129238D01*
X7011727Y-31179714D01*
X7011727Y-31230190D01*
X7035537Y-31305904D01*
X7321251Y-31608761D01*
X7011727Y-31608761D01*
X6583156Y-31255428D02*
X6583156Y-31608761D01*
X6702203Y-31053523D02*
X6821251Y-31432095D01*
X6511727Y-31432095D01*
X8011727Y-33639000D02*
X8059346Y-33613761D01*
X8130775Y-33613761D01*
X8202203Y-33639000D01*
X8249822Y-33689476D01*
X8273632Y-33739952D01*
X8297441Y-33840904D01*
X8297441Y-33916619D01*
X8273632Y-34017571D01*
X8249822Y-34068047D01*
X8202203Y-34118523D01*
X8130775Y-34143761D01*
X8083156Y-34143761D01*
X8011727Y-34118523D01*
X7987918Y-34093285D01*
X7987918Y-33916619D01*
X8083156Y-33916619D01*
X7773632Y-34143761D02*
X7773632Y-33613761D01*
X7487918Y-34143761D01*
X7487918Y-33613761D01*
X7249822Y-34143761D02*
X7249822Y-33613761D01*
X7130775Y-33613761D01*
X7059346Y-33639000D01*
X7011727Y-33689476D01*
X6987918Y-33739952D01*
X6964108Y-33840904D01*
X6964108Y-33916619D01*
X6987918Y-34017571D01*
X7011727Y-34068047D01*
X7059346Y-34118523D01*
X7130775Y-34143761D01*
X7249822Y-34143761D01*
X8011727Y-36174000D02*
X8059346Y-36148761D01*
X8130775Y-36148761D01*
X8202203Y-36174000D01*
X8249822Y-36224476D01*
X8273632Y-36274952D01*
X8297441Y-36375904D01*
X8297441Y-36451619D01*
X8273632Y-36552571D01*
X8249822Y-36603047D01*
X8202203Y-36653523D01*
X8130775Y-36678761D01*
X8083156Y-36678761D01*
X8011727Y-36653523D01*
X7987918Y-36628285D01*
X7987918Y-36451619D01*
X8083156Y-36451619D01*
X7773632Y-36678761D02*
X7773632Y-36148761D01*
X7583156Y-36148761D01*
X7535537Y-36174000D01*
X7511727Y-36199238D01*
X7487918Y-36249714D01*
X7487918Y-36325428D01*
X7511727Y-36375904D01*
X7535537Y-36401142D01*
X7583156Y-36426380D01*
X7773632Y-36426380D01*
X7297441Y-36199238D02*
X7273632Y-36174000D01*
X7226013Y-36148761D01*
X7106965Y-36148761D01*
X7059346Y-36174000D01*
X7035537Y-36199238D01*
X7011727Y-36249714D01*
X7011727Y-36300190D01*
X7035537Y-36375904D01*
X7321251Y-36678761D01*
X7011727Y-36678761D01*
X6559346Y-36148761D02*
X6797441Y-36148761D01*
X6821251Y-36401142D01*
X6797441Y-36375904D01*
X6749822Y-36350666D01*
X6630775Y-36350666D01*
X6583156Y-36375904D01*
X6559346Y-36401142D01*
X6535537Y-36451619D01*
X6535537Y-36577809D01*
X6559346Y-36628285D01*
X6583156Y-36653523D01*
X6630775Y-36678761D01*
X6749822Y-36678761D01*
X6797441Y-36653523D01*
X6821251Y-36628285D01*
X8011727Y-46314000D02*
X8059346Y-46288761D01*
X8130775Y-46288761D01*
X8202203Y-46314000D01*
X8249822Y-46364476D01*
X8273632Y-46414952D01*
X8297441Y-46515904D01*
X8297441Y-46591619D01*
X8273632Y-46692571D01*
X8249822Y-46743047D01*
X8202203Y-46793523D01*
X8130775Y-46818761D01*
X8083156Y-46818761D01*
X8011727Y-46793523D01*
X7987918Y-46768285D01*
X7987918Y-46591619D01*
X8083156Y-46591619D01*
X7773632Y-46818761D02*
X7773632Y-46288761D01*
X7487918Y-46818761D01*
X7487918Y-46288761D01*
X7249822Y-46818761D02*
X7249822Y-46288761D01*
X7130775Y-46288761D01*
X7059346Y-46314000D01*
X7011727Y-46364476D01*
X6987918Y-46414952D01*
X6964108Y-46515904D01*
X6964108Y-46591619D01*
X6987918Y-46692571D01*
X7011727Y-46743047D01*
X7059346Y-46793523D01*
X7130775Y-46818761D01*
X7249822Y-46818761D01*
X8011727Y-51384000D02*
X8059346Y-51358761D01*
X8130775Y-51358761D01*
X8202203Y-51384000D01*
X8249822Y-51434476D01*
X8273632Y-51484952D01*
X8297441Y-51585904D01*
X8297441Y-51661619D01*
X8273632Y-51762571D01*
X8249822Y-51813047D01*
X8202203Y-51863523D01*
X8130775Y-51888761D01*
X8083156Y-51888761D01*
X8011727Y-51863523D01*
X7987918Y-51838285D01*
X7987918Y-51661619D01*
X8083156Y-51661619D01*
X7773632Y-51888761D02*
X7773632Y-51358761D01*
X7487918Y-51888761D01*
X7487918Y-51358761D01*
X7249822Y-51888761D02*
X7249822Y-51358761D01*
X7130775Y-51358761D01*
X7059346Y-51384000D01*
X7011727Y-51434476D01*
X6987918Y-51484952D01*
X6964108Y-51585904D01*
X6964108Y-51661619D01*
X6987918Y-51762571D01*
X7011727Y-51813047D01*
X7059346Y-51863523D01*
X7130775Y-51888761D01*
X7249822Y-51888761D01*
D11*
X60509654Y-20350205D02*
X59973940Y-20350205D01*
X59866797Y-20385920D01*
X59795368Y-20457348D01*
X59759654Y-20564491D01*
X59759654Y-20635920D01*
X59759654Y-19635920D02*
X59759654Y-19993062D01*
X60509654Y-19993062D01*
X59831082Y-18957348D02*
X59795368Y-18993062D01*
X59759654Y-19100205D01*
X59759654Y-19171634D01*
X59795368Y-19278777D01*
X59866797Y-19350205D01*
X59938225Y-19385920D01*
X60081082Y-19421634D01*
X60188225Y-19421634D01*
X60331082Y-19385920D01*
X60402511Y-19350205D01*
X60473940Y-19278777D01*
X60509654Y-19171634D01*
X60509654Y-19100205D01*
X60473940Y-18993062D01*
X60438225Y-18957348D01*
X60509654Y-18421634D02*
X59973940Y-18421634D01*
X59866797Y-18457348D01*
X59795368Y-18528777D01*
X59759654Y-18635920D01*
X59759654Y-18707348D01*
X59759654Y-17707348D02*
X59759654Y-18064491D01*
X60509654Y-18064491D01*
X59831082Y-17028777D02*
X59795368Y-17064491D01*
X59759654Y-17171634D01*
X59759654Y-17243062D01*
X59795368Y-17350205D01*
X59866797Y-17421634D01*
X59938225Y-17457348D01*
X60081082Y-17493062D01*
X60188225Y-17493062D01*
X60331082Y-17457348D01*
X60402511Y-17421634D01*
X60473940Y-17350205D01*
X60509654Y-17243062D01*
X60509654Y-17171634D01*
X60473940Y-17064491D01*
X60438225Y-17028777D01*
X60509654Y-16493062D02*
X59973940Y-16493062D01*
X59866797Y-16528777D01*
X59795368Y-16600205D01*
X59759654Y-16707348D01*
X59759654Y-16778777D01*
X59759654Y-15778777D02*
X59759654Y-16135920D01*
X60509654Y-16135920D01*
X59831082Y-15100205D02*
X59795368Y-15135920D01*
X59759654Y-15243062D01*
X59759654Y-15314491D01*
X59795368Y-15421634D01*
X59866797Y-15493062D01*
X59938225Y-15528777D01*
X60081082Y-15564491D01*
X60188225Y-15564491D01*
X60331082Y-15528777D01*
X60402511Y-15493062D01*
X60473940Y-15421634D01*
X60509654Y-15314491D01*
X60509654Y-15243062D01*
X60473940Y-15135920D01*
X60438225Y-15100205D01*
X60509654Y-14564491D02*
X59973940Y-14564491D01*
X59866797Y-14600205D01*
X59795368Y-14671634D01*
X59759654Y-14778777D01*
X59759654Y-14850205D01*
X59759654Y-13850205D02*
X59759654Y-14207348D01*
X60509654Y-14207348D01*
X59831082Y-13171634D02*
X59795368Y-13207348D01*
X59759654Y-13314491D01*
X59759654Y-13385920D01*
X59795368Y-13493062D01*
X59866797Y-13564491D01*
X59938225Y-13600205D01*
X60081082Y-13635920D01*
X60188225Y-13635920D01*
X60331082Y-13600205D01*
X60402511Y-13564491D01*
X60473940Y-13493062D01*
X60509654Y-13385920D01*
X60509654Y-13314491D01*
X60473940Y-13207348D01*
X60438225Y-13171634D01*
D10*
X64049483Y-63440701D02*
X63746626Y-63440701D01*
X63898055Y-63970701D02*
X63898055Y-63440701D01*
X63569960Y-63970701D02*
X63569960Y-63440701D01*
X63443769Y-63440701D01*
X63368055Y-63465940D01*
X63317579Y-63516416D01*
X63292340Y-63566892D01*
X63267102Y-63667844D01*
X63267102Y-63743559D01*
X63292340Y-63844511D01*
X63317579Y-63894987D01*
X63368055Y-63945463D01*
X63443769Y-63970701D01*
X63569960Y-63970701D01*
X63039960Y-63970701D02*
X63039960Y-63440701D01*
X64049483Y-65975701D02*
X63746626Y-65975701D01*
X63898055Y-66505701D02*
X63898055Y-65975701D01*
X63569960Y-66505701D02*
X63569960Y-65975701D01*
X63393293Y-66354273D01*
X63216626Y-65975701D01*
X63216626Y-66505701D01*
X62989483Y-66480463D02*
X62913769Y-66505701D01*
X62787579Y-66505701D01*
X62737102Y-66480463D01*
X62711864Y-66455225D01*
X62686626Y-66404749D01*
X62686626Y-66354273D01*
X62711864Y-66303797D01*
X62737102Y-66278559D01*
X62787579Y-66253320D01*
X62888531Y-66228082D01*
X62939007Y-66202844D01*
X62964245Y-66177606D01*
X62989483Y-66127130D01*
X62989483Y-66076654D01*
X62964245Y-66026178D01*
X62939007Y-66000940D01*
X62888531Y-65975701D01*
X62762340Y-65975701D01*
X62686626Y-66000940D01*
X64049483Y-68510701D02*
X63746626Y-68510701D01*
X63898055Y-69040701D02*
X63898055Y-68510701D01*
X63267102Y-68990225D02*
X63292340Y-69015463D01*
X63368055Y-69040701D01*
X63418531Y-69040701D01*
X63494245Y-69015463D01*
X63544721Y-68964987D01*
X63569960Y-68914511D01*
X63595198Y-68813559D01*
X63595198Y-68737844D01*
X63569960Y-68636892D01*
X63544721Y-68586416D01*
X63494245Y-68535940D01*
X63418531Y-68510701D01*
X63368055Y-68510701D01*
X63292340Y-68535940D01*
X63267102Y-68561178D01*
X63039960Y-69040701D02*
X63039960Y-68510701D01*
X62737102Y-69040701D02*
X62964245Y-68737844D01*
X62737102Y-68510701D02*
X63039960Y-68813559D01*
X64049483Y-73580701D02*
X63746626Y-73580701D01*
X63898055Y-74110701D02*
X63898055Y-73580701D01*
X63569960Y-74110701D02*
X63569960Y-73580701D01*
X63443769Y-73580701D01*
X63368055Y-73605940D01*
X63317579Y-73656416D01*
X63292340Y-73706892D01*
X63267102Y-73807844D01*
X63267102Y-73883559D01*
X63292340Y-73984511D01*
X63317579Y-74034987D01*
X63368055Y-74085463D01*
X63443769Y-74110701D01*
X63569960Y-74110701D01*
X62939007Y-73580701D02*
X62838055Y-73580701D01*
X62787579Y-73605940D01*
X62737102Y-73656416D01*
X62711864Y-73757368D01*
X62711864Y-73934035D01*
X62737102Y-74034987D01*
X62787579Y-74085463D01*
X62838055Y-74110701D01*
X62939007Y-74110701D01*
X62989483Y-74085463D01*
X63039960Y-74034987D01*
X63065198Y-73934035D01*
X63065198Y-73757368D01*
X63039960Y-73656416D01*
X62989483Y-73605940D01*
X62939007Y-73580701D01*
X63670912Y-76645701D02*
X63847579Y-76393320D01*
X63973769Y-76645701D02*
X63973769Y-76115701D01*
X63771864Y-76115701D01*
X63721388Y-76140940D01*
X63696150Y-76166178D01*
X63670912Y-76216654D01*
X63670912Y-76292368D01*
X63696150Y-76342844D01*
X63721388Y-76368082D01*
X63771864Y-76393320D01*
X63973769Y-76393320D01*
X63469007Y-76620463D02*
X63393293Y-76645701D01*
X63267102Y-76645701D01*
X63216626Y-76620463D01*
X63191388Y-76595225D01*
X63166150Y-76544749D01*
X63166150Y-76494273D01*
X63191388Y-76443797D01*
X63216626Y-76418559D01*
X63267102Y-76393320D01*
X63368055Y-76368082D01*
X63418531Y-76342844D01*
X63443769Y-76317606D01*
X63469007Y-76267130D01*
X63469007Y-76216654D01*
X63443769Y-76166178D01*
X63418531Y-76140940D01*
X63368055Y-76115701D01*
X63241864Y-76115701D01*
X63166150Y-76140940D01*
X63014721Y-76115701D02*
X62711864Y-76115701D01*
X62863293Y-76645701D02*
X62863293Y-76115701D01*
X70377657Y-60979160D02*
X70425276Y-60953921D01*
X70496704Y-60953921D01*
X70568133Y-60979160D01*
X70615752Y-61029636D01*
X70639561Y-61080112D01*
X70663371Y-61181064D01*
X70663371Y-61256779D01*
X70639561Y-61357731D01*
X70615752Y-61408207D01*
X70568133Y-61458683D01*
X70496704Y-61483921D01*
X70449085Y-61483921D01*
X70377657Y-61458683D01*
X70353847Y-61433445D01*
X70353847Y-61256779D01*
X70449085Y-61256779D01*
X70139561Y-61483921D02*
X70139561Y-60953921D01*
X69853847Y-61483921D01*
X69853847Y-60953921D01*
X69615752Y-61483921D02*
X69615752Y-60953921D01*
X69496704Y-60953921D01*
X69425276Y-60979160D01*
X69377657Y-61029636D01*
X69353847Y-61080112D01*
X69330038Y-61181064D01*
X69330038Y-61256779D01*
X69353847Y-61357731D01*
X69377657Y-61408207D01*
X69425276Y-61458683D01*
X69496704Y-61483921D01*
X69615752Y-61483921D01*
X70520514Y-63488921D02*
X70187180Y-64018921D01*
X70187180Y-63488921D02*
X70520514Y-64018921D01*
X69758609Y-64018921D02*
X69996704Y-64018921D01*
X69996704Y-63488921D01*
X69330038Y-64018921D02*
X69615752Y-64018921D01*
X69472895Y-64018921D02*
X69472895Y-63488921D01*
X69520514Y-63564636D01*
X69568133Y-63615112D01*
X69615752Y-63640350D01*
X70615752Y-64333921D02*
X70615752Y-64762969D01*
X70591942Y-64813445D01*
X70568133Y-64838683D01*
X70520514Y-64863921D01*
X70425276Y-64863921D01*
X70377657Y-64838683D01*
X70353847Y-64813445D01*
X70330038Y-64762969D01*
X70330038Y-64333921D01*
X70091942Y-64863921D02*
X70091942Y-64333921D01*
X69901466Y-64333921D01*
X69853847Y-64359160D01*
X69830038Y-64384398D01*
X69806228Y-64434874D01*
X69806228Y-64510588D01*
X69830038Y-64561064D01*
X69853847Y-64586302D01*
X69901466Y-64611540D01*
X70091942Y-64611540D01*
X69330038Y-64863921D02*
X69615752Y-64863921D01*
X69472895Y-64863921D02*
X69472895Y-64333921D01*
X69520514Y-64409636D01*
X69568133Y-64460112D01*
X69615752Y-64485350D01*
X70377657Y-66049160D02*
X70425276Y-66023921D01*
X70496704Y-66023921D01*
X70568133Y-66049160D01*
X70615752Y-66099636D01*
X70639561Y-66150112D01*
X70663371Y-66251064D01*
X70663371Y-66326779D01*
X70639561Y-66427731D01*
X70615752Y-66478207D01*
X70568133Y-66528683D01*
X70496704Y-66553921D01*
X70449085Y-66553921D01*
X70377657Y-66528683D01*
X70353847Y-66503445D01*
X70353847Y-66326779D01*
X70449085Y-66326779D01*
X70139561Y-66553921D02*
X70139561Y-66023921D01*
X69853847Y-66553921D01*
X69853847Y-66023921D01*
X69615752Y-66553921D02*
X69615752Y-66023921D01*
X69496704Y-66023921D01*
X69425276Y-66049160D01*
X69377657Y-66099636D01*
X69353847Y-66150112D01*
X69330038Y-66251064D01*
X69330038Y-66326779D01*
X69353847Y-66427731D01*
X69377657Y-66478207D01*
X69425276Y-66528683D01*
X69496704Y-66553921D01*
X69615752Y-66553921D01*
X70044323Y-67713921D02*
X69710990Y-68243921D01*
X69710990Y-67713921D02*
X70044323Y-68243921D01*
X69282419Y-68243921D02*
X69520514Y-68243921D01*
X69520514Y-67713921D01*
X70615752Y-68558921D02*
X70615752Y-68987969D01*
X70591942Y-69038445D01*
X70568133Y-69063683D01*
X70520514Y-69088921D01*
X70425276Y-69088921D01*
X70377657Y-69063683D01*
X70353847Y-69038445D01*
X70330038Y-68987969D01*
X70330038Y-68558921D01*
X70091942Y-69088921D02*
X70091942Y-68558921D01*
X69901466Y-68558921D01*
X69853847Y-68584160D01*
X69830038Y-68609398D01*
X69806228Y-68659874D01*
X69806228Y-68735588D01*
X69830038Y-68786064D01*
X69853847Y-68811302D01*
X69901466Y-68836540D01*
X70091942Y-68836540D01*
X69496704Y-68558921D02*
X69449085Y-68558921D01*
X69401466Y-68584160D01*
X69377657Y-68609398D01*
X69353847Y-68659874D01*
X69330038Y-68760826D01*
X69330038Y-68887017D01*
X69353847Y-68987969D01*
X69377657Y-69038445D01*
X69401466Y-69063683D01*
X69449085Y-69088921D01*
X69496704Y-69088921D01*
X69544323Y-69063683D01*
X69568133Y-69038445D01*
X69591942Y-68987969D01*
X69615752Y-68887017D01*
X69615752Y-68760826D01*
X69591942Y-68659874D01*
X69568133Y-68609398D01*
X69544323Y-68584160D01*
X69496704Y-68558921D01*
X70377657Y-71119160D02*
X70425276Y-71093921D01*
X70496704Y-71093921D01*
X70568133Y-71119160D01*
X70615752Y-71169636D01*
X70639561Y-71220112D01*
X70663371Y-71321064D01*
X70663371Y-71396779D01*
X70639561Y-71497731D01*
X70615752Y-71548207D01*
X70568133Y-71598683D01*
X70496704Y-71623921D01*
X70449085Y-71623921D01*
X70377657Y-71598683D01*
X70353847Y-71573445D01*
X70353847Y-71396779D01*
X70449085Y-71396779D01*
X70139561Y-71623921D02*
X70139561Y-71093921D01*
X69853847Y-71623921D01*
X69853847Y-71093921D01*
X69615752Y-71623921D02*
X69615752Y-71093921D01*
X69496704Y-71093921D01*
X69425276Y-71119160D01*
X69377657Y-71169636D01*
X69353847Y-71220112D01*
X69330038Y-71321064D01*
X69330038Y-71396779D01*
X69353847Y-71497731D01*
X69377657Y-71548207D01*
X69425276Y-71598683D01*
X69496704Y-71623921D01*
X69615752Y-71623921D01*
X70044323Y-72783921D02*
X69710990Y-73313921D01*
X69710990Y-72783921D02*
X70044323Y-73313921D01*
X69282419Y-73313921D02*
X69520514Y-73313921D01*
X69520514Y-72783921D01*
X70615752Y-74158921D02*
X70615752Y-73628921D01*
X70496704Y-73628921D01*
X70425276Y-73654160D01*
X70377657Y-73704636D01*
X70353847Y-73755112D01*
X70330038Y-73856064D01*
X70330038Y-73931779D01*
X70353847Y-74032731D01*
X70377657Y-74083207D01*
X70425276Y-74133683D01*
X70496704Y-74158921D01*
X70615752Y-74158921D01*
X70115752Y-74158921D02*
X70115752Y-73628921D01*
X69830038Y-74158921D01*
X69830038Y-73628921D01*
X69496704Y-73628921D02*
X69449085Y-73628921D01*
X69401466Y-73654160D01*
X69377657Y-73679398D01*
X69353847Y-73729874D01*
X69330038Y-73830826D01*
X69330038Y-73957017D01*
X69353847Y-74057969D01*
X69377657Y-74108445D01*
X69401466Y-74133683D01*
X69449085Y-74158921D01*
X69496704Y-74158921D01*
X69544323Y-74133683D01*
X69568133Y-74108445D01*
X69591942Y-74057969D01*
X69615752Y-73957017D01*
X69615752Y-73830826D01*
X69591942Y-73729874D01*
X69568133Y-73679398D01*
X69544323Y-73654160D01*
X69496704Y-73628921D01*
X70377657Y-76189160D02*
X70425276Y-76163921D01*
X70496704Y-76163921D01*
X70568133Y-76189160D01*
X70615752Y-76239636D01*
X70639561Y-76290112D01*
X70663371Y-76391064D01*
X70663371Y-76466779D01*
X70639561Y-76567731D01*
X70615752Y-76618207D01*
X70568133Y-76668683D01*
X70496704Y-76693921D01*
X70449085Y-76693921D01*
X70377657Y-76668683D01*
X70353847Y-76643445D01*
X70353847Y-76466779D01*
X70449085Y-76466779D01*
X70139561Y-76693921D02*
X70139561Y-76163921D01*
X69853847Y-76693921D01*
X69853847Y-76163921D01*
X69615752Y-76693921D02*
X69615752Y-76163921D01*
X69496704Y-76163921D01*
X69425276Y-76189160D01*
X69377657Y-76239636D01*
X69353847Y-76290112D01*
X69330038Y-76391064D01*
X69330038Y-76466779D01*
X69353847Y-76567731D01*
X69377657Y-76618207D01*
X69425276Y-76668683D01*
X69496704Y-76693921D01*
X69615752Y-76693921D01*
X70044323Y-78698921D02*
X69710990Y-79228921D01*
X69710990Y-78698921D02*
X70044323Y-79228921D01*
X69282419Y-79228921D02*
X69520514Y-79228921D01*
X69520514Y-78698921D01*
X70615752Y-80073921D02*
X70615752Y-79543921D01*
X70496704Y-79543921D01*
X70425276Y-79569160D01*
X70377657Y-79619636D01*
X70353847Y-79670112D01*
X70330038Y-79771064D01*
X70330038Y-79846779D01*
X70353847Y-79947731D01*
X70377657Y-79998207D01*
X70425276Y-80048683D01*
X70496704Y-80073921D01*
X70615752Y-80073921D01*
X70115752Y-80073921D02*
X70115752Y-79543921D01*
X69830038Y-80073921D01*
X69830038Y-79543921D01*
X69330038Y-80073921D02*
X69615752Y-80073921D01*
X69472895Y-80073921D02*
X69472895Y-79543921D01*
X69520514Y-79619636D01*
X69568133Y-79670112D01*
X69615752Y-79695350D01*
X70377657Y-81259160D02*
X70425276Y-81233921D01*
X70496704Y-81233921D01*
X70568133Y-81259160D01*
X70615752Y-81309636D01*
X70639561Y-81360112D01*
X70663371Y-81461064D01*
X70663371Y-81536779D01*
X70639561Y-81637731D01*
X70615752Y-81688207D01*
X70568133Y-81738683D01*
X70496704Y-81763921D01*
X70449085Y-81763921D01*
X70377657Y-81738683D01*
X70353847Y-81713445D01*
X70353847Y-81536779D01*
X70449085Y-81536779D01*
X70139561Y-81763921D02*
X70139561Y-81233921D01*
X69853847Y-81763921D01*
X69853847Y-81233921D01*
X69615752Y-81763921D02*
X69615752Y-81233921D01*
X69496704Y-81233921D01*
X69425276Y-81259160D01*
X69377657Y-81309636D01*
X69353847Y-81360112D01*
X69330038Y-81461064D01*
X69330038Y-81536779D01*
X69353847Y-81637731D01*
X69377657Y-81688207D01*
X69425276Y-81738683D01*
X69496704Y-81763921D01*
X69615752Y-81763921D01*
D12*
X64975597Y-43603480D02*
X65118454Y-43532051D01*
X65332740Y-43532051D01*
X65547025Y-43603480D01*
X65689882Y-43746337D01*
X65761311Y-43889194D01*
X65832740Y-44174908D01*
X65832740Y-44389194D01*
X65761311Y-44674908D01*
X65689882Y-44817765D01*
X65547025Y-44960622D01*
X65332740Y-45032051D01*
X65189882Y-45032051D01*
X64975597Y-44960622D01*
X64904168Y-44889194D01*
X64904168Y-44389194D01*
X65189882Y-44389194D01*
X64261311Y-45032051D02*
X64261311Y-43532051D01*
X63404168Y-45032051D01*
X63404168Y-43532051D01*
X62689882Y-45032051D02*
X62689882Y-43532051D01*
X62332740Y-43532051D01*
X62118454Y-43603480D01*
X61975597Y-43746337D01*
X61904168Y-43889194D01*
X61832740Y-44174908D01*
X61832740Y-44389194D01*
X61904168Y-44674908D01*
X61975597Y-44817765D01*
X62118454Y-44960622D01*
X62332740Y-45032051D01*
X62689882Y-45032051D01*
X70257277Y-51571388D02*
X70400134Y-51499960D01*
X70471562Y-51428531D01*
X70542991Y-51285674D01*
X70542991Y-51214245D01*
X70471562Y-51071388D01*
X70400134Y-50999960D01*
X70257277Y-50928531D01*
X69971562Y-50928531D01*
X69828705Y-50999960D01*
X69757277Y-51071388D01*
X69685848Y-51214245D01*
X69685848Y-51285674D01*
X69757277Y-51428531D01*
X69828705Y-51499960D01*
X69971562Y-51571388D01*
X70257277Y-51571388D01*
X70400134Y-51642817D01*
X70471562Y-51714245D01*
X70542991Y-51857102D01*
X70542991Y-52142817D01*
X70471562Y-52285674D01*
X70400134Y-52357102D01*
X70257277Y-52428531D01*
X69971562Y-52428531D01*
X69828705Y-52357102D01*
X69757277Y-52285674D01*
X69685848Y-52142817D01*
X69685848Y-51857102D01*
X69757277Y-51714245D01*
X69828705Y-51642817D01*
X69971562Y-51571388D01*
X69042991Y-51857102D02*
X67900134Y-51857102D01*
X66400134Y-52428531D02*
X67257277Y-52428531D01*
X66828705Y-52428531D02*
X66828705Y-50928531D01*
X66971562Y-51142817D01*
X67114420Y-51285674D01*
X67257277Y-51357102D01*
X65114420Y-50928531D02*
X65400134Y-50928531D01*
X65542991Y-50999960D01*
X65614420Y-51071388D01*
X65757277Y-51285674D01*
X65828705Y-51571388D01*
X65828705Y-52142817D01*
X65757277Y-52285674D01*
X65685848Y-52357102D01*
X65542991Y-52428531D01*
X65257277Y-52428531D01*
X65114420Y-52357102D01*
X65042991Y-52285674D01*
X64971562Y-52142817D01*
X64971562Y-51785674D01*
X65042991Y-51642817D01*
X65114420Y-51571388D01*
X65257277Y-51499960D01*
X65542991Y-51499960D01*
X65685848Y-51571388D01*
X65757277Y-51642817D01*
X65828705Y-51785674D01*
X64542991Y-50928531D02*
X64042991Y-52428531D01*
X63542991Y-50928531D01*
D11*
X33831959Y-8733780D02*
X33427898Y-8329719D01*
X33427898Y-8733780D02*
X33831959Y-8329719D01*
X32695537Y-8001420D02*
X32998583Y-8304466D01*
X32847060Y-8152943D02*
X33377390Y-7622613D01*
X33352136Y-7748882D01*
X33352136Y-7849897D01*
X33377390Y-7925658D01*
X32518761Y-7723628D02*
X32468253Y-7723628D01*
X32468253Y-7774135D01*
X32518761Y-7774135D01*
X32518761Y-7723628D01*
X32468253Y-7774135D01*
X32645030Y-6890252D02*
X32594522Y-6839744D01*
X32518761Y-6814491D01*
X32468253Y-6814491D01*
X32392492Y-6839744D01*
X32266223Y-6915506D01*
X32139953Y-7041775D01*
X32064192Y-7168044D01*
X32038938Y-7243805D01*
X32038938Y-7294313D01*
X32064192Y-7370074D01*
X32114700Y-7420582D01*
X32190461Y-7445836D01*
X32240969Y-7445836D01*
X32316730Y-7420582D01*
X32442999Y-7344821D01*
X32569268Y-7218552D01*
X32645030Y-7092283D01*
X32670284Y-7016521D01*
X32670284Y-6966013D01*
X32645030Y-6890252D01*
X32316730Y-6561952D02*
X31609623Y-6915506D01*
X31963177Y-6208399D01*
X31966168Y-10778685D02*
X31966168Y-10028685D01*
X31680454Y-10028685D01*
X31609025Y-10064400D01*
X31573311Y-10100114D01*
X31537597Y-10171542D01*
X31537597Y-10278685D01*
X31573311Y-10350114D01*
X31609025Y-10385828D01*
X31680454Y-10421542D01*
X31966168Y-10421542D01*
X31323311Y-10028685D02*
X31073311Y-10778685D01*
X30823311Y-10028685D01*
X30573311Y-10778685D02*
X30573311Y-10028685D01*
X30394740Y-10028685D01*
X30287597Y-10064400D01*
X30216168Y-10135828D01*
X30180454Y-10207257D01*
X30144740Y-10350114D01*
X30144740Y-10457257D01*
X30180454Y-10600114D01*
X30216168Y-10671542D01*
X30287597Y-10742971D01*
X30394740Y-10778685D01*
X30573311Y-10778685D01*
X29823311Y-10778685D02*
X29823311Y-10028685D01*
X29644740Y-10028685D01*
X29537597Y-10064400D01*
X29466168Y-10135828D01*
X29430454Y-10207257D01*
X29394740Y-10350114D01*
X29394740Y-10457257D01*
X29430454Y-10600114D01*
X29466168Y-10671542D01*
X29537597Y-10742971D01*
X29644740Y-10778685D01*
X29823311Y-10778685D01*
X28109025Y-10064400D02*
X28180454Y-10028685D01*
X28287597Y-10028685D01*
X28394740Y-10064400D01*
X28466168Y-10135828D01*
X28501882Y-10207257D01*
X28537597Y-10350114D01*
X28537597Y-10457257D01*
X28501882Y-10600114D01*
X28466168Y-10671542D01*
X28394740Y-10742971D01*
X28287597Y-10778685D01*
X28216168Y-10778685D01*
X28109025Y-10742971D01*
X28073311Y-10707257D01*
X28073311Y-10457257D01*
X28216168Y-10457257D01*
X27751882Y-10778685D02*
X27751882Y-10028685D01*
X27323311Y-10778685D01*
X27323311Y-10028685D01*
X26966168Y-10778685D02*
X26966168Y-10028685D01*
X26787597Y-10028685D01*
X26680454Y-10064400D01*
X26609025Y-10135828D01*
X26573311Y-10207257D01*
X26537597Y-10350114D01*
X26537597Y-10457257D01*
X26573311Y-10600114D01*
X26609025Y-10671542D01*
X26680454Y-10742971D01*
X26787597Y-10778685D01*
X26966168Y-10778685D01*
X26471048Y-5832605D02*
X26006762Y-5832605D01*
X26256762Y-6118320D01*
X26149620Y-6118320D01*
X26078191Y-6154034D01*
X26042477Y-6189748D01*
X26006762Y-6261177D01*
X26006762Y-6439748D01*
X26042477Y-6511177D01*
X26078191Y-6546891D01*
X26149620Y-6582605D01*
X26363905Y-6582605D01*
X26435334Y-6546891D01*
X26471048Y-6511177D01*
X25685334Y-6511177D02*
X25649620Y-6546891D01*
X25685334Y-6582605D01*
X25721048Y-6546891D01*
X25685334Y-6511177D01*
X25685334Y-6582605D01*
X25399620Y-5832605D02*
X24935334Y-5832605D01*
X25185334Y-6118320D01*
X25078191Y-6118320D01*
X25006762Y-6154034D01*
X24971048Y-6189748D01*
X24935334Y-6261177D01*
X24935334Y-6439748D01*
X24971048Y-6511177D01*
X25006762Y-6546891D01*
X25078191Y-6582605D01*
X25292477Y-6582605D01*
X25363905Y-6546891D01*
X25399620Y-6511177D01*
X24721048Y-5832605D02*
X24471048Y-6582605D01*
X24221048Y-5832605D01*
X23971048Y-6296891D02*
X23399620Y-6296891D01*
X23685334Y-6582605D02*
X23685334Y-6011177D01*
X32262260Y-1110211D02*
X31690831Y-1110211D01*
X31976545Y-1395925D02*
X31976545Y-824497D01*
X30940831Y-1395925D02*
X31369402Y-1395925D01*
X31155117Y-1395925D02*
X31155117Y-645925D01*
X31226545Y-753068D01*
X31297974Y-824497D01*
X31369402Y-860211D01*
X30655117Y-717354D02*
X30619402Y-681640D01*
X30547974Y-645925D01*
X30369402Y-645925D01*
X30297974Y-681640D01*
X30262260Y-717354D01*
X30226545Y-788782D01*
X30226545Y-860211D01*
X30262260Y-967354D01*
X30690831Y-1395925D01*
X30226545Y-1395925D01*
X30012260Y-645925D02*
X29762260Y-1395925D01*
X29512260Y-645925D01*
X28690831Y-1110211D02*
X28119402Y-1110211D01*
X28405117Y-1395925D02*
X28405117Y-824497D01*
X27405117Y-645925D02*
X27762260Y-645925D01*
X27797974Y-1003068D01*
X27762260Y-967354D01*
X27690831Y-931640D01*
X27512260Y-931640D01*
X27440831Y-967354D01*
X27405117Y-1003068D01*
X27369402Y-1074497D01*
X27369402Y-1253068D01*
X27405117Y-1324497D01*
X27440831Y-1360211D01*
X27512260Y-1395925D01*
X27690831Y-1395925D01*
X27762260Y-1360211D01*
X27797974Y-1324497D01*
X27155117Y-645925D02*
X26905117Y-1395925D01*
X26655117Y-645925D01*
G36*
X65719325Y-12678410D02*
G01*
X65620900Y-32699960D01*
X60619640Y-32720280D01*
X60787915Y-12670790D01*
X65719325Y-12678410D01*
G37*
X65719325Y-12678410D02*
X65620900Y-32699960D01*
X60619640Y-32720280D01*
X60787915Y-12670790D01*
X65719325Y-12678410D01*
D12*
X69173888Y-32483097D02*
X70673888Y-32483097D01*
X69602460Y-31983097D01*
X70673888Y-31483097D01*
X69173888Y-31483097D01*
X70173888Y-30911668D02*
X69173888Y-30554525D01*
X70173888Y-30197382D02*
X69173888Y-30554525D01*
X68816745Y-30697382D01*
X68745317Y-30768811D01*
X68673888Y-30911668D01*
X69245317Y-28983097D02*
X69173888Y-29125954D01*
X69173888Y-29411668D01*
X69245317Y-29554525D01*
X69316745Y-29625954D01*
X69459602Y-29697382D01*
X69888174Y-29697382D01*
X70031031Y-29625954D01*
X70102460Y-29554525D01*
X70173888Y-29411668D01*
X70173888Y-29125954D01*
X70102460Y-28983097D01*
X69173888Y-28340240D02*
X70173888Y-28340240D01*
X69888174Y-28340240D02*
X70031031Y-28268811D01*
X70102460Y-28197382D01*
X70173888Y-28054525D01*
X70173888Y-27911668D01*
X69173888Y-27197382D02*
X69245317Y-27340240D01*
X69316745Y-27411668D01*
X69459602Y-27483097D01*
X69888174Y-27483097D01*
X70031031Y-27411668D01*
X70102460Y-27340240D01*
X70173888Y-27197382D01*
X70173888Y-26983097D01*
X70102460Y-26840240D01*
X70031031Y-26768811D01*
X69888174Y-26697382D01*
X69459602Y-26697382D01*
X69316745Y-26768811D01*
X69245317Y-26840240D01*
X69173888Y-26983097D01*
X69173888Y-27197382D01*
X70173888Y-26268811D02*
X70173888Y-25697382D01*
X69173888Y-26054525D02*
X70459602Y-26054525D01*
X70602460Y-25983097D01*
X70673888Y-25840240D01*
X70673888Y-25697382D01*
X70173888Y-25411668D02*
X70173888Y-24840240D01*
X70673888Y-25197382D02*
X69388174Y-25197382D01*
X69245317Y-25125954D01*
X69173888Y-24983097D01*
X69173888Y-24840240D01*
X69173888Y-23197382D02*
X70673888Y-23197382D01*
X69602460Y-22697382D01*
X70673888Y-22197382D01*
X69173888Y-22197382D01*
X69173888Y-21483097D02*
X70673888Y-21483097D01*
X69173888Y-20625954D02*
X70031031Y-21268811D01*
X70673888Y-20625954D02*
X69816745Y-21483097D01*
X70531031Y-20054525D02*
X70602460Y-19983097D01*
X70673888Y-19840240D01*
X70673888Y-19483097D01*
X70602460Y-19340240D01*
X70531031Y-19268811D01*
X70388174Y-19197382D01*
X70245317Y-19197382D01*
X70031031Y-19268811D01*
X69173888Y-20125954D01*
X69173888Y-19197382D01*
X70173888Y-17554525D02*
X69173888Y-17197382D01*
X70173888Y-16840240D01*
X70673888Y-15983097D02*
X70673888Y-15840240D01*
X70602460Y-15697382D01*
X70531031Y-15625954D01*
X70388174Y-15554525D01*
X70102460Y-15483097D01*
X69745317Y-15483097D01*
X69459602Y-15554525D01*
X69316745Y-15625954D01*
X69245317Y-15697382D01*
X69173888Y-15840240D01*
X69173888Y-15983097D01*
X69245317Y-16125954D01*
X69316745Y-16197382D01*
X69459602Y-16268811D01*
X69745317Y-16340240D01*
X70102460Y-16340240D01*
X70388174Y-16268811D01*
X70531031Y-16197382D01*
X70602460Y-16125954D01*
X70673888Y-15983097D01*
X69316745Y-14840240D02*
X69245317Y-14768811D01*
X69173888Y-14840240D01*
X69245317Y-14911668D01*
X69316745Y-14840240D01*
X69173888Y-14840240D01*
X70673888Y-13483097D02*
X70673888Y-13768811D01*
X70602460Y-13911668D01*
X70531031Y-13983097D01*
X70316745Y-14125954D01*
X70031031Y-14197382D01*
X69459602Y-14197382D01*
X69316745Y-14125954D01*
X69245317Y-14054525D01*
X69173888Y-13911668D01*
X69173888Y-13625954D01*
X69245317Y-13483097D01*
X69316745Y-13411668D01*
X69459602Y-13340240D01*
X69816745Y-13340240D01*
X69959602Y-13411668D01*
X70031031Y-13483097D01*
X70102460Y-13625954D01*
X70102460Y-13911668D01*
X70031031Y-14054525D01*
X69959602Y-14125954D01*
X69816745Y-14197382D01*
X70673888Y-11983097D02*
X70673888Y-12697382D01*
X69959602Y-12768811D01*
X70031031Y-12697382D01*
X70102460Y-12554525D01*
X70102460Y-12197382D01*
X70031031Y-12054525D01*
X69959602Y-11983097D01*
X69816745Y-11911668D01*
X69459602Y-11911668D01*
X69316745Y-11983097D01*
X69245317Y-12054525D01*
X69173888Y-12197382D01*
X69173888Y-12554525D01*
X69245317Y-12697382D01*
X69316745Y-12768811D01*
X66695317Y-32554525D02*
X66623888Y-32340240D01*
X66623888Y-31983097D01*
X66695317Y-31840240D01*
X66766745Y-31768811D01*
X66909602Y-31697382D01*
X67052460Y-31697382D01*
X67195317Y-31768811D01*
X67266745Y-31840240D01*
X67338174Y-31983097D01*
X67409602Y-32268811D01*
X67481031Y-32411668D01*
X67552460Y-32483097D01*
X67695317Y-32554525D01*
X67838174Y-32554525D01*
X67981031Y-32483097D01*
X68052460Y-32411668D01*
X68123888Y-32268811D01*
X68123888Y-31911668D01*
X68052460Y-31697382D01*
X68123888Y-30625954D02*
X67052460Y-30625954D01*
X66838174Y-30697382D01*
X66695317Y-30840240D01*
X66623888Y-31054525D01*
X66623888Y-31197382D01*
X67981031Y-29983097D02*
X68052460Y-29911668D01*
X68123888Y-29768811D01*
X68123888Y-29411668D01*
X68052460Y-29268811D01*
X67981031Y-29197382D01*
X67838174Y-29125954D01*
X67695317Y-29125954D01*
X67481031Y-29197382D01*
X66623888Y-30054525D01*
X66623888Y-29125954D01*
X68123888Y-28197382D02*
X68123888Y-28054525D01*
X68052460Y-27911668D01*
X67981031Y-27840240D01*
X67838174Y-27768811D01*
X67552460Y-27697382D01*
X67195317Y-27697382D01*
X66909602Y-27768811D01*
X66766745Y-27840240D01*
X66695317Y-27911668D01*
X66623888Y-28054525D01*
X66623888Y-28197382D01*
X66695317Y-28340240D01*
X66766745Y-28411668D01*
X66909602Y-28483097D01*
X67195317Y-28554525D01*
X67552460Y-28554525D01*
X67838174Y-28483097D01*
X67981031Y-28411668D01*
X68052460Y-28340240D01*
X68123888Y-28197382D01*
X66623888Y-26268811D02*
X66623888Y-27125954D01*
X66623888Y-26697382D02*
X68123888Y-26697382D01*
X67909602Y-26840240D01*
X67766745Y-26983097D01*
X67695317Y-27125954D01*
X67195317Y-25625954D02*
X67195317Y-24483097D01*
X68123888Y-23483097D02*
X68123888Y-23340240D01*
X68052460Y-23197382D01*
X67981031Y-23125954D01*
X67838174Y-23054525D01*
X67552460Y-22983097D01*
X67195317Y-22983097D01*
X66909602Y-23054525D01*
X66766745Y-23125954D01*
X66695317Y-23197382D01*
X66623888Y-23340240D01*
X66623888Y-23483097D01*
X66695317Y-23625954D01*
X66766745Y-23697382D01*
X66909602Y-23768811D01*
X67195317Y-23840240D01*
X67552460Y-23840240D01*
X67838174Y-23768811D01*
X67981031Y-23697382D01*
X68052460Y-23625954D01*
X68123888Y-23483097D01*
X66623888Y-21554525D02*
X66623888Y-22411668D01*
X66623888Y-21983097D02*
X68123888Y-21983097D01*
X67909602Y-22125954D01*
X67766745Y-22268811D01*
X67695317Y-22411668D01*
X67195317Y-20911668D02*
X67195317Y-19768811D01*
X68123888Y-18768811D02*
X68123888Y-18625954D01*
X68052460Y-18483097D01*
X67981031Y-18411668D01*
X67838174Y-18340240D01*
X67552460Y-18268811D01*
X67195317Y-18268811D01*
X66909602Y-18340240D01*
X66766745Y-18411668D01*
X66695317Y-18483097D01*
X66623888Y-18625954D01*
X66623888Y-18768811D01*
X66695317Y-18911668D01*
X66766745Y-18983097D01*
X66909602Y-19054525D01*
X67195317Y-19125954D01*
X67552460Y-19125954D01*
X67838174Y-19054525D01*
X67981031Y-18983097D01*
X68052460Y-18911668D01*
X68123888Y-18768811D01*
X66623888Y-16840240D02*
X66623888Y-17697382D01*
X66623888Y-17268811D02*
X68123888Y-17268811D01*
X67909602Y-17411668D01*
X67766745Y-17554525D01*
X67695317Y-17697382D01*
D13*
X20875758Y-10085000D02*
X20358602Y-10085000D01*
X20875758Y-11505000D02*
X20358602Y-11505000D01*
X41013380Y-37840920D02*
X45585380Y-37840920D01*
X41013380Y-36570920D02*
X41013380Y-37840920D01*
X41013380Y-33776920D02*
X45585380Y-33776920D01*
X45382180Y-44038520D02*
X49954180Y-44038520D01*
X45382180Y-42768520D02*
X45382180Y-44038520D01*
X45382180Y-39974520D02*
X49954180Y-39974520D01*
X48531780Y-50845720D02*
X53103780Y-50845720D01*
X48531780Y-49575720D02*
X48531780Y-50845720D01*
X48531780Y-46781720D02*
X53103780Y-46781720D01*
X45432980Y-57652920D02*
X50004980Y-57652920D01*
X45432980Y-56382920D02*
X45432980Y-57652920D01*
X45432980Y-53588920D02*
X50004980Y-53588920D01*
X41064180Y-63850520D02*
X45636180Y-63850520D01*
X41064180Y-62580520D02*
X41064180Y-63850520D01*
X41064180Y-59786520D02*
X45636180Y-59786520D01*
X33545780Y-64460120D02*
X38117780Y-64460120D01*
X33545780Y-63190120D02*
X33545780Y-64460120D01*
X33545780Y-60396120D02*
X38117780Y-60396120D01*
X26078180Y-63799720D02*
X30650180Y-63799720D01*
X26078180Y-62529720D02*
X26078180Y-63799720D01*
X26078180Y-59735720D02*
X30650180Y-59735720D01*
X21658580Y-57754520D02*
X26230580Y-57754520D01*
X21658580Y-56484520D02*
X21658580Y-57754520D01*
X21658580Y-53690520D02*
X26230580Y-53690520D01*
X18559780Y-50896520D02*
X23131780Y-50896520D01*
X18559780Y-49626520D02*
X18559780Y-50896520D01*
X18559780Y-46832520D02*
X23131780Y-46832520D01*
X21709380Y-44038520D02*
X26281380Y-44038520D01*
X21709380Y-42768520D02*
X21709380Y-44038520D01*
X21709380Y-39974520D02*
X26281380Y-39974520D01*
X26027380Y-37942520D02*
X30599380Y-37942520D01*
X26027380Y-36672520D02*
X26027380Y-37942520D01*
X26027380Y-33878520D02*
X30599380Y-33878520D01*
X33545780Y-37180520D02*
X38117780Y-37180520D01*
X33545780Y-35910520D02*
X33545780Y-37180520D01*
X33545780Y-33116520D02*
X38117780Y-33116520D01*
X53234820Y-71328280D02*
G75*
G03*
X53234820Y-71328280I-700000J0D01*
G01*
X53214500Y-73472040D02*
G75*
G03*
X53214500Y-73472040I-700000J0D01*
G01*
D14*
X25958180Y-13264120D02*
X23658180Y-13264120D01*
X25958180Y-14564120D02*
X23658180Y-14564120D01*
D15*
X22808180Y-12414120D02*
X26808180Y-12414120D01*
X26808180Y-12414120D02*
X26808180Y-15414120D01*
X26808180Y-15414120D02*
X22808180Y-15414120D01*
X22808180Y-15414120D02*
X22808180Y-12414120D01*
X24653180Y-13914120D02*
G75*
G03*
X24653180Y-13914120I-625000J0D01*
G01*
X26808180Y-14914120D02*
X26308180Y-15414120D01*
D14*
X25958180Y-83114120D02*
X23658180Y-83114120D01*
X25958180Y-84414120D02*
X23658180Y-84414120D01*
D15*
X22808180Y-82264120D02*
X26808180Y-82264120D01*
X26808180Y-82264120D02*
X26808180Y-85264120D01*
X26808180Y-85264120D02*
X22808180Y-85264120D01*
X22808180Y-85264120D02*
X22808180Y-82264120D01*
X24653180Y-83764120D02*
G75*
G03*
X24653180Y-83764120I-625000J0D01*
G01*
X26808180Y-84764120D02*
X26308180Y-85264120D01*
D13*
X24854402Y-87796440D02*
X25371558Y-87796440D01*
X24854402Y-86376440D02*
X25371558Y-86376440D01*
D14*
G36*
X58014057Y-47200521D02*
G01*
X57962425Y-47188309D01*
X57867683Y-47178731D01*
X57722718Y-47171520D01*
X57520422Y-47166412D01*
X57253685Y-47163140D01*
X56915394Y-47161437D01*
X56569187Y-47161026D01*
X55108687Y-47161026D01*
X55112326Y-47319776D01*
X55123670Y-47457633D01*
X55146305Y-47577639D01*
X55148274Y-47584360D01*
X55281270Y-47880904D01*
X55481946Y-48144079D01*
X55736120Y-48362127D01*
X56029610Y-48523288D01*
X56348234Y-48615804D01*
X56401673Y-48623585D01*
X56701718Y-48621215D01*
X57007373Y-48547939D01*
X57297984Y-48413339D01*
X57552896Y-48227000D01*
X57751452Y-47998503D01*
X57752547Y-47996850D01*
X57837364Y-47842914D01*
X57917829Y-47653707D01*
X57983213Y-47459471D01*
X58022787Y-47290446D01*
X58029687Y-47215632D01*
X58014057Y-47200521D01*
G37*
X58014057Y-47200521D02*
X57962425Y-47188309D01*
X57867683Y-47178731D01*
X57722718Y-47171520D01*
X57520422Y-47166412D01*
X57253685Y-47163140D01*
X56915394Y-47161437D01*
X56569187Y-47161026D01*
X55108687Y-47161026D01*
X55112326Y-47319776D01*
X55123670Y-47457633D01*
X55146305Y-47577639D01*
X55148274Y-47584360D01*
X55281270Y-47880904D01*
X55481946Y-48144079D01*
X55736120Y-48362127D01*
X56029610Y-48523288D01*
X56348234Y-48615804D01*
X56401673Y-48623585D01*
X56701718Y-48621215D01*
X57007373Y-48547939D01*
X57297984Y-48413339D01*
X57552896Y-48227000D01*
X57751452Y-47998503D01*
X57752547Y-47996850D01*
X57837364Y-47842914D01*
X57917829Y-47653707D01*
X57983213Y-47459471D01*
X58022787Y-47290446D01*
X58029687Y-47215632D01*
X58014057Y-47200521D01*
G36*
X60340729Y-46922028D02*
G01*
X60224566Y-46783901D01*
X60110885Y-46712577D01*
X59924986Y-46664493D01*
X59747506Y-46687861D01*
X59592051Y-46769928D01*
X59472229Y-46897944D01*
X59401648Y-47059156D01*
X59393914Y-47240813D01*
X59425369Y-47354979D01*
X59514118Y-47484868D01*
X59651220Y-47594010D01*
X59803972Y-47659640D01*
X59876537Y-47669026D01*
X60072393Y-47634846D01*
X60226118Y-47543048D01*
X60333763Y-47409750D01*
X60391379Y-47251070D01*
X60395017Y-47083123D01*
X60340729Y-46922028D01*
G37*
X60340729Y-46922028D02*
X60224566Y-46783901D01*
X60110885Y-46712577D01*
X59924986Y-46664493D01*
X59747506Y-46687861D01*
X59592051Y-46769928D01*
X59472229Y-46897944D01*
X59401648Y-47059156D01*
X59393914Y-47240813D01*
X59425369Y-47354979D01*
X59514118Y-47484868D01*
X59651220Y-47594010D01*
X59803972Y-47659640D01*
X59876537Y-47669026D01*
X60072393Y-47634846D01*
X60226118Y-47543048D01*
X60333763Y-47409750D01*
X60391379Y-47251070D01*
X60395017Y-47083123D01*
X60340729Y-46922028D01*
G36*
X58903956Y-27316230D02*
G01*
X58822940Y-27189187D01*
X58820709Y-27187072D01*
X58722730Y-27095026D01*
X54352832Y-27095026D01*
X54265093Y-27206569D01*
X54203889Y-27305265D01*
X54177384Y-27389408D01*
X54177354Y-27391360D01*
X54202374Y-27474264D01*
X54262801Y-27573212D01*
X54265093Y-27576151D01*
X54352832Y-27687693D01*
X58734595Y-27687693D01*
X58826641Y-27589715D01*
X58905272Y-27455363D01*
X58903956Y-27316230D01*
G37*
X58903956Y-27316230D02*
X58822940Y-27189187D01*
X58820709Y-27187072D01*
X58722730Y-27095026D01*
X54352832Y-27095026D01*
X54265093Y-27206569D01*
X54203889Y-27305265D01*
X54177384Y-27389408D01*
X54177354Y-27391360D01*
X54202374Y-27474264D01*
X54262801Y-27573212D01*
X54265093Y-27576151D01*
X54352832Y-27687693D01*
X58734595Y-27687693D01*
X58826641Y-27589715D01*
X58905272Y-27455363D01*
X58903956Y-27316230D01*
G36*
X58851268Y-30628706D02*
G01*
X58823437Y-30594214D01*
X58770913Y-30557364D01*
X58661840Y-30501180D01*
X58492931Y-30424289D01*
X58260894Y-30325317D01*
X57962441Y-30202893D01*
X57594283Y-30055643D01*
X57153129Y-29882194D01*
X56637018Y-29681687D01*
X56235584Y-29527110D01*
X55856021Y-29382222D01*
X55506008Y-29249869D01*
X55193229Y-29132896D01*
X54925364Y-29034147D01*
X54710096Y-28956469D01*
X54555107Y-28902706D01*
X54468079Y-28875703D01*
X54453647Y-28873026D01*
X54349765Y-28908411D01*
X54250831Y-28994356D01*
X54186855Y-29100552D01*
X54177354Y-29152086D01*
X54188033Y-29228732D01*
X54226534Y-29297770D01*
X54302551Y-29365508D01*
X54425779Y-29438255D01*
X54605913Y-29522319D01*
X54852649Y-29624008D01*
X54978937Y-29673673D01*
X55659020Y-29938695D01*
X55659020Y-31782037D01*
X55013437Y-32026800D01*
X54706154Y-32148621D01*
X54474854Y-32254311D01*
X54313611Y-32349171D01*
X54216498Y-32438504D01*
X54177591Y-32527613D01*
X54190963Y-32621799D01*
X54243254Y-32715940D01*
X54342984Y-32793896D01*
X54446463Y-32810026D01*
X54512828Y-32794885D01*
X54650534Y-32751252D01*
X54852205Y-32681814D01*
X55110464Y-32589260D01*
X55417937Y-32476274D01*
X55767246Y-32345546D01*
X56151016Y-32199761D01*
X56219937Y-32173231D01*
X56219937Y-31571446D01*
X56199867Y-31560457D01*
X56185235Y-31504102D01*
X56175361Y-31393357D01*
X56169568Y-31219197D01*
X56167178Y-30972598D01*
X56167020Y-30867222D01*
X56169441Y-30565288D01*
X56176790Y-30345841D01*
X56189195Y-30206836D01*
X56206787Y-30146230D01*
X56212887Y-30143026D01*
X56264655Y-30157043D01*
X56383508Y-30196240D01*
X56557155Y-30256342D01*
X56773303Y-30333069D01*
X57019662Y-30422145D01*
X57112470Y-30456079D01*
X57373797Y-30550919D01*
X57616086Y-30637007D01*
X57825287Y-30709498D01*
X57987352Y-30763544D01*
X58088233Y-30794298D01*
X58104140Y-30798190D01*
X58199552Y-30829936D01*
X58212227Y-30865106D01*
X58143826Y-30900380D01*
X58040738Y-30924830D01*
X57948131Y-30949791D01*
X57784268Y-31002759D01*
X57556791Y-31081021D01*
X57273340Y-31181865D01*
X56941558Y-31302575D01*
X56569084Y-31440439D01*
X56219937Y-31571446D01*
X56219937Y-32173231D01*
X56561871Y-32041607D01*
X56655979Y-32005102D01*
X57154803Y-31810559D01*
X57578741Y-31643443D01*
X57932330Y-31501846D01*
X58220106Y-31383856D01*
X58446605Y-31287565D01*
X58616362Y-31211063D01*
X58733914Y-31152439D01*
X58803796Y-31109785D01*
X58823437Y-31092575D01*
X58903671Y-30944731D01*
X58912948Y-30780950D01*
X58851268Y-30628706D01*
G37*
X58851268Y-30628706D02*
X58823437Y-30594214D01*
X58770913Y-30557364D01*
X58661840Y-30501180D01*
X58492931Y-30424289D01*
X58260894Y-30325317D01*
X57962441Y-30202893D01*
X57594283Y-30055643D01*
X57153129Y-29882194D01*
X56637018Y-29681687D01*
X56235584Y-29527110D01*
X55856021Y-29382222D01*
X55506008Y-29249869D01*
X55193229Y-29132896D01*
X54925364Y-29034147D01*
X54710096Y-28956469D01*
X54555107Y-28902706D01*
X54468079Y-28875703D01*
X54453647Y-28873026D01*
X54349765Y-28908411D01*
X54250831Y-28994356D01*
X54186855Y-29100552D01*
X54177354Y-29152086D01*
X54188033Y-29228732D01*
X54226534Y-29297770D01*
X54302551Y-29365508D01*
X54425779Y-29438255D01*
X54605913Y-29522319D01*
X54852649Y-29624008D01*
X54978937Y-29673673D01*
X55659020Y-29938695D01*
X55659020Y-31782037D01*
X55013437Y-32026800D01*
X54706154Y-32148621D01*
X54474854Y-32254311D01*
X54313611Y-32349171D01*
X54216498Y-32438504D01*
X54177591Y-32527613D01*
X54190963Y-32621799D01*
X54243254Y-32715940D01*
X54342984Y-32793896D01*
X54446463Y-32810026D01*
X54512828Y-32794885D01*
X54650534Y-32751252D01*
X54852205Y-32681814D01*
X55110464Y-32589260D01*
X55417937Y-32476274D01*
X55767246Y-32345546D01*
X56151016Y-32199761D01*
X56219937Y-32173231D01*
X56219937Y-31571446D01*
X56199867Y-31560457D01*
X56185235Y-31504102D01*
X56175361Y-31393357D01*
X56169568Y-31219197D01*
X56167178Y-30972598D01*
X56167020Y-30867222D01*
X56169441Y-30565288D01*
X56176790Y-30345841D01*
X56189195Y-30206836D01*
X56206787Y-30146230D01*
X56212887Y-30143026D01*
X56264655Y-30157043D01*
X56383508Y-30196240D01*
X56557155Y-30256342D01*
X56773303Y-30333069D01*
X57019662Y-30422145D01*
X57112470Y-30456079D01*
X57373797Y-30550919D01*
X57616086Y-30637007D01*
X57825287Y-30709498D01*
X57987352Y-30763544D01*
X58088233Y-30794298D01*
X58104140Y-30798190D01*
X58199552Y-30829936D01*
X58212227Y-30865106D01*
X58143826Y-30900380D01*
X58040738Y-30924830D01*
X57948131Y-30949791D01*
X57784268Y-31002759D01*
X57556791Y-31081021D01*
X57273340Y-31181865D01*
X56941558Y-31302575D01*
X56569084Y-31440439D01*
X56219937Y-31571446D01*
X56219937Y-32173231D01*
X56561871Y-32041607D01*
X56655979Y-32005102D01*
X57154803Y-31810559D01*
X57578741Y-31643443D01*
X57932330Y-31501846D01*
X58220106Y-31383856D01*
X58446605Y-31287565D01*
X58616362Y-31211063D01*
X58733914Y-31152439D01*
X58803796Y-31109785D01*
X58823437Y-31092575D01*
X58903671Y-30944731D01*
X58912948Y-30780950D01*
X58851268Y-30628706D01*
G36*
X58814778Y-36723936D02*
G01*
X58692960Y-36637249D01*
X58578955Y-36633671D01*
X58465089Y-36713074D01*
X58460400Y-36718005D01*
X58424990Y-36760944D01*
X58400027Y-36811694D01*
X58383698Y-36884843D01*
X58374190Y-36994978D01*
X58369693Y-37156686D01*
X58368392Y-37384555D01*
X58368354Y-37458838D01*
X58368354Y-38101693D01*
X54349985Y-38101693D01*
X54263670Y-38194342D01*
X54188112Y-38324840D01*
X54196722Y-38463976D01*
X54265093Y-38582817D01*
X54352832Y-38694360D01*
X58368354Y-38694360D01*
X58368354Y-39350526D01*
X58369197Y-39602457D01*
X58372801Y-39783813D01*
X58380775Y-39908683D01*
X58394728Y-39991151D01*
X58416271Y-40045303D01*
X58447013Y-40085224D01*
X58453020Y-40091360D01*
X58572501Y-40165613D01*
X58697109Y-40155527D01*
X58814778Y-40072117D01*
X58918687Y-39968208D01*
X58918687Y-36827845D01*
X58814778Y-36723936D01*
G37*
X58814778Y-36723936D02*
X58692960Y-36637249D01*
X58578955Y-36633671D01*
X58465089Y-36713074D01*
X58460400Y-36718005D01*
X58424990Y-36760944D01*
X58400027Y-36811694D01*
X58383698Y-36884843D01*
X58374190Y-36994978D01*
X58369693Y-37156686D01*
X58368392Y-37384555D01*
X58368354Y-37458838D01*
X58368354Y-38101693D01*
X54349985Y-38101693D01*
X54263670Y-38194342D01*
X54188112Y-38324840D01*
X54196722Y-38463976D01*
X54265093Y-38582817D01*
X54352832Y-38694360D01*
X58368354Y-38694360D01*
X58368354Y-39350526D01*
X58369197Y-39602457D01*
X58372801Y-39783813D01*
X58380775Y-39908683D01*
X58394728Y-39991151D01*
X58416271Y-40045303D01*
X58447013Y-40085224D01*
X58453020Y-40091360D01*
X58572501Y-40165613D01*
X58697109Y-40155527D01*
X58814778Y-40072117D01*
X58918687Y-39968208D01*
X58918687Y-36827845D01*
X58814778Y-36723936D01*
G36*
X58918063Y-42324443D02*
G01*
X58917319Y-41943511D01*
X58914470Y-41638617D01*
X58907932Y-41401132D01*
X58896120Y-41222428D01*
X58877450Y-41093879D01*
X58850336Y-41006856D01*
X58813193Y-40952731D01*
X58764438Y-40922877D01*
X58702485Y-40908666D01*
X58657153Y-40903961D01*
X58570498Y-40900990D01*
X58503115Y-40914501D01*
X58452591Y-40953689D01*
X58416517Y-41027754D01*
X58392482Y-41145891D01*
X58378074Y-41317297D01*
X58370884Y-41551170D01*
X58368501Y-41856708D01*
X58368354Y-42005779D01*
X58368354Y-42927693D01*
X56717354Y-42927693D01*
X56717354Y-42069279D01*
X56716042Y-41744449D01*
X56710399Y-41494529D01*
X56697865Y-41309777D01*
X56675879Y-41180457D01*
X56641880Y-41096827D01*
X56593308Y-41049149D01*
X56527602Y-41027685D01*
X56442201Y-41022693D01*
X56442187Y-41022693D01*
X56356783Y-41027683D01*
X56291075Y-41049144D01*
X56242500Y-41096817D01*
X56208499Y-41180441D01*
X56186512Y-41309754D01*
X56173976Y-41494496D01*
X56168333Y-41744407D01*
X56167021Y-42069225D01*
X56167020Y-42069279D01*
X56167020Y-42927693D01*
X55264233Y-42927693D01*
X54965698Y-42927958D01*
X54740141Y-42929519D01*
X54575874Y-42933529D01*
X54461208Y-42941138D01*
X54384455Y-42953496D01*
X54333926Y-42971757D01*
X54297934Y-42997070D01*
X54269400Y-43025672D01*
X54190022Y-43156660D01*
X54195146Y-43288913D01*
X54281263Y-43416451D01*
X54385172Y-43520360D01*
X58918687Y-43520360D01*
X58918063Y-42324443D01*
G37*
X58918063Y-42324443D02*
X58917319Y-41943511D01*
X58914470Y-41638617D01*
X58907932Y-41401132D01*
X58896120Y-41222428D01*
X58877450Y-41093879D01*
X58850336Y-41006856D01*
X58813193Y-40952731D01*
X58764438Y-40922877D01*
X58702485Y-40908666D01*
X58657153Y-40903961D01*
X58570498Y-40900990D01*
X58503115Y-40914501D01*
X58452591Y-40953689D01*
X58416517Y-41027754D01*
X58392482Y-41145891D01*
X58378074Y-41317297D01*
X58370884Y-41551170D01*
X58368501Y-41856708D01*
X58368354Y-42005779D01*
X58368354Y-42927693D01*
X56717354Y-42927693D01*
X56717354Y-42069279D01*
X56716042Y-41744449D01*
X56710399Y-41494529D01*
X56697865Y-41309777D01*
X56675879Y-41180457D01*
X56641880Y-41096827D01*
X56593308Y-41049149D01*
X56527602Y-41027685D01*
X56442201Y-41022693D01*
X56442187Y-41022693D01*
X56356783Y-41027683D01*
X56291075Y-41049144D01*
X56242500Y-41096817D01*
X56208499Y-41180441D01*
X56186512Y-41309754D01*
X56173976Y-41494496D01*
X56168333Y-41744407D01*
X56167021Y-42069225D01*
X56167020Y-42069279D01*
X56167020Y-42927693D01*
X55264233Y-42927693D01*
X54965698Y-42927958D01*
X54740141Y-42929519D01*
X54575874Y-42933529D01*
X54461208Y-42941138D01*
X54384455Y-42953496D01*
X54333926Y-42971757D01*
X54297934Y-42997070D01*
X54269400Y-43025672D01*
X54190022Y-43156660D01*
X54195146Y-43288913D01*
X54281263Y-43416451D01*
X54385172Y-43520360D01*
X58918687Y-43520360D01*
X58918063Y-42324443D01*
G36*
X58906594Y-52759610D02*
G01*
X58895278Y-52395061D01*
X58880206Y-52102006D01*
X58859175Y-51867288D01*
X58829980Y-51677747D01*
X58790420Y-51520226D01*
X58738290Y-51381567D01*
X58671387Y-51248612D01*
X58646203Y-51204618D01*
X58497299Y-51017760D01*
X58293434Y-50853338D01*
X58064309Y-50734678D01*
X58033953Y-50723741D01*
X57921724Y-50700133D01*
X57757592Y-50682872D01*
X57574263Y-50675223D01*
X57547120Y-50675107D01*
X57337801Y-50682140D01*
X57178782Y-50706653D01*
X57036475Y-50754653D01*
X56992520Y-50774297D01*
X56770870Y-50915761D01*
X56567914Y-51114673D01*
X56409554Y-51344121D01*
X56373395Y-51417631D01*
X56292976Y-51599432D01*
X55438630Y-51073562D01*
X55120761Y-50881183D01*
X54860807Y-50730851D01*
X54661823Y-50624221D01*
X54526863Y-50562946D01*
X54467134Y-50547693D01*
X54331492Y-50583433D01*
X54233970Y-50675024D01*
X54186821Y-50799026D01*
X54202298Y-50931996D01*
X54235138Y-50991536D01*
X54286632Y-51034325D01*
X54400698Y-51112656D01*
X54566606Y-51219707D01*
X54773624Y-51348655D01*
X55011022Y-51492674D01*
X55198222Y-51603925D01*
X56103520Y-52137289D01*
X56127460Y-53087693D01*
X54352832Y-53087693D01*
X54265093Y-53199236D01*
X54203889Y-53297931D01*
X54177384Y-53382075D01*
X54177354Y-53384026D01*
X54202374Y-53466930D01*
X54262801Y-53565879D01*
X54265093Y-53568817D01*
X54352832Y-53680360D01*
X58368354Y-53680360D01*
X58368354Y-53087693D01*
X56632687Y-53087693D01*
X56632687Y-52645277D01*
X56637204Y-52432622D01*
X56649331Y-52226284D01*
X56666935Y-52056967D01*
X56678197Y-51990658D01*
X56772394Y-51728582D01*
X56924864Y-51519576D01*
X57124636Y-51370516D01*
X57360739Y-51288277D01*
X57622203Y-51279734D01*
X57768008Y-51307625D01*
X57967990Y-51387465D01*
X58123325Y-51511507D01*
X58237517Y-51687056D01*
X58314067Y-51921419D01*
X58356477Y-52221903D01*
X58368354Y-52560115D01*
X58368354Y-53087693D01*
X58368354Y-53680360D01*
X58929739Y-53680360D01*
X58906594Y-52759610D01*
G37*
X58906594Y-52759610D02*
X58895278Y-52395061D01*
X58880206Y-52102006D01*
X58859175Y-51867288D01*
X58829980Y-51677747D01*
X58790420Y-51520226D01*
X58738290Y-51381567D01*
X58671387Y-51248612D01*
X58646203Y-51204618D01*
X58497299Y-51017760D01*
X58293434Y-50853338D01*
X58064309Y-50734678D01*
X58033953Y-50723741D01*
X57921724Y-50700133D01*
X57757592Y-50682872D01*
X57574263Y-50675223D01*
X57547120Y-50675107D01*
X57337801Y-50682140D01*
X57178782Y-50706653D01*
X57036475Y-50754653D01*
X56992520Y-50774297D01*
X56770870Y-50915761D01*
X56567914Y-51114673D01*
X56409554Y-51344121D01*
X56373395Y-51417631D01*
X56292976Y-51599432D01*
X55438630Y-51073562D01*
X55120761Y-50881183D01*
X54860807Y-50730851D01*
X54661823Y-50624221D01*
X54526863Y-50562946D01*
X54467134Y-50547693D01*
X54331492Y-50583433D01*
X54233970Y-50675024D01*
X54186821Y-50799026D01*
X54202298Y-50931996D01*
X54235138Y-50991536D01*
X54286632Y-51034325D01*
X54400698Y-51112656D01*
X54566606Y-51219707D01*
X54773624Y-51348655D01*
X55011022Y-51492674D01*
X55198222Y-51603925D01*
X56103520Y-52137289D01*
X56127460Y-53087693D01*
X54352832Y-53087693D01*
X54265093Y-53199236D01*
X54203889Y-53297931D01*
X54177384Y-53382075D01*
X54177354Y-53384026D01*
X54202374Y-53466930D01*
X54262801Y-53565879D01*
X54265093Y-53568817D01*
X54352832Y-53680360D01*
X58368354Y-53680360D01*
X58368354Y-53087693D01*
X56632687Y-53087693D01*
X56632687Y-52645277D01*
X56637204Y-52432622D01*
X56649331Y-52226284D01*
X56666935Y-52056967D01*
X56678197Y-51990658D01*
X56772394Y-51728582D01*
X56924864Y-51519576D01*
X57124636Y-51370516D01*
X57360739Y-51288277D01*
X57622203Y-51279734D01*
X57768008Y-51307625D01*
X57967990Y-51387465D01*
X58123325Y-51511507D01*
X58237517Y-51687056D01*
X58314067Y-51921419D01*
X58356477Y-52221903D01*
X58368354Y-52560115D01*
X58368354Y-53087693D01*
X58368354Y-53680360D01*
X58929739Y-53680360D01*
X58906594Y-52759610D01*
G36*
X58905114Y-62704921D02*
G01*
X58859876Y-62642340D01*
X58776190Y-62568653D01*
X58647275Y-62479396D01*
X58466352Y-62370105D01*
X58226638Y-62236315D01*
X57921352Y-62073563D01*
X57696890Y-61956526D01*
X57422766Y-61813597D01*
X57174815Y-61682669D01*
X56962549Y-61568896D01*
X56795479Y-61477434D01*
X56683117Y-61413439D01*
X56634974Y-61382066D01*
X56633861Y-61380359D01*
X56669503Y-61354786D01*
X56770886Y-61294991D01*
X56928781Y-61206088D01*
X57133954Y-61093192D01*
X57377175Y-60961415D01*
X57649211Y-60815872D01*
X57737483Y-60769005D01*
X58073229Y-60590234D01*
X58340685Y-60444851D01*
X58546814Y-60327453D01*
X58698583Y-60232635D01*
X58802958Y-60154995D01*
X58866904Y-60089128D01*
X58897386Y-60029631D01*
X58901371Y-59971101D01*
X58885825Y-59908133D01*
X58877332Y-59884767D01*
X58797908Y-59772350D01*
X58678862Y-59702410D01*
X58613113Y-59691693D01*
X58563643Y-59711311D01*
X58448933Y-59767053D01*
X58277937Y-59854255D01*
X58059607Y-59968250D01*
X57802897Y-60104371D01*
X57516760Y-60257955D01*
X57272798Y-60390193D01*
X55989623Y-61088693D01*
X55168155Y-61088693D01*
X54883229Y-61089235D01*
X54670687Y-61091625D01*
X54518249Y-61097010D01*
X54413635Y-61106539D01*
X54344564Y-61121358D01*
X54298757Y-61142615D01*
X54263934Y-61171458D01*
X54262020Y-61173360D01*
X54187588Y-61300181D01*
X54186689Y-61439618D01*
X54257644Y-61565409D01*
X54288896Y-61593621D01*
X54333580Y-61624556D01*
X54386096Y-61647247D01*
X54459459Y-61662959D01*
X54566684Y-61672959D01*
X54720786Y-61678514D01*
X54934779Y-61680891D01*
X55190393Y-61681360D01*
X55980348Y-61681360D01*
X57248434Y-62358522D01*
X57572852Y-62530002D01*
X57869096Y-62683159D01*
X58128818Y-62813900D01*
X58343667Y-62918131D01*
X58505293Y-62991756D01*
X58605346Y-63030683D01*
X58629865Y-63035856D01*
X58733204Y-63002484D01*
X58834765Y-62921129D01*
X58904543Y-62820356D01*
X58918687Y-62760860D01*
X58905114Y-62704921D01*
G37*
X58905114Y-62704921D02*
X58859876Y-62642340D01*
X58776190Y-62568653D01*
X58647275Y-62479396D01*
X58466352Y-62370105D01*
X58226638Y-62236315D01*
X57921352Y-62073563D01*
X57696890Y-61956526D01*
X57422766Y-61813597D01*
X57174815Y-61682669D01*
X56962549Y-61568896D01*
X56795479Y-61477434D01*
X56683117Y-61413439D01*
X56634974Y-61382066D01*
X56633861Y-61380359D01*
X56669503Y-61354786D01*
X56770886Y-61294991D01*
X56928781Y-61206088D01*
X57133954Y-61093192D01*
X57377175Y-60961415D01*
X57649211Y-60815872D01*
X57737483Y-60769005D01*
X58073229Y-60590234D01*
X58340685Y-60444851D01*
X58546814Y-60327453D01*
X58698583Y-60232635D01*
X58802958Y-60154995D01*
X58866904Y-60089128D01*
X58897386Y-60029631D01*
X58901371Y-59971101D01*
X58885825Y-59908133D01*
X58877332Y-59884767D01*
X58797908Y-59772350D01*
X58678862Y-59702410D01*
X58613113Y-59691693D01*
X58563643Y-59711311D01*
X58448933Y-59767053D01*
X58277937Y-59854255D01*
X58059607Y-59968250D01*
X57802897Y-60104371D01*
X57516760Y-60257955D01*
X57272798Y-60390193D01*
X55989623Y-61088693D01*
X55168155Y-61088693D01*
X54883229Y-61089235D01*
X54670687Y-61091625D01*
X54518249Y-61097010D01*
X54413635Y-61106539D01*
X54344564Y-61121358D01*
X54298757Y-61142615D01*
X54263934Y-61171458D01*
X54262020Y-61173360D01*
X54187588Y-61300181D01*
X54186689Y-61439618D01*
X54257644Y-61565409D01*
X54288896Y-61593621D01*
X54333580Y-61624556D01*
X54386096Y-61647247D01*
X54459459Y-61662959D01*
X54566684Y-61672959D01*
X54720786Y-61678514D01*
X54934779Y-61680891D01*
X55190393Y-61681360D01*
X55980348Y-61681360D01*
X57248434Y-62358522D01*
X57572852Y-62530002D01*
X57869096Y-62683159D01*
X58128818Y-62813900D01*
X58343667Y-62918131D01*
X58505293Y-62991756D01*
X58605346Y-63030683D01*
X58629865Y-63035856D01*
X58733204Y-63002484D01*
X58834765Y-62921129D01*
X58904543Y-62820356D01*
X58918687Y-62760860D01*
X58905114Y-62704921D01*
G36*
X58876295Y-64518311D02*
G01*
X58792656Y-64349637D01*
X58669010Y-64233491D01*
X58525166Y-64136693D01*
X54385172Y-64136693D01*
X54281263Y-64240602D01*
X54194475Y-64366296D01*
X54191649Y-64489728D01*
X54272846Y-64616668D01*
X54285472Y-64629660D01*
X54393591Y-64737778D01*
X56335127Y-64722986D01*
X56731142Y-64720064D01*
X57099722Y-64717529D01*
X57432539Y-64715426D01*
X57721265Y-64713797D01*
X57957573Y-64712688D01*
X58133134Y-64712141D01*
X58239620Y-64712200D01*
X58269591Y-64712782D01*
X58229860Y-64728282D01*
X58118519Y-64771026D01*
X57943086Y-64838143D01*
X57711082Y-64926764D01*
X57430025Y-65034017D01*
X57107436Y-65157033D01*
X56750834Y-65292940D01*
X56367738Y-65438869D01*
X56280430Y-65472116D01*
X55828776Y-65644409D01*
X55449880Y-65789820D01*
X55137205Y-65911139D01*
X54884214Y-66011155D01*
X54684368Y-66092660D01*
X54531129Y-66158443D01*
X54417960Y-66211295D01*
X54338324Y-66254005D01*
X54285681Y-66289364D01*
X54253494Y-66320163D01*
X54237847Y-66343841D01*
X54193740Y-66455923D01*
X54177354Y-66545230D01*
X54181369Y-66596322D01*
X54197557Y-66644175D01*
X54232129Y-66691764D01*
X54291299Y-66742065D01*
X54381280Y-66798053D01*
X54508284Y-66862704D01*
X54678524Y-66938993D01*
X54898212Y-67029897D01*
X55173562Y-67138390D01*
X55510786Y-67267449D01*
X55916097Y-67420048D01*
X56315187Y-67569148D01*
X56700100Y-67712730D01*
X57060038Y-67847111D01*
X57387386Y-67969438D01*
X57674524Y-68076860D01*
X57913837Y-68166525D01*
X58097707Y-68235580D01*
X58218517Y-68281174D01*
X58268650Y-68300455D01*
X58269591Y-68300890D01*
X58230126Y-68301727D01*
X58114312Y-68301904D01*
X57930466Y-68301462D01*
X57686905Y-68300439D01*
X57391944Y-68298875D01*
X57053899Y-68296809D01*
X56681087Y-68294280D01*
X56329509Y-68291694D01*
X54382356Y-68276862D01*
X54279855Y-68373157D01*
X54194260Y-68498816D01*
X54188915Y-68630395D01*
X54262020Y-68751026D01*
X54283455Y-68770118D01*
X54311074Y-68786102D01*
X54352064Y-68799254D01*
X54413608Y-68809850D01*
X54502894Y-68818165D01*
X54627106Y-68824476D01*
X54793430Y-68829058D01*
X55009052Y-68832188D01*
X55281157Y-68834140D01*
X55616930Y-68835191D01*
X56023558Y-68835617D01*
X56467587Y-68835693D01*
X58588487Y-68835693D01*
X58732420Y-68691760D01*
X58821597Y-68590602D01*
X58864009Y-68495836D01*
X58876119Y-68366383D01*
X58876354Y-68332594D01*
X58875224Y-68247424D01*
X58867531Y-68173555D01*
X58846819Y-68107331D01*
X58806636Y-68045098D01*
X58740524Y-67983201D01*
X58642030Y-67917986D01*
X58504700Y-67845796D01*
X58322077Y-67762978D01*
X58087708Y-67665877D01*
X57795137Y-67550837D01*
X57437910Y-67414204D01*
X57009573Y-67252324D01*
X56886687Y-67205998D01*
X56520633Y-67067594D01*
X56178987Y-66937615D01*
X55869918Y-66819225D01*
X55601594Y-66715590D01*
X55382182Y-66629876D01*
X55219850Y-66565250D01*
X55122765Y-66524877D01*
X55097857Y-66512611D01*
X55129390Y-66491606D01*
X55232405Y-66443919D01*
X55399147Y-66372706D01*
X55621864Y-66281121D01*
X55892802Y-66172320D01*
X56204209Y-66049461D01*
X56548330Y-65915697D01*
X56831911Y-65806799D01*
X57202620Y-65664016D01*
X57552046Y-65527196D01*
X57871534Y-65399890D01*
X58152429Y-65285647D01*
X58386074Y-65188017D01*
X58563816Y-65110551D01*
X58676998Y-65056799D01*
X58713165Y-65035194D01*
X58837659Y-64881233D01*
X58891666Y-64702224D01*
X58876295Y-64518311D01*
G37*
X58876295Y-64518311D02*
X58792656Y-64349637D01*
X58669010Y-64233491D01*
X58525166Y-64136693D01*
X54385172Y-64136693D01*
X54281263Y-64240602D01*
X54194475Y-64366296D01*
X54191649Y-64489728D01*
X54272846Y-64616668D01*
X54285472Y-64629660D01*
X54393591Y-64737778D01*
X56335127Y-64722986D01*
X56731142Y-64720064D01*
X57099722Y-64717529D01*
X57432539Y-64715426D01*
X57721265Y-64713797D01*
X57957573Y-64712688D01*
X58133134Y-64712141D01*
X58239620Y-64712200D01*
X58269591Y-64712782D01*
X58229860Y-64728282D01*
X58118519Y-64771026D01*
X57943086Y-64838143D01*
X57711082Y-64926764D01*
X57430025Y-65034017D01*
X57107436Y-65157033D01*
X56750834Y-65292940D01*
X56367738Y-65438869D01*
X56280430Y-65472116D01*
X55828776Y-65644409D01*
X55449880Y-65789820D01*
X55137205Y-65911139D01*
X54884214Y-66011155D01*
X54684368Y-66092660D01*
X54531129Y-66158443D01*
X54417960Y-66211295D01*
X54338324Y-66254005D01*
X54285681Y-66289364D01*
X54253494Y-66320163D01*
X54237847Y-66343841D01*
X54193740Y-66455923D01*
X54177354Y-66545230D01*
X54181369Y-66596322D01*
X54197557Y-66644175D01*
X54232129Y-66691764D01*
X54291299Y-66742065D01*
X54381280Y-66798053D01*
X54508284Y-66862704D01*
X54678524Y-66938993D01*
X54898212Y-67029897D01*
X55173562Y-67138390D01*
X55510786Y-67267449D01*
X55916097Y-67420048D01*
X56315187Y-67569148D01*
X56700100Y-67712730D01*
X57060038Y-67847111D01*
X57387386Y-67969438D01*
X57674524Y-68076860D01*
X57913837Y-68166525D01*
X58097707Y-68235580D01*
X58218517Y-68281174D01*
X58268650Y-68300455D01*
X58269591Y-68300890D01*
X58230126Y-68301727D01*
X58114312Y-68301904D01*
X57930466Y-68301462D01*
X57686905Y-68300439D01*
X57391944Y-68298875D01*
X57053899Y-68296809D01*
X56681087Y-68294280D01*
X56329509Y-68291694D01*
X54382356Y-68276862D01*
X54279855Y-68373157D01*
X54194260Y-68498816D01*
X54188915Y-68630395D01*
X54262020Y-68751026D01*
X54283455Y-68770118D01*
X54311074Y-68786102D01*
X54352064Y-68799254D01*
X54413608Y-68809850D01*
X54502894Y-68818165D01*
X54627106Y-68824476D01*
X54793430Y-68829058D01*
X55009052Y-68832188D01*
X55281157Y-68834140D01*
X55616930Y-68835191D01*
X56023558Y-68835617D01*
X56467587Y-68835693D01*
X58588487Y-68835693D01*
X58732420Y-68691760D01*
X58821597Y-68590602D01*
X58864009Y-68495836D01*
X58876119Y-68366383D01*
X58876354Y-68332594D01*
X58875224Y-68247424D01*
X58867531Y-68173555D01*
X58846819Y-68107331D01*
X58806636Y-68045098D01*
X58740524Y-67983201D01*
X58642030Y-67917986D01*
X58504700Y-67845796D01*
X58322077Y-67762978D01*
X58087708Y-67665877D01*
X57795137Y-67550837D01*
X57437910Y-67414204D01*
X57009573Y-67252324D01*
X56886687Y-67205998D01*
X56520633Y-67067594D01*
X56178987Y-66937615D01*
X55869918Y-66819225D01*
X55601594Y-66715590D01*
X55382182Y-66629876D01*
X55219850Y-66565250D01*
X55122765Y-66524877D01*
X55097857Y-66512611D01*
X55129390Y-66491606D01*
X55232405Y-66443919D01*
X55399147Y-66372706D01*
X55621864Y-66281121D01*
X55892802Y-66172320D01*
X56204209Y-66049461D01*
X56548330Y-65915697D01*
X56831911Y-65806799D01*
X57202620Y-65664016D01*
X57552046Y-65527196D01*
X57871534Y-65399890D01*
X58152429Y-65285647D01*
X58386074Y-65188017D01*
X58563816Y-65110551D01*
X58676998Y-65056799D01*
X58713165Y-65035194D01*
X58837659Y-64881233D01*
X58891666Y-64702224D01*
X58876295Y-64518311D01*
G36*
X58885330Y-56189190D02*
G01*
X58827932Y-55989114D01*
X58729419Y-55743737D01*
X58606770Y-55512716D01*
X58469947Y-55309085D01*
X58328911Y-55145881D01*
X58193624Y-55036139D01*
X58074047Y-54992893D01*
X58066453Y-54992693D01*
X57927831Y-55026911D01*
X57833903Y-55114924D01*
X57795807Y-55234775D01*
X57824682Y-55364503D01*
X57854507Y-55410530D01*
X58070338Y-55705998D01*
X58224900Y-55972695D01*
X58326672Y-56229845D01*
X58384134Y-56496674D01*
X58399329Y-56645800D01*
X58387245Y-57035752D01*
X58294623Y-57399881D01*
X58121257Y-57738753D01*
X57892771Y-58026053D01*
X57609825Y-58277017D01*
X57303362Y-58451688D01*
X56962229Y-58554750D01*
X56575272Y-58590883D01*
X56546964Y-58591026D01*
X56163726Y-58551471D01*
X55809163Y-58438111D01*
X55491273Y-58258912D01*
X55218055Y-58021836D01*
X54997506Y-57734847D01*
X54837625Y-57405906D01*
X54746410Y-57042979D01*
X54727687Y-56779712D01*
X54763391Y-56397774D01*
X54873202Y-56042363D01*
X55061168Y-55702845D01*
X55214810Y-55500347D01*
X55321874Y-55341373D01*
X55351512Y-55208418D01*
X55303932Y-55093728D01*
X55227800Y-55022377D01*
X55135933Y-54967379D01*
X55054587Y-54966403D01*
X54988817Y-54989740D01*
X54884036Y-55055704D01*
X54772379Y-55158456D01*
X54739010Y-55197076D01*
X54474085Y-55587097D01*
X54291820Y-55993825D01*
X54191352Y-56420097D01*
X54171819Y-56868751D01*
X54183237Y-57024693D01*
X54266349Y-57442543D01*
X54423527Y-57831737D01*
X54646806Y-58184575D01*
X54928218Y-58493362D01*
X55259799Y-58750397D01*
X55633583Y-58947984D01*
X56041603Y-59078424D01*
X56358677Y-59127008D01*
X56789898Y-59124081D01*
X57198586Y-59045742D01*
X57578815Y-58899519D01*
X57924662Y-58692938D01*
X58230205Y-58433527D01*
X58489518Y-58128815D01*
X58696679Y-57786329D01*
X58845765Y-57413595D01*
X58930850Y-57018143D01*
X58946013Y-56607498D01*
X58885330Y-56189190D01*
G37*
X58885330Y-56189190D02*
X58827932Y-55989114D01*
X58729419Y-55743737D01*
X58606770Y-55512716D01*
X58469947Y-55309085D01*
X58328911Y-55145881D01*
X58193624Y-55036139D01*
X58074047Y-54992893D01*
X58066453Y-54992693D01*
X57927831Y-55026911D01*
X57833903Y-55114924D01*
X57795807Y-55234775D01*
X57824682Y-55364503D01*
X57854507Y-55410530D01*
X58070338Y-55705998D01*
X58224900Y-55972695D01*
X58326672Y-56229845D01*
X58384134Y-56496674D01*
X58399329Y-56645800D01*
X58387245Y-57035752D01*
X58294623Y-57399881D01*
X58121257Y-57738753D01*
X57892771Y-58026053D01*
X57609825Y-58277017D01*
X57303362Y-58451688D01*
X56962229Y-58554750D01*
X56575272Y-58590883D01*
X56546964Y-58591026D01*
X56163726Y-58551471D01*
X55809163Y-58438111D01*
X55491273Y-58258912D01*
X55218055Y-58021836D01*
X54997506Y-57734847D01*
X54837625Y-57405906D01*
X54746410Y-57042979D01*
X54727687Y-56779712D01*
X54763391Y-56397774D01*
X54873202Y-56042363D01*
X55061168Y-55702845D01*
X55214810Y-55500347D01*
X55321874Y-55341373D01*
X55351512Y-55208418D01*
X55303932Y-55093728D01*
X55227800Y-55022377D01*
X55135933Y-54967379D01*
X55054587Y-54966403D01*
X54988817Y-54989740D01*
X54884036Y-55055704D01*
X54772379Y-55158456D01*
X54739010Y-55197076D01*
X54474085Y-55587097D01*
X54291820Y-55993825D01*
X54191352Y-56420097D01*
X54171819Y-56868751D01*
X54183237Y-57024693D01*
X54266349Y-57442543D01*
X54423527Y-57831737D01*
X54646806Y-58184575D01*
X54928218Y-58493362D01*
X55259799Y-58750397D01*
X55633583Y-58947984D01*
X56041603Y-59078424D01*
X56358677Y-59127008D01*
X56789898Y-59124081D01*
X57198586Y-59045742D01*
X57578815Y-58899519D01*
X57924662Y-58692938D01*
X58230205Y-58433527D01*
X58489518Y-58128815D01*
X58696679Y-57786329D01*
X58845765Y-57413595D01*
X58930850Y-57018143D01*
X58946013Y-56607498D01*
X58885330Y-56189190D01*
G36*
X58984091Y-46818677D02*
G01*
X58940717Y-46568360D01*
X58787551Y-46142078D01*
X58564009Y-45757105D01*
X58277024Y-45420230D01*
X57933530Y-45138241D01*
X57540461Y-44917928D01*
X57104749Y-44766080D01*
X57098383Y-44764473D01*
X56819552Y-44720976D01*
X56498892Y-44713142D01*
X56170542Y-44739251D01*
X55868639Y-44797582D01*
X55755423Y-44832153D01*
X55357423Y-45015054D01*
X54994820Y-45267955D01*
X54678726Y-45579746D01*
X54420255Y-45939316D01*
X54230520Y-46335556D01*
X54218671Y-46368429D01*
X54158993Y-46600580D01*
X54120409Y-46880292D01*
X54104262Y-47177465D01*
X54111895Y-47461999D01*
X54144653Y-47703792D01*
X54156832Y-47753693D01*
X54317065Y-48187411D01*
X54545075Y-48577603D01*
X54833906Y-48917307D01*
X55176603Y-49199561D01*
X55566212Y-49417407D01*
X55955354Y-49553723D01*
X56219510Y-49598500D01*
X56525482Y-49612614D01*
X56644412Y-49606932D01*
X56644412Y-49062348D01*
X56273911Y-49044661D01*
X55923278Y-48956860D01*
X55600045Y-48806134D01*
X55311741Y-48599676D01*
X55065898Y-48344676D01*
X54870046Y-48048325D01*
X54731716Y-47717814D01*
X54658440Y-47360335D01*
X54657746Y-46983078D01*
X54690657Y-46771527D01*
X54787724Y-46467485D01*
X54942381Y-46162993D01*
X55135736Y-45893920D01*
X55177246Y-45847664D01*
X55434538Y-45628076D01*
X55746539Y-45450791D01*
X56089743Y-45325693D01*
X56440647Y-45262664D01*
X56581854Y-45257061D01*
X56951152Y-45299774D01*
X57303839Y-45418096D01*
X57628568Y-45603131D01*
X57913991Y-45845986D01*
X58148759Y-46137765D01*
X58321526Y-46469574D01*
X58387728Y-46672504D01*
X58450051Y-47072989D01*
X58430133Y-47463583D01*
X58330299Y-47836187D01*
X58152872Y-48182704D01*
X57900177Y-48495035D01*
X57850734Y-48543362D01*
X57606509Y-48746391D01*
X57357122Y-48889430D01*
X57067874Y-48991837D01*
X57027251Y-49002728D01*
X56644412Y-49062348D01*
X56644412Y-49606932D01*
X56842220Y-49597480D01*
X57138676Y-49554513D01*
X57373520Y-49489096D01*
X57618001Y-49377501D01*
X57874532Y-49229007D01*
X58113667Y-49062620D01*
X58305960Y-48897343D01*
X58332246Y-48870328D01*
X58534796Y-48618182D01*
X58720696Y-48318665D01*
X58867149Y-48008845D01*
X58875792Y-47986526D01*
X58944092Y-47738340D01*
X58985854Y-47440301D01*
X58999660Y-47123412D01*
X58984091Y-46818677D01*
G37*
X58984091Y-46818677D02*
X58940717Y-46568360D01*
X58787551Y-46142078D01*
X58564009Y-45757105D01*
X58277024Y-45420230D01*
X57933530Y-45138241D01*
X57540461Y-44917928D01*
X57104749Y-44766080D01*
X57098383Y-44764473D01*
X56819552Y-44720976D01*
X56498892Y-44713142D01*
X56170542Y-44739251D01*
X55868639Y-44797582D01*
X55755423Y-44832153D01*
X55357423Y-45015054D01*
X54994820Y-45267955D01*
X54678726Y-45579746D01*
X54420255Y-45939316D01*
X54230520Y-46335556D01*
X54218671Y-46368429D01*
X54158993Y-46600580D01*
X54120409Y-46880292D01*
X54104262Y-47177465D01*
X54111895Y-47461999D01*
X54144653Y-47703792D01*
X54156832Y-47753693D01*
X54317065Y-48187411D01*
X54545075Y-48577603D01*
X54833906Y-48917307D01*
X55176603Y-49199561D01*
X55566212Y-49417407D01*
X55955354Y-49553723D01*
X56219510Y-49598500D01*
X56525482Y-49612614D01*
X56644412Y-49606932D01*
X56644412Y-49062348D01*
X56273911Y-49044661D01*
X55923278Y-48956860D01*
X55600045Y-48806134D01*
X55311741Y-48599676D01*
X55065898Y-48344676D01*
X54870046Y-48048325D01*
X54731716Y-47717814D01*
X54658440Y-47360335D01*
X54657746Y-46983078D01*
X54690657Y-46771527D01*
X54787724Y-46467485D01*
X54942381Y-46162993D01*
X55135736Y-45893920D01*
X55177246Y-45847664D01*
X55434538Y-45628076D01*
X55746539Y-45450791D01*
X56089743Y-45325693D01*
X56440647Y-45262664D01*
X56581854Y-45257061D01*
X56951152Y-45299774D01*
X57303839Y-45418096D01*
X57628568Y-45603131D01*
X57913991Y-45845986D01*
X58148759Y-46137765D01*
X58321526Y-46469574D01*
X58387728Y-46672504D01*
X58450051Y-47072989D01*
X58430133Y-47463583D01*
X58330299Y-47836187D01*
X58152872Y-48182704D01*
X57900177Y-48495035D01*
X57850734Y-48543362D01*
X57606509Y-48746391D01*
X57357122Y-48889430D01*
X57067874Y-48991837D01*
X57027251Y-49002728D01*
X56644412Y-49062348D01*
X56644412Y-49606932D01*
X56842220Y-49597480D01*
X57138676Y-49554513D01*
X57373520Y-49489096D01*
X57618001Y-49377501D01*
X57874532Y-49229007D01*
X58113667Y-49062620D01*
X58305960Y-48897343D01*
X58332246Y-48870328D01*
X58534796Y-48618182D01*
X58720696Y-48318665D01*
X58867149Y-48008845D01*
X58875792Y-47986526D01*
X58944092Y-47738340D01*
X58985854Y-47440301D01*
X58999660Y-47123412D01*
X58984091Y-46818677D01*
G36*
X40372651Y-48520499D02*
G01*
X40278779Y-47906721D01*
X40103379Y-47300847D01*
X39897419Y-46811353D01*
X39592018Y-46271151D01*
X39229071Y-45787507D01*
X38815364Y-45362092D01*
X38357680Y-44996578D01*
X37862804Y-44692638D01*
X37337519Y-44451942D01*
X36788609Y-44276162D01*
X36222860Y-44166970D01*
X35647054Y-44126038D01*
X35067977Y-44155036D01*
X34492412Y-44255637D01*
X33927144Y-44429512D01*
X33378957Y-44678333D01*
X32854634Y-45003772D01*
X32780538Y-45057756D01*
X32298957Y-45466768D01*
X31880229Y-45928012D01*
X31527329Y-46434373D01*
X31243230Y-46978738D01*
X31030903Y-47553994D01*
X30893324Y-48153025D01*
X30833464Y-48768718D01*
X30854296Y-49393959D01*
X30879987Y-49605353D01*
X31007072Y-50196138D01*
X31211863Y-50766635D01*
X31488248Y-51308521D01*
X31830116Y-51813472D01*
X32231353Y-52273161D01*
X32685849Y-52679265D01*
X33187492Y-53023458D01*
X33521227Y-53202949D01*
X34103602Y-53440177D01*
X34696674Y-53596836D01*
X35293883Y-53675247D01*
X35637893Y-53676683D01*
X35637893Y-52733905D01*
X35243880Y-52725591D01*
X34906760Y-52693224D01*
X34600896Y-52631662D01*
X34300653Y-52535763D01*
X33984563Y-52402313D01*
X33536998Y-52155176D01*
X33112664Y-51842983D01*
X32728719Y-51481028D01*
X32402324Y-51084604D01*
X32256319Y-50862050D01*
X32061639Y-50484922D01*
X31898321Y-50066213D01*
X31775159Y-49634231D01*
X31700951Y-49217284D01*
X31684952Y-49023270D01*
X31679727Y-48906853D01*
X39543327Y-48906853D01*
X39524798Y-49107937D01*
X39482977Y-49424902D01*
X39418120Y-49749766D01*
X39337571Y-50050367D01*
X39259762Y-50268750D01*
X38992000Y-50808982D01*
X38667787Y-51286130D01*
X38286874Y-51700418D01*
X37849017Y-52052066D01*
X37353967Y-52341298D01*
X36801478Y-52568334D01*
X36653893Y-52615541D01*
X36491887Y-52661970D01*
X36349871Y-52694261D01*
X36205420Y-52715024D01*
X36036112Y-52726873D01*
X35819525Y-52732419D01*
X35637893Y-52733905D01*
X35637893Y-53676683D01*
X35888668Y-53677730D01*
X36474470Y-53606606D01*
X37044729Y-53464195D01*
X37592884Y-53252818D01*
X38112375Y-52974795D01*
X38596643Y-52632447D01*
X39039126Y-52228095D01*
X39433266Y-51764058D01*
X39772501Y-51242658D01*
X39931866Y-50935300D01*
X40164603Y-50349580D01*
X40315613Y-49747895D01*
X40384945Y-49136212D01*
X40372651Y-48520499D01*
G37*
X40372651Y-48520499D02*
X40278779Y-47906721D01*
X40103379Y-47300847D01*
X39897419Y-46811353D01*
X39592018Y-46271151D01*
X39229071Y-45787507D01*
X38815364Y-45362092D01*
X38357680Y-44996578D01*
X37862804Y-44692638D01*
X37337519Y-44451942D01*
X36788609Y-44276162D01*
X36222860Y-44166970D01*
X35647054Y-44126038D01*
X35067977Y-44155036D01*
X34492412Y-44255637D01*
X33927144Y-44429512D01*
X33378957Y-44678333D01*
X32854634Y-45003772D01*
X32780538Y-45057756D01*
X32298957Y-45466768D01*
X31880229Y-45928012D01*
X31527329Y-46434373D01*
X31243230Y-46978738D01*
X31030903Y-47553994D01*
X30893324Y-48153025D01*
X30833464Y-48768718D01*
X30854296Y-49393959D01*
X30879987Y-49605353D01*
X31007072Y-50196138D01*
X31211863Y-50766635D01*
X31488248Y-51308521D01*
X31830116Y-51813472D01*
X32231353Y-52273161D01*
X32685849Y-52679265D01*
X33187492Y-53023458D01*
X33521227Y-53202949D01*
X34103602Y-53440177D01*
X34696674Y-53596836D01*
X35293883Y-53675247D01*
X35637893Y-53676683D01*
X35637893Y-52733905D01*
X35243880Y-52725591D01*
X34906760Y-52693224D01*
X34600896Y-52631662D01*
X34300653Y-52535763D01*
X33984563Y-52402313D01*
X33536998Y-52155176D01*
X33112664Y-51842983D01*
X32728719Y-51481028D01*
X32402324Y-51084604D01*
X32256319Y-50862050D01*
X32061639Y-50484922D01*
X31898321Y-50066213D01*
X31775159Y-49634231D01*
X31700951Y-49217284D01*
X31684952Y-49023270D01*
X31679727Y-48906853D01*
X39543327Y-48906853D01*
X39524798Y-49107937D01*
X39482977Y-49424902D01*
X39418120Y-49749766D01*
X39337571Y-50050367D01*
X39259762Y-50268750D01*
X38992000Y-50808982D01*
X38667787Y-51286130D01*
X38286874Y-51700418D01*
X37849017Y-52052066D01*
X37353967Y-52341298D01*
X36801478Y-52568334D01*
X36653893Y-52615541D01*
X36491887Y-52661970D01*
X36349871Y-52694261D01*
X36205420Y-52715024D01*
X36036112Y-52726873D01*
X35819525Y-52732419D01*
X35637893Y-52733905D01*
X35637893Y-53676683D01*
X35888668Y-53677730D01*
X36474470Y-53606606D01*
X37044729Y-53464195D01*
X37592884Y-53252818D01*
X38112375Y-52974795D01*
X38596643Y-52632447D01*
X39039126Y-52228095D01*
X39433266Y-51764058D01*
X39772501Y-51242658D01*
X39931866Y-50935300D01*
X40164603Y-50349580D01*
X40315613Y-49747895D01*
X40384945Y-49136212D01*
X40372651Y-48520499D01*
G36*
X47198204Y-48819141D02*
G01*
X47147325Y-48678952D01*
X47067455Y-48480350D01*
X46962629Y-48232192D01*
X46836878Y-47943334D01*
X46694236Y-47622635D01*
X46538737Y-47278950D01*
X46374412Y-46921136D01*
X46205296Y-46558051D01*
X46035421Y-46198550D01*
X45868821Y-45851492D01*
X45709528Y-45525733D01*
X45561576Y-45230130D01*
X45449314Y-45012187D01*
X44679029Y-43617711D01*
X43830542Y-42224784D01*
X42909943Y-40842907D01*
X41923322Y-39481583D01*
X41801047Y-39320407D01*
X41676379Y-39156609D01*
X41569925Y-39016249D01*
X41492488Y-38913607D01*
X41454873Y-38862963D01*
X41454003Y-38861722D01*
X41401224Y-38841071D01*
X41272433Y-38814462D01*
X41075992Y-38782973D01*
X40820262Y-38747677D01*
X40513606Y-38709649D01*
X40164386Y-38669964D01*
X39780963Y-38629697D01*
X39371700Y-38589923D01*
X39257393Y-38579366D01*
X37925673Y-38477191D01*
X36631787Y-38418754D01*
X35355906Y-38404353D01*
X34078205Y-38434286D01*
X32778855Y-38508849D01*
X31438031Y-38628339D01*
X30727227Y-38707220D01*
X30481432Y-38736707D01*
X30258006Y-38764461D01*
X30073534Y-38788349D01*
X29944606Y-38806237D01*
X29895386Y-38814221D01*
X29827560Y-38858007D01*
X29718866Y-38967055D01*
X29573757Y-39135110D01*
X29396685Y-39355920D01*
X29192103Y-39623229D01*
X28964464Y-39930785D01*
X28718220Y-40272333D01*
X28457823Y-40641620D01*
X28187728Y-41032391D01*
X27912385Y-41438392D01*
X27636248Y-41853370D01*
X27363769Y-42271071D01*
X27099401Y-42685241D01*
X26847597Y-43089625D01*
X26823849Y-43128353D01*
X26515818Y-43649599D01*
X26188163Y-44237564D01*
X25847736Y-44878547D01*
X25501389Y-45558846D01*
X25155972Y-46264760D01*
X24818337Y-46982586D01*
X24495334Y-47698623D01*
X24222750Y-48330332D01*
X24136862Y-48534861D01*
X24064303Y-48709104D01*
X24010684Y-48839464D01*
X23981621Y-48912346D01*
X23978058Y-48922998D01*
X23995093Y-48961454D01*
X24041104Y-49066295D01*
X24111184Y-49226314D01*
X24200427Y-49430306D01*
X24303926Y-49667063D01*
X24350952Y-49774687D01*
X24817781Y-50818149D01*
X25277099Y-51791889D01*
X25736402Y-52709512D01*
X26203188Y-53584622D01*
X26684955Y-54430824D01*
X27189201Y-55261721D01*
X27723423Y-56090918D01*
X28295119Y-56932020D01*
X28297244Y-56935071D01*
X28418592Y-57107524D01*
X28566575Y-57314988D01*
X28733214Y-57546560D01*
X28910531Y-57791336D01*
X29090548Y-58038412D01*
X29265286Y-58276886D01*
X29426767Y-58495852D01*
X29567013Y-58684409D01*
X29678044Y-58831651D01*
X29751884Y-58926675D01*
X29772980Y-58951884D01*
X29823352Y-58968221D01*
X29942752Y-58991628D01*
X30116087Y-59019589D01*
X30328263Y-59049588D01*
X30462823Y-59066885D01*
X31908794Y-59224728D01*
X33308111Y-59332399D01*
X34680112Y-59390020D01*
X35815722Y-59396424D01*
X35815722Y-54531912D01*
X35406292Y-54531621D01*
X35012497Y-54510532D01*
X34685393Y-54471672D01*
X34037052Y-54324421D01*
X33412674Y-54099344D01*
X32819129Y-53801537D01*
X32263290Y-53436099D01*
X31752026Y-53008125D01*
X31292208Y-52522714D01*
X30890709Y-51984963D01*
X30560041Y-51411299D01*
X30421784Y-51102294D01*
X30289365Y-50748092D01*
X30173744Y-50381972D01*
X30085878Y-50037213D01*
X30054626Y-49876425D01*
X30019253Y-49584619D01*
X29998651Y-49238826D01*
X29992888Y-48868439D01*
X30002031Y-48502850D01*
X30026148Y-48171453D01*
X30050260Y-47985998D01*
X30199038Y-47326273D01*
X30423748Y-46697120D01*
X30719528Y-46103802D01*
X31081514Y-45551578D01*
X31504845Y-45045708D01*
X31984658Y-44591452D01*
X32516090Y-44194071D01*
X33094280Y-43858826D01*
X33714365Y-43590976D01*
X34270671Y-43420241D01*
X34601955Y-43355230D01*
X34988788Y-43309380D01*
X35404026Y-43283678D01*
X35820524Y-43279115D01*
X36211137Y-43296680D01*
X36548060Y-43337247D01*
X37224047Y-43496712D01*
X37866682Y-43733641D01*
X38472880Y-44046426D01*
X39039554Y-44433458D01*
X39563615Y-44893128D01*
X39596489Y-44925842D01*
X40056700Y-45442265D01*
X40441773Y-45994570D01*
X40754159Y-46587312D01*
X40996315Y-47225043D01*
X41148825Y-47806187D01*
X41182020Y-47990811D01*
X41204946Y-48195120D01*
X41218908Y-48437729D01*
X41225208Y-48737253D01*
X41225893Y-48906853D01*
X41220141Y-49298401D01*
X41200543Y-49629962D01*
X41163587Y-49925585D01*
X41105759Y-50209318D01*
X41023548Y-50505208D01*
X40966597Y-50682049D01*
X40712775Y-51311729D01*
X40388607Y-51900396D01*
X39999885Y-52443082D01*
X39552403Y-52934814D01*
X39051955Y-53370623D01*
X38504333Y-53745538D01*
X37915331Y-54054589D01*
X37290743Y-54292805D01*
X36636362Y-54455216D01*
X36551184Y-54470204D01*
X36208211Y-54511432D01*
X35815722Y-54531912D01*
X35815722Y-59396424D01*
X36044139Y-59397713D01*
X37419531Y-59355598D01*
X38825629Y-59263796D01*
X40231060Y-59128067D01*
X40576583Y-59090164D01*
X40848663Y-59059706D01*
X41057850Y-59033453D01*
X41214690Y-59008168D01*
X41329733Y-58980613D01*
X41413526Y-58947549D01*
X41476618Y-58905738D01*
X41529556Y-58851942D01*
X41582888Y-58782923D01*
X41647163Y-58695442D01*
X41649227Y-58692689D01*
X42237042Y-57896339D01*
X42798954Y-57108537D01*
X43328946Y-56338314D01*
X43723560Y-55741958D01*
X43723560Y-49880520D01*
X43433891Y-49841764D01*
X43178217Y-49729903D01*
X42967112Y-49551544D01*
X42811150Y-49313296D01*
X42809154Y-49309020D01*
X42746833Y-49093739D01*
X42733705Y-48848495D01*
X42769798Y-48612254D01*
X42808586Y-48504687D01*
X42962659Y-48261992D01*
X43167153Y-48078539D01*
X43408935Y-47960515D01*
X43674877Y-47914102D01*
X43951849Y-47945484D01*
X43979641Y-47953137D01*
X44249646Y-48071148D01*
X44460359Y-48247386D01*
X44606648Y-48475001D01*
X44683382Y-48747144D01*
X44694095Y-48906853D01*
X44656698Y-49198416D01*
X44549748Y-49448269D01*
X44381110Y-49648525D01*
X44158650Y-49791292D01*
X43890231Y-49868680D01*
X43723560Y-49880520D01*
X43723560Y-55741958D01*
X43821001Y-55594701D01*
X44269104Y-54886728D01*
X44667238Y-54223427D01*
X44902306Y-53809822D01*
X45069023Y-53502882D01*
X45249929Y-53159156D01*
X45441334Y-52786485D01*
X45639549Y-52392710D01*
X45840885Y-51985672D01*
X46041654Y-51573213D01*
X46238165Y-51163173D01*
X46426730Y-50763393D01*
X46603660Y-50381715D01*
X46765265Y-50025979D01*
X46907856Y-49704027D01*
X47027745Y-49423700D01*
X47121242Y-49192838D01*
X47184657Y-49019282D01*
X47214303Y-48910875D01*
X47216060Y-48892061D01*
X47198204Y-48819141D01*
G37*
X47198204Y-48819141D02*
X47147325Y-48678952D01*
X47067455Y-48480350D01*
X46962629Y-48232192D01*
X46836878Y-47943334D01*
X46694236Y-47622635D01*
X46538737Y-47278950D01*
X46374412Y-46921136D01*
X46205296Y-46558051D01*
X46035421Y-46198550D01*
X45868821Y-45851492D01*
X45709528Y-45525733D01*
X45561576Y-45230130D01*
X45449314Y-45012187D01*
X44679029Y-43617711D01*
X43830542Y-42224784D01*
X42909943Y-40842907D01*
X41923322Y-39481583D01*
X41801047Y-39320407D01*
X41676379Y-39156609D01*
X41569925Y-39016249D01*
X41492488Y-38913607D01*
X41454873Y-38862963D01*
X41454003Y-38861722D01*
X41401224Y-38841071D01*
X41272433Y-38814462D01*
X41075992Y-38782973D01*
X40820262Y-38747677D01*
X40513606Y-38709649D01*
X40164386Y-38669964D01*
X39780963Y-38629697D01*
X39371700Y-38589923D01*
X39257393Y-38579366D01*
X37925673Y-38477191D01*
X36631787Y-38418754D01*
X35355906Y-38404353D01*
X34078205Y-38434286D01*
X32778855Y-38508849D01*
X31438031Y-38628339D01*
X30727227Y-38707220D01*
X30481432Y-38736707D01*
X30258006Y-38764461D01*
X30073534Y-38788349D01*
X29944606Y-38806237D01*
X29895386Y-38814221D01*
X29827560Y-38858007D01*
X29718866Y-38967055D01*
X29573757Y-39135110D01*
X29396685Y-39355920D01*
X29192103Y-39623229D01*
X28964464Y-39930785D01*
X28718220Y-40272333D01*
X28457823Y-40641620D01*
X28187728Y-41032391D01*
X27912385Y-41438392D01*
X27636248Y-41853370D01*
X27363769Y-42271071D01*
X27099401Y-42685241D01*
X26847597Y-43089625D01*
X26823849Y-43128353D01*
X26515818Y-43649599D01*
X26188163Y-44237564D01*
X25847736Y-44878547D01*
X25501389Y-45558846D01*
X25155972Y-46264760D01*
X24818337Y-46982586D01*
X24495334Y-47698623D01*
X24222750Y-48330332D01*
X24136862Y-48534861D01*
X24064303Y-48709104D01*
X24010684Y-48839464D01*
X23981621Y-48912346D01*
X23978058Y-48922998D01*
X23995093Y-48961454D01*
X24041104Y-49066295D01*
X24111184Y-49226314D01*
X24200427Y-49430306D01*
X24303926Y-49667063D01*
X24350952Y-49774687D01*
X24817781Y-50818149D01*
X25277099Y-51791889D01*
X25736402Y-52709512D01*
X26203188Y-53584622D01*
X26684955Y-54430824D01*
X27189201Y-55261721D01*
X27723423Y-56090918D01*
X28295119Y-56932020D01*
X28297244Y-56935071D01*
X28418592Y-57107524D01*
X28566575Y-57314988D01*
X28733214Y-57546560D01*
X28910531Y-57791336D01*
X29090548Y-58038412D01*
X29265286Y-58276886D01*
X29426767Y-58495852D01*
X29567013Y-58684409D01*
X29678044Y-58831651D01*
X29751884Y-58926675D01*
X29772980Y-58951884D01*
X29823352Y-58968221D01*
X29942752Y-58991628D01*
X30116087Y-59019589D01*
X30328263Y-59049588D01*
X30462823Y-59066885D01*
X31908794Y-59224728D01*
X33308111Y-59332399D01*
X34680112Y-59390020D01*
X35815722Y-59396424D01*
X35815722Y-54531912D01*
X35406292Y-54531621D01*
X35012497Y-54510532D01*
X34685393Y-54471672D01*
X34037052Y-54324421D01*
X33412674Y-54099344D01*
X32819129Y-53801537D01*
X32263290Y-53436099D01*
X31752026Y-53008125D01*
X31292208Y-52522714D01*
X30890709Y-51984963D01*
X30560041Y-51411299D01*
X30421784Y-51102294D01*
X30289365Y-50748092D01*
X30173744Y-50381972D01*
X30085878Y-50037213D01*
X30054626Y-49876425D01*
X30019253Y-49584619D01*
X29998651Y-49238826D01*
X29992888Y-48868439D01*
X30002031Y-48502850D01*
X30026148Y-48171453D01*
X30050260Y-47985998D01*
X30199038Y-47326273D01*
X30423748Y-46697120D01*
X30719528Y-46103802D01*
X31081514Y-45551578D01*
X31504845Y-45045708D01*
X31984658Y-44591452D01*
X32516090Y-44194071D01*
X33094280Y-43858826D01*
X33714365Y-43590976D01*
X34270671Y-43420241D01*
X34601955Y-43355230D01*
X34988788Y-43309380D01*
X35404026Y-43283678D01*
X35820524Y-43279115D01*
X36211137Y-43296680D01*
X36548060Y-43337247D01*
X37224047Y-43496712D01*
X37866682Y-43733641D01*
X38472880Y-44046426D01*
X39039554Y-44433458D01*
X39563615Y-44893128D01*
X39596489Y-44925842D01*
X40056700Y-45442265D01*
X40441773Y-45994570D01*
X40754159Y-46587312D01*
X40996315Y-47225043D01*
X41148825Y-47806187D01*
X41182020Y-47990811D01*
X41204946Y-48195120D01*
X41218908Y-48437729D01*
X41225208Y-48737253D01*
X41225893Y-48906853D01*
X41220141Y-49298401D01*
X41200543Y-49629962D01*
X41163587Y-49925585D01*
X41105759Y-50209318D01*
X41023548Y-50505208D01*
X40966597Y-50682049D01*
X40712775Y-51311729D01*
X40388607Y-51900396D01*
X39999885Y-52443082D01*
X39552403Y-52934814D01*
X39051955Y-53370623D01*
X38504333Y-53745538D01*
X37915331Y-54054589D01*
X37290743Y-54292805D01*
X36636362Y-54455216D01*
X36551184Y-54470204D01*
X36208211Y-54511432D01*
X35815722Y-54531912D01*
X35815722Y-59396424D01*
X36044139Y-59397713D01*
X37419531Y-59355598D01*
X38825629Y-59263796D01*
X40231060Y-59128067D01*
X40576583Y-59090164D01*
X40848663Y-59059706D01*
X41057850Y-59033453D01*
X41214690Y-59008168D01*
X41329733Y-58980613D01*
X41413526Y-58947549D01*
X41476618Y-58905738D01*
X41529556Y-58851942D01*
X41582888Y-58782923D01*
X41647163Y-58695442D01*
X41649227Y-58692689D01*
X42237042Y-57896339D01*
X42798954Y-57108537D01*
X43328946Y-56338314D01*
X43723560Y-55741958D01*
X43723560Y-49880520D01*
X43433891Y-49841764D01*
X43178217Y-49729903D01*
X42967112Y-49551544D01*
X42811150Y-49313296D01*
X42809154Y-49309020D01*
X42746833Y-49093739D01*
X42733705Y-48848495D01*
X42769798Y-48612254D01*
X42808586Y-48504687D01*
X42962659Y-48261992D01*
X43167153Y-48078539D01*
X43408935Y-47960515D01*
X43674877Y-47914102D01*
X43951849Y-47945484D01*
X43979641Y-47953137D01*
X44249646Y-48071148D01*
X44460359Y-48247386D01*
X44606648Y-48475001D01*
X44683382Y-48747144D01*
X44694095Y-48906853D01*
X44656698Y-49198416D01*
X44549748Y-49448269D01*
X44381110Y-49648525D01*
X44158650Y-49791292D01*
X43890231Y-49868680D01*
X43723560Y-49880520D01*
X43723560Y-55741958D01*
X43821001Y-55594701D01*
X44269104Y-54886728D01*
X44667238Y-54223427D01*
X44902306Y-53809822D01*
X45069023Y-53502882D01*
X45249929Y-53159156D01*
X45441334Y-52786485D01*
X45639549Y-52392710D01*
X45840885Y-51985672D01*
X46041654Y-51573213D01*
X46238165Y-51163173D01*
X46426730Y-50763393D01*
X46603660Y-50381715D01*
X46765265Y-50025979D01*
X46907856Y-49704027D01*
X47027745Y-49423700D01*
X47121242Y-49192838D01*
X47184657Y-49019282D01*
X47214303Y-48910875D01*
X47216060Y-48892061D01*
X47198204Y-48819141D01*
G36*
X59190849Y-82883186D02*
G01*
X58746225Y-82799365D01*
X58618727Y-82490080D01*
X58491229Y-82180794D01*
X58743534Y-81809754D01*
X58813784Y-81705843D01*
X58876508Y-81611913D01*
X58928842Y-81532348D01*
X58967923Y-81471530D01*
X58990887Y-81433843D01*
X58995838Y-81423579D01*
X58983104Y-81405090D01*
X58947898Y-81365580D01*
X58894718Y-81309478D01*
X58828062Y-81241213D01*
X58752426Y-81165214D01*
X58672308Y-81085908D01*
X58592206Y-81007725D01*
X58516616Y-80935093D01*
X58450035Y-80872441D01*
X58396962Y-80824197D01*
X58361893Y-80794790D01*
X58350157Y-80787759D01*
X58328520Y-80797877D01*
X58281118Y-80826241D01*
X58212587Y-80869871D01*
X58127565Y-80925782D01*
X58030687Y-80990994D01*
X57975430Y-81028781D01*
X57874532Y-81097657D01*
X57783481Y-81158860D01*
X57706810Y-81209422D01*
X57649052Y-81246372D01*
X57614737Y-81266742D01*
X57607526Y-81269803D01*
X57587032Y-81262864D01*
X57539267Y-81243949D01*
X57470948Y-81215913D01*
X57388791Y-81181609D01*
X57299510Y-81143891D01*
X57209822Y-81105613D01*
X57126442Y-81069630D01*
X57056086Y-81038794D01*
X57005470Y-81015961D01*
X56981309Y-81003983D01*
X56980358Y-81003276D01*
X56975744Y-80984469D01*
X56965452Y-80934382D01*
X56950493Y-80858207D01*
X56931879Y-80761135D01*
X56910621Y-80648357D01*
X56898362Y-80582558D01*
X56875418Y-80462050D01*
X56853585Y-80353203D01*
X56834058Y-80261524D01*
X56818032Y-80192519D01*
X56806701Y-80151696D01*
X56803106Y-80143489D01*
X56778774Y-80135452D01*
X56723821Y-80128967D01*
X56644672Y-80124030D01*
X56547754Y-80120636D01*
X56439493Y-80118782D01*
X56326315Y-80118462D01*
X56214645Y-80119673D01*
X56110912Y-80122410D01*
X56021539Y-80126669D01*
X55952954Y-80132445D01*
X55911583Y-80139733D01*
X55902970Y-80144105D01*
X55892647Y-80170236D01*
X55877888Y-80225607D01*
X55860428Y-80302893D01*
X55842000Y-80394770D01*
X55836039Y-80426842D01*
X55807714Y-80581476D01*
X55784904Y-80703625D01*
X55766700Y-80797327D01*
X55752197Y-80866616D01*
X55740488Y-80915529D01*
X55730665Y-80948103D01*
X55721824Y-80968372D01*
X55713056Y-80980374D01*
X55711323Y-80982053D01*
X55683409Y-80998816D01*
X55629085Y-81024386D01*
X55555003Y-81056212D01*
X55467815Y-81091740D01*
X55374172Y-81128417D01*
X55280728Y-81163689D01*
X55194133Y-81195004D01*
X55121040Y-81219807D01*
X55068102Y-81235546D01*
X55041969Y-81239668D01*
X55041054Y-81239324D01*
X55019694Y-81225359D01*
X54972696Y-81193678D01*
X54904953Y-81147609D01*
X54821357Y-81090482D01*
X54726798Y-81025627D01*
X54699926Y-81007157D01*
X54602505Y-80941301D01*
X54513617Y-80883350D01*
X54438368Y-80836462D01*
X54381860Y-80803793D01*
X54349199Y-80788500D01*
X54345187Y-80787759D01*
X54324096Y-80800608D01*
X54282316Y-80836112D01*
X54224335Y-80889707D01*
X54154645Y-80956829D01*
X54077735Y-81032913D01*
X53998097Y-81113396D01*
X53920219Y-81193713D01*
X53848594Y-81269301D01*
X53787710Y-81335595D01*
X53742059Y-81388031D01*
X53716130Y-81422045D01*
X53711897Y-81431455D01*
X53721868Y-81453357D01*
X53748760Y-81498200D01*
X53788044Y-81558679D01*
X53819663Y-81605211D01*
X53877682Y-81689525D01*
X53945996Y-81789374D01*
X54014201Y-81889527D01*
X54050705Y-81943373D01*
X54173980Y-82125629D01*
X54091260Y-82278619D01*
X54055021Y-82348318D01*
X54026854Y-82407586D01*
X54010789Y-82447689D01*
X54008554Y-82457897D01*
X54025058Y-82470171D01*
X54071698Y-82494387D01*
X54144171Y-82528737D01*
X54238174Y-82571412D01*
X54349406Y-82620606D01*
X54473565Y-82674510D01*
X54606348Y-82731316D01*
X54743453Y-82789218D01*
X54880578Y-82846407D01*
X55013422Y-82901076D01*
X55137682Y-82951416D01*
X55249055Y-82995620D01*
X55343241Y-83031881D01*
X55415936Y-83058391D01*
X55462839Y-83073342D01*
X55478947Y-83075746D01*
X55499494Y-83056689D01*
X55532847Y-83014964D01*
X55572078Y-82959294D01*
X55575181Y-82954622D01*
X55690357Y-82810736D01*
X55824727Y-82694717D01*
X55973996Y-82607570D01*
X56133867Y-82550301D01*
X56300043Y-82523914D01*
X56468228Y-82529415D01*
X56634125Y-82567810D01*
X56793438Y-82640105D01*
X56828293Y-82661374D01*
X56969043Y-82772004D01*
X57082066Y-82902698D01*
X57166777Y-83048936D01*
X57222586Y-83206192D01*
X57248906Y-83369943D01*
X57245150Y-83535667D01*
X57210730Y-83698838D01*
X57145057Y-83854935D01*
X57047545Y-83999433D01*
X57007967Y-84044131D01*
X56884077Y-84157888D01*
X56753656Y-84240782D01*
X56607465Y-84297644D01*
X56462692Y-84329313D01*
X56299920Y-84337131D01*
X56136340Y-84311062D01*
X55977482Y-84253755D01*
X55828874Y-84167856D01*
X55696045Y-84056014D01*
X55584524Y-83920877D01*
X55572769Y-83903117D01*
X55534272Y-83846850D01*
X55500917Y-83804077D01*
X55479620Y-83783628D01*
X55478947Y-83783331D01*
X55455909Y-83787721D01*
X55403623Y-83805124D01*
X55326390Y-83833732D01*
X55228512Y-83871735D01*
X55114289Y-83917326D01*
X54988022Y-83968697D01*
X54854013Y-84024038D01*
X54716562Y-84081542D01*
X54579972Y-84139399D01*
X54448543Y-84195802D01*
X54326575Y-84248942D01*
X54218371Y-84297010D01*
X54128231Y-84338199D01*
X54060457Y-84370699D01*
X54019350Y-84392703D01*
X54008554Y-84401564D01*
X54016961Y-84428640D01*
X54039508Y-84479303D01*
X54072167Y-84544817D01*
X54091260Y-84580841D01*
X54173980Y-84733832D01*
X54050705Y-84916088D01*
X53987552Y-85009125D01*
X53918053Y-85110985D01*
X53852615Y-85206438D01*
X53819663Y-85254250D01*
X53774507Y-85321495D01*
X53738723Y-85378436D01*
X53716842Y-85417646D01*
X53712217Y-85430381D01*
X53724695Y-85448917D01*
X53759528Y-85489941D01*
X53813102Y-85549475D01*
X53881797Y-85623542D01*
X53961999Y-85708165D01*
X54013494Y-85761685D01*
X54105494Y-85855319D01*
X54187781Y-85936241D01*
X54256835Y-86001177D01*
X54309136Y-86046858D01*
X54341164Y-86070011D01*
X54347664Y-86072232D01*
X54372386Y-86061924D01*
X54422375Y-86033439D01*
X54492568Y-85989937D01*
X54577905Y-85934577D01*
X54673324Y-85870520D01*
X54699926Y-85852303D01*
X54796613Y-85785927D01*
X54883663Y-85726378D01*
X54956185Y-85676984D01*
X55009287Y-85641075D01*
X55038077Y-85621981D01*
X55041054Y-85620136D01*
X55063998Y-85622895D01*
X55114444Y-85637538D01*
X55185739Y-85661513D01*
X55271233Y-85692266D01*
X55364273Y-85727244D01*
X55458206Y-85763893D01*
X55546381Y-85799661D01*
X55622146Y-85831994D01*
X55678849Y-85858338D01*
X55709837Y-85876142D01*
X55711323Y-85877407D01*
X55720179Y-85888294D01*
X55728937Y-85906682D01*
X55738503Y-85936606D01*
X55749784Y-85982103D01*
X55763687Y-86047209D01*
X55781117Y-86135961D01*
X55802982Y-86252393D01*
X55830189Y-86400542D01*
X55836039Y-86432618D01*
X55854406Y-86527686D01*
X55872375Y-86610565D01*
X55888211Y-86673930D01*
X55900180Y-86710458D01*
X55902970Y-86715356D01*
X55927708Y-86723427D01*
X55982990Y-86729987D01*
X56062391Y-86735033D01*
X56159484Y-86738559D01*
X56267842Y-86740561D01*
X56381040Y-86741036D01*
X56492652Y-86739977D01*
X56596251Y-86737382D01*
X56685412Y-86733246D01*
X56753708Y-86727563D01*
X56794714Y-86720331D01*
X56803106Y-86715971D01*
X56811572Y-86691698D01*
X56825345Y-86636426D01*
X56843230Y-86555662D01*
X56864032Y-86454912D01*
X56886557Y-86339683D01*
X56898362Y-86276902D01*
X56920629Y-86157787D01*
X56940801Y-86051565D01*
X56957865Y-85963427D01*
X56970811Y-85898566D01*
X56978625Y-85862174D01*
X56980358Y-85856184D01*
X56999890Y-85846061D01*
X57046937Y-85824662D01*
X57114777Y-85794839D01*
X57196689Y-85759445D01*
X57285952Y-85721332D01*
X57375845Y-85683353D01*
X57459645Y-85648360D01*
X57530633Y-85619206D01*
X57582086Y-85598743D01*
X57607283Y-85589823D01*
X57608384Y-85589657D01*
X57628261Y-85599769D01*
X57674003Y-85628117D01*
X57741063Y-85671723D01*
X57824896Y-85727606D01*
X57920954Y-85792787D01*
X57976130Y-85830679D01*
X58077299Y-85899725D01*
X58169150Y-85961050D01*
X58247036Y-86011663D01*
X58306311Y-86048571D01*
X58342329Y-86068782D01*
X58350403Y-86071701D01*
X58369196Y-86059153D01*
X58409323Y-86024463D01*
X58466287Y-85972063D01*
X58535595Y-85906384D01*
X58612749Y-85831856D01*
X58693255Y-85752913D01*
X58772617Y-85673983D01*
X58846340Y-85599500D01*
X58909928Y-85533894D01*
X58958886Y-85481596D01*
X58988719Y-85447039D01*
X58995838Y-85435478D01*
X58985827Y-85416654D01*
X58957702Y-85371631D01*
X58914326Y-85304787D01*
X58858562Y-85220499D01*
X58793274Y-85123144D01*
X58743534Y-85049707D01*
X58491229Y-84678667D01*
X58746225Y-84060095D01*
X59190849Y-83976275D01*
X59635473Y-83892454D01*
X59635473Y-82967006D01*
X59190849Y-82883186D01*
G37*
X59190849Y-82883186D02*
X58746225Y-82799365D01*
X58618727Y-82490080D01*
X58491229Y-82180794D01*
X58743534Y-81809754D01*
X58813784Y-81705843D01*
X58876508Y-81611913D01*
X58928842Y-81532348D01*
X58967923Y-81471530D01*
X58990887Y-81433843D01*
X58995838Y-81423579D01*
X58983104Y-81405090D01*
X58947898Y-81365580D01*
X58894718Y-81309478D01*
X58828062Y-81241213D01*
X58752426Y-81165214D01*
X58672308Y-81085908D01*
X58592206Y-81007725D01*
X58516616Y-80935093D01*
X58450035Y-80872441D01*
X58396962Y-80824197D01*
X58361893Y-80794790D01*
X58350157Y-80787759D01*
X58328520Y-80797877D01*
X58281118Y-80826241D01*
X58212587Y-80869871D01*
X58127565Y-80925782D01*
X58030687Y-80990994D01*
X57975430Y-81028781D01*
X57874532Y-81097657D01*
X57783481Y-81158860D01*
X57706810Y-81209422D01*
X57649052Y-81246372D01*
X57614737Y-81266742D01*
X57607526Y-81269803D01*
X57587032Y-81262864D01*
X57539267Y-81243949D01*
X57470948Y-81215913D01*
X57388791Y-81181609D01*
X57299510Y-81143891D01*
X57209822Y-81105613D01*
X57126442Y-81069630D01*
X57056086Y-81038794D01*
X57005470Y-81015961D01*
X56981309Y-81003983D01*
X56980358Y-81003276D01*
X56975744Y-80984469D01*
X56965452Y-80934382D01*
X56950493Y-80858207D01*
X56931879Y-80761135D01*
X56910621Y-80648357D01*
X56898362Y-80582558D01*
X56875418Y-80462050D01*
X56853585Y-80353203D01*
X56834058Y-80261524D01*
X56818032Y-80192519D01*
X56806701Y-80151696D01*
X56803106Y-80143489D01*
X56778774Y-80135452D01*
X56723821Y-80128967D01*
X56644672Y-80124030D01*
X56547754Y-80120636D01*
X56439493Y-80118782D01*
X56326315Y-80118462D01*
X56214645Y-80119673D01*
X56110912Y-80122410D01*
X56021539Y-80126669D01*
X55952954Y-80132445D01*
X55911583Y-80139733D01*
X55902970Y-80144105D01*
X55892647Y-80170236D01*
X55877888Y-80225607D01*
X55860428Y-80302893D01*
X55842000Y-80394770D01*
X55836039Y-80426842D01*
X55807714Y-80581476D01*
X55784904Y-80703625D01*
X55766700Y-80797327D01*
X55752197Y-80866616D01*
X55740488Y-80915529D01*
X55730665Y-80948103D01*
X55721824Y-80968372D01*
X55713056Y-80980374D01*
X55711323Y-80982053D01*
X55683409Y-80998816D01*
X55629085Y-81024386D01*
X55555003Y-81056212D01*
X55467815Y-81091740D01*
X55374172Y-81128417D01*
X55280728Y-81163689D01*
X55194133Y-81195004D01*
X55121040Y-81219807D01*
X55068102Y-81235546D01*
X55041969Y-81239668D01*
X55041054Y-81239324D01*
X55019694Y-81225359D01*
X54972696Y-81193678D01*
X54904953Y-81147609D01*
X54821357Y-81090482D01*
X54726798Y-81025627D01*
X54699926Y-81007157D01*
X54602505Y-80941301D01*
X54513617Y-80883350D01*
X54438368Y-80836462D01*
X54381860Y-80803793D01*
X54349199Y-80788500D01*
X54345187Y-80787759D01*
X54324096Y-80800608D01*
X54282316Y-80836112D01*
X54224335Y-80889707D01*
X54154645Y-80956829D01*
X54077735Y-81032913D01*
X53998097Y-81113396D01*
X53920219Y-81193713D01*
X53848594Y-81269301D01*
X53787710Y-81335595D01*
X53742059Y-81388031D01*
X53716130Y-81422045D01*
X53711897Y-81431455D01*
X53721868Y-81453357D01*
X53748760Y-81498200D01*
X53788044Y-81558679D01*
X53819663Y-81605211D01*
X53877682Y-81689525D01*
X53945996Y-81789374D01*
X54014201Y-81889527D01*
X54050705Y-81943373D01*
X54173980Y-82125629D01*
X54091260Y-82278619D01*
X54055021Y-82348318D01*
X54026854Y-82407586D01*
X54010789Y-82447689D01*
X54008554Y-82457897D01*
X54025058Y-82470171D01*
X54071698Y-82494387D01*
X54144171Y-82528737D01*
X54238174Y-82571412D01*
X54349406Y-82620606D01*
X54473565Y-82674510D01*
X54606348Y-82731316D01*
X54743453Y-82789218D01*
X54880578Y-82846407D01*
X55013422Y-82901076D01*
X55137682Y-82951416D01*
X55249055Y-82995620D01*
X55343241Y-83031881D01*
X55415936Y-83058391D01*
X55462839Y-83073342D01*
X55478947Y-83075746D01*
X55499494Y-83056689D01*
X55532847Y-83014964D01*
X55572078Y-82959294D01*
X55575181Y-82954622D01*
X55690357Y-82810736D01*
X55824727Y-82694717D01*
X55973996Y-82607570D01*
X56133867Y-82550301D01*
X56300043Y-82523914D01*
X56468228Y-82529415D01*
X56634125Y-82567810D01*
X56793438Y-82640105D01*
X56828293Y-82661374D01*
X56969043Y-82772004D01*
X57082066Y-82902698D01*
X57166777Y-83048936D01*
X57222586Y-83206192D01*
X57248906Y-83369943D01*
X57245150Y-83535667D01*
X57210730Y-83698838D01*
X57145057Y-83854935D01*
X57047545Y-83999433D01*
X57007967Y-84044131D01*
X56884077Y-84157888D01*
X56753656Y-84240782D01*
X56607465Y-84297644D01*
X56462692Y-84329313D01*
X56299920Y-84337131D01*
X56136340Y-84311062D01*
X55977482Y-84253755D01*
X55828874Y-84167856D01*
X55696045Y-84056014D01*
X55584524Y-83920877D01*
X55572769Y-83903117D01*
X55534272Y-83846850D01*
X55500917Y-83804077D01*
X55479620Y-83783628D01*
X55478947Y-83783331D01*
X55455909Y-83787721D01*
X55403623Y-83805124D01*
X55326390Y-83833732D01*
X55228512Y-83871735D01*
X55114289Y-83917326D01*
X54988022Y-83968697D01*
X54854013Y-84024038D01*
X54716562Y-84081542D01*
X54579972Y-84139399D01*
X54448543Y-84195802D01*
X54326575Y-84248942D01*
X54218371Y-84297010D01*
X54128231Y-84338199D01*
X54060457Y-84370699D01*
X54019350Y-84392703D01*
X54008554Y-84401564D01*
X54016961Y-84428640D01*
X54039508Y-84479303D01*
X54072167Y-84544817D01*
X54091260Y-84580841D01*
X54173980Y-84733832D01*
X54050705Y-84916088D01*
X53987552Y-85009125D01*
X53918053Y-85110985D01*
X53852615Y-85206438D01*
X53819663Y-85254250D01*
X53774507Y-85321495D01*
X53738723Y-85378436D01*
X53716842Y-85417646D01*
X53712217Y-85430381D01*
X53724695Y-85448917D01*
X53759528Y-85489941D01*
X53813102Y-85549475D01*
X53881797Y-85623542D01*
X53961999Y-85708165D01*
X54013494Y-85761685D01*
X54105494Y-85855319D01*
X54187781Y-85936241D01*
X54256835Y-86001177D01*
X54309136Y-86046858D01*
X54341164Y-86070011D01*
X54347664Y-86072232D01*
X54372386Y-86061924D01*
X54422375Y-86033439D01*
X54492568Y-85989937D01*
X54577905Y-85934577D01*
X54673324Y-85870520D01*
X54699926Y-85852303D01*
X54796613Y-85785927D01*
X54883663Y-85726378D01*
X54956185Y-85676984D01*
X55009287Y-85641075D01*
X55038077Y-85621981D01*
X55041054Y-85620136D01*
X55063998Y-85622895D01*
X55114444Y-85637538D01*
X55185739Y-85661513D01*
X55271233Y-85692266D01*
X55364273Y-85727244D01*
X55458206Y-85763893D01*
X55546381Y-85799661D01*
X55622146Y-85831994D01*
X55678849Y-85858338D01*
X55709837Y-85876142D01*
X55711323Y-85877407D01*
X55720179Y-85888294D01*
X55728937Y-85906682D01*
X55738503Y-85936606D01*
X55749784Y-85982103D01*
X55763687Y-86047209D01*
X55781117Y-86135961D01*
X55802982Y-86252393D01*
X55830189Y-86400542D01*
X55836039Y-86432618D01*
X55854406Y-86527686D01*
X55872375Y-86610565D01*
X55888211Y-86673930D01*
X55900180Y-86710458D01*
X55902970Y-86715356D01*
X55927708Y-86723427D01*
X55982990Y-86729987D01*
X56062391Y-86735033D01*
X56159484Y-86738559D01*
X56267842Y-86740561D01*
X56381040Y-86741036D01*
X56492652Y-86739977D01*
X56596251Y-86737382D01*
X56685412Y-86733246D01*
X56753708Y-86727563D01*
X56794714Y-86720331D01*
X56803106Y-86715971D01*
X56811572Y-86691698D01*
X56825345Y-86636426D01*
X56843230Y-86555662D01*
X56864032Y-86454912D01*
X56886557Y-86339683D01*
X56898362Y-86276902D01*
X56920629Y-86157787D01*
X56940801Y-86051565D01*
X56957865Y-85963427D01*
X56970811Y-85898566D01*
X56978625Y-85862174D01*
X56980358Y-85856184D01*
X56999890Y-85846061D01*
X57046937Y-85824662D01*
X57114777Y-85794839D01*
X57196689Y-85759445D01*
X57285952Y-85721332D01*
X57375845Y-85683353D01*
X57459645Y-85648360D01*
X57530633Y-85619206D01*
X57582086Y-85598743D01*
X57607283Y-85589823D01*
X57608384Y-85589657D01*
X57628261Y-85599769D01*
X57674003Y-85628117D01*
X57741063Y-85671723D01*
X57824896Y-85727606D01*
X57920954Y-85792787D01*
X57976130Y-85830679D01*
X58077299Y-85899725D01*
X58169150Y-85961050D01*
X58247036Y-86011663D01*
X58306311Y-86048571D01*
X58342329Y-86068782D01*
X58350403Y-86071701D01*
X58369196Y-86059153D01*
X58409323Y-86024463D01*
X58466287Y-85972063D01*
X58535595Y-85906384D01*
X58612749Y-85831856D01*
X58693255Y-85752913D01*
X58772617Y-85673983D01*
X58846340Y-85599500D01*
X58909928Y-85533894D01*
X58958886Y-85481596D01*
X58988719Y-85447039D01*
X58995838Y-85435478D01*
X58985827Y-85416654D01*
X58957702Y-85371631D01*
X58914326Y-85304787D01*
X58858562Y-85220499D01*
X58793274Y-85123144D01*
X58743534Y-85049707D01*
X58491229Y-84678667D01*
X58746225Y-84060095D01*
X59190849Y-83976275D01*
X59635473Y-83892454D01*
X59635473Y-82967006D01*
X59190849Y-82883186D01*
D13*
X7304900Y-77482240D02*
X7304900Y-77282240D01*
X3164900Y-80282240D02*
X2954900Y-80082240D01*
X3164900Y-78982240D02*
X2954900Y-79182240D01*
X4454900Y-80282240D02*
X3164900Y-80282240D01*
X2954900Y-80082240D02*
X2954900Y-79182240D01*
X3164900Y-78982240D02*
X4454900Y-78982240D01*
X4454900Y-81732240D02*
X4454900Y-76032240D01*
X7304900Y-80482240D02*
X7304900Y-78782240D01*
X6254900Y-82332240D02*
X5464900Y-82332240D01*
X5464900Y-75432240D02*
X6254900Y-75432240D01*
X16948380Y-25826720D02*
G75*
G03*
X16948380Y-25826720I-700000J0D01*
G01*
X6610580Y-66908680D02*
G75*
G03*
X6610580Y-66908680I-700000J0D01*
G01*
X2790420Y-67010280D02*
G75*
G03*
X2790420Y-67010280I-700000J0D01*
G01*
X2790420Y-64470280D02*
G75*
G03*
X2790420Y-64470280I-700000J0D01*
G01*
X6610580Y-64322960D02*
G75*
G03*
X6610580Y-64322960I-700000J0D01*
G01*
X4624300Y-11455400D02*
G75*
G03*
X4624300Y-11455400I-700000J0D01*
G01*
X16948380Y-23159720D02*
G75*
G03*
X16948380Y-23159720I-700000J0D01*
G01*
X2663420Y-51795680D02*
G75*
G03*
X2663420Y-51795680I-700000J0D01*
G01*
X4624300Y-8321040D02*
G75*
G03*
X4624300Y-8321040I-700000J0D01*
G01*
X4624300Y-5186680D02*
G75*
G03*
X4624300Y-5186680I-700000J0D01*
G01*
X2663420Y-49225200D02*
G75*
G03*
X2663420Y-49225200I-700000J0D01*
G01*
X2663420Y-46725840D02*
G75*
G03*
X2663420Y-46725840I-700000J0D01*
G01*
X6483580Y-31369000D02*
G75*
G03*
X6483580Y-31369000I-700000J0D01*
G01*
X6483580Y-26238200D02*
G75*
G03*
X6483580Y-26238200I-700000J0D01*
G01*
X6483580Y-28930600D02*
G75*
G03*
X6483580Y-28930600I-700000J0D01*
G01*
X2729460Y-26243280D02*
G75*
G03*
X2729460Y-26243280I-700000J0D01*
G01*
X2729460Y-28910280D02*
G75*
G03*
X2729460Y-28910280I-700000J0D01*
G01*
X6483580Y-51780440D02*
G75*
G03*
X6483580Y-51780440I-700000J0D01*
G01*
X6483580Y-49194720D02*
G75*
G03*
X6483580Y-49194720I-700000J0D01*
G01*
X16948380Y-20060920D02*
G75*
G03*
X16948380Y-20060920I-700000J0D01*
G01*
X16948380Y-15692120D02*
G75*
G03*
X16948380Y-15692120I-700000J0D01*
G01*
X16948380Y-13126720D02*
G75*
G03*
X16948380Y-13126720I-700000J0D01*
G01*
X2729460Y-31450280D02*
G75*
G03*
X2729460Y-31450280I-700000J0D01*
G01*
X6483580Y-46609000D02*
G75*
G03*
X6483580Y-46609000I-700000J0D01*
G01*
X2127220Y-60506080D02*
X1677220Y-60056080D01*
X2127220Y-57106080D02*
X1677220Y-57556080D01*
X6727220Y-57106080D02*
X7177220Y-57556080D01*
X6727220Y-60506080D02*
X7177220Y-60056080D01*
X5427220Y-56056080D02*
X3427220Y-56056080D01*
X1677220Y-60056080D02*
X1677220Y-57556080D01*
X5427220Y-61556080D02*
X3427220Y-61556080D01*
X7177220Y-60056080D02*
X7177220Y-57556080D01*
X2178020Y-40531520D02*
X1728020Y-40081520D01*
X2178020Y-37131520D02*
X1728020Y-37581520D01*
X6778020Y-37131520D02*
X7228020Y-37581520D01*
X6778020Y-40531520D02*
X7228020Y-40081520D01*
X5478020Y-36081520D02*
X3478020Y-36081520D01*
X1728020Y-40081520D02*
X1728020Y-37581520D01*
X5478020Y-41581520D02*
X3478020Y-41581520D01*
X7228020Y-40081520D02*
X7228020Y-37581520D01*
X2172940Y-20440120D02*
X1722940Y-19990120D01*
X2172940Y-17040120D02*
X1722940Y-17490120D01*
X6772940Y-17040120D02*
X7222940Y-17490120D01*
X6772940Y-20440120D02*
X7222940Y-19990120D01*
X5472940Y-15990120D02*
X3472940Y-15990120D01*
X1722940Y-19990120D02*
X1722940Y-17490120D01*
X5472940Y-21490120D02*
X3472940Y-21490120D01*
X7222940Y-19990120D02*
X7222940Y-17490120D01*
D15*
X66965153Y-36259900D02*
X66965153Y-36974186D01*
X67012772Y-37117043D01*
X67108010Y-37212281D01*
X67250867Y-37259900D01*
X67346105Y-37259900D01*
X66441343Y-37259900D02*
X66250867Y-37259900D01*
X66155629Y-37212281D01*
X66108010Y-37164662D01*
X66012772Y-37021805D01*
X65965153Y-36831329D01*
X65965153Y-36450377D01*
X66012772Y-36355139D01*
X66060391Y-36307520D01*
X66155629Y-36259900D01*
X66346105Y-36259900D01*
X66441343Y-36307520D01*
X66488962Y-36355139D01*
X66536581Y-36450377D01*
X66536581Y-36688472D01*
X66488962Y-36783710D01*
X66441343Y-36831329D01*
X66346105Y-36878948D01*
X66155629Y-36878948D01*
X66060391Y-36831329D01*
X66012772Y-36783710D01*
X65965153Y-36688472D01*
X18438073Y-10886131D02*
X18771406Y-10886131D01*
X18771406Y-11409940D02*
X18771406Y-10409940D01*
X18295216Y-10409940D01*
X17580930Y-10886131D02*
X17438073Y-10933750D01*
X17390454Y-10981369D01*
X17342835Y-11076607D01*
X17342835Y-11219464D01*
X17390454Y-11314702D01*
X17438073Y-11362321D01*
X17533311Y-11409940D01*
X17914263Y-11409940D01*
X17914263Y-10409940D01*
X17580930Y-10409940D01*
X17485692Y-10457560D01*
X17438073Y-10505179D01*
X17390454Y-10600417D01*
X17390454Y-10695655D01*
X17438073Y-10790893D01*
X17485692Y-10838512D01*
X17580930Y-10886131D01*
X17914263Y-10886131D01*
X16438073Y-10409940D02*
X16914263Y-10409940D01*
X16961882Y-10886131D01*
X16914263Y-10838512D01*
X16819025Y-10790893D01*
X16580930Y-10790893D01*
X16485692Y-10838512D01*
X16438073Y-10886131D01*
X16390454Y-10981369D01*
X16390454Y-11219464D01*
X16438073Y-11314702D01*
X16485692Y-11362321D01*
X16580930Y-11409940D01*
X16819025Y-11409940D01*
X16914263Y-11362321D01*
X16961882Y-11314702D01*
X44513665Y-39761300D02*
X44513665Y-38761300D01*
X44275570Y-38761300D01*
X44132713Y-38808920D01*
X44037475Y-38904158D01*
X43989856Y-38999396D01*
X43942237Y-39189872D01*
X43942237Y-39332729D01*
X43989856Y-39523205D01*
X44037475Y-39618443D01*
X44132713Y-39713681D01*
X44275570Y-39761300D01*
X44513665Y-39761300D01*
X42989856Y-39761300D02*
X43561284Y-39761300D01*
X43275570Y-39761300D02*
X43275570Y-38761300D01*
X43370808Y-38904158D01*
X43466046Y-38999396D01*
X43561284Y-39047015D01*
X42656522Y-38761300D02*
X42037475Y-38761300D01*
X42370808Y-39142253D01*
X42227951Y-39142253D01*
X42132713Y-39189872D01*
X42085094Y-39237491D01*
X42037475Y-39332729D01*
X42037475Y-39570824D01*
X42085094Y-39666062D01*
X42132713Y-39713681D01*
X42227951Y-39761300D01*
X42513665Y-39761300D01*
X42608903Y-39713681D01*
X42656522Y-39666062D01*
X48882465Y-45958900D02*
X48882465Y-44958900D01*
X48644370Y-44958900D01*
X48501513Y-45006520D01*
X48406275Y-45101758D01*
X48358656Y-45196996D01*
X48311037Y-45387472D01*
X48311037Y-45530329D01*
X48358656Y-45720805D01*
X48406275Y-45816043D01*
X48501513Y-45911281D01*
X48644370Y-45958900D01*
X48882465Y-45958900D01*
X47358656Y-45958900D02*
X47930084Y-45958900D01*
X47644370Y-45958900D02*
X47644370Y-44958900D01*
X47739608Y-45101758D01*
X47834846Y-45196996D01*
X47930084Y-45244615D01*
X46977703Y-45054139D02*
X46930084Y-45006520D01*
X46834846Y-44958900D01*
X46596751Y-44958900D01*
X46501513Y-45006520D01*
X46453894Y-45054139D01*
X46406275Y-45149377D01*
X46406275Y-45244615D01*
X46453894Y-45387472D01*
X47025322Y-45958900D01*
X46406275Y-45958900D01*
X52032065Y-52766100D02*
X52032065Y-51766100D01*
X51793970Y-51766100D01*
X51651113Y-51813720D01*
X51555875Y-51908958D01*
X51508256Y-52004196D01*
X51460637Y-52194672D01*
X51460637Y-52337529D01*
X51508256Y-52528005D01*
X51555875Y-52623243D01*
X51651113Y-52718481D01*
X51793970Y-52766100D01*
X52032065Y-52766100D01*
X50508256Y-52766100D02*
X51079684Y-52766100D01*
X50793970Y-52766100D02*
X50793970Y-51766100D01*
X50889208Y-51908958D01*
X50984446Y-52004196D01*
X51079684Y-52051815D01*
X49555875Y-52766100D02*
X50127303Y-52766100D01*
X49841589Y-52766100D02*
X49841589Y-51766100D01*
X49936827Y-51908958D01*
X50032065Y-52004196D01*
X50127303Y-52051815D01*
X48933265Y-59573300D02*
X48933265Y-58573300D01*
X48695170Y-58573300D01*
X48552313Y-58620920D01*
X48457075Y-58716158D01*
X48409456Y-58811396D01*
X48361837Y-59001872D01*
X48361837Y-59144729D01*
X48409456Y-59335205D01*
X48457075Y-59430443D01*
X48552313Y-59525681D01*
X48695170Y-59573300D01*
X48933265Y-59573300D01*
X47409456Y-59573300D02*
X47980884Y-59573300D01*
X47695170Y-59573300D02*
X47695170Y-58573300D01*
X47790408Y-58716158D01*
X47885646Y-58811396D01*
X47980884Y-58859015D01*
X46790408Y-58573300D02*
X46695170Y-58573300D01*
X46599932Y-58620920D01*
X46552313Y-58668539D01*
X46504694Y-58763777D01*
X46457075Y-58954253D01*
X46457075Y-59192348D01*
X46504694Y-59382824D01*
X46552313Y-59478062D01*
X46599932Y-59525681D01*
X46695170Y-59573300D01*
X46790408Y-59573300D01*
X46885646Y-59525681D01*
X46933265Y-59478062D01*
X46980884Y-59382824D01*
X47028503Y-59192348D01*
X47028503Y-58954253D01*
X46980884Y-58763777D01*
X46933265Y-58668539D01*
X46885646Y-58620920D01*
X46790408Y-58573300D01*
X44088275Y-65770900D02*
X44088275Y-64770900D01*
X43850180Y-64770900D01*
X43707322Y-64818520D01*
X43612084Y-64913758D01*
X43564465Y-65008996D01*
X43516846Y-65199472D01*
X43516846Y-65342329D01*
X43564465Y-65532805D01*
X43612084Y-65628043D01*
X43707322Y-65723281D01*
X43850180Y-65770900D01*
X44088275Y-65770900D01*
X43040656Y-65770900D02*
X42850180Y-65770900D01*
X42754941Y-65723281D01*
X42707322Y-65675662D01*
X42612084Y-65532805D01*
X42564465Y-65342329D01*
X42564465Y-64961377D01*
X42612084Y-64866139D01*
X42659703Y-64818520D01*
X42754941Y-64770900D01*
X42945418Y-64770900D01*
X43040656Y-64818520D01*
X43088275Y-64866139D01*
X43135894Y-64961377D01*
X43135894Y-65199472D01*
X43088275Y-65294710D01*
X43040656Y-65342329D01*
X42945418Y-65389948D01*
X42754941Y-65389948D01*
X42659703Y-65342329D01*
X42612084Y-65294710D01*
X42564465Y-65199472D01*
X36569875Y-66380500D02*
X36569875Y-65380500D01*
X36331780Y-65380500D01*
X36188922Y-65428120D01*
X36093684Y-65523358D01*
X36046065Y-65618596D01*
X35998446Y-65809072D01*
X35998446Y-65951929D01*
X36046065Y-66142405D01*
X36093684Y-66237643D01*
X36188922Y-66332881D01*
X36331780Y-66380500D01*
X36569875Y-66380500D01*
X35427018Y-65809072D02*
X35522256Y-65761453D01*
X35569875Y-65713834D01*
X35617494Y-65618596D01*
X35617494Y-65570977D01*
X35569875Y-65475739D01*
X35522256Y-65428120D01*
X35427018Y-65380500D01*
X35236541Y-65380500D01*
X35141303Y-65428120D01*
X35093684Y-65475739D01*
X35046065Y-65570977D01*
X35046065Y-65618596D01*
X35093684Y-65713834D01*
X35141303Y-65761453D01*
X35236541Y-65809072D01*
X35427018Y-65809072D01*
X35522256Y-65856691D01*
X35569875Y-65904310D01*
X35617494Y-65999548D01*
X35617494Y-66190024D01*
X35569875Y-66285262D01*
X35522256Y-66332881D01*
X35427018Y-66380500D01*
X35236541Y-66380500D01*
X35141303Y-66332881D01*
X35093684Y-66285262D01*
X35046065Y-66190024D01*
X35046065Y-65999548D01*
X35093684Y-65904310D01*
X35141303Y-65856691D01*
X35236541Y-65809072D01*
X29102275Y-65720100D02*
X29102275Y-64720100D01*
X28864180Y-64720100D01*
X28721322Y-64767720D01*
X28626084Y-64862958D01*
X28578465Y-64958196D01*
X28530846Y-65148672D01*
X28530846Y-65291529D01*
X28578465Y-65482005D01*
X28626084Y-65577243D01*
X28721322Y-65672481D01*
X28864180Y-65720100D01*
X29102275Y-65720100D01*
X28197513Y-64720100D02*
X27530846Y-64720100D01*
X27959418Y-65720100D01*
X24682675Y-59674900D02*
X24682675Y-58674900D01*
X24444580Y-58674900D01*
X24301722Y-58722520D01*
X24206484Y-58817758D01*
X24158865Y-58912996D01*
X24111246Y-59103472D01*
X24111246Y-59246329D01*
X24158865Y-59436805D01*
X24206484Y-59532043D01*
X24301722Y-59627281D01*
X24444580Y-59674900D01*
X24682675Y-59674900D01*
X23254103Y-58674900D02*
X23444580Y-58674900D01*
X23539818Y-58722520D01*
X23587437Y-58770139D01*
X23682675Y-58912996D01*
X23730294Y-59103472D01*
X23730294Y-59484424D01*
X23682675Y-59579662D01*
X23635056Y-59627281D01*
X23539818Y-59674900D01*
X23349341Y-59674900D01*
X23254103Y-59627281D01*
X23206484Y-59579662D01*
X23158865Y-59484424D01*
X23158865Y-59246329D01*
X23206484Y-59151091D01*
X23254103Y-59103472D01*
X23349341Y-59055853D01*
X23539818Y-59055853D01*
X23635056Y-59103472D01*
X23682675Y-59151091D01*
X23730294Y-59246329D01*
X21583875Y-52816900D02*
X21583875Y-51816900D01*
X21345780Y-51816900D01*
X21202922Y-51864520D01*
X21107684Y-51959758D01*
X21060065Y-52054996D01*
X21012446Y-52245472D01*
X21012446Y-52388329D01*
X21060065Y-52578805D01*
X21107684Y-52674043D01*
X21202922Y-52769281D01*
X21345780Y-52816900D01*
X21583875Y-52816900D01*
X20107684Y-51816900D02*
X20583875Y-51816900D01*
X20631494Y-52293091D01*
X20583875Y-52245472D01*
X20488637Y-52197853D01*
X20250541Y-52197853D01*
X20155303Y-52245472D01*
X20107684Y-52293091D01*
X20060065Y-52388329D01*
X20060065Y-52626424D01*
X20107684Y-52721662D01*
X20155303Y-52769281D01*
X20250541Y-52816900D01*
X20488637Y-52816900D01*
X20583875Y-52769281D01*
X20631494Y-52721662D01*
X24733475Y-45958900D02*
X24733475Y-44958900D01*
X24495380Y-44958900D01*
X24352522Y-45006520D01*
X24257284Y-45101758D01*
X24209665Y-45196996D01*
X24162046Y-45387472D01*
X24162046Y-45530329D01*
X24209665Y-45720805D01*
X24257284Y-45816043D01*
X24352522Y-45911281D01*
X24495380Y-45958900D01*
X24733475Y-45958900D01*
X23304903Y-45292234D02*
X23304903Y-45958900D01*
X23542999Y-44911281D02*
X23781094Y-45625567D01*
X23162046Y-45625567D01*
X29051475Y-39862900D02*
X29051475Y-38862900D01*
X28813380Y-38862900D01*
X28670522Y-38910520D01*
X28575284Y-39005758D01*
X28527665Y-39100996D01*
X28480046Y-39291472D01*
X28480046Y-39434329D01*
X28527665Y-39624805D01*
X28575284Y-39720043D01*
X28670522Y-39815281D01*
X28813380Y-39862900D01*
X29051475Y-39862900D01*
X28146713Y-38862900D02*
X27527665Y-38862900D01*
X27860999Y-39243853D01*
X27718141Y-39243853D01*
X27622903Y-39291472D01*
X27575284Y-39339091D01*
X27527665Y-39434329D01*
X27527665Y-39672424D01*
X27575284Y-39767662D01*
X27622903Y-39815281D01*
X27718141Y-39862900D01*
X28003856Y-39862900D01*
X28099094Y-39815281D01*
X28146713Y-39767662D01*
X38655215Y-32913580D02*
X38655215Y-31913580D01*
X38417120Y-31913580D01*
X38274262Y-31961200D01*
X38179024Y-32056438D01*
X38131405Y-32151676D01*
X38083786Y-32342152D01*
X38083786Y-32485009D01*
X38131405Y-32675485D01*
X38179024Y-32770723D01*
X38274262Y-32865961D01*
X38417120Y-32913580D01*
X38655215Y-32913580D01*
X37702834Y-32008819D02*
X37655215Y-31961200D01*
X37559977Y-31913580D01*
X37321881Y-31913580D01*
X37226643Y-31961200D01*
X37179024Y-32008819D01*
X37131405Y-32104057D01*
X37131405Y-32199295D01*
X37179024Y-32342152D01*
X37750453Y-32913580D01*
X37131405Y-32913580D01*
X56317995Y-71841620D02*
X56317995Y-70841620D01*
X56079900Y-70841620D01*
X55937042Y-70889240D01*
X55841804Y-70984478D01*
X55794185Y-71079716D01*
X55746566Y-71270192D01*
X55746566Y-71413049D01*
X55794185Y-71603525D01*
X55841804Y-71698763D01*
X55937042Y-71794001D01*
X56079900Y-71841620D01*
X56317995Y-71841620D01*
X55317995Y-71841620D02*
X55317995Y-70841620D01*
X54937042Y-70841620D01*
X54841804Y-70889240D01*
X54794185Y-70936859D01*
X54746566Y-71032097D01*
X54746566Y-71174954D01*
X54794185Y-71270192D01*
X54841804Y-71317811D01*
X54937042Y-71365430D01*
X55317995Y-71365430D01*
X54413233Y-70841620D02*
X53794185Y-70841620D01*
X54127519Y-71222573D01*
X53984661Y-71222573D01*
X53889423Y-71270192D01*
X53841804Y-71317811D01*
X53794185Y-71413049D01*
X53794185Y-71651144D01*
X53841804Y-71746382D01*
X53889423Y-71794001D01*
X53984661Y-71841620D01*
X54270376Y-71841620D01*
X54365614Y-71794001D01*
X54413233Y-71746382D01*
X56389423Y-74076820D02*
X56389423Y-73076820D01*
X56151328Y-73076820D01*
X56008471Y-73124440D01*
X55913233Y-73219678D01*
X55865614Y-73314916D01*
X55817995Y-73505392D01*
X55817995Y-73648249D01*
X55865614Y-73838725D01*
X55913233Y-73933963D01*
X56008471Y-74029201D01*
X56151328Y-74076820D01*
X56389423Y-74076820D01*
X55389423Y-74076820D02*
X55389423Y-73076820D01*
X55056090Y-73791106D01*
X54722757Y-73076820D01*
X54722757Y-74076820D01*
X54341804Y-73076820D02*
X53722757Y-73076820D01*
X54056090Y-73457773D01*
X53913233Y-73457773D01*
X53817995Y-73505392D01*
X53770376Y-73553011D01*
X53722757Y-73648249D01*
X53722757Y-73886344D01*
X53770376Y-73981582D01*
X53817995Y-74029201D01*
X53913233Y-74076820D01*
X54198947Y-74076820D01*
X54294185Y-74029201D01*
X54341804Y-73981582D01*
X21212560Y-12676024D02*
X22022084Y-12676024D01*
X22117322Y-12723643D01*
X22164941Y-12771262D01*
X22212560Y-12866500D01*
X22212560Y-13056977D01*
X22164941Y-13152215D01*
X22117322Y-13199834D01*
X22022084Y-13247453D01*
X21212560Y-13247453D01*
X22212560Y-14247453D02*
X22212560Y-13676024D01*
X22212560Y-13961739D02*
X21212560Y-13961739D01*
X21355418Y-13866500D01*
X21450656Y-13771262D01*
X21498275Y-13676024D01*
X21212560Y-14866500D02*
X21212560Y-14961739D01*
X21260180Y-15056977D01*
X21307799Y-15104596D01*
X21403037Y-15152215D01*
X21593513Y-15199834D01*
X21831608Y-15199834D01*
X22022084Y-15152215D01*
X22117322Y-15104596D01*
X22164941Y-15056977D01*
X22212560Y-14961739D01*
X22212560Y-14866500D01*
X22164941Y-14771262D01*
X22117322Y-14723643D01*
X22022084Y-14676024D01*
X21831608Y-14628405D01*
X21593513Y-14628405D01*
X21403037Y-14676024D01*
X21307799Y-14723643D01*
X21260180Y-14771262D01*
X21212560Y-14866500D01*
X27135840Y-82719064D02*
X27945364Y-82719064D01*
X28040602Y-82766683D01*
X28088221Y-82814302D01*
X28135840Y-82909540D01*
X28135840Y-83100017D01*
X28088221Y-83195255D01*
X28040602Y-83242874D01*
X27945364Y-83290493D01*
X27135840Y-83290493D01*
X28135840Y-84290493D02*
X28135840Y-83719064D01*
X28135840Y-84004779D02*
X27135840Y-84004779D01*
X27278698Y-83909540D01*
X27373936Y-83814302D01*
X27421555Y-83719064D01*
X28135840Y-85242874D02*
X28135840Y-84671445D01*
X28135840Y-84957160D02*
X27135840Y-84957160D01*
X27278698Y-84861921D01*
X27373936Y-84766683D01*
X27421555Y-84671445D01*
X25946313Y-88665011D02*
X26279646Y-88665011D01*
X26279646Y-89188820D02*
X26279646Y-88188820D01*
X25803456Y-88188820D01*
X25089170Y-88665011D02*
X24946313Y-88712630D01*
X24898694Y-88760249D01*
X24851075Y-88855487D01*
X24851075Y-88998344D01*
X24898694Y-89093582D01*
X24946313Y-89141201D01*
X25041551Y-89188820D01*
X25422503Y-89188820D01*
X25422503Y-88188820D01*
X25089170Y-88188820D01*
X24993932Y-88236440D01*
X24946313Y-88284059D01*
X24898694Y-88379297D01*
X24898694Y-88474535D01*
X24946313Y-88569773D01*
X24993932Y-88617392D01*
X25089170Y-88665011D01*
X25422503Y-88665011D01*
X23993932Y-88188820D02*
X24184408Y-88188820D01*
X24279646Y-88236440D01*
X24327265Y-88284059D01*
X24422503Y-88426916D01*
X24470122Y-88617392D01*
X24470122Y-88998344D01*
X24422503Y-89093582D01*
X24374884Y-89141201D01*
X24279646Y-89188820D01*
X24089170Y-89188820D01*
X23993932Y-89141201D01*
X23946313Y-89093582D01*
X23898694Y-88998344D01*
X23898694Y-88760249D01*
X23946313Y-88665011D01*
X23993932Y-88617392D01*
X24089170Y-88569773D01*
X24279646Y-88569773D01*
X24374884Y-88617392D01*
X24422503Y-88665011D01*
X24470122Y-88760249D01*
X9789661Y-77548906D02*
X9837280Y-77691763D01*
X9837280Y-77929859D01*
X9789661Y-78025097D01*
X9742042Y-78072716D01*
X9646804Y-78120335D01*
X9551566Y-78120335D01*
X9456328Y-78072716D01*
X9408709Y-78025097D01*
X9361090Y-77929859D01*
X9313471Y-77739382D01*
X9265852Y-77644144D01*
X9218233Y-77596525D01*
X9122995Y-77548906D01*
X9027757Y-77548906D01*
X8932519Y-77596525D01*
X8884900Y-77644144D01*
X8837280Y-77739382D01*
X8837280Y-77977478D01*
X8884900Y-78120335D01*
X8837280Y-78453668D02*
X9837280Y-78691763D01*
X9122995Y-78882240D01*
X9837280Y-79072716D01*
X8837280Y-79310811D01*
X9837280Y-80215573D02*
X9837280Y-79644144D01*
X9837280Y-79929859D02*
X8837280Y-79929859D01*
X8980138Y-79834620D01*
X9075376Y-79739382D01*
X9122995Y-79644144D01*
X11422640Y-76987424D02*
X10422640Y-76987424D01*
X11136926Y-77320758D01*
X10422640Y-77654091D01*
X11422640Y-77654091D01*
X10755974Y-78558853D02*
X11422640Y-78558853D01*
X10755974Y-78130281D02*
X11279783Y-78130281D01*
X11375021Y-78177900D01*
X11422640Y-78273139D01*
X11422640Y-78415996D01*
X11375021Y-78511234D01*
X11327402Y-78558853D01*
X10755974Y-78892186D02*
X10755974Y-79273139D01*
X10422640Y-79035043D02*
X11279783Y-79035043D01*
X11375021Y-79082662D01*
X11422640Y-79177900D01*
X11422640Y-79273139D01*
X11375021Y-79987424D02*
X11422640Y-79892186D01*
X11422640Y-79701710D01*
X11375021Y-79606472D01*
X11279783Y-79558853D01*
X10898831Y-79558853D01*
X10803593Y-79606472D01*
X10755974Y-79701710D01*
X10755974Y-79892186D01*
X10803593Y-79987424D01*
X10898831Y-80035043D01*
X10994069Y-80035043D01*
X11089307Y-79558853D01*
X11422640Y-80463615D02*
X10422640Y-80463615D01*
X11136926Y-80796948D01*
X10422640Y-81130281D01*
X11422640Y-81130281D01*
X11422640Y-81606472D02*
X10755974Y-81606472D01*
X10422640Y-81606472D02*
X10470260Y-81558853D01*
X10517879Y-81606472D01*
X10470260Y-81654091D01*
X10422640Y-81606472D01*
X10517879Y-81606472D01*
X11375021Y-82511234D02*
X11422640Y-82415996D01*
X11422640Y-82225520D01*
X11375021Y-82130281D01*
X11327402Y-82082662D01*
X11232164Y-82035043D01*
X10946450Y-82035043D01*
X10851212Y-82082662D01*
X10803593Y-82130281D01*
X10755974Y-82225520D01*
X10755974Y-82415996D01*
X10803593Y-82511234D01*
D10*
X19078307Y-25735790D02*
X18792593Y-25735790D01*
X18935450Y-26235790D02*
X18935450Y-25735790D01*
X18625926Y-26235790D02*
X18625926Y-25735790D01*
X18435450Y-25735790D01*
X18387831Y-25759600D01*
X18364021Y-25783409D01*
X18340212Y-25831028D01*
X18340212Y-25902457D01*
X18364021Y-25950076D01*
X18387831Y-25973885D01*
X18435450Y-25997695D01*
X18625926Y-25997695D01*
X18149736Y-25783409D02*
X18125926Y-25759600D01*
X18078307Y-25735790D01*
X17959260Y-25735790D01*
X17911640Y-25759600D01*
X17887831Y-25783409D01*
X17864021Y-25831028D01*
X17864021Y-25878647D01*
X17887831Y-25950076D01*
X18173545Y-26235790D01*
X17864021Y-26235790D01*
X17697355Y-25735790D02*
X17364021Y-25735790D01*
X17578307Y-26235790D01*
X9776827Y-66873630D02*
X9491113Y-66873630D01*
X9633970Y-67373630D02*
X9633970Y-66873630D01*
X9324446Y-67373630D02*
X9324446Y-66873630D01*
X9133970Y-66873630D01*
X9086351Y-66897440D01*
X9062541Y-66921249D01*
X9038732Y-66968868D01*
X9038732Y-67040297D01*
X9062541Y-67087916D01*
X9086351Y-67111725D01*
X9133970Y-67135535D01*
X9324446Y-67135535D01*
X8848256Y-66921249D02*
X8824446Y-66897440D01*
X8776827Y-66873630D01*
X8657780Y-66873630D01*
X8610160Y-66897440D01*
X8586351Y-66921249D01*
X8562541Y-66968868D01*
X8562541Y-67016487D01*
X8586351Y-67087916D01*
X8872065Y-67373630D01*
X8562541Y-67373630D01*
X8133970Y-66873630D02*
X8229208Y-66873630D01*
X8276827Y-66897440D01*
X8300637Y-66921249D01*
X8348256Y-66992678D01*
X8372065Y-67087916D01*
X8372065Y-67278392D01*
X8348256Y-67326011D01*
X8324446Y-67349820D01*
X8276827Y-67373630D01*
X8181589Y-67373630D01*
X8133970Y-67349820D01*
X8110160Y-67326011D01*
X8086351Y-67278392D01*
X8086351Y-67159344D01*
X8110160Y-67111725D01*
X8133970Y-67087916D01*
X8181589Y-67064106D01*
X8276827Y-67064106D01*
X8324446Y-67087916D01*
X8348256Y-67111725D01*
X8372065Y-67159344D01*
X3213467Y-68184270D02*
X2927753Y-68184270D01*
X3070610Y-68684270D02*
X3070610Y-68184270D01*
X2761086Y-68684270D02*
X2761086Y-68184270D01*
X2570610Y-68184270D01*
X2522991Y-68208080D01*
X2499181Y-68231889D01*
X2475372Y-68279508D01*
X2475372Y-68350937D01*
X2499181Y-68398556D01*
X2522991Y-68422365D01*
X2570610Y-68446175D01*
X2761086Y-68446175D01*
X2284896Y-68231889D02*
X2261086Y-68208080D01*
X2213467Y-68184270D01*
X2094420Y-68184270D01*
X2046800Y-68208080D01*
X2022991Y-68231889D01*
X1999181Y-68279508D01*
X1999181Y-68327127D01*
X2022991Y-68398556D01*
X2308705Y-68684270D01*
X1999181Y-68684270D01*
X1522991Y-68684270D02*
X1808705Y-68684270D01*
X1665848Y-68684270D02*
X1665848Y-68184270D01*
X1713467Y-68255699D01*
X1761086Y-68303318D01*
X1808705Y-68327127D01*
X3330307Y-62606430D02*
X3044593Y-62606430D01*
X3187450Y-63106430D02*
X3187450Y-62606430D01*
X2877926Y-63106430D02*
X2877926Y-62606430D01*
X2687450Y-62606430D01*
X2639831Y-62630240D01*
X2616021Y-62654049D01*
X2592212Y-62701668D01*
X2592212Y-62773097D01*
X2616021Y-62820716D01*
X2639831Y-62844525D01*
X2687450Y-62868335D01*
X2877926Y-62868335D01*
X2401736Y-62654049D02*
X2377926Y-62630240D01*
X2330307Y-62606430D01*
X2211260Y-62606430D01*
X2163640Y-62630240D01*
X2139831Y-62654049D01*
X2116021Y-62701668D01*
X2116021Y-62749287D01*
X2139831Y-62820716D01*
X2425545Y-63106430D01*
X2116021Y-63106430D01*
X1806498Y-62606430D02*
X1758879Y-62606430D01*
X1711260Y-62630240D01*
X1687450Y-62654049D01*
X1663640Y-62701668D01*
X1639831Y-62796906D01*
X1639831Y-62915954D01*
X1663640Y-63011192D01*
X1687450Y-63058811D01*
X1711260Y-63082620D01*
X1758879Y-63106430D01*
X1806498Y-63106430D01*
X1854117Y-63082620D01*
X1877926Y-63058811D01*
X1901736Y-63011192D01*
X1925545Y-62915954D01*
X1925545Y-62796906D01*
X1901736Y-62701668D01*
X1877926Y-62654049D01*
X1854117Y-62630240D01*
X1806498Y-62606430D01*
X9741267Y-64160910D02*
X9455553Y-64160910D01*
X9598410Y-64660910D02*
X9598410Y-64160910D01*
X9288886Y-64660910D02*
X9288886Y-64160910D01*
X9098410Y-64160910D01*
X9050791Y-64184720D01*
X9026981Y-64208529D01*
X9003172Y-64256148D01*
X9003172Y-64327577D01*
X9026981Y-64375196D01*
X9050791Y-64399005D01*
X9098410Y-64422815D01*
X9288886Y-64422815D01*
X8526981Y-64660910D02*
X8812696Y-64660910D01*
X8669839Y-64660910D02*
X8669839Y-64160910D01*
X8717458Y-64232339D01*
X8765077Y-64279958D01*
X8812696Y-64303767D01*
X8288886Y-64660910D02*
X8193648Y-64660910D01*
X8146029Y-64637100D01*
X8122220Y-64613291D01*
X8074600Y-64541862D01*
X8050791Y-64446624D01*
X8050791Y-64256148D01*
X8074600Y-64208529D01*
X8098410Y-64184720D01*
X8146029Y-64160910D01*
X8241267Y-64160910D01*
X8288886Y-64184720D01*
X8312696Y-64208529D01*
X8336505Y-64256148D01*
X8336505Y-64375196D01*
X8312696Y-64422815D01*
X8288886Y-64446624D01*
X8241267Y-64470434D01*
X8146029Y-64470434D01*
X8098410Y-64446624D01*
X8074600Y-64422815D01*
X8050791Y-64375196D01*
X2827387Y-11344150D02*
X2541673Y-11344150D01*
X2684530Y-11844150D02*
X2684530Y-11344150D01*
X2375006Y-11844150D02*
X2375006Y-11344150D01*
X2184530Y-11344150D01*
X2136911Y-11367960D01*
X2113101Y-11391769D01*
X2089292Y-11439388D01*
X2089292Y-11510817D01*
X2113101Y-11558436D01*
X2136911Y-11582245D01*
X2184530Y-11606055D01*
X2375006Y-11606055D01*
X1613101Y-11844150D02*
X1898816Y-11844150D01*
X1755959Y-11844150D02*
X1755959Y-11344150D01*
X1803578Y-11415579D01*
X1851197Y-11463198D01*
X1898816Y-11487007D01*
X1327387Y-11558436D02*
X1375006Y-11534626D01*
X1398816Y-11510817D01*
X1422625Y-11463198D01*
X1422625Y-11439388D01*
X1398816Y-11391769D01*
X1375006Y-11367960D01*
X1327387Y-11344150D01*
X1232149Y-11344150D01*
X1184530Y-11367960D01*
X1160720Y-11391769D01*
X1136911Y-11439388D01*
X1136911Y-11463198D01*
X1160720Y-11510817D01*
X1184530Y-11534626D01*
X1232149Y-11558436D01*
X1327387Y-11558436D01*
X1375006Y-11582245D01*
X1398816Y-11606055D01*
X1422625Y-11653674D01*
X1422625Y-11748912D01*
X1398816Y-11796531D01*
X1375006Y-11820340D01*
X1327387Y-11844150D01*
X1232149Y-11844150D01*
X1184530Y-11820340D01*
X1160720Y-11796531D01*
X1136911Y-11748912D01*
X1136911Y-11653674D01*
X1160720Y-11606055D01*
X1184530Y-11582245D01*
X1232149Y-11558436D01*
X18991947Y-22941790D02*
X18706233Y-22941790D01*
X18849090Y-23441790D02*
X18849090Y-22941790D01*
X18539566Y-23441790D02*
X18539566Y-22941790D01*
X18349090Y-22941790D01*
X18301471Y-22965600D01*
X18277661Y-22989409D01*
X18253852Y-23037028D01*
X18253852Y-23108457D01*
X18277661Y-23156076D01*
X18301471Y-23179885D01*
X18349090Y-23203695D01*
X18539566Y-23203695D01*
X17777661Y-23441790D02*
X18063376Y-23441790D01*
X17920519Y-23441790D02*
X17920519Y-22941790D01*
X17968138Y-23013219D01*
X18015757Y-23060838D01*
X18063376Y-23084647D01*
X17610995Y-22941790D02*
X17277661Y-22941790D01*
X17491947Y-23441790D01*
X2807067Y-52796950D02*
X2521353Y-52796950D01*
X2664210Y-53296950D02*
X2664210Y-52796950D01*
X2354686Y-53296950D02*
X2354686Y-52796950D01*
X2164210Y-52796950D01*
X2116591Y-52820760D01*
X2092781Y-52844569D01*
X2068972Y-52892188D01*
X2068972Y-52963617D01*
X2092781Y-53011236D01*
X2116591Y-53035045D01*
X2164210Y-53058855D01*
X2354686Y-53058855D01*
X1592781Y-53296950D02*
X1878496Y-53296950D01*
X1735639Y-53296950D02*
X1735639Y-52796950D01*
X1783258Y-52868379D01*
X1830877Y-52915998D01*
X1878496Y-52939807D01*
X1164210Y-52796950D02*
X1259448Y-52796950D01*
X1307067Y-52820760D01*
X1330877Y-52844569D01*
X1378496Y-52915998D01*
X1402305Y-53011236D01*
X1402305Y-53201712D01*
X1378496Y-53249331D01*
X1354686Y-53273140D01*
X1307067Y-53296950D01*
X1211829Y-53296950D01*
X1164210Y-53273140D01*
X1140400Y-53249331D01*
X1116591Y-53201712D01*
X1116591Y-53082664D01*
X1140400Y-53035045D01*
X1164210Y-53011236D01*
X1211829Y-52987426D01*
X1307067Y-52987426D01*
X1354686Y-53011236D01*
X1378496Y-53035045D01*
X1402305Y-53082664D01*
X2827387Y-8098030D02*
X2541673Y-8098030D01*
X2684530Y-8598030D02*
X2684530Y-8098030D01*
X2375006Y-8598030D02*
X2375006Y-8098030D01*
X2184530Y-8098030D01*
X2136911Y-8121840D01*
X2113101Y-8145649D01*
X2089292Y-8193268D01*
X2089292Y-8264697D01*
X2113101Y-8312316D01*
X2136911Y-8336125D01*
X2184530Y-8359935D01*
X2375006Y-8359935D01*
X1613101Y-8598030D02*
X1898816Y-8598030D01*
X1755959Y-8598030D02*
X1755959Y-8098030D01*
X1803578Y-8169459D01*
X1851197Y-8217078D01*
X1898816Y-8240887D01*
X1160720Y-8098030D02*
X1398816Y-8098030D01*
X1422625Y-8336125D01*
X1398816Y-8312316D01*
X1351197Y-8288506D01*
X1232149Y-8288506D01*
X1184530Y-8312316D01*
X1160720Y-8336125D01*
X1136911Y-8383744D01*
X1136911Y-8502792D01*
X1160720Y-8550411D01*
X1184530Y-8574220D01*
X1232149Y-8598030D01*
X1351197Y-8598030D01*
X1398816Y-8574220D01*
X1422625Y-8550411D01*
X2812147Y-4912870D02*
X2526433Y-4912870D01*
X2669290Y-5412870D02*
X2669290Y-4912870D01*
X2359766Y-5412870D02*
X2359766Y-4912870D01*
X2169290Y-4912870D01*
X2121671Y-4936680D01*
X2097861Y-4960489D01*
X2074052Y-5008108D01*
X2074052Y-5079537D01*
X2097861Y-5127156D01*
X2121671Y-5150965D01*
X2169290Y-5174775D01*
X2359766Y-5174775D01*
X1597861Y-5412870D02*
X1883576Y-5412870D01*
X1740719Y-5412870D02*
X1740719Y-4912870D01*
X1788338Y-4984299D01*
X1835957Y-5031918D01*
X1883576Y-5055727D01*
X1169290Y-5079537D02*
X1169290Y-5412870D01*
X1288338Y-4889060D02*
X1407385Y-5246203D01*
X1097861Y-5246203D01*
X2786747Y-50201070D02*
X2501033Y-50201070D01*
X2643890Y-50701070D02*
X2643890Y-50201070D01*
X2334366Y-50701070D02*
X2334366Y-50201070D01*
X2143890Y-50201070D01*
X2096271Y-50224880D01*
X2072461Y-50248689D01*
X2048652Y-50296308D01*
X2048652Y-50367737D01*
X2072461Y-50415356D01*
X2096271Y-50439165D01*
X2143890Y-50462975D01*
X2334366Y-50462975D01*
X1572461Y-50701070D02*
X1858176Y-50701070D01*
X1715319Y-50701070D02*
X1715319Y-50201070D01*
X1762938Y-50272499D01*
X1810557Y-50320118D01*
X1858176Y-50343927D01*
X1405795Y-50201070D02*
X1096271Y-50201070D01*
X1262938Y-50391546D01*
X1191509Y-50391546D01*
X1143890Y-50415356D01*
X1120080Y-50439165D01*
X1096271Y-50486784D01*
X1096271Y-50605832D01*
X1120080Y-50653451D01*
X1143890Y-50677260D01*
X1191509Y-50701070D01*
X1334366Y-50701070D01*
X1381985Y-50677260D01*
X1405795Y-50653451D01*
X2837547Y-47640750D02*
X2551833Y-47640750D01*
X2694690Y-48140750D02*
X2694690Y-47640750D01*
X2385166Y-48140750D02*
X2385166Y-47640750D01*
X2194690Y-47640750D01*
X2147071Y-47664560D01*
X2123261Y-47688369D01*
X2099452Y-47735988D01*
X2099452Y-47807417D01*
X2123261Y-47855036D01*
X2147071Y-47878845D01*
X2194690Y-47902655D01*
X2385166Y-47902655D01*
X1623261Y-48140750D02*
X1908976Y-48140750D01*
X1766119Y-48140750D02*
X1766119Y-47640750D01*
X1813738Y-47712179D01*
X1861357Y-47759798D01*
X1908976Y-47783607D01*
X1432785Y-47688369D02*
X1408976Y-47664560D01*
X1361357Y-47640750D01*
X1242309Y-47640750D01*
X1194690Y-47664560D01*
X1170880Y-47688369D01*
X1147071Y-47735988D01*
X1147071Y-47783607D01*
X1170880Y-47855036D01*
X1456595Y-48140750D01*
X1147071Y-48140750D01*
X6652627Y-32436310D02*
X6366913Y-32436310D01*
X6509770Y-32936310D02*
X6509770Y-32436310D01*
X6200246Y-32936310D02*
X6200246Y-32436310D01*
X6009770Y-32436310D01*
X5962151Y-32460120D01*
X5938341Y-32483929D01*
X5914532Y-32531548D01*
X5914532Y-32602977D01*
X5938341Y-32650596D01*
X5962151Y-32674405D01*
X6009770Y-32698215D01*
X6200246Y-32698215D01*
X5438341Y-32936310D02*
X5724056Y-32936310D01*
X5581199Y-32936310D02*
X5581199Y-32436310D01*
X5628818Y-32507739D01*
X5676437Y-32555358D01*
X5724056Y-32579167D01*
X4962151Y-32936310D02*
X5247865Y-32936310D01*
X5105008Y-32936310D02*
X5105008Y-32436310D01*
X5152627Y-32507739D01*
X5200246Y-32555358D01*
X5247865Y-32579167D01*
X6611987Y-27295350D02*
X6326273Y-27295350D01*
X6469130Y-27795350D02*
X6469130Y-27295350D01*
X6159606Y-27795350D02*
X6159606Y-27295350D01*
X5969130Y-27295350D01*
X5921511Y-27319160D01*
X5897701Y-27342969D01*
X5873892Y-27390588D01*
X5873892Y-27462017D01*
X5897701Y-27509636D01*
X5921511Y-27533445D01*
X5969130Y-27557255D01*
X6159606Y-27557255D01*
X5397701Y-27795350D02*
X5683416Y-27795350D01*
X5540559Y-27795350D02*
X5540559Y-27295350D01*
X5588178Y-27366779D01*
X5635797Y-27414398D01*
X5683416Y-27438207D01*
X5088178Y-27295350D02*
X5040559Y-27295350D01*
X4992940Y-27319160D01*
X4969130Y-27342969D01*
X4945320Y-27390588D01*
X4921511Y-27485826D01*
X4921511Y-27604874D01*
X4945320Y-27700112D01*
X4969130Y-27747731D01*
X4992940Y-27771540D01*
X5040559Y-27795350D01*
X5088178Y-27795350D01*
X5135797Y-27771540D01*
X5159606Y-27747731D01*
X5183416Y-27700112D01*
X5207225Y-27604874D01*
X5207225Y-27485826D01*
X5183416Y-27390588D01*
X5159606Y-27342969D01*
X5135797Y-27319160D01*
X5088178Y-27295350D01*
X6419612Y-29942030D02*
X6133898Y-29942030D01*
X6276755Y-30442030D02*
X6276755Y-29942030D01*
X5967231Y-30442030D02*
X5967231Y-29942030D01*
X5776755Y-29942030D01*
X5729136Y-29965840D01*
X5705326Y-29989649D01*
X5681517Y-30037268D01*
X5681517Y-30108697D01*
X5705326Y-30156316D01*
X5729136Y-30180125D01*
X5776755Y-30203935D01*
X5967231Y-30203935D01*
X5443421Y-30442030D02*
X5348183Y-30442030D01*
X5300564Y-30418220D01*
X5276755Y-30394411D01*
X5229136Y-30322982D01*
X5205326Y-30227744D01*
X5205326Y-30037268D01*
X5229136Y-29989649D01*
X5252945Y-29965840D01*
X5300564Y-29942030D01*
X5395802Y-29942030D01*
X5443421Y-29965840D01*
X5467231Y-29989649D01*
X5491040Y-30037268D01*
X5491040Y-30156316D01*
X5467231Y-30203935D01*
X5443421Y-30227744D01*
X5395802Y-30251554D01*
X5300564Y-30251554D01*
X5252945Y-30227744D01*
X5229136Y-30203935D01*
X5205326Y-30156316D01*
X2558812Y-27249630D02*
X2273098Y-27249630D01*
X2415955Y-27749630D02*
X2415955Y-27249630D01*
X2106431Y-27749630D02*
X2106431Y-27249630D01*
X1915955Y-27249630D01*
X1868336Y-27273440D01*
X1844526Y-27297249D01*
X1820717Y-27344868D01*
X1820717Y-27416297D01*
X1844526Y-27463916D01*
X1868336Y-27487725D01*
X1915955Y-27511535D01*
X2106431Y-27511535D01*
X1535002Y-27463916D02*
X1582621Y-27440106D01*
X1606431Y-27416297D01*
X1630240Y-27368678D01*
X1630240Y-27344868D01*
X1606431Y-27297249D01*
X1582621Y-27273440D01*
X1535002Y-27249630D01*
X1439764Y-27249630D01*
X1392145Y-27273440D01*
X1368336Y-27297249D01*
X1344526Y-27344868D01*
X1344526Y-27368678D01*
X1368336Y-27416297D01*
X1392145Y-27440106D01*
X1439764Y-27463916D01*
X1535002Y-27463916D01*
X1582621Y-27487725D01*
X1606431Y-27511535D01*
X1630240Y-27559154D01*
X1630240Y-27654392D01*
X1606431Y-27702011D01*
X1582621Y-27725820D01*
X1535002Y-27749630D01*
X1439764Y-27749630D01*
X1392145Y-27725820D01*
X1368336Y-27702011D01*
X1344526Y-27654392D01*
X1344526Y-27559154D01*
X1368336Y-27511535D01*
X1392145Y-27487725D01*
X1439764Y-27463916D01*
X2599452Y-29881070D02*
X2313738Y-29881070D01*
X2456595Y-30381070D02*
X2456595Y-29881070D01*
X2147071Y-30381070D02*
X2147071Y-29881070D01*
X1956595Y-29881070D01*
X1908976Y-29904880D01*
X1885166Y-29928689D01*
X1861357Y-29976308D01*
X1861357Y-30047737D01*
X1885166Y-30095356D01*
X1908976Y-30119165D01*
X1956595Y-30142975D01*
X2147071Y-30142975D01*
X1694690Y-29881070D02*
X1361357Y-29881070D01*
X1575642Y-30381070D01*
X6363732Y-52817270D02*
X6078018Y-52817270D01*
X6220875Y-53317270D02*
X6220875Y-52817270D01*
X5911351Y-53317270D02*
X5911351Y-52817270D01*
X5720875Y-52817270D01*
X5673256Y-52841080D01*
X5649446Y-52864889D01*
X5625637Y-52912508D01*
X5625637Y-52983937D01*
X5649446Y-53031556D01*
X5673256Y-53055365D01*
X5720875Y-53079175D01*
X5911351Y-53079175D01*
X5197065Y-52817270D02*
X5292303Y-52817270D01*
X5339922Y-52841080D01*
X5363732Y-52864889D01*
X5411351Y-52936318D01*
X5435160Y-53031556D01*
X5435160Y-53222032D01*
X5411351Y-53269651D01*
X5387541Y-53293460D01*
X5339922Y-53317270D01*
X5244684Y-53317270D01*
X5197065Y-53293460D01*
X5173256Y-53269651D01*
X5149446Y-53222032D01*
X5149446Y-53102984D01*
X5173256Y-53055365D01*
X5197065Y-53031556D01*
X5244684Y-53007746D01*
X5339922Y-53007746D01*
X5387541Y-53031556D01*
X5411351Y-53055365D01*
X5435160Y-53102984D01*
X6394212Y-50231550D02*
X6108498Y-50231550D01*
X6251355Y-50731550D02*
X6251355Y-50231550D01*
X5941831Y-50731550D02*
X5941831Y-50231550D01*
X5751355Y-50231550D01*
X5703736Y-50255360D01*
X5679926Y-50279169D01*
X5656117Y-50326788D01*
X5656117Y-50398217D01*
X5679926Y-50445836D01*
X5703736Y-50469645D01*
X5751355Y-50493455D01*
X5941831Y-50493455D01*
X5203736Y-50231550D02*
X5441831Y-50231550D01*
X5465640Y-50469645D01*
X5441831Y-50445836D01*
X5394212Y-50422026D01*
X5275164Y-50422026D01*
X5227545Y-50445836D01*
X5203736Y-50469645D01*
X5179926Y-50517264D01*
X5179926Y-50636312D01*
X5203736Y-50683931D01*
X5227545Y-50707740D01*
X5275164Y-50731550D01*
X5394212Y-50731550D01*
X5441831Y-50707740D01*
X5465640Y-50683931D01*
X18682732Y-19807430D02*
X18397018Y-19807430D01*
X18539875Y-20307430D02*
X18539875Y-19807430D01*
X18230351Y-20307430D02*
X18230351Y-19807430D01*
X18039875Y-19807430D01*
X17992256Y-19831240D01*
X17968446Y-19855049D01*
X17944637Y-19902668D01*
X17944637Y-19974097D01*
X17968446Y-20021716D01*
X17992256Y-20045525D01*
X18039875Y-20069335D01*
X18230351Y-20069335D01*
X17516065Y-19974097D02*
X17516065Y-20307430D01*
X17635113Y-19783620D02*
X17754160Y-20140763D01*
X17444637Y-20140763D01*
X18596372Y-15408150D02*
X18310658Y-15408150D01*
X18453515Y-15908150D02*
X18453515Y-15408150D01*
X18143991Y-15908150D02*
X18143991Y-15408150D01*
X17953515Y-15408150D01*
X17905896Y-15431960D01*
X17882086Y-15455769D01*
X17858277Y-15503388D01*
X17858277Y-15574817D01*
X17882086Y-15622436D01*
X17905896Y-15646245D01*
X17953515Y-15670055D01*
X18143991Y-15670055D01*
X17691610Y-15408150D02*
X17382086Y-15408150D01*
X17548753Y-15598626D01*
X17477324Y-15598626D01*
X17429705Y-15622436D01*
X17405896Y-15646245D01*
X17382086Y-15693864D01*
X17382086Y-15812912D01*
X17405896Y-15860531D01*
X17429705Y-15884340D01*
X17477324Y-15908150D01*
X17620181Y-15908150D01*
X17667800Y-15884340D01*
X17691610Y-15860531D01*
X18570972Y-12888470D02*
X18285258Y-12888470D01*
X18428115Y-13388470D02*
X18428115Y-12888470D01*
X18118591Y-13388470D02*
X18118591Y-12888470D01*
X17928115Y-12888470D01*
X17880496Y-12912280D01*
X17856686Y-12936089D01*
X17832877Y-12983708D01*
X17832877Y-13055137D01*
X17856686Y-13102756D01*
X17880496Y-13126565D01*
X17928115Y-13150375D01*
X18118591Y-13150375D01*
X17642400Y-12936089D02*
X17618591Y-12912280D01*
X17570972Y-12888470D01*
X17451924Y-12888470D01*
X17404305Y-12912280D01*
X17380496Y-12936089D01*
X17356686Y-12983708D01*
X17356686Y-13031327D01*
X17380496Y-13102756D01*
X17666210Y-13388470D01*
X17356686Y-13388470D01*
X2650252Y-32482030D02*
X2364538Y-32482030D01*
X2507395Y-32982030D02*
X2507395Y-32482030D01*
X2197871Y-32982030D02*
X2197871Y-32482030D01*
X2007395Y-32482030D01*
X1959776Y-32505840D01*
X1935966Y-32529649D01*
X1912157Y-32577268D01*
X1912157Y-32648697D01*
X1935966Y-32696316D01*
X1959776Y-32720125D01*
X2007395Y-32743935D01*
X2197871Y-32743935D01*
X1435966Y-32982030D02*
X1721680Y-32982030D01*
X1578823Y-32982030D02*
X1578823Y-32482030D01*
X1626442Y-32553459D01*
X1674061Y-32601078D01*
X1721680Y-32624887D01*
X6394212Y-47610270D02*
X6108498Y-47610270D01*
X6251355Y-48110270D02*
X6251355Y-47610270D01*
X5941831Y-48110270D02*
X5941831Y-47610270D01*
X5751355Y-47610270D01*
X5703736Y-47634080D01*
X5679926Y-47657889D01*
X5656117Y-47705508D01*
X5656117Y-47776937D01*
X5679926Y-47824556D01*
X5703736Y-47848365D01*
X5751355Y-47872175D01*
X5941831Y-47872175D01*
X5346593Y-47610270D02*
X5298974Y-47610270D01*
X5251355Y-47634080D01*
X5227545Y-47657889D01*
X5203736Y-47705508D01*
X5179926Y-47800746D01*
X5179926Y-47919794D01*
X5203736Y-48015032D01*
X5227545Y-48062651D01*
X5251355Y-48086460D01*
X5298974Y-48110270D01*
X5346593Y-48110270D01*
X5394212Y-48086460D01*
X5418021Y-48062651D01*
X5441831Y-48015032D01*
X5465640Y-47919794D01*
X5465640Y-47800746D01*
X5441831Y-47705508D01*
X5418021Y-47657889D01*
X5394212Y-47634080D01*
X5346593Y-47610270D01*
X24423488Y-80401931D02*
X24447298Y-80425740D01*
X24518726Y-80449550D01*
X24566345Y-80449550D01*
X24637774Y-80425740D01*
X24685393Y-80378121D01*
X24709202Y-80330502D01*
X24733012Y-80235264D01*
X24733012Y-80163836D01*
X24709202Y-80068598D01*
X24685393Y-80020979D01*
X24637774Y-79973360D01*
X24566345Y-79949550D01*
X24518726Y-79949550D01*
X24447298Y-79973360D01*
X24423488Y-79997169D01*
X23971107Y-79949550D02*
X24209202Y-79949550D01*
X24233012Y-80187645D01*
X24209202Y-80163836D01*
X24161583Y-80140026D01*
X24042536Y-80140026D01*
X23994917Y-80163836D01*
X23971107Y-80187645D01*
X23947298Y-80235264D01*
X23947298Y-80354312D01*
X23971107Y-80401931D01*
X23994917Y-80425740D01*
X24042536Y-80449550D01*
X24161583Y-80449550D01*
X24209202Y-80425740D01*
X24233012Y-80401931D01*
X23661583Y-80163836D02*
X23709202Y-80140026D01*
X23733012Y-80116217D01*
X23756821Y-80068598D01*
X23756821Y-80044788D01*
X23733012Y-79997169D01*
X23709202Y-79973360D01*
X23661583Y-79949550D01*
X23566345Y-79949550D01*
X23518726Y-79973360D01*
X23494917Y-79997169D01*
X23471107Y-80044788D01*
X23471107Y-80068598D01*
X23494917Y-80116217D01*
X23518726Y-80140026D01*
X23566345Y-80163836D01*
X23661583Y-80163836D01*
X23709202Y-80187645D01*
X23733012Y-80211455D01*
X23756821Y-80259074D01*
X23756821Y-80354312D01*
X23733012Y-80401931D01*
X23709202Y-80425740D01*
X23661583Y-80449550D01*
X23566345Y-80449550D01*
X23518726Y-80425740D01*
X23494917Y-80401931D01*
X23471107Y-80354312D01*
X23471107Y-80259074D01*
X23494917Y-80211455D01*
X23518726Y-80187645D01*
X23566345Y-80163836D01*
X23839288Y-9891531D02*
X23863098Y-9915340D01*
X23934526Y-9939150D01*
X23982145Y-9939150D01*
X24053574Y-9915340D01*
X24101193Y-9867721D01*
X24125002Y-9820102D01*
X24148812Y-9724864D01*
X24148812Y-9653436D01*
X24125002Y-9558198D01*
X24101193Y-9510579D01*
X24053574Y-9462960D01*
X23982145Y-9439150D01*
X23934526Y-9439150D01*
X23863098Y-9462960D01*
X23839288Y-9486769D01*
X23386907Y-9439150D02*
X23625002Y-9439150D01*
X23648812Y-9677245D01*
X23625002Y-9653436D01*
X23577383Y-9629626D01*
X23458336Y-9629626D01*
X23410717Y-9653436D01*
X23386907Y-9677245D01*
X23363098Y-9724864D01*
X23363098Y-9843912D01*
X23386907Y-9891531D01*
X23410717Y-9915340D01*
X23458336Y-9939150D01*
X23577383Y-9939150D01*
X23625002Y-9915340D01*
X23648812Y-9891531D01*
X23196431Y-9439150D02*
X22863098Y-9439150D01*
X23077383Y-9939150D01*
X24387928Y-81585571D02*
X24411738Y-81609380D01*
X24483166Y-81633190D01*
X24530785Y-81633190D01*
X24602214Y-81609380D01*
X24649833Y-81561761D01*
X24673642Y-81514142D01*
X24697452Y-81418904D01*
X24697452Y-81347476D01*
X24673642Y-81252238D01*
X24649833Y-81204619D01*
X24602214Y-81157000D01*
X24530785Y-81133190D01*
X24483166Y-81133190D01*
X24411738Y-81157000D01*
X24387928Y-81180809D01*
X23935547Y-81133190D02*
X24173642Y-81133190D01*
X24197452Y-81371285D01*
X24173642Y-81347476D01*
X24126023Y-81323666D01*
X24006976Y-81323666D01*
X23959357Y-81347476D01*
X23935547Y-81371285D01*
X23911738Y-81418904D01*
X23911738Y-81537952D01*
X23935547Y-81585571D01*
X23959357Y-81609380D01*
X24006976Y-81633190D01*
X24126023Y-81633190D01*
X24173642Y-81609380D01*
X24197452Y-81585571D01*
X23483166Y-81133190D02*
X23578404Y-81133190D01*
X23626023Y-81157000D01*
X23649833Y-81180809D01*
X23697452Y-81252238D01*
X23721261Y-81347476D01*
X23721261Y-81537952D01*
X23697452Y-81585571D01*
X23673642Y-81609380D01*
X23626023Y-81633190D01*
X23530785Y-81633190D01*
X23483166Y-81609380D01*
X23459357Y-81585571D01*
X23435547Y-81537952D01*
X23435547Y-81418904D01*
X23459357Y-81371285D01*
X23483166Y-81347476D01*
X23530785Y-81323666D01*
X23626023Y-81323666D01*
X23673642Y-81347476D01*
X23697452Y-81371285D01*
X23721261Y-81418904D01*
X25581728Y-11898131D02*
X25605538Y-11921940D01*
X25676966Y-11945750D01*
X25724585Y-11945750D01*
X25796014Y-11921940D01*
X25843633Y-11874321D01*
X25867442Y-11826702D01*
X25891252Y-11731464D01*
X25891252Y-11660036D01*
X25867442Y-11564798D01*
X25843633Y-11517179D01*
X25796014Y-11469560D01*
X25724585Y-11445750D01*
X25676966Y-11445750D01*
X25605538Y-11469560D01*
X25581728Y-11493369D01*
X25129347Y-11445750D02*
X25367442Y-11445750D01*
X25391252Y-11683845D01*
X25367442Y-11660036D01*
X25319823Y-11636226D01*
X25200776Y-11636226D01*
X25153157Y-11660036D01*
X25129347Y-11683845D01*
X25105538Y-11731464D01*
X25105538Y-11850512D01*
X25129347Y-11898131D01*
X25153157Y-11921940D01*
X25200776Y-11945750D01*
X25319823Y-11945750D01*
X25367442Y-11921940D01*
X25391252Y-11898131D01*
X24653157Y-11445750D02*
X24891252Y-11445750D01*
X24915061Y-11683845D01*
X24891252Y-11660036D01*
X24843633Y-11636226D01*
X24724585Y-11636226D01*
X24676966Y-11660036D01*
X24653157Y-11683845D01*
X24629347Y-11731464D01*
X24629347Y-11850512D01*
X24653157Y-11898131D01*
X24676966Y-11921940D01*
X24724585Y-11945750D01*
X24843633Y-11945750D01*
X24891252Y-11921940D01*
X24915061Y-11898131D01*
X24443808Y-79474190D02*
X24610475Y-79236095D01*
X24729522Y-79474190D02*
X24729522Y-78974190D01*
X24539046Y-78974190D01*
X24491427Y-78998000D01*
X24467618Y-79021809D01*
X24443808Y-79069428D01*
X24443808Y-79140857D01*
X24467618Y-79188476D01*
X24491427Y-79212285D01*
X24539046Y-79236095D01*
X24729522Y-79236095D01*
X24015237Y-79140857D02*
X24015237Y-79474190D01*
X24134284Y-78950380D02*
X24253332Y-79307523D01*
X23943808Y-79307523D01*
X23539046Y-78974190D02*
X23634284Y-78974190D01*
X23681903Y-78998000D01*
X23705713Y-79021809D01*
X23753332Y-79093238D01*
X23777141Y-79188476D01*
X23777141Y-79378952D01*
X23753332Y-79426571D01*
X23729522Y-79450380D01*
X23681903Y-79474190D01*
X23586665Y-79474190D01*
X23539046Y-79450380D01*
X23515237Y-79426571D01*
X23491427Y-79378952D01*
X23491427Y-79259904D01*
X23515237Y-79212285D01*
X23539046Y-79188476D01*
X23586665Y-79164666D01*
X23681903Y-79164666D01*
X23729522Y-79188476D01*
X23753332Y-79212285D01*
X23777141Y-79259904D01*
X21844130Y-81131291D02*
X21606035Y-80964624D01*
X21844130Y-80845577D02*
X21344130Y-80845577D01*
X21344130Y-81036053D01*
X21367940Y-81083672D01*
X21391749Y-81107481D01*
X21439368Y-81131291D01*
X21510797Y-81131291D01*
X21558416Y-81107481D01*
X21582225Y-81083672D01*
X21606035Y-81036053D01*
X21606035Y-80845577D01*
X21510797Y-81559862D02*
X21844130Y-81559862D01*
X21320320Y-81440815D02*
X21677463Y-81321767D01*
X21677463Y-81631291D01*
X21344130Y-82059862D02*
X21344130Y-81821767D01*
X21582225Y-81797958D01*
X21558416Y-81821767D01*
X21534606Y-81869386D01*
X21534606Y-81988434D01*
X21558416Y-82036053D01*
X21582225Y-82059862D01*
X21629844Y-82083672D01*
X21748892Y-82083672D01*
X21796511Y-82059862D01*
X21820320Y-82036053D01*
X21844130Y-81988434D01*
X21844130Y-81869386D01*
X21820320Y-81821767D01*
X21796511Y-81797958D01*
X19231728Y-8354190D02*
X19398395Y-8116095D01*
X19517442Y-8354190D02*
X19517442Y-7854190D01*
X19326966Y-7854190D01*
X19279347Y-7878000D01*
X19255538Y-7901809D01*
X19231728Y-7949428D01*
X19231728Y-8020857D01*
X19255538Y-8068476D01*
X19279347Y-8092285D01*
X19326966Y-8116095D01*
X19517442Y-8116095D01*
X18803157Y-8020857D02*
X18803157Y-8354190D01*
X18922204Y-7830380D02*
X19041252Y-8187523D01*
X18731728Y-8187523D01*
X18326966Y-8020857D02*
X18326966Y-8354190D01*
X18446014Y-7830380D02*
X18565061Y-8187523D01*
X18255538Y-8187523D01*
X19252048Y-9390510D02*
X19418715Y-9152415D01*
X19537762Y-9390510D02*
X19537762Y-8890510D01*
X19347286Y-8890510D01*
X19299667Y-8914320D01*
X19275858Y-8938129D01*
X19252048Y-8985748D01*
X19252048Y-9057177D01*
X19275858Y-9104796D01*
X19299667Y-9128605D01*
X19347286Y-9152415D01*
X19537762Y-9152415D01*
X18823477Y-9057177D02*
X18823477Y-9390510D01*
X18942524Y-8866700D02*
X19061572Y-9223843D01*
X18752048Y-9223843D01*
X18609191Y-8890510D02*
X18299667Y-8890510D01*
X18466334Y-9080986D01*
X18394905Y-9080986D01*
X18347286Y-9104796D01*
X18323477Y-9128605D01*
X18299667Y-9176224D01*
X18299667Y-9295272D01*
X18323477Y-9342891D01*
X18347286Y-9366700D01*
X18394905Y-9390510D01*
X18537762Y-9390510D01*
X18585381Y-9366700D01*
X18609191Y-9342891D01*
D15*
X1189621Y-54508495D02*
X1237240Y-54651352D01*
X1237240Y-54889447D01*
X1189621Y-54984685D01*
X1142002Y-55032304D01*
X1046764Y-55079923D01*
X951526Y-55079923D01*
X856288Y-55032304D01*
X808669Y-54984685D01*
X761050Y-54889447D01*
X713431Y-54698971D01*
X665812Y-54603733D01*
X618193Y-54556114D01*
X522955Y-54508495D01*
X427717Y-54508495D01*
X332479Y-54556114D01*
X284860Y-54603733D01*
X237240Y-54698971D01*
X237240Y-54937066D01*
X284860Y-55079923D01*
X237240Y-55413257D02*
X237240Y-56032304D01*
X618193Y-55698971D01*
X618193Y-55841828D01*
X665812Y-55937066D01*
X713431Y-55984685D01*
X808669Y-56032304D01*
X1046764Y-56032304D01*
X1142002Y-55984685D01*
X1189621Y-55937066D01*
X1237240Y-55841828D01*
X1237240Y-55556114D01*
X1189621Y-55460876D01*
X1142002Y-55413257D01*
X222000Y-56896689D02*
X1222000Y-57230022D01*
X222000Y-57563356D01*
X1222000Y-58039546D02*
X1174381Y-57944308D01*
X1126762Y-57896689D01*
X1031524Y-57849070D01*
X745810Y-57849070D01*
X650572Y-57896689D01*
X602953Y-57944308D01*
X555334Y-58039546D01*
X555334Y-58182403D01*
X602953Y-58277641D01*
X650572Y-58325260D01*
X745810Y-58372880D01*
X1031524Y-58372880D01*
X1126762Y-58325260D01*
X1174381Y-58277641D01*
X1222000Y-58182403D01*
X1222000Y-58039546D01*
X1222000Y-58944308D02*
X1174381Y-58849070D01*
X1079143Y-58801451D01*
X222000Y-58801451D01*
X1222000Y-59325260D02*
X222000Y-59325260D01*
X222000Y-59563356D01*
X269620Y-59706213D01*
X364858Y-59801451D01*
X460096Y-59849070D01*
X650572Y-59896689D01*
X793429Y-59896689D01*
X983905Y-59849070D01*
X1079143Y-59801451D01*
X1174381Y-59706213D01*
X1222000Y-59563356D01*
X1222000Y-59325260D01*
X1222000Y-60468118D02*
X1174381Y-60372880D01*
X1126762Y-60325260D01*
X1031524Y-60277641D01*
X745810Y-60277641D01*
X650572Y-60325260D01*
X602953Y-60372880D01*
X555334Y-60468118D01*
X555334Y-60610975D01*
X602953Y-60706213D01*
X650572Y-60753832D01*
X745810Y-60801451D01*
X1031524Y-60801451D01*
X1126762Y-60753832D01*
X1174381Y-60706213D01*
X1222000Y-60610975D01*
X1222000Y-60468118D01*
X555334Y-61134784D02*
X1222000Y-61325260D01*
X745810Y-61515737D01*
X1222000Y-61706213D01*
X555334Y-61896689D01*
X555334Y-62277641D02*
X1222000Y-62277641D01*
X650572Y-62277641D02*
X602953Y-62325260D01*
X555334Y-62420499D01*
X555334Y-62563356D01*
X602953Y-62658594D01*
X698191Y-62706213D01*
X1222000Y-62706213D01*
X1215021Y-34625375D02*
X1262640Y-34768232D01*
X1262640Y-35006327D01*
X1215021Y-35101565D01*
X1167402Y-35149184D01*
X1072164Y-35196803D01*
X976926Y-35196803D01*
X881688Y-35149184D01*
X834069Y-35101565D01*
X786450Y-35006327D01*
X738831Y-34815851D01*
X691212Y-34720613D01*
X643593Y-34672994D01*
X548355Y-34625375D01*
X453117Y-34625375D01*
X357879Y-34672994D01*
X310260Y-34720613D01*
X262640Y-34815851D01*
X262640Y-35053946D01*
X310260Y-35196803D01*
X357879Y-35577756D02*
X310260Y-35625375D01*
X262640Y-35720613D01*
X262640Y-35958708D01*
X310259Y-36053946D01*
X357879Y-36101565D01*
X453117Y-36149184D01*
X548355Y-36149184D01*
X691212Y-36101565D01*
X1262640Y-35530137D01*
X1262640Y-36149184D01*
X282960Y-38214870D02*
X1282960Y-38548203D01*
X282960Y-38881537D01*
X1282960Y-39357727D02*
X1235341Y-39262489D01*
X1187722Y-39214870D01*
X1092484Y-39167251D01*
X806770Y-39167251D01*
X711532Y-39214870D01*
X663913Y-39262489D01*
X616294Y-39357727D01*
X616294Y-39500584D01*
X663913Y-39595822D01*
X711532Y-39643441D01*
X806770Y-39691060D01*
X1092484Y-39691060D01*
X1187722Y-39643441D01*
X1235341Y-39595822D01*
X1282960Y-39500584D01*
X1282960Y-39357727D01*
X1282960Y-40262489D02*
X1235341Y-40167251D01*
X1140103Y-40119632D01*
X282960Y-40119632D01*
X282960Y-40643441D02*
X1092484Y-40643441D01*
X1187722Y-40691060D01*
X1235341Y-40738680D01*
X1282960Y-40833918D01*
X1282960Y-41024394D01*
X1235341Y-41119632D01*
X1187722Y-41167251D01*
X1092484Y-41214870D01*
X282960Y-41214870D01*
X616294Y-41691060D02*
X1616294Y-41691060D01*
X663913Y-41691060D02*
X616294Y-41786299D01*
X616294Y-41976775D01*
X663913Y-42072013D01*
X711532Y-42119632D01*
X806770Y-42167251D01*
X1092484Y-42167251D01*
X1187722Y-42119632D01*
X1235341Y-42072013D01*
X1282960Y-41976775D01*
X1282960Y-41786299D01*
X1235341Y-41691060D01*
X1199781Y-14452695D02*
X1247400Y-14595552D01*
X1247400Y-14833647D01*
X1199781Y-14928885D01*
X1152162Y-14976504D01*
X1056924Y-15024123D01*
X961686Y-15024123D01*
X866448Y-14976504D01*
X818829Y-14928885D01*
X771210Y-14833647D01*
X723591Y-14643171D01*
X675972Y-14547933D01*
X628353Y-14500314D01*
X533115Y-14452695D01*
X437877Y-14452695D01*
X342639Y-14500314D01*
X295020Y-14547933D01*
X247400Y-14643171D01*
X247400Y-14881266D01*
X295020Y-15024123D01*
X1247400Y-15976504D02*
X1247400Y-15405076D01*
X1247400Y-15690790D02*
X247400Y-15690790D01*
X390258Y-15595552D01*
X485496Y-15500314D01*
X533115Y-15405076D01*
X855006Y-17986001D02*
X855006Y-18462192D01*
X1140720Y-17890763D02*
X140720Y-18224097D01*
X1140720Y-18557430D01*
X1093101Y-19319335D02*
X1140720Y-19224097D01*
X1140720Y-19033620D01*
X1093101Y-18938382D01*
X1045482Y-18890763D01*
X950244Y-18843144D01*
X664530Y-18843144D01*
X569292Y-18890763D01*
X521673Y-18938382D01*
X474054Y-19033620D01*
X474054Y-19224097D01*
X521673Y-19319335D01*
X474054Y-19605049D02*
X474054Y-19986001D01*
X140720Y-19747906D02*
X997863Y-19747906D01*
X1093101Y-19795525D01*
X1140720Y-19890763D01*
X1140720Y-19986001D01*
X1140720Y-20319335D02*
X474054Y-20319335D01*
X140720Y-20319335D02*
X188340Y-20271716D01*
X235959Y-20319335D01*
X188340Y-20366954D01*
X140720Y-20319335D01*
X235959Y-20319335D01*
X1140720Y-20938382D02*
X1093101Y-20843144D01*
X1045482Y-20795525D01*
X950244Y-20747906D01*
X664530Y-20747906D01*
X569292Y-20795525D01*
X521673Y-20843144D01*
X474054Y-20938382D01*
X474054Y-21081240D01*
X521673Y-21176478D01*
X569292Y-21224097D01*
X664530Y-21271716D01*
X950244Y-21271716D01*
X1045482Y-21224097D01*
X1093101Y-21176478D01*
X1140720Y-21081240D01*
X1140720Y-20938382D01*
X474054Y-21700287D02*
X1140720Y-21700287D01*
X569292Y-21700287D02*
X521673Y-21747906D01*
X474054Y-21843144D01*
X474054Y-21986001D01*
X521673Y-22081240D01*
X616911Y-22128859D01*
X1140720Y-22128859D01*
M02*
