%FSLAX45Y45*%
G04 Gerber Fmt 4.5, Leading zero omitted, Abs format (unit mm)*
G04 Created by KiCad (PCBNEW (5.1.6)-1) date 2020-10-08 11:29:39*
%MOMM*%
%LPD*%
G01*
G04 APERTURE LIST*
%TA.AperFunction,Profile*%
%ADD10C,0.100000*%
%TD*%
%ADD11C,0.200000*%
%ADD12C,0.300000*%
G04 APERTURE END LIST*
D10*
X6900000Y0D02*
G75*
G02*
X7200000Y-300000I0J-300000D01*
G01*
X300000Y-9300000D02*
G75*
G02*
X0Y-9000000I0J300000D01*
G01*
X300000Y-9300000D02*
X6900000Y-9300000D01*
X7200000Y-9000000D02*
X7200000Y-300000D01*
X6900000Y0D02*
X300000Y0D01*
X0Y-300000D02*
G75*
G02*
X300000Y0I300000J0D01*
G01*
X0Y-300000D02*
X0Y-9000000D01*
X7200000Y-9000000D02*
G75*
G02*
X6900000Y-9300000I-300000J0D01*
G01*
D11*
X1705138Y-6996212D02*
X1735138Y-7026212D01*
X1735138Y-6996212D02*
X1705138Y-7026212D01*
X1705138Y-7096212D02*
X1735138Y-7126212D01*
X1735138Y-7096212D02*
X1705138Y-7126212D01*
X1705138Y-7196212D02*
X1735138Y-7226212D01*
X1735138Y-7196212D02*
X1705138Y-7226212D01*
X1705138Y-7296212D02*
X1735138Y-7326212D01*
X1735138Y-7296212D02*
X1705138Y-7326212D01*
X1705138Y-7396212D02*
X1735138Y-7426212D01*
X1735138Y-7396212D02*
X1705138Y-7426212D01*
X1805138Y-6996212D02*
X1835138Y-7026212D01*
X1835138Y-6996212D02*
X1805138Y-7026212D01*
X1805138Y-7096212D02*
X1835138Y-7126212D01*
X1835138Y-7096212D02*
X1805138Y-7126212D01*
X1805138Y-7196212D02*
X1835138Y-7226212D01*
X1835138Y-7196212D02*
X1805138Y-7226212D01*
X1805138Y-7296212D02*
X1835138Y-7326212D01*
X1835138Y-7296212D02*
X1805138Y-7326212D01*
X1805138Y-7396212D02*
X1835138Y-7426212D01*
X1835138Y-7396212D02*
X1805138Y-7426212D01*
X1905138Y-6996212D02*
X1935138Y-7026212D01*
X1935138Y-6996212D02*
X1905138Y-7026212D01*
X1905138Y-7096212D02*
X1935138Y-7126212D01*
X1935138Y-7096212D02*
X1905138Y-7126212D01*
X1905138Y-7196212D02*
X1935138Y-7226212D01*
X1935138Y-7196212D02*
X1905138Y-7226212D01*
X1905138Y-7296212D02*
X1935138Y-7326212D01*
X1935138Y-7296212D02*
X1905138Y-7326212D01*
X1905138Y-7396212D02*
X1935138Y-7426212D01*
X1935138Y-7396212D02*
X1905138Y-7426212D01*
X2005138Y-6996212D02*
X2035138Y-7026212D01*
X2035138Y-6996212D02*
X2005138Y-7026212D01*
X2005138Y-7096212D02*
X2035138Y-7126212D01*
X2035138Y-7096212D02*
X2005138Y-7126212D01*
X2005138Y-7196212D02*
X2035138Y-7226212D01*
X2035138Y-7196212D02*
X2005138Y-7226212D01*
X2005138Y-7296212D02*
X2035138Y-7326212D01*
X2035138Y-7296212D02*
X2005138Y-7326212D01*
X2005138Y-7396212D02*
X2035138Y-7426212D01*
X2035138Y-7396212D02*
X2005138Y-7426212D01*
X2105138Y-6996212D02*
X2135138Y-7026212D01*
X2135138Y-6996212D02*
X2105138Y-7026212D01*
X2105138Y-7096212D02*
X2135138Y-7126212D01*
X2135138Y-7096212D02*
X2105138Y-7126212D01*
X2105138Y-7196212D02*
X2135138Y-7226212D01*
X2135138Y-7196212D02*
X2105138Y-7226212D01*
X2105138Y-7296212D02*
X2135138Y-7326212D01*
X2135138Y-7296212D02*
X2105138Y-7326212D01*
X94848Y-3058115D02*
G75*
G03*
X94848Y-3058115I-20000J0D01*
G01*
X100000Y-6360000D02*
G75*
G03*
X100000Y-6360000I-20000J0D01*
G01*
X102500Y-5272500D02*
G75*
G03*
X102500Y-5272500I-20000J0D01*
G01*
X110000Y-5495000D02*
G75*
G03*
X110000Y-5495000I-20000J0D01*
G01*
X185000Y-2690000D02*
G75*
G03*
X185000Y-2690000I-20000J0D01*
G01*
X200000Y-5177500D02*
G75*
G03*
X200000Y-5177500I-20000J0D01*
G01*
X207500Y-2992500D02*
G75*
G03*
X207500Y-2992500I-20000J0D01*
G01*
X265001Y-5086695D02*
G75*
G03*
X265001Y-5086695I-20000J0D01*
G01*
X275778Y-3937508D02*
G75*
G03*
X275778Y-3937508I-20000J0D01*
G01*
X277302Y-1887220D02*
G75*
G03*
X277302Y-1887220I-20000J0D01*
G01*
X279334Y-5888736D02*
G75*
G03*
X279334Y-5888736I-20000J0D01*
G01*
X307499Y-5330000D02*
G75*
G03*
X307499Y-5330000I-20000J0D01*
G01*
X360075Y-5172512D02*
G75*
G03*
X360075Y-5172512I-20000J0D01*
G01*
X401790Y-7434535D02*
G75*
G03*
X401790Y-7434535I-20000J0D01*
G01*
X422500Y-3665000D02*
G75*
G03*
X422500Y-3665000I-20000J0D01*
G01*
X470000Y-7790000D02*
G75*
G03*
X470000Y-7790000I-20000J0D01*
G01*
X473888Y-6470000D02*
G75*
G03*
X473888Y-6470000I-20000J0D01*
G01*
X480000Y-4325000D02*
G75*
G03*
X480000Y-4325000I-20000J0D01*
G01*
X480000Y-5165000D02*
G75*
G03*
X480000Y-5165000I-20000J0D01*
G01*
X480000Y-7390000D02*
G75*
G03*
X480000Y-7390000I-20000J0D01*
G01*
X500000Y-7300000D02*
G75*
G03*
X500000Y-7300000I-20000J0D01*
G01*
X637500Y-2595000D02*
G75*
G03*
X637500Y-2595000I-20000J0D01*
G01*
X640114Y-2748249D02*
G75*
G03*
X640114Y-2748249I-20000J0D01*
G01*
X659826Y-1858772D02*
G75*
G03*
X659826Y-1858772I-20000J0D01*
G01*
X670000Y-6360000D02*
G75*
G03*
X670000Y-6360000I-20000J0D01*
G01*
X722500Y-4400000D02*
G75*
G03*
X722500Y-4400000I-20000J0D01*
G01*
X722500Y-4920000D02*
G75*
G03*
X722500Y-4920000I-20000J0D01*
G01*
X740001Y-7059999D02*
G75*
G03*
X740001Y-7059999I-20000J0D01*
G01*
X745000Y-7385000D02*
G75*
G03*
X745000Y-7385000I-20000J0D01*
G01*
X745000Y-8020000D02*
G75*
G03*
X745000Y-8020000I-20000J0D01*
G01*
X749234Y-2467864D02*
G75*
G03*
X749234Y-2467864I-20000J0D01*
G01*
X798242Y-6989945D02*
G75*
G03*
X798242Y-6989945I-20000J0D01*
G01*
X825000Y-7575000D02*
G75*
G03*
X825000Y-7575000I-20000J0D01*
G01*
X835000Y-8430000D02*
G75*
G03*
X835000Y-8430000I-20000J0D01*
G01*
X852501Y-6196584D02*
G75*
G03*
X852501Y-6196584I-20000J0D01*
G01*
X890292Y-8532684D02*
G75*
G03*
X890292Y-8532684I-20000J0D01*
G01*
X910000Y-8950000D02*
G75*
G03*
X910000Y-8950000I-20000J0D01*
G01*
X960000Y-8650000D02*
G75*
G03*
X960000Y-8650000I-20000J0D01*
G01*
X970000Y-6990000D02*
G75*
G03*
X970000Y-6990000I-20000J0D01*
G01*
X982626Y-7487482D02*
G75*
G03*
X982626Y-7487482I-20000J0D01*
G01*
X1016872Y-7367728D02*
G75*
G03*
X1016872Y-7367728I-20000J0D01*
G01*
X1045000Y-6760000D02*
G75*
G03*
X1045000Y-6760000I-20000J0D01*
G01*
X1095000Y-7250000D02*
G75*
G03*
X1095000Y-7250000I-20000J0D01*
G01*
X1117500Y-8212500D02*
G75*
G03*
X1117500Y-8212500I-20000J0D01*
G01*
X1157203Y-6161022D02*
G75*
G03*
X1157203Y-6161022I-20000J0D01*
G01*
X1218956Y-6876043D02*
G75*
G03*
X1218956Y-6876043I-20000J0D01*
G01*
X1230003Y-7442087D02*
G75*
G03*
X1230003Y-7442087I-20000J0D01*
G01*
X1300000Y-8370000D02*
G75*
G03*
X1300000Y-8370000I-20000J0D01*
G01*
X1343957Y-6886112D02*
G75*
G03*
X1343957Y-6886112I-20000J0D01*
G01*
X1359999Y-2503932D02*
G75*
G03*
X1359999Y-2503932I-20000J0D01*
G01*
X1373067Y-5638278D02*
G75*
G03*
X1373067Y-5638278I-20000J0D01*
G01*
X1380583Y-7396724D02*
G75*
G03*
X1380583Y-7396724I-20000J0D01*
G01*
X1410000Y-2375000D02*
G75*
G03*
X1410000Y-2375000I-20000J0D01*
G01*
X1430000Y-3390000D02*
G75*
G03*
X1430000Y-3390000I-20000J0D01*
G01*
X1432500Y-7960000D02*
G75*
G03*
X1432500Y-7960000I-20000J0D01*
G01*
X1455000Y-2040000D02*
G75*
G03*
X1455000Y-2040000I-20000J0D01*
G01*
X1455000Y-5730000D02*
G75*
G03*
X1455000Y-5730000I-20000J0D01*
G01*
X1482499Y-3525000D02*
G75*
G03*
X1482499Y-3525000I-20000J0D01*
G01*
X1500000Y-2780000D02*
G75*
G03*
X1500000Y-2780000I-20000J0D01*
G01*
X1535000Y-6460000D02*
G75*
G03*
X1535000Y-6460000I-20000J0D01*
G01*
X1540000Y-5865000D02*
G75*
G03*
X1540000Y-5865000I-20000J0D01*
G01*
X1547500Y-4255000D02*
G75*
G03*
X1547500Y-4255000I-20000J0D01*
G01*
X1572500Y-8377500D02*
G75*
G03*
X1572500Y-8377500I-20000J0D01*
G01*
X1590000Y-1792764D02*
G75*
G03*
X1590000Y-1792764I-20000J0D01*
G01*
X1592146Y-1667764D02*
G75*
G03*
X1592146Y-1667764I-20000J0D01*
G01*
X1620000Y-4975000D02*
G75*
G03*
X1620000Y-4975000I-20000J0D01*
G01*
X1623117Y-2990322D02*
G75*
G03*
X1623117Y-2990322I-20000J0D01*
G01*
X1625000Y-1915000D02*
G75*
G03*
X1625000Y-1915000I-20000J0D01*
G01*
X1630000Y-2415000D02*
G75*
G03*
X1630000Y-2415000I-20000J0D01*
G01*
X1644838Y-1312672D02*
G75*
G03*
X1644838Y-1312672I-20000J0D01*
G01*
X1644838Y-1471422D02*
G75*
G03*
X1644838Y-1471422I-20000J0D01*
G01*
X1717500Y-7782364D02*
G75*
G03*
X1717500Y-7782364I-20000J0D01*
G01*
X1728084Y-2417623D02*
G75*
G03*
X1728084Y-2417623I-20000J0D01*
G01*
X1730000Y-8440000D02*
G75*
G03*
X1730000Y-8440000I-20000J0D01*
G01*
X1735000Y-9030000D02*
G75*
G03*
X1735000Y-9030000I-20000J0D01*
G01*
X1742146Y-1667764D02*
G75*
G03*
X1742146Y-1667764I-20000J0D01*
G01*
X1742146Y-1792764D02*
G75*
G03*
X1742146Y-1792764I-20000J0D01*
G01*
X1743624Y-5512501D02*
G75*
G03*
X1743624Y-5512501I-20000J0D01*
G01*
X1770000Y-8620000D02*
G75*
G03*
X1770000Y-8620000I-20000J0D01*
G01*
X1780000Y-7935000D02*
G75*
G03*
X1780000Y-7935000I-20000J0D01*
G01*
X1794903Y-5628132D02*
G75*
G03*
X1794903Y-5628132I-20000J0D01*
G01*
X1800000Y-465000D02*
G75*
G03*
X1800000Y-465000I-20000J0D01*
G01*
X1800000Y-565000D02*
G75*
G03*
X1800000Y-565000I-20000J0D01*
G01*
X1800000Y-665000D02*
G75*
G03*
X1800000Y-665000I-20000J0D01*
G01*
X1805000Y-2150000D02*
G75*
G03*
X1805000Y-2150000I-20000J0D01*
G01*
X1845000Y-8010000D02*
G75*
G03*
X1845000Y-8010000I-20000J0D01*
G01*
X1846830Y-6591587D02*
G75*
G03*
X1846830Y-6591587I-20000J0D01*
G01*
X1847374Y-8174010D02*
G75*
G03*
X1847374Y-8174010I-20000J0D01*
G01*
X1852500Y-7790702D02*
G75*
G03*
X1852500Y-7790702I-20000J0D01*
G01*
X1857722Y-6097188D02*
G75*
G03*
X1857722Y-6097188I-20000J0D01*
G01*
X1865000Y-2680000D02*
G75*
G03*
X1865000Y-2680000I-20000J0D01*
G01*
X1880000Y-3240000D02*
G75*
G03*
X1880000Y-3240000I-20000J0D01*
G01*
X1885000Y-4710000D02*
G75*
G03*
X1885000Y-4710000I-20000J0D01*
G01*
X1895000Y-8670000D02*
G75*
G03*
X1895000Y-8670000I-20000J0D01*
G01*
X1900000Y-465000D02*
G75*
G03*
X1900000Y-465000I-20000J0D01*
G01*
X1900000Y-565000D02*
G75*
G03*
X1900000Y-565000I-20000J0D01*
G01*
X1900000Y-665000D02*
G75*
G03*
X1900000Y-665000I-20000J0D01*
G01*
X1901067Y-6333027D02*
G75*
G03*
X1901067Y-6333027I-20000J0D01*
G01*
X1904426Y-2382774D02*
G75*
G03*
X1904426Y-2382774I-20000J0D01*
G01*
X1907416Y-5637502D02*
G75*
G03*
X1907416Y-5637502I-20000J0D01*
G01*
X1920000Y-2920000D02*
G75*
G03*
X1920000Y-2920000I-20000J0D01*
G01*
X1927504Y-5512501D02*
G75*
G03*
X1927504Y-5512501I-20000J0D01*
G01*
X1961829Y-6548351D02*
G75*
G03*
X1961829Y-6548351I-20000J0D01*
G01*
X1971667Y-8470918D02*
G75*
G03*
X1971667Y-8470918I-20000J0D01*
G01*
X1975000Y-6685000D02*
G75*
G03*
X1975000Y-6685000I-20000J0D01*
G01*
X1980000Y-8070000D02*
G75*
G03*
X1980000Y-8070000I-20000J0D01*
G01*
X2000000Y-465000D02*
G75*
G03*
X2000000Y-465000I-20000J0D01*
G01*
X2000000Y-565000D02*
G75*
G03*
X2000000Y-565000I-20000J0D01*
G01*
X2000000Y-665000D02*
G75*
G03*
X2000000Y-665000I-20000J0D01*
G01*
X2010000Y-4350000D02*
G75*
G03*
X2010000Y-4350000I-20000J0D01*
G01*
X2012612Y-4235686D02*
G75*
G03*
X2012612Y-4235686I-20000J0D01*
G01*
X2020000Y-4120000D02*
G75*
G03*
X2020000Y-4120000I-20000J0D01*
G01*
X2020758Y-4458780D02*
G75*
G03*
X2020758Y-4458780I-20000J0D01*
G01*
X2030000Y-3990000D02*
G75*
G03*
X2030000Y-3990000I-20000J0D01*
G01*
X2030000Y-4570000D02*
G75*
G03*
X2030000Y-4570000I-20000J0D01*
G01*
X2035000Y-6415000D02*
G75*
G03*
X2035000Y-6415000I-20000J0D01*
G01*
X2040000Y-8619999D02*
G75*
G03*
X2040000Y-8619999I-20000J0D01*
G01*
X2049998Y-5765005D02*
G75*
G03*
X2049998Y-5765005I-20000J0D01*
G01*
X2052559Y-6555003D02*
G75*
G03*
X2052559Y-6555003I-20000J0D01*
G01*
X2057334Y-4888992D02*
G75*
G03*
X2057334Y-4888992I-20000J0D01*
G01*
X2078670Y-1462024D02*
G75*
G03*
X2078670Y-1462024I-20000J0D01*
G01*
X2100000Y-465000D02*
G75*
G03*
X2100000Y-465000I-20000J0D01*
G01*
X2100000Y-565000D02*
G75*
G03*
X2100000Y-565000I-20000J0D01*
G01*
X2100000Y-665000D02*
G75*
G03*
X2100000Y-665000I-20000J0D01*
G01*
X2112896Y-2426716D02*
G75*
G03*
X2112896Y-2426716I-20000J0D01*
G01*
X2129470Y-4379722D02*
G75*
G03*
X2129470Y-4379722I-20000J0D01*
G01*
X2138707Y-6038686D02*
G75*
G03*
X2138707Y-6038686I-20000J0D01*
G01*
X2172258Y-5826523D02*
G75*
G03*
X2172258Y-5826523I-20000J0D01*
G01*
X2182143Y-6309998D02*
G75*
G03*
X2182143Y-6309998I-20000J0D01*
G01*
X2203408Y-2287016D02*
G75*
G03*
X2203408Y-2287016I-20000J0D01*
G01*
X2230000Y-5916314D02*
G75*
G03*
X2230000Y-5916314I-20000J0D01*
G01*
X2232499Y-2705000D02*
G75*
G03*
X2232499Y-2705000I-20000J0D01*
G01*
X2235000Y-8155000D02*
G75*
G03*
X2235000Y-8155000I-20000J0D01*
G01*
X2235071Y-8010501D02*
G75*
G03*
X2235071Y-8010501I-20000J0D01*
G01*
X2243061Y-6687841D02*
G75*
G03*
X2243061Y-6687841I-20000J0D01*
G01*
X2255000Y-1630000D02*
G75*
G03*
X2255000Y-1630000I-20000J0D01*
G01*
X2260000Y-1810000D02*
G75*
G03*
X2260000Y-1810000I-20000J0D01*
G01*
X2270000Y-8260000D02*
G75*
G03*
X2270000Y-8260000I-20000J0D01*
G01*
X2300000Y-2020000D02*
G75*
G03*
X2300000Y-2020000I-20000J0D01*
G01*
X2305000Y-6010000D02*
G75*
G03*
X2305000Y-6010000I-20000J0D01*
G01*
X2305000Y-2855000D02*
G75*
G03*
X2305000Y-2855000I-20000J0D01*
G01*
X2307379Y-6577274D02*
G75*
G03*
X2307379Y-6577274I-20000J0D01*
G01*
X2325000Y-7615000D02*
G75*
G03*
X2325000Y-7615000I-20000J0D01*
G01*
X2327613Y-8352947D02*
G75*
G03*
X2327613Y-8352947I-20000J0D01*
G01*
X2334823Y-5717619D02*
G75*
G03*
X2334823Y-5717619I-20000J0D01*
G01*
X2337191Y-3670884D02*
G75*
G03*
X2337191Y-3670884I-20000J0D01*
G01*
X2337497Y-6662087D02*
G75*
G03*
X2337497Y-6662087I-20000J0D01*
G01*
X2339663Y-6164953D02*
G75*
G03*
X2339663Y-6164953I-20000J0D01*
G01*
X2380000Y-2550000D02*
G75*
G03*
X2380000Y-2550000I-20000J0D01*
G01*
X2390000Y-1180000D02*
G75*
G03*
X2390000Y-1180000I-20000J0D01*
G01*
X2405000Y-4289998D02*
G75*
G03*
X2405000Y-4289998I-20000J0D01*
G01*
X2405000Y-5360000D02*
G75*
G03*
X2405000Y-5360000I-20000J0D01*
G01*
X2422161Y-4894999D02*
G75*
G03*
X2422161Y-4894999I-20000J0D01*
G01*
X2435357Y-3575000D02*
G75*
G03*
X2435357Y-3575000I-20000J0D01*
G01*
X2446306Y-7897462D02*
G75*
G03*
X2446306Y-7897462I-20000J0D01*
G01*
X2455000Y-1725676D02*
G75*
G03*
X2455000Y-1725676I-20000J0D01*
G01*
X2465000Y-4735000D02*
G75*
G03*
X2465000Y-4735000I-20000J0D01*
G01*
X2490929Y-8215929D02*
G75*
G03*
X2490929Y-8215929I-20000J0D01*
G01*
X2495000Y-2465000D02*
G75*
G03*
X2495000Y-2465000I-20000J0D01*
G01*
X2510000Y-6928541D02*
G75*
G03*
X2510000Y-6928541I-20000J0D01*
G01*
X2534288Y-8494999D02*
G75*
G03*
X2534288Y-8494999I-20000J0D01*
G01*
X2535000Y-7015000D02*
G75*
G03*
X2535000Y-7015000I-20000J0D01*
G01*
X2545000Y-5075000D02*
G75*
G03*
X2545000Y-5075000I-20000J0D01*
G01*
X2550000Y-3775000D02*
G75*
G03*
X2550000Y-3775000I-20000J0D01*
G01*
X2565000Y-7605000D02*
G75*
G03*
X2565000Y-7605000I-20000J0D01*
G01*
X2570000Y-8010000D02*
G75*
G03*
X2570000Y-8010000I-20000J0D01*
G01*
X2600000Y-465000D02*
G75*
G03*
X2600000Y-465000I-20000J0D01*
G01*
X2600000Y-565000D02*
G75*
G03*
X2600000Y-565000I-20000J0D01*
G01*
X2600000Y-665000D02*
G75*
G03*
X2600000Y-665000I-20000J0D01*
G01*
X2612499Y-6960230D02*
G75*
G03*
X2612499Y-6960230I-20000J0D01*
G01*
X2620000Y-1640000D02*
G75*
G03*
X2620000Y-1640000I-20000J0D01*
G01*
X2620000Y-1805000D02*
G75*
G03*
X2620000Y-1805000I-20000J0D01*
G01*
X2640000Y-4700000D02*
G75*
G03*
X2640000Y-4700000I-20000J0D01*
G01*
X2664399Y-7101424D02*
G75*
G03*
X2664399Y-7101424I-20000J0D01*
G01*
X2666426Y-2288540D02*
G75*
G03*
X2666426Y-2288540I-20000J0D01*
G01*
X2675000Y-7525000D02*
G75*
G03*
X2675000Y-7525000I-20000J0D01*
G01*
X2684037Y-8384037D02*
G75*
G03*
X2684037Y-8384037I-20000J0D01*
G01*
X2690000Y-6695000D02*
G75*
G03*
X2690000Y-6695000I-20000J0D01*
G01*
X2700000Y-465000D02*
G75*
G03*
X2700000Y-465000I-20000J0D01*
G01*
X2700000Y-565000D02*
G75*
G03*
X2700000Y-565000I-20000J0D01*
G01*
X2700000Y-665000D02*
G75*
G03*
X2700000Y-665000I-20000J0D01*
G01*
X2710000Y-6265000D02*
G75*
G03*
X2710000Y-6265000I-20000J0D01*
G01*
X2725000Y-1270000D02*
G75*
G03*
X2725000Y-1270000I-20000J0D01*
G01*
X2730000Y-4005000D02*
G75*
G03*
X2730000Y-4005000I-20000J0D01*
G01*
X2750000Y-1391412D02*
G75*
G03*
X2750000Y-1391412I-20000J0D01*
G01*
X2765000Y-4905000D02*
G75*
G03*
X2765000Y-4905000I-20000J0D01*
G01*
X2800000Y-465000D02*
G75*
G03*
X2800000Y-465000I-20000J0D01*
G01*
X2800000Y-565000D02*
G75*
G03*
X2800000Y-565000I-20000J0D01*
G01*
X2800000Y-665000D02*
G75*
G03*
X2800000Y-665000I-20000J0D01*
G01*
X2800000Y-5385000D02*
G75*
G03*
X2800000Y-5385000I-20000J0D01*
G01*
X2810000Y-4280000D02*
G75*
G03*
X2810000Y-4280000I-20000J0D01*
G01*
X2810000Y-8220000D02*
G75*
G03*
X2810000Y-8220000I-20000J0D01*
G01*
X2830000Y-7140000D02*
G75*
G03*
X2830000Y-7140000I-20000J0D01*
G01*
X2830000Y-7880000D02*
G75*
G03*
X2830000Y-7880000I-20000J0D01*
G01*
X2851799Y-7620008D02*
G75*
G03*
X2851799Y-7620008I-20000J0D01*
G01*
X2860000Y-4175000D02*
G75*
G03*
X2860000Y-4175000I-20000J0D01*
G01*
X2895000Y-8130000D02*
G75*
G03*
X2895000Y-8130000I-20000J0D01*
G01*
X2900000Y-465000D02*
G75*
G03*
X2900000Y-465000I-20000J0D01*
G01*
X2900000Y-565000D02*
G75*
G03*
X2900000Y-565000I-20000J0D01*
G01*
X2900000Y-665000D02*
G75*
G03*
X2900000Y-665000I-20000J0D01*
G01*
X2907372Y-7549213D02*
G75*
G03*
X2907372Y-7549213I-20000J0D01*
G01*
X2920000Y-8470000D02*
G75*
G03*
X2920000Y-8470000I-20000J0D01*
G01*
X2925001Y-5775000D02*
G75*
G03*
X2925001Y-5775000I-20000J0D01*
G01*
X2970000Y-2525000D02*
G75*
G03*
X2970000Y-2525000I-20000J0D01*
G01*
X2970000Y-7865002D02*
G75*
G03*
X2970000Y-7865002I-20000J0D01*
G01*
X2975000Y-1830000D02*
G75*
G03*
X2975000Y-1830000I-20000J0D01*
G01*
X2975000Y-1955000D02*
G75*
G03*
X2975000Y-1955000I-20000J0D01*
G01*
X2975000Y-2080000D02*
G75*
G03*
X2975000Y-2080000I-20000J0D01*
G01*
X2975000Y-2205000D02*
G75*
G03*
X2975000Y-2205000I-20000J0D01*
G01*
X2985000Y-4560000D02*
G75*
G03*
X2985000Y-4560000I-20000J0D01*
G01*
X2996839Y-3906624D02*
G75*
G03*
X2996839Y-3906624I-20000J0D01*
G01*
X2998497Y-5549829D02*
G75*
G03*
X2998497Y-5549829I-20000J0D01*
G01*
X3002781Y-7556232D02*
G75*
G03*
X3002781Y-7556232I-20000J0D01*
G01*
X3035000Y-5240000D02*
G75*
G03*
X3035000Y-5240000I-20000J0D01*
G01*
X3035000Y-6277499D02*
G75*
G03*
X3035000Y-6277499I-20000J0D01*
G01*
X3040000Y-6080000D02*
G75*
G03*
X3040000Y-6080000I-20000J0D01*
G01*
X3065000Y-3765000D02*
G75*
G03*
X3065000Y-3765000I-20000J0D01*
G01*
X3065000Y-4845000D02*
G75*
G03*
X3065000Y-4845000I-20000J0D01*
G01*
X3070000Y-7465000D02*
G75*
G03*
X3070000Y-7465000I-20000J0D01*
G01*
X3100000Y-1830000D02*
G75*
G03*
X3100000Y-1830000I-20000J0D01*
G01*
X3100000Y-1955000D02*
G75*
G03*
X3100000Y-1955000I-20000J0D01*
G01*
X3100000Y-2080000D02*
G75*
G03*
X3100000Y-2080000I-20000J0D01*
G01*
X3100000Y-2205000D02*
G75*
G03*
X3100000Y-2205000I-20000J0D01*
G01*
X3107500Y-7085000D02*
G75*
G03*
X3107500Y-7085000I-20000J0D01*
G01*
X3152929Y-7882071D02*
G75*
G03*
X3152929Y-7882071I-20000J0D01*
G01*
X3156500Y-7629998D02*
G75*
G03*
X3156500Y-7629998I-20000J0D01*
G01*
X3165000Y-6450000D02*
G75*
G03*
X3165000Y-6450000I-20000J0D01*
G01*
X3167926Y-7461118D02*
G75*
G03*
X3167926Y-7461118I-20000J0D01*
G01*
X3170000Y-6660000D02*
G75*
G03*
X3170000Y-6660000I-20000J0D01*
G01*
X3170000Y-6965000D02*
G75*
G03*
X3170000Y-6965000I-20000J0D01*
G01*
X3179417Y-2325828D02*
G75*
G03*
X3179417Y-2325828I-20000J0D01*
G01*
X3180000Y-5470000D02*
G75*
G03*
X3180000Y-5470000I-20000J0D01*
G01*
X3218466Y-7085000D02*
G75*
G03*
X3218466Y-7085000I-20000J0D01*
G01*
X3225000Y-1830000D02*
G75*
G03*
X3225000Y-1830000I-20000J0D01*
G01*
X3225000Y-1955000D02*
G75*
G03*
X3225000Y-1955000I-20000J0D01*
G01*
X3225000Y-2080000D02*
G75*
G03*
X3225000Y-2080000I-20000J0D01*
G01*
X3225000Y-2205000D02*
G75*
G03*
X3225000Y-2205000I-20000J0D01*
G01*
X3255000Y-5114999D02*
G75*
G03*
X3255000Y-5114999I-20000J0D01*
G01*
X3257500Y-5752500D02*
G75*
G03*
X3257500Y-5752500I-20000J0D01*
G01*
X3270000Y-2530000D02*
G75*
G03*
X3270000Y-2530000I-20000J0D01*
G01*
X3281674Y-3867237D02*
G75*
G03*
X3281674Y-3867237I-20000J0D01*
G01*
X3292495Y-8073951D02*
G75*
G03*
X3292495Y-8073951I-20000J0D01*
G01*
X3304375Y-7941592D02*
G75*
G03*
X3304375Y-7941592I-20000J0D01*
G01*
X3320000Y-5817499D02*
G75*
G03*
X3320000Y-5817499I-20000J0D01*
G01*
X3345000Y-6440000D02*
G75*
G03*
X3345000Y-6440000I-20000J0D01*
G01*
X3354716Y-7623359D02*
G75*
G03*
X3354716Y-7623359I-20000J0D01*
G01*
X3355000Y-7385000D02*
G75*
G03*
X3355000Y-7385000I-20000J0D01*
G01*
X3360000Y-4910000D02*
G75*
G03*
X3360000Y-4910000I-20000J0D01*
G01*
X3364373Y-7285024D02*
G75*
G03*
X3364373Y-7285024I-20000J0D01*
G01*
X3370000Y-6040000D02*
G75*
G03*
X3370000Y-6040000I-20000J0D01*
G01*
X3370000Y-8545000D02*
G75*
G03*
X3370000Y-8545000I-20000J0D01*
G01*
X3374907Y-7885686D02*
G75*
G03*
X3374907Y-7885686I-20000J0D01*
G01*
X3387500Y-5182500D02*
G75*
G03*
X3387500Y-5182500I-20000J0D01*
G01*
X3395000Y-8920000D02*
G75*
G03*
X3395000Y-8920000I-20000J0D01*
G01*
X3410000Y-8805000D02*
G75*
G03*
X3410000Y-8805000I-20000J0D01*
G01*
X3415000Y-3695000D02*
G75*
G03*
X3415000Y-3695000I-20000J0D01*
G01*
X3415000Y-3990000D02*
G75*
G03*
X3415000Y-3990000I-20000J0D01*
G01*
X3420000Y-6268974D02*
G75*
G03*
X3420000Y-6268974I-20000J0D01*
G01*
X3425000Y-7550000D02*
G75*
G03*
X3425000Y-7550000I-20000J0D01*
G01*
X3440000Y-3329999D02*
G75*
G03*
X3440000Y-3329999I-20000J0D01*
G01*
X3455000Y-5745000D02*
G75*
G03*
X3455000Y-5745000I-20000J0D01*
G01*
X3465000Y-7144999D02*
G75*
G03*
X3465000Y-7144999I-20000J0D01*
G01*
X3473306Y-7036694D02*
G75*
G03*
X3473306Y-7036694I-20000J0D01*
G01*
X3485000Y-9160000D02*
G75*
G03*
X3485000Y-9160000I-20000J0D01*
G01*
X3487001Y-3185000D02*
G75*
G03*
X3487001Y-3185000I-20000J0D01*
G01*
X3490000Y-7850000D02*
G75*
G03*
X3490000Y-7850000I-20000J0D01*
G01*
X3493995Y-4047774D02*
G75*
G03*
X3493995Y-4047774I-20000J0D01*
G01*
X3515000Y-1715000D02*
G75*
G03*
X3515000Y-1715000I-20000J0D01*
G01*
X3515000Y-6845000D02*
G75*
G03*
X3515000Y-6845000I-20000J0D01*
G01*
X3520000Y-4140000D02*
G75*
G03*
X3520000Y-4140000I-20000J0D01*
G01*
X3561758Y-8097012D02*
G75*
G03*
X3561758Y-8097012I-20000J0D01*
G01*
X3575000Y-3525000D02*
G75*
G03*
X3575000Y-3525000I-20000J0D01*
G01*
X3590000Y-2755000D02*
G75*
G03*
X3590000Y-2755000I-20000J0D01*
G01*
X3605000Y-1590000D02*
G75*
G03*
X3605000Y-1590000I-20000J0D01*
G01*
X3620000Y-2314671D02*
G75*
G03*
X3620000Y-2314671I-20000J0D01*
G01*
X3632500Y-2002500D02*
G75*
G03*
X3632500Y-2002500I-20000J0D01*
G01*
X3645000Y-7465000D02*
G75*
G03*
X3645000Y-7465000I-20000J0D01*
G01*
X3662501Y-6795000D02*
G75*
G03*
X3662501Y-6795000I-20000J0D01*
G01*
X3665000Y-5150000D02*
G75*
G03*
X3665000Y-5150000I-20000J0D01*
G01*
X3665000Y-8200000D02*
G75*
G03*
X3665000Y-8200000I-20000J0D01*
G01*
X3709221Y-9145001D02*
G75*
G03*
X3709221Y-9145001I-20000J0D01*
G01*
X3710000Y-7345002D02*
G75*
G03*
X3710000Y-7345002I-20000J0D01*
G01*
X3717500Y-8930000D02*
G75*
G03*
X3717500Y-8930000I-20000J0D01*
G01*
X3720000Y-7885000D02*
G75*
G03*
X3720000Y-7885000I-20000J0D01*
G01*
X3725001Y-5887402D02*
G75*
G03*
X3725001Y-5887402I-20000J0D01*
G01*
X3730000Y-3985000D02*
G75*
G03*
X3730000Y-3985000I-20000J0D01*
G01*
X3745000Y-2962500D02*
G75*
G03*
X3745000Y-2962500I-20000J0D01*
G01*
X3745000Y-7090576D02*
G75*
G03*
X3745000Y-7090576I-20000J0D01*
G01*
X3750000Y-2389671D02*
G75*
G03*
X3750000Y-2389671I-20000J0D01*
G01*
X3751500Y-1741500D02*
G75*
G03*
X3751500Y-1741500I-20000J0D01*
G01*
X3760000Y-3324999D02*
G75*
G03*
X3760000Y-3324999I-20000J0D01*
G01*
X3760000Y-6900000D02*
G75*
G03*
X3760000Y-6900000I-20000J0D01*
G01*
X3765000Y-3210000D02*
G75*
G03*
X3765000Y-3210000I-20000J0D01*
G01*
X3780000Y-6277499D02*
G75*
G03*
X3780000Y-6277499I-20000J0D01*
G01*
X3785000Y-6150000D02*
G75*
G03*
X3785000Y-6150000I-20000J0D01*
G01*
X3790000Y-5720000D02*
G75*
G03*
X3790000Y-5720000I-20000J0D01*
G01*
X3820000Y-7780000D02*
G75*
G03*
X3820000Y-7780000I-20000J0D01*
G01*
X3870000Y-9120000D02*
G75*
G03*
X3870000Y-9120000I-20000J0D01*
G01*
X3907058Y-3552058D02*
G75*
G03*
X3907058Y-3552058I-20000J0D01*
G01*
X3968948Y-8166447D02*
G75*
G03*
X3968948Y-8166447I-20000J0D01*
G01*
X4000164Y-3646263D02*
G75*
G03*
X4000164Y-3646263I-20000J0D01*
G01*
X4025000Y-7530000D02*
G75*
G03*
X4025000Y-7530000I-20000J0D01*
G01*
X4060000Y-7915000D02*
G75*
G03*
X4060000Y-7915000I-20000J0D01*
G01*
X4075000Y-6750000D02*
G75*
G03*
X4075000Y-6750000I-20000J0D01*
G01*
X4075000Y-7160000D02*
G75*
G03*
X4075000Y-7160000I-20000J0D01*
G01*
X4080000Y-6890000D02*
G75*
G03*
X4080000Y-6890000I-20000J0D01*
G01*
X4095000Y-3985000D02*
G75*
G03*
X4095000Y-3985000I-20000J0D01*
G01*
X4105000Y-3305000D02*
G75*
G03*
X4105000Y-3305000I-20000J0D01*
G01*
X4132503Y-825000D02*
G75*
G03*
X4132503Y-825000I-20000J0D01*
G01*
X4165000Y-7100000D02*
G75*
G03*
X4165000Y-7100000I-20000J0D01*
G01*
X4171018Y-6092852D02*
G75*
G03*
X4171018Y-6092852I-20000J0D01*
G01*
X4175000Y-8460000D02*
G75*
G03*
X4175000Y-8460000I-20000J0D01*
G01*
X4205000Y-6187853D02*
G75*
G03*
X4205000Y-6187853I-20000J0D01*
G01*
X4230000Y-3790000D02*
G75*
G03*
X4230000Y-3790000I-20000J0D01*
G01*
X4250000Y-4920000D02*
G75*
G03*
X4250000Y-4920000I-20000J0D01*
G01*
X4279228Y-8141974D02*
G75*
G03*
X4279228Y-8141974I-20000J0D01*
G01*
X4290246Y-2864754D02*
G75*
G03*
X4290246Y-2864754I-20000J0D01*
G01*
X4300000Y-895000D02*
G75*
G03*
X4300000Y-895000I-20000J0D01*
G01*
X4300000Y-995000D02*
G75*
G03*
X4300000Y-995000I-20000J0D01*
G01*
X4305000Y-205000D02*
G75*
G03*
X4305000Y-205000I-20000J0D01*
G01*
X4305000Y-305000D02*
G75*
G03*
X4305000Y-305000I-20000J0D01*
G01*
X4313816Y-8697393D02*
G75*
G03*
X4313816Y-8697393I-20000J0D01*
G01*
X4315000Y-3355000D02*
G75*
G03*
X4315000Y-3355000I-20000J0D01*
G01*
X4319927Y-3491892D02*
G75*
G03*
X4319927Y-3491892I-20000J0D01*
G01*
X4360000Y-2670000D02*
G75*
G03*
X4360000Y-2670000I-20000J0D01*
G01*
X4375000Y-8555000D02*
G75*
G03*
X4375000Y-8555000I-20000J0D01*
G01*
X4390000Y-895000D02*
G75*
G03*
X4390000Y-895000I-20000J0D01*
G01*
X4390000Y-995000D02*
G75*
G03*
X4390000Y-995000I-20000J0D01*
G01*
X4405000Y-205000D02*
G75*
G03*
X4405000Y-205000I-20000J0D01*
G01*
X4405000Y-305000D02*
G75*
G03*
X4405000Y-305000I-20000J0D01*
G01*
X4410000Y-3400000D02*
G75*
G03*
X4410000Y-3400000I-20000J0D01*
G01*
X4450000Y-4955000D02*
G75*
G03*
X4450000Y-4955000I-20000J0D01*
G01*
X4475000Y-1990000D02*
G75*
G03*
X4475000Y-1990000I-20000J0D01*
G01*
X4490000Y-895000D02*
G75*
G03*
X4490000Y-895000I-20000J0D01*
G01*
X4490000Y-995000D02*
G75*
G03*
X4490000Y-995000I-20000J0D01*
G01*
X4490000Y-7010000D02*
G75*
G03*
X4490000Y-7010000I-20000J0D01*
G01*
X4505000Y-205000D02*
G75*
G03*
X4505000Y-205000I-20000J0D01*
G01*
X4505000Y-305000D02*
G75*
G03*
X4505000Y-305000I-20000J0D01*
G01*
X4505000Y-430000D02*
G75*
G03*
X4505000Y-430000I-20000J0D01*
G01*
X4505132Y-5738368D02*
G75*
G03*
X4505132Y-5738368I-20000J0D01*
G01*
X4521899Y-4013570D02*
G75*
G03*
X4521899Y-4013570I-20000J0D01*
G01*
X4545000Y-3015000D02*
G75*
G03*
X4545000Y-3015000I-20000J0D01*
G01*
X4590000Y-895000D02*
G75*
G03*
X4590000Y-895000I-20000J0D01*
G01*
X4590000Y-995000D02*
G75*
G03*
X4590000Y-995000I-20000J0D01*
G01*
X4605000Y-205000D02*
G75*
G03*
X4605000Y-205000I-20000J0D01*
G01*
X4605000Y-305000D02*
G75*
G03*
X4605000Y-305000I-20000J0D01*
G01*
X4610000Y-1445000D02*
G75*
G03*
X4610000Y-1445000I-20000J0D01*
G01*
X4614098Y-2455863D02*
G75*
G03*
X4614098Y-2455863I-20000J0D01*
G01*
X4645000Y-3250000D02*
G75*
G03*
X4645000Y-3250000I-20000J0D01*
G01*
X4660000Y-6615000D02*
G75*
G03*
X4660000Y-6615000I-20000J0D01*
G01*
X4690000Y-895000D02*
G75*
G03*
X4690000Y-895000I-20000J0D01*
G01*
X4690000Y-995000D02*
G75*
G03*
X4690000Y-995000I-20000J0D01*
G01*
X4705000Y-205000D02*
G75*
G03*
X4705000Y-205000I-20000J0D01*
G01*
X4705000Y-305000D02*
G75*
G03*
X4705000Y-305000I-20000J0D01*
G01*
X4705000Y-2523363D02*
G75*
G03*
X4705000Y-2523363I-20000J0D01*
G01*
X4710000Y-1745000D02*
G75*
G03*
X4710000Y-1745000I-20000J0D01*
G01*
X4710000Y-1845000D02*
G75*
G03*
X4710000Y-1845000I-20000J0D01*
G01*
X4710000Y-1945000D02*
G75*
G03*
X4710000Y-1945000I-20000J0D01*
G01*
X4715000Y-8085000D02*
G75*
G03*
X4715000Y-8085000I-20000J0D01*
G01*
X4745000Y-3970000D02*
G75*
G03*
X4745000Y-3970000I-20000J0D01*
G01*
X4749480Y-5004816D02*
G75*
G03*
X4749480Y-5004816I-20000J0D01*
G01*
X4758878Y-5274564D02*
G75*
G03*
X4758878Y-5274564I-20000J0D01*
G01*
X4761770Y-3493895D02*
G75*
G03*
X4761770Y-3493895I-20000J0D01*
G01*
X4810000Y-1745000D02*
G75*
G03*
X4810000Y-1745000I-20000J0D01*
G01*
X4810000Y-1845000D02*
G75*
G03*
X4810000Y-1845000I-20000J0D01*
G01*
X4810000Y-1945000D02*
G75*
G03*
X4810000Y-1945000I-20000J0D01*
G01*
X4815000Y-6940000D02*
G75*
G03*
X4815000Y-6940000I-20000J0D01*
G01*
X4830000Y-3570000D02*
G75*
G03*
X4830000Y-3570000I-20000J0D01*
G01*
X4838888Y-2122932D02*
G75*
G03*
X4838888Y-2122932I-20000J0D01*
G01*
X4857810Y-2957548D02*
G75*
G03*
X4857810Y-2957548I-20000J0D01*
G01*
X4875718Y-5267452D02*
G75*
G03*
X4875718Y-5267452I-20000J0D01*
G01*
X4885000Y-3055000D02*
G75*
G03*
X4885000Y-3055000I-20000J0D01*
G01*
X4898578Y-2625852D02*
G75*
G03*
X4898578Y-2625852I-20000J0D01*
G01*
X4915088Y-6410452D02*
G75*
G03*
X4915088Y-6410452I-20000J0D01*
G01*
X4929778Y-6276552D02*
G75*
G03*
X4929778Y-6276552I-20000J0D01*
G01*
X4944298Y-852932D02*
G75*
G03*
X4944298Y-852932I-20000J0D01*
G01*
X4945822Y-3473704D02*
G75*
G03*
X4945822Y-3473704I-20000J0D01*
G01*
X4950000Y-3890000D02*
G75*
G03*
X4950000Y-3890000I-20000J0D01*
G01*
X4956998Y-1015492D02*
G75*
G03*
X4956998Y-1015492I-20000J0D01*
G01*
X4972046Y-3120001D02*
G75*
G03*
X4972046Y-3120001I-20000J0D01*
G01*
X4993017Y-2333801D02*
G75*
G03*
X4993017Y-2333801I-20000J0D01*
G01*
X5052479Y-3725000D02*
G75*
G03*
X5052479Y-3725000I-20000J0D01*
G01*
X5065139Y-3159659D02*
G75*
G03*
X5065139Y-3159659I-20000J0D01*
G01*
X5073838Y-5257292D02*
G75*
G03*
X5073838Y-5257292I-20000J0D01*
G01*
X5075616Y-5359908D02*
G75*
G03*
X5075616Y-5359908I-20000J0D01*
G01*
X5092500Y-7325000D02*
G75*
G03*
X5092500Y-7325000I-20000J0D01*
G01*
X5099994Y-7037465D02*
G75*
G03*
X5099994Y-7037465I-20000J0D01*
G01*
X5106858Y-852932D02*
G75*
G03*
X5106858Y-852932I-20000J0D01*
G01*
X5114478Y-1015492D02*
G75*
G03*
X5114478Y-1015492I-20000J0D01*
G01*
X5119979Y-3309961D02*
G75*
G03*
X5119979Y-3309961I-20000J0D01*
G01*
X5142418Y-2686812D02*
G75*
G03*
X5142418Y-2686812I-20000J0D01*
G01*
X5145000Y-425000D02*
G75*
G03*
X5145000Y-425000I-20000J0D01*
G01*
X5151342Y-6715351D02*
G75*
G03*
X5151342Y-6715351I-20000J0D01*
G01*
X5160000Y-7450000D02*
G75*
G03*
X5160000Y-7450000I-20000J0D01*
G01*
X5187500Y-6627500D02*
G75*
G03*
X5187500Y-6627500I-20000J0D01*
G01*
X5188857Y-4131147D02*
G75*
G03*
X5188857Y-4131147I-20000J0D01*
G01*
X5205000Y-3810000D02*
G75*
G03*
X5205000Y-3810000I-20000J0D01*
G01*
X5235000Y-4040000D02*
G75*
G03*
X5235000Y-4040000I-20000J0D01*
G01*
X5242494Y-6261100D02*
G75*
G03*
X5242494Y-6261100I-20000J0D01*
G01*
X5267500Y-342500D02*
G75*
G03*
X5267500Y-342500I-20000J0D01*
G01*
X5269418Y-2823972D02*
G75*
G03*
X5269418Y-2823972I-20000J0D01*
G01*
X5270000Y-7345000D02*
G75*
G03*
X5270000Y-7345000I-20000J0D01*
G01*
X5273482Y-7132828D02*
G75*
G03*
X5273482Y-7132828I-20000J0D01*
G01*
X5278308Y-2686812D02*
G75*
G03*
X5278308Y-2686812I-20000J0D01*
G01*
X5283388Y-1965452D02*
G75*
G03*
X5283388Y-1965452I-20000J0D01*
G01*
X5284658Y-852932D02*
G75*
G03*
X5284658Y-852932I-20000J0D01*
G01*
X5284658Y-2534412D02*
G75*
G03*
X5284658Y-2534412I-20000J0D01*
G01*
X5290000Y-195000D02*
G75*
G03*
X5290000Y-195000I-20000J0D01*
G01*
X5294818Y-1015492D02*
G75*
G03*
X5294818Y-1015492I-20000J0D01*
G01*
X5300000Y-7460000D02*
G75*
G03*
X5300000Y-7460000I-20000J0D01*
G01*
X5310058Y-3311652D02*
G75*
G03*
X5310058Y-3311652I-20000J0D01*
G01*
X5320000Y-3590000D02*
G75*
G03*
X5320000Y-3590000I-20000J0D01*
G01*
X5335000Y-8865000D02*
G75*
G03*
X5335000Y-8865000I-20000J0D01*
G01*
X5360000Y-6730000D02*
G75*
G03*
X5360000Y-6730000I-20000J0D01*
G01*
X5365000Y-4205000D02*
G75*
G03*
X5365000Y-4205000I-20000J0D01*
G01*
X5386435Y-7714145D02*
G75*
G03*
X5386435Y-7714145I-20000J0D01*
G01*
X5416738Y-2407412D02*
G75*
G03*
X5416738Y-2407412I-20000J0D01*
G01*
X5416738Y-2538222D02*
G75*
G03*
X5416738Y-2538222I-20000J0D01*
G01*
X5416738Y-2669032D02*
G75*
G03*
X5416738Y-2669032I-20000J0D01*
G01*
X5416738Y-2799842D02*
G75*
G03*
X5416738Y-2799842I-20000J0D01*
G01*
X5416738Y-2930652D02*
G75*
G03*
X5416738Y-2930652I-20000J0D01*
G01*
X5475068Y-1689973D02*
G75*
G03*
X5475068Y-1689973I-20000J0D01*
G01*
X5475964Y-7704944D02*
G75*
G03*
X5475964Y-7704944I-20000J0D01*
G01*
X5498018Y-3781552D02*
G75*
G03*
X5498018Y-3781552I-20000J0D01*
G01*
X5498018Y-3891552D02*
G75*
G03*
X5498018Y-3891552I-20000J0D01*
G01*
X5498018Y-4001552D02*
G75*
G03*
X5498018Y-4001552I-20000J0D01*
G01*
X5499796Y-5268468D02*
G75*
G03*
X5499796Y-5268468I-20000J0D01*
G01*
X5515000Y-8090000D02*
G75*
G03*
X5515000Y-8090000I-20000J0D01*
G01*
X5516560Y-5415280D02*
G75*
G03*
X5516560Y-5415280I-20000J0D01*
G01*
X5525000Y-8215000D02*
G75*
G03*
X5525000Y-8215000I-20000J0D01*
G01*
X5528498Y-2808732D02*
G75*
G03*
X5528498Y-2808732I-20000J0D01*
G01*
X5538658Y-2688082D02*
G75*
G03*
X5538658Y-2688082I-20000J0D01*
G01*
X5548818Y-2549652D02*
G75*
G03*
X5548818Y-2549652I-20000J0D01*
G01*
X5553816Y-7750104D02*
G75*
G03*
X5553816Y-7750104I-20000J0D01*
G01*
X5565000Y-3370000D02*
G75*
G03*
X5565000Y-3370000I-20000J0D01*
G01*
X5584886Y-6247892D02*
G75*
G03*
X5584886Y-6247892I-20000J0D01*
G01*
X5595000Y-3555000D02*
G75*
G03*
X5595000Y-3555000I-20000J0D01*
G01*
X5608018Y-3781552D02*
G75*
G03*
X5608018Y-3781552I-20000J0D01*
G01*
X5625000Y-8215000D02*
G75*
G03*
X5625000Y-8215000I-20000J0D01*
G01*
X5625085Y-7805066D02*
G75*
G03*
X5625085Y-7805066I-20000J0D01*
G01*
X5655498Y-5404612D02*
G75*
G03*
X5655498Y-5404612I-20000J0D01*
G01*
X5658038Y-5257292D02*
G75*
G03*
X5658038Y-5257292I-20000J0D01*
G01*
X5660578Y-3311652D02*
G75*
G03*
X5660578Y-3311652I-20000J0D01*
G01*
X5665912Y-4836668D02*
G75*
G03*
X5665912Y-4836668I-20000J0D01*
G01*
X5668168Y-463804D02*
G75*
G03*
X5668168Y-463804I-20000J0D01*
G01*
X5668168Y-588804D02*
G75*
G03*
X5668168Y-588804I-20000J0D01*
G01*
X5672262Y-1877568D02*
G75*
G03*
X5672262Y-1877568I-20000J0D01*
G01*
X5675818Y-80772D02*
G75*
G03*
X5675818Y-80772I-20000J0D01*
G01*
X5675818Y-205772D02*
G75*
G03*
X5675818Y-205772I-20000J0D01*
G01*
X5675818Y-330772D02*
G75*
G03*
X5675818Y-330772I-20000J0D01*
G01*
X5675818Y-2686812D02*
G75*
G03*
X5675818Y-2686812I-20000J0D01*
G01*
X5690042Y-1661668D02*
G75*
G03*
X5690042Y-1661668I-20000J0D01*
G01*
X5691058Y-1015492D02*
G75*
G03*
X5691058Y-1015492I-20000J0D01*
G01*
X5696138Y-852932D02*
G75*
G03*
X5696138Y-852932I-20000J0D01*
G01*
X5706298Y-2098802D02*
G75*
G03*
X5706298Y-2098802I-20000J0D01*
G01*
X5718018Y-3781552D02*
G75*
G03*
X5718018Y-3781552I-20000J0D01*
G01*
X5725000Y-8215000D02*
G75*
G03*
X5725000Y-8215000I-20000J0D01*
G01*
X5737754Y-6310160D02*
G75*
G03*
X5737754Y-6310160I-20000J0D01*
G01*
X5743618Y-7244930D02*
G75*
G03*
X5743618Y-7244930I-20000J0D01*
G01*
X5744059Y-6404952D02*
G75*
G03*
X5744059Y-6404952I-20000J0D01*
G01*
X5770000Y-8525000D02*
G75*
G03*
X5770000Y-8525000I-20000J0D01*
G01*
X5775000Y-8870000D02*
G75*
G03*
X5775000Y-8870000I-20000J0D01*
G01*
X5785000Y-6055000D02*
G75*
G03*
X5785000Y-6055000I-20000J0D01*
G01*
X5785215Y-6930070D02*
G75*
G03*
X5785215Y-6930070I-20000J0D01*
G01*
X5788168Y-463804D02*
G75*
G03*
X5788168Y-463804I-20000J0D01*
G01*
X5788168Y-588804D02*
G75*
G03*
X5788168Y-588804I-20000J0D01*
G01*
X5791010Y-1868807D02*
G75*
G03*
X5791010Y-1868807I-20000J0D01*
G01*
X5795818Y-80772D02*
G75*
G03*
X5795818Y-80772I-20000J0D01*
G01*
X5795818Y-205772D02*
G75*
G03*
X5795818Y-205772I-20000J0D01*
G01*
X5795818Y-330772D02*
G75*
G03*
X5795818Y-330772I-20000J0D01*
G01*
X5815000Y-7015000D02*
G75*
G03*
X5815000Y-7015000I-20000J0D01*
G01*
X5818058Y-5404612D02*
G75*
G03*
X5818058Y-5404612I-20000J0D01*
G01*
X5819328Y-5257292D02*
G75*
G03*
X5819328Y-5257292I-20000J0D01*
G01*
X5828018Y-3781552D02*
G75*
G03*
X5828018Y-3781552I-20000J0D01*
G01*
X5828018Y-3891552D02*
G75*
G03*
X5828018Y-3891552I-20000J0D01*
G01*
X5836854Y-6495796D02*
G75*
G03*
X5836854Y-6495796I-20000J0D01*
G01*
X5840000Y-3675000D02*
G75*
G03*
X5840000Y-3675000I-20000J0D01*
G01*
X5858698Y-1015492D02*
G75*
G03*
X5858698Y-1015492I-20000J0D01*
G01*
X5862838Y-8058912D02*
G75*
G03*
X5862838Y-8058912I-20000J0D01*
G01*
X5863778Y-852932D02*
G75*
G03*
X5863778Y-852932I-20000J0D01*
G01*
X5908168Y-463804D02*
G75*
G03*
X5908168Y-463804I-20000J0D01*
G01*
X5908168Y-588804D02*
G75*
G03*
X5908168Y-588804I-20000J0D01*
G01*
X5910000Y-6035000D02*
G75*
G03*
X5910000Y-6035000I-20000J0D01*
G01*
X5914070Y-1853692D02*
G75*
G03*
X5914070Y-1853692I-20000J0D01*
G01*
X5915000Y-7709995D02*
G75*
G03*
X5915000Y-7709995I-20000J0D01*
G01*
X5915818Y-80772D02*
G75*
G03*
X5915818Y-80772I-20000J0D01*
G01*
X5915818Y-205772D02*
G75*
G03*
X5915818Y-205772I-20000J0D01*
G01*
X5915818Y-330772D02*
G75*
G03*
X5915818Y-330772I-20000J0D01*
G01*
X5950000Y-3310000D02*
G75*
G03*
X5950000Y-3310000I-20000J0D01*
G01*
X5952932Y-3433572D02*
G75*
G03*
X5952932Y-3433572I-20000J0D01*
G01*
X5955218Y-1298702D02*
G75*
G03*
X5955218Y-1298702I-20000J0D01*
G01*
X5967918Y-2468372D02*
G75*
G03*
X5967918Y-2468372I-20000J0D01*
G01*
X5980000Y-9075000D02*
G75*
G03*
X5980000Y-9075000I-20000J0D01*
G01*
X6028168Y-463804D02*
G75*
G03*
X6028168Y-463804I-20000J0D01*
G01*
X6028168Y-588804D02*
G75*
G03*
X6028168Y-588804I-20000J0D01*
G01*
X6035818Y-80772D02*
G75*
G03*
X6035818Y-80772I-20000J0D01*
G01*
X6035818Y-205772D02*
G75*
G03*
X6035818Y-205772I-20000J0D01*
G01*
X6035818Y-330772D02*
G75*
G03*
X6035818Y-330772I-20000J0D01*
G01*
X6040990Y-3255487D02*
G75*
G03*
X6040990Y-3255487I-20000J0D01*
G01*
X6045000Y-8745000D02*
G75*
G03*
X6045000Y-8745000I-20000J0D01*
G01*
X6046658Y-852932D02*
G75*
G03*
X6046658Y-852932I-20000J0D01*
G01*
X6046658Y-1015492D02*
G75*
G03*
X6046658Y-1015492I-20000J0D01*
G01*
X6050000Y-8640000D02*
G75*
G03*
X6050000Y-8640000I-20000J0D01*
G01*
X6080000Y-3160000D02*
G75*
G03*
X6080000Y-3160000I-20000J0D01*
G01*
X6080000Y-4082500D02*
G75*
G03*
X6080000Y-4082500I-20000J0D01*
G01*
X6110000Y-7660000D02*
G75*
G03*
X6110000Y-7660000I-20000J0D01*
G01*
X6115000Y-7440000D02*
G75*
G03*
X6115000Y-7440000I-20000J0D01*
G01*
X6148168Y-463804D02*
G75*
G03*
X6148168Y-463804I-20000J0D01*
G01*
X6148168Y-588804D02*
G75*
G03*
X6148168Y-588804I-20000J0D01*
G01*
X6155818Y-80772D02*
G75*
G03*
X6155818Y-80772I-20000J0D01*
G01*
X6155818Y-205772D02*
G75*
G03*
X6155818Y-205772I-20000J0D01*
G01*
X6155818Y-330772D02*
G75*
G03*
X6155818Y-330772I-20000J0D01*
G01*
X6215000Y-8155000D02*
G75*
G03*
X6215000Y-8155000I-20000J0D01*
G01*
X6250000Y-6490000D02*
G75*
G03*
X6250000Y-6490000I-20000J0D01*
G01*
X6268168Y-463804D02*
G75*
G03*
X6268168Y-463804I-20000J0D01*
G01*
X6268168Y-588804D02*
G75*
G03*
X6268168Y-588804I-20000J0D01*
G01*
X6275818Y-80772D02*
G75*
G03*
X6275818Y-80772I-20000J0D01*
G01*
X6275818Y-205772D02*
G75*
G03*
X6275818Y-205772I-20000J0D01*
G01*
X6275818Y-330772D02*
G75*
G03*
X6275818Y-330772I-20000J0D01*
G01*
X6292022Y-2011680D02*
G75*
G03*
X6292022Y-2011680I-20000J0D01*
G01*
X6350000Y-5470000D02*
G75*
G03*
X6350000Y-5470000I-20000J0D01*
G01*
X6350000Y-6655000D02*
G75*
G03*
X6350000Y-6655000I-20000J0D01*
G01*
X6395818Y-80772D02*
G75*
G03*
X6395818Y-80772I-20000J0D01*
G01*
X6395818Y-205772D02*
G75*
G03*
X6395818Y-205772I-20000J0D01*
G01*
X6455090Y-2849118D02*
G75*
G03*
X6455090Y-2849118I-20000J0D01*
G01*
X6515000Y-3360000D02*
G75*
G03*
X6515000Y-3360000I-20000J0D01*
G01*
X6945000Y-5370000D02*
G75*
G03*
X6945000Y-5370000I-20000J0D01*
G01*
X6965630Y-861568D02*
G75*
G03*
X6965630Y-861568I-20000J0D01*
G01*
X6965630Y-986568D02*
G75*
G03*
X6965630Y-986568I-20000J0D01*
G01*
X7085630Y-861568D02*
G75*
G03*
X7085630Y-861568I-20000J0D01*
G01*
X7085630Y-986568D02*
G75*
G03*
X7085630Y-986568I-20000J0D01*
G01*
X6308182Y-3740752D02*
X6308182Y-3800752D01*
X6278182Y-3770752D02*
X6338182Y-3770752D01*
X6288182Y-3735752D02*
X6288182Y-3805752D01*
X6328182Y-3735752D02*
X6328182Y-3805752D01*
X6288182Y-3805752D02*
G75*
G03*
X6328182Y-3805752I20000J0D01*
G01*
X6328182Y-3735752D02*
G75*
G03*
X6288182Y-3735752I-20000J0D01*
G01*
X6393182Y-3488252D02*
X6393182Y-3548252D01*
X6363182Y-3518252D02*
X6423182Y-3518252D01*
X6358182Y-3538252D02*
X6428182Y-3538252D01*
X6358182Y-3498252D02*
X6428182Y-3498252D01*
X6428182Y-3538252D02*
G75*
G03*
X6428182Y-3498252I0J20000D01*
G01*
X6358182Y-3498252D02*
G75*
G03*
X6358182Y-3538252I0J-20000D01*
G01*
X6553182Y-3913252D02*
X6553182Y-3973252D01*
X6523182Y-3943252D02*
X6583182Y-3943252D01*
X6518182Y-3963252D02*
X6588182Y-3963252D01*
X6518182Y-3923252D02*
X6588182Y-3923252D01*
X6588182Y-3963252D02*
G75*
G03*
X6588182Y-3923252I0J20000D01*
G01*
X6518182Y-3923252D02*
G75*
G03*
X6518182Y-3963252I0J-20000D01*
G01*
X7023182Y-3913252D02*
X7023182Y-3973252D01*
X6993182Y-3943252D02*
X7053182Y-3943252D01*
X7058182Y-3923252D02*
X6988182Y-3923252D01*
X7058182Y-3963252D02*
X6988182Y-3963252D01*
X6988182Y-3923252D02*
G75*
G03*
X6988182Y-3963252I0J-20000D01*
G01*
X7058182Y-3963252D02*
G75*
G03*
X7058182Y-3923252I0J20000D01*
G01*
X7098182Y-3660752D02*
X7098182Y-3720752D01*
X7068182Y-3690752D02*
X7128182Y-3690752D01*
X7118182Y-3725752D02*
X7118182Y-3655752D01*
X7078182Y-3725752D02*
X7078182Y-3655752D01*
X7118182Y-3655752D02*
G75*
G03*
X7078182Y-3655752I-20000J0D01*
G01*
X7078182Y-3725752D02*
G75*
G03*
X7118182Y-3725752I20000J0D01*
G01*
X4042500Y-9120000D02*
X4042500Y-9180000D01*
X4012500Y-9150000D02*
X4072500Y-9150000D01*
X4062500Y-9190000D02*
X4062500Y-9110000D01*
X4022500Y-9190000D02*
X4022500Y-9110000D01*
X4062500Y-9110000D02*
G75*
G03*
X4022500Y-9110000I-20000J0D01*
G01*
X4022500Y-9190000D02*
G75*
G03*
X4062500Y-9190000I20000J0D01*
G01*
X4757500Y-9120000D02*
X4757500Y-9180000D01*
X4727500Y-9150000D02*
X4787500Y-9150000D01*
X4737500Y-9110000D02*
X4737500Y-9190000D01*
X4777500Y-9110000D02*
X4777500Y-9190000D01*
X4737500Y-9190000D02*
G75*
G03*
X4777500Y-9190000I20000J0D01*
G01*
X4777500Y-9110000D02*
G75*
G03*
X4737500Y-9110000I-20000J0D01*
G01*
X220356Y-7065356D02*
X220356Y-6994644D01*
X149644Y-6994644D01*
X149644Y-7065356D01*
X220356Y-7065356D01*
X220356Y-7319356D02*
X220356Y-7248644D01*
X149644Y-7248644D01*
X149644Y-7319356D01*
X220356Y-7319356D01*
X220356Y-7573356D02*
X220356Y-7502644D01*
X149644Y-7502644D01*
X149644Y-7573356D01*
X220356Y-7573356D01*
X220356Y-7827356D02*
X220356Y-7756644D01*
X149644Y-7756644D01*
X149644Y-7827356D01*
X220356Y-7827356D01*
X220356Y-8081356D02*
X220356Y-8010644D01*
X149644Y-8010644D01*
X149644Y-8081356D01*
X220356Y-8081356D01*
X2560356Y-2986356D02*
X2560356Y-2915644D01*
X2489644Y-2915644D01*
X2489644Y-2986356D01*
X2560356Y-2986356D01*
X2560356Y-3240356D02*
X2560356Y-3169644D01*
X2489644Y-3169644D01*
X2489644Y-3240356D01*
X2560356Y-3240356D01*
X2814356Y-2986356D02*
X2814356Y-2915644D01*
X2743644Y-2915644D01*
X2743644Y-2986356D01*
X2814356Y-2986356D01*
X2814356Y-3240356D02*
X2814356Y-3169644D01*
X2743644Y-3169644D01*
X2743644Y-3240356D01*
X2814356Y-3240356D01*
X3068356Y-2986356D02*
X3068356Y-2915644D01*
X2997644Y-2915644D01*
X2997644Y-2986356D01*
X3068356Y-2986356D01*
X3068356Y-3240356D02*
X3068356Y-3169644D01*
X2997644Y-3169644D01*
X2997644Y-3240356D01*
X3068356Y-3240356D01*
X3322356Y-2986356D02*
X3322356Y-2915644D01*
X3251644Y-2915644D01*
X3251644Y-2986356D01*
X3322356Y-2986356D01*
X3322356Y-3240356D02*
X3322356Y-3169644D01*
X3251644Y-3169644D01*
X3251644Y-3240356D01*
X3322356Y-3240356D01*
X990650Y-1133144D02*
X990650Y-1062432D01*
X919938Y-1062432D01*
X919938Y-1133144D01*
X990650Y-1133144D01*
X990650Y-1387144D02*
X990650Y-1316432D01*
X919938Y-1316432D01*
X919938Y-1387144D01*
X990650Y-1387144D01*
X990650Y-1641144D02*
X990650Y-1570432D01*
X919938Y-1570432D01*
X919938Y-1641144D01*
X990650Y-1641144D01*
X990650Y-1895144D02*
X990650Y-1824432D01*
X919938Y-1824432D01*
X919938Y-1895144D01*
X990650Y-1895144D01*
X990650Y-2149144D02*
X990650Y-2078432D01*
X919938Y-2078432D01*
X919938Y-2149144D01*
X990650Y-2149144D01*
X990650Y-2403144D02*
X990650Y-2332432D01*
X919938Y-2332432D01*
X919938Y-2403144D01*
X990650Y-2403144D01*
X990650Y-2657144D02*
X990650Y-2586432D01*
X919938Y-2586432D01*
X919938Y-2657144D01*
X990650Y-2657144D01*
X990650Y-2911144D02*
X990650Y-2840432D01*
X919938Y-2840432D01*
X919938Y-2911144D01*
X990650Y-2911144D01*
X990650Y-3165144D02*
X990650Y-3094432D01*
X919938Y-3094432D01*
X919938Y-3165144D01*
X990650Y-3165144D01*
X990650Y-3419144D02*
X990650Y-3348432D01*
X919938Y-3348432D01*
X919938Y-3419144D01*
X990650Y-3419144D01*
X990650Y-3673144D02*
X990650Y-3602432D01*
X919938Y-3602432D01*
X919938Y-3673144D01*
X990650Y-3673144D01*
X990650Y-3927144D02*
X990650Y-3856432D01*
X919938Y-3856432D01*
X919938Y-3927144D01*
X990650Y-3927144D01*
X990650Y-4181144D02*
X990650Y-4110432D01*
X919938Y-4110432D01*
X919938Y-4181144D01*
X990650Y-4181144D01*
X990650Y-4435144D02*
X990650Y-4364432D01*
X919938Y-4364432D01*
X919938Y-4435144D01*
X990650Y-4435144D01*
X990650Y-4689144D02*
X990650Y-4618432D01*
X919938Y-4618432D01*
X919938Y-4689144D01*
X990650Y-4689144D01*
X990650Y-4943144D02*
X990650Y-4872432D01*
X919938Y-4872432D01*
X919938Y-4943144D01*
X990650Y-4943144D01*
X990650Y-5197144D02*
X990650Y-5126432D01*
X919938Y-5126432D01*
X919938Y-5197144D01*
X990650Y-5197144D01*
X990650Y-5451144D02*
X990650Y-5380432D01*
X919938Y-5380432D01*
X919938Y-5451144D01*
X990650Y-5451144D01*
X990650Y-5705144D02*
X990650Y-5634432D01*
X919938Y-5634432D01*
X919938Y-5705144D01*
X990650Y-5705144D01*
X990650Y-5959144D02*
X990650Y-5888432D01*
X919938Y-5888432D01*
X919938Y-5959144D01*
X990650Y-5959144D01*
X1244650Y-1133144D02*
X1244650Y-1062432D01*
X1173938Y-1062432D01*
X1173938Y-1133144D01*
X1244650Y-1133144D01*
X1244650Y-1387144D02*
X1244650Y-1316432D01*
X1173938Y-1316432D01*
X1173938Y-1387144D01*
X1244650Y-1387144D01*
X1244650Y-1641144D02*
X1244650Y-1570432D01*
X1173938Y-1570432D01*
X1173938Y-1641144D01*
X1244650Y-1641144D01*
X1244650Y-1895144D02*
X1244650Y-1824432D01*
X1173938Y-1824432D01*
X1173938Y-1895144D01*
X1244650Y-1895144D01*
X1244650Y-2149144D02*
X1244650Y-2078432D01*
X1173938Y-2078432D01*
X1173938Y-2149144D01*
X1244650Y-2149144D01*
X1244650Y-2403144D02*
X1244650Y-2332432D01*
X1173938Y-2332432D01*
X1173938Y-2403144D01*
X1244650Y-2403144D01*
X1244650Y-2657144D02*
X1244650Y-2586432D01*
X1173938Y-2586432D01*
X1173938Y-2657144D01*
X1244650Y-2657144D01*
X1244650Y-2911144D02*
X1244650Y-2840432D01*
X1173938Y-2840432D01*
X1173938Y-2911144D01*
X1244650Y-2911144D01*
X1244650Y-3165144D02*
X1244650Y-3094432D01*
X1173938Y-3094432D01*
X1173938Y-3165144D01*
X1244650Y-3165144D01*
X1244650Y-3419144D02*
X1244650Y-3348432D01*
X1173938Y-3348432D01*
X1173938Y-3419144D01*
X1244650Y-3419144D01*
X1244650Y-3673144D02*
X1244650Y-3602432D01*
X1173938Y-3602432D01*
X1173938Y-3673144D01*
X1244650Y-3673144D01*
X1244650Y-3927144D02*
X1244650Y-3856432D01*
X1173938Y-3856432D01*
X1173938Y-3927144D01*
X1244650Y-3927144D01*
X1244650Y-4181144D02*
X1244650Y-4110432D01*
X1173938Y-4110432D01*
X1173938Y-4181144D01*
X1244650Y-4181144D01*
X1244650Y-4435144D02*
X1244650Y-4364432D01*
X1173938Y-4364432D01*
X1173938Y-4435144D01*
X1244650Y-4435144D01*
X1244650Y-4689144D02*
X1244650Y-4618432D01*
X1173938Y-4618432D01*
X1173938Y-4689144D01*
X1244650Y-4689144D01*
X1244650Y-4943144D02*
X1244650Y-4872432D01*
X1173938Y-4872432D01*
X1173938Y-4943144D01*
X1244650Y-4943144D01*
X1244650Y-5197144D02*
X1244650Y-5126432D01*
X1173938Y-5126432D01*
X1173938Y-5197144D01*
X1244650Y-5197144D01*
X1244650Y-5451144D02*
X1244650Y-5380432D01*
X1173938Y-5380432D01*
X1173938Y-5451144D01*
X1244650Y-5451144D01*
X1244650Y-5705144D02*
X1244650Y-5634432D01*
X1173938Y-5634432D01*
X1173938Y-5705144D01*
X1244650Y-5705144D01*
X1244650Y-5959144D02*
X1244650Y-5888432D01*
X1173938Y-5888432D01*
X1173938Y-5959144D01*
X1244650Y-5959144D01*
X2040356Y-8875356D02*
X2040356Y-8804644D01*
X1969644Y-8804644D01*
X1969644Y-8875356D01*
X2040356Y-8875356D01*
X2294356Y-8875356D02*
X2294356Y-8804644D01*
X2223644Y-8804644D01*
X2223644Y-8875356D01*
X2294356Y-8875356D01*
X2548356Y-8875356D02*
X2548356Y-8804644D01*
X2477644Y-8804644D01*
X2477644Y-8875356D01*
X2548356Y-8875356D01*
X2802356Y-8875356D02*
X2802356Y-8804644D01*
X2731644Y-8804644D01*
X2731644Y-8875356D01*
X2802356Y-8875356D01*
X6585356Y-5645356D02*
X6585356Y-5574644D01*
X6514644Y-5574644D01*
X6514644Y-5645356D01*
X6585356Y-5645356D01*
X6585356Y-5899356D02*
X6585356Y-5828644D01*
X6514644Y-5828644D01*
X6514644Y-5899356D01*
X6585356Y-5899356D01*
X6585356Y-6153356D02*
X6585356Y-6082644D01*
X6514644Y-6082644D01*
X6514644Y-6153356D01*
X6585356Y-6153356D01*
X6585356Y-6407356D02*
X6585356Y-6336644D01*
X6514644Y-6336644D01*
X6514644Y-6407356D01*
X6585356Y-6407356D01*
X6585356Y-6661356D02*
X6585356Y-6590644D01*
X6514644Y-6590644D01*
X6514644Y-6661356D01*
X6585356Y-6661356D01*
X6585356Y-6915356D02*
X6585356Y-6844644D01*
X6514644Y-6844644D01*
X6514644Y-6915356D01*
X6585356Y-6915356D01*
X6585356Y-7169356D02*
X6585356Y-7098644D01*
X6514644Y-7098644D01*
X6514644Y-7169356D01*
X6585356Y-7169356D01*
X6585356Y-7423356D02*
X6585356Y-7352644D01*
X6514644Y-7352644D01*
X6514644Y-7423356D01*
X6585356Y-7423356D01*
X6585356Y-7677356D02*
X6585356Y-7606644D01*
X6514644Y-7606644D01*
X6514644Y-7677356D01*
X6585356Y-7677356D01*
X6585356Y-7931356D02*
X6585356Y-7860644D01*
X6514644Y-7860644D01*
X6514644Y-7931356D01*
X6585356Y-7931356D01*
X6839356Y-5645356D02*
X6839356Y-5574644D01*
X6768644Y-5574644D01*
X6768644Y-5645356D01*
X6839356Y-5645356D01*
X6839356Y-5899356D02*
X6839356Y-5828644D01*
X6768644Y-5828644D01*
X6768644Y-5899356D01*
X6839356Y-5899356D01*
X6839356Y-6153356D02*
X6839356Y-6082644D01*
X6768644Y-6082644D01*
X6768644Y-6153356D01*
X6839356Y-6153356D01*
X6839356Y-6407356D02*
X6839356Y-6336644D01*
X6768644Y-6336644D01*
X6768644Y-6407356D01*
X6839356Y-6407356D01*
X6839356Y-6661356D02*
X6839356Y-6590644D01*
X6768644Y-6590644D01*
X6768644Y-6661356D01*
X6839356Y-6661356D01*
X6839356Y-6915356D02*
X6839356Y-6844644D01*
X6768644Y-6844644D01*
X6768644Y-6915356D01*
X6839356Y-6915356D01*
X6839356Y-7169356D02*
X6839356Y-7098644D01*
X6768644Y-7098644D01*
X6768644Y-7169356D01*
X6839356Y-7169356D01*
X6839356Y-7423356D02*
X6839356Y-7352644D01*
X6768644Y-7352644D01*
X6768644Y-7423356D01*
X6839356Y-7423356D01*
X6839356Y-7677356D02*
X6839356Y-7606644D01*
X6768644Y-7606644D01*
X6768644Y-7677356D01*
X6839356Y-7677356D01*
X6839356Y-7931356D02*
X6839356Y-7860644D01*
X6768644Y-7860644D01*
X6768644Y-7931356D01*
X6839356Y-7931356D01*
X6506260Y-4967262D02*
X6506260Y-4896550D01*
X6435548Y-4896550D01*
X6435548Y-4967262D01*
X6506260Y-4967262D01*
X6370904Y-4971906D02*
X6570904Y-4971906D01*
X6370904Y-4891906D02*
X6570904Y-4891906D01*
X6570904Y-4971906D02*
G75*
G03*
X6570904Y-4891906I0J40000D01*
G01*
X6370904Y-4891906D02*
G75*
G03*
X6370904Y-4971906I0J-40000D01*
G01*
X6806260Y-4477262D02*
X6806260Y-4406550D01*
X6735548Y-4406550D01*
X6735548Y-4477262D01*
X6806260Y-4477262D01*
X6810904Y-4541906D02*
X6810904Y-4341906D01*
X6730904Y-4541906D02*
X6730904Y-4341906D01*
X6810904Y-4341906D02*
G75*
G03*
X6730904Y-4341906I-40000J0D01*
G01*
X6730904Y-4541906D02*
G75*
G03*
X6810904Y-4541906I40000J0D01*
G01*
X7036260Y-4757262D02*
X7036260Y-4686550D01*
X6965548Y-4686550D01*
X6965548Y-4757262D01*
X7036260Y-4757262D01*
X7040904Y-4821906D02*
X7040904Y-4621906D01*
X6960904Y-4821906D02*
X6960904Y-4621906D01*
X7040904Y-4621906D02*
G75*
G03*
X6960904Y-4621906I-40000J0D01*
G01*
X6960904Y-4821906D02*
G75*
G03*
X7040904Y-4821906I40000J0D01*
G01*
X220356Y-8450356D02*
X220356Y-8379644D01*
X149644Y-8379644D01*
X149644Y-8450356D01*
X220356Y-8450356D01*
X220356Y-8704356D02*
X220356Y-8633644D01*
X149644Y-8633644D01*
X149644Y-8704356D01*
X220356Y-8704356D01*
X220356Y-8958356D02*
X220356Y-8887644D01*
X149644Y-8887644D01*
X149644Y-8958356D01*
X220356Y-8958356D01*
X1350000Y-8958212D02*
X1500000Y-8808212D01*
X1350000Y-8658212D01*
X1200000Y-8808212D01*
X1350000Y-8958212D01*
X1350000Y-650000D02*
X1500000Y-500000D01*
X1350000Y-350000D01*
X1200000Y-500000D01*
X1350000Y-650000D01*
X6692138Y-650000D02*
X6842138Y-500000D01*
X6692138Y-350000D01*
X6542138Y-500000D01*
X6692138Y-650000D01*
X6692138Y-8958212D02*
X6842138Y-8808212D01*
X6692138Y-8658212D01*
X6542138Y-8808212D01*
X6692138Y-8958212D01*
D12*
X281428Y-9770714D02*
X281428Y-9470714D01*
X352857Y-9470714D01*
X395714Y-9485000D01*
X424286Y-9513572D01*
X438571Y-9542143D01*
X452857Y-9599286D01*
X452857Y-9642143D01*
X438571Y-9699286D01*
X424286Y-9727857D01*
X395714Y-9756429D01*
X352857Y-9770714D01*
X281428Y-9770714D01*
X581428Y-9770714D02*
X581428Y-9570714D01*
X581428Y-9627857D02*
X595714Y-9599286D01*
X610000Y-9585000D01*
X638571Y-9570714D01*
X667143Y-9570714D01*
X767143Y-9770714D02*
X767143Y-9570714D01*
X767143Y-9470714D02*
X752857Y-9485000D01*
X767143Y-9499286D01*
X781428Y-9485000D01*
X767143Y-9470714D01*
X767143Y-9499286D01*
X952857Y-9770714D02*
X924286Y-9756429D01*
X910000Y-9727857D01*
X910000Y-9470714D01*
X1110000Y-9770714D02*
X1081428Y-9756429D01*
X1067143Y-9727857D01*
X1067143Y-9470714D01*
X1452857Y-9770714D02*
X1452857Y-9470714D01*
X1552857Y-9685000D01*
X1652857Y-9470714D01*
X1652857Y-9770714D01*
X1924286Y-9770714D02*
X1924286Y-9613572D01*
X1910000Y-9585000D01*
X1881428Y-9570714D01*
X1824286Y-9570714D01*
X1795714Y-9585000D01*
X1924286Y-9756429D02*
X1895714Y-9770714D01*
X1824286Y-9770714D01*
X1795714Y-9756429D01*
X1781428Y-9727857D01*
X1781428Y-9699286D01*
X1795714Y-9670714D01*
X1824286Y-9656429D01*
X1895714Y-9656429D01*
X1924286Y-9642143D01*
X2067143Y-9570714D02*
X2067143Y-9870714D01*
X2067143Y-9585000D02*
X2095714Y-9570714D01*
X2152857Y-9570714D01*
X2181428Y-9585000D01*
X2195714Y-9599286D01*
X2210000Y-9627857D01*
X2210000Y-9713572D01*
X2195714Y-9742143D01*
X2181428Y-9756429D01*
X2152857Y-9770714D01*
X2095714Y-9770714D01*
X2067143Y-9756429D01*
X2338571Y-9742143D02*
X2352857Y-9756429D01*
X2338571Y-9770714D01*
X2324286Y-9756429D01*
X2338571Y-9742143D01*
X2338571Y-9770714D01*
X2338571Y-9585000D02*
X2352857Y-9599286D01*
X2338571Y-9613572D01*
X2324286Y-9599286D01*
X2338571Y-9585000D01*
X2338571Y-9613572D01*
X-35000Y-10250000D02*
X-5000Y-10280000D01*
X-5000Y-10250000D02*
X-35000Y-10280000D01*
X338571Y-10100714D02*
X367143Y-10100714D01*
X395714Y-10115000D01*
X410000Y-10129286D01*
X424286Y-10157857D01*
X438571Y-10215000D01*
X438571Y-10286429D01*
X424286Y-10343572D01*
X410000Y-10372143D01*
X395714Y-10386429D01*
X367143Y-10400714D01*
X338571Y-10400714D01*
X310000Y-10386429D01*
X295714Y-10372143D01*
X281428Y-10343572D01*
X267143Y-10286429D01*
X267143Y-10215000D01*
X281428Y-10157857D01*
X295714Y-10129286D01*
X310000Y-10115000D01*
X338571Y-10100714D01*
X567143Y-10372143D02*
X581428Y-10386429D01*
X567143Y-10400714D01*
X552857Y-10386429D01*
X567143Y-10372143D01*
X567143Y-10400714D01*
X681428Y-10100714D02*
X867143Y-10100714D01*
X767143Y-10215000D01*
X810000Y-10215000D01*
X838571Y-10229286D01*
X852857Y-10243572D01*
X867143Y-10272143D01*
X867143Y-10343572D01*
X852857Y-10372143D01*
X838571Y-10386429D01*
X810000Y-10400714D01*
X724286Y-10400714D01*
X695714Y-10386429D01*
X681428Y-10372143D01*
X1052857Y-10100714D02*
X1081428Y-10100714D01*
X1110000Y-10115000D01*
X1124286Y-10129286D01*
X1138571Y-10157857D01*
X1152857Y-10215000D01*
X1152857Y-10286429D01*
X1138571Y-10343572D01*
X1124286Y-10372143D01*
X1110000Y-10386429D01*
X1081428Y-10400714D01*
X1052857Y-10400714D01*
X1024286Y-10386429D01*
X1010000Y-10372143D01*
X995714Y-10343572D01*
X981428Y-10286429D01*
X981428Y-10215000D01*
X995714Y-10157857D01*
X1010000Y-10129286D01*
X1024286Y-10115000D01*
X1052857Y-10100714D01*
X1281428Y-10400714D02*
X1281428Y-10200714D01*
X1281428Y-10229286D02*
X1295714Y-10215000D01*
X1324286Y-10200714D01*
X1367143Y-10200714D01*
X1395714Y-10215000D01*
X1410000Y-10243572D01*
X1410000Y-10400714D01*
X1410000Y-10243572D02*
X1424286Y-10215000D01*
X1452857Y-10200714D01*
X1495714Y-10200714D01*
X1524286Y-10215000D01*
X1538571Y-10243572D01*
X1538571Y-10400714D01*
X1681428Y-10400714D02*
X1681428Y-10200714D01*
X1681428Y-10229286D02*
X1695714Y-10215000D01*
X1724286Y-10200714D01*
X1767143Y-10200714D01*
X1795714Y-10215000D01*
X1810000Y-10243572D01*
X1810000Y-10400714D01*
X1810000Y-10243572D02*
X1824286Y-10215000D01*
X1852857Y-10200714D01*
X1895714Y-10200714D01*
X1924286Y-10215000D01*
X1938571Y-10243572D01*
X1938571Y-10400714D01*
X2524286Y-10086429D02*
X2267143Y-10472143D01*
X2910000Y-10100714D02*
X2938571Y-10100714D01*
X2967143Y-10115000D01*
X2981428Y-10129286D01*
X2995714Y-10157857D01*
X3010000Y-10215000D01*
X3010000Y-10286429D01*
X2995714Y-10343572D01*
X2981428Y-10372143D01*
X2967143Y-10386429D01*
X2938571Y-10400714D01*
X2910000Y-10400714D01*
X2881428Y-10386429D01*
X2867143Y-10372143D01*
X2852857Y-10343572D01*
X2838571Y-10286429D01*
X2838571Y-10215000D01*
X2852857Y-10157857D01*
X2867143Y-10129286D01*
X2881428Y-10115000D01*
X2910000Y-10100714D01*
X3138571Y-10372143D02*
X3152857Y-10386429D01*
X3138571Y-10400714D01*
X3124286Y-10386429D01*
X3138571Y-10372143D01*
X3138571Y-10400714D01*
X3338571Y-10100714D02*
X3367143Y-10100714D01*
X3395714Y-10115000D01*
X3410000Y-10129286D01*
X3424286Y-10157857D01*
X3438571Y-10215000D01*
X3438571Y-10286429D01*
X3424286Y-10343572D01*
X3410000Y-10372143D01*
X3395714Y-10386429D01*
X3367143Y-10400714D01*
X3338571Y-10400714D01*
X3310000Y-10386429D01*
X3295714Y-10372143D01*
X3281428Y-10343572D01*
X3267143Y-10286429D01*
X3267143Y-10215000D01*
X3281428Y-10157857D01*
X3295714Y-10129286D01*
X3310000Y-10115000D01*
X3338571Y-10100714D01*
X3724286Y-10400714D02*
X3552857Y-10400714D01*
X3638571Y-10400714D02*
X3638571Y-10100714D01*
X3610000Y-10143572D01*
X3581428Y-10172143D01*
X3552857Y-10186429D01*
X3838571Y-10129286D02*
X3852857Y-10115000D01*
X3881428Y-10100714D01*
X3952857Y-10100714D01*
X3981428Y-10115000D01*
X3995714Y-10129286D01*
X4010000Y-10157857D01*
X4010000Y-10186429D01*
X3995714Y-10229286D01*
X3824286Y-10400714D01*
X4010000Y-10400714D01*
X4124286Y-10100714D02*
X4124286Y-10157857D01*
X4238571Y-10100714D02*
X4238571Y-10157857D01*
X4681428Y-10515000D02*
X4667143Y-10500714D01*
X4638571Y-10457857D01*
X4624286Y-10429286D01*
X4610000Y-10386429D01*
X4595714Y-10315000D01*
X4595714Y-10257857D01*
X4610000Y-10186429D01*
X4624286Y-10143572D01*
X4638571Y-10115000D01*
X4667143Y-10072143D01*
X4681428Y-10057857D01*
X4781428Y-10129286D02*
X4795714Y-10115000D01*
X4824286Y-10100714D01*
X4895714Y-10100714D01*
X4924286Y-10115000D01*
X4938571Y-10129286D01*
X4952857Y-10157857D01*
X4952857Y-10186429D01*
X4938571Y-10229286D01*
X4767143Y-10400714D01*
X4952857Y-10400714D01*
X5210000Y-10200714D02*
X5210000Y-10400714D01*
X5138571Y-10086429D02*
X5067143Y-10300714D01*
X5252857Y-10300714D01*
X5595714Y-10400714D02*
X5595714Y-10100714D01*
X5724286Y-10400714D02*
X5724286Y-10243572D01*
X5710000Y-10215000D01*
X5681428Y-10200714D01*
X5638571Y-10200714D01*
X5610000Y-10215000D01*
X5595714Y-10229286D01*
X5910000Y-10400714D02*
X5881428Y-10386429D01*
X5867143Y-10372143D01*
X5852857Y-10343572D01*
X5852857Y-10257857D01*
X5867143Y-10229286D01*
X5881428Y-10215000D01*
X5910000Y-10200714D01*
X5952857Y-10200714D01*
X5981428Y-10215000D01*
X5995714Y-10229286D01*
X6010000Y-10257857D01*
X6010000Y-10343572D01*
X5995714Y-10372143D01*
X5981428Y-10386429D01*
X5952857Y-10400714D01*
X5910000Y-10400714D01*
X6181428Y-10400714D02*
X6152857Y-10386429D01*
X6138571Y-10357857D01*
X6138571Y-10100714D01*
X6410000Y-10386429D02*
X6381428Y-10400714D01*
X6324286Y-10400714D01*
X6295714Y-10386429D01*
X6281428Y-10357857D01*
X6281428Y-10243572D01*
X6295714Y-10215000D01*
X6324286Y-10200714D01*
X6381428Y-10200714D01*
X6410000Y-10215000D01*
X6424286Y-10243572D01*
X6424286Y-10272143D01*
X6281428Y-10300714D01*
X6538571Y-10386429D02*
X6567143Y-10400714D01*
X6624286Y-10400714D01*
X6652857Y-10386429D01*
X6667143Y-10357857D01*
X6667143Y-10343572D01*
X6652857Y-10315000D01*
X6624286Y-10300714D01*
X6581428Y-10300714D01*
X6552857Y-10286429D01*
X6538571Y-10257857D01*
X6538571Y-10243572D01*
X6552857Y-10215000D01*
X6581428Y-10200714D01*
X6624286Y-10200714D01*
X6652857Y-10215000D01*
X6767143Y-10515000D02*
X6781428Y-10500714D01*
X6810000Y-10457857D01*
X6824286Y-10429286D01*
X6838571Y-10386429D01*
X6852857Y-10315000D01*
X6852857Y-10257857D01*
X6838571Y-10186429D01*
X6824286Y-10143572D01*
X6810000Y-10115000D01*
X6781428Y-10072143D01*
X6767143Y-10057857D01*
X-5000Y-10661000D02*
G75*
G03*
X-5000Y-10661000I-20000J0D01*
G01*
X338571Y-10496714D02*
X367143Y-10496714D01*
X395714Y-10511000D01*
X410000Y-10525286D01*
X424286Y-10553857D01*
X438571Y-10611000D01*
X438571Y-10682429D01*
X424286Y-10739572D01*
X410000Y-10768143D01*
X395714Y-10782429D01*
X367143Y-10796714D01*
X338571Y-10796714D01*
X310000Y-10782429D01*
X295714Y-10768143D01*
X281428Y-10739572D01*
X267143Y-10682429D01*
X267143Y-10611000D01*
X281428Y-10553857D01*
X295714Y-10525286D01*
X310000Y-10511000D01*
X338571Y-10496714D01*
X567143Y-10768143D02*
X581428Y-10782429D01*
X567143Y-10796714D01*
X552857Y-10782429D01*
X567143Y-10768143D01*
X567143Y-10796714D01*
X838571Y-10596714D02*
X838571Y-10796714D01*
X767143Y-10482429D02*
X695714Y-10696714D01*
X881428Y-10696714D01*
X1052857Y-10496714D02*
X1081428Y-10496714D01*
X1110000Y-10511000D01*
X1124286Y-10525286D01*
X1138571Y-10553857D01*
X1152857Y-10611000D01*
X1152857Y-10682429D01*
X1138571Y-10739572D01*
X1124286Y-10768143D01*
X1110000Y-10782429D01*
X1081428Y-10796714D01*
X1052857Y-10796714D01*
X1024286Y-10782429D01*
X1010000Y-10768143D01*
X995714Y-10739572D01*
X981428Y-10682429D01*
X981428Y-10611000D01*
X995714Y-10553857D01*
X1010000Y-10525286D01*
X1024286Y-10511000D01*
X1052857Y-10496714D01*
X1281428Y-10796714D02*
X1281428Y-10596714D01*
X1281428Y-10625286D02*
X1295714Y-10611000D01*
X1324286Y-10596714D01*
X1367143Y-10596714D01*
X1395714Y-10611000D01*
X1410000Y-10639572D01*
X1410000Y-10796714D01*
X1410000Y-10639572D02*
X1424286Y-10611000D01*
X1452857Y-10596714D01*
X1495714Y-10596714D01*
X1524286Y-10611000D01*
X1538571Y-10639572D01*
X1538571Y-10796714D01*
X1681428Y-10796714D02*
X1681428Y-10596714D01*
X1681428Y-10625286D02*
X1695714Y-10611000D01*
X1724286Y-10596714D01*
X1767143Y-10596714D01*
X1795714Y-10611000D01*
X1810000Y-10639572D01*
X1810000Y-10796714D01*
X1810000Y-10639572D02*
X1824286Y-10611000D01*
X1852857Y-10596714D01*
X1895714Y-10596714D01*
X1924286Y-10611000D01*
X1938571Y-10639572D01*
X1938571Y-10796714D01*
X2524286Y-10482429D02*
X2267143Y-10868143D01*
X2910000Y-10496714D02*
X2938571Y-10496714D01*
X2967143Y-10511000D01*
X2981428Y-10525286D01*
X2995714Y-10553857D01*
X3010000Y-10611000D01*
X3010000Y-10682429D01*
X2995714Y-10739572D01*
X2981428Y-10768143D01*
X2967143Y-10782429D01*
X2938571Y-10796714D01*
X2910000Y-10796714D01*
X2881428Y-10782429D01*
X2867143Y-10768143D01*
X2852857Y-10739572D01*
X2838571Y-10682429D01*
X2838571Y-10611000D01*
X2852857Y-10553857D01*
X2867143Y-10525286D01*
X2881428Y-10511000D01*
X2910000Y-10496714D01*
X3138571Y-10768143D02*
X3152857Y-10782429D01*
X3138571Y-10796714D01*
X3124286Y-10782429D01*
X3138571Y-10768143D01*
X3138571Y-10796714D01*
X3338571Y-10496714D02*
X3367143Y-10496714D01*
X3395714Y-10511000D01*
X3410000Y-10525286D01*
X3424286Y-10553857D01*
X3438571Y-10611000D01*
X3438571Y-10682429D01*
X3424286Y-10739572D01*
X3410000Y-10768143D01*
X3395714Y-10782429D01*
X3367143Y-10796714D01*
X3338571Y-10796714D01*
X3310000Y-10782429D01*
X3295714Y-10768143D01*
X3281428Y-10739572D01*
X3267143Y-10682429D01*
X3267143Y-10611000D01*
X3281428Y-10553857D01*
X3295714Y-10525286D01*
X3310000Y-10511000D01*
X3338571Y-10496714D01*
X3724286Y-10796714D02*
X3552857Y-10796714D01*
X3638571Y-10796714D02*
X3638571Y-10496714D01*
X3610000Y-10539572D01*
X3581428Y-10568143D01*
X3552857Y-10582429D01*
X3981428Y-10496714D02*
X3924286Y-10496714D01*
X3895714Y-10511000D01*
X3881428Y-10525286D01*
X3852857Y-10568143D01*
X3838571Y-10625286D01*
X3838571Y-10739572D01*
X3852857Y-10768143D01*
X3867143Y-10782429D01*
X3895714Y-10796714D01*
X3952857Y-10796714D01*
X3981428Y-10782429D01*
X3995714Y-10768143D01*
X4010000Y-10739572D01*
X4010000Y-10668143D01*
X3995714Y-10639572D01*
X3981428Y-10625286D01*
X3952857Y-10611000D01*
X3895714Y-10611000D01*
X3867143Y-10625286D01*
X3852857Y-10639572D01*
X3838571Y-10668143D01*
X4124286Y-10496714D02*
X4124286Y-10553857D01*
X4238571Y-10496714D02*
X4238571Y-10553857D01*
X4681428Y-10911000D02*
X4667143Y-10896714D01*
X4638571Y-10853857D01*
X4624286Y-10825286D01*
X4610000Y-10782429D01*
X4595714Y-10711000D01*
X4595714Y-10653857D01*
X4610000Y-10582429D01*
X4624286Y-10539572D01*
X4638571Y-10511000D01*
X4667143Y-10468143D01*
X4681428Y-10453857D01*
X4938571Y-10496714D02*
X4795714Y-10496714D01*
X4781428Y-10639572D01*
X4795714Y-10625286D01*
X4824286Y-10611000D01*
X4895714Y-10611000D01*
X4924286Y-10625286D01*
X4938571Y-10639572D01*
X4952857Y-10668143D01*
X4952857Y-10739572D01*
X4938571Y-10768143D01*
X4924286Y-10782429D01*
X4895714Y-10796714D01*
X4824286Y-10796714D01*
X4795714Y-10782429D01*
X4781428Y-10768143D01*
X5052857Y-10496714D02*
X5238571Y-10496714D01*
X5138571Y-10611000D01*
X5181428Y-10611000D01*
X5210000Y-10625286D01*
X5224286Y-10639572D01*
X5238571Y-10668143D01*
X5238571Y-10739572D01*
X5224286Y-10768143D01*
X5210000Y-10782429D01*
X5181428Y-10796714D01*
X5095714Y-10796714D01*
X5067143Y-10782429D01*
X5052857Y-10768143D01*
X5524286Y-10796714D02*
X5352857Y-10796714D01*
X5438571Y-10796714D02*
X5438571Y-10496714D01*
X5410000Y-10539572D01*
X5381428Y-10568143D01*
X5352857Y-10582429D01*
X5881428Y-10796714D02*
X5881428Y-10496714D01*
X6010000Y-10796714D02*
X6010000Y-10639572D01*
X5995714Y-10611000D01*
X5967143Y-10596714D01*
X5924286Y-10596714D01*
X5895714Y-10611000D01*
X5881428Y-10625286D01*
X6195714Y-10796714D02*
X6167143Y-10782429D01*
X6152857Y-10768143D01*
X6138571Y-10739572D01*
X6138571Y-10653857D01*
X6152857Y-10625286D01*
X6167143Y-10611000D01*
X6195714Y-10596714D01*
X6238571Y-10596714D01*
X6267143Y-10611000D01*
X6281428Y-10625286D01*
X6295714Y-10653857D01*
X6295714Y-10739572D01*
X6281428Y-10768143D01*
X6267143Y-10782429D01*
X6238571Y-10796714D01*
X6195714Y-10796714D01*
X6467143Y-10796714D02*
X6438571Y-10782429D01*
X6424286Y-10753857D01*
X6424286Y-10496714D01*
X6695714Y-10782429D02*
X6667143Y-10796714D01*
X6610000Y-10796714D01*
X6581428Y-10782429D01*
X6567143Y-10753857D01*
X6567143Y-10639572D01*
X6581428Y-10611000D01*
X6610000Y-10596714D01*
X6667143Y-10596714D01*
X6695714Y-10611000D01*
X6710000Y-10639572D01*
X6710000Y-10668143D01*
X6567143Y-10696714D01*
X6824286Y-10782429D02*
X6852857Y-10796714D01*
X6910000Y-10796714D01*
X6938571Y-10782429D01*
X6952857Y-10753857D01*
X6952857Y-10739572D01*
X6938571Y-10711000D01*
X6910000Y-10696714D01*
X6867143Y-10696714D01*
X6838571Y-10682429D01*
X6824286Y-10653857D01*
X6824286Y-10639572D01*
X6838571Y-10611000D01*
X6867143Y-10596714D01*
X6910000Y-10596714D01*
X6938571Y-10611000D01*
X7052857Y-10911000D02*
X7067143Y-10896714D01*
X7095714Y-10853857D01*
X7110000Y-10825286D01*
X7124286Y-10782429D01*
X7138571Y-10711000D01*
X7138571Y-10653857D01*
X7124286Y-10582429D01*
X7110000Y-10539572D01*
X7095714Y-10511000D01*
X7067143Y-10468143D01*
X7052857Y-10453857D01*
X-35000Y-11027000D02*
X-35000Y-11087000D01*
X-65000Y-11057000D02*
X-5000Y-11057000D01*
X338571Y-10892714D02*
X367143Y-10892714D01*
X395714Y-10907000D01*
X410000Y-10921286D01*
X424286Y-10949857D01*
X438571Y-11007000D01*
X438571Y-11078429D01*
X424286Y-11135572D01*
X410000Y-11164143D01*
X395714Y-11178429D01*
X367143Y-11192714D01*
X338571Y-11192714D01*
X310000Y-11178429D01*
X295714Y-11164143D01*
X281428Y-11135572D01*
X267143Y-11078429D01*
X267143Y-11007000D01*
X281428Y-10949857D01*
X295714Y-10921286D01*
X310000Y-10907000D01*
X338571Y-10892714D01*
X567143Y-11164143D02*
X581428Y-11178429D01*
X567143Y-11192714D01*
X552857Y-11178429D01*
X567143Y-11164143D01*
X567143Y-11192714D01*
X838571Y-10892714D02*
X781428Y-10892714D01*
X752857Y-10907000D01*
X738571Y-10921286D01*
X710000Y-10964143D01*
X695714Y-11021286D01*
X695714Y-11135572D01*
X710000Y-11164143D01*
X724286Y-11178429D01*
X752857Y-11192714D01*
X810000Y-11192714D01*
X838571Y-11178429D01*
X852857Y-11164143D01*
X867143Y-11135572D01*
X867143Y-11064143D01*
X852857Y-11035572D01*
X838571Y-11021286D01*
X810000Y-11007000D01*
X752857Y-11007000D01*
X724286Y-11021286D01*
X710000Y-11035572D01*
X695714Y-11064143D01*
X1052857Y-10892714D02*
X1081428Y-10892714D01*
X1110000Y-10907000D01*
X1124286Y-10921286D01*
X1138571Y-10949857D01*
X1152857Y-11007000D01*
X1152857Y-11078429D01*
X1138571Y-11135572D01*
X1124286Y-11164143D01*
X1110000Y-11178429D01*
X1081428Y-11192714D01*
X1052857Y-11192714D01*
X1024286Y-11178429D01*
X1010000Y-11164143D01*
X995714Y-11135572D01*
X981428Y-11078429D01*
X981428Y-11007000D01*
X995714Y-10949857D01*
X1010000Y-10921286D01*
X1024286Y-10907000D01*
X1052857Y-10892714D01*
X1281428Y-11192714D02*
X1281428Y-10992714D01*
X1281428Y-11021286D02*
X1295714Y-11007000D01*
X1324286Y-10992714D01*
X1367143Y-10992714D01*
X1395714Y-11007000D01*
X1410000Y-11035572D01*
X1410000Y-11192714D01*
X1410000Y-11035572D02*
X1424286Y-11007000D01*
X1452857Y-10992714D01*
X1495714Y-10992714D01*
X1524286Y-11007000D01*
X1538571Y-11035572D01*
X1538571Y-11192714D01*
X1681428Y-11192714D02*
X1681428Y-10992714D01*
X1681428Y-11021286D02*
X1695714Y-11007000D01*
X1724286Y-10992714D01*
X1767143Y-10992714D01*
X1795714Y-11007000D01*
X1810000Y-11035572D01*
X1810000Y-11192714D01*
X1810000Y-11035572D02*
X1824286Y-11007000D01*
X1852857Y-10992714D01*
X1895714Y-10992714D01*
X1924286Y-11007000D01*
X1938571Y-11035572D01*
X1938571Y-11192714D01*
X2524286Y-10878429D02*
X2267143Y-11264143D01*
X2910000Y-10892714D02*
X2938571Y-10892714D01*
X2967143Y-10907000D01*
X2981428Y-10921286D01*
X2995714Y-10949857D01*
X3010000Y-11007000D01*
X3010000Y-11078429D01*
X2995714Y-11135572D01*
X2981428Y-11164143D01*
X2967143Y-11178429D01*
X2938571Y-11192714D01*
X2910000Y-11192714D01*
X2881428Y-11178429D01*
X2867143Y-11164143D01*
X2852857Y-11135572D01*
X2838571Y-11078429D01*
X2838571Y-11007000D01*
X2852857Y-10949857D01*
X2867143Y-10921286D01*
X2881428Y-10907000D01*
X2910000Y-10892714D01*
X3138571Y-11164143D02*
X3152857Y-11178429D01*
X3138571Y-11192714D01*
X3124286Y-11178429D01*
X3138571Y-11164143D01*
X3138571Y-11192714D01*
X3338571Y-10892714D02*
X3367143Y-10892714D01*
X3395714Y-10907000D01*
X3410000Y-10921286D01*
X3424286Y-10949857D01*
X3438571Y-11007000D01*
X3438571Y-11078429D01*
X3424286Y-11135572D01*
X3410000Y-11164143D01*
X3395714Y-11178429D01*
X3367143Y-11192714D01*
X3338571Y-11192714D01*
X3310000Y-11178429D01*
X3295714Y-11164143D01*
X3281428Y-11135572D01*
X3267143Y-11078429D01*
X3267143Y-11007000D01*
X3281428Y-10949857D01*
X3295714Y-10921286D01*
X3310000Y-10907000D01*
X3338571Y-10892714D01*
X3552857Y-10921286D02*
X3567143Y-10907000D01*
X3595714Y-10892714D01*
X3667143Y-10892714D01*
X3695714Y-10907000D01*
X3710000Y-10921286D01*
X3724286Y-10949857D01*
X3724286Y-10978429D01*
X3710000Y-11021286D01*
X3538571Y-11192714D01*
X3724286Y-11192714D01*
X3981428Y-10992714D02*
X3981428Y-11192714D01*
X3910000Y-10878429D02*
X3838571Y-11092714D01*
X4024286Y-11092714D01*
X4124286Y-10892714D02*
X4124286Y-10949857D01*
X4238571Y-10892714D02*
X4238571Y-10949857D01*
X4681428Y-11307000D02*
X4667143Y-11292714D01*
X4638571Y-11249857D01*
X4624286Y-11221286D01*
X4610000Y-11178429D01*
X4595714Y-11107000D01*
X4595714Y-11049857D01*
X4610000Y-10978429D01*
X4624286Y-10935572D01*
X4638571Y-10907000D01*
X4667143Y-10864143D01*
X4681428Y-10849857D01*
X4852857Y-10892714D02*
X4881428Y-10892714D01*
X4910000Y-10907000D01*
X4924286Y-10921286D01*
X4938571Y-10949857D01*
X4952857Y-11007000D01*
X4952857Y-11078429D01*
X4938571Y-11135572D01*
X4924286Y-11164143D01*
X4910000Y-11178429D01*
X4881428Y-11192714D01*
X4852857Y-11192714D01*
X4824286Y-11178429D01*
X4810000Y-11164143D01*
X4795714Y-11135572D01*
X4781428Y-11078429D01*
X4781428Y-11007000D01*
X4795714Y-10949857D01*
X4810000Y-10921286D01*
X4824286Y-10907000D01*
X4852857Y-10892714D01*
X5310000Y-11192714D02*
X5310000Y-10892714D01*
X5438571Y-11192714D02*
X5438571Y-11035572D01*
X5424286Y-11007000D01*
X5395714Y-10992714D01*
X5352857Y-10992714D01*
X5324286Y-11007000D01*
X5310000Y-11021286D01*
X5624286Y-11192714D02*
X5595714Y-11178429D01*
X5581428Y-11164143D01*
X5567143Y-11135572D01*
X5567143Y-11049857D01*
X5581428Y-11021286D01*
X5595714Y-11007000D01*
X5624286Y-10992714D01*
X5667143Y-10992714D01*
X5695714Y-11007000D01*
X5710000Y-11021286D01*
X5724286Y-11049857D01*
X5724286Y-11135572D01*
X5710000Y-11164143D01*
X5695714Y-11178429D01*
X5667143Y-11192714D01*
X5624286Y-11192714D01*
X5895714Y-11192714D02*
X5867143Y-11178429D01*
X5852857Y-11149857D01*
X5852857Y-10892714D01*
X6124286Y-11178429D02*
X6095714Y-11192714D01*
X6038571Y-11192714D01*
X6010000Y-11178429D01*
X5995714Y-11149857D01*
X5995714Y-11035572D01*
X6010000Y-11007000D01*
X6038571Y-10992714D01*
X6095714Y-10992714D01*
X6124286Y-11007000D01*
X6138571Y-11035572D01*
X6138571Y-11064143D01*
X5995714Y-11092714D01*
X6252857Y-11178429D02*
X6281428Y-11192714D01*
X6338571Y-11192714D01*
X6367143Y-11178429D01*
X6381428Y-11149857D01*
X6381428Y-11135572D01*
X6367143Y-11107000D01*
X6338571Y-11092714D01*
X6295714Y-11092714D01*
X6267143Y-11078429D01*
X6252857Y-11049857D01*
X6252857Y-11035572D01*
X6267143Y-11007000D01*
X6295714Y-10992714D01*
X6338571Y-10992714D01*
X6367143Y-11007000D01*
X6738571Y-11078429D02*
X6967143Y-11078429D01*
X6852857Y-11192714D02*
X6852857Y-10964143D01*
X7310000Y-10892714D02*
X7510000Y-10892714D01*
X7381428Y-11192714D01*
X7838571Y-11178429D02*
X7867143Y-11192714D01*
X7924286Y-11192714D01*
X7952857Y-11178429D01*
X7967143Y-11149857D01*
X7967143Y-11135572D01*
X7952857Y-11107000D01*
X7924286Y-11092714D01*
X7881428Y-11092714D01*
X7852857Y-11078429D01*
X7838571Y-11049857D01*
X7838571Y-11035572D01*
X7852857Y-11007000D01*
X7881428Y-10992714D01*
X7924286Y-10992714D01*
X7952857Y-11007000D01*
X8138571Y-11192714D02*
X8110000Y-11178429D01*
X8095714Y-11149857D01*
X8095714Y-10892714D01*
X8295714Y-11192714D02*
X8267143Y-11178429D01*
X8252857Y-11164143D01*
X8238571Y-11135572D01*
X8238571Y-11049857D01*
X8252857Y-11021286D01*
X8267143Y-11007000D01*
X8295714Y-10992714D01*
X8338571Y-10992714D01*
X8367143Y-11007000D01*
X8381428Y-11021286D01*
X8395714Y-11049857D01*
X8395714Y-11135572D01*
X8381428Y-11164143D01*
X8367143Y-11178429D01*
X8338571Y-11192714D01*
X8295714Y-11192714D01*
X8481428Y-10992714D02*
X8595714Y-10992714D01*
X8524286Y-10892714D02*
X8524286Y-11149857D01*
X8538571Y-11178429D01*
X8567143Y-11192714D01*
X8595714Y-11192714D01*
X8681428Y-11178429D02*
X8710000Y-11192714D01*
X8767143Y-11192714D01*
X8795714Y-11178429D01*
X8810000Y-11149857D01*
X8810000Y-11135572D01*
X8795714Y-11107000D01*
X8767143Y-11092714D01*
X8724286Y-11092714D01*
X8695714Y-11078429D01*
X8681428Y-11049857D01*
X8681428Y-11035572D01*
X8695714Y-11007000D01*
X8724286Y-10992714D01*
X8767143Y-10992714D01*
X8795714Y-11007000D01*
X8910000Y-11307000D02*
X8924286Y-11292714D01*
X8952857Y-11249857D01*
X8967143Y-11221286D01*
X8981428Y-11178429D01*
X8995714Y-11107000D01*
X8995714Y-11049857D01*
X8981428Y-10978429D01*
X8967143Y-10935572D01*
X8952857Y-10907000D01*
X8924286Y-10864143D01*
X8910000Y-10849857D01*
X-19644Y-11488356D02*
X-19644Y-11417644D01*
X-90356Y-11417644D01*
X-90356Y-11488356D01*
X-19644Y-11488356D01*
X438571Y-11588714D02*
X267143Y-11588714D01*
X352857Y-11588714D02*
X352857Y-11288714D01*
X324286Y-11331571D01*
X295714Y-11360143D01*
X267143Y-11374429D01*
X567143Y-11560143D02*
X581428Y-11574429D01*
X567143Y-11588714D01*
X552857Y-11574429D01*
X567143Y-11560143D01*
X567143Y-11588714D01*
X767143Y-11288714D02*
X795714Y-11288714D01*
X824286Y-11303000D01*
X838571Y-11317286D01*
X852857Y-11345857D01*
X867143Y-11403000D01*
X867143Y-11474429D01*
X852857Y-11531571D01*
X838571Y-11560143D01*
X824286Y-11574429D01*
X795714Y-11588714D01*
X767143Y-11588714D01*
X738571Y-11574429D01*
X724286Y-11560143D01*
X710000Y-11531571D01*
X695714Y-11474429D01*
X695714Y-11403000D01*
X710000Y-11345857D01*
X724286Y-11317286D01*
X738571Y-11303000D01*
X767143Y-11288714D01*
X1052857Y-11288714D02*
X1081428Y-11288714D01*
X1110000Y-11303000D01*
X1124286Y-11317286D01*
X1138571Y-11345857D01*
X1152857Y-11403000D01*
X1152857Y-11474429D01*
X1138571Y-11531571D01*
X1124286Y-11560143D01*
X1110000Y-11574429D01*
X1081428Y-11588714D01*
X1052857Y-11588714D01*
X1024286Y-11574429D01*
X1010000Y-11560143D01*
X995714Y-11531571D01*
X981428Y-11474429D01*
X981428Y-11403000D01*
X995714Y-11345857D01*
X1010000Y-11317286D01*
X1024286Y-11303000D01*
X1052857Y-11288714D01*
X1281428Y-11588714D02*
X1281428Y-11388714D01*
X1281428Y-11417286D02*
X1295714Y-11403000D01*
X1324286Y-11388714D01*
X1367143Y-11388714D01*
X1395714Y-11403000D01*
X1410000Y-11431571D01*
X1410000Y-11588714D01*
X1410000Y-11431571D02*
X1424286Y-11403000D01*
X1452857Y-11388714D01*
X1495714Y-11388714D01*
X1524286Y-11403000D01*
X1538571Y-11431571D01*
X1538571Y-11588714D01*
X1681428Y-11588714D02*
X1681428Y-11388714D01*
X1681428Y-11417286D02*
X1695714Y-11403000D01*
X1724286Y-11388714D01*
X1767143Y-11388714D01*
X1795714Y-11403000D01*
X1810000Y-11431571D01*
X1810000Y-11588714D01*
X1810000Y-11431571D02*
X1824286Y-11403000D01*
X1852857Y-11388714D01*
X1895714Y-11388714D01*
X1924286Y-11403000D01*
X1938571Y-11431571D01*
X1938571Y-11588714D01*
X2524286Y-11274429D02*
X2267143Y-11660143D01*
X2910000Y-11288714D02*
X2938571Y-11288714D01*
X2967143Y-11303000D01*
X2981428Y-11317286D01*
X2995714Y-11345857D01*
X3010000Y-11403000D01*
X3010000Y-11474429D01*
X2995714Y-11531571D01*
X2981428Y-11560143D01*
X2967143Y-11574429D01*
X2938571Y-11588714D01*
X2910000Y-11588714D01*
X2881428Y-11574429D01*
X2867143Y-11560143D01*
X2852857Y-11531571D01*
X2838571Y-11474429D01*
X2838571Y-11403000D01*
X2852857Y-11345857D01*
X2867143Y-11317286D01*
X2881428Y-11303000D01*
X2910000Y-11288714D01*
X3138571Y-11560143D02*
X3152857Y-11574429D01*
X3138571Y-11588714D01*
X3124286Y-11574429D01*
X3138571Y-11560143D01*
X3138571Y-11588714D01*
X3338571Y-11288714D02*
X3367143Y-11288714D01*
X3395714Y-11303000D01*
X3410000Y-11317286D01*
X3424286Y-11345857D01*
X3438571Y-11403000D01*
X3438571Y-11474429D01*
X3424286Y-11531571D01*
X3410000Y-11560143D01*
X3395714Y-11574429D01*
X3367143Y-11588714D01*
X3338571Y-11588714D01*
X3310000Y-11574429D01*
X3295714Y-11560143D01*
X3281428Y-11531571D01*
X3267143Y-11474429D01*
X3267143Y-11403000D01*
X3281428Y-11345857D01*
X3295714Y-11317286D01*
X3310000Y-11303000D01*
X3338571Y-11288714D01*
X3538571Y-11288714D02*
X3724286Y-11288714D01*
X3624286Y-11403000D01*
X3667143Y-11403000D01*
X3695714Y-11417286D01*
X3710000Y-11431571D01*
X3724286Y-11460143D01*
X3724286Y-11531571D01*
X3710000Y-11560143D01*
X3695714Y-11574429D01*
X3667143Y-11588714D01*
X3581428Y-11588714D01*
X3552857Y-11574429D01*
X3538571Y-11560143D01*
X3867143Y-11588714D02*
X3924286Y-11588714D01*
X3952857Y-11574429D01*
X3967143Y-11560143D01*
X3995714Y-11517286D01*
X4010000Y-11460143D01*
X4010000Y-11345857D01*
X3995714Y-11317286D01*
X3981428Y-11303000D01*
X3952857Y-11288714D01*
X3895714Y-11288714D01*
X3867143Y-11303000D01*
X3852857Y-11317286D01*
X3838571Y-11345857D01*
X3838571Y-11417286D01*
X3852857Y-11445857D01*
X3867143Y-11460143D01*
X3895714Y-11474429D01*
X3952857Y-11474429D01*
X3981428Y-11460143D01*
X3995714Y-11445857D01*
X4010000Y-11417286D01*
X4124286Y-11288714D02*
X4124286Y-11345857D01*
X4238571Y-11288714D02*
X4238571Y-11345857D01*
X4681428Y-11703000D02*
X4667143Y-11688714D01*
X4638571Y-11645857D01*
X4624286Y-11617286D01*
X4610000Y-11574429D01*
X4595714Y-11503000D01*
X4595714Y-11445857D01*
X4610000Y-11374429D01*
X4624286Y-11331571D01*
X4638571Y-11303000D01*
X4667143Y-11260143D01*
X4681428Y-11245857D01*
X4838571Y-11417286D02*
X4810000Y-11403000D01*
X4795714Y-11388714D01*
X4781428Y-11360143D01*
X4781428Y-11345857D01*
X4795714Y-11317286D01*
X4810000Y-11303000D01*
X4838571Y-11288714D01*
X4895714Y-11288714D01*
X4924286Y-11303000D01*
X4938571Y-11317286D01*
X4952857Y-11345857D01*
X4952857Y-11360143D01*
X4938571Y-11388714D01*
X4924286Y-11403000D01*
X4895714Y-11417286D01*
X4838571Y-11417286D01*
X4810000Y-11431571D01*
X4795714Y-11445857D01*
X4781428Y-11474429D01*
X4781428Y-11531571D01*
X4795714Y-11560143D01*
X4810000Y-11574429D01*
X4838571Y-11588714D01*
X4895714Y-11588714D01*
X4924286Y-11574429D01*
X4938571Y-11560143D01*
X4952857Y-11531571D01*
X4952857Y-11474429D01*
X4938571Y-11445857D01*
X4924286Y-11431571D01*
X4895714Y-11417286D01*
X5138571Y-11288714D02*
X5167143Y-11288714D01*
X5195714Y-11303000D01*
X5210000Y-11317286D01*
X5224286Y-11345857D01*
X5238571Y-11403000D01*
X5238571Y-11474429D01*
X5224286Y-11531571D01*
X5210000Y-11560143D01*
X5195714Y-11574429D01*
X5167143Y-11588714D01*
X5138571Y-11588714D01*
X5110000Y-11574429D01*
X5095714Y-11560143D01*
X5081428Y-11531571D01*
X5067143Y-11474429D01*
X5067143Y-11403000D01*
X5081428Y-11345857D01*
X5095714Y-11317286D01*
X5110000Y-11303000D01*
X5138571Y-11288714D01*
X5595714Y-11588714D02*
X5595714Y-11288714D01*
X5724286Y-11588714D02*
X5724286Y-11431571D01*
X5710000Y-11403000D01*
X5681428Y-11388714D01*
X5638571Y-11388714D01*
X5610000Y-11403000D01*
X5595714Y-11417286D01*
X5910000Y-11588714D02*
X5881428Y-11574429D01*
X5867143Y-11560143D01*
X5852857Y-11531571D01*
X5852857Y-11445857D01*
X5867143Y-11417286D01*
X5881428Y-11403000D01*
X5910000Y-11388714D01*
X5952857Y-11388714D01*
X5981428Y-11403000D01*
X5995714Y-11417286D01*
X6010000Y-11445857D01*
X6010000Y-11531571D01*
X5995714Y-11560143D01*
X5981428Y-11574429D01*
X5952857Y-11588714D01*
X5910000Y-11588714D01*
X6181428Y-11588714D02*
X6152857Y-11574429D01*
X6138571Y-11545857D01*
X6138571Y-11288714D01*
X6410000Y-11574429D02*
X6381428Y-11588714D01*
X6324286Y-11588714D01*
X6295714Y-11574429D01*
X6281428Y-11545857D01*
X6281428Y-11431571D01*
X6295714Y-11403000D01*
X6324286Y-11388714D01*
X6381428Y-11388714D01*
X6410000Y-11403000D01*
X6424286Y-11431571D01*
X6424286Y-11460143D01*
X6281428Y-11488714D01*
X6538571Y-11574429D02*
X6567143Y-11588714D01*
X6624286Y-11588714D01*
X6652857Y-11574429D01*
X6667143Y-11545857D01*
X6667143Y-11531571D01*
X6652857Y-11503000D01*
X6624286Y-11488714D01*
X6581428Y-11488714D01*
X6552857Y-11474429D01*
X6538571Y-11445857D01*
X6538571Y-11431571D01*
X6552857Y-11403000D01*
X6581428Y-11388714D01*
X6624286Y-11388714D01*
X6652857Y-11403000D01*
X7024286Y-11474429D02*
X7252857Y-11474429D01*
X7138571Y-11588714D02*
X7138571Y-11360143D01*
X7595714Y-11288714D02*
X7781428Y-11288714D01*
X7681428Y-11403000D01*
X7724286Y-11403000D01*
X7752857Y-11417286D01*
X7767143Y-11431571D01*
X7781428Y-11460143D01*
X7781428Y-11531571D01*
X7767143Y-11560143D01*
X7752857Y-11574429D01*
X7724286Y-11588714D01*
X7638571Y-11588714D01*
X7610000Y-11574429D01*
X7595714Y-11560143D01*
X8124286Y-11574429D02*
X8152857Y-11588714D01*
X8210000Y-11588714D01*
X8238571Y-11574429D01*
X8252857Y-11545857D01*
X8252857Y-11531571D01*
X8238571Y-11503000D01*
X8210000Y-11488714D01*
X8167143Y-11488714D01*
X8138571Y-11474429D01*
X8124286Y-11445857D01*
X8124286Y-11431571D01*
X8138571Y-11403000D01*
X8167143Y-11388714D01*
X8210000Y-11388714D01*
X8238571Y-11403000D01*
X8424286Y-11588714D02*
X8395714Y-11574429D01*
X8381428Y-11545857D01*
X8381428Y-11288714D01*
X8581428Y-11588714D02*
X8552857Y-11574429D01*
X8538571Y-11560143D01*
X8524286Y-11531571D01*
X8524286Y-11445857D01*
X8538571Y-11417286D01*
X8552857Y-11403000D01*
X8581428Y-11388714D01*
X8624286Y-11388714D01*
X8652857Y-11403000D01*
X8667143Y-11417286D01*
X8681428Y-11445857D01*
X8681428Y-11531571D01*
X8667143Y-11560143D01*
X8652857Y-11574429D01*
X8624286Y-11588714D01*
X8581428Y-11588714D01*
X8767143Y-11388714D02*
X8881428Y-11388714D01*
X8810000Y-11288714D02*
X8810000Y-11545857D01*
X8824286Y-11574429D01*
X8852857Y-11588714D01*
X8881428Y-11588714D01*
X8967143Y-11574429D02*
X8995714Y-11588714D01*
X9052857Y-11588714D01*
X9081428Y-11574429D01*
X9095714Y-11545857D01*
X9095714Y-11531571D01*
X9081428Y-11503000D01*
X9052857Y-11488714D01*
X9010000Y-11488714D01*
X8981428Y-11474429D01*
X8967143Y-11445857D01*
X8967143Y-11431571D01*
X8981428Y-11403000D01*
X9010000Y-11388714D01*
X9052857Y-11388714D01*
X9081428Y-11403000D01*
X9195714Y-11703000D02*
X9210000Y-11688714D01*
X9238571Y-11645857D01*
X9252857Y-11617286D01*
X9267143Y-11574429D01*
X9281428Y-11503000D01*
X9281428Y-11445857D01*
X9267143Y-11374429D01*
X9252857Y-11331571D01*
X9238571Y-11303000D01*
X9210000Y-11260143D01*
X9195714Y-11245857D01*
X-155000Y-11999000D02*
X-5000Y-11849000D01*
X-155000Y-11699000D01*
X-305000Y-11849000D01*
X-155000Y-11999000D01*
X252857Y-11684714D02*
X438571Y-11684714D01*
X338571Y-11799000D01*
X381428Y-11799000D01*
X410000Y-11813286D01*
X424286Y-11827571D01*
X438571Y-11856143D01*
X438571Y-11927571D01*
X424286Y-11956143D01*
X410000Y-11970429D01*
X381428Y-11984714D01*
X295714Y-11984714D01*
X267143Y-11970429D01*
X252857Y-11956143D01*
X567143Y-11956143D02*
X581428Y-11970429D01*
X567143Y-11984714D01*
X552857Y-11970429D01*
X567143Y-11956143D01*
X567143Y-11984714D01*
X767143Y-11684714D02*
X795714Y-11684714D01*
X824286Y-11699000D01*
X838571Y-11713286D01*
X852857Y-11741857D01*
X867143Y-11799000D01*
X867143Y-11870429D01*
X852857Y-11927571D01*
X838571Y-11956143D01*
X824286Y-11970429D01*
X795714Y-11984714D01*
X767143Y-11984714D01*
X738571Y-11970429D01*
X724286Y-11956143D01*
X710000Y-11927571D01*
X695714Y-11870429D01*
X695714Y-11799000D01*
X710000Y-11741857D01*
X724286Y-11713286D01*
X738571Y-11699000D01*
X767143Y-11684714D01*
X1052857Y-11684714D02*
X1081428Y-11684714D01*
X1110000Y-11699000D01*
X1124286Y-11713286D01*
X1138571Y-11741857D01*
X1152857Y-11799000D01*
X1152857Y-11870429D01*
X1138571Y-11927571D01*
X1124286Y-11956143D01*
X1110000Y-11970429D01*
X1081428Y-11984714D01*
X1052857Y-11984714D01*
X1024286Y-11970429D01*
X1010000Y-11956143D01*
X995714Y-11927571D01*
X981428Y-11870429D01*
X981428Y-11799000D01*
X995714Y-11741857D01*
X1010000Y-11713286D01*
X1024286Y-11699000D01*
X1052857Y-11684714D01*
X1281428Y-11984714D02*
X1281428Y-11784714D01*
X1281428Y-11813286D02*
X1295714Y-11799000D01*
X1324286Y-11784714D01*
X1367143Y-11784714D01*
X1395714Y-11799000D01*
X1410000Y-11827571D01*
X1410000Y-11984714D01*
X1410000Y-11827571D02*
X1424286Y-11799000D01*
X1452857Y-11784714D01*
X1495714Y-11784714D01*
X1524286Y-11799000D01*
X1538571Y-11827571D01*
X1538571Y-11984714D01*
X1681428Y-11984714D02*
X1681428Y-11784714D01*
X1681428Y-11813286D02*
X1695714Y-11799000D01*
X1724286Y-11784714D01*
X1767143Y-11784714D01*
X1795714Y-11799000D01*
X1810000Y-11827571D01*
X1810000Y-11984714D01*
X1810000Y-11827571D02*
X1824286Y-11799000D01*
X1852857Y-11784714D01*
X1895714Y-11784714D01*
X1924286Y-11799000D01*
X1938571Y-11827571D01*
X1938571Y-11984714D01*
X2524286Y-11670429D02*
X2267143Y-12056143D01*
X2910000Y-11684714D02*
X2938571Y-11684714D01*
X2967143Y-11699000D01*
X2981428Y-11713286D01*
X2995714Y-11741857D01*
X3010000Y-11799000D01*
X3010000Y-11870429D01*
X2995714Y-11927571D01*
X2981428Y-11956143D01*
X2967143Y-11970429D01*
X2938571Y-11984714D01*
X2910000Y-11984714D01*
X2881428Y-11970429D01*
X2867143Y-11956143D01*
X2852857Y-11927571D01*
X2838571Y-11870429D01*
X2838571Y-11799000D01*
X2852857Y-11741857D01*
X2867143Y-11713286D01*
X2881428Y-11699000D01*
X2910000Y-11684714D01*
X3138571Y-11956143D02*
X3152857Y-11970429D01*
X3138571Y-11984714D01*
X3124286Y-11970429D01*
X3138571Y-11956143D01*
X3138571Y-11984714D01*
X3438571Y-11984714D02*
X3267143Y-11984714D01*
X3352857Y-11984714D02*
X3352857Y-11684714D01*
X3324286Y-11727571D01*
X3295714Y-11756143D01*
X3267143Y-11770429D01*
X3724286Y-11984714D02*
X3552857Y-11984714D01*
X3638571Y-11984714D02*
X3638571Y-11684714D01*
X3610000Y-11727571D01*
X3581428Y-11756143D01*
X3552857Y-11770429D01*
X3895714Y-11813286D02*
X3867143Y-11799000D01*
X3852857Y-11784714D01*
X3838571Y-11756143D01*
X3838571Y-11741857D01*
X3852857Y-11713286D01*
X3867143Y-11699000D01*
X3895714Y-11684714D01*
X3952857Y-11684714D01*
X3981428Y-11699000D01*
X3995714Y-11713286D01*
X4010000Y-11741857D01*
X4010000Y-11756143D01*
X3995714Y-11784714D01*
X3981428Y-11799000D01*
X3952857Y-11813286D01*
X3895714Y-11813286D01*
X3867143Y-11827571D01*
X3852857Y-11841857D01*
X3838571Y-11870429D01*
X3838571Y-11927571D01*
X3852857Y-11956143D01*
X3867143Y-11970429D01*
X3895714Y-11984714D01*
X3952857Y-11984714D01*
X3981428Y-11970429D01*
X3995714Y-11956143D01*
X4010000Y-11927571D01*
X4010000Y-11870429D01*
X3995714Y-11841857D01*
X3981428Y-11827571D01*
X3952857Y-11813286D01*
X4124286Y-11684714D02*
X4124286Y-11741857D01*
X4238571Y-11684714D02*
X4238571Y-11741857D01*
X4681428Y-12099000D02*
X4667143Y-12084714D01*
X4638571Y-12041857D01*
X4624286Y-12013286D01*
X4610000Y-11970429D01*
X4595714Y-11899000D01*
X4595714Y-11841857D01*
X4610000Y-11770429D01*
X4624286Y-11727571D01*
X4638571Y-11699000D01*
X4667143Y-11656143D01*
X4681428Y-11641857D01*
X4924286Y-11784714D02*
X4924286Y-11984714D01*
X4852857Y-11670429D02*
X4781428Y-11884714D01*
X4967143Y-11884714D01*
X5310000Y-11984714D02*
X5310000Y-11684714D01*
X5438571Y-11984714D02*
X5438571Y-11827571D01*
X5424286Y-11799000D01*
X5395714Y-11784714D01*
X5352857Y-11784714D01*
X5324286Y-11799000D01*
X5310000Y-11813286D01*
X5624286Y-11984714D02*
X5595714Y-11970429D01*
X5581428Y-11956143D01*
X5567143Y-11927571D01*
X5567143Y-11841857D01*
X5581428Y-11813286D01*
X5595714Y-11799000D01*
X5624286Y-11784714D01*
X5667143Y-11784714D01*
X5695714Y-11799000D01*
X5710000Y-11813286D01*
X5724286Y-11841857D01*
X5724286Y-11927571D01*
X5710000Y-11956143D01*
X5695714Y-11970429D01*
X5667143Y-11984714D01*
X5624286Y-11984714D01*
X5895714Y-11984714D02*
X5867143Y-11970429D01*
X5852857Y-11941857D01*
X5852857Y-11684714D01*
X6124286Y-11970429D02*
X6095714Y-11984714D01*
X6038571Y-11984714D01*
X6010000Y-11970429D01*
X5995714Y-11941857D01*
X5995714Y-11827571D01*
X6010000Y-11799000D01*
X6038571Y-11784714D01*
X6095714Y-11784714D01*
X6124286Y-11799000D01*
X6138571Y-11827571D01*
X6138571Y-11856143D01*
X5995714Y-11884714D01*
X6252857Y-11970429D02*
X6281428Y-11984714D01*
X6338571Y-11984714D01*
X6367143Y-11970429D01*
X6381428Y-11941857D01*
X6381428Y-11927571D01*
X6367143Y-11899000D01*
X6338571Y-11884714D01*
X6295714Y-11884714D01*
X6267143Y-11870429D01*
X6252857Y-11841857D01*
X6252857Y-11827571D01*
X6267143Y-11799000D01*
X6295714Y-11784714D01*
X6338571Y-11784714D01*
X6367143Y-11799000D01*
X6481428Y-12099000D02*
X6495714Y-12084714D01*
X6524286Y-12041857D01*
X6538571Y-12013286D01*
X6552857Y-11970429D01*
X6567143Y-11899000D01*
X6567143Y-11841857D01*
X6552857Y-11770429D01*
X6538571Y-11727571D01*
X6524286Y-11699000D01*
X6495714Y-11656143D01*
X6481428Y-11641857D01*
M02*
