M48
; DRILL file {KiCad (5.1.6)-1} date 07/24/20 10:27:22
; FORMAT={-:-/ absolute / inch / decimal}
; #@! TF.CreationDate,2020-07-24T10:27:22-07:00
; #@! TF.GenerationSoftware,Kicad,Pcbnew,(5.1.6)-1
; #@! TF.FileFunction,Plated,1,4,PTH
FMAT,2
INCH
T1C0.0118
T2C0.0157
T3C0.0197
T4C0.0236
T5C0.0394
T6C0.1181
%
G90
G05
T1
X0.6772Y-2.7603
X0.6772Y-2.7997
X0.6772Y-2.8391
X0.6772Y-2.8784
X0.6772Y-2.9178
X0.7166Y-2.7603
X0.7166Y-2.7997
X0.7166Y-2.8391
X0.7166Y-2.8784
X0.7166Y-2.9178
X0.756Y-2.7603
X0.756Y-2.7997
X0.756Y-2.8391
X0.756Y-2.8784
X0.756Y-2.9178
X0.7953Y-2.7603
X0.7953Y-2.7997
X0.7953Y-2.8391
X0.7953Y-2.8784
X0.7953Y-2.9178
X0.8347Y-2.7603
X0.8347Y-2.7997
X0.8347Y-2.8391
X0.8347Y-2.8784
X0.8347Y-2.9178
T2
X0.0477Y-2.6156
X0.0582Y-2.22
X0.0687Y-2.1248
X0.0747Y-1.475
X0.0839Y-1.2402
X0.0985Y-1.0976
X0.1007Y-1.5502
X0.1013Y-0.743
X0.1021Y-2.3184
X0.1149Y-1.3444
X0.1171Y-1.1914
X0.1193Y-1.7592
X0.1207Y-1.9964
X0.1227Y-1.8898
X0.1273Y-2.872
X0.1297Y-2.2752
X0.1331Y-2.0898
X0.1513Y-3.4812
X0.1531Y-1.4876
X0.1575Y-1.2402
X0.1649Y-0.9276
X0.1673Y-3.1038
X0.1783Y-1.1914
X0.1919Y-3.5026
X0.1933Y-2.5536
X0.1995Y-2.7314
X0.2019Y-2.4658
X0.2029Y-1.3158
X0.2085Y-1.5216
X0.2265Y-2.9166
X0.2309Y-0.2384
X0.2423Y-0.054
X0.2468Y-3.3326
X0.2519Y-0.7318
X0.2637Y-1.7166
X0.2641Y-1.2876
X0.2643Y-3.3634
X0.2689Y-1.8868
X0.2703Y-1.7922
X0.2712Y-3.4075
X0.2835Y-1.139
X0.2871Y-0.9716
X0.2889Y-1.9854
X0.2993Y-3.0178
X0.3019Y-3.1038
X0.3029Y-3.4532
X0.3041Y-2.7946
X0.3055Y-2.1782
X0.3154Y-2.0913
X0.3187Y-2.9388
X0.3197Y-2.4396
X0.322Y-2.5488
X0.3243Y-1.2985
X0.3452Y-2.8971
X0.3567Y-2.8384
X0.3901Y-2.5132
X0.4027Y-2.6202
X0.4177Y-0.162
X0.4235Y-2.8782
X0.4314Y-2.0801
X0.4331Y-0.2876
X0.4361Y-2.7944
X0.4477Y-2.4256
X0.4547Y-2.5954
X0.4579Y-2.9642
X0.4748Y-0.078
X0.4805Y-3.4111
X0.5158Y-2.5508
X0.5243Y-3.5026
X0.5272Y-2.5019
X0.5287Y-0.9858
X0.5341Y-1.4906
X0.5341Y-2.1644
X0.5345Y-2.2216
X0.5535Y-0.4632
X0.5542Y-3.2283
X0.5553Y-3.3166
X0.5559Y-3.3614
X0.5587Y-2.9898
X0.5647Y-0.2128
X0.5647Y-0.2828
X0.5697Y-2.9138
X0.5712Y-2.7583
X0.5712Y-2.8198
X0.5867Y-0.0518
X0.5901Y-3.078
X0.6007Y-1.0792
X0.6027Y-0.8298
X0.6047Y-1.2458
X0.6052Y-0.9818
X0.6073Y-1.8046
X0.6165Y-0.1464
X0.6187Y-2.1078
X0.619Y-0.6566
X0.619Y-0.7058
X0.6267Y-2.0535
X0.6296Y-2.0028
X0.6347Y-0.2128
X0.6347Y-0.2828
X0.6387Y-0.9118
X0.6396Y-2.172
X0.6397Y-0.5168
X0.6397Y-0.5793
X0.6407Y-1.0158
X0.6451Y-1.8618
X0.6483Y-2.5206
X0.6542Y-2.4288
X0.6699Y-2.1306
X0.678Y-0.6566
X0.678Y-0.7058
X0.6857Y-0.3672
X0.6951Y-2.2134
X0.7097Y-0.2128
X0.7097Y-0.2828
X0.7203Y-2.578
X0.7247Y-2.6438
X0.7281Y-3.0257
X0.7339Y-2.2308
X0.7368Y-2.1424
X0.7388Y-0.3219
X0.7421Y-3.4028
X0.7447Y-2.547
X0.7506Y-2.072
X0.762Y-2.3405
X0.7643Y-0.3672
X0.7653Y-0.5168
X0.7675Y-1.1304
X0.7675Y-1.3003
X0.7675Y-1.4914
X0.7685Y-2.3805
X0.7748Y-0.425
X0.7787Y-2.2778
X0.7792Y-1.5613
X0.7816Y-0.6298
X0.7835Y-1.6194
X0.7845Y-1.6676
X0.7877Y-1.7156
X0.7877Y-1.7554
X0.7901Y-2.4541
X0.7933Y-2.5516
X0.7935Y-3.3268
X0.7959Y-1.0826
X0.7978Y-1.2596
X0.8021Y-1.9248
X0.8065Y-3.1014
X0.8105Y-0.5756
X0.8208Y-3.3785
X0.8341Y-2.5748
X0.8364Y-2.4317
X0.8407Y-2.3078
X0.8467Y-3.3302
X0.8486Y-0.425
X0.8602Y-1.2963
X0.8627Y-0.2798
X0.8645Y-0.3646
X0.8659Y-1.6572
X0.8667Y-0.2178
X0.8746Y-3.0706
X0.8792Y-1.5703
X0.8865Y-3.3774
X0.8883Y-2.5958
X0.8935Y-2.6466
X0.9Y-3.028
X0.9025Y-2.5412
X0.9031Y-0.4884
X0.9068Y-0.6468
X0.9068Y-0.696
X0.9079Y-2.9808
X0.9079Y-3.247
X0.9111Y-0.3823
X0.9187Y-2.6158
X0.9277Y-3.1794
X0.9307Y-1.9126
X0.9309Y-1.8492
X0.9327Y-0.2158
X0.9327Y-0.2798
X0.9335Y-2.0764
X0.9337Y-0.4232
X0.9345Y-0.4636
X0.9379Y-2.221
X0.9434Y-2.969
X0.9487Y-0.5298
X0.9503Y-2.1492
X0.9586Y-2.7619
X0.9605Y-3.2224
X0.9658Y-0.6468
X0.9658Y-0.696
X0.9668Y-3.1215
X0.9687Y-2.3753
X0.9698Y-2.9426
X0.9779Y-2.4159
X0.9809Y-2.4513
X0.9838Y-1.8852
X0.992Y-2.7501
X0.9953Y-0.535
X0.9987Y-0.2798
X1.0007Y-0.2158
X1.0047Y-3.2818
X1.0067Y-2.5978
X1.0159Y-1.414
X1.0327Y-2.6808
X1.0345Y-1.271
X1.0387Y-2.6272
X1.0435Y-3.0154
X1.0459Y-0.4302
X1.0502Y-1.5408
X1.0533Y-2.2654
X1.0559Y-2.0272
X1.0603Y-3.5162
X1.0615Y-1.584
X1.0729Y-2.5721
X1.0731Y-2.6929
X1.0773Y-0.6022
X1.0812Y-2.9723
X1.0837Y-2.3478
X1.0851Y-0.5478
X1.0885Y-1.7932
X1.0885Y-3.2354
X1.0894Y-3.0634
X1.0898Y-1.987
X1.0929Y-3.5564
X1.1067Y-2.46
X1.1082Y-3.4311
X1.1089Y-3.3676
X1.1137Y-1.3126
X1.1167Y-1.3478
X1.1167Y-1.3938
X1.1167Y-1.4438
X1.1283Y-3.3996
X1.1333Y-2.9297
X1.1367Y-2.746
X1.1579Y-2.9042
X1.1617Y-3.1653
X1.17Y-2.9712
X1.1749Y-2.5706
X1.1831Y-3.1964
X1.1861Y-3.1294
X1.1879Y-2.738
X1.1907Y-2.4244
X1.2189Y-3.3858
X1.2208Y-2.7202
X1.2228Y-2.3898
X1.2235Y-2.8249
X1.2249Y-3.424
X1.2311Y-3.3296
X1.2357Y-2.7896
X1.2417Y-2.5056
X1.2438Y-2.9297
X1.2442Y-2.7494
X1.2453Y-1.8814
X1.2469Y-1.6824
X1.2519Y-1.6453
X1.2662Y-3.5628
X1.2682Y-2.904
X1.2691Y-1.3102
X1.2697Y-2.3898
X1.2707Y-1.3478
X1.2707Y-1.3938
X1.2707Y-1.4438
X1.2901Y-2.5166
X1.2932Y-2.4638
X1.2967Y-1.8806
X1.2983Y-3.2617
X1.3031Y-2.843
X1.3036Y-3.0253
X1.3036Y-3.1058
X1.3036Y-3.1458
X1.3069Y-2.4164
X1.3093Y-2.9438
X1.3357Y-3.2261
X1.3528Y-3.1149
X1.3556Y-1.1754
X1.3629Y-1.8934
X1.3637Y-1.2704
X1.3663Y-1.3858
X1.376Y-2.6518
X1.3781Y-1.7064
X1.3917Y-1.1068
X1.4153Y-2.0462
X1.4164Y-1.4935
X1.4165Y-1.865
X1.427Y-2.9093
X1.4408Y-1.2775
X1.4408Y-3.1893
X1.443Y-1.1957
X1.4443Y-2.5726
X1.4627Y-2.7964
X1.4729Y-1.6256
X1.4742Y-2.9878
X1.5025Y-3.0655
X1.5039Y-3.1187
X1.527Y-2.4379
X1.5441Y-2.5956
X1.5601Y-2.2262
X1.5601Y-1.4395
X1.5635Y-3.2644
X1.5707Y-0.7913
X1.5707Y-0.8405
X1.5712Y-0.4418
X1.5712Y-0.491
X1.5745Y-3.0754
X1.5747Y-1.0678
X1.5767Y-1.1363
X1.5781Y-2.9164
X1.5815Y-1.9564
X1.5867Y-1.3388
X1.5939Y-2.7134
X1.5957Y-2.4353
X1.5999Y-2.7748
X1.6001Y-1.2872
X1.6001Y-3.3168
X1.6027Y-1.5768
X1.6078Y-2.8114
X1.6087Y-2.5853
X1.6091Y-2.6644
X1.6149Y-1.9838
X1.6199Y-0.7913
X1.6199Y-0.8405
X1.6204Y-0.4418
X1.6204Y-0.491
X1.6259Y-3.1414
X1.6297Y-1.0663
X1.6301Y-3.2684
X1.6306Y-3.0661
X1.6322Y-1.1348
X1.6367Y-0.0938
X1.6565Y-1.4928
X1.6691Y-0.7913
X1.6691Y-0.8405
X1.6696Y-0.4418
X1.6696Y-0.491
X1.6751Y-3.193
X1.6759Y-2.8846
X1.6915Y-2.8238
X1.6942Y-3.0341
X1.7092Y-1.1213
X1.7169Y-1.4004
X1.7181Y-0.9013
X1.7183Y-0.7913
X1.7183Y-0.8405
X1.7188Y-0.4418
X1.7188Y-0.491
X1.7317Y-2.4332
X1.7326Y-1.6439
X1.74Y-2.7153
X1.7431Y-3.1942
X1.7442Y-1.1483
X1.7609Y-2.8192
X1.7676Y-0.7913
X1.7676Y-0.8405
X1.7681Y-0.4418
X1.7681Y-0.491
X1.7712Y-0.9223
X1.7727Y-1.5798
X1.7772Y-1.2223
X1.7819Y-0.7508
X1.8087Y-0.9669
X1.8117Y-1.1963
X1.8213Y-1.757
X1.8242Y-3.0343
X1.8381Y-1.4976
X1.8497Y-3.1528
X1.8515Y-2.1972
X1.8593Y-2.5314
X1.8657Y-2.0766
X1.8679Y-1.5398
X1.8683Y-1.377
X1.8745Y-2.6141
X1.8833Y-2.8748
X1.8908Y-2.718
X1.8972Y-0.8358
X1.9092Y-1.4311
X1.9117Y-2.0738
X1.9169Y-1.1725
X1.9207Y-1.0338
X1.9272Y-2.5238
X1.9302Y-0.7913
X1.9322Y-2.4703
X1.9367Y-0.6488
X1.9387Y-0.3358
X1.9393Y-1.3676
X1.9421Y-1.9232
X1.9437Y-0.3998
X1.9579Y-0.9188
X1.965Y-1.1721
X1.9788Y-1.2068
X1.9807Y-2.1938
X1.9853Y-2.4224
X1.9863Y-1.244
X1.9897Y-2.0698
X1.9907Y-2.1278
X1.9921Y-2.2432
X1.9937Y-1.7276
X2.0027Y-0.3358
X2.0027Y-2.5998
X2.0037Y-2.9273
X2.0057Y-0.3998
X2.0157Y-1.627
X2.0167Y-1.0578
X2.0232Y-1.2878
X2.0391Y-2.2408
X2.0561Y-2.465
X2.0567Y-1.8218
X2.0607Y-2.5518
X2.0667Y-1.1118
X2.0675Y-2.8926
X2.0683Y-2.8082
X2.0702Y-1.0578
X2.0722Y-0.7738
X2.0722Y-0.7738
X2.0727Y-0.3358
X2.0727Y-0.9978
X2.0767Y-0.3998
X2.0827Y-1.3038
X2.0961Y-1.5006
X2.0987Y-2.9308
X2.1096Y-2.6653
X2.1247Y-0.9478
X2.1247Y-0.9983
X2.1247Y-1.0578
X2.1247Y-1.1103
X2.1247Y-1.1538
X2.1369Y-1.3912
X2.1487Y-0.6678
X2.1567Y-1.4888
X2.1567Y-1.5321
X2.1567Y-1.5754
X2.1574Y-2.0742
X2.164Y-2.132
X2.1671Y-3.1562
X2.1687Y-1.1058
X2.1727Y-1.0583
X2.1767Y-1.0038
X2.1909Y-2.4598
X2.2Y-1.4888
X2.2187Y-2.1278
X2.2197Y-2.0698
X2.2207Y-1.3038
X2.2228Y-1.9042
X2.2267Y-0.0318
X2.2267Y-0.081
X2.2267Y-0.1302
X2.2267Y-1.0578
X2.2272Y-0.7199
X2.2283Y-2.793
X2.2323Y-0.6542
X2.2327Y-0.3998
X2.2347Y-0.3358
X2.2387Y-0.8263
X2.2433Y-2.5576
X2.2433Y-1.4888
X2.2447Y-1.3788
X2.2489Y-3.3172
X2.2491Y-3.2372
X2.2499Y-3.2756
X2.2511Y-2.4843
X2.2535Y-3.1446
X2.2536Y-2.5216
X2.2567Y-2.2974
X2.2642Y-1.2806
X2.2721Y-0.7358
X2.2739Y-0.0318
X2.2739Y-0.081
X2.2739Y-0.1302
X2.2827Y-2.1278
X2.2832Y-2.0698
X2.2866Y-1.4888
X2.2866Y-1.5321
X2.2901Y-2.5574
X2.2967Y-1.3853
X2.2987Y-0.3998
X2.3007Y-0.3358
X2.3022Y-2.5088
X2.3069Y-2.6612
X2.3145Y-2.746
X2.3205Y-0.7298
X2.3212Y-0.0318
X2.3212Y-0.081
X2.3212Y-0.1302
X2.3367Y-0.5113
X2.3387Y-2.3266
X2.3417Y-0.9718
X2.3487Y-2.6718
X2.3527Y-2.7158
X2.3563Y-1.308
X2.3587Y-3.3056
X2.3627Y-1.4174
X2.3667Y-1.9393
X2.3684Y-0.0318
X2.3684Y-0.081
X2.3684Y-0.1302
X2.3727Y-0.3358
X2.3727Y-0.3998
X2.3767Y-1.5463
X2.3772Y-1.2338
X2.3829Y-2.3358
X2.3837Y-3.0546
X2.3942Y-2.8528
X2.4009Y-0.7112
X2.4065Y-2.0542
X2.4129Y-2.6118
X2.4157Y-0.0318
X2.4157Y-0.081
X2.4157Y-0.1302
X2.4267Y-2.2958
X2.4447Y-2.4258
X2.4457Y-3.2102
X2.4507Y-0.3448
X2.4507Y-0.394
X2.4629Y-0.0318
X2.4629Y-0.081
X2.4629Y-0.1302
X2.4796Y-2.4448
X2.4847Y-1.2338
X2.4917Y-2.6438
X2.4979Y-0.3448
X2.4979Y-0.394
X2.5068Y-2.4191
X2.5102Y-0.0318
X2.5102Y-0.081
X2.5452Y-0.3448
X2.5452Y-0.394
X2.5924Y-0.3448
X2.5924Y-0.394
X2.6227Y-3.2628
X2.6397Y-0.3448
X2.6397Y-0.394
X2.6869Y-0.3448
X2.6869Y-0.394
X2.7342Y-0.3448
X2.7342Y-0.394
X2.7814Y-0.3448
X2.7814Y-0.394
T3
X2.5461Y-0.1978
X2.5721Y-0.1352
X2.5721Y-0.2604
X2.6347Y-0.1092
X2.6347Y-0.2864
X2.6973Y-0.1352
X2.6973Y-0.2604
X2.7233Y-0.1978
X1.3261Y-3.4678
X1.3521Y-3.4052
X1.3521Y-3.5304
X1.4147Y-3.3792
X1.4147Y-3.5564
X1.4773Y-3.4052
X1.4773Y-3.5304
X1.5033Y-3.4678
X1.3261Y-0.1978
X1.3521Y-0.1352
X1.3521Y-0.2604
X1.4147Y-0.1092
X1.4147Y-0.2864
X1.4773Y-0.1352
X1.4773Y-0.2604
X1.5033Y-0.1978
X2.5461Y-3.4678
X2.5721Y-3.4052
X2.5721Y-3.5304
X2.6347Y-3.3792
X2.6347Y-3.5564
X2.6973Y-3.4052
X2.6973Y-3.5304
X2.7233Y-3.4678
T5
X0.0825Y-2.819
X0.0825Y-2.919
X0.0825Y-3.019
X0.0825Y-3.119
X0.0825Y-3.268
X0.0825Y-3.368
X0.0825Y-3.468
X2.5737Y-2.3048
X2.5737Y-2.4048
X2.5737Y-2.5048
X2.5737Y-2.6048
X2.5737Y-2.7048
X2.5737Y-2.8048
X2.5737Y-2.9048
X2.5737Y-3.0048
X2.5737Y-3.1048
X2.5737Y-3.2048
X2.6737Y-2.3048
X2.6737Y-2.4048
X2.6737Y-2.5048
X2.6737Y-2.6048
X2.6737Y-2.7048
X2.6737Y-2.8048
X2.6737Y-2.9048
X2.6737Y-3.0048
X2.6737Y-3.1048
X2.6737Y-3.2048
X1.1047Y-0.1298
X1.1047Y-0.2298
X1.1047Y-0.3298
X1.2047Y-0.1298
X1.2047Y-0.2298
X1.2047Y-0.3298
X0.3761Y-0.4322
X0.3761Y-0.5322
X0.3761Y-0.6322
X0.3761Y-0.7322
X0.3761Y-0.8322
X0.3761Y-0.9322
X0.3761Y-1.0322
X0.3761Y-1.1322
X0.3761Y-1.2322
X0.3761Y-1.3322
X0.3761Y-1.4322
X0.3761Y-1.5322
X0.3761Y-1.6322
X0.3761Y-1.7322
X0.3761Y-1.8322
X0.3761Y-1.9322
X0.3761Y-2.0322
X0.3761Y-2.1322
X0.3761Y-2.2322
X0.3761Y-2.3322
X0.4761Y-0.4322
X0.4761Y-0.5322
X0.4761Y-0.6322
X0.4761Y-0.7322
X0.4761Y-0.8322
X0.4761Y-0.9322
X0.4761Y-1.0322
X0.4761Y-1.1322
X0.4761Y-1.2322
X0.4761Y-1.3322
X0.4761Y-1.4322
X0.4761Y-1.5322
X0.4761Y-1.6322
X0.4761Y-1.7322
X0.4761Y-1.8322
X0.4761Y-1.9322
X0.4761Y-2.0322
X0.4761Y-2.1322
X0.4761Y-2.2322
X0.4761Y-2.3322
T6
X2.6347Y-3.4678
X2.6347Y-0.1978
X1.4147Y-3.4678
X1.4147Y-0.1978
T4
G00X0.676Y-3.6188
M15
G01X0.676Y-3.5873
M16
G05
G00X0.9574Y-3.5873
M15
G01X0.9574Y-3.6188
M16
G05
G00X2.4835Y-1.4708
M15
G01X2.4835Y-1.4983
M16
G05
G00X2.5032Y-1.3851
M15
G01X2.5308Y-1.3851
M16
G05
G00X2.5662Y-1.5525
M15
G01X2.5938Y-1.5525
M16
G05
G00X2.7788Y-1.5525
M15
G01X2.7513Y-1.5525
M16
G05
G00X2.7946Y-1.4668
M15
G01X2.7946Y-1.4393
M16
G05
T5
G00X2.5082Y-1.9417
M15
G01X2.587Y-1.9417
M16
G05
G00X2.6657Y-1.7882
M15
G01X2.6657Y-1.7094
M16
G05
G00X2.7563Y-1.8984
M15
G01X2.7563Y-1.8196
M16
G05
T0
M30
