G04 #@! TF.GenerationSoftware,KiCad,Pcbnew,(5.1.6)-1*
G04 #@! TF.CreationDate,2020-09-27T11:15:24-07:00*
G04 #@! TF.ProjectId,Mycroft - Mark 2,4d796372-6f66-4742-902d-204d61726b20,rev?*
G04 #@! TF.SameCoordinates,Original*
G04 #@! TF.FileFunction,Paste,Top*
G04 #@! TF.FilePolarity,Positive*
%FSLAX46Y46*%
G04 Gerber Fmt 4.6, Leading zero omitted, Abs format (unit mm)*
G04 Created by KiCad (PCBNEW (5.1.6)-1) date 2020-09-27 11:15:24*
%MOMM*%
%LPD*%
G01*
G04 APERTURE LIST*
%ADD10C,0.152400*%
%ADD11R,0.800000X0.900000*%
%ADD12R,0.400000X1.000000*%
%ADD13R,1.060000X0.650000*%
%ADD14R,0.900000X1.200000*%
%ADD15R,0.650000X1.220000*%
%ADD16R,1.400000X1.200000*%
%ADD17R,1.150000X1.450000*%
%ADD18R,1.750000X1.900000*%
%ADD19R,0.400000X1.400000*%
%ADD20R,1.800000X2.500000*%
%ADD21R,4.550000X5.250000*%
%ADD22R,4.600000X1.100000*%
%ADD23R,4.500000X5.000000*%
%ADD24R,1.300000X0.600000*%
%ADD25R,2.000000X1.500000*%
%ADD26R,2.000000X3.800000*%
%ADD27C,0.100000*%
%ADD28R,0.900000X0.800000*%
%ADD29R,1.200000X0.400000*%
%ADD30R,0.500000X0.500000*%
G04 APERTURE END LIST*
D10*
X54969445Y-29155091D02*
X53967380Y-28153026D01*
X53967380Y-30157156D02*
X54969445Y-29155091D01*
X52965315Y-29155091D02*
X53967380Y-30157156D01*
X53967380Y-28153026D02*
X52965315Y-29155091D01*
X56112931Y-28011606D02*
X55110866Y-27009541D01*
X55110866Y-29013671D02*
X56112931Y-28011606D01*
X54108801Y-28011606D02*
X55110866Y-29013671D01*
X55110866Y-27009541D02*
X54108801Y-28011606D01*
X57256416Y-26868120D02*
X56254351Y-25866055D01*
X56254351Y-27870185D02*
X57256416Y-26868120D01*
X55252286Y-26868120D02*
X56254351Y-27870185D01*
X56254351Y-25866055D02*
X55252286Y-26868120D01*
X53825959Y-28011606D02*
X52823894Y-27009541D01*
X52823894Y-29013671D02*
X53825959Y-28011606D01*
X51821829Y-28011606D02*
X52823894Y-29013671D01*
X52823894Y-27009541D02*
X51821829Y-28011606D01*
X54969445Y-26868120D02*
X53967380Y-25866055D01*
X53967380Y-27870185D02*
X54969445Y-26868120D01*
X52965315Y-26868120D02*
X53967380Y-27870185D01*
X53967380Y-25866055D02*
X52965315Y-26868120D01*
X56112931Y-25724634D02*
X55110866Y-24722569D01*
X55110866Y-26726699D02*
X56112931Y-25724634D01*
X54108801Y-25724634D02*
X55110866Y-26726699D01*
X55110866Y-24722569D02*
X54108801Y-25724634D01*
X52682474Y-26868120D02*
X51680409Y-25866055D01*
X51680409Y-27870185D02*
X52682474Y-26868120D01*
X50678344Y-26868120D02*
X51680409Y-27870185D01*
X51680409Y-25866055D02*
X50678344Y-26868120D01*
X53825959Y-25724634D02*
X52823894Y-24722569D01*
X52823894Y-26726699D02*
X53825959Y-25724634D01*
X51821829Y-25724634D02*
X52823894Y-26726699D01*
X52823894Y-24722569D02*
X51821829Y-25724634D01*
X54969445Y-24581149D02*
X53967380Y-23579084D01*
X53967380Y-25583214D02*
X54969445Y-24581149D01*
X52965315Y-24581149D02*
X53967380Y-25583214D01*
X53967380Y-23579084D02*
X52965315Y-24581149D01*
D11*
X55714900Y-41972740D03*
X54764900Y-39972740D03*
X56664900Y-39972740D03*
G36*
G01*
X30310000Y-56027500D02*
X30310000Y-56372500D01*
G75*
G02*
X30162500Y-56520000I-147500J0D01*
G01*
X29867500Y-56520000D01*
G75*
G02*
X29720000Y-56372500I0J147500D01*
G01*
X29720000Y-56027500D01*
G75*
G02*
X29867500Y-55880000I147500J0D01*
G01*
X30162500Y-55880000D01*
G75*
G02*
X30310000Y-56027500I0J-147500D01*
G01*
G37*
G36*
G01*
X31280000Y-56027500D02*
X31280000Y-56372500D01*
G75*
G02*
X31132500Y-56520000I-147500J0D01*
G01*
X30837500Y-56520000D01*
G75*
G02*
X30690000Y-56372500I0J147500D01*
G01*
X30690000Y-56027500D01*
G75*
G02*
X30837500Y-55880000I147500J0D01*
G01*
X31132500Y-55880000D01*
G75*
G02*
X31280000Y-56027500I0J-147500D01*
G01*
G37*
G36*
G01*
X32010000Y-39677500D02*
X32010000Y-40022500D01*
G75*
G02*
X31862500Y-40170000I-147500J0D01*
G01*
X31567500Y-40170000D01*
G75*
G02*
X31420000Y-40022500I0J147500D01*
G01*
X31420000Y-39677500D01*
G75*
G02*
X31567500Y-39530000I147500J0D01*
G01*
X31862500Y-39530000D01*
G75*
G02*
X32010000Y-39677500I0J-147500D01*
G01*
G37*
G36*
G01*
X32980000Y-39677500D02*
X32980000Y-40022500D01*
G75*
G02*
X32832500Y-40170000I-147500J0D01*
G01*
X32537500Y-40170000D01*
G75*
G02*
X32390000Y-40022500I0J147500D01*
G01*
X32390000Y-39677500D01*
G75*
G02*
X32537500Y-39530000I147500J0D01*
G01*
X32832500Y-39530000D01*
G75*
G02*
X32980000Y-39677500I0J-147500D01*
G01*
G37*
G36*
G01*
X32600000Y-38106250D02*
X32600000Y-37593750D01*
G75*
G02*
X32818750Y-37375000I218750J0D01*
G01*
X33256250Y-37375000D01*
G75*
G02*
X33475000Y-37593750I0J-218750D01*
G01*
X33475000Y-38106250D01*
G75*
G02*
X33256250Y-38325000I-218750J0D01*
G01*
X32818750Y-38325000D01*
G75*
G02*
X32600000Y-38106250I0J218750D01*
G01*
G37*
G36*
G01*
X31025000Y-38106250D02*
X31025000Y-37593750D01*
G75*
G02*
X31243750Y-37375000I218750J0D01*
G01*
X31681250Y-37375000D01*
G75*
G02*
X31900000Y-37593750I0J-218750D01*
G01*
X31900000Y-38106250D01*
G75*
G02*
X31681250Y-38325000I-218750J0D01*
G01*
X31243750Y-38325000D01*
G75*
G02*
X31025000Y-38106250I0J218750D01*
G01*
G37*
G36*
G01*
X39700000Y-44350000D02*
X38600000Y-44350000D01*
G75*
G02*
X38350000Y-44100000I0J250000D01*
G01*
X38350000Y-41600000D01*
G75*
G02*
X38600000Y-41350000I250000J0D01*
G01*
X39700000Y-41350000D01*
G75*
G02*
X39950000Y-41600000I0J-250000D01*
G01*
X39950000Y-44100000D01*
G75*
G02*
X39700000Y-44350000I-250000J0D01*
G01*
G37*
G36*
G01*
X39700000Y-48750000D02*
X38600000Y-48750000D01*
G75*
G02*
X38350000Y-48500000I0J250000D01*
G01*
X38350000Y-46000000D01*
G75*
G02*
X38600000Y-45750000I250000J0D01*
G01*
X39700000Y-45750000D01*
G75*
G02*
X39950000Y-46000000I0J-250000D01*
G01*
X39950000Y-48500000D01*
G75*
G02*
X39700000Y-48750000I-250000J0D01*
G01*
G37*
G36*
G01*
X37262500Y-38010000D02*
X36917500Y-38010000D01*
G75*
G02*
X36770000Y-37862500I0J147500D01*
G01*
X36770000Y-37567500D01*
G75*
G02*
X36917500Y-37420000I147500J0D01*
G01*
X37262500Y-37420000D01*
G75*
G02*
X37410000Y-37567500I0J-147500D01*
G01*
X37410000Y-37862500D01*
G75*
G02*
X37262500Y-38010000I-147500J0D01*
G01*
G37*
G36*
G01*
X37262500Y-38980000D02*
X36917500Y-38980000D01*
G75*
G02*
X36770000Y-38832500I0J147500D01*
G01*
X36770000Y-38537500D01*
G75*
G02*
X36917500Y-38390000I147500J0D01*
G01*
X37262500Y-38390000D01*
G75*
G02*
X37410000Y-38537500I0J-147500D01*
G01*
X37410000Y-38832500D01*
G75*
G02*
X37262500Y-38980000I-147500J0D01*
G01*
G37*
G36*
G01*
X40922500Y-38010000D02*
X40577500Y-38010000D01*
G75*
G02*
X40430000Y-37862500I0J147500D01*
G01*
X40430000Y-37567500D01*
G75*
G02*
X40577500Y-37420000I147500J0D01*
G01*
X40922500Y-37420000D01*
G75*
G02*
X41070000Y-37567500I0J-147500D01*
G01*
X41070000Y-37862500D01*
G75*
G02*
X40922500Y-38010000I-147500J0D01*
G01*
G37*
G36*
G01*
X40922500Y-38980000D02*
X40577500Y-38980000D01*
G75*
G02*
X40430000Y-38832500I0J147500D01*
G01*
X40430000Y-38537500D01*
G75*
G02*
X40577500Y-38390000I147500J0D01*
G01*
X40922500Y-38390000D01*
G75*
G02*
X41070000Y-38537500I0J-147500D01*
G01*
X41070000Y-38832500D01*
G75*
G02*
X40922500Y-38980000I-147500J0D01*
G01*
G37*
G36*
G01*
X39357500Y-38390000D02*
X39702500Y-38390000D01*
G75*
G02*
X39850000Y-38537500I0J-147500D01*
G01*
X39850000Y-38832500D01*
G75*
G02*
X39702500Y-38980000I-147500J0D01*
G01*
X39357500Y-38980000D01*
G75*
G02*
X39210000Y-38832500I0J147500D01*
G01*
X39210000Y-38537500D01*
G75*
G02*
X39357500Y-38390000I147500J0D01*
G01*
G37*
G36*
G01*
X39357500Y-37420000D02*
X39702500Y-37420000D01*
G75*
G02*
X39850000Y-37567500I0J-147500D01*
G01*
X39850000Y-37862500D01*
G75*
G02*
X39702500Y-38010000I-147500J0D01*
G01*
X39357500Y-38010000D01*
G75*
G02*
X39210000Y-37862500I0J147500D01*
G01*
X39210000Y-37567500D01*
G75*
G02*
X39357500Y-37420000I147500J0D01*
G01*
G37*
G36*
G01*
X38482500Y-38010000D02*
X38137500Y-38010000D01*
G75*
G02*
X37990000Y-37862500I0J147500D01*
G01*
X37990000Y-37567500D01*
G75*
G02*
X38137500Y-37420000I147500J0D01*
G01*
X38482500Y-37420000D01*
G75*
G02*
X38630000Y-37567500I0J-147500D01*
G01*
X38630000Y-37862500D01*
G75*
G02*
X38482500Y-38010000I-147500J0D01*
G01*
G37*
G36*
G01*
X38482500Y-38980000D02*
X38137500Y-38980000D01*
G75*
G02*
X37990000Y-38832500I0J147500D01*
G01*
X37990000Y-38537500D01*
G75*
G02*
X38137500Y-38390000I147500J0D01*
G01*
X38482500Y-38390000D01*
G75*
G02*
X38630000Y-38537500I0J-147500D01*
G01*
X38630000Y-38832500D01*
G75*
G02*
X38482500Y-38980000I-147500J0D01*
G01*
G37*
G36*
G01*
X34822500Y-38010000D02*
X34477500Y-38010000D01*
G75*
G02*
X34330000Y-37862500I0J147500D01*
G01*
X34330000Y-37567500D01*
G75*
G02*
X34477500Y-37420000I147500J0D01*
G01*
X34822500Y-37420000D01*
G75*
G02*
X34970000Y-37567500I0J-147500D01*
G01*
X34970000Y-37862500D01*
G75*
G02*
X34822500Y-38010000I-147500J0D01*
G01*
G37*
G36*
G01*
X34822500Y-38980000D02*
X34477500Y-38980000D01*
G75*
G02*
X34330000Y-38832500I0J147500D01*
G01*
X34330000Y-38537500D01*
G75*
G02*
X34477500Y-38390000I147500J0D01*
G01*
X34822500Y-38390000D01*
G75*
G02*
X34970000Y-38537500I0J-147500D01*
G01*
X34970000Y-38832500D01*
G75*
G02*
X34822500Y-38980000I-147500J0D01*
G01*
G37*
G36*
G01*
X32250000Y-44350000D02*
X31150000Y-44350000D01*
G75*
G02*
X30900000Y-44100000I0J250000D01*
G01*
X30900000Y-41600000D01*
G75*
G02*
X31150000Y-41350000I250000J0D01*
G01*
X32250000Y-41350000D01*
G75*
G02*
X32500000Y-41600000I0J-250000D01*
G01*
X32500000Y-44100000D01*
G75*
G02*
X32250000Y-44350000I-250000J0D01*
G01*
G37*
G36*
G01*
X32250000Y-48750000D02*
X31150000Y-48750000D01*
G75*
G02*
X30900000Y-48500000I0J250000D01*
G01*
X30900000Y-46000000D01*
G75*
G02*
X31150000Y-45750000I250000J0D01*
G01*
X32250000Y-45750000D01*
G75*
G02*
X32500000Y-46000000I0J-250000D01*
G01*
X32500000Y-48500000D01*
G75*
G02*
X32250000Y-48750000I-250000J0D01*
G01*
G37*
G36*
G01*
X35697500Y-38390000D02*
X36042500Y-38390000D01*
G75*
G02*
X36190000Y-38537500I0J-147500D01*
G01*
X36190000Y-38832500D01*
G75*
G02*
X36042500Y-38980000I-147500J0D01*
G01*
X35697500Y-38980000D01*
G75*
G02*
X35550000Y-38832500I0J147500D01*
G01*
X35550000Y-38537500D01*
G75*
G02*
X35697500Y-38390000I147500J0D01*
G01*
G37*
G36*
G01*
X35697500Y-37420000D02*
X36042500Y-37420000D01*
G75*
G02*
X36190000Y-37567500I0J-147500D01*
G01*
X36190000Y-37862500D01*
G75*
G02*
X36042500Y-38010000I-147500J0D01*
G01*
X35697500Y-38010000D01*
G75*
G02*
X35550000Y-37862500I0J147500D01*
G01*
X35550000Y-37567500D01*
G75*
G02*
X35697500Y-37420000I147500J0D01*
G01*
G37*
D12*
X32375000Y-50250000D03*
X33025000Y-50250000D03*
X33675000Y-50250000D03*
X34325000Y-50250000D03*
X34975000Y-50250000D03*
X35625000Y-50250000D03*
X36275000Y-50250000D03*
X36925000Y-50250000D03*
X36925000Y-56050000D03*
X36275000Y-56050000D03*
X35625000Y-56050000D03*
X34975000Y-56050000D03*
X34325000Y-56050000D03*
X33675000Y-56050000D03*
X33025000Y-56050000D03*
X32375000Y-56050000D03*
G36*
G01*
X27125000Y-50175000D02*
X27125000Y-51425000D01*
G75*
G02*
X26875000Y-51675000I-250000J0D01*
G01*
X26125000Y-51675000D01*
G75*
G02*
X25875000Y-51425000I0J250000D01*
G01*
X25875000Y-50175000D01*
G75*
G02*
X26125000Y-49925000I250000J0D01*
G01*
X26875000Y-49925000D01*
G75*
G02*
X27125000Y-50175000I0J-250000D01*
G01*
G37*
G36*
G01*
X29925000Y-50175000D02*
X29925000Y-51425000D01*
G75*
G02*
X29675000Y-51675000I-250000J0D01*
G01*
X28925000Y-51675000D01*
G75*
G02*
X28675000Y-51425000I0J250000D01*
G01*
X28675000Y-50175000D01*
G75*
G02*
X28925000Y-49925000I250000J0D01*
G01*
X29675000Y-49925000D01*
G75*
G02*
X29925000Y-50175000I0J-250000D01*
G01*
G37*
G36*
G01*
X40790000Y-50272500D02*
X40790000Y-49927500D01*
G75*
G02*
X40937500Y-49780000I147500J0D01*
G01*
X41232500Y-49780000D01*
G75*
G02*
X41380000Y-49927500I0J-147500D01*
G01*
X41380000Y-50272500D01*
G75*
G02*
X41232500Y-50420000I-147500J0D01*
G01*
X40937500Y-50420000D01*
G75*
G02*
X40790000Y-50272500I0J147500D01*
G01*
G37*
G36*
G01*
X39820000Y-50272500D02*
X39820000Y-49927500D01*
G75*
G02*
X39967500Y-49780000I147500J0D01*
G01*
X40262500Y-49780000D01*
G75*
G02*
X40410000Y-49927500I0J-147500D01*
G01*
X40410000Y-50272500D01*
G75*
G02*
X40262500Y-50420000I-147500J0D01*
G01*
X39967500Y-50420000D01*
G75*
G02*
X39820000Y-50272500I0J147500D01*
G01*
G37*
G36*
G01*
X40790000Y-51472500D02*
X40790000Y-51127500D01*
G75*
G02*
X40937500Y-50980000I147500J0D01*
G01*
X41232500Y-50980000D01*
G75*
G02*
X41380000Y-51127500I0J-147500D01*
G01*
X41380000Y-51472500D01*
G75*
G02*
X41232500Y-51620000I-147500J0D01*
G01*
X40937500Y-51620000D01*
G75*
G02*
X40790000Y-51472500I0J147500D01*
G01*
G37*
G36*
G01*
X39820000Y-51472500D02*
X39820000Y-51127500D01*
G75*
G02*
X39967500Y-50980000I147500J0D01*
G01*
X40262500Y-50980000D01*
G75*
G02*
X40410000Y-51127500I0J-147500D01*
G01*
X40410000Y-51472500D01*
G75*
G02*
X40262500Y-51620000I-147500J0D01*
G01*
X39967500Y-51620000D01*
G75*
G02*
X39820000Y-51472500I0J147500D01*
G01*
G37*
G36*
G01*
X18062880Y-70046619D02*
X18062880Y-70596621D01*
G75*
G02*
X17812881Y-70846620I-249999J0D01*
G01*
X17262879Y-70846620D01*
G75*
G02*
X17012880Y-70596621I0J249999D01*
G01*
X17012880Y-70046619D01*
G75*
G02*
X17262879Y-69796620I249999J0D01*
G01*
X17812881Y-69796620D01*
G75*
G02*
X18062880Y-70046619I0J-249999D01*
G01*
G37*
G36*
G01*
X19262880Y-70046619D02*
X19262880Y-70596621D01*
G75*
G02*
X19012881Y-70846620I-249999J0D01*
G01*
X18462879Y-70846620D01*
G75*
G02*
X18212880Y-70596621I0J249999D01*
G01*
X18212880Y-70046619D01*
G75*
G02*
X18462879Y-69796620I249999J0D01*
G01*
X19012881Y-69796620D01*
G75*
G02*
X19262880Y-70046619I0J-249999D01*
G01*
G37*
G36*
G01*
X20462880Y-70046619D02*
X20462880Y-70596621D01*
G75*
G02*
X20212881Y-70846620I-249999J0D01*
G01*
X19662879Y-70846620D01*
G75*
G02*
X19412880Y-70596621I0J249999D01*
G01*
X19412880Y-70046619D01*
G75*
G02*
X19662879Y-69796620I249999J0D01*
G01*
X20212881Y-69796620D01*
G75*
G02*
X20462880Y-70046619I0J-249999D01*
G01*
G37*
G36*
G01*
X21662880Y-70046619D02*
X21662880Y-70596621D01*
G75*
G02*
X21412881Y-70846620I-249999J0D01*
G01*
X20862879Y-70846620D01*
G75*
G02*
X20612880Y-70596621I0J249999D01*
G01*
X20612880Y-70046619D01*
G75*
G02*
X20862879Y-69796620I249999J0D01*
G01*
X21412881Y-69796620D01*
G75*
G02*
X21662880Y-70046619I0J-249999D01*
G01*
G37*
G36*
G01*
X18062880Y-71246619D02*
X18062880Y-71796621D01*
G75*
G02*
X17812881Y-72046620I-249999J0D01*
G01*
X17262879Y-72046620D01*
G75*
G02*
X17012880Y-71796621I0J249999D01*
G01*
X17012880Y-71246619D01*
G75*
G02*
X17262879Y-70996620I249999J0D01*
G01*
X17812881Y-70996620D01*
G75*
G02*
X18062880Y-71246619I0J-249999D01*
G01*
G37*
G36*
G01*
X19262880Y-71246619D02*
X19262880Y-71796621D01*
G75*
G02*
X19012881Y-72046620I-249999J0D01*
G01*
X18462879Y-72046620D01*
G75*
G02*
X18212880Y-71796621I0J249999D01*
G01*
X18212880Y-71246619D01*
G75*
G02*
X18462879Y-70996620I249999J0D01*
G01*
X19012881Y-70996620D01*
G75*
G02*
X19262880Y-71246619I0J-249999D01*
G01*
G37*
G36*
G01*
X20462880Y-71246619D02*
X20462880Y-71796621D01*
G75*
G02*
X20212881Y-72046620I-249999J0D01*
G01*
X19662879Y-72046620D01*
G75*
G02*
X19412880Y-71796621I0J249999D01*
G01*
X19412880Y-71246619D01*
G75*
G02*
X19662879Y-70996620I249999J0D01*
G01*
X20212881Y-70996620D01*
G75*
G02*
X20462880Y-71246619I0J-249999D01*
G01*
G37*
G36*
G01*
X21662880Y-71246619D02*
X21662880Y-71796621D01*
G75*
G02*
X21412881Y-72046620I-249999J0D01*
G01*
X20862879Y-72046620D01*
G75*
G02*
X20612880Y-71796621I0J249999D01*
G01*
X20612880Y-71246619D01*
G75*
G02*
X20862879Y-70996620I249999J0D01*
G01*
X21412881Y-70996620D01*
G75*
G02*
X21662880Y-71246619I0J-249999D01*
G01*
G37*
G36*
G01*
X18062880Y-72446619D02*
X18062880Y-72996621D01*
G75*
G02*
X17812881Y-73246620I-249999J0D01*
G01*
X17262879Y-73246620D01*
G75*
G02*
X17012880Y-72996621I0J249999D01*
G01*
X17012880Y-72446619D01*
G75*
G02*
X17262879Y-72196620I249999J0D01*
G01*
X17812881Y-72196620D01*
G75*
G02*
X18062880Y-72446619I0J-249999D01*
G01*
G37*
G36*
G01*
X19262880Y-72446619D02*
X19262880Y-72996621D01*
G75*
G02*
X19012881Y-73246620I-249999J0D01*
G01*
X18462879Y-73246620D01*
G75*
G02*
X18212880Y-72996621I0J249999D01*
G01*
X18212880Y-72446619D01*
G75*
G02*
X18462879Y-72196620I249999J0D01*
G01*
X19012881Y-72196620D01*
G75*
G02*
X19262880Y-72446619I0J-249999D01*
G01*
G37*
G36*
G01*
X20462880Y-72446619D02*
X20462880Y-72996621D01*
G75*
G02*
X20212881Y-73246620I-249999J0D01*
G01*
X19662879Y-73246620D01*
G75*
G02*
X19412880Y-72996621I0J249999D01*
G01*
X19412880Y-72446619D01*
G75*
G02*
X19662879Y-72196620I249999J0D01*
G01*
X20212881Y-72196620D01*
G75*
G02*
X20462880Y-72446619I0J-249999D01*
G01*
G37*
G36*
G01*
X21662880Y-72446619D02*
X21662880Y-72996621D01*
G75*
G02*
X21412881Y-73246620I-249999J0D01*
G01*
X20862879Y-73246620D01*
G75*
G02*
X20612880Y-72996621I0J249999D01*
G01*
X20612880Y-72446619D01*
G75*
G02*
X20862879Y-72196620I249999J0D01*
G01*
X21412881Y-72196620D01*
G75*
G02*
X21662880Y-72446619I0J-249999D01*
G01*
G37*
G36*
G01*
X18062880Y-73646619D02*
X18062880Y-74196621D01*
G75*
G02*
X17812881Y-74446620I-249999J0D01*
G01*
X17262879Y-74446620D01*
G75*
G02*
X17012880Y-74196621I0J249999D01*
G01*
X17012880Y-73646619D01*
G75*
G02*
X17262879Y-73396620I249999J0D01*
G01*
X17812881Y-73396620D01*
G75*
G02*
X18062880Y-73646619I0J-249999D01*
G01*
G37*
G36*
G01*
X19262880Y-73646619D02*
X19262880Y-74196621D01*
G75*
G02*
X19012881Y-74446620I-249999J0D01*
G01*
X18462879Y-74446620D01*
G75*
G02*
X18212880Y-74196621I0J249999D01*
G01*
X18212880Y-73646619D01*
G75*
G02*
X18462879Y-73396620I249999J0D01*
G01*
X19012881Y-73396620D01*
G75*
G02*
X19262880Y-73646619I0J-249999D01*
G01*
G37*
G36*
G01*
X20462880Y-73646619D02*
X20462880Y-74196621D01*
G75*
G02*
X20212881Y-74446620I-249999J0D01*
G01*
X19662879Y-74446620D01*
G75*
G02*
X19412880Y-74196621I0J249999D01*
G01*
X19412880Y-73646619D01*
G75*
G02*
X19662879Y-73396620I249999J0D01*
G01*
X20212881Y-73396620D01*
G75*
G02*
X20462880Y-73646619I0J-249999D01*
G01*
G37*
G36*
G01*
X22046380Y-75167620D02*
X22146380Y-75167620D01*
G75*
G02*
X22196380Y-75217620I0J-50000D01*
G01*
X22196380Y-76442620D01*
G75*
G02*
X22146380Y-76492620I-50000J0D01*
G01*
X22046380Y-76492620D01*
G75*
G02*
X21996380Y-76442620I0J50000D01*
G01*
X21996380Y-75217620D01*
G75*
G02*
X22046380Y-75167620I50000J0D01*
G01*
G37*
G36*
G01*
X21646380Y-75167620D02*
X21746380Y-75167620D01*
G75*
G02*
X21796380Y-75217620I0J-50000D01*
G01*
X21796380Y-76442620D01*
G75*
G02*
X21746380Y-76492620I-50000J0D01*
G01*
X21646380Y-76492620D01*
G75*
G02*
X21596380Y-76442620I0J50000D01*
G01*
X21596380Y-75217620D01*
G75*
G02*
X21646380Y-75167620I50000J0D01*
G01*
G37*
G36*
G01*
X21246380Y-75167620D02*
X21346380Y-75167620D01*
G75*
G02*
X21396380Y-75217620I0J-50000D01*
G01*
X21396380Y-76442620D01*
G75*
G02*
X21346380Y-76492620I-50000J0D01*
G01*
X21246380Y-76492620D01*
G75*
G02*
X21196380Y-76442620I0J50000D01*
G01*
X21196380Y-75217620D01*
G75*
G02*
X21246380Y-75167620I50000J0D01*
G01*
G37*
G36*
G01*
X20846380Y-75167620D02*
X20946380Y-75167620D01*
G75*
G02*
X20996380Y-75217620I0J-50000D01*
G01*
X20996380Y-76442620D01*
G75*
G02*
X20946380Y-76492620I-50000J0D01*
G01*
X20846380Y-76492620D01*
G75*
G02*
X20796380Y-76442620I0J50000D01*
G01*
X20796380Y-75217620D01*
G75*
G02*
X20846380Y-75167620I50000J0D01*
G01*
G37*
G36*
G01*
X20446380Y-75167620D02*
X20546380Y-75167620D01*
G75*
G02*
X20596380Y-75217620I0J-50000D01*
G01*
X20596380Y-76442620D01*
G75*
G02*
X20546380Y-76492620I-50000J0D01*
G01*
X20446380Y-76492620D01*
G75*
G02*
X20396380Y-76442620I0J50000D01*
G01*
X20396380Y-75217620D01*
G75*
G02*
X20446380Y-75167620I50000J0D01*
G01*
G37*
G36*
G01*
X20046380Y-75167620D02*
X20146380Y-75167620D01*
G75*
G02*
X20196380Y-75217620I0J-50000D01*
G01*
X20196380Y-76442620D01*
G75*
G02*
X20146380Y-76492620I-50000J0D01*
G01*
X20046380Y-76492620D01*
G75*
G02*
X19996380Y-76442620I0J50000D01*
G01*
X19996380Y-75217620D01*
G75*
G02*
X20046380Y-75167620I50000J0D01*
G01*
G37*
G36*
G01*
X19646380Y-75167620D02*
X19746380Y-75167620D01*
G75*
G02*
X19796380Y-75217620I0J-50000D01*
G01*
X19796380Y-76442620D01*
G75*
G02*
X19746380Y-76492620I-50000J0D01*
G01*
X19646380Y-76492620D01*
G75*
G02*
X19596380Y-76442620I0J50000D01*
G01*
X19596380Y-75217620D01*
G75*
G02*
X19646380Y-75167620I50000J0D01*
G01*
G37*
G36*
G01*
X19246380Y-75167620D02*
X19346380Y-75167620D01*
G75*
G02*
X19396380Y-75217620I0J-50000D01*
G01*
X19396380Y-76442620D01*
G75*
G02*
X19346380Y-76492620I-50000J0D01*
G01*
X19246380Y-76492620D01*
G75*
G02*
X19196380Y-76442620I0J50000D01*
G01*
X19196380Y-75217620D01*
G75*
G02*
X19246380Y-75167620I50000J0D01*
G01*
G37*
G36*
G01*
X18846380Y-75167620D02*
X18946380Y-75167620D01*
G75*
G02*
X18996380Y-75217620I0J-50000D01*
G01*
X18996380Y-76442620D01*
G75*
G02*
X18946380Y-76492620I-50000J0D01*
G01*
X18846380Y-76492620D01*
G75*
G02*
X18796380Y-76442620I0J50000D01*
G01*
X18796380Y-75217620D01*
G75*
G02*
X18846380Y-75167620I50000J0D01*
G01*
G37*
G36*
G01*
X18446380Y-75167620D02*
X18546380Y-75167620D01*
G75*
G02*
X18596380Y-75217620I0J-50000D01*
G01*
X18596380Y-76442620D01*
G75*
G02*
X18546380Y-76492620I-50000J0D01*
G01*
X18446380Y-76492620D01*
G75*
G02*
X18396380Y-76442620I0J50000D01*
G01*
X18396380Y-75217620D01*
G75*
G02*
X18446380Y-75167620I50000J0D01*
G01*
G37*
G36*
G01*
X18046380Y-75167620D02*
X18146380Y-75167620D01*
G75*
G02*
X18196380Y-75217620I0J-50000D01*
G01*
X18196380Y-76442620D01*
G75*
G02*
X18146380Y-76492620I-50000J0D01*
G01*
X18046380Y-76492620D01*
G75*
G02*
X17996380Y-76442620I0J50000D01*
G01*
X17996380Y-75217620D01*
G75*
G02*
X18046380Y-75167620I50000J0D01*
G01*
G37*
G36*
G01*
X17646380Y-75167620D02*
X17746380Y-75167620D01*
G75*
G02*
X17796380Y-75217620I0J-50000D01*
G01*
X17796380Y-76442620D01*
G75*
G02*
X17746380Y-76492620I-50000J0D01*
G01*
X17646380Y-76492620D01*
G75*
G02*
X17596380Y-76442620I0J50000D01*
G01*
X17596380Y-75217620D01*
G75*
G02*
X17646380Y-75167620I50000J0D01*
G01*
G37*
G36*
G01*
X17246380Y-75167620D02*
X17346380Y-75167620D01*
G75*
G02*
X17396380Y-75217620I0J-50000D01*
G01*
X17396380Y-76442620D01*
G75*
G02*
X17346380Y-76492620I-50000J0D01*
G01*
X17246380Y-76492620D01*
G75*
G02*
X17196380Y-76442620I0J50000D01*
G01*
X17196380Y-75217620D01*
G75*
G02*
X17246380Y-75167620I50000J0D01*
G01*
G37*
G36*
G01*
X16846380Y-75167620D02*
X16946380Y-75167620D01*
G75*
G02*
X16996380Y-75217620I0J-50000D01*
G01*
X16996380Y-76442620D01*
G75*
G02*
X16946380Y-76492620I-50000J0D01*
G01*
X16846380Y-76492620D01*
G75*
G02*
X16796380Y-76442620I0J50000D01*
G01*
X16796380Y-75217620D01*
G75*
G02*
X16846380Y-75167620I50000J0D01*
G01*
G37*
G36*
G01*
X16446380Y-67667620D02*
X16546380Y-67667620D01*
G75*
G02*
X16596380Y-67717620I0J-50000D01*
G01*
X16596380Y-68942620D01*
G75*
G02*
X16546380Y-68992620I-50000J0D01*
G01*
X16446380Y-68992620D01*
G75*
G02*
X16396380Y-68942620I0J50000D01*
G01*
X16396380Y-67717620D01*
G75*
G02*
X16446380Y-67667620I50000J0D01*
G01*
G37*
G36*
G01*
X16846380Y-67667620D02*
X16946380Y-67667620D01*
G75*
G02*
X16996380Y-67717620I0J-50000D01*
G01*
X16996380Y-68942620D01*
G75*
G02*
X16946380Y-68992620I-50000J0D01*
G01*
X16846380Y-68992620D01*
G75*
G02*
X16796380Y-68942620I0J50000D01*
G01*
X16796380Y-67717620D01*
G75*
G02*
X16846380Y-67667620I50000J0D01*
G01*
G37*
G36*
G01*
X17246380Y-67667620D02*
X17346380Y-67667620D01*
G75*
G02*
X17396380Y-67717620I0J-50000D01*
G01*
X17396380Y-68942620D01*
G75*
G02*
X17346380Y-68992620I-50000J0D01*
G01*
X17246380Y-68992620D01*
G75*
G02*
X17196380Y-68942620I0J50000D01*
G01*
X17196380Y-67717620D01*
G75*
G02*
X17246380Y-67667620I50000J0D01*
G01*
G37*
G36*
G01*
X17646380Y-67667620D02*
X17746380Y-67667620D01*
G75*
G02*
X17796380Y-67717620I0J-50000D01*
G01*
X17796380Y-68942620D01*
G75*
G02*
X17746380Y-68992620I-50000J0D01*
G01*
X17646380Y-68992620D01*
G75*
G02*
X17596380Y-68942620I0J50000D01*
G01*
X17596380Y-67717620D01*
G75*
G02*
X17646380Y-67667620I50000J0D01*
G01*
G37*
G36*
G01*
X18046380Y-67667620D02*
X18146380Y-67667620D01*
G75*
G02*
X18196380Y-67717620I0J-50000D01*
G01*
X18196380Y-68942620D01*
G75*
G02*
X18146380Y-68992620I-50000J0D01*
G01*
X18046380Y-68992620D01*
G75*
G02*
X17996380Y-68942620I0J50000D01*
G01*
X17996380Y-67717620D01*
G75*
G02*
X18046380Y-67667620I50000J0D01*
G01*
G37*
G36*
G01*
X18446380Y-67667620D02*
X18546380Y-67667620D01*
G75*
G02*
X18596380Y-67717620I0J-50000D01*
G01*
X18596380Y-68942620D01*
G75*
G02*
X18546380Y-68992620I-50000J0D01*
G01*
X18446380Y-68992620D01*
G75*
G02*
X18396380Y-68942620I0J50000D01*
G01*
X18396380Y-67717620D01*
G75*
G02*
X18446380Y-67667620I50000J0D01*
G01*
G37*
G36*
G01*
X18846380Y-67667620D02*
X18946380Y-67667620D01*
G75*
G02*
X18996380Y-67717620I0J-50000D01*
G01*
X18996380Y-68942620D01*
G75*
G02*
X18946380Y-68992620I-50000J0D01*
G01*
X18846380Y-68992620D01*
G75*
G02*
X18796380Y-68942620I0J50000D01*
G01*
X18796380Y-67717620D01*
G75*
G02*
X18846380Y-67667620I50000J0D01*
G01*
G37*
G36*
G01*
X19246380Y-67667620D02*
X19346380Y-67667620D01*
G75*
G02*
X19396380Y-67717620I0J-50000D01*
G01*
X19396380Y-68942620D01*
G75*
G02*
X19346380Y-68992620I-50000J0D01*
G01*
X19246380Y-68992620D01*
G75*
G02*
X19196380Y-68942620I0J50000D01*
G01*
X19196380Y-67717620D01*
G75*
G02*
X19246380Y-67667620I50000J0D01*
G01*
G37*
G36*
G01*
X19646380Y-67667620D02*
X19746380Y-67667620D01*
G75*
G02*
X19796380Y-67717620I0J-50000D01*
G01*
X19796380Y-68942620D01*
G75*
G02*
X19746380Y-68992620I-50000J0D01*
G01*
X19646380Y-68992620D01*
G75*
G02*
X19596380Y-68942620I0J50000D01*
G01*
X19596380Y-67717620D01*
G75*
G02*
X19646380Y-67667620I50000J0D01*
G01*
G37*
G36*
G01*
X20046380Y-67667620D02*
X20146380Y-67667620D01*
G75*
G02*
X20196380Y-67717620I0J-50000D01*
G01*
X20196380Y-68942620D01*
G75*
G02*
X20146380Y-68992620I-50000J0D01*
G01*
X20046380Y-68992620D01*
G75*
G02*
X19996380Y-68942620I0J50000D01*
G01*
X19996380Y-67717620D01*
G75*
G02*
X20046380Y-67667620I50000J0D01*
G01*
G37*
G36*
G01*
X20446380Y-67667620D02*
X20546380Y-67667620D01*
G75*
G02*
X20596380Y-67717620I0J-50000D01*
G01*
X20596380Y-68942620D01*
G75*
G02*
X20546380Y-68992620I-50000J0D01*
G01*
X20446380Y-68992620D01*
G75*
G02*
X20396380Y-68942620I0J50000D01*
G01*
X20396380Y-67717620D01*
G75*
G02*
X20446380Y-67667620I50000J0D01*
G01*
G37*
G36*
G01*
X20846380Y-67667620D02*
X20946380Y-67667620D01*
G75*
G02*
X20996380Y-67717620I0J-50000D01*
G01*
X20996380Y-68942620D01*
G75*
G02*
X20946380Y-68992620I-50000J0D01*
G01*
X20846380Y-68992620D01*
G75*
G02*
X20796380Y-68942620I0J50000D01*
G01*
X20796380Y-67717620D01*
G75*
G02*
X20846380Y-67667620I50000J0D01*
G01*
G37*
G36*
G01*
X21246380Y-67667620D02*
X21346380Y-67667620D01*
G75*
G02*
X21396380Y-67717620I0J-50000D01*
G01*
X21396380Y-68942620D01*
G75*
G02*
X21346380Y-68992620I-50000J0D01*
G01*
X21246380Y-68992620D01*
G75*
G02*
X21196380Y-68942620I0J50000D01*
G01*
X21196380Y-67717620D01*
G75*
G02*
X21246380Y-67667620I50000J0D01*
G01*
G37*
G36*
G01*
X21646380Y-67667620D02*
X21746380Y-67667620D01*
G75*
G02*
X21796380Y-67717620I0J-50000D01*
G01*
X21796380Y-68942620D01*
G75*
G02*
X21746380Y-68992620I-50000J0D01*
G01*
X21646380Y-68992620D01*
G75*
G02*
X21596380Y-68942620I0J50000D01*
G01*
X21596380Y-67717620D01*
G75*
G02*
X21646380Y-67667620I50000J0D01*
G01*
G37*
G36*
G01*
X23708880Y-69230120D02*
X23708880Y-69330120D01*
G75*
G02*
X23658880Y-69380120I-50000J0D01*
G01*
X22433880Y-69380120D01*
G75*
G02*
X22383880Y-69330120I0J50000D01*
G01*
X22383880Y-69230120D01*
G75*
G02*
X22433880Y-69180120I50000J0D01*
G01*
X23658880Y-69180120D01*
G75*
G02*
X23708880Y-69230120I0J-50000D01*
G01*
G37*
G36*
G01*
X23708880Y-69630120D02*
X23708880Y-69730120D01*
G75*
G02*
X23658880Y-69780120I-50000J0D01*
G01*
X22433880Y-69780120D01*
G75*
G02*
X22383880Y-69730120I0J50000D01*
G01*
X22383880Y-69630120D01*
G75*
G02*
X22433880Y-69580120I50000J0D01*
G01*
X23658880Y-69580120D01*
G75*
G02*
X23708880Y-69630120I0J-50000D01*
G01*
G37*
G36*
G01*
X23708880Y-70030120D02*
X23708880Y-70130120D01*
G75*
G02*
X23658880Y-70180120I-50000J0D01*
G01*
X22433880Y-70180120D01*
G75*
G02*
X22383880Y-70130120I0J50000D01*
G01*
X22383880Y-70030120D01*
G75*
G02*
X22433880Y-69980120I50000J0D01*
G01*
X23658880Y-69980120D01*
G75*
G02*
X23708880Y-70030120I0J-50000D01*
G01*
G37*
G36*
G01*
X23708880Y-70430120D02*
X23708880Y-70530120D01*
G75*
G02*
X23658880Y-70580120I-50000J0D01*
G01*
X22433880Y-70580120D01*
G75*
G02*
X22383880Y-70530120I0J50000D01*
G01*
X22383880Y-70430120D01*
G75*
G02*
X22433880Y-70380120I50000J0D01*
G01*
X23658880Y-70380120D01*
G75*
G02*
X23708880Y-70430120I0J-50000D01*
G01*
G37*
G36*
G01*
X23708880Y-70830120D02*
X23708880Y-70930120D01*
G75*
G02*
X23658880Y-70980120I-50000J0D01*
G01*
X22433880Y-70980120D01*
G75*
G02*
X22383880Y-70930120I0J50000D01*
G01*
X22383880Y-70830120D01*
G75*
G02*
X22433880Y-70780120I50000J0D01*
G01*
X23658880Y-70780120D01*
G75*
G02*
X23708880Y-70830120I0J-50000D01*
G01*
G37*
G36*
G01*
X23708880Y-71230120D02*
X23708880Y-71330120D01*
G75*
G02*
X23658880Y-71380120I-50000J0D01*
G01*
X22433880Y-71380120D01*
G75*
G02*
X22383880Y-71330120I0J50000D01*
G01*
X22383880Y-71230120D01*
G75*
G02*
X22433880Y-71180120I50000J0D01*
G01*
X23658880Y-71180120D01*
G75*
G02*
X23708880Y-71230120I0J-50000D01*
G01*
G37*
G36*
G01*
X23708880Y-71630120D02*
X23708880Y-71730120D01*
G75*
G02*
X23658880Y-71780120I-50000J0D01*
G01*
X22433880Y-71780120D01*
G75*
G02*
X22383880Y-71730120I0J50000D01*
G01*
X22383880Y-71630120D01*
G75*
G02*
X22433880Y-71580120I50000J0D01*
G01*
X23658880Y-71580120D01*
G75*
G02*
X23708880Y-71630120I0J-50000D01*
G01*
G37*
G36*
G01*
X23708880Y-72030120D02*
X23708880Y-72130120D01*
G75*
G02*
X23658880Y-72180120I-50000J0D01*
G01*
X22433880Y-72180120D01*
G75*
G02*
X22383880Y-72130120I0J50000D01*
G01*
X22383880Y-72030120D01*
G75*
G02*
X22433880Y-71980120I50000J0D01*
G01*
X23658880Y-71980120D01*
G75*
G02*
X23708880Y-72030120I0J-50000D01*
G01*
G37*
G36*
G01*
X23708880Y-72430120D02*
X23708880Y-72530120D01*
G75*
G02*
X23658880Y-72580120I-50000J0D01*
G01*
X22433880Y-72580120D01*
G75*
G02*
X22383880Y-72530120I0J50000D01*
G01*
X22383880Y-72430120D01*
G75*
G02*
X22433880Y-72380120I50000J0D01*
G01*
X23658880Y-72380120D01*
G75*
G02*
X23708880Y-72430120I0J-50000D01*
G01*
G37*
G36*
G01*
X23708880Y-72830120D02*
X23708880Y-72930120D01*
G75*
G02*
X23658880Y-72980120I-50000J0D01*
G01*
X22433880Y-72980120D01*
G75*
G02*
X22383880Y-72930120I0J50000D01*
G01*
X22383880Y-72830120D01*
G75*
G02*
X22433880Y-72780120I50000J0D01*
G01*
X23658880Y-72780120D01*
G75*
G02*
X23708880Y-72830120I0J-50000D01*
G01*
G37*
G36*
G01*
X23708880Y-73230120D02*
X23708880Y-73330120D01*
G75*
G02*
X23658880Y-73380120I-50000J0D01*
G01*
X22433880Y-73380120D01*
G75*
G02*
X22383880Y-73330120I0J50000D01*
G01*
X22383880Y-73230120D01*
G75*
G02*
X22433880Y-73180120I50000J0D01*
G01*
X23658880Y-73180120D01*
G75*
G02*
X23708880Y-73230120I0J-50000D01*
G01*
G37*
G36*
G01*
X23708880Y-73630120D02*
X23708880Y-73730120D01*
G75*
G02*
X23658880Y-73780120I-50000J0D01*
G01*
X22433880Y-73780120D01*
G75*
G02*
X22383880Y-73730120I0J50000D01*
G01*
X22383880Y-73630120D01*
G75*
G02*
X22433880Y-73580120I50000J0D01*
G01*
X23658880Y-73580120D01*
G75*
G02*
X23708880Y-73630120I0J-50000D01*
G01*
G37*
G36*
G01*
X23708880Y-74030120D02*
X23708880Y-74130120D01*
G75*
G02*
X23658880Y-74180120I-50000J0D01*
G01*
X22433880Y-74180120D01*
G75*
G02*
X22383880Y-74130120I0J50000D01*
G01*
X22383880Y-74030120D01*
G75*
G02*
X22433880Y-73980120I50000J0D01*
G01*
X23658880Y-73980120D01*
G75*
G02*
X23708880Y-74030120I0J-50000D01*
G01*
G37*
G36*
G01*
X23708880Y-74430120D02*
X23708880Y-74530120D01*
G75*
G02*
X23658880Y-74580120I-50000J0D01*
G01*
X22433880Y-74580120D01*
G75*
G02*
X22383880Y-74530120I0J50000D01*
G01*
X22383880Y-74430120D01*
G75*
G02*
X22433880Y-74380120I50000J0D01*
G01*
X23658880Y-74380120D01*
G75*
G02*
X23708880Y-74430120I0J-50000D01*
G01*
G37*
G36*
G01*
X14933880Y-74780120D02*
X16158880Y-74780120D01*
G75*
G02*
X16208880Y-74830120I0J-50000D01*
G01*
X16208880Y-74930120D01*
G75*
G02*
X16158880Y-74980120I-50000J0D01*
G01*
X14933880Y-74980120D01*
G75*
G02*
X14883880Y-74930120I0J50000D01*
G01*
X14883880Y-74830120D01*
G75*
G02*
X14933880Y-74780120I50000J0D01*
G01*
G37*
G36*
G01*
X14933880Y-74380120D02*
X16158880Y-74380120D01*
G75*
G02*
X16208880Y-74430120I0J-50000D01*
G01*
X16208880Y-74530120D01*
G75*
G02*
X16158880Y-74580120I-50000J0D01*
G01*
X14933880Y-74580120D01*
G75*
G02*
X14883880Y-74530120I0J50000D01*
G01*
X14883880Y-74430120D01*
G75*
G02*
X14933880Y-74380120I50000J0D01*
G01*
G37*
G36*
G01*
X14933880Y-73980120D02*
X16158880Y-73980120D01*
G75*
G02*
X16208880Y-74030120I0J-50000D01*
G01*
X16208880Y-74130120D01*
G75*
G02*
X16158880Y-74180120I-50000J0D01*
G01*
X14933880Y-74180120D01*
G75*
G02*
X14883880Y-74130120I0J50000D01*
G01*
X14883880Y-74030120D01*
G75*
G02*
X14933880Y-73980120I50000J0D01*
G01*
G37*
G36*
G01*
X14933880Y-73580120D02*
X16158880Y-73580120D01*
G75*
G02*
X16208880Y-73630120I0J-50000D01*
G01*
X16208880Y-73730120D01*
G75*
G02*
X16158880Y-73780120I-50000J0D01*
G01*
X14933880Y-73780120D01*
G75*
G02*
X14883880Y-73730120I0J50000D01*
G01*
X14883880Y-73630120D01*
G75*
G02*
X14933880Y-73580120I50000J0D01*
G01*
G37*
G36*
G01*
X14933880Y-73180120D02*
X16158880Y-73180120D01*
G75*
G02*
X16208880Y-73230120I0J-50000D01*
G01*
X16208880Y-73330120D01*
G75*
G02*
X16158880Y-73380120I-50000J0D01*
G01*
X14933880Y-73380120D01*
G75*
G02*
X14883880Y-73330120I0J50000D01*
G01*
X14883880Y-73230120D01*
G75*
G02*
X14933880Y-73180120I50000J0D01*
G01*
G37*
G36*
G01*
X14933880Y-72780120D02*
X16158880Y-72780120D01*
G75*
G02*
X16208880Y-72830120I0J-50000D01*
G01*
X16208880Y-72930120D01*
G75*
G02*
X16158880Y-72980120I-50000J0D01*
G01*
X14933880Y-72980120D01*
G75*
G02*
X14883880Y-72930120I0J50000D01*
G01*
X14883880Y-72830120D01*
G75*
G02*
X14933880Y-72780120I50000J0D01*
G01*
G37*
G36*
G01*
X14933880Y-72380120D02*
X16158880Y-72380120D01*
G75*
G02*
X16208880Y-72430120I0J-50000D01*
G01*
X16208880Y-72530120D01*
G75*
G02*
X16158880Y-72580120I-50000J0D01*
G01*
X14933880Y-72580120D01*
G75*
G02*
X14883880Y-72530120I0J50000D01*
G01*
X14883880Y-72430120D01*
G75*
G02*
X14933880Y-72380120I50000J0D01*
G01*
G37*
G36*
G01*
X14933880Y-71980120D02*
X16158880Y-71980120D01*
G75*
G02*
X16208880Y-72030120I0J-50000D01*
G01*
X16208880Y-72130120D01*
G75*
G02*
X16158880Y-72180120I-50000J0D01*
G01*
X14933880Y-72180120D01*
G75*
G02*
X14883880Y-72130120I0J50000D01*
G01*
X14883880Y-72030120D01*
G75*
G02*
X14933880Y-71980120I50000J0D01*
G01*
G37*
G36*
G01*
X14933880Y-71580120D02*
X16158880Y-71580120D01*
G75*
G02*
X16208880Y-71630120I0J-50000D01*
G01*
X16208880Y-71730120D01*
G75*
G02*
X16158880Y-71780120I-50000J0D01*
G01*
X14933880Y-71780120D01*
G75*
G02*
X14883880Y-71730120I0J50000D01*
G01*
X14883880Y-71630120D01*
G75*
G02*
X14933880Y-71580120I50000J0D01*
G01*
G37*
G36*
G01*
X14933880Y-71180120D02*
X16158880Y-71180120D01*
G75*
G02*
X16208880Y-71230120I0J-50000D01*
G01*
X16208880Y-71330120D01*
G75*
G02*
X16158880Y-71380120I-50000J0D01*
G01*
X14933880Y-71380120D01*
G75*
G02*
X14883880Y-71330120I0J50000D01*
G01*
X14883880Y-71230120D01*
G75*
G02*
X14933880Y-71180120I50000J0D01*
G01*
G37*
G36*
G01*
X14933880Y-70780120D02*
X16158880Y-70780120D01*
G75*
G02*
X16208880Y-70830120I0J-50000D01*
G01*
X16208880Y-70930120D01*
G75*
G02*
X16158880Y-70980120I-50000J0D01*
G01*
X14933880Y-70980120D01*
G75*
G02*
X14883880Y-70930120I0J50000D01*
G01*
X14883880Y-70830120D01*
G75*
G02*
X14933880Y-70780120I50000J0D01*
G01*
G37*
G36*
G01*
X14933880Y-70380120D02*
X16158880Y-70380120D01*
G75*
G02*
X16208880Y-70430120I0J-50000D01*
G01*
X16208880Y-70530120D01*
G75*
G02*
X16158880Y-70580120I-50000J0D01*
G01*
X14933880Y-70580120D01*
G75*
G02*
X14883880Y-70530120I0J50000D01*
G01*
X14883880Y-70430120D01*
G75*
G02*
X14933880Y-70380120I50000J0D01*
G01*
G37*
G36*
G01*
X14933880Y-69980120D02*
X16158880Y-69980120D01*
G75*
G02*
X16208880Y-70030120I0J-50000D01*
G01*
X16208880Y-70130120D01*
G75*
G02*
X16158880Y-70180120I-50000J0D01*
G01*
X14933880Y-70180120D01*
G75*
G02*
X14883880Y-70130120I0J50000D01*
G01*
X14883880Y-70030120D01*
G75*
G02*
X14933880Y-69980120I50000J0D01*
G01*
G37*
G36*
G01*
X14933880Y-69580120D02*
X16158880Y-69580120D01*
G75*
G02*
X16208880Y-69630120I0J-50000D01*
G01*
X16208880Y-69730120D01*
G75*
G02*
X16158880Y-69780120I-50000J0D01*
G01*
X14933880Y-69780120D01*
G75*
G02*
X14883880Y-69730120I0J50000D01*
G01*
X14883880Y-69630120D01*
G75*
G02*
X14933880Y-69580120I50000J0D01*
G01*
G37*
G36*
G01*
X21662880Y-73646619D02*
X21662880Y-74196621D01*
G75*
G02*
X21412881Y-74446620I-249999J0D01*
G01*
X20862879Y-74446620D01*
G75*
G02*
X20612880Y-74196621I0J249999D01*
G01*
X20612880Y-73646619D01*
G75*
G02*
X20862879Y-73396620I249999J0D01*
G01*
X21412881Y-73396620D01*
G75*
G02*
X21662880Y-73646619I0J-249999D01*
G01*
G37*
G36*
G01*
X16446380Y-75167620D02*
X16546380Y-75167620D01*
G75*
G02*
X16596380Y-75217620I0J-50000D01*
G01*
X16596380Y-76442620D01*
G75*
G02*
X16546380Y-76492620I-50000J0D01*
G01*
X16446380Y-76492620D01*
G75*
G02*
X16396380Y-76442620I0J50000D01*
G01*
X16396380Y-75217620D01*
G75*
G02*
X16446380Y-75167620I50000J0D01*
G01*
G37*
G36*
G01*
X14883880Y-74930120D02*
X14883880Y-74830120D01*
G75*
G02*
X14933880Y-74780120I50000J0D01*
G01*
X16158880Y-74780120D01*
G75*
G02*
X16208880Y-74830120I0J-50000D01*
G01*
X16208880Y-74930120D01*
G75*
G02*
X16158880Y-74980120I-50000J0D01*
G01*
X14933880Y-74980120D01*
G75*
G02*
X14883880Y-74930120I0J50000D01*
G01*
G37*
G36*
G01*
X14933880Y-69180120D02*
X16158880Y-69180120D01*
G75*
G02*
X16208880Y-69230120I0J-50000D01*
G01*
X16208880Y-69330120D01*
G75*
G02*
X16158880Y-69380120I-50000J0D01*
G01*
X14933880Y-69380120D01*
G75*
G02*
X14883880Y-69330120I0J50000D01*
G01*
X14883880Y-69230120D01*
G75*
G02*
X14933880Y-69180120I50000J0D01*
G01*
G37*
G36*
G01*
X22046380Y-67667620D02*
X22146380Y-67667620D01*
G75*
G02*
X22196380Y-67717620I0J-50000D01*
G01*
X22196380Y-68942620D01*
G75*
G02*
X22146380Y-68992620I-50000J0D01*
G01*
X22046380Y-68992620D01*
G75*
G02*
X21996380Y-68942620I0J50000D01*
G01*
X21996380Y-67717620D01*
G75*
G02*
X22046380Y-67667620I50000J0D01*
G01*
G37*
G36*
G01*
X23708880Y-74830120D02*
X23708880Y-74930120D01*
G75*
G02*
X23658880Y-74980120I-50000J0D01*
G01*
X22433880Y-74980120D01*
G75*
G02*
X22383880Y-74930120I0J50000D01*
G01*
X22383880Y-74830120D01*
G75*
G02*
X22433880Y-74780120I50000J0D01*
G01*
X23658880Y-74780120D01*
G75*
G02*
X23708880Y-74830120I0J-50000D01*
G01*
G37*
D13*
X61371660Y-85503980D03*
X61371660Y-87403980D03*
X59171660Y-87403980D03*
X59171660Y-86453980D03*
X59171660Y-85503980D03*
G36*
G01*
X57805820Y-90548680D02*
X57805820Y-90893680D01*
G75*
G02*
X57658320Y-91041180I-147500J0D01*
G01*
X57363320Y-91041180D01*
G75*
G02*
X57215820Y-90893680I0J147500D01*
G01*
X57215820Y-90548680D01*
G75*
G02*
X57363320Y-90401180I147500J0D01*
G01*
X57658320Y-90401180D01*
G75*
G02*
X57805820Y-90548680I0J-147500D01*
G01*
G37*
G36*
G01*
X58775820Y-90548680D02*
X58775820Y-90893680D01*
G75*
G02*
X58628320Y-91041180I-147500J0D01*
G01*
X58333320Y-91041180D01*
G75*
G02*
X58185820Y-90893680I0J147500D01*
G01*
X58185820Y-90548680D01*
G75*
G02*
X58333320Y-90401180I147500J0D01*
G01*
X58628320Y-90401180D01*
G75*
G02*
X58775820Y-90548680I0J-147500D01*
G01*
G37*
G36*
G01*
X57841380Y-89426000D02*
X57841380Y-89771000D01*
G75*
G02*
X57693880Y-89918500I-147500J0D01*
G01*
X57398880Y-89918500D01*
G75*
G02*
X57251380Y-89771000I0J147500D01*
G01*
X57251380Y-89426000D01*
G75*
G02*
X57398880Y-89278500I147500J0D01*
G01*
X57693880Y-89278500D01*
G75*
G02*
X57841380Y-89426000I0J-147500D01*
G01*
G37*
G36*
G01*
X58811380Y-89426000D02*
X58811380Y-89771000D01*
G75*
G02*
X58663880Y-89918500I-147500J0D01*
G01*
X58368880Y-89918500D01*
G75*
G02*
X58221380Y-89771000I0J147500D01*
G01*
X58221380Y-89426000D01*
G75*
G02*
X58368880Y-89278500I147500J0D01*
G01*
X58663880Y-89278500D01*
G75*
G02*
X58811380Y-89426000I0J-147500D01*
G01*
G37*
G36*
G01*
X60129920Y-89400600D02*
X60129920Y-89745600D01*
G75*
G02*
X59982420Y-89893100I-147500J0D01*
G01*
X59687420Y-89893100D01*
G75*
G02*
X59539920Y-89745600I0J147500D01*
G01*
X59539920Y-89400600D01*
G75*
G02*
X59687420Y-89253100I147500J0D01*
G01*
X59982420Y-89253100D01*
G75*
G02*
X60129920Y-89400600I0J-147500D01*
G01*
G37*
G36*
G01*
X61099920Y-89400600D02*
X61099920Y-89745600D01*
G75*
G02*
X60952420Y-89893100I-147500J0D01*
G01*
X60657420Y-89893100D01*
G75*
G02*
X60509920Y-89745600I0J147500D01*
G01*
X60509920Y-89400600D01*
G75*
G02*
X60657420Y-89253100I147500J0D01*
G01*
X60952420Y-89253100D01*
G75*
G02*
X61099920Y-89400600I0J-147500D01*
G01*
G37*
G36*
G01*
X17791780Y-61490720D02*
X17791780Y-61790720D01*
G75*
G02*
X17641780Y-61940720I-150000J0D01*
G01*
X16341780Y-61940720D01*
G75*
G02*
X16191780Y-61790720I0J150000D01*
G01*
X16191780Y-61490720D01*
G75*
G02*
X16341780Y-61340720I150000J0D01*
G01*
X17641780Y-61340720D01*
G75*
G02*
X17791780Y-61490720I0J-150000D01*
G01*
G37*
G36*
G01*
X17791780Y-60220720D02*
X17791780Y-60520720D01*
G75*
G02*
X17641780Y-60670720I-150000J0D01*
G01*
X16341780Y-60670720D01*
G75*
G02*
X16191780Y-60520720I0J150000D01*
G01*
X16191780Y-60220720D01*
G75*
G02*
X16341780Y-60070720I150000J0D01*
G01*
X17641780Y-60070720D01*
G75*
G02*
X17791780Y-60220720I0J-150000D01*
G01*
G37*
G36*
G01*
X17791780Y-58950720D02*
X17791780Y-59250720D01*
G75*
G02*
X17641780Y-59400720I-150000J0D01*
G01*
X16341780Y-59400720D01*
G75*
G02*
X16191780Y-59250720I0J150000D01*
G01*
X16191780Y-58950720D01*
G75*
G02*
X16341780Y-58800720I150000J0D01*
G01*
X17641780Y-58800720D01*
G75*
G02*
X17791780Y-58950720I0J-150000D01*
G01*
G37*
G36*
G01*
X17791780Y-57680720D02*
X17791780Y-57980720D01*
G75*
G02*
X17641780Y-58130720I-150000J0D01*
G01*
X16341780Y-58130720D01*
G75*
G02*
X16191780Y-57980720I0J150000D01*
G01*
X16191780Y-57680720D01*
G75*
G02*
X16341780Y-57530720I150000J0D01*
G01*
X17641780Y-57530720D01*
G75*
G02*
X17791780Y-57680720I0J-150000D01*
G01*
G37*
G36*
G01*
X24991780Y-57680720D02*
X24991780Y-57980720D01*
G75*
G02*
X24841780Y-58130720I-150000J0D01*
G01*
X23541780Y-58130720D01*
G75*
G02*
X23391780Y-57980720I0J150000D01*
G01*
X23391780Y-57680720D01*
G75*
G02*
X23541780Y-57530720I150000J0D01*
G01*
X24841780Y-57530720D01*
G75*
G02*
X24991780Y-57680720I0J-150000D01*
G01*
G37*
G36*
G01*
X24991780Y-58950720D02*
X24991780Y-59250720D01*
G75*
G02*
X24841780Y-59400720I-150000J0D01*
G01*
X23541780Y-59400720D01*
G75*
G02*
X23391780Y-59250720I0J150000D01*
G01*
X23391780Y-58950720D01*
G75*
G02*
X23541780Y-58800720I150000J0D01*
G01*
X24841780Y-58800720D01*
G75*
G02*
X24991780Y-58950720I0J-150000D01*
G01*
G37*
G36*
G01*
X24991780Y-60220720D02*
X24991780Y-60520720D01*
G75*
G02*
X24841780Y-60670720I-150000J0D01*
G01*
X23541780Y-60670720D01*
G75*
G02*
X23391780Y-60520720I0J150000D01*
G01*
X23391780Y-60220720D01*
G75*
G02*
X23541780Y-60070720I150000J0D01*
G01*
X24841780Y-60070720D01*
G75*
G02*
X24991780Y-60220720I0J-150000D01*
G01*
G37*
G36*
G01*
X24991780Y-61490720D02*
X24991780Y-61790720D01*
G75*
G02*
X24841780Y-61940720I-150000J0D01*
G01*
X23541780Y-61940720D01*
G75*
G02*
X23391780Y-61790720I0J150000D01*
G01*
X23391780Y-61490720D01*
G75*
G02*
X23541780Y-61340720I150000J0D01*
G01*
X24841780Y-61340720D01*
G75*
G02*
X24991780Y-61490720I0J-150000D01*
G01*
G37*
G36*
G01*
X20446580Y-22413910D02*
X20446580Y-23326410D01*
G75*
G02*
X20202830Y-23570160I-243750J0D01*
G01*
X19715330Y-23570160D01*
G75*
G02*
X19471580Y-23326410I0J243750D01*
G01*
X19471580Y-22413910D01*
G75*
G02*
X19715330Y-22170160I243750J0D01*
G01*
X20202830Y-22170160D01*
G75*
G02*
X20446580Y-22413910I0J-243750D01*
G01*
G37*
G36*
G01*
X22321580Y-22413910D02*
X22321580Y-23326410D01*
G75*
G02*
X22077830Y-23570160I-243750J0D01*
G01*
X21590330Y-23570160D01*
G75*
G02*
X21346580Y-23326410I0J243750D01*
G01*
X21346580Y-22413910D01*
G75*
G02*
X21590330Y-22170160I243750J0D01*
G01*
X22077830Y-22170160D01*
G75*
G02*
X22321580Y-22413910I0J-243750D01*
G01*
G37*
G36*
G01*
X56280180Y-10291320D02*
X56280180Y-8291320D01*
G75*
G02*
X56530180Y-8041320I250000J0D01*
G01*
X60430180Y-8041320D01*
G75*
G02*
X60680180Y-8291320I0J-250000D01*
G01*
X60680180Y-10291320D01*
G75*
G02*
X60430180Y-10541320I-250000J0D01*
G01*
X56530180Y-10541320D01*
G75*
G02*
X56280180Y-10291320I0J250000D01*
G01*
G37*
G36*
G01*
X48880180Y-10291320D02*
X48880180Y-8291320D01*
G75*
G02*
X49130180Y-8041320I250000J0D01*
G01*
X53030180Y-8041320D01*
G75*
G02*
X53280180Y-8291320I0J-250000D01*
G01*
X53280180Y-10291320D01*
G75*
G02*
X53030180Y-10541320I-250000J0D01*
G01*
X49130180Y-10541320D01*
G75*
G02*
X48880180Y-10291320I0J250000D01*
G01*
G37*
G36*
G01*
X16450512Y-65791580D02*
X16105512Y-65791580D01*
G75*
G02*
X15958012Y-65644080I0J147500D01*
G01*
X15958012Y-65349080D01*
G75*
G02*
X16105512Y-65201580I147500J0D01*
G01*
X16450512Y-65201580D01*
G75*
G02*
X16598012Y-65349080I0J-147500D01*
G01*
X16598012Y-65644080D01*
G75*
G02*
X16450512Y-65791580I-147500J0D01*
G01*
G37*
G36*
G01*
X16450512Y-66761580D02*
X16105512Y-66761580D01*
G75*
G02*
X15958012Y-66614080I0J147500D01*
G01*
X15958012Y-66319080D01*
G75*
G02*
X16105512Y-66171580I147500J0D01*
G01*
X16450512Y-66171580D01*
G75*
G02*
X16598012Y-66319080I0J-147500D01*
G01*
X16598012Y-66614080D01*
G75*
G02*
X16450512Y-66761580I-147500J0D01*
G01*
G37*
D14*
X48807100Y-82001360D03*
X52107100Y-82001360D03*
G36*
G01*
X53815200Y-81871320D02*
X54160200Y-81871320D01*
G75*
G02*
X54307700Y-82018820I0J-147500D01*
G01*
X54307700Y-82313820D01*
G75*
G02*
X54160200Y-82461320I-147500J0D01*
G01*
X53815200Y-82461320D01*
G75*
G02*
X53667700Y-82313820I0J147500D01*
G01*
X53667700Y-82018820D01*
G75*
G02*
X53815200Y-81871320I147500J0D01*
G01*
G37*
G36*
G01*
X53815200Y-80901320D02*
X54160200Y-80901320D01*
G75*
G02*
X54307700Y-81048820I0J-147500D01*
G01*
X54307700Y-81343820D01*
G75*
G02*
X54160200Y-81491320I-147500J0D01*
G01*
X53815200Y-81491320D01*
G75*
G02*
X53667700Y-81343820I0J147500D01*
G01*
X53667700Y-81048820D01*
G75*
G02*
X53815200Y-80901320I147500J0D01*
G01*
G37*
G36*
G01*
X50370960Y-86362040D02*
X50715960Y-86362040D01*
G75*
G02*
X50863460Y-86509540I0J-147500D01*
G01*
X50863460Y-86804540D01*
G75*
G02*
X50715960Y-86952040I-147500J0D01*
G01*
X50370960Y-86952040D01*
G75*
G02*
X50223460Y-86804540I0J147500D01*
G01*
X50223460Y-86509540D01*
G75*
G02*
X50370960Y-86362040I147500J0D01*
G01*
G37*
G36*
G01*
X50370960Y-85392040D02*
X50715960Y-85392040D01*
G75*
G02*
X50863460Y-85539540I0J-147500D01*
G01*
X50863460Y-85834540D01*
G75*
G02*
X50715960Y-85982040I-147500J0D01*
G01*
X50370960Y-85982040D01*
G75*
G02*
X50223460Y-85834540I0J147500D01*
G01*
X50223460Y-85539540D01*
G75*
G02*
X50370960Y-85392040I147500J0D01*
G01*
G37*
G36*
G01*
X46707440Y-82801170D02*
X46707440Y-82288670D01*
G75*
G02*
X46926190Y-82069920I218750J0D01*
G01*
X47363690Y-82069920D01*
G75*
G02*
X47582440Y-82288670I0J-218750D01*
G01*
X47582440Y-82801170D01*
G75*
G02*
X47363690Y-83019920I-218750J0D01*
G01*
X46926190Y-83019920D01*
G75*
G02*
X46707440Y-82801170I0J218750D01*
G01*
G37*
G36*
G01*
X45132440Y-82801170D02*
X45132440Y-82288670D01*
G75*
G02*
X45351190Y-82069920I218750J0D01*
G01*
X45788690Y-82069920D01*
G75*
G02*
X46007440Y-82288670I0J-218750D01*
G01*
X46007440Y-82801170D01*
G75*
G02*
X45788690Y-83019920I-218750J0D01*
G01*
X45351190Y-83019920D01*
G75*
G02*
X45132440Y-82801170I0J218750D01*
G01*
G37*
G36*
G01*
X56710360Y-87739720D02*
X56365360Y-87739720D01*
G75*
G02*
X56217860Y-87592220I0J147500D01*
G01*
X56217860Y-87297220D01*
G75*
G02*
X56365360Y-87149720I147500J0D01*
G01*
X56710360Y-87149720D01*
G75*
G02*
X56857860Y-87297220I0J-147500D01*
G01*
X56857860Y-87592220D01*
G75*
G02*
X56710360Y-87739720I-147500J0D01*
G01*
G37*
G36*
G01*
X56710360Y-88709720D02*
X56365360Y-88709720D01*
G75*
G02*
X56217860Y-88562220I0J147500D01*
G01*
X56217860Y-88267220D01*
G75*
G02*
X56365360Y-88119720I147500J0D01*
G01*
X56710360Y-88119720D01*
G75*
G02*
X56857860Y-88267220I0J-147500D01*
G01*
X56857860Y-88562220D01*
G75*
G02*
X56710360Y-88709720I-147500J0D01*
G01*
G37*
G36*
G01*
X56360280Y-86067400D02*
X56705280Y-86067400D01*
G75*
G02*
X56852780Y-86214900I0J-147500D01*
G01*
X56852780Y-86509900D01*
G75*
G02*
X56705280Y-86657400I-147500J0D01*
G01*
X56360280Y-86657400D01*
G75*
G02*
X56212780Y-86509900I0J147500D01*
G01*
X56212780Y-86214900D01*
G75*
G02*
X56360280Y-86067400I147500J0D01*
G01*
G37*
G36*
G01*
X56360280Y-85097400D02*
X56705280Y-85097400D01*
G75*
G02*
X56852780Y-85244900I0J-147500D01*
G01*
X56852780Y-85539900D01*
G75*
G02*
X56705280Y-85687400I-147500J0D01*
G01*
X56360280Y-85687400D01*
G75*
G02*
X56212780Y-85539900I0J147500D01*
G01*
X56212780Y-85244900D01*
G75*
G02*
X56360280Y-85097400I147500J0D01*
G01*
G37*
D15*
X52245220Y-84145760D03*
X53195220Y-84145760D03*
X54145220Y-84145760D03*
X54145220Y-86765760D03*
X53195220Y-86765760D03*
X52245220Y-86765760D03*
G36*
G01*
X46674740Y-84030240D02*
X46674740Y-86180240D01*
G75*
G02*
X46424740Y-86430240I-250000J0D01*
G01*
X45674740Y-86430240D01*
G75*
G02*
X45424740Y-86180240I0J250000D01*
G01*
X45424740Y-84030240D01*
G75*
G02*
X45674740Y-83780240I250000J0D01*
G01*
X46424740Y-83780240D01*
G75*
G02*
X46674740Y-84030240I0J-250000D01*
G01*
G37*
G36*
G01*
X49474740Y-84030240D02*
X49474740Y-86180240D01*
G75*
G02*
X49224740Y-86430240I-250000J0D01*
G01*
X48474740Y-86430240D01*
G75*
G02*
X48224740Y-86180240I0J250000D01*
G01*
X48224740Y-84030240D01*
G75*
G02*
X48474740Y-83780240I250000J0D01*
G01*
X49224740Y-83780240D01*
G75*
G02*
X49474740Y-84030240I0J-250000D01*
G01*
G37*
G36*
G01*
X51367560Y-52494940D02*
X51367560Y-54494940D01*
G75*
G02*
X51117560Y-54744940I-250000J0D01*
G01*
X47217560Y-54744940D01*
G75*
G02*
X46967560Y-54494940I0J250000D01*
G01*
X46967560Y-52494940D01*
G75*
G02*
X47217560Y-52244940I250000J0D01*
G01*
X51117560Y-52244940D01*
G75*
G02*
X51367560Y-52494940I0J-250000D01*
G01*
G37*
G36*
G01*
X58767560Y-52494940D02*
X58767560Y-54494940D01*
G75*
G02*
X58517560Y-54744940I-250000J0D01*
G01*
X54617560Y-54744940D01*
G75*
G02*
X54367560Y-54494940I0J250000D01*
G01*
X54367560Y-52494940D01*
G75*
G02*
X54617560Y-52244940I250000J0D01*
G01*
X58517560Y-52244940D01*
G75*
G02*
X58767560Y-52494940I0J-250000D01*
G01*
G37*
G36*
G01*
X21974940Y-18256760D02*
X21974940Y-16256760D01*
G75*
G02*
X22224940Y-16006760I250000J0D01*
G01*
X26124940Y-16006760D01*
G75*
G02*
X26374940Y-16256760I0J-250000D01*
G01*
X26374940Y-18256760D01*
G75*
G02*
X26124940Y-18506760I-250000J0D01*
G01*
X22224940Y-18506760D01*
G75*
G02*
X21974940Y-18256760I0J250000D01*
G01*
G37*
G36*
G01*
X14574940Y-18256760D02*
X14574940Y-16256760D01*
G75*
G02*
X14824940Y-16006760I250000J0D01*
G01*
X18724940Y-16006760D01*
G75*
G02*
X18974940Y-16256760I0J-250000D01*
G01*
X18974940Y-18256760D01*
G75*
G02*
X18724940Y-18506760I-250000J0D01*
G01*
X14824940Y-18506760D01*
G75*
G02*
X14574940Y-18256760I0J250000D01*
G01*
G37*
G36*
G01*
X15650000Y-80143750D02*
X15650000Y-80656250D01*
G75*
G02*
X15431250Y-80875000I-218750J0D01*
G01*
X14993750Y-80875000D01*
G75*
G02*
X14775000Y-80656250I0J218750D01*
G01*
X14775000Y-80143750D01*
G75*
G02*
X14993750Y-79925000I218750J0D01*
G01*
X15431250Y-79925000D01*
G75*
G02*
X15650000Y-80143750I0J-218750D01*
G01*
G37*
G36*
G01*
X17225000Y-80143750D02*
X17225000Y-80656250D01*
G75*
G02*
X17006250Y-80875000I-218750J0D01*
G01*
X16568750Y-80875000D01*
G75*
G02*
X16350000Y-80656250I0J218750D01*
G01*
X16350000Y-80143750D01*
G75*
G02*
X16568750Y-79925000I218750J0D01*
G01*
X17006250Y-79925000D01*
G75*
G02*
X17225000Y-80143750I0J-218750D01*
G01*
G37*
G36*
G01*
X52945780Y-34490370D02*
X52945780Y-33977870D01*
G75*
G02*
X53164530Y-33759120I218750J0D01*
G01*
X53602030Y-33759120D01*
G75*
G02*
X53820780Y-33977870I0J-218750D01*
G01*
X53820780Y-34490370D01*
G75*
G02*
X53602030Y-34709120I-218750J0D01*
G01*
X53164530Y-34709120D01*
G75*
G02*
X52945780Y-34490370I0J218750D01*
G01*
G37*
G36*
G01*
X51370780Y-34490370D02*
X51370780Y-33977870D01*
G75*
G02*
X51589530Y-33759120I218750J0D01*
G01*
X52027030Y-33759120D01*
G75*
G02*
X52245780Y-33977870I0J-218750D01*
G01*
X52245780Y-34490370D01*
G75*
G02*
X52027030Y-34709120I-218750J0D01*
G01*
X51589530Y-34709120D01*
G75*
G02*
X51370780Y-34490370I0J218750D01*
G01*
G37*
D16*
X17100000Y-82500000D03*
X19500000Y-82500000D03*
X19500000Y-84400000D03*
X17100000Y-84400000D03*
G36*
G01*
X54820520Y-43487180D02*
X54820520Y-44737180D01*
G75*
G02*
X54570520Y-44987180I-250000J0D01*
G01*
X53820520Y-44987180D01*
G75*
G02*
X53570520Y-44737180I0J250000D01*
G01*
X53570520Y-43487180D01*
G75*
G02*
X53820520Y-43237180I250000J0D01*
G01*
X54570520Y-43237180D01*
G75*
G02*
X54820520Y-43487180I0J-250000D01*
G01*
G37*
G36*
G01*
X57620520Y-43487180D02*
X57620520Y-44737180D01*
G75*
G02*
X57370520Y-44987180I-250000J0D01*
G01*
X56620520Y-44987180D01*
G75*
G02*
X56370520Y-44737180I0J250000D01*
G01*
X56370520Y-43487180D01*
G75*
G02*
X56620520Y-43237180I250000J0D01*
G01*
X57370520Y-43237180D01*
G75*
G02*
X57620520Y-43487180I0J-250000D01*
G01*
G37*
G36*
G01*
X49625000Y-35666520D02*
X49625000Y-36916520D01*
G75*
G02*
X49375000Y-37166520I-250000J0D01*
G01*
X48625000Y-37166520D01*
G75*
G02*
X48375000Y-36916520I0J250000D01*
G01*
X48375000Y-35666520D01*
G75*
G02*
X48625000Y-35416520I250000J0D01*
G01*
X49375000Y-35416520D01*
G75*
G02*
X49625000Y-35666520I0J-250000D01*
G01*
G37*
G36*
G01*
X52425000Y-35666520D02*
X52425000Y-36916520D01*
G75*
G02*
X52175000Y-37166520I-250000J0D01*
G01*
X51425000Y-37166520D01*
G75*
G02*
X51175000Y-36916520I0J250000D01*
G01*
X51175000Y-35666520D01*
G75*
G02*
X51425000Y-35416520I250000J0D01*
G01*
X52175000Y-35416520D01*
G75*
G02*
X52425000Y-35666520I0J-250000D01*
G01*
G37*
G36*
G01*
X61333540Y-22267880D02*
X60083540Y-22267880D01*
G75*
G02*
X59833540Y-22017880I0J250000D01*
G01*
X59833540Y-21267880D01*
G75*
G02*
X60083540Y-21017880I250000J0D01*
G01*
X61333540Y-21017880D01*
G75*
G02*
X61583540Y-21267880I0J-250000D01*
G01*
X61583540Y-22017880D01*
G75*
G02*
X61333540Y-22267880I-250000J0D01*
G01*
G37*
G36*
G01*
X61333540Y-25067880D02*
X60083540Y-25067880D01*
G75*
G02*
X59833540Y-24817880I0J250000D01*
G01*
X59833540Y-24067880D01*
G75*
G02*
X60083540Y-23817880I250000J0D01*
G01*
X61333540Y-23817880D01*
G75*
G02*
X61583540Y-24067880I0J-250000D01*
G01*
X61583540Y-24817880D01*
G75*
G02*
X61333540Y-25067880I-250000J0D01*
G01*
G37*
G36*
G01*
X60103860Y-28633720D02*
X61353860Y-28633720D01*
G75*
G02*
X61603860Y-28883720I0J-250000D01*
G01*
X61603860Y-29633720D01*
G75*
G02*
X61353860Y-29883720I-250000J0D01*
G01*
X60103860Y-29883720D01*
G75*
G02*
X59853860Y-29633720I0J250000D01*
G01*
X59853860Y-28883720D01*
G75*
G02*
X60103860Y-28633720I250000J0D01*
G01*
G37*
G36*
G01*
X60103860Y-25833720D02*
X61353860Y-25833720D01*
G75*
G02*
X61603860Y-26083720I0J-250000D01*
G01*
X61603860Y-26833720D01*
G75*
G02*
X61353860Y-27083720I-250000J0D01*
G01*
X60103860Y-27083720D01*
G75*
G02*
X59853860Y-26833720I0J250000D01*
G01*
X59853860Y-26083720D01*
G75*
G02*
X60103860Y-25833720I250000J0D01*
G01*
G37*
G36*
G01*
X60053060Y-18707400D02*
X61303060Y-18707400D01*
G75*
G02*
X61553060Y-18957400I0J-250000D01*
G01*
X61553060Y-19707400D01*
G75*
G02*
X61303060Y-19957400I-250000J0D01*
G01*
X60053060Y-19957400D01*
G75*
G02*
X59803060Y-19707400I0J250000D01*
G01*
X59803060Y-18957400D01*
G75*
G02*
X60053060Y-18707400I250000J0D01*
G01*
G37*
G36*
G01*
X60053060Y-15907400D02*
X61303060Y-15907400D01*
G75*
G02*
X61553060Y-16157400I0J-250000D01*
G01*
X61553060Y-16907400D01*
G75*
G02*
X61303060Y-17157400I-250000J0D01*
G01*
X60053060Y-17157400D01*
G75*
G02*
X59803060Y-16907400I0J250000D01*
G01*
X59803060Y-16157400D01*
G75*
G02*
X60053060Y-15907400I250000J0D01*
G01*
G37*
G36*
G01*
X61313220Y-12448240D02*
X60063220Y-12448240D01*
G75*
G02*
X59813220Y-12198240I0J250000D01*
G01*
X59813220Y-11448240D01*
G75*
G02*
X60063220Y-11198240I250000J0D01*
G01*
X61313220Y-11198240D01*
G75*
G02*
X61563220Y-11448240I0J-250000D01*
G01*
X61563220Y-12198240D01*
G75*
G02*
X61313220Y-12448240I-250000J0D01*
G01*
G37*
G36*
G01*
X61313220Y-15248240D02*
X60063220Y-15248240D01*
G75*
G02*
X59813220Y-14998240I0J250000D01*
G01*
X59813220Y-14248240D01*
G75*
G02*
X60063220Y-13998240I250000J0D01*
G01*
X61313220Y-13998240D01*
G75*
G02*
X61563220Y-14248240I0J-250000D01*
G01*
X61563220Y-14998240D01*
G75*
G02*
X61313220Y-15248240I-250000J0D01*
G01*
G37*
G36*
G01*
X38154900Y-67730760D02*
X38154900Y-67530760D01*
G75*
G02*
X38254900Y-67430760I100000J0D01*
G01*
X39529900Y-67430760D01*
G75*
G02*
X39629900Y-67530760I0J-100000D01*
G01*
X39629900Y-67730760D01*
G75*
G02*
X39529900Y-67830760I-100000J0D01*
G01*
X38254900Y-67830760D01*
G75*
G02*
X38154900Y-67730760I0J100000D01*
G01*
G37*
G36*
G01*
X38154900Y-68380760D02*
X38154900Y-68180760D01*
G75*
G02*
X38254900Y-68080760I100000J0D01*
G01*
X39529900Y-68080760D01*
G75*
G02*
X39629900Y-68180760I0J-100000D01*
G01*
X39629900Y-68380760D01*
G75*
G02*
X39529900Y-68480760I-100000J0D01*
G01*
X38254900Y-68480760D01*
G75*
G02*
X38154900Y-68380760I0J100000D01*
G01*
G37*
G36*
G01*
X38154900Y-69030760D02*
X38154900Y-68830760D01*
G75*
G02*
X38254900Y-68730760I100000J0D01*
G01*
X39529900Y-68730760D01*
G75*
G02*
X39629900Y-68830760I0J-100000D01*
G01*
X39629900Y-69030760D01*
G75*
G02*
X39529900Y-69130760I-100000J0D01*
G01*
X38254900Y-69130760D01*
G75*
G02*
X38154900Y-69030760I0J100000D01*
G01*
G37*
G36*
G01*
X38154900Y-69680760D02*
X38154900Y-69480760D01*
G75*
G02*
X38254900Y-69380760I100000J0D01*
G01*
X39529900Y-69380760D01*
G75*
G02*
X39629900Y-69480760I0J-100000D01*
G01*
X39629900Y-69680760D01*
G75*
G02*
X39529900Y-69780760I-100000J0D01*
G01*
X38254900Y-69780760D01*
G75*
G02*
X38154900Y-69680760I0J100000D01*
G01*
G37*
G36*
G01*
X38154900Y-70330760D02*
X38154900Y-70130760D01*
G75*
G02*
X38254900Y-70030760I100000J0D01*
G01*
X39529900Y-70030760D01*
G75*
G02*
X39629900Y-70130760I0J-100000D01*
G01*
X39629900Y-70330760D01*
G75*
G02*
X39529900Y-70430760I-100000J0D01*
G01*
X38254900Y-70430760D01*
G75*
G02*
X38154900Y-70330760I0J100000D01*
G01*
G37*
G36*
G01*
X38154900Y-70980760D02*
X38154900Y-70780760D01*
G75*
G02*
X38254900Y-70680760I100000J0D01*
G01*
X39529900Y-70680760D01*
G75*
G02*
X39629900Y-70780760I0J-100000D01*
G01*
X39629900Y-70980760D01*
G75*
G02*
X39529900Y-71080760I-100000J0D01*
G01*
X38254900Y-71080760D01*
G75*
G02*
X38154900Y-70980760I0J100000D01*
G01*
G37*
G36*
G01*
X38154900Y-71630760D02*
X38154900Y-71430760D01*
G75*
G02*
X38254900Y-71330760I100000J0D01*
G01*
X39529900Y-71330760D01*
G75*
G02*
X39629900Y-71430760I0J-100000D01*
G01*
X39629900Y-71630760D01*
G75*
G02*
X39529900Y-71730760I-100000J0D01*
G01*
X38254900Y-71730760D01*
G75*
G02*
X38154900Y-71630760I0J100000D01*
G01*
G37*
G36*
G01*
X32429900Y-71630760D02*
X32429900Y-71430760D01*
G75*
G02*
X32529900Y-71330760I100000J0D01*
G01*
X33804900Y-71330760D01*
G75*
G02*
X33904900Y-71430760I0J-100000D01*
G01*
X33904900Y-71630760D01*
G75*
G02*
X33804900Y-71730760I-100000J0D01*
G01*
X32529900Y-71730760D01*
G75*
G02*
X32429900Y-71630760I0J100000D01*
G01*
G37*
G36*
G01*
X32429900Y-70980760D02*
X32429900Y-70780760D01*
G75*
G02*
X32529900Y-70680760I100000J0D01*
G01*
X33804900Y-70680760D01*
G75*
G02*
X33904900Y-70780760I0J-100000D01*
G01*
X33904900Y-70980760D01*
G75*
G02*
X33804900Y-71080760I-100000J0D01*
G01*
X32529900Y-71080760D01*
G75*
G02*
X32429900Y-70980760I0J100000D01*
G01*
G37*
G36*
G01*
X32429900Y-70330760D02*
X32429900Y-70130760D01*
G75*
G02*
X32529900Y-70030760I100000J0D01*
G01*
X33804900Y-70030760D01*
G75*
G02*
X33904900Y-70130760I0J-100000D01*
G01*
X33904900Y-70330760D01*
G75*
G02*
X33804900Y-70430760I-100000J0D01*
G01*
X32529900Y-70430760D01*
G75*
G02*
X32429900Y-70330760I0J100000D01*
G01*
G37*
G36*
G01*
X32429900Y-69680760D02*
X32429900Y-69480760D01*
G75*
G02*
X32529900Y-69380760I100000J0D01*
G01*
X33804900Y-69380760D01*
G75*
G02*
X33904900Y-69480760I0J-100000D01*
G01*
X33904900Y-69680760D01*
G75*
G02*
X33804900Y-69780760I-100000J0D01*
G01*
X32529900Y-69780760D01*
G75*
G02*
X32429900Y-69680760I0J100000D01*
G01*
G37*
G36*
G01*
X32429900Y-69030760D02*
X32429900Y-68830760D01*
G75*
G02*
X32529900Y-68730760I100000J0D01*
G01*
X33804900Y-68730760D01*
G75*
G02*
X33904900Y-68830760I0J-100000D01*
G01*
X33904900Y-69030760D01*
G75*
G02*
X33804900Y-69130760I-100000J0D01*
G01*
X32529900Y-69130760D01*
G75*
G02*
X32429900Y-69030760I0J100000D01*
G01*
G37*
G36*
G01*
X32429900Y-68380760D02*
X32429900Y-68180760D01*
G75*
G02*
X32529900Y-68080760I100000J0D01*
G01*
X33804900Y-68080760D01*
G75*
G02*
X33904900Y-68180760I0J-100000D01*
G01*
X33904900Y-68380760D01*
G75*
G02*
X33804900Y-68480760I-100000J0D01*
G01*
X32529900Y-68480760D01*
G75*
G02*
X32429900Y-68380760I0J100000D01*
G01*
G37*
G36*
G01*
X32429900Y-67730760D02*
X32429900Y-67530760D01*
G75*
G02*
X32529900Y-67430760I100000J0D01*
G01*
X33804900Y-67430760D01*
G75*
G02*
X33904900Y-67530760I0J-100000D01*
G01*
X33904900Y-67730760D01*
G75*
G02*
X33804900Y-67830760I-100000J0D01*
G01*
X32529900Y-67830760D01*
G75*
G02*
X32429900Y-67730760I0J100000D01*
G01*
G37*
G36*
G01*
X24719310Y-79462120D02*
X23806810Y-79462120D01*
G75*
G02*
X23563060Y-79218370I0J243750D01*
G01*
X23563060Y-78730870D01*
G75*
G02*
X23806810Y-78487120I243750J0D01*
G01*
X24719310Y-78487120D01*
G75*
G02*
X24963060Y-78730870I0J-243750D01*
G01*
X24963060Y-79218370D01*
G75*
G02*
X24719310Y-79462120I-243750J0D01*
G01*
G37*
G36*
G01*
X24719310Y-81337120D02*
X23806810Y-81337120D01*
G75*
G02*
X23563060Y-81093370I0J243750D01*
G01*
X23563060Y-80605870D01*
G75*
G02*
X23806810Y-80362120I243750J0D01*
G01*
X24719310Y-80362120D01*
G75*
G02*
X24963060Y-80605870I0J-243750D01*
G01*
X24963060Y-81093370D01*
G75*
G02*
X24719310Y-81337120I-243750J0D01*
G01*
G37*
G36*
G01*
X57797180Y-66532470D02*
X57797180Y-66019970D01*
G75*
G02*
X58015930Y-65801220I218750J0D01*
G01*
X58453430Y-65801220D01*
G75*
G02*
X58672180Y-66019970I0J-218750D01*
G01*
X58672180Y-66532470D01*
G75*
G02*
X58453430Y-66751220I-218750J0D01*
G01*
X58015930Y-66751220D01*
G75*
G02*
X57797180Y-66532470I0J218750D01*
G01*
G37*
G36*
G01*
X56222180Y-66532470D02*
X56222180Y-66019970D01*
G75*
G02*
X56440930Y-65801220I218750J0D01*
G01*
X56878430Y-65801220D01*
G75*
G02*
X57097180Y-66019970I0J-218750D01*
G01*
X57097180Y-66532470D01*
G75*
G02*
X56878430Y-66751220I-218750J0D01*
G01*
X56440930Y-66751220D01*
G75*
G02*
X56222180Y-66532470I0J218750D01*
G01*
G37*
D17*
X41680000Y-89270000D03*
X46320000Y-89270000D03*
D18*
X42875000Y-91500000D03*
D19*
X44000000Y-88850000D03*
X44650000Y-88850000D03*
X45300000Y-88850000D03*
X42700000Y-88850000D03*
X43350000Y-88850000D03*
D18*
X45125000Y-91500000D03*
D20*
X47550000Y-18350000D03*
X47550000Y-14350000D03*
D21*
X38300000Y-3225000D03*
X33450000Y-8775000D03*
X38300000Y-8775000D03*
X33450000Y-3225000D03*
D22*
X45025000Y-2600000D03*
X45025000Y-4300000D03*
X45025000Y-6000000D03*
X45025000Y-7700000D03*
X45025000Y-9400000D03*
G36*
G01*
X26590000Y-24222500D02*
X26590000Y-23877500D01*
G75*
G02*
X26737500Y-23730000I147500J0D01*
G01*
X27032500Y-23730000D01*
G75*
G02*
X27180000Y-23877500I0J-147500D01*
G01*
X27180000Y-24222500D01*
G75*
G02*
X27032500Y-24370000I-147500J0D01*
G01*
X26737500Y-24370000D01*
G75*
G02*
X26590000Y-24222500I0J147500D01*
G01*
G37*
G36*
G01*
X25620000Y-24222500D02*
X25620000Y-23877500D01*
G75*
G02*
X25767500Y-23730000I147500J0D01*
G01*
X26062500Y-23730000D01*
G75*
G02*
X26210000Y-23877500I0J-147500D01*
G01*
X26210000Y-24222500D01*
G75*
G02*
X26062500Y-24370000I-147500J0D01*
G01*
X25767500Y-24370000D01*
G75*
G02*
X25620000Y-24222500I0J147500D01*
G01*
G37*
D23*
X30800000Y-20150000D03*
X41300000Y-20150000D03*
G36*
G01*
X26590000Y-25372500D02*
X26590000Y-25027500D01*
G75*
G02*
X26737500Y-24880000I147500J0D01*
G01*
X27032500Y-24880000D01*
G75*
G02*
X27180000Y-25027500I0J-147500D01*
G01*
X27180000Y-25372500D01*
G75*
G02*
X27032500Y-25520000I-147500J0D01*
G01*
X26737500Y-25520000D01*
G75*
G02*
X26590000Y-25372500I0J147500D01*
G01*
G37*
G36*
G01*
X25620000Y-25372500D02*
X25620000Y-25027500D01*
G75*
G02*
X25767500Y-24880000I147500J0D01*
G01*
X26062500Y-24880000D01*
G75*
G02*
X26210000Y-25027500I0J-147500D01*
G01*
X26210000Y-25372500D01*
G75*
G02*
X26062500Y-25520000I-147500J0D01*
G01*
X25767500Y-25520000D01*
G75*
G02*
X25620000Y-25372500I0J147500D01*
G01*
G37*
G36*
G01*
X49040000Y-2772500D02*
X49040000Y-2427500D01*
G75*
G02*
X49187500Y-2280000I147500J0D01*
G01*
X49482500Y-2280000D01*
G75*
G02*
X49630000Y-2427500I0J-147500D01*
G01*
X49630000Y-2772500D01*
G75*
G02*
X49482500Y-2920000I-147500J0D01*
G01*
X49187500Y-2920000D01*
G75*
G02*
X49040000Y-2772500I0J147500D01*
G01*
G37*
G36*
G01*
X48070000Y-2772500D02*
X48070000Y-2427500D01*
G75*
G02*
X48217500Y-2280000I147500J0D01*
G01*
X48512500Y-2280000D01*
G75*
G02*
X48660000Y-2427500I0J-147500D01*
G01*
X48660000Y-2772500D01*
G75*
G02*
X48512500Y-2920000I-147500J0D01*
G01*
X48217500Y-2920000D01*
G75*
G02*
X48070000Y-2772500I0J147500D01*
G01*
G37*
G36*
G01*
X21650000Y-4750000D02*
X21650000Y-6750000D01*
G75*
G02*
X21400000Y-7000000I-250000J0D01*
G01*
X17900000Y-7000000D01*
G75*
G02*
X17650000Y-6750000I0J250000D01*
G01*
X17650000Y-4750000D01*
G75*
G02*
X17900000Y-4500000I250000J0D01*
G01*
X21400000Y-4500000D01*
G75*
G02*
X21650000Y-4750000I0J-250000D01*
G01*
G37*
G36*
G01*
X29650000Y-4750000D02*
X29650000Y-6750000D01*
G75*
G02*
X29400000Y-7000000I-250000J0D01*
G01*
X25900000Y-7000000D01*
G75*
G02*
X25650000Y-6750000I0J250000D01*
G01*
X25650000Y-4750000D01*
G75*
G02*
X25900000Y-4500000I250000J0D01*
G01*
X29400000Y-4500000D01*
G75*
G02*
X29650000Y-4750000I0J-250000D01*
G01*
G37*
D13*
X37617580Y-80020120D03*
X37617580Y-81920120D03*
X35417580Y-81920120D03*
X35417580Y-80970120D03*
X35417580Y-80020120D03*
G36*
G01*
X39293580Y-80234020D02*
X38948580Y-80234020D01*
G75*
G02*
X38801080Y-80086520I0J147500D01*
G01*
X38801080Y-79791520D01*
G75*
G02*
X38948580Y-79644020I147500J0D01*
G01*
X39293580Y-79644020D01*
G75*
G02*
X39441080Y-79791520I0J-147500D01*
G01*
X39441080Y-80086520D01*
G75*
G02*
X39293580Y-80234020I-147500J0D01*
G01*
G37*
G36*
G01*
X39293580Y-81204020D02*
X38948580Y-81204020D01*
G75*
G02*
X38801080Y-81056520I0J147500D01*
G01*
X38801080Y-80761520D01*
G75*
G02*
X38948580Y-80614020I147500J0D01*
G01*
X39293580Y-80614020D01*
G75*
G02*
X39441080Y-80761520I0J-147500D01*
G01*
X39441080Y-81056520D01*
G75*
G02*
X39293580Y-81204020I-147500J0D01*
G01*
G37*
D24*
X35226280Y-73593920D03*
X35226280Y-75493920D03*
X37326280Y-74543920D03*
G36*
G01*
X36669480Y-77954920D02*
X36669480Y-77609920D01*
G75*
G02*
X36816980Y-77462420I147500J0D01*
G01*
X37111980Y-77462420D01*
G75*
G02*
X37259480Y-77609920I0J-147500D01*
G01*
X37259480Y-77954920D01*
G75*
G02*
X37111980Y-78102420I-147500J0D01*
G01*
X36816980Y-78102420D01*
G75*
G02*
X36669480Y-77954920I0J147500D01*
G01*
G37*
G36*
G01*
X35699480Y-77954920D02*
X35699480Y-77609920D01*
G75*
G02*
X35846980Y-77462420I147500J0D01*
G01*
X36141980Y-77462420D01*
G75*
G02*
X36289480Y-77609920I0J-147500D01*
G01*
X36289480Y-77954920D01*
G75*
G02*
X36141980Y-78102420I-147500J0D01*
G01*
X35846980Y-78102420D01*
G75*
G02*
X35699480Y-77954920I0J147500D01*
G01*
G37*
G36*
G01*
X40576280Y-80361020D02*
X40231280Y-80361020D01*
G75*
G02*
X40083780Y-80213520I0J147500D01*
G01*
X40083780Y-79918520D01*
G75*
G02*
X40231280Y-79771020I147500J0D01*
G01*
X40576280Y-79771020D01*
G75*
G02*
X40723780Y-79918520I0J-147500D01*
G01*
X40723780Y-80213520D01*
G75*
G02*
X40576280Y-80361020I-147500J0D01*
G01*
G37*
G36*
G01*
X40576280Y-81331020D02*
X40231280Y-81331020D01*
G75*
G02*
X40083780Y-81183520I0J147500D01*
G01*
X40083780Y-80888520D01*
G75*
G02*
X40231280Y-80741020I147500J0D01*
G01*
X40576280Y-80741020D01*
G75*
G02*
X40723780Y-80888520I0J-147500D01*
G01*
X40723780Y-81183520D01*
G75*
G02*
X40576280Y-81331020I-147500J0D01*
G01*
G37*
G36*
G01*
X20585000Y-47193750D02*
X20585000Y-47706250D01*
G75*
G02*
X20366250Y-47925000I-218750J0D01*
G01*
X19928750Y-47925000D01*
G75*
G02*
X19710000Y-47706250I0J218750D01*
G01*
X19710000Y-47193750D01*
G75*
G02*
X19928750Y-46975000I218750J0D01*
G01*
X20366250Y-46975000D01*
G75*
G02*
X20585000Y-47193750I0J-218750D01*
G01*
G37*
G36*
G01*
X22160000Y-47193750D02*
X22160000Y-47706250D01*
G75*
G02*
X21941250Y-47925000I-218750J0D01*
G01*
X21503750Y-47925000D01*
G75*
G02*
X21285000Y-47706250I0J218750D01*
G01*
X21285000Y-47193750D01*
G75*
G02*
X21503750Y-46975000I218750J0D01*
G01*
X21941250Y-46975000D01*
G75*
G02*
X22160000Y-47193750I0J-218750D01*
G01*
G37*
G36*
G01*
X20745000Y-48727500D02*
X20745000Y-49072500D01*
G75*
G02*
X20597500Y-49220000I-147500J0D01*
G01*
X20302500Y-49220000D01*
G75*
G02*
X20155000Y-49072500I0J147500D01*
G01*
X20155000Y-48727500D01*
G75*
G02*
X20302500Y-48580000I147500J0D01*
G01*
X20597500Y-48580000D01*
G75*
G02*
X20745000Y-48727500I0J-147500D01*
G01*
G37*
G36*
G01*
X21715000Y-48727500D02*
X21715000Y-49072500D01*
G75*
G02*
X21567500Y-49220000I-147500J0D01*
G01*
X21272500Y-49220000D01*
G75*
G02*
X21125000Y-49072500I0J147500D01*
G01*
X21125000Y-48727500D01*
G75*
G02*
X21272500Y-48580000I147500J0D01*
G01*
X21567500Y-48580000D01*
G75*
G02*
X21715000Y-48727500I0J-147500D01*
G01*
G37*
G36*
G01*
X56853320Y-47178180D02*
X56853320Y-47523180D01*
G75*
G02*
X56705820Y-47670680I-147500J0D01*
G01*
X56410820Y-47670680D01*
G75*
G02*
X56263320Y-47523180I0J147500D01*
G01*
X56263320Y-47178180D01*
G75*
G02*
X56410820Y-47030680I147500J0D01*
G01*
X56705820Y-47030680D01*
G75*
G02*
X56853320Y-47178180I0J-147500D01*
G01*
G37*
G36*
G01*
X57823320Y-47178180D02*
X57823320Y-47523180D01*
G75*
G02*
X57675820Y-47670680I-147500J0D01*
G01*
X57380820Y-47670680D01*
G75*
G02*
X57233320Y-47523180I0J147500D01*
G01*
X57233320Y-47178180D01*
G75*
G02*
X57380820Y-47030680I147500J0D01*
G01*
X57675820Y-47030680D01*
G75*
G02*
X57823320Y-47178180I0J-147500D01*
G01*
G37*
G36*
G01*
X47400980Y-22760720D02*
X47400980Y-22415720D01*
G75*
G02*
X47548480Y-22268220I147500J0D01*
G01*
X47843480Y-22268220D01*
G75*
G02*
X47990980Y-22415720I0J-147500D01*
G01*
X47990980Y-22760720D01*
G75*
G02*
X47843480Y-22908220I-147500J0D01*
G01*
X47548480Y-22908220D01*
G75*
G02*
X47400980Y-22760720I0J147500D01*
G01*
G37*
G36*
G01*
X46430980Y-22760720D02*
X46430980Y-22415720D01*
G75*
G02*
X46578480Y-22268220I147500J0D01*
G01*
X46873480Y-22268220D01*
G75*
G02*
X47020980Y-22415720I0J-147500D01*
G01*
X47020980Y-22760720D01*
G75*
G02*
X46873480Y-22908220I-147500J0D01*
G01*
X46578480Y-22908220D01*
G75*
G02*
X46430980Y-22760720I0J147500D01*
G01*
G37*
G36*
G01*
X26590000Y-26522500D02*
X26590000Y-26177500D01*
G75*
G02*
X26737500Y-26030000I147500J0D01*
G01*
X27032500Y-26030000D01*
G75*
G02*
X27180000Y-26177500I0J-147500D01*
G01*
X27180000Y-26522500D01*
G75*
G02*
X27032500Y-26670000I-147500J0D01*
G01*
X26737500Y-26670000D01*
G75*
G02*
X26590000Y-26522500I0J147500D01*
G01*
G37*
G36*
G01*
X25620000Y-26522500D02*
X25620000Y-26177500D01*
G75*
G02*
X25767500Y-26030000I147500J0D01*
G01*
X26062500Y-26030000D01*
G75*
G02*
X26210000Y-26177500I0J-147500D01*
G01*
X26210000Y-26522500D01*
G75*
G02*
X26062500Y-26670000I-147500J0D01*
G01*
X25767500Y-26670000D01*
G75*
G02*
X25620000Y-26522500I0J147500D01*
G01*
G37*
G36*
G01*
X16560000Y-26977500D02*
X16560000Y-27322500D01*
G75*
G02*
X16412500Y-27470000I-147500J0D01*
G01*
X16117500Y-27470000D01*
G75*
G02*
X15970000Y-27322500I0J147500D01*
G01*
X15970000Y-26977500D01*
G75*
G02*
X16117500Y-26830000I147500J0D01*
G01*
X16412500Y-26830000D01*
G75*
G02*
X16560000Y-26977500I0J-147500D01*
G01*
G37*
G36*
G01*
X17530000Y-26977500D02*
X17530000Y-27322500D01*
G75*
G02*
X17382500Y-27470000I-147500J0D01*
G01*
X17087500Y-27470000D01*
G75*
G02*
X16940000Y-27322500I0J147500D01*
G01*
X16940000Y-26977500D01*
G75*
G02*
X17087500Y-26830000I147500J0D01*
G01*
X17382500Y-26830000D01*
G75*
G02*
X17530000Y-26977500I0J-147500D01*
G01*
G37*
G36*
G01*
X46682880Y-28836120D02*
X47027880Y-28836120D01*
G75*
G02*
X47175380Y-28983620I0J-147500D01*
G01*
X47175380Y-29278620D01*
G75*
G02*
X47027880Y-29426120I-147500J0D01*
G01*
X46682880Y-29426120D01*
G75*
G02*
X46535380Y-29278620I0J147500D01*
G01*
X46535380Y-28983620D01*
G75*
G02*
X46682880Y-28836120I147500J0D01*
G01*
G37*
G36*
G01*
X46682880Y-27866120D02*
X47027880Y-27866120D01*
G75*
G02*
X47175380Y-28013620I0J-147500D01*
G01*
X47175380Y-28308620D01*
G75*
G02*
X47027880Y-28456120I-147500J0D01*
G01*
X46682880Y-28456120D01*
G75*
G02*
X46535380Y-28308620I0J147500D01*
G01*
X46535380Y-28013620D01*
G75*
G02*
X46682880Y-27866120I147500J0D01*
G01*
G37*
G36*
G01*
X45122500Y-24860000D02*
X44777500Y-24860000D01*
G75*
G02*
X44630000Y-24712500I0J147500D01*
G01*
X44630000Y-24417500D01*
G75*
G02*
X44777500Y-24270000I147500J0D01*
G01*
X45122500Y-24270000D01*
G75*
G02*
X45270000Y-24417500I0J-147500D01*
G01*
X45270000Y-24712500D01*
G75*
G02*
X45122500Y-24860000I-147500J0D01*
G01*
G37*
G36*
G01*
X45122500Y-25830000D02*
X44777500Y-25830000D01*
G75*
G02*
X44630000Y-25682500I0J147500D01*
G01*
X44630000Y-25387500D01*
G75*
G02*
X44777500Y-25240000I147500J0D01*
G01*
X45122500Y-25240000D01*
G75*
G02*
X45270000Y-25387500I0J-147500D01*
G01*
X45270000Y-25682500D01*
G75*
G02*
X45122500Y-25830000I-147500J0D01*
G01*
G37*
G36*
G01*
X45122500Y-27110000D02*
X44777500Y-27110000D01*
G75*
G02*
X44630000Y-26962500I0J147500D01*
G01*
X44630000Y-26667500D01*
G75*
G02*
X44777500Y-26520000I147500J0D01*
G01*
X45122500Y-26520000D01*
G75*
G02*
X45270000Y-26667500I0J-147500D01*
G01*
X45270000Y-26962500D01*
G75*
G02*
X45122500Y-27110000I-147500J0D01*
G01*
G37*
G36*
G01*
X45122500Y-28080000D02*
X44777500Y-28080000D01*
G75*
G02*
X44630000Y-27932500I0J147500D01*
G01*
X44630000Y-27637500D01*
G75*
G02*
X44777500Y-27490000I147500J0D01*
G01*
X45122500Y-27490000D01*
G75*
G02*
X45270000Y-27637500I0J-147500D01*
G01*
X45270000Y-27932500D01*
G75*
G02*
X45122500Y-28080000I-147500J0D01*
G01*
G37*
G36*
G01*
X47530380Y-26481820D02*
X47530380Y-26136820D01*
G75*
G02*
X47677880Y-25989320I147500J0D01*
G01*
X47972880Y-25989320D01*
G75*
G02*
X48120380Y-26136820I0J-147500D01*
G01*
X48120380Y-26481820D01*
G75*
G02*
X47972880Y-26629320I-147500J0D01*
G01*
X47677880Y-26629320D01*
G75*
G02*
X47530380Y-26481820I0J147500D01*
G01*
G37*
G36*
G01*
X46560380Y-26481820D02*
X46560380Y-26136820D01*
G75*
G02*
X46707880Y-25989320I147500J0D01*
G01*
X47002880Y-25989320D01*
G75*
G02*
X47150380Y-26136820I0J-147500D01*
G01*
X47150380Y-26481820D01*
G75*
G02*
X47002880Y-26629320I-147500J0D01*
G01*
X46707880Y-26629320D01*
G75*
G02*
X46560380Y-26481820I0J147500D01*
G01*
G37*
D16*
X57236180Y-72449320D03*
X59436180Y-72449320D03*
X59436180Y-74149320D03*
X57236180Y-74149320D03*
G36*
G01*
X30814780Y-68422300D02*
X30814780Y-68077300D01*
G75*
G02*
X30962280Y-67929800I147500J0D01*
G01*
X31257280Y-67929800D01*
G75*
G02*
X31404780Y-68077300I0J-147500D01*
G01*
X31404780Y-68422300D01*
G75*
G02*
X31257280Y-68569800I-147500J0D01*
G01*
X30962280Y-68569800D01*
G75*
G02*
X30814780Y-68422300I0J147500D01*
G01*
G37*
G36*
G01*
X29844780Y-68422300D02*
X29844780Y-68077300D01*
G75*
G02*
X29992280Y-67929800I147500J0D01*
G01*
X30287280Y-67929800D01*
G75*
G02*
X30434780Y-68077300I0J-147500D01*
G01*
X30434780Y-68422300D01*
G75*
G02*
X30287280Y-68569800I-147500J0D01*
G01*
X29992280Y-68569800D01*
G75*
G02*
X29844780Y-68422300I0J147500D01*
G01*
G37*
G36*
G01*
X30434780Y-67020660D02*
X30434780Y-67365660D01*
G75*
G02*
X30287280Y-67513160I-147500J0D01*
G01*
X29992280Y-67513160D01*
G75*
G02*
X29844780Y-67365660I0J147500D01*
G01*
X29844780Y-67020660D01*
G75*
G02*
X29992280Y-66873160I147500J0D01*
G01*
X30287280Y-66873160D01*
G75*
G02*
X30434780Y-67020660I0J-147500D01*
G01*
G37*
G36*
G01*
X31404780Y-67020660D02*
X31404780Y-67365660D01*
G75*
G02*
X31257280Y-67513160I-147500J0D01*
G01*
X30962280Y-67513160D01*
G75*
G02*
X30814780Y-67365660I0J147500D01*
G01*
X30814780Y-67020660D01*
G75*
G02*
X30962280Y-66873160I147500J0D01*
G01*
X31257280Y-66873160D01*
G75*
G02*
X31404780Y-67020660I0J-147500D01*
G01*
G37*
G36*
G01*
X45141380Y-66700620D02*
X45141380Y-67045620D01*
G75*
G02*
X44993880Y-67193120I-147500J0D01*
G01*
X44698880Y-67193120D01*
G75*
G02*
X44551380Y-67045620I0J147500D01*
G01*
X44551380Y-66700620D01*
G75*
G02*
X44698880Y-66553120I147500J0D01*
G01*
X44993880Y-66553120D01*
G75*
G02*
X45141380Y-66700620I0J-147500D01*
G01*
G37*
G36*
G01*
X46111380Y-66700620D02*
X46111380Y-67045620D01*
G75*
G02*
X45963880Y-67193120I-147500J0D01*
G01*
X45668880Y-67193120D01*
G75*
G02*
X45521380Y-67045620I0J147500D01*
G01*
X45521380Y-66700620D01*
G75*
G02*
X45668880Y-66553120I147500J0D01*
G01*
X45963880Y-66553120D01*
G75*
G02*
X46111380Y-66700620I0J-147500D01*
G01*
G37*
G36*
G01*
X46310000Y-72427500D02*
X46310000Y-72772500D01*
G75*
G02*
X46162500Y-72920000I-147500J0D01*
G01*
X45867500Y-72920000D01*
G75*
G02*
X45720000Y-72772500I0J147500D01*
G01*
X45720000Y-72427500D01*
G75*
G02*
X45867500Y-72280000I147500J0D01*
G01*
X46162500Y-72280000D01*
G75*
G02*
X46310000Y-72427500I0J-147500D01*
G01*
G37*
G36*
G01*
X47280000Y-72427500D02*
X47280000Y-72772500D01*
G75*
G02*
X47132500Y-72920000I-147500J0D01*
G01*
X46837500Y-72920000D01*
G75*
G02*
X46690000Y-72772500I0J147500D01*
G01*
X46690000Y-72427500D01*
G75*
G02*
X46837500Y-72280000I147500J0D01*
G01*
X47132500Y-72280000D01*
G75*
G02*
X47280000Y-72427500I0J-147500D01*
G01*
G37*
G36*
G01*
X46335180Y-71272620D02*
X46335180Y-71617620D01*
G75*
G02*
X46187680Y-71765120I-147500J0D01*
G01*
X45892680Y-71765120D01*
G75*
G02*
X45745180Y-71617620I0J147500D01*
G01*
X45745180Y-71272620D01*
G75*
G02*
X45892680Y-71125120I147500J0D01*
G01*
X46187680Y-71125120D01*
G75*
G02*
X46335180Y-71272620I0J-147500D01*
G01*
G37*
G36*
G01*
X47305180Y-71272620D02*
X47305180Y-71617620D01*
G75*
G02*
X47157680Y-71765120I-147500J0D01*
G01*
X46862680Y-71765120D01*
G75*
G02*
X46715180Y-71617620I0J147500D01*
G01*
X46715180Y-71272620D01*
G75*
G02*
X46862680Y-71125120I147500J0D01*
G01*
X47157680Y-71125120D01*
G75*
G02*
X47305180Y-71272620I0J-147500D01*
G01*
G37*
G36*
G01*
X28460000Y-39727500D02*
X28460000Y-40072500D01*
G75*
G02*
X28312500Y-40220000I-147500J0D01*
G01*
X28017500Y-40220000D01*
G75*
G02*
X27870000Y-40072500I0J147500D01*
G01*
X27870000Y-39727500D01*
G75*
G02*
X28017500Y-39580000I147500J0D01*
G01*
X28312500Y-39580000D01*
G75*
G02*
X28460000Y-39727500I0J-147500D01*
G01*
G37*
G36*
G01*
X29430000Y-39727500D02*
X29430000Y-40072500D01*
G75*
G02*
X29282500Y-40220000I-147500J0D01*
G01*
X28987500Y-40220000D01*
G75*
G02*
X28840000Y-40072500I0J147500D01*
G01*
X28840000Y-39727500D01*
G75*
G02*
X28987500Y-39580000I147500J0D01*
G01*
X29282500Y-39580000D01*
G75*
G02*
X29430000Y-39727500I0J-147500D01*
G01*
G37*
G36*
G01*
X28136020Y-37593750D02*
X28136020Y-38106250D01*
G75*
G02*
X27917270Y-38325000I-218750J0D01*
G01*
X27479770Y-38325000D01*
G75*
G02*
X27261020Y-38106250I0J218750D01*
G01*
X27261020Y-37593750D01*
G75*
G02*
X27479770Y-37375000I218750J0D01*
G01*
X27917270Y-37375000D01*
G75*
G02*
X28136020Y-37593750I0J-218750D01*
G01*
G37*
G36*
G01*
X29711020Y-37593750D02*
X29711020Y-38106250D01*
G75*
G02*
X29492270Y-38325000I-218750J0D01*
G01*
X29054770Y-38325000D01*
G75*
G02*
X28836020Y-38106250I0J218750D01*
G01*
X28836020Y-37593750D01*
G75*
G02*
X29054770Y-37375000I218750J0D01*
G01*
X29492270Y-37375000D01*
G75*
G02*
X29711020Y-37593750I0J-218750D01*
G01*
G37*
G36*
G01*
X42506380Y-76273370D02*
X42506380Y-75760870D01*
G75*
G02*
X42725130Y-75542120I218750J0D01*
G01*
X43162630Y-75542120D01*
G75*
G02*
X43381380Y-75760870I0J-218750D01*
G01*
X43381380Y-76273370D01*
G75*
G02*
X43162630Y-76492120I-218750J0D01*
G01*
X42725130Y-76492120D01*
G75*
G02*
X42506380Y-76273370I0J218750D01*
G01*
G37*
G36*
G01*
X40931380Y-76273370D02*
X40931380Y-75760870D01*
G75*
G02*
X41150130Y-75542120I218750J0D01*
G01*
X41587630Y-75542120D01*
G75*
G02*
X41806380Y-75760870I0J-218750D01*
G01*
X41806380Y-76273370D01*
G75*
G02*
X41587630Y-76492120I-218750J0D01*
G01*
X41150130Y-76492120D01*
G75*
G02*
X40931380Y-76273370I0J218750D01*
G01*
G37*
G36*
G01*
X42506380Y-74495370D02*
X42506380Y-73982870D01*
G75*
G02*
X42725130Y-73764120I218750J0D01*
G01*
X43162630Y-73764120D01*
G75*
G02*
X43381380Y-73982870I0J-218750D01*
G01*
X43381380Y-74495370D01*
G75*
G02*
X43162630Y-74714120I-218750J0D01*
G01*
X42725130Y-74714120D01*
G75*
G02*
X42506380Y-74495370I0J218750D01*
G01*
G37*
G36*
G01*
X40931380Y-74495370D02*
X40931380Y-73982870D01*
G75*
G02*
X41150130Y-73764120I218750J0D01*
G01*
X41587630Y-73764120D01*
G75*
G02*
X41806380Y-73982870I0J-218750D01*
G01*
X41806380Y-74495370D01*
G75*
G02*
X41587630Y-74714120I-218750J0D01*
G01*
X41150130Y-74714120D01*
G75*
G02*
X40931380Y-74495370I0J218750D01*
G01*
G37*
G36*
G01*
X44955880Y-75760870D02*
X44955880Y-76273370D01*
G75*
G02*
X44737130Y-76492120I-218750J0D01*
G01*
X44299630Y-76492120D01*
G75*
G02*
X44080880Y-76273370I0J218750D01*
G01*
X44080880Y-75760870D01*
G75*
G02*
X44299630Y-75542120I218750J0D01*
G01*
X44737130Y-75542120D01*
G75*
G02*
X44955880Y-75760870I0J-218750D01*
G01*
G37*
G36*
G01*
X46530880Y-75760870D02*
X46530880Y-76273370D01*
G75*
G02*
X46312130Y-76492120I-218750J0D01*
G01*
X45874630Y-76492120D01*
G75*
G02*
X45655880Y-76273370I0J218750D01*
G01*
X45655880Y-75760870D01*
G75*
G02*
X45874630Y-75542120I218750J0D01*
G01*
X46312130Y-75542120D01*
G75*
G02*
X46530880Y-75760870I0J-218750D01*
G01*
G37*
G36*
G01*
X44981380Y-73982870D02*
X44981380Y-74495370D01*
G75*
G02*
X44762630Y-74714120I-218750J0D01*
G01*
X44325130Y-74714120D01*
G75*
G02*
X44106380Y-74495370I0J218750D01*
G01*
X44106380Y-73982870D01*
G75*
G02*
X44325130Y-73764120I218750J0D01*
G01*
X44762630Y-73764120D01*
G75*
G02*
X44981380Y-73982870I0J-218750D01*
G01*
G37*
G36*
G01*
X46556380Y-73982870D02*
X46556380Y-74495370D01*
G75*
G02*
X46337630Y-74714120I-218750J0D01*
G01*
X45900130Y-74714120D01*
G75*
G02*
X45681380Y-74495370I0J218750D01*
G01*
X45681380Y-73982870D01*
G75*
G02*
X45900130Y-73764120I218750J0D01*
G01*
X46337630Y-73764120D01*
G75*
G02*
X46556380Y-73982870I0J-218750D01*
G01*
G37*
G36*
G01*
X42535130Y-70271120D02*
X43047630Y-70271120D01*
G75*
G02*
X43266380Y-70489870I0J-218750D01*
G01*
X43266380Y-70927370D01*
G75*
G02*
X43047630Y-71146120I-218750J0D01*
G01*
X42535130Y-71146120D01*
G75*
G02*
X42316380Y-70927370I0J218750D01*
G01*
X42316380Y-70489870D01*
G75*
G02*
X42535130Y-70271120I218750J0D01*
G01*
G37*
G36*
G01*
X42535130Y-68696120D02*
X43047630Y-68696120D01*
G75*
G02*
X43266380Y-68914870I0J-218750D01*
G01*
X43266380Y-69352370D01*
G75*
G02*
X43047630Y-69571120I-218750J0D01*
G01*
X42535130Y-69571120D01*
G75*
G02*
X42316380Y-69352370I0J218750D01*
G01*
X42316380Y-68914870D01*
G75*
G02*
X42535130Y-68696120I218750J0D01*
G01*
G37*
D25*
X17550000Y-40600000D03*
X17550000Y-45200000D03*
X17550000Y-42900000D03*
D26*
X23850000Y-42900000D03*
G36*
G01*
X54493380Y-63799220D02*
X54838380Y-63799220D01*
G75*
G02*
X54985880Y-63946720I0J-147500D01*
G01*
X54985880Y-64241720D01*
G75*
G02*
X54838380Y-64389220I-147500J0D01*
G01*
X54493380Y-64389220D01*
G75*
G02*
X54345880Y-64241720I0J147500D01*
G01*
X54345880Y-63946720D01*
G75*
G02*
X54493380Y-63799220I147500J0D01*
G01*
G37*
G36*
G01*
X54493380Y-62829220D02*
X54838380Y-62829220D01*
G75*
G02*
X54985880Y-62976720I0J-147500D01*
G01*
X54985880Y-63271720D01*
G75*
G02*
X54838380Y-63419220I-147500J0D01*
G01*
X54493380Y-63419220D01*
G75*
G02*
X54345880Y-63271720I0J147500D01*
G01*
X54345880Y-62976720D01*
G75*
G02*
X54493380Y-62829220I147500J0D01*
G01*
G37*
G36*
G01*
X27562740Y-79582140D02*
X27562740Y-79927140D01*
G75*
G02*
X27415240Y-80074640I-147500J0D01*
G01*
X27120240Y-80074640D01*
G75*
G02*
X26972740Y-79927140I0J147500D01*
G01*
X26972740Y-79582140D01*
G75*
G02*
X27120240Y-79434640I147500J0D01*
G01*
X27415240Y-79434640D01*
G75*
G02*
X27562740Y-79582140I0J-147500D01*
G01*
G37*
G36*
G01*
X26592740Y-79582140D02*
X26592740Y-79927140D01*
G75*
G02*
X26445240Y-80074640I-147500J0D01*
G01*
X26150240Y-80074640D01*
G75*
G02*
X26002740Y-79927140I0J147500D01*
G01*
X26002740Y-79582140D01*
G75*
G02*
X26150240Y-79434640I147500J0D01*
G01*
X26445240Y-79434640D01*
G75*
G02*
X26592740Y-79582140I0J-147500D01*
G01*
G37*
G36*
G01*
X19684860Y-27807840D02*
X19684860Y-28152840D01*
G75*
G02*
X19537360Y-28300340I-147500J0D01*
G01*
X19242360Y-28300340D01*
G75*
G02*
X19094860Y-28152840I0J147500D01*
G01*
X19094860Y-27807840D01*
G75*
G02*
X19242360Y-27660340I147500J0D01*
G01*
X19537360Y-27660340D01*
G75*
G02*
X19684860Y-27807840I0J-147500D01*
G01*
G37*
G36*
G01*
X20654860Y-27807840D02*
X20654860Y-28152840D01*
G75*
G02*
X20507360Y-28300340I-147500J0D01*
G01*
X20212360Y-28300340D01*
G75*
G02*
X20064860Y-28152840I0J147500D01*
G01*
X20064860Y-27807840D01*
G75*
G02*
X20212360Y-27660340I147500J0D01*
G01*
X20507360Y-27660340D01*
G75*
G02*
X20654860Y-27807840I0J-147500D01*
G01*
G37*
G36*
G01*
X26592740Y-80659100D02*
X26592740Y-81004100D01*
G75*
G02*
X26445240Y-81151600I-147500J0D01*
G01*
X26150240Y-81151600D01*
G75*
G02*
X26002740Y-81004100I0J147500D01*
G01*
X26002740Y-80659100D01*
G75*
G02*
X26150240Y-80511600I147500J0D01*
G01*
X26445240Y-80511600D01*
G75*
G02*
X26592740Y-80659100I0J-147500D01*
G01*
G37*
G36*
G01*
X27562740Y-80659100D02*
X27562740Y-81004100D01*
G75*
G02*
X27415240Y-81151600I-147500J0D01*
G01*
X27120240Y-81151600D01*
G75*
G02*
X26972740Y-81004100I0J147500D01*
G01*
X26972740Y-80659100D01*
G75*
G02*
X27120240Y-80511600I147500J0D01*
G01*
X27415240Y-80511600D01*
G75*
G02*
X27562740Y-80659100I0J-147500D01*
G01*
G37*
G36*
G01*
X19684860Y-26680080D02*
X19684860Y-27025080D01*
G75*
G02*
X19537360Y-27172580I-147500J0D01*
G01*
X19242360Y-27172580D01*
G75*
G02*
X19094860Y-27025080I0J147500D01*
G01*
X19094860Y-26680080D01*
G75*
G02*
X19242360Y-26532580I147500J0D01*
G01*
X19537360Y-26532580D01*
G75*
G02*
X19684860Y-26680080I0J-147500D01*
G01*
G37*
G36*
G01*
X20654860Y-26680080D02*
X20654860Y-27025080D01*
G75*
G02*
X20507360Y-27172580I-147500J0D01*
G01*
X20212360Y-27172580D01*
G75*
G02*
X20064860Y-27025080I0J147500D01*
G01*
X20064860Y-26680080D01*
G75*
G02*
X20212360Y-26532580I147500J0D01*
G01*
X20507360Y-26532580D01*
G75*
G02*
X20654860Y-26680080I0J-147500D01*
G01*
G37*
G36*
G01*
X14536920Y-61531720D02*
X14536920Y-61876720D01*
G75*
G02*
X14389420Y-62024220I-147500J0D01*
G01*
X14094420Y-62024220D01*
G75*
G02*
X13946920Y-61876720I0J147500D01*
G01*
X13946920Y-61531720D01*
G75*
G02*
X14094420Y-61384220I147500J0D01*
G01*
X14389420Y-61384220D01*
G75*
G02*
X14536920Y-61531720I0J-147500D01*
G01*
G37*
G36*
G01*
X15506920Y-61531720D02*
X15506920Y-61876720D01*
G75*
G02*
X15359420Y-62024220I-147500J0D01*
G01*
X15064420Y-62024220D01*
G75*
G02*
X14916920Y-61876720I0J147500D01*
G01*
X14916920Y-61531720D01*
G75*
G02*
X15064420Y-61384220I147500J0D01*
G01*
X15359420Y-61384220D01*
G75*
G02*
X15506920Y-61531720I0J-147500D01*
G01*
G37*
G36*
G01*
X30240680Y-78824220D02*
X30240680Y-78479220D01*
G75*
G02*
X30388180Y-78331720I147500J0D01*
G01*
X30683180Y-78331720D01*
G75*
G02*
X30830680Y-78479220I0J-147500D01*
G01*
X30830680Y-78824220D01*
G75*
G02*
X30683180Y-78971720I-147500J0D01*
G01*
X30388180Y-78971720D01*
G75*
G02*
X30240680Y-78824220I0J147500D01*
G01*
G37*
G36*
G01*
X29270680Y-78824220D02*
X29270680Y-78479220D01*
G75*
G02*
X29418180Y-78331720I147500J0D01*
G01*
X29713180Y-78331720D01*
G75*
G02*
X29860680Y-78479220I0J-147500D01*
G01*
X29860680Y-78824220D01*
G75*
G02*
X29713180Y-78971720I-147500J0D01*
G01*
X29418180Y-78971720D01*
G75*
G02*
X29270680Y-78824220I0J147500D01*
G01*
G37*
G36*
G01*
X30240680Y-80030720D02*
X30240680Y-79685720D01*
G75*
G02*
X30388180Y-79538220I147500J0D01*
G01*
X30683180Y-79538220D01*
G75*
G02*
X30830680Y-79685720I0J-147500D01*
G01*
X30830680Y-80030720D01*
G75*
G02*
X30683180Y-80178220I-147500J0D01*
G01*
X30388180Y-80178220D01*
G75*
G02*
X30240680Y-80030720I0J147500D01*
G01*
G37*
G36*
G01*
X29270680Y-80030720D02*
X29270680Y-79685720D01*
G75*
G02*
X29418180Y-79538220I147500J0D01*
G01*
X29713180Y-79538220D01*
G75*
G02*
X29860680Y-79685720I0J-147500D01*
G01*
X29860680Y-80030720D01*
G75*
G02*
X29713180Y-80178220I-147500J0D01*
G01*
X29418180Y-80178220D01*
G75*
G02*
X29270680Y-80030720I0J147500D01*
G01*
G37*
G36*
G01*
X27106380Y-76494420D02*
X27106380Y-76149420D01*
G75*
G02*
X27253880Y-76001920I147500J0D01*
G01*
X27548880Y-76001920D01*
G75*
G02*
X27696380Y-76149420I0J-147500D01*
G01*
X27696380Y-76494420D01*
G75*
G02*
X27548880Y-76641920I-147500J0D01*
G01*
X27253880Y-76641920D01*
G75*
G02*
X27106380Y-76494420I0J147500D01*
G01*
G37*
G36*
G01*
X26136380Y-76494420D02*
X26136380Y-76149420D01*
G75*
G02*
X26283880Y-76001920I147500J0D01*
G01*
X26578880Y-76001920D01*
G75*
G02*
X26726380Y-76149420I0J-147500D01*
G01*
X26726380Y-76494420D01*
G75*
G02*
X26578880Y-76641920I-147500J0D01*
G01*
X26283880Y-76641920D01*
G75*
G02*
X26136380Y-76494420I0J147500D01*
G01*
G37*
G36*
G01*
X15324446Y-65791580D02*
X14979446Y-65791580D01*
G75*
G02*
X14831946Y-65644080I0J147500D01*
G01*
X14831946Y-65349080D01*
G75*
G02*
X14979446Y-65201580I147500J0D01*
G01*
X15324446Y-65201580D01*
G75*
G02*
X15471946Y-65349080I0J-147500D01*
G01*
X15471946Y-65644080D01*
G75*
G02*
X15324446Y-65791580I-147500J0D01*
G01*
G37*
G36*
G01*
X15324446Y-66761580D02*
X14979446Y-66761580D01*
G75*
G02*
X14831946Y-66614080I0J147500D01*
G01*
X14831946Y-66319080D01*
G75*
G02*
X14979446Y-66171580I147500J0D01*
G01*
X15324446Y-66171580D01*
G75*
G02*
X15471946Y-66319080I0J-147500D01*
G01*
X15471946Y-66614080D01*
G75*
G02*
X15324446Y-66761580I-147500J0D01*
G01*
G37*
G36*
G01*
X18127500Y-78582020D02*
X18472500Y-78582020D01*
G75*
G02*
X18620000Y-78729520I0J-147500D01*
G01*
X18620000Y-79024520D01*
G75*
G02*
X18472500Y-79172020I-147500J0D01*
G01*
X18127500Y-79172020D01*
G75*
G02*
X17980000Y-79024520I0J147500D01*
G01*
X17980000Y-78729520D01*
G75*
G02*
X18127500Y-78582020I147500J0D01*
G01*
G37*
G36*
G01*
X18127500Y-77612020D02*
X18472500Y-77612020D01*
G75*
G02*
X18620000Y-77759520I0J-147500D01*
G01*
X18620000Y-78054520D01*
G75*
G02*
X18472500Y-78202020I-147500J0D01*
G01*
X18127500Y-78202020D01*
G75*
G02*
X17980000Y-78054520I0J147500D01*
G01*
X17980000Y-77759520D01*
G75*
G02*
X18127500Y-77612020I147500J0D01*
G01*
G37*
G36*
G01*
X16294600Y-77160340D02*
X16294600Y-77505340D01*
G75*
G02*
X16147100Y-77652840I-147500J0D01*
G01*
X15852100Y-77652840D01*
G75*
G02*
X15704600Y-77505340I0J147500D01*
G01*
X15704600Y-77160340D01*
G75*
G02*
X15852100Y-77012840I147500J0D01*
G01*
X16147100Y-77012840D01*
G75*
G02*
X16294600Y-77160340I0J-147500D01*
G01*
G37*
G36*
G01*
X17264600Y-77160340D02*
X17264600Y-77505340D01*
G75*
G02*
X17117100Y-77652840I-147500J0D01*
G01*
X16822100Y-77652840D01*
G75*
G02*
X16674600Y-77505340I0J147500D01*
G01*
X16674600Y-77160340D01*
G75*
G02*
X16822100Y-77012840I147500J0D01*
G01*
X17117100Y-77012840D01*
G75*
G02*
X17264600Y-77160340I0J-147500D01*
G01*
G37*
G36*
G01*
X12284560Y-69711320D02*
X12284560Y-70056320D01*
G75*
G02*
X12137060Y-70203820I-147500J0D01*
G01*
X11842060Y-70203820D01*
G75*
G02*
X11694560Y-70056320I0J147500D01*
G01*
X11694560Y-69711320D01*
G75*
G02*
X11842060Y-69563820I147500J0D01*
G01*
X12137060Y-69563820D01*
G75*
G02*
X12284560Y-69711320I0J-147500D01*
G01*
G37*
G36*
G01*
X13254560Y-69711320D02*
X13254560Y-70056320D01*
G75*
G02*
X13107060Y-70203820I-147500J0D01*
G01*
X12812060Y-70203820D01*
G75*
G02*
X12664560Y-70056320I0J147500D01*
G01*
X12664560Y-69711320D01*
G75*
G02*
X12812060Y-69563820I147500J0D01*
G01*
X13107060Y-69563820D01*
G75*
G02*
X13254560Y-69711320I0J-147500D01*
G01*
G37*
G36*
G01*
X32040000Y-76472500D02*
X32040000Y-76127500D01*
G75*
G02*
X32187500Y-75980000I147500J0D01*
G01*
X32482500Y-75980000D01*
G75*
G02*
X32630000Y-76127500I0J-147500D01*
G01*
X32630000Y-76472500D01*
G75*
G02*
X32482500Y-76620000I-147500J0D01*
G01*
X32187500Y-76620000D01*
G75*
G02*
X32040000Y-76472500I0J147500D01*
G01*
G37*
G36*
G01*
X31070000Y-76472500D02*
X31070000Y-76127500D01*
G75*
G02*
X31217500Y-75980000I147500J0D01*
G01*
X31512500Y-75980000D01*
G75*
G02*
X31660000Y-76127500I0J-147500D01*
G01*
X31660000Y-76472500D01*
G75*
G02*
X31512500Y-76620000I-147500J0D01*
G01*
X31217500Y-76620000D01*
G75*
G02*
X31070000Y-76472500I0J147500D01*
G01*
G37*
G36*
G01*
X12284560Y-73765160D02*
X12284560Y-74110160D01*
G75*
G02*
X12137060Y-74257660I-147500J0D01*
G01*
X11842060Y-74257660D01*
G75*
G02*
X11694560Y-74110160I0J147500D01*
G01*
X11694560Y-73765160D01*
G75*
G02*
X11842060Y-73617660I147500J0D01*
G01*
X12137060Y-73617660D01*
G75*
G02*
X12284560Y-73765160I0J-147500D01*
G01*
G37*
G36*
G01*
X13254560Y-73765160D02*
X13254560Y-74110160D01*
G75*
G02*
X13107060Y-74257660I-147500J0D01*
G01*
X12812060Y-74257660D01*
G75*
G02*
X12664560Y-74110160I0J147500D01*
G01*
X12664560Y-73765160D01*
G75*
G02*
X12812060Y-73617660I147500J0D01*
G01*
X13107060Y-73617660D01*
G75*
G02*
X13254560Y-73765160I0J-147500D01*
G01*
G37*
G36*
G01*
X12310000Y-72177500D02*
X12310000Y-72522500D01*
G75*
G02*
X12162500Y-72670000I-147500J0D01*
G01*
X11867500Y-72670000D01*
G75*
G02*
X11720000Y-72522500I0J147500D01*
G01*
X11720000Y-72177500D01*
G75*
G02*
X11867500Y-72030000I147500J0D01*
G01*
X12162500Y-72030000D01*
G75*
G02*
X12310000Y-72177500I0J-147500D01*
G01*
G37*
G36*
G01*
X13280000Y-72177500D02*
X13280000Y-72522500D01*
G75*
G02*
X13132500Y-72670000I-147500J0D01*
G01*
X12837500Y-72670000D01*
G75*
G02*
X12690000Y-72522500I0J147500D01*
G01*
X12690000Y-72177500D01*
G75*
G02*
X12837500Y-72030000I147500J0D01*
G01*
X13132500Y-72030000D01*
G75*
G02*
X13280000Y-72177500I0J-147500D01*
G01*
G37*
G36*
G01*
X13077500Y-78340000D02*
X13422500Y-78340000D01*
G75*
G02*
X13570000Y-78487500I0J-147500D01*
G01*
X13570000Y-78782500D01*
G75*
G02*
X13422500Y-78930000I-147500J0D01*
G01*
X13077500Y-78930000D01*
G75*
G02*
X12930000Y-78782500I0J147500D01*
G01*
X12930000Y-78487500D01*
G75*
G02*
X13077500Y-78340000I147500J0D01*
G01*
G37*
G36*
G01*
X13077500Y-77370000D02*
X13422500Y-77370000D01*
G75*
G02*
X13570000Y-77517500I0J-147500D01*
G01*
X13570000Y-77812500D01*
G75*
G02*
X13422500Y-77960000I-147500J0D01*
G01*
X13077500Y-77960000D01*
G75*
G02*
X12930000Y-77812500I0J147500D01*
G01*
X12930000Y-77517500D01*
G75*
G02*
X13077500Y-77370000I147500J0D01*
G01*
G37*
G36*
G01*
X14198380Y-65791580D02*
X13853380Y-65791580D01*
G75*
G02*
X13705880Y-65644080I0J147500D01*
G01*
X13705880Y-65349080D01*
G75*
G02*
X13853380Y-65201580I147500J0D01*
G01*
X14198380Y-65201580D01*
G75*
G02*
X14345880Y-65349080I0J-147500D01*
G01*
X14345880Y-65644080D01*
G75*
G02*
X14198380Y-65791580I-147500J0D01*
G01*
G37*
G36*
G01*
X14198380Y-66761580D02*
X13853380Y-66761580D01*
G75*
G02*
X13705880Y-66614080I0J147500D01*
G01*
X13705880Y-66319080D01*
G75*
G02*
X13853380Y-66171580I147500J0D01*
G01*
X14198380Y-66171580D01*
G75*
G02*
X14345880Y-66319080I0J-147500D01*
G01*
X14345880Y-66614080D01*
G75*
G02*
X14198380Y-66761580I-147500J0D01*
G01*
G37*
G36*
G01*
X27424160Y-68136000D02*
X27079160Y-68136000D01*
G75*
G02*
X26931660Y-67988500I0J147500D01*
G01*
X26931660Y-67693500D01*
G75*
G02*
X27079160Y-67546000I147500J0D01*
G01*
X27424160Y-67546000D01*
G75*
G02*
X27571660Y-67693500I0J-147500D01*
G01*
X27571660Y-67988500D01*
G75*
G02*
X27424160Y-68136000I-147500J0D01*
G01*
G37*
G36*
G01*
X27424160Y-69106000D02*
X27079160Y-69106000D01*
G75*
G02*
X26931660Y-68958500I0J147500D01*
G01*
X26931660Y-68663500D01*
G75*
G02*
X27079160Y-68516000I147500J0D01*
G01*
X27424160Y-68516000D01*
G75*
G02*
X27571660Y-68663500I0J-147500D01*
G01*
X27571660Y-68958500D01*
G75*
G02*
X27424160Y-69106000I-147500J0D01*
G01*
G37*
G36*
G01*
X11827500Y-78340000D02*
X12172500Y-78340000D01*
G75*
G02*
X12320000Y-78487500I0J-147500D01*
G01*
X12320000Y-78782500D01*
G75*
G02*
X12172500Y-78930000I-147500J0D01*
G01*
X11827500Y-78930000D01*
G75*
G02*
X11680000Y-78782500I0J147500D01*
G01*
X11680000Y-78487500D01*
G75*
G02*
X11827500Y-78340000I147500J0D01*
G01*
G37*
G36*
G01*
X11827500Y-77370000D02*
X12172500Y-77370000D01*
G75*
G02*
X12320000Y-77517500I0J-147500D01*
G01*
X12320000Y-77812500D01*
G75*
G02*
X12172500Y-77960000I-147500J0D01*
G01*
X11827500Y-77960000D01*
G75*
G02*
X11680000Y-77812500I0J147500D01*
G01*
X11680000Y-77517500D01*
G75*
G02*
X11827500Y-77370000I147500J0D01*
G01*
G37*
G36*
G01*
X16294600Y-78364300D02*
X16294600Y-78709300D01*
G75*
G02*
X16147100Y-78856800I-147500J0D01*
G01*
X15852100Y-78856800D01*
G75*
G02*
X15704600Y-78709300I0J147500D01*
G01*
X15704600Y-78364300D01*
G75*
G02*
X15852100Y-78216800I147500J0D01*
G01*
X16147100Y-78216800D01*
G75*
G02*
X16294600Y-78364300I0J-147500D01*
G01*
G37*
G36*
G01*
X17264600Y-78364300D02*
X17264600Y-78709300D01*
G75*
G02*
X17117100Y-78856800I-147500J0D01*
G01*
X16822100Y-78856800D01*
G75*
G02*
X16674600Y-78709300I0J147500D01*
G01*
X16674600Y-78364300D01*
G75*
G02*
X16822100Y-78216800I147500J0D01*
G01*
X17117100Y-78216800D01*
G75*
G02*
X17264600Y-78364300I0J-147500D01*
G01*
G37*
G36*
G01*
X12284560Y-67684400D02*
X12284560Y-68029400D01*
G75*
G02*
X12137060Y-68176900I-147500J0D01*
G01*
X11842060Y-68176900D01*
G75*
G02*
X11694560Y-68029400I0J147500D01*
G01*
X11694560Y-67684400D01*
G75*
G02*
X11842060Y-67536900I147500J0D01*
G01*
X12137060Y-67536900D01*
G75*
G02*
X12284560Y-67684400I0J-147500D01*
G01*
G37*
G36*
G01*
X13254560Y-67684400D02*
X13254560Y-68029400D01*
G75*
G02*
X13107060Y-68176900I-147500J0D01*
G01*
X12812060Y-68176900D01*
G75*
G02*
X12664560Y-68029400I0J147500D01*
G01*
X12664560Y-67684400D01*
G75*
G02*
X12812060Y-67536900I147500J0D01*
G01*
X13107060Y-67536900D01*
G75*
G02*
X13254560Y-67684400I0J-147500D01*
G01*
G37*
G36*
G01*
X56514780Y-63419220D02*
X56169780Y-63419220D01*
G75*
G02*
X56022280Y-63271720I0J147500D01*
G01*
X56022280Y-62976720D01*
G75*
G02*
X56169780Y-62829220I147500J0D01*
G01*
X56514780Y-62829220D01*
G75*
G02*
X56662280Y-62976720I0J-147500D01*
G01*
X56662280Y-63271720D01*
G75*
G02*
X56514780Y-63419220I-147500J0D01*
G01*
G37*
G36*
G01*
X56514780Y-64389220D02*
X56169780Y-64389220D01*
G75*
G02*
X56022280Y-64241720I0J147500D01*
G01*
X56022280Y-63946720D01*
G75*
G02*
X56169780Y-63799220I147500J0D01*
G01*
X56514780Y-63799220D01*
G75*
G02*
X56662280Y-63946720I0J-147500D01*
G01*
X56662280Y-64241720D01*
G75*
G02*
X56514780Y-64389220I-147500J0D01*
G01*
G37*
G36*
G01*
X51140580Y-63799220D02*
X51485580Y-63799220D01*
G75*
G02*
X51633080Y-63946720I0J-147500D01*
G01*
X51633080Y-64241720D01*
G75*
G02*
X51485580Y-64389220I-147500J0D01*
G01*
X51140580Y-64389220D01*
G75*
G02*
X50993080Y-64241720I0J147500D01*
G01*
X50993080Y-63946720D01*
G75*
G02*
X51140580Y-63799220I147500J0D01*
G01*
G37*
G36*
G01*
X51140580Y-62829220D02*
X51485580Y-62829220D01*
G75*
G02*
X51633080Y-62976720I0J-147500D01*
G01*
X51633080Y-63271720D01*
G75*
G02*
X51485580Y-63419220I-147500J0D01*
G01*
X51140580Y-63419220D01*
G75*
G02*
X50993080Y-63271720I0J147500D01*
G01*
X50993080Y-62976720D01*
G75*
G02*
X51140580Y-62829220I147500J0D01*
G01*
G37*
G36*
G01*
X53161980Y-63419220D02*
X52816980Y-63419220D01*
G75*
G02*
X52669480Y-63271720I0J147500D01*
G01*
X52669480Y-62976720D01*
G75*
G02*
X52816980Y-62829220I147500J0D01*
G01*
X53161980Y-62829220D01*
G75*
G02*
X53309480Y-62976720I0J-147500D01*
G01*
X53309480Y-63271720D01*
G75*
G02*
X53161980Y-63419220I-147500J0D01*
G01*
G37*
G36*
G01*
X53161980Y-64389220D02*
X52816980Y-64389220D01*
G75*
G02*
X52669480Y-64241720I0J147500D01*
G01*
X52669480Y-63946720D01*
G75*
G02*
X52816980Y-63799220I147500J0D01*
G01*
X53161980Y-63799220D01*
G75*
G02*
X53309480Y-63946720I0J-147500D01*
G01*
X53309480Y-64241720D01*
G75*
G02*
X53161980Y-64389220I-147500J0D01*
G01*
G37*
G36*
G01*
X48285180Y-63419220D02*
X47940180Y-63419220D01*
G75*
G02*
X47792680Y-63271720I0J147500D01*
G01*
X47792680Y-62976720D01*
G75*
G02*
X47940180Y-62829220I147500J0D01*
G01*
X48285180Y-62829220D01*
G75*
G02*
X48432680Y-62976720I0J-147500D01*
G01*
X48432680Y-63271720D01*
G75*
G02*
X48285180Y-63419220I-147500J0D01*
G01*
G37*
G36*
G01*
X48285180Y-64389220D02*
X47940180Y-64389220D01*
G75*
G02*
X47792680Y-64241720I0J147500D01*
G01*
X47792680Y-63946720D01*
G75*
G02*
X47940180Y-63799220I147500J0D01*
G01*
X48285180Y-63799220D01*
G75*
G02*
X48432680Y-63946720I0J-147500D01*
G01*
X48432680Y-64241720D01*
G75*
G02*
X48285180Y-64389220I-147500J0D01*
G01*
G37*
G36*
G01*
X49464180Y-63799220D02*
X49809180Y-63799220D01*
G75*
G02*
X49956680Y-63946720I0J-147500D01*
G01*
X49956680Y-64241720D01*
G75*
G02*
X49809180Y-64389220I-147500J0D01*
G01*
X49464180Y-64389220D01*
G75*
G02*
X49316680Y-64241720I0J147500D01*
G01*
X49316680Y-63946720D01*
G75*
G02*
X49464180Y-63799220I147500J0D01*
G01*
G37*
G36*
G01*
X49464180Y-62829220D02*
X49809180Y-62829220D01*
G75*
G02*
X49956680Y-62976720I0J-147500D01*
G01*
X49956680Y-63271720D01*
G75*
G02*
X49809180Y-63419220I-147500J0D01*
G01*
X49464180Y-63419220D01*
G75*
G02*
X49316680Y-63271720I0J147500D01*
G01*
X49316680Y-62976720D01*
G75*
G02*
X49464180Y-62829220I147500J0D01*
G01*
G37*
G36*
G01*
X16940000Y-31872500D02*
X16940000Y-31527500D01*
G75*
G02*
X17087500Y-31380000I147500J0D01*
G01*
X17382500Y-31380000D01*
G75*
G02*
X17530000Y-31527500I0J-147500D01*
G01*
X17530000Y-31872500D01*
G75*
G02*
X17382500Y-32020000I-147500J0D01*
G01*
X17087500Y-32020000D01*
G75*
G02*
X16940000Y-31872500I0J147500D01*
G01*
G37*
G36*
G01*
X15970000Y-31872500D02*
X15970000Y-31527500D01*
G75*
G02*
X16117500Y-31380000I147500J0D01*
G01*
X16412500Y-31380000D01*
G75*
G02*
X16560000Y-31527500I0J-147500D01*
G01*
X16560000Y-31872500D01*
G75*
G02*
X16412500Y-32020000I-147500J0D01*
G01*
X16117500Y-32020000D01*
G75*
G02*
X15970000Y-31872500I0J147500D01*
G01*
G37*
G36*
G01*
X61600580Y-31166020D02*
X61600580Y-31511020D01*
G75*
G02*
X61453080Y-31658520I-147500J0D01*
G01*
X61158080Y-31658520D01*
G75*
G02*
X61010580Y-31511020I0J147500D01*
G01*
X61010580Y-31166020D01*
G75*
G02*
X61158080Y-31018520I147500J0D01*
G01*
X61453080Y-31018520D01*
G75*
G02*
X61600580Y-31166020I0J-147500D01*
G01*
G37*
G36*
G01*
X62570580Y-31166020D02*
X62570580Y-31511020D01*
G75*
G02*
X62423080Y-31658520I-147500J0D01*
G01*
X62128080Y-31658520D01*
G75*
G02*
X61980580Y-31511020I0J147500D01*
G01*
X61980580Y-31166020D01*
G75*
G02*
X62128080Y-31018520I147500J0D01*
G01*
X62423080Y-31018520D01*
G75*
G02*
X62570580Y-31166020I0J-147500D01*
G01*
G37*
G36*
G01*
X55325780Y-15966220D02*
X55325780Y-15621220D01*
G75*
G02*
X55473280Y-15473720I147500J0D01*
G01*
X55768280Y-15473720D01*
G75*
G02*
X55915780Y-15621220I0J-147500D01*
G01*
X55915780Y-15966220D01*
G75*
G02*
X55768280Y-16113720I-147500J0D01*
G01*
X55473280Y-16113720D01*
G75*
G02*
X55325780Y-15966220I0J147500D01*
G01*
G37*
G36*
G01*
X54355780Y-15966220D02*
X54355780Y-15621220D01*
G75*
G02*
X54503280Y-15473720I147500J0D01*
G01*
X54798280Y-15473720D01*
G75*
G02*
X54945780Y-15621220I0J-147500D01*
G01*
X54945780Y-15966220D01*
G75*
G02*
X54798280Y-16113720I-147500J0D01*
G01*
X54503280Y-16113720D01*
G75*
G02*
X54355780Y-15966220I0J147500D01*
G01*
G37*
G36*
G01*
X61978040Y-32618460D02*
X61978040Y-32273460D01*
G75*
G02*
X62125540Y-32125960I147500J0D01*
G01*
X62420540Y-32125960D01*
G75*
G02*
X62568040Y-32273460I0J-147500D01*
G01*
X62568040Y-32618460D01*
G75*
G02*
X62420540Y-32765960I-147500J0D01*
G01*
X62125540Y-32765960D01*
G75*
G02*
X61978040Y-32618460I0J147500D01*
G01*
G37*
G36*
G01*
X61008040Y-32618460D02*
X61008040Y-32273460D01*
G75*
G02*
X61155540Y-32125960I147500J0D01*
G01*
X61450540Y-32125960D01*
G75*
G02*
X61598040Y-32273460I0J-147500D01*
G01*
X61598040Y-32618460D01*
G75*
G02*
X61450540Y-32765960I-147500J0D01*
G01*
X61155540Y-32765960D01*
G75*
G02*
X61008040Y-32618460I0J147500D01*
G01*
G37*
G36*
G01*
X54945780Y-14300420D02*
X54945780Y-14645420D01*
G75*
G02*
X54798280Y-14792920I-147500J0D01*
G01*
X54503280Y-14792920D01*
G75*
G02*
X54355780Y-14645420I0J147500D01*
G01*
X54355780Y-14300420D01*
G75*
G02*
X54503280Y-14152920I147500J0D01*
G01*
X54798280Y-14152920D01*
G75*
G02*
X54945780Y-14300420I0J-147500D01*
G01*
G37*
G36*
G01*
X55915780Y-14300420D02*
X55915780Y-14645420D01*
G75*
G02*
X55768280Y-14792920I-147500J0D01*
G01*
X55473280Y-14792920D01*
G75*
G02*
X55325780Y-14645420I0J147500D01*
G01*
X55325780Y-14300420D01*
G75*
G02*
X55473280Y-14152920I147500J0D01*
G01*
X55768280Y-14152920D01*
G75*
G02*
X55915780Y-14300420I0J-147500D01*
G01*
G37*
G36*
G01*
X58307740Y-23154420D02*
X58307740Y-22809420D01*
G75*
G02*
X58455240Y-22661920I147500J0D01*
G01*
X58750240Y-22661920D01*
G75*
G02*
X58897740Y-22809420I0J-147500D01*
G01*
X58897740Y-23154420D01*
G75*
G02*
X58750240Y-23301920I-147500J0D01*
G01*
X58455240Y-23301920D01*
G75*
G02*
X58307740Y-23154420I0J147500D01*
G01*
G37*
G36*
G01*
X57337740Y-23154420D02*
X57337740Y-22809420D01*
G75*
G02*
X57485240Y-22661920I147500J0D01*
G01*
X57780240Y-22661920D01*
G75*
G02*
X57927740Y-22809420I0J-147500D01*
G01*
X57927740Y-23154420D01*
G75*
G02*
X57780240Y-23301920I-147500J0D01*
G01*
X57485240Y-23301920D01*
G75*
G02*
X57337740Y-23154420I0J147500D01*
G01*
G37*
G36*
G01*
X58882500Y-29493980D02*
X59227500Y-29493980D01*
G75*
G02*
X59375000Y-29641480I0J-147500D01*
G01*
X59375000Y-29936480D01*
G75*
G02*
X59227500Y-30083980I-147500J0D01*
G01*
X58882500Y-30083980D01*
G75*
G02*
X58735000Y-29936480I0J147500D01*
G01*
X58735000Y-29641480D01*
G75*
G02*
X58882500Y-29493980I147500J0D01*
G01*
G37*
G36*
G01*
X58882500Y-28523980D02*
X59227500Y-28523980D01*
G75*
G02*
X59375000Y-28671480I0J-147500D01*
G01*
X59375000Y-28966480D01*
G75*
G02*
X59227500Y-29113980I-147500J0D01*
G01*
X58882500Y-29113980D01*
G75*
G02*
X58735000Y-28966480I0J147500D01*
G01*
X58735000Y-28671480D01*
G75*
G02*
X58882500Y-28523980I147500J0D01*
G01*
G37*
G36*
G01*
X57790580Y-21437820D02*
X57790580Y-21782820D01*
G75*
G02*
X57643080Y-21930320I-147500J0D01*
G01*
X57348080Y-21930320D01*
G75*
G02*
X57200580Y-21782820I0J147500D01*
G01*
X57200580Y-21437820D01*
G75*
G02*
X57348080Y-21290320I147500J0D01*
G01*
X57643080Y-21290320D01*
G75*
G02*
X57790580Y-21437820I0J-147500D01*
G01*
G37*
G36*
G01*
X58760580Y-21437820D02*
X58760580Y-21782820D01*
G75*
G02*
X58613080Y-21930320I-147500J0D01*
G01*
X58318080Y-21930320D01*
G75*
G02*
X58170580Y-21782820I0J147500D01*
G01*
X58170580Y-21437820D01*
G75*
G02*
X58318080Y-21290320I147500J0D01*
G01*
X58613080Y-21290320D01*
G75*
G02*
X58760580Y-21437820I0J-147500D01*
G01*
G37*
G36*
G01*
X53688480Y-19558220D02*
X53688480Y-19903220D01*
G75*
G02*
X53540980Y-20050720I-147500J0D01*
G01*
X53245980Y-20050720D01*
G75*
G02*
X53098480Y-19903220I0J147500D01*
G01*
X53098480Y-19558220D01*
G75*
G02*
X53245980Y-19410720I147500J0D01*
G01*
X53540980Y-19410720D01*
G75*
G02*
X53688480Y-19558220I0J-147500D01*
G01*
G37*
G36*
G01*
X54658480Y-19558220D02*
X54658480Y-19903220D01*
G75*
G02*
X54510980Y-20050720I-147500J0D01*
G01*
X54215980Y-20050720D01*
G75*
G02*
X54068480Y-19903220I0J147500D01*
G01*
X54068480Y-19558220D01*
G75*
G02*
X54215980Y-19410720I147500J0D01*
G01*
X54510980Y-19410720D01*
G75*
G02*
X54658480Y-19558220I0J-147500D01*
G01*
G37*
G36*
G01*
X58247780Y-19634420D02*
X58247780Y-19979420D01*
G75*
G02*
X58100280Y-20126920I-147500J0D01*
G01*
X57805280Y-20126920D01*
G75*
G02*
X57657780Y-19979420I0J147500D01*
G01*
X57657780Y-19634420D01*
G75*
G02*
X57805280Y-19486920I147500J0D01*
G01*
X58100280Y-19486920D01*
G75*
G02*
X58247780Y-19634420I0J-147500D01*
G01*
G37*
G36*
G01*
X59217780Y-19634420D02*
X59217780Y-19979420D01*
G75*
G02*
X59070280Y-20126920I-147500J0D01*
G01*
X58775280Y-20126920D01*
G75*
G02*
X58627780Y-19979420I0J147500D01*
G01*
X58627780Y-19634420D01*
G75*
G02*
X58775280Y-19486920I147500J0D01*
G01*
X59070280Y-19486920D01*
G75*
G02*
X59217780Y-19634420I0J-147500D01*
G01*
G37*
G36*
G01*
X56164980Y-19634420D02*
X56164980Y-19979420D01*
G75*
G02*
X56017480Y-20126920I-147500J0D01*
G01*
X55722480Y-20126920D01*
G75*
G02*
X55574980Y-19979420I0J147500D01*
G01*
X55574980Y-19634420D01*
G75*
G02*
X55722480Y-19486920I147500J0D01*
G01*
X56017480Y-19486920D01*
G75*
G02*
X56164980Y-19634420I0J-147500D01*
G01*
G37*
G36*
G01*
X57134980Y-19634420D02*
X57134980Y-19979420D01*
G75*
G02*
X56987480Y-20126920I-147500J0D01*
G01*
X56692480Y-20126920D01*
G75*
G02*
X56544980Y-19979420I0J147500D01*
G01*
X56544980Y-19634420D01*
G75*
G02*
X56692480Y-19486920I147500J0D01*
G01*
X56987480Y-19486920D01*
G75*
G02*
X57134980Y-19634420I0J-147500D01*
G01*
G37*
G36*
G01*
X48660000Y-5127500D02*
X48660000Y-5472500D01*
G75*
G02*
X48512500Y-5620000I-147500J0D01*
G01*
X48217500Y-5620000D01*
G75*
G02*
X48070000Y-5472500I0J147500D01*
G01*
X48070000Y-5127500D01*
G75*
G02*
X48217500Y-4980000I147500J0D01*
G01*
X48512500Y-4980000D01*
G75*
G02*
X48660000Y-5127500I0J-147500D01*
G01*
G37*
G36*
G01*
X49630000Y-5127500D02*
X49630000Y-5472500D01*
G75*
G02*
X49482500Y-5620000I-147500J0D01*
G01*
X49187500Y-5620000D01*
G75*
G02*
X49040000Y-5472500I0J147500D01*
G01*
X49040000Y-5127500D01*
G75*
G02*
X49187500Y-4980000I147500J0D01*
G01*
X49482500Y-4980000D01*
G75*
G02*
X49630000Y-5127500I0J-147500D01*
G01*
G37*
G36*
G01*
X60050180Y-38419820D02*
X60050180Y-38074820D01*
G75*
G02*
X60197680Y-37927320I147500J0D01*
G01*
X60492680Y-37927320D01*
G75*
G02*
X60640180Y-38074820I0J-147500D01*
G01*
X60640180Y-38419820D01*
G75*
G02*
X60492680Y-38567320I-147500J0D01*
G01*
X60197680Y-38567320D01*
G75*
G02*
X60050180Y-38419820I0J147500D01*
G01*
G37*
G36*
G01*
X59080180Y-38419820D02*
X59080180Y-38074820D01*
G75*
G02*
X59227680Y-37927320I147500J0D01*
G01*
X59522680Y-37927320D01*
G75*
G02*
X59670180Y-38074820I0J-147500D01*
G01*
X59670180Y-38419820D01*
G75*
G02*
X59522680Y-38567320I-147500J0D01*
G01*
X59227680Y-38567320D01*
G75*
G02*
X59080180Y-38419820I0J147500D01*
G01*
G37*
G36*
G01*
X26972740Y-78875580D02*
X26972740Y-78530580D01*
G75*
G02*
X27120240Y-78383080I147500J0D01*
G01*
X27415240Y-78383080D01*
G75*
G02*
X27562740Y-78530580I0J-147500D01*
G01*
X27562740Y-78875580D01*
G75*
G02*
X27415240Y-79023080I-147500J0D01*
G01*
X27120240Y-79023080D01*
G75*
G02*
X26972740Y-78875580I0J147500D01*
G01*
G37*
G36*
G01*
X26002740Y-78875580D02*
X26002740Y-78530580D01*
G75*
G02*
X26150240Y-78383080I147500J0D01*
G01*
X26445240Y-78383080D01*
G75*
G02*
X26592740Y-78530580I0J-147500D01*
G01*
X26592740Y-78875580D01*
G75*
G02*
X26445240Y-79023080I-147500J0D01*
G01*
X26150240Y-79023080D01*
G75*
G02*
X26002740Y-78875580I0J147500D01*
G01*
G37*
G36*
G01*
X30240000Y-81172500D02*
X30240000Y-80827500D01*
G75*
G02*
X30387500Y-80680000I147500J0D01*
G01*
X30682500Y-80680000D01*
G75*
G02*
X30830000Y-80827500I0J-147500D01*
G01*
X30830000Y-81172500D01*
G75*
G02*
X30682500Y-81320000I-147500J0D01*
G01*
X30387500Y-81320000D01*
G75*
G02*
X30240000Y-81172500I0J147500D01*
G01*
G37*
G36*
G01*
X29270000Y-81172500D02*
X29270000Y-80827500D01*
G75*
G02*
X29417500Y-80680000I147500J0D01*
G01*
X29712500Y-80680000D01*
G75*
G02*
X29860000Y-80827500I0J-147500D01*
G01*
X29860000Y-81172500D01*
G75*
G02*
X29712500Y-81320000I-147500J0D01*
G01*
X29417500Y-81320000D01*
G75*
G02*
X29270000Y-81172500I0J147500D01*
G01*
G37*
G36*
G01*
X20129000Y-24642860D02*
X20129000Y-24297860D01*
G75*
G02*
X20276500Y-24150360I147500J0D01*
G01*
X20571500Y-24150360D01*
G75*
G02*
X20719000Y-24297860I0J-147500D01*
G01*
X20719000Y-24642860D01*
G75*
G02*
X20571500Y-24790360I-147500J0D01*
G01*
X20276500Y-24790360D01*
G75*
G02*
X20129000Y-24642860I0J147500D01*
G01*
G37*
G36*
G01*
X19159000Y-24642860D02*
X19159000Y-24297860D01*
G75*
G02*
X19306500Y-24150360I147500J0D01*
G01*
X19601500Y-24150360D01*
G75*
G02*
X19749000Y-24297860I0J-147500D01*
G01*
X19749000Y-24642860D01*
G75*
G02*
X19601500Y-24790360I-147500J0D01*
G01*
X19306500Y-24790360D01*
G75*
G02*
X19159000Y-24642860I0J147500D01*
G01*
G37*
G36*
G01*
X20123920Y-25752840D02*
X20123920Y-25407840D01*
G75*
G02*
X20271420Y-25260340I147500J0D01*
G01*
X20566420Y-25260340D01*
G75*
G02*
X20713920Y-25407840I0J-147500D01*
G01*
X20713920Y-25752840D01*
G75*
G02*
X20566420Y-25900340I-147500J0D01*
G01*
X20271420Y-25900340D01*
G75*
G02*
X20123920Y-25752840I0J147500D01*
G01*
G37*
G36*
G01*
X19153920Y-25752840D02*
X19153920Y-25407840D01*
G75*
G02*
X19301420Y-25260340I147500J0D01*
G01*
X19596420Y-25260340D01*
G75*
G02*
X19743920Y-25407840I0J-147500D01*
G01*
X19743920Y-25752840D01*
G75*
G02*
X19596420Y-25900340I-147500J0D01*
G01*
X19301420Y-25900340D01*
G75*
G02*
X19153920Y-25752840I0J147500D01*
G01*
G37*
G36*
G01*
X26012360Y-68536320D02*
X26357360Y-68536320D01*
G75*
G02*
X26504860Y-68683820I0J-147500D01*
G01*
X26504860Y-68978820D01*
G75*
G02*
X26357360Y-69126320I-147500J0D01*
G01*
X26012360Y-69126320D01*
G75*
G02*
X25864860Y-68978820I0J147500D01*
G01*
X25864860Y-68683820D01*
G75*
G02*
X26012360Y-68536320I147500J0D01*
G01*
G37*
G36*
G01*
X26012360Y-67566320D02*
X26357360Y-67566320D01*
G75*
G02*
X26504860Y-67713820I0J-147500D01*
G01*
X26504860Y-68008820D01*
G75*
G02*
X26357360Y-68156320I-147500J0D01*
G01*
X26012360Y-68156320D01*
G75*
G02*
X25864860Y-68008820I0J147500D01*
G01*
X25864860Y-67713820D01*
G75*
G02*
X26012360Y-67566320I147500J0D01*
G01*
G37*
G36*
G01*
X61860380Y-53676084D02*
X61860380Y-53331084D01*
G75*
G02*
X62007880Y-53183584I147500J0D01*
G01*
X62302880Y-53183584D01*
G75*
G02*
X62450380Y-53331084I0J-147500D01*
G01*
X62450380Y-53676084D01*
G75*
G02*
X62302880Y-53823584I-147500J0D01*
G01*
X62007880Y-53823584D01*
G75*
G02*
X61860380Y-53676084I0J147500D01*
G01*
G37*
G36*
G01*
X60890380Y-53676084D02*
X60890380Y-53331084D01*
G75*
G02*
X61037880Y-53183584I147500J0D01*
G01*
X61332880Y-53183584D01*
G75*
G02*
X61480380Y-53331084I0J-147500D01*
G01*
X61480380Y-53676084D01*
G75*
G02*
X61332880Y-53823584I-147500J0D01*
G01*
X61037880Y-53823584D01*
G75*
G02*
X60890380Y-53676084I0J147500D01*
G01*
G37*
G36*
G01*
X61860380Y-54810620D02*
X61860380Y-54465620D01*
G75*
G02*
X62007880Y-54318120I147500J0D01*
G01*
X62302880Y-54318120D01*
G75*
G02*
X62450380Y-54465620I0J-147500D01*
G01*
X62450380Y-54810620D01*
G75*
G02*
X62302880Y-54958120I-147500J0D01*
G01*
X62007880Y-54958120D01*
G75*
G02*
X61860380Y-54810620I0J147500D01*
G01*
G37*
G36*
G01*
X60890380Y-54810620D02*
X60890380Y-54465620D01*
G75*
G02*
X61037880Y-54318120I147500J0D01*
G01*
X61332880Y-54318120D01*
G75*
G02*
X61480380Y-54465620I0J-147500D01*
G01*
X61480380Y-54810620D01*
G75*
G02*
X61332880Y-54958120I-147500J0D01*
G01*
X61037880Y-54958120D01*
G75*
G02*
X60890380Y-54810620I0J147500D01*
G01*
G37*
G36*
G01*
X17576580Y-65791580D02*
X17231580Y-65791580D01*
G75*
G02*
X17084080Y-65644080I0J147500D01*
G01*
X17084080Y-65349080D01*
G75*
G02*
X17231580Y-65201580I147500J0D01*
G01*
X17576580Y-65201580D01*
G75*
G02*
X17724080Y-65349080I0J-147500D01*
G01*
X17724080Y-65644080D01*
G75*
G02*
X17576580Y-65791580I-147500J0D01*
G01*
G37*
G36*
G01*
X17576580Y-66761580D02*
X17231580Y-66761580D01*
G75*
G02*
X17084080Y-66614080I0J147500D01*
G01*
X17084080Y-66319080D01*
G75*
G02*
X17231580Y-66171580I147500J0D01*
G01*
X17576580Y-66171580D01*
G75*
G02*
X17724080Y-66319080I0J-147500D01*
G01*
X17724080Y-66614080D01*
G75*
G02*
X17576580Y-66761580I-147500J0D01*
G01*
G37*
G36*
G01*
X21077500Y-82740000D02*
X21422500Y-82740000D01*
G75*
G02*
X21570000Y-82887500I0J-147500D01*
G01*
X21570000Y-83182500D01*
G75*
G02*
X21422500Y-83330000I-147500J0D01*
G01*
X21077500Y-83330000D01*
G75*
G02*
X20930000Y-83182500I0J147500D01*
G01*
X20930000Y-82887500D01*
G75*
G02*
X21077500Y-82740000I147500J0D01*
G01*
G37*
G36*
G01*
X21077500Y-81770000D02*
X21422500Y-81770000D01*
G75*
G02*
X21570000Y-81917500I0J-147500D01*
G01*
X21570000Y-82212500D01*
G75*
G02*
X21422500Y-82360000I-147500J0D01*
G01*
X21077500Y-82360000D01*
G75*
G02*
X20930000Y-82212500I0J147500D01*
G01*
X20930000Y-81917500D01*
G75*
G02*
X21077500Y-81770000I147500J0D01*
G01*
G37*
G36*
G01*
X46335180Y-68008720D02*
X46335180Y-68353720D01*
G75*
G02*
X46187680Y-68501220I-147500J0D01*
G01*
X45892680Y-68501220D01*
G75*
G02*
X45745180Y-68353720I0J147500D01*
G01*
X45745180Y-68008720D01*
G75*
G02*
X45892680Y-67861220I147500J0D01*
G01*
X46187680Y-67861220D01*
G75*
G02*
X46335180Y-68008720I0J-147500D01*
G01*
G37*
G36*
G01*
X47305180Y-68008720D02*
X47305180Y-68353720D01*
G75*
G02*
X47157680Y-68501220I-147500J0D01*
G01*
X46862680Y-68501220D01*
G75*
G02*
X46715180Y-68353720I0J147500D01*
G01*
X46715180Y-68008720D01*
G75*
G02*
X46862680Y-67861220I147500J0D01*
G01*
X47157680Y-67861220D01*
G75*
G02*
X47305180Y-68008720I0J-147500D01*
G01*
G37*
G36*
G01*
X14544540Y-62601060D02*
X14544540Y-62946060D01*
G75*
G02*
X14397040Y-63093560I-147500J0D01*
G01*
X14102040Y-63093560D01*
G75*
G02*
X13954540Y-62946060I0J147500D01*
G01*
X13954540Y-62601060D01*
G75*
G02*
X14102040Y-62453560I147500J0D01*
G01*
X14397040Y-62453560D01*
G75*
G02*
X14544540Y-62601060I0J-147500D01*
G01*
G37*
G36*
G01*
X15514540Y-62601060D02*
X15514540Y-62946060D01*
G75*
G02*
X15367040Y-63093560I-147500J0D01*
G01*
X15072040Y-63093560D01*
G75*
G02*
X14924540Y-62946060I0J147500D01*
G01*
X14924540Y-62601060D01*
G75*
G02*
X15072040Y-62453560I147500J0D01*
G01*
X15367040Y-62453560D01*
G75*
G02*
X15514540Y-62601060I0J-147500D01*
G01*
G37*
G36*
G01*
X46335180Y-69278720D02*
X46335180Y-69623720D01*
G75*
G02*
X46187680Y-69771220I-147500J0D01*
G01*
X45892680Y-69771220D01*
G75*
G02*
X45745180Y-69623720I0J147500D01*
G01*
X45745180Y-69278720D01*
G75*
G02*
X45892680Y-69131220I147500J0D01*
G01*
X46187680Y-69131220D01*
G75*
G02*
X46335180Y-69278720I0J-147500D01*
G01*
G37*
G36*
G01*
X47305180Y-69278720D02*
X47305180Y-69623720D01*
G75*
G02*
X47157680Y-69771220I-147500J0D01*
G01*
X46862680Y-69771220D01*
G75*
G02*
X46715180Y-69623720I0J147500D01*
G01*
X46715180Y-69278720D01*
G75*
G02*
X46862680Y-69131220I147500J0D01*
G01*
X47157680Y-69131220D01*
G75*
G02*
X47305180Y-69278720I0J-147500D01*
G01*
G37*
G36*
G01*
X44683180Y-40356570D02*
X44683180Y-40011570D01*
G75*
G02*
X44830680Y-39864070I147500J0D01*
G01*
X45125680Y-39864070D01*
G75*
G02*
X45273180Y-40011570I0J-147500D01*
G01*
X45273180Y-40356570D01*
G75*
G02*
X45125680Y-40504070I-147500J0D01*
G01*
X44830680Y-40504070D01*
G75*
G02*
X44683180Y-40356570I0J147500D01*
G01*
G37*
G36*
G01*
X43713180Y-40356570D02*
X43713180Y-40011570D01*
G75*
G02*
X43860680Y-39864070I147500J0D01*
G01*
X44155680Y-39864070D01*
G75*
G02*
X44303180Y-40011570I0J-147500D01*
G01*
X44303180Y-40356570D01*
G75*
G02*
X44155680Y-40504070I-147500J0D01*
G01*
X43860680Y-40504070D01*
G75*
G02*
X43713180Y-40356570I0J147500D01*
G01*
G37*
G36*
G01*
X48518580Y-34000220D02*
X48518580Y-33655220D01*
G75*
G02*
X48666080Y-33507720I147500J0D01*
G01*
X48961080Y-33507720D01*
G75*
G02*
X49108580Y-33655220I0J-147500D01*
G01*
X49108580Y-34000220D01*
G75*
G02*
X48961080Y-34147720I-147500J0D01*
G01*
X48666080Y-34147720D01*
G75*
G02*
X48518580Y-34000220I0J147500D01*
G01*
G37*
G36*
G01*
X47548580Y-34000220D02*
X47548580Y-33655220D01*
G75*
G02*
X47696080Y-33507720I147500J0D01*
G01*
X47991080Y-33507720D01*
G75*
G02*
X48138580Y-33655220I0J-147500D01*
G01*
X48138580Y-34000220D01*
G75*
G02*
X47991080Y-34147720I-147500J0D01*
G01*
X47696080Y-34147720D01*
G75*
G02*
X47548580Y-34000220I0J147500D01*
G01*
G37*
G36*
G01*
X56578280Y-32469320D02*
X56233280Y-32469320D01*
G75*
G02*
X56085780Y-32321820I0J147500D01*
G01*
X56085780Y-32026820D01*
G75*
G02*
X56233280Y-31879320I147500J0D01*
G01*
X56578280Y-31879320D01*
G75*
G02*
X56725780Y-32026820I0J-147500D01*
G01*
X56725780Y-32321820D01*
G75*
G02*
X56578280Y-32469320I-147500J0D01*
G01*
G37*
G36*
G01*
X56578280Y-33439320D02*
X56233280Y-33439320D01*
G75*
G02*
X56085780Y-33291820I0J147500D01*
G01*
X56085780Y-32996820D01*
G75*
G02*
X56233280Y-32849320I147500J0D01*
G01*
X56578280Y-32849320D01*
G75*
G02*
X56725780Y-32996820I0J-147500D01*
G01*
X56725780Y-33291820D01*
G75*
G02*
X56578280Y-33439320I-147500J0D01*
G01*
G37*
G36*
G01*
X44683180Y-41928195D02*
X44683180Y-41583195D01*
G75*
G02*
X44830680Y-41435695I147500J0D01*
G01*
X45125680Y-41435695D01*
G75*
G02*
X45273180Y-41583195I0J-147500D01*
G01*
X45273180Y-41928195D01*
G75*
G02*
X45125680Y-42075695I-147500J0D01*
G01*
X44830680Y-42075695D01*
G75*
G02*
X44683180Y-41928195I0J147500D01*
G01*
G37*
G36*
G01*
X43713180Y-41928195D02*
X43713180Y-41583195D01*
G75*
G02*
X43860680Y-41435695I147500J0D01*
G01*
X44155680Y-41435695D01*
G75*
G02*
X44303180Y-41583195I0J-147500D01*
G01*
X44303180Y-41928195D01*
G75*
G02*
X44155680Y-42075695I-147500J0D01*
G01*
X43860680Y-42075695D01*
G75*
G02*
X43713180Y-41928195I0J147500D01*
G01*
G37*
G36*
G01*
X44683180Y-38784945D02*
X44683180Y-38439945D01*
G75*
G02*
X44830680Y-38292445I147500J0D01*
G01*
X45125680Y-38292445D01*
G75*
G02*
X45273180Y-38439945I0J-147500D01*
G01*
X45273180Y-38784945D01*
G75*
G02*
X45125680Y-38932445I-147500J0D01*
G01*
X44830680Y-38932445D01*
G75*
G02*
X44683180Y-38784945I0J147500D01*
G01*
G37*
G36*
G01*
X43713180Y-38784945D02*
X43713180Y-38439945D01*
G75*
G02*
X43860680Y-38292445I147500J0D01*
G01*
X44155680Y-38292445D01*
G75*
G02*
X44303180Y-38439945I0J-147500D01*
G01*
X44303180Y-38784945D01*
G75*
G02*
X44155680Y-38932445I-147500J0D01*
G01*
X43860680Y-38932445D01*
G75*
G02*
X43713180Y-38784945I0J147500D01*
G01*
G37*
G36*
G01*
X48660000Y-3877500D02*
X48660000Y-4222500D01*
G75*
G02*
X48512500Y-4370000I-147500J0D01*
G01*
X48217500Y-4370000D01*
G75*
G02*
X48070000Y-4222500I0J147500D01*
G01*
X48070000Y-3877500D01*
G75*
G02*
X48217500Y-3730000I147500J0D01*
G01*
X48512500Y-3730000D01*
G75*
G02*
X48660000Y-3877500I0J-147500D01*
G01*
G37*
G36*
G01*
X49630000Y-3877500D02*
X49630000Y-4222500D01*
G75*
G02*
X49482500Y-4370000I-147500J0D01*
G01*
X49187500Y-4370000D01*
G75*
G02*
X49040000Y-4222500I0J147500D01*
G01*
X49040000Y-3877500D01*
G75*
G02*
X49187500Y-3730000I147500J0D01*
G01*
X49482500Y-3730000D01*
G75*
G02*
X49630000Y-3877500I0J-147500D01*
G01*
G37*
G36*
G01*
X69368980Y-25753440D02*
X69368980Y-23253440D01*
G75*
G02*
X69618980Y-23003440I250000J0D01*
G01*
X70718980Y-23003440D01*
G75*
G02*
X70968980Y-23253440I0J-250000D01*
G01*
X70968980Y-25753440D01*
G75*
G02*
X70718980Y-26003440I-250000J0D01*
G01*
X69618980Y-26003440D01*
G75*
G02*
X69368980Y-25753440I0J250000D01*
G01*
G37*
G36*
G01*
X62568980Y-25753440D02*
X62568980Y-23253440D01*
G75*
G02*
X62818980Y-23003440I250000J0D01*
G01*
X63918980Y-23003440D01*
G75*
G02*
X64168980Y-23253440I0J-250000D01*
G01*
X64168980Y-25753440D01*
G75*
G02*
X63918980Y-26003440I-250000J0D01*
G01*
X62818980Y-26003440D01*
G75*
G02*
X62568980Y-25753440I0J250000D01*
G01*
G37*
G36*
G01*
X67268980Y-29253440D02*
X67268980Y-24253440D01*
G75*
G02*
X67518980Y-24003440I250000J0D01*
G01*
X68018980Y-24003440D01*
G75*
G02*
X68268980Y-24253440I0J-250000D01*
G01*
X68268980Y-29253440D01*
G75*
G02*
X68018980Y-29503440I-250000J0D01*
G01*
X67518980Y-29503440D01*
G75*
G02*
X67268980Y-29253440I0J250000D01*
G01*
G37*
G36*
G01*
X65268980Y-29253440D02*
X65268980Y-24253440D01*
G75*
G02*
X65518980Y-24003440I250000J0D01*
G01*
X66018980Y-24003440D01*
G75*
G02*
X66268980Y-24253440I0J-250000D01*
G01*
X66268980Y-29253440D01*
G75*
G02*
X66018980Y-29503440I-250000J0D01*
G01*
X65518980Y-29503440D01*
G75*
G02*
X65268980Y-29253440I0J250000D01*
G01*
G37*
D27*
G36*
X50536922Y-26868120D02*
G01*
X53967380Y-23437662D01*
X57397838Y-26868120D01*
X53967380Y-30298578D01*
X50536922Y-26868120D01*
G37*
G36*
X54139348Y-22945092D02*
G01*
X54821848Y-22262592D01*
X55037374Y-22478118D01*
X54354874Y-23160618D01*
X54139348Y-22945092D01*
G37*
G36*
X54492901Y-23298645D02*
G01*
X55175401Y-22616145D01*
X55390927Y-22831671D01*
X54708427Y-23514171D01*
X54492901Y-23298645D01*
G37*
G36*
X54846455Y-23652199D02*
G01*
X55528955Y-22969699D01*
X55744481Y-23185225D01*
X55061981Y-23867725D01*
X54846455Y-23652199D01*
G37*
G36*
X55200008Y-24005751D02*
G01*
X55882508Y-23323251D01*
X56098034Y-23538777D01*
X55415534Y-24221277D01*
X55200008Y-24005751D01*
G37*
G36*
X55553562Y-24359306D02*
G01*
X56236062Y-23676806D01*
X56451588Y-23892332D01*
X55769088Y-24574832D01*
X55553562Y-24359306D01*
G37*
G36*
X55907115Y-24712859D02*
G01*
X56589615Y-24030359D01*
X56805141Y-24245885D01*
X56122641Y-24928385D01*
X55907115Y-24712859D01*
G37*
G36*
X56260668Y-25066412D02*
G01*
X56943168Y-24383912D01*
X57158694Y-24599438D01*
X56476194Y-25281938D01*
X56260668Y-25066412D01*
G37*
G36*
X56614223Y-25419966D02*
G01*
X57296723Y-24737466D01*
X57512249Y-24952992D01*
X56829749Y-25635492D01*
X56614223Y-25419966D01*
G37*
G36*
X56967775Y-25773519D02*
G01*
X57650275Y-25091019D01*
X57865801Y-25306545D01*
X57183301Y-25989045D01*
X56967775Y-25773519D01*
G37*
G36*
X57321329Y-26127073D02*
G01*
X58003829Y-25444573D01*
X58219355Y-25660099D01*
X57536855Y-26342599D01*
X57321329Y-26127073D01*
G37*
G36*
X57674882Y-26480626D02*
G01*
X58357382Y-25798126D01*
X58572908Y-26013652D01*
X57890408Y-26696152D01*
X57674882Y-26480626D01*
G37*
G36*
X58357382Y-27938114D02*
G01*
X57674882Y-27255614D01*
X57890408Y-27040088D01*
X58572908Y-27722588D01*
X58357382Y-27938114D01*
G37*
G36*
X58003829Y-28291667D02*
G01*
X57321329Y-27609167D01*
X57536855Y-27393641D01*
X58219355Y-28076141D01*
X58003829Y-28291667D01*
G37*
G36*
X57650275Y-28645221D02*
G01*
X56967775Y-27962721D01*
X57183301Y-27747195D01*
X57865801Y-28429695D01*
X57650275Y-28645221D01*
G37*
G36*
X57296723Y-28998774D02*
G01*
X56614223Y-28316274D01*
X56829749Y-28100748D01*
X57512249Y-28783248D01*
X57296723Y-28998774D01*
G37*
G36*
X56943168Y-29352328D02*
G01*
X56260668Y-28669828D01*
X56476194Y-28454302D01*
X57158694Y-29136802D01*
X56943168Y-29352328D01*
G37*
G36*
X56589615Y-29705881D02*
G01*
X55907115Y-29023381D01*
X56122641Y-28807855D01*
X56805141Y-29490355D01*
X56589615Y-29705881D01*
G37*
G36*
X56236062Y-30059434D02*
G01*
X55553562Y-29376934D01*
X55769088Y-29161408D01*
X56451588Y-29843908D01*
X56236062Y-30059434D01*
G37*
G36*
X55882508Y-30412989D02*
G01*
X55200008Y-29730489D01*
X55415534Y-29514963D01*
X56098034Y-30197463D01*
X55882508Y-30412989D01*
G37*
G36*
X55528955Y-30766541D02*
G01*
X54846455Y-30084041D01*
X55061981Y-29868515D01*
X55744481Y-30551015D01*
X55528955Y-30766541D01*
G37*
G36*
X55175401Y-31120095D02*
G01*
X54492901Y-30437595D01*
X54708427Y-30222069D01*
X55390927Y-30904569D01*
X55175401Y-31120095D01*
G37*
G36*
X54821848Y-31473648D02*
G01*
X54139348Y-30791148D01*
X54354874Y-30575622D01*
X55037374Y-31258122D01*
X54821848Y-31473648D01*
G37*
G36*
X52897386Y-31258122D02*
G01*
X53579886Y-30575622D01*
X53795412Y-30791148D01*
X53112912Y-31473648D01*
X52897386Y-31258122D01*
G37*
G36*
X52543833Y-30904569D02*
G01*
X53226333Y-30222069D01*
X53441859Y-30437595D01*
X52759359Y-31120095D01*
X52543833Y-30904569D01*
G37*
G36*
X52190279Y-30551015D02*
G01*
X52872779Y-29868515D01*
X53088305Y-30084041D01*
X52405805Y-30766541D01*
X52190279Y-30551015D01*
G37*
G36*
X51836726Y-30197463D02*
G01*
X52519226Y-29514963D01*
X52734752Y-29730489D01*
X52052252Y-30412989D01*
X51836726Y-30197463D01*
G37*
G36*
X51483172Y-29843908D02*
G01*
X52165672Y-29161408D01*
X52381198Y-29376934D01*
X51698698Y-30059434D01*
X51483172Y-29843908D01*
G37*
G36*
X51129619Y-29490355D02*
G01*
X51812119Y-28807855D01*
X52027645Y-29023381D01*
X51345145Y-29705881D01*
X51129619Y-29490355D01*
G37*
G36*
X50776066Y-29136802D02*
G01*
X51458566Y-28454302D01*
X51674092Y-28669828D01*
X50991592Y-29352328D01*
X50776066Y-29136802D01*
G37*
G36*
X50422511Y-28783248D02*
G01*
X51105011Y-28100748D01*
X51320537Y-28316274D01*
X50638037Y-28998774D01*
X50422511Y-28783248D01*
G37*
G36*
X50068959Y-28429695D02*
G01*
X50751459Y-27747195D01*
X50966985Y-27962721D01*
X50284485Y-28645221D01*
X50068959Y-28429695D01*
G37*
G36*
X49715405Y-28076141D02*
G01*
X50397905Y-27393641D01*
X50613431Y-27609167D01*
X49930931Y-28291667D01*
X49715405Y-28076141D01*
G37*
G36*
X49361852Y-27722588D02*
G01*
X50044352Y-27040088D01*
X50259878Y-27255614D01*
X49577378Y-27938114D01*
X49361852Y-27722588D01*
G37*
G36*
X50044352Y-26696152D02*
G01*
X49361852Y-26013652D01*
X49577378Y-25798126D01*
X50259878Y-26480626D01*
X50044352Y-26696152D01*
G37*
G36*
X50397905Y-26342599D02*
G01*
X49715405Y-25660099D01*
X49930931Y-25444573D01*
X50613431Y-26127073D01*
X50397905Y-26342599D01*
G37*
G36*
X50751459Y-25989045D02*
G01*
X50068959Y-25306545D01*
X50284485Y-25091019D01*
X50966985Y-25773519D01*
X50751459Y-25989045D01*
G37*
G36*
X51105011Y-25635492D02*
G01*
X50422511Y-24952992D01*
X50638037Y-24737466D01*
X51320537Y-25419966D01*
X51105011Y-25635492D01*
G37*
G36*
X51458566Y-25281938D02*
G01*
X50776066Y-24599438D01*
X50991592Y-24383912D01*
X51674092Y-25066412D01*
X51458566Y-25281938D01*
G37*
G36*
X51812119Y-24928385D02*
G01*
X51129619Y-24245885D01*
X51345145Y-24030359D01*
X52027645Y-24712859D01*
X51812119Y-24928385D01*
G37*
G36*
X52165672Y-24574832D02*
G01*
X51483172Y-23892332D01*
X51698698Y-23676806D01*
X52381198Y-24359306D01*
X52165672Y-24574832D01*
G37*
G36*
X52519226Y-24221277D02*
G01*
X51836726Y-23538777D01*
X52052252Y-23323251D01*
X52734752Y-24005751D01*
X52519226Y-24221277D01*
G37*
G36*
X52872779Y-23867725D02*
G01*
X52190279Y-23185225D01*
X52405805Y-22969699D01*
X53088305Y-23652199D01*
X52872779Y-23867725D01*
G37*
G36*
X53226333Y-23514171D02*
G01*
X52543833Y-22831671D01*
X52759359Y-22616145D01*
X53441859Y-23298645D01*
X53226333Y-23514171D01*
G37*
G36*
X53579886Y-23160618D02*
G01*
X52897386Y-22478118D01*
X53112912Y-22262592D01*
X53795412Y-22945092D01*
X53579886Y-23160618D01*
G37*
G36*
G01*
X64321380Y-15597760D02*
X64321380Y-18097760D01*
G75*
G02*
X64071380Y-18347760I-250000J0D01*
G01*
X62971380Y-18347760D01*
G75*
G02*
X62721380Y-18097760I0J250000D01*
G01*
X62721380Y-15597760D01*
G75*
G02*
X62971380Y-15347760I250000J0D01*
G01*
X64071380Y-15347760D01*
G75*
G02*
X64321380Y-15597760I0J-250000D01*
G01*
G37*
G36*
G01*
X71121380Y-15597760D02*
X71121380Y-18097760D01*
G75*
G02*
X70871380Y-18347760I-250000J0D01*
G01*
X69771380Y-18347760D01*
G75*
G02*
X69521380Y-18097760I0J250000D01*
G01*
X69521380Y-15597760D01*
G75*
G02*
X69771380Y-15347760I250000J0D01*
G01*
X70871380Y-15347760D01*
G75*
G02*
X71121380Y-15597760I0J-250000D01*
G01*
G37*
G36*
G01*
X66421380Y-12097760D02*
X66421380Y-17097760D01*
G75*
G02*
X66171380Y-17347760I-250000J0D01*
G01*
X65671380Y-17347760D01*
G75*
G02*
X65421380Y-17097760I0J250000D01*
G01*
X65421380Y-12097760D01*
G75*
G02*
X65671380Y-11847760I250000J0D01*
G01*
X66171380Y-11847760D01*
G75*
G02*
X66421380Y-12097760I0J-250000D01*
G01*
G37*
G36*
G01*
X68421380Y-12097760D02*
X68421380Y-17097760D01*
G75*
G02*
X68171380Y-17347760I-250000J0D01*
G01*
X67671380Y-17347760D01*
G75*
G02*
X67421380Y-17097760I0J250000D01*
G01*
X67421380Y-12097760D01*
G75*
G02*
X67671380Y-11847760I250000J0D01*
G01*
X68171380Y-11847760D01*
G75*
G02*
X68421380Y-12097760I0J-250000D01*
G01*
G37*
D28*
X58428380Y-80589120D03*
X60428380Y-79639120D03*
X60428380Y-81539120D03*
D29*
X49640180Y-74531220D03*
X49640180Y-73896220D03*
X49640180Y-73261220D03*
X49640180Y-72626220D03*
X49640180Y-71991220D03*
X49640180Y-71356220D03*
X49640180Y-70721220D03*
X49640180Y-70086220D03*
X49640180Y-69451220D03*
X49640180Y-68816220D03*
X49640180Y-68181220D03*
X49640180Y-67546220D03*
X49640180Y-66911220D03*
X49640180Y-66276220D03*
X54840180Y-66276220D03*
X54840180Y-66911220D03*
X54840180Y-67546220D03*
X54840180Y-68181220D03*
X54840180Y-68816220D03*
X54840180Y-69451220D03*
X54840180Y-70086220D03*
X54840180Y-70721220D03*
X54840180Y-71356220D03*
X54840180Y-71991220D03*
X54840180Y-72626220D03*
X54840180Y-73261220D03*
X54840180Y-73896220D03*
X54840180Y-74531220D03*
D30*
X16736060Y-30462400D03*
X16736060Y-28262400D03*
M02*
