M48
; DRILL file {KiCad (5.1.6)-1} date 10/08/20 11:29:38
; FORMAT={-:-/ absolute / inch / decimal}
; #@! TF.CreationDate,2020-10-08T11:29:38-07:00
; #@! TF.GenerationSoftware,Kicad,Pcbnew,(5.1.6)-1
; #@! TF.FileFunction,Plated,1,4,PTH
FMAT,2
INCH
T1C0.0118
T2C0.0157
T3C0.0236
T4C0.0394
T5C0.1181
%
G90
G05
T1
X0.6772Y-2.7603
X0.6772Y-2.7997
X0.6772Y-2.8391
X0.6772Y-2.8784
X0.6772Y-2.9178
X0.7166Y-2.7603
X0.7166Y-2.7997
X0.7166Y-2.8391
X0.7166Y-2.8784
X0.7166Y-2.9178
X0.756Y-2.7603
X0.756Y-2.7997
X0.756Y-2.8391
X0.756Y-2.8784
X0.756Y-2.9178
X0.7953Y-2.7603
X0.7953Y-2.7997
X0.7953Y-2.8391
X0.7953Y-2.8784
X0.7953Y-2.9178
X0.8347Y-2.7603
X0.8347Y-2.7997
X0.8347Y-2.8391
X0.8347Y-2.8784
T2
X0.0295Y-1.204
X0.0315Y-2.5039
X0.0325Y-2.0758
X0.0354Y-2.1634
X0.065Y-1.0591
X0.0709Y-2.0384
X0.0738Y-1.1781
X0.0965Y-2.0026
X0.1007Y-1.5502
X0.1013Y-0.743
X0.1021Y-2.3184
X0.1132Y-2.0984
X0.1339Y-2.0364
X0.1503Y-2.927
X0.1585Y-1.4429
X0.1772Y-3.0669
X0.1787Y-2.5472
X0.1811Y-1.7028
X0.1811Y-2.0335
X0.1811Y-2.9094
X0.189Y-2.874
X0.2431Y-1.0217
X0.2441Y-1.082
X0.2519Y-0.7318
X0.2559Y-2.5039
X0.2766Y-1.7323
X0.2766Y-1.937
X0.2835Y-2.7795
X0.2854Y-2.9075
X0.2854Y-3.1575
X0.2871Y-0.9716
X0.3064Y-2.7519
X0.3169Y-2.9823
X0.3209Y-3.3189
X0.3278Y-2.4396
X0.3426Y-3.3593
X0.3504Y-3.5236
X0.3701Y-3.4055
X0.374Y-2.752
X0.379Y-2.9478
X0.3925Y-2.9007
X0.4035Y-2.6614
X0.4232Y-2.8543
X0.4321Y-3.2333
X0.4477Y-2.4256
X0.472Y-2.7071
X0.4764Y-2.93
X0.5039Y-3.2953
X0.5212Y-2.7111
X0.5276Y-0.9858
X0.5327Y-2.2198
X0.5357Y-2.9121
X0.5472Y-0.935
X0.5551Y-1.3346
X0.5561Y-3.1339
X0.565Y-0.8031
X0.565Y-2.2559
X0.5758Y-1.3878
X0.5827Y-1.0945
X0.5965Y-2.5433
X0.5984Y-2.3091
X0.6014Y-1.6752
X0.6112Y-3.2982
X0.6181Y-0.7058
X0.619Y-0.6566
X0.6299Y-1.9587
X0.6311Y-1.1773
X0.6319Y-0.7539
X0.6339Y-0.9508
X0.6397Y-0.5168
X0.6397Y-0.5793
X0.6683Y-3.0639
X0.6725Y-0.9518
X0.6732Y-3.3228
X0.6752Y-3.5551
X0.678Y-0.6566
X0.678Y-0.7058
X0.6786Y-2.1703
X0.689Y-3.3937
X0.6929Y-3.124
X0.6988Y-2.2158
X0.7008Y-0.1831
X0.7008Y-0.2224
X0.7008Y-0.2618
X0.7028Y-0.8465
X0.7185Y-3.1535
X0.7192Y-2.5951
X0.7194Y-3.2181
X0.7215Y-3.0672
X0.7235Y-2.4005
X0.7264Y-1.0551
X0.7323Y-1.2756
X0.7343Y-1.8543
X0.7382Y-3.4134
X0.7402Y-0.1831
X0.7402Y-0.2224
X0.7402Y-0.2618
X0.7406Y-2.4933
X0.7419Y-0.9381
X0.7431Y-2.2195
X0.748Y-1.1496
X0.751Y-2.1703
X0.7645Y-2.5781
X0.7684Y-3.335
X0.7697Y-2.6319
X0.7717Y-3.1772
X0.7795Y-0.1831
X0.7795Y-0.2224
X0.7795Y-0.2618
X0.7835Y-1.7126
X0.7845Y-1.6676
X0.7874Y-1.622
X0.7877Y-1.7554
X0.7913Y-1.5709
X0.7913Y-1.7992
X0.7933Y-2.5256
X0.7953Y-3.3937
X0.7992Y-2.2697
X0.8002Y-2.5807
X0.8021Y-1.9248
X0.8105Y-0.5756
X0.8189Y-0.1831
X0.8189Y-0.2224
X0.8189Y-0.2618
X0.824Y-0.9554
X0.8305Y-1.7243
X0.8341Y-2.3774
X0.8473Y-2.2939
X0.8512Y-2.4843
X0.8596Y-0.9004
X0.8701Y-2.3293
X0.8711Y-1.065
X0.872Y-3.2106
X0.8721Y-3.1537
X0.8752Y-2.633
X0.8799Y-0.6417
X0.8819Y-0.7126
X0.8858Y-3.252
X0.8976Y-0.7953
X0.8996Y-2.3661
X0.8996Y-1.124
X0.9005Y-2.5895
X0.9075Y-2.998
X0.9085Y-3.2886
X0.9113Y-2.251
X0.9123Y-1.4452
X0.9124Y-2.6229
X0.9133Y-2.4271
X0.9291Y-1.0039
X0.9331Y-0.4646
X0.939Y-1.689
X0.939Y-2.1102
X0.9457Y-1.9272
X0.9509Y-1.4075
X0.9552Y-3.1092
X0.9587Y-0.6794
X0.9626Y-1.8642
X0.9728Y-3.2346
X0.9744Y-0.9705
X0.9803Y-2.7278
X0.9899Y-3.3445
X0.9902Y-2.7618
X0.9941Y-1.998
X0.9961Y-1.4862
X1.002Y-2.9941
X1.0039Y-3.1535
X1.0157Y-0.1831
X1.0157Y-0.2224
X1.0157Y-0.2618
X1.0207Y-2.7402
X1.0236Y-0.6457
X1.0236Y-0.7106
X1.0315Y-1.8504
X1.0411Y-2.7958
X1.0419Y-0.901
X1.0453Y-2.9626
X1.0488Y-3.3008
X1.0512Y-2.6358
X1.0551Y-0.1831
X1.0551Y-0.2224
X1.0551Y-0.2618
X1.0591Y-2.4665
X1.065Y-0.5
X1.0669Y-1.5768
X1.0748Y-0.5478
X1.0807Y-1.9311
X1.0945Y-0.1831
X1.0945Y-0.2224
X1.0945Y-0.2618
X1.0945Y-2.1201
X1.0984Y-1.685
X1.0984Y-3.2362
X1.1063Y-2.811
X1.1063Y-3.1024
X1.1149Y-3.0
X1.1181Y-1.6437
X1.1319Y-3.2008
X1.1339Y-0.1831
X1.1339Y-0.2224
X1.1339Y-0.2618
X1.1368Y-2.9721
X1.1417Y-3.3346
X1.1437Y-2.2736
X1.1614Y-0.9941
X1.1614Y-3.0965
X1.1634Y-0.7205
X1.1634Y-0.7697
X1.1634Y-0.8189
X1.1634Y-0.8681
X1.1673Y-1.7953
X1.172Y-1.538
X1.1726Y-2.185
X1.1743Y-2.9749
X1.187Y-2.063
X1.187Y-2.4715
X1.189Y-2.3937
X1.1988Y-1.4823
X1.1988Y-1.9075
X1.2008Y-2.939
X1.2126Y-0.7205
X1.2126Y-0.7697
X1.2126Y-0.8189
X1.2126Y-0.8681
X1.2156Y-2.7894
X1.2334Y-3.1032
X1.2348Y-3.0039
X1.2382Y-2.5394
X1.2393Y-2.9374
X1.2402Y-2.622
X1.2402Y-2.7421
X1.2439Y-0.9157
X1.2441Y-2.1535
X1.2592Y-2.7894
X1.2618Y-0.7205
X1.2618Y-0.7697
X1.2618Y-0.8189
X1.2618Y-0.8681
X1.2736Y-2.0138
X1.2746Y-2.2648
X1.2795Y-0.9961
X1.2841Y-1.5225
X1.2884Y-3.1787
X1.2931Y-3.1266
X1.2992Y-2.2904
X1.3091Y-2.5354
X1.3129Y-3.0013
X1.313Y-2.9075
X1.315Y-1.9331
X1.3167Y-2.8681
X1.3189Y-2.378
X1.3189Y-3.3642
X1.3208Y-3.1046
X1.3258Y-2.0404
X1.3287Y-3.5118
X1.3346Y-3.4665
X1.3366Y-1.4547
X1.3366Y-1.5709
X1.3386Y-2.4681
X1.3406Y-2.9724
X1.3465Y-1.311
X1.3524Y-2.2618
X1.3563Y-2.813
X1.3596Y-2.7704
X1.3642Y-3.6063
X1.365Y-1.2539
X1.3661Y-3.0906
X1.3677Y-1.5936
X1.376Y-0.6752
X1.376Y-2.6949
X1.378Y-1.6299
X1.3944Y-3.1878
X1.3996Y-1.3878
X1.4055Y-1.0846
X1.4114Y-0.626
X1.4173Y-0.9113
X1.4222Y-0.7884
X1.4272Y-2.939
X1.4341Y-2.6752
X1.435Y-2.0276
X1.435Y-3.2283
X1.4524Y-3.6004
X1.4528Y-2.8917
X1.4557Y-3.5157
X1.4567Y-3.1043
X1.4587Y-2.3179
X1.4606Y-1.5689
X1.4665Y-1.1663
X1.4665Y-2.7916
X1.4685Y-0.9408
X1.4691Y-0.6856
X1.4724Y-1.3091
X1.4724Y-2.7165
X1.4744Y-1.2638
X1.4803Y-2.4715
X1.4823Y-2.4213
X1.4843Y-2.252
X1.4961Y-3.063
X1.5157Y-3.5906
X1.5303Y-1.3984
X1.5547Y-3.2151
X1.567Y-1.4355
X1.5768Y-2.9646
X1.5906Y-3.1161
X1.5965Y-2.6575
X1.5965Y-2.8189
X1.5984Y-2.7126
X1.6043Y-1.5689
X1.6083Y-1.3012
X1.6191Y-0.3248
X1.6319Y-2.7953
X1.6343Y-2.3988
X1.6358Y-3.3307
X1.6476Y-2.4362
X1.6575Y-1.4921
X1.6654Y-1.937
X1.6769Y-3.2055
X1.6812Y-1.1279
X1.685Y-0.3524
X1.685Y-0.3917
X1.687Y-0.0807
X1.687Y-0.1201
X1.6905Y-3.4242
X1.6909Y-1.3209
X1.6929Y-1.3748
X1.7087Y-1.0512
X1.7146Y-3.3681
X1.7205Y-0.3524
X1.7205Y-0.3917
X1.7264Y-0.0807
X1.7264Y-0.1201
X1.7283Y-1.3386
X1.7441Y-1.9508
X1.7539Y-0.7835
X1.7598Y-0.3524
X1.7598Y-0.3917
X1.7598Y-2.7598
X1.7657Y-0.0807
X1.7657Y-0.1201
X1.7657Y-0.1693
X1.7658Y-2.2592
X1.7724Y-1.5801
X1.7815Y-1.187
X1.7992Y-0.3524
X1.7992Y-0.3917
X1.8051Y-0.0807
X1.8051Y-0.1201
X1.8071Y-0.5689
X1.8087Y-0.9669
X1.8209Y-1.2795
X1.8268Y-2.6043
X1.8386Y-0.3524
X1.8386Y-0.3917
X1.8445Y-0.0807
X1.8445Y-0.1201
X1.8445Y-0.9934
X1.8465Y-0.687
X1.8465Y-0.7264
X1.8465Y-0.7657
X1.8484Y-3.1831
X1.8602Y-1.563
X1.862Y-1.9704
X1.8657Y-2.0766
X1.8668Y-1.3755
X1.8858Y-0.687
X1.8858Y-0.7264
X1.8858Y-0.7657
X1.8878Y-2.7323
X1.8937Y-1.4055
X1.8972Y-0.8358
X1.9046Y-1.1644
X1.9117Y-2.0738
X1.9154Y-1.2028
X1.9207Y-1.0338
X1.9272Y-2.5238
X1.933Y-2.4711
X1.9387Y-0.3358
X1.9393Y-1.3676
X1.9409Y-1.5315
X1.9437Y-0.3998
X1.9496Y-1.2283
X1.9579Y-0.9188
X1.9813Y-1.4665
X1.9863Y-1.244
X1.9897Y-2.0698
X1.9904Y-2.1102
X1.997Y-2.8839
X2.0Y-2.7707
X2.0027Y-0.3358
X2.0057Y-0.3998
X2.0079Y-1.3031
X2.0167Y-1.0578
X2.0177Y-0.1673
X2.0202Y-2.6438
X2.0236Y-2.9331
X2.0344Y-2.6093
X2.035Y-1.6264
X2.0413Y-1.5
X2.0531Y-1.5906
X2.0561Y-2.465
X2.0659Y-0.1348
X2.0667Y-1.1118
X2.0669Y-2.8917
X2.0683Y-2.8082
X2.0702Y-1.0578
X2.0722Y-0.7738
X2.0727Y-0.3358
X2.0727Y-0.9978
X2.0748Y-0.0768
X2.0767Y-0.3998
X2.0787Y-2.937
X2.0827Y-1.3038
X2.0866Y-1.4134
X2.0925Y-3.4902
X2.1024Y-2.6496
X2.1043Y-1.6555
X2.1128Y-3.0371
X2.1247Y-0.9478
X2.1247Y-0.9993
X2.1247Y-1.0508
X2.1247Y-1.1023
X2.1247Y-1.1538
X2.1477Y-0.6653
X2.148Y-3.0334
X2.1567Y-1.4888
X2.1567Y-1.5321
X2.1567Y-1.5754
X2.1574Y-2.0742
X2.1634Y-3.185
X2.164Y-2.132
X2.1673Y-3.2343
X2.1687Y-1.1058
X2.1727Y-1.0583
X2.1767Y-1.0038
X2.1787Y-3.0512
X2.1831Y-1.3268
X2.1909Y-2.4598
X2.1949Y-1.3996
X2.2Y-1.4888
X2.2067Y-3.2343
X2.2067Y-3.0729
X2.2187Y-2.1278
X2.2197Y-2.0698
X2.2207Y-1.3038
X2.2228Y-1.9042
X2.2237Y-0.1826
X2.2237Y-0.2318
X2.2253Y-0.7392
X2.2267Y-0.0318
X2.2267Y-0.081
X2.2267Y-0.1302
X2.2267Y-1.0578
X2.2323Y-0.6542
X2.2327Y-0.3998
X2.2347Y-0.3358
X2.2387Y-0.8263
X2.2433Y-1.4888
X2.2461Y-3.2343
X2.2511Y-2.4843
X2.2534Y-2.8523
X2.2536Y-2.5216
X2.2638Y-3.3563
X2.2657Y-3.4921
X2.2697Y-2.3839
X2.2698Y-2.7284
X2.2709Y-0.1826
X2.2709Y-0.2318
X2.2721Y-0.7358
X2.2739Y-0.0318
X2.2739Y-0.081
X2.2739Y-0.1302
X2.2815Y-2.7618
X2.2827Y-2.1278
X2.2832Y-2.0698
X2.2866Y-1.4888
X2.2866Y-1.5321
X2.2901Y-2.5574
X2.2913Y-1.4469
X2.2987Y-0.3998
X2.3003Y-3.1728
X2.3007Y-0.3358
X2.3182Y-0.1826
X2.3182Y-0.2318
X2.3189Y-2.376
X2.3205Y-0.7298
X2.3209Y-3.0354
X2.3212Y-0.0318
X2.3212Y-0.081
X2.3212Y-0.1302
X2.3346Y-1.3031
X2.3358Y-1.3518
X2.3367Y-0.5113
X2.3417Y-0.9718
X2.3465Y-3.5728
X2.3654Y-0.1826
X2.3654Y-0.2318
X2.3684Y-0.0318
X2.3684Y-0.081
X2.3684Y-0.1302
X2.3705Y-1.2817
X2.372Y-3.4429
X2.3727Y-0.3358
X2.3727Y-0.3998
X2.374Y-3.4016
X2.3858Y-1.2441
X2.3858Y-1.6073
X2.3976Y-3.0157
X2.3996Y-2.9291
X2.4127Y-0.1826
X2.4127Y-0.2318
X2.4157Y-0.0318
X2.4157Y-0.081
X2.4157Y-0.1302
X2.439Y-3.2106
X2.4528Y-2.5551
X2.4599Y-0.1826
X2.4599Y-0.2318
X2.4629Y-0.0318
X2.4629Y-0.081
X2.4629Y-0.1302
X2.4693Y-0.792
X2.4921Y-2.1535
X2.4921Y-2.6201
X2.5102Y-0.0318
X2.5102Y-0.081
X2.5335Y-1.1217
X2.5571Y-1.3228
X2.7264Y-2.1142
X2.7345Y-0.3392
X2.7345Y-0.3884
X2.7817Y-0.3392
X2.7817Y-0.3884
T4
X0.0728Y-2.7677
X0.0728Y-2.8677
X0.0728Y-2.9677
X0.0728Y-3.0677
X0.0728Y-3.1677
X0.9941Y-1.1618
X0.9941Y-1.2618
X1.0941Y-1.1618
X1.0941Y-1.2618
X1.1941Y-1.1618
X1.1941Y-1.2618
X1.2941Y-1.1618
X1.2941Y-1.2618
X0.3761Y-0.4322
X0.3761Y-0.5322
X0.3761Y-0.6322
X0.3761Y-0.7322
X0.3761Y-0.8322
X0.3761Y-0.9322
X0.3761Y-1.0322
X0.3761Y-1.1322
X0.3761Y-1.2322
X0.3761Y-1.3322
X0.3761Y-1.4322
X0.3761Y-1.5322
X0.3761Y-1.6322
X0.3761Y-1.7322
X0.3761Y-1.8322
X0.3761Y-1.9322
X0.3761Y-2.0322
X0.3761Y-2.1322
X0.3761Y-2.2322
X0.3761Y-2.3322
X0.4761Y-0.4322
X0.4761Y-0.5322
X0.4761Y-0.6322
X0.4761Y-0.7322
X0.4761Y-0.8322
X0.4761Y-0.9322
X0.4761Y-1.0322
X0.4761Y-1.1322
X0.4761Y-1.2322
X0.4761Y-1.3322
X0.4761Y-1.4322
X0.4761Y-1.5322
X0.4761Y-1.6322
X0.4761Y-1.7322
X0.4761Y-1.8322
X0.4761Y-1.9322
X0.4761Y-2.0322
X0.4761Y-2.1322
X0.4761Y-2.2322
X0.4761Y-2.3322
X0.7894Y-3.4803
X0.8894Y-3.4803
X0.9894Y-3.4803
X1.0894Y-3.4803
X2.5787Y-2.2087
X2.5787Y-2.3087
X2.5787Y-2.4087
X2.5787Y-2.5087
X2.5787Y-2.6087
X2.5787Y-2.7087
X2.5787Y-2.8087
X2.5787Y-2.9087
X2.5787Y-3.0087
X2.5787Y-3.1087
X2.6787Y-2.2087
X2.6787Y-2.3087
X2.6787Y-2.4087
X2.6787Y-2.5087
X2.6787Y-2.6087
X2.6787Y-2.7087
X2.6787Y-2.8087
X2.6787Y-2.9087
X2.6787Y-3.0087
X2.6787Y-3.1087
X0.0728Y-3.313
X0.0728Y-3.413
X0.0728Y-3.513
T5
X0.5315Y-3.4678
X0.5315Y-0.1969
X2.6347Y-0.1969
X2.6347Y-3.4678
T3
G00X2.4835Y-1.4708
M15
G01X2.4835Y-1.4983
M16
G05
G00X2.5032Y-1.3851
M15
G01X2.5308Y-1.3851
M16
G05
G00X2.5662Y-1.5525
M15
G01X2.5938Y-1.5525
M16
G05
G00X2.7788Y-1.5525
M15
G01X2.7513Y-1.5525
M16
G05
G00X2.7946Y-1.4668
M15
G01X2.7946Y-1.4393
M16
G05
G00X1.5915Y-3.6181
M15
G01X1.5915Y-3.5866
M16
G05
G00X1.873Y-3.5866
M15
G01X1.873Y-3.6181
M16
G05
T4
G00X2.5082Y-1.9417
M15
G01X2.587Y-1.9417
M16
G05
G00X2.6657Y-1.7882
M15
G01X2.6657Y-1.7094
M16
G05
G00X2.7563Y-1.8984
M15
G01X2.7563Y-1.8196
M16
G05
T0
M30
