M48
; DRILL file {KiCad (5.1.6)-1} date 07/22/20 11:53:07
; FORMAT={-:-/ absolute / inch / decimal}
; #@! TF.CreationDate,2020-07-22T11:53:07-07:00
; #@! TF.GenerationSoftware,Kicad,Pcbnew,(5.1.6)-1
; #@! TF.FileFunction,Plated,1,4,PTH
FMAT,2
INCH
T1C0.0118
T2C0.0157
T3C0.0197
T4C0.0236
T5C0.0394
T6C0.0787
T7C0.1181
%
G90
G05
T1
X0.6925Y-2.9525
X0.6925Y-2.9919
X0.6925Y-3.0313
X0.6925Y-3.0706
X0.6925Y-3.11
X0.7319Y-2.9525
X0.7319Y-2.9919
X0.7319Y-3.0313
X0.7319Y-3.0706
X0.7319Y-3.11
X0.7713Y-2.9525
X0.7713Y-2.9919
X0.7713Y-3.0313
X0.7713Y-3.0706
X0.7713Y-3.11
X0.8106Y-2.9525
X0.8106Y-2.9919
X0.8106Y-3.0313
X0.8106Y-3.0706
X0.8106Y-3.11
X0.85Y-2.9525
X0.85Y-2.9919
X0.85Y-3.0313
X0.85Y-3.0706
X0.85Y-3.11
T2
X0.0735Y-2.4122
X0.084Y-2.317
X0.09Y-1.6672
X0.0992Y-1.4324
X0.1138Y-1.2898
X0.116Y-1.7424
X0.1166Y-0.9352
X0.1174Y-2.5106
X0.1302Y-1.5366
X0.1324Y-1.3836
X0.1346Y-1.9514
X0.136Y-2.1886
X0.138Y-2.082
X0.145Y-2.4674
X0.1484Y-2.282
X0.1684Y-1.6798
X0.1728Y-1.4324
X0.1802Y-1.1198
X0.1936Y-1.3836
X0.2172Y-2.658
X0.2182Y-1.508
X0.2238Y-1.7138
X0.245Y-3.0946
X0.2462Y-0.4306
X0.2621Y-3.5248
X0.2672Y-0.924
X0.2732Y-3.6304
X0.279Y-1.9088
X0.2794Y-1.4798
X0.2796Y-3.5556
X0.2842Y-2.079
X0.2856Y-1.9844
X0.2988Y-1.3312
X0.3024Y-1.1638
X0.3042Y-2.1776
X0.3194Y-2.9868
X0.3208Y-2.3704
X0.3285Y-3.617
X0.3307Y-2.2835
X0.334Y-3.131
X0.335Y-2.6318
X0.3396Y-1.4907
X0.3558Y-2.741
X0.3605Y-3.0893
X0.372Y-3.0306
X0.433Y-0.3542
X0.4388Y-3.0704
X0.4467Y-2.2723
X0.4484Y-0.4798
X0.4514Y-2.9866
X0.47Y-2.7876
X0.4732Y-3.1564
X0.4843Y-2.6391
X0.5008Y-3.6574
X0.5311Y-2.743
X0.5366Y-2.6882
X0.5396Y-3.6948
X0.544Y-1.178
X0.5458Y-2.5412
X0.5494Y-1.6828
X0.5494Y-2.3566
X0.567Y-1.9742
X0.5695Y-3.4205
X0.5706Y-3.5088
X0.5712Y-3.5536
X0.574Y-3.182
X0.58Y-0.405
X0.58Y-0.475
X0.5822Y-1.1266
X0.585Y-3.106
X0.5865Y-2.9505
X0.5865Y-3.012
X0.602Y-0.244
X0.6054Y-3.2702
X0.616Y-1.2714
X0.618Y-1.022
X0.62Y-1.438
X0.6205Y-1.174
X0.6318Y-0.3386
X0.6343Y-0.8488
X0.6343Y-0.898
X0.6422Y-2.3642
X0.6449Y-2.195
X0.65Y-0.405
X0.65Y-0.475
X0.654Y-1.104
X0.655Y-0.709
X0.655Y-0.7715
X0.656Y-1.208
X0.6604Y-2.054
X0.6636Y-2.7128
X0.6695Y-2.621
X0.671Y-2.3184
X0.6933Y-0.8488
X0.6933Y-0.898
X0.7008Y-1.064
X0.7104Y-2.4056
X0.725Y-0.405
X0.725Y-0.475
X0.7356Y-2.7702
X0.7366Y-1.0022
X0.74Y-2.836
X0.7434Y-3.2179
X0.7492Y-2.423
X0.7518Y-2.3346
X0.7574Y-3.595
X0.7596Y-1.0598
X0.76Y-2.7392
X0.7652Y-2.2642
X0.777Y-1.4925
X0.7773Y-2.5327
X0.778Y-1.3226
X0.781Y-1.6836
X0.7838Y-2.5727
X0.794Y-2.47
X0.7945Y-1.7535
X0.7998Y-1.8598
X0.804Y-1.932
X0.8054Y-2.6463
X0.8065Y-0.8092
X0.8086Y-2.7438
X0.8088Y-3.519
X0.8094Y-1.277
X0.8131Y-1.4518
X0.819Y-2.0475
X0.8218Y-3.2936
X0.824Y-2.163
X0.8361Y-3.5707
X0.84Y-0.714
X0.8405Y-2.393
X0.8494Y-2.767
X0.8517Y-2.6239
X0.856Y-2.5
X0.8605Y-2.3075
X0.862Y-3.5224
X0.8706Y-0.7474
X0.8744Y-1.0818
X0.8746Y-3.3887
X0.8755Y-1.4885
X0.878Y-0.472
X0.882Y-0.41
X0.8899Y-3.2628
X0.8908Y-0.6824
X0.8945Y-1.7625
X0.9036Y-2.788
X0.9088Y-2.8388
X0.9142Y-1.1228
X0.9153Y-3.2202
X0.9178Y-2.7334
X0.9181Y-3.434
X0.9221Y-0.839
X0.9221Y-0.8882
X0.9232Y-3.173
X0.925Y-2.0336
X0.934Y-2.808
X0.944Y-2.192
X0.948Y-0.408
X0.948Y-0.472
X0.9498Y-0.6558
X0.956Y-2.1055
X0.9587Y-3.1612
X0.962Y-1.488
X0.964Y-0.722
X0.9675Y-2.3605
X0.9739Y-2.9541
X0.9758Y-3.4146
X0.9811Y-0.839
X0.9811Y-0.8882
X0.984Y-2.5675
X0.9851Y-3.1348
X0.9932Y-2.6081
X0.9935Y-1.5515
X0.996Y-2.48
X0.9962Y-2.6435
X1.0073Y-2.9423
X1.0106Y-0.7272
X1.014Y-0.472
X1.016Y-0.408
X1.0176Y-3.2794
X1.02Y-3.474
X1.022Y-2.79
X1.048Y-2.873
X1.0498Y-1.1838
X1.0588Y-3.2076
X1.06Y-2.5285
X1.0645Y-1.9235
X1.0655Y-1.733
X1.0756Y-3.7084
X1.076Y-2.4737
X1.0851Y-3.5439
X1.0882Y-2.7643
X1.0884Y-2.8851
X1.09Y-2.212
X1.0926Y-0.7944
X1.0965Y-3.1645
X1.0972Y-3.468
X1.0976Y-2.344
X1.1004Y-0.74
X1.1027Y-3.2576
X1.1028Y-2.5587
X1.1082Y-3.7486
X1.122Y-2.623
X1.1234Y-3.4442
X1.1263Y-2.769
X1.1274Y-3.5956
X1.129Y-1.5048
X1.132Y-1.54
X1.132Y-1.586
X1.132Y-1.636
X1.1461Y-2.8171
X1.1486Y-3.1219
X1.152Y-2.9382
X1.1571Y-1.7511
X1.158Y-1.958
X1.1732Y-3.0964
X1.177Y-3.3575
X1.1835Y-1.44
X1.1853Y-3.1634
X1.188Y-1.696
X1.1984Y-3.3886
X1.2014Y-3.3216
X1.2032Y-2.9302
X1.208Y-3.577
X1.2083Y-2.0559
X1.224Y-2.104
X1.2262Y-1.7652
X1.233Y-2.251
X1.2361Y-2.9124
X1.238Y-1.4507
X1.238Y-2.608
X1.238Y-2.6999
X1.2402Y-3.6162
X1.2417Y-2.6587
X1.2464Y-3.5218
X1.251Y-2.9818
X1.259Y-3.1218
X1.2595Y-2.9416
X1.2776Y-3.0916
X1.2815Y-3.755
X1.2828Y-3.452
X1.2844Y-1.5024
X1.286Y-1.54
X1.286Y-1.586
X1.286Y-1.636
X1.3054Y-2.7088
X1.3066Y-2.5424
X1.308Y-2.048
X1.3085Y-2.656
X1.3086Y-3.338
X1.3166Y-3.298
X1.3175Y-3.2175
X1.3184Y-3.0352
X1.3246Y-3.136
X1.3471Y-3.4183
X1.3495Y-1.495
X1.36Y-2.05
X1.3658Y-3.3071
X1.3696Y-2.5218
X1.3703Y-2.8131
X1.3709Y-1.3676
X1.3913Y-2.844
X1.407Y-1.299
X1.421Y-2.038
X1.424Y-2.16
X1.4317Y-1.6857
X1.4365Y-2.6761
X1.4423Y-3.1015
X1.4561Y-1.4697
X1.4561Y-3.3815
X1.4583Y-1.3879
X1.4596Y-2.7466
X1.4715Y-1.797
X1.478Y-2.9886
X1.4895Y-3.18
X1.5075Y-2.568
X1.5175Y-1.9525
X1.5178Y-3.2577
X1.5192Y-3.3109
X1.534Y-2.6485
X1.5345Y-1.574
X1.5365Y-1.8595
X1.5594Y-2.7878
X1.568Y-1.737
X1.5788Y-3.4566
X1.586Y-0.9835
X1.586Y-1.0327
X1.5865Y-0.634
X1.5865Y-0.6832
X1.5898Y-3.2676
X1.59Y-1.26
X1.592Y-1.3285
X1.5934Y-3.1086
X1.604Y-1.607
X1.607Y-2.303
X1.6092Y-2.9056
X1.611Y-2.6275
X1.6152Y-2.967
X1.6154Y-3.509
X1.618Y-1.769
X1.6203Y-1.4843
X1.6214Y-3.0052
X1.6227Y-2.7753
X1.6244Y-2.8566
X1.6352Y-0.9835
X1.6352Y-1.0327
X1.6357Y-0.634
X1.6357Y-0.6832
X1.6412Y-3.3336
X1.645Y-1.2585
X1.6454Y-3.4606
X1.6459Y-3.2583
X1.6475Y-1.327
X1.652Y-0.286
X1.6596Y-1.5252
X1.6695Y-2.3194
X1.6844Y-0.9835
X1.6844Y-1.0327
X1.6849Y-0.634
X1.6849Y-0.6832
X1.6904Y-3.3852
X1.6912Y-3.0768
X1.7068Y-3.016
X1.7095Y-3.2263
X1.722Y-1.5836
X1.7236Y-2.2374
X1.7245Y-1.3135
X1.7251Y-2.1457
X1.7254Y-2.1926
X1.7275Y-2.6255
X1.729Y-2.67
X1.7334Y-1.0935
X1.7336Y-0.9835
X1.7336Y-1.0327
X1.7341Y-0.634
X1.7341Y-0.6832
X1.7354Y-2.0814
X1.7408Y-2.9046
X1.7416Y-2.014
X1.7479Y-1.8361
X1.7525Y-2.33
X1.7584Y-3.3864
X1.7595Y-1.3405
X1.7762Y-3.0114
X1.779Y-2.388
X1.7791Y-2.1109
X1.7795Y-2.5435
X1.78Y-1.696
X1.7829Y-0.9835
X1.7829Y-1.0327
X1.7834Y-0.634
X1.7834Y-0.6832
X1.7865Y-1.1145
X1.788Y-1.772
X1.7925Y-1.4145
X1.7972Y-0.943
X1.824Y-1.1591
X1.8243Y-1.6072
X1.827Y-1.3885
X1.829Y-1.652
X1.8395Y-3.2265
X1.85Y-2.014
X1.865Y-3.345
X1.8746Y-2.7236
X1.8769Y-1.7054
X1.877Y-2.226
X1.8835Y-1.869
X1.8898Y-2.8063
X1.896Y-1.5635
X1.8986Y-3.067
X1.9061Y-2.9102
X1.9125Y-1.028
X1.9245Y-1.6233
X1.9322Y-1.3647
X1.936Y-1.226
X1.9418Y-1.6852
X1.9425Y-2.716
X1.9455Y-0.9835
X1.9461Y-2.6611
X1.952Y-0.841
X1.954Y-0.528
X1.9546Y-1.5598
X1.9569Y-2.114
X1.959Y-0.592
X1.964Y-2.5154
X1.9732Y-1.111
X1.9803Y-1.3643
X1.9941Y-1.399
X2.0006Y-2.6146
X2.0016Y-1.4362
X2.005Y-2.262
X2.006Y-2.32
X2.007Y-2.382
X2.0089Y-1.8501
X2.0125Y-1.8915
X2.018Y-0.528
X2.018Y-2.792
X2.019Y-3.1195
X2.0195Y-1.796
X2.021Y-0.592
X2.032Y-1.25
X2.0385Y-1.48
X2.053Y-2.262
X2.0544Y-2.433
X2.056Y-2.32
X2.0714Y-2.6572
X2.0751Y-2.0707
X2.076Y-2.116
X2.076Y-2.744
X2.082Y-1.304
X2.0828Y-3.0848
X2.0836Y-3.0004
X2.0855Y-1.25
X2.0875Y-0.966
X2.0875Y-0.966
X2.088Y-0.528
X2.088Y-1.19
X2.092Y-0.592
X2.098Y-1.496
X2.114Y-3.123
X2.1249Y-2.8575
X2.14Y-1.14
X2.14Y-1.1905
X2.14Y-1.25
X2.14Y-1.3025
X2.14Y-1.346
X2.152Y-1.584
X2.156Y-1.634
X2.164Y-0.86
X2.172Y-1.681
X2.172Y-1.7243
X2.172Y-1.7676
X2.1824Y-3.3484
X2.184Y-1.298
X2.188Y-1.2505
X2.192Y-1.196
X2.2062Y-2.652
X2.2153Y-1.681
X2.2153Y-1.7243
X2.2153Y-1.7676
X2.234Y-2.32
X2.235Y-2.262
X2.236Y-1.496
X2.242Y-0.224
X2.242Y-0.2732
X2.242Y-0.3224
X2.242Y-1.25
X2.2425Y-0.9121
X2.2436Y-2.9852
X2.2476Y-0.8464
X2.248Y-0.592
X2.25Y-0.528
X2.254Y-1.0185
X2.2586Y-2.7498
X2.2586Y-1.681
X2.2586Y-1.7243
X2.2586Y-1.7676
X2.26Y-1.571
X2.2642Y-3.5094
X2.2644Y-3.4294
X2.2652Y-3.4678
X2.2664Y-2.6765
X2.2688Y-3.3368
X2.2689Y-2.7138
X2.272Y-2.498
X2.2795Y-1.4728
X2.2874Y-0.928
X2.2892Y-0.224
X2.2892Y-0.2732
X2.2892Y-0.3224
X2.296Y-2.164
X2.298Y-2.32
X2.2985Y-2.262
X2.3019Y-1.681
X2.3019Y-1.7243
X2.3019Y-1.7676
X2.3054Y-2.7496
X2.312Y-1.5775
X2.314Y-0.592
X2.316Y-0.528
X2.3175Y-2.701
X2.3222Y-2.8534
X2.3298Y-2.9382
X2.3358Y-0.922
X2.3365Y-0.224
X2.3365Y-0.2732
X2.3365Y-0.3224
X2.341Y-2.096
X2.352Y-0.7035
X2.352Y-2.542
X2.357Y-1.164
X2.362Y-2.262
X2.362Y-2.32
X2.364Y-2.864
X2.368Y-2.908
X2.374Y-3.4978
X2.3837Y-0.224
X2.3837Y-0.2732
X2.3837Y-0.3224
X2.388Y-0.528
X2.388Y-0.592
X2.392Y-1.512
X2.392Y-1.7385
X2.3925Y-1.426
X2.399Y-3.2468
X2.4095Y-3.045
X2.4162Y-0.9034
X2.4282Y-2.804
X2.431Y-0.224
X2.431Y-0.2732
X2.431Y-0.3224
X2.442Y-2.488
X2.46Y-2.618
X2.461Y-3.4024
X2.466Y-0.537
X2.466Y-0.5862
X2.4782Y-0.224
X2.4782Y-0.2732
X2.4782Y-0.3224
X2.4949Y-2.637
X2.496Y-1.522
X2.5Y-1.426
X2.507Y-2.836
X2.5132Y-0.537
X2.5132Y-0.5862
X2.5221Y-2.6113
X2.5255Y-0.224
X2.5255Y-0.2732
X2.5455Y-1.681
X2.5605Y-0.537
X2.5605Y-0.5862
X2.6077Y-0.537
X2.6077Y-0.5862
X2.638Y-3.455
X2.655Y-0.537
X2.655Y-0.5862
X2.7022Y-0.537
X2.7022Y-0.5862
X2.7495Y-0.537
X2.7495Y-0.5862
X2.778Y-1.705
X2.7967Y-0.537
X2.7967Y-0.5862
T3
X2.5614Y-3.66
X2.5874Y-3.5974
X2.5874Y-3.7226
X2.65Y-3.5714
X2.65Y-3.7486
X2.7126Y-3.5974
X2.7126Y-3.7226
X2.7386Y-3.66
X2.5614Y-0.39
X2.5874Y-0.3274
X2.5874Y-0.4526
X2.65Y-0.3014
X2.65Y-0.4786
X2.7126Y-0.3274
X2.7126Y-0.4526
X2.7386Y-0.39
X1.3414Y-0.39
X1.3674Y-0.3274
X1.3674Y-0.4526
X1.43Y-0.3014
X1.43Y-0.4786
X1.4926Y-0.3274
X1.4926Y-0.4526
X1.5186Y-0.39
X1.3414Y-3.66
X1.3674Y-3.5974
X1.3674Y-3.7226
X1.43Y-3.5714
X1.43Y-3.7486
X1.4926Y-3.5974
X1.4926Y-3.7226
X1.5186Y-3.66
T5
X1.12Y-0.322
X1.12Y-0.422
X1.12Y-0.522
X1.22Y-0.322
X1.22Y-0.422
X1.22Y-0.522
X0.3914Y-0.6244
X0.3914Y-0.7244
X0.3914Y-0.8244
X0.3914Y-0.9244
X0.3914Y-1.0244
X0.3914Y-1.1244
X0.3914Y-1.2244
X0.3914Y-1.3244
X0.3914Y-1.4244
X0.3914Y-1.5244
X0.3914Y-1.6244
X0.3914Y-1.7244
X0.3914Y-1.8244
X0.3914Y-1.9244
X0.3914Y-2.0244
X0.3914Y-2.1244
X0.3914Y-2.2244
X0.3914Y-2.3244
X0.3914Y-2.4244
X0.3914Y-2.5244
X0.4914Y-0.6244
X0.4914Y-0.7244
X0.4914Y-0.8244
X0.4914Y-0.9244
X0.4914Y-1.0244
X0.4914Y-1.1244
X0.4914Y-1.2244
X0.4914Y-1.3244
X0.4914Y-1.4244
X0.4914Y-1.5244
X0.4914Y-1.6244
X0.4914Y-1.7244
X0.4914Y-1.8244
X0.4914Y-1.9244
X0.4914Y-2.0244
X0.4914Y-2.1244
X0.4914Y-2.2244
X0.4914Y-2.3244
X0.4914Y-2.4244
X0.4914Y-2.5244
X2.589Y-2.497
X2.589Y-2.597
X2.589Y-2.697
X2.589Y-2.797
X2.589Y-2.897
X2.589Y-2.997
X2.589Y-3.097
X2.589Y-3.197
X2.589Y-3.297
X2.589Y-3.397
X2.689Y-2.497
X2.689Y-2.597
X2.689Y-2.697
X2.689Y-2.797
X2.689Y-2.897
X2.689Y-2.997
X2.689Y-3.097
X2.689Y-3.197
X2.689Y-3.297
X2.689Y-3.397
T6
X2.639Y-2.122
T7
X2.65Y-3.66
X2.65Y-0.39
X1.43Y-0.39
X1.43Y-3.66
T4
G00X0.6913Y-3.811
M15
G01X0.6913Y-3.7795
M16
G05
G00X0.9727Y-3.7795
M15
G01X0.9727Y-3.811
M16
G05
T5
G00X2.4579Y-2.2106
M15
G01X2.4579Y-2.1515
M16
G05
G00X2.576Y-2.0118
M15
G01X2.5051Y-2.0118
M16
G05
G00X2.7217Y-1.9133
M15
G01X2.6508Y-1.9133
M16
G05
T0
M30
