G04 #@! TF.GenerationSoftware,KiCad,Pcbnew,(5.1.6)-1*
G04 #@! TF.CreationDate,2020-07-22T11:53:15-07:00*
G04 #@! TF.ProjectId,Mycroft - Mark 2,4d796372-6f66-4742-902d-204d61726b20,rev?*
G04 #@! TF.SameCoordinates,Original*
G04 #@! TF.FileFunction,Paste,Bot*
G04 #@! TF.FilePolarity,Positive*
%FSLAX46Y46*%
G04 Gerber Fmt 4.6, Leading zero omitted, Abs format (unit mm)*
G04 Created by KiCad (PCBNEW (5.1.6)-1) date 2020-07-22 11:53:15*
%MOMM*%
%LPD*%
G01*
G04 APERTURE LIST*
%ADD10R,0.950000X0.400000*%
%ADD11R,0.800000X1.000000*%
%ADD12R,1.500000X0.700000*%
%ADD13R,1.200000X0.600000*%
%ADD14R,1.000000X1.700000*%
G04 APERTURE END LIST*
G36*
G01*
X24196950Y-17396000D02*
X26196650Y-17396000D01*
G75*
G02*
X26346800Y-17546150I0J-150150D01*
G01*
X26346800Y-17595850D01*
G75*
G02*
X26196650Y-17746000I-150150J0D01*
G01*
X24196950Y-17746000D01*
G75*
G02*
X24046800Y-17595850I0J150150D01*
G01*
X24046800Y-17546150D01*
G75*
G02*
X24196950Y-17396000I150150J0D01*
G01*
G37*
G36*
G01*
X24196950Y-19846000D02*
X26196650Y-19846000D01*
G75*
G02*
X26346800Y-19996150I0J-150150D01*
G01*
X26346800Y-20045850D01*
G75*
G02*
X26196650Y-20196000I-150150J0D01*
G01*
X24196950Y-20196000D01*
G75*
G02*
X24046800Y-20045850I0J150150D01*
G01*
X24046800Y-19996150D01*
G75*
G02*
X24196950Y-19846000I150150J0D01*
G01*
G37*
G36*
G01*
X27096800Y-18296150D02*
X27096800Y-19295850D01*
G75*
G02*
X26946650Y-19446000I-150150J0D01*
G01*
X26896950Y-19446000D01*
G75*
G02*
X26746800Y-19295850I0J150150D01*
G01*
X26746800Y-18296150D01*
G75*
G02*
X26896950Y-18146000I150150J0D01*
G01*
X26946650Y-18146000D01*
G75*
G02*
X27096800Y-18296150I0J-150150D01*
G01*
G37*
G36*
G01*
X23646800Y-18296150D02*
X23646800Y-19295850D01*
G75*
G02*
X23496650Y-19446000I-150150J0D01*
G01*
X23446950Y-19446000D01*
G75*
G02*
X23296800Y-19295850I0J150150D01*
G01*
X23296800Y-18296150D01*
G75*
G02*
X23446950Y-18146000I150150J0D01*
G01*
X23496650Y-18146000D01*
G75*
G02*
X23646800Y-18296150I0J-150150D01*
G01*
G37*
D10*
X25871800Y-19221000D03*
X25871800Y-18371000D03*
X24521800Y-18371000D03*
X24521800Y-19221000D03*
G36*
G01*
X24196950Y-87246000D02*
X26196650Y-87246000D01*
G75*
G02*
X26346800Y-87396150I0J-150150D01*
G01*
X26346800Y-87445850D01*
G75*
G02*
X26196650Y-87596000I-150150J0D01*
G01*
X24196950Y-87596000D01*
G75*
G02*
X24046800Y-87445850I0J150150D01*
G01*
X24046800Y-87396150D01*
G75*
G02*
X24196950Y-87246000I150150J0D01*
G01*
G37*
G36*
G01*
X24196950Y-89696000D02*
X26196650Y-89696000D01*
G75*
G02*
X26346800Y-89846150I0J-150150D01*
G01*
X26346800Y-89895850D01*
G75*
G02*
X26196650Y-90046000I-150150J0D01*
G01*
X24196950Y-90046000D01*
G75*
G02*
X24046800Y-89895850I0J150150D01*
G01*
X24046800Y-89846150D01*
G75*
G02*
X24196950Y-89696000I150150J0D01*
G01*
G37*
G36*
G01*
X27096800Y-88146150D02*
X27096800Y-89145850D01*
G75*
G02*
X26946650Y-89296000I-150150J0D01*
G01*
X26896950Y-89296000D01*
G75*
G02*
X26746800Y-89145850I0J150150D01*
G01*
X26746800Y-88146150D01*
G75*
G02*
X26896950Y-87996000I150150J0D01*
G01*
X26946650Y-87996000D01*
G75*
G02*
X27096800Y-88146150I0J-150150D01*
G01*
G37*
G36*
G01*
X23646800Y-88146150D02*
X23646800Y-89145850D01*
G75*
G02*
X23496650Y-89296000I-150150J0D01*
G01*
X23446950Y-89296000D01*
G75*
G02*
X23296800Y-89145850I0J150150D01*
G01*
X23296800Y-88146150D01*
G75*
G02*
X23446950Y-87996000I150150J0D01*
G01*
X23496650Y-87996000D01*
G75*
G02*
X23646800Y-88146150I0J-150150D01*
G01*
G37*
X25871800Y-89071000D03*
X25871800Y-88221000D03*
X24521800Y-88221000D03*
X24521800Y-89071000D03*
D11*
X7353520Y-87414120D03*
X7353520Y-80114120D03*
X5143520Y-80114120D03*
X5143520Y-87414120D03*
D12*
X8003520Y-81514120D03*
X8003520Y-83014120D03*
X8003520Y-86014120D03*
D13*
X22833200Y-61704400D03*
X22833200Y-60604400D03*
X22833200Y-59504400D03*
X25833200Y-61704400D03*
X25833200Y-60604400D03*
X25833200Y-59504400D03*
D14*
X2915840Y-60537960D03*
X2915840Y-66837960D03*
X6715840Y-60537960D03*
X6715840Y-66837960D03*
X2966640Y-40563400D03*
X2966640Y-46863400D03*
X6766640Y-40563400D03*
X6766640Y-46863400D03*
X2961560Y-20472000D03*
X2961560Y-26772000D03*
X6761560Y-20472000D03*
X6761560Y-26772000D03*
D13*
X37720400Y-38930400D03*
X37720400Y-40030400D03*
X37720400Y-41130400D03*
X34720400Y-38930400D03*
X34720400Y-40030400D03*
X34720400Y-41130400D03*
X27202000Y-41892400D03*
X27202000Y-40792400D03*
X27202000Y-39692400D03*
X30202000Y-41892400D03*
X30202000Y-40792400D03*
X30202000Y-39692400D03*
X25884000Y-45788400D03*
X25884000Y-46888400D03*
X25884000Y-47988400D03*
X22884000Y-45788400D03*
X22884000Y-46888400D03*
X22884000Y-47988400D03*
X19734400Y-54846400D03*
X19734400Y-53746400D03*
X19734400Y-52646400D03*
X22734400Y-54846400D03*
X22734400Y-53746400D03*
X22734400Y-52646400D03*
X30252800Y-65549600D03*
X30252800Y-66649600D03*
X30252800Y-67749600D03*
X27252800Y-65549600D03*
X27252800Y-66649600D03*
X27252800Y-67749600D03*
X34720400Y-68410000D03*
X34720400Y-67310000D03*
X34720400Y-66210000D03*
X37720400Y-68410000D03*
X37720400Y-67310000D03*
X37720400Y-66210000D03*
X45238800Y-65600400D03*
X45238800Y-66700400D03*
X45238800Y-67800400D03*
X42238800Y-65600400D03*
X42238800Y-66700400D03*
X42238800Y-67800400D03*
X46607600Y-61602800D03*
X46607600Y-60502800D03*
X46607600Y-59402800D03*
X49607600Y-61602800D03*
X49607600Y-60502800D03*
X49607600Y-59402800D03*
X52706400Y-52595600D03*
X52706400Y-53695600D03*
X52706400Y-54795600D03*
X49706400Y-52595600D03*
X49706400Y-53695600D03*
X49706400Y-54795600D03*
X46556800Y-47988400D03*
X46556800Y-46888400D03*
X46556800Y-45788400D03*
X49556800Y-47988400D03*
X49556800Y-46888400D03*
X49556800Y-45788400D03*
X45188000Y-39590800D03*
X45188000Y-40690800D03*
X45188000Y-41790800D03*
X42188000Y-39590800D03*
X42188000Y-40690800D03*
X42188000Y-41790800D03*
M02*
