M48
; DRILL file {KiCad (5.1.9)-1} date 01/16/21 15:24:33
; FORMAT={-:-/ absolute / inch / decimal}
; #@! TF.CreationDate,2021-01-16T15:24:33-08:00
; #@! TF.GenerationSoftware,Kicad,Pcbnew,(5.1.9)-1
; #@! TF.FileFunction,Plated,1,4,PTH
FMAT,2
INCH
T1C0.0080
T2C0.0118
T3C0.0157
T4C0.0197
T5C0.0295
T6C0.0394
T7C0.0402
T8C0.1181
%
G90
G05
T1
X2.1622Y-2.8608
X2.1622Y-2.912
X2.1622Y-2.9632
X2.1622Y-3.0143
X2.1622Y-3.0655
X2.1622Y-3.1167
X2.1622Y-3.1679
X2.1622Y-3.2191
X2.2133Y-2.8608
X2.2133Y-2.912
X2.2133Y-2.9632
X2.2133Y-3.0143
X2.2133Y-3.0655
X2.2133Y-3.1167
X2.2133Y-3.1679
X2.2133Y-3.2191
X2.2645Y-2.8608
X2.2645Y-2.912
X2.2645Y-2.9632
X2.2645Y-3.0143
X2.2645Y-3.0655
X2.2645Y-3.1167
X2.2645Y-3.1679
X2.2645Y-3.2191
T2
X0.7395Y-2.7695
X0.7395Y-2.8089
X0.7395Y-2.8483
X0.7395Y-2.8876
X0.7395Y-2.927
X0.7789Y-2.7695
X0.7789Y-2.8089
X0.7789Y-2.8483
X0.7789Y-2.8876
X0.7789Y-2.927
X0.8183Y-2.7695
X0.8183Y-2.8089
X0.8183Y-2.8483
X0.8183Y-2.8876
X0.8183Y-2.927
X0.8576Y-2.7695
X0.8576Y-2.8089
X0.8576Y-2.8483
X0.8576Y-2.8876
X0.8576Y-2.927
X0.897Y-2.7695
X0.897Y-2.8089
X0.897Y-2.8483
X0.897Y-2.8876
X0.897Y-2.927
T3
X0.0236Y-3.7067
X0.0394Y-3.3091
X0.0453Y-2.0039
X0.0472Y-1.9469
X0.0591Y-1.7359
X0.0642Y-0.3362
X0.0709Y-3.8031
X0.0846Y-0.9409
X0.0906Y-3.3425
X0.0963Y-1.62
X0.0965Y-0.9882
X0.0965Y-1.6693
X0.1122Y-0.563
X0.1142Y-0.8189
X0.1201Y-3.7913
X0.128Y-1.0256
X0.128Y-1.2933
X0.128Y-2.6043
X0.1299Y-3.1988
X0.1427Y-3.0688
X0.1468Y-0.7986
X0.1495Y-0.5656
X0.1496Y-1.3799
X0.1634Y-1.9273
X0.1697Y-1.4328
X0.1713Y-3.1492
X0.1748Y-3.0032
X0.1791Y-2.3091
X0.1873Y-2.8311
X0.1978Y-1.5
X0.1999Y-2.8642
X0.2053Y-0.7
X0.21Y-3.0972
X0.2277Y-2.5801
X0.2293Y-1.7501
X0.248Y-3.7953
X0.252Y-1.1476
X0.2598Y-2.374
X0.2604Y-0.734
X0.2697Y-0.3051
X0.2746Y-2.1418
X0.2785Y-1.7573
X0.2874Y-2.2283
X0.2889Y-2.8597
X0.2918Y-1.3806
X0.2933Y-3.3996
X0.3046Y-1.4188
X0.3219Y-2.0423
X0.3248Y-2.5335
X0.3268Y-2.4272
X0.3287Y-2.7343
X0.3406Y-3.5768
X0.3426Y-3.1097
X0.3461Y-3.0254
X0.3644Y-3.1966
X0.3669Y-3.0839
X0.3957Y-3.0632
X0.4075Y-3.3228
X0.4266Y-3.3526
X0.4272Y-2.1011
X0.4356Y-2.813
X0.4429Y-2.6398
X0.4449Y-3.047
X0.4579Y-2.9452
X0.4664Y-2.9904
X0.4695Y-3.3455
X0.502Y-2.7165
X0.504Y-3.4375
X0.5059Y-2.874
X0.5098Y-2.6378
X0.5315Y-2.5866
X0.533Y-2.3196
X0.5423Y-2.2608
X0.5433Y-2.9941
X0.5437Y-2.9114
X0.5472Y-0.502
X0.5548Y-2.8778
X0.5551Y-2.8268
X0.559Y-3.1877
X0.563Y-0.3642
X0.5669Y-2.1398
X0.5732Y-0.7975
X0.5768Y-0.5827
X0.5825Y-0.64
X0.5825Y-0.7187
X0.5827Y-0.8878
X0.5858Y-1.1058
X0.5866Y-2.7559
X0.5944Y-3.0982
X0.6024Y-2.9331
X0.6063Y-3.4646
X0.608Y-1.0757
X0.6142Y-1.6831
X0.622Y-1.1519
X0.6227Y-2.3065
X0.624Y-3.2008
X0.625Y-3.2835
X0.629Y-2.4984
X0.6299Y-1.7244
X0.6319Y-2.1398
X0.6366Y-2.6708
X0.6378Y-2.378
X0.6417Y-2.439
X0.6417Y-1.2697
X0.6437Y-1.9528
X0.6457Y-1.9075
X0.6476Y-1.4626
X0.6526Y-1.1283
X0.6555Y-2.2067
X0.6612Y-0.64
X0.6612Y-0.7187
X0.6654Y-2.998
X0.6752Y-1.5748
X0.6984Y-0.4738
X0.6989Y-2.2402
X0.7126Y-2.4547
X0.7185Y-1.5669
X0.7201Y-2.6379
X0.7224Y-1.4469
X0.7224Y-2.1053
X0.723Y-0.1965
X0.723Y-0.2465
X0.7264Y-1.7539
X0.7303Y-2.3406
X0.7382Y-2.2343
X0.7382Y-2.3819
X0.74Y-0.64
X0.74Y-0.7187
X0.7464Y-1.2788
X0.7495Y-3.201
X0.7539Y-1.1614
X0.7579Y-2.5728
X0.758Y-1.947
X0.7608Y-1.681
X0.7618Y-2.3189
X0.7717Y-1.4783
X0.773Y-0.1965
X0.773Y-0.2465
X0.7736Y-0.6161
X0.7792Y-3.0857
X0.7912Y-3.119
X0.7933Y-1.0906
X0.7933Y-1.2874
X0.7953Y-2.1634
X0.7953Y-2.5256
X0.8003Y-2.591
X0.813Y-0.7874
X0.813Y-1.6476
X0.813Y-0.5413
X0.8175Y-0.4215
X0.8189Y-1.7913
X0.823Y-0.1965
X0.823Y-0.2465
X0.8241Y-1.1445
X0.8268Y-3.0945
X0.8324Y-2.5759
X0.8377Y-3.2637
X0.8386Y-2.5177
X0.8397Y-1.5067
X0.8563Y-2.3228
X0.8618Y-3.4087
X0.8622Y-1.2835
X0.8622Y-3.0826
X0.8666Y-2.5418
X0.8701Y-0.498
X0.8716Y-3.7176
X0.8719Y-3.3174
X0.875Y-1.1435
X0.877Y-0.6405
X0.877Y-0.7192
X0.8799Y-1.5039
X0.8906Y-1.255
X0.8917Y-2.2992
X0.8937Y-1.752
X0.894Y-0.4
X0.9044Y-1.4541
X0.9114Y-2.3819
X0.9115Y-3.0845
X0.9168Y-1.154
X0.9193Y-2.0433
X0.926Y-1.0934
X0.9311Y-2.1382
X0.9311Y-1.5177
X0.9317Y-3.0554
X0.9331Y-2.3189
X0.9508Y-2.5906
X0.951Y-2.5462
X0.9518Y-0.6794
X0.9557Y-0.6405
X0.9557Y-0.7192
X0.956Y-1.3879
X0.9626Y-3.0289
X0.963Y-2.6319
X0.9645Y-3.0761
X0.9665Y-2.9935
X0.9815Y-1.0901
X0.9832Y-1.4577
X0.9882Y-2.122
X1.0045Y-3.0765
X1.0138Y-0.3543
X1.0177Y-2.0492
X1.0187Y-2.3573
X1.019Y-3.221
X1.0238Y-0.8679
X1.0332Y-2.5075
X1.034Y-0.1995
X1.034Y-0.2495
X1.0345Y-0.6405
X1.0345Y-0.7192
X1.0357Y-0.9048
X1.0392Y-3.0944
X1.0394Y-1.4567
X1.0539Y-1.0891
X1.0748Y-3.0831
X1.0767Y-0.9966
X1.0778Y-3.2436
X1.0789Y-3.3359
X1.0825Y-0.8674
X1.0835Y-0.595
X1.084Y-0.1995
X1.084Y-0.2495
X1.0857Y-0.696
X1.089Y-2.6339
X1.0906Y-2.8012
X1.0917Y-2.7372
X1.0996Y-2.9022
X1.0996Y-2.9398
X1.0997Y-2.4012
X1.0997Y-2.602
X1.1062Y-1.5868
X1.1121Y-2.5387
X1.1126Y-2.4548
X1.1161Y-1.3228
X1.1181Y-1.1496
X1.1202Y-2.5042
X1.1219Y-2.2484
X1.123Y-0.498
X1.126Y-2.1831
X1.1277Y-2.8806
X1.128Y-1.5551
X1.133Y-0.7125
X1.133Y-0.7912
X1.133Y-0.87
X1.134Y-0.1995
X1.134Y-0.2495
X1.1477Y-1.169
X1.1496Y-1.5866
X1.1525Y-2.8553
X1.1535Y-1.8858
X1.1555Y-1.0453
X1.1555Y-2.0138
X1.1634Y-3.4665
X1.1636Y-1.6397
X1.1644Y-2.399
X1.1644Y-2.5904
X1.1663Y-2.1116
X1.1673Y-2.689
X1.17Y-0.4072
X1.1801Y-2.1634
X1.1805Y-3.1293
X1.1811Y-2.7834
X1.1827Y-1.45
X1.187Y-1.5738
X1.1943Y-3.0746
X1.2028Y-1.7402
X1.2117Y-0.7125
X1.2117Y-0.7912
X1.2117Y-0.87
X1.2146Y-2.8622
X1.2303Y-1.5315
X1.2323Y-3.8346
X1.2362Y-3.0787
X1.2362Y-3.3287
X1.248Y-2.7522
X1.2484Y-2.9608
X1.2549Y-1.8509
X1.2598Y-3.7461
X1.2756Y-2.4902
X1.2776Y-1.6713
X1.2835Y-1.1555
X1.2874Y-0.9272
X1.2894Y-1.5512
X1.2905Y-0.7125
X1.2905Y-0.7912
X1.2905Y-0.87
X1.291Y-1.3917
X1.2999Y-3.2759
X1.3038Y-2.2368
X1.3121Y-2.4822
X1.313Y-1.3192
X1.313Y-3.3327
X1.3189Y-3.6555
X1.3248Y-1.4843
X1.3248Y-2.6929
X1.325Y-0.5255
X1.3307Y-2.7795
X1.3307Y-2.8524
X1.344Y-1.4165
X1.3455Y-1.6192
X1.3695Y-0.634
X1.376Y-0.7756
X1.3858Y-1.5827
X1.3945Y-2.4743
X1.3973Y-2.4389
X1.3986Y-1.9114
X1.4094Y-2.9921
X1.4101Y-2.626
X1.4291Y-2.4685
X1.439Y-3.7343
X1.4409Y-2.7264
X1.4485Y-2.8215
X1.4485Y-2.8845
X1.4485Y-2.9475
X1.4485Y-3.0105
X1.4485Y-3.0735
X1.4485Y-3.1365
X1.4485Y-3.1995
X1.4485Y-3.2624
X1.4508Y-1.3192
X1.4646Y-1.3893
X1.4803Y-2.1033
X1.4866Y-0.6458
X1.4882Y-0.9193
X1.4961Y-2.687
X1.498Y-1.747
X1.5039Y-1.2578
X1.5115Y-2.8215
X1.5115Y-2.8845
X1.5115Y-2.9475
X1.5115Y-3.0105
X1.5115Y-3.0735
X1.5115Y-3.1365
X1.5115Y-3.1995
X1.5115Y-3.2624
X1.5551Y-1.4803
X1.5591Y-2.5236
X1.5598Y-2.57
X1.565Y-2.624
X1.5745Y-2.8215
X1.5745Y-2.8845
X1.5745Y-2.9475
X1.5745Y-3.0105
X1.5745Y-3.0735
X1.5745Y-3.1365
X1.5745Y-3.1995
X1.5745Y-3.2624
X1.5748Y-1.8189
X1.6004Y-1.9508
X1.6043Y-1.3268
X1.6299Y-1.4016
X1.6305Y-2.444
X1.6333Y-1.5986
X1.6339Y-1.874
X1.6375Y-2.8215
X1.6375Y-2.8845
X1.6375Y-2.9475
X1.6375Y-3.0105
X1.6375Y-3.0735
X1.6375Y-3.1365
X1.6375Y-3.1995
X1.6375Y-3.2624
X1.6378Y-1.6772
X1.64Y-1.6354
X1.645Y-2.6929
X1.6575Y-1.3159
X1.6634Y-1.9173
X1.6776Y-1.9772
X1.685Y-1.2205
X1.685Y-2.1732
X1.6879Y-2.3222
X1.6945Y-0.367
X1.6961Y-2.1128
X1.6985Y-0.169
X1.7047Y-1.3839
X1.7067Y-1.5138
X1.7126Y-2.5236
X1.7136Y-2.2231
X1.722Y-0.235
X1.7224Y-3.7323
X1.7244Y-2.6339
X1.7306Y-1.6874
X1.752Y-1.0098
X1.7677Y-3.2047
X1.7677Y-3.4055
X1.7715Y-0.3645
X1.7717Y-1.1654
X1.7717Y-1.2441
X1.7725Y-0.169
X1.7735Y-2.87
X1.7795Y-1.9823
X1.7894Y-1.3898
X1.7943Y-2.1328
X1.7943Y-2.485
X1.7965Y-0.446
X1.7982Y-1.3002
X1.7982Y-2.2168
X1.8053Y-1.562
X1.811Y-3.1929
X1.812Y-1.9291
X1.815Y-2.7933
X1.8189Y-2.7402
X1.8209Y-3.4035
X1.8209Y-2.606
X1.824Y-3.3288
X1.8248Y-3.1201
X1.8268Y-1.2441
X1.8268Y-3.0768
X1.8287Y-0.9213
X1.8346Y-1.1654
X1.8356Y-2.6404
X1.8394Y-0.615
X1.8425Y-1.3819
X1.848Y-0.367
X1.849Y-0.1695
X1.8543Y-1.7795
X1.8661Y-1.0394
X1.8811Y-1.3345
X1.8819Y-2.4252
X1.882Y-0.4645
X1.8885Y-0.3055
X1.9035Y-2.1339
X1.9125Y-2.9545
X1.9134Y-3.4862
X1.9135Y-2.913
X1.9144Y-3.1378
X1.9173Y-1.2697
X1.9175Y-0.4949
X1.9232Y-2.7244
X1.9311Y-1.3957
X1.9346Y-2.5439
X1.9363Y-3.0675
X1.9409Y-1.5236
X1.9488Y-3.311
X1.9498Y-3.4048
X1.9507Y-0.6783
X1.9524Y-0.6108
X1.9571Y-0.1011
X1.9636Y-2.2
X1.9667Y-2.9063
X1.9685Y-1.2717
X1.9714Y-3.1432
X1.9724Y-3.8071
X1.9744Y-0.2084
X1.9835Y-3.1078
X1.9862Y-1.3248
X1.9882Y-1.8701
X1.9901Y-2.3244
X2.0Y-2.9567
X2.0Y-3.3469
X2.0025Y-3.2595
X2.0076Y-3.7026
X2.0118Y-3.628
X2.0157Y-1.1654
X2.0157Y-1.2441
X2.0159Y-3.0549
X2.0239Y-2.7741
X2.0295Y-0.6783
X2.0295Y-0.8116
X2.0308Y-2.417
X2.0311Y-0.6108
X2.0428Y-3.1237
X2.0552Y-3.2443
X2.061Y-1.8189
X2.063Y-3.4488
X2.0728Y-3.3681
X2.0758Y-0.2598
X2.076Y-0.4195
X2.0787Y-1.1654
X2.0787Y-1.2441
X2.0984Y-3.248
X2.1054Y-1.921
X2.1082Y-0.6783
X2.1083Y-0.7452
X2.1083Y-0.8116
X2.1099Y-0.6108
X2.1102Y-2.1498
X2.1201Y-0.1161
X2.1201Y-3.4469
X2.1418Y-2.4264
X2.1425Y-2.7628
X2.1554Y-1.1975
X2.157Y-1.1341
X2.1725Y-2.316
X2.2192Y-1.1333
X2.2195Y-2.0758
X2.2214Y-1.1983
X2.2391Y-2.6363
X2.252Y-3.3307
X2.252Y-3.4882
X2.2618Y-0.6166
X2.2618Y-0.6757
X2.2618Y-0.7347
X2.2618Y-0.7938
X2.2618Y-0.8528
X2.2618Y-3.8051
X2.2638Y-3.6457
X2.2638Y-3.7047
X2.2754Y-2.461
X2.2776Y-0.0945
X2.2995Y-2.1975
X2.3038Y-1.1333
X2.3044Y-2.6776
X2.3046Y-1.1991
X2.305Y-2.547
X2.3209Y-0.6166
X2.3209Y-0.6757
X2.3209Y-0.7347
X2.3209Y-0.7938
X2.3209Y-0.8528
X2.322Y-2.434
X2.339Y-0.3635
X2.339Y-0.4422
X2.3465Y-3.4016
X2.3517Y-2.6455
X2.3799Y-0.6166
X2.3799Y-0.6757
X2.3799Y-0.7347
X2.3799Y-0.7938
X2.3799Y-0.8528
X2.3826Y-3.0626
X2.389Y-2.8972
X2.3976Y-3.3307
X2.413Y-3.1993
X2.4134Y-3.021
X2.4177Y-0.3635
X2.4177Y-0.4422
X2.435Y-3.3386
X2.439Y-0.6166
X2.439Y-0.6757
X2.439Y-0.7347
X2.439Y-0.7938
X2.439Y-0.8528
X2.4466Y-1.1975
X2.4482Y-1.1357
X2.4487Y-3.2998
X2.4532Y-2.9124
X2.4587Y-2.7244
X2.4587Y-3.2638
X2.4774Y-2.8578
X2.4774Y-3.0727
X2.4774Y-3.132
X2.4965Y-0.3635
X2.4965Y-0.4422
X2.498Y-0.6166
X2.498Y-0.6757
X2.498Y-0.7347
X2.498Y-0.7938
X2.498Y-0.8528
X2.5089Y-2.1417
X2.5296Y-1.1349
X2.5296Y-1.1951
X2.5354Y-3.4567
X2.563Y-3.2185
X2.5766Y-1.7488
X2.5846Y-3.0728
X2.5905Y-2.5925
X2.5905Y-2.6712
X2.5905Y-2.75
X2.5906Y-1.7835
X2.5906Y-2.8209
X2.5906Y-2.8681
X2.5964Y-1.1341
X2.598Y-1.1991
X2.6122Y-3.2756
X2.6122Y-3.6772
T4
X1.9518Y-2.2958
X2.0187Y-2.3775
X2.1862Y-2.5291
X2.1928Y-2.1898
X2.2058Y-2.4398
X2.2424Y-2.681
X2.3866Y-2.5236
X2.5118Y-2.7756
T5
X2.487Y-2.25
X2.487Y-2.3287
X2.487Y-2.574
X2.487Y-2.6527
T6
X0.111Y-0.1299
X0.111Y-0.2299
X0.211Y-0.1299
X0.211Y-0.2299
X0.311Y-0.1299
X0.311Y-0.2299
X0.3761Y-0.4322
X0.3761Y-0.5322
X0.3761Y-0.6322
X0.3761Y-0.7322
X0.3761Y-0.8322
X0.3761Y-0.9322
X0.3761Y-1.0322
X0.3761Y-1.1322
X0.3761Y-1.2322
X0.3761Y-1.3322
X0.3761Y-1.4322
X0.3761Y-1.5322
X0.3761Y-1.6322
X0.3761Y-1.7322
X0.3761Y-1.8322
X0.3761Y-1.9322
X0.3761Y-2.0322
X0.3761Y-2.1322
X0.3761Y-2.2322
X0.3761Y-2.3322
X0.4761Y-0.4322
X0.4761Y-0.5322
X0.4761Y-0.6322
X0.4761Y-0.7322
X0.4761Y-0.8322
X0.4761Y-0.9322
X0.4761Y-1.0322
X0.4761Y-1.1322
X0.4761Y-1.2322
X0.4761Y-1.3322
X0.4761Y-1.4322
X0.4761Y-1.5322
X0.4761Y-1.6322
X0.4761Y-1.7322
X0.4761Y-1.8322
X0.4761Y-1.9322
X0.4761Y-2.0322
X0.4761Y-2.1322
X0.4761Y-2.2322
X0.4761Y-2.3322
X0.6701Y-0.9547
X0.7701Y-0.9547
X0.7894Y-3.4803
X0.8701Y-0.9547
X0.8894Y-3.4803
X0.9701Y-0.9547
X0.9894Y-3.4803
X1.0894Y-3.4803
X2.0181Y-1.7638
X2.1181Y-1.7638
T7
X1.5276Y-3.6457
X1.6276Y-3.6457
X1.7276Y-3.6457
X1.8276Y-3.6457
T8
X0.5315Y-0.1969
X0.5315Y-3.6647
X2.4378Y-0.1969
X2.4378Y-3.6647
T6
G00X2.2362Y-1.4134
M15
G01X2.2205Y-1.4134
M16
G05
G00X2.2362Y-1.5945
M15
G01X2.2205Y-1.5945
M16
G05
G00X2.2384Y-1.9718
M15
G01X2.2384Y-1.8931
M16
G05
G00X2.3959Y-1.7474
M15
G01X2.3171Y-1.7474
M16
G05
G00X2.4746Y-1.9718
M15
G01X2.4746Y-1.8931
M16
G05
G00X2.5315Y-1.3917
M15
G01X2.5157Y-1.3917
M16
G05
G00X2.5315Y-1.6161
M15
G01X2.5157Y-1.6161
M16
G05
T0
M30
