G04 #@! TF.GenerationSoftware,KiCad,Pcbnew,(5.1.7)-1*
G04 #@! TF.CreationDate,2020-11-22T20:52:48-08:00*
G04 #@! TF.ProjectId,SJ-201-R4,534a2d32-3031-42d5-9234-2e6b69636164,rev?*
G04 #@! TF.SameCoordinates,Original*
G04 #@! TF.FileFunction,Legend,Top*
G04 #@! TF.FilePolarity,Positive*
%FSLAX46Y46*%
G04 Gerber Fmt 4.6, Leading zero omitted, Abs format (unit mm)*
G04 Created by KiCad (PCBNEW (5.1.7)-1) date 2020-11-22 20:52:48*
%MOMM*%
%LPD*%
G01*
G04 APERTURE LIST*
%ADD10C,0.300000*%
%ADD11C,0.150000*%
%ADD12C,0.120000*%
%ADD13C,0.250000*%
%ADD14C,0.152400*%
%ADD15C,0.050000*%
%ADD16C,0.080000*%
G04 APERTURE END LIST*
D10*
X66236042Y-63741228D02*
X66236042Y-62598371D01*
X66807471Y-63169800D02*
X65664614Y-63169800D01*
X65595571Y-55326742D02*
X66738428Y-55326742D01*
X66167000Y-55898171D02*
X66167000Y-54755314D01*
X19534371Y-86086914D02*
X19534371Y-86801200D01*
X20248657Y-86872628D01*
X20177228Y-86801200D01*
X20105800Y-86658342D01*
X20105800Y-86301200D01*
X20177228Y-86158342D01*
X20248657Y-86086914D01*
X20391514Y-86015485D01*
X20748657Y-86015485D01*
X20891514Y-86086914D01*
X20962942Y-86158342D01*
X21034371Y-86301200D01*
X21034371Y-86658342D01*
X20962942Y-86801200D01*
X20891514Y-86872628D01*
X19534371Y-85586914D02*
X21034371Y-85086914D01*
X19534371Y-84586914D01*
X23584371Y-87122628D02*
X22084371Y-87122628D01*
X22084371Y-86765485D01*
X22155800Y-86551200D01*
X22298657Y-86408342D01*
X22441514Y-86336914D01*
X22727228Y-86265485D01*
X22941514Y-86265485D01*
X23227228Y-86336914D01*
X23370085Y-86408342D01*
X23512942Y-86551200D01*
X23584371Y-86765485D01*
X23584371Y-87122628D01*
X23012942Y-85622628D02*
X23012942Y-84479771D01*
X23584371Y-85051200D02*
X22441514Y-85051200D01*
X26134371Y-87122628D02*
X24634371Y-87122628D01*
X24634371Y-86765485D01*
X24705800Y-86551200D01*
X24848657Y-86408342D01*
X24991514Y-86336914D01*
X25277228Y-86265485D01*
X25491514Y-86265485D01*
X25777228Y-86336914D01*
X25920085Y-86408342D01*
X26062942Y-86551200D01*
X26134371Y-86765485D01*
X26134371Y-87122628D01*
X25562942Y-85622628D02*
X25562942Y-84479771D01*
X27255800Y-86944057D02*
X27184371Y-87086914D01*
X27184371Y-87301200D01*
X27255800Y-87515485D01*
X27398657Y-87658342D01*
X27541514Y-87729771D01*
X27827228Y-87801200D01*
X28041514Y-87801200D01*
X28327228Y-87729771D01*
X28470085Y-87658342D01*
X28612942Y-87515485D01*
X28684371Y-87301200D01*
X28684371Y-87158342D01*
X28612942Y-86944057D01*
X28541514Y-86872628D01*
X28041514Y-86872628D01*
X28041514Y-87158342D01*
X28684371Y-86229771D02*
X27184371Y-86229771D01*
X28684371Y-85372628D01*
X27184371Y-85372628D01*
X28684371Y-84658342D02*
X27184371Y-84658342D01*
X27184371Y-84301200D01*
X27255800Y-84086914D01*
X27398657Y-83944057D01*
X27541514Y-83872628D01*
X27827228Y-83801200D01*
X28041514Y-83801200D01*
X28327228Y-83872628D01*
X28470085Y-83944057D01*
X28612942Y-84086914D01*
X28684371Y-84301200D01*
X28684371Y-84658342D01*
D11*
X66609220Y-58683756D02*
X66609220Y-59159946D01*
X65609220Y-59159946D01*
X66561601Y-57969470D02*
X66609220Y-58064708D01*
X66609220Y-58255184D01*
X66561601Y-58350422D01*
X66466363Y-58398041D01*
X66085411Y-58398041D01*
X65990173Y-58350422D01*
X65942554Y-58255184D01*
X65942554Y-58064708D01*
X65990173Y-57969470D01*
X66085411Y-57921851D01*
X66180649Y-57921851D01*
X66275887Y-58398041D01*
X65942554Y-57636137D02*
X65942554Y-57255184D01*
X66609220Y-57493280D02*
X65752078Y-57493280D01*
X65656840Y-57445660D01*
X65609220Y-57350422D01*
X65609220Y-57255184D01*
X65942554Y-57064708D02*
X65942554Y-56683756D01*
X65609220Y-56921851D02*
X66466363Y-56921851D01*
X66561601Y-56874232D01*
X66609220Y-56778994D01*
X66609220Y-56683756D01*
X66581280Y-67324147D02*
X66105090Y-67657480D01*
X66581280Y-67895576D02*
X65581280Y-67895576D01*
X65581280Y-67514623D01*
X65628900Y-67419385D01*
X65676519Y-67371766D01*
X65771757Y-67324147D01*
X65914614Y-67324147D01*
X66009852Y-67371766D01*
X66057471Y-67419385D01*
X66105090Y-67514623D01*
X66105090Y-67895576D01*
X66581280Y-66895576D02*
X65914614Y-66895576D01*
X65581280Y-66895576D02*
X65628900Y-66943195D01*
X65676519Y-66895576D01*
X65628900Y-66847957D01*
X65581280Y-66895576D01*
X65676519Y-66895576D01*
X65914614Y-65990814D02*
X66724138Y-65990814D01*
X66819376Y-66038433D01*
X66866995Y-66086052D01*
X66914614Y-66181290D01*
X66914614Y-66324147D01*
X66866995Y-66419385D01*
X66533661Y-65990814D02*
X66581280Y-66086052D01*
X66581280Y-66276528D01*
X66533661Y-66371766D01*
X66486042Y-66419385D01*
X66390804Y-66467004D01*
X66105090Y-66467004D01*
X66009852Y-66419385D01*
X65962233Y-66371766D01*
X65914614Y-66276528D01*
X65914614Y-66086052D01*
X65962233Y-65990814D01*
X66581280Y-65514623D02*
X65581280Y-65514623D01*
X66581280Y-65086052D02*
X66057471Y-65086052D01*
X65962233Y-65133671D01*
X65914614Y-65228909D01*
X65914614Y-65371766D01*
X65962233Y-65467004D01*
X66009852Y-65514623D01*
X65914614Y-64752719D02*
X65914614Y-64371766D01*
X65581280Y-64609861D02*
X66438423Y-64609861D01*
X66533661Y-64562242D01*
X66581280Y-64467004D01*
X66581280Y-64371766D01*
X48354740Y-96435015D02*
X47354740Y-96435015D01*
X47830931Y-96435015D02*
X47830931Y-95863586D01*
X48354740Y-95863586D02*
X47354740Y-95863586D01*
X48307121Y-95006443D02*
X48354740Y-95101681D01*
X48354740Y-95292158D01*
X48307121Y-95387396D01*
X48211883Y-95435015D01*
X47830931Y-95435015D01*
X47735693Y-95387396D01*
X47688074Y-95292158D01*
X47688074Y-95101681D01*
X47735693Y-95006443D01*
X47830931Y-94958824D01*
X47926169Y-94958824D01*
X48021407Y-95435015D01*
X48354740Y-94101681D02*
X47830931Y-94101681D01*
X47735693Y-94149300D01*
X47688074Y-94244539D01*
X47688074Y-94435015D01*
X47735693Y-94530253D01*
X48307121Y-94101681D02*
X48354740Y-94196920D01*
X48354740Y-94435015D01*
X48307121Y-94530253D01*
X48211883Y-94577872D01*
X48116645Y-94577872D01*
X48021407Y-94530253D01*
X47973788Y-94435015D01*
X47973788Y-94196920D01*
X47926169Y-94101681D01*
X48354740Y-93196920D02*
X47354740Y-93196920D01*
X48307121Y-93196920D02*
X48354740Y-93292158D01*
X48354740Y-93482634D01*
X48307121Y-93577872D01*
X48259502Y-93625491D01*
X48164264Y-93673110D01*
X47878550Y-93673110D01*
X47783312Y-93625491D01*
X47735693Y-93577872D01*
X47688074Y-93482634D01*
X47688074Y-93292158D01*
X47735693Y-93196920D01*
X47688074Y-92720729D02*
X48688074Y-92720729D01*
X47735693Y-92720729D02*
X47688074Y-92625491D01*
X47688074Y-92435015D01*
X47735693Y-92339777D01*
X47783312Y-92292158D01*
X47878550Y-92244539D01*
X48164264Y-92244539D01*
X48259502Y-92292158D01*
X48307121Y-92339777D01*
X48354740Y-92435015D01*
X48354740Y-92625491D01*
X48307121Y-92720729D01*
X48354740Y-91815967D02*
X47354740Y-91815967D01*
X48354740Y-91387396D02*
X47830931Y-91387396D01*
X47735693Y-91435015D01*
X47688074Y-91530253D01*
X47688074Y-91673110D01*
X47735693Y-91768348D01*
X47783312Y-91815967D01*
X48354740Y-90768348D02*
X48307121Y-90863586D01*
X48259502Y-90911205D01*
X48164264Y-90958824D01*
X47878550Y-90958824D01*
X47783312Y-90911205D01*
X47735693Y-90863586D01*
X47688074Y-90768348D01*
X47688074Y-90625491D01*
X47735693Y-90530253D01*
X47783312Y-90482634D01*
X47878550Y-90435015D01*
X48164264Y-90435015D01*
X48259502Y-90482634D01*
X48307121Y-90530253D01*
X48354740Y-90625491D01*
X48354740Y-90768348D01*
X47688074Y-90006443D02*
X48354740Y-90006443D01*
X47783312Y-90006443D02*
X47735693Y-89958824D01*
X47688074Y-89863586D01*
X47688074Y-89720729D01*
X47735693Y-89625491D01*
X47830931Y-89577872D01*
X48354740Y-89577872D01*
X48307121Y-88720729D02*
X48354740Y-88815967D01*
X48354740Y-89006443D01*
X48307121Y-89101681D01*
X48211883Y-89149300D01*
X47830931Y-89149300D01*
X47735693Y-89101681D01*
X47688074Y-89006443D01*
X47688074Y-88815967D01*
X47735693Y-88720729D01*
X47830931Y-88673110D01*
X47926169Y-88673110D01*
X48021407Y-89149300D01*
X49004740Y-93030253D02*
X49004740Y-92839777D01*
X49052360Y-92744539D01*
X49147598Y-92649300D01*
X49338074Y-92601681D01*
X49671407Y-92601681D01*
X49861883Y-92649300D01*
X49957121Y-92744539D01*
X50004740Y-92839777D01*
X50004740Y-93030253D01*
X49957121Y-93125491D01*
X49861883Y-93220729D01*
X49671407Y-93268348D01*
X49338074Y-93268348D01*
X49147598Y-93220729D01*
X49052360Y-93125491D01*
X49004740Y-93030253D01*
X49338074Y-91744539D02*
X50004740Y-91744539D01*
X49338074Y-92173110D02*
X49861883Y-92173110D01*
X49957121Y-92125491D01*
X50004740Y-92030253D01*
X50004740Y-91887396D01*
X49957121Y-91792158D01*
X49909502Y-91744539D01*
X49338074Y-91411205D02*
X49338074Y-91030253D01*
X49004740Y-91268348D02*
X49861883Y-91268348D01*
X49957121Y-91220729D01*
X50004740Y-91125491D01*
X50004740Y-91030253D01*
X15014200Y-49433097D02*
X14538010Y-49766430D01*
X15014200Y-50004525D02*
X14014200Y-50004525D01*
X14014200Y-49623573D01*
X14061820Y-49528335D01*
X14109439Y-49480716D01*
X14204677Y-49433097D01*
X14347534Y-49433097D01*
X14442772Y-49480716D01*
X14490391Y-49528335D01*
X14538010Y-49623573D01*
X14538010Y-50004525D01*
X15014200Y-48575954D02*
X14490391Y-48575954D01*
X14395153Y-48623573D01*
X14347534Y-48718811D01*
X14347534Y-48909287D01*
X14395153Y-49004525D01*
X14966581Y-48575954D02*
X15014200Y-48671192D01*
X15014200Y-48909287D01*
X14966581Y-49004525D01*
X14871343Y-49052144D01*
X14776105Y-49052144D01*
X14680867Y-49004525D01*
X14633248Y-48909287D01*
X14633248Y-48671192D01*
X14585629Y-48575954D01*
X14966581Y-48147382D02*
X15014200Y-48052144D01*
X15014200Y-47861668D01*
X14966581Y-47766430D01*
X14871343Y-47718811D01*
X14823724Y-47718811D01*
X14728486Y-47766430D01*
X14680867Y-47861668D01*
X14680867Y-48004525D01*
X14633248Y-48099763D01*
X14538010Y-48147382D01*
X14490391Y-48147382D01*
X14395153Y-48099763D01*
X14347534Y-48004525D01*
X14347534Y-47861668D01*
X14395153Y-47766430D01*
X14347534Y-47290240D02*
X15347534Y-47290240D01*
X14395153Y-47290240D02*
X14347534Y-47195001D01*
X14347534Y-47004525D01*
X14395153Y-46909287D01*
X14442772Y-46861668D01*
X14538010Y-46814049D01*
X14823724Y-46814049D01*
X14918962Y-46861668D01*
X14966581Y-46909287D01*
X15014200Y-47004525D01*
X15014200Y-47195001D01*
X14966581Y-47290240D01*
X15014200Y-46385478D02*
X14014200Y-46385478D01*
X14395153Y-46385478D02*
X14347534Y-46290240D01*
X14347534Y-46099763D01*
X14395153Y-46004525D01*
X14442772Y-45956906D01*
X14538010Y-45909287D01*
X14823724Y-45909287D01*
X14918962Y-45956906D01*
X14966581Y-46004525D01*
X15014200Y-46099763D01*
X15014200Y-46290240D01*
X14966581Y-46385478D01*
X14966581Y-45099763D02*
X15014200Y-45195001D01*
X15014200Y-45385478D01*
X14966581Y-45480716D01*
X14871343Y-45528335D01*
X14490391Y-45528335D01*
X14395153Y-45480716D01*
X14347534Y-45385478D01*
X14347534Y-45195001D01*
X14395153Y-45099763D01*
X14490391Y-45052144D01*
X14585629Y-45052144D01*
X14680867Y-45528335D01*
X15014200Y-44623573D02*
X14347534Y-44623573D01*
X14538010Y-44623573D02*
X14442772Y-44575954D01*
X14395153Y-44528335D01*
X14347534Y-44433097D01*
X14347534Y-44337859D01*
X15014200Y-44004525D02*
X14347534Y-44004525D01*
X14538010Y-44004525D02*
X14442772Y-43956906D01*
X14395153Y-43909287D01*
X14347534Y-43814049D01*
X14347534Y-43718811D01*
X14347534Y-43480716D02*
X15014200Y-43242620D01*
X14347534Y-43004525D02*
X15014200Y-43242620D01*
X15252296Y-43337859D01*
X15299915Y-43385478D01*
X15347534Y-43480716D01*
X15014200Y-41861668D02*
X14014200Y-41861668D01*
X14014200Y-41480716D01*
X14061820Y-41385478D01*
X14109439Y-41337859D01*
X14204677Y-41290240D01*
X14347534Y-41290240D01*
X14442772Y-41337859D01*
X14490391Y-41385478D01*
X14538010Y-41480716D01*
X14538010Y-41861668D01*
X15014200Y-40861668D02*
X14347534Y-40861668D01*
X14014200Y-40861668D02*
X14061820Y-40909287D01*
X14109439Y-40861668D01*
X14061820Y-40814049D01*
X14014200Y-40861668D01*
X14109439Y-40861668D01*
X14918962Y-39052144D02*
X14966581Y-39099763D01*
X15014200Y-39242620D01*
X15014200Y-39337859D01*
X14966581Y-39480716D01*
X14871343Y-39575954D01*
X14776105Y-39623573D01*
X14585629Y-39671192D01*
X14442772Y-39671192D01*
X14252296Y-39623573D01*
X14157058Y-39575954D01*
X14061820Y-39480716D01*
X14014200Y-39337859D01*
X14014200Y-39242620D01*
X14061820Y-39099763D01*
X14109439Y-39052144D01*
X15014200Y-38480716D02*
X14966581Y-38575954D01*
X14918962Y-38623573D01*
X14823724Y-38671192D01*
X14538010Y-38671192D01*
X14442772Y-38623573D01*
X14395153Y-38575954D01*
X14347534Y-38480716D01*
X14347534Y-38337859D01*
X14395153Y-38242620D01*
X14442772Y-38195001D01*
X14538010Y-38147382D01*
X14823724Y-38147382D01*
X14918962Y-38195001D01*
X14966581Y-38242620D01*
X15014200Y-38337859D01*
X15014200Y-38480716D01*
X14347534Y-37718811D02*
X15014200Y-37718811D01*
X14442772Y-37718811D02*
X14395153Y-37671192D01*
X14347534Y-37575954D01*
X14347534Y-37433097D01*
X14395153Y-37337859D01*
X14490391Y-37290240D01*
X15014200Y-37290240D01*
X14347534Y-36814049D02*
X15014200Y-36814049D01*
X14442772Y-36814049D02*
X14395153Y-36766430D01*
X14347534Y-36671192D01*
X14347534Y-36528335D01*
X14395153Y-36433097D01*
X14490391Y-36385478D01*
X15014200Y-36385478D01*
X14966581Y-35528335D02*
X15014200Y-35623573D01*
X15014200Y-35814049D01*
X14966581Y-35909287D01*
X14871343Y-35956906D01*
X14490391Y-35956906D01*
X14395153Y-35909287D01*
X14347534Y-35814049D01*
X14347534Y-35623573D01*
X14395153Y-35528335D01*
X14490391Y-35480716D01*
X14585629Y-35480716D01*
X14680867Y-35956906D01*
X14966581Y-34623573D02*
X15014200Y-34718811D01*
X15014200Y-34909287D01*
X14966581Y-35004525D01*
X14918962Y-35052144D01*
X14823724Y-35099763D01*
X14538010Y-35099763D01*
X14442772Y-35052144D01*
X14395153Y-35004525D01*
X14347534Y-34909287D01*
X14347534Y-34718811D01*
X14395153Y-34623573D01*
X14347534Y-34337859D02*
X14347534Y-33956906D01*
X14014200Y-34195001D02*
X14871343Y-34195001D01*
X14966581Y-34147382D01*
X15014200Y-34052144D01*
X15014200Y-33956906D01*
X15014200Y-33480716D02*
X14966581Y-33575954D01*
X14918962Y-33623573D01*
X14823724Y-33671192D01*
X14538010Y-33671192D01*
X14442772Y-33623573D01*
X14395153Y-33575954D01*
X14347534Y-33480716D01*
X14347534Y-33337859D01*
X14395153Y-33242620D01*
X14442772Y-33195001D01*
X14538010Y-33147382D01*
X14823724Y-33147382D01*
X14918962Y-33195001D01*
X14966581Y-33242620D01*
X15014200Y-33337859D01*
X15014200Y-33480716D01*
X15014200Y-32718811D02*
X14347534Y-32718811D01*
X14538010Y-32718811D02*
X14442772Y-32671192D01*
X14395153Y-32623573D01*
X14347534Y-32528335D01*
X14347534Y-32433097D01*
D12*
G04 #@! TO.C,Q1*
X45107980Y-34972720D02*
X45107980Y-36432720D01*
X41947980Y-34972720D02*
X41947980Y-37132720D01*
X41947980Y-34972720D02*
X42877980Y-34972720D01*
X45107980Y-34972720D02*
X44177980Y-34972720D01*
G04 #@! TO.C,J7*
X61798200Y-40570340D02*
X61798200Y-41580340D01*
X56718200Y-40570340D02*
X61798200Y-40570340D01*
X56718200Y-41580340D02*
X56718200Y-40570340D01*
X55368200Y-41680340D02*
X55368200Y-35680340D01*
X65668200Y-41680340D02*
X55368200Y-41680340D01*
X65668200Y-35730340D02*
X65668200Y-41680340D01*
X62468200Y-35730340D02*
X65668200Y-35730340D01*
X55368200Y-35680340D02*
X61118200Y-35680340D01*
G04 #@! TO.C,J2*
X46117720Y-99874400D02*
X46117720Y-102674400D01*
X40317720Y-99874400D02*
X40317720Y-102674400D01*
X39117720Y-99874400D02*
X39117720Y-88474400D01*
X40317720Y-102674400D02*
X46117720Y-102674400D01*
X46417720Y-99874400D02*
X46117720Y-99874400D01*
X40317720Y-99874400D02*
X39117720Y-99874400D01*
X39117720Y-88474400D02*
X40217720Y-88474400D01*
X46417720Y-88474400D02*
X41817720Y-88474400D01*
X46417720Y-99874400D02*
X46417720Y-88474400D01*
X46717720Y-90574400D02*
X47217720Y-91074400D01*
X47217720Y-91074400D02*
X47217720Y-90074400D01*
X47217720Y-90074400D02*
X46717720Y-90574400D01*
G04 #@! TO.C,L2*
X39623940Y-63915820D02*
X39623940Y-62890820D01*
X39623940Y-63915820D02*
X38598940Y-63915820D01*
X34853940Y-63915820D02*
X35878940Y-63915820D01*
X34853940Y-63915820D02*
X34853940Y-62890820D01*
X34853940Y-59695820D02*
X34853940Y-60720820D01*
X39623940Y-59695820D02*
X39623940Y-60720820D01*
X34853940Y-59695820D02*
X35878940Y-59695820D01*
X39623940Y-59695820D02*
X38598940Y-59695820D01*
G04 #@! TO.C,J1*
X55755360Y-52834840D02*
X55755360Y-53884840D01*
X56805360Y-53884840D02*
X55755360Y-53884840D01*
X61855360Y-44484840D02*
X70655360Y-44484840D01*
X70655360Y-44484840D02*
X70655360Y-53684840D01*
X55955360Y-47184840D02*
X55955360Y-44484840D01*
X55955360Y-44484840D02*
X57855360Y-44484840D01*
X70655360Y-53684840D02*
X55955360Y-53684840D01*
X55955360Y-53684840D02*
X55955360Y-51084840D01*
D11*
G04 #@! TO.C,U14*
X17408400Y-30103700D02*
X15408400Y-30103700D01*
X15408400Y-30103700D02*
X15408400Y-29103700D01*
X15408400Y-29103700D02*
X17408400Y-29103700D01*
X17408400Y-29103700D02*
X17408400Y-30103700D01*
D13*
X15783400Y-31803700D02*
G75*
G03*
X15783400Y-31803700I-125000J0D01*
G01*
D12*
G04 #@! TO.C,C67*
X43804280Y-32724760D02*
X51864280Y-32724760D01*
X43804280Y-28204760D02*
X43804280Y-32724760D01*
X51864280Y-28204760D02*
X43804280Y-28204760D01*
G04 #@! TO.C,U12*
X55837160Y-13728080D02*
X54337160Y-13728080D01*
X54337160Y-13728080D02*
X54337160Y-14678080D01*
X54337160Y-14678080D02*
X49212160Y-14678080D01*
X55837160Y-24128080D02*
X54337160Y-24128080D01*
X54337160Y-24128080D02*
X54337160Y-23178080D01*
X54337160Y-23178080D02*
X53237160Y-23178080D01*
G04 #@! TO.C,J4*
X65279800Y-63019600D02*
X64029800Y-63019600D01*
X65279800Y-64269600D02*
X65279800Y-63019600D01*
X60869800Y-66379600D02*
X61369800Y-66379600D01*
X61369800Y-66479600D02*
X60869800Y-66479600D01*
X61369800Y-66279600D02*
X61369800Y-66479600D01*
X60869800Y-66279600D02*
X61369800Y-66279600D01*
X62369800Y-69439600D02*
X62369800Y-68829600D01*
X63669800Y-69439600D02*
X63669800Y-68829600D01*
X62369800Y-63319600D02*
X62369800Y-63929600D01*
X63669800Y-63319600D02*
X63669800Y-63929600D01*
X64369800Y-66879600D02*
X64979800Y-66879600D01*
X64369800Y-68829600D02*
X64369800Y-66879600D01*
X60869800Y-68829600D02*
X64369800Y-68829600D01*
X60869800Y-63929600D02*
X60869800Y-68829600D01*
X64369800Y-63929600D02*
X60869800Y-63929600D01*
X64369800Y-65879600D02*
X64369800Y-63929600D01*
X64979800Y-65879600D02*
X64369800Y-65879600D01*
X65079800Y-65079600D02*
X65079800Y-64779600D01*
X65179800Y-64779600D02*
X64979800Y-64779600D01*
X65179800Y-65079600D02*
X65179800Y-64779600D01*
X64979800Y-65079600D02*
X65179800Y-65079600D01*
X64979800Y-69439600D02*
X64979800Y-63319600D01*
X60259800Y-69439600D02*
X64979800Y-69439600D01*
X60259800Y-63319600D02*
X60259800Y-69439600D01*
X64979800Y-63319600D02*
X60259800Y-63319600D01*
G04 #@! TO.C,J3*
X65279800Y-54790000D02*
X64029800Y-54790000D01*
X65279800Y-56040000D02*
X65279800Y-54790000D01*
X60869800Y-58150000D02*
X61369800Y-58150000D01*
X61369800Y-58250000D02*
X60869800Y-58250000D01*
X61369800Y-58050000D02*
X61369800Y-58250000D01*
X60869800Y-58050000D02*
X61369800Y-58050000D01*
X62369800Y-61210000D02*
X62369800Y-60600000D01*
X63669800Y-61210000D02*
X63669800Y-60600000D01*
X62369800Y-55090000D02*
X62369800Y-55700000D01*
X63669800Y-55090000D02*
X63669800Y-55700000D01*
X64369800Y-58650000D02*
X64979800Y-58650000D01*
X64369800Y-60600000D02*
X64369800Y-58650000D01*
X60869800Y-60600000D02*
X64369800Y-60600000D01*
X60869800Y-55700000D02*
X60869800Y-60600000D01*
X64369800Y-55700000D02*
X60869800Y-55700000D01*
X64369800Y-57650000D02*
X64369800Y-55700000D01*
X64979800Y-57650000D02*
X64369800Y-57650000D01*
X65079800Y-56850000D02*
X65079800Y-56550000D01*
X65179800Y-56550000D02*
X64979800Y-56550000D01*
X65179800Y-56850000D02*
X65179800Y-56550000D01*
X64979800Y-56850000D02*
X65179800Y-56850000D01*
X64979800Y-61210000D02*
X64979800Y-55090000D01*
X60259800Y-61210000D02*
X64979800Y-61210000D01*
X60259800Y-55090000D02*
X60259800Y-61210000D01*
X64979800Y-55090000D02*
X60259800Y-55090000D01*
D11*
G04 #@! TO.C,U8*
X23918800Y-75353800D02*
X23918800Y-75226800D01*
D12*
X24438800Y-76423800D02*
X24988800Y-76423800D01*
X16768800Y-68203800D02*
X16768800Y-68753800D01*
X17318800Y-68203800D02*
X16768800Y-68203800D01*
X24988800Y-68203800D02*
X24988800Y-68753800D01*
X24438800Y-68203800D02*
X24988800Y-68203800D01*
X16768800Y-76423800D02*
X16768800Y-75873800D01*
X17318800Y-76423800D02*
X16768800Y-76423800D01*
D11*
X25681255Y-75653800D02*
G75*
G03*
X25681255Y-75653800I-316228J0D01*
G01*
D12*
G04 #@! TO.C,C66*
X47711640Y-20020080D02*
X47711640Y-16110080D01*
X47711640Y-16110080D02*
X45841640Y-16110080D01*
X45841640Y-16110080D02*
X45841640Y-20020080D01*
G04 #@! TO.C,U4*
X32387100Y-27641500D02*
X38397100Y-27641500D01*
X34637100Y-34461500D02*
X38397100Y-34461500D01*
X38397100Y-27641500D02*
X38397100Y-28901500D01*
X38397100Y-34461500D02*
X38397100Y-33201500D01*
D14*
G04 #@! TO.C,U3*
X52618700Y-72314100D02*
X58068701Y-72314100D01*
X54368701Y-82114098D02*
X58068701Y-82114098D01*
D12*
G04 #@! TO.C,L1*
X42550000Y-17250000D02*
X42550000Y-13650000D01*
X42550000Y-13650000D02*
X29550000Y-13650000D01*
X29550000Y-13650000D02*
X29550000Y-17250000D01*
X42550000Y-23050000D02*
X42550000Y-26650000D01*
X42550000Y-26650000D02*
X29550000Y-26650000D01*
X29550000Y-26650000D02*
X29550000Y-23050000D01*
D11*
G04 #@! TO.C,U2*
X44338500Y-69333200D02*
G75*
G03*
X44338500Y-69333200I-254000J0D01*
G01*
X44258500Y-69770700D02*
X34258500Y-69770700D01*
X34258500Y-69770700D02*
X34258500Y-84770700D01*
X34258500Y-84770700D02*
X44258500Y-84770700D01*
X44258500Y-84770700D02*
X44258500Y-69770700D01*
X44258500Y-69770700D02*
X43830500Y-70158700D01*
X43830500Y-70158700D02*
X43513000Y-69777700D01*
D12*
G04 #@! TO.C,R10*
X45184600Y-74991179D02*
X45184600Y-74665621D01*
X46204600Y-74991179D02*
X46204600Y-74665621D01*
G04 #@! TO.C,R7*
X49201800Y-81790321D02*
X49201800Y-82115879D01*
X48181800Y-81790321D02*
X48181800Y-82115879D01*
G04 #@! TO.C,C26*
X53172900Y-69606379D02*
X53172900Y-69280821D01*
X54192900Y-69606379D02*
X54192900Y-69280821D01*
G04 #@! TO.C,C25*
X53236400Y-57249279D02*
X53236400Y-56923721D01*
X54256400Y-57249279D02*
X54256400Y-56923721D01*
G04 #@! TO.C,C23*
X53185600Y-66253579D02*
X53185600Y-65928021D01*
X54205600Y-66253579D02*
X54205600Y-65928021D01*
G04 #@! TO.C,C22*
X53198300Y-60475079D02*
X53198300Y-60149521D01*
X54218300Y-60475079D02*
X54218300Y-60149521D01*
G04 #@! TO.C,C20*
X56932779Y-10170000D02*
X56607221Y-10170000D01*
X56932779Y-9150000D02*
X56607221Y-9150000D01*
G04 #@! TO.C,C19*
X56912779Y-8500000D02*
X56587221Y-8500000D01*
X56912779Y-7480000D02*
X56587221Y-7480000D01*
G04 #@! TO.C,C18*
X63946500Y-72176421D02*
X63946500Y-72501979D01*
X62926500Y-72176421D02*
X62926500Y-72501979D01*
G04 #@! TO.C,C17*
X56922779Y-11900000D02*
X56597221Y-11900000D01*
X56922779Y-10880000D02*
X56597221Y-10880000D01*
G04 #@! TO.C,C14*
X66363700Y-76041321D02*
X66363700Y-76366879D01*
X65343700Y-76041321D02*
X65343700Y-76366879D01*
G04 #@! TO.C,C13*
X64538700Y-76041321D02*
X64538700Y-76366879D01*
X63518700Y-76041321D02*
X63518700Y-76366879D01*
G04 #@! TO.C,R57*
X51254120Y-87030341D02*
X51254120Y-87355899D01*
X50234120Y-87030341D02*
X50234120Y-87355899D01*
G04 #@! TO.C,R15*
X17744221Y-40650700D02*
X18069779Y-40650700D01*
X17744221Y-41670700D02*
X18069779Y-41670700D01*
G04 #@! TO.C,R14*
X17753021Y-39037800D02*
X18078579Y-39037800D01*
X17753021Y-40057800D02*
X18078579Y-40057800D01*
G04 #@! TO.C,Q3*
X50959900Y-38618700D02*
X51889900Y-38618700D01*
X54119900Y-38618700D02*
X53189900Y-38618700D01*
X54119900Y-38618700D02*
X54119900Y-36458700D01*
X50959900Y-38618700D02*
X50959900Y-37158700D01*
G04 #@! TO.C,J13*
X18720000Y-88400000D02*
X18720000Y-87290000D01*
X18720000Y-87290000D02*
X20050000Y-87290000D01*
X18720000Y-98490000D02*
X29000000Y-98490000D01*
X29000000Y-98490000D02*
X29000000Y-89860000D01*
X18720000Y-89860000D02*
X29000000Y-89860000D01*
X18720000Y-98490000D02*
X18720000Y-89860000D01*
X26400000Y-98490000D02*
X26400000Y-89860000D01*
X23860000Y-98490000D02*
X23860000Y-89860000D01*
X21320000Y-98490000D02*
X21320000Y-89860000D01*
X28030000Y-89860000D02*
X28030000Y-89450000D01*
X27310000Y-89860000D02*
X27310000Y-89450000D01*
X25490000Y-89860000D02*
X25490000Y-89450000D01*
X24770000Y-89860000D02*
X24770000Y-89450000D01*
X22950000Y-89860000D02*
X22950000Y-89450000D01*
X22230000Y-89860000D02*
X22230000Y-89450000D01*
X20410000Y-89860000D02*
X20410000Y-89510000D01*
X19690000Y-89860000D02*
X19690000Y-89510000D01*
X21201900Y-98490000D02*
X21201900Y-89860000D01*
X21083805Y-98490000D02*
X21083805Y-89860000D01*
X20965710Y-98490000D02*
X20965710Y-89860000D01*
X20847615Y-98490000D02*
X20847615Y-89860000D01*
X20729520Y-98490000D02*
X20729520Y-89860000D01*
X20611425Y-98490000D02*
X20611425Y-89860000D01*
X20493330Y-98490000D02*
X20493330Y-89860000D01*
X20375235Y-98490000D02*
X20375235Y-89860000D01*
X20257140Y-98490000D02*
X20257140Y-89860000D01*
X20139045Y-98490000D02*
X20139045Y-89860000D01*
X20020950Y-98490000D02*
X20020950Y-89860000D01*
X19902855Y-98490000D02*
X19902855Y-89860000D01*
X19784760Y-98490000D02*
X19784760Y-89860000D01*
X19666665Y-98490000D02*
X19666665Y-89860000D01*
X19548570Y-98490000D02*
X19548570Y-89860000D01*
X19430475Y-98490000D02*
X19430475Y-89860000D01*
X19312380Y-98490000D02*
X19312380Y-89860000D01*
X19194285Y-98490000D02*
X19194285Y-89860000D01*
X19076190Y-98490000D02*
X19076190Y-89860000D01*
X18958095Y-98490000D02*
X18958095Y-89860000D01*
X18840000Y-98490000D02*
X18840000Y-89860000D01*
G04 #@! TO.C,U9*
X23824780Y-59717940D02*
X23824780Y-56992940D01*
X23824780Y-56992940D02*
X23564780Y-56992940D01*
X23824780Y-59717940D02*
X23824780Y-62442940D01*
X23824780Y-62442940D02*
X23564780Y-62442940D01*
X18374780Y-59717940D02*
X18374780Y-56992940D01*
X18374780Y-56992940D02*
X18634780Y-56992940D01*
X18374780Y-59717940D02*
X18374780Y-62442940D01*
X18374780Y-62442940D02*
X18634780Y-62442940D01*
X18634780Y-62442940D02*
X18634780Y-64117940D01*
G04 #@! TO.C,FB5*
X22724878Y-22277000D02*
X22207722Y-22277000D01*
X22724878Y-23697000D02*
X22207722Y-23697000D01*
G04 #@! TO.C,D15*
X40437560Y-59928320D02*
X40437560Y-56028320D01*
X42437560Y-59928320D02*
X42437560Y-56028320D01*
X40437560Y-59928320D02*
X42437560Y-59928320D01*
G04 #@! TO.C,C37*
X36608801Y-58891900D02*
X36934359Y-58891900D01*
X36608801Y-57871900D02*
X36934359Y-57871900D01*
G04 #@! TO.C,U7*
X41322020Y-61548120D02*
X41322020Y-63978120D01*
X44392020Y-63308120D02*
X44392020Y-61548120D01*
G04 #@! TO.C,C64*
X65465640Y-33241080D02*
X65465640Y-32241080D01*
X65965640Y-32741080D02*
X64965640Y-32741080D01*
X64725640Y-26935517D02*
X63661203Y-25871080D01*
X64725640Y-33526643D02*
X63661203Y-34591080D01*
X64725640Y-33526643D02*
X64725640Y-31741080D01*
X64725640Y-26935517D02*
X64725640Y-28721080D01*
X63661203Y-25871080D02*
X56005640Y-25871080D01*
X63661203Y-34591080D02*
X56005640Y-34591080D01*
X56005640Y-34591080D02*
X56005640Y-31741080D01*
X56005640Y-25871080D02*
X56005640Y-28721080D01*
G04 #@! TO.C,C6*
X15374940Y-14246760D02*
X15374940Y-15246760D01*
X14874940Y-14746760D02*
X15874940Y-14746760D01*
X16114940Y-20552323D02*
X17179377Y-21616760D01*
X16114940Y-13961197D02*
X17179377Y-12896760D01*
X16114940Y-13961197D02*
X16114940Y-15746760D01*
X16114940Y-20552323D02*
X16114940Y-18766760D01*
X17179377Y-21616760D02*
X24834940Y-21616760D01*
X17179377Y-12896760D02*
X24834940Y-12896760D01*
X24834940Y-12896760D02*
X24834940Y-15746760D01*
X24834940Y-21616760D02*
X24834940Y-18766760D01*
G04 #@! TO.C,R24*
X16162779Y-79890000D02*
X15837221Y-79890000D01*
X16162779Y-80910000D02*
X15837221Y-80910000D01*
G04 #@! TO.C,X1*
X17673200Y-83091800D02*
X21873200Y-83091800D01*
X17673200Y-79591800D02*
X17673200Y-83091800D01*
G04 #@! TO.C,FB8*
X53488000Y-42969264D02*
X53488000Y-41765136D01*
X51668000Y-42969264D02*
X51668000Y-41765136D01*
G04 #@! TO.C,FB4*
X57599664Y-65130000D02*
X56395536Y-65130000D01*
X57599664Y-66950000D02*
X56395536Y-66950000D01*
G04 #@! TO.C,FB3*
X57599664Y-68432000D02*
X56395536Y-68432000D01*
X57599664Y-70252000D02*
X56395536Y-70252000D01*
G04 #@! TO.C,FB2*
X57637764Y-59669000D02*
X56433636Y-59669000D01*
X57637764Y-61489000D02*
X56433636Y-61489000D01*
G04 #@! TO.C,FB1*
X57599664Y-56303500D02*
X56395536Y-56303500D01*
X57599664Y-58123500D02*
X56395536Y-58123500D01*
G04 #@! TO.C,U5*
X24733400Y-49212500D02*
X24733400Y-45612500D01*
X24733400Y-49212500D02*
X24733400Y-51412500D01*
X19513400Y-49212500D02*
X19513400Y-47012500D01*
X19513400Y-49212500D02*
X19513400Y-51412500D01*
G04 #@! TO.C,FB6*
X24973060Y-80170698D02*
X24973060Y-79653542D01*
X23553060Y-80170698D02*
X23553060Y-79653542D01*
G04 #@! TO.C,R31*
X40787101Y-43820620D02*
X41112659Y-43820620D01*
X40787101Y-44840620D02*
X41112659Y-44840620D01*
G04 #@! TO.C,J6*
X-537060Y-9767880D02*
X8092940Y-9767880D01*
X-537060Y-9885975D02*
X8092940Y-9885975D01*
X-537060Y-10004070D02*
X8092940Y-10004070D01*
X-537060Y-10122165D02*
X8092940Y-10122165D01*
X-537060Y-10240260D02*
X8092940Y-10240260D01*
X-537060Y-10358355D02*
X8092940Y-10358355D01*
X-537060Y-10476450D02*
X8092940Y-10476450D01*
X-537060Y-10594545D02*
X8092940Y-10594545D01*
X-537060Y-10712640D02*
X8092940Y-10712640D01*
X-537060Y-10830735D02*
X8092940Y-10830735D01*
X-537060Y-10948830D02*
X8092940Y-10948830D01*
X-537060Y-11066925D02*
X8092940Y-11066925D01*
X-537060Y-11185020D02*
X8092940Y-11185020D01*
X-537060Y-11303115D02*
X8092940Y-11303115D01*
X-537060Y-11421210D02*
X8092940Y-11421210D01*
X-537060Y-11539305D02*
X8092940Y-11539305D01*
X-537060Y-11657400D02*
X8092940Y-11657400D01*
X-537060Y-11775495D02*
X8092940Y-11775495D01*
X-537060Y-11893590D02*
X8092940Y-11893590D01*
X-537060Y-12011685D02*
X8092940Y-12011685D01*
X-537060Y-12129780D02*
X8092940Y-12129780D01*
X8092940Y-10617880D02*
X8502940Y-10617880D01*
X10602940Y-10617880D02*
X10982940Y-10617880D01*
X8092940Y-11337880D02*
X8502940Y-11337880D01*
X10602940Y-11337880D02*
X10982940Y-11337880D01*
X8092940Y-13157880D02*
X8502940Y-13157880D01*
X10602940Y-13157880D02*
X11042940Y-13157880D01*
X8092940Y-13877880D02*
X8502940Y-13877880D01*
X10602940Y-13877880D02*
X11042940Y-13877880D01*
X8092940Y-15697880D02*
X8502940Y-15697880D01*
X10602940Y-15697880D02*
X11042940Y-15697880D01*
X8092940Y-16417880D02*
X8502940Y-16417880D01*
X10602940Y-16417880D02*
X11042940Y-16417880D01*
X8092940Y-18237880D02*
X8502940Y-18237880D01*
X10602940Y-18237880D02*
X11042940Y-18237880D01*
X8092940Y-18957880D02*
X8502940Y-18957880D01*
X10602940Y-18957880D02*
X11042940Y-18957880D01*
X8092940Y-20777880D02*
X8502940Y-20777880D01*
X10602940Y-20777880D02*
X11042940Y-20777880D01*
X8092940Y-21497880D02*
X8502940Y-21497880D01*
X10602940Y-21497880D02*
X11042940Y-21497880D01*
X8092940Y-23317880D02*
X8502940Y-23317880D01*
X10602940Y-23317880D02*
X11042940Y-23317880D01*
X8092940Y-24037880D02*
X8502940Y-24037880D01*
X10602940Y-24037880D02*
X11042940Y-24037880D01*
X8092940Y-25857880D02*
X8502940Y-25857880D01*
X10602940Y-25857880D02*
X11042940Y-25857880D01*
X8092940Y-26577880D02*
X8502940Y-26577880D01*
X10602940Y-26577880D02*
X11042940Y-26577880D01*
X8092940Y-28397880D02*
X8502940Y-28397880D01*
X10602940Y-28397880D02*
X11042940Y-28397880D01*
X8092940Y-29117880D02*
X8502940Y-29117880D01*
X10602940Y-29117880D02*
X11042940Y-29117880D01*
X8092940Y-30937880D02*
X8502940Y-30937880D01*
X10602940Y-30937880D02*
X11042940Y-30937880D01*
X8092940Y-31657880D02*
X8502940Y-31657880D01*
X10602940Y-31657880D02*
X11042940Y-31657880D01*
X8092940Y-33477880D02*
X8502940Y-33477880D01*
X10602940Y-33477880D02*
X11042940Y-33477880D01*
X8092940Y-34197880D02*
X8502940Y-34197880D01*
X10602940Y-34197880D02*
X11042940Y-34197880D01*
X8092940Y-36017880D02*
X8502940Y-36017880D01*
X10602940Y-36017880D02*
X11042940Y-36017880D01*
X8092940Y-36737880D02*
X8502940Y-36737880D01*
X10602940Y-36737880D02*
X11042940Y-36737880D01*
X8092940Y-38557880D02*
X8502940Y-38557880D01*
X10602940Y-38557880D02*
X11042940Y-38557880D01*
X8092940Y-39277880D02*
X8502940Y-39277880D01*
X10602940Y-39277880D02*
X11042940Y-39277880D01*
X8092940Y-41097880D02*
X8502940Y-41097880D01*
X10602940Y-41097880D02*
X11042940Y-41097880D01*
X8092940Y-41817880D02*
X8502940Y-41817880D01*
X10602940Y-41817880D02*
X11042940Y-41817880D01*
X8092940Y-43637880D02*
X8502940Y-43637880D01*
X10602940Y-43637880D02*
X11042940Y-43637880D01*
X8092940Y-44357880D02*
X8502940Y-44357880D01*
X10602940Y-44357880D02*
X11042940Y-44357880D01*
X8092940Y-46177880D02*
X8502940Y-46177880D01*
X10602940Y-46177880D02*
X11042940Y-46177880D01*
X8092940Y-46897880D02*
X8502940Y-46897880D01*
X10602940Y-46897880D02*
X11042940Y-46897880D01*
X8092940Y-48717880D02*
X8502940Y-48717880D01*
X10602940Y-48717880D02*
X11042940Y-48717880D01*
X8092940Y-49437880D02*
X8502940Y-49437880D01*
X10602940Y-49437880D02*
X11042940Y-49437880D01*
X8092940Y-51257880D02*
X8502940Y-51257880D01*
X10602940Y-51257880D02*
X11042940Y-51257880D01*
X8092940Y-51977880D02*
X8502940Y-51977880D01*
X10602940Y-51977880D02*
X11042940Y-51977880D01*
X8092940Y-53797880D02*
X8502940Y-53797880D01*
X10602940Y-53797880D02*
X11042940Y-53797880D01*
X8092940Y-54517880D02*
X8502940Y-54517880D01*
X10602940Y-54517880D02*
X11042940Y-54517880D01*
X8092940Y-56337880D02*
X8502940Y-56337880D01*
X10602940Y-56337880D02*
X11042940Y-56337880D01*
X8092940Y-57057880D02*
X8502940Y-57057880D01*
X10602940Y-57057880D02*
X11042940Y-57057880D01*
X8092940Y-58877880D02*
X8502940Y-58877880D01*
X10602940Y-58877880D02*
X11042940Y-58877880D01*
X8092940Y-59597880D02*
X8502940Y-59597880D01*
X10602940Y-59597880D02*
X11042940Y-59597880D01*
X-537060Y-12247880D02*
X8092940Y-12247880D01*
X-537060Y-14787880D02*
X8092940Y-14787880D01*
X-537060Y-17327880D02*
X8092940Y-17327880D01*
X-537060Y-19867880D02*
X8092940Y-19867880D01*
X-537060Y-22407880D02*
X8092940Y-22407880D01*
X-537060Y-24947880D02*
X8092940Y-24947880D01*
X-537060Y-27487880D02*
X8092940Y-27487880D01*
X-537060Y-30027880D02*
X8092940Y-30027880D01*
X-537060Y-32567880D02*
X8092940Y-32567880D01*
X-537060Y-35107880D02*
X8092940Y-35107880D01*
X-537060Y-37647880D02*
X8092940Y-37647880D01*
X-537060Y-40187880D02*
X8092940Y-40187880D01*
X-537060Y-42727880D02*
X8092940Y-42727880D01*
X-537060Y-45267880D02*
X8092940Y-45267880D01*
X-537060Y-47807880D02*
X8092940Y-47807880D01*
X-537060Y-50347880D02*
X8092940Y-50347880D01*
X-537060Y-52887880D02*
X8092940Y-52887880D01*
X-537060Y-55427880D02*
X8092940Y-55427880D01*
X-537060Y-57967880D02*
X8092940Y-57967880D01*
X-537060Y-9647880D02*
X8092940Y-9647880D01*
X8092940Y-9647880D02*
X8092940Y-60567880D01*
X-537060Y-60567880D02*
X8092940Y-60567880D01*
X-537060Y-9647880D02*
X-537060Y-60567880D01*
X13202940Y-9647880D02*
X13202940Y-10977880D01*
X12092940Y-9647880D02*
X13202940Y-9647880D01*
G04 #@! TO.C,D14*
X54375000Y-5200000D02*
X54375000Y-10600000D01*
X51075000Y-5200000D02*
X51075000Y-10600000D01*
X54375000Y-5200000D02*
X51075000Y-5200000D01*
G04 #@! TO.C,U1*
X40700000Y-11200000D02*
X42200000Y-11200000D01*
X42200000Y-11200000D02*
X42200000Y-10250000D01*
X42200000Y-10250000D02*
X47325000Y-10250000D01*
X40700000Y-800000D02*
X42200000Y-800000D01*
X42200000Y-800000D02*
X42200000Y-1750000D01*
X42200000Y-1750000D02*
X43300000Y-1750000D01*
G04 #@! TO.C,C1*
X18390000Y-490000D02*
X18390000Y-4240000D01*
X18390000Y-11010000D02*
X18390000Y-7260000D01*
X27845563Y-11010000D02*
X18390000Y-11010000D01*
X27845563Y-490000D02*
X18390000Y-490000D01*
X28910000Y-1554437D02*
X28910000Y-4240000D01*
X28910000Y-9945563D02*
X28910000Y-7260000D01*
X28910000Y-9945563D02*
X27845563Y-11010000D01*
X28910000Y-1554437D02*
X27845563Y-490000D01*
X30400000Y-8510000D02*
X29150000Y-8510000D01*
X29775000Y-9135000D02*
X29775000Y-7885000D01*
G04 #@! TO.C,C60*
X30732000Y-30388779D02*
X30732000Y-30063221D01*
X31752000Y-30388779D02*
X31752000Y-30063221D01*
G04 #@! TO.C,Y2*
X39838880Y-49703720D02*
X39838880Y-53003720D01*
X39838880Y-53003720D02*
X43838880Y-53003720D01*
G04 #@! TO.C,PWR1*
X46463280Y-41836440D02*
X46463280Y-44121440D01*
X46463280Y-44121440D02*
X47933280Y-44121440D01*
X47933280Y-44121440D02*
X47933280Y-41836440D01*
G04 #@! TO.C,D20*
X17328000Y-85015800D02*
X17328000Y-86475800D01*
X14168000Y-85015800D02*
X14168000Y-87175800D01*
X14168000Y-85015800D02*
X15098000Y-85015800D01*
X17328000Y-85015800D02*
X16398000Y-85015800D01*
D11*
G04 #@! TO.C,U6*
X37817880Y-53058120D02*
X38942880Y-53058120D01*
X37817880Y-43378120D02*
X33667880Y-43378120D01*
X37817880Y-53538120D02*
X33667880Y-53538120D01*
X37817880Y-43378120D02*
X37817880Y-43858120D01*
X33667880Y-43378120D02*
X33667880Y-43858120D01*
X33667880Y-53538120D02*
X33667880Y-53058120D01*
X37817880Y-53538120D02*
X37817880Y-53058120D01*
D12*
G04 #@! TO.C,D1*
X38114100Y-36755440D02*
X38114100Y-35055440D01*
X38114100Y-35055440D02*
X35564100Y-35055440D01*
X38114100Y-36755440D02*
X35564100Y-36755440D01*
G04 #@! TO.C,U13*
X29987400Y-32778700D02*
X29987400Y-30828700D01*
X29987400Y-32778700D02*
X29987400Y-34728700D01*
X21117400Y-32778700D02*
X21117400Y-30828700D01*
X21117400Y-32778700D02*
X21117400Y-36228700D01*
G04 #@! TO.C,R33*
D15*
X28715851Y-44853990D02*
X28549184Y-44615895D01*
X28430137Y-44853990D02*
X28430137Y-44353990D01*
X28620613Y-44353990D01*
X28668232Y-44377800D01*
X28692041Y-44401609D01*
X28715851Y-44449228D01*
X28715851Y-44520657D01*
X28692041Y-44568276D01*
X28668232Y-44592085D01*
X28620613Y-44615895D01*
X28430137Y-44615895D01*
X28882518Y-44353990D02*
X29192041Y-44353990D01*
X29025375Y-44544466D01*
X29096803Y-44544466D01*
X29144422Y-44568276D01*
X29168232Y-44592085D01*
X29192041Y-44639704D01*
X29192041Y-44758752D01*
X29168232Y-44806371D01*
X29144422Y-44830180D01*
X29096803Y-44853990D01*
X28953946Y-44853990D01*
X28906327Y-44830180D01*
X28882518Y-44806371D01*
X29358708Y-44353990D02*
X29668232Y-44353990D01*
X29501565Y-44544466D01*
X29572994Y-44544466D01*
X29620613Y-44568276D01*
X29644422Y-44592085D01*
X29668232Y-44639704D01*
X29668232Y-44758752D01*
X29644422Y-44806371D01*
X29620613Y-44830180D01*
X29572994Y-44853990D01*
X29430137Y-44853990D01*
X29382518Y-44830180D01*
X29358708Y-44806371D01*
G04 #@! TO.C,R9*
X16019910Y-43766253D02*
X15781815Y-43932920D01*
X16019910Y-44051967D02*
X15519910Y-44051967D01*
X15519910Y-43861491D01*
X15543720Y-43813872D01*
X15567529Y-43790062D01*
X15615148Y-43766253D01*
X15686577Y-43766253D01*
X15734196Y-43790062D01*
X15758005Y-43813872D01*
X15781815Y-43861491D01*
X15781815Y-44051967D01*
X16019910Y-43528158D02*
X16019910Y-43432920D01*
X15996100Y-43385300D01*
X15972291Y-43361491D01*
X15900862Y-43313872D01*
X15805624Y-43290062D01*
X15615148Y-43290062D01*
X15567529Y-43313872D01*
X15543720Y-43337681D01*
X15519910Y-43385300D01*
X15519910Y-43480539D01*
X15543720Y-43528158D01*
X15567529Y-43551967D01*
X15615148Y-43575777D01*
X15734196Y-43575777D01*
X15781815Y-43551967D01*
X15805624Y-43528158D01*
X15829434Y-43480539D01*
X15829434Y-43385300D01*
X15805624Y-43337681D01*
X15781815Y-43313872D01*
X15734196Y-43290062D01*
G04 #@! TO.C,R29*
X42243891Y-41384350D02*
X42077224Y-41146255D01*
X41958177Y-41384350D02*
X41958177Y-40884350D01*
X42148653Y-40884350D01*
X42196272Y-40908160D01*
X42220081Y-40931969D01*
X42243891Y-40979588D01*
X42243891Y-41051017D01*
X42220081Y-41098636D01*
X42196272Y-41122445D01*
X42148653Y-41146255D01*
X41958177Y-41146255D01*
X42434367Y-40931969D02*
X42458177Y-40908160D01*
X42505796Y-40884350D01*
X42624843Y-40884350D01*
X42672462Y-40908160D01*
X42696272Y-40931969D01*
X42720081Y-40979588D01*
X42720081Y-41027207D01*
X42696272Y-41098636D01*
X42410558Y-41384350D01*
X42720081Y-41384350D01*
X42958177Y-41384350D02*
X43053415Y-41384350D01*
X43101034Y-41360540D01*
X43124843Y-41336731D01*
X43172462Y-41265302D01*
X43196272Y-41170064D01*
X43196272Y-40979588D01*
X43172462Y-40931969D01*
X43148653Y-40908160D01*
X43101034Y-40884350D01*
X43005796Y-40884350D01*
X42958177Y-40908160D01*
X42934367Y-40931969D01*
X42910558Y-40979588D01*
X42910558Y-41098636D01*
X42934367Y-41146255D01*
X42958177Y-41170064D01*
X43005796Y-41193874D01*
X43101034Y-41193874D01*
X43148653Y-41170064D01*
X43172462Y-41146255D01*
X43196272Y-41098636D01*
G04 #@! TO.C,R20*
X42243891Y-40243890D02*
X42077224Y-40005795D01*
X41958177Y-40243890D02*
X41958177Y-39743890D01*
X42148653Y-39743890D01*
X42196272Y-39767700D01*
X42220081Y-39791509D01*
X42243891Y-39839128D01*
X42243891Y-39910557D01*
X42220081Y-39958176D01*
X42196272Y-39981985D01*
X42148653Y-40005795D01*
X41958177Y-40005795D01*
X42434367Y-39791509D02*
X42458177Y-39767700D01*
X42505796Y-39743890D01*
X42624843Y-39743890D01*
X42672462Y-39767700D01*
X42696272Y-39791509D01*
X42720081Y-39839128D01*
X42720081Y-39886747D01*
X42696272Y-39958176D01*
X42410558Y-40243890D01*
X42720081Y-40243890D01*
X43029605Y-39743890D02*
X43077224Y-39743890D01*
X43124843Y-39767700D01*
X43148653Y-39791509D01*
X43172462Y-39839128D01*
X43196272Y-39934366D01*
X43196272Y-40053414D01*
X43172462Y-40148652D01*
X43148653Y-40196271D01*
X43124843Y-40220080D01*
X43077224Y-40243890D01*
X43029605Y-40243890D01*
X42981986Y-40220080D01*
X42958177Y-40196271D01*
X42934367Y-40148652D01*
X42910558Y-40053414D01*
X42910558Y-39934366D01*
X42934367Y-39839128D01*
X42958177Y-39791509D01*
X42981986Y-39767700D01*
X43029605Y-39743890D01*
G04 #@! TO.C,R18*
X66720850Y-34286308D02*
X66482755Y-34452975D01*
X66720850Y-34572022D02*
X66220850Y-34572022D01*
X66220850Y-34381546D01*
X66244660Y-34333927D01*
X66268469Y-34310118D01*
X66316088Y-34286308D01*
X66387517Y-34286308D01*
X66435136Y-34310118D01*
X66458945Y-34333927D01*
X66482755Y-34381546D01*
X66482755Y-34572022D01*
X66720850Y-33810118D02*
X66720850Y-34095832D01*
X66720850Y-33952975D02*
X66220850Y-33952975D01*
X66292279Y-34000594D01*
X66339898Y-34048213D01*
X66363707Y-34095832D01*
X66435136Y-33524403D02*
X66411326Y-33572022D01*
X66387517Y-33595832D01*
X66339898Y-33619641D01*
X66316088Y-33619641D01*
X66268469Y-33595832D01*
X66244660Y-33572022D01*
X66220850Y-33524403D01*
X66220850Y-33429165D01*
X66244660Y-33381546D01*
X66268469Y-33357737D01*
X66316088Y-33333927D01*
X66339898Y-33333927D01*
X66387517Y-33357737D01*
X66411326Y-33381546D01*
X66435136Y-33429165D01*
X66435136Y-33524403D01*
X66458945Y-33572022D01*
X66482755Y-33595832D01*
X66530374Y-33619641D01*
X66625612Y-33619641D01*
X66673231Y-33595832D01*
X66697040Y-33572022D01*
X66720850Y-33524403D01*
X66720850Y-33429165D01*
X66697040Y-33381546D01*
X66673231Y-33357737D01*
X66625612Y-33333927D01*
X66530374Y-33333927D01*
X66482755Y-33357737D01*
X66458945Y-33381546D01*
X66435136Y-33429165D01*
G04 #@! TO.C,R2*
X42535326Y-38417630D02*
X42368660Y-38179535D01*
X42249612Y-38417630D02*
X42249612Y-37917630D01*
X42440088Y-37917630D01*
X42487707Y-37941440D01*
X42511517Y-37965249D01*
X42535326Y-38012868D01*
X42535326Y-38084297D01*
X42511517Y-38131916D01*
X42487707Y-38155725D01*
X42440088Y-38179535D01*
X42249612Y-38179535D01*
X42725802Y-37965249D02*
X42749612Y-37941440D01*
X42797231Y-37917630D01*
X42916279Y-37917630D01*
X42963898Y-37941440D01*
X42987707Y-37965249D01*
X43011517Y-38012868D01*
X43011517Y-38060487D01*
X42987707Y-38131916D01*
X42701993Y-38417630D01*
X43011517Y-38417630D01*
G04 #@! TO.C,Q1*
D11*
X42942521Y-34034979D02*
X42847283Y-33987360D01*
X42752045Y-33892121D01*
X42609188Y-33749264D01*
X42513950Y-33701645D01*
X42418712Y-33701645D01*
X42466331Y-33939740D02*
X42371093Y-33892121D01*
X42275855Y-33796883D01*
X42228236Y-33606407D01*
X42228236Y-33273074D01*
X42275855Y-33082598D01*
X42371093Y-32987360D01*
X42466331Y-32939740D01*
X42656807Y-32939740D01*
X42752045Y-32987360D01*
X42847283Y-33082598D01*
X42894902Y-33273074D01*
X42894902Y-33606407D01*
X42847283Y-33796883D01*
X42752045Y-33892121D01*
X42656807Y-33939740D01*
X42466331Y-33939740D01*
X43847283Y-33939740D02*
X43275855Y-33939740D01*
X43561569Y-33939740D02*
X43561569Y-32939740D01*
X43466331Y-33082598D01*
X43371093Y-33177836D01*
X43275855Y-33225455D01*
G04 #@! TO.C,J7*
X54096326Y-35020000D02*
X54096326Y-35734286D01*
X54048707Y-35877143D01*
X53953469Y-35972381D01*
X53810612Y-36020000D01*
X53715374Y-36020000D01*
X54477279Y-35020000D02*
X55143945Y-35020000D01*
X54715374Y-36020000D01*
G04 #@! TO.C,J2*
X42427566Y-86411820D02*
X42427566Y-87126106D01*
X42379947Y-87268963D01*
X42284709Y-87364201D01*
X42141852Y-87411820D01*
X42046614Y-87411820D01*
X42856138Y-86507059D02*
X42903757Y-86459440D01*
X42998995Y-86411820D01*
X43237090Y-86411820D01*
X43332328Y-86459440D01*
X43379947Y-86507059D01*
X43427566Y-86602297D01*
X43427566Y-86697535D01*
X43379947Y-86840392D01*
X42808519Y-87411820D01*
X43427566Y-87411820D01*
G04 #@! TO.C,L2*
X33602633Y-63812680D02*
X33126442Y-63812680D01*
X33126442Y-62812680D01*
X33888347Y-62907919D02*
X33935966Y-62860300D01*
X34031204Y-62812680D01*
X34269300Y-62812680D01*
X34364538Y-62860300D01*
X34412157Y-62907919D01*
X34459776Y-63003157D01*
X34459776Y-63098395D01*
X34412157Y-63241252D01*
X33840728Y-63812680D01*
X34459776Y-63812680D01*
G04 #@! TO.C,J1*
X53265746Y-48537220D02*
X53265746Y-49251506D01*
X53218127Y-49394363D01*
X53122889Y-49489601D01*
X52980032Y-49537220D01*
X52884794Y-49537220D01*
X54265746Y-49537220D02*
X53694318Y-49537220D01*
X53980032Y-49537220D02*
X53980032Y-48537220D01*
X53884794Y-48680078D01*
X53789556Y-48775316D01*
X53694318Y-48822935D01*
G04 #@! TO.C,U14*
D16*
X17824504Y-30161323D02*
X18472123Y-30161323D01*
X18548314Y-30123228D01*
X18586409Y-30085133D01*
X18624504Y-30008942D01*
X18624504Y-29856561D01*
X18586409Y-29780371D01*
X18548314Y-29742276D01*
X18472123Y-29704180D01*
X17824504Y-29704180D01*
X18624504Y-28904180D02*
X18624504Y-29361323D01*
X18624504Y-29132752D02*
X17824504Y-29132752D01*
X17938790Y-29208942D01*
X18014980Y-29285133D01*
X18053076Y-29361323D01*
X18091171Y-28218466D02*
X18624504Y-28218466D01*
X17786409Y-28408942D02*
X18357838Y-28599419D01*
X18357838Y-28104180D01*
G04 #@! TO.C,C67*
D11*
X47571422Y-27721902D02*
X47523803Y-27769521D01*
X47380946Y-27817140D01*
X47285708Y-27817140D01*
X47142851Y-27769521D01*
X47047613Y-27674283D01*
X46999994Y-27579045D01*
X46952375Y-27388569D01*
X46952375Y-27245712D01*
X46999994Y-27055236D01*
X47047613Y-26959998D01*
X47142851Y-26864760D01*
X47285708Y-26817140D01*
X47380946Y-26817140D01*
X47523803Y-26864760D01*
X47571422Y-26912379D01*
X48428565Y-26817140D02*
X48238089Y-26817140D01*
X48142851Y-26864760D01*
X48095232Y-26912379D01*
X47999994Y-27055236D01*
X47952375Y-27245712D01*
X47952375Y-27626664D01*
X47999994Y-27721902D01*
X48047613Y-27769521D01*
X48142851Y-27817140D01*
X48333327Y-27817140D01*
X48428565Y-27769521D01*
X48476184Y-27721902D01*
X48523803Y-27626664D01*
X48523803Y-27388569D01*
X48476184Y-27293331D01*
X48428565Y-27245712D01*
X48333327Y-27198093D01*
X48142851Y-27198093D01*
X48047613Y-27245712D01*
X47999994Y-27293331D01*
X47952375Y-27388569D01*
X48857137Y-26817140D02*
X49523803Y-26817140D01*
X49095232Y-27817140D01*
G04 #@! TO.C,U12*
X62023144Y-11974580D02*
X62023144Y-12784104D01*
X62070763Y-12879342D01*
X62118382Y-12926961D01*
X62213620Y-12974580D01*
X62404097Y-12974580D01*
X62499335Y-12926961D01*
X62546954Y-12879342D01*
X62594573Y-12784104D01*
X62594573Y-11974580D01*
X63594573Y-12974580D02*
X63023144Y-12974580D01*
X63308859Y-12974580D02*
X63308859Y-11974580D01*
X63213620Y-12117438D01*
X63118382Y-12212676D01*
X63023144Y-12260295D01*
X63975525Y-12069819D02*
X64023144Y-12022200D01*
X64118382Y-11974580D01*
X64356478Y-11974580D01*
X64451716Y-12022200D01*
X64499335Y-12069819D01*
X64546954Y-12165057D01*
X64546954Y-12260295D01*
X64499335Y-12403152D01*
X63927906Y-12974580D01*
X64546954Y-12974580D01*
G04 #@! TO.C,R66*
D15*
X16456790Y-35246428D02*
X16218695Y-35413095D01*
X16456790Y-35532142D02*
X15956790Y-35532142D01*
X15956790Y-35341666D01*
X15980600Y-35294047D01*
X16004409Y-35270238D01*
X16052028Y-35246428D01*
X16123457Y-35246428D01*
X16171076Y-35270238D01*
X16194885Y-35294047D01*
X16218695Y-35341666D01*
X16218695Y-35532142D01*
X15956790Y-34817857D02*
X15956790Y-34913095D01*
X15980600Y-34960714D01*
X16004409Y-34984523D01*
X16075838Y-35032142D01*
X16171076Y-35055952D01*
X16361552Y-35055952D01*
X16409171Y-35032142D01*
X16432980Y-35008333D01*
X16456790Y-34960714D01*
X16456790Y-34865476D01*
X16432980Y-34817857D01*
X16409171Y-34794047D01*
X16361552Y-34770238D01*
X16242504Y-34770238D01*
X16194885Y-34794047D01*
X16171076Y-34817857D01*
X16147266Y-34865476D01*
X16147266Y-34960714D01*
X16171076Y-35008333D01*
X16194885Y-35032142D01*
X16242504Y-35055952D01*
X15956790Y-34341666D02*
X15956790Y-34436904D01*
X15980600Y-34484523D01*
X16004409Y-34508333D01*
X16075838Y-34555952D01*
X16171076Y-34579761D01*
X16361552Y-34579761D01*
X16409171Y-34555952D01*
X16432980Y-34532142D01*
X16456790Y-34484523D01*
X16456790Y-34389285D01*
X16432980Y-34341666D01*
X16409171Y-34317857D01*
X16361552Y-34294047D01*
X16242504Y-34294047D01*
X16194885Y-34317857D01*
X16171076Y-34341666D01*
X16147266Y-34389285D01*
X16147266Y-34484523D01*
X16171076Y-34532142D01*
X16194885Y-34555952D01*
X16242504Y-34579761D01*
G04 #@! TO.C,R65*
X18031590Y-24616528D02*
X17793495Y-24783195D01*
X18031590Y-24902242D02*
X17531590Y-24902242D01*
X17531590Y-24711766D01*
X17555400Y-24664147D01*
X17579209Y-24640338D01*
X17626828Y-24616528D01*
X17698257Y-24616528D01*
X17745876Y-24640338D01*
X17769685Y-24664147D01*
X17793495Y-24711766D01*
X17793495Y-24902242D01*
X17531590Y-24187957D02*
X17531590Y-24283195D01*
X17555400Y-24330814D01*
X17579209Y-24354623D01*
X17650638Y-24402242D01*
X17745876Y-24426052D01*
X17936352Y-24426052D01*
X17983971Y-24402242D01*
X18007780Y-24378433D01*
X18031590Y-24330814D01*
X18031590Y-24235576D01*
X18007780Y-24187957D01*
X17983971Y-24164147D01*
X17936352Y-24140338D01*
X17817304Y-24140338D01*
X17769685Y-24164147D01*
X17745876Y-24187957D01*
X17722066Y-24235576D01*
X17722066Y-24330814D01*
X17745876Y-24378433D01*
X17769685Y-24402242D01*
X17817304Y-24426052D01*
X17531590Y-23687957D02*
X17531590Y-23926052D01*
X17769685Y-23949861D01*
X17745876Y-23926052D01*
X17722066Y-23878433D01*
X17722066Y-23759385D01*
X17745876Y-23711766D01*
X17769685Y-23687957D01*
X17817304Y-23664147D01*
X17936352Y-23664147D01*
X17983971Y-23687957D01*
X18007780Y-23711766D01*
X18031590Y-23759385D01*
X18031590Y-23878433D01*
X18007780Y-23926052D01*
X17983971Y-23949861D01*
G04 #@! TO.C,R64*
X15834490Y-24667328D02*
X15596395Y-24833995D01*
X15834490Y-24953042D02*
X15334490Y-24953042D01*
X15334490Y-24762566D01*
X15358300Y-24714947D01*
X15382109Y-24691138D01*
X15429728Y-24667328D01*
X15501157Y-24667328D01*
X15548776Y-24691138D01*
X15572585Y-24714947D01*
X15596395Y-24762566D01*
X15596395Y-24953042D01*
X15334490Y-24238757D02*
X15334490Y-24333995D01*
X15358300Y-24381614D01*
X15382109Y-24405423D01*
X15453538Y-24453042D01*
X15548776Y-24476852D01*
X15739252Y-24476852D01*
X15786871Y-24453042D01*
X15810680Y-24429233D01*
X15834490Y-24381614D01*
X15834490Y-24286376D01*
X15810680Y-24238757D01*
X15786871Y-24214947D01*
X15739252Y-24191138D01*
X15620204Y-24191138D01*
X15572585Y-24214947D01*
X15548776Y-24238757D01*
X15524966Y-24286376D01*
X15524966Y-24381614D01*
X15548776Y-24429233D01*
X15572585Y-24453042D01*
X15620204Y-24476852D01*
X15501157Y-23762566D02*
X15834490Y-23762566D01*
X15310680Y-23881614D02*
X15667823Y-24000661D01*
X15667823Y-23691138D01*
G04 #@! TO.C,R63*
X17421990Y-35284528D02*
X17183895Y-35451195D01*
X17421990Y-35570242D02*
X16921990Y-35570242D01*
X16921990Y-35379766D01*
X16945800Y-35332147D01*
X16969609Y-35308338D01*
X17017228Y-35284528D01*
X17088657Y-35284528D01*
X17136276Y-35308338D01*
X17160085Y-35332147D01*
X17183895Y-35379766D01*
X17183895Y-35570242D01*
X16921990Y-34855957D02*
X16921990Y-34951195D01*
X16945800Y-34998814D01*
X16969609Y-35022623D01*
X17041038Y-35070242D01*
X17136276Y-35094052D01*
X17326752Y-35094052D01*
X17374371Y-35070242D01*
X17398180Y-35046433D01*
X17421990Y-34998814D01*
X17421990Y-34903576D01*
X17398180Y-34855957D01*
X17374371Y-34832147D01*
X17326752Y-34808338D01*
X17207704Y-34808338D01*
X17160085Y-34832147D01*
X17136276Y-34855957D01*
X17112466Y-34903576D01*
X17112466Y-34998814D01*
X17136276Y-35046433D01*
X17160085Y-35070242D01*
X17207704Y-35094052D01*
X16921990Y-34641671D02*
X16921990Y-34332147D01*
X17112466Y-34498814D01*
X17112466Y-34427385D01*
X17136276Y-34379766D01*
X17160085Y-34355957D01*
X17207704Y-34332147D01*
X17326752Y-34332147D01*
X17374371Y-34355957D01*
X17398180Y-34379766D01*
X17421990Y-34427385D01*
X17421990Y-34570242D01*
X17398180Y-34617861D01*
X17374371Y-34641671D01*
G04 #@! TO.C,R52*
X26589871Y-75943590D02*
X26423204Y-75705495D01*
X26304157Y-75943590D02*
X26304157Y-75443590D01*
X26494633Y-75443590D01*
X26542252Y-75467400D01*
X26566061Y-75491209D01*
X26589871Y-75538828D01*
X26589871Y-75610257D01*
X26566061Y-75657876D01*
X26542252Y-75681685D01*
X26494633Y-75705495D01*
X26304157Y-75705495D01*
X27042252Y-75443590D02*
X26804157Y-75443590D01*
X26780347Y-75681685D01*
X26804157Y-75657876D01*
X26851776Y-75634066D01*
X26970823Y-75634066D01*
X27018442Y-75657876D01*
X27042252Y-75681685D01*
X27066061Y-75729304D01*
X27066061Y-75848352D01*
X27042252Y-75895971D01*
X27018442Y-75919780D01*
X26970823Y-75943590D01*
X26851776Y-75943590D01*
X26804157Y-75919780D01*
X26780347Y-75895971D01*
X27256538Y-75491209D02*
X27280347Y-75467400D01*
X27327966Y-75443590D01*
X27447014Y-75443590D01*
X27494633Y-75467400D01*
X27518442Y-75491209D01*
X27542252Y-75538828D01*
X27542252Y-75586447D01*
X27518442Y-75657876D01*
X27232728Y-75943590D01*
X27542252Y-75943590D01*
G04 #@! TO.C,R62*
X16913990Y-24667328D02*
X16675895Y-24833995D01*
X16913990Y-24953042D02*
X16413990Y-24953042D01*
X16413990Y-24762566D01*
X16437800Y-24714947D01*
X16461609Y-24691138D01*
X16509228Y-24667328D01*
X16580657Y-24667328D01*
X16628276Y-24691138D01*
X16652085Y-24714947D01*
X16675895Y-24762566D01*
X16675895Y-24953042D01*
X16413990Y-24238757D02*
X16413990Y-24333995D01*
X16437800Y-24381614D01*
X16461609Y-24405423D01*
X16533038Y-24453042D01*
X16628276Y-24476852D01*
X16818752Y-24476852D01*
X16866371Y-24453042D01*
X16890180Y-24429233D01*
X16913990Y-24381614D01*
X16913990Y-24286376D01*
X16890180Y-24238757D01*
X16866371Y-24214947D01*
X16818752Y-24191138D01*
X16699704Y-24191138D01*
X16652085Y-24214947D01*
X16628276Y-24238757D01*
X16604466Y-24286376D01*
X16604466Y-24381614D01*
X16628276Y-24429233D01*
X16652085Y-24453042D01*
X16699704Y-24476852D01*
X16461609Y-24000661D02*
X16437800Y-23976852D01*
X16413990Y-23929233D01*
X16413990Y-23810185D01*
X16437800Y-23762566D01*
X16461609Y-23738757D01*
X16509228Y-23714947D01*
X16556847Y-23714947D01*
X16628276Y-23738757D01*
X16913990Y-24024471D01*
X16913990Y-23714947D01*
G04 #@! TO.C,R53*
X28619331Y-43462070D02*
X28452664Y-43223975D01*
X28333617Y-43462070D02*
X28333617Y-42962070D01*
X28524093Y-42962070D01*
X28571712Y-42985880D01*
X28595521Y-43009689D01*
X28619331Y-43057308D01*
X28619331Y-43128737D01*
X28595521Y-43176356D01*
X28571712Y-43200165D01*
X28524093Y-43223975D01*
X28333617Y-43223975D01*
X29071712Y-42962070D02*
X28833617Y-42962070D01*
X28809807Y-43200165D01*
X28833617Y-43176356D01*
X28881236Y-43152546D01*
X29000283Y-43152546D01*
X29047902Y-43176356D01*
X29071712Y-43200165D01*
X29095521Y-43247784D01*
X29095521Y-43366832D01*
X29071712Y-43414451D01*
X29047902Y-43438260D01*
X29000283Y-43462070D01*
X28881236Y-43462070D01*
X28833617Y-43438260D01*
X28809807Y-43414451D01*
X29262188Y-42962070D02*
X29571712Y-42962070D01*
X29405045Y-43152546D01*
X29476474Y-43152546D01*
X29524093Y-43176356D01*
X29547902Y-43200165D01*
X29571712Y-43247784D01*
X29571712Y-43366832D01*
X29547902Y-43414451D01*
X29524093Y-43438260D01*
X29476474Y-43462070D01*
X29333617Y-43462070D01*
X29285998Y-43438260D01*
X29262188Y-43414451D01*
G04 #@! TO.C,R47*
X28659971Y-42202230D02*
X28493304Y-41964135D01*
X28374257Y-42202230D02*
X28374257Y-41702230D01*
X28564733Y-41702230D01*
X28612352Y-41726040D01*
X28636161Y-41749849D01*
X28659971Y-41797468D01*
X28659971Y-41868897D01*
X28636161Y-41916516D01*
X28612352Y-41940325D01*
X28564733Y-41964135D01*
X28374257Y-41964135D01*
X29088542Y-41868897D02*
X29088542Y-42202230D01*
X28969495Y-41678420D02*
X28850447Y-42035563D01*
X29159971Y-42035563D01*
X29302828Y-41702230D02*
X29636161Y-41702230D01*
X29421876Y-42202230D01*
G04 #@! TO.C,R16*
X6505070Y-62211068D02*
X6266975Y-62377735D01*
X6505070Y-62496782D02*
X6005070Y-62496782D01*
X6005070Y-62306306D01*
X6028880Y-62258687D01*
X6052689Y-62234878D01*
X6100308Y-62211068D01*
X6171737Y-62211068D01*
X6219356Y-62234878D01*
X6243165Y-62258687D01*
X6266975Y-62306306D01*
X6266975Y-62496782D01*
X6505070Y-61734878D02*
X6505070Y-62020592D01*
X6505070Y-61877735D02*
X6005070Y-61877735D01*
X6076499Y-61925354D01*
X6124118Y-61972973D01*
X6147927Y-62020592D01*
X6005070Y-61306306D02*
X6005070Y-61401544D01*
X6028880Y-61449163D01*
X6052689Y-61472973D01*
X6124118Y-61520592D01*
X6219356Y-61544401D01*
X6409832Y-61544401D01*
X6457451Y-61520592D01*
X6481260Y-61496782D01*
X6505070Y-61449163D01*
X6505070Y-61353925D01*
X6481260Y-61306306D01*
X6457451Y-61282497D01*
X6409832Y-61258687D01*
X6290784Y-61258687D01*
X6243165Y-61282497D01*
X6219356Y-61306306D01*
X6195546Y-61353925D01*
X6195546Y-61449163D01*
X6219356Y-61496782D01*
X6243165Y-61520592D01*
X6290784Y-61544401D01*
G04 #@! TO.C,J4*
D11*
X65502540Y-69959813D02*
X66216826Y-69959813D01*
X66359683Y-70007432D01*
X66454921Y-70102670D01*
X66502540Y-70245527D01*
X66502540Y-70340765D01*
X65835874Y-69055051D02*
X66502540Y-69055051D01*
X65454921Y-69293146D02*
X66169207Y-69531241D01*
X66169207Y-68912194D01*
G04 #@! TO.C,J3*
X65609220Y-61623533D02*
X66323506Y-61623533D01*
X66466363Y-61671152D01*
X66561601Y-61766390D01*
X66609220Y-61909247D01*
X66609220Y-62004485D01*
X65609220Y-61242580D02*
X65609220Y-60623533D01*
X65990173Y-60956866D01*
X65990173Y-60814009D01*
X66037792Y-60718771D01*
X66085411Y-60671152D01*
X66180649Y-60623533D01*
X66418744Y-60623533D01*
X66513982Y-60671152D01*
X66561601Y-60718771D01*
X66609220Y-60814009D01*
X66609220Y-61099723D01*
X66561601Y-61194961D01*
X66513982Y-61242580D01*
G04 #@! TO.C,U8*
X23820515Y-77066180D02*
X23820515Y-77875704D01*
X23868134Y-77970942D01*
X23915753Y-78018561D01*
X24010991Y-78066180D01*
X24201467Y-78066180D01*
X24296705Y-78018561D01*
X24344324Y-77970942D01*
X24391943Y-77875704D01*
X24391943Y-77066180D01*
X25010991Y-77494752D02*
X24915753Y-77447133D01*
X24868134Y-77399514D01*
X24820515Y-77304276D01*
X24820515Y-77256657D01*
X24868134Y-77161419D01*
X24915753Y-77113800D01*
X25010991Y-77066180D01*
X25201467Y-77066180D01*
X25296705Y-77113800D01*
X25344324Y-77161419D01*
X25391943Y-77256657D01*
X25391943Y-77304276D01*
X25344324Y-77399514D01*
X25296705Y-77447133D01*
X25201467Y-77494752D01*
X25010991Y-77494752D01*
X24915753Y-77542371D01*
X24868134Y-77589990D01*
X24820515Y-77685228D01*
X24820515Y-77875704D01*
X24868134Y-77970942D01*
X24915753Y-78018561D01*
X25010991Y-78066180D01*
X25201467Y-78066180D01*
X25296705Y-78018561D01*
X25344324Y-77970942D01*
X25391943Y-77875704D01*
X25391943Y-77685228D01*
X25344324Y-77589990D01*
X25296705Y-77542371D01*
X25201467Y-77494752D01*
G04 #@! TO.C,R51*
D15*
X48308390Y-24187268D02*
X48070295Y-24353935D01*
X48308390Y-24472982D02*
X47808390Y-24472982D01*
X47808390Y-24282506D01*
X47832200Y-24234887D01*
X47856009Y-24211078D01*
X47903628Y-24187268D01*
X47975057Y-24187268D01*
X48022676Y-24211078D01*
X48046485Y-24234887D01*
X48070295Y-24282506D01*
X48070295Y-24472982D01*
X47808390Y-23734887D02*
X47808390Y-23972982D01*
X48046485Y-23996792D01*
X48022676Y-23972982D01*
X47998866Y-23925363D01*
X47998866Y-23806316D01*
X48022676Y-23758697D01*
X48046485Y-23734887D01*
X48094104Y-23711078D01*
X48213152Y-23711078D01*
X48260771Y-23734887D01*
X48284580Y-23758697D01*
X48308390Y-23806316D01*
X48308390Y-23925363D01*
X48284580Y-23972982D01*
X48260771Y-23996792D01*
X48308390Y-23234887D02*
X48308390Y-23520601D01*
X48308390Y-23377744D02*
X47808390Y-23377744D01*
X47879819Y-23425363D01*
X47927438Y-23472982D01*
X47951247Y-23520601D01*
G04 #@! TO.C,C66*
D11*
X47286182Y-22911037D02*
X47333801Y-22958656D01*
X47381420Y-23101513D01*
X47381420Y-23196751D01*
X47333801Y-23339608D01*
X47238563Y-23434846D01*
X47143325Y-23482465D01*
X46952849Y-23530084D01*
X46809992Y-23530084D01*
X46619516Y-23482465D01*
X46524278Y-23434846D01*
X46429040Y-23339608D01*
X46381420Y-23196751D01*
X46381420Y-23101513D01*
X46429040Y-22958656D01*
X46476659Y-22911037D01*
X46381420Y-22053894D02*
X46381420Y-22244370D01*
X46429040Y-22339608D01*
X46476659Y-22387227D01*
X46619516Y-22482465D01*
X46809992Y-22530084D01*
X47190944Y-22530084D01*
X47286182Y-22482465D01*
X47333801Y-22434846D01*
X47381420Y-22339608D01*
X47381420Y-22149132D01*
X47333801Y-22053894D01*
X47286182Y-22006275D01*
X47190944Y-21958656D01*
X46952849Y-21958656D01*
X46857611Y-22006275D01*
X46809992Y-22053894D01*
X46762373Y-22149132D01*
X46762373Y-22339608D01*
X46809992Y-22434846D01*
X46857611Y-22482465D01*
X46952849Y-22530084D01*
X46381420Y-21101513D02*
X46381420Y-21291989D01*
X46429040Y-21387227D01*
X46476659Y-21434846D01*
X46619516Y-21530084D01*
X46809992Y-21577703D01*
X47190944Y-21577703D01*
X47286182Y-21530084D01*
X47333801Y-21482465D01*
X47381420Y-21387227D01*
X47381420Y-21196751D01*
X47333801Y-21101513D01*
X47286182Y-21053894D01*
X47190944Y-21006275D01*
X46952849Y-21006275D01*
X46857611Y-21053894D01*
X46809992Y-21101513D01*
X46762373Y-21196751D01*
X46762373Y-21387227D01*
X46809992Y-21482465D01*
X46857611Y-21530084D01*
X46952849Y-21577703D01*
G04 #@! TO.C,U4*
X38892575Y-27798780D02*
X38892575Y-28608304D01*
X38940194Y-28703542D01*
X38987813Y-28751161D01*
X39083051Y-28798780D01*
X39273527Y-28798780D01*
X39368765Y-28751161D01*
X39416384Y-28703542D01*
X39464003Y-28608304D01*
X39464003Y-27798780D01*
X40368765Y-28132114D02*
X40368765Y-28798780D01*
X40130670Y-27751161D02*
X39892575Y-28465447D01*
X40511622Y-28465447D01*
G04 #@! TO.C,R42*
D15*
X12297291Y-64089410D02*
X12130624Y-63851315D01*
X12011577Y-64089410D02*
X12011577Y-63589410D01*
X12202053Y-63589410D01*
X12249672Y-63613220D01*
X12273481Y-63637029D01*
X12297291Y-63684648D01*
X12297291Y-63756077D01*
X12273481Y-63803696D01*
X12249672Y-63827505D01*
X12202053Y-63851315D01*
X12011577Y-63851315D01*
X12725862Y-63756077D02*
X12725862Y-64089410D01*
X12606815Y-63565600D02*
X12487767Y-63922743D01*
X12797291Y-63922743D01*
X12963958Y-63637029D02*
X12987767Y-63613220D01*
X13035386Y-63589410D01*
X13154434Y-63589410D01*
X13202053Y-63613220D01*
X13225862Y-63637029D01*
X13249672Y-63684648D01*
X13249672Y-63732267D01*
X13225862Y-63803696D01*
X12940148Y-64089410D01*
X13249672Y-64089410D01*
G04 #@! TO.C,R22*
X25702390Y-52208408D02*
X25464295Y-52375075D01*
X25702390Y-52494122D02*
X25202390Y-52494122D01*
X25202390Y-52303646D01*
X25226200Y-52256027D01*
X25250009Y-52232218D01*
X25297628Y-52208408D01*
X25369057Y-52208408D01*
X25416676Y-52232218D01*
X25440485Y-52256027D01*
X25464295Y-52303646D01*
X25464295Y-52494122D01*
X25250009Y-52017932D02*
X25226200Y-51994122D01*
X25202390Y-51946503D01*
X25202390Y-51827456D01*
X25226200Y-51779837D01*
X25250009Y-51756027D01*
X25297628Y-51732218D01*
X25345247Y-51732218D01*
X25416676Y-51756027D01*
X25702390Y-52041741D01*
X25702390Y-51732218D01*
X25250009Y-51541741D02*
X25226200Y-51517932D01*
X25202390Y-51470313D01*
X25202390Y-51351265D01*
X25226200Y-51303646D01*
X25250009Y-51279837D01*
X25297628Y-51256027D01*
X25345247Y-51256027D01*
X25416676Y-51279837D01*
X25702390Y-51565551D01*
X25702390Y-51256027D01*
G04 #@! TO.C,R21*
X40653851Y-55080030D02*
X40487184Y-54841935D01*
X40368137Y-55080030D02*
X40368137Y-54580030D01*
X40558613Y-54580030D01*
X40606232Y-54603840D01*
X40630041Y-54627649D01*
X40653851Y-54675268D01*
X40653851Y-54746697D01*
X40630041Y-54794316D01*
X40606232Y-54818125D01*
X40558613Y-54841935D01*
X40368137Y-54841935D01*
X40844327Y-54627649D02*
X40868137Y-54603840D01*
X40915756Y-54580030D01*
X41034803Y-54580030D01*
X41082422Y-54603840D01*
X41106232Y-54627649D01*
X41130041Y-54675268D01*
X41130041Y-54722887D01*
X41106232Y-54794316D01*
X40820518Y-55080030D01*
X41130041Y-55080030D01*
X41606232Y-55080030D02*
X41320518Y-55080030D01*
X41463375Y-55080030D02*
X41463375Y-54580030D01*
X41415756Y-54651459D01*
X41368137Y-54699078D01*
X41320518Y-54722887D01*
G04 #@! TO.C,R17*
X16455271Y-37983290D02*
X16288604Y-37745195D01*
X16169557Y-37983290D02*
X16169557Y-37483290D01*
X16360033Y-37483290D01*
X16407652Y-37507100D01*
X16431461Y-37530909D01*
X16455271Y-37578528D01*
X16455271Y-37649957D01*
X16431461Y-37697576D01*
X16407652Y-37721385D01*
X16360033Y-37745195D01*
X16169557Y-37745195D01*
X16931461Y-37983290D02*
X16645747Y-37983290D01*
X16788604Y-37983290D02*
X16788604Y-37483290D01*
X16740985Y-37554719D01*
X16693366Y-37602338D01*
X16645747Y-37626147D01*
X17098128Y-37483290D02*
X17431461Y-37483290D01*
X17217176Y-37983290D01*
G04 #@! TO.C,R11*
X16366371Y-36929190D02*
X16199704Y-36691095D01*
X16080657Y-36929190D02*
X16080657Y-36429190D01*
X16271133Y-36429190D01*
X16318752Y-36453000D01*
X16342561Y-36476809D01*
X16366371Y-36524428D01*
X16366371Y-36595857D01*
X16342561Y-36643476D01*
X16318752Y-36667285D01*
X16271133Y-36691095D01*
X16080657Y-36691095D01*
X16842561Y-36929190D02*
X16556847Y-36929190D01*
X16699704Y-36929190D02*
X16699704Y-36429190D01*
X16652085Y-36500619D01*
X16604466Y-36548238D01*
X16556847Y-36572047D01*
X17318752Y-36929190D02*
X17033038Y-36929190D01*
X17175895Y-36929190D02*
X17175895Y-36429190D01*
X17128276Y-36500619D01*
X17080657Y-36548238D01*
X17033038Y-36572047D01*
G04 #@! TO.C,U3*
D11*
X55697215Y-82418940D02*
X55697215Y-83228464D01*
X55744834Y-83323702D01*
X55792453Y-83371321D01*
X55887691Y-83418940D01*
X56078167Y-83418940D01*
X56173405Y-83371321D01*
X56221024Y-83323702D01*
X56268643Y-83228464D01*
X56268643Y-82418940D01*
X56649596Y-82418940D02*
X57268643Y-82418940D01*
X56935310Y-82799893D01*
X57078167Y-82799893D01*
X57173405Y-82847512D01*
X57221024Y-82895131D01*
X57268643Y-82990369D01*
X57268643Y-83228464D01*
X57221024Y-83323702D01*
X57173405Y-83371321D01*
X57078167Y-83418940D01*
X56792453Y-83418940D01*
X56697215Y-83371321D01*
X56649596Y-83323702D01*
X61516319Y-73472433D02*
X61516319Y-74043861D01*
X60516319Y-73758147D02*
X61516319Y-73758147D01*
X60802033Y-74329576D02*
X60802033Y-74805766D01*
X60516319Y-74234338D02*
X61516319Y-74567671D01*
X60516319Y-74901004D01*
X60563938Y-75186719D02*
X60516319Y-75329576D01*
X60516319Y-75567671D01*
X60563938Y-75662909D01*
X60611557Y-75710528D01*
X60706795Y-75758147D01*
X60802033Y-75758147D01*
X60897271Y-75710528D01*
X60944890Y-75662909D01*
X60992509Y-75567671D01*
X61040128Y-75377195D01*
X61087747Y-75281957D01*
X61135366Y-75234338D01*
X61230604Y-75186719D01*
X61325842Y-75186719D01*
X61421080Y-75234338D01*
X61468700Y-75281957D01*
X61516319Y-75377195D01*
X61516319Y-75615290D01*
X61468700Y-75758147D01*
X61516319Y-76662909D02*
X61516319Y-76186719D01*
X61040128Y-76139100D01*
X61087747Y-76186719D01*
X61135366Y-76281957D01*
X61135366Y-76520052D01*
X61087747Y-76615290D01*
X61040128Y-76662909D01*
X60944890Y-76710528D01*
X60706795Y-76710528D01*
X60611557Y-76662909D01*
X60563938Y-76615290D01*
X60516319Y-76520052D01*
X60516319Y-76281957D01*
X60563938Y-76186719D01*
X60611557Y-76139100D01*
X61087747Y-77281957D02*
X61135366Y-77186719D01*
X61182985Y-77139100D01*
X61278223Y-77091480D01*
X61325842Y-77091480D01*
X61421080Y-77139100D01*
X61468700Y-77186719D01*
X61516319Y-77281957D01*
X61516319Y-77472433D01*
X61468700Y-77567671D01*
X61421080Y-77615290D01*
X61325842Y-77662909D01*
X61278223Y-77662909D01*
X61182985Y-77615290D01*
X61135366Y-77567671D01*
X61087747Y-77472433D01*
X61087747Y-77281957D01*
X61040128Y-77186719D01*
X60992509Y-77139100D01*
X60897271Y-77091480D01*
X60706795Y-77091480D01*
X60611557Y-77139100D01*
X60563938Y-77186719D01*
X60516319Y-77281957D01*
X60516319Y-77472433D01*
X60563938Y-77567671D01*
X60611557Y-77615290D01*
X60706795Y-77662909D01*
X60897271Y-77662909D01*
X60992509Y-77615290D01*
X61040128Y-77567671D01*
X61087747Y-77472433D01*
X61516319Y-78281957D02*
X61516319Y-78377195D01*
X61468700Y-78472433D01*
X61421080Y-78520052D01*
X61325842Y-78567671D01*
X61135366Y-78615290D01*
X60897271Y-78615290D01*
X60706795Y-78567671D01*
X60611557Y-78520052D01*
X60563938Y-78472433D01*
X60516319Y-78377195D01*
X60516319Y-78281957D01*
X60563938Y-78186719D01*
X60611557Y-78139100D01*
X60706795Y-78091480D01*
X60897271Y-78043861D01*
X61135366Y-78043861D01*
X61325842Y-78091480D01*
X61421080Y-78139100D01*
X61468700Y-78186719D01*
X61516319Y-78281957D01*
X61516319Y-79472433D02*
X61516319Y-79281957D01*
X61468700Y-79186719D01*
X61421080Y-79139100D01*
X61278223Y-79043861D01*
X61087747Y-78996242D01*
X60706795Y-78996242D01*
X60611557Y-79043861D01*
X60563938Y-79091480D01*
X60516319Y-79186719D01*
X60516319Y-79377195D01*
X60563938Y-79472433D01*
X60611557Y-79520052D01*
X60706795Y-79567671D01*
X60944890Y-79567671D01*
X61040128Y-79520052D01*
X61087747Y-79472433D01*
X61135366Y-79377195D01*
X61135366Y-79186719D01*
X61087747Y-79091480D01*
X61040128Y-79043861D01*
X60944890Y-78996242D01*
X60516319Y-79996242D02*
X61516319Y-79996242D01*
X60802033Y-80329576D01*
X61516319Y-80662909D01*
X60516319Y-80662909D01*
X60516319Y-81139100D02*
X61516319Y-81139100D01*
X61516319Y-81377195D01*
X61468700Y-81520052D01*
X61373461Y-81615290D01*
X61278223Y-81662909D01*
X61087747Y-81710528D01*
X60944890Y-81710528D01*
X60754414Y-81662909D01*
X60659176Y-81615290D01*
X60563938Y-81520052D01*
X60516319Y-81377195D01*
X60516319Y-81139100D01*
X56218700Y-76666480D02*
X56218700Y-76904576D01*
X55980604Y-76809338D02*
X56218700Y-76904576D01*
X56456795Y-76809338D01*
X56075842Y-77095052D02*
X56218700Y-76904576D01*
X56361557Y-77095052D01*
X56218700Y-76666480D02*
X56218700Y-76904576D01*
X55980604Y-76809338D02*
X56218700Y-76904576D01*
X56456795Y-76809338D01*
X56075842Y-77095052D02*
X56218700Y-76904576D01*
X56361557Y-77095052D01*
G04 #@! TO.C,L1*
X44483333Y-21102380D02*
X44007142Y-21102380D01*
X44007142Y-20102380D01*
X45340476Y-21102380D02*
X44769047Y-21102380D01*
X45054761Y-21102380D02*
X45054761Y-20102380D01*
X44959523Y-20245238D01*
X44864285Y-20340476D01*
X44769047Y-20388095D01*
G04 #@! TO.C,C65*
D15*
X45561131Y-84623411D02*
X45537321Y-84647220D01*
X45465893Y-84671030D01*
X45418274Y-84671030D01*
X45346845Y-84647220D01*
X45299226Y-84599601D01*
X45275417Y-84551982D01*
X45251607Y-84456744D01*
X45251607Y-84385316D01*
X45275417Y-84290078D01*
X45299226Y-84242459D01*
X45346845Y-84194840D01*
X45418274Y-84171030D01*
X45465893Y-84171030D01*
X45537321Y-84194840D01*
X45561131Y-84218649D01*
X45989702Y-84171030D02*
X45894464Y-84171030D01*
X45846845Y-84194840D01*
X45823036Y-84218649D01*
X45775417Y-84290078D01*
X45751607Y-84385316D01*
X45751607Y-84575792D01*
X45775417Y-84623411D01*
X45799226Y-84647220D01*
X45846845Y-84671030D01*
X45942083Y-84671030D01*
X45989702Y-84647220D01*
X46013512Y-84623411D01*
X46037321Y-84575792D01*
X46037321Y-84456744D01*
X46013512Y-84409125D01*
X45989702Y-84385316D01*
X45942083Y-84361506D01*
X45846845Y-84361506D01*
X45799226Y-84385316D01*
X45775417Y-84409125D01*
X45751607Y-84456744D01*
X46489702Y-84171030D02*
X46251607Y-84171030D01*
X46227798Y-84409125D01*
X46251607Y-84385316D01*
X46299226Y-84361506D01*
X46418274Y-84361506D01*
X46465893Y-84385316D01*
X46489702Y-84409125D01*
X46513512Y-84456744D01*
X46513512Y-84575792D01*
X46489702Y-84623411D01*
X46465893Y-84647220D01*
X46418274Y-84671030D01*
X46299226Y-84671030D01*
X46251607Y-84647220D01*
X46227798Y-84623411D01*
G04 #@! TO.C,C9*
X45728106Y-81651611D02*
X45704297Y-81675420D01*
X45632868Y-81699230D01*
X45585249Y-81699230D01*
X45513820Y-81675420D01*
X45466201Y-81627801D01*
X45442392Y-81580182D01*
X45418582Y-81484944D01*
X45418582Y-81413516D01*
X45442392Y-81318278D01*
X45466201Y-81270659D01*
X45513820Y-81223040D01*
X45585249Y-81199230D01*
X45632868Y-81199230D01*
X45704297Y-81223040D01*
X45728106Y-81246849D01*
X45966201Y-81699230D02*
X46061440Y-81699230D01*
X46109059Y-81675420D01*
X46132868Y-81651611D01*
X46180487Y-81580182D01*
X46204297Y-81484944D01*
X46204297Y-81294468D01*
X46180487Y-81246849D01*
X46156678Y-81223040D01*
X46109059Y-81199230D01*
X46013820Y-81199230D01*
X45966201Y-81223040D01*
X45942392Y-81246849D01*
X45918582Y-81294468D01*
X45918582Y-81413516D01*
X45942392Y-81461135D01*
X45966201Y-81484944D01*
X46013820Y-81508754D01*
X46109059Y-81508754D01*
X46156678Y-81484944D01*
X46180487Y-81461135D01*
X46204297Y-81413516D01*
G04 #@! TO.C,U2*
D11*
X34574575Y-85167220D02*
X34574575Y-85976744D01*
X34622194Y-86071982D01*
X34669813Y-86119601D01*
X34765051Y-86167220D01*
X34955527Y-86167220D01*
X35050765Y-86119601D01*
X35098384Y-86071982D01*
X35146003Y-85976744D01*
X35146003Y-85167220D01*
X35574575Y-85262459D02*
X35622194Y-85214840D01*
X35717432Y-85167220D01*
X35955527Y-85167220D01*
X36050765Y-85214840D01*
X36098384Y-85262459D01*
X36146003Y-85357697D01*
X36146003Y-85452935D01*
X36098384Y-85595792D01*
X35526956Y-86167220D01*
X36146003Y-86167220D01*
G04 #@! TO.C,R10*
D15*
X45971590Y-72940128D02*
X45733495Y-73106795D01*
X45971590Y-73225842D02*
X45471590Y-73225842D01*
X45471590Y-73035366D01*
X45495400Y-72987747D01*
X45519209Y-72963938D01*
X45566828Y-72940128D01*
X45638257Y-72940128D01*
X45685876Y-72963938D01*
X45709685Y-72987747D01*
X45733495Y-73035366D01*
X45733495Y-73225842D01*
X45971590Y-72463938D02*
X45971590Y-72749652D01*
X45971590Y-72606795D02*
X45471590Y-72606795D01*
X45543019Y-72654414D01*
X45590638Y-72702033D01*
X45614447Y-72749652D01*
X45471590Y-72154414D02*
X45471590Y-72106795D01*
X45495400Y-72059176D01*
X45519209Y-72035366D01*
X45566828Y-72011557D01*
X45662066Y-71987747D01*
X45781114Y-71987747D01*
X45876352Y-72011557D01*
X45923971Y-72035366D01*
X45947780Y-72059176D01*
X45971590Y-72106795D01*
X45971590Y-72154414D01*
X45947780Y-72202033D01*
X45923971Y-72225842D01*
X45876352Y-72249652D01*
X45781114Y-72273461D01*
X45662066Y-72273461D01*
X45566828Y-72249652D01*
X45519209Y-72225842D01*
X45495400Y-72202033D01*
X45471590Y-72154414D01*
G04 #@! TO.C,C2*
X45746171Y-68866533D02*
X45769980Y-68890342D01*
X45793790Y-68961771D01*
X45793790Y-69009390D01*
X45769980Y-69080819D01*
X45722361Y-69128438D01*
X45674742Y-69152247D01*
X45579504Y-69176057D01*
X45508076Y-69176057D01*
X45412838Y-69152247D01*
X45365219Y-69128438D01*
X45317600Y-69080819D01*
X45293790Y-69009390D01*
X45293790Y-68961771D01*
X45317600Y-68890342D01*
X45341409Y-68866533D01*
X45341409Y-68676057D02*
X45317600Y-68652247D01*
X45293790Y-68604628D01*
X45293790Y-68485580D01*
X45317600Y-68437961D01*
X45341409Y-68414152D01*
X45389028Y-68390342D01*
X45436647Y-68390342D01*
X45508076Y-68414152D01*
X45793790Y-68699866D01*
X45793790Y-68390342D01*
G04 #@! TO.C,R7*
X48928150Y-83964293D02*
X48690055Y-84130960D01*
X48928150Y-84250007D02*
X48428150Y-84250007D01*
X48428150Y-84059531D01*
X48451960Y-84011912D01*
X48475769Y-83988102D01*
X48523388Y-83964293D01*
X48594817Y-83964293D01*
X48642436Y-83988102D01*
X48666245Y-84011912D01*
X48690055Y-84059531D01*
X48690055Y-84250007D01*
X48428150Y-83797626D02*
X48428150Y-83464293D01*
X48928150Y-83678579D01*
G04 #@! TO.C,R6*
X51614890Y-75852433D02*
X51376795Y-76019100D01*
X51614890Y-76138147D02*
X51114890Y-76138147D01*
X51114890Y-75947671D01*
X51138700Y-75900052D01*
X51162509Y-75876242D01*
X51210128Y-75852433D01*
X51281557Y-75852433D01*
X51329176Y-75876242D01*
X51352985Y-75900052D01*
X51376795Y-75947671D01*
X51376795Y-76138147D01*
X51114890Y-75423861D02*
X51114890Y-75519100D01*
X51138700Y-75566719D01*
X51162509Y-75590528D01*
X51233938Y-75638147D01*
X51329176Y-75661957D01*
X51519652Y-75661957D01*
X51567271Y-75638147D01*
X51591080Y-75614338D01*
X51614890Y-75566719D01*
X51614890Y-75471480D01*
X51591080Y-75423861D01*
X51567271Y-75400052D01*
X51519652Y-75376242D01*
X51400604Y-75376242D01*
X51352985Y-75400052D01*
X51329176Y-75423861D01*
X51305366Y-75471480D01*
X51305366Y-75566719D01*
X51329176Y-75614338D01*
X51352985Y-75638147D01*
X51400604Y-75661957D01*
G04 #@! TO.C,C62*
X60613171Y-71768471D02*
X60589361Y-71792280D01*
X60517933Y-71816090D01*
X60470314Y-71816090D01*
X60398885Y-71792280D01*
X60351266Y-71744661D01*
X60327457Y-71697042D01*
X60303647Y-71601804D01*
X60303647Y-71530376D01*
X60327457Y-71435138D01*
X60351266Y-71387519D01*
X60398885Y-71339900D01*
X60470314Y-71316090D01*
X60517933Y-71316090D01*
X60589361Y-71339900D01*
X60613171Y-71363709D01*
X61041742Y-71316090D02*
X60946504Y-71316090D01*
X60898885Y-71339900D01*
X60875076Y-71363709D01*
X60827457Y-71435138D01*
X60803647Y-71530376D01*
X60803647Y-71720852D01*
X60827457Y-71768471D01*
X60851266Y-71792280D01*
X60898885Y-71816090D01*
X60994123Y-71816090D01*
X61041742Y-71792280D01*
X61065552Y-71768471D01*
X61089361Y-71720852D01*
X61089361Y-71601804D01*
X61065552Y-71554185D01*
X61041742Y-71530376D01*
X60994123Y-71506566D01*
X60898885Y-71506566D01*
X60851266Y-71530376D01*
X60827457Y-71554185D01*
X60803647Y-71601804D01*
X61279838Y-71363709D02*
X61303647Y-71339900D01*
X61351266Y-71316090D01*
X61470314Y-71316090D01*
X61517933Y-71339900D01*
X61541742Y-71363709D01*
X61565552Y-71411328D01*
X61565552Y-71458947D01*
X61541742Y-71530376D01*
X61256028Y-71816090D01*
X61565552Y-71816090D01*
G04 #@! TO.C,C39*
X54542571Y-71514471D02*
X54518761Y-71538280D01*
X54447333Y-71562090D01*
X54399714Y-71562090D01*
X54328285Y-71538280D01*
X54280666Y-71490661D01*
X54256857Y-71443042D01*
X54233047Y-71347804D01*
X54233047Y-71276376D01*
X54256857Y-71181138D01*
X54280666Y-71133519D01*
X54328285Y-71085900D01*
X54399714Y-71062090D01*
X54447333Y-71062090D01*
X54518761Y-71085900D01*
X54542571Y-71109709D01*
X54709238Y-71062090D02*
X55018761Y-71062090D01*
X54852095Y-71252566D01*
X54923523Y-71252566D01*
X54971142Y-71276376D01*
X54994952Y-71300185D01*
X55018761Y-71347804D01*
X55018761Y-71466852D01*
X54994952Y-71514471D01*
X54971142Y-71538280D01*
X54923523Y-71562090D01*
X54780666Y-71562090D01*
X54733047Y-71538280D01*
X54709238Y-71514471D01*
X55256857Y-71562090D02*
X55352095Y-71562090D01*
X55399714Y-71538280D01*
X55423523Y-71514471D01*
X55471142Y-71443042D01*
X55494952Y-71347804D01*
X55494952Y-71157328D01*
X55471142Y-71109709D01*
X55447333Y-71085900D01*
X55399714Y-71062090D01*
X55304476Y-71062090D01*
X55256857Y-71085900D01*
X55233047Y-71109709D01*
X55209238Y-71157328D01*
X55209238Y-71276376D01*
X55233047Y-71323995D01*
X55256857Y-71347804D01*
X55304476Y-71371614D01*
X55399714Y-71371614D01*
X55447333Y-71347804D01*
X55471142Y-71323995D01*
X55494952Y-71276376D01*
G04 #@! TO.C,C38*
X56417091Y-63201051D02*
X56393281Y-63224860D01*
X56321853Y-63248670D01*
X56274234Y-63248670D01*
X56202805Y-63224860D01*
X56155186Y-63177241D01*
X56131377Y-63129622D01*
X56107567Y-63034384D01*
X56107567Y-62962956D01*
X56131377Y-62867718D01*
X56155186Y-62820099D01*
X56202805Y-62772480D01*
X56274234Y-62748670D01*
X56321853Y-62748670D01*
X56393281Y-62772480D01*
X56417091Y-62796289D01*
X56583758Y-62748670D02*
X56893281Y-62748670D01*
X56726615Y-62939146D01*
X56798043Y-62939146D01*
X56845662Y-62962956D01*
X56869472Y-62986765D01*
X56893281Y-63034384D01*
X56893281Y-63153432D01*
X56869472Y-63201051D01*
X56845662Y-63224860D01*
X56798043Y-63248670D01*
X56655186Y-63248670D01*
X56607567Y-63224860D01*
X56583758Y-63201051D01*
X57178996Y-62962956D02*
X57131377Y-62939146D01*
X57107567Y-62915337D01*
X57083758Y-62867718D01*
X57083758Y-62843908D01*
X57107567Y-62796289D01*
X57131377Y-62772480D01*
X57178996Y-62748670D01*
X57274234Y-62748670D01*
X57321853Y-62772480D01*
X57345662Y-62796289D01*
X57369472Y-62843908D01*
X57369472Y-62867718D01*
X57345662Y-62915337D01*
X57321853Y-62939146D01*
X57274234Y-62962956D01*
X57178996Y-62962956D01*
X57131377Y-62986765D01*
X57107567Y-63010575D01*
X57083758Y-63058194D01*
X57083758Y-63153432D01*
X57107567Y-63201051D01*
X57131377Y-63224860D01*
X57178996Y-63248670D01*
X57274234Y-63248670D01*
X57321853Y-63224860D01*
X57345662Y-63201051D01*
X57369472Y-63153432D01*
X57369472Y-63058194D01*
X57345662Y-63010575D01*
X57321853Y-62986765D01*
X57274234Y-62962956D01*
G04 #@! TO.C,C27*
X58659851Y-54803811D02*
X58636041Y-54827620D01*
X58564613Y-54851430D01*
X58516994Y-54851430D01*
X58445565Y-54827620D01*
X58397946Y-54780001D01*
X58374137Y-54732382D01*
X58350327Y-54637144D01*
X58350327Y-54565716D01*
X58374137Y-54470478D01*
X58397946Y-54422859D01*
X58445565Y-54375240D01*
X58516994Y-54351430D01*
X58564613Y-54351430D01*
X58636041Y-54375240D01*
X58659851Y-54399049D01*
X58850327Y-54399049D02*
X58874137Y-54375240D01*
X58921756Y-54351430D01*
X59040803Y-54351430D01*
X59088422Y-54375240D01*
X59112232Y-54399049D01*
X59136041Y-54446668D01*
X59136041Y-54494287D01*
X59112232Y-54565716D01*
X58826518Y-54851430D01*
X59136041Y-54851430D01*
X59302708Y-54351430D02*
X59636041Y-54351430D01*
X59421756Y-54851430D01*
G04 #@! TO.C,C26*
X52839111Y-70554868D02*
X52862920Y-70578678D01*
X52886730Y-70650106D01*
X52886730Y-70697725D01*
X52862920Y-70769154D01*
X52815301Y-70816773D01*
X52767682Y-70840582D01*
X52672444Y-70864392D01*
X52601016Y-70864392D01*
X52505778Y-70840582D01*
X52458159Y-70816773D01*
X52410540Y-70769154D01*
X52386730Y-70697725D01*
X52386730Y-70650106D01*
X52410540Y-70578678D01*
X52434349Y-70554868D01*
X52434349Y-70364392D02*
X52410540Y-70340582D01*
X52386730Y-70292963D01*
X52386730Y-70173916D01*
X52410540Y-70126297D01*
X52434349Y-70102487D01*
X52481968Y-70078678D01*
X52529587Y-70078678D01*
X52601016Y-70102487D01*
X52886730Y-70388201D01*
X52886730Y-70078678D01*
X52386730Y-69650106D02*
X52386730Y-69745344D01*
X52410540Y-69792963D01*
X52434349Y-69816773D01*
X52505778Y-69864392D01*
X52601016Y-69888201D01*
X52791492Y-69888201D01*
X52839111Y-69864392D01*
X52862920Y-69840582D01*
X52886730Y-69792963D01*
X52886730Y-69697725D01*
X52862920Y-69650106D01*
X52839111Y-69626297D01*
X52791492Y-69602487D01*
X52672444Y-69602487D01*
X52624825Y-69626297D01*
X52601016Y-69650106D01*
X52577206Y-69697725D01*
X52577206Y-69792963D01*
X52601016Y-69840582D01*
X52624825Y-69864392D01*
X52672444Y-69888201D01*
G04 #@! TO.C,C25*
X52863691Y-58207608D02*
X52887500Y-58231418D01*
X52911310Y-58302846D01*
X52911310Y-58350465D01*
X52887500Y-58421894D01*
X52839881Y-58469513D01*
X52792262Y-58493322D01*
X52697024Y-58517132D01*
X52625596Y-58517132D01*
X52530358Y-58493322D01*
X52482739Y-58469513D01*
X52435120Y-58421894D01*
X52411310Y-58350465D01*
X52411310Y-58302846D01*
X52435120Y-58231418D01*
X52458929Y-58207608D01*
X52458929Y-58017132D02*
X52435120Y-57993322D01*
X52411310Y-57945703D01*
X52411310Y-57826656D01*
X52435120Y-57779037D01*
X52458929Y-57755227D01*
X52506548Y-57731418D01*
X52554167Y-57731418D01*
X52625596Y-57755227D01*
X52911310Y-58040941D01*
X52911310Y-57731418D01*
X52411310Y-57279037D02*
X52411310Y-57517132D01*
X52649405Y-57540941D01*
X52625596Y-57517132D01*
X52601786Y-57469513D01*
X52601786Y-57350465D01*
X52625596Y-57302846D01*
X52649405Y-57279037D01*
X52697024Y-57255227D01*
X52816072Y-57255227D01*
X52863691Y-57279037D01*
X52887500Y-57302846D01*
X52911310Y-57350465D01*
X52911310Y-57469513D01*
X52887500Y-57517132D01*
X52863691Y-57540941D01*
G04 #@! TO.C,C24*
X65085731Y-80062188D02*
X65109540Y-80085998D01*
X65133350Y-80157426D01*
X65133350Y-80205045D01*
X65109540Y-80276474D01*
X65061921Y-80324093D01*
X65014302Y-80347902D01*
X64919064Y-80371712D01*
X64847636Y-80371712D01*
X64752398Y-80347902D01*
X64704779Y-80324093D01*
X64657160Y-80276474D01*
X64633350Y-80205045D01*
X64633350Y-80157426D01*
X64657160Y-80085998D01*
X64680969Y-80062188D01*
X64680969Y-79871712D02*
X64657160Y-79847902D01*
X64633350Y-79800283D01*
X64633350Y-79681236D01*
X64657160Y-79633617D01*
X64680969Y-79609807D01*
X64728588Y-79585998D01*
X64776207Y-79585998D01*
X64847636Y-79609807D01*
X65133350Y-79895521D01*
X65133350Y-79585998D01*
X64800017Y-79157426D02*
X65133350Y-79157426D01*
X64609540Y-79276474D02*
X64966683Y-79395521D01*
X64966683Y-79085998D01*
G04 #@! TO.C,C23*
X52825491Y-67119988D02*
X52849300Y-67143798D01*
X52873110Y-67215226D01*
X52873110Y-67262845D01*
X52849300Y-67334274D01*
X52801681Y-67381893D01*
X52754062Y-67405702D01*
X52658824Y-67429512D01*
X52587396Y-67429512D01*
X52492158Y-67405702D01*
X52444539Y-67381893D01*
X52396920Y-67334274D01*
X52373110Y-67262845D01*
X52373110Y-67215226D01*
X52396920Y-67143798D01*
X52420729Y-67119988D01*
X52420729Y-66929512D02*
X52396920Y-66905702D01*
X52373110Y-66858083D01*
X52373110Y-66739036D01*
X52396920Y-66691417D01*
X52420729Y-66667607D01*
X52468348Y-66643798D01*
X52515967Y-66643798D01*
X52587396Y-66667607D01*
X52873110Y-66953321D01*
X52873110Y-66643798D01*
X52373110Y-66477131D02*
X52373110Y-66167607D01*
X52563586Y-66334274D01*
X52563586Y-66262845D01*
X52587396Y-66215226D01*
X52611205Y-66191417D01*
X52658824Y-66167607D01*
X52777872Y-66167607D01*
X52825491Y-66191417D01*
X52849300Y-66215226D01*
X52873110Y-66262845D01*
X52873110Y-66405702D01*
X52849300Y-66453321D01*
X52825491Y-66477131D01*
G04 #@! TO.C,C22*
X52864911Y-61458728D02*
X52888720Y-61482538D01*
X52912530Y-61553966D01*
X52912530Y-61601585D01*
X52888720Y-61673014D01*
X52841101Y-61720633D01*
X52793482Y-61744442D01*
X52698244Y-61768252D01*
X52626816Y-61768252D01*
X52531578Y-61744442D01*
X52483959Y-61720633D01*
X52436340Y-61673014D01*
X52412530Y-61601585D01*
X52412530Y-61553966D01*
X52436340Y-61482538D01*
X52460149Y-61458728D01*
X52460149Y-61268252D02*
X52436340Y-61244442D01*
X52412530Y-61196823D01*
X52412530Y-61077776D01*
X52436340Y-61030157D01*
X52460149Y-61006347D01*
X52507768Y-60982538D01*
X52555387Y-60982538D01*
X52626816Y-61006347D01*
X52912530Y-61292061D01*
X52912530Y-60982538D01*
X52460149Y-60792061D02*
X52436340Y-60768252D01*
X52412530Y-60720633D01*
X52412530Y-60601585D01*
X52436340Y-60553966D01*
X52460149Y-60530157D01*
X52507768Y-60506347D01*
X52555387Y-60506347D01*
X52626816Y-60530157D01*
X52912530Y-60815871D01*
X52912530Y-60506347D01*
G04 #@! TO.C,C21*
X63048651Y-80097748D02*
X63072460Y-80121558D01*
X63096270Y-80192986D01*
X63096270Y-80240605D01*
X63072460Y-80312034D01*
X63024841Y-80359653D01*
X62977222Y-80383462D01*
X62881984Y-80407272D01*
X62810556Y-80407272D01*
X62715318Y-80383462D01*
X62667699Y-80359653D01*
X62620080Y-80312034D01*
X62596270Y-80240605D01*
X62596270Y-80192986D01*
X62620080Y-80121558D01*
X62643889Y-80097748D01*
X62643889Y-79907272D02*
X62620080Y-79883462D01*
X62596270Y-79835843D01*
X62596270Y-79716796D01*
X62620080Y-79669177D01*
X62643889Y-79645367D01*
X62691508Y-79621558D01*
X62739127Y-79621558D01*
X62810556Y-79645367D01*
X63096270Y-79931081D01*
X63096270Y-79621558D01*
X63096270Y-79145367D02*
X63096270Y-79431081D01*
X63096270Y-79288224D02*
X62596270Y-79288224D01*
X62667699Y-79335843D01*
X62715318Y-79383462D01*
X62739127Y-79431081D01*
G04 #@! TO.C,C20*
X58698571Y-9928571D02*
X58674761Y-9952380D01*
X58603333Y-9976190D01*
X58555714Y-9976190D01*
X58484285Y-9952380D01*
X58436666Y-9904761D01*
X58412857Y-9857142D01*
X58389047Y-9761904D01*
X58389047Y-9690476D01*
X58412857Y-9595238D01*
X58436666Y-9547619D01*
X58484285Y-9500000D01*
X58555714Y-9476190D01*
X58603333Y-9476190D01*
X58674761Y-9500000D01*
X58698571Y-9523809D01*
X58889047Y-9523809D02*
X58912857Y-9500000D01*
X58960476Y-9476190D01*
X59079523Y-9476190D01*
X59127142Y-9500000D01*
X59150952Y-9523809D01*
X59174761Y-9571428D01*
X59174761Y-9619047D01*
X59150952Y-9690476D01*
X58865238Y-9976190D01*
X59174761Y-9976190D01*
X59484285Y-9476190D02*
X59531904Y-9476190D01*
X59579523Y-9500000D01*
X59603333Y-9523809D01*
X59627142Y-9571428D01*
X59650952Y-9666666D01*
X59650952Y-9785714D01*
X59627142Y-9880952D01*
X59603333Y-9928571D01*
X59579523Y-9952380D01*
X59531904Y-9976190D01*
X59484285Y-9976190D01*
X59436666Y-9952380D01*
X59412857Y-9928571D01*
X59389047Y-9880952D01*
X59365238Y-9785714D01*
X59365238Y-9666666D01*
X59389047Y-9571428D01*
X59412857Y-9523809D01*
X59436666Y-9500000D01*
X59484285Y-9476190D01*
G04 #@! TO.C,C19*
X58662451Y-8255771D02*
X58638641Y-8279580D01*
X58567213Y-8303390D01*
X58519594Y-8303390D01*
X58448165Y-8279580D01*
X58400546Y-8231961D01*
X58376737Y-8184342D01*
X58352927Y-8089104D01*
X58352927Y-8017676D01*
X58376737Y-7922438D01*
X58400546Y-7874819D01*
X58448165Y-7827200D01*
X58519594Y-7803390D01*
X58567213Y-7803390D01*
X58638641Y-7827200D01*
X58662451Y-7851009D01*
X59138641Y-8303390D02*
X58852927Y-8303390D01*
X58995784Y-8303390D02*
X58995784Y-7803390D01*
X58948165Y-7874819D01*
X58900546Y-7922438D01*
X58852927Y-7946247D01*
X59376737Y-8303390D02*
X59471975Y-8303390D01*
X59519594Y-8279580D01*
X59543403Y-8255771D01*
X59591022Y-8184342D01*
X59614832Y-8089104D01*
X59614832Y-7898628D01*
X59591022Y-7851009D01*
X59567213Y-7827200D01*
X59519594Y-7803390D01*
X59424356Y-7803390D01*
X59376737Y-7827200D01*
X59352927Y-7851009D01*
X59329118Y-7898628D01*
X59329118Y-8017676D01*
X59352927Y-8065295D01*
X59376737Y-8089104D01*
X59424356Y-8112914D01*
X59519594Y-8112914D01*
X59567213Y-8089104D01*
X59591022Y-8065295D01*
X59614832Y-8017676D01*
G04 #@! TO.C,C18*
X64821571Y-72061188D02*
X64845380Y-72084998D01*
X64869190Y-72156426D01*
X64869190Y-72204045D01*
X64845380Y-72275474D01*
X64797761Y-72323093D01*
X64750142Y-72346902D01*
X64654904Y-72370712D01*
X64583476Y-72370712D01*
X64488238Y-72346902D01*
X64440619Y-72323093D01*
X64393000Y-72275474D01*
X64369190Y-72204045D01*
X64369190Y-72156426D01*
X64393000Y-72084998D01*
X64416809Y-72061188D01*
X64869190Y-71584998D02*
X64869190Y-71870712D01*
X64869190Y-71727855D02*
X64369190Y-71727855D01*
X64440619Y-71775474D01*
X64488238Y-71823093D01*
X64512047Y-71870712D01*
X64583476Y-71299283D02*
X64559666Y-71346902D01*
X64535857Y-71370712D01*
X64488238Y-71394521D01*
X64464428Y-71394521D01*
X64416809Y-71370712D01*
X64393000Y-71346902D01*
X64369190Y-71299283D01*
X64369190Y-71204045D01*
X64393000Y-71156426D01*
X64416809Y-71132617D01*
X64464428Y-71108807D01*
X64488238Y-71108807D01*
X64535857Y-71132617D01*
X64559666Y-71156426D01*
X64583476Y-71204045D01*
X64583476Y-71299283D01*
X64607285Y-71346902D01*
X64631095Y-71370712D01*
X64678714Y-71394521D01*
X64773952Y-71394521D01*
X64821571Y-71370712D01*
X64845380Y-71346902D01*
X64869190Y-71299283D01*
X64869190Y-71204045D01*
X64845380Y-71156426D01*
X64821571Y-71132617D01*
X64773952Y-71108807D01*
X64678714Y-71108807D01*
X64631095Y-71132617D01*
X64607285Y-71156426D01*
X64583476Y-71204045D01*
G04 #@! TO.C,C17*
X58880891Y-11527291D02*
X58857081Y-11551100D01*
X58785653Y-11574910D01*
X58738034Y-11574910D01*
X58666605Y-11551100D01*
X58618986Y-11503481D01*
X58595177Y-11455862D01*
X58571367Y-11360624D01*
X58571367Y-11289196D01*
X58595177Y-11193958D01*
X58618986Y-11146339D01*
X58666605Y-11098720D01*
X58738034Y-11074910D01*
X58785653Y-11074910D01*
X58857081Y-11098720D01*
X58880891Y-11122529D01*
X59357081Y-11574910D02*
X59071367Y-11574910D01*
X59214224Y-11574910D02*
X59214224Y-11074910D01*
X59166605Y-11146339D01*
X59118986Y-11193958D01*
X59071367Y-11217767D01*
X59523748Y-11074910D02*
X59857081Y-11074910D01*
X59642796Y-11574910D01*
G04 #@! TO.C,C16*
X48607271Y-79570528D02*
X48631080Y-79594338D01*
X48654890Y-79665766D01*
X48654890Y-79713385D01*
X48631080Y-79784814D01*
X48583461Y-79832433D01*
X48535842Y-79856242D01*
X48440604Y-79880052D01*
X48369176Y-79880052D01*
X48273938Y-79856242D01*
X48226319Y-79832433D01*
X48178700Y-79784814D01*
X48154890Y-79713385D01*
X48154890Y-79665766D01*
X48178700Y-79594338D01*
X48202509Y-79570528D01*
X48654890Y-79094338D02*
X48654890Y-79380052D01*
X48654890Y-79237195D02*
X48154890Y-79237195D01*
X48226319Y-79284814D01*
X48273938Y-79332433D01*
X48297747Y-79380052D01*
X48154890Y-78665766D02*
X48154890Y-78761004D01*
X48178700Y-78808623D01*
X48202509Y-78832433D01*
X48273938Y-78880052D01*
X48369176Y-78903861D01*
X48559652Y-78903861D01*
X48607271Y-78880052D01*
X48631080Y-78856242D01*
X48654890Y-78808623D01*
X48654890Y-78713385D01*
X48631080Y-78665766D01*
X48607271Y-78641957D01*
X48559652Y-78618147D01*
X48440604Y-78618147D01*
X48392985Y-78641957D01*
X48369176Y-78665766D01*
X48345366Y-78713385D01*
X48345366Y-78808623D01*
X48369176Y-78856242D01*
X48392985Y-78880052D01*
X48440604Y-78903861D01*
G04 #@! TO.C,C15*
X62477551Y-75119328D02*
X62501360Y-75143138D01*
X62525170Y-75214566D01*
X62525170Y-75262185D01*
X62501360Y-75333614D01*
X62453741Y-75381233D01*
X62406122Y-75405042D01*
X62310884Y-75428852D01*
X62239456Y-75428852D01*
X62144218Y-75405042D01*
X62096599Y-75381233D01*
X62048980Y-75333614D01*
X62025170Y-75262185D01*
X62025170Y-75214566D01*
X62048980Y-75143138D01*
X62072789Y-75119328D01*
X62525170Y-74643138D02*
X62525170Y-74928852D01*
X62525170Y-74785995D02*
X62025170Y-74785995D01*
X62096599Y-74833614D01*
X62144218Y-74881233D01*
X62168027Y-74928852D01*
X62025170Y-74190757D02*
X62025170Y-74428852D01*
X62263265Y-74452661D01*
X62239456Y-74428852D01*
X62215646Y-74381233D01*
X62215646Y-74262185D01*
X62239456Y-74214566D01*
X62263265Y-74190757D01*
X62310884Y-74166947D01*
X62429932Y-74166947D01*
X62477551Y-74190757D01*
X62501360Y-74214566D01*
X62525170Y-74262185D01*
X62525170Y-74381233D01*
X62501360Y-74428852D01*
X62477551Y-74452661D01*
G04 #@! TO.C,C14*
X66057271Y-74275528D02*
X66081080Y-74299338D01*
X66104890Y-74370766D01*
X66104890Y-74418385D01*
X66081080Y-74489814D01*
X66033461Y-74537433D01*
X65985842Y-74561242D01*
X65890604Y-74585052D01*
X65819176Y-74585052D01*
X65723938Y-74561242D01*
X65676319Y-74537433D01*
X65628700Y-74489814D01*
X65604890Y-74418385D01*
X65604890Y-74370766D01*
X65628700Y-74299338D01*
X65652509Y-74275528D01*
X66104890Y-73799338D02*
X66104890Y-74085052D01*
X66104890Y-73942195D02*
X65604890Y-73942195D01*
X65676319Y-73989814D01*
X65723938Y-74037433D01*
X65747747Y-74085052D01*
X65771557Y-73370766D02*
X66104890Y-73370766D01*
X65581080Y-73489814D02*
X65938223Y-73608861D01*
X65938223Y-73299338D01*
G04 #@! TO.C,C13*
X64872371Y-74276068D02*
X64896180Y-74299878D01*
X64919990Y-74371306D01*
X64919990Y-74418925D01*
X64896180Y-74490354D01*
X64848561Y-74537973D01*
X64800942Y-74561782D01*
X64705704Y-74585592D01*
X64634276Y-74585592D01*
X64539038Y-74561782D01*
X64491419Y-74537973D01*
X64443800Y-74490354D01*
X64419990Y-74418925D01*
X64419990Y-74371306D01*
X64443800Y-74299878D01*
X64467609Y-74276068D01*
X64919990Y-73799878D02*
X64919990Y-74085592D01*
X64919990Y-73942735D02*
X64419990Y-73942735D01*
X64491419Y-73990354D01*
X64539038Y-74037973D01*
X64562847Y-74085592D01*
X64419990Y-73633211D02*
X64419990Y-73323687D01*
X64610466Y-73490354D01*
X64610466Y-73418925D01*
X64634276Y-73371306D01*
X64658085Y-73347497D01*
X64705704Y-73323687D01*
X64824752Y-73323687D01*
X64872371Y-73347497D01*
X64896180Y-73371306D01*
X64919990Y-73418925D01*
X64919990Y-73561782D01*
X64896180Y-73609401D01*
X64872371Y-73633211D01*
G04 #@! TO.C,C12*
X51587271Y-83430528D02*
X51611080Y-83454338D01*
X51634890Y-83525766D01*
X51634890Y-83573385D01*
X51611080Y-83644814D01*
X51563461Y-83692433D01*
X51515842Y-83716242D01*
X51420604Y-83740052D01*
X51349176Y-83740052D01*
X51253938Y-83716242D01*
X51206319Y-83692433D01*
X51158700Y-83644814D01*
X51134890Y-83573385D01*
X51134890Y-83525766D01*
X51158700Y-83454338D01*
X51182509Y-83430528D01*
X51634890Y-82954338D02*
X51634890Y-83240052D01*
X51634890Y-83097195D02*
X51134890Y-83097195D01*
X51206319Y-83144814D01*
X51253938Y-83192433D01*
X51277747Y-83240052D01*
X51182509Y-82763861D02*
X51158700Y-82740052D01*
X51134890Y-82692433D01*
X51134890Y-82573385D01*
X51158700Y-82525766D01*
X51182509Y-82501957D01*
X51230128Y-82478147D01*
X51277747Y-82478147D01*
X51349176Y-82501957D01*
X51634890Y-82787671D01*
X51634890Y-82478147D01*
G04 #@! TO.C,C11*
X50437271Y-75870528D02*
X50461080Y-75894338D01*
X50484890Y-75965766D01*
X50484890Y-76013385D01*
X50461080Y-76084814D01*
X50413461Y-76132433D01*
X50365842Y-76156242D01*
X50270604Y-76180052D01*
X50199176Y-76180052D01*
X50103938Y-76156242D01*
X50056319Y-76132433D01*
X50008700Y-76084814D01*
X49984890Y-76013385D01*
X49984890Y-75965766D01*
X50008700Y-75894338D01*
X50032509Y-75870528D01*
X50484890Y-75394338D02*
X50484890Y-75680052D01*
X50484890Y-75537195D02*
X49984890Y-75537195D01*
X50056319Y-75584814D01*
X50103938Y-75632433D01*
X50127747Y-75680052D01*
X50484890Y-74918147D02*
X50484890Y-75203861D01*
X50484890Y-75061004D02*
X49984890Y-75061004D01*
X50056319Y-75108623D01*
X50103938Y-75156242D01*
X50127747Y-75203861D01*
G04 #@! TO.C,R57*
D11*
X52626500Y-87835977D02*
X52150310Y-88169310D01*
X52626500Y-88407405D02*
X51626500Y-88407405D01*
X51626500Y-88026453D01*
X51674120Y-87931215D01*
X51721739Y-87883596D01*
X51816977Y-87835977D01*
X51959834Y-87835977D01*
X52055072Y-87883596D01*
X52102691Y-87931215D01*
X52150310Y-88026453D01*
X52150310Y-88407405D01*
X51626500Y-86931215D02*
X51626500Y-87407405D01*
X52102691Y-87455024D01*
X52055072Y-87407405D01*
X52007453Y-87312167D01*
X52007453Y-87074072D01*
X52055072Y-86978834D01*
X52102691Y-86931215D01*
X52197929Y-86883596D01*
X52436024Y-86883596D01*
X52531262Y-86931215D01*
X52578881Y-86978834D01*
X52626500Y-87074072D01*
X52626500Y-87312167D01*
X52578881Y-87407405D01*
X52531262Y-87455024D01*
X51626500Y-86550262D02*
X51626500Y-85883596D01*
X52626500Y-86312167D01*
G04 #@! TO.C,R15*
D15*
X15401171Y-41272590D02*
X15234504Y-41034495D01*
X15115457Y-41272590D02*
X15115457Y-40772590D01*
X15305933Y-40772590D01*
X15353552Y-40796400D01*
X15377361Y-40820209D01*
X15401171Y-40867828D01*
X15401171Y-40939257D01*
X15377361Y-40986876D01*
X15353552Y-41010685D01*
X15305933Y-41034495D01*
X15115457Y-41034495D01*
X15877361Y-41272590D02*
X15591647Y-41272590D01*
X15734504Y-41272590D02*
X15734504Y-40772590D01*
X15686885Y-40844019D01*
X15639266Y-40891638D01*
X15591647Y-40915447D01*
X16329742Y-40772590D02*
X16091647Y-40772590D01*
X16067838Y-41010685D01*
X16091647Y-40986876D01*
X16139266Y-40963066D01*
X16258314Y-40963066D01*
X16305933Y-40986876D01*
X16329742Y-41010685D01*
X16353552Y-41058304D01*
X16353552Y-41177352D01*
X16329742Y-41224971D01*
X16305933Y-41248780D01*
X16258314Y-41272590D01*
X16139266Y-41272590D01*
X16091647Y-41248780D01*
X16067838Y-41224971D01*
G04 #@! TO.C,R14*
X15448071Y-39735890D02*
X15281404Y-39497795D01*
X15162357Y-39735890D02*
X15162357Y-39235890D01*
X15352833Y-39235890D01*
X15400452Y-39259700D01*
X15424261Y-39283509D01*
X15448071Y-39331128D01*
X15448071Y-39402557D01*
X15424261Y-39450176D01*
X15400452Y-39473985D01*
X15352833Y-39497795D01*
X15162357Y-39497795D01*
X15924261Y-39735890D02*
X15638547Y-39735890D01*
X15781404Y-39735890D02*
X15781404Y-39235890D01*
X15733785Y-39307319D01*
X15686166Y-39354938D01*
X15638547Y-39378747D01*
X16352833Y-39402557D02*
X16352833Y-39735890D01*
X16233785Y-39212080D02*
X16114738Y-39569223D01*
X16424261Y-39569223D01*
G04 #@! TO.C,H4*
D11*
X12713095Y-97552380D02*
X12713095Y-96552380D01*
X12713095Y-97028571D02*
X13284523Y-97028571D01*
X13284523Y-97552380D02*
X13284523Y-96552380D01*
X14189285Y-96885714D02*
X14189285Y-97552380D01*
X13951190Y-96504761D02*
X13713095Y-97219047D01*
X14332142Y-97219047D01*
G04 #@! TO.C,H3*
X12738095Y-1452380D02*
X12738095Y-452380D01*
X12738095Y-928571D02*
X13309523Y-928571D01*
X13309523Y-1452380D02*
X13309523Y-452380D01*
X13690476Y-452380D02*
X14309523Y-452380D01*
X13976190Y-833333D01*
X14119047Y-833333D01*
X14214285Y-880952D01*
X14261904Y-928571D01*
X14309523Y-1023809D01*
X14309523Y-1261904D01*
X14261904Y-1357142D01*
X14214285Y-1404761D01*
X14119047Y-1452380D01*
X13833333Y-1452380D01*
X13738095Y-1404761D01*
X13690476Y-1357142D01*
G04 #@! TO.C,H2*
X61238095Y-97502380D02*
X61238095Y-96502380D01*
X61238095Y-96978571D02*
X61809523Y-96978571D01*
X61809523Y-97502380D02*
X61809523Y-96502380D01*
X62238095Y-96597619D02*
X62285714Y-96550000D01*
X62380952Y-96502380D01*
X62619047Y-96502380D01*
X62714285Y-96550000D01*
X62761904Y-96597619D01*
X62809523Y-96692857D01*
X62809523Y-96788095D01*
X62761904Y-96930952D01*
X62190476Y-97502380D01*
X62809523Y-97502380D01*
G04 #@! TO.C,H1*
X61159475Y-1452380D02*
X61159475Y-452380D01*
X61159475Y-928571D02*
X61730903Y-928571D01*
X61730903Y-1452380D02*
X61730903Y-452380D01*
X62730903Y-1452380D02*
X62159475Y-1452380D01*
X62445189Y-1452380D02*
X62445189Y-452380D01*
X62349951Y-595238D01*
X62254713Y-690476D01*
X62159475Y-738095D01*
G04 #@! TO.C,Q3*
X50372259Y-37727878D02*
X50324640Y-37823116D01*
X50229401Y-37918354D01*
X50086544Y-38061211D01*
X50038925Y-38156449D01*
X50038925Y-38251687D01*
X50277020Y-38204068D02*
X50229401Y-38299306D01*
X50134163Y-38394544D01*
X49943687Y-38442163D01*
X49610354Y-38442163D01*
X49419878Y-38394544D01*
X49324640Y-38299306D01*
X49277020Y-38204068D01*
X49277020Y-38013592D01*
X49324640Y-37918354D01*
X49419878Y-37823116D01*
X49610354Y-37775497D01*
X49943687Y-37775497D01*
X50134163Y-37823116D01*
X50229401Y-37918354D01*
X50277020Y-38013592D01*
X50277020Y-38204068D01*
X49277020Y-37442163D02*
X49277020Y-36823116D01*
X49657973Y-37156449D01*
X49657973Y-37013592D01*
X49705592Y-36918354D01*
X49753211Y-36870735D01*
X49848449Y-36823116D01*
X50086544Y-36823116D01*
X50181782Y-36870735D01*
X50229401Y-36918354D01*
X50277020Y-37013592D01*
X50277020Y-37299306D01*
X50229401Y-37394544D01*
X50181782Y-37442163D01*
G04 #@! TO.C,J13*
X17477380Y-91459523D02*
X18191666Y-91459523D01*
X18334523Y-91507142D01*
X18429761Y-91602380D01*
X18477380Y-91745238D01*
X18477380Y-91840476D01*
X18477380Y-90459523D02*
X18477380Y-91030952D01*
X18477380Y-90745238D02*
X17477380Y-90745238D01*
X17620238Y-90840476D01*
X17715476Y-90935714D01*
X17763095Y-91030952D01*
X17477380Y-90126190D02*
X17477380Y-89507142D01*
X17858333Y-89840476D01*
X17858333Y-89697619D01*
X17905952Y-89602380D01*
X17953571Y-89554761D01*
X18048809Y-89507142D01*
X18286904Y-89507142D01*
X18382142Y-89554761D01*
X18429761Y-89602380D01*
X18477380Y-89697619D01*
X18477380Y-89983333D01*
X18429761Y-90078571D01*
X18382142Y-90126190D01*
G04 #@! TO.C,U9*
X16992160Y-60479844D02*
X17801684Y-60479844D01*
X17896922Y-60432225D01*
X17944541Y-60384606D01*
X17992160Y-60289368D01*
X17992160Y-60098892D01*
X17944541Y-60003654D01*
X17896922Y-59956035D01*
X17801684Y-59908416D01*
X16992160Y-59908416D01*
X17992160Y-59384606D02*
X17992160Y-59194130D01*
X17944541Y-59098892D01*
X17896922Y-59051273D01*
X17754065Y-58956035D01*
X17563589Y-58908416D01*
X17182637Y-58908416D01*
X17087399Y-58956035D01*
X17039780Y-59003654D01*
X16992160Y-59098892D01*
X16992160Y-59289368D01*
X17039780Y-59384606D01*
X17087399Y-59432225D01*
X17182637Y-59479844D01*
X17420732Y-59479844D01*
X17515970Y-59432225D01*
X17563589Y-59384606D01*
X17611208Y-59289368D01*
X17611208Y-59098892D01*
X17563589Y-59003654D01*
X17515970Y-58956035D01*
X17420732Y-58908416D01*
G04 #@! TO.C,FB5*
X18671326Y-23126391D02*
X18337993Y-23126391D01*
X18337993Y-23650200D02*
X18337993Y-22650200D01*
X18814183Y-22650200D01*
X19528469Y-23126391D02*
X19671326Y-23174010D01*
X19718945Y-23221629D01*
X19766564Y-23316867D01*
X19766564Y-23459724D01*
X19718945Y-23554962D01*
X19671326Y-23602581D01*
X19576088Y-23650200D01*
X19195136Y-23650200D01*
X19195136Y-22650200D01*
X19528469Y-22650200D01*
X19623707Y-22697820D01*
X19671326Y-22745439D01*
X19718945Y-22840677D01*
X19718945Y-22935915D01*
X19671326Y-23031153D01*
X19623707Y-23078772D01*
X19528469Y-23126391D01*
X19195136Y-23126391D01*
X20671326Y-22650200D02*
X20195136Y-22650200D01*
X20147517Y-23126391D01*
X20195136Y-23078772D01*
X20290374Y-23031153D01*
X20528469Y-23031153D01*
X20623707Y-23078772D01*
X20671326Y-23126391D01*
X20718945Y-23221629D01*
X20718945Y-23459724D01*
X20671326Y-23554962D01*
X20623707Y-23602581D01*
X20528469Y-23650200D01*
X20290374Y-23650200D01*
X20195136Y-23602581D01*
X20147517Y-23554962D01*
G04 #@! TO.C,R5*
D15*
X16507590Y-64581553D02*
X16269495Y-64748220D01*
X16507590Y-64867267D02*
X16007590Y-64867267D01*
X16007590Y-64676791D01*
X16031400Y-64629172D01*
X16055209Y-64605362D01*
X16102828Y-64581553D01*
X16174257Y-64581553D01*
X16221876Y-64605362D01*
X16245685Y-64629172D01*
X16269495Y-64676791D01*
X16269495Y-64867267D01*
X16007590Y-64129172D02*
X16007590Y-64367267D01*
X16245685Y-64391077D01*
X16221876Y-64367267D01*
X16198066Y-64319648D01*
X16198066Y-64200600D01*
X16221876Y-64152981D01*
X16245685Y-64129172D01*
X16293304Y-64105362D01*
X16412352Y-64105362D01*
X16459971Y-64129172D01*
X16483780Y-64152981D01*
X16507590Y-64200600D01*
X16507590Y-64319648D01*
X16483780Y-64367267D01*
X16459971Y-64391077D01*
G04 #@! TO.C,D15*
D11*
X37688354Y-56560980D02*
X37688354Y-55560980D01*
X37926449Y-55560980D01*
X38069306Y-55608600D01*
X38164544Y-55703838D01*
X38212163Y-55799076D01*
X38259782Y-55989552D01*
X38259782Y-56132409D01*
X38212163Y-56322885D01*
X38164544Y-56418123D01*
X38069306Y-56513361D01*
X37926449Y-56560980D01*
X37688354Y-56560980D01*
X39212163Y-56560980D02*
X38640735Y-56560980D01*
X38926449Y-56560980D02*
X38926449Y-55560980D01*
X38831211Y-55703838D01*
X38735973Y-55799076D01*
X38640735Y-55846695D01*
X40116925Y-55560980D02*
X39640735Y-55560980D01*
X39593116Y-56037171D01*
X39640735Y-55989552D01*
X39735973Y-55941933D01*
X39974068Y-55941933D01*
X40069306Y-55989552D01*
X40116925Y-56037171D01*
X40164544Y-56132409D01*
X40164544Y-56370504D01*
X40116925Y-56465742D01*
X40069306Y-56513361D01*
X39974068Y-56560980D01*
X39735973Y-56560980D01*
X39640735Y-56513361D01*
X39593116Y-56465742D01*
G04 #@! TO.C,C5*
D15*
X44097711Y-57065693D02*
X44121520Y-57089502D01*
X44145330Y-57160931D01*
X44145330Y-57208550D01*
X44121520Y-57279979D01*
X44073901Y-57327598D01*
X44026282Y-57351407D01*
X43931044Y-57375217D01*
X43859616Y-57375217D01*
X43764378Y-57351407D01*
X43716759Y-57327598D01*
X43669140Y-57279979D01*
X43645330Y-57208550D01*
X43645330Y-57160931D01*
X43669140Y-57089502D01*
X43692949Y-57065693D01*
X43645330Y-56613312D02*
X43645330Y-56851407D01*
X43883425Y-56875217D01*
X43859616Y-56851407D01*
X43835806Y-56803788D01*
X43835806Y-56684740D01*
X43859616Y-56637121D01*
X43883425Y-56613312D01*
X43931044Y-56589502D01*
X44050092Y-56589502D01*
X44097711Y-56613312D01*
X44121520Y-56637121D01*
X44145330Y-56684740D01*
X44145330Y-56803788D01*
X44121520Y-56851407D01*
X44097711Y-56875217D01*
G04 #@! TO.C,C7*
X40638231Y-63611273D02*
X40662040Y-63635082D01*
X40685850Y-63706511D01*
X40685850Y-63754130D01*
X40662040Y-63825559D01*
X40614421Y-63873178D01*
X40566802Y-63896987D01*
X40471564Y-63920797D01*
X40400136Y-63920797D01*
X40304898Y-63896987D01*
X40257279Y-63873178D01*
X40209660Y-63825559D01*
X40185850Y-63754130D01*
X40185850Y-63706511D01*
X40209660Y-63635082D01*
X40233469Y-63611273D01*
X40185850Y-63444606D02*
X40185850Y-63111273D01*
X40685850Y-63325559D01*
G04 #@! TO.C,C37*
X38751391Y-58387751D02*
X38727581Y-58411560D01*
X38656153Y-58435370D01*
X38608534Y-58435370D01*
X38537105Y-58411560D01*
X38489486Y-58363941D01*
X38465677Y-58316322D01*
X38441867Y-58221084D01*
X38441867Y-58149656D01*
X38465677Y-58054418D01*
X38489486Y-58006799D01*
X38537105Y-57959180D01*
X38608534Y-57935370D01*
X38656153Y-57935370D01*
X38727581Y-57959180D01*
X38751391Y-57982989D01*
X38918058Y-57935370D02*
X39227581Y-57935370D01*
X39060915Y-58125846D01*
X39132343Y-58125846D01*
X39179962Y-58149656D01*
X39203772Y-58173465D01*
X39227581Y-58221084D01*
X39227581Y-58340132D01*
X39203772Y-58387751D01*
X39179962Y-58411560D01*
X39132343Y-58435370D01*
X38989486Y-58435370D01*
X38941867Y-58411560D01*
X38918058Y-58387751D01*
X39394248Y-57935370D02*
X39727581Y-57935370D01*
X39513296Y-58435370D01*
G04 #@! TO.C,R3*
X41686966Y-68935730D02*
X41520300Y-68697635D01*
X41401252Y-68935730D02*
X41401252Y-68435730D01*
X41591728Y-68435730D01*
X41639347Y-68459540D01*
X41663157Y-68483349D01*
X41686966Y-68530968D01*
X41686966Y-68602397D01*
X41663157Y-68650016D01*
X41639347Y-68673825D01*
X41591728Y-68697635D01*
X41401252Y-68697635D01*
X41853633Y-68435730D02*
X42163157Y-68435730D01*
X41996490Y-68626206D01*
X42067919Y-68626206D01*
X42115538Y-68650016D01*
X42139347Y-68673825D01*
X42163157Y-68721444D01*
X42163157Y-68840492D01*
X42139347Y-68888111D01*
X42115538Y-68911920D01*
X42067919Y-68935730D01*
X41925061Y-68935730D01*
X41877442Y-68911920D01*
X41853633Y-68888111D01*
G04 #@! TO.C,R4*
X43693566Y-68928110D02*
X43526900Y-68690015D01*
X43407852Y-68928110D02*
X43407852Y-68428110D01*
X43598328Y-68428110D01*
X43645947Y-68451920D01*
X43669757Y-68475729D01*
X43693566Y-68523348D01*
X43693566Y-68594777D01*
X43669757Y-68642396D01*
X43645947Y-68666205D01*
X43598328Y-68690015D01*
X43407852Y-68690015D01*
X44122138Y-68594777D02*
X44122138Y-68928110D01*
X44003090Y-68404300D02*
X43884042Y-68761443D01*
X44193566Y-68761443D01*
G04 #@! TO.C,U7*
D11*
X44765055Y-60341260D02*
X44765055Y-61150784D01*
X44812674Y-61246022D01*
X44860293Y-61293641D01*
X44955531Y-61341260D01*
X45146007Y-61341260D01*
X45241245Y-61293641D01*
X45288864Y-61246022D01*
X45336483Y-61150784D01*
X45336483Y-60341260D01*
X45717436Y-60341260D02*
X46384102Y-60341260D01*
X45955531Y-61341260D01*
G04 #@! TO.C,C64*
X55617382Y-27856417D02*
X55665001Y-27904036D01*
X55712620Y-28046893D01*
X55712620Y-28142131D01*
X55665001Y-28284988D01*
X55569763Y-28380226D01*
X55474525Y-28427845D01*
X55284049Y-28475464D01*
X55141192Y-28475464D01*
X54950716Y-28427845D01*
X54855478Y-28380226D01*
X54760240Y-28284988D01*
X54712620Y-28142131D01*
X54712620Y-28046893D01*
X54760240Y-27904036D01*
X54807859Y-27856417D01*
X54712620Y-26999274D02*
X54712620Y-27189750D01*
X54760240Y-27284988D01*
X54807859Y-27332607D01*
X54950716Y-27427845D01*
X55141192Y-27475464D01*
X55522144Y-27475464D01*
X55617382Y-27427845D01*
X55665001Y-27380226D01*
X55712620Y-27284988D01*
X55712620Y-27094512D01*
X55665001Y-26999274D01*
X55617382Y-26951655D01*
X55522144Y-26904036D01*
X55284049Y-26904036D01*
X55188811Y-26951655D01*
X55141192Y-26999274D01*
X55093573Y-27094512D01*
X55093573Y-27284988D01*
X55141192Y-27380226D01*
X55188811Y-27427845D01*
X55284049Y-27475464D01*
X55045954Y-26046893D02*
X55712620Y-26046893D01*
X54665001Y-26284988D02*
X55379287Y-26523083D01*
X55379287Y-25904036D01*
G04 #@! TO.C,C6*
X25820073Y-20326622D02*
X25772454Y-20374241D01*
X25629597Y-20421860D01*
X25534359Y-20421860D01*
X25391501Y-20374241D01*
X25296263Y-20279003D01*
X25248644Y-20183765D01*
X25201025Y-19993289D01*
X25201025Y-19850432D01*
X25248644Y-19659956D01*
X25296263Y-19564718D01*
X25391501Y-19469480D01*
X25534359Y-19421860D01*
X25629597Y-19421860D01*
X25772454Y-19469480D01*
X25820073Y-19517099D01*
X26677216Y-19421860D02*
X26486740Y-19421860D01*
X26391501Y-19469480D01*
X26343882Y-19517099D01*
X26248644Y-19659956D01*
X26201025Y-19850432D01*
X26201025Y-20231384D01*
X26248644Y-20326622D01*
X26296263Y-20374241D01*
X26391501Y-20421860D01*
X26581978Y-20421860D01*
X26677216Y-20374241D01*
X26724835Y-20326622D01*
X26772454Y-20231384D01*
X26772454Y-19993289D01*
X26724835Y-19898051D01*
X26677216Y-19850432D01*
X26581978Y-19802813D01*
X26391501Y-19802813D01*
X26296263Y-19850432D01*
X26248644Y-19898051D01*
X26201025Y-19993289D01*
G04 #@! TO.C,R24*
D15*
X13528571Y-80676190D02*
X13361904Y-80438095D01*
X13242857Y-80676190D02*
X13242857Y-80176190D01*
X13433333Y-80176190D01*
X13480952Y-80200000D01*
X13504761Y-80223809D01*
X13528571Y-80271428D01*
X13528571Y-80342857D01*
X13504761Y-80390476D01*
X13480952Y-80414285D01*
X13433333Y-80438095D01*
X13242857Y-80438095D01*
X13719047Y-80223809D02*
X13742857Y-80200000D01*
X13790476Y-80176190D01*
X13909523Y-80176190D01*
X13957142Y-80200000D01*
X13980952Y-80223809D01*
X14004761Y-80271428D01*
X14004761Y-80319047D01*
X13980952Y-80390476D01*
X13695238Y-80676190D01*
X14004761Y-80676190D01*
X14433333Y-80342857D02*
X14433333Y-80676190D01*
X14314285Y-80152380D02*
X14195238Y-80509523D01*
X14504761Y-80509523D01*
G04 #@! TO.C,X1*
D11*
X17856236Y-83334180D02*
X18522902Y-84334180D01*
X18522902Y-83334180D02*
X17856236Y-84334180D01*
X19427664Y-84334180D02*
X18856236Y-84334180D01*
X19141950Y-84334180D02*
X19141950Y-83334180D01*
X19046712Y-83477038D01*
X18951474Y-83572276D01*
X18856236Y-83619895D01*
G04 #@! TO.C,FB8*
X50686571Y-43200533D02*
X50686571Y-43533866D01*
X51210380Y-43533866D02*
X50210380Y-43533866D01*
X50210380Y-43057676D01*
X50686571Y-42343390D02*
X50734190Y-42200533D01*
X50781809Y-42152914D01*
X50877047Y-42105295D01*
X51019904Y-42105295D01*
X51115142Y-42152914D01*
X51162761Y-42200533D01*
X51210380Y-42295771D01*
X51210380Y-42676723D01*
X50210380Y-42676723D01*
X50210380Y-42343390D01*
X50258000Y-42248152D01*
X50305619Y-42200533D01*
X50400857Y-42152914D01*
X50496095Y-42152914D01*
X50591333Y-42200533D01*
X50638952Y-42248152D01*
X50686571Y-42343390D01*
X50686571Y-42676723D01*
X50638952Y-41533866D02*
X50591333Y-41629104D01*
X50543714Y-41676723D01*
X50448476Y-41724342D01*
X50400857Y-41724342D01*
X50305619Y-41676723D01*
X50258000Y-41629104D01*
X50210380Y-41533866D01*
X50210380Y-41343390D01*
X50258000Y-41248152D01*
X50305619Y-41200533D01*
X50400857Y-41152914D01*
X50448476Y-41152914D01*
X50543714Y-41200533D01*
X50591333Y-41248152D01*
X50638952Y-41343390D01*
X50638952Y-41533866D01*
X50686571Y-41629104D01*
X50734190Y-41676723D01*
X50829428Y-41724342D01*
X51019904Y-41724342D01*
X51115142Y-41676723D01*
X51162761Y-41629104D01*
X51210380Y-41533866D01*
X51210380Y-41343390D01*
X51162761Y-41248152D01*
X51115142Y-41200533D01*
X51019904Y-41152914D01*
X50829428Y-41152914D01*
X50734190Y-41200533D01*
X50686571Y-41248152D01*
X50638952Y-41343390D01*
G04 #@! TO.C,FB4*
X56088066Y-64292171D02*
X55754733Y-64292171D01*
X55754733Y-64815980D02*
X55754733Y-63815980D01*
X56230923Y-63815980D01*
X56945209Y-64292171D02*
X57088066Y-64339790D01*
X57135685Y-64387409D01*
X57183304Y-64482647D01*
X57183304Y-64625504D01*
X57135685Y-64720742D01*
X57088066Y-64768361D01*
X56992828Y-64815980D01*
X56611876Y-64815980D01*
X56611876Y-63815980D01*
X56945209Y-63815980D01*
X57040447Y-63863600D01*
X57088066Y-63911219D01*
X57135685Y-64006457D01*
X57135685Y-64101695D01*
X57088066Y-64196933D01*
X57040447Y-64244552D01*
X56945209Y-64292171D01*
X56611876Y-64292171D01*
X58040447Y-64149314D02*
X58040447Y-64815980D01*
X57802352Y-63768361D02*
X57564257Y-64482647D01*
X58183304Y-64482647D01*
G04 #@! TO.C,FB3*
X56215066Y-67670371D02*
X55881733Y-67670371D01*
X55881733Y-68194180D02*
X55881733Y-67194180D01*
X56357923Y-67194180D01*
X57072209Y-67670371D02*
X57215066Y-67717990D01*
X57262685Y-67765609D01*
X57310304Y-67860847D01*
X57310304Y-68003704D01*
X57262685Y-68098942D01*
X57215066Y-68146561D01*
X57119828Y-68194180D01*
X56738876Y-68194180D01*
X56738876Y-67194180D01*
X57072209Y-67194180D01*
X57167447Y-67241800D01*
X57215066Y-67289419D01*
X57262685Y-67384657D01*
X57262685Y-67479895D01*
X57215066Y-67575133D01*
X57167447Y-67622752D01*
X57072209Y-67670371D01*
X56738876Y-67670371D01*
X57643638Y-67194180D02*
X58262685Y-67194180D01*
X57929352Y-67575133D01*
X58072209Y-67575133D01*
X58167447Y-67622752D01*
X58215066Y-67670371D01*
X58262685Y-67765609D01*
X58262685Y-68003704D01*
X58215066Y-68098942D01*
X58167447Y-68146561D01*
X58072209Y-68194180D01*
X57786495Y-68194180D01*
X57691257Y-68146561D01*
X57643638Y-68098942D01*
G04 #@! TO.C,FB2*
X56354766Y-58920071D02*
X56021433Y-58920071D01*
X56021433Y-59443880D02*
X56021433Y-58443880D01*
X56497623Y-58443880D01*
X57211909Y-58920071D02*
X57354766Y-58967690D01*
X57402385Y-59015309D01*
X57450004Y-59110547D01*
X57450004Y-59253404D01*
X57402385Y-59348642D01*
X57354766Y-59396261D01*
X57259528Y-59443880D01*
X56878576Y-59443880D01*
X56878576Y-58443880D01*
X57211909Y-58443880D01*
X57307147Y-58491500D01*
X57354766Y-58539119D01*
X57402385Y-58634357D01*
X57402385Y-58729595D01*
X57354766Y-58824833D01*
X57307147Y-58872452D01*
X57211909Y-58920071D01*
X56878576Y-58920071D01*
X57830957Y-58539119D02*
X57878576Y-58491500D01*
X57973814Y-58443880D01*
X58211909Y-58443880D01*
X58307147Y-58491500D01*
X58354766Y-58539119D01*
X58402385Y-58634357D01*
X58402385Y-58729595D01*
X58354766Y-58872452D01*
X57783338Y-59443880D01*
X58402385Y-59443880D01*
G04 #@! TO.C,FB1*
X55897566Y-55287871D02*
X55564233Y-55287871D01*
X55564233Y-55811680D02*
X55564233Y-54811680D01*
X56040423Y-54811680D01*
X56754709Y-55287871D02*
X56897566Y-55335490D01*
X56945185Y-55383109D01*
X56992804Y-55478347D01*
X56992804Y-55621204D01*
X56945185Y-55716442D01*
X56897566Y-55764061D01*
X56802328Y-55811680D01*
X56421376Y-55811680D01*
X56421376Y-54811680D01*
X56754709Y-54811680D01*
X56849947Y-54859300D01*
X56897566Y-54906919D01*
X56945185Y-55002157D01*
X56945185Y-55097395D01*
X56897566Y-55192633D01*
X56849947Y-55240252D01*
X56754709Y-55287871D01*
X56421376Y-55287871D01*
X57945185Y-55811680D02*
X57373757Y-55811680D01*
X57659471Y-55811680D02*
X57659471Y-54811680D01*
X57564233Y-54954538D01*
X57468995Y-55049776D01*
X57373757Y-55097395D01*
G04 #@! TO.C,U5*
X25025780Y-49974404D02*
X25835304Y-49974404D01*
X25930542Y-49926785D01*
X25978161Y-49879166D01*
X26025780Y-49783928D01*
X26025780Y-49593452D01*
X25978161Y-49498214D01*
X25930542Y-49450595D01*
X25835304Y-49402976D01*
X25025780Y-49402976D01*
X25025780Y-48450595D02*
X25025780Y-48926785D01*
X25501971Y-48974404D01*
X25454352Y-48926785D01*
X25406733Y-48831547D01*
X25406733Y-48593452D01*
X25454352Y-48498214D01*
X25501971Y-48450595D01*
X25597209Y-48402976D01*
X25835304Y-48402976D01*
X25930542Y-48450595D01*
X25978161Y-48498214D01*
X26025780Y-48593452D01*
X26025780Y-48831547D01*
X25978161Y-48926785D01*
X25930542Y-48974404D01*
G04 #@! TO.C,FB6*
X24424948Y-82260226D02*
X24424948Y-81926893D01*
X23901139Y-81926893D02*
X24901139Y-81926893D01*
X24901139Y-82403083D01*
X24424948Y-83117369D02*
X24377329Y-83260226D01*
X24329710Y-83307845D01*
X24234472Y-83355464D01*
X24091615Y-83355464D01*
X23996377Y-83307845D01*
X23948758Y-83260226D01*
X23901139Y-83164988D01*
X23901139Y-82784036D01*
X24901139Y-82784036D01*
X24901139Y-83117369D01*
X24853520Y-83212607D01*
X24805900Y-83260226D01*
X24710662Y-83307845D01*
X24615424Y-83307845D01*
X24520186Y-83260226D01*
X24472567Y-83212607D01*
X24424948Y-83117369D01*
X24424948Y-82784036D01*
X24901139Y-84212607D02*
X24901139Y-84022131D01*
X24853520Y-83926893D01*
X24805900Y-83879274D01*
X24663043Y-83784036D01*
X24472567Y-83736417D01*
X24091615Y-83736417D01*
X23996377Y-83784036D01*
X23948758Y-83831655D01*
X23901139Y-83926893D01*
X23901139Y-84117369D01*
X23948758Y-84212607D01*
X23996377Y-84260226D01*
X24091615Y-84307845D01*
X24329710Y-84307845D01*
X24424948Y-84260226D01*
X24472567Y-84212607D01*
X24520186Y-84117369D01*
X24520186Y-83926893D01*
X24472567Y-83831655D01*
X24424948Y-83784036D01*
X24329710Y-83736417D01*
G04 #@! TO.C,R31*
D15*
X42782371Y-44620310D02*
X42615704Y-44382215D01*
X42496657Y-44620310D02*
X42496657Y-44120310D01*
X42687133Y-44120310D01*
X42734752Y-44144120D01*
X42758561Y-44167929D01*
X42782371Y-44215548D01*
X42782371Y-44286977D01*
X42758561Y-44334596D01*
X42734752Y-44358405D01*
X42687133Y-44382215D01*
X42496657Y-44382215D01*
X42949038Y-44120310D02*
X43258561Y-44120310D01*
X43091895Y-44310786D01*
X43163323Y-44310786D01*
X43210942Y-44334596D01*
X43234752Y-44358405D01*
X43258561Y-44406024D01*
X43258561Y-44525072D01*
X43234752Y-44572691D01*
X43210942Y-44596500D01*
X43163323Y-44620310D01*
X43020466Y-44620310D01*
X42972847Y-44596500D01*
X42949038Y-44572691D01*
X43734752Y-44620310D02*
X43449038Y-44620310D01*
X43591895Y-44620310D02*
X43591895Y-44120310D01*
X43544276Y-44191739D01*
X43496657Y-44239358D01*
X43449038Y-44263167D01*
G04 #@! TO.C,J6*
D11*
X9417726Y-61184540D02*
X9417726Y-61898826D01*
X9370107Y-62041683D01*
X9274869Y-62136921D01*
X9132012Y-62184540D01*
X9036774Y-62184540D01*
X10322488Y-61184540D02*
X10132012Y-61184540D01*
X10036774Y-61232160D01*
X9989155Y-61279779D01*
X9893917Y-61422636D01*
X9846298Y-61613112D01*
X9846298Y-61994064D01*
X9893917Y-62089302D01*
X9941536Y-62136921D01*
X10036774Y-62184540D01*
X10227250Y-62184540D01*
X10322488Y-62136921D01*
X10370107Y-62089302D01*
X10417726Y-61994064D01*
X10417726Y-61755969D01*
X10370107Y-61660731D01*
X10322488Y-61613112D01*
X10227250Y-61565493D01*
X10036774Y-61565493D01*
X9941536Y-61613112D01*
X9893917Y-61660731D01*
X9846298Y-61755969D01*
G04 #@! TO.C,D14*
X51602474Y-5004060D02*
X51602474Y-4004060D01*
X51840569Y-4004060D01*
X51983426Y-4051680D01*
X52078664Y-4146918D01*
X52126283Y-4242156D01*
X52173902Y-4432632D01*
X52173902Y-4575489D01*
X52126283Y-4765965D01*
X52078664Y-4861203D01*
X51983426Y-4956441D01*
X51840569Y-5004060D01*
X51602474Y-5004060D01*
X53126283Y-5004060D02*
X52554855Y-5004060D01*
X52840569Y-5004060D02*
X52840569Y-4004060D01*
X52745331Y-4146918D01*
X52650093Y-4242156D01*
X52554855Y-4289775D01*
X53983426Y-4337394D02*
X53983426Y-5004060D01*
X53745331Y-3956441D02*
X53507236Y-4670727D01*
X54126283Y-4670727D01*
G04 #@! TO.C,U1*
X45527055Y-453140D02*
X45527055Y-1262664D01*
X45574674Y-1357902D01*
X45622293Y-1405521D01*
X45717531Y-1453140D01*
X45908007Y-1453140D01*
X46003245Y-1405521D01*
X46050864Y-1357902D01*
X46098483Y-1262664D01*
X46098483Y-453140D01*
X47098483Y-1453140D02*
X46527055Y-1453140D01*
X46812769Y-1453140D02*
X46812769Y-453140D01*
X46717531Y-595998D01*
X46622293Y-691236D01*
X46527055Y-738855D01*
G04 #@! TO.C,R1*
D15*
X49355226Y-9939150D02*
X49188560Y-9701055D01*
X49069512Y-9939150D02*
X49069512Y-9439150D01*
X49259988Y-9439150D01*
X49307607Y-9462960D01*
X49331417Y-9486769D01*
X49355226Y-9534388D01*
X49355226Y-9605817D01*
X49331417Y-9653436D01*
X49307607Y-9677245D01*
X49259988Y-9701055D01*
X49069512Y-9701055D01*
X49831417Y-9939150D02*
X49545702Y-9939150D01*
X49688560Y-9939150D02*
X49688560Y-9439150D01*
X49640940Y-9510579D01*
X49593321Y-9558198D01*
X49545702Y-9582007D01*
G04 #@! TO.C,C4*
X49355226Y-12675371D02*
X49331417Y-12699180D01*
X49259988Y-12722990D01*
X49212369Y-12722990D01*
X49140940Y-12699180D01*
X49093321Y-12651561D01*
X49069512Y-12603942D01*
X49045702Y-12508704D01*
X49045702Y-12437276D01*
X49069512Y-12342038D01*
X49093321Y-12294419D01*
X49140940Y-12246800D01*
X49212369Y-12222990D01*
X49259988Y-12222990D01*
X49331417Y-12246800D01*
X49355226Y-12270609D01*
X49783798Y-12389657D02*
X49783798Y-12722990D01*
X49664750Y-12199180D02*
X49545702Y-12556323D01*
X49855226Y-12556323D01*
G04 #@! TO.C,C3*
X50282906Y-2821751D02*
X50259097Y-2845560D01*
X50187668Y-2869370D01*
X50140049Y-2869370D01*
X50068620Y-2845560D01*
X50021001Y-2797941D01*
X49997192Y-2750322D01*
X49973382Y-2655084D01*
X49973382Y-2583656D01*
X49997192Y-2488418D01*
X50021001Y-2440799D01*
X50068620Y-2393180D01*
X50140049Y-2369370D01*
X50187668Y-2369370D01*
X50259097Y-2393180D01*
X50282906Y-2416989D01*
X50449573Y-2369370D02*
X50759097Y-2369370D01*
X50592430Y-2559846D01*
X50663859Y-2559846D01*
X50711478Y-2583656D01*
X50735287Y-2607465D01*
X50759097Y-2655084D01*
X50759097Y-2774132D01*
X50735287Y-2821751D01*
X50711478Y-2845560D01*
X50663859Y-2869370D01*
X50521001Y-2869370D01*
X50473382Y-2845560D01*
X50449573Y-2821751D01*
G04 #@! TO.C,C1*
D11*
X16970773Y-1763742D02*
X16923154Y-1811361D01*
X16780297Y-1858980D01*
X16685059Y-1858980D01*
X16542201Y-1811361D01*
X16446963Y-1716123D01*
X16399344Y-1620885D01*
X16351725Y-1430409D01*
X16351725Y-1287552D01*
X16399344Y-1097076D01*
X16446963Y-1001838D01*
X16542201Y-906600D01*
X16685059Y-858980D01*
X16780297Y-858980D01*
X16923154Y-906600D01*
X16970773Y-954219D01*
X17923154Y-1858980D02*
X17351725Y-1858980D01*
X17637440Y-1858980D02*
X17637440Y-858980D01*
X17542201Y-1001838D01*
X17446963Y-1097076D01*
X17351725Y-1144695D01*
G04 #@! TO.C,C60*
D15*
X31311351Y-28347788D02*
X31335160Y-28371598D01*
X31358970Y-28443026D01*
X31358970Y-28490645D01*
X31335160Y-28562074D01*
X31287541Y-28609693D01*
X31239922Y-28633502D01*
X31144684Y-28657312D01*
X31073256Y-28657312D01*
X30978018Y-28633502D01*
X30930399Y-28609693D01*
X30882780Y-28562074D01*
X30858970Y-28490645D01*
X30858970Y-28443026D01*
X30882780Y-28371598D01*
X30906589Y-28347788D01*
X30858970Y-27919217D02*
X30858970Y-28014455D01*
X30882780Y-28062074D01*
X30906589Y-28085883D01*
X30978018Y-28133502D01*
X31073256Y-28157312D01*
X31263732Y-28157312D01*
X31311351Y-28133502D01*
X31335160Y-28109693D01*
X31358970Y-28062074D01*
X31358970Y-27966836D01*
X31335160Y-27919217D01*
X31311351Y-27895407D01*
X31263732Y-27871598D01*
X31144684Y-27871598D01*
X31097065Y-27895407D01*
X31073256Y-27919217D01*
X31049446Y-27966836D01*
X31049446Y-28062074D01*
X31073256Y-28109693D01*
X31097065Y-28133502D01*
X31144684Y-28157312D01*
X30858970Y-27562074D02*
X30858970Y-27514455D01*
X30882780Y-27466836D01*
X30906589Y-27443026D01*
X30954208Y-27419217D01*
X31049446Y-27395407D01*
X31168494Y-27395407D01*
X31263732Y-27419217D01*
X31311351Y-27443026D01*
X31335160Y-27466836D01*
X31358970Y-27514455D01*
X31358970Y-27562074D01*
X31335160Y-27609693D01*
X31311351Y-27633502D01*
X31263732Y-27657312D01*
X31168494Y-27681121D01*
X31049446Y-27681121D01*
X30954208Y-27657312D01*
X30906589Y-27633502D01*
X30882780Y-27609693D01*
X30858970Y-27562074D01*
G04 #@! TO.C,C59*
X42886131Y-30552508D02*
X42909940Y-30576318D01*
X42933750Y-30647746D01*
X42933750Y-30695365D01*
X42909940Y-30766794D01*
X42862321Y-30814413D01*
X42814702Y-30838222D01*
X42719464Y-30862032D01*
X42648036Y-30862032D01*
X42552798Y-30838222D01*
X42505179Y-30814413D01*
X42457560Y-30766794D01*
X42433750Y-30695365D01*
X42433750Y-30647746D01*
X42457560Y-30576318D01*
X42481369Y-30552508D01*
X42433750Y-30100127D02*
X42433750Y-30338222D01*
X42671845Y-30362032D01*
X42648036Y-30338222D01*
X42624226Y-30290603D01*
X42624226Y-30171556D01*
X42648036Y-30123937D01*
X42671845Y-30100127D01*
X42719464Y-30076318D01*
X42838512Y-30076318D01*
X42886131Y-30100127D01*
X42909940Y-30123937D01*
X42933750Y-30171556D01*
X42933750Y-30290603D01*
X42909940Y-30338222D01*
X42886131Y-30362032D01*
X42933750Y-29838222D02*
X42933750Y-29742984D01*
X42909940Y-29695365D01*
X42886131Y-29671556D01*
X42814702Y-29623937D01*
X42719464Y-29600127D01*
X42528988Y-29600127D01*
X42481369Y-29623937D01*
X42457560Y-29647746D01*
X42433750Y-29695365D01*
X42433750Y-29790603D01*
X42457560Y-29838222D01*
X42481369Y-29862032D01*
X42528988Y-29885841D01*
X42648036Y-29885841D01*
X42695655Y-29862032D01*
X42719464Y-29838222D01*
X42743274Y-29790603D01*
X42743274Y-29695365D01*
X42719464Y-29647746D01*
X42695655Y-29623937D01*
X42648036Y-29600127D01*
G04 #@! TO.C,C63*
X53902491Y-45786811D02*
X53878681Y-45810620D01*
X53807253Y-45834430D01*
X53759634Y-45834430D01*
X53688205Y-45810620D01*
X53640586Y-45763001D01*
X53616777Y-45715382D01*
X53592967Y-45620144D01*
X53592967Y-45548716D01*
X53616777Y-45453478D01*
X53640586Y-45405859D01*
X53688205Y-45358240D01*
X53759634Y-45334430D01*
X53807253Y-45334430D01*
X53878681Y-45358240D01*
X53902491Y-45382049D01*
X54331062Y-45334430D02*
X54235824Y-45334430D01*
X54188205Y-45358240D01*
X54164396Y-45382049D01*
X54116777Y-45453478D01*
X54092967Y-45548716D01*
X54092967Y-45739192D01*
X54116777Y-45786811D01*
X54140586Y-45810620D01*
X54188205Y-45834430D01*
X54283443Y-45834430D01*
X54331062Y-45810620D01*
X54354872Y-45786811D01*
X54378681Y-45739192D01*
X54378681Y-45620144D01*
X54354872Y-45572525D01*
X54331062Y-45548716D01*
X54283443Y-45524906D01*
X54188205Y-45524906D01*
X54140586Y-45548716D01*
X54116777Y-45572525D01*
X54092967Y-45620144D01*
X54545348Y-45334430D02*
X54854872Y-45334430D01*
X54688205Y-45524906D01*
X54759634Y-45524906D01*
X54807253Y-45548716D01*
X54831062Y-45572525D01*
X54854872Y-45620144D01*
X54854872Y-45739192D01*
X54831062Y-45786811D01*
X54807253Y-45810620D01*
X54759634Y-45834430D01*
X54616777Y-45834430D01*
X54569158Y-45810620D01*
X54545348Y-45786811D01*
G04 #@! TO.C,C61*
X50507271Y-83420528D02*
X50531080Y-83444338D01*
X50554890Y-83515766D01*
X50554890Y-83563385D01*
X50531080Y-83634814D01*
X50483461Y-83682433D01*
X50435842Y-83706242D01*
X50340604Y-83730052D01*
X50269176Y-83730052D01*
X50173938Y-83706242D01*
X50126319Y-83682433D01*
X50078700Y-83634814D01*
X50054890Y-83563385D01*
X50054890Y-83515766D01*
X50078700Y-83444338D01*
X50102509Y-83420528D01*
X50054890Y-82991957D02*
X50054890Y-83087195D01*
X50078700Y-83134814D01*
X50102509Y-83158623D01*
X50173938Y-83206242D01*
X50269176Y-83230052D01*
X50459652Y-83230052D01*
X50507271Y-83206242D01*
X50531080Y-83182433D01*
X50554890Y-83134814D01*
X50554890Y-83039576D01*
X50531080Y-82991957D01*
X50507271Y-82968147D01*
X50459652Y-82944338D01*
X50340604Y-82944338D01*
X50292985Y-82968147D01*
X50269176Y-82991957D01*
X50245366Y-83039576D01*
X50245366Y-83134814D01*
X50269176Y-83182433D01*
X50292985Y-83206242D01*
X50340604Y-83230052D01*
X50554890Y-82468147D02*
X50554890Y-82753861D01*
X50554890Y-82611004D02*
X50054890Y-82611004D01*
X50126319Y-82658623D01*
X50173938Y-82706242D01*
X50197747Y-82753861D01*
G04 #@! TO.C,R50*
X64936251Y-81779710D02*
X64769584Y-81541615D01*
X64650537Y-81779710D02*
X64650537Y-81279710D01*
X64841013Y-81279710D01*
X64888632Y-81303520D01*
X64912441Y-81327329D01*
X64936251Y-81374948D01*
X64936251Y-81446377D01*
X64912441Y-81493996D01*
X64888632Y-81517805D01*
X64841013Y-81541615D01*
X64650537Y-81541615D01*
X65388632Y-81279710D02*
X65150537Y-81279710D01*
X65126727Y-81517805D01*
X65150537Y-81493996D01*
X65198156Y-81470186D01*
X65317203Y-81470186D01*
X65364822Y-81493996D01*
X65388632Y-81517805D01*
X65412441Y-81565424D01*
X65412441Y-81684472D01*
X65388632Y-81732091D01*
X65364822Y-81755900D01*
X65317203Y-81779710D01*
X65198156Y-81779710D01*
X65150537Y-81755900D01*
X65126727Y-81732091D01*
X65721965Y-81279710D02*
X65769584Y-81279710D01*
X65817203Y-81303520D01*
X65841013Y-81327329D01*
X65864822Y-81374948D01*
X65888632Y-81470186D01*
X65888632Y-81589234D01*
X65864822Y-81684472D01*
X65841013Y-81732091D01*
X65817203Y-81755900D01*
X65769584Y-81779710D01*
X65721965Y-81779710D01*
X65674346Y-81755900D01*
X65650537Y-81732091D01*
X65626727Y-81684472D01*
X65602918Y-81589234D01*
X65602918Y-81470186D01*
X65626727Y-81374948D01*
X65650537Y-81327329D01*
X65674346Y-81303520D01*
X65721965Y-81279710D01*
G04 #@! TO.C,R49*
X28614251Y-39619685D02*
X28447584Y-39381590D01*
X28328537Y-39619685D02*
X28328537Y-39119685D01*
X28519013Y-39119685D01*
X28566632Y-39143495D01*
X28590441Y-39167304D01*
X28614251Y-39214923D01*
X28614251Y-39286352D01*
X28590441Y-39333971D01*
X28566632Y-39357780D01*
X28519013Y-39381590D01*
X28328537Y-39381590D01*
X29042822Y-39286352D02*
X29042822Y-39619685D01*
X28923775Y-39095875D02*
X28804727Y-39453018D01*
X29114251Y-39453018D01*
X29328537Y-39619685D02*
X29423775Y-39619685D01*
X29471394Y-39595875D01*
X29495203Y-39572066D01*
X29542822Y-39500637D01*
X29566632Y-39405399D01*
X29566632Y-39214923D01*
X29542822Y-39167304D01*
X29519013Y-39143495D01*
X29471394Y-39119685D01*
X29376156Y-39119685D01*
X29328537Y-39143495D01*
X29304727Y-39167304D01*
X29280918Y-39214923D01*
X29280918Y-39333971D01*
X29304727Y-39381590D01*
X29328537Y-39405399D01*
X29376156Y-39429209D01*
X29471394Y-39429209D01*
X29519013Y-39405399D01*
X29542822Y-39381590D01*
X29566632Y-39333971D01*
G04 #@! TO.C,R48*
X28614251Y-40975410D02*
X28447584Y-40737315D01*
X28328537Y-40975410D02*
X28328537Y-40475410D01*
X28519013Y-40475410D01*
X28566632Y-40499220D01*
X28590441Y-40523029D01*
X28614251Y-40570648D01*
X28614251Y-40642077D01*
X28590441Y-40689696D01*
X28566632Y-40713505D01*
X28519013Y-40737315D01*
X28328537Y-40737315D01*
X29042822Y-40642077D02*
X29042822Y-40975410D01*
X28923775Y-40451600D02*
X28804727Y-40808743D01*
X29114251Y-40808743D01*
X29376156Y-40689696D02*
X29328537Y-40665886D01*
X29304727Y-40642077D01*
X29280918Y-40594458D01*
X29280918Y-40570648D01*
X29304727Y-40523029D01*
X29328537Y-40499220D01*
X29376156Y-40475410D01*
X29471394Y-40475410D01*
X29519013Y-40499220D01*
X29542822Y-40523029D01*
X29566632Y-40570648D01*
X29566632Y-40594458D01*
X29542822Y-40642077D01*
X29519013Y-40665886D01*
X29471394Y-40689696D01*
X29376156Y-40689696D01*
X29328537Y-40713505D01*
X29304727Y-40737315D01*
X29280918Y-40784934D01*
X29280918Y-40880172D01*
X29304727Y-40927791D01*
X29328537Y-40951600D01*
X29376156Y-40975410D01*
X29471394Y-40975410D01*
X29519013Y-40951600D01*
X29542822Y-40927791D01*
X29566632Y-40880172D01*
X29566632Y-40784934D01*
X29542822Y-40737315D01*
X29519013Y-40713505D01*
X29471394Y-40689696D01*
G04 #@! TO.C,Y2*
D11*
X41362689Y-48879910D02*
X41362689Y-49356100D01*
X41029356Y-48356100D02*
X41362689Y-48879910D01*
X41696022Y-48356100D01*
X41981737Y-48451339D02*
X42029356Y-48403720D01*
X42124594Y-48356100D01*
X42362689Y-48356100D01*
X42457927Y-48403720D01*
X42505546Y-48451339D01*
X42553165Y-48546577D01*
X42553165Y-48641815D01*
X42505546Y-48784672D01*
X41934118Y-49356100D01*
X42553165Y-49356100D01*
G04 #@! TO.C,R40*
D15*
X28644731Y-45905550D02*
X28478064Y-45667455D01*
X28359017Y-45905550D02*
X28359017Y-45405550D01*
X28549493Y-45405550D01*
X28597112Y-45429360D01*
X28620921Y-45453169D01*
X28644731Y-45500788D01*
X28644731Y-45572217D01*
X28620921Y-45619836D01*
X28597112Y-45643645D01*
X28549493Y-45667455D01*
X28359017Y-45667455D01*
X29073302Y-45572217D02*
X29073302Y-45905550D01*
X28954255Y-45381740D02*
X28835207Y-45738883D01*
X29144731Y-45738883D01*
X29430445Y-45405550D02*
X29478064Y-45405550D01*
X29525683Y-45429360D01*
X29549493Y-45453169D01*
X29573302Y-45500788D01*
X29597112Y-45596026D01*
X29597112Y-45715074D01*
X29573302Y-45810312D01*
X29549493Y-45857931D01*
X29525683Y-45881740D01*
X29478064Y-45905550D01*
X29430445Y-45905550D01*
X29382826Y-45881740D01*
X29359017Y-45857931D01*
X29335207Y-45810312D01*
X29311398Y-45715074D01*
X29311398Y-45596026D01*
X29335207Y-45500788D01*
X29359017Y-45453169D01*
X29382826Y-45429360D01*
X29430445Y-45405550D01*
G04 #@! TO.C,R39*
X28639651Y-46845350D02*
X28472984Y-46607255D01*
X28353937Y-46845350D02*
X28353937Y-46345350D01*
X28544413Y-46345350D01*
X28592032Y-46369160D01*
X28615841Y-46392969D01*
X28639651Y-46440588D01*
X28639651Y-46512017D01*
X28615841Y-46559636D01*
X28592032Y-46583445D01*
X28544413Y-46607255D01*
X28353937Y-46607255D01*
X28806318Y-46345350D02*
X29115841Y-46345350D01*
X28949175Y-46535826D01*
X29020603Y-46535826D01*
X29068222Y-46559636D01*
X29092032Y-46583445D01*
X29115841Y-46631064D01*
X29115841Y-46750112D01*
X29092032Y-46797731D01*
X29068222Y-46821540D01*
X29020603Y-46845350D01*
X28877746Y-46845350D01*
X28830127Y-46821540D01*
X28806318Y-46797731D01*
X29353937Y-46845350D02*
X29449175Y-46845350D01*
X29496794Y-46821540D01*
X29520603Y-46797731D01*
X29568222Y-46726302D01*
X29592032Y-46631064D01*
X29592032Y-46440588D01*
X29568222Y-46392969D01*
X29544413Y-46369160D01*
X29496794Y-46345350D01*
X29401556Y-46345350D01*
X29353937Y-46369160D01*
X29330127Y-46392969D01*
X29306318Y-46440588D01*
X29306318Y-46559636D01*
X29330127Y-46607255D01*
X29353937Y-46631064D01*
X29401556Y-46654874D01*
X29496794Y-46654874D01*
X29544413Y-46631064D01*
X29568222Y-46607255D01*
X29592032Y-46559636D01*
G04 #@! TO.C,R28*
X48826550Y-44075468D02*
X48588455Y-44242135D01*
X48826550Y-44361182D02*
X48326550Y-44361182D01*
X48326550Y-44170706D01*
X48350360Y-44123087D01*
X48374169Y-44099278D01*
X48421788Y-44075468D01*
X48493217Y-44075468D01*
X48540836Y-44099278D01*
X48564645Y-44123087D01*
X48588455Y-44170706D01*
X48588455Y-44361182D01*
X48374169Y-43884992D02*
X48350360Y-43861182D01*
X48326550Y-43813563D01*
X48326550Y-43694516D01*
X48350360Y-43646897D01*
X48374169Y-43623087D01*
X48421788Y-43599278D01*
X48469407Y-43599278D01*
X48540836Y-43623087D01*
X48826550Y-43908801D01*
X48826550Y-43599278D01*
X48540836Y-43313563D02*
X48517026Y-43361182D01*
X48493217Y-43384992D01*
X48445598Y-43408801D01*
X48421788Y-43408801D01*
X48374169Y-43384992D01*
X48350360Y-43361182D01*
X48326550Y-43313563D01*
X48326550Y-43218325D01*
X48350360Y-43170706D01*
X48374169Y-43146897D01*
X48421788Y-43123087D01*
X48445598Y-43123087D01*
X48493217Y-43146897D01*
X48517026Y-43170706D01*
X48540836Y-43218325D01*
X48540836Y-43313563D01*
X48564645Y-43361182D01*
X48588455Y-43384992D01*
X48636074Y-43408801D01*
X48731312Y-43408801D01*
X48778931Y-43384992D01*
X48802740Y-43361182D01*
X48826550Y-43313563D01*
X48826550Y-43218325D01*
X48802740Y-43170706D01*
X48778931Y-43146897D01*
X48731312Y-43123087D01*
X48636074Y-43123087D01*
X48588455Y-43146897D01*
X48564645Y-43170706D01*
X48540836Y-43218325D01*
G04 #@! TO.C,PWR1*
X48719870Y-44938201D02*
X48219870Y-44938201D01*
X48219870Y-44747725D01*
X48243680Y-44700106D01*
X48267489Y-44676297D01*
X48315108Y-44652487D01*
X48386537Y-44652487D01*
X48434156Y-44676297D01*
X48457965Y-44700106D01*
X48481775Y-44747725D01*
X48481775Y-44938201D01*
X48219870Y-44485820D02*
X48719870Y-44366773D01*
X48362727Y-44271535D01*
X48719870Y-44176297D01*
X48219870Y-44057249D01*
X48719870Y-43581059D02*
X48481775Y-43747725D01*
X48719870Y-43866773D02*
X48219870Y-43866773D01*
X48219870Y-43676297D01*
X48243680Y-43628678D01*
X48267489Y-43604868D01*
X48315108Y-43581059D01*
X48386537Y-43581059D01*
X48434156Y-43604868D01*
X48457965Y-43628678D01*
X48481775Y-43676297D01*
X48481775Y-43866773D01*
X48719870Y-43104868D02*
X48719870Y-43390582D01*
X48719870Y-43247725D02*
X48219870Y-43247725D01*
X48291299Y-43295344D01*
X48338918Y-43342963D01*
X48362727Y-43390582D01*
G04 #@! TO.C,C34*
X36551751Y-40451963D02*
X36527941Y-40475772D01*
X36456513Y-40499582D01*
X36408894Y-40499582D01*
X36337465Y-40475772D01*
X36289846Y-40428153D01*
X36266037Y-40380534D01*
X36242227Y-40285296D01*
X36242227Y-40213868D01*
X36266037Y-40118630D01*
X36289846Y-40071011D01*
X36337465Y-40023392D01*
X36408894Y-39999582D01*
X36456513Y-39999582D01*
X36527941Y-40023392D01*
X36551751Y-40047201D01*
X36718418Y-39999582D02*
X37027941Y-39999582D01*
X36861275Y-40190058D01*
X36932703Y-40190058D01*
X36980322Y-40213868D01*
X37004132Y-40237677D01*
X37027941Y-40285296D01*
X37027941Y-40404344D01*
X37004132Y-40451963D01*
X36980322Y-40475772D01*
X36932703Y-40499582D01*
X36789846Y-40499582D01*
X36742227Y-40475772D01*
X36718418Y-40451963D01*
X37456513Y-40166249D02*
X37456513Y-40499582D01*
X37337465Y-39975772D02*
X37218418Y-40332915D01*
X37527941Y-40332915D01*
G04 #@! TO.C,C58*
X28128571Y-80028571D02*
X28104761Y-80052380D01*
X28033333Y-80076190D01*
X27985714Y-80076190D01*
X27914285Y-80052380D01*
X27866666Y-80004761D01*
X27842857Y-79957142D01*
X27819047Y-79861904D01*
X27819047Y-79790476D01*
X27842857Y-79695238D01*
X27866666Y-79647619D01*
X27914285Y-79600000D01*
X27985714Y-79576190D01*
X28033333Y-79576190D01*
X28104761Y-79600000D01*
X28128571Y-79623809D01*
X28580952Y-79576190D02*
X28342857Y-79576190D01*
X28319047Y-79814285D01*
X28342857Y-79790476D01*
X28390476Y-79766666D01*
X28509523Y-79766666D01*
X28557142Y-79790476D01*
X28580952Y-79814285D01*
X28604761Y-79861904D01*
X28604761Y-79980952D01*
X28580952Y-80028571D01*
X28557142Y-80052380D01*
X28509523Y-80076190D01*
X28390476Y-80076190D01*
X28342857Y-80052380D01*
X28319047Y-80028571D01*
X28890476Y-79790476D02*
X28842857Y-79766666D01*
X28819047Y-79742857D01*
X28795238Y-79695238D01*
X28795238Y-79671428D01*
X28819047Y-79623809D01*
X28842857Y-79600000D01*
X28890476Y-79576190D01*
X28985714Y-79576190D01*
X29033333Y-79600000D01*
X29057142Y-79623809D01*
X29080952Y-79671428D01*
X29080952Y-79695238D01*
X29057142Y-79742857D01*
X29033333Y-79766666D01*
X28985714Y-79790476D01*
X28890476Y-79790476D01*
X28842857Y-79814285D01*
X28819047Y-79838095D01*
X28795238Y-79885714D01*
X28795238Y-79980952D01*
X28819047Y-80028571D01*
X28842857Y-80052380D01*
X28890476Y-80076190D01*
X28985714Y-80076190D01*
X29033333Y-80052380D01*
X29057142Y-80028571D01*
X29080952Y-79980952D01*
X29080952Y-79885714D01*
X29057142Y-79838095D01*
X29033333Y-79814285D01*
X28985714Y-79790476D01*
G04 #@! TO.C,C57*
X27762971Y-14967068D02*
X27786780Y-14990878D01*
X27810590Y-15062306D01*
X27810590Y-15109925D01*
X27786780Y-15181354D01*
X27739161Y-15228973D01*
X27691542Y-15252782D01*
X27596304Y-15276592D01*
X27524876Y-15276592D01*
X27429638Y-15252782D01*
X27382019Y-15228973D01*
X27334400Y-15181354D01*
X27310590Y-15109925D01*
X27310590Y-15062306D01*
X27334400Y-14990878D01*
X27358209Y-14967068D01*
X27310590Y-14514687D02*
X27310590Y-14752782D01*
X27548685Y-14776592D01*
X27524876Y-14752782D01*
X27501066Y-14705163D01*
X27501066Y-14586116D01*
X27524876Y-14538497D01*
X27548685Y-14514687D01*
X27596304Y-14490878D01*
X27715352Y-14490878D01*
X27762971Y-14514687D01*
X27786780Y-14538497D01*
X27810590Y-14586116D01*
X27810590Y-14705163D01*
X27786780Y-14752782D01*
X27762971Y-14776592D01*
X27310590Y-14324211D02*
X27310590Y-13990878D01*
X27810590Y-14205163D01*
G04 #@! TO.C,C56*
X26400351Y-81863611D02*
X26376541Y-81887420D01*
X26305113Y-81911230D01*
X26257494Y-81911230D01*
X26186065Y-81887420D01*
X26138446Y-81839801D01*
X26114637Y-81792182D01*
X26090827Y-81696944D01*
X26090827Y-81625516D01*
X26114637Y-81530278D01*
X26138446Y-81482659D01*
X26186065Y-81435040D01*
X26257494Y-81411230D01*
X26305113Y-81411230D01*
X26376541Y-81435040D01*
X26400351Y-81458849D01*
X26852732Y-81411230D02*
X26614637Y-81411230D01*
X26590827Y-81649325D01*
X26614637Y-81625516D01*
X26662256Y-81601706D01*
X26781303Y-81601706D01*
X26828922Y-81625516D01*
X26852732Y-81649325D01*
X26876541Y-81696944D01*
X26876541Y-81815992D01*
X26852732Y-81863611D01*
X26828922Y-81887420D01*
X26781303Y-81911230D01*
X26662256Y-81911230D01*
X26614637Y-81887420D01*
X26590827Y-81863611D01*
X27305113Y-81411230D02*
X27209875Y-81411230D01*
X27162256Y-81435040D01*
X27138446Y-81458849D01*
X27090827Y-81530278D01*
X27067018Y-81625516D01*
X27067018Y-81815992D01*
X27090827Y-81863611D01*
X27114637Y-81887420D01*
X27162256Y-81911230D01*
X27257494Y-81911230D01*
X27305113Y-81887420D01*
X27328922Y-81863611D01*
X27352732Y-81815992D01*
X27352732Y-81696944D01*
X27328922Y-81649325D01*
X27305113Y-81625516D01*
X27257494Y-81601706D01*
X27162256Y-81601706D01*
X27114637Y-81625516D01*
X27090827Y-81649325D01*
X27067018Y-81696944D01*
G04 #@! TO.C,C55*
X29142571Y-11964171D02*
X29118761Y-11987980D01*
X29047333Y-12011790D01*
X28999714Y-12011790D01*
X28928285Y-11987980D01*
X28880666Y-11940361D01*
X28856857Y-11892742D01*
X28833047Y-11797504D01*
X28833047Y-11726076D01*
X28856857Y-11630838D01*
X28880666Y-11583219D01*
X28928285Y-11535600D01*
X28999714Y-11511790D01*
X29047333Y-11511790D01*
X29118761Y-11535600D01*
X29142571Y-11559409D01*
X29594952Y-11511790D02*
X29356857Y-11511790D01*
X29333047Y-11749885D01*
X29356857Y-11726076D01*
X29404476Y-11702266D01*
X29523523Y-11702266D01*
X29571142Y-11726076D01*
X29594952Y-11749885D01*
X29618761Y-11797504D01*
X29618761Y-11916552D01*
X29594952Y-11964171D01*
X29571142Y-11987980D01*
X29523523Y-12011790D01*
X29404476Y-12011790D01*
X29356857Y-11987980D01*
X29333047Y-11964171D01*
X30071142Y-11511790D02*
X29833047Y-11511790D01*
X29809238Y-11749885D01*
X29833047Y-11726076D01*
X29880666Y-11702266D01*
X29999714Y-11702266D01*
X30047333Y-11726076D01*
X30071142Y-11749885D01*
X30094952Y-11797504D01*
X30094952Y-11916552D01*
X30071142Y-11964171D01*
X30047333Y-11987980D01*
X29999714Y-12011790D01*
X29880666Y-12011790D01*
X29833047Y-11987980D01*
X29809238Y-11964171D01*
G04 #@! TO.C,C54*
X16323191Y-61829451D02*
X16299381Y-61853260D01*
X16227953Y-61877070D01*
X16180334Y-61877070D01*
X16108905Y-61853260D01*
X16061286Y-61805641D01*
X16037477Y-61758022D01*
X16013667Y-61662784D01*
X16013667Y-61591356D01*
X16037477Y-61496118D01*
X16061286Y-61448499D01*
X16108905Y-61400880D01*
X16180334Y-61377070D01*
X16227953Y-61377070D01*
X16299381Y-61400880D01*
X16323191Y-61424689D01*
X16775572Y-61377070D02*
X16537477Y-61377070D01*
X16513667Y-61615165D01*
X16537477Y-61591356D01*
X16585096Y-61567546D01*
X16704143Y-61567546D01*
X16751762Y-61591356D01*
X16775572Y-61615165D01*
X16799381Y-61662784D01*
X16799381Y-61781832D01*
X16775572Y-61829451D01*
X16751762Y-61853260D01*
X16704143Y-61877070D01*
X16585096Y-61877070D01*
X16537477Y-61853260D01*
X16513667Y-61829451D01*
X17227953Y-61543737D02*
X17227953Y-61877070D01*
X17108905Y-61353260D02*
X16989858Y-61710403D01*
X17299381Y-61710403D01*
G04 #@! TO.C,C53*
X31797731Y-73805571D02*
X31773921Y-73829380D01*
X31702493Y-73853190D01*
X31654874Y-73853190D01*
X31583445Y-73829380D01*
X31535826Y-73781761D01*
X31512017Y-73734142D01*
X31488207Y-73638904D01*
X31488207Y-73567476D01*
X31512017Y-73472238D01*
X31535826Y-73424619D01*
X31583445Y-73377000D01*
X31654874Y-73353190D01*
X31702493Y-73353190D01*
X31773921Y-73377000D01*
X31797731Y-73400809D01*
X32250112Y-73353190D02*
X32012017Y-73353190D01*
X31988207Y-73591285D01*
X32012017Y-73567476D01*
X32059636Y-73543666D01*
X32178683Y-73543666D01*
X32226302Y-73567476D01*
X32250112Y-73591285D01*
X32273921Y-73638904D01*
X32273921Y-73757952D01*
X32250112Y-73805571D01*
X32226302Y-73829380D01*
X32178683Y-73853190D01*
X32059636Y-73853190D01*
X32012017Y-73829380D01*
X31988207Y-73805571D01*
X32440588Y-73353190D02*
X32750112Y-73353190D01*
X32583445Y-73543666D01*
X32654874Y-73543666D01*
X32702493Y-73567476D01*
X32726302Y-73591285D01*
X32750112Y-73638904D01*
X32750112Y-73757952D01*
X32726302Y-73805571D01*
X32702493Y-73829380D01*
X32654874Y-73853190D01*
X32512017Y-73853190D01*
X32464398Y-73829380D01*
X32440588Y-73805571D01*
G04 #@! TO.C,C52*
X30523451Y-69349791D02*
X30499641Y-69373600D01*
X30428213Y-69397410D01*
X30380594Y-69397410D01*
X30309165Y-69373600D01*
X30261546Y-69325981D01*
X30237737Y-69278362D01*
X30213927Y-69183124D01*
X30213927Y-69111696D01*
X30237737Y-69016458D01*
X30261546Y-68968839D01*
X30309165Y-68921220D01*
X30380594Y-68897410D01*
X30428213Y-68897410D01*
X30499641Y-68921220D01*
X30523451Y-68945029D01*
X30975832Y-68897410D02*
X30737737Y-68897410D01*
X30713927Y-69135505D01*
X30737737Y-69111696D01*
X30785356Y-69087886D01*
X30904403Y-69087886D01*
X30952022Y-69111696D01*
X30975832Y-69135505D01*
X30999641Y-69183124D01*
X30999641Y-69302172D01*
X30975832Y-69349791D01*
X30952022Y-69373600D01*
X30904403Y-69397410D01*
X30785356Y-69397410D01*
X30737737Y-69373600D01*
X30713927Y-69349791D01*
X31190118Y-68945029D02*
X31213927Y-68921220D01*
X31261546Y-68897410D01*
X31380594Y-68897410D01*
X31428213Y-68921220D01*
X31452022Y-68945029D01*
X31475832Y-68992648D01*
X31475832Y-69040267D01*
X31452022Y-69111696D01*
X31166308Y-69397410D01*
X31475832Y-69397410D01*
G04 #@! TO.C,C51*
X31390471Y-77661271D02*
X31366661Y-77685080D01*
X31295233Y-77708890D01*
X31247614Y-77708890D01*
X31176185Y-77685080D01*
X31128566Y-77637461D01*
X31104757Y-77589842D01*
X31080947Y-77494604D01*
X31080947Y-77423176D01*
X31104757Y-77327938D01*
X31128566Y-77280319D01*
X31176185Y-77232700D01*
X31247614Y-77208890D01*
X31295233Y-77208890D01*
X31366661Y-77232700D01*
X31390471Y-77256509D01*
X31842852Y-77208890D02*
X31604757Y-77208890D01*
X31580947Y-77446985D01*
X31604757Y-77423176D01*
X31652376Y-77399366D01*
X31771423Y-77399366D01*
X31819042Y-77423176D01*
X31842852Y-77446985D01*
X31866661Y-77494604D01*
X31866661Y-77613652D01*
X31842852Y-77661271D01*
X31819042Y-77685080D01*
X31771423Y-77708890D01*
X31652376Y-77708890D01*
X31604757Y-77685080D01*
X31580947Y-77661271D01*
X32342852Y-77708890D02*
X32057138Y-77708890D01*
X32199995Y-77708890D02*
X32199995Y-77208890D01*
X32152376Y-77280319D01*
X32104757Y-77327938D01*
X32057138Y-77351747D01*
G04 #@! TO.C,C50*
X15337291Y-68017508D02*
X15361100Y-68041318D01*
X15384910Y-68112746D01*
X15384910Y-68160365D01*
X15361100Y-68231794D01*
X15313481Y-68279413D01*
X15265862Y-68303222D01*
X15170624Y-68327032D01*
X15099196Y-68327032D01*
X15003958Y-68303222D01*
X14956339Y-68279413D01*
X14908720Y-68231794D01*
X14884910Y-68160365D01*
X14884910Y-68112746D01*
X14908720Y-68041318D01*
X14932529Y-68017508D01*
X14884910Y-67565127D02*
X14884910Y-67803222D01*
X15123005Y-67827032D01*
X15099196Y-67803222D01*
X15075386Y-67755603D01*
X15075386Y-67636556D01*
X15099196Y-67588937D01*
X15123005Y-67565127D01*
X15170624Y-67541318D01*
X15289672Y-67541318D01*
X15337291Y-67565127D01*
X15361100Y-67588937D01*
X15384910Y-67636556D01*
X15384910Y-67755603D01*
X15361100Y-67803222D01*
X15337291Y-67827032D01*
X14884910Y-67231794D02*
X14884910Y-67184175D01*
X14908720Y-67136556D01*
X14932529Y-67112746D01*
X14980148Y-67088937D01*
X15075386Y-67065127D01*
X15194434Y-67065127D01*
X15289672Y-67088937D01*
X15337291Y-67112746D01*
X15361100Y-67136556D01*
X15384910Y-67184175D01*
X15384910Y-67231794D01*
X15361100Y-67279413D01*
X15337291Y-67303222D01*
X15289672Y-67327032D01*
X15194434Y-67350841D01*
X15075386Y-67350841D01*
X14980148Y-67327032D01*
X14932529Y-67303222D01*
X14908720Y-67279413D01*
X14884910Y-67231794D01*
G04 #@! TO.C,C49*
X18238351Y-78212451D02*
X18214541Y-78236260D01*
X18143113Y-78260070D01*
X18095494Y-78260070D01*
X18024065Y-78236260D01*
X17976446Y-78188641D01*
X17952637Y-78141022D01*
X17928827Y-78045784D01*
X17928827Y-77974356D01*
X17952637Y-77879118D01*
X17976446Y-77831499D01*
X18024065Y-77783880D01*
X18095494Y-77760070D01*
X18143113Y-77760070D01*
X18214541Y-77783880D01*
X18238351Y-77807689D01*
X18666922Y-77926737D02*
X18666922Y-78260070D01*
X18547875Y-77736260D02*
X18428827Y-78093403D01*
X18738351Y-78093403D01*
X18952637Y-78260070D02*
X19047875Y-78260070D01*
X19095494Y-78236260D01*
X19119303Y-78212451D01*
X19166922Y-78141022D01*
X19190732Y-78045784D01*
X19190732Y-77855308D01*
X19166922Y-77807689D01*
X19143113Y-77783880D01*
X19095494Y-77760070D01*
X19000256Y-77760070D01*
X18952637Y-77783880D01*
X18928827Y-77807689D01*
X18905018Y-77855308D01*
X18905018Y-77974356D01*
X18928827Y-78021975D01*
X18952637Y-78045784D01*
X19000256Y-78069594D01*
X19095494Y-78069594D01*
X19143113Y-78045784D01*
X19166922Y-78021975D01*
X19190732Y-77974356D01*
G04 #@! TO.C,C48*
X13421131Y-77909671D02*
X13397321Y-77933480D01*
X13325893Y-77957290D01*
X13278274Y-77957290D01*
X13206845Y-77933480D01*
X13159226Y-77885861D01*
X13135417Y-77838242D01*
X13111607Y-77743004D01*
X13111607Y-77671576D01*
X13135417Y-77576338D01*
X13159226Y-77528719D01*
X13206845Y-77481100D01*
X13278274Y-77457290D01*
X13325893Y-77457290D01*
X13397321Y-77481100D01*
X13421131Y-77504909D01*
X13849702Y-77623957D02*
X13849702Y-77957290D01*
X13730655Y-77433480D02*
X13611607Y-77790623D01*
X13921131Y-77790623D01*
X14183036Y-77671576D02*
X14135417Y-77647766D01*
X14111607Y-77623957D01*
X14087798Y-77576338D01*
X14087798Y-77552528D01*
X14111607Y-77504909D01*
X14135417Y-77481100D01*
X14183036Y-77457290D01*
X14278274Y-77457290D01*
X14325893Y-77481100D01*
X14349702Y-77504909D01*
X14373512Y-77552528D01*
X14373512Y-77576338D01*
X14349702Y-77623957D01*
X14325893Y-77647766D01*
X14278274Y-77671576D01*
X14183036Y-77671576D01*
X14135417Y-77695385D01*
X14111607Y-77719195D01*
X14087798Y-77766814D01*
X14087798Y-77862052D01*
X14111607Y-77909671D01*
X14135417Y-77933480D01*
X14183036Y-77957290D01*
X14278274Y-77957290D01*
X14325893Y-77933480D01*
X14349702Y-77909671D01*
X14373512Y-77862052D01*
X14373512Y-77766814D01*
X14349702Y-77719195D01*
X14325893Y-77695385D01*
X14278274Y-77671576D01*
G04 #@! TO.C,C47*
X10389611Y-70516251D02*
X10365801Y-70540060D01*
X10294373Y-70563870D01*
X10246754Y-70563870D01*
X10175325Y-70540060D01*
X10127706Y-70492441D01*
X10103897Y-70444822D01*
X10080087Y-70349584D01*
X10080087Y-70278156D01*
X10103897Y-70182918D01*
X10127706Y-70135299D01*
X10175325Y-70087680D01*
X10246754Y-70063870D01*
X10294373Y-70063870D01*
X10365801Y-70087680D01*
X10389611Y-70111489D01*
X10818182Y-70230537D02*
X10818182Y-70563870D01*
X10699135Y-70040060D02*
X10580087Y-70397203D01*
X10889611Y-70397203D01*
X11032468Y-70063870D02*
X11365801Y-70063870D01*
X11151516Y-70563870D01*
G04 #@! TO.C,C46*
X30501092Y-77128487D02*
X30524901Y-77152297D01*
X30548711Y-77223725D01*
X30548711Y-77271344D01*
X30524901Y-77342773D01*
X30477282Y-77390392D01*
X30429663Y-77414201D01*
X30334425Y-77438011D01*
X30262997Y-77438011D01*
X30167759Y-77414201D01*
X30120140Y-77390392D01*
X30072521Y-77342773D01*
X30048711Y-77271344D01*
X30048711Y-77223725D01*
X30072521Y-77152297D01*
X30096330Y-77128487D01*
X30215378Y-76699916D02*
X30548711Y-76699916D01*
X30024901Y-76818963D02*
X30382044Y-76938011D01*
X30382044Y-76628487D01*
X30048711Y-76223725D02*
X30048711Y-76318963D01*
X30072521Y-76366582D01*
X30096330Y-76390392D01*
X30167759Y-76438011D01*
X30262997Y-76461820D01*
X30453473Y-76461820D01*
X30501092Y-76438011D01*
X30524901Y-76414201D01*
X30548711Y-76366582D01*
X30548711Y-76271344D01*
X30524901Y-76223725D01*
X30501092Y-76199916D01*
X30453473Y-76176106D01*
X30334425Y-76176106D01*
X30286806Y-76199916D01*
X30262997Y-76223725D01*
X30239187Y-76271344D01*
X30239187Y-76366582D01*
X30262997Y-76414201D01*
X30286806Y-76438011D01*
X30334425Y-76461820D01*
G04 #@! TO.C,C45*
X10461491Y-74172111D02*
X10437681Y-74195920D01*
X10366253Y-74219730D01*
X10318634Y-74219730D01*
X10247205Y-74195920D01*
X10199586Y-74148301D01*
X10175777Y-74100682D01*
X10151967Y-74005444D01*
X10151967Y-73934016D01*
X10175777Y-73838778D01*
X10199586Y-73791159D01*
X10247205Y-73743540D01*
X10318634Y-73719730D01*
X10366253Y-73719730D01*
X10437681Y-73743540D01*
X10461491Y-73767349D01*
X10890062Y-73886397D02*
X10890062Y-74219730D01*
X10771015Y-73695920D02*
X10651967Y-74053063D01*
X10961491Y-74053063D01*
X11390062Y-73719730D02*
X11151967Y-73719730D01*
X11128158Y-73957825D01*
X11151967Y-73934016D01*
X11199586Y-73910206D01*
X11318634Y-73910206D01*
X11366253Y-73934016D01*
X11390062Y-73957825D01*
X11413872Y-74005444D01*
X11413872Y-74124492D01*
X11390062Y-74172111D01*
X11366253Y-74195920D01*
X11318634Y-74219730D01*
X11199586Y-74219730D01*
X11151967Y-74195920D01*
X11128158Y-74172111D01*
G04 #@! TO.C,C44*
X10433451Y-72665731D02*
X10409641Y-72689540D01*
X10338213Y-72713350D01*
X10290594Y-72713350D01*
X10219165Y-72689540D01*
X10171546Y-72641921D01*
X10147737Y-72594302D01*
X10123927Y-72499064D01*
X10123927Y-72427636D01*
X10147737Y-72332398D01*
X10171546Y-72284779D01*
X10219165Y-72237160D01*
X10290594Y-72213350D01*
X10338213Y-72213350D01*
X10409641Y-72237160D01*
X10433451Y-72260969D01*
X10862022Y-72380017D02*
X10862022Y-72713350D01*
X10742975Y-72189540D02*
X10623927Y-72546683D01*
X10933451Y-72546683D01*
X11338213Y-72380017D02*
X11338213Y-72713350D01*
X11219165Y-72189540D02*
X11100118Y-72546683D01*
X11409641Y-72546683D01*
G04 #@! TO.C,C43*
X16043411Y-82652988D02*
X16067220Y-82676798D01*
X16091030Y-82748226D01*
X16091030Y-82795845D01*
X16067220Y-82867274D01*
X16019601Y-82914893D01*
X15971982Y-82938702D01*
X15876744Y-82962512D01*
X15805316Y-82962512D01*
X15710078Y-82938702D01*
X15662459Y-82914893D01*
X15614840Y-82867274D01*
X15591030Y-82795845D01*
X15591030Y-82748226D01*
X15614840Y-82676798D01*
X15638649Y-82652988D01*
X15757697Y-82224417D02*
X16091030Y-82224417D01*
X15567220Y-82343464D02*
X15924363Y-82462512D01*
X15924363Y-82152988D01*
X15591030Y-82010131D02*
X15591030Y-81700607D01*
X15781506Y-81867274D01*
X15781506Y-81795845D01*
X15805316Y-81748226D01*
X15829125Y-81724417D01*
X15876744Y-81700607D01*
X15995792Y-81700607D01*
X16043411Y-81724417D01*
X16067220Y-81748226D01*
X16091030Y-81795845D01*
X16091030Y-81938702D01*
X16067220Y-81986321D01*
X16043411Y-82010131D01*
G04 #@! TO.C,C42*
X14326371Y-68002268D02*
X14350180Y-68026078D01*
X14373990Y-68097506D01*
X14373990Y-68145125D01*
X14350180Y-68216554D01*
X14302561Y-68264173D01*
X14254942Y-68287982D01*
X14159704Y-68311792D01*
X14088276Y-68311792D01*
X13993038Y-68287982D01*
X13945419Y-68264173D01*
X13897800Y-68216554D01*
X13873990Y-68145125D01*
X13873990Y-68097506D01*
X13897800Y-68026078D01*
X13921609Y-68002268D01*
X14040657Y-67573697D02*
X14373990Y-67573697D01*
X13850180Y-67692744D02*
X14207323Y-67811792D01*
X14207323Y-67502268D01*
X13921609Y-67335601D02*
X13897800Y-67311792D01*
X13873990Y-67264173D01*
X13873990Y-67145125D01*
X13897800Y-67097506D01*
X13921609Y-67073697D01*
X13969228Y-67049887D01*
X14016847Y-67049887D01*
X14088276Y-67073697D01*
X14373990Y-67359411D01*
X14373990Y-67049887D01*
G04 #@! TO.C,C41*
X27275291Y-66625588D02*
X27299100Y-66649398D01*
X27322910Y-66720826D01*
X27322910Y-66768445D01*
X27299100Y-66839874D01*
X27251481Y-66887493D01*
X27203862Y-66911302D01*
X27108624Y-66935112D01*
X27037196Y-66935112D01*
X26941958Y-66911302D01*
X26894339Y-66887493D01*
X26846720Y-66839874D01*
X26822910Y-66768445D01*
X26822910Y-66720826D01*
X26846720Y-66649398D01*
X26870529Y-66625588D01*
X26989577Y-66197017D02*
X27322910Y-66197017D01*
X26799100Y-66316064D02*
X27156243Y-66435112D01*
X27156243Y-66125588D01*
X27322910Y-65673207D02*
X27322910Y-65958921D01*
X27322910Y-65816064D02*
X26822910Y-65816064D01*
X26894339Y-65863683D01*
X26941958Y-65911302D01*
X26965767Y-65958921D01*
G04 #@! TO.C,C40*
X12929371Y-82815548D02*
X12953180Y-82839358D01*
X12976990Y-82910786D01*
X12976990Y-82958405D01*
X12953180Y-83029834D01*
X12905561Y-83077453D01*
X12857942Y-83101262D01*
X12762704Y-83125072D01*
X12691276Y-83125072D01*
X12596038Y-83101262D01*
X12548419Y-83077453D01*
X12500800Y-83029834D01*
X12476990Y-82958405D01*
X12476990Y-82910786D01*
X12500800Y-82839358D01*
X12524609Y-82815548D01*
X12643657Y-82386977D02*
X12976990Y-82386977D01*
X12453180Y-82506024D02*
X12810323Y-82625072D01*
X12810323Y-82315548D01*
X12476990Y-82029834D02*
X12476990Y-81982215D01*
X12500800Y-81934596D01*
X12524609Y-81910786D01*
X12572228Y-81886977D01*
X12667466Y-81863167D01*
X12786514Y-81863167D01*
X12881752Y-81886977D01*
X12929371Y-81910786D01*
X12953180Y-81934596D01*
X12976990Y-81982215D01*
X12976990Y-82029834D01*
X12953180Y-82077453D01*
X12929371Y-82101262D01*
X12881752Y-82125072D01*
X12786514Y-82148881D01*
X12667466Y-82148881D01*
X12572228Y-82125072D01*
X12524609Y-82101262D01*
X12500800Y-82077453D01*
X12476990Y-82029834D01*
G04 #@! TO.C,C36*
X13507491Y-79090771D02*
X13483681Y-79114580D01*
X13412253Y-79138390D01*
X13364634Y-79138390D01*
X13293205Y-79114580D01*
X13245586Y-79066961D01*
X13221777Y-79019342D01*
X13197967Y-78924104D01*
X13197967Y-78852676D01*
X13221777Y-78757438D01*
X13245586Y-78709819D01*
X13293205Y-78662200D01*
X13364634Y-78638390D01*
X13412253Y-78638390D01*
X13483681Y-78662200D01*
X13507491Y-78686009D01*
X13674158Y-78638390D02*
X13983681Y-78638390D01*
X13817015Y-78828866D01*
X13888443Y-78828866D01*
X13936062Y-78852676D01*
X13959872Y-78876485D01*
X13983681Y-78924104D01*
X13983681Y-79043152D01*
X13959872Y-79090771D01*
X13936062Y-79114580D01*
X13888443Y-79138390D01*
X13745586Y-79138390D01*
X13697967Y-79114580D01*
X13674158Y-79090771D01*
X14412253Y-78638390D02*
X14317015Y-78638390D01*
X14269396Y-78662200D01*
X14245586Y-78686009D01*
X14197967Y-78757438D01*
X14174158Y-78852676D01*
X14174158Y-79043152D01*
X14197967Y-79090771D01*
X14221777Y-79114580D01*
X14269396Y-79138390D01*
X14364634Y-79138390D01*
X14412253Y-79114580D01*
X14436062Y-79090771D01*
X14459872Y-79043152D01*
X14459872Y-78924104D01*
X14436062Y-78876485D01*
X14412253Y-78852676D01*
X14364634Y-78828866D01*
X14269396Y-78828866D01*
X14221777Y-78852676D01*
X14197967Y-78876485D01*
X14174158Y-78924104D01*
G04 #@! TO.C,C35*
X10285611Y-68021971D02*
X10261801Y-68045780D01*
X10190373Y-68069590D01*
X10142754Y-68069590D01*
X10071325Y-68045780D01*
X10023706Y-67998161D01*
X9999897Y-67950542D01*
X9976087Y-67855304D01*
X9976087Y-67783876D01*
X9999897Y-67688638D01*
X10023706Y-67641019D01*
X10071325Y-67593400D01*
X10142754Y-67569590D01*
X10190373Y-67569590D01*
X10261801Y-67593400D01*
X10285611Y-67617209D01*
X10452278Y-67569590D02*
X10761801Y-67569590D01*
X10595135Y-67760066D01*
X10666563Y-67760066D01*
X10714182Y-67783876D01*
X10737992Y-67807685D01*
X10761801Y-67855304D01*
X10761801Y-67974352D01*
X10737992Y-68021971D01*
X10714182Y-68045780D01*
X10666563Y-68069590D01*
X10523706Y-68069590D01*
X10476087Y-68045780D01*
X10452278Y-68021971D01*
X11214182Y-67569590D02*
X10976087Y-67569590D01*
X10952278Y-67807685D01*
X10976087Y-67783876D01*
X11023706Y-67760066D01*
X11142754Y-67760066D01*
X11190373Y-67783876D01*
X11214182Y-67807685D01*
X11237992Y-67855304D01*
X11237992Y-67974352D01*
X11214182Y-68021971D01*
X11190373Y-68045780D01*
X11142754Y-68069590D01*
X11023706Y-68069590D01*
X10976087Y-68045780D01*
X10952278Y-68021971D01*
G04 #@! TO.C,C33*
X36536511Y-39309811D02*
X36512701Y-39333620D01*
X36441273Y-39357430D01*
X36393654Y-39357430D01*
X36322225Y-39333620D01*
X36274606Y-39286001D01*
X36250797Y-39238382D01*
X36226987Y-39143144D01*
X36226987Y-39071716D01*
X36250797Y-38976478D01*
X36274606Y-38928859D01*
X36322225Y-38881240D01*
X36393654Y-38857430D01*
X36441273Y-38857430D01*
X36512701Y-38881240D01*
X36536511Y-38905049D01*
X36703178Y-38857430D02*
X37012701Y-38857430D01*
X36846035Y-39047906D01*
X36917463Y-39047906D01*
X36965082Y-39071716D01*
X36988892Y-39095525D01*
X37012701Y-39143144D01*
X37012701Y-39262192D01*
X36988892Y-39309811D01*
X36965082Y-39333620D01*
X36917463Y-39357430D01*
X36774606Y-39357430D01*
X36726987Y-39333620D01*
X36703178Y-39309811D01*
X37179368Y-38857430D02*
X37488892Y-38857430D01*
X37322225Y-39047906D01*
X37393654Y-39047906D01*
X37441273Y-39071716D01*
X37465082Y-39095525D01*
X37488892Y-39143144D01*
X37488892Y-39262192D01*
X37465082Y-39309811D01*
X37441273Y-39333620D01*
X37393654Y-39357430D01*
X37250797Y-39357430D01*
X37203178Y-39333620D01*
X37179368Y-39309811D01*
G04 #@! TO.C,C32*
X36516191Y-42665149D02*
X36492381Y-42688958D01*
X36420953Y-42712768D01*
X36373334Y-42712768D01*
X36301905Y-42688958D01*
X36254286Y-42641339D01*
X36230477Y-42593720D01*
X36206667Y-42498482D01*
X36206667Y-42427054D01*
X36230477Y-42331816D01*
X36254286Y-42284197D01*
X36301905Y-42236578D01*
X36373334Y-42212768D01*
X36420953Y-42212768D01*
X36492381Y-42236578D01*
X36516191Y-42260387D01*
X36682858Y-42212768D02*
X36992381Y-42212768D01*
X36825715Y-42403244D01*
X36897143Y-42403244D01*
X36944762Y-42427054D01*
X36968572Y-42450863D01*
X36992381Y-42498482D01*
X36992381Y-42617530D01*
X36968572Y-42665149D01*
X36944762Y-42688958D01*
X36897143Y-42712768D01*
X36754286Y-42712768D01*
X36706667Y-42688958D01*
X36682858Y-42665149D01*
X37182858Y-42260387D02*
X37206667Y-42236578D01*
X37254286Y-42212768D01*
X37373334Y-42212768D01*
X37420953Y-42236578D01*
X37444762Y-42260387D01*
X37468572Y-42308006D01*
X37468572Y-42355625D01*
X37444762Y-42427054D01*
X37159048Y-42712768D01*
X37468572Y-42712768D01*
G04 #@! TO.C,C31*
X36541591Y-41543315D02*
X36517781Y-41567124D01*
X36446353Y-41590934D01*
X36398734Y-41590934D01*
X36327305Y-41567124D01*
X36279686Y-41519505D01*
X36255877Y-41471886D01*
X36232067Y-41376648D01*
X36232067Y-41305220D01*
X36255877Y-41209982D01*
X36279686Y-41162363D01*
X36327305Y-41114744D01*
X36398734Y-41090934D01*
X36446353Y-41090934D01*
X36517781Y-41114744D01*
X36541591Y-41138553D01*
X36708258Y-41090934D02*
X37017781Y-41090934D01*
X36851115Y-41281410D01*
X36922543Y-41281410D01*
X36970162Y-41305220D01*
X36993972Y-41329029D01*
X37017781Y-41376648D01*
X37017781Y-41495696D01*
X36993972Y-41543315D01*
X36970162Y-41567124D01*
X36922543Y-41590934D01*
X36779686Y-41590934D01*
X36732067Y-41567124D01*
X36708258Y-41543315D01*
X37493972Y-41590934D02*
X37208258Y-41590934D01*
X37351115Y-41590934D02*
X37351115Y-41090934D01*
X37303496Y-41162363D01*
X37255877Y-41209982D01*
X37208258Y-41233791D01*
G04 #@! TO.C,C30*
X31532711Y-42517831D02*
X31508901Y-42541640D01*
X31437473Y-42565450D01*
X31389854Y-42565450D01*
X31318425Y-42541640D01*
X31270806Y-42494021D01*
X31246997Y-42446402D01*
X31223187Y-42351164D01*
X31223187Y-42279736D01*
X31246997Y-42184498D01*
X31270806Y-42136879D01*
X31318425Y-42089260D01*
X31389854Y-42065450D01*
X31437473Y-42065450D01*
X31508901Y-42089260D01*
X31532711Y-42113069D01*
X31699378Y-42065450D02*
X32008901Y-42065450D01*
X31842235Y-42255926D01*
X31913663Y-42255926D01*
X31961282Y-42279736D01*
X31985092Y-42303545D01*
X32008901Y-42351164D01*
X32008901Y-42470212D01*
X31985092Y-42517831D01*
X31961282Y-42541640D01*
X31913663Y-42565450D01*
X31770806Y-42565450D01*
X31723187Y-42541640D01*
X31699378Y-42517831D01*
X32318425Y-42065450D02*
X32366044Y-42065450D01*
X32413663Y-42089260D01*
X32437473Y-42113069D01*
X32461282Y-42160688D01*
X32485092Y-42255926D01*
X32485092Y-42374974D01*
X32461282Y-42470212D01*
X32437473Y-42517831D01*
X32413663Y-42541640D01*
X32366044Y-42565450D01*
X32318425Y-42565450D01*
X32270806Y-42541640D01*
X32246997Y-42517831D01*
X32223187Y-42470212D01*
X32199378Y-42374974D01*
X32199378Y-42255926D01*
X32223187Y-42160688D01*
X32246997Y-42113069D01*
X32270806Y-42089260D01*
X32318425Y-42065450D01*
G04 #@! TO.C,C29*
X31502231Y-41357051D02*
X31478421Y-41380860D01*
X31406993Y-41404670D01*
X31359374Y-41404670D01*
X31287945Y-41380860D01*
X31240326Y-41333241D01*
X31216517Y-41285622D01*
X31192707Y-41190384D01*
X31192707Y-41118956D01*
X31216517Y-41023718D01*
X31240326Y-40976099D01*
X31287945Y-40928480D01*
X31359374Y-40904670D01*
X31406993Y-40904670D01*
X31478421Y-40928480D01*
X31502231Y-40952289D01*
X31692707Y-40952289D02*
X31716517Y-40928480D01*
X31764136Y-40904670D01*
X31883183Y-40904670D01*
X31930802Y-40928480D01*
X31954612Y-40952289D01*
X31978421Y-40999908D01*
X31978421Y-41047527D01*
X31954612Y-41118956D01*
X31668898Y-41404670D01*
X31978421Y-41404670D01*
X32216517Y-41404670D02*
X32311755Y-41404670D01*
X32359374Y-41380860D01*
X32383183Y-41357051D01*
X32430802Y-41285622D01*
X32454612Y-41190384D01*
X32454612Y-40999908D01*
X32430802Y-40952289D01*
X32406993Y-40928480D01*
X32359374Y-40904670D01*
X32264136Y-40904670D01*
X32216517Y-40928480D01*
X32192707Y-40952289D01*
X32168898Y-40999908D01*
X32168898Y-41118956D01*
X32192707Y-41166575D01*
X32216517Y-41190384D01*
X32264136Y-41214194D01*
X32359374Y-41214194D01*
X32406993Y-41190384D01*
X32430802Y-41166575D01*
X32454612Y-41118956D01*
G04 #@! TO.C,C28*
X40826191Y-36094788D02*
X40850000Y-36118598D01*
X40873810Y-36190026D01*
X40873810Y-36237645D01*
X40850000Y-36309074D01*
X40802381Y-36356693D01*
X40754762Y-36380502D01*
X40659524Y-36404312D01*
X40588096Y-36404312D01*
X40492858Y-36380502D01*
X40445239Y-36356693D01*
X40397620Y-36309074D01*
X40373810Y-36237645D01*
X40373810Y-36190026D01*
X40397620Y-36118598D01*
X40421429Y-36094788D01*
X40421429Y-35904312D02*
X40397620Y-35880502D01*
X40373810Y-35832883D01*
X40373810Y-35713836D01*
X40397620Y-35666217D01*
X40421429Y-35642407D01*
X40469048Y-35618598D01*
X40516667Y-35618598D01*
X40588096Y-35642407D01*
X40873810Y-35928121D01*
X40873810Y-35618598D01*
X40588096Y-35332883D02*
X40564286Y-35380502D01*
X40540477Y-35404312D01*
X40492858Y-35428121D01*
X40469048Y-35428121D01*
X40421429Y-35404312D01*
X40397620Y-35380502D01*
X40373810Y-35332883D01*
X40373810Y-35237645D01*
X40397620Y-35190026D01*
X40421429Y-35166217D01*
X40469048Y-35142407D01*
X40492858Y-35142407D01*
X40540477Y-35166217D01*
X40564286Y-35190026D01*
X40588096Y-35237645D01*
X40588096Y-35332883D01*
X40611905Y-35380502D01*
X40635715Y-35404312D01*
X40683334Y-35428121D01*
X40778572Y-35428121D01*
X40826191Y-35404312D01*
X40850000Y-35380502D01*
X40873810Y-35332883D01*
X40873810Y-35237645D01*
X40850000Y-35190026D01*
X40826191Y-35166217D01*
X40778572Y-35142407D01*
X40683334Y-35142407D01*
X40635715Y-35166217D01*
X40611905Y-35190026D01*
X40588096Y-35237645D01*
G04 #@! TO.C,C8*
X50191606Y-5468411D02*
X50167797Y-5492220D01*
X50096368Y-5516030D01*
X50048749Y-5516030D01*
X49977320Y-5492220D01*
X49929701Y-5444601D01*
X49905892Y-5396982D01*
X49882082Y-5301744D01*
X49882082Y-5230316D01*
X49905892Y-5135078D01*
X49929701Y-5087459D01*
X49977320Y-5039840D01*
X50048749Y-5016030D01*
X50096368Y-5016030D01*
X50167797Y-5039840D01*
X50191606Y-5063649D01*
X50477320Y-5230316D02*
X50429701Y-5206506D01*
X50405892Y-5182697D01*
X50382082Y-5135078D01*
X50382082Y-5111268D01*
X50405892Y-5063649D01*
X50429701Y-5039840D01*
X50477320Y-5016030D01*
X50572559Y-5016030D01*
X50620178Y-5039840D01*
X50643987Y-5063649D01*
X50667797Y-5111268D01*
X50667797Y-5135078D01*
X50643987Y-5182697D01*
X50620178Y-5206506D01*
X50572559Y-5230316D01*
X50477320Y-5230316D01*
X50429701Y-5254125D01*
X50405892Y-5277935D01*
X50382082Y-5325554D01*
X50382082Y-5420792D01*
X50405892Y-5468411D01*
X50429701Y-5492220D01*
X50477320Y-5516030D01*
X50572559Y-5516030D01*
X50620178Y-5492220D01*
X50643987Y-5468411D01*
X50667797Y-5420792D01*
X50667797Y-5325554D01*
X50643987Y-5277935D01*
X50620178Y-5254125D01*
X50572559Y-5230316D01*
G04 #@! TO.C,R27*
X52129571Y-34688910D02*
X51962904Y-34450815D01*
X51843857Y-34688910D02*
X51843857Y-34188910D01*
X52034333Y-34188910D01*
X52081952Y-34212720D01*
X52105761Y-34236529D01*
X52129571Y-34284148D01*
X52129571Y-34355577D01*
X52105761Y-34403196D01*
X52081952Y-34427005D01*
X52034333Y-34450815D01*
X51843857Y-34450815D01*
X52320047Y-34236529D02*
X52343857Y-34212720D01*
X52391476Y-34188910D01*
X52510523Y-34188910D01*
X52558142Y-34212720D01*
X52581952Y-34236529D01*
X52605761Y-34284148D01*
X52605761Y-34331767D01*
X52581952Y-34403196D01*
X52296238Y-34688910D01*
X52605761Y-34688910D01*
X52772428Y-34188910D02*
X53105761Y-34188910D01*
X52891476Y-34688910D01*
G04 #@! TO.C,R46*
X12725031Y-87584810D02*
X12558364Y-87346715D01*
X12439317Y-87584810D02*
X12439317Y-87084810D01*
X12629793Y-87084810D01*
X12677412Y-87108620D01*
X12701221Y-87132429D01*
X12725031Y-87180048D01*
X12725031Y-87251477D01*
X12701221Y-87299096D01*
X12677412Y-87322905D01*
X12629793Y-87346715D01*
X12439317Y-87346715D01*
X13153602Y-87251477D02*
X13153602Y-87584810D01*
X13034555Y-87061000D02*
X12915507Y-87418143D01*
X13225031Y-87418143D01*
X13629793Y-87084810D02*
X13534555Y-87084810D01*
X13486936Y-87108620D01*
X13463126Y-87132429D01*
X13415507Y-87203858D01*
X13391698Y-87299096D01*
X13391698Y-87489572D01*
X13415507Y-87537191D01*
X13439317Y-87561000D01*
X13486936Y-87584810D01*
X13582174Y-87584810D01*
X13629793Y-87561000D01*
X13653602Y-87537191D01*
X13677412Y-87489572D01*
X13677412Y-87370524D01*
X13653602Y-87322905D01*
X13629793Y-87299096D01*
X13582174Y-87275286D01*
X13486936Y-87275286D01*
X13439317Y-87299096D01*
X13415507Y-87322905D01*
X13391698Y-87370524D01*
G04 #@! TO.C,R45*
X12670671Y-86342350D02*
X12504004Y-86104255D01*
X12384957Y-86342350D02*
X12384957Y-85842350D01*
X12575433Y-85842350D01*
X12623052Y-85866160D01*
X12646861Y-85889969D01*
X12670671Y-85937588D01*
X12670671Y-86009017D01*
X12646861Y-86056636D01*
X12623052Y-86080445D01*
X12575433Y-86104255D01*
X12384957Y-86104255D01*
X13099242Y-86009017D02*
X13099242Y-86342350D01*
X12980195Y-85818540D02*
X12861147Y-86175683D01*
X13170671Y-86175683D01*
X13599242Y-85842350D02*
X13361147Y-85842350D01*
X13337338Y-86080445D01*
X13361147Y-86056636D01*
X13408766Y-86032826D01*
X13527814Y-86032826D01*
X13575433Y-86056636D01*
X13599242Y-86080445D01*
X13623052Y-86128064D01*
X13623052Y-86247112D01*
X13599242Y-86294731D01*
X13575433Y-86318540D01*
X13527814Y-86342350D01*
X13408766Y-86342350D01*
X13361147Y-86318540D01*
X13337338Y-86294731D01*
G04 #@! TO.C,R44*
X18982571Y-12253090D02*
X18815904Y-12014995D01*
X18696857Y-12253090D02*
X18696857Y-11753090D01*
X18887333Y-11753090D01*
X18934952Y-11776900D01*
X18958761Y-11800709D01*
X18982571Y-11848328D01*
X18982571Y-11919757D01*
X18958761Y-11967376D01*
X18934952Y-11991185D01*
X18887333Y-12014995D01*
X18696857Y-12014995D01*
X19411142Y-11919757D02*
X19411142Y-12253090D01*
X19292095Y-11729280D02*
X19173047Y-12086423D01*
X19482571Y-12086423D01*
X19887333Y-11919757D02*
X19887333Y-12253090D01*
X19768285Y-11729280D02*
X19649238Y-12086423D01*
X19958761Y-12086423D01*
G04 #@! TO.C,R43*
X25103971Y-12166730D02*
X24937304Y-11928635D01*
X24818257Y-12166730D02*
X24818257Y-11666730D01*
X25008733Y-11666730D01*
X25056352Y-11690540D01*
X25080161Y-11714349D01*
X25103971Y-11761968D01*
X25103971Y-11833397D01*
X25080161Y-11881016D01*
X25056352Y-11904825D01*
X25008733Y-11928635D01*
X24818257Y-11928635D01*
X25532542Y-11833397D02*
X25532542Y-12166730D01*
X25413495Y-11642920D02*
X25294447Y-12000063D01*
X25603971Y-12000063D01*
X25746828Y-11666730D02*
X26056352Y-11666730D01*
X25889685Y-11857206D01*
X25961114Y-11857206D01*
X26008733Y-11881016D01*
X26032542Y-11904825D01*
X26056352Y-11952444D01*
X26056352Y-12071492D01*
X26032542Y-12119111D01*
X26008733Y-12142920D01*
X25961114Y-12166730D01*
X25818257Y-12166730D01*
X25770638Y-12142920D01*
X25746828Y-12119111D01*
G04 #@! TO.C,R41*
X27277190Y-68611868D02*
X27039095Y-68778535D01*
X27277190Y-68897582D02*
X26777190Y-68897582D01*
X26777190Y-68707106D01*
X26801000Y-68659487D01*
X26824809Y-68635678D01*
X26872428Y-68611868D01*
X26943857Y-68611868D01*
X26991476Y-68635678D01*
X27015285Y-68659487D01*
X27039095Y-68707106D01*
X27039095Y-68897582D01*
X26943857Y-68183297D02*
X27277190Y-68183297D01*
X26753380Y-68302344D02*
X27110523Y-68421392D01*
X27110523Y-68111868D01*
X27277190Y-67659487D02*
X27277190Y-67945201D01*
X27277190Y-67802344D02*
X26777190Y-67802344D01*
X26848619Y-67849963D01*
X26896238Y-67897582D01*
X26920047Y-67945201D01*
G04 #@! TO.C,R36*
X35177434Y-90524448D02*
X34939339Y-90691115D01*
X35177434Y-90810162D02*
X34677434Y-90810162D01*
X34677434Y-90619686D01*
X34701244Y-90572067D01*
X34725053Y-90548258D01*
X34772672Y-90524448D01*
X34844101Y-90524448D01*
X34891720Y-90548258D01*
X34915529Y-90572067D01*
X34939339Y-90619686D01*
X34939339Y-90810162D01*
X34677434Y-90357781D02*
X34677434Y-90048258D01*
X34867910Y-90214924D01*
X34867910Y-90143496D01*
X34891720Y-90095877D01*
X34915529Y-90072067D01*
X34963148Y-90048258D01*
X35082196Y-90048258D01*
X35129815Y-90072067D01*
X35153624Y-90095877D01*
X35177434Y-90143496D01*
X35177434Y-90286353D01*
X35153624Y-90333972D01*
X35129815Y-90357781D01*
X34677434Y-89619686D02*
X34677434Y-89714924D01*
X34701244Y-89762543D01*
X34725053Y-89786353D01*
X34796482Y-89833972D01*
X34891720Y-89857781D01*
X35082196Y-89857781D01*
X35129815Y-89833972D01*
X35153624Y-89810162D01*
X35177434Y-89762543D01*
X35177434Y-89667305D01*
X35153624Y-89619686D01*
X35129815Y-89595877D01*
X35082196Y-89572067D01*
X34963148Y-89572067D01*
X34915529Y-89595877D01*
X34891720Y-89619686D01*
X34867910Y-89667305D01*
X34867910Y-89762543D01*
X34891720Y-89810162D01*
X34915529Y-89833972D01*
X34963148Y-89857781D01*
G04 #@! TO.C,R35*
X31254830Y-89907228D02*
X31016735Y-90073895D01*
X31254830Y-90192942D02*
X30754830Y-90192942D01*
X30754830Y-90002466D01*
X30778640Y-89954847D01*
X30802449Y-89931038D01*
X30850068Y-89907228D01*
X30921497Y-89907228D01*
X30969116Y-89931038D01*
X30992925Y-89954847D01*
X31016735Y-90002466D01*
X31016735Y-90192942D01*
X30754830Y-89740561D02*
X30754830Y-89431038D01*
X30945306Y-89597704D01*
X30945306Y-89526276D01*
X30969116Y-89478657D01*
X30992925Y-89454847D01*
X31040544Y-89431038D01*
X31159592Y-89431038D01*
X31207211Y-89454847D01*
X31231020Y-89478657D01*
X31254830Y-89526276D01*
X31254830Y-89669133D01*
X31231020Y-89716752D01*
X31207211Y-89740561D01*
X30754830Y-88978657D02*
X30754830Y-89216752D01*
X30992925Y-89240561D01*
X30969116Y-89216752D01*
X30945306Y-89169133D01*
X30945306Y-89050085D01*
X30969116Y-89002466D01*
X30992925Y-88978657D01*
X31040544Y-88954847D01*
X31159592Y-88954847D01*
X31207211Y-88978657D01*
X31231020Y-89002466D01*
X31254830Y-89050085D01*
X31254830Y-89169133D01*
X31231020Y-89216752D01*
X31207211Y-89240561D01*
G04 #@! TO.C,R34*
X17599790Y-64593588D02*
X17361695Y-64760255D01*
X17599790Y-64879302D02*
X17099790Y-64879302D01*
X17099790Y-64688826D01*
X17123600Y-64641207D01*
X17147409Y-64617398D01*
X17195028Y-64593588D01*
X17266457Y-64593588D01*
X17314076Y-64617398D01*
X17337885Y-64641207D01*
X17361695Y-64688826D01*
X17361695Y-64879302D01*
X17099790Y-64426921D02*
X17099790Y-64117398D01*
X17290266Y-64284064D01*
X17290266Y-64212636D01*
X17314076Y-64165017D01*
X17337885Y-64141207D01*
X17385504Y-64117398D01*
X17504552Y-64117398D01*
X17552171Y-64141207D01*
X17575980Y-64165017D01*
X17599790Y-64212636D01*
X17599790Y-64355493D01*
X17575980Y-64403112D01*
X17552171Y-64426921D01*
X17266457Y-63688826D02*
X17599790Y-63688826D01*
X17075980Y-63807874D02*
X17433123Y-63926921D01*
X17433123Y-63617398D01*
G04 #@! TO.C,R32*
X22949390Y-79163228D02*
X22711295Y-79329895D01*
X22949390Y-79448942D02*
X22449390Y-79448942D01*
X22449390Y-79258466D01*
X22473200Y-79210847D01*
X22497009Y-79187038D01*
X22544628Y-79163228D01*
X22616057Y-79163228D01*
X22663676Y-79187038D01*
X22687485Y-79210847D01*
X22711295Y-79258466D01*
X22711295Y-79448942D01*
X22449390Y-78996561D02*
X22449390Y-78687038D01*
X22639866Y-78853704D01*
X22639866Y-78782276D01*
X22663676Y-78734657D01*
X22687485Y-78710847D01*
X22735104Y-78687038D01*
X22854152Y-78687038D01*
X22901771Y-78710847D01*
X22925580Y-78734657D01*
X22949390Y-78782276D01*
X22949390Y-78925133D01*
X22925580Y-78972752D01*
X22901771Y-78996561D01*
X22497009Y-78496561D02*
X22473200Y-78472752D01*
X22449390Y-78425133D01*
X22449390Y-78306085D01*
X22473200Y-78258466D01*
X22497009Y-78234657D01*
X22544628Y-78210847D01*
X22592247Y-78210847D01*
X22663676Y-78234657D01*
X22949390Y-78520371D01*
X22949390Y-78210847D01*
G04 #@! TO.C,R30*
X28692991Y-49494570D02*
X28526324Y-49256475D01*
X28407277Y-49494570D02*
X28407277Y-48994570D01*
X28597753Y-48994570D01*
X28645372Y-49018380D01*
X28669181Y-49042189D01*
X28692991Y-49089808D01*
X28692991Y-49161237D01*
X28669181Y-49208856D01*
X28645372Y-49232665D01*
X28597753Y-49256475D01*
X28407277Y-49256475D01*
X28859658Y-48994570D02*
X29169181Y-48994570D01*
X29002515Y-49185046D01*
X29073943Y-49185046D01*
X29121562Y-49208856D01*
X29145372Y-49232665D01*
X29169181Y-49280284D01*
X29169181Y-49399332D01*
X29145372Y-49446951D01*
X29121562Y-49470760D01*
X29073943Y-49494570D01*
X28931086Y-49494570D01*
X28883467Y-49470760D01*
X28859658Y-49446951D01*
X29478705Y-48994570D02*
X29526324Y-48994570D01*
X29573943Y-49018380D01*
X29597753Y-49042189D01*
X29621562Y-49089808D01*
X29645372Y-49185046D01*
X29645372Y-49304094D01*
X29621562Y-49399332D01*
X29597753Y-49446951D01*
X29573943Y-49470760D01*
X29526324Y-49494570D01*
X29478705Y-49494570D01*
X29431086Y-49470760D01*
X29407277Y-49446951D01*
X29383467Y-49399332D01*
X29359658Y-49304094D01*
X29359658Y-49185046D01*
X29383467Y-49089808D01*
X29407277Y-49042189D01*
X29431086Y-49018380D01*
X29478705Y-48994570D01*
G04 #@! TO.C,R26*
X12853551Y-63070870D02*
X12686884Y-62832775D01*
X12567837Y-63070870D02*
X12567837Y-62570870D01*
X12758313Y-62570870D01*
X12805932Y-62594680D01*
X12829741Y-62618489D01*
X12853551Y-62666108D01*
X12853551Y-62737537D01*
X12829741Y-62785156D01*
X12805932Y-62808965D01*
X12758313Y-62832775D01*
X12567837Y-62832775D01*
X13044027Y-62618489D02*
X13067837Y-62594680D01*
X13115456Y-62570870D01*
X13234503Y-62570870D01*
X13282122Y-62594680D01*
X13305932Y-62618489D01*
X13329741Y-62666108D01*
X13329741Y-62713727D01*
X13305932Y-62785156D01*
X13020218Y-63070870D01*
X13329741Y-63070870D01*
X13758313Y-62570870D02*
X13663075Y-62570870D01*
X13615456Y-62594680D01*
X13591646Y-62618489D01*
X13544027Y-62689918D01*
X13520218Y-62785156D01*
X13520218Y-62975632D01*
X13544027Y-63023251D01*
X13567837Y-63047060D01*
X13615456Y-63070870D01*
X13710694Y-63070870D01*
X13758313Y-63047060D01*
X13782122Y-63023251D01*
X13805932Y-62975632D01*
X13805932Y-62856584D01*
X13782122Y-62808965D01*
X13758313Y-62785156D01*
X13710694Y-62761346D01*
X13615456Y-62761346D01*
X13567837Y-62785156D01*
X13544027Y-62808965D01*
X13520218Y-62856584D01*
G04 #@! TO.C,R23*
X28692991Y-48275370D02*
X28526324Y-48037275D01*
X28407277Y-48275370D02*
X28407277Y-47775370D01*
X28597753Y-47775370D01*
X28645372Y-47799180D01*
X28669181Y-47822989D01*
X28692991Y-47870608D01*
X28692991Y-47942037D01*
X28669181Y-47989656D01*
X28645372Y-48013465D01*
X28597753Y-48037275D01*
X28407277Y-48037275D01*
X28883467Y-47822989D02*
X28907277Y-47799180D01*
X28954896Y-47775370D01*
X29073943Y-47775370D01*
X29121562Y-47799180D01*
X29145372Y-47822989D01*
X29169181Y-47870608D01*
X29169181Y-47918227D01*
X29145372Y-47989656D01*
X28859658Y-48275370D01*
X29169181Y-48275370D01*
X29335848Y-47775370D02*
X29645372Y-47775370D01*
X29478705Y-47965846D01*
X29550134Y-47965846D01*
X29597753Y-47989656D01*
X29621562Y-48013465D01*
X29645372Y-48061084D01*
X29645372Y-48180132D01*
X29621562Y-48227751D01*
X29597753Y-48251560D01*
X29550134Y-48275370D01*
X29407277Y-48275370D01*
X29359658Y-48251560D01*
X29335848Y-48227751D01*
G04 #@! TO.C,R8*
X50232246Y-4375250D02*
X50065580Y-4137155D01*
X49946532Y-4375250D02*
X49946532Y-3875250D01*
X50137008Y-3875250D01*
X50184627Y-3899060D01*
X50208437Y-3922869D01*
X50232246Y-3970488D01*
X50232246Y-4041917D01*
X50208437Y-4089536D01*
X50184627Y-4113345D01*
X50137008Y-4137155D01*
X49946532Y-4137155D01*
X50517960Y-4089536D02*
X50470341Y-4065726D01*
X50446532Y-4041917D01*
X50422722Y-3994298D01*
X50422722Y-3970488D01*
X50446532Y-3922869D01*
X50470341Y-3899060D01*
X50517960Y-3875250D01*
X50613199Y-3875250D01*
X50660818Y-3899060D01*
X50684627Y-3922869D01*
X50708437Y-3970488D01*
X50708437Y-3994298D01*
X50684627Y-4041917D01*
X50660818Y-4065726D01*
X50613199Y-4089536D01*
X50517960Y-4089536D01*
X50470341Y-4113345D01*
X50446532Y-4137155D01*
X50422722Y-4184774D01*
X50422722Y-4280012D01*
X50446532Y-4327631D01*
X50470341Y-4351440D01*
X50517960Y-4375250D01*
X50613199Y-4375250D01*
X50660818Y-4351440D01*
X50684627Y-4327631D01*
X50708437Y-4280012D01*
X50708437Y-4184774D01*
X50684627Y-4137155D01*
X50660818Y-4113345D01*
X50613199Y-4089536D01*
G04 #@! TO.C,D20*
D11*
X14599754Y-88793580D02*
X14599754Y-87793580D01*
X14837849Y-87793580D01*
X14980706Y-87841200D01*
X15075944Y-87936438D01*
X15123563Y-88031676D01*
X15171182Y-88222152D01*
X15171182Y-88365009D01*
X15123563Y-88555485D01*
X15075944Y-88650723D01*
X14980706Y-88745961D01*
X14837849Y-88793580D01*
X14599754Y-88793580D01*
X15552135Y-87888819D02*
X15599754Y-87841200D01*
X15694992Y-87793580D01*
X15933087Y-87793580D01*
X16028325Y-87841200D01*
X16075944Y-87888819D01*
X16123563Y-87984057D01*
X16123563Y-88079295D01*
X16075944Y-88222152D01*
X15504516Y-88793580D01*
X16123563Y-88793580D01*
X16742611Y-87793580D02*
X16837849Y-87793580D01*
X16933087Y-87841200D01*
X16980706Y-87888819D01*
X17028325Y-87984057D01*
X17075944Y-88174533D01*
X17075944Y-88412628D01*
X17028325Y-88603104D01*
X16980706Y-88698342D01*
X16933087Y-88745961D01*
X16837849Y-88793580D01*
X16742611Y-88793580D01*
X16647373Y-88745961D01*
X16599754Y-88698342D01*
X16552135Y-88603104D01*
X16504516Y-88412628D01*
X16504516Y-88174533D01*
X16552135Y-87984057D01*
X16599754Y-87888819D01*
X16647373Y-87841200D01*
X16742611Y-87793580D01*
G04 #@! TO.C,U6*
X34980975Y-53810500D02*
X34980975Y-54620024D01*
X35028594Y-54715262D01*
X35076213Y-54762881D01*
X35171451Y-54810500D01*
X35361927Y-54810500D01*
X35457165Y-54762881D01*
X35504784Y-54715262D01*
X35552403Y-54620024D01*
X35552403Y-53810500D01*
X36457165Y-53810500D02*
X36266689Y-53810500D01*
X36171451Y-53858120D01*
X36123832Y-53905739D01*
X36028594Y-54048596D01*
X35980975Y-54239072D01*
X35980975Y-54620024D01*
X36028594Y-54715262D01*
X36076213Y-54762881D01*
X36171451Y-54810500D01*
X36361927Y-54810500D01*
X36457165Y-54762881D01*
X36504784Y-54715262D01*
X36552403Y-54620024D01*
X36552403Y-54381929D01*
X36504784Y-54286691D01*
X36457165Y-54239072D01*
X36361927Y-54191453D01*
X36171451Y-54191453D01*
X36076213Y-54239072D01*
X36028594Y-54286691D01*
X35980975Y-54381929D01*
G04 #@! TO.C,D1*
X35876004Y-38207820D02*
X35876004Y-37207820D01*
X36114100Y-37207820D01*
X36256957Y-37255440D01*
X36352195Y-37350678D01*
X36399814Y-37445916D01*
X36447433Y-37636392D01*
X36447433Y-37779249D01*
X36399814Y-37969725D01*
X36352195Y-38064963D01*
X36256957Y-38160201D01*
X36114100Y-38207820D01*
X35876004Y-38207820D01*
X37399814Y-38207820D02*
X36828385Y-38207820D01*
X37114100Y-38207820D02*
X37114100Y-37207820D01*
X37018861Y-37350678D01*
X36923623Y-37445916D01*
X36828385Y-37493535D01*
G04 #@! TO.C,C10*
D15*
X49422271Y-75785528D02*
X49446080Y-75809338D01*
X49469890Y-75880766D01*
X49469890Y-75928385D01*
X49446080Y-75999814D01*
X49398461Y-76047433D01*
X49350842Y-76071242D01*
X49255604Y-76095052D01*
X49184176Y-76095052D01*
X49088938Y-76071242D01*
X49041319Y-76047433D01*
X48993700Y-75999814D01*
X48969890Y-75928385D01*
X48969890Y-75880766D01*
X48993700Y-75809338D01*
X49017509Y-75785528D01*
X49469890Y-75309338D02*
X49469890Y-75595052D01*
X49469890Y-75452195D02*
X48969890Y-75452195D01*
X49041319Y-75499814D01*
X49088938Y-75547433D01*
X49112747Y-75595052D01*
X48969890Y-74999814D02*
X48969890Y-74952195D01*
X48993700Y-74904576D01*
X49017509Y-74880766D01*
X49065128Y-74856957D01*
X49160366Y-74833147D01*
X49279414Y-74833147D01*
X49374652Y-74856957D01*
X49422271Y-74880766D01*
X49446080Y-74904576D01*
X49469890Y-74952195D01*
X49469890Y-74999814D01*
X49446080Y-75047433D01*
X49422271Y-75071242D01*
X49374652Y-75095052D01*
X49279414Y-75118861D01*
X49160366Y-75118861D01*
X49065128Y-75095052D01*
X49017509Y-75071242D01*
X48993700Y-75047433D01*
X48969890Y-74999814D01*
G04 #@! TO.C,U13*
D11*
X19724780Y-34016795D02*
X20534304Y-34016795D01*
X20629542Y-33969176D01*
X20677161Y-33921557D01*
X20724780Y-33826319D01*
X20724780Y-33635842D01*
X20677161Y-33540604D01*
X20629542Y-33492985D01*
X20534304Y-33445366D01*
X19724780Y-33445366D01*
X20724780Y-32445366D02*
X20724780Y-33016795D01*
X20724780Y-32731080D02*
X19724780Y-32731080D01*
X19867638Y-32826319D01*
X19962876Y-32921557D01*
X20010495Y-33016795D01*
X19724780Y-32112033D02*
X19724780Y-31492985D01*
X20105733Y-31826319D01*
X20105733Y-31683461D01*
X20153352Y-31588223D01*
X20200971Y-31540604D01*
X20296209Y-31492985D01*
X20534304Y-31492985D01*
X20629542Y-31540604D01*
X20677161Y-31588223D01*
X20724780Y-31683461D01*
X20724780Y-31969176D01*
X20677161Y-32064414D01*
X20629542Y-32112033D01*
G04 #@! TD*
M02*
