G04 #@! TF.GenerationSoftware,KiCad,Pcbnew,(5.1.9)-1*
G04 #@! TF.CreationDate,2021-01-16T15:24:30-08:00*
G04 #@! TF.ProjectId,SJ-201-R6,534a2d32-3031-42d5-9236-2e6b69636164,rev?*
G04 #@! TF.SameCoordinates,Original*
G04 #@! TF.FileFunction,Paste,Bot*
G04 #@! TF.FilePolarity,Positive*
%FSLAX46Y46*%
G04 Gerber Fmt 4.6, Leading zero omitted, Abs format (unit mm)*
G04 Created by KiCad (PCBNEW (5.1.9)-1) date 2021-01-16 15:24:30*
%MOMM*%
%LPD*%
G01*
G04 APERTURE LIST*
%ADD10R,0.950000X0.400000*%
%ADD11R,1.900000X0.800000*%
%ADD12R,0.650000X3.000000*%
%ADD13R,0.800000X1.000000*%
%ADD14R,1.500000X0.700000*%
%ADD15R,1.700000X1.000000*%
%ADD16R,1.000000X1.700000*%
G04 APERTURE END LIST*
G04 #@! TO.C,U11*
G36*
G01*
X23808330Y-82900000D02*
X25808030Y-82900000D01*
G75*
G02*
X25958180Y-83050150I0J-150150D01*
G01*
X25958180Y-83099850D01*
G75*
G02*
X25808030Y-83250000I-150150J0D01*
G01*
X23808330Y-83250000D01*
G75*
G02*
X23658180Y-83099850I0J150150D01*
G01*
X23658180Y-83050150D01*
G75*
G02*
X23808330Y-82900000I150150J0D01*
G01*
G37*
G36*
G01*
X23808330Y-85350000D02*
X25808030Y-85350000D01*
G75*
G02*
X25958180Y-85500150I0J-150150D01*
G01*
X25958180Y-85549850D01*
G75*
G02*
X25808030Y-85700000I-150150J0D01*
G01*
X23808330Y-85700000D01*
G75*
G02*
X23658180Y-85549850I0J150150D01*
G01*
X23658180Y-85500150D01*
G75*
G02*
X23808330Y-85350000I150150J0D01*
G01*
G37*
G36*
G01*
X26708180Y-83800150D02*
X26708180Y-84799850D01*
G75*
G02*
X26558030Y-84950000I-150150J0D01*
G01*
X26508330Y-84950000D01*
G75*
G02*
X26358180Y-84799850I0J150150D01*
G01*
X26358180Y-83800150D01*
G75*
G02*
X26508330Y-83650000I150150J0D01*
G01*
X26558030Y-83650000D01*
G75*
G02*
X26708180Y-83800150I0J-150150D01*
G01*
G37*
G36*
G01*
X23258180Y-83800150D02*
X23258180Y-84799850D01*
G75*
G02*
X23108030Y-84950000I-150150J0D01*
G01*
X23058330Y-84950000D01*
G75*
G02*
X22908180Y-84799850I0J150150D01*
G01*
X22908180Y-83800150D01*
G75*
G02*
X23058330Y-83650000I150150J0D01*
G01*
X23108030Y-83650000D01*
G75*
G02*
X23258180Y-83800150I0J-150150D01*
G01*
G37*
D10*
X25483180Y-84725000D03*
X25483180Y-83875000D03*
X24133180Y-83875000D03*
X24133180Y-84725000D03*
G04 #@! TD*
G04 #@! TO.C,U10*
G36*
G01*
X23808330Y-11900000D02*
X25808030Y-11900000D01*
G75*
G02*
X25958180Y-12050150I0J-150150D01*
G01*
X25958180Y-12099850D01*
G75*
G02*
X25808030Y-12250000I-150150J0D01*
G01*
X23808330Y-12250000D01*
G75*
G02*
X23658180Y-12099850I0J150150D01*
G01*
X23658180Y-12050150D01*
G75*
G02*
X23808330Y-11900000I150150J0D01*
G01*
G37*
G36*
G01*
X23808330Y-14350000D02*
X25808030Y-14350000D01*
G75*
G02*
X25958180Y-14500150I0J-150150D01*
G01*
X25958180Y-14549850D01*
G75*
G02*
X25808030Y-14700000I-150150J0D01*
G01*
X23808330Y-14700000D01*
G75*
G02*
X23658180Y-14549850I0J150150D01*
G01*
X23658180Y-14500150D01*
G75*
G02*
X23808330Y-14350000I150150J0D01*
G01*
G37*
G36*
G01*
X26708180Y-12800150D02*
X26708180Y-13799850D01*
G75*
G02*
X26558030Y-13950000I-150150J0D01*
G01*
X26508330Y-13950000D01*
G75*
G02*
X26358180Y-13799850I0J150150D01*
G01*
X26358180Y-12800150D01*
G75*
G02*
X26508330Y-12650000I150150J0D01*
G01*
X26558030Y-12650000D01*
G75*
G02*
X26708180Y-12800150I0J-150150D01*
G01*
G37*
G36*
G01*
X23258180Y-12800150D02*
X23258180Y-13799850D01*
G75*
G02*
X23108030Y-13950000I-150150J0D01*
G01*
X23058330Y-13950000D01*
G75*
G02*
X22908180Y-13799850I0J150150D01*
G01*
X22908180Y-12800150D01*
G75*
G02*
X23058330Y-12650000I150150J0D01*
G01*
X23108030Y-12650000D01*
G75*
G02*
X23258180Y-12800150I0J-150150D01*
G01*
G37*
X25483180Y-13725000D03*
X25483180Y-12875000D03*
X24133180Y-12875000D03*
X24133180Y-13725000D03*
G04 #@! TD*
D11*
G04 #@! TO.C,D3*
X26473380Y-37000520D03*
X26473380Y-35220520D03*
X30153380Y-37000520D03*
X30153380Y-35220520D03*
G04 #@! TD*
G04 #@! TO.C,D4*
X22155380Y-43096520D03*
X22155380Y-41316520D03*
X25835380Y-43096520D03*
X25835380Y-41316520D03*
G04 #@! TD*
G04 #@! TO.C,D5*
X19005780Y-49954520D03*
X19005780Y-48174520D03*
X22685780Y-49954520D03*
X22685780Y-48174520D03*
G04 #@! TD*
G04 #@! TO.C,D6*
X22104580Y-56812520D03*
X22104580Y-55032520D03*
X25784580Y-56812520D03*
X25784580Y-55032520D03*
G04 #@! TD*
G04 #@! TO.C,D7*
X26524180Y-62857720D03*
X26524180Y-61077720D03*
X30204180Y-62857720D03*
X30204180Y-61077720D03*
G04 #@! TD*
G04 #@! TO.C,D8*
X33991780Y-63518120D03*
X33991780Y-61738120D03*
X37671780Y-63518120D03*
X37671780Y-61738120D03*
G04 #@! TD*
G04 #@! TO.C,D9*
X41510180Y-62908520D03*
X41510180Y-61128520D03*
X45190180Y-62908520D03*
X45190180Y-61128520D03*
G04 #@! TD*
G04 #@! TO.C,D10*
X45878980Y-56710920D03*
X45878980Y-54930920D03*
X49558980Y-56710920D03*
X49558980Y-54930920D03*
G04 #@! TD*
G04 #@! TO.C,D11*
X48977780Y-49903720D03*
X48977780Y-48123720D03*
X52657780Y-49903720D03*
X52657780Y-48123720D03*
G04 #@! TD*
G04 #@! TO.C,D12*
X45828180Y-43096520D03*
X45828180Y-41316520D03*
X49508180Y-43096520D03*
X49508180Y-41316520D03*
G04 #@! TD*
G04 #@! TO.C,D13*
X41459380Y-36898920D03*
X41459380Y-35118920D03*
X45139380Y-36898920D03*
X45139380Y-35118920D03*
G04 #@! TD*
G04 #@! TO.C,D2*
X33991780Y-36238520D03*
X33991780Y-34458520D03*
X37671780Y-36238520D03*
X37671780Y-34458520D03*
G04 #@! TD*
D12*
G04 #@! TO.C,J5*
X33540700Y-13244700D03*
X36080700Y-13244700D03*
X38620700Y-13244700D03*
X34810700Y-16244700D03*
X37350700Y-16244700D03*
X39890700Y-16244700D03*
G04 #@! TD*
G04 #@! TO.C,U9*
G36*
G01*
X19495000Y-66700000D02*
X19795000Y-66700000D01*
G75*
G02*
X19945000Y-66850000I0J-150000D01*
G01*
X19945000Y-68150000D01*
G75*
G02*
X19795000Y-68300000I-150000J0D01*
G01*
X19495000Y-68300000D01*
G75*
G02*
X19345000Y-68150000I0J150000D01*
G01*
X19345000Y-66850000D01*
G75*
G02*
X19495000Y-66700000I150000J0D01*
G01*
G37*
G36*
G01*
X20765000Y-66700000D02*
X21065000Y-66700000D01*
G75*
G02*
X21215000Y-66850000I0J-150000D01*
G01*
X21215000Y-68150000D01*
G75*
G02*
X21065000Y-68300000I-150000J0D01*
G01*
X20765000Y-68300000D01*
G75*
G02*
X20615000Y-68150000I0J150000D01*
G01*
X20615000Y-66850000D01*
G75*
G02*
X20765000Y-66700000I150000J0D01*
G01*
G37*
G36*
G01*
X22035000Y-66700000D02*
X22335000Y-66700000D01*
G75*
G02*
X22485000Y-66850000I0J-150000D01*
G01*
X22485000Y-68150000D01*
G75*
G02*
X22335000Y-68300000I-150000J0D01*
G01*
X22035000Y-68300000D01*
G75*
G02*
X21885000Y-68150000I0J150000D01*
G01*
X21885000Y-66850000D01*
G75*
G02*
X22035000Y-66700000I150000J0D01*
G01*
G37*
G36*
G01*
X23305000Y-66700000D02*
X23605000Y-66700000D01*
G75*
G02*
X23755000Y-66850000I0J-150000D01*
G01*
X23755000Y-68150000D01*
G75*
G02*
X23605000Y-68300000I-150000J0D01*
G01*
X23305000Y-68300000D01*
G75*
G02*
X23155000Y-68150000I0J150000D01*
G01*
X23155000Y-66850000D01*
G75*
G02*
X23305000Y-66700000I150000J0D01*
G01*
G37*
G36*
G01*
X23305000Y-59500000D02*
X23605000Y-59500000D01*
G75*
G02*
X23755000Y-59650000I0J-150000D01*
G01*
X23755000Y-60950000D01*
G75*
G02*
X23605000Y-61100000I-150000J0D01*
G01*
X23305000Y-61100000D01*
G75*
G02*
X23155000Y-60950000I0J150000D01*
G01*
X23155000Y-59650000D01*
G75*
G02*
X23305000Y-59500000I150000J0D01*
G01*
G37*
G36*
G01*
X22035000Y-59500000D02*
X22335000Y-59500000D01*
G75*
G02*
X22485000Y-59650000I0J-150000D01*
G01*
X22485000Y-60950000D01*
G75*
G02*
X22335000Y-61100000I-150000J0D01*
G01*
X22035000Y-61100000D01*
G75*
G02*
X21885000Y-60950000I0J150000D01*
G01*
X21885000Y-59650000D01*
G75*
G02*
X22035000Y-59500000I150000J0D01*
G01*
G37*
G36*
G01*
X20765000Y-59500000D02*
X21065000Y-59500000D01*
G75*
G02*
X21215000Y-59650000I0J-150000D01*
G01*
X21215000Y-60950000D01*
G75*
G02*
X21065000Y-61100000I-150000J0D01*
G01*
X20765000Y-61100000D01*
G75*
G02*
X20615000Y-60950000I0J150000D01*
G01*
X20615000Y-59650000D01*
G75*
G02*
X20765000Y-59500000I150000J0D01*
G01*
G37*
G36*
G01*
X19495000Y-59500000D02*
X19795000Y-59500000D01*
G75*
G02*
X19945000Y-59650000I0J-150000D01*
G01*
X19945000Y-60950000D01*
G75*
G02*
X19795000Y-61100000I-150000J0D01*
G01*
X19495000Y-61100000D01*
G75*
G02*
X19345000Y-60950000I0J150000D01*
G01*
X19345000Y-59650000D01*
G75*
G02*
X19495000Y-59500000I150000J0D01*
G01*
G37*
G04 #@! TD*
D13*
G04 #@! TO.C,SW1*
X6964900Y-82532240D03*
X6964900Y-75232240D03*
X4754900Y-75232240D03*
X4754900Y-82532240D03*
D14*
X7614900Y-76632240D03*
X7614900Y-78132240D03*
X7614900Y-81132240D03*
G04 #@! TD*
D15*
G04 #@! TO.C,S3*
X38760800Y-47093400D03*
X32460800Y-47093400D03*
X38760800Y-50893400D03*
X32460800Y-50893400D03*
G04 #@! TD*
D16*
G04 #@! TO.C,S2*
X2578020Y-45850000D03*
X2578020Y-52150000D03*
X6378020Y-45850000D03*
X6378020Y-52150000D03*
G04 #@! TD*
G04 #@! TO.C,S1*
X2572940Y-15590120D03*
X2572940Y-21890120D03*
X6372940Y-15590120D03*
X6372940Y-21890120D03*
G04 #@! TD*
M02*
