G04 #@! TF.GenerationSoftware,KiCad,Pcbnew,(5.1.7)-1*
G04 #@! TF.CreationDate,2020-11-22T20:52:56-08:00*
G04 #@! TF.ProjectId,SJ-201-R4,534a2d32-3031-42d5-9234-2e6b69636164,rev?*
G04 #@! TF.SameCoordinates,Original*
G04 #@! TF.FileFunction,Soldermask,Bot*
G04 #@! TF.FilePolarity,Negative*
%FSLAX46Y46*%
G04 Gerber Fmt 4.6, Leading zero omitted, Abs format (unit mm)*
G04 Created by KiCad (PCBNEW (5.1.7)-1) date 2020-11-22 20:52:56*
%MOMM*%
%LPD*%
G01*
G04 APERTURE LIST*
%ADD10C,1.202000*%
%ADD11O,1.832000X2.132000*%
%ADD12C,1.302000*%
%ADD13O,2.102000X2.602000*%
%ADD14C,2.102000*%
%ADD15C,1.102000*%
%ADD16O,1.852000X1.302000*%
%ADD17C,0.702000*%
%ADD18C,0.601999*%
%ADD19C,6.102000*%
%ADD20O,1.802000X1.802000*%
%ADD21C,1.002000*%
%ADD22C,0.100000*%
G04 APERTURE END LIST*
D10*
G04 #@! TO.C,J7*
X61798200Y-36120340D03*
D11*
X64338200Y-38280340D03*
X61798200Y-38280340D03*
X59258200Y-38280340D03*
G36*
G01*
X57583200Y-39346340D02*
X55853200Y-39346340D01*
G75*
G02*
X55802200Y-39295340I0J51000D01*
G01*
X55802200Y-37265340D01*
G75*
G02*
X55853200Y-37214340I51000J0D01*
G01*
X57583200Y-37214340D01*
G75*
G02*
X57634200Y-37265340I0J-51000D01*
G01*
X57634200Y-39295340D01*
G75*
G02*
X57583200Y-39346340I-51000J0D01*
G01*
G37*
G04 #@! TD*
D12*
G04 #@! TO.C,J2*
X45217720Y-92974400D03*
X40217720Y-92974400D03*
D13*
X45567720Y-96474400D03*
G36*
G01*
X41417720Y-90275400D02*
X39417720Y-90275400D01*
G75*
G02*
X39366720Y-90224400I0J51000D01*
G01*
X39366720Y-87724400D01*
G75*
G02*
X39417720Y-87673400I51000J0D01*
G01*
X41417720Y-87673400D01*
G75*
G02*
X41468720Y-87724400I0J-51000D01*
G01*
X41468720Y-90224400D01*
G75*
G02*
X41417720Y-90275400I-51000J0D01*
G01*
G37*
X45017720Y-88974400D03*
X39867720Y-96474400D03*
G04 #@! TD*
G04 #@! TO.C,J1*
G36*
G01*
X61656360Y-43484340D02*
X61656360Y-45285340D01*
G75*
G02*
X60755860Y-46185840I-900500J0D01*
G01*
X58954860Y-46185840D01*
G75*
G02*
X58054360Y-45285340I0J900500D01*
G01*
X58054360Y-43484340D01*
G75*
G02*
X58954860Y-42583840I900500J0D01*
G01*
X60755860Y-42583840D01*
G75*
G02*
X61656360Y-43484340I0J-900500D01*
G01*
G37*
G36*
G01*
X64406360Y-48059340D02*
X64406360Y-50110340D01*
G75*
G02*
X63630860Y-50885840I-775500J0D01*
G01*
X62079860Y-50885840D01*
G75*
G02*
X61304360Y-50110340I0J775500D01*
G01*
X61304360Y-48059340D01*
G75*
G02*
X62079860Y-47283840I775500J0D01*
G01*
X63630860Y-47283840D01*
G75*
G02*
X64406360Y-48059340I0J-775500D01*
G01*
G37*
G36*
G01*
X58656360Y-47334840D02*
X58656360Y-50834840D01*
G75*
G02*
X58605360Y-50885840I-51000J0D01*
G01*
X55105360Y-50885840D01*
G75*
G02*
X55054360Y-50834840I0J51000D01*
G01*
X55054360Y-47334840D01*
G75*
G02*
X55105360Y-47283840I51000J0D01*
G01*
X58605360Y-47283840D01*
G75*
G02*
X58656360Y-47334840I0J-51000D01*
G01*
G37*
G04 #@! TD*
D14*
G04 #@! TO.C,TP12v1*
X58740040Y-52237640D03*
G04 #@! TD*
G04 #@! TO.C,TP11*
X20599400Y-17901920D03*
G04 #@! TD*
G04 #@! TO.C,TP10*
X17739360Y-12034520D03*
G04 #@! TD*
G04 #@! TO.C,TP9*
X5781040Y-67218560D03*
G04 #@! TD*
D15*
G04 #@! TO.C,TP4*
X50190400Y-78917800D03*
G04 #@! TD*
G04 #@! TO.C,TP7*
X48839120Y-32542480D03*
G04 #@! TD*
G04 #@! TO.C,TP8*
X48864520Y-24978360D03*
G04 #@! TD*
G04 #@! TO.C,TP5*
X1361440Y-33218120D03*
G04 #@! TD*
G04 #@! TO.C,TP6*
X22677120Y-25826720D03*
G04 #@! TD*
G04 #@! TO.C,TP3*
X29476700Y-41465500D03*
G04 #@! TD*
G04 #@! TO.C,TP1*
X5384800Y-61874400D03*
G04 #@! TD*
G04 #@! TO.C,DP3*
X42237660Y-47726600D03*
G04 #@! TD*
G04 #@! TO.C,DM3*
X44490640Y-47879000D03*
G04 #@! TD*
G04 #@! TO.C,J10*
G36*
G01*
X17822800Y-93030200D02*
X16822800Y-93030200D01*
G75*
G02*
X16771800Y-92979200I0J51000D01*
G01*
X16771800Y-89829200D01*
G75*
G02*
X16822800Y-89778200I51000J0D01*
G01*
X17822800Y-89778200D01*
G75*
G02*
X17873800Y-89829200I0J-51000D01*
G01*
X17873800Y-92979200D01*
G75*
G02*
X17822800Y-93030200I-51000J0D01*
G01*
G37*
G36*
G01*
X17822800Y-98080200D02*
X16822800Y-98080200D01*
G75*
G02*
X16771800Y-98029200I0J51000D01*
G01*
X16771800Y-94879200D01*
G75*
G02*
X16822800Y-94828200I51000J0D01*
G01*
X17822800Y-94828200D01*
G75*
G02*
X17873800Y-94879200I0J-51000D01*
G01*
X17873800Y-98029200D01*
G75*
G02*
X17822800Y-98080200I-51000J0D01*
G01*
G37*
G36*
G01*
X20362800Y-93030200D02*
X19362800Y-93030200D01*
G75*
G02*
X19311800Y-92979200I0J51000D01*
G01*
X19311800Y-89829200D01*
G75*
G02*
X19362800Y-89778200I51000J0D01*
G01*
X20362800Y-89778200D01*
G75*
G02*
X20413800Y-89829200I0J-51000D01*
G01*
X20413800Y-92979200D01*
G75*
G02*
X20362800Y-93030200I-51000J0D01*
G01*
G37*
G36*
G01*
X20362800Y-98080200D02*
X19362800Y-98080200D01*
G75*
G02*
X19311800Y-98029200I0J51000D01*
G01*
X19311800Y-94879200D01*
G75*
G02*
X19362800Y-94828200I51000J0D01*
G01*
X20362800Y-94828200D01*
G75*
G02*
X20413800Y-94879200I0J-51000D01*
G01*
X20413800Y-98029200D01*
G75*
G02*
X20362800Y-98080200I-51000J0D01*
G01*
G37*
G36*
G01*
X22902800Y-93030200D02*
X21902800Y-93030200D01*
G75*
G02*
X21851800Y-92979200I0J51000D01*
G01*
X21851800Y-89829200D01*
G75*
G02*
X21902800Y-89778200I51000J0D01*
G01*
X22902800Y-89778200D01*
G75*
G02*
X22953800Y-89829200I0J-51000D01*
G01*
X22953800Y-92979200D01*
G75*
G02*
X22902800Y-93030200I-51000J0D01*
G01*
G37*
G36*
G01*
X22902800Y-98080200D02*
X21902800Y-98080200D01*
G75*
G02*
X21851800Y-98029200I0J51000D01*
G01*
X21851800Y-94879200D01*
G75*
G02*
X21902800Y-94828200I51000J0D01*
G01*
X22902800Y-94828200D01*
G75*
G02*
X22953800Y-94879200I0J-51000D01*
G01*
X22953800Y-98029200D01*
G75*
G02*
X22902800Y-98080200I-51000J0D01*
G01*
G37*
G36*
G01*
X25442800Y-93030200D02*
X24442800Y-93030200D01*
G75*
G02*
X24391800Y-92979200I0J51000D01*
G01*
X24391800Y-89829200D01*
G75*
G02*
X24442800Y-89778200I51000J0D01*
G01*
X25442800Y-89778200D01*
G75*
G02*
X25493800Y-89829200I0J-51000D01*
G01*
X25493800Y-92979200D01*
G75*
G02*
X25442800Y-93030200I-51000J0D01*
G01*
G37*
G36*
G01*
X25442800Y-98080200D02*
X24442800Y-98080200D01*
G75*
G02*
X24391800Y-98029200I0J51000D01*
G01*
X24391800Y-94879200D01*
G75*
G02*
X24442800Y-94828200I51000J0D01*
G01*
X25442800Y-94828200D01*
G75*
G02*
X25493800Y-94879200I0J-51000D01*
G01*
X25493800Y-98029200D01*
G75*
G02*
X25442800Y-98080200I-51000J0D01*
G01*
G37*
G36*
G01*
X27982800Y-93030200D02*
X26982800Y-93030200D01*
G75*
G02*
X26931800Y-92979200I0J51000D01*
G01*
X26931800Y-89829200D01*
G75*
G02*
X26982800Y-89778200I51000J0D01*
G01*
X27982800Y-89778200D01*
G75*
G02*
X28033800Y-89829200I0J-51000D01*
G01*
X28033800Y-92979200D01*
G75*
G02*
X27982800Y-93030200I-51000J0D01*
G01*
G37*
G36*
G01*
X27982800Y-98080200D02*
X26982800Y-98080200D01*
G75*
G02*
X26931800Y-98029200I0J51000D01*
G01*
X26931800Y-94879200D01*
G75*
G02*
X26982800Y-94828200I51000J0D01*
G01*
X27982800Y-94828200D01*
G75*
G02*
X28033800Y-94879200I0J-51000D01*
G01*
X28033800Y-98029200D01*
G75*
G02*
X27982800Y-98080200I-51000J0D01*
G01*
G37*
G36*
G01*
X30522800Y-93030200D02*
X29522800Y-93030200D01*
G75*
G02*
X29471800Y-92979200I0J51000D01*
G01*
X29471800Y-89829200D01*
G75*
G02*
X29522800Y-89778200I51000J0D01*
G01*
X30522800Y-89778200D01*
G75*
G02*
X30573800Y-89829200I0J-51000D01*
G01*
X30573800Y-92979200D01*
G75*
G02*
X30522800Y-93030200I-51000J0D01*
G01*
G37*
G36*
G01*
X30522800Y-98080200D02*
X29522800Y-98080200D01*
G75*
G02*
X29471800Y-98029200I0J51000D01*
G01*
X29471800Y-94879200D01*
G75*
G02*
X29522800Y-94828200I51000J0D01*
G01*
X30522800Y-94828200D01*
G75*
G02*
X30573800Y-94879200I0J-51000D01*
G01*
X30573800Y-98029200D01*
G75*
G02*
X30522800Y-98080200I-51000J0D01*
G01*
G37*
G36*
G01*
X33062800Y-93030200D02*
X32062800Y-93030200D01*
G75*
G02*
X32011800Y-92979200I0J51000D01*
G01*
X32011800Y-89829200D01*
G75*
G02*
X32062800Y-89778200I51000J0D01*
G01*
X33062800Y-89778200D01*
G75*
G02*
X33113800Y-89829200I0J-51000D01*
G01*
X33113800Y-92979200D01*
G75*
G02*
X33062800Y-93030200I-51000J0D01*
G01*
G37*
G36*
G01*
X33062800Y-98080200D02*
X32062800Y-98080200D01*
G75*
G02*
X32011800Y-98029200I0J51000D01*
G01*
X32011800Y-94879200D01*
G75*
G02*
X32062800Y-94828200I51000J0D01*
G01*
X33062800Y-94828200D01*
G75*
G02*
X33113800Y-94879200I0J-51000D01*
G01*
X33113800Y-98029200D01*
G75*
G02*
X33062800Y-98080200I-51000J0D01*
G01*
G37*
G36*
G01*
X35602800Y-93030200D02*
X34602800Y-93030200D01*
G75*
G02*
X34551800Y-92979200I0J51000D01*
G01*
X34551800Y-89829200D01*
G75*
G02*
X34602800Y-89778200I51000J0D01*
G01*
X35602800Y-89778200D01*
G75*
G02*
X35653800Y-89829200I0J-51000D01*
G01*
X35653800Y-92979200D01*
G75*
G02*
X35602800Y-93030200I-51000J0D01*
G01*
G37*
G36*
G01*
X35602800Y-98080200D02*
X34602800Y-98080200D01*
G75*
G02*
X34551800Y-98029200I0J51000D01*
G01*
X34551800Y-94879200D01*
G75*
G02*
X34602800Y-94828200I51000J0D01*
G01*
X35602800Y-94828200D01*
G75*
G02*
X35653800Y-94879200I0J-51000D01*
G01*
X35653800Y-98029200D01*
G75*
G02*
X35602800Y-98080200I-51000J0D01*
G01*
G37*
G36*
G01*
X38142800Y-93030200D02*
X37142800Y-93030200D01*
G75*
G02*
X37091800Y-92979200I0J51000D01*
G01*
X37091800Y-89829200D01*
G75*
G02*
X37142800Y-89778200I51000J0D01*
G01*
X38142800Y-89778200D01*
G75*
G02*
X38193800Y-89829200I0J-51000D01*
G01*
X38193800Y-92979200D01*
G75*
G02*
X38142800Y-93030200I-51000J0D01*
G01*
G37*
G36*
G01*
X38142800Y-98080200D02*
X37142800Y-98080200D01*
G75*
G02*
X37091800Y-98029200I0J51000D01*
G01*
X37091800Y-94879200D01*
G75*
G02*
X37142800Y-94828200I51000J0D01*
G01*
X38142800Y-94828200D01*
G75*
G02*
X38193800Y-94879200I0J-51000D01*
G01*
X38193800Y-98029200D01*
G75*
G02*
X38142800Y-98080200I-51000J0D01*
G01*
G37*
G04 #@! TD*
D14*
G04 #@! TO.C,TP2*
X26736040Y-27335480D03*
G04 #@! TD*
D16*
G04 #@! TO.C,J4*
X63169800Y-67379600D03*
G36*
G01*
X62515048Y-64728600D02*
X63824552Y-64728600D01*
G75*
G02*
X64095800Y-64999848I0J-271248D01*
G01*
X64095800Y-65759352D01*
G75*
G02*
X63824552Y-66030600I-271248J0D01*
G01*
X62515048Y-66030600D01*
G75*
G02*
X62243800Y-65759352I0J271248D01*
G01*
X62243800Y-64999848D01*
G75*
G02*
X62515048Y-64728600I271248J0D01*
G01*
G37*
G04 #@! TD*
G04 #@! TO.C,J3*
X63169800Y-59150000D03*
G36*
G01*
X62515048Y-56499000D02*
X63824552Y-56499000D01*
G75*
G02*
X64095800Y-56770248I0J-271248D01*
G01*
X64095800Y-57529752D01*
G75*
G02*
X63824552Y-57801000I-271248J0D01*
G01*
X62515048Y-57801000D01*
G75*
G02*
X62243800Y-57529752I0J271248D01*
G01*
X62243800Y-56770248D01*
G75*
G02*
X62515048Y-56499000I271248J0D01*
G01*
G37*
G04 #@! TD*
G04 #@! TO.C,J5*
G36*
G01*
X33865701Y-14795700D02*
X33215699Y-14795700D01*
G75*
G02*
X33164700Y-14744701I0J50999D01*
G01*
X33164700Y-11744699D01*
G75*
G02*
X33215699Y-11693700I50999J0D01*
G01*
X33865701Y-11693700D01*
G75*
G02*
X33916700Y-11744699I0J-50999D01*
G01*
X33916700Y-14744701D01*
G75*
G02*
X33865701Y-14795700I-50999J0D01*
G01*
G37*
G36*
G01*
X36405701Y-14795700D02*
X35755699Y-14795700D01*
G75*
G02*
X35704700Y-14744701I0J50999D01*
G01*
X35704700Y-11744699D01*
G75*
G02*
X35755699Y-11693700I50999J0D01*
G01*
X36405701Y-11693700D01*
G75*
G02*
X36456700Y-11744699I0J-50999D01*
G01*
X36456700Y-14744701D01*
G75*
G02*
X36405701Y-14795700I-50999J0D01*
G01*
G37*
G36*
G01*
X38945701Y-14795700D02*
X38295699Y-14795700D01*
G75*
G02*
X38244700Y-14744701I0J50999D01*
G01*
X38244700Y-11744699D01*
G75*
G02*
X38295699Y-11693700I50999J0D01*
G01*
X38945701Y-11693700D01*
G75*
G02*
X38996700Y-11744699I0J-50999D01*
G01*
X38996700Y-14744701D01*
G75*
G02*
X38945701Y-14795700I-50999J0D01*
G01*
G37*
G36*
G01*
X35135701Y-17795700D02*
X34485699Y-17795700D01*
G75*
G02*
X34434700Y-17744701I0J50999D01*
G01*
X34434700Y-14744699D01*
G75*
G02*
X34485699Y-14693700I50999J0D01*
G01*
X35135701Y-14693700D01*
G75*
G02*
X35186700Y-14744699I0J-50999D01*
G01*
X35186700Y-17744701D01*
G75*
G02*
X35135701Y-17795700I-50999J0D01*
G01*
G37*
G36*
G01*
X37675701Y-17795700D02*
X37025699Y-17795700D01*
G75*
G02*
X36974700Y-17744701I0J50999D01*
G01*
X36974700Y-14744699D01*
G75*
G02*
X37025699Y-14693700I50999J0D01*
G01*
X37675701Y-14693700D01*
G75*
G02*
X37726700Y-14744699I0J-50999D01*
G01*
X37726700Y-17744701D01*
G75*
G02*
X37675701Y-17795700I-50999J0D01*
G01*
G37*
G36*
G01*
X40215701Y-17795700D02*
X39565699Y-17795700D01*
G75*
G02*
X39514700Y-17744701I0J50999D01*
G01*
X39514700Y-14744699D01*
G75*
G02*
X39565699Y-14693700I50999J0D01*
G01*
X40215701Y-14693700D01*
G75*
G02*
X40266700Y-14744699I0J-50999D01*
G01*
X40266700Y-17744701D01*
G75*
G02*
X40215701Y-17795700I-50999J0D01*
G01*
G37*
G04 #@! TD*
D17*
G04 #@! TO.C,U8*
X18783800Y-70345800D03*
X19783800Y-70345800D03*
X20783800Y-70345800D03*
X21783800Y-70345800D03*
X22783800Y-70345800D03*
X18783800Y-71345800D03*
X19783800Y-71345800D03*
X20783800Y-71345800D03*
X21783800Y-71345800D03*
X22783800Y-71345800D03*
X18783800Y-72345800D03*
X19783800Y-72345800D03*
X20783800Y-72345800D03*
X21783800Y-72345800D03*
X22783800Y-72345800D03*
X18783800Y-73345800D03*
X19783800Y-73345800D03*
X20783800Y-73345800D03*
X21783800Y-73345800D03*
X22783800Y-73345800D03*
X18783800Y-74345800D03*
X19783800Y-74345800D03*
X20783800Y-74345800D03*
X21783800Y-74345800D03*
G04 #@! TD*
G04 #@! TO.C,D9*
G36*
G01*
X40509180Y-63308520D02*
X40509180Y-62508520D01*
G75*
G02*
X40560180Y-62457520I51000J0D01*
G01*
X42460180Y-62457520D01*
G75*
G02*
X42511180Y-62508520I0J-51000D01*
G01*
X42511180Y-63308520D01*
G75*
G02*
X42460180Y-63359520I-51000J0D01*
G01*
X40560180Y-63359520D01*
G75*
G02*
X40509180Y-63308520I0J51000D01*
G01*
G37*
G36*
G01*
X40509180Y-61528520D02*
X40509180Y-60728520D01*
G75*
G02*
X40560180Y-60677520I51000J0D01*
G01*
X42460180Y-60677520D01*
G75*
G02*
X42511180Y-60728520I0J-51000D01*
G01*
X42511180Y-61528520D01*
G75*
G02*
X42460180Y-61579520I-51000J0D01*
G01*
X40560180Y-61579520D01*
G75*
G02*
X40509180Y-61528520I0J51000D01*
G01*
G37*
G36*
G01*
X44189180Y-63308520D02*
X44189180Y-62508520D01*
G75*
G02*
X44240180Y-62457520I51000J0D01*
G01*
X46140180Y-62457520D01*
G75*
G02*
X46191180Y-62508520I0J-51000D01*
G01*
X46191180Y-63308520D01*
G75*
G02*
X46140180Y-63359520I-51000J0D01*
G01*
X44240180Y-63359520D01*
G75*
G02*
X44189180Y-63308520I0J51000D01*
G01*
G37*
G36*
G01*
X44189180Y-61528520D02*
X44189180Y-60728520D01*
G75*
G02*
X44240180Y-60677520I51000J0D01*
G01*
X46140180Y-60677520D01*
G75*
G02*
X46191180Y-60728520I0J-51000D01*
G01*
X46191180Y-61528520D01*
G75*
G02*
X46140180Y-61579520I-51000J0D01*
G01*
X44240180Y-61579520D01*
G75*
G02*
X44189180Y-61528520I0J51000D01*
G01*
G37*
G04 #@! TD*
D18*
G04 #@! TO.C,U3*
X57518700Y-76564099D03*
X56218700Y-76564099D03*
X54918700Y-76564099D03*
X57518700Y-75264099D03*
X56218700Y-75264099D03*
X54918700Y-75264099D03*
X54918700Y-72664099D03*
X56218700Y-72664099D03*
X57518700Y-72664099D03*
X54918700Y-73964099D03*
X56218700Y-73964099D03*
X57518700Y-73964099D03*
X57518700Y-80464101D03*
X56218700Y-80464101D03*
X54918700Y-80464101D03*
X57518700Y-81764101D03*
X56218700Y-81764101D03*
X54918700Y-81764101D03*
X54918700Y-79164101D03*
X56218700Y-79164101D03*
X57518700Y-79164101D03*
X54918700Y-77864101D03*
X56218700Y-77864101D03*
X57518700Y-77864101D03*
G04 #@! TD*
G04 #@! TO.C,D2*
G36*
G01*
X32990780Y-36638520D02*
X32990780Y-35838520D01*
G75*
G02*
X33041780Y-35787520I51000J0D01*
G01*
X34941780Y-35787520D01*
G75*
G02*
X34992780Y-35838520I0J-51000D01*
G01*
X34992780Y-36638520D01*
G75*
G02*
X34941780Y-36689520I-51000J0D01*
G01*
X33041780Y-36689520D01*
G75*
G02*
X32990780Y-36638520I0J51000D01*
G01*
G37*
G36*
G01*
X32990780Y-34858520D02*
X32990780Y-34058520D01*
G75*
G02*
X33041780Y-34007520I51000J0D01*
G01*
X34941780Y-34007520D01*
G75*
G02*
X34992780Y-34058520I0J-51000D01*
G01*
X34992780Y-34858520D01*
G75*
G02*
X34941780Y-34909520I-51000J0D01*
G01*
X33041780Y-34909520D01*
G75*
G02*
X32990780Y-34858520I0J51000D01*
G01*
G37*
G36*
G01*
X36670780Y-36638520D02*
X36670780Y-35838520D01*
G75*
G02*
X36721780Y-35787520I51000J0D01*
G01*
X38621780Y-35787520D01*
G75*
G02*
X38672780Y-35838520I0J-51000D01*
G01*
X38672780Y-36638520D01*
G75*
G02*
X38621780Y-36689520I-51000J0D01*
G01*
X36721780Y-36689520D01*
G75*
G02*
X36670780Y-36638520I0J51000D01*
G01*
G37*
G36*
G01*
X36670780Y-34858520D02*
X36670780Y-34058520D01*
G75*
G02*
X36721780Y-34007520I51000J0D01*
G01*
X38621780Y-34007520D01*
G75*
G02*
X38672780Y-34058520I0J-51000D01*
G01*
X38672780Y-34858520D01*
G75*
G02*
X38621780Y-34909520I-51000J0D01*
G01*
X36721780Y-34909520D01*
G75*
G02*
X36670780Y-34858520I0J51000D01*
G01*
G37*
G04 #@! TD*
G04 #@! TO.C,D13*
G36*
G01*
X40458380Y-37298920D02*
X40458380Y-36498920D01*
G75*
G02*
X40509380Y-36447920I51000J0D01*
G01*
X42409380Y-36447920D01*
G75*
G02*
X42460380Y-36498920I0J-51000D01*
G01*
X42460380Y-37298920D01*
G75*
G02*
X42409380Y-37349920I-51000J0D01*
G01*
X40509380Y-37349920D01*
G75*
G02*
X40458380Y-37298920I0J51000D01*
G01*
G37*
G36*
G01*
X40458380Y-35518920D02*
X40458380Y-34718920D01*
G75*
G02*
X40509380Y-34667920I51000J0D01*
G01*
X42409380Y-34667920D01*
G75*
G02*
X42460380Y-34718920I0J-51000D01*
G01*
X42460380Y-35518920D01*
G75*
G02*
X42409380Y-35569920I-51000J0D01*
G01*
X40509380Y-35569920D01*
G75*
G02*
X40458380Y-35518920I0J51000D01*
G01*
G37*
G36*
G01*
X44138380Y-37298920D02*
X44138380Y-36498920D01*
G75*
G02*
X44189380Y-36447920I51000J0D01*
G01*
X46089380Y-36447920D01*
G75*
G02*
X46140380Y-36498920I0J-51000D01*
G01*
X46140380Y-37298920D01*
G75*
G02*
X46089380Y-37349920I-51000J0D01*
G01*
X44189380Y-37349920D01*
G75*
G02*
X44138380Y-37298920I0J51000D01*
G01*
G37*
G36*
G01*
X44138380Y-35518920D02*
X44138380Y-34718920D01*
G75*
G02*
X44189380Y-34667920I51000J0D01*
G01*
X46089380Y-34667920D01*
G75*
G02*
X46140380Y-34718920I0J-51000D01*
G01*
X46140380Y-35518920D01*
G75*
G02*
X46089380Y-35569920I-51000J0D01*
G01*
X44189380Y-35569920D01*
G75*
G02*
X44138380Y-35518920I0J51000D01*
G01*
G37*
G04 #@! TD*
G04 #@! TO.C,D12*
G36*
G01*
X44827180Y-43496520D02*
X44827180Y-42696520D01*
G75*
G02*
X44878180Y-42645520I51000J0D01*
G01*
X46778180Y-42645520D01*
G75*
G02*
X46829180Y-42696520I0J-51000D01*
G01*
X46829180Y-43496520D01*
G75*
G02*
X46778180Y-43547520I-51000J0D01*
G01*
X44878180Y-43547520D01*
G75*
G02*
X44827180Y-43496520I0J51000D01*
G01*
G37*
G36*
G01*
X44827180Y-41716520D02*
X44827180Y-40916520D01*
G75*
G02*
X44878180Y-40865520I51000J0D01*
G01*
X46778180Y-40865520D01*
G75*
G02*
X46829180Y-40916520I0J-51000D01*
G01*
X46829180Y-41716520D01*
G75*
G02*
X46778180Y-41767520I-51000J0D01*
G01*
X44878180Y-41767520D01*
G75*
G02*
X44827180Y-41716520I0J51000D01*
G01*
G37*
G36*
G01*
X48507180Y-43496520D02*
X48507180Y-42696520D01*
G75*
G02*
X48558180Y-42645520I51000J0D01*
G01*
X50458180Y-42645520D01*
G75*
G02*
X50509180Y-42696520I0J-51000D01*
G01*
X50509180Y-43496520D01*
G75*
G02*
X50458180Y-43547520I-51000J0D01*
G01*
X48558180Y-43547520D01*
G75*
G02*
X48507180Y-43496520I0J51000D01*
G01*
G37*
G36*
G01*
X48507180Y-41716520D02*
X48507180Y-40916520D01*
G75*
G02*
X48558180Y-40865520I51000J0D01*
G01*
X50458180Y-40865520D01*
G75*
G02*
X50509180Y-40916520I0J-51000D01*
G01*
X50509180Y-41716520D01*
G75*
G02*
X50458180Y-41767520I-51000J0D01*
G01*
X48558180Y-41767520D01*
G75*
G02*
X48507180Y-41716520I0J51000D01*
G01*
G37*
G04 #@! TD*
G04 #@! TO.C,D11*
G36*
G01*
X47976780Y-50303720D02*
X47976780Y-49503720D01*
G75*
G02*
X48027780Y-49452720I51000J0D01*
G01*
X49927780Y-49452720D01*
G75*
G02*
X49978780Y-49503720I0J-51000D01*
G01*
X49978780Y-50303720D01*
G75*
G02*
X49927780Y-50354720I-51000J0D01*
G01*
X48027780Y-50354720D01*
G75*
G02*
X47976780Y-50303720I0J51000D01*
G01*
G37*
G36*
G01*
X47976780Y-48523720D02*
X47976780Y-47723720D01*
G75*
G02*
X48027780Y-47672720I51000J0D01*
G01*
X49927780Y-47672720D01*
G75*
G02*
X49978780Y-47723720I0J-51000D01*
G01*
X49978780Y-48523720D01*
G75*
G02*
X49927780Y-48574720I-51000J0D01*
G01*
X48027780Y-48574720D01*
G75*
G02*
X47976780Y-48523720I0J51000D01*
G01*
G37*
G36*
G01*
X51656780Y-50303720D02*
X51656780Y-49503720D01*
G75*
G02*
X51707780Y-49452720I51000J0D01*
G01*
X53607780Y-49452720D01*
G75*
G02*
X53658780Y-49503720I0J-51000D01*
G01*
X53658780Y-50303720D01*
G75*
G02*
X53607780Y-50354720I-51000J0D01*
G01*
X51707780Y-50354720D01*
G75*
G02*
X51656780Y-50303720I0J51000D01*
G01*
G37*
G36*
G01*
X51656780Y-48523720D02*
X51656780Y-47723720D01*
G75*
G02*
X51707780Y-47672720I51000J0D01*
G01*
X53607780Y-47672720D01*
G75*
G02*
X53658780Y-47723720I0J-51000D01*
G01*
X53658780Y-48523720D01*
G75*
G02*
X53607780Y-48574720I-51000J0D01*
G01*
X51707780Y-48574720D01*
G75*
G02*
X51656780Y-48523720I0J51000D01*
G01*
G37*
G04 #@! TD*
G04 #@! TO.C,D10*
G36*
G01*
X44877980Y-57110920D02*
X44877980Y-56310920D01*
G75*
G02*
X44928980Y-56259920I51000J0D01*
G01*
X46828980Y-56259920D01*
G75*
G02*
X46879980Y-56310920I0J-51000D01*
G01*
X46879980Y-57110920D01*
G75*
G02*
X46828980Y-57161920I-51000J0D01*
G01*
X44928980Y-57161920D01*
G75*
G02*
X44877980Y-57110920I0J51000D01*
G01*
G37*
G36*
G01*
X44877980Y-55330920D02*
X44877980Y-54530920D01*
G75*
G02*
X44928980Y-54479920I51000J0D01*
G01*
X46828980Y-54479920D01*
G75*
G02*
X46879980Y-54530920I0J-51000D01*
G01*
X46879980Y-55330920D01*
G75*
G02*
X46828980Y-55381920I-51000J0D01*
G01*
X44928980Y-55381920D01*
G75*
G02*
X44877980Y-55330920I0J51000D01*
G01*
G37*
G36*
G01*
X48557980Y-57110920D02*
X48557980Y-56310920D01*
G75*
G02*
X48608980Y-56259920I51000J0D01*
G01*
X50508980Y-56259920D01*
G75*
G02*
X50559980Y-56310920I0J-51000D01*
G01*
X50559980Y-57110920D01*
G75*
G02*
X50508980Y-57161920I-51000J0D01*
G01*
X48608980Y-57161920D01*
G75*
G02*
X48557980Y-57110920I0J51000D01*
G01*
G37*
G36*
G01*
X48557980Y-55330920D02*
X48557980Y-54530920D01*
G75*
G02*
X48608980Y-54479920I51000J0D01*
G01*
X50508980Y-54479920D01*
G75*
G02*
X50559980Y-54530920I0J-51000D01*
G01*
X50559980Y-55330920D01*
G75*
G02*
X50508980Y-55381920I-51000J0D01*
G01*
X48608980Y-55381920D01*
G75*
G02*
X48557980Y-55330920I0J51000D01*
G01*
G37*
G04 #@! TD*
G04 #@! TO.C,D8*
G36*
G01*
X32990780Y-63918120D02*
X32990780Y-63118120D01*
G75*
G02*
X33041780Y-63067120I51000J0D01*
G01*
X34941780Y-63067120D01*
G75*
G02*
X34992780Y-63118120I0J-51000D01*
G01*
X34992780Y-63918120D01*
G75*
G02*
X34941780Y-63969120I-51000J0D01*
G01*
X33041780Y-63969120D01*
G75*
G02*
X32990780Y-63918120I0J51000D01*
G01*
G37*
G36*
G01*
X32990780Y-62138120D02*
X32990780Y-61338120D01*
G75*
G02*
X33041780Y-61287120I51000J0D01*
G01*
X34941780Y-61287120D01*
G75*
G02*
X34992780Y-61338120I0J-51000D01*
G01*
X34992780Y-62138120D01*
G75*
G02*
X34941780Y-62189120I-51000J0D01*
G01*
X33041780Y-62189120D01*
G75*
G02*
X32990780Y-62138120I0J51000D01*
G01*
G37*
G36*
G01*
X36670780Y-63918120D02*
X36670780Y-63118120D01*
G75*
G02*
X36721780Y-63067120I51000J0D01*
G01*
X38621780Y-63067120D01*
G75*
G02*
X38672780Y-63118120I0J-51000D01*
G01*
X38672780Y-63918120D01*
G75*
G02*
X38621780Y-63969120I-51000J0D01*
G01*
X36721780Y-63969120D01*
G75*
G02*
X36670780Y-63918120I0J51000D01*
G01*
G37*
G36*
G01*
X36670780Y-62138120D02*
X36670780Y-61338120D01*
G75*
G02*
X36721780Y-61287120I51000J0D01*
G01*
X38621780Y-61287120D01*
G75*
G02*
X38672780Y-61338120I0J-51000D01*
G01*
X38672780Y-62138120D01*
G75*
G02*
X38621780Y-62189120I-51000J0D01*
G01*
X36721780Y-62189120D01*
G75*
G02*
X36670780Y-62138120I0J51000D01*
G01*
G37*
G04 #@! TD*
G04 #@! TO.C,D7*
G36*
G01*
X25523180Y-63257720D02*
X25523180Y-62457720D01*
G75*
G02*
X25574180Y-62406720I51000J0D01*
G01*
X27474180Y-62406720D01*
G75*
G02*
X27525180Y-62457720I0J-51000D01*
G01*
X27525180Y-63257720D01*
G75*
G02*
X27474180Y-63308720I-51000J0D01*
G01*
X25574180Y-63308720D01*
G75*
G02*
X25523180Y-63257720I0J51000D01*
G01*
G37*
G36*
G01*
X25523180Y-61477720D02*
X25523180Y-60677720D01*
G75*
G02*
X25574180Y-60626720I51000J0D01*
G01*
X27474180Y-60626720D01*
G75*
G02*
X27525180Y-60677720I0J-51000D01*
G01*
X27525180Y-61477720D01*
G75*
G02*
X27474180Y-61528720I-51000J0D01*
G01*
X25574180Y-61528720D01*
G75*
G02*
X25523180Y-61477720I0J51000D01*
G01*
G37*
G36*
G01*
X29203180Y-63257720D02*
X29203180Y-62457720D01*
G75*
G02*
X29254180Y-62406720I51000J0D01*
G01*
X31154180Y-62406720D01*
G75*
G02*
X31205180Y-62457720I0J-51000D01*
G01*
X31205180Y-63257720D01*
G75*
G02*
X31154180Y-63308720I-51000J0D01*
G01*
X29254180Y-63308720D01*
G75*
G02*
X29203180Y-63257720I0J51000D01*
G01*
G37*
G36*
G01*
X29203180Y-61477720D02*
X29203180Y-60677720D01*
G75*
G02*
X29254180Y-60626720I51000J0D01*
G01*
X31154180Y-60626720D01*
G75*
G02*
X31205180Y-60677720I0J-51000D01*
G01*
X31205180Y-61477720D01*
G75*
G02*
X31154180Y-61528720I-51000J0D01*
G01*
X29254180Y-61528720D01*
G75*
G02*
X29203180Y-61477720I0J51000D01*
G01*
G37*
G04 #@! TD*
G04 #@! TO.C,D6*
G36*
G01*
X21103580Y-57212520D02*
X21103580Y-56412520D01*
G75*
G02*
X21154580Y-56361520I51000J0D01*
G01*
X23054580Y-56361520D01*
G75*
G02*
X23105580Y-56412520I0J-51000D01*
G01*
X23105580Y-57212520D01*
G75*
G02*
X23054580Y-57263520I-51000J0D01*
G01*
X21154580Y-57263520D01*
G75*
G02*
X21103580Y-57212520I0J51000D01*
G01*
G37*
G36*
G01*
X21103580Y-55432520D02*
X21103580Y-54632520D01*
G75*
G02*
X21154580Y-54581520I51000J0D01*
G01*
X23054580Y-54581520D01*
G75*
G02*
X23105580Y-54632520I0J-51000D01*
G01*
X23105580Y-55432520D01*
G75*
G02*
X23054580Y-55483520I-51000J0D01*
G01*
X21154580Y-55483520D01*
G75*
G02*
X21103580Y-55432520I0J51000D01*
G01*
G37*
G36*
G01*
X24783580Y-57212520D02*
X24783580Y-56412520D01*
G75*
G02*
X24834580Y-56361520I51000J0D01*
G01*
X26734580Y-56361520D01*
G75*
G02*
X26785580Y-56412520I0J-51000D01*
G01*
X26785580Y-57212520D01*
G75*
G02*
X26734580Y-57263520I-51000J0D01*
G01*
X24834580Y-57263520D01*
G75*
G02*
X24783580Y-57212520I0J51000D01*
G01*
G37*
G36*
G01*
X24783580Y-55432520D02*
X24783580Y-54632520D01*
G75*
G02*
X24834580Y-54581520I51000J0D01*
G01*
X26734580Y-54581520D01*
G75*
G02*
X26785580Y-54632520I0J-51000D01*
G01*
X26785580Y-55432520D01*
G75*
G02*
X26734580Y-55483520I-51000J0D01*
G01*
X24834580Y-55483520D01*
G75*
G02*
X24783580Y-55432520I0J51000D01*
G01*
G37*
G04 #@! TD*
G04 #@! TO.C,D5*
G36*
G01*
X18004780Y-50354520D02*
X18004780Y-49554520D01*
G75*
G02*
X18055780Y-49503520I51000J0D01*
G01*
X19955780Y-49503520D01*
G75*
G02*
X20006780Y-49554520I0J-51000D01*
G01*
X20006780Y-50354520D01*
G75*
G02*
X19955780Y-50405520I-51000J0D01*
G01*
X18055780Y-50405520D01*
G75*
G02*
X18004780Y-50354520I0J51000D01*
G01*
G37*
G36*
G01*
X18004780Y-48574520D02*
X18004780Y-47774520D01*
G75*
G02*
X18055780Y-47723520I51000J0D01*
G01*
X19955780Y-47723520D01*
G75*
G02*
X20006780Y-47774520I0J-51000D01*
G01*
X20006780Y-48574520D01*
G75*
G02*
X19955780Y-48625520I-51000J0D01*
G01*
X18055780Y-48625520D01*
G75*
G02*
X18004780Y-48574520I0J51000D01*
G01*
G37*
G36*
G01*
X21684780Y-50354520D02*
X21684780Y-49554520D01*
G75*
G02*
X21735780Y-49503520I51000J0D01*
G01*
X23635780Y-49503520D01*
G75*
G02*
X23686780Y-49554520I0J-51000D01*
G01*
X23686780Y-50354520D01*
G75*
G02*
X23635780Y-50405520I-51000J0D01*
G01*
X21735780Y-50405520D01*
G75*
G02*
X21684780Y-50354520I0J51000D01*
G01*
G37*
G36*
G01*
X21684780Y-48574520D02*
X21684780Y-47774520D01*
G75*
G02*
X21735780Y-47723520I51000J0D01*
G01*
X23635780Y-47723520D01*
G75*
G02*
X23686780Y-47774520I0J-51000D01*
G01*
X23686780Y-48574520D01*
G75*
G02*
X23635780Y-48625520I-51000J0D01*
G01*
X21735780Y-48625520D01*
G75*
G02*
X21684780Y-48574520I0J51000D01*
G01*
G37*
G04 #@! TD*
G04 #@! TO.C,D3*
G36*
G01*
X25472380Y-37400520D02*
X25472380Y-36600520D01*
G75*
G02*
X25523380Y-36549520I51000J0D01*
G01*
X27423380Y-36549520D01*
G75*
G02*
X27474380Y-36600520I0J-51000D01*
G01*
X27474380Y-37400520D01*
G75*
G02*
X27423380Y-37451520I-51000J0D01*
G01*
X25523380Y-37451520D01*
G75*
G02*
X25472380Y-37400520I0J51000D01*
G01*
G37*
G36*
G01*
X25472380Y-35620520D02*
X25472380Y-34820520D01*
G75*
G02*
X25523380Y-34769520I51000J0D01*
G01*
X27423380Y-34769520D01*
G75*
G02*
X27474380Y-34820520I0J-51000D01*
G01*
X27474380Y-35620520D01*
G75*
G02*
X27423380Y-35671520I-51000J0D01*
G01*
X25523380Y-35671520D01*
G75*
G02*
X25472380Y-35620520I0J51000D01*
G01*
G37*
G36*
G01*
X29152380Y-37400520D02*
X29152380Y-36600520D01*
G75*
G02*
X29203380Y-36549520I51000J0D01*
G01*
X31103380Y-36549520D01*
G75*
G02*
X31154380Y-36600520I0J-51000D01*
G01*
X31154380Y-37400520D01*
G75*
G02*
X31103380Y-37451520I-51000J0D01*
G01*
X29203380Y-37451520D01*
G75*
G02*
X29152380Y-37400520I0J51000D01*
G01*
G37*
G36*
G01*
X29152380Y-35620520D02*
X29152380Y-34820520D01*
G75*
G02*
X29203380Y-34769520I51000J0D01*
G01*
X31103380Y-34769520D01*
G75*
G02*
X31154380Y-34820520I0J-51000D01*
G01*
X31154380Y-35620520D01*
G75*
G02*
X31103380Y-35671520I-51000J0D01*
G01*
X29203380Y-35671520D01*
G75*
G02*
X29152380Y-35620520I0J51000D01*
G01*
G37*
G04 #@! TD*
G04 #@! TO.C,D4*
G36*
G01*
X21154380Y-43496520D02*
X21154380Y-42696520D01*
G75*
G02*
X21205380Y-42645520I51000J0D01*
G01*
X23105380Y-42645520D01*
G75*
G02*
X23156380Y-42696520I0J-51000D01*
G01*
X23156380Y-43496520D01*
G75*
G02*
X23105380Y-43547520I-51000J0D01*
G01*
X21205380Y-43547520D01*
G75*
G02*
X21154380Y-43496520I0J51000D01*
G01*
G37*
G36*
G01*
X21154380Y-41716520D02*
X21154380Y-40916520D01*
G75*
G02*
X21205380Y-40865520I51000J0D01*
G01*
X23105380Y-40865520D01*
G75*
G02*
X23156380Y-40916520I0J-51000D01*
G01*
X23156380Y-41716520D01*
G75*
G02*
X23105380Y-41767520I-51000J0D01*
G01*
X21205380Y-41767520D01*
G75*
G02*
X21154380Y-41716520I0J51000D01*
G01*
G37*
G36*
G01*
X24834380Y-43496520D02*
X24834380Y-42696520D01*
G75*
G02*
X24885380Y-42645520I51000J0D01*
G01*
X26785380Y-42645520D01*
G75*
G02*
X26836380Y-42696520I0J-51000D01*
G01*
X26836380Y-43496520D01*
G75*
G02*
X26785380Y-43547520I-51000J0D01*
G01*
X24885380Y-43547520D01*
G75*
G02*
X24834380Y-43496520I0J51000D01*
G01*
G37*
G36*
G01*
X24834380Y-41716520D02*
X24834380Y-40916520D01*
G75*
G02*
X24885380Y-40865520I51000J0D01*
G01*
X26785380Y-40865520D01*
G75*
G02*
X26836380Y-40916520I0J-51000D01*
G01*
X26836380Y-41716520D01*
G75*
G02*
X26785380Y-41767520I-51000J0D01*
G01*
X24885380Y-41767520D01*
G75*
G02*
X24834380Y-41716520I0J51000D01*
G01*
G37*
G04 #@! TD*
G04 #@! TO.C,R55*
G36*
G01*
X36761500Y-28831750D02*
X36761500Y-28268250D01*
G75*
G02*
X37005750Y-28024000I244250J0D01*
G01*
X37494250Y-28024000D01*
G75*
G02*
X37738500Y-28268250I0J-244250D01*
G01*
X37738500Y-28831750D01*
G75*
G02*
X37494250Y-29076000I-244250J0D01*
G01*
X37005750Y-29076000D01*
G75*
G02*
X36761500Y-28831750I0J244250D01*
G01*
G37*
G36*
G01*
X35186500Y-28831750D02*
X35186500Y-28268250D01*
G75*
G02*
X35430750Y-28024000I244250J0D01*
G01*
X35919250Y-28024000D01*
G75*
G02*
X36163500Y-28268250I0J-244250D01*
G01*
X36163500Y-28831750D01*
G75*
G02*
X35919250Y-29076000I-244250J0D01*
G01*
X35430750Y-29076000D01*
G75*
G02*
X35186500Y-28831750I0J244250D01*
G01*
G37*
G04 #@! TD*
G04 #@! TO.C,R54*
G36*
G01*
X36761500Y-31306750D02*
X36761500Y-30743250D01*
G75*
G02*
X37005750Y-30499000I244250J0D01*
G01*
X37494250Y-30499000D01*
G75*
G02*
X37738500Y-30743250I0J-244250D01*
G01*
X37738500Y-31306750D01*
G75*
G02*
X37494250Y-31551000I-244250J0D01*
G01*
X37005750Y-31551000D01*
G75*
G02*
X36761500Y-31306750I0J244250D01*
G01*
G37*
G36*
G01*
X35186500Y-31306750D02*
X35186500Y-30743250D01*
G75*
G02*
X35430750Y-30499000I244250J0D01*
G01*
X35919250Y-30499000D01*
G75*
G02*
X36163500Y-30743250I0J-244250D01*
G01*
X36163500Y-31306750D01*
G75*
G02*
X35919250Y-31551000I-244250J0D01*
G01*
X35430750Y-31551000D01*
G75*
G02*
X35186500Y-31306750I0J244250D01*
G01*
G37*
G04 #@! TD*
G04 #@! TO.C,R37*
G36*
G01*
X39824000Y-28831750D02*
X39824000Y-28268250D01*
G75*
G02*
X40068250Y-28024000I244250J0D01*
G01*
X40556750Y-28024000D01*
G75*
G02*
X40801000Y-28268250I0J-244250D01*
G01*
X40801000Y-28831750D01*
G75*
G02*
X40556750Y-29076000I-244250J0D01*
G01*
X40068250Y-29076000D01*
G75*
G02*
X39824000Y-28831750I0J244250D01*
G01*
G37*
G36*
G01*
X38249000Y-28831750D02*
X38249000Y-28268250D01*
G75*
G02*
X38493250Y-28024000I244250J0D01*
G01*
X38981750Y-28024000D01*
G75*
G02*
X39226000Y-28268250I0J-244250D01*
G01*
X39226000Y-28831750D01*
G75*
G02*
X38981750Y-29076000I-244250J0D01*
G01*
X38493250Y-29076000D01*
G75*
G02*
X38249000Y-28831750I0J244250D01*
G01*
G37*
G04 #@! TD*
G04 #@! TO.C,R25*
G36*
G01*
X39824000Y-31306750D02*
X39824000Y-30743250D01*
G75*
G02*
X40068250Y-30499000I244250J0D01*
G01*
X40556750Y-30499000D01*
G75*
G02*
X40801000Y-30743250I0J-244250D01*
G01*
X40801000Y-31306750D01*
G75*
G02*
X40556750Y-31551000I-244250J0D01*
G01*
X40068250Y-31551000D01*
G75*
G02*
X39824000Y-31306750I0J244250D01*
G01*
G37*
G36*
G01*
X38249000Y-31306750D02*
X38249000Y-30743250D01*
G75*
G02*
X38493250Y-30499000I244250J0D01*
G01*
X38981750Y-30499000D01*
G75*
G02*
X39226000Y-30743250I0J-244250D01*
G01*
X39226000Y-31306750D01*
G75*
G02*
X38981750Y-31551000I-244250J0D01*
G01*
X38493250Y-31551000D01*
G75*
G02*
X38249000Y-31306750I0J244250D01*
G01*
G37*
G04 #@! TD*
G04 #@! TO.C,R12*
G36*
G01*
X4126000Y-27468250D02*
X4126000Y-28031750D01*
G75*
G02*
X3881750Y-28276000I-244250J0D01*
G01*
X3393250Y-28276000D01*
G75*
G02*
X3149000Y-28031750I0J244250D01*
G01*
X3149000Y-27468250D01*
G75*
G02*
X3393250Y-27224000I244250J0D01*
G01*
X3881750Y-27224000D01*
G75*
G02*
X4126000Y-27468250I0J-244250D01*
G01*
G37*
G36*
G01*
X5701000Y-27468250D02*
X5701000Y-28031750D01*
G75*
G02*
X5456750Y-28276000I-244250J0D01*
G01*
X4968250Y-28276000D01*
G75*
G02*
X4724000Y-28031750I0J244250D01*
G01*
X4724000Y-27468250D01*
G75*
G02*
X4968250Y-27224000I244250J0D01*
G01*
X5456750Y-27224000D01*
G75*
G02*
X5701000Y-27468250I0J-244250D01*
G01*
G37*
G04 #@! TD*
G04 #@! TO.C,R19*
G36*
G01*
X16202470Y-49063360D02*
X15638970Y-49063360D01*
G75*
G02*
X15394720Y-48819110I0J244250D01*
G01*
X15394720Y-48330610D01*
G75*
G02*
X15638970Y-48086360I244250J0D01*
G01*
X16202470Y-48086360D01*
G75*
G02*
X16446720Y-48330610I0J-244250D01*
G01*
X16446720Y-48819110D01*
G75*
G02*
X16202470Y-49063360I-244250J0D01*
G01*
G37*
G36*
G01*
X16202470Y-50638360D02*
X15638970Y-50638360D01*
G75*
G02*
X15394720Y-50394110I0J244250D01*
G01*
X15394720Y-49905610D01*
G75*
G02*
X15638970Y-49661360I244250J0D01*
G01*
X16202470Y-49661360D01*
G75*
G02*
X16446720Y-49905610I0J-244250D01*
G01*
X16446720Y-50394110D01*
G75*
G02*
X16202470Y-50638360I-244250J0D01*
G01*
G37*
G04 #@! TD*
G04 #@! TO.C,R13*
G36*
G01*
X4724000Y-31381750D02*
X4724000Y-30818250D01*
G75*
G02*
X4968250Y-30574000I244250J0D01*
G01*
X5456750Y-30574000D01*
G75*
G02*
X5701000Y-30818250I0J-244250D01*
G01*
X5701000Y-31381750D01*
G75*
G02*
X5456750Y-31626000I-244250J0D01*
G01*
X4968250Y-31626000D01*
G75*
G02*
X4724000Y-31381750I0J244250D01*
G01*
G37*
G36*
G01*
X3149000Y-31381750D02*
X3149000Y-30818250D01*
G75*
G02*
X3393250Y-30574000I244250J0D01*
G01*
X3881750Y-30574000D01*
G75*
G02*
X4126000Y-30818250I0J-244250D01*
G01*
X4126000Y-31381750D01*
G75*
G02*
X3881750Y-31626000I-244250J0D01*
G01*
X3393250Y-31626000D01*
G75*
G02*
X3149000Y-31381750I0J244250D01*
G01*
G37*
G04 #@! TD*
D19*
G04 #@! TO.C,H4*
X13500000Y-93082120D03*
G04 #@! TD*
G04 #@! TO.C,H3*
X13500000Y-5000000D03*
G04 #@! TD*
G04 #@! TO.C,H2*
X61921380Y-93082120D03*
G04 #@! TD*
G04 #@! TO.C,H1*
X61921380Y-5000000D03*
G04 #@! TD*
D20*
G04 #@! TO.C,J13*
X27670000Y-88400000D03*
X25130000Y-88400000D03*
X22590000Y-88400000D03*
G36*
G01*
X20900000Y-89301000D02*
X19200000Y-89301000D01*
G75*
G02*
X19149000Y-89250000I0J51000D01*
G01*
X19149000Y-87550000D01*
G75*
G02*
X19200000Y-87499000I51000J0D01*
G01*
X20900000Y-87499000D01*
G75*
G02*
X20951000Y-87550000I0J-51000D01*
G01*
X20951000Y-89250000D01*
G75*
G02*
X20900000Y-89301000I-51000J0D01*
G01*
G37*
G04 #@! TD*
D14*
G04 #@! TO.C,TP1_0V1*
X11163300Y-80594200D03*
G04 #@! TD*
G04 #@! TO.C,TP18*
X21534120Y-35346640D03*
G04 #@! TD*
G04 #@! TO.C,U10*
G36*
G01*
X23801088Y-12463120D02*
X25815272Y-12463120D01*
G75*
G02*
X26009180Y-12657028I0J-193908D01*
G01*
X26009180Y-12721212D01*
G75*
G02*
X25815272Y-12915120I-193908J0D01*
G01*
X23801088Y-12915120D01*
G75*
G02*
X23607180Y-12721212I0J193908D01*
G01*
X23607180Y-12657028D01*
G75*
G02*
X23801088Y-12463120I193908J0D01*
G01*
G37*
G36*
G01*
X23801088Y-14913120D02*
X25815272Y-14913120D01*
G75*
G02*
X26009180Y-15107028I0J-193908D01*
G01*
X26009180Y-15171212D01*
G75*
G02*
X25815272Y-15365120I-193908J0D01*
G01*
X23801088Y-15365120D01*
G75*
G02*
X23607180Y-15171212I0J193908D01*
G01*
X23607180Y-15107028D01*
G75*
G02*
X23801088Y-14913120I193908J0D01*
G01*
G37*
G36*
G01*
X26759180Y-13407028D02*
X26759180Y-14421212D01*
G75*
G02*
X26565272Y-14615120I-193908J0D01*
G01*
X26501088Y-14615120D01*
G75*
G02*
X26307180Y-14421212I0J193908D01*
G01*
X26307180Y-13407028D01*
G75*
G02*
X26501088Y-13213120I193908J0D01*
G01*
X26565272Y-13213120D01*
G75*
G02*
X26759180Y-13407028I0J-193908D01*
G01*
G37*
G36*
G01*
X23309180Y-13407028D02*
X23309180Y-14421212D01*
G75*
G02*
X23115272Y-14615120I-193908J0D01*
G01*
X23051088Y-14615120D01*
G75*
G02*
X22857180Y-14421212I0J193908D01*
G01*
X22857180Y-13407028D01*
G75*
G02*
X23051088Y-13213120I193908J0D01*
G01*
X23115272Y-13213120D01*
G75*
G02*
X23309180Y-13407028I0J-193908D01*
G01*
G37*
G36*
G01*
X25008180Y-14088120D02*
X25958180Y-14088120D01*
G75*
G02*
X26009180Y-14139120I0J-51000D01*
G01*
X26009180Y-14539120D01*
G75*
G02*
X25958180Y-14590120I-51000J0D01*
G01*
X25008180Y-14590120D01*
G75*
G02*
X24957180Y-14539120I0J51000D01*
G01*
X24957180Y-14139120D01*
G75*
G02*
X25008180Y-14088120I51000J0D01*
G01*
G37*
G36*
G01*
X25008180Y-13238120D02*
X25958180Y-13238120D01*
G75*
G02*
X26009180Y-13289120I0J-51000D01*
G01*
X26009180Y-13689120D01*
G75*
G02*
X25958180Y-13740120I-51000J0D01*
G01*
X25008180Y-13740120D01*
G75*
G02*
X24957180Y-13689120I0J51000D01*
G01*
X24957180Y-13289120D01*
G75*
G02*
X25008180Y-13238120I51000J0D01*
G01*
G37*
G36*
G01*
X23658180Y-13238120D02*
X24608180Y-13238120D01*
G75*
G02*
X24659180Y-13289120I0J-51000D01*
G01*
X24659180Y-13689120D01*
G75*
G02*
X24608180Y-13740120I-51000J0D01*
G01*
X23658180Y-13740120D01*
G75*
G02*
X23607180Y-13689120I0J51000D01*
G01*
X23607180Y-13289120D01*
G75*
G02*
X23658180Y-13238120I51000J0D01*
G01*
G37*
G36*
G01*
X23658180Y-14088120D02*
X24608180Y-14088120D01*
G75*
G02*
X24659180Y-14139120I0J-51000D01*
G01*
X24659180Y-14539120D01*
G75*
G02*
X24608180Y-14590120I-51000J0D01*
G01*
X23658180Y-14590120D01*
G75*
G02*
X23607180Y-14539120I0J51000D01*
G01*
X23607180Y-14139120D01*
G75*
G02*
X23658180Y-14088120I51000J0D01*
G01*
G37*
G04 #@! TD*
G04 #@! TO.C,U11*
G36*
G01*
X23801088Y-82313120D02*
X25815272Y-82313120D01*
G75*
G02*
X26009180Y-82507028I0J-193908D01*
G01*
X26009180Y-82571212D01*
G75*
G02*
X25815272Y-82765120I-193908J0D01*
G01*
X23801088Y-82765120D01*
G75*
G02*
X23607180Y-82571212I0J193908D01*
G01*
X23607180Y-82507028D01*
G75*
G02*
X23801088Y-82313120I193908J0D01*
G01*
G37*
G36*
G01*
X23801088Y-84763120D02*
X25815272Y-84763120D01*
G75*
G02*
X26009180Y-84957028I0J-193908D01*
G01*
X26009180Y-85021212D01*
G75*
G02*
X25815272Y-85215120I-193908J0D01*
G01*
X23801088Y-85215120D01*
G75*
G02*
X23607180Y-85021212I0J193908D01*
G01*
X23607180Y-84957028D01*
G75*
G02*
X23801088Y-84763120I193908J0D01*
G01*
G37*
G36*
G01*
X26759180Y-83257028D02*
X26759180Y-84271212D01*
G75*
G02*
X26565272Y-84465120I-193908J0D01*
G01*
X26501088Y-84465120D01*
G75*
G02*
X26307180Y-84271212I0J193908D01*
G01*
X26307180Y-83257028D01*
G75*
G02*
X26501088Y-83063120I193908J0D01*
G01*
X26565272Y-83063120D01*
G75*
G02*
X26759180Y-83257028I0J-193908D01*
G01*
G37*
G36*
G01*
X23309180Y-83257028D02*
X23309180Y-84271212D01*
G75*
G02*
X23115272Y-84465120I-193908J0D01*
G01*
X23051088Y-84465120D01*
G75*
G02*
X22857180Y-84271212I0J193908D01*
G01*
X22857180Y-83257028D01*
G75*
G02*
X23051088Y-83063120I193908J0D01*
G01*
X23115272Y-83063120D01*
G75*
G02*
X23309180Y-83257028I0J-193908D01*
G01*
G37*
G36*
G01*
X25008180Y-83938120D02*
X25958180Y-83938120D01*
G75*
G02*
X26009180Y-83989120I0J-51000D01*
G01*
X26009180Y-84389120D01*
G75*
G02*
X25958180Y-84440120I-51000J0D01*
G01*
X25008180Y-84440120D01*
G75*
G02*
X24957180Y-84389120I0J51000D01*
G01*
X24957180Y-83989120D01*
G75*
G02*
X25008180Y-83938120I51000J0D01*
G01*
G37*
G36*
G01*
X25008180Y-83088120D02*
X25958180Y-83088120D01*
G75*
G02*
X26009180Y-83139120I0J-51000D01*
G01*
X26009180Y-83539120D01*
G75*
G02*
X25958180Y-83590120I-51000J0D01*
G01*
X25008180Y-83590120D01*
G75*
G02*
X24957180Y-83539120I0J51000D01*
G01*
X24957180Y-83139120D01*
G75*
G02*
X25008180Y-83088120I51000J0D01*
G01*
G37*
G36*
G01*
X23658180Y-83088120D02*
X24608180Y-83088120D01*
G75*
G02*
X24659180Y-83139120I0J-51000D01*
G01*
X24659180Y-83539120D01*
G75*
G02*
X24608180Y-83590120I-51000J0D01*
G01*
X23658180Y-83590120D01*
G75*
G02*
X23607180Y-83539120I0J51000D01*
G01*
X23607180Y-83139120D01*
G75*
G02*
X23658180Y-83088120I51000J0D01*
G01*
G37*
G36*
G01*
X23658180Y-83938120D02*
X24608180Y-83938120D01*
G75*
G02*
X24659180Y-83989120I0J-51000D01*
G01*
X24659180Y-84389120D01*
G75*
G02*
X24608180Y-84440120I-51000J0D01*
G01*
X23658180Y-84440120D01*
G75*
G02*
X23607180Y-84389120I0J51000D01*
G01*
X23607180Y-83989120D01*
G75*
G02*
X23658180Y-83938120I51000J0D01*
G01*
G37*
G04 #@! TD*
D20*
G04 #@! TO.C,J6*
X9552940Y-59237880D03*
X12092940Y-59237880D03*
X9552940Y-56697880D03*
X12092940Y-56697880D03*
X9552940Y-54157880D03*
X12092940Y-54157880D03*
X9552940Y-51617880D03*
X12092940Y-51617880D03*
X9552940Y-49077880D03*
X12092940Y-49077880D03*
X9552940Y-46537880D03*
X12092940Y-46537880D03*
X9552940Y-43997880D03*
X12092940Y-43997880D03*
X9552940Y-41457880D03*
X12092940Y-41457880D03*
X9552940Y-38917880D03*
X12092940Y-38917880D03*
X9552940Y-36377880D03*
X12092940Y-36377880D03*
X9552940Y-33837880D03*
X12092940Y-33837880D03*
X9552940Y-31297880D03*
X12092940Y-31297880D03*
X9552940Y-28757880D03*
X12092940Y-28757880D03*
X9552940Y-26217880D03*
X12092940Y-26217880D03*
X9552940Y-23677880D03*
X12092940Y-23677880D03*
X9552940Y-21137880D03*
X12092940Y-21137880D03*
X9552940Y-18597880D03*
X12092940Y-18597880D03*
X9552940Y-16057880D03*
X12092940Y-16057880D03*
X9552940Y-13517880D03*
X12092940Y-13517880D03*
X9552940Y-10977880D03*
G36*
G01*
X11191940Y-11827880D02*
X11191940Y-10127880D01*
G75*
G02*
X11242940Y-10076880I51000J0D01*
G01*
X12942940Y-10076880D01*
G75*
G02*
X12993940Y-10127880I0J-51000D01*
G01*
X12993940Y-11827880D01*
G75*
G02*
X12942940Y-11878880I-51000J0D01*
G01*
X11242940Y-11878880D01*
G75*
G02*
X11191940Y-11827880I0J51000D01*
G01*
G37*
G04 #@! TD*
G04 #@! TO.C,SW1*
G36*
G01*
X7364900Y-83083240D02*
X6564900Y-83083240D01*
G75*
G02*
X6513900Y-83032240I0J51000D01*
G01*
X6513900Y-82032240D01*
G75*
G02*
X6564900Y-81981240I51000J0D01*
G01*
X7364900Y-81981240D01*
G75*
G02*
X7415900Y-82032240I0J-51000D01*
G01*
X7415900Y-83032240D01*
G75*
G02*
X7364900Y-83083240I-51000J0D01*
G01*
G37*
G36*
G01*
X7364900Y-75783240D02*
X6564900Y-75783240D01*
G75*
G02*
X6513900Y-75732240I0J51000D01*
G01*
X6513900Y-74732240D01*
G75*
G02*
X6564900Y-74681240I51000J0D01*
G01*
X7364900Y-74681240D01*
G75*
G02*
X7415900Y-74732240I0J-51000D01*
G01*
X7415900Y-75732240D01*
G75*
G02*
X7364900Y-75783240I-51000J0D01*
G01*
G37*
G36*
G01*
X5154900Y-75783240D02*
X4354900Y-75783240D01*
G75*
G02*
X4303900Y-75732240I0J51000D01*
G01*
X4303900Y-74732240D01*
G75*
G02*
X4354900Y-74681240I51000J0D01*
G01*
X5154900Y-74681240D01*
G75*
G02*
X5205900Y-74732240I0J-51000D01*
G01*
X5205900Y-75732240D01*
G75*
G02*
X5154900Y-75783240I-51000J0D01*
G01*
G37*
G36*
G01*
X5154900Y-83083240D02*
X4354900Y-83083240D01*
G75*
G02*
X4303900Y-83032240I0J51000D01*
G01*
X4303900Y-82032240D01*
G75*
G02*
X4354900Y-81981240I51000J0D01*
G01*
X5154900Y-81981240D01*
G75*
G02*
X5205900Y-82032240I0J-51000D01*
G01*
X5205900Y-83032240D01*
G75*
G02*
X5154900Y-83083240I-51000J0D01*
G01*
G37*
G36*
G01*
X8364901Y-77033240D02*
X6864899Y-77033240D01*
G75*
G02*
X6813900Y-76982241I0J50999D01*
G01*
X6813900Y-76282239D01*
G75*
G02*
X6864899Y-76231240I50999J0D01*
G01*
X8364901Y-76231240D01*
G75*
G02*
X8415900Y-76282239I0J-50999D01*
G01*
X8415900Y-76982241D01*
G75*
G02*
X8364901Y-77033240I-50999J0D01*
G01*
G37*
G36*
G01*
X8364901Y-78533240D02*
X6864899Y-78533240D01*
G75*
G02*
X6813900Y-78482241I0J50999D01*
G01*
X6813900Y-77782239D01*
G75*
G02*
X6864899Y-77731240I50999J0D01*
G01*
X8364901Y-77731240D01*
G75*
G02*
X8415900Y-77782239I0J-50999D01*
G01*
X8415900Y-78482241D01*
G75*
G02*
X8364901Y-78533240I-50999J0D01*
G01*
G37*
G36*
G01*
X8364901Y-81533240D02*
X6864899Y-81533240D01*
G75*
G02*
X6813900Y-81482241I0J50999D01*
G01*
X6813900Y-80782239D01*
G75*
G02*
X6864899Y-80731240I50999J0D01*
G01*
X8364901Y-80731240D01*
G75*
G02*
X8415900Y-80782239I0J-50999D01*
G01*
X8415900Y-81482241D01*
G75*
G02*
X8364901Y-81533240I-50999J0D01*
G01*
G37*
D21*
X5854900Y-77382240D03*
X5854900Y-80382240D03*
G04 #@! TD*
G04 #@! TO.C,S3*
G36*
G01*
X37859800Y-47593400D02*
X37859800Y-46593400D01*
G75*
G02*
X37910800Y-46542400I51000J0D01*
G01*
X39610800Y-46542400D01*
G75*
G02*
X39661800Y-46593400I0J-51000D01*
G01*
X39661800Y-47593400D01*
G75*
G02*
X39610800Y-47644400I-51000J0D01*
G01*
X37910800Y-47644400D01*
G75*
G02*
X37859800Y-47593400I0J51000D01*
G01*
G37*
G36*
G01*
X31559800Y-47593400D02*
X31559800Y-46593400D01*
G75*
G02*
X31610800Y-46542400I51000J0D01*
G01*
X33310800Y-46542400D01*
G75*
G02*
X33361800Y-46593400I0J-51000D01*
G01*
X33361800Y-47593400D01*
G75*
G02*
X33310800Y-47644400I-51000J0D01*
G01*
X31610800Y-47644400D01*
G75*
G02*
X31559800Y-47593400I0J51000D01*
G01*
G37*
G36*
G01*
X37859800Y-51393400D02*
X37859800Y-50393400D01*
G75*
G02*
X37910800Y-50342400I51000J0D01*
G01*
X39610800Y-50342400D01*
G75*
G02*
X39661800Y-50393400I0J-51000D01*
G01*
X39661800Y-51393400D01*
G75*
G02*
X39610800Y-51444400I-51000J0D01*
G01*
X37910800Y-51444400D01*
G75*
G02*
X37859800Y-51393400I0J51000D01*
G01*
G37*
G36*
G01*
X31559800Y-51393400D02*
X31559800Y-50393400D01*
G75*
G02*
X31610800Y-50342400I51000J0D01*
G01*
X33310800Y-50342400D01*
G75*
G02*
X33361800Y-50393400I0J-51000D01*
G01*
X33361800Y-51393400D01*
G75*
G02*
X33310800Y-51444400I-51000J0D01*
G01*
X31610800Y-51444400D01*
G75*
G02*
X31559800Y-51393400I0J51000D01*
G01*
G37*
G04 #@! TD*
G04 #@! TO.C,S2*
G36*
G01*
X3078020Y-46751000D02*
X2078020Y-46751000D01*
G75*
G02*
X2027020Y-46700000I0J51000D01*
G01*
X2027020Y-45000000D01*
G75*
G02*
X2078020Y-44949000I51000J0D01*
G01*
X3078020Y-44949000D01*
G75*
G02*
X3129020Y-45000000I0J-51000D01*
G01*
X3129020Y-46700000D01*
G75*
G02*
X3078020Y-46751000I-51000J0D01*
G01*
G37*
G36*
G01*
X3078020Y-53051000D02*
X2078020Y-53051000D01*
G75*
G02*
X2027020Y-53000000I0J51000D01*
G01*
X2027020Y-51300000D01*
G75*
G02*
X2078020Y-51249000I51000J0D01*
G01*
X3078020Y-51249000D01*
G75*
G02*
X3129020Y-51300000I0J-51000D01*
G01*
X3129020Y-53000000D01*
G75*
G02*
X3078020Y-53051000I-51000J0D01*
G01*
G37*
G36*
G01*
X6878020Y-46751000D02*
X5878020Y-46751000D01*
G75*
G02*
X5827020Y-46700000I0J51000D01*
G01*
X5827020Y-45000000D01*
G75*
G02*
X5878020Y-44949000I51000J0D01*
G01*
X6878020Y-44949000D01*
G75*
G02*
X6929020Y-45000000I0J-51000D01*
G01*
X6929020Y-46700000D01*
G75*
G02*
X6878020Y-46751000I-51000J0D01*
G01*
G37*
G36*
G01*
X6878020Y-53051000D02*
X5878020Y-53051000D01*
G75*
G02*
X5827020Y-53000000I0J51000D01*
G01*
X5827020Y-51300000D01*
G75*
G02*
X5878020Y-51249000I51000J0D01*
G01*
X6878020Y-51249000D01*
G75*
G02*
X6929020Y-51300000I0J-51000D01*
G01*
X6929020Y-53000000D01*
G75*
G02*
X6878020Y-53051000I-51000J0D01*
G01*
G37*
G04 #@! TD*
G04 #@! TO.C,S1*
G36*
G01*
X3072940Y-16491120D02*
X2072940Y-16491120D01*
G75*
G02*
X2021940Y-16440120I0J51000D01*
G01*
X2021940Y-14740120D01*
G75*
G02*
X2072940Y-14689120I51000J0D01*
G01*
X3072940Y-14689120D01*
G75*
G02*
X3123940Y-14740120I0J-51000D01*
G01*
X3123940Y-16440120D01*
G75*
G02*
X3072940Y-16491120I-51000J0D01*
G01*
G37*
G36*
G01*
X3072940Y-22791120D02*
X2072940Y-22791120D01*
G75*
G02*
X2021940Y-22740120I0J51000D01*
G01*
X2021940Y-21040120D01*
G75*
G02*
X2072940Y-20989120I51000J0D01*
G01*
X3072940Y-20989120D01*
G75*
G02*
X3123940Y-21040120I0J-51000D01*
G01*
X3123940Y-22740120D01*
G75*
G02*
X3072940Y-22791120I-51000J0D01*
G01*
G37*
G36*
G01*
X6872940Y-16491120D02*
X5872940Y-16491120D01*
G75*
G02*
X5821940Y-16440120I0J51000D01*
G01*
X5821940Y-14740120D01*
G75*
G02*
X5872940Y-14689120I51000J0D01*
G01*
X6872940Y-14689120D01*
G75*
G02*
X6923940Y-14740120I0J-51000D01*
G01*
X6923940Y-16440120D01*
G75*
G02*
X6872940Y-16491120I-51000J0D01*
G01*
G37*
G36*
G01*
X6872940Y-22791120D02*
X5872940Y-22791120D01*
G75*
G02*
X5821940Y-22740120I0J51000D01*
G01*
X5821940Y-21040120D01*
G75*
G02*
X5872940Y-20989120I51000J0D01*
G01*
X6872940Y-20989120D01*
G75*
G02*
X6923940Y-21040120I0J-51000D01*
G01*
X6923940Y-22740120D01*
G75*
G02*
X6872940Y-22791120I-51000J0D01*
G01*
G37*
G04 #@! TD*
D22*
G36*
X16772965Y-92699287D02*
G01*
X16773800Y-92700913D01*
X16773800Y-93030200D01*
X16772800Y-93031932D01*
X16771800Y-93032200D01*
X16660800Y-93032200D01*
X16636715Y-93034572D01*
X16613640Y-93041572D01*
X16592376Y-93052937D01*
X16573739Y-93068232D01*
X16558444Y-93086869D01*
X16547079Y-93108133D01*
X16540079Y-93131208D01*
X16538299Y-93149283D01*
X16537134Y-93150909D01*
X16535144Y-93150713D01*
X16534309Y-93149087D01*
X16534309Y-92783269D01*
X16524024Y-92731565D01*
X16524667Y-92729671D01*
X16526629Y-92729281D01*
X16527900Y-92730594D01*
X16533174Y-92747979D01*
X16544539Y-92769243D01*
X16559834Y-92787880D01*
X16578471Y-92803175D01*
X16599735Y-92814540D01*
X16622810Y-92821540D01*
X16646801Y-92823903D01*
X16670792Y-92821540D01*
X16693867Y-92814540D01*
X16715131Y-92803175D01*
X16733768Y-92787880D01*
X16749063Y-92769243D01*
X16760428Y-92747979D01*
X16767428Y-92724904D01*
X16769810Y-92700717D01*
X16770975Y-92699091D01*
X16772965Y-92699287D01*
G37*
G36*
X64407525Y-50108714D02*
G01*
X64408360Y-50110340D01*
X64408360Y-50166700D01*
X64408350Y-50166896D01*
X64394057Y-50312015D01*
X64393981Y-50312400D01*
X64353440Y-50446046D01*
X64353290Y-50446408D01*
X64287460Y-50569567D01*
X64287242Y-50569893D01*
X64198646Y-50677849D01*
X64198369Y-50678126D01*
X64090413Y-50766722D01*
X64090087Y-50766940D01*
X63966928Y-50832770D01*
X63966566Y-50832920D01*
X63832920Y-50873461D01*
X63832535Y-50873537D01*
X63687416Y-50887830D01*
X63687220Y-50887840D01*
X63630860Y-50887840D01*
X63629128Y-50886840D01*
X63629128Y-50884840D01*
X63630664Y-50883850D01*
X63781758Y-50868969D01*
X63926862Y-50824952D01*
X64060589Y-50753474D01*
X64177800Y-50657280D01*
X64273994Y-50540069D01*
X64345472Y-50406342D01*
X64389489Y-50261238D01*
X64404370Y-50110144D01*
X64405535Y-50108518D01*
X64407525Y-50108714D01*
G37*
G36*
X61306350Y-50110144D02*
G01*
X61321231Y-50261238D01*
X61365248Y-50406342D01*
X61436726Y-50540069D01*
X61532920Y-50657280D01*
X61650131Y-50753474D01*
X61783858Y-50824952D01*
X61928962Y-50868969D01*
X62080056Y-50883850D01*
X62081682Y-50885015D01*
X62081486Y-50887005D01*
X62079860Y-50887840D01*
X62023500Y-50887840D01*
X62023304Y-50887830D01*
X61878185Y-50873537D01*
X61877800Y-50873461D01*
X61744154Y-50832920D01*
X61743792Y-50832770D01*
X61620633Y-50766940D01*
X61620307Y-50766722D01*
X61512351Y-50678126D01*
X61512074Y-50677849D01*
X61423478Y-50569893D01*
X61423260Y-50569567D01*
X61357430Y-50446408D01*
X61357280Y-50446046D01*
X61316739Y-50312400D01*
X61316663Y-50312015D01*
X61302370Y-50166896D01*
X61302360Y-50166700D01*
X61302360Y-50110340D01*
X61303360Y-50108608D01*
X61305360Y-50108608D01*
X61306350Y-50110144D01*
G37*
G36*
X62081592Y-47282840D02*
G01*
X62081592Y-47284840D01*
X62080056Y-47285830D01*
X61928962Y-47300711D01*
X61783858Y-47344728D01*
X61650131Y-47416206D01*
X61532920Y-47512400D01*
X61436726Y-47629611D01*
X61365248Y-47763338D01*
X61321231Y-47908442D01*
X61306350Y-48059536D01*
X61305185Y-48061162D01*
X61303195Y-48060966D01*
X61302360Y-48059340D01*
X61302360Y-48002980D01*
X61302370Y-48002784D01*
X61316663Y-47857665D01*
X61316739Y-47857280D01*
X61357280Y-47723634D01*
X61357430Y-47723272D01*
X61423260Y-47600113D01*
X61423478Y-47599787D01*
X61512074Y-47491831D01*
X61512351Y-47491554D01*
X61620307Y-47402958D01*
X61620633Y-47402740D01*
X61743792Y-47336910D01*
X61744154Y-47336760D01*
X61877800Y-47296219D01*
X61878185Y-47296143D01*
X62023304Y-47281850D01*
X62023500Y-47281840D01*
X62079860Y-47281840D01*
X62081592Y-47282840D01*
G37*
G36*
X63687416Y-47281850D02*
G01*
X63832535Y-47296143D01*
X63832920Y-47296219D01*
X63966566Y-47336760D01*
X63966928Y-47336910D01*
X64090087Y-47402740D01*
X64090413Y-47402958D01*
X64198369Y-47491554D01*
X64198646Y-47491831D01*
X64287242Y-47599787D01*
X64287460Y-47600113D01*
X64353290Y-47723272D01*
X64353440Y-47723634D01*
X64393981Y-47857280D01*
X64394057Y-47857665D01*
X64408350Y-48002784D01*
X64408360Y-48002980D01*
X64408360Y-48059340D01*
X64407360Y-48061072D01*
X64405360Y-48061072D01*
X64404370Y-48059536D01*
X64389489Y-47908442D01*
X64345472Y-47763338D01*
X64273994Y-47629611D01*
X64177800Y-47512400D01*
X64060589Y-47416206D01*
X63926862Y-47344728D01*
X63781758Y-47300711D01*
X63630664Y-47285830D01*
X63629038Y-47284665D01*
X63629234Y-47282675D01*
X63630860Y-47281840D01*
X63687220Y-47281840D01*
X63687416Y-47281850D01*
G37*
G36*
X61657525Y-45283714D02*
G01*
X61658360Y-45285340D01*
X61658360Y-45341700D01*
X61658350Y-45341896D01*
X61641655Y-45511402D01*
X61641579Y-45511787D01*
X61593925Y-45668881D01*
X61593775Y-45669243D01*
X61516393Y-45814014D01*
X61516175Y-45814340D01*
X61412034Y-45941237D01*
X61411757Y-45941514D01*
X61284860Y-46045655D01*
X61284534Y-46045873D01*
X61139763Y-46123255D01*
X61139401Y-46123405D01*
X60982307Y-46171059D01*
X60981922Y-46171135D01*
X60812416Y-46187830D01*
X60812220Y-46187840D01*
X60755860Y-46187840D01*
X60754128Y-46186840D01*
X60754128Y-46184840D01*
X60755664Y-46183850D01*
X60931144Y-46166567D01*
X61099697Y-46115437D01*
X61255035Y-46032407D01*
X61391189Y-45920669D01*
X61502927Y-45784515D01*
X61585957Y-45629177D01*
X61637087Y-45460624D01*
X61654370Y-45285144D01*
X61655535Y-45283518D01*
X61657525Y-45283714D01*
G37*
G36*
X58056350Y-45285144D02*
G01*
X58073633Y-45460624D01*
X58124763Y-45629177D01*
X58207793Y-45784515D01*
X58319531Y-45920669D01*
X58455685Y-46032407D01*
X58611023Y-46115437D01*
X58779576Y-46166567D01*
X58955056Y-46183850D01*
X58956682Y-46185015D01*
X58956486Y-46187005D01*
X58954860Y-46187840D01*
X58898500Y-46187840D01*
X58898304Y-46187830D01*
X58728798Y-46171135D01*
X58728413Y-46171059D01*
X58571319Y-46123405D01*
X58570957Y-46123255D01*
X58426186Y-46045873D01*
X58425860Y-46045655D01*
X58298963Y-45941514D01*
X58298686Y-45941237D01*
X58194545Y-45814340D01*
X58194327Y-45814014D01*
X58116945Y-45669243D01*
X58116795Y-45668881D01*
X58069141Y-45511787D01*
X58069065Y-45511402D01*
X58052370Y-45341896D01*
X58052360Y-45341700D01*
X58052360Y-45285340D01*
X58053360Y-45283608D01*
X58055360Y-45283608D01*
X58056350Y-45285144D01*
G37*
G36*
X58956592Y-42582840D02*
G01*
X58956592Y-42584840D01*
X58955056Y-42585830D01*
X58779576Y-42603113D01*
X58611023Y-42654243D01*
X58455685Y-42737273D01*
X58319531Y-42849011D01*
X58207793Y-42985165D01*
X58124763Y-43140503D01*
X58073633Y-43309056D01*
X58056350Y-43484536D01*
X58055185Y-43486162D01*
X58053195Y-43485966D01*
X58052360Y-43484340D01*
X58052360Y-43427980D01*
X58052370Y-43427784D01*
X58069065Y-43258278D01*
X58069141Y-43257893D01*
X58116795Y-43100799D01*
X58116945Y-43100437D01*
X58194327Y-42955666D01*
X58194545Y-42955340D01*
X58298686Y-42828443D01*
X58298963Y-42828166D01*
X58425860Y-42724025D01*
X58426186Y-42723807D01*
X58570957Y-42646425D01*
X58571319Y-42646275D01*
X58728413Y-42598621D01*
X58728798Y-42598545D01*
X58898304Y-42581850D01*
X58898500Y-42581840D01*
X58954860Y-42581840D01*
X58956592Y-42582840D01*
G37*
G36*
X60812416Y-42581850D02*
G01*
X60981922Y-42598545D01*
X60982307Y-42598621D01*
X61139401Y-42646275D01*
X61139763Y-42646425D01*
X61284534Y-42723807D01*
X61284860Y-42724025D01*
X61411757Y-42828166D01*
X61412034Y-42828443D01*
X61516175Y-42955340D01*
X61516393Y-42955666D01*
X61593775Y-43100437D01*
X61593925Y-43100799D01*
X61641579Y-43257893D01*
X61641655Y-43258278D01*
X61658350Y-43427784D01*
X61658360Y-43427980D01*
X61658360Y-43484340D01*
X61657360Y-43486072D01*
X61655360Y-43486072D01*
X61654370Y-43484536D01*
X61637087Y-43309056D01*
X61585957Y-43140503D01*
X61502927Y-42985165D01*
X61391189Y-42849011D01*
X61255035Y-42737273D01*
X61099697Y-42654243D01*
X60931144Y-42603113D01*
X60755664Y-42585830D01*
X60754038Y-42584665D01*
X60754234Y-42582675D01*
X60755860Y-42581840D01*
X60812220Y-42581840D01*
X60812416Y-42581850D01*
G37*
M02*
