%FSLAX45Y45*%
G04 Gerber Fmt 4.5, Leading zero omitted, Abs format (unit mm)*
G04 Created by KiCad (PCBNEW (5.1.9)-1) date 2021-01-16 15:24:34*
%MOMM*%
%LPD*%
G01*
G04 APERTURE LIST*
%TA.AperFunction,Profile*%
%ADD10C,0.100000*%
%TD*%
%ADD11C,0.200000*%
%ADD12C,0.300000*%
G04 APERTURE END LIST*
D10*
X6400000Y0D02*
G75*
G02*
X6700000Y-300000I0J-300000D01*
G01*
X300000Y-9800000D02*
G75*
G02*
X0Y-9500000I0J300000D01*
G01*
X300000Y-9800000D02*
X6400000Y-9800000D01*
X6700000Y-9500000D02*
X6700000Y-300000D01*
X6400000Y0D02*
X300000Y0D01*
X0Y-300000D02*
G75*
G02*
X300000Y0I300000J0D01*
G01*
X0Y-300000D02*
X0Y-9500000D01*
X6700000Y-9500000D02*
G75*
G02*
X6400000Y-9800000I-300000J0D01*
G01*
D11*
X5481710Y-7256250D02*
X5502030Y-7276570D01*
X5502030Y-7256250D02*
X5481710Y-7276570D01*
X5481710Y-7386250D02*
X5502030Y-7406570D01*
X5502030Y-7386250D02*
X5481710Y-7406570D01*
X5481710Y-7516250D02*
X5502030Y-7536570D01*
X5502030Y-7516250D02*
X5481710Y-7536570D01*
X5481710Y-7646250D02*
X5502030Y-7666570D01*
X5502030Y-7646250D02*
X5481710Y-7666570D01*
X5481710Y-7776250D02*
X5502030Y-7796570D01*
X5502030Y-7776250D02*
X5481710Y-7796570D01*
X5481710Y-7906250D02*
X5502030Y-7926570D01*
X5502030Y-7906250D02*
X5481710Y-7926570D01*
X5481710Y-8036250D02*
X5502030Y-8056570D01*
X5502030Y-8036250D02*
X5481710Y-8056570D01*
X5481710Y-8166250D02*
X5502030Y-8186570D01*
X5502030Y-8166250D02*
X5481710Y-8186570D01*
X5611710Y-7256250D02*
X5632030Y-7276570D01*
X5632030Y-7256250D02*
X5611710Y-7276570D01*
X5611710Y-7386250D02*
X5632030Y-7406570D01*
X5632030Y-7386250D02*
X5611710Y-7406570D01*
X5611710Y-7516250D02*
X5632030Y-7536570D01*
X5632030Y-7516250D02*
X5611710Y-7536570D01*
X5611710Y-7646250D02*
X5632030Y-7666570D01*
X5632030Y-7646250D02*
X5611710Y-7666570D01*
X5611710Y-7776250D02*
X5632030Y-7796570D01*
X5632030Y-7776250D02*
X5611710Y-7796570D01*
X5611710Y-7906250D02*
X5632030Y-7926570D01*
X5632030Y-7906250D02*
X5611710Y-7926570D01*
X5611710Y-8036250D02*
X5632030Y-8056570D01*
X5632030Y-8036250D02*
X5611710Y-8056570D01*
X5611710Y-8166250D02*
X5632030Y-8186570D01*
X5632030Y-8166250D02*
X5611710Y-8186570D01*
X5741710Y-7256250D02*
X5762030Y-7276570D01*
X5762030Y-7256250D02*
X5741710Y-7276570D01*
X5741710Y-7386250D02*
X5762030Y-7406570D01*
X5762030Y-7386250D02*
X5741710Y-7406570D01*
X5741710Y-7516250D02*
X5762030Y-7536570D01*
X5762030Y-7516250D02*
X5741710Y-7536570D01*
X5741710Y-7646250D02*
X5762030Y-7666570D01*
X5762030Y-7646250D02*
X5741710Y-7666570D01*
X5741710Y-7776250D02*
X5762030Y-7796570D01*
X5762030Y-7776250D02*
X5741710Y-7796570D01*
X5741710Y-7906250D02*
X5762030Y-7926570D01*
X5762030Y-7906250D02*
X5741710Y-7926570D01*
X5741710Y-8036250D02*
X5762030Y-8056570D01*
X5762030Y-8036250D02*
X5741710Y-8056570D01*
X5741710Y-8166250D02*
X5762030Y-8186570D01*
X5762030Y-8166250D02*
X5741710Y-8186570D01*
X1893380Y-7034580D02*
G75*
G03*
X1893380Y-7034580I-15000J0D01*
G01*
X1893380Y-7134580D02*
G75*
G03*
X1893380Y-7134580I-15000J0D01*
G01*
X1893380Y-7234580D02*
G75*
G03*
X1893380Y-7234580I-15000J0D01*
G01*
X1893380Y-7334580D02*
G75*
G03*
X1893380Y-7334580I-15000J0D01*
G01*
X1893380Y-7434580D02*
G75*
G03*
X1893380Y-7434580I-15000J0D01*
G01*
X1993380Y-7034580D02*
G75*
G03*
X1993380Y-7034580I-15000J0D01*
G01*
X1993380Y-7134580D02*
G75*
G03*
X1993380Y-7134580I-15000J0D01*
G01*
X1993380Y-7234580D02*
G75*
G03*
X1993380Y-7234580I-15000J0D01*
G01*
X1993380Y-7334580D02*
G75*
G03*
X1993380Y-7334580I-15000J0D01*
G01*
X1993380Y-7434580D02*
G75*
G03*
X1993380Y-7434580I-15000J0D01*
G01*
X2093380Y-7034580D02*
G75*
G03*
X2093380Y-7034580I-15000J0D01*
G01*
X2093380Y-7134580D02*
G75*
G03*
X2093380Y-7134580I-15000J0D01*
G01*
X2093380Y-7234580D02*
G75*
G03*
X2093380Y-7234580I-15000J0D01*
G01*
X2093380Y-7334580D02*
G75*
G03*
X2093380Y-7334580I-15000J0D01*
G01*
X2093380Y-7434580D02*
G75*
G03*
X2093380Y-7434580I-15000J0D01*
G01*
X2193380Y-7034580D02*
G75*
G03*
X2193380Y-7034580I-15000J0D01*
G01*
X2193380Y-7134580D02*
G75*
G03*
X2193380Y-7134580I-15000J0D01*
G01*
X2193380Y-7234580D02*
G75*
G03*
X2193380Y-7234580I-15000J0D01*
G01*
X2193380Y-7334580D02*
G75*
G03*
X2193380Y-7334580I-15000J0D01*
G01*
X2193380Y-7434580D02*
G75*
G03*
X2193380Y-7434580I-15000J0D01*
G01*
X2293380Y-7034580D02*
G75*
G03*
X2293380Y-7034580I-15000J0D01*
G01*
X2293380Y-7134580D02*
G75*
G03*
X2293380Y-7134580I-15000J0D01*
G01*
X2293380Y-7234580D02*
G75*
G03*
X2293380Y-7234580I-15000J0D01*
G01*
X2293380Y-7334580D02*
G75*
G03*
X2293380Y-7334580I-15000J0D01*
G01*
X2293380Y-7434580D02*
G75*
G03*
X2293380Y-7434580I-15000J0D01*
G01*
X60002Y-9395000D02*
X60002Y-9435000D01*
X40002Y-9415000D02*
X80002Y-9415000D01*
X100000Y-8385000D02*
X100000Y-8425000D01*
X80000Y-8405000D02*
X120000Y-8405000D01*
X115000Y-5070000D02*
X115000Y-5110000D01*
X95000Y-5090000D02*
X135000Y-5090000D01*
X120003Y-4925000D02*
X120003Y-4965000D01*
X100003Y-4945000D02*
X140004Y-4945000D01*
X150004Y-4389087D02*
X150004Y-4429087D01*
X130004Y-4409087D02*
X170004Y-4409087D01*
X163068Y-833948D02*
X163068Y-873948D01*
X143068Y-853948D02*
X183068Y-853948D01*
X180000Y-9640000D02*
X180000Y-9680000D01*
X160000Y-9660000D02*
X200000Y-9660000D01*
X215000Y-2370000D02*
X215000Y-2410000D01*
X195000Y-2390000D02*
X235000Y-2390000D01*
X230000Y-8470000D02*
X230000Y-8510000D01*
X210000Y-8490000D02*
X250000Y-8490000D01*
X244719Y-4094864D02*
X244719Y-4134864D01*
X224719Y-4114864D02*
X264719Y-4114864D01*
X245000Y-2490000D02*
X245000Y-2530000D01*
X225000Y-2510000D02*
X265000Y-2510000D01*
X245000Y-4220000D02*
X245000Y-4260000D01*
X225000Y-4240000D02*
X265000Y-4240000D01*
X285000Y-1410000D02*
X285000Y-1450000D01*
X265000Y-1430000D02*
X305000Y-1430000D01*
X290000Y-2060000D02*
X290000Y-2100000D01*
X270000Y-2080000D02*
X310000Y-2080000D01*
X305000Y-9610000D02*
X305000Y-9650000D01*
X285000Y-9630000D02*
X325000Y-9630000D01*
X325000Y-2585000D02*
X325000Y-2625000D01*
X305000Y-2605000D02*
X345000Y-2605000D01*
X325000Y-3265000D02*
X325000Y-3305000D01*
X305000Y-3285000D02*
X345000Y-3285000D01*
X325000Y-6595000D02*
X325000Y-6635000D01*
X305000Y-6615000D02*
X345000Y-6615000D01*
X330000Y-8105000D02*
X330000Y-8145000D01*
X310000Y-8125000D02*
X350000Y-8125000D01*
X362503Y-7774837D02*
X362503Y-7814837D01*
X342503Y-7794837D02*
X382503Y-7794837D01*
X372857Y-2008524D02*
X372857Y-2048524D01*
X352857Y-2028524D02*
X392857Y-2028524D01*
X379762Y-1416735D02*
X379762Y-1456735D01*
X359762Y-1436735D02*
X399762Y-1436735D01*
X380000Y-3485000D02*
X380000Y-3525000D01*
X360000Y-3505000D02*
X400000Y-3505000D01*
X415001Y-4875280D02*
X415001Y-4915280D01*
X395001Y-4895280D02*
X435001Y-4895280D01*
X431019Y-3619197D02*
X431019Y-3659197D01*
X411019Y-3639197D02*
X451019Y-3639197D01*
X434989Y-7978841D02*
X434989Y-8018841D01*
X414989Y-7998841D02*
X454989Y-7998841D01*
X444064Y-7608224D02*
X444064Y-7648224D01*
X424064Y-7628224D02*
X464064Y-7628224D01*
X455000Y-5845000D02*
X455000Y-5885000D01*
X435000Y-5865000D02*
X475000Y-5865000D01*
X475695Y-7170879D02*
X475695Y-7210879D01*
X455695Y-7190879D02*
X495695Y-7190879D01*
X502400Y-3790000D02*
X502400Y-3830000D01*
X482400Y-3810000D02*
X522400Y-3810000D01*
X507692Y-7255000D02*
X507692Y-7295000D01*
X487692Y-7275000D02*
X527693Y-7275000D01*
X521462Y-1758000D02*
X521462Y-1798000D01*
X501462Y-1778000D02*
X541462Y-1778000D01*
X533463Y-7846814D02*
X533463Y-7886814D01*
X513463Y-7866814D02*
X553463Y-7866814D01*
X578446Y-6533479D02*
X578446Y-6573479D01*
X558446Y-6553479D02*
X598446Y-6553479D01*
X582504Y-4425255D02*
X582504Y-4465255D01*
X562504Y-4445255D02*
X602504Y-4445255D01*
X630000Y-9620000D02*
X630000Y-9660000D01*
X610000Y-9640000D02*
X650000Y-9640000D01*
X640000Y-2895000D02*
X640000Y-2935000D01*
X620000Y-2915000D02*
X660000Y-2915000D01*
X660006Y-6010007D02*
X660006Y-6050007D01*
X640006Y-6030007D02*
X680006Y-6030007D01*
X661416Y-1844360D02*
X661416Y-1884360D01*
X641416Y-1864360D02*
X681416Y-1864360D01*
X685000Y-755000D02*
X685000Y-795000D01*
X665000Y-775000D02*
X705000Y-775000D01*
X697509Y-5420216D02*
X697509Y-5460216D01*
X677509Y-5440216D02*
X717509Y-5440216D01*
X707505Y-4443467D02*
X707505Y-4483467D01*
X687505Y-4463467D02*
X727505Y-4463467D01*
X730000Y-5640000D02*
X730000Y-5680000D01*
X710000Y-5660000D02*
X750000Y-5660000D01*
X733695Y-7243695D02*
X733695Y-7283695D01*
X713695Y-7263695D02*
X753695Y-7263695D01*
X741235Y-3486710D02*
X741235Y-3526710D01*
X721235Y-3506710D02*
X761235Y-3506710D01*
X745000Y-8615000D02*
X745000Y-8655000D01*
X725000Y-8635000D02*
X765000Y-8635000D01*
X773684Y-3583752D02*
X773684Y-3623752D01*
X753684Y-3603752D02*
X793684Y-3603752D01*
X817685Y-5167557D02*
X817685Y-5207557D01*
X797685Y-5187557D02*
X837685Y-5187557D01*
X825000Y-6415001D02*
X825000Y-6455001D01*
X805000Y-6435001D02*
X845000Y-6435001D01*
X830000Y-6145000D02*
X830000Y-6185000D01*
X810000Y-6165000D02*
X850000Y-6165000D01*
X835000Y-6925000D02*
X835000Y-6965000D01*
X815000Y-6945000D02*
X855000Y-6945000D01*
X865000Y-9065000D02*
X865000Y-9105000D01*
X845000Y-9085000D02*
X885000Y-9085000D01*
X870224Y-7878515D02*
X870224Y-7918515D01*
X850224Y-7898515D02*
X890224Y-7898515D01*
X879074Y-7664535D02*
X879074Y-7704535D01*
X859074Y-7684535D02*
X899074Y-7684535D01*
X925576Y-8099364D02*
X925576Y-8139364D01*
X905576Y-8119364D02*
X945576Y-8119364D01*
X932033Y-7813094D02*
X932033Y-7853094D01*
X912033Y-7833094D02*
X952033Y-7833094D01*
X1005140Y-7760601D02*
X1005140Y-7800601D01*
X985140Y-7780601D02*
X1025140Y-7780601D01*
X1035000Y-8420000D02*
X1035000Y-8460000D01*
X1015000Y-8440000D02*
X1055000Y-8440000D01*
X1083668Y-8495706D02*
X1083668Y-8535706D01*
X1063668Y-8515706D02*
X1103668Y-8515706D01*
X1085000Y-5316788D02*
X1085000Y-5356788D01*
X1065000Y-5336788D02*
X1105000Y-5336788D01*
X1106400Y-7125000D02*
X1106400Y-7165000D01*
X1086400Y-7145000D02*
X1126400Y-7145000D01*
X1125000Y-6685000D02*
X1125000Y-6725000D01*
X1105000Y-6705000D02*
X1145000Y-6705000D01*
X1130000Y-7719414D02*
X1130000Y-7759414D01*
X1110000Y-7739414D02*
X1150000Y-7739414D01*
X1163018Y-7460835D02*
X1163018Y-7500835D01*
X1143018Y-7480835D02*
X1183018Y-7480835D01*
X1184656Y-7575616D02*
X1184656Y-7615616D01*
X1164656Y-7595616D02*
X1204656Y-7595616D01*
X1192530Y-8477530D02*
X1192530Y-8517530D01*
X1172530Y-8497530D02*
X1212530Y-8497530D01*
X1275000Y-6880000D02*
X1275000Y-6920000D01*
X1255000Y-6900000D02*
X1295000Y-6900000D01*
X1280160Y-8711250D02*
X1280160Y-8751250D01*
X1260160Y-8731250D02*
X1300160Y-8731250D01*
X1285000Y-7279997D02*
X1285000Y-7319997D01*
X1265000Y-7299997D02*
X1305000Y-7299997D01*
X1295000Y-6680000D02*
X1295000Y-6720000D01*
X1275000Y-6700000D02*
X1315000Y-6700000D01*
X1350000Y-6550000D02*
X1350000Y-6590000D01*
X1330000Y-6570000D02*
X1370000Y-6570000D01*
X1353905Y-5871723D02*
X1353905Y-5911723D01*
X1333905Y-5891723D02*
X1373905Y-5891723D01*
X1377496Y-5722500D02*
X1377496Y-5762500D01*
X1357496Y-5742500D02*
X1397496Y-5742500D01*
X1380000Y-7585000D02*
X1380000Y-7625000D01*
X1360000Y-7605000D02*
X1400000Y-7605000D01*
X1380874Y-7374999D02*
X1380874Y-7414999D01*
X1360874Y-7394999D02*
X1400874Y-7394999D01*
X1390000Y-1255000D02*
X1390000Y-1295000D01*
X1370000Y-1275000D02*
X1410000Y-1275000D01*
X1409134Y-7289549D02*
X1409134Y-7329549D01*
X1389134Y-7309549D02*
X1429134Y-7309549D01*
X1410000Y-7160000D02*
X1410000Y-7200000D01*
X1390000Y-7180000D02*
X1430000Y-7180000D01*
X1419796Y-8076856D02*
X1419796Y-8116856D01*
X1399796Y-8096856D02*
X1439796Y-8096856D01*
X1430000Y-905000D02*
X1430000Y-945000D01*
X1410000Y-925000D02*
X1450000Y-925000D01*
X1440000Y-5415000D02*
X1440000Y-5455000D01*
X1420000Y-5435000D02*
X1460000Y-5435000D01*
X1456054Y-2005603D02*
X1456054Y-2045603D01*
X1436054Y-2025603D02*
X1476054Y-2025603D01*
X1465000Y-1460000D02*
X1465000Y-1500000D01*
X1445000Y-1480000D02*
X1485000Y-1480000D01*
X1479550Y-1605600D02*
X1479550Y-1645600D01*
X1459550Y-1625600D02*
X1499550Y-1625600D01*
X1479550Y-1805600D02*
X1479550Y-1845600D01*
X1459550Y-1825600D02*
X1499550Y-1825600D01*
X1480000Y-2235000D02*
X1480000Y-2275000D01*
X1460000Y-2255000D02*
X1500000Y-2255000D01*
X1487975Y-2788820D02*
X1487975Y-2828820D01*
X1467975Y-2808820D02*
X1507975Y-2808820D01*
X1490000Y-6980000D02*
X1490000Y-7020000D01*
X1470000Y-7000000D02*
X1510000Y-7000000D01*
X1509815Y-7849416D02*
X1509815Y-7889416D01*
X1489815Y-7869416D02*
X1529815Y-7869416D01*
X1530000Y-7430000D02*
X1530000Y-7470000D01*
X1510000Y-7450000D02*
X1550000Y-7450000D01*
X1540000Y-8780000D02*
X1540000Y-8820000D01*
X1520000Y-8800000D02*
X1560000Y-8800000D01*
X1544329Y-2712339D02*
X1544329Y-2752339D01*
X1524329Y-2732339D02*
X1564329Y-2732339D01*
X1560000Y-4255000D02*
X1560000Y-4295000D01*
X1540000Y-4275000D02*
X1580000Y-4275000D01*
X1580000Y-2905874D02*
X1580000Y-2945874D01*
X1560000Y-2925874D02*
X1600000Y-2925874D01*
X1581537Y-5838463D02*
X1581537Y-5878463D01*
X1561537Y-5858463D02*
X1601537Y-5858463D01*
X1585000Y-8110000D02*
X1585000Y-8150000D01*
X1565000Y-8130000D02*
X1605000Y-8130000D01*
X1587500Y-8320000D02*
X1587500Y-8360000D01*
X1567500Y-8340000D02*
X1607500Y-8340000D01*
X1597718Y-6325936D02*
X1597718Y-6365936D01*
X1577718Y-6345936D02*
X1617718Y-6345936D01*
X1600000Y-4360000D02*
X1600000Y-4400000D01*
X1580000Y-4380000D02*
X1620000Y-4380000D01*
X1605002Y-5415000D02*
X1605002Y-5455000D01*
X1585002Y-5435000D02*
X1625002Y-5435000D01*
X1616964Y-6763832D02*
X1616964Y-6803832D01*
X1596964Y-6783832D02*
X1636964Y-6783832D01*
X1620000Y-6020000D02*
X1620000Y-6060000D01*
X1600000Y-6040000D02*
X1640000Y-6040000D01*
X1630000Y-6175000D02*
X1630000Y-6215000D01*
X1610000Y-6195000D02*
X1650000Y-6195000D01*
X1630000Y-3205000D02*
X1630000Y-3245000D01*
X1610000Y-3225000D02*
X1650000Y-3225000D01*
X1635000Y-4940000D02*
X1635000Y-4980000D01*
X1615000Y-4960000D02*
X1655000Y-4960000D01*
X1640000Y-4825000D02*
X1640000Y-4865000D01*
X1620000Y-4845000D02*
X1660000Y-4845000D01*
X1645000Y-3695000D02*
X1645000Y-3735000D01*
X1625000Y-3715000D02*
X1665000Y-3715000D01*
X1657654Y-2845873D02*
X1657654Y-2885873D01*
X1637654Y-2865873D02*
X1677654Y-2865873D01*
X1665000Y-5585000D02*
X1665000Y-5625000D01*
X1645000Y-5605000D02*
X1685000Y-5605000D01*
X1679550Y-1605600D02*
X1679550Y-1645600D01*
X1659550Y-1625600D02*
X1699550Y-1625600D01*
X1679550Y-1805600D02*
X1679550Y-1845600D01*
X1659550Y-1825600D02*
X1699550Y-1825600D01*
X1690000Y-7595000D02*
X1690000Y-7635000D01*
X1670000Y-7615000D02*
X1710000Y-7615000D01*
X1715000Y-3980000D02*
X1715000Y-4020000D01*
X1695000Y-4000000D02*
X1735000Y-4000000D01*
X1773936Y-1183452D02*
X1773936Y-1223452D01*
X1753936Y-1203452D02*
X1793936Y-1203452D01*
X1775182Y-5670179D02*
X1775182Y-5710179D01*
X1755182Y-5690179D02*
X1795182Y-5690179D01*
X1810000Y-6215000D02*
X1810000Y-6255000D01*
X1790000Y-6235000D02*
X1830000Y-6235000D01*
X1825000Y-3960000D02*
X1825000Y-4000000D01*
X1805000Y-3980000D02*
X1845000Y-3980000D01*
X1829145Y-6680241D02*
X1829145Y-6720241D01*
X1809145Y-6700241D02*
X1849145Y-6700241D01*
X1835000Y-3655000D02*
X1835000Y-3695000D01*
X1815000Y-3675000D02*
X1855000Y-3675000D01*
X1835000Y-5327502D02*
X1835000Y-5367502D01*
X1815000Y-5347502D02*
X1855000Y-5347502D01*
X1836420Y-479110D02*
X1836420Y-519110D01*
X1816420Y-499110D02*
X1856420Y-499110D01*
X1836420Y-606110D02*
X1836420Y-646110D01*
X1816420Y-626110D02*
X1856420Y-626110D01*
X1845000Y-4435000D02*
X1845000Y-4475000D01*
X1825000Y-4455000D02*
X1865000Y-4455000D01*
X1855000Y-5925000D02*
X1855000Y-5965000D01*
X1835000Y-5945000D02*
X1875000Y-5945000D01*
X1875000Y-5654998D02*
X1875000Y-5694998D01*
X1855000Y-5674998D02*
X1895000Y-5674998D01*
X1875151Y-6030005D02*
X1875151Y-6070005D01*
X1855151Y-6050005D02*
X1895151Y-6050005D01*
X1879550Y-1605600D02*
X1879550Y-1645600D01*
X1859550Y-1625600D02*
X1899550Y-1625600D01*
X1879550Y-1805600D02*
X1879550Y-1845600D01*
X1859550Y-1825600D02*
X1899550Y-1825600D01*
X1895976Y-3228243D02*
X1895976Y-3268243D01*
X1875976Y-3248243D02*
X1915976Y-3248243D01*
X1903730Y-8110540D02*
X1903730Y-8150540D01*
X1883730Y-8130540D02*
X1923730Y-8130540D01*
X1915000Y-2930000D02*
X1915000Y-2970000D01*
X1895000Y-2950000D02*
X1935000Y-2950000D01*
X1925000Y-6515000D02*
X1925000Y-6555000D01*
X1905000Y-6535000D02*
X1945000Y-6535000D01*
X1925418Y-4925308D02*
X1925418Y-4965308D01*
X1905418Y-4945308D02*
X1945418Y-4945308D01*
X1932376Y-4249740D02*
X1932376Y-4289740D01*
X1912376Y-4269740D02*
X1952376Y-4269740D01*
X1935000Y-5870000D02*
X1935000Y-5910000D01*
X1915000Y-5890000D02*
X1955000Y-5890000D01*
X1960000Y-3735000D02*
X1960000Y-3775000D01*
X1940000Y-3755000D02*
X1980000Y-3755000D01*
X1963420Y-479110D02*
X1963420Y-519110D01*
X1943420Y-499110D02*
X1983420Y-499110D01*
X1963420Y-606110D02*
X1963420Y-646110D01*
X1943420Y-626110D02*
X1983420Y-626110D01*
X1965000Y-1545000D02*
X1965000Y-1585000D01*
X1945000Y-1565000D02*
X1985000Y-1565000D01*
X1979223Y-7817553D02*
X1979223Y-7857553D01*
X1959223Y-7837553D02*
X1999223Y-7837553D01*
X2009637Y-7902259D02*
X2009637Y-7942259D01*
X1989637Y-7922259D02*
X2029637Y-7922259D01*
X2015000Y-2750000D02*
X2015000Y-2790000D01*
X1995000Y-2770000D02*
X2035000Y-2770000D01*
X2015000Y-3250000D02*
X2015000Y-3290000D01*
X1995000Y-3270000D02*
X2035000Y-3270000D01*
X2020000Y-5475000D02*
X2020000Y-5515000D01*
X2000000Y-5495000D02*
X2040000Y-5495000D01*
X2020000Y-6395000D02*
X2020000Y-6435000D01*
X2000000Y-6415000D02*
X2040000Y-6415000D01*
X2032733Y-6561078D02*
X2032733Y-6601078D01*
X2012733Y-6581078D02*
X2052733Y-6581078D01*
X2065000Y-1980000D02*
X2065000Y-2020000D01*
X2045000Y-2000000D02*
X2085000Y-2000000D01*
X2065000Y-4165000D02*
X2065000Y-4205000D01*
X2045000Y-4185000D02*
X2085000Y-4185000D01*
X2065001Y-1355000D02*
X2065001Y-1395000D01*
X2045001Y-1375000D02*
X2085001Y-1375000D01*
X2076450Y-1050610D02*
X2076450Y-1090610D01*
X2056450Y-1070610D02*
X2096450Y-1070610D01*
X2080000Y-4530000D02*
X2080000Y-4570000D01*
X2060000Y-4550000D02*
X2100000Y-4550000D01*
X2090420Y-479110D02*
X2090420Y-519110D01*
X2070420Y-499110D02*
X2110420Y-499110D01*
X2090420Y-606110D02*
X2090420Y-646110D01*
X2070420Y-626110D02*
X2110420Y-626110D01*
X2093329Y-2887156D02*
X2093329Y-2927156D01*
X2073329Y-2907156D02*
X2113330Y-2907156D01*
X2100000Y-7840000D02*
X2100000Y-7880000D01*
X2080000Y-7860000D02*
X2120000Y-7860000D01*
X2114227Y-6522883D02*
X2114227Y-6562883D01*
X2094227Y-6542883D02*
X2134227Y-6542883D01*
X2127706Y-8269824D02*
X2127706Y-8309824D01*
X2107706Y-8289824D02*
X2147706Y-8289824D01*
X2130000Y-6375000D02*
X2130000Y-6415000D01*
X2110000Y-6395000D02*
X2150000Y-6395000D01*
X2132843Y-3806928D02*
X2132843Y-3846928D01*
X2112843Y-3826928D02*
X2152843Y-3826928D01*
X2175000Y-5880000D02*
X2175000Y-5920000D01*
X2155000Y-5900000D02*
X2195000Y-5900000D01*
X2188972Y-8638099D02*
X2188972Y-8678099D01*
X2168972Y-8658099D02*
X2208972Y-8658099D01*
X2190000Y-3240000D02*
X2190000Y-3280000D01*
X2170000Y-3260000D02*
X2210000Y-3260000D01*
X2190111Y-7809914D02*
X2190111Y-7849914D01*
X2170111Y-7829914D02*
X2210111Y-7829914D01*
X2201133Y-6436046D02*
X2201133Y-6476046D01*
X2181133Y-6456046D02*
X2221133Y-6456046D01*
X2210000Y-1245000D02*
X2210000Y-1285000D01*
X2190000Y-1265000D02*
X2230000Y-1265000D01*
X2213864Y-9422704D02*
X2213864Y-9462704D01*
X2193864Y-9442704D02*
X2233864Y-9442704D01*
X2214531Y-8406200D02*
X2214531Y-8446200D01*
X2194531Y-8426200D02*
X2234531Y-8426200D01*
X2222425Y-2884500D02*
X2222425Y-2924500D01*
X2202425Y-2904500D02*
X2242425Y-2904500D01*
X2227580Y-1606870D02*
X2227580Y-1646870D01*
X2207580Y-1626870D02*
X2247580Y-1626870D01*
X2227580Y-1806870D02*
X2227580Y-1846870D01*
X2207580Y-1826870D02*
X2247580Y-1826870D01*
X2235000Y-3800000D02*
X2235000Y-3840000D01*
X2215000Y-3820000D02*
X2255000Y-3820000D01*
X2262119Y-3167766D02*
X2262119Y-3207766D01*
X2242119Y-3187766D02*
X2282119Y-3187766D01*
X2265000Y-5820000D02*
X2265000Y-5860000D01*
X2245000Y-5840000D02*
X2285000Y-5840000D01*
X2270000Y-4430000D02*
X2270000Y-4470000D01*
X2250000Y-4450000D02*
X2290000Y-4450000D01*
X2270764Y-995976D02*
X2270764Y-1035976D01*
X2250764Y-1015976D02*
X2290764Y-1015976D01*
X2297259Y-3673361D02*
X2297259Y-3713361D01*
X2277259Y-3693361D02*
X2317259Y-3693361D01*
X2315000Y-6030000D02*
X2315000Y-6070000D01*
X2295000Y-6050000D02*
X2335000Y-6050000D01*
X2315112Y-7814654D02*
X2315112Y-7854654D01*
X2295112Y-7834654D02*
X2335112Y-7834654D01*
X2328677Y-2911178D02*
X2328677Y-2951178D01*
X2308677Y-2931178D02*
X2348677Y-2931178D01*
X2335000Y-5170000D02*
X2335000Y-5210000D01*
X2315000Y-5190000D02*
X2355000Y-5190000D01*
X2352079Y-2757274D02*
X2352079Y-2797274D01*
X2332079Y-2777274D02*
X2372079Y-2777274D01*
X2365000Y-5411022D02*
X2365000Y-5451022D01*
X2345000Y-5431022D02*
X2385000Y-5431022D01*
X2365001Y-3835000D02*
X2365001Y-3875000D01*
X2345001Y-3855000D02*
X2385001Y-3855000D01*
X2366489Y-7740758D02*
X2366489Y-7780758D01*
X2346489Y-7760758D02*
X2386489Y-7760758D01*
X2370000Y-5870000D02*
X2370000Y-5910000D01*
X2350000Y-5890000D02*
X2390000Y-5890000D01*
X2415000Y-6560000D02*
X2415000Y-6600000D01*
X2395000Y-6580000D02*
X2435000Y-6580000D01*
X2415479Y-6447353D02*
X2415479Y-6487353D01*
X2395479Y-6467353D02*
X2435479Y-6467353D01*
X2417494Y-1705676D02*
X2417494Y-1745676D01*
X2397494Y-1725676D02*
X2437494Y-1725676D01*
X2427580Y-1606870D02*
X2427580Y-1646870D01*
X2407580Y-1626870D02*
X2447580Y-1626870D01*
X2427580Y-1806870D02*
X2427580Y-1846870D01*
X2407580Y-1826870D02*
X2447580Y-1826870D01*
X2428239Y-3505371D02*
X2428239Y-3545371D01*
X2408239Y-3525371D02*
X2448239Y-3525371D01*
X2445121Y-7673292D02*
X2445121Y-7713292D01*
X2425121Y-7693292D02*
X2465121Y-7693292D01*
X2446020Y-6664998D02*
X2446020Y-6704998D01*
X2426020Y-6684998D02*
X2466020Y-6684998D01*
X2449952Y-7793294D02*
X2449952Y-7833294D01*
X2429952Y-7813294D02*
X2469952Y-7813294D01*
X2454910Y-7583490D02*
X2454910Y-7623490D01*
X2434910Y-7603490D02*
X2474910Y-7603490D01*
X2492979Y-2748946D02*
X2492979Y-2788946D01*
X2472979Y-2768946D02*
X2512979Y-2768946D01*
X2497337Y-3682498D02*
X2497337Y-3722498D01*
X2477337Y-3702498D02*
X2517337Y-3702498D01*
X2510000Y-5370000D02*
X2510000Y-5410000D01*
X2490000Y-5390000D02*
X2530000Y-5390000D01*
X2551430Y-7794310D02*
X2551430Y-7834310D01*
X2531430Y-7814310D02*
X2571430Y-7814310D01*
X2575000Y-880000D02*
X2575000Y-920000D01*
X2555000Y-900000D02*
X2595000Y-900000D01*
X2585000Y-5185000D02*
X2585000Y-5225000D01*
X2565000Y-5205000D02*
X2605000Y-5205000D01*
X2587521Y-5967521D02*
X2587521Y-6007521D01*
X2567521Y-5987521D02*
X2607521Y-5987521D01*
X2588260Y-8161340D02*
X2588260Y-8201340D01*
X2568260Y-8181340D02*
X2608260Y-8181340D01*
X2600434Y-2184566D02*
X2600434Y-2224566D01*
X2580434Y-2204566D02*
X2620434Y-2204566D01*
X2624328Y-6349050D02*
X2624328Y-6389050D01*
X2604328Y-6369050D02*
X2644328Y-6369050D01*
X2626360Y-486730D02*
X2626360Y-526730D01*
X2606360Y-506730D02*
X2646360Y-506730D01*
X2626360Y-613730D02*
X2626360Y-653730D01*
X2606360Y-633730D02*
X2646360Y-633730D01*
X2627580Y-1606870D02*
X2627580Y-1646870D01*
X2607580Y-1626870D02*
X2647580Y-1626870D01*
X2627580Y-1806870D02*
X2627580Y-1846870D01*
X2607580Y-1826870D02*
X2647580Y-1826870D01*
X2630660Y-2278194D02*
X2630660Y-2318194D01*
X2610660Y-2298194D02*
X2650660Y-2298194D01*
X2639469Y-7839856D02*
X2639469Y-7879856D01*
X2619469Y-7859856D02*
X2659469Y-7859856D01*
X2640000Y-3680000D02*
X2640000Y-3720000D01*
X2620000Y-3700000D02*
X2660000Y-3700000D01*
X2676906Y-2746314D02*
X2676906Y-2786314D01*
X2656906Y-2766314D02*
X2696906Y-2766314D01*
X2729998Y-7811051D02*
X2729998Y-7851051D01*
X2709998Y-7831051D02*
X2749998Y-7831051D01*
X2734867Y-2511312D02*
X2734867Y-2551312D01*
X2714867Y-2531312D02*
X2754867Y-2531312D01*
X2737612Y-8218744D02*
X2737612Y-8258744D01*
X2717612Y-8238744D02*
X2757612Y-8238744D01*
X2740406Y-8453186D02*
X2740406Y-8493186D01*
X2720406Y-8473186D02*
X2760406Y-8473186D01*
X2749567Y-2183134D02*
X2749567Y-2223134D01*
X2729567Y-2203134D02*
X2769567Y-2203134D01*
X2752090Y-1491300D02*
X2752090Y-1531300D01*
X2732090Y-1511300D02*
X2772090Y-1511300D01*
X2753360Y-486730D02*
X2753360Y-526730D01*
X2733360Y-506730D02*
X2773360Y-506730D01*
X2753360Y-613730D02*
X2753360Y-653730D01*
X2733360Y-633730D02*
X2773360Y-633730D01*
X2757580Y-1747840D02*
X2757580Y-1787840D01*
X2737580Y-1767840D02*
X2777580Y-1767840D01*
X2766143Y-6669998D02*
X2766143Y-6709998D01*
X2746143Y-6689998D02*
X2786143Y-6689998D01*
X2770000Y-7095000D02*
X2770000Y-7135000D01*
X2750000Y-7115000D02*
X2790000Y-7115000D01*
X2772824Y-6932499D02*
X2772824Y-6972499D01*
X2752824Y-6952499D02*
X2792824Y-6952499D01*
X2792884Y-7351501D02*
X2792884Y-7391501D01*
X2772884Y-7371501D02*
X2812884Y-7371501D01*
X2792961Y-7447039D02*
X2792961Y-7487039D01*
X2772961Y-7467039D02*
X2812961Y-7467039D01*
X2793175Y-6079048D02*
X2793175Y-6119048D01*
X2773175Y-6099048D02*
X2813175Y-6099048D01*
X2793175Y-6589090D02*
X2793175Y-6629090D01*
X2773175Y-6609090D02*
X2813175Y-6609090D01*
X2809627Y-4010438D02*
X2809627Y-4050438D01*
X2789627Y-4030438D02*
X2829627Y-4030438D01*
X2824780Y-6428409D02*
X2824780Y-6468409D01*
X2804780Y-6448409D02*
X2844780Y-6448409D01*
X2826004Y-6215192D02*
X2826004Y-6255192D01*
X2806004Y-6235192D02*
X2846004Y-6235192D01*
X2835000Y-3340000D02*
X2835000Y-3380000D01*
X2815000Y-3360000D02*
X2855000Y-3360000D01*
X2840000Y-2900000D02*
X2840000Y-2940000D01*
X2820000Y-2920000D02*
X2860000Y-2920000D01*
X2845217Y-6340759D02*
X2845217Y-6380759D01*
X2825217Y-6360759D02*
X2865217Y-6360759D01*
X2849538Y-5690918D02*
X2849538Y-5730918D01*
X2829538Y-5710918D02*
X2869538Y-5710918D01*
X2852420Y-1244920D02*
X2852420Y-1284920D01*
X2832420Y-1264920D02*
X2872420Y-1264920D01*
X2860002Y-5525000D02*
X2860002Y-5565000D01*
X2840002Y-5545000D02*
X2880002Y-5545000D01*
X2864232Y-7296640D02*
X2864232Y-7336640D01*
X2844232Y-7316640D02*
X2884232Y-7316640D01*
X2865000Y-3930055D02*
X2865000Y-3970055D01*
X2845000Y-3950055D02*
X2885000Y-3950055D01*
X2877820Y-1789750D02*
X2877820Y-1829750D01*
X2857820Y-1809750D02*
X2897820Y-1809750D01*
X2877820Y-1989750D02*
X2877820Y-2029750D01*
X2857820Y-2009750D02*
X2897820Y-2009750D01*
X2877820Y-2189750D02*
X2877820Y-2229750D01*
X2857820Y-2209750D02*
X2897820Y-2209750D01*
X2880360Y-486730D02*
X2880360Y-526730D01*
X2860360Y-506730D02*
X2900360Y-506730D01*
X2880360Y-613730D02*
X2880360Y-653730D01*
X2860360Y-633730D02*
X2900360Y-633730D01*
X2915255Y-2949365D02*
X2915255Y-2989365D01*
X2895255Y-2969365D02*
X2935255Y-2969365D01*
X2920000Y-4010000D02*
X2920000Y-4050000D01*
X2900000Y-4030000D02*
X2940000Y-4030000D01*
X2927407Y-7232538D02*
X2927407Y-7272538D01*
X2907407Y-7252538D02*
X2947407Y-7252538D01*
X2930000Y-4770000D02*
X2930000Y-4810000D01*
X2910000Y-4790000D02*
X2950000Y-4790000D01*
X2935000Y-2635000D02*
X2935000Y-2675000D01*
X2915000Y-2655000D02*
X2955000Y-2655000D01*
X2935000Y-5095000D02*
X2935000Y-5135000D01*
X2915000Y-5115000D02*
X2955000Y-5115000D01*
X2955000Y-8785000D02*
X2955000Y-8825000D01*
X2935000Y-8805000D02*
X2975000Y-8805000D01*
X2955430Y-4144933D02*
X2955430Y-4184933D01*
X2935430Y-4164933D02*
X2975430Y-4164933D01*
X2957497Y-6073460D02*
X2957497Y-6113460D01*
X2937497Y-6093460D02*
X2977497Y-6093460D01*
X2957497Y-6559616D02*
X2957497Y-6599616D01*
X2937497Y-6579616D02*
X2977497Y-6579616D01*
X2962501Y-5343522D02*
X2962501Y-5383522D01*
X2942501Y-5363522D02*
X2982501Y-5363522D01*
X2965000Y-6810000D02*
X2965000Y-6850000D01*
X2945000Y-6830000D02*
X2985000Y-6830000D01*
X2971800Y-1014288D02*
X2971800Y-1054288D01*
X2951800Y-1034288D02*
X2991800Y-1034288D01*
X2997499Y-5475000D02*
X2997499Y-5515000D01*
X2977499Y-5495000D02*
X3017499Y-5495000D01*
X2998347Y-7928299D02*
X2998347Y-7968299D01*
X2978347Y-7948299D02*
X3018347Y-7948299D01*
X3000000Y-7049931D02*
X3000000Y-7089931D01*
X2980000Y-7069931D02*
X3020000Y-7069931D01*
X3004065Y-3662940D02*
X3004065Y-3702940D01*
X2984065Y-3682940D02*
X3024065Y-3682940D01*
X3014968Y-3977514D02*
X3014968Y-4017514D01*
X2994968Y-3997514D02*
X3034968Y-3997514D01*
X3033484Y-7789572D02*
X3033484Y-7829572D01*
X3013484Y-7809572D02*
X3053484Y-7809572D01*
X3055000Y-4400000D02*
X3055000Y-4440000D01*
X3035000Y-4420000D02*
X3075000Y-4420000D01*
X3077820Y-1789750D02*
X3077820Y-1829750D01*
X3057820Y-1809750D02*
X3097820Y-1809750D01*
X3077820Y-1989750D02*
X3077820Y-2029750D01*
X3057820Y-2009750D02*
X3097820Y-2009750D01*
X3077820Y-2189750D02*
X3077820Y-2229750D01*
X3057820Y-2209750D02*
X3097820Y-2209750D01*
X3085000Y-7250000D02*
X3085000Y-7290000D01*
X3065000Y-7270000D02*
X3105000Y-7270000D01*
X3125000Y-3870000D02*
X3125000Y-3910000D01*
X3105000Y-3890000D02*
X3145000Y-3890000D01*
X3130000Y-9720000D02*
X3130000Y-9760000D01*
X3110000Y-9740000D02*
X3150000Y-9740000D01*
X3140000Y-7800000D02*
X3140000Y-7840000D01*
X3120000Y-7820000D02*
X3160000Y-7820000D01*
X3140000Y-8435000D02*
X3140000Y-8475000D01*
X3120000Y-8455000D02*
X3160000Y-8455000D01*
X3170001Y-6970499D02*
X3170001Y-7010499D01*
X3150001Y-6990499D02*
X3190001Y-6990499D01*
X3170995Y-7500475D02*
X3170995Y-7540475D01*
X3150995Y-7520475D02*
X3190995Y-7520475D01*
X3187503Y-4681286D02*
X3187503Y-4721286D01*
X3167503Y-4701286D02*
X3207503Y-4701286D01*
X3200000Y-9495000D02*
X3200000Y-9535000D01*
X3180000Y-9515000D02*
X3220000Y-9515000D01*
X3240000Y-6305000D02*
X3240000Y-6345000D01*
X3220000Y-6325000D02*
X3260000Y-6325000D01*
X3245000Y-4225000D02*
X3245000Y-4265000D01*
X3225000Y-4245000D02*
X3265000Y-4245000D01*
X3260000Y-2915000D02*
X3260000Y-2955000D01*
X3240000Y-2935000D02*
X3280000Y-2935000D01*
X3269999Y-2335000D02*
X3269999Y-2375000D01*
X3249999Y-2355000D02*
X3289999Y-2355000D01*
X3275000Y-3920000D02*
X3275000Y-3960000D01*
X3255000Y-3940000D02*
X3295000Y-3940000D01*
X3277820Y-1789750D02*
X3277820Y-1829750D01*
X3257820Y-1809750D02*
X3297820Y-1809750D01*
X3277820Y-1989750D02*
X3277820Y-2029750D01*
X3257820Y-2009750D02*
X3297820Y-2009750D01*
X3277820Y-2189750D02*
X3277820Y-2229750D01*
X3257820Y-2209750D02*
X3297820Y-2209750D01*
X3279197Y-3514853D02*
X3279197Y-3554853D01*
X3259197Y-3534853D02*
X3299197Y-3534853D01*
X3301773Y-8300731D02*
X3301773Y-8340731D01*
X3281773Y-8320731D02*
X3321773Y-8320731D01*
X3311592Y-5661390D02*
X3311592Y-5701390D01*
X3291592Y-5681390D02*
X3331592Y-5681390D01*
X3332831Y-6284811D02*
X3332831Y-6324811D01*
X3312831Y-6304811D02*
X3352831Y-6304811D01*
X3335000Y-3330851D02*
X3335000Y-3370851D01*
X3315000Y-3350851D02*
X3355000Y-3350851D01*
X3335000Y-8445000D02*
X3335000Y-8485000D01*
X3315000Y-8465000D02*
X3355000Y-8465000D01*
X3350000Y-9265000D02*
X3350000Y-9305000D01*
X3330000Y-9285000D02*
X3370000Y-9285000D01*
X3365000Y-3749999D02*
X3365000Y-3789999D01*
X3345000Y-3769999D02*
X3385000Y-3769999D01*
X3365000Y-6820000D02*
X3365000Y-6860000D01*
X3345000Y-6840000D02*
X3385000Y-6840000D01*
X3365500Y-1314770D02*
X3365500Y-1354770D01*
X3345500Y-1334770D02*
X3385500Y-1334770D01*
X3380000Y-7040000D02*
X3380000Y-7080000D01*
X3360000Y-7060000D02*
X3400000Y-7060000D01*
X3380000Y-7225000D02*
X3380000Y-7265000D01*
X3360000Y-7245000D02*
X3400000Y-7245000D01*
X3413760Y-3577910D02*
X3413760Y-3617910D01*
X3393760Y-3597910D02*
X3433760Y-3597910D01*
X3417446Y-4092808D02*
X3417446Y-4132808D01*
X3397446Y-4112808D02*
X3437446Y-4112808D01*
X3478530Y-1590360D02*
X3478530Y-1630360D01*
X3458530Y-1610360D02*
X3498530Y-1610360D01*
X3495000Y-1950000D02*
X3495000Y-1990000D01*
X3475000Y-1970000D02*
X3515000Y-1970000D01*
X3520000Y-4000000D02*
X3520000Y-4040000D01*
X3500000Y-4020000D02*
X3540000Y-4020000D01*
X3542029Y-6264693D02*
X3542029Y-6304693D01*
X3522029Y-6284693D02*
X3562029Y-6284693D01*
X3549178Y-6174719D02*
X3549178Y-6214719D01*
X3529178Y-6194719D02*
X3569178Y-6194719D01*
X3552501Y-4835000D02*
X3552501Y-4875000D01*
X3532501Y-4855000D02*
X3572501Y-4855000D01*
X3580000Y-7580000D02*
X3580000Y-7620000D01*
X3560000Y-7600000D02*
X3600000Y-7600000D01*
X3581666Y-6650000D02*
X3581666Y-6690000D01*
X3561666Y-6670000D02*
X3601666Y-6670000D01*
X3630000Y-6250000D02*
X3630000Y-6290000D01*
X3610000Y-6270000D02*
X3650000Y-6270000D01*
X3655000Y-9465000D02*
X3655000Y-9505000D01*
X3635000Y-9485000D02*
X3675000Y-9485000D01*
X3660000Y-6905000D02*
X3660000Y-6945000D01*
X3640000Y-6925000D02*
X3680000Y-6925000D01*
X3679190Y-7146610D02*
X3679190Y-7186610D01*
X3659190Y-7166610D02*
X3699190Y-7166610D01*
X3679190Y-7306610D02*
X3679190Y-7346610D01*
X3659190Y-7326610D02*
X3699190Y-7326610D01*
X3679190Y-7466610D02*
X3679190Y-7506610D01*
X3659190Y-7486610D02*
X3699190Y-7486610D01*
X3679190Y-7626610D02*
X3679190Y-7666610D01*
X3659190Y-7646610D02*
X3699190Y-7646610D01*
X3679190Y-7786610D02*
X3679190Y-7826610D01*
X3659190Y-7806610D02*
X3699190Y-7806610D01*
X3679190Y-7946610D02*
X3679190Y-7986610D01*
X3659190Y-7966610D02*
X3699190Y-7966610D01*
X3679190Y-8106610D02*
X3679190Y-8146610D01*
X3659190Y-8126610D02*
X3699190Y-8126610D01*
X3679190Y-8266610D02*
X3679190Y-8306610D01*
X3659190Y-8286610D02*
X3699190Y-8286610D01*
X3685000Y-3330852D02*
X3685000Y-3370852D01*
X3665000Y-3350852D02*
X3705000Y-3350852D01*
X3720000Y-3508849D02*
X3720000Y-3548849D01*
X3700000Y-3528849D02*
X3740000Y-3528849D01*
X3760000Y-5322502D02*
X3760000Y-5362502D01*
X3740000Y-5342502D02*
X3780000Y-5342502D01*
X3775964Y-1620332D02*
X3775964Y-1660332D01*
X3755964Y-1640332D02*
X3795964Y-1640332D01*
X3780000Y-2315000D02*
X3780000Y-2355000D01*
X3760000Y-2335000D02*
X3800000Y-2335000D01*
X3800000Y-6804998D02*
X3800000Y-6844998D01*
X3780000Y-6824998D02*
X3820000Y-6824998D01*
X3805000Y-4417501D02*
X3805000Y-4457501D01*
X3785000Y-4437501D02*
X3825000Y-4437501D01*
X3820000Y-3174876D02*
X3820000Y-3214876D01*
X3800000Y-3194876D02*
X3840000Y-3194876D01*
X3839190Y-7146610D02*
X3839190Y-7186610D01*
X3819190Y-7166610D02*
X3859190Y-7166610D01*
X3839190Y-7306610D02*
X3839190Y-7346610D01*
X3819190Y-7326610D02*
X3859190Y-7326610D01*
X3839190Y-7466610D02*
X3839190Y-7506610D01*
X3819190Y-7486610D02*
X3859190Y-7486610D01*
X3839190Y-7626610D02*
X3839190Y-7666610D01*
X3819190Y-7646610D02*
X3859190Y-7646610D01*
X3839190Y-7786610D02*
X3839190Y-7826610D01*
X3819190Y-7806610D02*
X3859190Y-7806610D01*
X3839190Y-7946610D02*
X3839190Y-7986610D01*
X3819190Y-7966610D02*
X3859190Y-7966610D01*
X3839190Y-8106610D02*
X3839190Y-8146610D01*
X3819190Y-8126610D02*
X3859190Y-8126610D01*
X3839190Y-8266610D02*
X3839190Y-8306610D01*
X3819190Y-8286610D02*
X3859190Y-8286610D01*
X3950000Y-3740000D02*
X3950000Y-3780000D01*
X3930000Y-3760000D02*
X3970000Y-3760000D01*
X3960000Y-6390000D02*
X3960000Y-6430000D01*
X3940000Y-6410000D02*
X3980000Y-6410000D01*
X3961846Y-6507887D02*
X3961846Y-6547887D01*
X3941846Y-6527887D02*
X3981846Y-6527887D01*
X3975000Y-6645000D02*
X3975000Y-6685000D01*
X3955000Y-6665000D02*
X3995000Y-6665000D01*
X3999190Y-7146610D02*
X3999190Y-7186610D01*
X3979190Y-7166610D02*
X4019190Y-7166610D01*
X3999190Y-7306610D02*
X3999190Y-7346610D01*
X3979190Y-7326610D02*
X4019190Y-7326610D01*
X3999190Y-7466610D02*
X3999190Y-7506610D01*
X3979190Y-7486610D02*
X4019190Y-7486610D01*
X3999190Y-7626610D02*
X3999190Y-7666610D01*
X3979190Y-7646610D02*
X4019190Y-7646610D01*
X3999190Y-7786610D02*
X3999190Y-7826610D01*
X3979190Y-7806610D02*
X4019190Y-7806610D01*
X3999190Y-7946610D02*
X3999190Y-7986610D01*
X3979190Y-7966610D02*
X4019190Y-7966610D01*
X3999190Y-8106610D02*
X3999190Y-8146610D01*
X3979190Y-8126610D02*
X4019190Y-8126610D01*
X3999190Y-8266610D02*
X3999190Y-8306610D01*
X3979190Y-8286610D02*
X4019190Y-8286610D01*
X4000000Y-4600000D02*
X4000000Y-4640000D01*
X3980000Y-4620000D02*
X4020000Y-4620000D01*
X4065000Y-4935000D02*
X4065000Y-4975000D01*
X4045000Y-4955000D02*
X4085000Y-4955000D01*
X4075000Y-3350000D02*
X4075000Y-3390000D01*
X4055000Y-3370000D02*
X4095000Y-3370000D01*
X4140000Y-3540000D02*
X4140000Y-3580000D01*
X4120000Y-3560000D02*
X4160000Y-3560000D01*
X4141396Y-6187852D02*
X4141396Y-6227852D01*
X4121396Y-6207852D02*
X4161396Y-6207852D01*
X4148646Y-4040474D02*
X4148646Y-4080474D01*
X4128646Y-4060474D02*
X4168646Y-4060474D01*
X4150000Y-4740000D02*
X4150000Y-4780000D01*
X4130000Y-4760000D02*
X4170000Y-4760000D01*
X4159190Y-7146610D02*
X4159190Y-7186610D01*
X4139190Y-7166610D02*
X4179190Y-7166610D01*
X4159190Y-7306610D02*
X4159190Y-7346610D01*
X4139190Y-7326610D02*
X4179190Y-7326610D01*
X4159190Y-7466610D02*
X4159190Y-7506610D01*
X4139190Y-7486610D02*
X4179190Y-7486610D01*
X4159190Y-7626610D02*
X4159190Y-7666610D01*
X4139190Y-7646610D02*
X4179190Y-7646610D01*
X4159190Y-7786610D02*
X4159190Y-7826610D01*
X4139190Y-7806610D02*
X4179190Y-7806610D01*
X4159190Y-7946610D02*
X4159190Y-7986610D01*
X4139190Y-7966610D02*
X4179190Y-7966610D01*
X4159190Y-8106610D02*
X4159190Y-8146610D01*
X4139190Y-8126610D02*
X4179190Y-8126610D01*
X4159190Y-8266610D02*
X4159190Y-8306610D01*
X4139190Y-8286610D02*
X4179190Y-8286610D01*
X4160000Y-4240000D02*
X4160000Y-4280000D01*
X4140000Y-4260000D02*
X4180000Y-4260000D01*
X4165713Y-4133929D02*
X4165713Y-4173929D01*
X4145713Y-4153929D02*
X4185713Y-4153929D01*
X4178333Y-6820000D02*
X4178333Y-6860000D01*
X4158333Y-6840000D02*
X4198333Y-6840000D01*
X4210000Y-3322502D02*
X4210000Y-3362502D01*
X4190000Y-3342502D02*
X4230000Y-3342502D01*
X4225000Y-4850000D02*
X4225000Y-4890000D01*
X4205000Y-4870000D02*
X4245000Y-4870000D01*
X4261008Y-5002074D02*
X4261008Y-5042074D01*
X4241008Y-5022074D02*
X4281008Y-5022074D01*
X4280000Y-3080000D02*
X4280000Y-3120000D01*
X4260000Y-3100000D02*
X4300000Y-3100000D01*
X4280000Y-5500000D02*
X4280000Y-5540000D01*
X4260000Y-5520000D02*
X4300000Y-5520000D01*
X4287266Y-5878306D02*
X4287266Y-5918306D01*
X4267266Y-5898306D02*
X4307266Y-5898306D01*
X4304030Y-912180D02*
X4304030Y-952180D01*
X4284030Y-932180D02*
X4324030Y-932180D01*
X4307967Y-5346411D02*
X4307967Y-5386411D01*
X4287967Y-5366411D02*
X4327967Y-5366411D01*
X4314190Y-409260D02*
X4314190Y-449260D01*
X4294190Y-429260D02*
X4334190Y-429260D01*
X4330000Y-3495000D02*
X4330000Y-3535000D01*
X4310000Y-3515000D02*
X4350000Y-3515000D01*
X4335000Y-3825000D02*
X4335000Y-3865000D01*
X4315000Y-3845000D02*
X4355000Y-3845000D01*
X4350000Y-6390000D02*
X4350000Y-6430000D01*
X4330000Y-6410000D02*
X4370000Y-6410000D01*
X4352500Y-5626607D02*
X4352500Y-5666607D01*
X4332500Y-5646607D02*
X4372500Y-5646607D01*
X4373880Y-576900D02*
X4373880Y-616900D01*
X4353880Y-596900D02*
X4393880Y-596900D01*
X4375000Y-9460000D02*
X4375000Y-9500000D01*
X4355000Y-9480000D02*
X4395000Y-9480000D01*
X4380000Y-6669998D02*
X4380000Y-6709998D01*
X4360000Y-6689998D02*
X4400000Y-6689998D01*
X4395679Y-4266103D02*
X4395679Y-4306103D01*
X4375679Y-4286103D02*
X4415679Y-4286103D01*
X4450000Y-2545000D02*
X4450000Y-2585000D01*
X4430000Y-2565000D02*
X4470000Y-2565000D01*
X4490000Y-8120000D02*
X4490000Y-8160000D01*
X4470000Y-8140000D02*
X4510000Y-8140000D01*
X4490000Y-8630000D02*
X4490000Y-8670000D01*
X4470000Y-8650000D02*
X4510000Y-8650000D01*
X4499610Y-905830D02*
X4499610Y-945830D01*
X4479610Y-925830D02*
X4519610Y-925830D01*
X4500000Y-2940000D02*
X4500000Y-2980000D01*
X4480000Y-2960000D02*
X4520000Y-2960000D01*
X4500000Y-3140000D02*
X4500000Y-3180000D01*
X4480000Y-3160000D02*
X4520000Y-3160000D01*
X4502150Y-409260D02*
X4502150Y-449260D01*
X4482150Y-429260D02*
X4522150Y-429260D01*
X4504770Y-7269769D02*
X4504770Y-7309769D01*
X4484770Y-7289769D02*
X4524770Y-7289769D01*
X4520000Y-5015000D02*
X4520000Y-5055000D01*
X4500000Y-5035000D02*
X4540000Y-5035000D01*
X4545000Y-3510000D02*
X4545000Y-3550000D01*
X4525000Y-3530000D02*
X4565000Y-3530000D01*
X4557498Y-5397330D02*
X4557498Y-5437330D01*
X4537498Y-5417330D02*
X4577498Y-5417330D01*
X4557499Y-6291953D02*
X4557499Y-6331953D01*
X4537499Y-6311953D02*
X4577499Y-6311953D01*
X4563110Y-1112840D02*
X4563110Y-1152840D01*
X4543110Y-1132840D02*
X4583110Y-1132840D01*
X4567408Y-3282501D02*
X4567408Y-3322501D01*
X4547408Y-3302501D02*
X4587408Y-3302501D01*
X4567498Y-5610629D02*
X4567498Y-5650629D01*
X4547498Y-5630629D02*
X4587498Y-5630629D01*
X4585375Y-3947594D02*
X4585375Y-3987594D01*
X4565375Y-3967594D02*
X4605375Y-3967594D01*
X4600000Y-8090000D02*
X4600000Y-8130000D01*
X4580000Y-8110000D02*
X4620000Y-8110000D01*
X4602499Y-4879831D02*
X4602499Y-4919831D01*
X4582499Y-4899831D02*
X4622499Y-4899831D01*
X4610000Y-7075000D02*
X4610000Y-7115000D01*
X4590000Y-7095000D02*
X4630000Y-7095000D01*
X4620000Y-6940000D02*
X4620000Y-6980000D01*
X4600000Y-6960000D02*
X4640000Y-6960000D01*
X4625000Y-8625000D02*
X4625000Y-8665000D01*
X4605000Y-8645000D02*
X4645000Y-8645000D01*
X4625002Y-6599301D02*
X4625002Y-6639301D01*
X4605002Y-6619301D02*
X4645002Y-6619301D01*
X4632960Y-8435152D02*
X4632960Y-8475152D01*
X4612960Y-8455152D02*
X4652960Y-8455152D01*
X4635000Y-7905000D02*
X4635000Y-7945000D01*
X4615000Y-7925000D02*
X4655000Y-7925000D01*
X4640000Y-3140000D02*
X4640000Y-3180000D01*
X4620000Y-3160000D02*
X4660000Y-3160000D01*
X4640000Y-7795000D02*
X4640000Y-7835000D01*
X4620000Y-7815000D02*
X4660000Y-7815000D01*
X4645000Y-2320000D02*
X4645000Y-2360000D01*
X4625000Y-2340000D02*
X4665000Y-2340000D01*
X4660000Y-2940000D02*
X4660000Y-2980000D01*
X4640000Y-2960000D02*
X4680000Y-2960000D01*
X4662510Y-6686584D02*
X4662510Y-6726584D01*
X4642510Y-6706584D02*
X4682510Y-6706584D01*
X4672076Y-1542100D02*
X4672076Y-1582100D01*
X4652076Y-1562100D02*
X4692076Y-1562100D01*
X4680000Y-3490000D02*
X4680000Y-3530000D01*
X4660000Y-3510000D02*
X4700000Y-3510000D01*
X4693920Y-912180D02*
X4693920Y-952180D01*
X4673920Y-932180D02*
X4713920Y-932180D01*
X4696460Y-410530D02*
X4696460Y-450530D01*
X4676460Y-430530D02*
X4716460Y-430530D01*
X4710000Y-4500000D02*
X4710000Y-4540000D01*
X4690000Y-4520000D02*
X4730000Y-4520000D01*
X4740000Y-2620000D02*
X4740000Y-2660000D01*
X4720000Y-2640000D02*
X4760000Y-2640000D01*
X4777959Y-3369601D02*
X4777959Y-3409601D01*
X4757959Y-3389601D02*
X4797959Y-3389601D01*
X4780000Y-6140000D02*
X4780000Y-6180000D01*
X4760000Y-6160000D02*
X4800000Y-6160000D01*
X4780280Y-1159830D02*
X4780280Y-1199830D01*
X4760280Y-1179830D02*
X4800280Y-1179830D01*
X4796790Y-755970D02*
X4796790Y-795970D01*
X4776790Y-775970D02*
X4816790Y-775970D01*
X4835000Y-5400000D02*
X4835000Y-5440000D01*
X4815000Y-5420000D02*
X4855000Y-5420000D01*
X4857750Y-7484430D02*
X4857750Y-7524430D01*
X4837750Y-7504430D02*
X4877750Y-7504430D01*
X4860000Y-8835000D02*
X4860000Y-8875000D01*
X4840000Y-8855000D02*
X4880000Y-8855000D01*
X4860290Y-7379020D02*
X4860290Y-7419020D01*
X4840290Y-7399020D02*
X4880290Y-7399020D01*
X4862502Y-7950000D02*
X4862502Y-7990000D01*
X4842502Y-7970000D02*
X4882502Y-7970000D01*
X4870000Y-3205000D02*
X4870000Y-3245000D01*
X4850000Y-3225000D02*
X4890000Y-3225000D01*
X4870450Y-1236969D02*
X4870450Y-1276969D01*
X4850450Y-1256969D02*
X4890450Y-1256969D01*
X4885000Y-6900000D02*
X4885000Y-6940000D01*
X4865000Y-6920000D02*
X4905000Y-6920000D01*
X4905000Y-3525000D02*
X4905000Y-3565000D01*
X4885000Y-3545000D02*
X4925000Y-3545000D01*
X4913820Y-6441552D02*
X4913820Y-6481552D01*
X4893820Y-6461552D02*
X4933820Y-6461552D01*
X4918198Y-7771450D02*
X4918198Y-7811450D01*
X4898198Y-7791450D02*
X4938198Y-7791450D01*
X4930000Y-3850000D02*
X4930000Y-3890000D01*
X4910000Y-3870000D02*
X4950000Y-3870000D01*
X4950000Y-8390000D02*
X4950000Y-8430000D01*
X4930000Y-8410000D02*
X4970000Y-8410000D01*
X4952492Y-8628192D02*
X4952492Y-8668192D01*
X4932492Y-8648192D02*
X4972492Y-8648192D01*
X4954852Y-1702808D02*
X4954852Y-1742808D01*
X4934852Y-1722808D02*
X4974852Y-1722808D01*
X4959096Y-1531432D02*
X4959096Y-1571432D01*
X4939096Y-1551432D02*
X4979096Y-1551432D01*
X4971091Y-236811D02*
X4971091Y-276811D01*
X4951091Y-256811D02*
X4991091Y-256811D01*
X4987504Y-5568093D02*
X4987504Y-5608093D01*
X4967504Y-5588093D02*
X5007504Y-5588093D01*
X4995291Y-7362124D02*
X4995291Y-7402124D01*
X4975291Y-7382124D02*
X5015291Y-7382124D01*
X5000000Y-3210000D02*
X5000000Y-3250000D01*
X4980000Y-3230000D02*
X5020000Y-3230000D01*
X5007330Y-7963779D02*
X5007330Y-8003779D01*
X4987330Y-7983779D02*
X5027330Y-7983779D01*
X5010000Y-9650000D02*
X5010000Y-9690000D01*
X4990000Y-9670000D02*
X5030000Y-9670000D01*
X5015000Y-509400D02*
X5015000Y-549400D01*
X4995000Y-529400D02*
X5035000Y-529400D01*
X5038140Y-7873912D02*
X5038140Y-7913912D01*
X5018140Y-7893912D02*
X5058140Y-7893912D01*
X5045000Y-3345000D02*
X5045000Y-3385000D01*
X5025000Y-3365000D02*
X5065000Y-3365000D01*
X5050000Y-4730000D02*
X5050000Y-4770000D01*
X5030000Y-4750000D02*
X5070000Y-4750000D01*
X5054934Y-5883883D02*
X5054934Y-5923883D01*
X5034934Y-5903883D02*
X5074934Y-5903883D01*
X5080000Y-7490000D02*
X5080000Y-7530000D01*
X5060000Y-7510000D02*
X5100000Y-7510000D01*
X5080005Y-8481056D02*
X5080005Y-8521056D01*
X5060005Y-8501056D02*
X5100005Y-8501056D01*
X5086350Y-8259130D02*
X5086350Y-8299130D01*
X5066350Y-8279130D02*
X5106350Y-8279130D01*
X5099304Y-9384604D02*
X5099304Y-9424604D01*
X5079304Y-9404604D02*
X5119304Y-9404604D01*
X5110000Y-9195000D02*
X5110000Y-9235000D01*
X5090000Y-9215000D02*
X5130000Y-9215000D01*
X5120000Y-2940000D02*
X5120000Y-2980000D01*
X5100000Y-2960000D02*
X5140000Y-2960000D01*
X5120000Y-3140000D02*
X5120000Y-3180000D01*
X5100000Y-3160000D02*
X5140000Y-3160000D01*
X5120489Y-7739411D02*
X5120489Y-7779411D01*
X5100489Y-7759411D02*
X5140489Y-7759411D01*
X5140772Y-7026147D02*
X5140772Y-7066147D01*
X5120772Y-7046147D02*
X5160772Y-7046147D01*
X5154852Y-1702808D02*
X5154852Y-1742808D01*
X5134852Y-1722808D02*
X5174852Y-1722808D01*
X5155032Y-2041464D02*
X5155032Y-2081464D01*
X5135032Y-2061464D02*
X5175032Y-2061464D01*
X5158326Y-6119270D02*
X5158326Y-6159270D01*
X5138326Y-6139270D02*
X5178326Y-6139270D01*
X5159096Y-1531432D02*
X5159096Y-1571432D01*
X5139096Y-1551432D02*
X5179096Y-1551432D01*
X5188683Y-7914189D02*
X5188683Y-7954189D01*
X5168683Y-7934189D02*
X5208683Y-7934189D01*
X5220158Y-8220498D02*
X5220158Y-8260498D01*
X5200158Y-8240498D02*
X5240158Y-8240498D01*
X5235000Y-4600000D02*
X5235000Y-4640000D01*
X5215000Y-4620000D02*
X5255000Y-4620000D01*
X5240000Y-8740000D02*
X5240000Y-8780000D01*
X5220000Y-8760000D02*
X5260000Y-8760000D01*
X5265000Y-8535000D02*
X5265000Y-8575000D01*
X5245000Y-8555000D02*
X5285000Y-8555000D01*
X5272500Y-640000D02*
X5272500Y-680000D01*
X5252500Y-660000D02*
X5292500Y-660000D01*
X5273040Y-1045530D02*
X5273040Y-1085530D01*
X5253040Y-1065530D02*
X5293040Y-1065530D01*
X5280000Y-2940000D02*
X5280000Y-2980000D01*
X5260000Y-2960000D02*
X5300000Y-2960000D01*
X5280000Y-3140000D02*
X5280000Y-3180000D01*
X5260000Y-3160000D02*
X5300000Y-3160000D01*
X5330000Y-8230000D02*
X5330000Y-8270000D01*
X5310000Y-8250000D02*
X5350000Y-8250000D01*
X5347603Y-4859322D02*
X5347603Y-4899322D01*
X5327603Y-4879322D02*
X5367603Y-4879322D01*
X5354852Y-1702808D02*
X5354852Y-1742808D01*
X5334852Y-1722808D02*
X5374852Y-1722808D01*
X5355032Y-1872808D02*
X5355032Y-1912808D01*
X5335032Y-1892808D02*
X5375032Y-1892808D01*
X5355032Y-2041464D02*
X5355032Y-2081464D01*
X5335032Y-2061464D02*
X5375032Y-2061464D01*
X5359096Y-1531432D02*
X5359096Y-1571432D01*
X5339096Y-1551432D02*
X5379096Y-1551432D01*
X5359908Y-5440492D02*
X5359908Y-5480492D01*
X5339908Y-5460492D02*
X5379908Y-5460492D01*
X5385000Y-275000D02*
X5385000Y-315000D01*
X5365000Y-295000D02*
X5405000Y-295000D01*
X5385000Y-8735000D02*
X5385000Y-8775000D01*
X5365000Y-8755000D02*
X5405000Y-8755000D01*
X5440172Y-6143056D02*
X5440172Y-6183056D01*
X5420172Y-6163056D02*
X5460172Y-6163056D01*
X5442031Y-6997461D02*
X5442031Y-7037461D01*
X5422031Y-7017461D02*
X5462031Y-7017461D01*
X5474716Y-3021660D02*
X5474716Y-3061660D01*
X5454716Y-3041660D02*
X5494716Y-3041660D01*
X5478780Y-2860492D02*
X5478780Y-2900492D01*
X5458780Y-2880492D02*
X5498780Y-2880492D01*
X5518150Y-5862640D02*
X5518150Y-5902640D01*
X5498150Y-5882640D02*
X5538150Y-5882640D01*
X5636768Y-2858460D02*
X5636768Y-2898460D01*
X5616768Y-2878460D02*
X5656768Y-2878460D01*
X5637530Y-5252499D02*
X5637530Y-5292499D01*
X5617530Y-5272499D02*
X5657530Y-5272499D01*
X5642356Y-3023692D02*
X5642356Y-3063692D01*
X5622356Y-3043692D02*
X5662356Y-3043692D01*
X5687287Y-6676215D02*
X5687287Y-6716215D01*
X5667287Y-6696215D02*
X5707287Y-6696215D01*
X5720000Y-8440000D02*
X5720000Y-8480000D01*
X5700000Y-8460000D02*
X5740000Y-8460000D01*
X5720000Y-8840000D02*
X5720000Y-8880000D01*
X5700000Y-8860000D02*
X5740000Y-8860000D01*
X5744972Y-1546164D02*
X5744972Y-1586164D01*
X5724972Y-1566164D02*
X5764972Y-1566164D01*
X5744972Y-1696164D02*
X5744972Y-1736164D01*
X5724972Y-1716164D02*
X5764972Y-1716164D01*
X5744972Y-1846164D02*
X5744972Y-1886164D01*
X5724972Y-1866164D02*
X5764972Y-1866164D01*
X5744972Y-1996164D02*
X5744972Y-2036164D01*
X5724972Y-2016164D02*
X5764972Y-2016164D01*
X5744972Y-2146164D02*
X5744972Y-2186164D01*
X5724972Y-2166164D02*
X5764972Y-2166164D01*
X5745000Y-9645000D02*
X5745000Y-9685000D01*
X5725000Y-9665000D02*
X5765000Y-9665000D01*
X5750000Y-9240000D02*
X5750000Y-9280000D01*
X5730000Y-9260000D02*
X5770000Y-9260000D01*
X5750000Y-9390000D02*
X5750000Y-9430000D01*
X5730000Y-9410000D02*
X5770000Y-9410000D01*
X5779516Y-6230940D02*
X5779516Y-6270940D01*
X5759516Y-6250940D02*
X5799516Y-6250940D01*
X5785000Y-220000D02*
X5785000Y-260000D01*
X5765000Y-240000D02*
X5805000Y-240000D01*
X5840730Y-5561650D02*
X5840730Y-5601650D01*
X5820730Y-5581650D02*
X5860730Y-5581650D01*
X5851652Y-2858460D02*
X5851652Y-2898460D01*
X5831652Y-2878460D02*
X5871652Y-2878460D01*
X5853176Y-6781104D02*
X5853176Y-6821104D01*
X5833176Y-6801104D02*
X5873176Y-6801104D01*
X5853684Y-3025724D02*
X5853684Y-3065724D01*
X5833684Y-3045724D02*
X5873684Y-3045724D01*
X5854700Y-6449380D02*
X5854700Y-6489380D01*
X5834700Y-6469380D02*
X5874700Y-6469380D01*
X5894972Y-1546164D02*
X5894972Y-1586164D01*
X5874972Y-1566164D02*
X5914972Y-1566164D01*
X5894972Y-1696164D02*
X5894972Y-1736164D01*
X5874972Y-1716164D02*
X5914972Y-1716164D01*
X5894972Y-1846164D02*
X5894972Y-1886164D01*
X5874972Y-1866164D02*
X5914972Y-1866164D01*
X5894972Y-1996164D02*
X5894972Y-2036164D01*
X5874972Y-2016164D02*
X5914972Y-2016164D01*
X5894972Y-2146164D02*
X5894972Y-2186164D01*
X5874972Y-2166164D02*
X5914972Y-2166164D01*
X5897880Y-6162360D02*
X5897880Y-6202360D01*
X5877880Y-6182360D02*
X5917880Y-6182360D01*
X5941060Y-903290D02*
X5941060Y-943290D01*
X5921060Y-923290D02*
X5961060Y-923290D01*
X5941060Y-1103290D02*
X5941060Y-1143290D01*
X5921060Y-1123290D02*
X5961060Y-1123290D01*
X5960000Y-8620000D02*
X5960000Y-8660000D01*
X5940000Y-8640000D02*
X5980000Y-8640000D01*
X5973293Y-6699619D02*
X5973293Y-6739619D01*
X5953293Y-6719619D02*
X5993293Y-6719619D01*
X6044972Y-1546164D02*
X6044972Y-1586164D01*
X6024972Y-1566164D02*
X6064972Y-1566164D01*
X6044972Y-1696164D02*
X6044972Y-1736164D01*
X6024972Y-1716164D02*
X6064972Y-1716164D01*
X6044972Y-1846164D02*
X6044972Y-1886164D01*
X6024972Y-1866164D02*
X6064972Y-1866164D01*
X6044972Y-1996164D02*
X6044972Y-2036164D01*
X6024972Y-2016164D02*
X6064972Y-2016164D01*
X6044972Y-2146164D02*
X6044972Y-2186164D01*
X6024972Y-2166164D02*
X6064972Y-2166164D01*
X6051689Y-7759042D02*
X6051689Y-7799042D01*
X6031689Y-7779042D02*
X6071689Y-7779042D01*
X6068060Y-7338908D02*
X6068060Y-7378908D01*
X6048060Y-7358908D02*
X6088060Y-7358908D01*
X6090000Y-8440000D02*
X6090000Y-8480000D01*
X6070000Y-8460000D02*
X6110000Y-8460000D01*
X6128997Y-8106123D02*
X6128997Y-8146123D01*
X6108997Y-8126123D02*
X6148997Y-8126123D01*
X6130000Y-7653290D02*
X6130000Y-7693290D01*
X6110000Y-7673290D02*
X6150000Y-7673290D01*
X6141060Y-903290D02*
X6141060Y-943290D01*
X6121060Y-923290D02*
X6161060Y-923290D01*
X6141060Y-1103290D02*
X6141060Y-1143290D01*
X6121060Y-1123290D02*
X6161060Y-1123290D01*
X6185000Y-8460000D02*
X6185000Y-8500000D01*
X6165000Y-8480000D02*
X6205000Y-8480000D01*
X6194972Y-1546164D02*
X6194972Y-1586164D01*
X6174972Y-1566164D02*
X6214972Y-1566164D01*
X6194972Y-1696164D02*
X6194972Y-1736164D01*
X6174972Y-1716164D02*
X6214972Y-1716164D01*
X6194972Y-1846164D02*
X6194972Y-1886164D01*
X6174972Y-1866164D02*
X6214972Y-1866164D01*
X6194972Y-1996164D02*
X6194972Y-2036164D01*
X6174972Y-2016164D02*
X6214972Y-2016164D01*
X6194972Y-2146164D02*
X6194972Y-2186164D01*
X6174972Y-2166164D02*
X6214972Y-2166164D01*
X6214364Y-3021660D02*
X6214364Y-3061660D01*
X6194364Y-3041660D02*
X6234364Y-3041660D01*
X6218428Y-2864556D02*
X6218428Y-2904556D01*
X6198428Y-2884556D02*
X6238428Y-2884556D01*
X6219574Y-8361534D02*
X6219574Y-8401534D01*
X6199574Y-8381534D02*
X6239574Y-8381534D01*
X6231183Y-7377499D02*
X6231183Y-7417499D01*
X6211183Y-7397499D02*
X6251183Y-7397499D01*
X6245000Y-6900000D02*
X6245000Y-6940000D01*
X6225000Y-6920000D02*
X6265000Y-6920000D01*
X6245000Y-8270000D02*
X6245000Y-8310000D01*
X6225000Y-8290000D02*
X6265000Y-8290000D01*
X6292499Y-7238752D02*
X6292499Y-7278752D01*
X6272499Y-7258752D02*
X6312499Y-7258752D01*
X6292499Y-7784639D02*
X6292499Y-7824639D01*
X6272499Y-7804639D02*
X6312499Y-7804639D01*
X6292499Y-7935280D02*
X6292499Y-7975280D01*
X6272499Y-7955280D02*
X6312499Y-7955280D01*
X6341060Y-903290D02*
X6341060Y-943290D01*
X6321060Y-923290D02*
X6361060Y-923290D01*
X6341060Y-1103290D02*
X6341060Y-1143290D01*
X6321060Y-1123290D02*
X6361060Y-1123290D01*
X6344972Y-1546164D02*
X6344972Y-1586164D01*
X6324972Y-1566164D02*
X6364972Y-1566164D01*
X6344972Y-1696164D02*
X6344972Y-1736164D01*
X6324972Y-1716164D02*
X6364972Y-1716164D01*
X6344972Y-1846164D02*
X6344972Y-1886164D01*
X6324972Y-1866164D02*
X6364972Y-1866164D01*
X6344972Y-1996164D02*
X6344972Y-2036164D01*
X6324972Y-2016164D02*
X6364972Y-2016164D01*
X6344972Y-2146164D02*
X6344972Y-2186164D01*
X6324972Y-2166164D02*
X6364972Y-2166164D01*
X6372499Y-5420000D02*
X6372499Y-5460000D01*
X6352499Y-5440000D02*
X6392499Y-5440000D01*
X6425184Y-2862524D02*
X6425184Y-2902524D01*
X6405184Y-2882524D02*
X6445184Y-2882524D01*
X6425184Y-3015564D02*
X6425184Y-3055564D01*
X6405184Y-3035564D02*
X6445184Y-3035564D01*
X6440000Y-8760000D02*
X6440000Y-8800000D01*
X6420000Y-8780000D02*
X6460000Y-8780000D01*
X6510000Y-8155000D02*
X6510000Y-8195000D01*
X6490000Y-8175000D02*
X6530000Y-8175000D01*
X6544544Y-4421863D02*
X6544544Y-4461863D01*
X6524544Y-4441863D02*
X6564544Y-4441863D01*
X6565000Y-7785000D02*
X6565000Y-7825000D01*
X6545000Y-7805000D02*
X6585000Y-7805000D01*
X6579870Y-6564950D02*
X6579870Y-6604950D01*
X6559870Y-6584950D02*
X6599870Y-6584950D01*
X6579870Y-6764950D02*
X6579870Y-6804950D01*
X6559870Y-6784950D02*
X6599870Y-6784950D01*
X6579870Y-6964950D02*
X6579870Y-7004950D01*
X6559870Y-6984950D02*
X6599870Y-6984950D01*
X6580000Y-4510000D02*
X6580000Y-4550000D01*
X6560000Y-4530000D02*
X6600000Y-4530000D01*
X6580000Y-7145000D02*
X6580000Y-7185000D01*
X6560000Y-7165000D02*
X6600000Y-7165000D01*
X6580000Y-7265000D02*
X6580000Y-7305000D01*
X6560000Y-7285000D02*
X6600000Y-7285000D01*
X6594856Y-2860492D02*
X6594856Y-2900492D01*
X6574856Y-2880492D02*
X6614856Y-2880492D01*
X6598920Y-3025724D02*
X6598920Y-3065724D01*
X6578920Y-3045724D02*
X6618920Y-3045724D01*
X6635000Y-8300000D02*
X6635000Y-8340000D01*
X6615000Y-8320000D02*
X6655000Y-8320000D01*
X6635000Y-9320000D02*
X6635000Y-9360000D01*
X6615000Y-9340000D02*
X6655000Y-9340000D01*
X4975181Y-5849091D02*
X4975181Y-5813736D01*
X4939825Y-5813736D01*
X4939825Y-5849091D01*
X4975181Y-5849091D01*
X5145121Y-6056590D02*
X5145121Y-6021235D01*
X5109766Y-6021235D01*
X5109766Y-6056590D01*
X5145121Y-6056590D01*
X5570590Y-6441530D02*
X5570590Y-6406175D01*
X5535234Y-6406175D01*
X5535234Y-6441530D01*
X5570590Y-6441530D01*
X5587390Y-5579770D02*
X5587390Y-5544414D01*
X5552034Y-5544414D01*
X5552034Y-5579770D01*
X5587390Y-5579770D01*
X5620410Y-6214770D02*
X5620410Y-6179414D01*
X5585054Y-6179414D01*
X5585054Y-6214770D01*
X5620410Y-6214770D01*
X5713467Y-6827511D02*
X5713467Y-6792155D01*
X5678111Y-6792155D01*
X5678111Y-6827511D01*
X5713467Y-6827511D01*
X6079642Y-6427622D02*
X6079642Y-6392266D01*
X6044286Y-6392266D01*
X6044286Y-6427622D01*
X6079642Y-6427622D01*
X6397677Y-7067678D02*
X6397677Y-7032322D01*
X6362322Y-7032322D01*
X6362322Y-7067678D01*
X6397677Y-7067678D01*
X6316980Y-5752500D02*
X6354480Y-5715000D01*
X6316980Y-5677500D01*
X6279480Y-5715000D01*
X6316980Y-5752500D01*
X6316980Y-5952500D02*
X6354480Y-5915000D01*
X6316980Y-5877500D01*
X6279480Y-5915000D01*
X6316980Y-5952500D01*
X6316980Y-6575460D02*
X6354480Y-6537960D01*
X6316980Y-6500460D01*
X6279480Y-6537960D01*
X6316980Y-6575460D01*
X6316980Y-6775460D02*
X6354480Y-6737960D01*
X6316980Y-6700460D01*
X6279480Y-6737960D01*
X6316980Y-6775460D01*
X232000Y-280000D02*
X332000Y-380000D01*
X332000Y-280000D02*
X232000Y-380000D01*
X332000Y-330000D02*
G75*
G03*
X332000Y-330000I-50000J0D01*
G01*
X232000Y-534000D02*
X332000Y-634000D01*
X332000Y-534000D02*
X232000Y-634000D01*
X332000Y-584000D02*
G75*
G03*
X332000Y-584000I-50000J0D01*
G01*
X486000Y-280000D02*
X586000Y-380000D01*
X586000Y-280000D02*
X486000Y-380000D01*
X586000Y-330000D02*
G75*
G03*
X586000Y-330000I-50000J0D01*
G01*
X486000Y-534000D02*
X586000Y-634000D01*
X586000Y-534000D02*
X486000Y-634000D01*
X586000Y-584000D02*
G75*
G03*
X586000Y-584000I-50000J0D01*
G01*
X740000Y-280000D02*
X840000Y-380000D01*
X840000Y-280000D02*
X740000Y-380000D01*
X840000Y-330000D02*
G75*
G03*
X840000Y-330000I-50000J0D01*
G01*
X740000Y-534000D02*
X840000Y-634000D01*
X840000Y-534000D02*
X740000Y-634000D01*
X840000Y-584000D02*
G75*
G03*
X840000Y-584000I-50000J0D01*
G01*
X905294Y-1047788D02*
X1005294Y-1147788D01*
X1005294Y-1047788D02*
X905294Y-1147788D01*
X1005294Y-1097788D02*
G75*
G03*
X1005294Y-1097788I-50000J0D01*
G01*
X905294Y-1301788D02*
X1005294Y-1401788D01*
X1005294Y-1301788D02*
X905294Y-1401788D01*
X1005294Y-1351788D02*
G75*
G03*
X1005294Y-1351788I-50000J0D01*
G01*
X905294Y-1555788D02*
X1005294Y-1655788D01*
X1005294Y-1555788D02*
X905294Y-1655788D01*
X1005294Y-1605788D02*
G75*
G03*
X1005294Y-1605788I-50000J0D01*
G01*
X905294Y-1809788D02*
X1005294Y-1909788D01*
X1005294Y-1809788D02*
X905294Y-1909788D01*
X1005294Y-1859788D02*
G75*
G03*
X1005294Y-1859788I-50000J0D01*
G01*
X905294Y-2063788D02*
X1005294Y-2163788D01*
X1005294Y-2063788D02*
X905294Y-2163788D01*
X1005294Y-2113788D02*
G75*
G03*
X1005294Y-2113788I-50000J0D01*
G01*
X905294Y-2317788D02*
X1005294Y-2417788D01*
X1005294Y-2317788D02*
X905294Y-2417788D01*
X1005294Y-2367788D02*
G75*
G03*
X1005294Y-2367788I-50000J0D01*
G01*
X905294Y-2571788D02*
X1005294Y-2671788D01*
X1005294Y-2571788D02*
X905294Y-2671788D01*
X1005294Y-2621788D02*
G75*
G03*
X1005294Y-2621788I-50000J0D01*
G01*
X905294Y-2825788D02*
X1005294Y-2925788D01*
X1005294Y-2825788D02*
X905294Y-2925788D01*
X1005294Y-2875788D02*
G75*
G03*
X1005294Y-2875788I-50000J0D01*
G01*
X905294Y-3079788D02*
X1005294Y-3179788D01*
X1005294Y-3079788D02*
X905294Y-3179788D01*
X1005294Y-3129788D02*
G75*
G03*
X1005294Y-3129788I-50000J0D01*
G01*
X905294Y-3333788D02*
X1005294Y-3433788D01*
X1005294Y-3333788D02*
X905294Y-3433788D01*
X1005294Y-3383788D02*
G75*
G03*
X1005294Y-3383788I-50000J0D01*
G01*
X905294Y-3587788D02*
X1005294Y-3687788D01*
X1005294Y-3587788D02*
X905294Y-3687788D01*
X1005294Y-3637788D02*
G75*
G03*
X1005294Y-3637788I-50000J0D01*
G01*
X905294Y-3841788D02*
X1005294Y-3941788D01*
X1005294Y-3841788D02*
X905294Y-3941788D01*
X1005294Y-3891788D02*
G75*
G03*
X1005294Y-3891788I-50000J0D01*
G01*
X905294Y-4095788D02*
X1005294Y-4195788D01*
X1005294Y-4095788D02*
X905294Y-4195788D01*
X1005294Y-4145788D02*
G75*
G03*
X1005294Y-4145788I-50000J0D01*
G01*
X905294Y-4349788D02*
X1005294Y-4449788D01*
X1005294Y-4349788D02*
X905294Y-4449788D01*
X1005294Y-4399788D02*
G75*
G03*
X1005294Y-4399788I-50000J0D01*
G01*
X905294Y-4603788D02*
X1005294Y-4703788D01*
X1005294Y-4603788D02*
X905294Y-4703788D01*
X1005294Y-4653788D02*
G75*
G03*
X1005294Y-4653788I-50000J0D01*
G01*
X905294Y-4857788D02*
X1005294Y-4957788D01*
X1005294Y-4857788D02*
X905294Y-4957788D01*
X1005294Y-4907788D02*
G75*
G03*
X1005294Y-4907788I-50000J0D01*
G01*
X905294Y-5111788D02*
X1005294Y-5211788D01*
X1005294Y-5111788D02*
X905294Y-5211788D01*
X1005294Y-5161788D02*
G75*
G03*
X1005294Y-5161788I-50000J0D01*
G01*
X905294Y-5365788D02*
X1005294Y-5465788D01*
X1005294Y-5365788D02*
X905294Y-5465788D01*
X1005294Y-5415788D02*
G75*
G03*
X1005294Y-5415788I-50000J0D01*
G01*
X905294Y-5619788D02*
X1005294Y-5719788D01*
X1005294Y-5619788D02*
X905294Y-5719788D01*
X1005294Y-5669788D02*
G75*
G03*
X1005294Y-5669788I-50000J0D01*
G01*
X905294Y-5873788D02*
X1005294Y-5973788D01*
X1005294Y-5873788D02*
X905294Y-5973788D01*
X1005294Y-5923788D02*
G75*
G03*
X1005294Y-5923788I-50000J0D01*
G01*
X1159294Y-1047788D02*
X1259294Y-1147788D01*
X1259294Y-1047788D02*
X1159294Y-1147788D01*
X1259294Y-1097788D02*
G75*
G03*
X1259294Y-1097788I-50000J0D01*
G01*
X1159294Y-1301788D02*
X1259294Y-1401788D01*
X1259294Y-1301788D02*
X1159294Y-1401788D01*
X1259294Y-1351788D02*
G75*
G03*
X1259294Y-1351788I-50000J0D01*
G01*
X1159294Y-1555788D02*
X1259294Y-1655788D01*
X1259294Y-1555788D02*
X1159294Y-1655788D01*
X1259294Y-1605788D02*
G75*
G03*
X1259294Y-1605788I-50000J0D01*
G01*
X1159294Y-1809788D02*
X1259294Y-1909788D01*
X1259294Y-1809788D02*
X1159294Y-1909788D01*
X1259294Y-1859788D02*
G75*
G03*
X1259294Y-1859788I-50000J0D01*
G01*
X1159294Y-2063788D02*
X1259294Y-2163788D01*
X1259294Y-2063788D02*
X1159294Y-2163788D01*
X1259294Y-2113788D02*
G75*
G03*
X1259294Y-2113788I-50000J0D01*
G01*
X1159294Y-2317788D02*
X1259294Y-2417788D01*
X1259294Y-2317788D02*
X1159294Y-2417788D01*
X1259294Y-2367788D02*
G75*
G03*
X1259294Y-2367788I-50000J0D01*
G01*
X1159294Y-2571788D02*
X1259294Y-2671788D01*
X1259294Y-2571788D02*
X1159294Y-2671788D01*
X1259294Y-2621788D02*
G75*
G03*
X1259294Y-2621788I-50000J0D01*
G01*
X1159294Y-2825788D02*
X1259294Y-2925788D01*
X1259294Y-2825788D02*
X1159294Y-2925788D01*
X1259294Y-2875788D02*
G75*
G03*
X1259294Y-2875788I-50000J0D01*
G01*
X1159294Y-3079788D02*
X1259294Y-3179788D01*
X1259294Y-3079788D02*
X1159294Y-3179788D01*
X1259294Y-3129788D02*
G75*
G03*
X1259294Y-3129788I-50000J0D01*
G01*
X1159294Y-3333788D02*
X1259294Y-3433788D01*
X1259294Y-3333788D02*
X1159294Y-3433788D01*
X1259294Y-3383788D02*
G75*
G03*
X1259294Y-3383788I-50000J0D01*
G01*
X1159294Y-3587788D02*
X1259294Y-3687788D01*
X1259294Y-3587788D02*
X1159294Y-3687788D01*
X1259294Y-3637788D02*
G75*
G03*
X1259294Y-3637788I-50000J0D01*
G01*
X1159294Y-3841788D02*
X1259294Y-3941788D01*
X1259294Y-3841788D02*
X1159294Y-3941788D01*
X1259294Y-3891788D02*
G75*
G03*
X1259294Y-3891788I-50000J0D01*
G01*
X1159294Y-4095788D02*
X1259294Y-4195788D01*
X1259294Y-4095788D02*
X1159294Y-4195788D01*
X1259294Y-4145788D02*
G75*
G03*
X1259294Y-4145788I-50000J0D01*
G01*
X1159294Y-4349788D02*
X1259294Y-4449788D01*
X1259294Y-4349788D02*
X1159294Y-4449788D01*
X1259294Y-4399788D02*
G75*
G03*
X1259294Y-4399788I-50000J0D01*
G01*
X1159294Y-4603788D02*
X1259294Y-4703788D01*
X1259294Y-4603788D02*
X1159294Y-4703788D01*
X1259294Y-4653788D02*
G75*
G03*
X1259294Y-4653788I-50000J0D01*
G01*
X1159294Y-4857788D02*
X1259294Y-4957788D01*
X1259294Y-4857788D02*
X1159294Y-4957788D01*
X1259294Y-4907788D02*
G75*
G03*
X1259294Y-4907788I-50000J0D01*
G01*
X1159294Y-5111788D02*
X1259294Y-5211788D01*
X1259294Y-5111788D02*
X1159294Y-5211788D01*
X1259294Y-5161788D02*
G75*
G03*
X1259294Y-5161788I-50000J0D01*
G01*
X1159294Y-5365788D02*
X1259294Y-5465788D01*
X1259294Y-5365788D02*
X1159294Y-5465788D01*
X1259294Y-5415788D02*
G75*
G03*
X1259294Y-5415788I-50000J0D01*
G01*
X1159294Y-5619788D02*
X1259294Y-5719788D01*
X1259294Y-5619788D02*
X1159294Y-5719788D01*
X1259294Y-5669788D02*
G75*
G03*
X1259294Y-5669788I-50000J0D01*
G01*
X1159294Y-5873788D02*
X1259294Y-5973788D01*
X1259294Y-5873788D02*
X1159294Y-5973788D01*
X1259294Y-5923788D02*
G75*
G03*
X1259294Y-5923788I-50000J0D01*
G01*
X1652000Y-2375000D02*
X1752000Y-2475000D01*
X1752000Y-2375000D02*
X1652000Y-2475000D01*
X1752000Y-2425000D02*
G75*
G03*
X1752000Y-2425000I-50000J0D01*
G01*
X1906000Y-2375000D02*
X2006000Y-2475000D01*
X2006000Y-2375000D02*
X1906000Y-2475000D01*
X2006000Y-2425000D02*
G75*
G03*
X2006000Y-2425000I-50000J0D01*
G01*
X1955000Y-8790000D02*
X2055000Y-8890000D01*
X2055000Y-8790000D02*
X1955000Y-8890000D01*
X2055000Y-8840000D02*
G75*
G03*
X2055000Y-8840000I-50000J0D01*
G01*
X2160000Y-2375000D02*
X2260000Y-2475000D01*
X2260000Y-2375000D02*
X2160000Y-2475000D01*
X2260000Y-2425000D02*
G75*
G03*
X2260000Y-2425000I-50000J0D01*
G01*
X2209000Y-8790000D02*
X2309000Y-8890000D01*
X2309000Y-8790000D02*
X2209000Y-8890000D01*
X2309000Y-8840000D02*
G75*
G03*
X2309000Y-8840000I-50000J0D01*
G01*
X2414000Y-2375000D02*
X2514000Y-2475000D01*
X2514000Y-2375000D02*
X2414000Y-2475000D01*
X2514000Y-2425000D02*
G75*
G03*
X2514000Y-2425000I-50000J0D01*
G01*
X2463000Y-8790000D02*
X2563000Y-8890000D01*
X2563000Y-8790000D02*
X2463000Y-8890000D01*
X2563000Y-8840000D02*
G75*
G03*
X2563000Y-8840000I-50000J0D01*
G01*
X2717000Y-8790000D02*
X2817000Y-8890000D01*
X2817000Y-8790000D02*
X2717000Y-8890000D01*
X2817000Y-8840000D02*
G75*
G03*
X2817000Y-8840000I-50000J0D01*
G01*
X5076000Y-4430000D02*
X5176000Y-4530000D01*
X5176000Y-4430000D02*
X5076000Y-4530000D01*
X5176000Y-4480000D02*
G75*
G03*
X5176000Y-4480000I-50000J0D01*
G01*
X5330000Y-4430000D02*
X5430000Y-4530000D01*
X5430000Y-4430000D02*
X5330000Y-4530000D01*
X5430000Y-4480000D02*
G75*
G03*
X5430000Y-4480000I-50000J0D01*
G01*
X5610000Y-3540000D02*
X5710000Y-3640000D01*
X5710000Y-3540000D02*
X5610000Y-3640000D01*
X5710000Y-3590000D02*
G75*
G03*
X5710000Y-3590000I-50000J0D01*
G01*
X5680000Y-3550000D02*
X5640000Y-3550000D01*
X5680000Y-3630000D02*
X5640000Y-3630000D01*
X5640000Y-3550000D02*
G75*
G03*
X5640000Y-3630000I0J-40000D01*
G01*
X5680000Y-3630000D02*
G75*
G03*
X5680000Y-3550000I0J40000D01*
G01*
X5610000Y-4000000D02*
X5710000Y-4100000D01*
X5710000Y-4000000D02*
X5610000Y-4100000D01*
X5710000Y-4050000D02*
G75*
G03*
X5710000Y-4050000I-50000J0D01*
G01*
X5680000Y-4010000D02*
X5640000Y-4010000D01*
X5680000Y-4090000D02*
X5640000Y-4090000D01*
X5640000Y-4010000D02*
G75*
G03*
X5640000Y-4090000I0J-40000D01*
G01*
X5680000Y-4090000D02*
G75*
G03*
X5680000Y-4010000I0J40000D01*
G01*
X5635536Y-4858484D02*
X5735536Y-4958484D01*
X5735536Y-4858484D02*
X5635536Y-4958484D01*
X5735536Y-4908484D02*
G75*
G03*
X5735536Y-4908484I-50000J0D01*
G01*
X5725536Y-5008484D02*
X5725536Y-4808484D01*
X5645536Y-5008484D02*
X5645536Y-4808484D01*
X5725536Y-4808484D02*
G75*
G03*
X5645536Y-4808484I-40000J0D01*
G01*
X5645536Y-5008484D02*
G75*
G03*
X5725536Y-5008484I40000J0D01*
G01*
X5935536Y-4388484D02*
X6035536Y-4488484D01*
X6035536Y-4388484D02*
X5935536Y-4488484D01*
X6035536Y-4438484D02*
G75*
G03*
X6035536Y-4438484I-50000J0D01*
G01*
X6085536Y-4398484D02*
X5885536Y-4398484D01*
X6085536Y-4478484D02*
X5885536Y-4478484D01*
X5885536Y-4398484D02*
G75*
G03*
X5885536Y-4478484I0J-40000D01*
G01*
X6085536Y-4478484D02*
G75*
G03*
X6085536Y-4398484I0J40000D01*
G01*
X6235536Y-4858484D02*
X6335536Y-4958484D01*
X6335536Y-4858484D02*
X6235536Y-4958484D01*
X6335536Y-4908484D02*
G75*
G03*
X6335536Y-4908484I-50000J0D01*
G01*
X6325536Y-5008484D02*
X6325536Y-4808484D01*
X6245536Y-5008484D02*
X6245536Y-4808484D01*
X6325536Y-4808484D02*
G75*
G03*
X6245536Y-4808484I-40000J0D01*
G01*
X6245536Y-5008484D02*
G75*
G03*
X6325536Y-5008484I40000J0D01*
G01*
X6360000Y-3485000D02*
X6460000Y-3585000D01*
X6460000Y-3485000D02*
X6360000Y-3585000D01*
X6460000Y-3535000D02*
G75*
G03*
X6460000Y-3535000I-50000J0D01*
G01*
X6430000Y-3495000D02*
X6390000Y-3495000D01*
X6430000Y-3575000D02*
X6390000Y-3575000D01*
X6390000Y-3495000D02*
G75*
G03*
X6390000Y-3575000I0J-40000D01*
G01*
X6430000Y-3575000D02*
G75*
G03*
X6430000Y-3495000I0J40000D01*
G01*
X6360000Y-4055000D02*
X6460000Y-4155000D01*
X6460000Y-4055000D02*
X6360000Y-4155000D01*
X6460000Y-4105000D02*
G75*
G03*
X6460000Y-4105000I-50000J0D01*
G01*
X6430000Y-4065000D02*
X6390000Y-4065000D01*
X6430000Y-4145000D02*
X6390000Y-4145000D01*
X6390000Y-4065000D02*
G75*
G03*
X6390000Y-4145000I0J-40000D01*
G01*
X6430000Y-4145000D02*
G75*
G03*
X6430000Y-4065000I0J40000D01*
G01*
X3829000Y-9209000D02*
X3931000Y-9311000D01*
X3931000Y-9209000D02*
X3829000Y-9311000D01*
X3880000Y-9209000D02*
X3880000Y-9311000D01*
X3829000Y-9260000D02*
X3931000Y-9260000D01*
X4083000Y-9209000D02*
X4185000Y-9311000D01*
X4185000Y-9209000D02*
X4083000Y-9311000D01*
X4134000Y-9209000D02*
X4134000Y-9311000D01*
X4083000Y-9260000D02*
X4185000Y-9260000D01*
X4337000Y-9209000D02*
X4439000Y-9311000D01*
X4439000Y-9209000D02*
X4337000Y-9311000D01*
X4388000Y-9209000D02*
X4388000Y-9311000D01*
X4337000Y-9260000D02*
X4439000Y-9260000D01*
X4591000Y-9209000D02*
X4693000Y-9311000D01*
X4693000Y-9209000D02*
X4591000Y-9311000D01*
X4642000Y-9209000D02*
X4642000Y-9311000D01*
X4591000Y-9260000D02*
X4693000Y-9260000D01*
X1200000Y-350000D02*
X1500000Y-650000D01*
X1500000Y-350000D02*
X1200000Y-650000D01*
X1456067Y-606067D02*
X1456067Y-393933D01*
X1243933Y-393933D01*
X1243933Y-606067D01*
X1456067Y-606067D01*
X1200000Y-9158212D02*
X1500000Y-9458212D01*
X1500000Y-9158212D02*
X1200000Y-9458212D01*
X1456067Y-9414279D02*
X1456067Y-9202145D01*
X1243933Y-9202145D01*
X1243933Y-9414279D01*
X1456067Y-9414279D01*
X6042138Y-350000D02*
X6342138Y-650000D01*
X6342138Y-350000D02*
X6042138Y-650000D01*
X6298205Y-606067D02*
X6298205Y-393933D01*
X6086071Y-393933D01*
X6086071Y-606067D01*
X6298205Y-606067D01*
X6042138Y-9158212D02*
X6342138Y-9458212D01*
X6342138Y-9158212D02*
X6042138Y-9458212D01*
X6298205Y-9414279D02*
X6298205Y-9202145D01*
X6086071Y-9202145D01*
X6086071Y-9414279D01*
X6298205Y-9414279D01*
D12*
X281428Y-10270714D02*
X281428Y-9970714D01*
X352857Y-9970714D01*
X395714Y-9985000D01*
X424286Y-10013572D01*
X438571Y-10042143D01*
X452857Y-10099286D01*
X452857Y-10142143D01*
X438571Y-10199286D01*
X424286Y-10227857D01*
X395714Y-10256429D01*
X352857Y-10270714D01*
X281428Y-10270714D01*
X581428Y-10270714D02*
X581428Y-10070714D01*
X581428Y-10127857D02*
X595714Y-10099286D01*
X610000Y-10085000D01*
X638571Y-10070714D01*
X667143Y-10070714D01*
X767143Y-10270714D02*
X767143Y-10070714D01*
X767143Y-9970714D02*
X752857Y-9985000D01*
X767143Y-9999286D01*
X781428Y-9985000D01*
X767143Y-9970714D01*
X767143Y-9999286D01*
X952857Y-10270714D02*
X924286Y-10256429D01*
X910000Y-10227857D01*
X910000Y-9970714D01*
X1110000Y-10270714D02*
X1081428Y-10256429D01*
X1067143Y-10227857D01*
X1067143Y-9970714D01*
X1452857Y-10270714D02*
X1452857Y-9970714D01*
X1552857Y-10185000D01*
X1652857Y-9970714D01*
X1652857Y-10270714D01*
X1924286Y-10270714D02*
X1924286Y-10113572D01*
X1910000Y-10085000D01*
X1881428Y-10070714D01*
X1824286Y-10070714D01*
X1795714Y-10085000D01*
X1924286Y-10256429D02*
X1895714Y-10270714D01*
X1824286Y-10270714D01*
X1795714Y-10256429D01*
X1781428Y-10227857D01*
X1781428Y-10199286D01*
X1795714Y-10170714D01*
X1824286Y-10156429D01*
X1895714Y-10156429D01*
X1924286Y-10142143D01*
X2067143Y-10070714D02*
X2067143Y-10370714D01*
X2067143Y-10085000D02*
X2095714Y-10070714D01*
X2152857Y-10070714D01*
X2181428Y-10085000D01*
X2195714Y-10099286D01*
X2210000Y-10127857D01*
X2210000Y-10213572D01*
X2195714Y-10242143D01*
X2181428Y-10256429D01*
X2152857Y-10270714D01*
X2095714Y-10270714D01*
X2067143Y-10256429D01*
X2338571Y-10242143D02*
X2352857Y-10256429D01*
X2338571Y-10270714D01*
X2324286Y-10256429D01*
X2338571Y-10242143D01*
X2338571Y-10270714D01*
X2338571Y-10085000D02*
X2352857Y-10099286D01*
X2338571Y-10113572D01*
X2324286Y-10099286D01*
X2338571Y-10085000D01*
X2338571Y-10113572D01*
X-25320Y-10754840D02*
X-5000Y-10775160D01*
X-5000Y-10754840D02*
X-25320Y-10775160D01*
X338571Y-10600714D02*
X367143Y-10600714D01*
X395714Y-10615000D01*
X410000Y-10629286D01*
X424286Y-10657857D01*
X438571Y-10715000D01*
X438571Y-10786429D01*
X424286Y-10843572D01*
X410000Y-10872143D01*
X395714Y-10886429D01*
X367143Y-10900714D01*
X338571Y-10900714D01*
X310000Y-10886429D01*
X295714Y-10872143D01*
X281428Y-10843572D01*
X267143Y-10786429D01*
X267143Y-10715000D01*
X281428Y-10657857D01*
X295714Y-10629286D01*
X310000Y-10615000D01*
X338571Y-10600714D01*
X567143Y-10872143D02*
X581428Y-10886429D01*
X567143Y-10900714D01*
X552857Y-10886429D01*
X567143Y-10872143D01*
X567143Y-10900714D01*
X695714Y-10629286D02*
X710000Y-10615000D01*
X738571Y-10600714D01*
X810000Y-10600714D01*
X838571Y-10615000D01*
X852857Y-10629286D01*
X867143Y-10657857D01*
X867143Y-10686429D01*
X852857Y-10729286D01*
X681428Y-10900714D01*
X867143Y-10900714D01*
X1052857Y-10600714D02*
X1081428Y-10600714D01*
X1110000Y-10615000D01*
X1124286Y-10629286D01*
X1138571Y-10657857D01*
X1152857Y-10715000D01*
X1152857Y-10786429D01*
X1138571Y-10843572D01*
X1124286Y-10872143D01*
X1110000Y-10886429D01*
X1081428Y-10900714D01*
X1052857Y-10900714D01*
X1024286Y-10886429D01*
X1010000Y-10872143D01*
X995714Y-10843572D01*
X981428Y-10786429D01*
X981428Y-10715000D01*
X995714Y-10657857D01*
X1010000Y-10629286D01*
X1024286Y-10615000D01*
X1052857Y-10600714D01*
X1281428Y-10900714D02*
X1281428Y-10700714D01*
X1281428Y-10729286D02*
X1295714Y-10715000D01*
X1324286Y-10700714D01*
X1367143Y-10700714D01*
X1395714Y-10715000D01*
X1410000Y-10743572D01*
X1410000Y-10900714D01*
X1410000Y-10743572D02*
X1424286Y-10715000D01*
X1452857Y-10700714D01*
X1495714Y-10700714D01*
X1524286Y-10715000D01*
X1538571Y-10743572D01*
X1538571Y-10900714D01*
X1681428Y-10900714D02*
X1681428Y-10700714D01*
X1681428Y-10729286D02*
X1695714Y-10715000D01*
X1724286Y-10700714D01*
X1767143Y-10700714D01*
X1795714Y-10715000D01*
X1810000Y-10743572D01*
X1810000Y-10900714D01*
X1810000Y-10743572D02*
X1824286Y-10715000D01*
X1852857Y-10700714D01*
X1895714Y-10700714D01*
X1924286Y-10715000D01*
X1938571Y-10743572D01*
X1938571Y-10900714D01*
X2524286Y-10586429D02*
X2267143Y-10972143D01*
X2910000Y-10600714D02*
X2938571Y-10600714D01*
X2967143Y-10615000D01*
X2981428Y-10629286D01*
X2995714Y-10657857D01*
X3010000Y-10715000D01*
X3010000Y-10786429D01*
X2995714Y-10843572D01*
X2981428Y-10872143D01*
X2967143Y-10886429D01*
X2938571Y-10900714D01*
X2910000Y-10900714D01*
X2881428Y-10886429D01*
X2867143Y-10872143D01*
X2852857Y-10843572D01*
X2838571Y-10786429D01*
X2838571Y-10715000D01*
X2852857Y-10657857D01*
X2867143Y-10629286D01*
X2881428Y-10615000D01*
X2910000Y-10600714D01*
X3138571Y-10872143D02*
X3152857Y-10886429D01*
X3138571Y-10900714D01*
X3124286Y-10886429D01*
X3138571Y-10872143D01*
X3138571Y-10900714D01*
X3338571Y-10600714D02*
X3367143Y-10600714D01*
X3395714Y-10615000D01*
X3410000Y-10629286D01*
X3424286Y-10657857D01*
X3438571Y-10715000D01*
X3438571Y-10786429D01*
X3424286Y-10843572D01*
X3410000Y-10872143D01*
X3395714Y-10886429D01*
X3367143Y-10900714D01*
X3338571Y-10900714D01*
X3310000Y-10886429D01*
X3295714Y-10872143D01*
X3281428Y-10843572D01*
X3267143Y-10786429D01*
X3267143Y-10715000D01*
X3281428Y-10657857D01*
X3295714Y-10629286D01*
X3310000Y-10615000D01*
X3338571Y-10600714D01*
X3624286Y-10600714D02*
X3652857Y-10600714D01*
X3681428Y-10615000D01*
X3695714Y-10629286D01*
X3710000Y-10657857D01*
X3724286Y-10715000D01*
X3724286Y-10786429D01*
X3710000Y-10843572D01*
X3695714Y-10872143D01*
X3681428Y-10886429D01*
X3652857Y-10900714D01*
X3624286Y-10900714D01*
X3595714Y-10886429D01*
X3581428Y-10872143D01*
X3567143Y-10843572D01*
X3552857Y-10786429D01*
X3552857Y-10715000D01*
X3567143Y-10657857D01*
X3581428Y-10629286D01*
X3595714Y-10615000D01*
X3624286Y-10600714D01*
X3895714Y-10729286D02*
X3867143Y-10715000D01*
X3852857Y-10700714D01*
X3838571Y-10672143D01*
X3838571Y-10657857D01*
X3852857Y-10629286D01*
X3867143Y-10615000D01*
X3895714Y-10600714D01*
X3952857Y-10600714D01*
X3981428Y-10615000D01*
X3995714Y-10629286D01*
X4010000Y-10657857D01*
X4010000Y-10672143D01*
X3995714Y-10700714D01*
X3981428Y-10715000D01*
X3952857Y-10729286D01*
X3895714Y-10729286D01*
X3867143Y-10743572D01*
X3852857Y-10757857D01*
X3838571Y-10786429D01*
X3838571Y-10843572D01*
X3852857Y-10872143D01*
X3867143Y-10886429D01*
X3895714Y-10900714D01*
X3952857Y-10900714D01*
X3981428Y-10886429D01*
X3995714Y-10872143D01*
X4010000Y-10843572D01*
X4010000Y-10786429D01*
X3995714Y-10757857D01*
X3981428Y-10743572D01*
X3952857Y-10729286D01*
X4124286Y-10600714D02*
X4124286Y-10657857D01*
X4238571Y-10600714D02*
X4238571Y-10657857D01*
X4681428Y-11015000D02*
X4667143Y-11000714D01*
X4638571Y-10957857D01*
X4624286Y-10929286D01*
X4610000Y-10886429D01*
X4595714Y-10815000D01*
X4595714Y-10757857D01*
X4610000Y-10686429D01*
X4624286Y-10643572D01*
X4638571Y-10615000D01*
X4667143Y-10572143D01*
X4681428Y-10557857D01*
X4781428Y-10629286D02*
X4795714Y-10615000D01*
X4824286Y-10600714D01*
X4895714Y-10600714D01*
X4924286Y-10615000D01*
X4938571Y-10629286D01*
X4952857Y-10657857D01*
X4952857Y-10686429D01*
X4938571Y-10729286D01*
X4767143Y-10900714D01*
X4952857Y-10900714D01*
X5210000Y-10700714D02*
X5210000Y-10900714D01*
X5138571Y-10586429D02*
X5067143Y-10800714D01*
X5252857Y-10800714D01*
X5595714Y-10900714D02*
X5595714Y-10600714D01*
X5724286Y-10900714D02*
X5724286Y-10743572D01*
X5710000Y-10715000D01*
X5681428Y-10700714D01*
X5638571Y-10700714D01*
X5610000Y-10715000D01*
X5595714Y-10729286D01*
X5910000Y-10900714D02*
X5881428Y-10886429D01*
X5867143Y-10872143D01*
X5852857Y-10843572D01*
X5852857Y-10757857D01*
X5867143Y-10729286D01*
X5881428Y-10715000D01*
X5910000Y-10700714D01*
X5952857Y-10700714D01*
X5981428Y-10715000D01*
X5995714Y-10729286D01*
X6010000Y-10757857D01*
X6010000Y-10843572D01*
X5995714Y-10872143D01*
X5981428Y-10886429D01*
X5952857Y-10900714D01*
X5910000Y-10900714D01*
X6181428Y-10900714D02*
X6152857Y-10886429D01*
X6138571Y-10857857D01*
X6138571Y-10600714D01*
X6410000Y-10886429D02*
X6381428Y-10900714D01*
X6324286Y-10900714D01*
X6295714Y-10886429D01*
X6281428Y-10857857D01*
X6281428Y-10743572D01*
X6295714Y-10715000D01*
X6324286Y-10700714D01*
X6381428Y-10700714D01*
X6410000Y-10715000D01*
X6424286Y-10743572D01*
X6424286Y-10772143D01*
X6281428Y-10800714D01*
X6538571Y-10886429D02*
X6567143Y-10900714D01*
X6624286Y-10900714D01*
X6652857Y-10886429D01*
X6667143Y-10857857D01*
X6667143Y-10843572D01*
X6652857Y-10815000D01*
X6624286Y-10800714D01*
X6581428Y-10800714D01*
X6552857Y-10786429D01*
X6538571Y-10757857D01*
X6538571Y-10743572D01*
X6552857Y-10715000D01*
X6581428Y-10700714D01*
X6624286Y-10700714D01*
X6652857Y-10715000D01*
X6767143Y-11015000D02*
X6781428Y-11000714D01*
X6810000Y-10957857D01*
X6824286Y-10929286D01*
X6838571Y-10886429D01*
X6852857Y-10815000D01*
X6852857Y-10757857D01*
X6838571Y-10686429D01*
X6824286Y-10643572D01*
X6810000Y-10615000D01*
X6781428Y-10572143D01*
X6767143Y-10557857D01*
X-5000Y-11161000D02*
G75*
G03*
X-5000Y-11161000I-15000J0D01*
G01*
X338571Y-10996714D02*
X367143Y-10996714D01*
X395714Y-11011000D01*
X410000Y-11025286D01*
X424286Y-11053857D01*
X438571Y-11111000D01*
X438571Y-11182429D01*
X424286Y-11239571D01*
X410000Y-11268143D01*
X395714Y-11282429D01*
X367143Y-11296714D01*
X338571Y-11296714D01*
X310000Y-11282429D01*
X295714Y-11268143D01*
X281428Y-11239571D01*
X267143Y-11182429D01*
X267143Y-11111000D01*
X281428Y-11053857D01*
X295714Y-11025286D01*
X310000Y-11011000D01*
X338571Y-10996714D01*
X567143Y-11268143D02*
X581428Y-11282429D01*
X567143Y-11296714D01*
X552857Y-11282429D01*
X567143Y-11268143D01*
X567143Y-11296714D01*
X681428Y-10996714D02*
X867143Y-10996714D01*
X767143Y-11111000D01*
X810000Y-11111000D01*
X838571Y-11125286D01*
X852857Y-11139572D01*
X867143Y-11168143D01*
X867143Y-11239571D01*
X852857Y-11268143D01*
X838571Y-11282429D01*
X810000Y-11296714D01*
X724286Y-11296714D01*
X695714Y-11282429D01*
X681428Y-11268143D01*
X1052857Y-10996714D02*
X1081428Y-10996714D01*
X1110000Y-11011000D01*
X1124286Y-11025286D01*
X1138571Y-11053857D01*
X1152857Y-11111000D01*
X1152857Y-11182429D01*
X1138571Y-11239571D01*
X1124286Y-11268143D01*
X1110000Y-11282429D01*
X1081428Y-11296714D01*
X1052857Y-11296714D01*
X1024286Y-11282429D01*
X1010000Y-11268143D01*
X995714Y-11239571D01*
X981428Y-11182429D01*
X981428Y-11111000D01*
X995714Y-11053857D01*
X1010000Y-11025286D01*
X1024286Y-11011000D01*
X1052857Y-10996714D01*
X1281428Y-11296714D02*
X1281428Y-11096714D01*
X1281428Y-11125286D02*
X1295714Y-11111000D01*
X1324286Y-11096714D01*
X1367143Y-11096714D01*
X1395714Y-11111000D01*
X1410000Y-11139572D01*
X1410000Y-11296714D01*
X1410000Y-11139572D02*
X1424286Y-11111000D01*
X1452857Y-11096714D01*
X1495714Y-11096714D01*
X1524286Y-11111000D01*
X1538571Y-11139572D01*
X1538571Y-11296714D01*
X1681428Y-11296714D02*
X1681428Y-11096714D01*
X1681428Y-11125286D02*
X1695714Y-11111000D01*
X1724286Y-11096714D01*
X1767143Y-11096714D01*
X1795714Y-11111000D01*
X1810000Y-11139572D01*
X1810000Y-11296714D01*
X1810000Y-11139572D02*
X1824286Y-11111000D01*
X1852857Y-11096714D01*
X1895714Y-11096714D01*
X1924286Y-11111000D01*
X1938571Y-11139572D01*
X1938571Y-11296714D01*
X2524286Y-10982429D02*
X2267143Y-11368143D01*
X2910000Y-10996714D02*
X2938571Y-10996714D01*
X2967143Y-11011000D01*
X2981428Y-11025286D01*
X2995714Y-11053857D01*
X3010000Y-11111000D01*
X3010000Y-11182429D01*
X2995714Y-11239571D01*
X2981428Y-11268143D01*
X2967143Y-11282429D01*
X2938571Y-11296714D01*
X2910000Y-11296714D01*
X2881428Y-11282429D01*
X2867143Y-11268143D01*
X2852857Y-11239571D01*
X2838571Y-11182429D01*
X2838571Y-11111000D01*
X2852857Y-11053857D01*
X2867143Y-11025286D01*
X2881428Y-11011000D01*
X2910000Y-10996714D01*
X3138571Y-11268143D02*
X3152857Y-11282429D01*
X3138571Y-11296714D01*
X3124286Y-11282429D01*
X3138571Y-11268143D01*
X3138571Y-11296714D01*
X3338571Y-10996714D02*
X3367143Y-10996714D01*
X3395714Y-11011000D01*
X3410000Y-11025286D01*
X3424286Y-11053857D01*
X3438571Y-11111000D01*
X3438571Y-11182429D01*
X3424286Y-11239571D01*
X3410000Y-11268143D01*
X3395714Y-11282429D01*
X3367143Y-11296714D01*
X3338571Y-11296714D01*
X3310000Y-11282429D01*
X3295714Y-11268143D01*
X3281428Y-11239571D01*
X3267143Y-11182429D01*
X3267143Y-11111000D01*
X3281428Y-11053857D01*
X3295714Y-11025286D01*
X3310000Y-11011000D01*
X3338571Y-10996714D01*
X3724286Y-11296714D02*
X3552857Y-11296714D01*
X3638571Y-11296714D02*
X3638571Y-10996714D01*
X3610000Y-11039572D01*
X3581428Y-11068143D01*
X3552857Y-11082429D01*
X3838571Y-11025286D02*
X3852857Y-11011000D01*
X3881428Y-10996714D01*
X3952857Y-10996714D01*
X3981428Y-11011000D01*
X3995714Y-11025286D01*
X4010000Y-11053857D01*
X4010000Y-11082429D01*
X3995714Y-11125286D01*
X3824286Y-11296714D01*
X4010000Y-11296714D01*
X4124286Y-10996714D02*
X4124286Y-11053857D01*
X4238571Y-10996714D02*
X4238571Y-11053857D01*
X4681428Y-11411000D02*
X4667143Y-11396714D01*
X4638571Y-11353857D01*
X4624286Y-11325286D01*
X4610000Y-11282429D01*
X4595714Y-11211000D01*
X4595714Y-11153857D01*
X4610000Y-11082429D01*
X4624286Y-11039572D01*
X4638571Y-11011000D01*
X4667143Y-10968143D01*
X4681428Y-10953857D01*
X4781428Y-11025286D02*
X4795714Y-11011000D01*
X4824286Y-10996714D01*
X4895714Y-10996714D01*
X4924286Y-11011000D01*
X4938571Y-11025286D01*
X4952857Y-11053857D01*
X4952857Y-11082429D01*
X4938571Y-11125286D01*
X4767143Y-11296714D01*
X4952857Y-11296714D01*
X5224286Y-10996714D02*
X5081428Y-10996714D01*
X5067143Y-11139572D01*
X5081428Y-11125286D01*
X5110000Y-11111000D01*
X5181428Y-11111000D01*
X5210000Y-11125286D01*
X5224286Y-11139572D01*
X5238571Y-11168143D01*
X5238571Y-11239571D01*
X5224286Y-11268143D01*
X5210000Y-11282429D01*
X5181428Y-11296714D01*
X5110000Y-11296714D01*
X5081428Y-11282429D01*
X5067143Y-11268143D01*
X5595714Y-11296714D02*
X5595714Y-10996714D01*
X5724286Y-11296714D02*
X5724286Y-11139572D01*
X5710000Y-11111000D01*
X5681428Y-11096714D01*
X5638571Y-11096714D01*
X5610000Y-11111000D01*
X5595714Y-11125286D01*
X5910000Y-11296714D02*
X5881428Y-11282429D01*
X5867143Y-11268143D01*
X5852857Y-11239571D01*
X5852857Y-11153857D01*
X5867143Y-11125286D01*
X5881428Y-11111000D01*
X5910000Y-11096714D01*
X5952857Y-11096714D01*
X5981428Y-11111000D01*
X5995714Y-11125286D01*
X6010000Y-11153857D01*
X6010000Y-11239571D01*
X5995714Y-11268143D01*
X5981428Y-11282429D01*
X5952857Y-11296714D01*
X5910000Y-11296714D01*
X6181428Y-11296714D02*
X6152857Y-11282429D01*
X6138571Y-11253857D01*
X6138571Y-10996714D01*
X6410000Y-11282429D02*
X6381428Y-11296714D01*
X6324286Y-11296714D01*
X6295714Y-11282429D01*
X6281428Y-11253857D01*
X6281428Y-11139572D01*
X6295714Y-11111000D01*
X6324286Y-11096714D01*
X6381428Y-11096714D01*
X6410000Y-11111000D01*
X6424286Y-11139572D01*
X6424286Y-11168143D01*
X6281428Y-11196714D01*
X6538571Y-11282429D02*
X6567143Y-11296714D01*
X6624286Y-11296714D01*
X6652857Y-11282429D01*
X6667143Y-11253857D01*
X6667143Y-11239571D01*
X6652857Y-11211000D01*
X6624286Y-11196714D01*
X6581428Y-11196714D01*
X6552857Y-11182429D01*
X6538571Y-11153857D01*
X6538571Y-11139572D01*
X6552857Y-11111000D01*
X6581428Y-11096714D01*
X6624286Y-11096714D01*
X6652857Y-11111000D01*
X6767143Y-11411000D02*
X6781428Y-11396714D01*
X6810000Y-11353857D01*
X6824286Y-11325286D01*
X6838571Y-11282429D01*
X6852857Y-11211000D01*
X6852857Y-11153857D01*
X6838571Y-11082429D01*
X6824286Y-11039572D01*
X6810000Y-11011000D01*
X6781428Y-10968143D01*
X6767143Y-10953857D01*
X-25000Y-11537000D02*
X-25000Y-11577000D01*
X-45000Y-11557000D02*
X-5000Y-11557000D01*
X338571Y-11392714D02*
X367143Y-11392714D01*
X395714Y-11407000D01*
X410000Y-11421286D01*
X424286Y-11449857D01*
X438571Y-11507000D01*
X438571Y-11578429D01*
X424286Y-11635571D01*
X410000Y-11664143D01*
X395714Y-11678429D01*
X367143Y-11692714D01*
X338571Y-11692714D01*
X310000Y-11678429D01*
X295714Y-11664143D01*
X281428Y-11635571D01*
X267143Y-11578429D01*
X267143Y-11507000D01*
X281428Y-11449857D01*
X295714Y-11421286D01*
X310000Y-11407000D01*
X338571Y-11392714D01*
X567143Y-11664143D02*
X581428Y-11678429D01*
X567143Y-11692714D01*
X552857Y-11678429D01*
X567143Y-11664143D01*
X567143Y-11692714D01*
X838571Y-11492714D02*
X838571Y-11692714D01*
X767143Y-11378429D02*
X695714Y-11592714D01*
X881428Y-11592714D01*
X1052857Y-11392714D02*
X1081428Y-11392714D01*
X1110000Y-11407000D01*
X1124286Y-11421286D01*
X1138571Y-11449857D01*
X1152857Y-11507000D01*
X1152857Y-11578429D01*
X1138571Y-11635571D01*
X1124286Y-11664143D01*
X1110000Y-11678429D01*
X1081428Y-11692714D01*
X1052857Y-11692714D01*
X1024286Y-11678429D01*
X1010000Y-11664143D01*
X995714Y-11635571D01*
X981428Y-11578429D01*
X981428Y-11507000D01*
X995714Y-11449857D01*
X1010000Y-11421286D01*
X1024286Y-11407000D01*
X1052857Y-11392714D01*
X1281428Y-11692714D02*
X1281428Y-11492714D01*
X1281428Y-11521286D02*
X1295714Y-11507000D01*
X1324286Y-11492714D01*
X1367143Y-11492714D01*
X1395714Y-11507000D01*
X1410000Y-11535571D01*
X1410000Y-11692714D01*
X1410000Y-11535571D02*
X1424286Y-11507000D01*
X1452857Y-11492714D01*
X1495714Y-11492714D01*
X1524286Y-11507000D01*
X1538571Y-11535571D01*
X1538571Y-11692714D01*
X1681428Y-11692714D02*
X1681428Y-11492714D01*
X1681428Y-11521286D02*
X1695714Y-11507000D01*
X1724286Y-11492714D01*
X1767143Y-11492714D01*
X1795714Y-11507000D01*
X1810000Y-11535571D01*
X1810000Y-11692714D01*
X1810000Y-11535571D02*
X1824286Y-11507000D01*
X1852857Y-11492714D01*
X1895714Y-11492714D01*
X1924286Y-11507000D01*
X1938571Y-11535571D01*
X1938571Y-11692714D01*
X2524286Y-11378429D02*
X2267143Y-11764143D01*
X2910000Y-11392714D02*
X2938571Y-11392714D01*
X2967143Y-11407000D01*
X2981428Y-11421286D01*
X2995714Y-11449857D01*
X3010000Y-11507000D01*
X3010000Y-11578429D01*
X2995714Y-11635571D01*
X2981428Y-11664143D01*
X2967143Y-11678429D01*
X2938571Y-11692714D01*
X2910000Y-11692714D01*
X2881428Y-11678429D01*
X2867143Y-11664143D01*
X2852857Y-11635571D01*
X2838571Y-11578429D01*
X2838571Y-11507000D01*
X2852857Y-11449857D01*
X2867143Y-11421286D01*
X2881428Y-11407000D01*
X2910000Y-11392714D01*
X3138571Y-11664143D02*
X3152857Y-11678429D01*
X3138571Y-11692714D01*
X3124286Y-11678429D01*
X3138571Y-11664143D01*
X3138571Y-11692714D01*
X3338571Y-11392714D02*
X3367143Y-11392714D01*
X3395714Y-11407000D01*
X3410000Y-11421286D01*
X3424286Y-11449857D01*
X3438571Y-11507000D01*
X3438571Y-11578429D01*
X3424286Y-11635571D01*
X3410000Y-11664143D01*
X3395714Y-11678429D01*
X3367143Y-11692714D01*
X3338571Y-11692714D01*
X3310000Y-11678429D01*
X3295714Y-11664143D01*
X3281428Y-11635571D01*
X3267143Y-11578429D01*
X3267143Y-11507000D01*
X3281428Y-11449857D01*
X3295714Y-11421286D01*
X3310000Y-11407000D01*
X3338571Y-11392714D01*
X3724286Y-11692714D02*
X3552857Y-11692714D01*
X3638571Y-11692714D02*
X3638571Y-11392714D01*
X3610000Y-11435571D01*
X3581428Y-11464143D01*
X3552857Y-11478429D01*
X3981428Y-11392714D02*
X3924286Y-11392714D01*
X3895714Y-11407000D01*
X3881428Y-11421286D01*
X3852857Y-11464143D01*
X3838571Y-11521286D01*
X3838571Y-11635571D01*
X3852857Y-11664143D01*
X3867143Y-11678429D01*
X3895714Y-11692714D01*
X3952857Y-11692714D01*
X3981428Y-11678429D01*
X3995714Y-11664143D01*
X4010000Y-11635571D01*
X4010000Y-11564143D01*
X3995714Y-11535571D01*
X3981428Y-11521286D01*
X3952857Y-11507000D01*
X3895714Y-11507000D01*
X3867143Y-11521286D01*
X3852857Y-11535571D01*
X3838571Y-11564143D01*
X4124286Y-11392714D02*
X4124286Y-11449857D01*
X4238571Y-11392714D02*
X4238571Y-11449857D01*
X4681428Y-11807000D02*
X4667143Y-11792714D01*
X4638571Y-11749857D01*
X4624286Y-11721286D01*
X4610000Y-11678429D01*
X4595714Y-11607000D01*
X4595714Y-11549857D01*
X4610000Y-11478429D01*
X4624286Y-11435571D01*
X4638571Y-11407000D01*
X4667143Y-11364143D01*
X4681428Y-11349857D01*
X4938571Y-11392714D02*
X4795714Y-11392714D01*
X4781428Y-11535571D01*
X4795714Y-11521286D01*
X4824286Y-11507000D01*
X4895714Y-11507000D01*
X4924286Y-11521286D01*
X4938571Y-11535571D01*
X4952857Y-11564143D01*
X4952857Y-11635571D01*
X4938571Y-11664143D01*
X4924286Y-11678429D01*
X4895714Y-11692714D01*
X4824286Y-11692714D01*
X4795714Y-11678429D01*
X4781428Y-11664143D01*
X5210000Y-11392714D02*
X5152857Y-11392714D01*
X5124286Y-11407000D01*
X5110000Y-11421286D01*
X5081428Y-11464143D01*
X5067143Y-11521286D01*
X5067143Y-11635571D01*
X5081428Y-11664143D01*
X5095714Y-11678429D01*
X5124286Y-11692714D01*
X5181428Y-11692714D01*
X5210000Y-11678429D01*
X5224286Y-11664143D01*
X5238571Y-11635571D01*
X5238571Y-11564143D01*
X5224286Y-11535571D01*
X5210000Y-11521286D01*
X5181428Y-11507000D01*
X5124286Y-11507000D01*
X5095714Y-11521286D01*
X5081428Y-11535571D01*
X5067143Y-11564143D01*
X5510000Y-11392714D02*
X5367143Y-11392714D01*
X5352857Y-11535571D01*
X5367143Y-11521286D01*
X5395714Y-11507000D01*
X5467143Y-11507000D01*
X5495714Y-11521286D01*
X5510000Y-11535571D01*
X5524286Y-11564143D01*
X5524286Y-11635571D01*
X5510000Y-11664143D01*
X5495714Y-11678429D01*
X5467143Y-11692714D01*
X5395714Y-11692714D01*
X5367143Y-11678429D01*
X5352857Y-11664143D01*
X5881428Y-11692714D02*
X5881428Y-11392714D01*
X6010000Y-11692714D02*
X6010000Y-11535571D01*
X5995714Y-11507000D01*
X5967143Y-11492714D01*
X5924286Y-11492714D01*
X5895714Y-11507000D01*
X5881428Y-11521286D01*
X6195714Y-11692714D02*
X6167143Y-11678429D01*
X6152857Y-11664143D01*
X6138571Y-11635571D01*
X6138571Y-11549857D01*
X6152857Y-11521286D01*
X6167143Y-11507000D01*
X6195714Y-11492714D01*
X6238571Y-11492714D01*
X6267143Y-11507000D01*
X6281428Y-11521286D01*
X6295714Y-11549857D01*
X6295714Y-11635571D01*
X6281428Y-11664143D01*
X6267143Y-11678429D01*
X6238571Y-11692714D01*
X6195714Y-11692714D01*
X6467143Y-11692714D02*
X6438571Y-11678429D01*
X6424286Y-11649857D01*
X6424286Y-11392714D01*
X6695714Y-11678429D02*
X6667143Y-11692714D01*
X6610000Y-11692714D01*
X6581428Y-11678429D01*
X6567143Y-11649857D01*
X6567143Y-11535571D01*
X6581428Y-11507000D01*
X6610000Y-11492714D01*
X6667143Y-11492714D01*
X6695714Y-11507000D01*
X6710000Y-11535571D01*
X6710000Y-11564143D01*
X6567143Y-11592714D01*
X6824286Y-11678429D02*
X6852857Y-11692714D01*
X6910000Y-11692714D01*
X6938571Y-11678429D01*
X6952857Y-11649857D01*
X6952857Y-11635571D01*
X6938571Y-11607000D01*
X6910000Y-11592714D01*
X6867143Y-11592714D01*
X6838571Y-11578429D01*
X6824286Y-11549857D01*
X6824286Y-11535571D01*
X6838571Y-11507000D01*
X6867143Y-11492714D01*
X6910000Y-11492714D01*
X6938571Y-11507000D01*
X7052857Y-11807000D02*
X7067143Y-11792714D01*
X7095714Y-11749857D01*
X7110000Y-11721286D01*
X7124286Y-11678429D01*
X7138571Y-11607000D01*
X7138571Y-11549857D01*
X7124286Y-11478429D01*
X7110000Y-11435571D01*
X7095714Y-11407000D01*
X7067143Y-11364143D01*
X7052857Y-11349857D01*
X-12322Y-11970678D02*
X-12322Y-11935322D01*
X-47678Y-11935322D01*
X-47678Y-11970678D01*
X-12322Y-11970678D01*
X338571Y-11788714D02*
X367143Y-11788714D01*
X395714Y-11803000D01*
X410000Y-11817286D01*
X424286Y-11845857D01*
X438571Y-11903000D01*
X438571Y-11974429D01*
X424286Y-12031571D01*
X410000Y-12060143D01*
X395714Y-12074429D01*
X367143Y-12088714D01*
X338571Y-12088714D01*
X310000Y-12074429D01*
X295714Y-12060143D01*
X281428Y-12031571D01*
X267143Y-11974429D01*
X267143Y-11903000D01*
X281428Y-11845857D01*
X295714Y-11817286D01*
X310000Y-11803000D01*
X338571Y-11788714D01*
X567143Y-12060143D02*
X581428Y-12074429D01*
X567143Y-12088714D01*
X552857Y-12074429D01*
X567143Y-12060143D01*
X567143Y-12088714D01*
X852857Y-11788714D02*
X710000Y-11788714D01*
X695714Y-11931571D01*
X710000Y-11917286D01*
X738571Y-11903000D01*
X810000Y-11903000D01*
X838571Y-11917286D01*
X852857Y-11931571D01*
X867143Y-11960143D01*
X867143Y-12031571D01*
X852857Y-12060143D01*
X838571Y-12074429D01*
X810000Y-12088714D01*
X738571Y-12088714D01*
X710000Y-12074429D01*
X695714Y-12060143D01*
X1052857Y-11788714D02*
X1081428Y-11788714D01*
X1110000Y-11803000D01*
X1124286Y-11817286D01*
X1138571Y-11845857D01*
X1152857Y-11903000D01*
X1152857Y-11974429D01*
X1138571Y-12031571D01*
X1124286Y-12060143D01*
X1110000Y-12074429D01*
X1081428Y-12088714D01*
X1052857Y-12088714D01*
X1024286Y-12074429D01*
X1010000Y-12060143D01*
X995714Y-12031571D01*
X981428Y-11974429D01*
X981428Y-11903000D01*
X995714Y-11845857D01*
X1010000Y-11817286D01*
X1024286Y-11803000D01*
X1052857Y-11788714D01*
X1281428Y-12088714D02*
X1281428Y-11888714D01*
X1281428Y-11917286D02*
X1295714Y-11903000D01*
X1324286Y-11888714D01*
X1367143Y-11888714D01*
X1395714Y-11903000D01*
X1410000Y-11931571D01*
X1410000Y-12088714D01*
X1410000Y-11931571D02*
X1424286Y-11903000D01*
X1452857Y-11888714D01*
X1495714Y-11888714D01*
X1524286Y-11903000D01*
X1538571Y-11931571D01*
X1538571Y-12088714D01*
X1681428Y-12088714D02*
X1681428Y-11888714D01*
X1681428Y-11917286D02*
X1695714Y-11903000D01*
X1724286Y-11888714D01*
X1767143Y-11888714D01*
X1795714Y-11903000D01*
X1810000Y-11931571D01*
X1810000Y-12088714D01*
X1810000Y-11931571D02*
X1824286Y-11903000D01*
X1852857Y-11888714D01*
X1895714Y-11888714D01*
X1924286Y-11903000D01*
X1938571Y-11931571D01*
X1938571Y-12088714D01*
X2524286Y-11774429D02*
X2267143Y-12160143D01*
X2910000Y-11788714D02*
X2938571Y-11788714D01*
X2967143Y-11803000D01*
X2981428Y-11817286D01*
X2995714Y-11845857D01*
X3010000Y-11903000D01*
X3010000Y-11974429D01*
X2995714Y-12031571D01*
X2981428Y-12060143D01*
X2967143Y-12074429D01*
X2938571Y-12088714D01*
X2910000Y-12088714D01*
X2881428Y-12074429D01*
X2867143Y-12060143D01*
X2852857Y-12031571D01*
X2838571Y-11974429D01*
X2838571Y-11903000D01*
X2852857Y-11845857D01*
X2867143Y-11817286D01*
X2881428Y-11803000D01*
X2910000Y-11788714D01*
X3138571Y-12060143D02*
X3152857Y-12074429D01*
X3138571Y-12088714D01*
X3124286Y-12074429D01*
X3138571Y-12060143D01*
X3138571Y-12088714D01*
X3338571Y-11788714D02*
X3367143Y-11788714D01*
X3395714Y-11803000D01*
X3410000Y-11817286D01*
X3424286Y-11845857D01*
X3438571Y-11903000D01*
X3438571Y-11974429D01*
X3424286Y-12031571D01*
X3410000Y-12060143D01*
X3395714Y-12074429D01*
X3367143Y-12088714D01*
X3338571Y-12088714D01*
X3310000Y-12074429D01*
X3295714Y-12060143D01*
X3281428Y-12031571D01*
X3267143Y-11974429D01*
X3267143Y-11903000D01*
X3281428Y-11845857D01*
X3295714Y-11817286D01*
X3310000Y-11803000D01*
X3338571Y-11788714D01*
X3552857Y-11817286D02*
X3567143Y-11803000D01*
X3595714Y-11788714D01*
X3667143Y-11788714D01*
X3695714Y-11803000D01*
X3710000Y-11817286D01*
X3724286Y-11845857D01*
X3724286Y-11874429D01*
X3710000Y-11917286D01*
X3538571Y-12088714D01*
X3724286Y-12088714D01*
X3910000Y-11788714D02*
X3938571Y-11788714D01*
X3967143Y-11803000D01*
X3981428Y-11817286D01*
X3995714Y-11845857D01*
X4010000Y-11903000D01*
X4010000Y-11974429D01*
X3995714Y-12031571D01*
X3981428Y-12060143D01*
X3967143Y-12074429D01*
X3938571Y-12088714D01*
X3910000Y-12088714D01*
X3881428Y-12074429D01*
X3867143Y-12060143D01*
X3852857Y-12031571D01*
X3838571Y-11974429D01*
X3838571Y-11903000D01*
X3852857Y-11845857D01*
X3867143Y-11817286D01*
X3881428Y-11803000D01*
X3910000Y-11788714D01*
X4124286Y-11788714D02*
X4124286Y-11845857D01*
X4238571Y-11788714D02*
X4238571Y-11845857D01*
X4681428Y-12203000D02*
X4667143Y-12188714D01*
X4638571Y-12145857D01*
X4624286Y-12117286D01*
X4610000Y-12074429D01*
X4595714Y-12003000D01*
X4595714Y-11945857D01*
X4610000Y-11874429D01*
X4624286Y-11831571D01*
X4638571Y-11803000D01*
X4667143Y-11760143D01*
X4681428Y-11745857D01*
X4838571Y-11917286D02*
X4810000Y-11903000D01*
X4795714Y-11888714D01*
X4781428Y-11860143D01*
X4781428Y-11845857D01*
X4795714Y-11817286D01*
X4810000Y-11803000D01*
X4838571Y-11788714D01*
X4895714Y-11788714D01*
X4924286Y-11803000D01*
X4938571Y-11817286D01*
X4952857Y-11845857D01*
X4952857Y-11860143D01*
X4938571Y-11888714D01*
X4924286Y-11903000D01*
X4895714Y-11917286D01*
X4838571Y-11917286D01*
X4810000Y-11931571D01*
X4795714Y-11945857D01*
X4781428Y-11974429D01*
X4781428Y-12031571D01*
X4795714Y-12060143D01*
X4810000Y-12074429D01*
X4838571Y-12088714D01*
X4895714Y-12088714D01*
X4924286Y-12074429D01*
X4938571Y-12060143D01*
X4952857Y-12031571D01*
X4952857Y-11974429D01*
X4938571Y-11945857D01*
X4924286Y-11931571D01*
X4895714Y-11917286D01*
X5310000Y-12088714D02*
X5310000Y-11788714D01*
X5438571Y-12088714D02*
X5438571Y-11931571D01*
X5424286Y-11903000D01*
X5395714Y-11888714D01*
X5352857Y-11888714D01*
X5324286Y-11903000D01*
X5310000Y-11917286D01*
X5624286Y-12088714D02*
X5595714Y-12074429D01*
X5581428Y-12060143D01*
X5567143Y-12031571D01*
X5567143Y-11945857D01*
X5581428Y-11917286D01*
X5595714Y-11903000D01*
X5624286Y-11888714D01*
X5667143Y-11888714D01*
X5695714Y-11903000D01*
X5710000Y-11917286D01*
X5724286Y-11945857D01*
X5724286Y-12031571D01*
X5710000Y-12060143D01*
X5695714Y-12074429D01*
X5667143Y-12088714D01*
X5624286Y-12088714D01*
X5895714Y-12088714D02*
X5867143Y-12074429D01*
X5852857Y-12045857D01*
X5852857Y-11788714D01*
X6124286Y-12074429D02*
X6095714Y-12088714D01*
X6038571Y-12088714D01*
X6010000Y-12074429D01*
X5995714Y-12045857D01*
X5995714Y-11931571D01*
X6010000Y-11903000D01*
X6038571Y-11888714D01*
X6095714Y-11888714D01*
X6124286Y-11903000D01*
X6138571Y-11931571D01*
X6138571Y-11960143D01*
X5995714Y-11988714D01*
X6252857Y-12074429D02*
X6281428Y-12088714D01*
X6338571Y-12088714D01*
X6367143Y-12074429D01*
X6381428Y-12045857D01*
X6381428Y-12031571D01*
X6367143Y-12003000D01*
X6338571Y-11988714D01*
X6295714Y-11988714D01*
X6267143Y-11974429D01*
X6252857Y-11945857D01*
X6252857Y-11931571D01*
X6267143Y-11903000D01*
X6295714Y-11888714D01*
X6338571Y-11888714D01*
X6367143Y-11903000D01*
X6481428Y-12203000D02*
X6495714Y-12188714D01*
X6524286Y-12145857D01*
X6538571Y-12117286D01*
X6552857Y-12074429D01*
X6567143Y-12003000D01*
X6567143Y-11945857D01*
X6552857Y-11874429D01*
X6538571Y-11831571D01*
X6524286Y-11803000D01*
X6495714Y-11760143D01*
X6481428Y-11745857D01*
X-42500Y-12386500D02*
X-5000Y-12349000D01*
X-42500Y-12311500D01*
X-80000Y-12349000D01*
X-42500Y-12386500D01*
X338571Y-12184714D02*
X367143Y-12184714D01*
X395714Y-12199000D01*
X410000Y-12213286D01*
X424286Y-12241857D01*
X438571Y-12299000D01*
X438571Y-12370429D01*
X424286Y-12427571D01*
X410000Y-12456143D01*
X395714Y-12470429D01*
X367143Y-12484714D01*
X338571Y-12484714D01*
X310000Y-12470429D01*
X295714Y-12456143D01*
X281428Y-12427571D01*
X267143Y-12370429D01*
X267143Y-12299000D01*
X281428Y-12241857D01*
X295714Y-12213286D01*
X310000Y-12199000D01*
X338571Y-12184714D01*
X567143Y-12456143D02*
X581428Y-12470429D01*
X567143Y-12484714D01*
X552857Y-12470429D01*
X567143Y-12456143D01*
X567143Y-12484714D01*
X681428Y-12184714D02*
X881428Y-12184714D01*
X752857Y-12484714D01*
X1138571Y-12184714D02*
X995714Y-12184714D01*
X981428Y-12327571D01*
X995714Y-12313286D01*
X1024286Y-12299000D01*
X1095714Y-12299000D01*
X1124286Y-12313286D01*
X1138571Y-12327571D01*
X1152857Y-12356143D01*
X1152857Y-12427571D01*
X1138571Y-12456143D01*
X1124286Y-12470429D01*
X1095714Y-12484714D01*
X1024286Y-12484714D01*
X995714Y-12470429D01*
X981428Y-12456143D01*
X1281428Y-12484714D02*
X1281428Y-12284714D01*
X1281428Y-12313286D02*
X1295714Y-12299000D01*
X1324286Y-12284714D01*
X1367143Y-12284714D01*
X1395714Y-12299000D01*
X1410000Y-12327571D01*
X1410000Y-12484714D01*
X1410000Y-12327571D02*
X1424286Y-12299000D01*
X1452857Y-12284714D01*
X1495714Y-12284714D01*
X1524286Y-12299000D01*
X1538571Y-12327571D01*
X1538571Y-12484714D01*
X1681428Y-12484714D02*
X1681428Y-12284714D01*
X1681428Y-12313286D02*
X1695714Y-12299000D01*
X1724286Y-12284714D01*
X1767143Y-12284714D01*
X1795714Y-12299000D01*
X1810000Y-12327571D01*
X1810000Y-12484714D01*
X1810000Y-12327571D02*
X1824286Y-12299000D01*
X1852857Y-12284714D01*
X1895714Y-12284714D01*
X1924286Y-12299000D01*
X1938571Y-12327571D01*
X1938571Y-12484714D01*
X2524286Y-12170429D02*
X2267143Y-12556143D01*
X2910000Y-12184714D02*
X2938571Y-12184714D01*
X2967143Y-12199000D01*
X2981428Y-12213286D01*
X2995714Y-12241857D01*
X3010000Y-12299000D01*
X3010000Y-12370429D01*
X2995714Y-12427571D01*
X2981428Y-12456143D01*
X2967143Y-12470429D01*
X2938571Y-12484714D01*
X2910000Y-12484714D01*
X2881428Y-12470429D01*
X2867143Y-12456143D01*
X2852857Y-12427571D01*
X2838571Y-12370429D01*
X2838571Y-12299000D01*
X2852857Y-12241857D01*
X2867143Y-12213286D01*
X2881428Y-12199000D01*
X2910000Y-12184714D01*
X3138571Y-12456143D02*
X3152857Y-12470429D01*
X3138571Y-12484714D01*
X3124286Y-12470429D01*
X3138571Y-12456143D01*
X3138571Y-12484714D01*
X3338571Y-12184714D02*
X3367143Y-12184714D01*
X3395714Y-12199000D01*
X3410000Y-12213286D01*
X3424286Y-12241857D01*
X3438571Y-12299000D01*
X3438571Y-12370429D01*
X3424286Y-12427571D01*
X3410000Y-12456143D01*
X3395714Y-12470429D01*
X3367143Y-12484714D01*
X3338571Y-12484714D01*
X3310000Y-12470429D01*
X3295714Y-12456143D01*
X3281428Y-12427571D01*
X3267143Y-12370429D01*
X3267143Y-12299000D01*
X3281428Y-12241857D01*
X3295714Y-12213286D01*
X3310000Y-12199000D01*
X3338571Y-12184714D01*
X3538571Y-12184714D02*
X3724286Y-12184714D01*
X3624286Y-12299000D01*
X3667143Y-12299000D01*
X3695714Y-12313286D01*
X3710000Y-12327571D01*
X3724286Y-12356143D01*
X3724286Y-12427571D01*
X3710000Y-12456143D01*
X3695714Y-12470429D01*
X3667143Y-12484714D01*
X3581428Y-12484714D01*
X3552857Y-12470429D01*
X3538571Y-12456143D01*
X3910000Y-12184714D02*
X3938571Y-12184714D01*
X3967143Y-12199000D01*
X3981428Y-12213286D01*
X3995714Y-12241857D01*
X4010000Y-12299000D01*
X4010000Y-12370429D01*
X3995714Y-12427571D01*
X3981428Y-12456143D01*
X3967143Y-12470429D01*
X3938571Y-12484714D01*
X3910000Y-12484714D01*
X3881428Y-12470429D01*
X3867143Y-12456143D01*
X3852857Y-12427571D01*
X3838571Y-12370429D01*
X3838571Y-12299000D01*
X3852857Y-12241857D01*
X3867143Y-12213286D01*
X3881428Y-12199000D01*
X3910000Y-12184714D01*
X4124286Y-12184714D02*
X4124286Y-12241857D01*
X4238571Y-12184714D02*
X4238571Y-12241857D01*
X4681428Y-12599000D02*
X4667143Y-12584714D01*
X4638571Y-12541857D01*
X4624286Y-12513286D01*
X4610000Y-12470429D01*
X4595714Y-12399000D01*
X4595714Y-12341857D01*
X4610000Y-12270429D01*
X4624286Y-12227571D01*
X4638571Y-12199000D01*
X4667143Y-12156143D01*
X4681428Y-12141857D01*
X4924286Y-12284714D02*
X4924286Y-12484714D01*
X4852857Y-12170429D02*
X4781428Y-12384714D01*
X4967143Y-12384714D01*
X5310000Y-12484714D02*
X5310000Y-12184714D01*
X5438571Y-12484714D02*
X5438571Y-12327571D01*
X5424286Y-12299000D01*
X5395714Y-12284714D01*
X5352857Y-12284714D01*
X5324286Y-12299000D01*
X5310000Y-12313286D01*
X5624286Y-12484714D02*
X5595714Y-12470429D01*
X5581428Y-12456143D01*
X5567143Y-12427571D01*
X5567143Y-12341857D01*
X5581428Y-12313286D01*
X5595714Y-12299000D01*
X5624286Y-12284714D01*
X5667143Y-12284714D01*
X5695714Y-12299000D01*
X5710000Y-12313286D01*
X5724286Y-12341857D01*
X5724286Y-12427571D01*
X5710000Y-12456143D01*
X5695714Y-12470429D01*
X5667143Y-12484714D01*
X5624286Y-12484714D01*
X5895714Y-12484714D02*
X5867143Y-12470429D01*
X5852857Y-12441857D01*
X5852857Y-12184714D01*
X6124286Y-12470429D02*
X6095714Y-12484714D01*
X6038571Y-12484714D01*
X6010000Y-12470429D01*
X5995714Y-12441857D01*
X5995714Y-12327571D01*
X6010000Y-12299000D01*
X6038571Y-12284714D01*
X6095714Y-12284714D01*
X6124286Y-12299000D01*
X6138571Y-12327571D01*
X6138571Y-12356143D01*
X5995714Y-12384714D01*
X6252857Y-12470429D02*
X6281428Y-12484714D01*
X6338571Y-12484714D01*
X6367143Y-12470429D01*
X6381428Y-12441857D01*
X6381428Y-12427571D01*
X6367143Y-12399000D01*
X6338571Y-12384714D01*
X6295714Y-12384714D01*
X6267143Y-12370429D01*
X6252857Y-12341857D01*
X6252857Y-12327571D01*
X6267143Y-12299000D01*
X6295714Y-12284714D01*
X6338571Y-12284714D01*
X6367143Y-12299000D01*
X6481428Y-12599000D02*
X6495714Y-12584714D01*
X6524286Y-12541857D01*
X6538571Y-12513286D01*
X6552857Y-12470429D01*
X6567143Y-12399000D01*
X6567143Y-12341857D01*
X6552857Y-12270429D01*
X6538571Y-12227571D01*
X6524286Y-12199000D01*
X6495714Y-12156143D01*
X6481428Y-12141857D01*
X-105000Y-12695000D02*
X-5000Y-12795000D01*
X-5000Y-12695000D02*
X-105000Y-12795000D01*
X-5000Y-12745000D02*
G75*
G03*
X-5000Y-12745000I-50000J0D01*
G01*
X438571Y-12880714D02*
X267143Y-12880714D01*
X352857Y-12880714D02*
X352857Y-12580714D01*
X324286Y-12623571D01*
X295714Y-12652143D01*
X267143Y-12666429D01*
X567143Y-12852143D02*
X581428Y-12866429D01*
X567143Y-12880714D01*
X552857Y-12866429D01*
X567143Y-12852143D01*
X567143Y-12880714D01*
X767143Y-12580714D02*
X795714Y-12580714D01*
X824286Y-12595000D01*
X838571Y-12609286D01*
X852857Y-12637857D01*
X867143Y-12695000D01*
X867143Y-12766429D01*
X852857Y-12823571D01*
X838571Y-12852143D01*
X824286Y-12866429D01*
X795714Y-12880714D01*
X767143Y-12880714D01*
X738571Y-12866429D01*
X724286Y-12852143D01*
X710000Y-12823571D01*
X695714Y-12766429D01*
X695714Y-12695000D01*
X710000Y-12637857D01*
X724286Y-12609286D01*
X738571Y-12595000D01*
X767143Y-12580714D01*
X1052857Y-12580714D02*
X1081428Y-12580714D01*
X1110000Y-12595000D01*
X1124286Y-12609286D01*
X1138571Y-12637857D01*
X1152857Y-12695000D01*
X1152857Y-12766429D01*
X1138571Y-12823571D01*
X1124286Y-12852143D01*
X1110000Y-12866429D01*
X1081428Y-12880714D01*
X1052857Y-12880714D01*
X1024286Y-12866429D01*
X1010000Y-12852143D01*
X995714Y-12823571D01*
X981428Y-12766429D01*
X981428Y-12695000D01*
X995714Y-12637857D01*
X1010000Y-12609286D01*
X1024286Y-12595000D01*
X1052857Y-12580714D01*
X1281428Y-12880714D02*
X1281428Y-12680714D01*
X1281428Y-12709286D02*
X1295714Y-12695000D01*
X1324286Y-12680714D01*
X1367143Y-12680714D01*
X1395714Y-12695000D01*
X1410000Y-12723571D01*
X1410000Y-12880714D01*
X1410000Y-12723571D02*
X1424286Y-12695000D01*
X1452857Y-12680714D01*
X1495714Y-12680714D01*
X1524286Y-12695000D01*
X1538571Y-12723571D01*
X1538571Y-12880714D01*
X1681428Y-12880714D02*
X1681428Y-12680714D01*
X1681428Y-12709286D02*
X1695714Y-12695000D01*
X1724286Y-12680714D01*
X1767143Y-12680714D01*
X1795714Y-12695000D01*
X1810000Y-12723571D01*
X1810000Y-12880714D01*
X1810000Y-12723571D02*
X1824286Y-12695000D01*
X1852857Y-12680714D01*
X1895714Y-12680714D01*
X1924286Y-12695000D01*
X1938571Y-12723571D01*
X1938571Y-12880714D01*
X2524286Y-12566429D02*
X2267143Y-12952143D01*
X2910000Y-12580714D02*
X2938571Y-12580714D01*
X2967143Y-12595000D01*
X2981428Y-12609286D01*
X2995714Y-12637857D01*
X3010000Y-12695000D01*
X3010000Y-12766429D01*
X2995714Y-12823571D01*
X2981428Y-12852143D01*
X2967143Y-12866429D01*
X2938571Y-12880714D01*
X2910000Y-12880714D01*
X2881428Y-12866429D01*
X2867143Y-12852143D01*
X2852857Y-12823571D01*
X2838571Y-12766429D01*
X2838571Y-12695000D01*
X2852857Y-12637857D01*
X2867143Y-12609286D01*
X2881428Y-12595000D01*
X2910000Y-12580714D01*
X3138571Y-12852143D02*
X3152857Y-12866429D01*
X3138571Y-12880714D01*
X3124286Y-12866429D01*
X3138571Y-12852143D01*
X3138571Y-12880714D01*
X3338571Y-12580714D02*
X3367143Y-12580714D01*
X3395714Y-12595000D01*
X3410000Y-12609286D01*
X3424286Y-12637857D01*
X3438571Y-12695000D01*
X3438571Y-12766429D01*
X3424286Y-12823571D01*
X3410000Y-12852143D01*
X3395714Y-12866429D01*
X3367143Y-12880714D01*
X3338571Y-12880714D01*
X3310000Y-12866429D01*
X3295714Y-12852143D01*
X3281428Y-12823571D01*
X3267143Y-12766429D01*
X3267143Y-12695000D01*
X3281428Y-12637857D01*
X3295714Y-12609286D01*
X3310000Y-12595000D01*
X3338571Y-12580714D01*
X3538571Y-12580714D02*
X3724286Y-12580714D01*
X3624286Y-12695000D01*
X3667143Y-12695000D01*
X3695714Y-12709286D01*
X3710000Y-12723571D01*
X3724286Y-12752143D01*
X3724286Y-12823571D01*
X3710000Y-12852143D01*
X3695714Y-12866429D01*
X3667143Y-12880714D01*
X3581428Y-12880714D01*
X3552857Y-12866429D01*
X3538571Y-12852143D01*
X3867143Y-12880714D02*
X3924286Y-12880714D01*
X3952857Y-12866429D01*
X3967143Y-12852143D01*
X3995714Y-12809286D01*
X4010000Y-12752143D01*
X4010000Y-12637857D01*
X3995714Y-12609286D01*
X3981428Y-12595000D01*
X3952857Y-12580714D01*
X3895714Y-12580714D01*
X3867143Y-12595000D01*
X3852857Y-12609286D01*
X3838571Y-12637857D01*
X3838571Y-12709286D01*
X3852857Y-12737857D01*
X3867143Y-12752143D01*
X3895714Y-12766429D01*
X3952857Y-12766429D01*
X3981428Y-12752143D01*
X3995714Y-12737857D01*
X4010000Y-12709286D01*
X4124286Y-12580714D02*
X4124286Y-12637857D01*
X4238571Y-12580714D02*
X4238571Y-12637857D01*
X4681428Y-12995000D02*
X4667143Y-12980714D01*
X4638571Y-12937857D01*
X4624286Y-12909286D01*
X4610000Y-12866429D01*
X4595714Y-12795000D01*
X4595714Y-12737857D01*
X4610000Y-12666429D01*
X4624286Y-12623571D01*
X4638571Y-12595000D01*
X4667143Y-12552143D01*
X4681428Y-12537857D01*
X4938571Y-12580714D02*
X4795714Y-12580714D01*
X4781428Y-12723571D01*
X4795714Y-12709286D01*
X4824286Y-12695000D01*
X4895714Y-12695000D01*
X4924286Y-12709286D01*
X4938571Y-12723571D01*
X4952857Y-12752143D01*
X4952857Y-12823571D01*
X4938571Y-12852143D01*
X4924286Y-12866429D01*
X4895714Y-12880714D01*
X4824286Y-12880714D01*
X4795714Y-12866429D01*
X4781428Y-12852143D01*
X5210000Y-12580714D02*
X5152857Y-12580714D01*
X5124286Y-12595000D01*
X5110000Y-12609286D01*
X5081428Y-12652143D01*
X5067143Y-12709286D01*
X5067143Y-12823571D01*
X5081428Y-12852143D01*
X5095714Y-12866429D01*
X5124286Y-12880714D01*
X5181428Y-12880714D01*
X5210000Y-12866429D01*
X5224286Y-12852143D01*
X5238571Y-12823571D01*
X5238571Y-12752143D01*
X5224286Y-12723571D01*
X5210000Y-12709286D01*
X5181428Y-12695000D01*
X5124286Y-12695000D01*
X5095714Y-12709286D01*
X5081428Y-12723571D01*
X5067143Y-12752143D01*
X5595714Y-12880714D02*
X5595714Y-12580714D01*
X5724286Y-12880714D02*
X5724286Y-12723571D01*
X5710000Y-12695000D01*
X5681428Y-12680714D01*
X5638571Y-12680714D01*
X5610000Y-12695000D01*
X5595714Y-12709286D01*
X5910000Y-12880714D02*
X5881428Y-12866429D01*
X5867143Y-12852143D01*
X5852857Y-12823571D01*
X5852857Y-12737857D01*
X5867143Y-12709286D01*
X5881428Y-12695000D01*
X5910000Y-12680714D01*
X5952857Y-12680714D01*
X5981428Y-12695000D01*
X5995714Y-12709286D01*
X6010000Y-12737857D01*
X6010000Y-12823571D01*
X5995714Y-12852143D01*
X5981428Y-12866429D01*
X5952857Y-12880714D01*
X5910000Y-12880714D01*
X6181428Y-12880714D02*
X6152857Y-12866429D01*
X6138571Y-12837857D01*
X6138571Y-12580714D01*
X6410000Y-12866429D02*
X6381428Y-12880714D01*
X6324286Y-12880714D01*
X6295714Y-12866429D01*
X6281428Y-12837857D01*
X6281428Y-12723571D01*
X6295714Y-12695000D01*
X6324286Y-12680714D01*
X6381428Y-12680714D01*
X6410000Y-12695000D01*
X6424286Y-12723571D01*
X6424286Y-12752143D01*
X6281428Y-12780714D01*
X6538571Y-12866429D02*
X6567143Y-12880714D01*
X6624286Y-12880714D01*
X6652857Y-12866429D01*
X6667143Y-12837857D01*
X6667143Y-12823571D01*
X6652857Y-12795000D01*
X6624286Y-12780714D01*
X6581428Y-12780714D01*
X6552857Y-12766429D01*
X6538571Y-12737857D01*
X6538571Y-12723571D01*
X6552857Y-12695000D01*
X6581428Y-12680714D01*
X6624286Y-12680714D01*
X6652857Y-12695000D01*
X7024286Y-12766429D02*
X7252857Y-12766429D01*
X7138571Y-12880714D02*
X7138571Y-12652143D01*
X7595714Y-12580714D02*
X7795714Y-12580714D01*
X7667143Y-12880714D01*
X8124286Y-12866429D02*
X8152857Y-12880714D01*
X8210000Y-12880714D01*
X8238571Y-12866429D01*
X8252857Y-12837857D01*
X8252857Y-12823571D01*
X8238571Y-12795000D01*
X8210000Y-12780714D01*
X8167143Y-12780714D01*
X8138571Y-12766429D01*
X8124286Y-12737857D01*
X8124286Y-12723571D01*
X8138571Y-12695000D01*
X8167143Y-12680714D01*
X8210000Y-12680714D01*
X8238571Y-12695000D01*
X8424286Y-12880714D02*
X8395714Y-12866429D01*
X8381428Y-12837857D01*
X8381428Y-12580714D01*
X8581428Y-12880714D02*
X8552857Y-12866429D01*
X8538571Y-12852143D01*
X8524286Y-12823571D01*
X8524286Y-12737857D01*
X8538571Y-12709286D01*
X8552857Y-12695000D01*
X8581428Y-12680714D01*
X8624286Y-12680714D01*
X8652857Y-12695000D01*
X8667143Y-12709286D01*
X8681428Y-12737857D01*
X8681428Y-12823571D01*
X8667143Y-12852143D01*
X8652857Y-12866429D01*
X8624286Y-12880714D01*
X8581428Y-12880714D01*
X8767143Y-12680714D02*
X8881428Y-12680714D01*
X8810000Y-12580714D02*
X8810000Y-12837857D01*
X8824286Y-12866429D01*
X8852857Y-12880714D01*
X8881428Y-12880714D01*
X8967143Y-12866429D02*
X8995714Y-12880714D01*
X9052857Y-12880714D01*
X9081428Y-12866429D01*
X9095714Y-12837857D01*
X9095714Y-12823571D01*
X9081428Y-12795000D01*
X9052857Y-12780714D01*
X9010000Y-12780714D01*
X8981428Y-12766429D01*
X8967143Y-12737857D01*
X8967143Y-12723571D01*
X8981428Y-12695000D01*
X9010000Y-12680714D01*
X9052857Y-12680714D01*
X9081428Y-12695000D01*
X9195714Y-12995000D02*
X9210000Y-12980714D01*
X9238571Y-12937857D01*
X9252857Y-12909286D01*
X9267143Y-12866429D01*
X9281428Y-12795000D01*
X9281428Y-12737857D01*
X9267143Y-12666429D01*
X9252857Y-12623571D01*
X9238571Y-12595000D01*
X9210000Y-12552143D01*
X9195714Y-12537857D01*
X-107000Y-13090000D02*
X-5000Y-13192000D01*
X-5000Y-13090000D02*
X-107000Y-13192000D01*
X-56000Y-13090000D02*
X-56000Y-13192000D01*
X-107000Y-13141000D02*
X-5000Y-13141000D01*
X438571Y-13276714D02*
X267143Y-13276714D01*
X352857Y-13276714D02*
X352857Y-12976714D01*
X324286Y-13019571D01*
X295714Y-13048143D01*
X267143Y-13062429D01*
X567143Y-13248143D02*
X581428Y-13262429D01*
X567143Y-13276714D01*
X552857Y-13262429D01*
X567143Y-13248143D01*
X567143Y-13276714D01*
X767143Y-12976714D02*
X795714Y-12976714D01*
X824286Y-12991000D01*
X838571Y-13005286D01*
X852857Y-13033857D01*
X867143Y-13091000D01*
X867143Y-13162429D01*
X852857Y-13219571D01*
X838571Y-13248143D01*
X824286Y-13262429D01*
X795714Y-13276714D01*
X767143Y-13276714D01*
X738571Y-13262429D01*
X724286Y-13248143D01*
X710000Y-13219571D01*
X695714Y-13162429D01*
X695714Y-13091000D01*
X710000Y-13033857D01*
X724286Y-13005286D01*
X738571Y-12991000D01*
X767143Y-12976714D01*
X981428Y-13005286D02*
X995714Y-12991000D01*
X1024286Y-12976714D01*
X1095714Y-12976714D01*
X1124286Y-12991000D01*
X1138571Y-13005286D01*
X1152857Y-13033857D01*
X1152857Y-13062429D01*
X1138571Y-13105286D01*
X967143Y-13276714D01*
X1152857Y-13276714D01*
X1281428Y-13276714D02*
X1281428Y-13076714D01*
X1281428Y-13105286D02*
X1295714Y-13091000D01*
X1324286Y-13076714D01*
X1367143Y-13076714D01*
X1395714Y-13091000D01*
X1410000Y-13119571D01*
X1410000Y-13276714D01*
X1410000Y-13119571D02*
X1424286Y-13091000D01*
X1452857Y-13076714D01*
X1495714Y-13076714D01*
X1524286Y-13091000D01*
X1538571Y-13119571D01*
X1538571Y-13276714D01*
X1681428Y-13276714D02*
X1681428Y-13076714D01*
X1681428Y-13105286D02*
X1695714Y-13091000D01*
X1724286Y-13076714D01*
X1767143Y-13076714D01*
X1795714Y-13091000D01*
X1810000Y-13119571D01*
X1810000Y-13276714D01*
X1810000Y-13119571D02*
X1824286Y-13091000D01*
X1852857Y-13076714D01*
X1895714Y-13076714D01*
X1924286Y-13091000D01*
X1938571Y-13119571D01*
X1938571Y-13276714D01*
X2524286Y-12962429D02*
X2267143Y-13348143D01*
X2910000Y-12976714D02*
X2938571Y-12976714D01*
X2967143Y-12991000D01*
X2981428Y-13005286D01*
X2995714Y-13033857D01*
X3010000Y-13091000D01*
X3010000Y-13162429D01*
X2995714Y-13219571D01*
X2981428Y-13248143D01*
X2967143Y-13262429D01*
X2938571Y-13276714D01*
X2910000Y-13276714D01*
X2881428Y-13262429D01*
X2867143Y-13248143D01*
X2852857Y-13219571D01*
X2838571Y-13162429D01*
X2838571Y-13091000D01*
X2852857Y-13033857D01*
X2867143Y-13005286D01*
X2881428Y-12991000D01*
X2910000Y-12976714D01*
X3138571Y-13248143D02*
X3152857Y-13262429D01*
X3138571Y-13276714D01*
X3124286Y-13262429D01*
X3138571Y-13248143D01*
X3138571Y-13276714D01*
X3338571Y-12976714D02*
X3367143Y-12976714D01*
X3395714Y-12991000D01*
X3410000Y-13005286D01*
X3424286Y-13033857D01*
X3438571Y-13091000D01*
X3438571Y-13162429D01*
X3424286Y-13219571D01*
X3410000Y-13248143D01*
X3395714Y-13262429D01*
X3367143Y-13276714D01*
X3338571Y-13276714D01*
X3310000Y-13262429D01*
X3295714Y-13248143D01*
X3281428Y-13219571D01*
X3267143Y-13162429D01*
X3267143Y-13091000D01*
X3281428Y-13033857D01*
X3295714Y-13005286D01*
X3310000Y-12991000D01*
X3338571Y-12976714D01*
X3695714Y-13076714D02*
X3695714Y-13276714D01*
X3624286Y-12962429D02*
X3552857Y-13176714D01*
X3738571Y-13176714D01*
X3910000Y-12976714D02*
X3938571Y-12976714D01*
X3967143Y-12991000D01*
X3981428Y-13005286D01*
X3995714Y-13033857D01*
X4010000Y-13091000D01*
X4010000Y-13162429D01*
X3995714Y-13219571D01*
X3981428Y-13248143D01*
X3967143Y-13262429D01*
X3938571Y-13276714D01*
X3910000Y-13276714D01*
X3881428Y-13262429D01*
X3867143Y-13248143D01*
X3852857Y-13219571D01*
X3838571Y-13162429D01*
X3838571Y-13091000D01*
X3852857Y-13033857D01*
X3867143Y-13005286D01*
X3881428Y-12991000D01*
X3910000Y-12976714D01*
X4124286Y-12976714D02*
X4124286Y-13033857D01*
X4238571Y-12976714D02*
X4238571Y-13033857D01*
X4681428Y-13391000D02*
X4667143Y-13376714D01*
X4638571Y-13333857D01*
X4624286Y-13305286D01*
X4610000Y-13262429D01*
X4595714Y-13191000D01*
X4595714Y-13133857D01*
X4610000Y-13062429D01*
X4624286Y-13019571D01*
X4638571Y-12991000D01*
X4667143Y-12948143D01*
X4681428Y-12933857D01*
X4924286Y-13076714D02*
X4924286Y-13276714D01*
X4852857Y-12962429D02*
X4781428Y-13176714D01*
X4967143Y-13176714D01*
X5310000Y-13276714D02*
X5310000Y-12976714D01*
X5438571Y-13276714D02*
X5438571Y-13119571D01*
X5424286Y-13091000D01*
X5395714Y-13076714D01*
X5352857Y-13076714D01*
X5324286Y-13091000D01*
X5310000Y-13105286D01*
X5624286Y-13276714D02*
X5595714Y-13262429D01*
X5581428Y-13248143D01*
X5567143Y-13219571D01*
X5567143Y-13133857D01*
X5581428Y-13105286D01*
X5595714Y-13091000D01*
X5624286Y-13076714D01*
X5667143Y-13076714D01*
X5695714Y-13091000D01*
X5710000Y-13105286D01*
X5724286Y-13133857D01*
X5724286Y-13219571D01*
X5710000Y-13248143D01*
X5695714Y-13262429D01*
X5667143Y-13276714D01*
X5624286Y-13276714D01*
X5895714Y-13276714D02*
X5867143Y-13262429D01*
X5852857Y-13233857D01*
X5852857Y-12976714D01*
X6124286Y-13262429D02*
X6095714Y-13276714D01*
X6038571Y-13276714D01*
X6010000Y-13262429D01*
X5995714Y-13233857D01*
X5995714Y-13119571D01*
X6010000Y-13091000D01*
X6038571Y-13076714D01*
X6095714Y-13076714D01*
X6124286Y-13091000D01*
X6138571Y-13119571D01*
X6138571Y-13148143D01*
X5995714Y-13176714D01*
X6252857Y-13262429D02*
X6281428Y-13276714D01*
X6338571Y-13276714D01*
X6367143Y-13262429D01*
X6381428Y-13233857D01*
X6381428Y-13219571D01*
X6367143Y-13191000D01*
X6338571Y-13176714D01*
X6295714Y-13176714D01*
X6267143Y-13162429D01*
X6252857Y-13133857D01*
X6252857Y-13119571D01*
X6267143Y-13091000D01*
X6295714Y-13076714D01*
X6338571Y-13076714D01*
X6367143Y-13091000D01*
X6481428Y-13391000D02*
X6495714Y-13376714D01*
X6524286Y-13333857D01*
X6538571Y-13305286D01*
X6552857Y-13262429D01*
X6567143Y-13191000D01*
X6567143Y-13133857D01*
X6552857Y-13062429D01*
X6538571Y-13019571D01*
X6524286Y-12991000D01*
X6495714Y-12948143D01*
X6481428Y-12933857D01*
X-305000Y-13387000D02*
X-5000Y-13687000D01*
X-5000Y-13387000D02*
X-305000Y-13687000D01*
X-48933Y-13643067D02*
X-48933Y-13430933D01*
X-261067Y-13430933D01*
X-261067Y-13643067D01*
X-48933Y-13643067D01*
X252857Y-13372714D02*
X438571Y-13372714D01*
X338571Y-13487000D01*
X381428Y-13487000D01*
X410000Y-13501286D01*
X424286Y-13515571D01*
X438571Y-13544143D01*
X438571Y-13615571D01*
X424286Y-13644143D01*
X410000Y-13658429D01*
X381428Y-13672714D01*
X295714Y-13672714D01*
X267143Y-13658429D01*
X252857Y-13644143D01*
X567143Y-13644143D02*
X581428Y-13658429D01*
X567143Y-13672714D01*
X552857Y-13658429D01*
X567143Y-13644143D01*
X567143Y-13672714D01*
X767143Y-13372714D02*
X795714Y-13372714D01*
X824286Y-13387000D01*
X838571Y-13401286D01*
X852857Y-13429857D01*
X867143Y-13487000D01*
X867143Y-13558429D01*
X852857Y-13615571D01*
X838571Y-13644143D01*
X824286Y-13658429D01*
X795714Y-13672714D01*
X767143Y-13672714D01*
X738571Y-13658429D01*
X724286Y-13644143D01*
X710000Y-13615571D01*
X695714Y-13558429D01*
X695714Y-13487000D01*
X710000Y-13429857D01*
X724286Y-13401286D01*
X738571Y-13387000D01*
X767143Y-13372714D01*
X1052857Y-13372714D02*
X1081428Y-13372714D01*
X1110000Y-13387000D01*
X1124286Y-13401286D01*
X1138571Y-13429857D01*
X1152857Y-13487000D01*
X1152857Y-13558429D01*
X1138571Y-13615571D01*
X1124286Y-13644143D01*
X1110000Y-13658429D01*
X1081428Y-13672714D01*
X1052857Y-13672714D01*
X1024286Y-13658429D01*
X1010000Y-13644143D01*
X995714Y-13615571D01*
X981428Y-13558429D01*
X981428Y-13487000D01*
X995714Y-13429857D01*
X1010000Y-13401286D01*
X1024286Y-13387000D01*
X1052857Y-13372714D01*
X1281428Y-13672714D02*
X1281428Y-13472714D01*
X1281428Y-13501286D02*
X1295714Y-13487000D01*
X1324286Y-13472714D01*
X1367143Y-13472714D01*
X1395714Y-13487000D01*
X1410000Y-13515571D01*
X1410000Y-13672714D01*
X1410000Y-13515571D02*
X1424286Y-13487000D01*
X1452857Y-13472714D01*
X1495714Y-13472714D01*
X1524286Y-13487000D01*
X1538571Y-13515571D01*
X1538571Y-13672714D01*
X1681428Y-13672714D02*
X1681428Y-13472714D01*
X1681428Y-13501286D02*
X1695714Y-13487000D01*
X1724286Y-13472714D01*
X1767143Y-13472714D01*
X1795714Y-13487000D01*
X1810000Y-13515571D01*
X1810000Y-13672714D01*
X1810000Y-13515571D02*
X1824286Y-13487000D01*
X1852857Y-13472714D01*
X1895714Y-13472714D01*
X1924286Y-13487000D01*
X1938571Y-13515571D01*
X1938571Y-13672714D01*
X2524286Y-13358429D02*
X2267143Y-13744143D01*
X2910000Y-13372714D02*
X2938571Y-13372714D01*
X2967143Y-13387000D01*
X2981428Y-13401286D01*
X2995714Y-13429857D01*
X3010000Y-13487000D01*
X3010000Y-13558429D01*
X2995714Y-13615571D01*
X2981428Y-13644143D01*
X2967143Y-13658429D01*
X2938571Y-13672714D01*
X2910000Y-13672714D01*
X2881428Y-13658429D01*
X2867143Y-13644143D01*
X2852857Y-13615571D01*
X2838571Y-13558429D01*
X2838571Y-13487000D01*
X2852857Y-13429857D01*
X2867143Y-13401286D01*
X2881428Y-13387000D01*
X2910000Y-13372714D01*
X3138571Y-13644143D02*
X3152857Y-13658429D01*
X3138571Y-13672714D01*
X3124286Y-13658429D01*
X3138571Y-13644143D01*
X3138571Y-13672714D01*
X3438571Y-13672714D02*
X3267143Y-13672714D01*
X3352857Y-13672714D02*
X3352857Y-13372714D01*
X3324286Y-13415571D01*
X3295714Y-13444143D01*
X3267143Y-13458429D01*
X3724286Y-13672714D02*
X3552857Y-13672714D01*
X3638571Y-13672714D02*
X3638571Y-13372714D01*
X3610000Y-13415571D01*
X3581428Y-13444143D01*
X3552857Y-13458429D01*
X3895714Y-13501286D02*
X3867143Y-13487000D01*
X3852857Y-13472714D01*
X3838571Y-13444143D01*
X3838571Y-13429857D01*
X3852857Y-13401286D01*
X3867143Y-13387000D01*
X3895714Y-13372714D01*
X3952857Y-13372714D01*
X3981428Y-13387000D01*
X3995714Y-13401286D01*
X4010000Y-13429857D01*
X4010000Y-13444143D01*
X3995714Y-13472714D01*
X3981428Y-13487000D01*
X3952857Y-13501286D01*
X3895714Y-13501286D01*
X3867143Y-13515571D01*
X3852857Y-13529857D01*
X3838571Y-13558429D01*
X3838571Y-13615571D01*
X3852857Y-13644143D01*
X3867143Y-13658429D01*
X3895714Y-13672714D01*
X3952857Y-13672714D01*
X3981428Y-13658429D01*
X3995714Y-13644143D01*
X4010000Y-13615571D01*
X4010000Y-13558429D01*
X3995714Y-13529857D01*
X3981428Y-13515571D01*
X3952857Y-13501286D01*
X4124286Y-13372714D02*
X4124286Y-13429857D01*
X4238571Y-13372714D02*
X4238571Y-13429857D01*
X4681428Y-13787000D02*
X4667143Y-13772714D01*
X4638571Y-13729857D01*
X4624286Y-13701286D01*
X4610000Y-13658429D01*
X4595714Y-13587000D01*
X4595714Y-13529857D01*
X4610000Y-13458429D01*
X4624286Y-13415571D01*
X4638571Y-13387000D01*
X4667143Y-13344143D01*
X4681428Y-13329857D01*
X4924286Y-13472714D02*
X4924286Y-13672714D01*
X4852857Y-13358429D02*
X4781428Y-13572714D01*
X4967143Y-13572714D01*
X5310000Y-13672714D02*
X5310000Y-13372714D01*
X5438571Y-13672714D02*
X5438571Y-13515571D01*
X5424286Y-13487000D01*
X5395714Y-13472714D01*
X5352857Y-13472714D01*
X5324286Y-13487000D01*
X5310000Y-13501286D01*
X5624286Y-13672714D02*
X5595714Y-13658429D01*
X5581428Y-13644143D01*
X5567143Y-13615571D01*
X5567143Y-13529857D01*
X5581428Y-13501286D01*
X5595714Y-13487000D01*
X5624286Y-13472714D01*
X5667143Y-13472714D01*
X5695714Y-13487000D01*
X5710000Y-13501286D01*
X5724286Y-13529857D01*
X5724286Y-13615571D01*
X5710000Y-13644143D01*
X5695714Y-13658429D01*
X5667143Y-13672714D01*
X5624286Y-13672714D01*
X5895714Y-13672714D02*
X5867143Y-13658429D01*
X5852857Y-13629857D01*
X5852857Y-13372714D01*
X6124286Y-13658429D02*
X6095714Y-13672714D01*
X6038571Y-13672714D01*
X6010000Y-13658429D01*
X5995714Y-13629857D01*
X5995714Y-13515571D01*
X6010000Y-13487000D01*
X6038571Y-13472714D01*
X6095714Y-13472714D01*
X6124286Y-13487000D01*
X6138571Y-13515571D01*
X6138571Y-13544143D01*
X5995714Y-13572714D01*
X6252857Y-13658429D02*
X6281428Y-13672714D01*
X6338571Y-13672714D01*
X6367143Y-13658429D01*
X6381428Y-13629857D01*
X6381428Y-13615571D01*
X6367143Y-13587000D01*
X6338571Y-13572714D01*
X6295714Y-13572714D01*
X6267143Y-13558429D01*
X6252857Y-13529857D01*
X6252857Y-13515571D01*
X6267143Y-13487000D01*
X6295714Y-13472714D01*
X6338571Y-13472714D01*
X6367143Y-13487000D01*
X6481428Y-13787000D02*
X6495714Y-13772714D01*
X6524286Y-13729857D01*
X6538571Y-13701286D01*
X6552857Y-13658429D01*
X6567143Y-13587000D01*
X6567143Y-13529857D01*
X6552857Y-13458429D01*
X6538571Y-13415571D01*
X6524286Y-13387000D01*
X6495714Y-13344143D01*
X6481428Y-13329857D01*
M02*
