G04 #@! TF.GenerationSoftware,KiCad,Pcbnew,(5.1.9)-1*
G04 #@! TF.CreationDate,2021-01-16T15:24:31-08:00*
G04 #@! TF.ProjectId,SJ-201-R6,534a2d32-3031-42d5-9236-2e6b69636164,rev?*
G04 #@! TF.SameCoordinates,Original*
G04 #@! TF.FileFunction,Other,User*
%FSLAX46Y46*%
G04 Gerber Fmt 4.6, Leading zero omitted, Abs format (unit mm)*
G04 Created by KiCad (PCBNEW (5.1.9)-1) date 2021-01-16 15:24:31*
%MOMM*%
%LPD*%
G01*
G04 APERTURE LIST*
%ADD10C,0.050000*%
%ADD11C,0.120000*%
G04 APERTURE END LIST*
D10*
G04 #@! TO.C,U8*
X25478800Y-76913800D02*
X25478800Y-67713800D01*
X25478800Y-67713800D02*
X16278800Y-67713800D01*
X16278800Y-67713800D02*
X16278800Y-76913800D01*
X16278800Y-76913800D02*
X25478800Y-76913800D01*
G04 #@! TO.C,R30*
X42260000Y-87620000D02*
X41320000Y-87620000D01*
X41320000Y-87620000D02*
X41320000Y-85760000D01*
X41320000Y-85760000D02*
X42260000Y-85760000D01*
X42260000Y-85760000D02*
X42260000Y-87620000D01*
G04 #@! TO.C,R23*
X39970000Y-87650000D02*
X39030000Y-87650000D01*
X39030000Y-87650000D02*
X39030000Y-85790000D01*
X39030000Y-85790000D02*
X39970000Y-85790000D01*
X39970000Y-85790000D02*
X39970000Y-87650000D01*
G04 #@! TO.C,R15*
X16220000Y-36118240D02*
X16220000Y-34658240D01*
X16220000Y-34658240D02*
X19180000Y-34658240D01*
X19180000Y-34658240D02*
X19180000Y-36118240D01*
X19180000Y-36118240D02*
X16220000Y-36118240D01*
G04 #@! TO.C,R33*
X25580000Y-54530000D02*
X25580000Y-52670000D01*
X26520000Y-54530000D02*
X25580000Y-54530000D01*
X26520000Y-52670000D02*
X26520000Y-54530000D01*
X25580000Y-52670000D02*
X26520000Y-52670000D01*
G04 #@! TO.C,R16*
X21780000Y-54530000D02*
X21780000Y-52670000D01*
X22720000Y-54530000D02*
X21780000Y-54530000D01*
X22720000Y-52670000D02*
X22720000Y-54530000D01*
X21780000Y-52670000D02*
X22720000Y-52670000D01*
G04 #@! TO.C,R31*
X19230000Y-54530000D02*
X19230000Y-52670000D01*
X20170000Y-54530000D02*
X19230000Y-54530000D01*
X20170000Y-52670000D02*
X20170000Y-54530000D01*
X19230000Y-52670000D02*
X20170000Y-52670000D01*
G04 #@! TO.C,Q3*
X52950000Y-34450000D02*
X52950000Y-37850000D01*
X52950000Y-37850000D02*
X49450000Y-37850000D01*
X49450000Y-37850000D02*
X49450000Y-34450000D01*
X49450000Y-34450000D02*
X52950000Y-34450000D01*
G04 #@! TO.C,C30*
X42980000Y-28991428D02*
X41120000Y-28991428D01*
X42980000Y-28051428D02*
X42980000Y-28991428D01*
X41120000Y-28051428D02*
X42980000Y-28051428D01*
X41120000Y-28991428D02*
X41120000Y-28051428D01*
G04 #@! TO.C,C29*
X37680000Y-29070000D02*
X35820000Y-29070000D01*
X37680000Y-28130000D02*
X37680000Y-29070000D01*
X35820000Y-28130000D02*
X37680000Y-28130000D01*
X35820000Y-29070000D02*
X35820000Y-28130000D01*
G04 #@! TO.C,R19*
X66580000Y-81530000D02*
X65120000Y-81530000D01*
X65120000Y-81530000D02*
X65120000Y-78570000D01*
X65120000Y-78570000D02*
X66580000Y-78570000D01*
X66580000Y-78570000D02*
X66580000Y-81530000D01*
G04 #@! TO.C,J9*
X9700000Y-1500000D02*
X1050000Y-1500000D01*
X1050000Y-1500000D02*
X1050000Y-7650000D01*
X1050000Y-7650000D02*
X9700000Y-7650000D01*
X9700000Y-7650000D02*
X9700000Y-1500000D01*
G04 #@! TO.C,R25*
X36276800Y-96326560D02*
X34416800Y-96326560D01*
X36276800Y-95386560D02*
X36276800Y-96326560D01*
X34416800Y-95386560D02*
X36276800Y-95386560D01*
X34416800Y-96326560D02*
X34416800Y-95386560D01*
G04 #@! TO.C,R20*
X36271720Y-95264840D02*
X34411720Y-95264840D01*
X36271720Y-94324840D02*
X36271720Y-95264840D01*
X34411720Y-94324840D02*
X36271720Y-94324840D01*
X34411720Y-95264840D02*
X34411720Y-94324840D01*
G04 #@! TO.C,R67*
X42980000Y-29344285D02*
X42980000Y-30284285D01*
X42980000Y-30284285D02*
X41120000Y-30284285D01*
X41120000Y-30284285D02*
X41120000Y-29344285D01*
X41120000Y-29344285D02*
X42980000Y-29344285D01*
G04 #@! TO.C,NT1*
X40000000Y-39100000D02*
X40000000Y-37100000D01*
X39000000Y-39100000D02*
X40000000Y-39100000D01*
X39000000Y-37100000D02*
X39000000Y-39100000D01*
X40000000Y-37100000D02*
X39000000Y-37100000D01*
G04 #@! TO.C,Q6*
X38516666Y-69100000D02*
X35016666Y-69100000D01*
X38516666Y-65700000D02*
X38516666Y-69100000D01*
X35016666Y-65700000D02*
X38516666Y-65700000D01*
X35016666Y-69100000D02*
X35016666Y-65700000D01*
G04 #@! TO.C,J8*
X55600000Y-43000000D02*
X49450000Y-43000000D01*
X49450000Y-43000000D02*
X49450000Y-46600000D01*
X49450000Y-46600000D02*
X55600000Y-46600000D01*
X55600000Y-46600000D02*
X55600000Y-43000000D01*
G04 #@! TO.C,U16*
X32550000Y-39900000D02*
X32550000Y-45700000D01*
X39850000Y-39900000D02*
X39850000Y-45700000D01*
X32550000Y-39900000D02*
X39850000Y-39900000D01*
X32550000Y-45700000D02*
X39850000Y-45700000D01*
G04 #@! TO.C,R69*
X42980000Y-31930000D02*
X42980000Y-32870000D01*
X42980000Y-32870000D02*
X41120000Y-32870000D01*
X41120000Y-32870000D02*
X41120000Y-31930000D01*
X41120000Y-31930000D02*
X42980000Y-31930000D01*
G04 #@! TO.C,R68*
X37680000Y-32008571D02*
X37680000Y-32948571D01*
X37680000Y-32948571D02*
X35820000Y-32948571D01*
X35820000Y-32948571D02*
X35820000Y-32008571D01*
X35820000Y-32008571D02*
X37680000Y-32008571D01*
G04 #@! TO.C,R61*
X37680000Y-29422857D02*
X37680000Y-30362857D01*
X37680000Y-30362857D02*
X35820000Y-30362857D01*
X35820000Y-30362857D02*
X35820000Y-29422857D01*
X35820000Y-29422857D02*
X37680000Y-29422857D01*
G04 #@! TO.C,FB7*
X39570000Y-50580000D02*
X37330000Y-50580000D01*
X37330000Y-50580000D02*
X37330000Y-46020000D01*
X37330000Y-46020000D02*
X39570000Y-46020000D01*
X39570000Y-46020000D02*
X39570000Y-50580000D01*
G04 #@! TO.C,C75*
X41120000Y-31577142D02*
X41120000Y-30637142D01*
X41120000Y-30637142D02*
X42980000Y-30637142D01*
X42980000Y-30637142D02*
X42980000Y-31577142D01*
X42980000Y-31577142D02*
X41120000Y-31577142D01*
G04 #@! TO.C,C74*
X35820000Y-31655714D02*
X35820000Y-30715714D01*
X35820000Y-30715714D02*
X37680000Y-30715714D01*
X37680000Y-30715714D02*
X37680000Y-31655714D01*
X37680000Y-31655714D02*
X35820000Y-31655714D01*
G04 #@! TO.C,C73*
X36930000Y-46080000D02*
X36930000Y-47020000D01*
X36930000Y-47020000D02*
X35070000Y-47020000D01*
X35070000Y-47020000D02*
X35070000Y-46080000D01*
X35070000Y-46080000D02*
X36930000Y-46080000D01*
G04 #@! TO.C,C70*
X36930000Y-47280000D02*
X36930000Y-48220000D01*
X36930000Y-48220000D02*
X35070000Y-48220000D01*
X35070000Y-48220000D02*
X35070000Y-47280000D01*
X35070000Y-47280000D02*
X36930000Y-47280000D01*
G04 #@! TO.C,J2*
X55200000Y-34100000D02*
X55200000Y-42200000D01*
X70700000Y-34100000D02*
X55200000Y-34100000D01*
X70700000Y-42200000D02*
X55200000Y-42200000D01*
X70700000Y-34100000D02*
X70700000Y-42200000D01*
G04 #@! TO.C,J7*
X37050000Y-96400000D02*
X37050000Y-89400000D01*
X37050000Y-96400000D02*
X48150000Y-96400000D01*
X48150000Y-89400000D02*
X37050000Y-89400000D01*
X48150000Y-89400000D02*
X48150000Y-96400000D01*
G04 #@! TO.C,U15*
X57000000Y-97800000D02*
X57000000Y-89000000D01*
X49800000Y-97800000D02*
X57000000Y-97800000D01*
X49800000Y-89000000D02*
X49800000Y-97800000D01*
X57000000Y-89000000D02*
X49800000Y-89000000D01*
G04 #@! TO.C,R60*
X35830000Y-63570000D02*
X36770000Y-63570000D01*
X36770000Y-63570000D02*
X36770000Y-65430000D01*
X36770000Y-65430000D02*
X35830000Y-65430000D01*
X35830000Y-65430000D02*
X35830000Y-63570000D01*
G04 #@! TO.C,R59*
X39830000Y-63570000D02*
X40770000Y-63570000D01*
X40770000Y-63570000D02*
X40770000Y-65430000D01*
X40770000Y-65430000D02*
X39830000Y-65430000D01*
X39830000Y-65430000D02*
X39830000Y-63570000D01*
G04 #@! TO.C,R58*
X43830000Y-63570000D02*
X44770000Y-63570000D01*
X44770000Y-63570000D02*
X44770000Y-65430000D01*
X44770000Y-65430000D02*
X43830000Y-65430000D01*
X43830000Y-65430000D02*
X43830000Y-63570000D01*
G04 #@! TO.C,R56*
X31730000Y-63570000D02*
X32670000Y-63570000D01*
X32670000Y-63570000D02*
X32670000Y-65430000D01*
X32670000Y-65430000D02*
X31730000Y-65430000D01*
X31730000Y-65430000D02*
X31730000Y-63570000D01*
G04 #@! TO.C,R55*
X36930000Y-63570000D02*
X37870000Y-63570000D01*
X37870000Y-63570000D02*
X37870000Y-65430000D01*
X37870000Y-65430000D02*
X36930000Y-65430000D01*
X36930000Y-65430000D02*
X36930000Y-63570000D01*
G04 #@! TO.C,R54*
X41230000Y-63570000D02*
X42170000Y-63570000D01*
X42170000Y-63570000D02*
X42170000Y-65430000D01*
X42170000Y-65430000D02*
X41230000Y-65430000D01*
X41230000Y-65430000D02*
X41230000Y-63570000D01*
G04 #@! TO.C,R37*
X45130000Y-63570000D02*
X46070000Y-63570000D01*
X46070000Y-63570000D02*
X46070000Y-65430000D01*
X46070000Y-65430000D02*
X45130000Y-65430000D01*
X45130000Y-65430000D02*
X45130000Y-63570000D01*
G04 #@! TO.C,R29*
X32930000Y-63570000D02*
X33870000Y-63570000D01*
X33870000Y-63570000D02*
X33870000Y-65430000D01*
X33870000Y-65430000D02*
X32930000Y-65430000D01*
X32930000Y-65430000D02*
X32930000Y-63570000D01*
G04 #@! TO.C,Q5*
X42583332Y-69100000D02*
X39083332Y-69100000D01*
X42583332Y-65700000D02*
X42583332Y-69100000D01*
X39083332Y-65700000D02*
X42583332Y-65700000D01*
X39083332Y-69100000D02*
X39083332Y-65700000D01*
G04 #@! TO.C,Q4*
X46650000Y-69100000D02*
X43150000Y-69100000D01*
X46650000Y-65700000D02*
X46650000Y-69100000D01*
X43150000Y-65700000D02*
X46650000Y-65700000D01*
X43150000Y-69100000D02*
X43150000Y-65700000D01*
G04 #@! TO.C,Q2*
X34450000Y-69100000D02*
X30950000Y-69100000D01*
X34450000Y-65700000D02*
X34450000Y-69100000D01*
X30950000Y-65700000D02*
X34450000Y-65700000D01*
X30950000Y-69100000D02*
X30950000Y-65700000D01*
G04 #@! TO.C,C69*
X52920000Y-85530000D02*
X52920000Y-84070000D01*
X52920000Y-84070000D02*
X55880000Y-84070000D01*
X55880000Y-84070000D02*
X55880000Y-85530000D01*
X55880000Y-85530000D02*
X52920000Y-85530000D01*
G04 #@! TO.C,C68*
X48130000Y-86070000D02*
X49070000Y-86070000D01*
X49070000Y-86070000D02*
X49070000Y-87930000D01*
X49070000Y-87930000D02*
X48130000Y-87930000D01*
X48130000Y-87930000D02*
X48130000Y-86070000D01*
G04 #@! TO.C,R18*
X44730000Y-88870000D02*
X42870000Y-88870000D01*
X44730000Y-87930000D02*
X44730000Y-88870000D01*
X42870000Y-87930000D02*
X44730000Y-87930000D01*
X42870000Y-88870000D02*
X42870000Y-87930000D01*
G04 #@! TO.C,R2*
X33904380Y-92334140D02*
X35764380Y-92334140D01*
X33904380Y-93274140D02*
X33904380Y-92334140D01*
X35764380Y-93274140D02*
X33904380Y-93274140D01*
X35764380Y-92334140D02*
X35764380Y-93274140D01*
G04 #@! TO.C,Q1*
X36900000Y-91900000D02*
X33400000Y-91900000D01*
X36900000Y-88500000D02*
X36900000Y-91900000D01*
X33400000Y-88500000D02*
X36900000Y-88500000D01*
X33400000Y-91900000D02*
X33400000Y-88500000D01*
G04 #@! TO.C,U13*
X20962240Y-29152360D02*
X20962240Y-36552360D01*
X30122240Y-29152360D02*
X20962240Y-29152360D01*
X30122240Y-36552360D02*
X30122240Y-29152360D01*
X20962240Y-36552360D02*
X30122240Y-36552360D01*
G04 #@! TO.C,R9*
X26330000Y-28180000D02*
X26330000Y-26320000D01*
X27270000Y-28180000D02*
X26330000Y-28180000D01*
X27270000Y-26320000D02*
X27270000Y-28180000D01*
X26330000Y-26320000D02*
X27270000Y-26320000D01*
G04 #@! TO.C,R38*
X15020000Y-24780000D02*
X14080000Y-24780000D01*
X14080000Y-24780000D02*
X14080000Y-22920000D01*
X14080000Y-22920000D02*
X15020000Y-22920000D01*
X15020000Y-22920000D02*
X15020000Y-24780000D01*
G04 #@! TO.C,L2*
X39768940Y-60455820D02*
X34708940Y-60455820D01*
X34708940Y-60455820D02*
X34708940Y-55955820D01*
X39768940Y-55955820D02*
X34708940Y-55955820D01*
X39768940Y-60455820D02*
X39768940Y-55955820D01*
G04 #@! TO.C,J1*
X55855360Y-53584840D02*
X55855360Y-53834840D01*
X55855360Y-53834840D02*
X70855360Y-53834840D01*
X55855360Y-53584840D02*
X55855360Y-51084840D01*
X55855360Y-51084840D02*
X54855360Y-51084840D01*
X54855360Y-51084840D02*
X54855360Y-47084840D01*
X54855360Y-47084840D02*
X55855360Y-47084840D01*
X55855360Y-47084840D02*
X55855360Y-44334840D01*
X55855360Y-44334840D02*
X57855360Y-44334840D01*
X57855360Y-44334840D02*
X57855360Y-42334840D01*
X57855360Y-42334840D02*
X61855360Y-42334840D01*
X61855360Y-42334840D02*
X61855360Y-44334840D01*
X61855360Y-44334840D02*
X70855360Y-44334840D01*
X70855360Y-44334840D02*
X70855360Y-53834840D01*
G04 #@! TO.C,C67*
X53400000Y-33000000D02*
X44600000Y-33000000D01*
X53400000Y-28200000D02*
X53400000Y-33000000D01*
X44600000Y-28200000D02*
X53400000Y-28200000D01*
X44600000Y-33000000D02*
X44600000Y-28200000D01*
G04 #@! TO.C,U12*
X48967160Y-13278080D02*
X48967160Y-24578080D01*
X48967160Y-24578080D02*
X65607160Y-24578080D01*
X65607160Y-24578080D02*
X65607160Y-13278080D01*
X65607160Y-13278080D02*
X48967160Y-13278080D01*
G04 #@! TO.C,R66*
X21470000Y-42270000D02*
X21470000Y-44130000D01*
X20530000Y-42270000D02*
X21470000Y-42270000D01*
X20530000Y-44130000D02*
X20530000Y-42270000D01*
X21470000Y-44130000D02*
X20530000Y-44130000D01*
G04 #@! TO.C,R65*
X24020000Y-42270000D02*
X24020000Y-44130000D01*
X23080000Y-42270000D02*
X24020000Y-42270000D01*
X23080000Y-44130000D02*
X23080000Y-42270000D01*
X24020000Y-44130000D02*
X23080000Y-44130000D01*
G04 #@! TO.C,R64*
X26520000Y-42270000D02*
X26520000Y-44130000D01*
X25580000Y-42270000D02*
X26520000Y-42270000D01*
X25580000Y-44130000D02*
X25580000Y-42270000D01*
X26520000Y-44130000D02*
X25580000Y-44130000D01*
G04 #@! TO.C,J4*
X65369800Y-69829600D02*
X65369800Y-62929600D01*
X59869800Y-69829600D02*
X65369800Y-69829600D01*
X59869800Y-62929600D02*
X59869800Y-69829600D01*
X65369800Y-62929600D02*
X59869800Y-62929600D01*
G04 #@! TO.C,J3*
X65369800Y-61600000D02*
X65369800Y-54700000D01*
X59869800Y-61600000D02*
X65369800Y-61600000D01*
X59869800Y-54700000D02*
X59869800Y-61600000D01*
X65369800Y-54700000D02*
X59869800Y-54700000D01*
G04 #@! TO.C,R51*
X48567440Y-22916240D02*
X47627440Y-22916240D01*
X47627440Y-22916240D02*
X47627440Y-21056240D01*
X47627440Y-21056240D02*
X48567440Y-21056240D01*
X48567440Y-21056240D02*
X48567440Y-22916240D01*
G04 #@! TO.C,C66*
X45726640Y-16120080D02*
X47826640Y-16120080D01*
X47826640Y-16120080D02*
X47826640Y-20720080D01*
X47826640Y-20720080D02*
X45726640Y-20720080D01*
X45726640Y-20720080D02*
X45726640Y-16120080D01*
G04 #@! TO.C,U4*
X57400000Y-82600000D02*
X57400000Y-89800000D01*
X57400000Y-89800000D02*
X66200000Y-89800000D01*
X66200000Y-89800000D02*
X66200000Y-82600000D01*
X66200000Y-82600000D02*
X57400000Y-82600000D01*
G04 #@! TO.C,R42*
X13415920Y-63380520D02*
X15275920Y-63380520D01*
X13415920Y-64320520D02*
X13415920Y-63380520D01*
X15275920Y-64320520D02*
X13415920Y-64320520D01*
X15275920Y-63380520D02*
X15275920Y-64320520D01*
G04 #@! TO.C,R22*
X16720000Y-38530000D02*
X18580000Y-38530000D01*
X16720000Y-39470000D02*
X16720000Y-38530000D01*
X18580000Y-39470000D02*
X16720000Y-39470000D01*
X18580000Y-38530000D02*
X18580000Y-39470000D01*
G04 #@! TO.C,R21*
X39925900Y-49943100D02*
X41785900Y-49943100D01*
X39925900Y-50883100D02*
X39925900Y-49943100D01*
X41785900Y-50883100D02*
X39925900Y-50883100D01*
X41785900Y-49943100D02*
X41785900Y-50883100D01*
G04 #@! TO.C,R17*
X18630000Y-27770000D02*
X16770000Y-27770000D01*
X18630000Y-26830000D02*
X18630000Y-27770000D01*
X16770000Y-26830000D02*
X18630000Y-26830000D01*
X16770000Y-27770000D02*
X16770000Y-26830000D01*
G04 #@! TO.C,R11*
X18630000Y-32570944D02*
X16770000Y-32570944D01*
X18630000Y-31630944D02*
X18630000Y-32570944D01*
X16770000Y-31630944D02*
X18630000Y-31630944D01*
X16770000Y-32570944D02*
X16770000Y-31630944D01*
G04 #@! TO.C,L1*
X43850000Y-26850000D02*
X43850000Y-13450000D01*
X43850000Y-13450000D02*
X28250000Y-13450000D01*
X28250000Y-13450000D02*
X28250000Y-26850000D01*
X28250000Y-26850000D02*
X43850000Y-26850000D01*
G04 #@! TO.C,C65*
X46777000Y-83997900D02*
X44917000Y-83997900D01*
X46777000Y-83057900D02*
X46777000Y-83997900D01*
X44917000Y-83057900D02*
X46777000Y-83057900D01*
X44917000Y-83997900D02*
X44917000Y-83057900D01*
G04 #@! TO.C,C9*
X46802400Y-82755840D02*
X44942400Y-82755840D01*
X46802400Y-81815840D02*
X46802400Y-82755840D01*
X44942400Y-81815840D02*
X46802400Y-81815840D01*
X44942400Y-82755840D02*
X44942400Y-81815840D01*
D11*
G04 #@! TO.C,U2*
X34258500Y-69770700D02*
X34258500Y-84770700D01*
X34258500Y-84770700D02*
X44258500Y-84770700D01*
X44258500Y-84770700D02*
X44258500Y-69770700D01*
X44258500Y-69770700D02*
X34258500Y-69770700D01*
D10*
G04 #@! TO.C,R10*
X33730000Y-82680000D02*
X32270000Y-82680000D01*
X32270000Y-82680000D02*
X32270000Y-79720000D01*
X32270000Y-79720000D02*
X33730000Y-79720000D01*
X33730000Y-79720000D02*
X33730000Y-82680000D01*
G04 #@! TO.C,C2*
X45870000Y-71330000D02*
X44930000Y-71330000D01*
X44930000Y-71330000D02*
X44930000Y-69470000D01*
X44930000Y-69470000D02*
X45870000Y-69470000D01*
X45870000Y-69470000D02*
X45870000Y-71330000D01*
G04 #@! TO.C,R7*
X47961800Y-80473100D02*
X49421800Y-80473100D01*
X49421800Y-80473100D02*
X49421800Y-83433100D01*
X49421800Y-83433100D02*
X47961800Y-83433100D01*
X47961800Y-83433100D02*
X47961800Y-80473100D01*
G04 #@! TO.C,R6*
X50848700Y-76284100D02*
X51788700Y-76284100D01*
X51788700Y-76284100D02*
X51788700Y-78144100D01*
X51788700Y-78144100D02*
X50848700Y-78144100D01*
X50848700Y-78144100D02*
X50848700Y-76284100D01*
G04 #@! TO.C,C62*
X60080800Y-71094700D02*
X60080800Y-70154700D01*
X60080800Y-70154700D02*
X61940800Y-70154700D01*
X61940800Y-70154700D02*
X61940800Y-71094700D01*
X61940800Y-71094700D02*
X60080800Y-71094700D01*
G04 #@! TO.C,C39*
X57699000Y-70688100D02*
X57699000Y-71628100D01*
X57699000Y-71628100D02*
X55839000Y-71628100D01*
X55839000Y-71628100D02*
X55839000Y-70688100D01*
X55839000Y-70688100D02*
X57699000Y-70688100D01*
G04 #@! TO.C,C38*
X59438900Y-62496600D02*
X59438900Y-63436600D01*
X59438900Y-63436600D02*
X57578900Y-63436600D01*
X57578900Y-63436600D02*
X57578900Y-62496600D01*
X57578900Y-62496600D02*
X59438900Y-62496600D01*
G04 #@! TO.C,C27*
X58161280Y-54155240D02*
X58161280Y-55095240D01*
X58161280Y-55095240D02*
X56301280Y-55095240D01*
X56301280Y-55095240D02*
X56301280Y-54155240D01*
X56301280Y-54155240D02*
X58161280Y-54155240D01*
G04 #@! TO.C,C26*
X54412900Y-70923600D02*
X52952900Y-70923600D01*
X52952900Y-70923600D02*
X52952900Y-67963600D01*
X52952900Y-67963600D02*
X54412900Y-67963600D01*
X54412900Y-67963600D02*
X54412900Y-70923600D01*
G04 #@! TO.C,C25*
X54476400Y-58566500D02*
X53016400Y-58566500D01*
X53016400Y-58566500D02*
X53016400Y-55606500D01*
X53016400Y-55606500D02*
X54476400Y-55606500D01*
X54476400Y-55606500D02*
X54476400Y-58566500D01*
G04 #@! TO.C,C24*
X64541500Y-80749500D02*
X63601500Y-80749500D01*
X63601500Y-80749500D02*
X63601500Y-78889500D01*
X63601500Y-78889500D02*
X64541500Y-78889500D01*
X64541500Y-78889500D02*
X64541500Y-80749500D01*
G04 #@! TO.C,C23*
X54425600Y-67570800D02*
X52965600Y-67570800D01*
X52965600Y-67570800D02*
X52965600Y-64610800D01*
X52965600Y-64610800D02*
X54425600Y-64610800D01*
X54425600Y-64610800D02*
X54425600Y-67570800D01*
G04 #@! TO.C,C22*
X54438300Y-61792300D02*
X52978300Y-61792300D01*
X52978300Y-61792300D02*
X52978300Y-58832300D01*
X52978300Y-58832300D02*
X54438300Y-58832300D01*
X54438300Y-58832300D02*
X54438300Y-61792300D01*
G04 #@! TO.C,C21*
X62509500Y-80726500D02*
X61569500Y-80726500D01*
X61569500Y-80726500D02*
X61569500Y-78866500D01*
X61569500Y-78866500D02*
X62509500Y-78866500D01*
X62509500Y-78866500D02*
X62509500Y-80726500D01*
G04 #@! TO.C,C20*
X58250000Y-8930000D02*
X58250000Y-10390000D01*
X58250000Y-10390000D02*
X55290000Y-10390000D01*
X55290000Y-10390000D02*
X55290000Y-8930000D01*
X55290000Y-8930000D02*
X58250000Y-8930000D01*
G04 #@! TO.C,C19*
X58230000Y-7260000D02*
X58230000Y-8720000D01*
X58230000Y-8720000D02*
X55270000Y-8720000D01*
X55270000Y-8720000D02*
X55270000Y-7260000D01*
X55270000Y-7260000D02*
X58230000Y-7260000D01*
G04 #@! TO.C,C18*
X62706500Y-70859200D02*
X64166500Y-70859200D01*
X64166500Y-70859200D02*
X64166500Y-73819200D01*
X64166500Y-73819200D02*
X62706500Y-73819200D01*
X62706500Y-73819200D02*
X62706500Y-70859200D01*
G04 #@! TO.C,C17*
X58240000Y-10660000D02*
X58240000Y-12120000D01*
X58240000Y-12120000D02*
X55280000Y-12120000D01*
X55280000Y-12120000D02*
X55280000Y-10660000D01*
X55280000Y-10660000D02*
X58240000Y-10660000D01*
G04 #@! TO.C,C16*
X49648700Y-80239100D02*
X48708700Y-80239100D01*
X48708700Y-80239100D02*
X48708700Y-78379100D01*
X48708700Y-78379100D02*
X49648700Y-78379100D01*
X49648700Y-78379100D02*
X49648700Y-80239100D01*
G04 #@! TO.C,C15*
X62793980Y-77472900D02*
X61853980Y-77472900D01*
X61853980Y-77472900D02*
X61853980Y-75612900D01*
X61853980Y-75612900D02*
X62793980Y-75612900D01*
X62793980Y-75612900D02*
X62793980Y-77472900D01*
G04 #@! TO.C,C14*
X65123700Y-74724100D02*
X66583700Y-74724100D01*
X66583700Y-74724100D02*
X66583700Y-77684100D01*
X66583700Y-77684100D02*
X65123700Y-77684100D01*
X65123700Y-77684100D02*
X65123700Y-74724100D01*
G04 #@! TO.C,C13*
X63298700Y-74724100D02*
X64758700Y-74724100D01*
X64758700Y-74724100D02*
X64758700Y-77684100D01*
X64758700Y-77684100D02*
X63298700Y-77684100D01*
X63298700Y-77684100D02*
X63298700Y-74724100D01*
G04 #@! TO.C,C12*
X50948700Y-80484100D02*
X51888700Y-80484100D01*
X51888700Y-80484100D02*
X51888700Y-82344100D01*
X51888700Y-82344100D02*
X50948700Y-82344100D01*
X50948700Y-82344100D02*
X50948700Y-80484100D01*
G04 #@! TO.C,C11*
X49768700Y-76279100D02*
X50708700Y-76279100D01*
X50708700Y-76279100D02*
X50708700Y-78139100D01*
X50708700Y-78139100D02*
X49768700Y-78139100D01*
X49768700Y-78139100D02*
X49768700Y-76279100D01*
G04 #@! TO.C,R57*
X50014120Y-85713120D02*
X51474120Y-85713120D01*
X51474120Y-85713120D02*
X51474120Y-88673120D01*
X51474120Y-88673120D02*
X50014120Y-88673120D01*
X50014120Y-88673120D02*
X50014120Y-85713120D01*
G04 #@! TO.C,R12*
X16220000Y-31317296D02*
X16220000Y-29857296D01*
X16220000Y-29857296D02*
X19180000Y-29857296D01*
X19180000Y-29857296D02*
X19180000Y-31317296D01*
X19180000Y-31317296D02*
X16220000Y-31317296D01*
G04 #@! TO.C,R14*
X16220000Y-34344592D02*
X16220000Y-32884592D01*
X16220000Y-32884592D02*
X19180000Y-32884592D01*
X19180000Y-32884592D02*
X19180000Y-34344592D01*
X19180000Y-34344592D02*
X16220000Y-34344592D01*
G04 #@! TO.C,R13*
X16220000Y-29543648D02*
X16220000Y-28083648D01*
X16220000Y-28083648D02*
X19180000Y-28083648D01*
X19180000Y-28083648D02*
X19180000Y-29543648D01*
X19180000Y-29543648D02*
X16220000Y-29543648D01*
G04 #@! TO.C,H4*
X16750000Y-93082120D02*
G75*
G03*
X16750000Y-93082120I-3250000J0D01*
G01*
G04 #@! TO.C,H3*
X16750000Y-5000000D02*
G75*
G03*
X16750000Y-5000000I-3250000J0D01*
G01*
G04 #@! TO.C,H2*
X65171380Y-93082120D02*
G75*
G03*
X65171380Y-93082120I-3250000J0D01*
G01*
G04 #@! TO.C,H1*
X65171380Y-5000000D02*
G75*
G03*
X65171380Y-5000000I-3250000J0D01*
G01*
G04 #@! TO.C,J13*
X29500000Y-86650000D02*
X18300000Y-86650000D01*
X29500000Y-98950000D02*
X29500000Y-86650000D01*
X18300000Y-98950000D02*
X29500000Y-98950000D01*
X18300000Y-86650000D02*
X18300000Y-98950000D01*
G04 #@! TO.C,FB5*
X14600000Y-12730000D02*
X14600000Y-9370000D01*
X16500000Y-12730000D02*
X14600000Y-12730000D01*
X16500000Y-9370000D02*
X16500000Y-12730000D01*
X14600000Y-9370000D02*
X16500000Y-9370000D01*
G04 #@! TO.C,R5*
X16748012Y-65051580D02*
X16748012Y-66911580D01*
X15808012Y-65051580D02*
X16748012Y-65051580D01*
X15808012Y-66911580D02*
X15808012Y-65051580D01*
X16748012Y-66911580D02*
X15808012Y-66911580D01*
G04 #@! TO.C,D15*
X40287560Y-56428320D02*
X42587560Y-56428320D01*
X42587560Y-51728320D02*
X42587560Y-56428320D01*
X40287560Y-51728320D02*
X42587560Y-51728320D01*
X40287560Y-56428320D02*
X40287560Y-51728320D01*
G04 #@! TO.C,C5*
X43505020Y-55795720D02*
X43505020Y-53935720D01*
X44445020Y-55795720D02*
X43505020Y-55795720D01*
X44445020Y-53935720D02*
X44445020Y-55795720D01*
X43505020Y-53935720D02*
X44445020Y-53935720D01*
G04 #@! TO.C,C7*
X39954100Y-61730000D02*
X39954100Y-59870000D01*
X40894100Y-61730000D02*
X39954100Y-61730000D01*
X40894100Y-59870000D02*
X40894100Y-61730000D01*
X39954100Y-59870000D02*
X40894100Y-59870000D01*
G04 #@! TO.C,C37*
X38251580Y-55511900D02*
X35291580Y-55511900D01*
X38251580Y-54051900D02*
X38251580Y-55511900D01*
X35291580Y-54051900D02*
X38251580Y-54051900D01*
X35291580Y-55511900D02*
X35291580Y-54051900D01*
G04 #@! TO.C,R3*
X43870000Y-61270000D02*
X43870000Y-63130000D01*
X42930000Y-61270000D02*
X43870000Y-61270000D01*
X42930000Y-63130000D02*
X42930000Y-61270000D01*
X43870000Y-63130000D02*
X42930000Y-63130000D01*
G04 #@! TO.C,R4*
X41730000Y-63130000D02*
X41730000Y-61270000D01*
X42670000Y-63130000D02*
X41730000Y-63130000D01*
X42670000Y-61270000D02*
X42670000Y-63130000D01*
X41730000Y-61270000D02*
X42670000Y-61270000D01*
G04 #@! TO.C,U7*
X44532020Y-56658120D02*
X44532020Y-60998120D01*
X44532020Y-56658120D02*
X41132020Y-56658120D01*
X41132020Y-60998120D02*
X44532020Y-60998120D01*
X41132020Y-60998120D02*
X41132020Y-56658120D01*
G04 #@! TO.C,C64*
X66350000Y-27900000D02*
X64700000Y-27900000D01*
X66350000Y-30900000D02*
X66350000Y-27900000D01*
X64700000Y-30900000D02*
X66350000Y-30900000D01*
X64700000Y-27900000D02*
X64700000Y-26050000D01*
X64700000Y-32750000D02*
X64700000Y-30900000D01*
X64700000Y-32750000D02*
X63550000Y-33900000D01*
X64700000Y-26050000D02*
X63550000Y-24900000D01*
X63550000Y-33900000D02*
X55700000Y-33900000D01*
X63550000Y-24900000D02*
X55700000Y-24900000D01*
X55700000Y-27900000D02*
X55700000Y-24900000D01*
X54050000Y-27900000D02*
X55700000Y-27900000D01*
X54050000Y-30900000D02*
X54050000Y-27900000D01*
X55700000Y-30900000D02*
X54050000Y-30900000D01*
X55700000Y-33900000D02*
X55700000Y-30900000D01*
G04 #@! TO.C,C6*
X14324940Y-18756760D02*
X15974940Y-18756760D01*
X14324940Y-15756760D02*
X14324940Y-18756760D01*
X15974940Y-15756760D02*
X14324940Y-15756760D01*
X15974940Y-18756760D02*
X15974940Y-20606760D01*
X15974940Y-13906760D02*
X15974940Y-15756760D01*
X15974940Y-13906760D02*
X17124940Y-12756760D01*
X15974940Y-20606760D02*
X17124940Y-21756760D01*
X17124940Y-12756760D02*
X24974940Y-12756760D01*
X17124940Y-21756760D02*
X24974940Y-21756760D01*
X24974940Y-18756760D02*
X24974940Y-21756760D01*
X26624940Y-18756760D02*
X24974940Y-18756760D01*
X26624940Y-15756760D02*
X26624940Y-18756760D01*
X24974940Y-15756760D02*
X26624940Y-15756760D01*
X24974940Y-12756760D02*
X24974940Y-15756760D01*
G04 #@! TO.C,R24*
X14520000Y-79670000D02*
X17480000Y-79670000D01*
X14520000Y-81130000D02*
X14520000Y-79670000D01*
X17480000Y-81130000D02*
X14520000Y-81130000D01*
X17480000Y-79670000D02*
X17480000Y-81130000D01*
G04 #@! TO.C,X1*
X21973200Y-79541800D02*
X17573200Y-79541800D01*
X21973200Y-83141800D02*
X21973200Y-79541800D01*
X17573200Y-83141800D02*
X21973200Y-83141800D01*
X17573200Y-79541800D02*
X17573200Y-83141800D01*
G04 #@! TO.C,FB8*
X54020000Y-38020000D02*
X54020000Y-42580000D01*
X51780000Y-38020000D02*
X54020000Y-38020000D01*
X51780000Y-42580000D02*
X51780000Y-38020000D01*
X54020000Y-42580000D02*
X51780000Y-42580000D01*
G04 #@! TO.C,FB4*
X54717600Y-64920000D02*
X59277600Y-64920000D01*
X54717600Y-67160000D02*
X54717600Y-64920000D01*
X59277600Y-67160000D02*
X54717600Y-67160000D01*
X59277600Y-64920000D02*
X59277600Y-67160000D01*
G04 #@! TO.C,FB3*
X54717600Y-68222000D02*
X59277600Y-68222000D01*
X54717600Y-70462000D02*
X54717600Y-68222000D01*
X59277600Y-70462000D02*
X54717600Y-70462000D01*
X59277600Y-68222000D02*
X59277600Y-70462000D01*
G04 #@! TO.C,FB2*
X54755700Y-59459000D02*
X59315700Y-59459000D01*
X54755700Y-61699000D02*
X54755700Y-59459000D01*
X59315700Y-61699000D02*
X54755700Y-61699000D01*
X59315700Y-59459000D02*
X59315700Y-61699000D01*
G04 #@! TO.C,FB1*
X54717600Y-56093500D02*
X59277600Y-56093500D01*
X54717600Y-58333500D02*
X54717600Y-56093500D01*
X59277600Y-58333500D02*
X54717600Y-58333500D01*
X59277600Y-56093500D02*
X59277600Y-58333500D01*
G04 #@! TO.C,U5*
X24050000Y-62900000D02*
X24050000Y-55200000D01*
X18550000Y-62900000D02*
X24050000Y-62900000D01*
X18550000Y-55200000D02*
X18550000Y-62900000D01*
X24050000Y-55200000D02*
X18550000Y-55200000D01*
G04 #@! TO.C,FB6*
X25213060Y-78232120D02*
X25213060Y-81592120D01*
X23313060Y-78232120D02*
X25213060Y-78232120D01*
X23313060Y-81592120D02*
X23313060Y-78232120D01*
X25213060Y-81592120D02*
X23313060Y-81592120D01*
G04 #@! TO.C,J6*
X13892940Y-9227880D02*
X-957060Y-9227880D01*
X-957060Y-9227880D02*
X-957060Y-61027880D01*
X-957060Y-61027880D02*
X13892940Y-61027880D01*
X13892940Y-61027880D02*
X13892940Y-9227880D01*
G04 #@! TO.C,D14*
X50975000Y-5100000D02*
X54475000Y-5100000D01*
X50975000Y-12100000D02*
X50975000Y-5100000D01*
X54475000Y-12100000D02*
X50975000Y-12100000D01*
X54475000Y-5100000D02*
X54475000Y-12100000D01*
G04 #@! TO.C,U1*
X47570000Y-11650000D02*
X47570000Y-350000D01*
X47570000Y-350000D02*
X30930000Y-350000D01*
X30930000Y-350000D02*
X30930000Y-11650000D01*
X30930000Y-11650000D02*
X47570000Y-11650000D01*
G04 #@! TO.C,R1*
X50240800Y-9991000D02*
X50240800Y-10931000D01*
X50240800Y-10931000D02*
X48380800Y-10931000D01*
X48380800Y-10931000D02*
X48380800Y-9991000D01*
X48380800Y-9991000D02*
X50240800Y-9991000D01*
G04 #@! TO.C,C4*
X50240800Y-11141000D02*
X50240800Y-12081000D01*
X50240800Y-12081000D02*
X48380800Y-12081000D01*
X48380800Y-12081000D02*
X48380800Y-11141000D01*
X48380800Y-11141000D02*
X50240800Y-11141000D01*
G04 #@! TO.C,C3*
X47920000Y-3070000D02*
X47920000Y-2130000D01*
X47920000Y-2130000D02*
X49780000Y-2130000D01*
X49780000Y-2130000D02*
X49780000Y-3070000D01*
X49780000Y-3070000D02*
X47920000Y-3070000D01*
G04 #@! TO.C,C1*
X18250000Y-11150000D02*
X18250000Y-7250000D01*
X18250000Y-7250000D02*
X17400000Y-7250000D01*
X17400000Y-7250000D02*
X17400000Y-4250000D01*
X17400000Y-4250000D02*
X18250000Y-4250000D01*
X18250000Y-4250000D02*
X18250000Y-350000D01*
X27900000Y-350000D02*
X18250000Y-350000D01*
X27900000Y-11150000D02*
X18250000Y-11150000D01*
X29050000Y-1500000D02*
X27900000Y-350000D01*
X29050000Y-10000000D02*
X27900000Y-11150000D01*
X29050000Y-10000000D02*
X29050000Y-7250000D01*
X29050000Y-4250000D02*
X29050000Y-1500000D01*
X29050000Y-7250000D02*
X29900000Y-7250000D01*
X29900000Y-7250000D02*
X29900000Y-4250000D01*
X29900000Y-4250000D02*
X29050000Y-4250000D01*
G04 #@! TO.C,C60*
X65270000Y-90070000D02*
X66730000Y-90070000D01*
X66730000Y-90070000D02*
X66730000Y-93030000D01*
X66730000Y-93030000D02*
X65270000Y-93030000D01*
X65270000Y-93030000D02*
X65270000Y-90070000D01*
G04 #@! TO.C,C59*
X53470000Y-86870000D02*
X53470000Y-85930000D01*
X53470000Y-85930000D02*
X55330000Y-85930000D01*
X55330000Y-85930000D02*
X55330000Y-86870000D01*
X55330000Y-86870000D02*
X53470000Y-86870000D01*
G04 #@! TO.C,C63*
X50180000Y-40770000D02*
X51120000Y-40770000D01*
X51120000Y-40770000D02*
X51120000Y-42630000D01*
X51120000Y-42630000D02*
X50180000Y-42630000D01*
X50180000Y-42630000D02*
X50180000Y-40770000D01*
G04 #@! TO.C,C61*
X49828700Y-80479100D02*
X50768700Y-80479100D01*
X50768700Y-80479100D02*
X50768700Y-82339100D01*
X50768700Y-82339100D02*
X49828700Y-82339100D01*
X49828700Y-82339100D02*
X49828700Y-80479100D01*
G04 #@! TO.C,R50*
X64458080Y-81033520D02*
X64458080Y-81973520D01*
X64458080Y-81973520D02*
X62598080Y-81973520D01*
X62598080Y-81973520D02*
X62598080Y-81033520D01*
X62598080Y-81033520D02*
X64458080Y-81033520D01*
G04 #@! TO.C,R49*
X28080000Y-27070000D02*
X29020000Y-27070000D01*
X29020000Y-27070000D02*
X29020000Y-28930000D01*
X29020000Y-28930000D02*
X28080000Y-28930000D01*
X28080000Y-28930000D02*
X28080000Y-27070000D01*
G04 #@! TO.C,R48*
X29230000Y-27070000D02*
X30170000Y-27070000D01*
X30170000Y-27070000D02*
X30170000Y-28930000D01*
X30170000Y-28930000D02*
X29230000Y-28930000D01*
X29230000Y-28930000D02*
X29230000Y-27070000D01*
G04 #@! TO.C,R40*
X26680000Y-58430000D02*
X26680000Y-59370000D01*
X26680000Y-59370000D02*
X24820000Y-59370000D01*
X24820000Y-59370000D02*
X24820000Y-58430000D01*
X24820000Y-58430000D02*
X26680000Y-58430000D01*
G04 #@! TO.C,R39*
X24820000Y-58170000D02*
X24820000Y-57230000D01*
X24820000Y-57230000D02*
X26680000Y-57230000D01*
X26680000Y-57230000D02*
X26680000Y-58170000D01*
X26680000Y-58170000D02*
X24820000Y-58170000D01*
G04 #@! TO.C,R28*
X54624560Y-2176320D02*
X55564560Y-2176320D01*
X55564560Y-2176320D02*
X55564560Y-4036320D01*
X55564560Y-4036320D02*
X54624560Y-4036320D01*
X54624560Y-4036320D02*
X54624560Y-2176320D01*
G04 #@! TO.C,PWR1*
X55771720Y-1133560D02*
X57231720Y-1133560D01*
X57231720Y-1133560D02*
X57231720Y-4093560D01*
X57231720Y-4093560D02*
X55771720Y-4093560D01*
X55771720Y-4093560D02*
X55771720Y-1133560D01*
G04 #@! TO.C,C58*
X27712740Y-79284640D02*
X27712740Y-80224640D01*
X27712740Y-80224640D02*
X25852740Y-80224640D01*
X25852740Y-80224640D02*
X25852740Y-79284640D01*
X25852740Y-79284640D02*
X27712740Y-79284640D01*
G04 #@! TO.C,C57*
X27063600Y-17300300D02*
X27063600Y-15440300D01*
X28003600Y-17300300D02*
X27063600Y-17300300D01*
X28003600Y-15440300D02*
X28003600Y-17300300D01*
X27063600Y-15440300D02*
X28003600Y-15440300D01*
G04 #@! TO.C,C56*
X25852740Y-80361600D02*
X27712740Y-80361600D01*
X25852740Y-81301600D02*
X25852740Y-80361600D01*
X27712740Y-81301600D02*
X25852740Y-81301600D01*
X27712740Y-80361600D02*
X27712740Y-81301600D01*
G04 #@! TO.C,C55*
X28349300Y-12344500D02*
X26489300Y-12344500D01*
X28349300Y-11404500D02*
X28349300Y-12344500D01*
X26489300Y-11404500D02*
X28349300Y-11404500D01*
X26489300Y-12344500D02*
X26489300Y-11404500D01*
G04 #@! TO.C,C54*
X15824560Y-62169140D02*
X13964560Y-62169140D01*
X15824560Y-61229140D02*
X15824560Y-62169140D01*
X13964560Y-61229140D02*
X15824560Y-61229140D01*
X13964560Y-62169140D02*
X13964560Y-61229140D01*
G04 #@! TO.C,C53*
X30930000Y-74048720D02*
X29070000Y-74048720D01*
X30930000Y-73108720D02*
X30930000Y-74048720D01*
X29070000Y-73108720D02*
X30930000Y-73108720D01*
X29070000Y-74048720D02*
X29070000Y-73108720D01*
G04 #@! TO.C,C52*
X30175560Y-69649440D02*
X28315560Y-69649440D01*
X30175560Y-68709440D02*
X30175560Y-69649440D01*
X28315560Y-68709440D02*
X30175560Y-68709440D01*
X28315560Y-69649440D02*
X28315560Y-68709440D01*
G04 #@! TO.C,C51*
X27752400Y-78105100D02*
X25892400Y-78105100D01*
X27752400Y-77165100D02*
X27752400Y-78105100D01*
X25892400Y-77165100D02*
X27752400Y-77165100D01*
X25892400Y-78105100D02*
X25892400Y-77165100D01*
G04 #@! TO.C,C50*
X15621946Y-65051580D02*
X15621946Y-66911580D01*
X14681946Y-65051580D02*
X15621946Y-65051580D01*
X14681946Y-66911580D02*
X14681946Y-65051580D01*
X15621946Y-66911580D02*
X14681946Y-66911580D01*
G04 #@! TO.C,C49*
X19256100Y-79362400D02*
X17396100Y-79362400D01*
X19256100Y-78422400D02*
X19256100Y-79362400D01*
X17396100Y-78422400D02*
X19256100Y-78422400D01*
X17396100Y-79362400D02*
X17396100Y-78422400D01*
G04 #@! TO.C,C48*
X14529600Y-77212840D02*
X16389600Y-77212840D01*
X14529600Y-78152840D02*
X14529600Y-77212840D01*
X16389600Y-78152840D02*
X14529600Y-78152840D01*
X16389600Y-77212840D02*
X16389600Y-78152840D01*
G04 #@! TO.C,C47*
X11566800Y-69811800D02*
X13426800Y-69811800D01*
X11566800Y-70751800D02*
X11566800Y-69811800D01*
X13426800Y-70751800D02*
X11566800Y-70751800D01*
X13426800Y-69811800D02*
X13426800Y-70751800D01*
G04 #@! TO.C,C46*
X29938880Y-79410920D02*
X29938880Y-77550920D01*
X30878880Y-79410920D02*
X29938880Y-79410920D01*
X30878880Y-77550920D02*
X30878880Y-79410920D01*
X29938880Y-77550920D02*
X30878880Y-77550920D01*
G04 #@! TO.C,C45*
X11544560Y-73467660D02*
X13404560Y-73467660D01*
X11544560Y-74407660D02*
X11544560Y-73467660D01*
X13404560Y-74407660D02*
X11544560Y-74407660D01*
X13404560Y-73467660D02*
X13404560Y-74407660D01*
G04 #@! TO.C,C44*
X11570000Y-71880000D02*
X13430000Y-71880000D01*
X11570000Y-72820000D02*
X11570000Y-71880000D01*
X13430000Y-72820000D02*
X11570000Y-72820000D01*
X13430000Y-71880000D02*
X13430000Y-72820000D01*
G04 #@! TO.C,C43*
X14430000Y-83305000D02*
X14430000Y-81445000D01*
X15370000Y-83305000D02*
X14430000Y-83305000D01*
X15370000Y-81445000D02*
X15370000Y-83305000D01*
X14430000Y-81445000D02*
X15370000Y-81445000D01*
G04 #@! TO.C,C42*
X14495880Y-65051580D02*
X14495880Y-66911580D01*
X13555880Y-65051580D02*
X14495880Y-65051580D01*
X13555880Y-66911580D02*
X13555880Y-65051580D01*
X14495880Y-66911580D02*
X13555880Y-66911580D01*
G04 #@! TO.C,C41*
X26713280Y-65455440D02*
X26713280Y-67315440D01*
X25773280Y-65455440D02*
X26713280Y-65455440D01*
X25773280Y-67315440D02*
X25773280Y-65455440D01*
X26713280Y-67315440D02*
X25773280Y-67315440D01*
G04 #@! TO.C,C40*
X13180000Y-83305000D02*
X13180000Y-81445000D01*
X14120000Y-83305000D02*
X13180000Y-83305000D01*
X14120000Y-81445000D02*
X14120000Y-83305000D01*
X13180000Y-81445000D02*
X14120000Y-81445000D01*
G04 #@! TO.C,C36*
X14529600Y-78416800D02*
X16389600Y-78416800D01*
X14529600Y-79356800D02*
X14529600Y-78416800D01*
X16389600Y-79356800D02*
X14529600Y-79356800D01*
X16389600Y-78416800D02*
X16389600Y-79356800D01*
G04 #@! TO.C,C35*
X11544560Y-67386900D02*
X13404560Y-67386900D01*
X11544560Y-68326900D02*
X11544560Y-67386900D01*
X13404560Y-68326900D02*
X11544560Y-68326900D01*
X13404560Y-67386900D02*
X13404560Y-68326900D01*
G04 #@! TO.C,C28*
X40055900Y-34833200D02*
X40055900Y-36693200D01*
X39115900Y-34833200D02*
X40055900Y-34833200D01*
X39115900Y-36693200D02*
X39115900Y-34833200D01*
X40055900Y-36693200D02*
X39115900Y-36693200D01*
G04 #@! TO.C,C8*
X47920000Y-4830000D02*
X49780000Y-4830000D01*
X47920000Y-5770000D02*
X47920000Y-4830000D01*
X49780000Y-5770000D02*
X47920000Y-5770000D01*
X49780000Y-4830000D02*
X49780000Y-5770000D01*
G04 #@! TO.C,R27*
X51270000Y-33180000D02*
X53130000Y-33180000D01*
X51270000Y-34120000D02*
X51270000Y-33180000D01*
X53130000Y-34120000D02*
X51270000Y-34120000D01*
X53130000Y-33180000D02*
X53130000Y-34120000D01*
G04 #@! TO.C,R46*
X12309200Y-87731700D02*
X10449200Y-87731700D01*
X12309200Y-86791700D02*
X12309200Y-87731700D01*
X10449200Y-86791700D02*
X12309200Y-86791700D01*
X10449200Y-87731700D02*
X10449200Y-86791700D01*
G04 #@! TO.C,R45*
X12245700Y-86550600D02*
X10385700Y-86550600D01*
X12245700Y-85610600D02*
X12245700Y-86550600D01*
X10385700Y-85610600D02*
X12245700Y-85610600D01*
X10385700Y-86550600D02*
X10385700Y-85610600D01*
G04 #@! TO.C,R44*
X21986600Y-12446100D02*
X20126600Y-12446100D01*
X21986600Y-11506100D02*
X21986600Y-12446100D01*
X20126600Y-11506100D02*
X21986600Y-11506100D01*
X20126600Y-12446100D02*
X20126600Y-11506100D01*
G04 #@! TO.C,R43*
X22768200Y-11506100D02*
X24628200Y-11506100D01*
X22768200Y-12446100D02*
X22768200Y-11506100D01*
X24628200Y-12446100D02*
X22768200Y-12446100D01*
X24628200Y-11506100D02*
X24628200Y-12446100D01*
G04 #@! TO.C,R41*
X25714860Y-69276320D02*
X25714860Y-67416320D01*
X26654860Y-69276320D02*
X25714860Y-69276320D01*
X26654860Y-67416320D02*
X26654860Y-69276320D01*
X25714860Y-67416320D02*
X26654860Y-67416320D01*
G04 #@! TO.C,R36*
X27930000Y-71630000D02*
X27930000Y-69770000D01*
X28870000Y-71630000D02*
X27930000Y-71630000D01*
X28870000Y-69770000D02*
X28870000Y-71630000D01*
X27930000Y-69770000D02*
X28870000Y-69770000D01*
G04 #@! TO.C,R35*
X31730000Y-72070000D02*
X29870000Y-72070000D01*
X31730000Y-71130000D02*
X31730000Y-72070000D01*
X29870000Y-71130000D02*
X31730000Y-71130000D01*
X29870000Y-72070000D02*
X29870000Y-71130000D01*
G04 #@! TO.C,R34*
X16934080Y-66911580D02*
X16934080Y-65051580D01*
X17874080Y-66911580D02*
X16934080Y-66911580D01*
X17874080Y-65051580D02*
X17874080Y-66911580D01*
X16934080Y-65051580D02*
X17874080Y-65051580D01*
G04 #@! TO.C,R32*
X22253200Y-81371800D02*
X22253200Y-79511800D01*
X23193200Y-81371800D02*
X22253200Y-81371800D01*
X23193200Y-79511800D02*
X23193200Y-81371800D01*
X22253200Y-79511800D02*
X23193200Y-79511800D01*
G04 #@! TO.C,R26*
X13972180Y-62298480D02*
X15832180Y-62298480D01*
X13972180Y-63238480D02*
X13972180Y-62298480D01*
X15832180Y-63238480D02*
X13972180Y-63238480D01*
X15832180Y-62298480D02*
X15832180Y-63238480D01*
G04 #@! TO.C,R8*
X47920000Y-3580000D02*
X49780000Y-3580000D01*
X47920000Y-4520000D02*
X47920000Y-3580000D01*
X49780000Y-4520000D02*
X47920000Y-4520000D01*
X49780000Y-3580000D02*
X49780000Y-4520000D01*
G04 #@! TO.C,D20*
X17498000Y-87475800D02*
X13998000Y-87475800D01*
X17498000Y-84075800D02*
X17498000Y-87475800D01*
X13998000Y-84075800D02*
X17498000Y-84075800D01*
X13998000Y-87475800D02*
X13998000Y-84075800D01*
G04 #@! TO.C,D1*
X38214100Y-37350000D02*
X35014100Y-37350000D01*
X35014100Y-37350000D02*
X35014100Y-35450000D01*
X38214100Y-35450000D02*
X35014100Y-35450000D01*
X38214100Y-37350000D02*
X38214100Y-35450000D01*
G04 #@! TO.C,C10*
X48698700Y-78144100D02*
X48698700Y-76284100D01*
X49638700Y-78144100D02*
X48698700Y-78144100D01*
X49638700Y-76284100D02*
X49638700Y-78144100D01*
X48698700Y-76284100D02*
X49638700Y-76284100D01*
G04 #@! TD*
M02*
