M48
; DRILL file {KiCad (5.1.7)-1} date 11/22/20 20:52:59
; FORMAT={-:-/ absolute / inch / decimal}
; #@! TF.CreationDate,2020-11-22T20:52:59-08:00
; #@! TF.GenerationSoftware,Kicad,Pcbnew,(5.1.7)-1
; #@! TF.FileFunction,Plated,1,4,PTH
FMAT,2
INCH
T1C0.0080
T2C0.0118
T3C0.0157
T4C0.0197
T5C0.0295
T6C0.0394
T7C0.0402
T8C0.1181
%
G90
G05
T1
X2.1622Y-2.8608
X2.1622Y-2.912
X2.1622Y-2.9632
X2.1622Y-3.0143
X2.1622Y-3.0655
X2.1622Y-3.1167
X2.1622Y-3.1679
X2.1622Y-3.2191
X2.2133Y-2.8608
X2.2133Y-2.912
X2.2133Y-2.9632
X2.2133Y-3.0143
X2.2133Y-3.0655
X2.2133Y-3.1167
X2.2133Y-3.1679
X2.2133Y-3.2191
X2.2645Y-2.8608
X2.2645Y-2.912
X2.2645Y-2.9632
X2.2645Y-3.0143
X2.2645Y-3.0655
X2.2645Y-3.1167
X2.2645Y-3.1679
X2.2645Y-3.2191
T2
X0.7395Y-2.7695
X0.7395Y-2.8089
X0.7395Y-2.8483
X0.7395Y-2.8876
X0.7395Y-2.927
X0.7789Y-2.7695
X0.7789Y-2.8089
X0.7789Y-2.8483
X0.7789Y-2.8876
X0.7789Y-2.927
X0.8183Y-2.7695
X0.8183Y-2.8089
X0.8183Y-2.8483
X0.8183Y-2.8876
X0.8183Y-2.927
X0.8576Y-2.7695
X0.8576Y-2.8089
X0.8576Y-2.8483
X0.8576Y-2.8876
X0.8576Y-2.927
X0.897Y-2.7695
X0.897Y-2.8089
X0.897Y-2.8483
X0.897Y-2.8876
T3
X0.0306Y-2.4552
X0.0385Y-1.9922
X0.046Y-3.0732
X0.0475Y-1.3196
X0.0482Y-1.4038
X0.0562Y-2.5242
X0.0604Y-1.0156
X0.0642Y-0.3362
X0.0715Y-0.9715
X0.084Y-0.809
X0.0848Y-0.5558
X0.1007Y-3.3905
X0.126Y-1.6
X0.126Y-0.8056
X0.1394Y-0.565
X0.1417Y-2.9464
X0.1417Y-3.0835
X0.1575Y-2.8674
X0.1575Y-2.9048
X0.1615Y-1.4826
X0.1615Y-1.093
X0.1713Y-3.1492
X0.1732Y-1.7918
X0.1732Y-1.8625
X0.1792Y-1.541
X0.185Y-2.1175
X0.1853Y-3.34
X0.187Y-2.034
X0.1976Y-1.1538
X0.2053Y-0.7
X0.212Y-2.436
X0.2514Y-1.2196
X0.2514Y-1.3028
X0.2564Y-1.7574
X0.2578Y-2.7274
X0.2604Y-0.734
X0.2606Y-2.241
X0.2716Y-2.042
X0.2736Y-1.3816
X0.2889Y-2.9048
X0.3046Y-1.4188
X0.306Y-1.6725
X0.3159Y-1.144
X0.3174Y-1.5577
X0.3224Y-1.0898
X0.3505Y-3.102
X0.354Y-3.0175
X0.3644Y-3.1966
X0.385Y-3.0685
X0.41Y-3.042
X0.424Y-1.4613
X0.4592Y-2.9416
X0.4664Y-2.9904
X0.468Y-2.6392
X0.4695Y-3.334
X0.499Y-3.014
X0.504Y-3.4375
X0.52Y-2.5844
X0.521Y-1.474
X0.5263Y-1.158
X0.531Y-2.5126
X0.5368Y-1.0802
X0.5371Y-2.7185
X0.5371Y-1.7141
X0.5428Y-2.9313
X0.546Y-2.894
X0.5474Y-2.8567
X0.5526Y-1.555
X0.56Y-3.184
X0.5658Y-1.8353
X0.5675Y-1.7324
X0.5756Y-1.146
X0.5825Y-0.64
X0.5825Y-0.7187
X0.583Y-3.0255
X0.6046Y-1.2536
X0.613Y-0.978
X0.6152Y-2.954
X0.6204Y-2.4042
X0.6208Y-2.3634
X0.622Y-3.2215
X0.625Y-3.2615
X0.6274Y-2.4778
X0.6347Y-1.1776
X0.6354Y-1.5491
X0.6366Y-2.6708
X0.655Y-0.897
X0.6612Y-0.64
X0.6612Y-0.7187
X0.6615Y-2.4875
X0.6644Y-1.4892
X0.6707Y-1.7028
X0.6838Y-3.598
X0.6846Y-1.6479
X0.6931Y-1.2455
X0.6984Y-0.4738
X0.7043Y-1.3166
X0.7049Y-1.9066
X0.7146Y-2.3413
X0.7201Y-2.6379
X0.7216Y-1.7236
X0.723Y-0.1965
X0.723Y-0.2465
X0.7252Y-2.1188
X0.73Y-1.657
X0.7375Y-0.985
X0.74Y-0.64
X0.74Y-0.7187
X0.7456Y-2.155
X0.7462Y-1.9624
X0.747Y-1.824
X0.7495Y-3.201
X0.7554Y-1.4156
X0.7558Y-1.2316
X0.7584Y-1.5094
X0.7608Y-1.681
X0.773Y-0.1965
X0.773Y-0.2465
X0.7796Y-3.0867
X0.7802Y-2.4226
X0.7803Y-1.8069
X0.7852Y-2.1168
X0.787Y-2.5953
X0.7881Y-2.2719
X0.7912Y-3.1201
X0.8069Y-3.6816
X0.8072Y-0.7228
X0.8073Y-1.9476
X0.8074Y-1.178
X0.8132Y-1.6302
X0.8154Y-0.5224
X0.8175Y-0.4215
X0.8175Y-2.1024
X0.8176Y-1.689
X0.8196Y-1.7683
X0.823Y-0.1965
X0.823Y-0.2465
X0.8265Y-3.1135
X0.8283Y-2.5953
X0.8288Y-3.603
X0.8326Y-3.716
X0.8377Y-3.2637
X0.8515Y-1.1195
X0.8531Y-2.1046
X0.8536Y-1.52
X0.8584Y-0.5614
X0.8584Y-2.5532
X0.8608Y-2.2787
X0.8618Y-3.3863
X0.8628Y-3.085
X0.8681Y-1.7602
X0.8719Y-3.3174
X0.877Y-0.6405
X0.877Y-0.7192
X0.8785Y-0.45
X0.8806Y-3.8034
X0.8824Y-2.4261
X0.8828Y-3.5994
X0.8882Y-1.8886
X0.897Y-1.4696
X0.9018Y-2.3807
X0.9159Y-2.0542
X0.9171Y-2.1078
X0.925Y-3.0635
X0.932Y-3.6873
X0.948Y-1.5613
X0.9503Y-1.2622
X0.951Y-2.5462
X0.9518Y-0.6794
X0.9557Y-0.6405
X0.9557Y-0.7192
X0.956Y-1.3879
X0.956Y-1.0272
X0.958Y-2.2613
X0.9581Y-1.7024
X0.9624Y-1.9883
X0.9626Y-3.0289
X0.963Y-2.636
X0.9645Y-3.0761
X0.9665Y-2.9935
X0.9669Y-1.4557
X0.978Y-3.797
X0.9901Y-1.5571
X1.0045Y-3.0765
X1.0106Y-0.918
X1.019Y-3.221
X1.0297Y-1.5447
X1.0332Y-2.5075
X1.034Y-0.1995
X1.034Y-0.2495
X1.0345Y-0.6405
X1.0345Y-0.7192
X1.0361Y-1.7665
X1.0391Y-2.9488
X1.0401Y-1.3152
X1.041Y-1.4485
X1.0452Y-1.9795
X1.0454Y-3.0924
X1.0526Y-1.0762
X1.0578Y-3.3336
X1.063Y-3.0005
X1.066Y-0.9849
X1.0684Y-2.9256
X1.0778Y-3.2436
X1.0794Y-0.8704
X1.0816Y-3.0831
X1.082Y-3.5986
X1.0835Y-0.595
X1.084Y-0.1995
X1.084Y-0.2495
X1.0857Y-0.696
X1.0878Y-1.9732
X1.089Y-2.6386
X1.0893Y-1.8196
X1.0992Y-1.6964
X1.0997Y-2.2252
X1.0997Y-2.4012
X1.0997Y-2.602
X1.1052Y-2.9188
X1.1121Y-2.5387
X1.1126Y-2.4548
X1.1136Y-1.3166
X1.1202Y-2.5042
X1.1224Y-2.017
X1.1228Y-2.1398
X1.123Y-0.498
X1.1249Y-1.8843
X1.1256Y-1.0814
X1.1259Y-1.8118
X1.1265Y-1.7587
X1.1328Y-3.3276
X1.133Y-0.7125
X1.133Y-0.7912
X1.133Y-0.87
X1.134Y-0.1995
X1.134Y-0.2495
X1.134Y-2.7848
X1.1364Y-1.7226
X1.1449Y-3.006
X1.1466Y-1.175
X1.1474Y-3.0433
X1.155Y-2.341
X1.1572Y-1.6292
X1.1592Y-2.2684
X1.1608Y-2.8608
X1.17Y-0.4072
X1.1742Y-2.6932
X1.177Y-2.399
X1.1784Y-1.5704
X1.1814Y-3.7978
X1.1871Y-1.4488
X1.1876Y-2.7937
X1.1925Y-2.5904
X1.1962Y-3.0348
X1.1976Y-3.1464
X1.2074Y-2.8584
X1.209Y-1.683
X1.2117Y-0.7125
X1.2117Y-0.7912
X1.2117Y-0.87
X1.2132Y-1.5439
X1.2151Y-1.2821
X1.2225Y-3.51
X1.227Y-3.7826
X1.2287Y-1.7167
X1.2318Y-3.6617
X1.239Y-1.3882
X1.2443Y-1.8509
X1.2449Y-1.9616
X1.2603Y-1.8089
X1.2672Y-2.9956
X1.2673Y-2.9582
X1.2725Y-3.4965
X1.2815Y-3.6005
X1.2905Y-0.7125
X1.2905Y-0.7912
X1.2905Y-0.87
X1.2905Y-1.2125
X1.2908Y-2.917
X1.2917Y-2.8785
X1.3038Y-2.3785
X1.3038Y-2.529
X1.305Y-1.591
X1.3056Y-2.8038
X1.3065Y-2.6991
X1.3125Y-1.2956
X1.3129Y-1.0322
X1.32Y-3.7272
X1.325Y-0.5255
X1.3423Y-1.5882
X1.344Y-1.4165
X1.3479Y-2.6991
X1.3574Y-1.8491
X1.3695Y-0.634
X1.38Y-1.2412
X1.3852Y-3.4204
X1.3928Y-1.6042
X1.3963Y-2.6251
X1.3978Y-2.6684
X1.4092Y-3.1642
X1.4144Y-3.3912
X1.424Y-3.5039
X1.432Y-1.3785
X1.4485Y-2.8215
X1.4485Y-2.8845
X1.4485Y-2.9475
X1.4485Y-3.0105
X1.4485Y-3.0735
X1.4485Y-3.1365
X1.4485Y-3.1995
X1.4485Y-3.2624
X1.4622Y-1.7741
X1.4684Y-1.5439
X1.482Y-3.601
X1.4866Y-0.6458
X1.488Y-2.2591
X1.499Y-2.2198
X1.4996Y-1.095
X1.5016Y-2.181
X1.5072Y-2.1004
X1.5115Y-2.8215
X1.5115Y-2.8845
X1.5115Y-2.9475
X1.5115Y-3.0105
X1.5115Y-3.0735
X1.5115Y-3.1365
X1.5115Y-3.1995
X1.5115Y-3.2624
X1.5248Y-3.3676
X1.5315Y-1.279
X1.5325Y-1.167
X1.5455Y-2.9784
X1.5461Y-1.5834
X1.5604Y-2.0938
X1.5604Y-2.1714
X1.5734Y-0.9192
X1.5745Y-2.8215
X1.5745Y-2.8845
X1.5745Y-2.9475
X1.5745Y-3.0105
X1.5745Y-3.0735
X1.5745Y-3.1365
X1.5745Y-3.1995
X1.5745Y-3.2624
X1.582Y-1.2795
X1.584Y-1.1665
X1.5851Y-1.6873
X1.5872Y-1.069
X1.5901Y-1.63
X1.5927Y-1.4462
X1.5992Y-1.574
X1.6012Y-3.3504
X1.604Y-1.9895
X1.6084Y-1.3576
X1.6173Y-2.7088
X1.6225Y-1.8073
X1.6253Y-1.6008
X1.6295Y-2.6076
X1.6368Y-1.0302
X1.6375Y-2.8215
X1.6375Y-2.8845
X1.6375Y-2.9475
X1.6375Y-3.0105
X1.6375Y-3.0735
X1.6375Y-3.1365
X1.6375Y-3.1995
X1.6375Y-3.2624
X1.651Y-1.6954
X1.657Y-1.8216
X1.6629Y-1.879
X1.6688Y-2.1093
X1.6694Y-2.6068
X1.6704Y-1.5496
X1.6722Y-1.5123
X1.6759Y-2.9085
X1.6766Y-1.2226
X1.6791Y-2.3692
X1.681Y-3.3534
X1.6847Y-1.0408
X1.6854Y-3.0105
X1.6879Y-2.4639
X1.6945Y-0.367
X1.6985Y-0.169
X1.705Y-2.2634
X1.7051Y-1.8472
X1.7066Y-1.9247
X1.7081Y-2.1164
X1.7122Y-1.3509
X1.722Y-0.235
X1.7373Y-2.1456
X1.7402Y-1.2284
X1.7432Y-1.1734
X1.745Y-1.7741
X1.7502Y-3.3544
X1.7527Y-1.5392
X1.755Y-2.371
X1.7632Y-1.2844
X1.7656Y-1.698
X1.767Y-3.039
X1.7701Y-1.8225
X1.7715Y-0.3645
X1.7722Y-0.9884
X1.7725Y-0.169
X1.7816Y-2.8732
X1.7858Y-3.329
X1.7915Y-2.716
X1.7965Y-0.446
X1.8033Y-2.6611
X1.8066Y-1.166
X1.8073Y-1.8185
X1.8082Y-1.2334
X1.8125Y-1.321
X1.8225Y-2.9987
X1.824Y-3.3288
X1.8265Y-3.1977
X1.8284Y-2.5607
X1.8323Y-2.4625
X1.8376Y-1.5845
X1.8376Y-1.9865
X1.8376Y-2.1205
X1.8376Y-1.9276
X1.8394Y-0.615
X1.8444Y-0.9706
X1.8457Y-2.4024
X1.8475Y-2.2168
X1.848Y-0.367
X1.849Y-0.1695
X1.8692Y-1.3616
X1.8692Y-3.1414
X1.8696Y-1.0476
X1.8742Y-1.7561
X1.882Y-0.4645
X1.8885Y-0.3055
X1.892Y-1.8115
X1.8948Y-1.589
X1.9042Y-2.873
X1.9125Y-2.9545
X1.9135Y-2.913
X1.9175Y-0.4949
X1.9252Y-3.1525
X1.9302Y-3.3134
X1.9363Y-3.0675
X1.9484Y-1.7534
X1.9493Y-1.6021
X1.9498Y-3.4048
X1.9507Y-0.6783
X1.9524Y-0.6108
X1.9571Y-0.1011
X1.9667Y-2.9063
X1.9694Y-1.3376
X1.9721Y-3.1086
X1.9766Y-1.8255
X1.9896Y-1.1618
X1.9901Y-2.3244
X1.9914Y-1.2394
X1.9975Y-3.1475
X2.0003Y-2.8155
X2.0012Y-3.3468
X2.0025Y-3.2595
X2.0076Y-3.7026
X2.025Y-1.3142
X2.0262Y-1.373
X2.028Y-2.0782
X2.0295Y-0.6783
X2.0295Y-0.8116
X2.0308Y-2.417
X2.0309Y-2.2237
X2.0311Y-0.6108
X2.0425Y-3.1237
X2.0432Y-1.1596
X2.0444Y-1.2354
X2.051Y-3.2855
X2.0525Y-3.486
X2.0578Y-2.732
X2.0607Y-2.7711
X2.0658Y-1.3142
X2.0658Y-1.3752
X2.0733Y-2.6506
X2.0733Y-2.688
X2.0758Y-0.2598
X2.076Y-0.4195
X2.0815Y-1.8384
X2.087Y-1.0444
X2.1038Y-1.9194
X2.1082Y-0.6783
X2.1083Y-0.7452
X2.1083Y-0.8116
X2.1099Y-0.6108
X2.1102Y-2.1498
X2.13Y-1.8294
X2.137Y-1.3084
X2.1418Y-2.4264
X2.1554Y-1.229
X2.157Y-1.1498
X2.1725Y-2.316
X2.2192Y-1.149
X2.2195Y-2.083
X2.2214Y-1.2298
X2.2391Y-2.6363
X2.2618Y-0.6166
X2.2618Y-0.6757
X2.2618Y-0.7347
X2.2618Y-0.7938
X2.2618Y-0.8528
X2.2754Y-2.461
X2.2995Y-2.1975
X2.3038Y-1.149
X2.3044Y-2.6776
X2.3046Y-1.2306
X2.305Y-2.547
X2.3209Y-0.6166
X2.3209Y-0.6757
X2.3209Y-0.7347
X2.3209Y-0.7938
X2.3209Y-0.8528
X2.322Y-2.434
X2.339Y-0.3635
X2.339Y-0.4422
X2.3517Y-2.6455
X2.3799Y-0.6166
X2.3799Y-0.6757
X2.3799Y-0.7347
X2.3799Y-0.7938
X2.3799Y-0.8528
X2.3826Y-3.0626
X2.389Y-2.9065
X2.4172Y-3.0302
X2.4177Y-0.3635
X2.4177Y-0.4422
X2.439Y-0.6166
X2.439Y-0.6757
X2.439Y-0.7347
X2.439Y-0.7938
X2.439Y-0.8528
X2.4466Y-1.229
X2.4482Y-1.1514
X2.453Y-2.9145
X2.4541Y-3.2058
X2.4658Y-1.5856
X2.4882Y-3.0727
X2.4925Y-3.132
X2.4965Y-0.3635
X2.4965Y-0.4422
X2.498Y-0.6166
X2.498Y-0.6757
X2.498Y-0.7347
X2.498Y-0.7938
X2.498Y-0.8528
X2.5103Y-2.8979
X2.5296Y-1.1506
X2.5296Y-1.2266
X2.537Y-2.741
X2.55Y-3.2096
X2.5842Y-2.1436
X2.589Y-3.241
X2.5905Y-2.5925
X2.5905Y-2.6712
X2.5905Y-2.75
X2.5905Y-2.8287
X2.5905Y-2.9075
X2.596Y-1.6936
X2.5964Y-1.1498
X2.598Y-1.2306
X2.6014Y-3.0676
X2.6056Y-1.0578
T4
X1.9489Y-2.2958
X2.0187Y-2.3775
X2.1842Y-2.5292
X2.1928Y-2.1898
X2.2058Y-2.4398
X2.2424Y-2.681
X2.3866Y-2.5236
X2.3974Y-3.4234
X2.4448Y-3.4578
X2.5512Y-2.8522
T5
X2.487Y-2.25
X2.487Y-2.3287
X2.487Y-2.574
X2.487Y-2.6527
T6
X0.7894Y-3.4803
X0.8894Y-3.4803
X0.9894Y-3.4803
X1.0894Y-3.4803
X0.3761Y-0.4322
X0.3761Y-0.5322
X0.3761Y-0.6322
X0.3761Y-0.7322
X0.3761Y-0.8322
X0.3761Y-0.9322
X0.3761Y-1.0322
X0.3761Y-1.1322
X0.3761Y-1.2322
X0.3761Y-1.3322
X0.3761Y-1.4322
X0.3761Y-1.5322
X0.3761Y-1.6322
X0.3761Y-1.7322
X0.3761Y-1.8322
X0.3761Y-1.9322
X0.3761Y-2.0322
X0.3761Y-2.1322
X0.3761Y-2.2322
X0.3761Y-2.3322
X0.4761Y-0.4322
X0.4761Y-0.5322
X0.4761Y-0.6322
X0.4761Y-0.7322
X0.4761Y-0.8322
X0.4761Y-0.9322
X0.4761Y-1.0322
X0.4761Y-1.1322
X0.4761Y-1.2322
X0.4761Y-1.3322
X0.4761Y-1.4322
X0.4761Y-1.5322
X0.4761Y-1.6322
X0.4761Y-1.7322
X0.4761Y-1.8322
X0.4761Y-1.9322
X0.4761Y-2.0322
X0.4761Y-2.1322
X0.4761Y-2.2322
X0.4761Y-2.3322
T7
X2.233Y-1.5071
X2.333Y-1.5071
X2.433Y-1.5071
X2.533Y-1.5071
T8
X0.5315Y-0.1969
X0.5315Y-3.6647
X2.4378Y-3.6647
X2.4378Y-0.1969
T6
G00X2.2384Y-1.9718
M15
G01X2.2384Y-1.8931
M16
G05
G00X2.3959Y-1.7474
M15
G01X2.3171Y-1.7474
M16
G05
G00X2.4746Y-1.9718
M15
G01X2.4746Y-1.8931
M16
G05
G00X1.5696Y-3.8061
M15
G01X1.5696Y-3.7903
M16
G05
G00X1.5912Y-3.5108
M15
G01X1.5912Y-3.4951
M16
G05
G00X1.7724Y-3.5108
M15
G01X1.7724Y-3.4951
M16
G05
G00X1.794Y-3.8061
M15
G01X1.794Y-3.7903
M16
G05
T0
M30
