G04 #@! TF.GenerationSoftware,KiCad,Pcbnew,(5.1.9)-1*
G04 #@! TF.CreationDate,2021-01-16T15:24:30-08:00*
G04 #@! TF.ProjectId,SJ-201-R6,534a2d32-3031-42d5-9236-2e6b69636164,rev?*
G04 #@! TF.SameCoordinates,Original*
G04 #@! TF.FileFunction,Soldermask,Bot*
G04 #@! TF.FilePolarity,Negative*
%FSLAX46Y46*%
G04 Gerber Fmt 4.6, Leading zero omitted, Abs format (unit mm)*
G04 Created by KiCad (PCBNEW (5.1.9)-1) date 2021-01-16 15:24:30*
%MOMM*%
%LPD*%
G01*
G04 APERTURE LIST*
%ADD10C,0.702000*%
%ADD11O,1.802000X1.802000*%
%ADD12C,2.102000*%
%ADD13C,1.102000*%
%ADD14C,1.302000*%
%ADD15O,2.602000X2.102000*%
%ADD16C,1.202000*%
%ADD17O,1.832000X2.132000*%
%ADD18O,1.852000X1.302000*%
%ADD19C,0.601999*%
%ADD20C,6.102000*%
%ADD21C,1.002000*%
%ADD22C,0.100000*%
G04 APERTURE END LIST*
D10*
G04 #@! TO.C,U8*
X18783800Y-70345800D03*
X19783800Y-70345800D03*
X20783800Y-70345800D03*
X21783800Y-70345800D03*
X22783800Y-70345800D03*
X18783800Y-71345800D03*
X19783800Y-71345800D03*
X20783800Y-71345800D03*
X21783800Y-71345800D03*
X22783800Y-71345800D03*
X18783800Y-72345800D03*
X19783800Y-72345800D03*
X20783800Y-72345800D03*
X21783800Y-72345800D03*
X22783800Y-72345800D03*
X18783800Y-73345800D03*
X19783800Y-73345800D03*
X20783800Y-73345800D03*
X21783800Y-73345800D03*
X22783800Y-73345800D03*
X18783800Y-74345800D03*
X19783800Y-74345800D03*
X20783800Y-74345800D03*
X21783800Y-74345800D03*
X22783800Y-74345800D03*
G04 #@! TD*
D11*
G04 #@! TO.C,J10*
X17020000Y-24250000D03*
X19560000Y-24250000D03*
X22100000Y-24250000D03*
G36*
G01*
X25490000Y-25151000D02*
X23790000Y-25151000D01*
G75*
G02*
X23739000Y-25100000I0J51000D01*
G01*
X23739000Y-23400000D01*
G75*
G02*
X23790000Y-23349000I51000J0D01*
G01*
X25490000Y-23349000D01*
G75*
G02*
X25541000Y-23400000I0J-51000D01*
G01*
X25541000Y-25100000D01*
G75*
G02*
X25490000Y-25151000I-51000J0D01*
G01*
G37*
G04 #@! TD*
D12*
G04 #@! TO.C,GO_2*
X16950000Y-76000000D03*
G04 #@! TD*
G04 #@! TO.C,GO_1*
X13800000Y-76050000D03*
G04 #@! TD*
G04 #@! TO.C,GI_2*
X13800000Y-71550000D03*
G04 #@! TD*
G04 #@! TO.C,GI_1*
X10300000Y-71450000D03*
G04 #@! TD*
G04 #@! TO.C,OutR1*
X42800000Y-29950000D03*
G04 #@! TD*
G04 #@! TO.C,OutL1*
X48800000Y-29950000D03*
G04 #@! TD*
G04 #@! TO.C,U11*
G36*
G01*
X23801088Y-82849000D02*
X25815272Y-82849000D01*
G75*
G02*
X26009180Y-83042908I0J-193908D01*
G01*
X26009180Y-83107092D01*
G75*
G02*
X25815272Y-83301000I-193908J0D01*
G01*
X23801088Y-83301000D01*
G75*
G02*
X23607180Y-83107092I0J193908D01*
G01*
X23607180Y-83042908D01*
G75*
G02*
X23801088Y-82849000I193908J0D01*
G01*
G37*
G36*
G01*
X23801088Y-85299000D02*
X25815272Y-85299000D01*
G75*
G02*
X26009180Y-85492908I0J-193908D01*
G01*
X26009180Y-85557092D01*
G75*
G02*
X25815272Y-85751000I-193908J0D01*
G01*
X23801088Y-85751000D01*
G75*
G02*
X23607180Y-85557092I0J193908D01*
G01*
X23607180Y-85492908D01*
G75*
G02*
X23801088Y-85299000I193908J0D01*
G01*
G37*
G36*
G01*
X26759180Y-83792908D02*
X26759180Y-84807092D01*
G75*
G02*
X26565272Y-85001000I-193908J0D01*
G01*
X26501088Y-85001000D01*
G75*
G02*
X26307180Y-84807092I0J193908D01*
G01*
X26307180Y-83792908D01*
G75*
G02*
X26501088Y-83599000I193908J0D01*
G01*
X26565272Y-83599000D01*
G75*
G02*
X26759180Y-83792908I0J-193908D01*
G01*
G37*
G36*
G01*
X23309180Y-83792908D02*
X23309180Y-84807092D01*
G75*
G02*
X23115272Y-85001000I-193908J0D01*
G01*
X23051088Y-85001000D01*
G75*
G02*
X22857180Y-84807092I0J193908D01*
G01*
X22857180Y-83792908D01*
G75*
G02*
X23051088Y-83599000I193908J0D01*
G01*
X23115272Y-83599000D01*
G75*
G02*
X23309180Y-83792908I0J-193908D01*
G01*
G37*
G36*
G01*
X25008180Y-84474000D02*
X25958180Y-84474000D01*
G75*
G02*
X26009180Y-84525000I0J-51000D01*
G01*
X26009180Y-84925000D01*
G75*
G02*
X25958180Y-84976000I-51000J0D01*
G01*
X25008180Y-84976000D01*
G75*
G02*
X24957180Y-84925000I0J51000D01*
G01*
X24957180Y-84525000D01*
G75*
G02*
X25008180Y-84474000I51000J0D01*
G01*
G37*
G36*
G01*
X25008180Y-83624000D02*
X25958180Y-83624000D01*
G75*
G02*
X26009180Y-83675000I0J-51000D01*
G01*
X26009180Y-84075000D01*
G75*
G02*
X25958180Y-84126000I-51000J0D01*
G01*
X25008180Y-84126000D01*
G75*
G02*
X24957180Y-84075000I0J51000D01*
G01*
X24957180Y-83675000D01*
G75*
G02*
X25008180Y-83624000I51000J0D01*
G01*
G37*
G36*
G01*
X23658180Y-83624000D02*
X24608180Y-83624000D01*
G75*
G02*
X24659180Y-83675000I0J-51000D01*
G01*
X24659180Y-84075000D01*
G75*
G02*
X24608180Y-84126000I-51000J0D01*
G01*
X23658180Y-84126000D01*
G75*
G02*
X23607180Y-84075000I0J51000D01*
G01*
X23607180Y-83675000D01*
G75*
G02*
X23658180Y-83624000I51000J0D01*
G01*
G37*
G36*
G01*
X23658180Y-84474000D02*
X24608180Y-84474000D01*
G75*
G02*
X24659180Y-84525000I0J-51000D01*
G01*
X24659180Y-84925000D01*
G75*
G02*
X24608180Y-84976000I-51000J0D01*
G01*
X23658180Y-84976000D01*
G75*
G02*
X23607180Y-84925000I0J51000D01*
G01*
X23607180Y-84525000D01*
G75*
G02*
X23658180Y-84474000I51000J0D01*
G01*
G37*
G04 #@! TD*
G04 #@! TO.C,U10*
G36*
G01*
X23801088Y-11849000D02*
X25815272Y-11849000D01*
G75*
G02*
X26009180Y-12042908I0J-193908D01*
G01*
X26009180Y-12107092D01*
G75*
G02*
X25815272Y-12301000I-193908J0D01*
G01*
X23801088Y-12301000D01*
G75*
G02*
X23607180Y-12107092I0J193908D01*
G01*
X23607180Y-12042908D01*
G75*
G02*
X23801088Y-11849000I193908J0D01*
G01*
G37*
G36*
G01*
X23801088Y-14299000D02*
X25815272Y-14299000D01*
G75*
G02*
X26009180Y-14492908I0J-193908D01*
G01*
X26009180Y-14557092D01*
G75*
G02*
X25815272Y-14751000I-193908J0D01*
G01*
X23801088Y-14751000D01*
G75*
G02*
X23607180Y-14557092I0J193908D01*
G01*
X23607180Y-14492908D01*
G75*
G02*
X23801088Y-14299000I193908J0D01*
G01*
G37*
G36*
G01*
X26759180Y-12792908D02*
X26759180Y-13807092D01*
G75*
G02*
X26565272Y-14001000I-193908J0D01*
G01*
X26501088Y-14001000D01*
G75*
G02*
X26307180Y-13807092I0J193908D01*
G01*
X26307180Y-12792908D01*
G75*
G02*
X26501088Y-12599000I193908J0D01*
G01*
X26565272Y-12599000D01*
G75*
G02*
X26759180Y-12792908I0J-193908D01*
G01*
G37*
G36*
G01*
X23309180Y-12792908D02*
X23309180Y-13807092D01*
G75*
G02*
X23115272Y-14001000I-193908J0D01*
G01*
X23051088Y-14001000D01*
G75*
G02*
X22857180Y-13807092I0J193908D01*
G01*
X22857180Y-12792908D01*
G75*
G02*
X23051088Y-12599000I193908J0D01*
G01*
X23115272Y-12599000D01*
G75*
G02*
X23309180Y-12792908I0J-193908D01*
G01*
G37*
G36*
G01*
X25008180Y-13474000D02*
X25958180Y-13474000D01*
G75*
G02*
X26009180Y-13525000I0J-51000D01*
G01*
X26009180Y-13925000D01*
G75*
G02*
X25958180Y-13976000I-51000J0D01*
G01*
X25008180Y-13976000D01*
G75*
G02*
X24957180Y-13925000I0J51000D01*
G01*
X24957180Y-13525000D01*
G75*
G02*
X25008180Y-13474000I51000J0D01*
G01*
G37*
G36*
G01*
X25008180Y-12624000D02*
X25958180Y-12624000D01*
G75*
G02*
X26009180Y-12675000I0J-51000D01*
G01*
X26009180Y-13075000D01*
G75*
G02*
X25958180Y-13126000I-51000J0D01*
G01*
X25008180Y-13126000D01*
G75*
G02*
X24957180Y-13075000I0J51000D01*
G01*
X24957180Y-12675000D01*
G75*
G02*
X25008180Y-12624000I51000J0D01*
G01*
G37*
G36*
G01*
X23658180Y-12624000D02*
X24608180Y-12624000D01*
G75*
G02*
X24659180Y-12675000I0J-51000D01*
G01*
X24659180Y-13075000D01*
G75*
G02*
X24608180Y-13126000I-51000J0D01*
G01*
X23658180Y-13126000D01*
G75*
G02*
X23607180Y-13075000I0J51000D01*
G01*
X23607180Y-12675000D01*
G75*
G02*
X23658180Y-12624000I51000J0D01*
G01*
G37*
G36*
G01*
X23658180Y-13474000D02*
X24608180Y-13474000D01*
G75*
G02*
X24659180Y-13525000I0J-51000D01*
G01*
X24659180Y-13925000D01*
G75*
G02*
X24608180Y-13976000I-51000J0D01*
G01*
X23658180Y-13976000D01*
G75*
G02*
X23607180Y-13925000I0J51000D01*
G01*
X23607180Y-13525000D01*
G75*
G02*
X23658180Y-13474000I51000J0D01*
G01*
G37*
G04 #@! TD*
G04 #@! TO.C,D3*
G36*
G01*
X25472380Y-37400520D02*
X25472380Y-36600520D01*
G75*
G02*
X25523380Y-36549520I51000J0D01*
G01*
X27423380Y-36549520D01*
G75*
G02*
X27474380Y-36600520I0J-51000D01*
G01*
X27474380Y-37400520D01*
G75*
G02*
X27423380Y-37451520I-51000J0D01*
G01*
X25523380Y-37451520D01*
G75*
G02*
X25472380Y-37400520I0J51000D01*
G01*
G37*
G36*
G01*
X25472380Y-35620520D02*
X25472380Y-34820520D01*
G75*
G02*
X25523380Y-34769520I51000J0D01*
G01*
X27423380Y-34769520D01*
G75*
G02*
X27474380Y-34820520I0J-51000D01*
G01*
X27474380Y-35620520D01*
G75*
G02*
X27423380Y-35671520I-51000J0D01*
G01*
X25523380Y-35671520D01*
G75*
G02*
X25472380Y-35620520I0J51000D01*
G01*
G37*
G36*
G01*
X29152380Y-37400520D02*
X29152380Y-36600520D01*
G75*
G02*
X29203380Y-36549520I51000J0D01*
G01*
X31103380Y-36549520D01*
G75*
G02*
X31154380Y-36600520I0J-51000D01*
G01*
X31154380Y-37400520D01*
G75*
G02*
X31103380Y-37451520I-51000J0D01*
G01*
X29203380Y-37451520D01*
G75*
G02*
X29152380Y-37400520I0J51000D01*
G01*
G37*
G36*
G01*
X29152380Y-35620520D02*
X29152380Y-34820520D01*
G75*
G02*
X29203380Y-34769520I51000J0D01*
G01*
X31103380Y-34769520D01*
G75*
G02*
X31154380Y-34820520I0J-51000D01*
G01*
X31154380Y-35620520D01*
G75*
G02*
X31103380Y-35671520I-51000J0D01*
G01*
X29203380Y-35671520D01*
G75*
G02*
X29152380Y-35620520I0J51000D01*
G01*
G37*
G04 #@! TD*
G04 #@! TO.C,D4*
G36*
G01*
X21154380Y-43496520D02*
X21154380Y-42696520D01*
G75*
G02*
X21205380Y-42645520I51000J0D01*
G01*
X23105380Y-42645520D01*
G75*
G02*
X23156380Y-42696520I0J-51000D01*
G01*
X23156380Y-43496520D01*
G75*
G02*
X23105380Y-43547520I-51000J0D01*
G01*
X21205380Y-43547520D01*
G75*
G02*
X21154380Y-43496520I0J51000D01*
G01*
G37*
G36*
G01*
X21154380Y-41716520D02*
X21154380Y-40916520D01*
G75*
G02*
X21205380Y-40865520I51000J0D01*
G01*
X23105380Y-40865520D01*
G75*
G02*
X23156380Y-40916520I0J-51000D01*
G01*
X23156380Y-41716520D01*
G75*
G02*
X23105380Y-41767520I-51000J0D01*
G01*
X21205380Y-41767520D01*
G75*
G02*
X21154380Y-41716520I0J51000D01*
G01*
G37*
G36*
G01*
X24834380Y-43496520D02*
X24834380Y-42696520D01*
G75*
G02*
X24885380Y-42645520I51000J0D01*
G01*
X26785380Y-42645520D01*
G75*
G02*
X26836380Y-42696520I0J-51000D01*
G01*
X26836380Y-43496520D01*
G75*
G02*
X26785380Y-43547520I-51000J0D01*
G01*
X24885380Y-43547520D01*
G75*
G02*
X24834380Y-43496520I0J51000D01*
G01*
G37*
G36*
G01*
X24834380Y-41716520D02*
X24834380Y-40916520D01*
G75*
G02*
X24885380Y-40865520I51000J0D01*
G01*
X26785380Y-40865520D01*
G75*
G02*
X26836380Y-40916520I0J-51000D01*
G01*
X26836380Y-41716520D01*
G75*
G02*
X26785380Y-41767520I-51000J0D01*
G01*
X24885380Y-41767520D01*
G75*
G02*
X24834380Y-41716520I0J51000D01*
G01*
G37*
G04 #@! TD*
G04 #@! TO.C,D5*
G36*
G01*
X18004780Y-50354520D02*
X18004780Y-49554520D01*
G75*
G02*
X18055780Y-49503520I51000J0D01*
G01*
X19955780Y-49503520D01*
G75*
G02*
X20006780Y-49554520I0J-51000D01*
G01*
X20006780Y-50354520D01*
G75*
G02*
X19955780Y-50405520I-51000J0D01*
G01*
X18055780Y-50405520D01*
G75*
G02*
X18004780Y-50354520I0J51000D01*
G01*
G37*
G36*
G01*
X18004780Y-48574520D02*
X18004780Y-47774520D01*
G75*
G02*
X18055780Y-47723520I51000J0D01*
G01*
X19955780Y-47723520D01*
G75*
G02*
X20006780Y-47774520I0J-51000D01*
G01*
X20006780Y-48574520D01*
G75*
G02*
X19955780Y-48625520I-51000J0D01*
G01*
X18055780Y-48625520D01*
G75*
G02*
X18004780Y-48574520I0J51000D01*
G01*
G37*
G36*
G01*
X21684780Y-50354520D02*
X21684780Y-49554520D01*
G75*
G02*
X21735780Y-49503520I51000J0D01*
G01*
X23635780Y-49503520D01*
G75*
G02*
X23686780Y-49554520I0J-51000D01*
G01*
X23686780Y-50354520D01*
G75*
G02*
X23635780Y-50405520I-51000J0D01*
G01*
X21735780Y-50405520D01*
G75*
G02*
X21684780Y-50354520I0J51000D01*
G01*
G37*
G36*
G01*
X21684780Y-48574520D02*
X21684780Y-47774520D01*
G75*
G02*
X21735780Y-47723520I51000J0D01*
G01*
X23635780Y-47723520D01*
G75*
G02*
X23686780Y-47774520I0J-51000D01*
G01*
X23686780Y-48574520D01*
G75*
G02*
X23635780Y-48625520I-51000J0D01*
G01*
X21735780Y-48625520D01*
G75*
G02*
X21684780Y-48574520I0J51000D01*
G01*
G37*
G04 #@! TD*
G04 #@! TO.C,D6*
G36*
G01*
X21103580Y-57212520D02*
X21103580Y-56412520D01*
G75*
G02*
X21154580Y-56361520I51000J0D01*
G01*
X23054580Y-56361520D01*
G75*
G02*
X23105580Y-56412520I0J-51000D01*
G01*
X23105580Y-57212520D01*
G75*
G02*
X23054580Y-57263520I-51000J0D01*
G01*
X21154580Y-57263520D01*
G75*
G02*
X21103580Y-57212520I0J51000D01*
G01*
G37*
G36*
G01*
X21103580Y-55432520D02*
X21103580Y-54632520D01*
G75*
G02*
X21154580Y-54581520I51000J0D01*
G01*
X23054580Y-54581520D01*
G75*
G02*
X23105580Y-54632520I0J-51000D01*
G01*
X23105580Y-55432520D01*
G75*
G02*
X23054580Y-55483520I-51000J0D01*
G01*
X21154580Y-55483520D01*
G75*
G02*
X21103580Y-55432520I0J51000D01*
G01*
G37*
G36*
G01*
X24783580Y-57212520D02*
X24783580Y-56412520D01*
G75*
G02*
X24834580Y-56361520I51000J0D01*
G01*
X26734580Y-56361520D01*
G75*
G02*
X26785580Y-56412520I0J-51000D01*
G01*
X26785580Y-57212520D01*
G75*
G02*
X26734580Y-57263520I-51000J0D01*
G01*
X24834580Y-57263520D01*
G75*
G02*
X24783580Y-57212520I0J51000D01*
G01*
G37*
G36*
G01*
X24783580Y-55432520D02*
X24783580Y-54632520D01*
G75*
G02*
X24834580Y-54581520I51000J0D01*
G01*
X26734580Y-54581520D01*
G75*
G02*
X26785580Y-54632520I0J-51000D01*
G01*
X26785580Y-55432520D01*
G75*
G02*
X26734580Y-55483520I-51000J0D01*
G01*
X24834580Y-55483520D01*
G75*
G02*
X24783580Y-55432520I0J51000D01*
G01*
G37*
G04 #@! TD*
G04 #@! TO.C,D7*
G36*
G01*
X25523180Y-63257720D02*
X25523180Y-62457720D01*
G75*
G02*
X25574180Y-62406720I51000J0D01*
G01*
X27474180Y-62406720D01*
G75*
G02*
X27525180Y-62457720I0J-51000D01*
G01*
X27525180Y-63257720D01*
G75*
G02*
X27474180Y-63308720I-51000J0D01*
G01*
X25574180Y-63308720D01*
G75*
G02*
X25523180Y-63257720I0J51000D01*
G01*
G37*
G36*
G01*
X25523180Y-61477720D02*
X25523180Y-60677720D01*
G75*
G02*
X25574180Y-60626720I51000J0D01*
G01*
X27474180Y-60626720D01*
G75*
G02*
X27525180Y-60677720I0J-51000D01*
G01*
X27525180Y-61477720D01*
G75*
G02*
X27474180Y-61528720I-51000J0D01*
G01*
X25574180Y-61528720D01*
G75*
G02*
X25523180Y-61477720I0J51000D01*
G01*
G37*
G36*
G01*
X29203180Y-63257720D02*
X29203180Y-62457720D01*
G75*
G02*
X29254180Y-62406720I51000J0D01*
G01*
X31154180Y-62406720D01*
G75*
G02*
X31205180Y-62457720I0J-51000D01*
G01*
X31205180Y-63257720D01*
G75*
G02*
X31154180Y-63308720I-51000J0D01*
G01*
X29254180Y-63308720D01*
G75*
G02*
X29203180Y-63257720I0J51000D01*
G01*
G37*
G36*
G01*
X29203180Y-61477720D02*
X29203180Y-60677720D01*
G75*
G02*
X29254180Y-60626720I51000J0D01*
G01*
X31154180Y-60626720D01*
G75*
G02*
X31205180Y-60677720I0J-51000D01*
G01*
X31205180Y-61477720D01*
G75*
G02*
X31154180Y-61528720I-51000J0D01*
G01*
X29254180Y-61528720D01*
G75*
G02*
X29203180Y-61477720I0J51000D01*
G01*
G37*
G04 #@! TD*
G04 #@! TO.C,D8*
G36*
G01*
X32990780Y-63918120D02*
X32990780Y-63118120D01*
G75*
G02*
X33041780Y-63067120I51000J0D01*
G01*
X34941780Y-63067120D01*
G75*
G02*
X34992780Y-63118120I0J-51000D01*
G01*
X34992780Y-63918120D01*
G75*
G02*
X34941780Y-63969120I-51000J0D01*
G01*
X33041780Y-63969120D01*
G75*
G02*
X32990780Y-63918120I0J51000D01*
G01*
G37*
G36*
G01*
X32990780Y-62138120D02*
X32990780Y-61338120D01*
G75*
G02*
X33041780Y-61287120I51000J0D01*
G01*
X34941780Y-61287120D01*
G75*
G02*
X34992780Y-61338120I0J-51000D01*
G01*
X34992780Y-62138120D01*
G75*
G02*
X34941780Y-62189120I-51000J0D01*
G01*
X33041780Y-62189120D01*
G75*
G02*
X32990780Y-62138120I0J51000D01*
G01*
G37*
G36*
G01*
X36670780Y-63918120D02*
X36670780Y-63118120D01*
G75*
G02*
X36721780Y-63067120I51000J0D01*
G01*
X38621780Y-63067120D01*
G75*
G02*
X38672780Y-63118120I0J-51000D01*
G01*
X38672780Y-63918120D01*
G75*
G02*
X38621780Y-63969120I-51000J0D01*
G01*
X36721780Y-63969120D01*
G75*
G02*
X36670780Y-63918120I0J51000D01*
G01*
G37*
G36*
G01*
X36670780Y-62138120D02*
X36670780Y-61338120D01*
G75*
G02*
X36721780Y-61287120I51000J0D01*
G01*
X38621780Y-61287120D01*
G75*
G02*
X38672780Y-61338120I0J-51000D01*
G01*
X38672780Y-62138120D01*
G75*
G02*
X38621780Y-62189120I-51000J0D01*
G01*
X36721780Y-62189120D01*
G75*
G02*
X36670780Y-62138120I0J51000D01*
G01*
G37*
G04 #@! TD*
G04 #@! TO.C,D9*
G36*
G01*
X40509180Y-63308520D02*
X40509180Y-62508520D01*
G75*
G02*
X40560180Y-62457520I51000J0D01*
G01*
X42460180Y-62457520D01*
G75*
G02*
X42511180Y-62508520I0J-51000D01*
G01*
X42511180Y-63308520D01*
G75*
G02*
X42460180Y-63359520I-51000J0D01*
G01*
X40560180Y-63359520D01*
G75*
G02*
X40509180Y-63308520I0J51000D01*
G01*
G37*
G36*
G01*
X40509180Y-61528520D02*
X40509180Y-60728520D01*
G75*
G02*
X40560180Y-60677520I51000J0D01*
G01*
X42460180Y-60677520D01*
G75*
G02*
X42511180Y-60728520I0J-51000D01*
G01*
X42511180Y-61528520D01*
G75*
G02*
X42460180Y-61579520I-51000J0D01*
G01*
X40560180Y-61579520D01*
G75*
G02*
X40509180Y-61528520I0J51000D01*
G01*
G37*
G36*
G01*
X44189180Y-63308520D02*
X44189180Y-62508520D01*
G75*
G02*
X44240180Y-62457520I51000J0D01*
G01*
X46140180Y-62457520D01*
G75*
G02*
X46191180Y-62508520I0J-51000D01*
G01*
X46191180Y-63308520D01*
G75*
G02*
X46140180Y-63359520I-51000J0D01*
G01*
X44240180Y-63359520D01*
G75*
G02*
X44189180Y-63308520I0J51000D01*
G01*
G37*
G36*
G01*
X44189180Y-61528520D02*
X44189180Y-60728520D01*
G75*
G02*
X44240180Y-60677520I51000J0D01*
G01*
X46140180Y-60677520D01*
G75*
G02*
X46191180Y-60728520I0J-51000D01*
G01*
X46191180Y-61528520D01*
G75*
G02*
X46140180Y-61579520I-51000J0D01*
G01*
X44240180Y-61579520D01*
G75*
G02*
X44189180Y-61528520I0J51000D01*
G01*
G37*
G04 #@! TD*
G04 #@! TO.C,D10*
G36*
G01*
X44877980Y-57110920D02*
X44877980Y-56310920D01*
G75*
G02*
X44928980Y-56259920I51000J0D01*
G01*
X46828980Y-56259920D01*
G75*
G02*
X46879980Y-56310920I0J-51000D01*
G01*
X46879980Y-57110920D01*
G75*
G02*
X46828980Y-57161920I-51000J0D01*
G01*
X44928980Y-57161920D01*
G75*
G02*
X44877980Y-57110920I0J51000D01*
G01*
G37*
G36*
G01*
X44877980Y-55330920D02*
X44877980Y-54530920D01*
G75*
G02*
X44928980Y-54479920I51000J0D01*
G01*
X46828980Y-54479920D01*
G75*
G02*
X46879980Y-54530920I0J-51000D01*
G01*
X46879980Y-55330920D01*
G75*
G02*
X46828980Y-55381920I-51000J0D01*
G01*
X44928980Y-55381920D01*
G75*
G02*
X44877980Y-55330920I0J51000D01*
G01*
G37*
G36*
G01*
X48557980Y-57110920D02*
X48557980Y-56310920D01*
G75*
G02*
X48608980Y-56259920I51000J0D01*
G01*
X50508980Y-56259920D01*
G75*
G02*
X50559980Y-56310920I0J-51000D01*
G01*
X50559980Y-57110920D01*
G75*
G02*
X50508980Y-57161920I-51000J0D01*
G01*
X48608980Y-57161920D01*
G75*
G02*
X48557980Y-57110920I0J51000D01*
G01*
G37*
G36*
G01*
X48557980Y-55330920D02*
X48557980Y-54530920D01*
G75*
G02*
X48608980Y-54479920I51000J0D01*
G01*
X50508980Y-54479920D01*
G75*
G02*
X50559980Y-54530920I0J-51000D01*
G01*
X50559980Y-55330920D01*
G75*
G02*
X50508980Y-55381920I-51000J0D01*
G01*
X48608980Y-55381920D01*
G75*
G02*
X48557980Y-55330920I0J51000D01*
G01*
G37*
G04 #@! TD*
G04 #@! TO.C,D11*
G36*
G01*
X47976780Y-50303720D02*
X47976780Y-49503720D01*
G75*
G02*
X48027780Y-49452720I51000J0D01*
G01*
X49927780Y-49452720D01*
G75*
G02*
X49978780Y-49503720I0J-51000D01*
G01*
X49978780Y-50303720D01*
G75*
G02*
X49927780Y-50354720I-51000J0D01*
G01*
X48027780Y-50354720D01*
G75*
G02*
X47976780Y-50303720I0J51000D01*
G01*
G37*
G36*
G01*
X47976780Y-48523720D02*
X47976780Y-47723720D01*
G75*
G02*
X48027780Y-47672720I51000J0D01*
G01*
X49927780Y-47672720D01*
G75*
G02*
X49978780Y-47723720I0J-51000D01*
G01*
X49978780Y-48523720D01*
G75*
G02*
X49927780Y-48574720I-51000J0D01*
G01*
X48027780Y-48574720D01*
G75*
G02*
X47976780Y-48523720I0J51000D01*
G01*
G37*
G36*
G01*
X51656780Y-50303720D02*
X51656780Y-49503720D01*
G75*
G02*
X51707780Y-49452720I51000J0D01*
G01*
X53607780Y-49452720D01*
G75*
G02*
X53658780Y-49503720I0J-51000D01*
G01*
X53658780Y-50303720D01*
G75*
G02*
X53607780Y-50354720I-51000J0D01*
G01*
X51707780Y-50354720D01*
G75*
G02*
X51656780Y-50303720I0J51000D01*
G01*
G37*
G36*
G01*
X51656780Y-48523720D02*
X51656780Y-47723720D01*
G75*
G02*
X51707780Y-47672720I51000J0D01*
G01*
X53607780Y-47672720D01*
G75*
G02*
X53658780Y-47723720I0J-51000D01*
G01*
X53658780Y-48523720D01*
G75*
G02*
X53607780Y-48574720I-51000J0D01*
G01*
X51707780Y-48574720D01*
G75*
G02*
X51656780Y-48523720I0J51000D01*
G01*
G37*
G04 #@! TD*
G04 #@! TO.C,D12*
G36*
G01*
X44827180Y-43496520D02*
X44827180Y-42696520D01*
G75*
G02*
X44878180Y-42645520I51000J0D01*
G01*
X46778180Y-42645520D01*
G75*
G02*
X46829180Y-42696520I0J-51000D01*
G01*
X46829180Y-43496520D01*
G75*
G02*
X46778180Y-43547520I-51000J0D01*
G01*
X44878180Y-43547520D01*
G75*
G02*
X44827180Y-43496520I0J51000D01*
G01*
G37*
G36*
G01*
X44827180Y-41716520D02*
X44827180Y-40916520D01*
G75*
G02*
X44878180Y-40865520I51000J0D01*
G01*
X46778180Y-40865520D01*
G75*
G02*
X46829180Y-40916520I0J-51000D01*
G01*
X46829180Y-41716520D01*
G75*
G02*
X46778180Y-41767520I-51000J0D01*
G01*
X44878180Y-41767520D01*
G75*
G02*
X44827180Y-41716520I0J51000D01*
G01*
G37*
G36*
G01*
X48507180Y-43496520D02*
X48507180Y-42696520D01*
G75*
G02*
X48558180Y-42645520I51000J0D01*
G01*
X50458180Y-42645520D01*
G75*
G02*
X50509180Y-42696520I0J-51000D01*
G01*
X50509180Y-43496520D01*
G75*
G02*
X50458180Y-43547520I-51000J0D01*
G01*
X48558180Y-43547520D01*
G75*
G02*
X48507180Y-43496520I0J51000D01*
G01*
G37*
G36*
G01*
X48507180Y-41716520D02*
X48507180Y-40916520D01*
G75*
G02*
X48558180Y-40865520I51000J0D01*
G01*
X50458180Y-40865520D01*
G75*
G02*
X50509180Y-40916520I0J-51000D01*
G01*
X50509180Y-41716520D01*
G75*
G02*
X50458180Y-41767520I-51000J0D01*
G01*
X48558180Y-41767520D01*
G75*
G02*
X48507180Y-41716520I0J51000D01*
G01*
G37*
G04 #@! TD*
G04 #@! TO.C,D13*
G36*
G01*
X40458380Y-37298920D02*
X40458380Y-36498920D01*
G75*
G02*
X40509380Y-36447920I51000J0D01*
G01*
X42409380Y-36447920D01*
G75*
G02*
X42460380Y-36498920I0J-51000D01*
G01*
X42460380Y-37298920D01*
G75*
G02*
X42409380Y-37349920I-51000J0D01*
G01*
X40509380Y-37349920D01*
G75*
G02*
X40458380Y-37298920I0J51000D01*
G01*
G37*
G36*
G01*
X40458380Y-35518920D02*
X40458380Y-34718920D01*
G75*
G02*
X40509380Y-34667920I51000J0D01*
G01*
X42409380Y-34667920D01*
G75*
G02*
X42460380Y-34718920I0J-51000D01*
G01*
X42460380Y-35518920D01*
G75*
G02*
X42409380Y-35569920I-51000J0D01*
G01*
X40509380Y-35569920D01*
G75*
G02*
X40458380Y-35518920I0J51000D01*
G01*
G37*
G36*
G01*
X44138380Y-37298920D02*
X44138380Y-36498920D01*
G75*
G02*
X44189380Y-36447920I51000J0D01*
G01*
X46089380Y-36447920D01*
G75*
G02*
X46140380Y-36498920I0J-51000D01*
G01*
X46140380Y-37298920D01*
G75*
G02*
X46089380Y-37349920I-51000J0D01*
G01*
X44189380Y-37349920D01*
G75*
G02*
X44138380Y-37298920I0J51000D01*
G01*
G37*
G36*
G01*
X44138380Y-35518920D02*
X44138380Y-34718920D01*
G75*
G02*
X44189380Y-34667920I51000J0D01*
G01*
X46089380Y-34667920D01*
G75*
G02*
X46140380Y-34718920I0J-51000D01*
G01*
X46140380Y-35518920D01*
G75*
G02*
X46089380Y-35569920I-51000J0D01*
G01*
X44189380Y-35569920D01*
G75*
G02*
X44138380Y-35518920I0J51000D01*
G01*
G37*
G04 #@! TD*
G04 #@! TO.C,D2*
G36*
G01*
X32990780Y-36638520D02*
X32990780Y-35838520D01*
G75*
G02*
X33041780Y-35787520I51000J0D01*
G01*
X34941780Y-35787520D01*
G75*
G02*
X34992780Y-35838520I0J-51000D01*
G01*
X34992780Y-36638520D01*
G75*
G02*
X34941780Y-36689520I-51000J0D01*
G01*
X33041780Y-36689520D01*
G75*
G02*
X32990780Y-36638520I0J51000D01*
G01*
G37*
G36*
G01*
X32990780Y-34858520D02*
X32990780Y-34058520D01*
G75*
G02*
X33041780Y-34007520I51000J0D01*
G01*
X34941780Y-34007520D01*
G75*
G02*
X34992780Y-34058520I0J-51000D01*
G01*
X34992780Y-34858520D01*
G75*
G02*
X34941780Y-34909520I-51000J0D01*
G01*
X33041780Y-34909520D01*
G75*
G02*
X32990780Y-34858520I0J51000D01*
G01*
G37*
G36*
G01*
X36670780Y-36638520D02*
X36670780Y-35838520D01*
G75*
G02*
X36721780Y-35787520I51000J0D01*
G01*
X38621780Y-35787520D01*
G75*
G02*
X38672780Y-35838520I0J-51000D01*
G01*
X38672780Y-36638520D01*
G75*
G02*
X38621780Y-36689520I-51000J0D01*
G01*
X36721780Y-36689520D01*
G75*
G02*
X36670780Y-36638520I0J51000D01*
G01*
G37*
G36*
G01*
X36670780Y-34858520D02*
X36670780Y-34058520D01*
G75*
G02*
X36721780Y-34007520I51000J0D01*
G01*
X38621780Y-34007520D01*
G75*
G02*
X38672780Y-34058520I0J-51000D01*
G01*
X38672780Y-34858520D01*
G75*
G02*
X38621780Y-34909520I-51000J0D01*
G01*
X36721780Y-34909520D01*
G75*
G02*
X36670780Y-34858520I0J51000D01*
G01*
G37*
G04 #@! TD*
D11*
G04 #@! TO.C,J9*
X2820000Y-5840000D03*
X2820000Y-3300000D03*
X5360000Y-5840000D03*
X5360000Y-3300000D03*
X7900000Y-5840000D03*
G36*
G01*
X7050000Y-2399000D02*
X8750000Y-2399000D01*
G75*
G02*
X8801000Y-2450000I0J-51000D01*
G01*
X8801000Y-4150000D01*
G75*
G02*
X8750000Y-4201000I-51000J0D01*
G01*
X7050000Y-4201000D01*
G75*
G02*
X6999000Y-4150000I0J51000D01*
G01*
X6999000Y-2450000D01*
G75*
G02*
X7050000Y-2399000I51000J0D01*
G01*
G37*
G04 #@! TD*
D12*
G04 #@! TO.C,TP1v8*
X57450000Y-96650000D03*
G04 #@! TD*
D13*
G04 #@! TO.C,UP1*
X27700000Y-71150000D03*
G04 #@! TD*
G04 #@! TO.C,UP0*
X30200000Y-71000000D03*
G04 #@! TD*
G04 #@! TO.C,TMS1*
X23000000Y-79400000D03*
G04 #@! TD*
G04 #@! TO.C,TD0*
X20550000Y-76450000D03*
G04 #@! TD*
G04 #@! TO.C,TDI1*
X22600000Y-76400000D03*
G04 #@! TD*
G04 #@! TO.C,TCK1*
X29000000Y-78800000D03*
G04 #@! TD*
G04 #@! TO.C,DN0*
X25200000Y-70900000D03*
G04 #@! TD*
G04 #@! TO.C,DN1*
X24900000Y-73300000D03*
G04 #@! TD*
D12*
G04 #@! TO.C,TP4*
X48200000Y-71000000D03*
G04 #@! TD*
G04 #@! TO.C,TP3*
X4600000Y-58600000D03*
G04 #@! TD*
G04 #@! TO.C,TP1*
X5384800Y-61874400D03*
G04 #@! TD*
D11*
G04 #@! TO.C,J8*
X51260000Y-44800000D03*
G36*
G01*
X52950000Y-43899000D02*
X54650000Y-43899000D01*
G75*
G02*
X54701000Y-43950000I0J-51000D01*
G01*
X54701000Y-45650000D01*
G75*
G02*
X54650000Y-45701000I-51000J0D01*
G01*
X52950000Y-45701000D01*
G75*
G02*
X52899000Y-45650000I0J51000D01*
G01*
X52899000Y-43950000D01*
G75*
G02*
X52950000Y-43899000I51000J0D01*
G01*
G37*
G04 #@! TD*
D14*
G04 #@! TO.C,J2*
X60600000Y-35700000D03*
X60600000Y-40700000D03*
D15*
X64100000Y-35350000D03*
G36*
G01*
X57901000Y-39500000D02*
X57901000Y-41500000D01*
G75*
G02*
X57850000Y-41551000I-51000J0D01*
G01*
X55350000Y-41551000D01*
G75*
G02*
X55299000Y-41500000I0J51000D01*
G01*
X55299000Y-39500000D01*
G75*
G02*
X55350000Y-39449000I51000J0D01*
G01*
X57850000Y-39449000D01*
G75*
G02*
X57901000Y-39500000I0J-51000D01*
G01*
G37*
X56600000Y-35900000D03*
X64100000Y-41050000D03*
G04 #@! TD*
D16*
G04 #@! TO.C,J7*
X46420000Y-90477000D03*
X43880000Y-90440000D03*
D17*
X46420000Y-92600000D03*
X43880000Y-92600000D03*
X41340000Y-92600000D03*
G36*
G01*
X39665000Y-93666000D02*
X37935000Y-93666000D01*
G75*
G02*
X37884000Y-93615000I0J51000D01*
G01*
X37884000Y-91585000D01*
G75*
G02*
X37935000Y-91534000I51000J0D01*
G01*
X39665000Y-91534000D01*
G75*
G02*
X39716000Y-91585000I0J-51000D01*
G01*
X39716000Y-93615000D01*
G75*
G02*
X39665000Y-93666000I-51000J0D01*
G01*
G37*
G04 #@! TD*
D12*
G04 #@! TO.C,TP5*
X41700000Y-68900000D03*
G04 #@! TD*
G04 #@! TO.C,RST_N1*
X15400000Y-88000000D03*
G04 #@! TD*
G04 #@! TO.C,TP8*
X38550000Y-68850000D03*
G04 #@! TD*
G04 #@! TO.C,TP7*
X33550000Y-68850000D03*
G04 #@! TD*
G04 #@! TO.C,TP6*
X45350000Y-73200000D03*
G04 #@! TD*
G04 #@! TO.C,TP2*
X26769060Y-27663140D03*
G04 #@! TD*
G04 #@! TO.C,J1*
G36*
G01*
X61656360Y-43484340D02*
X61656360Y-45285340D01*
G75*
G02*
X60755860Y-46185840I-900500J0D01*
G01*
X58954860Y-46185840D01*
G75*
G02*
X58054360Y-45285340I0J900500D01*
G01*
X58054360Y-43484340D01*
G75*
G02*
X58954860Y-42583840I900500J0D01*
G01*
X60755860Y-42583840D01*
G75*
G02*
X61656360Y-43484340I0J-900500D01*
G01*
G37*
G36*
G01*
X64406360Y-48059340D02*
X64406360Y-50110340D01*
G75*
G02*
X63630860Y-50885840I-775500J0D01*
G01*
X62079860Y-50885840D01*
G75*
G02*
X61304360Y-50110340I0J775500D01*
G01*
X61304360Y-48059340D01*
G75*
G02*
X62079860Y-47283840I775500J0D01*
G01*
X63630860Y-47283840D01*
G75*
G02*
X64406360Y-48059340I0J-775500D01*
G01*
G37*
G36*
G01*
X58656360Y-47334840D02*
X58656360Y-50834840D01*
G75*
G02*
X58605360Y-50885840I-51000J0D01*
G01*
X55105360Y-50885840D01*
G75*
G02*
X55054360Y-50834840I0J51000D01*
G01*
X55054360Y-47334840D01*
G75*
G02*
X55105360Y-47283840I51000J0D01*
G01*
X58605360Y-47283840D01*
G75*
G02*
X58656360Y-47334840I0J-51000D01*
G01*
G37*
G04 #@! TD*
G04 #@! TO.C,TP12v0*
X58740040Y-52237640D03*
G04 #@! TD*
G04 #@! TO.C,TP11*
X20599400Y-17901920D03*
G04 #@! TD*
G04 #@! TO.C,TP10*
X17739360Y-12034520D03*
G04 #@! TD*
G04 #@! TO.C,TP9*
X5781040Y-67218560D03*
G04 #@! TD*
D18*
G04 #@! TO.C,J4*
X63169800Y-67379600D03*
G36*
G01*
X62515048Y-64728600D02*
X63824552Y-64728600D01*
G75*
G02*
X64095800Y-64999848I0J-271248D01*
G01*
X64095800Y-65759352D01*
G75*
G02*
X63824552Y-66030600I-271248J0D01*
G01*
X62515048Y-66030600D01*
G75*
G02*
X62243800Y-65759352I0J271248D01*
G01*
X62243800Y-64999848D01*
G75*
G02*
X62515048Y-64728600I271248J0D01*
G01*
G37*
G04 #@! TD*
G04 #@! TO.C,J3*
X63169800Y-59150000D03*
G36*
G01*
X62515048Y-56499000D02*
X63824552Y-56499000D01*
G75*
G02*
X64095800Y-56770248I0J-271248D01*
G01*
X64095800Y-57529752D01*
G75*
G02*
X63824552Y-57801000I-271248J0D01*
G01*
X62515048Y-57801000D01*
G75*
G02*
X62243800Y-57529752I0J271248D01*
G01*
X62243800Y-56770248D01*
G75*
G02*
X62515048Y-56499000I271248J0D01*
G01*
G37*
G04 #@! TD*
G04 #@! TO.C,J5*
G36*
G01*
X33865701Y-14795700D02*
X33215699Y-14795700D01*
G75*
G02*
X33164700Y-14744701I0J50999D01*
G01*
X33164700Y-11744699D01*
G75*
G02*
X33215699Y-11693700I50999J0D01*
G01*
X33865701Y-11693700D01*
G75*
G02*
X33916700Y-11744699I0J-50999D01*
G01*
X33916700Y-14744701D01*
G75*
G02*
X33865701Y-14795700I-50999J0D01*
G01*
G37*
G36*
G01*
X36405701Y-14795700D02*
X35755699Y-14795700D01*
G75*
G02*
X35704700Y-14744701I0J50999D01*
G01*
X35704700Y-11744699D01*
G75*
G02*
X35755699Y-11693700I50999J0D01*
G01*
X36405701Y-11693700D01*
G75*
G02*
X36456700Y-11744699I0J-50999D01*
G01*
X36456700Y-14744701D01*
G75*
G02*
X36405701Y-14795700I-50999J0D01*
G01*
G37*
G36*
G01*
X38945701Y-14795700D02*
X38295699Y-14795700D01*
G75*
G02*
X38244700Y-14744701I0J50999D01*
G01*
X38244700Y-11744699D01*
G75*
G02*
X38295699Y-11693700I50999J0D01*
G01*
X38945701Y-11693700D01*
G75*
G02*
X38996700Y-11744699I0J-50999D01*
G01*
X38996700Y-14744701D01*
G75*
G02*
X38945701Y-14795700I-50999J0D01*
G01*
G37*
G36*
G01*
X35135701Y-17795700D02*
X34485699Y-17795700D01*
G75*
G02*
X34434700Y-17744701I0J50999D01*
G01*
X34434700Y-14744699D01*
G75*
G02*
X34485699Y-14693700I50999J0D01*
G01*
X35135701Y-14693700D01*
G75*
G02*
X35186700Y-14744699I0J-50999D01*
G01*
X35186700Y-17744701D01*
G75*
G02*
X35135701Y-17795700I-50999J0D01*
G01*
G37*
G36*
G01*
X37675701Y-17795700D02*
X37025699Y-17795700D01*
G75*
G02*
X36974700Y-17744701I0J50999D01*
G01*
X36974700Y-14744699D01*
G75*
G02*
X37025699Y-14693700I50999J0D01*
G01*
X37675701Y-14693700D01*
G75*
G02*
X37726700Y-14744699I0J-50999D01*
G01*
X37726700Y-17744701D01*
G75*
G02*
X37675701Y-17795700I-50999J0D01*
G01*
G37*
G36*
G01*
X40215701Y-17795700D02*
X39565699Y-17795700D01*
G75*
G02*
X39514700Y-17744701I0J50999D01*
G01*
X39514700Y-14744699D01*
G75*
G02*
X39565699Y-14693700I50999J0D01*
G01*
X40215701Y-14693700D01*
G75*
G02*
X40266700Y-14744699I0J-50999D01*
G01*
X40266700Y-17744701D01*
G75*
G02*
X40215701Y-17795700I-50999J0D01*
G01*
G37*
G04 #@! TD*
D19*
G04 #@! TO.C,U3*
X57518700Y-76564099D03*
X56218700Y-76564099D03*
X54918700Y-76564099D03*
X57518700Y-75264099D03*
X56218700Y-75264099D03*
X54918700Y-75264099D03*
X54918700Y-72664099D03*
X56218700Y-72664099D03*
X57518700Y-72664099D03*
X54918700Y-73964099D03*
X56218700Y-73964099D03*
X57518700Y-73964099D03*
X57518700Y-80464101D03*
X56218700Y-80464101D03*
X54918700Y-80464101D03*
X57518700Y-81764101D03*
X56218700Y-81764101D03*
X54918700Y-81764101D03*
X54918700Y-79164101D03*
X56218700Y-79164101D03*
X57518700Y-79164101D03*
X54918700Y-77864101D03*
X56218700Y-77864101D03*
X57518700Y-77864101D03*
G04 #@! TD*
D20*
G04 #@! TO.C,H4*
X13500000Y-93082120D03*
G04 #@! TD*
G04 #@! TO.C,H3*
X13500000Y-5000000D03*
G04 #@! TD*
G04 #@! TO.C,H2*
X61921380Y-93082120D03*
G04 #@! TD*
G04 #@! TO.C,H1*
X61921380Y-5000000D03*
G04 #@! TD*
D11*
G04 #@! TO.C,J13*
X27670000Y-88400000D03*
X25130000Y-88400000D03*
X22590000Y-88400000D03*
G36*
G01*
X20900000Y-89301000D02*
X19200000Y-89301000D01*
G75*
G02*
X19149000Y-89250000I0J51000D01*
G01*
X19149000Y-87550000D01*
G75*
G02*
X19200000Y-87499000I51000J0D01*
G01*
X20900000Y-87499000D01*
G75*
G02*
X20951000Y-87550000I0J-51000D01*
G01*
X20951000Y-89250000D01*
G75*
G02*
X20900000Y-89301000I-51000J0D01*
G01*
G37*
G04 #@! TD*
D12*
G04 #@! TO.C,TP1V0*
X11163300Y-80594200D03*
G04 #@! TD*
G04 #@! TO.C,TP18*
X21534120Y-35346640D03*
G04 #@! TD*
G04 #@! TO.C,U9*
G36*
G01*
X19469500Y-66649000D02*
X19820500Y-66649000D01*
G75*
G02*
X19996000Y-66824500I0J-175500D01*
G01*
X19996000Y-68175500D01*
G75*
G02*
X19820500Y-68351000I-175500J0D01*
G01*
X19469500Y-68351000D01*
G75*
G02*
X19294000Y-68175500I0J175500D01*
G01*
X19294000Y-66824500D01*
G75*
G02*
X19469500Y-66649000I175500J0D01*
G01*
G37*
G36*
G01*
X20739500Y-66649000D02*
X21090500Y-66649000D01*
G75*
G02*
X21266000Y-66824500I0J-175500D01*
G01*
X21266000Y-68175500D01*
G75*
G02*
X21090500Y-68351000I-175500J0D01*
G01*
X20739500Y-68351000D01*
G75*
G02*
X20564000Y-68175500I0J175500D01*
G01*
X20564000Y-66824500D01*
G75*
G02*
X20739500Y-66649000I175500J0D01*
G01*
G37*
G36*
G01*
X22009500Y-66649000D02*
X22360500Y-66649000D01*
G75*
G02*
X22536000Y-66824500I0J-175500D01*
G01*
X22536000Y-68175500D01*
G75*
G02*
X22360500Y-68351000I-175500J0D01*
G01*
X22009500Y-68351000D01*
G75*
G02*
X21834000Y-68175500I0J175500D01*
G01*
X21834000Y-66824500D01*
G75*
G02*
X22009500Y-66649000I175500J0D01*
G01*
G37*
G36*
G01*
X23279500Y-66649000D02*
X23630500Y-66649000D01*
G75*
G02*
X23806000Y-66824500I0J-175500D01*
G01*
X23806000Y-68175500D01*
G75*
G02*
X23630500Y-68351000I-175500J0D01*
G01*
X23279500Y-68351000D01*
G75*
G02*
X23104000Y-68175500I0J175500D01*
G01*
X23104000Y-66824500D01*
G75*
G02*
X23279500Y-66649000I175500J0D01*
G01*
G37*
G36*
G01*
X23279500Y-59449000D02*
X23630500Y-59449000D01*
G75*
G02*
X23806000Y-59624500I0J-175500D01*
G01*
X23806000Y-60975500D01*
G75*
G02*
X23630500Y-61151000I-175500J0D01*
G01*
X23279500Y-61151000D01*
G75*
G02*
X23104000Y-60975500I0J175500D01*
G01*
X23104000Y-59624500D01*
G75*
G02*
X23279500Y-59449000I175500J0D01*
G01*
G37*
G36*
G01*
X22009500Y-59449000D02*
X22360500Y-59449000D01*
G75*
G02*
X22536000Y-59624500I0J-175500D01*
G01*
X22536000Y-60975500D01*
G75*
G02*
X22360500Y-61151000I-175500J0D01*
G01*
X22009500Y-61151000D01*
G75*
G02*
X21834000Y-60975500I0J175500D01*
G01*
X21834000Y-59624500D01*
G75*
G02*
X22009500Y-59449000I175500J0D01*
G01*
G37*
G36*
G01*
X20739500Y-59449000D02*
X21090500Y-59449000D01*
G75*
G02*
X21266000Y-59624500I0J-175500D01*
G01*
X21266000Y-60975500D01*
G75*
G02*
X21090500Y-61151000I-175500J0D01*
G01*
X20739500Y-61151000D01*
G75*
G02*
X20564000Y-60975500I0J175500D01*
G01*
X20564000Y-59624500D01*
G75*
G02*
X20739500Y-59449000I175500J0D01*
G01*
G37*
G36*
G01*
X19469500Y-59449000D02*
X19820500Y-59449000D01*
G75*
G02*
X19996000Y-59624500I0J-175500D01*
G01*
X19996000Y-60975500D01*
G75*
G02*
X19820500Y-61151000I-175500J0D01*
G01*
X19469500Y-61151000D01*
G75*
G02*
X19294000Y-60975500I0J175500D01*
G01*
X19294000Y-59624500D01*
G75*
G02*
X19469500Y-59449000I175500J0D01*
G01*
G37*
G04 #@! TD*
D11*
G04 #@! TO.C,J6*
X9552940Y-59237880D03*
X12092940Y-59237880D03*
X9552940Y-56697880D03*
X12092940Y-56697880D03*
X9552940Y-54157880D03*
X12092940Y-54157880D03*
X9552940Y-51617880D03*
X12092940Y-51617880D03*
X9552940Y-49077880D03*
X12092940Y-49077880D03*
X9552940Y-46537880D03*
X12092940Y-46537880D03*
X9552940Y-43997880D03*
X12092940Y-43997880D03*
X9552940Y-41457880D03*
X12092940Y-41457880D03*
X9552940Y-38917880D03*
X12092940Y-38917880D03*
X9552940Y-36377880D03*
X12092940Y-36377880D03*
X9552940Y-33837880D03*
X12092940Y-33837880D03*
X9552940Y-31297880D03*
X12092940Y-31297880D03*
X9552940Y-28757880D03*
X12092940Y-28757880D03*
X9552940Y-26217880D03*
X12092940Y-26217880D03*
X9552940Y-23677880D03*
X12092940Y-23677880D03*
X9552940Y-21137880D03*
X12092940Y-21137880D03*
X9552940Y-18597880D03*
X12092940Y-18597880D03*
X9552940Y-16057880D03*
X12092940Y-16057880D03*
X9552940Y-13517880D03*
X12092940Y-13517880D03*
X9552940Y-10977880D03*
G36*
G01*
X11191940Y-11827880D02*
X11191940Y-10127880D01*
G75*
G02*
X11242940Y-10076880I51000J0D01*
G01*
X12942940Y-10076880D01*
G75*
G02*
X12993940Y-10127880I0J-51000D01*
G01*
X12993940Y-11827880D01*
G75*
G02*
X12942940Y-11878880I-51000J0D01*
G01*
X11242940Y-11878880D01*
G75*
G02*
X11191940Y-11827880I0J51000D01*
G01*
G37*
G04 #@! TD*
G04 #@! TO.C,SW1*
G36*
G01*
X7364900Y-83083240D02*
X6564900Y-83083240D01*
G75*
G02*
X6513900Y-83032240I0J51000D01*
G01*
X6513900Y-82032240D01*
G75*
G02*
X6564900Y-81981240I51000J0D01*
G01*
X7364900Y-81981240D01*
G75*
G02*
X7415900Y-82032240I0J-51000D01*
G01*
X7415900Y-83032240D01*
G75*
G02*
X7364900Y-83083240I-51000J0D01*
G01*
G37*
G36*
G01*
X7364900Y-75783240D02*
X6564900Y-75783240D01*
G75*
G02*
X6513900Y-75732240I0J51000D01*
G01*
X6513900Y-74732240D01*
G75*
G02*
X6564900Y-74681240I51000J0D01*
G01*
X7364900Y-74681240D01*
G75*
G02*
X7415900Y-74732240I0J-51000D01*
G01*
X7415900Y-75732240D01*
G75*
G02*
X7364900Y-75783240I-51000J0D01*
G01*
G37*
G36*
G01*
X5154900Y-75783240D02*
X4354900Y-75783240D01*
G75*
G02*
X4303900Y-75732240I0J51000D01*
G01*
X4303900Y-74732240D01*
G75*
G02*
X4354900Y-74681240I51000J0D01*
G01*
X5154900Y-74681240D01*
G75*
G02*
X5205900Y-74732240I0J-51000D01*
G01*
X5205900Y-75732240D01*
G75*
G02*
X5154900Y-75783240I-51000J0D01*
G01*
G37*
G36*
G01*
X5154900Y-83083240D02*
X4354900Y-83083240D01*
G75*
G02*
X4303900Y-83032240I0J51000D01*
G01*
X4303900Y-82032240D01*
G75*
G02*
X4354900Y-81981240I51000J0D01*
G01*
X5154900Y-81981240D01*
G75*
G02*
X5205900Y-82032240I0J-51000D01*
G01*
X5205900Y-83032240D01*
G75*
G02*
X5154900Y-83083240I-51000J0D01*
G01*
G37*
G36*
G01*
X8364901Y-77033240D02*
X6864899Y-77033240D01*
G75*
G02*
X6813900Y-76982241I0J50999D01*
G01*
X6813900Y-76282239D01*
G75*
G02*
X6864899Y-76231240I50999J0D01*
G01*
X8364901Y-76231240D01*
G75*
G02*
X8415900Y-76282239I0J-50999D01*
G01*
X8415900Y-76982241D01*
G75*
G02*
X8364901Y-77033240I-50999J0D01*
G01*
G37*
G36*
G01*
X8364901Y-78533240D02*
X6864899Y-78533240D01*
G75*
G02*
X6813900Y-78482241I0J50999D01*
G01*
X6813900Y-77782239D01*
G75*
G02*
X6864899Y-77731240I50999J0D01*
G01*
X8364901Y-77731240D01*
G75*
G02*
X8415900Y-77782239I0J-50999D01*
G01*
X8415900Y-78482241D01*
G75*
G02*
X8364901Y-78533240I-50999J0D01*
G01*
G37*
G36*
G01*
X8364901Y-81533240D02*
X6864899Y-81533240D01*
G75*
G02*
X6813900Y-81482241I0J50999D01*
G01*
X6813900Y-80782239D01*
G75*
G02*
X6864899Y-80731240I50999J0D01*
G01*
X8364901Y-80731240D01*
G75*
G02*
X8415900Y-80782239I0J-50999D01*
G01*
X8415900Y-81482241D01*
G75*
G02*
X8364901Y-81533240I-50999J0D01*
G01*
G37*
D21*
X5854900Y-77382240D03*
X5854900Y-80382240D03*
G04 #@! TD*
G04 #@! TO.C,S3*
G36*
G01*
X37859800Y-47593400D02*
X37859800Y-46593400D01*
G75*
G02*
X37910800Y-46542400I51000J0D01*
G01*
X39610800Y-46542400D01*
G75*
G02*
X39661800Y-46593400I0J-51000D01*
G01*
X39661800Y-47593400D01*
G75*
G02*
X39610800Y-47644400I-51000J0D01*
G01*
X37910800Y-47644400D01*
G75*
G02*
X37859800Y-47593400I0J51000D01*
G01*
G37*
G36*
G01*
X31559800Y-47593400D02*
X31559800Y-46593400D01*
G75*
G02*
X31610800Y-46542400I51000J0D01*
G01*
X33310800Y-46542400D01*
G75*
G02*
X33361800Y-46593400I0J-51000D01*
G01*
X33361800Y-47593400D01*
G75*
G02*
X33310800Y-47644400I-51000J0D01*
G01*
X31610800Y-47644400D01*
G75*
G02*
X31559800Y-47593400I0J51000D01*
G01*
G37*
G36*
G01*
X37859800Y-51393400D02*
X37859800Y-50393400D01*
G75*
G02*
X37910800Y-50342400I51000J0D01*
G01*
X39610800Y-50342400D01*
G75*
G02*
X39661800Y-50393400I0J-51000D01*
G01*
X39661800Y-51393400D01*
G75*
G02*
X39610800Y-51444400I-51000J0D01*
G01*
X37910800Y-51444400D01*
G75*
G02*
X37859800Y-51393400I0J51000D01*
G01*
G37*
G36*
G01*
X31559800Y-51393400D02*
X31559800Y-50393400D01*
G75*
G02*
X31610800Y-50342400I51000J0D01*
G01*
X33310800Y-50342400D01*
G75*
G02*
X33361800Y-50393400I0J-51000D01*
G01*
X33361800Y-51393400D01*
G75*
G02*
X33310800Y-51444400I-51000J0D01*
G01*
X31610800Y-51444400D01*
G75*
G02*
X31559800Y-51393400I0J51000D01*
G01*
G37*
G04 #@! TD*
G04 #@! TO.C,S2*
G36*
G01*
X3078020Y-46751000D02*
X2078020Y-46751000D01*
G75*
G02*
X2027020Y-46700000I0J51000D01*
G01*
X2027020Y-45000000D01*
G75*
G02*
X2078020Y-44949000I51000J0D01*
G01*
X3078020Y-44949000D01*
G75*
G02*
X3129020Y-45000000I0J-51000D01*
G01*
X3129020Y-46700000D01*
G75*
G02*
X3078020Y-46751000I-51000J0D01*
G01*
G37*
G36*
G01*
X3078020Y-53051000D02*
X2078020Y-53051000D01*
G75*
G02*
X2027020Y-53000000I0J51000D01*
G01*
X2027020Y-51300000D01*
G75*
G02*
X2078020Y-51249000I51000J0D01*
G01*
X3078020Y-51249000D01*
G75*
G02*
X3129020Y-51300000I0J-51000D01*
G01*
X3129020Y-53000000D01*
G75*
G02*
X3078020Y-53051000I-51000J0D01*
G01*
G37*
G36*
G01*
X6878020Y-46751000D02*
X5878020Y-46751000D01*
G75*
G02*
X5827020Y-46700000I0J51000D01*
G01*
X5827020Y-45000000D01*
G75*
G02*
X5878020Y-44949000I51000J0D01*
G01*
X6878020Y-44949000D01*
G75*
G02*
X6929020Y-45000000I0J-51000D01*
G01*
X6929020Y-46700000D01*
G75*
G02*
X6878020Y-46751000I-51000J0D01*
G01*
G37*
G36*
G01*
X6878020Y-53051000D02*
X5878020Y-53051000D01*
G75*
G02*
X5827020Y-53000000I0J51000D01*
G01*
X5827020Y-51300000D01*
G75*
G02*
X5878020Y-51249000I51000J0D01*
G01*
X6878020Y-51249000D01*
G75*
G02*
X6929020Y-51300000I0J-51000D01*
G01*
X6929020Y-53000000D01*
G75*
G02*
X6878020Y-53051000I-51000J0D01*
G01*
G37*
G04 #@! TD*
G04 #@! TO.C,S1*
G36*
G01*
X3072940Y-16491120D02*
X2072940Y-16491120D01*
G75*
G02*
X2021940Y-16440120I0J51000D01*
G01*
X2021940Y-14740120D01*
G75*
G02*
X2072940Y-14689120I51000J0D01*
G01*
X3072940Y-14689120D01*
G75*
G02*
X3123940Y-14740120I0J-51000D01*
G01*
X3123940Y-16440120D01*
G75*
G02*
X3072940Y-16491120I-51000J0D01*
G01*
G37*
G36*
G01*
X3072940Y-22791120D02*
X2072940Y-22791120D01*
G75*
G02*
X2021940Y-22740120I0J51000D01*
G01*
X2021940Y-21040120D01*
G75*
G02*
X2072940Y-20989120I51000J0D01*
G01*
X3072940Y-20989120D01*
G75*
G02*
X3123940Y-21040120I0J-51000D01*
G01*
X3123940Y-22740120D01*
G75*
G02*
X3072940Y-22791120I-51000J0D01*
G01*
G37*
G36*
G01*
X6872940Y-16491120D02*
X5872940Y-16491120D01*
G75*
G02*
X5821940Y-16440120I0J51000D01*
G01*
X5821940Y-14740120D01*
G75*
G02*
X5872940Y-14689120I51000J0D01*
G01*
X6872940Y-14689120D01*
G75*
G02*
X6923940Y-14740120I0J-51000D01*
G01*
X6923940Y-16440120D01*
G75*
G02*
X6872940Y-16491120I-51000J0D01*
G01*
G37*
G36*
G01*
X6872940Y-22791120D02*
X5872940Y-22791120D01*
G75*
G02*
X5821940Y-22740120I0J51000D01*
G01*
X5821940Y-21040120D01*
G75*
G02*
X5872940Y-20989120I51000J0D01*
G01*
X6872940Y-20989120D01*
G75*
G02*
X6923940Y-21040120I0J-51000D01*
G01*
X6923940Y-22740120D01*
G75*
G02*
X6872940Y-22791120I-51000J0D01*
G01*
G37*
G04 #@! TD*
D22*
G36*
X64407525Y-50108714D02*
G01*
X64408360Y-50110340D01*
X64408360Y-50166700D01*
X64408350Y-50166896D01*
X64394057Y-50312015D01*
X64393981Y-50312400D01*
X64353440Y-50446046D01*
X64353290Y-50446408D01*
X64287460Y-50569567D01*
X64287242Y-50569893D01*
X64198646Y-50677849D01*
X64198369Y-50678126D01*
X64090413Y-50766722D01*
X64090087Y-50766940D01*
X63966928Y-50832770D01*
X63966566Y-50832920D01*
X63832920Y-50873461D01*
X63832535Y-50873537D01*
X63687416Y-50887830D01*
X63687220Y-50887840D01*
X63630860Y-50887840D01*
X63629128Y-50886840D01*
X63629128Y-50884840D01*
X63630664Y-50883850D01*
X63781758Y-50868969D01*
X63926862Y-50824952D01*
X64060589Y-50753474D01*
X64177800Y-50657280D01*
X64273994Y-50540069D01*
X64345472Y-50406342D01*
X64389489Y-50261238D01*
X64404370Y-50110144D01*
X64405535Y-50108518D01*
X64407525Y-50108714D01*
G37*
G36*
X61306350Y-50110144D02*
G01*
X61321231Y-50261238D01*
X61365248Y-50406342D01*
X61436726Y-50540069D01*
X61532920Y-50657280D01*
X61650131Y-50753474D01*
X61783858Y-50824952D01*
X61928962Y-50868969D01*
X62080056Y-50883850D01*
X62081682Y-50885015D01*
X62081486Y-50887005D01*
X62079860Y-50887840D01*
X62023500Y-50887840D01*
X62023304Y-50887830D01*
X61878185Y-50873537D01*
X61877800Y-50873461D01*
X61744154Y-50832920D01*
X61743792Y-50832770D01*
X61620633Y-50766940D01*
X61620307Y-50766722D01*
X61512351Y-50678126D01*
X61512074Y-50677849D01*
X61423478Y-50569893D01*
X61423260Y-50569567D01*
X61357430Y-50446408D01*
X61357280Y-50446046D01*
X61316739Y-50312400D01*
X61316663Y-50312015D01*
X61302370Y-50166896D01*
X61302360Y-50166700D01*
X61302360Y-50110340D01*
X61303360Y-50108608D01*
X61305360Y-50108608D01*
X61306350Y-50110144D01*
G37*
G36*
X62081592Y-47282840D02*
G01*
X62081592Y-47284840D01*
X62080056Y-47285830D01*
X61928962Y-47300711D01*
X61783858Y-47344728D01*
X61650131Y-47416206D01*
X61532920Y-47512400D01*
X61436726Y-47629611D01*
X61365248Y-47763338D01*
X61321231Y-47908442D01*
X61306350Y-48059536D01*
X61305185Y-48061162D01*
X61303195Y-48060966D01*
X61302360Y-48059340D01*
X61302360Y-48002980D01*
X61302370Y-48002784D01*
X61316663Y-47857665D01*
X61316739Y-47857280D01*
X61357280Y-47723634D01*
X61357430Y-47723272D01*
X61423260Y-47600113D01*
X61423478Y-47599787D01*
X61512074Y-47491831D01*
X61512351Y-47491554D01*
X61620307Y-47402958D01*
X61620633Y-47402740D01*
X61743792Y-47336910D01*
X61744154Y-47336760D01*
X61877800Y-47296219D01*
X61878185Y-47296143D01*
X62023304Y-47281850D01*
X62023500Y-47281840D01*
X62079860Y-47281840D01*
X62081592Y-47282840D01*
G37*
G36*
X63687416Y-47281850D02*
G01*
X63832535Y-47296143D01*
X63832920Y-47296219D01*
X63966566Y-47336760D01*
X63966928Y-47336910D01*
X64090087Y-47402740D01*
X64090413Y-47402958D01*
X64198369Y-47491554D01*
X64198646Y-47491831D01*
X64287242Y-47599787D01*
X64287460Y-47600113D01*
X64353290Y-47723272D01*
X64353440Y-47723634D01*
X64393981Y-47857280D01*
X64394057Y-47857665D01*
X64408350Y-48002784D01*
X64408360Y-48002980D01*
X64408360Y-48059340D01*
X64407360Y-48061072D01*
X64405360Y-48061072D01*
X64404370Y-48059536D01*
X64389489Y-47908442D01*
X64345472Y-47763338D01*
X64273994Y-47629611D01*
X64177800Y-47512400D01*
X64060589Y-47416206D01*
X63926862Y-47344728D01*
X63781758Y-47300711D01*
X63630664Y-47285830D01*
X63629038Y-47284665D01*
X63629234Y-47282675D01*
X63630860Y-47281840D01*
X63687220Y-47281840D01*
X63687416Y-47281850D01*
G37*
G36*
X58056350Y-45285144D02*
G01*
X58073633Y-45460624D01*
X58124763Y-45629177D01*
X58207793Y-45784515D01*
X58319531Y-45920669D01*
X58455685Y-46032407D01*
X58611023Y-46115437D01*
X58779576Y-46166567D01*
X58955056Y-46183850D01*
X58956682Y-46185015D01*
X58956486Y-46187005D01*
X58954860Y-46187840D01*
X58898500Y-46187840D01*
X58898304Y-46187830D01*
X58728798Y-46171135D01*
X58728413Y-46171059D01*
X58571319Y-46123405D01*
X58570957Y-46123255D01*
X58426186Y-46045873D01*
X58425860Y-46045655D01*
X58298963Y-45941514D01*
X58298686Y-45941237D01*
X58194545Y-45814340D01*
X58194327Y-45814014D01*
X58116945Y-45669243D01*
X58116795Y-45668881D01*
X58069141Y-45511787D01*
X58069065Y-45511402D01*
X58052370Y-45341896D01*
X58052360Y-45341700D01*
X58052360Y-45285340D01*
X58053360Y-45283608D01*
X58055360Y-45283608D01*
X58056350Y-45285144D01*
G37*
G36*
X61657525Y-45283714D02*
G01*
X61658360Y-45285340D01*
X61658360Y-45341700D01*
X61658350Y-45341896D01*
X61641655Y-45511402D01*
X61641579Y-45511787D01*
X61593925Y-45668881D01*
X61593775Y-45669243D01*
X61516393Y-45814014D01*
X61516175Y-45814340D01*
X61412034Y-45941237D01*
X61411757Y-45941514D01*
X61284860Y-46045655D01*
X61284534Y-46045873D01*
X61139763Y-46123255D01*
X61139401Y-46123405D01*
X60982307Y-46171059D01*
X60981922Y-46171135D01*
X60812416Y-46187830D01*
X60812220Y-46187840D01*
X60755860Y-46187840D01*
X60754128Y-46186840D01*
X60754128Y-46184840D01*
X60755664Y-46183850D01*
X60931144Y-46166567D01*
X61099697Y-46115437D01*
X61255035Y-46032407D01*
X61391189Y-45920669D01*
X61502927Y-45784515D01*
X61585957Y-45629177D01*
X61637087Y-45460624D01*
X61654370Y-45285144D01*
X61655535Y-45283518D01*
X61657525Y-45283714D01*
G37*
G36*
X58956592Y-42582840D02*
G01*
X58956592Y-42584840D01*
X58955056Y-42585830D01*
X58779576Y-42603113D01*
X58611023Y-42654243D01*
X58455685Y-42737273D01*
X58319531Y-42849011D01*
X58207793Y-42985165D01*
X58124763Y-43140503D01*
X58073633Y-43309056D01*
X58056350Y-43484536D01*
X58055185Y-43486162D01*
X58053195Y-43485966D01*
X58052360Y-43484340D01*
X58052360Y-43427980D01*
X58052370Y-43427784D01*
X58069065Y-43258278D01*
X58069141Y-43257893D01*
X58116795Y-43100799D01*
X58116945Y-43100437D01*
X58194327Y-42955666D01*
X58194545Y-42955340D01*
X58298686Y-42828443D01*
X58298963Y-42828166D01*
X58425860Y-42724025D01*
X58426186Y-42723807D01*
X58570957Y-42646425D01*
X58571319Y-42646275D01*
X58728413Y-42598621D01*
X58728798Y-42598545D01*
X58898304Y-42581850D01*
X58898500Y-42581840D01*
X58954860Y-42581840D01*
X58956592Y-42582840D01*
G37*
G36*
X60812416Y-42581850D02*
G01*
X60981922Y-42598545D01*
X60982307Y-42598621D01*
X61139401Y-42646275D01*
X61139763Y-42646425D01*
X61284534Y-42723807D01*
X61284860Y-42724025D01*
X61411757Y-42828166D01*
X61412034Y-42828443D01*
X61516175Y-42955340D01*
X61516393Y-42955666D01*
X61593775Y-43100437D01*
X61593925Y-43100799D01*
X61641579Y-43257893D01*
X61641655Y-43258278D01*
X61658350Y-43427784D01*
X61658360Y-43427980D01*
X61658360Y-43484340D01*
X61657360Y-43486072D01*
X61655360Y-43486072D01*
X61654370Y-43484536D01*
X61637087Y-43309056D01*
X61585957Y-43140503D01*
X61502927Y-42985165D01*
X61391189Y-42849011D01*
X61255035Y-42737273D01*
X61099697Y-42654243D01*
X60931144Y-42603113D01*
X60755664Y-42585830D01*
X60754038Y-42584665D01*
X60754234Y-42582675D01*
X60755860Y-42581840D01*
X60812220Y-42581840D01*
X60812416Y-42581850D01*
G37*
M02*
