G04 #@! TF.GenerationSoftware,KiCad,Pcbnew,(5.1.9)-1*
G04 #@! TF.CreationDate,2021-01-16T15:24:31-08:00*
G04 #@! TF.ProjectId,SJ-201-R6,534a2d32-3031-42d5-9236-2e6b69636164,rev?*
G04 #@! TF.SameCoordinates,Original*
G04 #@! TF.FileFunction,Other,User*
%FSLAX46Y46*%
G04 Gerber Fmt 4.6, Leading zero omitted, Abs format (unit mm)*
G04 Created by KiCad (PCBNEW (5.1.9)-1) date 2021-01-16 15:24:31*
%MOMM*%
%LPD*%
G01*
G04 APERTURE LIST*
%ADD10C,0.050000*%
G04 APERTURE END LIST*
D10*
G04 #@! TO.C,J10*
X26440000Y-22450000D02*
X26440000Y-26050000D01*
X15240000Y-22450000D02*
X26440000Y-22450000D01*
X15240000Y-26050000D02*
X15240000Y-22450000D01*
X26440000Y-26050000D02*
X15240000Y-26050000D01*
G04 #@! TO.C,GO_2*
X18450000Y-76000000D02*
G75*
G03*
X18450000Y-76000000I-1500000J0D01*
G01*
G04 #@! TO.C,GO_1*
X15300000Y-76050000D02*
G75*
G03*
X15300000Y-76050000I-1500000J0D01*
G01*
G04 #@! TO.C,GI_2*
X15300000Y-71550000D02*
G75*
G03*
X15300000Y-71550000I-1500000J0D01*
G01*
G04 #@! TO.C,GI_1*
X11800000Y-71450000D02*
G75*
G03*
X11800000Y-71450000I-1500000J0D01*
G01*
G04 #@! TO.C,OutR1*
X44300000Y-29950000D02*
G75*
G03*
X44300000Y-29950000I-1500000J0D01*
G01*
G04 #@! TO.C,OutL1*
X50300000Y-29950000D02*
G75*
G03*
X50300000Y-29950000I-1500000J0D01*
G01*
G04 #@! TO.C,U11*
X22649180Y-82649000D02*
X26967180Y-82649000D01*
X26967180Y-82649000D02*
X26967180Y-85951000D01*
X26967180Y-85951000D02*
X22649180Y-85951000D01*
X22649180Y-85951000D02*
X22649180Y-82649000D01*
G04 #@! TO.C,U10*
X22649180Y-11649000D02*
X26967180Y-11649000D01*
X26967180Y-11649000D02*
X26967180Y-14951000D01*
X26967180Y-14951000D02*
X22649180Y-14951000D01*
X22649180Y-14951000D02*
X22649180Y-11649000D01*
G04 #@! TO.C,D3*
X26154380Y-38015520D02*
X26154380Y-34078520D01*
X26154380Y-34078520D02*
X30472380Y-34078520D01*
X30472380Y-34078520D02*
X30472380Y-38015520D01*
X30472380Y-38015520D02*
X26154380Y-38015520D01*
G04 #@! TO.C,D4*
X21836380Y-44111520D02*
X21836380Y-40174520D01*
X21836380Y-40174520D02*
X26154380Y-40174520D01*
X26154380Y-40174520D02*
X26154380Y-44111520D01*
X26154380Y-44111520D02*
X21836380Y-44111520D01*
G04 #@! TO.C,D5*
X18686780Y-50969520D02*
X18686780Y-47032520D01*
X18686780Y-47032520D02*
X23004780Y-47032520D01*
X23004780Y-47032520D02*
X23004780Y-50969520D01*
X23004780Y-50969520D02*
X18686780Y-50969520D01*
G04 #@! TO.C,D6*
X21785580Y-57827520D02*
X21785580Y-53890520D01*
X21785580Y-53890520D02*
X26103580Y-53890520D01*
X26103580Y-53890520D02*
X26103580Y-57827520D01*
X26103580Y-57827520D02*
X21785580Y-57827520D01*
G04 #@! TO.C,D7*
X26205180Y-63872720D02*
X26205180Y-59935720D01*
X26205180Y-59935720D02*
X30523180Y-59935720D01*
X30523180Y-59935720D02*
X30523180Y-63872720D01*
X30523180Y-63872720D02*
X26205180Y-63872720D01*
G04 #@! TO.C,D8*
X33672780Y-64533120D02*
X33672780Y-60596120D01*
X33672780Y-60596120D02*
X37990780Y-60596120D01*
X37990780Y-60596120D02*
X37990780Y-64533120D01*
X37990780Y-64533120D02*
X33672780Y-64533120D01*
G04 #@! TO.C,D9*
X41191180Y-63923520D02*
X41191180Y-59986520D01*
X41191180Y-59986520D02*
X45509180Y-59986520D01*
X45509180Y-59986520D02*
X45509180Y-63923520D01*
X45509180Y-63923520D02*
X41191180Y-63923520D01*
G04 #@! TO.C,D10*
X45559980Y-57725920D02*
X45559980Y-53788920D01*
X45559980Y-53788920D02*
X49877980Y-53788920D01*
X49877980Y-53788920D02*
X49877980Y-57725920D01*
X49877980Y-57725920D02*
X45559980Y-57725920D01*
G04 #@! TO.C,D11*
X48658780Y-50918720D02*
X48658780Y-46981720D01*
X48658780Y-46981720D02*
X52976780Y-46981720D01*
X52976780Y-46981720D02*
X52976780Y-50918720D01*
X52976780Y-50918720D02*
X48658780Y-50918720D01*
G04 #@! TO.C,D12*
X45509180Y-44111520D02*
X45509180Y-40174520D01*
X45509180Y-40174520D02*
X49827180Y-40174520D01*
X49827180Y-40174520D02*
X49827180Y-44111520D01*
X49827180Y-44111520D02*
X45509180Y-44111520D01*
G04 #@! TO.C,D13*
X41140380Y-37913920D02*
X41140380Y-33976920D01*
X41140380Y-33976920D02*
X45458380Y-33976920D01*
X45458380Y-33976920D02*
X45458380Y-37913920D01*
X45458380Y-37913920D02*
X41140380Y-37913920D01*
G04 #@! TO.C,D2*
X33672780Y-37253520D02*
X33672780Y-33316520D01*
X33672780Y-33316520D02*
X37990780Y-33316520D01*
X37990780Y-33316520D02*
X37990780Y-37253520D01*
X37990780Y-37253520D02*
X33672780Y-37253520D01*
G04 #@! TO.C,TP1v8*
X58950000Y-96650000D02*
G75*
G03*
X58950000Y-96650000I-1500000J0D01*
G01*
G04 #@! TO.C,UP1*
X28700000Y-71150000D02*
G75*
G03*
X28700000Y-71150000I-1000000J0D01*
G01*
G04 #@! TO.C,UP0*
X31200000Y-71000000D02*
G75*
G03*
X31200000Y-71000000I-1000000J0D01*
G01*
G04 #@! TO.C,TMS1*
X24000000Y-79400000D02*
G75*
G03*
X24000000Y-79400000I-1000000J0D01*
G01*
G04 #@! TO.C,TD0*
X21550000Y-76450000D02*
G75*
G03*
X21550000Y-76450000I-1000000J0D01*
G01*
G04 #@! TO.C,TDI1*
X23600000Y-76400000D02*
G75*
G03*
X23600000Y-76400000I-1000000J0D01*
G01*
G04 #@! TO.C,TCK1*
X30000000Y-78800000D02*
G75*
G03*
X30000000Y-78800000I-1000000J0D01*
G01*
G04 #@! TO.C,DN0*
X26200000Y-70900000D02*
G75*
G03*
X26200000Y-70900000I-1000000J0D01*
G01*
G04 #@! TO.C,DN1*
X25900000Y-73300000D02*
G75*
G03*
X25900000Y-73300000I-1000000J0D01*
G01*
G04 #@! TO.C,TP4*
X49700000Y-71000000D02*
G75*
G03*
X49700000Y-71000000I-1500000J0D01*
G01*
G04 #@! TO.C,TP3*
X6100000Y-58600000D02*
G75*
G03*
X6100000Y-58600000I-1500000J0D01*
G01*
G04 #@! TO.C,TP1*
X6884800Y-61874400D02*
G75*
G03*
X6884800Y-61874400I-1500000J0D01*
G01*
G04 #@! TO.C,TP5*
X43200000Y-68900000D02*
G75*
G03*
X43200000Y-68900000I-1500000J0D01*
G01*
G04 #@! TO.C,RST_N1*
X16900000Y-88000000D02*
G75*
G03*
X16900000Y-88000000I-1500000J0D01*
G01*
G04 #@! TO.C,TP8*
X40050000Y-68850000D02*
G75*
G03*
X40050000Y-68850000I-1500000J0D01*
G01*
G04 #@! TO.C,TP7*
X35050000Y-68850000D02*
G75*
G03*
X35050000Y-68850000I-1500000J0D01*
G01*
G04 #@! TO.C,TP6*
X46850000Y-73200000D02*
G75*
G03*
X46850000Y-73200000I-1500000J0D01*
G01*
G04 #@! TO.C,TP2*
X28269060Y-27663140D02*
G75*
G03*
X28269060Y-27663140I-1500000J0D01*
G01*
G04 #@! TO.C,TP12v0*
X60240040Y-52237640D02*
G75*
G03*
X60240040Y-52237640I-1500000J0D01*
G01*
G04 #@! TO.C,TP11*
X22099400Y-17901920D02*
G75*
G03*
X22099400Y-17901920I-1500000J0D01*
G01*
G04 #@! TO.C,TP10*
X19239360Y-12034520D02*
G75*
G03*
X19239360Y-12034520I-1500000J0D01*
G01*
G04 #@! TO.C,TP9*
X7281040Y-67218560D02*
G75*
G03*
X7281040Y-67218560I-1500000J0D01*
G01*
G04 #@! TO.C,J5*
X41065700Y-18244700D02*
X32365700Y-18244700D01*
X32365700Y-18244700D02*
X32365700Y-11244700D01*
X32365700Y-11244700D02*
X41065700Y-11244700D01*
X41065700Y-11244700D02*
X41065700Y-18244700D01*
G04 #@! TO.C,TP1V0*
X12663300Y-80594200D02*
G75*
G03*
X12663300Y-80594200I-1500000J0D01*
G01*
G04 #@! TO.C,TP18*
X23034120Y-35346640D02*
G75*
G03*
X23034120Y-35346640I-1500000J0D01*
G01*
G04 #@! TO.C,U9*
X18690000Y-59250000D02*
X24410000Y-59250000D01*
X24410000Y-59250000D02*
X24410000Y-68550000D01*
X24410000Y-68550000D02*
X18690000Y-68550000D01*
X18690000Y-68550000D02*
X18690000Y-59250000D01*
G04 #@! TO.C,SW1*
X4084900Y-83282240D02*
X8634900Y-83282240D01*
X4084900Y-80532240D02*
X4084900Y-83282240D01*
X2784900Y-80532240D02*
X4084900Y-80532240D01*
X2784900Y-77232240D02*
X2784900Y-80532240D01*
X4084900Y-77232240D02*
X2784900Y-77232240D01*
X4084900Y-74482240D02*
X4084900Y-77232240D01*
X8634900Y-74482240D02*
X4084900Y-74482240D01*
X8634900Y-83282240D02*
X8634900Y-74482240D01*
G04 #@! TO.C,S3*
X31360800Y-45993400D02*
X31360800Y-51993400D01*
X39860800Y-45993400D02*
X31360800Y-45993400D01*
X39860800Y-51993400D02*
X39860800Y-45993400D01*
X31360800Y-51993400D02*
X39860800Y-51993400D01*
G04 #@! TO.C,S2*
X1478020Y-53250000D02*
X7478020Y-53250000D01*
X1478020Y-44750000D02*
X1478020Y-53250000D01*
X7478020Y-44750000D02*
X1478020Y-44750000D01*
X7478020Y-53250000D02*
X7478020Y-44750000D01*
G04 #@! TO.C,S1*
X1472940Y-22990120D02*
X7472940Y-22990120D01*
X1472940Y-14490120D02*
X1472940Y-22990120D01*
X7472940Y-14490120D02*
X1472940Y-14490120D01*
X7472940Y-22990120D02*
X7472940Y-14490120D01*
G04 #@! TD*
M02*
