G04 #@! TF.GenerationSoftware,KiCad,Pcbnew,(5.1.7)-1*
G04 #@! TF.CreationDate,2020-11-22T20:52:48-08:00*
G04 #@! TF.ProjectId,SJ-201-R4,534a2d32-3031-42d5-9234-2e6b69636164,rev?*
G04 #@! TF.SameCoordinates,Original*
G04 #@! TF.FileFunction,Paste,Bot*
G04 #@! TF.FilePolarity,Positive*
%FSLAX46Y46*%
G04 Gerber Fmt 4.6, Leading zero omitted, Abs format (unit mm)*
G04 Created by KiCad (PCBNEW (5.1.7)-1) date 2020-11-22 20:52:48*
%MOMM*%
%LPD*%
G01*
G04 APERTURE LIST*
%ADD10R,1.000000X3.150000*%
%ADD11R,0.650000X3.000000*%
%ADD12R,1.900000X0.800000*%
%ADD13R,0.950000X0.400000*%
%ADD14R,0.800000X1.000000*%
%ADD15R,1.500000X0.700000*%
%ADD16R,1.700000X1.000000*%
%ADD17R,1.000000X1.700000*%
G04 APERTURE END LIST*
D10*
G04 #@! TO.C,J10*
X17322800Y-91404200D03*
X17322800Y-96454200D03*
X19862800Y-91404200D03*
X19862800Y-96454200D03*
X22402800Y-91404200D03*
X22402800Y-96454200D03*
X24942800Y-91404200D03*
X24942800Y-96454200D03*
X27482800Y-91404200D03*
X27482800Y-96454200D03*
X30022800Y-91404200D03*
X30022800Y-96454200D03*
X32562800Y-91404200D03*
X32562800Y-96454200D03*
X35102800Y-91404200D03*
X35102800Y-96454200D03*
X37642800Y-91404200D03*
X37642800Y-96454200D03*
G04 #@! TD*
D11*
G04 #@! TO.C,J5*
X33540700Y-13244700D03*
X36080700Y-13244700D03*
X38620700Y-13244700D03*
X34810700Y-16244700D03*
X37350700Y-16244700D03*
X39890700Y-16244700D03*
G04 #@! TD*
D12*
G04 #@! TO.C,D9*
X41510180Y-62908520D03*
X41510180Y-61128520D03*
X45190180Y-62908520D03*
X45190180Y-61128520D03*
G04 #@! TD*
G04 #@! TO.C,D2*
X33991780Y-36238520D03*
X33991780Y-34458520D03*
X37671780Y-36238520D03*
X37671780Y-34458520D03*
G04 #@! TD*
G04 #@! TO.C,D13*
X41459380Y-36898920D03*
X41459380Y-35118920D03*
X45139380Y-36898920D03*
X45139380Y-35118920D03*
G04 #@! TD*
G04 #@! TO.C,D12*
X45828180Y-43096520D03*
X45828180Y-41316520D03*
X49508180Y-43096520D03*
X49508180Y-41316520D03*
G04 #@! TD*
G04 #@! TO.C,D11*
X48977780Y-49903720D03*
X48977780Y-48123720D03*
X52657780Y-49903720D03*
X52657780Y-48123720D03*
G04 #@! TD*
G04 #@! TO.C,D10*
X45878980Y-56710920D03*
X45878980Y-54930920D03*
X49558980Y-56710920D03*
X49558980Y-54930920D03*
G04 #@! TD*
G04 #@! TO.C,D8*
X33991780Y-63518120D03*
X33991780Y-61738120D03*
X37671780Y-63518120D03*
X37671780Y-61738120D03*
G04 #@! TD*
G04 #@! TO.C,D7*
X26524180Y-62857720D03*
X26524180Y-61077720D03*
X30204180Y-62857720D03*
X30204180Y-61077720D03*
G04 #@! TD*
G04 #@! TO.C,D6*
X22104580Y-56812520D03*
X22104580Y-55032520D03*
X25784580Y-56812520D03*
X25784580Y-55032520D03*
G04 #@! TD*
G04 #@! TO.C,D5*
X19005780Y-49954520D03*
X19005780Y-48174520D03*
X22685780Y-49954520D03*
X22685780Y-48174520D03*
G04 #@! TD*
G04 #@! TO.C,D3*
X26473380Y-37000520D03*
X26473380Y-35220520D03*
X30153380Y-37000520D03*
X30153380Y-35220520D03*
G04 #@! TD*
G04 #@! TO.C,D4*
X22155380Y-43096520D03*
X22155380Y-41316520D03*
X25835380Y-43096520D03*
X25835380Y-41316520D03*
G04 #@! TD*
G04 #@! TO.C,R55*
G36*
G01*
X36812500Y-28806250D02*
X36812500Y-28293750D01*
G75*
G02*
X37031250Y-28075000I218750J0D01*
G01*
X37468750Y-28075000D01*
G75*
G02*
X37687500Y-28293750I0J-218750D01*
G01*
X37687500Y-28806250D01*
G75*
G02*
X37468750Y-29025000I-218750J0D01*
G01*
X37031250Y-29025000D01*
G75*
G02*
X36812500Y-28806250I0J218750D01*
G01*
G37*
G36*
G01*
X35237500Y-28806250D02*
X35237500Y-28293750D01*
G75*
G02*
X35456250Y-28075000I218750J0D01*
G01*
X35893750Y-28075000D01*
G75*
G02*
X36112500Y-28293750I0J-218750D01*
G01*
X36112500Y-28806250D01*
G75*
G02*
X35893750Y-29025000I-218750J0D01*
G01*
X35456250Y-29025000D01*
G75*
G02*
X35237500Y-28806250I0J218750D01*
G01*
G37*
G04 #@! TD*
G04 #@! TO.C,R54*
G36*
G01*
X36812500Y-31281250D02*
X36812500Y-30768750D01*
G75*
G02*
X37031250Y-30550000I218750J0D01*
G01*
X37468750Y-30550000D01*
G75*
G02*
X37687500Y-30768750I0J-218750D01*
G01*
X37687500Y-31281250D01*
G75*
G02*
X37468750Y-31500000I-218750J0D01*
G01*
X37031250Y-31500000D01*
G75*
G02*
X36812500Y-31281250I0J218750D01*
G01*
G37*
G36*
G01*
X35237500Y-31281250D02*
X35237500Y-30768750D01*
G75*
G02*
X35456250Y-30550000I218750J0D01*
G01*
X35893750Y-30550000D01*
G75*
G02*
X36112500Y-30768750I0J-218750D01*
G01*
X36112500Y-31281250D01*
G75*
G02*
X35893750Y-31500000I-218750J0D01*
G01*
X35456250Y-31500000D01*
G75*
G02*
X35237500Y-31281250I0J218750D01*
G01*
G37*
G04 #@! TD*
G04 #@! TO.C,R37*
G36*
G01*
X39875000Y-28806250D02*
X39875000Y-28293750D01*
G75*
G02*
X40093750Y-28075000I218750J0D01*
G01*
X40531250Y-28075000D01*
G75*
G02*
X40750000Y-28293750I0J-218750D01*
G01*
X40750000Y-28806250D01*
G75*
G02*
X40531250Y-29025000I-218750J0D01*
G01*
X40093750Y-29025000D01*
G75*
G02*
X39875000Y-28806250I0J218750D01*
G01*
G37*
G36*
G01*
X38300000Y-28806250D02*
X38300000Y-28293750D01*
G75*
G02*
X38518750Y-28075000I218750J0D01*
G01*
X38956250Y-28075000D01*
G75*
G02*
X39175000Y-28293750I0J-218750D01*
G01*
X39175000Y-28806250D01*
G75*
G02*
X38956250Y-29025000I-218750J0D01*
G01*
X38518750Y-29025000D01*
G75*
G02*
X38300000Y-28806250I0J218750D01*
G01*
G37*
G04 #@! TD*
G04 #@! TO.C,R25*
G36*
G01*
X39875000Y-31281250D02*
X39875000Y-30768750D01*
G75*
G02*
X40093750Y-30550000I218750J0D01*
G01*
X40531250Y-30550000D01*
G75*
G02*
X40750000Y-30768750I0J-218750D01*
G01*
X40750000Y-31281250D01*
G75*
G02*
X40531250Y-31500000I-218750J0D01*
G01*
X40093750Y-31500000D01*
G75*
G02*
X39875000Y-31281250I0J218750D01*
G01*
G37*
G36*
G01*
X38300000Y-31281250D02*
X38300000Y-30768750D01*
G75*
G02*
X38518750Y-30550000I218750J0D01*
G01*
X38956250Y-30550000D01*
G75*
G02*
X39175000Y-30768750I0J-218750D01*
G01*
X39175000Y-31281250D01*
G75*
G02*
X38956250Y-31500000I-218750J0D01*
G01*
X38518750Y-31500000D01*
G75*
G02*
X38300000Y-31281250I0J218750D01*
G01*
G37*
G04 #@! TD*
G04 #@! TO.C,R12*
G36*
G01*
X4075000Y-27493750D02*
X4075000Y-28006250D01*
G75*
G02*
X3856250Y-28225000I-218750J0D01*
G01*
X3418750Y-28225000D01*
G75*
G02*
X3200000Y-28006250I0J218750D01*
G01*
X3200000Y-27493750D01*
G75*
G02*
X3418750Y-27275000I218750J0D01*
G01*
X3856250Y-27275000D01*
G75*
G02*
X4075000Y-27493750I0J-218750D01*
G01*
G37*
G36*
G01*
X5650000Y-27493750D02*
X5650000Y-28006250D01*
G75*
G02*
X5431250Y-28225000I-218750J0D01*
G01*
X4993750Y-28225000D01*
G75*
G02*
X4775000Y-28006250I0J218750D01*
G01*
X4775000Y-27493750D01*
G75*
G02*
X4993750Y-27275000I218750J0D01*
G01*
X5431250Y-27275000D01*
G75*
G02*
X5650000Y-27493750I0J-218750D01*
G01*
G37*
G04 #@! TD*
G04 #@! TO.C,R19*
G36*
G01*
X16176970Y-49012360D02*
X15664470Y-49012360D01*
G75*
G02*
X15445720Y-48793610I0J218750D01*
G01*
X15445720Y-48356110D01*
G75*
G02*
X15664470Y-48137360I218750J0D01*
G01*
X16176970Y-48137360D01*
G75*
G02*
X16395720Y-48356110I0J-218750D01*
G01*
X16395720Y-48793610D01*
G75*
G02*
X16176970Y-49012360I-218750J0D01*
G01*
G37*
G36*
G01*
X16176970Y-50587360D02*
X15664470Y-50587360D01*
G75*
G02*
X15445720Y-50368610I0J218750D01*
G01*
X15445720Y-49931110D01*
G75*
G02*
X15664470Y-49712360I218750J0D01*
G01*
X16176970Y-49712360D01*
G75*
G02*
X16395720Y-49931110I0J-218750D01*
G01*
X16395720Y-50368610D01*
G75*
G02*
X16176970Y-50587360I-218750J0D01*
G01*
G37*
G04 #@! TD*
G04 #@! TO.C,R13*
G36*
G01*
X4775000Y-31356250D02*
X4775000Y-30843750D01*
G75*
G02*
X4993750Y-30625000I218750J0D01*
G01*
X5431250Y-30625000D01*
G75*
G02*
X5650000Y-30843750I0J-218750D01*
G01*
X5650000Y-31356250D01*
G75*
G02*
X5431250Y-31575000I-218750J0D01*
G01*
X4993750Y-31575000D01*
G75*
G02*
X4775000Y-31356250I0J218750D01*
G01*
G37*
G36*
G01*
X3200000Y-31356250D02*
X3200000Y-30843750D01*
G75*
G02*
X3418750Y-30625000I218750J0D01*
G01*
X3856250Y-30625000D01*
G75*
G02*
X4075000Y-30843750I0J-218750D01*
G01*
X4075000Y-31356250D01*
G75*
G02*
X3856250Y-31575000I-218750J0D01*
G01*
X3418750Y-31575000D01*
G75*
G02*
X3200000Y-31356250I0J218750D01*
G01*
G37*
G04 #@! TD*
G04 #@! TO.C,U10*
G36*
G01*
X23808330Y-12514120D02*
X25808030Y-12514120D01*
G75*
G02*
X25958180Y-12664270I0J-150150D01*
G01*
X25958180Y-12713970D01*
G75*
G02*
X25808030Y-12864120I-150150J0D01*
G01*
X23808330Y-12864120D01*
G75*
G02*
X23658180Y-12713970I0J150150D01*
G01*
X23658180Y-12664270D01*
G75*
G02*
X23808330Y-12514120I150150J0D01*
G01*
G37*
G36*
G01*
X23808330Y-14964120D02*
X25808030Y-14964120D01*
G75*
G02*
X25958180Y-15114270I0J-150150D01*
G01*
X25958180Y-15163970D01*
G75*
G02*
X25808030Y-15314120I-150150J0D01*
G01*
X23808330Y-15314120D01*
G75*
G02*
X23658180Y-15163970I0J150150D01*
G01*
X23658180Y-15114270D01*
G75*
G02*
X23808330Y-14964120I150150J0D01*
G01*
G37*
G36*
G01*
X26708180Y-13414270D02*
X26708180Y-14413970D01*
G75*
G02*
X26558030Y-14564120I-150150J0D01*
G01*
X26508330Y-14564120D01*
G75*
G02*
X26358180Y-14413970I0J150150D01*
G01*
X26358180Y-13414270D01*
G75*
G02*
X26508330Y-13264120I150150J0D01*
G01*
X26558030Y-13264120D01*
G75*
G02*
X26708180Y-13414270I0J-150150D01*
G01*
G37*
G36*
G01*
X23258180Y-13414270D02*
X23258180Y-14413970D01*
G75*
G02*
X23108030Y-14564120I-150150J0D01*
G01*
X23058330Y-14564120D01*
G75*
G02*
X22908180Y-14413970I0J150150D01*
G01*
X22908180Y-13414270D01*
G75*
G02*
X23058330Y-13264120I150150J0D01*
G01*
X23108030Y-13264120D01*
G75*
G02*
X23258180Y-13414270I0J-150150D01*
G01*
G37*
D13*
X25483180Y-14339120D03*
X25483180Y-13489120D03*
X24133180Y-13489120D03*
X24133180Y-14339120D03*
G04 #@! TD*
G04 #@! TO.C,U11*
G36*
G01*
X23808330Y-82364120D02*
X25808030Y-82364120D01*
G75*
G02*
X25958180Y-82514270I0J-150150D01*
G01*
X25958180Y-82563970D01*
G75*
G02*
X25808030Y-82714120I-150150J0D01*
G01*
X23808330Y-82714120D01*
G75*
G02*
X23658180Y-82563970I0J150150D01*
G01*
X23658180Y-82514270D01*
G75*
G02*
X23808330Y-82364120I150150J0D01*
G01*
G37*
G36*
G01*
X23808330Y-84814120D02*
X25808030Y-84814120D01*
G75*
G02*
X25958180Y-84964270I0J-150150D01*
G01*
X25958180Y-85013970D01*
G75*
G02*
X25808030Y-85164120I-150150J0D01*
G01*
X23808330Y-85164120D01*
G75*
G02*
X23658180Y-85013970I0J150150D01*
G01*
X23658180Y-84964270D01*
G75*
G02*
X23808330Y-84814120I150150J0D01*
G01*
G37*
G36*
G01*
X26708180Y-83264270D02*
X26708180Y-84263970D01*
G75*
G02*
X26558030Y-84414120I-150150J0D01*
G01*
X26508330Y-84414120D01*
G75*
G02*
X26358180Y-84263970I0J150150D01*
G01*
X26358180Y-83264270D01*
G75*
G02*
X26508330Y-83114120I150150J0D01*
G01*
X26558030Y-83114120D01*
G75*
G02*
X26708180Y-83264270I0J-150150D01*
G01*
G37*
G36*
G01*
X23258180Y-83264270D02*
X23258180Y-84263970D01*
G75*
G02*
X23108030Y-84414120I-150150J0D01*
G01*
X23058330Y-84414120D01*
G75*
G02*
X22908180Y-84263970I0J150150D01*
G01*
X22908180Y-83264270D01*
G75*
G02*
X23058330Y-83114120I150150J0D01*
G01*
X23108030Y-83114120D01*
G75*
G02*
X23258180Y-83264270I0J-150150D01*
G01*
G37*
X25483180Y-84189120D03*
X25483180Y-83339120D03*
X24133180Y-83339120D03*
X24133180Y-84189120D03*
G04 #@! TD*
D14*
G04 #@! TO.C,SW1*
X6964900Y-82532240D03*
X6964900Y-75232240D03*
X4754900Y-75232240D03*
X4754900Y-82532240D03*
D15*
X7614900Y-76632240D03*
X7614900Y-78132240D03*
X7614900Y-81132240D03*
G04 #@! TD*
D16*
G04 #@! TO.C,S3*
X38760800Y-47093400D03*
X32460800Y-47093400D03*
X38760800Y-50893400D03*
X32460800Y-50893400D03*
G04 #@! TD*
D17*
G04 #@! TO.C,S2*
X2578020Y-45850000D03*
X2578020Y-52150000D03*
X6378020Y-45850000D03*
X6378020Y-52150000D03*
G04 #@! TD*
G04 #@! TO.C,S1*
X2572940Y-15590120D03*
X2572940Y-21890120D03*
X6372940Y-15590120D03*
X6372940Y-21890120D03*
G04 #@! TD*
M02*
