G04 #@! TF.GenerationSoftware,KiCad,Pcbnew,(5.1.7)-1*
G04 #@! TF.CreationDate,2020-11-22T20:52:48-08:00*
G04 #@! TF.ProjectId,SJ-201-R4,534a2d32-3031-42d5-9234-2e6b69636164,rev?*
G04 #@! TF.SameCoordinates,Original*
G04 #@! TF.FileFunction,Paste,Top*
G04 #@! TF.FilePolarity,Positive*
%FSLAX46Y46*%
G04 Gerber Fmt 4.6, Leading zero omitted, Abs format (unit mm)*
G04 Created by KiCad (PCBNEW (5.1.7)-1) date 2020-11-22 20:52:48*
%MOMM*%
%LPD*%
G01*
G04 APERTURE LIST*
%ADD10C,0.152400*%
%ADD11R,0.800000X0.900000*%
%ADD12R,1.500000X3.600000*%
%ADD13R,0.300000X0.700000*%
%ADD14R,4.550000X5.250000*%
%ADD15R,4.600000X1.100000*%
%ADD16R,2.000000X1.500000*%
%ADD17R,2.000000X3.800000*%
%ADD18R,3.600000X9.700001*%
%ADD19R,1.400000X0.299999*%
%ADD20R,4.500000X5.000000*%
%ADD21C,0.100000*%
%ADD22R,0.400000X0.400000*%
%ADD23R,0.800000X0.800000*%
%ADD24R,0.600000X0.300000*%
%ADD25R,0.300000X0.600000*%
%ADD26R,1.200000X0.900000*%
%ADD27R,0.650000X1.220000*%
%ADD28R,1.400000X1.200000*%
%ADD29R,1.800000X2.500000*%
%ADD30R,1.200000X0.400000*%
%ADD31R,0.500000X0.500000*%
G04 APERTURE END LIST*
D10*
G04 #@! TO.C,U3*
X54769536Y-79529086D02*
X54768700Y-79520600D01*
X54772013Y-79537248D02*
X54769536Y-79529086D01*
X54776031Y-79544768D02*
X54772013Y-79537248D01*
X54781441Y-79551360D02*
X54776031Y-79544768D01*
X54788032Y-79556770D02*
X54781441Y-79551360D01*
X54795553Y-79560788D02*
X54788032Y-79556770D01*
X54803714Y-79563265D02*
X54795553Y-79560788D01*
X54812200Y-79564100D02*
X54803714Y-79563265D01*
X57625200Y-79564100D02*
X54812200Y-79564100D01*
X57633686Y-79563265D02*
X57625200Y-79564100D01*
X57641847Y-79560788D02*
X57633686Y-79563265D01*
X57649368Y-79556770D02*
X57641847Y-79560788D01*
X57655959Y-79551360D02*
X57649368Y-79556770D01*
X57661369Y-79544768D02*
X57655959Y-79551360D01*
X57665387Y-79537248D02*
X57661369Y-79544768D01*
X57667864Y-79529086D02*
X57665387Y-79537248D01*
X57668700Y-79520600D02*
X57667864Y-79529086D01*
X57668700Y-74907600D02*
X57668700Y-79520600D01*
X57667864Y-74899114D02*
X57668700Y-74907600D01*
X57665387Y-74890952D02*
X57667864Y-74899114D01*
X57661369Y-74883432D02*
X57665387Y-74890952D01*
X57655959Y-74876840D02*
X57661369Y-74883432D01*
X57649368Y-74871430D02*
X57655959Y-74876840D01*
X57641847Y-74867412D02*
X57649368Y-74871430D01*
X57633686Y-74864935D02*
X57641847Y-74867412D01*
X57625200Y-74864100D02*
X57633686Y-74864935D01*
X54812200Y-74864100D02*
X57625200Y-74864100D01*
X54803714Y-74864935D02*
X54812200Y-74864100D01*
X54795553Y-74867412D02*
X54803714Y-74864935D01*
X54788032Y-74871430D02*
X54795553Y-74867412D01*
X54781441Y-74876840D02*
X54788032Y-74871430D01*
X54776031Y-74883432D02*
X54781441Y-74876840D01*
X54772013Y-74890952D02*
X54776031Y-74883432D01*
X54769536Y-74899114D02*
X54772013Y-74890952D01*
X54768700Y-74907600D02*
X54769536Y-74899114D01*
X54768700Y-79520600D02*
X54768700Y-74907600D01*
G04 #@! TD*
G04 #@! TO.C,R33*
G36*
G01*
X27474680Y-44790140D02*
X27474680Y-44445140D01*
G75*
G02*
X27622180Y-44297640I147500J0D01*
G01*
X27917180Y-44297640D01*
G75*
G02*
X28064680Y-44445140I0J-147500D01*
G01*
X28064680Y-44790140D01*
G75*
G02*
X27917180Y-44937640I-147500J0D01*
G01*
X27622180Y-44937640D01*
G75*
G02*
X27474680Y-44790140I0J147500D01*
G01*
G37*
G36*
G01*
X26504680Y-44790140D02*
X26504680Y-44445140D01*
G75*
G02*
X26652180Y-44297640I147500J0D01*
G01*
X26947180Y-44297640D01*
G75*
G02*
X27094680Y-44445140I0J-147500D01*
G01*
X27094680Y-44790140D01*
G75*
G02*
X26947180Y-44937640I-147500J0D01*
G01*
X26652180Y-44937640D01*
G75*
G02*
X26504680Y-44790140I0J147500D01*
G01*
G37*
G04 #@! TD*
G04 #@! TO.C,R9*
G36*
G01*
X15867160Y-42019720D02*
X15522160Y-42019720D01*
G75*
G02*
X15374660Y-41872220I0J147500D01*
G01*
X15374660Y-41577220D01*
G75*
G02*
X15522160Y-41429720I147500J0D01*
G01*
X15867160Y-41429720D01*
G75*
G02*
X16014660Y-41577220I0J-147500D01*
G01*
X16014660Y-41872220D01*
G75*
G02*
X15867160Y-42019720I-147500J0D01*
G01*
G37*
G36*
G01*
X15867160Y-42989720D02*
X15522160Y-42989720D01*
G75*
G02*
X15374660Y-42842220I0J147500D01*
G01*
X15374660Y-42547220D01*
G75*
G02*
X15522160Y-42399720I147500J0D01*
G01*
X15867160Y-42399720D01*
G75*
G02*
X16014660Y-42547220I0J-147500D01*
G01*
X16014660Y-42842220D01*
G75*
G02*
X15867160Y-42989720I-147500J0D01*
G01*
G37*
G04 #@! TD*
G04 #@! TO.C,R29*
G36*
G01*
X44477440Y-41246840D02*
X44477440Y-40901840D01*
G75*
G02*
X44624940Y-40754340I147500J0D01*
G01*
X44919940Y-40754340D01*
G75*
G02*
X45067440Y-40901840I0J-147500D01*
G01*
X45067440Y-41246840D01*
G75*
G02*
X44919940Y-41394340I-147500J0D01*
G01*
X44624940Y-41394340D01*
G75*
G02*
X44477440Y-41246840I0J147500D01*
G01*
G37*
G36*
G01*
X43507440Y-41246840D02*
X43507440Y-40901840D01*
G75*
G02*
X43654940Y-40754340I147500J0D01*
G01*
X43949940Y-40754340D01*
G75*
G02*
X44097440Y-40901840I0J-147500D01*
G01*
X44097440Y-41246840D01*
G75*
G02*
X43949940Y-41394340I-147500J0D01*
G01*
X43654940Y-41394340D01*
G75*
G02*
X43507440Y-41246840I0J147500D01*
G01*
G37*
G04 #@! TD*
G04 #@! TO.C,R20*
G36*
G01*
X44454580Y-40065740D02*
X44454580Y-39720740D01*
G75*
G02*
X44602080Y-39573240I147500J0D01*
G01*
X44897080Y-39573240D01*
G75*
G02*
X45044580Y-39720740I0J-147500D01*
G01*
X45044580Y-40065740D01*
G75*
G02*
X44897080Y-40213240I-147500J0D01*
G01*
X44602080Y-40213240D01*
G75*
G02*
X44454580Y-40065740I0J147500D01*
G01*
G37*
G36*
G01*
X43484580Y-40065740D02*
X43484580Y-39720740D01*
G75*
G02*
X43632080Y-39573240I147500J0D01*
G01*
X43927080Y-39573240D01*
G75*
G02*
X44074580Y-39720740I0J-147500D01*
G01*
X44074580Y-40065740D01*
G75*
G02*
X43927080Y-40213240I-147500J0D01*
G01*
X43632080Y-40213240D01*
G75*
G02*
X43484580Y-40065740I0J147500D01*
G01*
G37*
G04 #@! TD*
G04 #@! TO.C,R18*
G36*
G01*
X65491580Y-34236160D02*
X65836580Y-34236160D01*
G75*
G02*
X65984080Y-34383660I0J-147500D01*
G01*
X65984080Y-34678660D01*
G75*
G02*
X65836580Y-34826160I-147500J0D01*
G01*
X65491580Y-34826160D01*
G75*
G02*
X65344080Y-34678660I0J147500D01*
G01*
X65344080Y-34383660D01*
G75*
G02*
X65491580Y-34236160I147500J0D01*
G01*
G37*
G36*
G01*
X65491580Y-33266160D02*
X65836580Y-33266160D01*
G75*
G02*
X65984080Y-33413660I0J-147500D01*
G01*
X65984080Y-33708660D01*
G75*
G02*
X65836580Y-33856160I-147500J0D01*
G01*
X65491580Y-33856160D01*
G75*
G02*
X65344080Y-33708660I0J147500D01*
G01*
X65344080Y-33413660D01*
G75*
G02*
X65491580Y-33266160I147500J0D01*
G01*
G37*
G04 #@! TD*
G04 #@! TO.C,R2*
G36*
G01*
X43828200Y-37950360D02*
X43828200Y-38295360D01*
G75*
G02*
X43680700Y-38442860I-147500J0D01*
G01*
X43385700Y-38442860D01*
G75*
G02*
X43238200Y-38295360I0J147500D01*
G01*
X43238200Y-37950360D01*
G75*
G02*
X43385700Y-37802860I147500J0D01*
G01*
X43680700Y-37802860D01*
G75*
G02*
X43828200Y-37950360I0J-147500D01*
G01*
G37*
G36*
G01*
X44798200Y-37950360D02*
X44798200Y-38295360D01*
G75*
G02*
X44650700Y-38442860I-147500J0D01*
G01*
X44355700Y-38442860D01*
G75*
G02*
X44208200Y-38295360I0J147500D01*
G01*
X44208200Y-37950360D01*
G75*
G02*
X44355700Y-37802860I147500J0D01*
G01*
X44650700Y-37802860D01*
G75*
G02*
X44798200Y-37950360I0J-147500D01*
G01*
G37*
G04 #@! TD*
D11*
G04 #@! TO.C,Q1*
X43527980Y-34732720D03*
X44477980Y-36732720D03*
X42577980Y-36732720D03*
G04 #@! TD*
D12*
G04 #@! TO.C,L2*
X35713940Y-61805820D03*
X38763940Y-61805820D03*
G04 #@! TD*
D13*
G04 #@! TO.C,U14*
X15658400Y-28253700D03*
X16158400Y-28253700D03*
X16658400Y-28253700D03*
X17158400Y-28253700D03*
X17158400Y-30953700D03*
X16658400Y-30953700D03*
X16158400Y-30953700D03*
X15658400Y-30953700D03*
G04 #@! TD*
G04 #@! TO.C,C67*
G36*
G01*
X50289280Y-31489760D02*
X50289280Y-29439760D01*
G75*
G02*
X50539280Y-29189760I250000J0D01*
G01*
X52114280Y-29189760D01*
G75*
G02*
X52364280Y-29439760I0J-250000D01*
G01*
X52364280Y-31489760D01*
G75*
G02*
X52114280Y-31739760I-250000J0D01*
G01*
X50539280Y-31739760D01*
G75*
G02*
X50289280Y-31489760I0J250000D01*
G01*
G37*
G36*
G01*
X44064280Y-31489760D02*
X44064280Y-29439760D01*
G75*
G02*
X44314280Y-29189760I250000J0D01*
G01*
X45889280Y-29189760D01*
G75*
G02*
X46139280Y-29439760I0J-250000D01*
G01*
X46139280Y-31489760D01*
G75*
G02*
X45889280Y-31739760I-250000J0D01*
G01*
X44314280Y-31739760D01*
G75*
G02*
X44064280Y-31489760I0J250000D01*
G01*
G37*
G04 #@! TD*
D14*
G04 #@! TO.C,U12*
X58237160Y-21703080D03*
X63087160Y-16153080D03*
X58237160Y-16153080D03*
X63087160Y-21703080D03*
D15*
X51512160Y-22328080D03*
X51512160Y-20628080D03*
X51512160Y-18928080D03*
X51512160Y-17228080D03*
X51512160Y-15528080D03*
G04 #@! TD*
G04 #@! TO.C,R66*
G36*
G01*
X15969200Y-33413200D02*
X16314200Y-33413200D01*
G75*
G02*
X16461700Y-33560700I0J-147500D01*
G01*
X16461700Y-33855700D01*
G75*
G02*
X16314200Y-34003200I-147500J0D01*
G01*
X15969200Y-34003200D01*
G75*
G02*
X15821700Y-33855700I0J147500D01*
G01*
X15821700Y-33560700D01*
G75*
G02*
X15969200Y-33413200I147500J0D01*
G01*
G37*
G36*
G01*
X15969200Y-32443200D02*
X16314200Y-32443200D01*
G75*
G02*
X16461700Y-32590700I0J-147500D01*
G01*
X16461700Y-32885700D01*
G75*
G02*
X16314200Y-33033200I-147500J0D01*
G01*
X15969200Y-33033200D01*
G75*
G02*
X15821700Y-32885700I0J147500D01*
G01*
X15821700Y-32590700D01*
G75*
G02*
X15969200Y-32443200I147500J0D01*
G01*
G37*
G04 #@! TD*
G04 #@! TO.C,R65*
G36*
G01*
X18003300Y-25806900D02*
X17658300Y-25806900D01*
G75*
G02*
X17510800Y-25659400I0J147500D01*
G01*
X17510800Y-25364400D01*
G75*
G02*
X17658300Y-25216900I147500J0D01*
G01*
X18003300Y-25216900D01*
G75*
G02*
X18150800Y-25364400I0J-147500D01*
G01*
X18150800Y-25659400D01*
G75*
G02*
X18003300Y-25806900I-147500J0D01*
G01*
G37*
G36*
G01*
X18003300Y-26776900D02*
X17658300Y-26776900D01*
G75*
G02*
X17510800Y-26629400I0J147500D01*
G01*
X17510800Y-26334400D01*
G75*
G02*
X17658300Y-26186900I147500J0D01*
G01*
X18003300Y-26186900D01*
G75*
G02*
X18150800Y-26334400I0J-147500D01*
G01*
X18150800Y-26629400D01*
G75*
G02*
X18003300Y-26776900I-147500J0D01*
G01*
G37*
G04 #@! TD*
G04 #@! TO.C,R64*
G36*
G01*
X15755400Y-25819600D02*
X15410400Y-25819600D01*
G75*
G02*
X15262900Y-25672100I0J147500D01*
G01*
X15262900Y-25377100D01*
G75*
G02*
X15410400Y-25229600I147500J0D01*
G01*
X15755400Y-25229600D01*
G75*
G02*
X15902900Y-25377100I0J-147500D01*
G01*
X15902900Y-25672100D01*
G75*
G02*
X15755400Y-25819600I-147500J0D01*
G01*
G37*
G36*
G01*
X15755400Y-26789600D02*
X15410400Y-26789600D01*
G75*
G02*
X15262900Y-26642100I0J147500D01*
G01*
X15262900Y-26347100D01*
G75*
G02*
X15410400Y-26199600I147500J0D01*
G01*
X15755400Y-26199600D01*
G75*
G02*
X15902900Y-26347100I0J-147500D01*
G01*
X15902900Y-26642100D01*
G75*
G02*
X15755400Y-26789600I-147500J0D01*
G01*
G37*
G04 #@! TD*
G04 #@! TO.C,R63*
G36*
G01*
X17074100Y-33400500D02*
X17419100Y-33400500D01*
G75*
G02*
X17566600Y-33548000I0J-147500D01*
G01*
X17566600Y-33843000D01*
G75*
G02*
X17419100Y-33990500I-147500J0D01*
G01*
X17074100Y-33990500D01*
G75*
G02*
X16926600Y-33843000I0J147500D01*
G01*
X16926600Y-33548000D01*
G75*
G02*
X17074100Y-33400500I147500J0D01*
G01*
G37*
G36*
G01*
X17074100Y-32430500D02*
X17419100Y-32430500D01*
G75*
G02*
X17566600Y-32578000I0J-147500D01*
G01*
X17566600Y-32873000D01*
G75*
G02*
X17419100Y-33020500I-147500J0D01*
G01*
X17074100Y-33020500D01*
G75*
G02*
X16926600Y-32873000I0J147500D01*
G01*
X16926600Y-32578000D01*
G75*
G02*
X17074100Y-32430500I147500J0D01*
G01*
G37*
G04 #@! TD*
G04 #@! TO.C,R52*
G36*
G01*
X28359600Y-75544900D02*
X28359600Y-75889900D01*
G75*
G02*
X28212100Y-76037400I-147500J0D01*
G01*
X27917100Y-76037400D01*
G75*
G02*
X27769600Y-75889900I0J147500D01*
G01*
X27769600Y-75544900D01*
G75*
G02*
X27917100Y-75397400I147500J0D01*
G01*
X28212100Y-75397400D01*
G75*
G02*
X28359600Y-75544900I0J-147500D01*
G01*
G37*
G36*
G01*
X29329600Y-75544900D02*
X29329600Y-75889900D01*
G75*
G02*
X29182100Y-76037400I-147500J0D01*
G01*
X28887100Y-76037400D01*
G75*
G02*
X28739600Y-75889900I0J147500D01*
G01*
X28739600Y-75544900D01*
G75*
G02*
X28887100Y-75397400I147500J0D01*
G01*
X29182100Y-75397400D01*
G75*
G02*
X29329600Y-75544900I0J-147500D01*
G01*
G37*
G04 #@! TD*
G04 #@! TO.C,R62*
G36*
G01*
X16834900Y-25832300D02*
X16489900Y-25832300D01*
G75*
G02*
X16342400Y-25684800I0J147500D01*
G01*
X16342400Y-25389800D01*
G75*
G02*
X16489900Y-25242300I147500J0D01*
G01*
X16834900Y-25242300D01*
G75*
G02*
X16982400Y-25389800I0J-147500D01*
G01*
X16982400Y-25684800D01*
G75*
G02*
X16834900Y-25832300I-147500J0D01*
G01*
G37*
G36*
G01*
X16834900Y-26802300D02*
X16489900Y-26802300D01*
G75*
G02*
X16342400Y-26654800I0J147500D01*
G01*
X16342400Y-26359800D01*
G75*
G02*
X16489900Y-26212300I147500J0D01*
G01*
X16834900Y-26212300D01*
G75*
G02*
X16982400Y-26359800I0J-147500D01*
G01*
X16982400Y-26654800D01*
G75*
G02*
X16834900Y-26802300I-147500J0D01*
G01*
G37*
G04 #@! TD*
G04 #@! TO.C,R53*
G36*
G01*
X27469600Y-43368375D02*
X27469600Y-43023375D01*
G75*
G02*
X27617100Y-42875875I147500J0D01*
G01*
X27912100Y-42875875D01*
G75*
G02*
X28059600Y-43023375I0J-147500D01*
G01*
X28059600Y-43368375D01*
G75*
G02*
X27912100Y-43515875I-147500J0D01*
G01*
X27617100Y-43515875D01*
G75*
G02*
X27469600Y-43368375I0J147500D01*
G01*
G37*
G36*
G01*
X26499600Y-43368375D02*
X26499600Y-43023375D01*
G75*
G02*
X26647100Y-42875875I147500J0D01*
G01*
X26942100Y-42875875D01*
G75*
G02*
X27089600Y-43023375I0J-147500D01*
G01*
X27089600Y-43368375D01*
G75*
G02*
X26942100Y-43515875I-147500J0D01*
G01*
X26647100Y-43515875D01*
G75*
G02*
X26499600Y-43368375I0J147500D01*
G01*
G37*
G04 #@! TD*
G04 #@! TO.C,R47*
G36*
G01*
X27469600Y-42114250D02*
X27469600Y-41769250D01*
G75*
G02*
X27617100Y-41621750I147500J0D01*
G01*
X27912100Y-41621750D01*
G75*
G02*
X28059600Y-41769250I0J-147500D01*
G01*
X28059600Y-42114250D01*
G75*
G02*
X27912100Y-42261750I-147500J0D01*
G01*
X27617100Y-42261750D01*
G75*
G02*
X27469600Y-42114250I0J147500D01*
G01*
G37*
G36*
G01*
X26499600Y-42114250D02*
X26499600Y-41769250D01*
G75*
G02*
X26647100Y-41621750I147500J0D01*
G01*
X26942100Y-41621750D01*
G75*
G02*
X27089600Y-41769250I0J-147500D01*
G01*
X27089600Y-42114250D01*
G75*
G02*
X26942100Y-42261750I-147500J0D01*
G01*
X26647100Y-42261750D01*
G75*
G02*
X26499600Y-42114250I0J147500D01*
G01*
G37*
G04 #@! TD*
G04 #@! TO.C,R16*
G36*
G01*
X6990300Y-62407300D02*
X7335300Y-62407300D01*
G75*
G02*
X7482800Y-62554800I0J-147500D01*
G01*
X7482800Y-62849800D01*
G75*
G02*
X7335300Y-62997300I-147500J0D01*
G01*
X6990300Y-62997300D01*
G75*
G02*
X6842800Y-62849800I0J147500D01*
G01*
X6842800Y-62554800D01*
G75*
G02*
X6990300Y-62407300I147500J0D01*
G01*
G37*
G36*
G01*
X6990300Y-61437300D02*
X7335300Y-61437300D01*
G75*
G02*
X7482800Y-61584800I0J-147500D01*
G01*
X7482800Y-61879800D01*
G75*
G02*
X7335300Y-62027300I-147500J0D01*
G01*
X6990300Y-62027300D01*
G75*
G02*
X6842800Y-61879800I0J147500D01*
G01*
X6842800Y-61584800D01*
G75*
G02*
X6990300Y-61437300I147500J0D01*
G01*
G37*
G04 #@! TD*
G04 #@! TO.C,U8*
G36*
G01*
X19645300Y-70280299D02*
X19645300Y-70830301D01*
G75*
G02*
X19395301Y-71080300I-249999J0D01*
G01*
X18845299Y-71080300D01*
G75*
G02*
X18595300Y-70830301I0J249999D01*
G01*
X18595300Y-70280299D01*
G75*
G02*
X18845299Y-70030300I249999J0D01*
G01*
X19395301Y-70030300D01*
G75*
G02*
X19645300Y-70280299I0J-249999D01*
G01*
G37*
G36*
G01*
X20845300Y-70280299D02*
X20845300Y-70830301D01*
G75*
G02*
X20595301Y-71080300I-249999J0D01*
G01*
X20045299Y-71080300D01*
G75*
G02*
X19795300Y-70830301I0J249999D01*
G01*
X19795300Y-70280299D01*
G75*
G02*
X20045299Y-70030300I249999J0D01*
G01*
X20595301Y-70030300D01*
G75*
G02*
X20845300Y-70280299I0J-249999D01*
G01*
G37*
G36*
G01*
X22045300Y-70280299D02*
X22045300Y-70830301D01*
G75*
G02*
X21795301Y-71080300I-249999J0D01*
G01*
X21245299Y-71080300D01*
G75*
G02*
X20995300Y-70830301I0J249999D01*
G01*
X20995300Y-70280299D01*
G75*
G02*
X21245299Y-70030300I249999J0D01*
G01*
X21795301Y-70030300D01*
G75*
G02*
X22045300Y-70280299I0J-249999D01*
G01*
G37*
G36*
G01*
X23245300Y-70280299D02*
X23245300Y-70830301D01*
G75*
G02*
X22995301Y-71080300I-249999J0D01*
G01*
X22445299Y-71080300D01*
G75*
G02*
X22195300Y-70830301I0J249999D01*
G01*
X22195300Y-70280299D01*
G75*
G02*
X22445299Y-70030300I249999J0D01*
G01*
X22995301Y-70030300D01*
G75*
G02*
X23245300Y-70280299I0J-249999D01*
G01*
G37*
G36*
G01*
X19645300Y-71480299D02*
X19645300Y-72030301D01*
G75*
G02*
X19395301Y-72280300I-249999J0D01*
G01*
X18845299Y-72280300D01*
G75*
G02*
X18595300Y-72030301I0J249999D01*
G01*
X18595300Y-71480299D01*
G75*
G02*
X18845299Y-71230300I249999J0D01*
G01*
X19395301Y-71230300D01*
G75*
G02*
X19645300Y-71480299I0J-249999D01*
G01*
G37*
G36*
G01*
X20845300Y-71480299D02*
X20845300Y-72030301D01*
G75*
G02*
X20595301Y-72280300I-249999J0D01*
G01*
X20045299Y-72280300D01*
G75*
G02*
X19795300Y-72030301I0J249999D01*
G01*
X19795300Y-71480299D01*
G75*
G02*
X20045299Y-71230300I249999J0D01*
G01*
X20595301Y-71230300D01*
G75*
G02*
X20845300Y-71480299I0J-249999D01*
G01*
G37*
G36*
G01*
X22045300Y-71480299D02*
X22045300Y-72030301D01*
G75*
G02*
X21795301Y-72280300I-249999J0D01*
G01*
X21245299Y-72280300D01*
G75*
G02*
X20995300Y-72030301I0J249999D01*
G01*
X20995300Y-71480299D01*
G75*
G02*
X21245299Y-71230300I249999J0D01*
G01*
X21795301Y-71230300D01*
G75*
G02*
X22045300Y-71480299I0J-249999D01*
G01*
G37*
G36*
G01*
X23245300Y-71480299D02*
X23245300Y-72030301D01*
G75*
G02*
X22995301Y-72280300I-249999J0D01*
G01*
X22445299Y-72280300D01*
G75*
G02*
X22195300Y-72030301I0J249999D01*
G01*
X22195300Y-71480299D01*
G75*
G02*
X22445299Y-71230300I249999J0D01*
G01*
X22995301Y-71230300D01*
G75*
G02*
X23245300Y-71480299I0J-249999D01*
G01*
G37*
G36*
G01*
X19645300Y-72680299D02*
X19645300Y-73230301D01*
G75*
G02*
X19395301Y-73480300I-249999J0D01*
G01*
X18845299Y-73480300D01*
G75*
G02*
X18595300Y-73230301I0J249999D01*
G01*
X18595300Y-72680299D01*
G75*
G02*
X18845299Y-72430300I249999J0D01*
G01*
X19395301Y-72430300D01*
G75*
G02*
X19645300Y-72680299I0J-249999D01*
G01*
G37*
G36*
G01*
X20845300Y-72680299D02*
X20845300Y-73230301D01*
G75*
G02*
X20595301Y-73480300I-249999J0D01*
G01*
X20045299Y-73480300D01*
G75*
G02*
X19795300Y-73230301I0J249999D01*
G01*
X19795300Y-72680299D01*
G75*
G02*
X20045299Y-72430300I249999J0D01*
G01*
X20595301Y-72430300D01*
G75*
G02*
X20845300Y-72680299I0J-249999D01*
G01*
G37*
G36*
G01*
X22045300Y-72680299D02*
X22045300Y-73230301D01*
G75*
G02*
X21795301Y-73480300I-249999J0D01*
G01*
X21245299Y-73480300D01*
G75*
G02*
X20995300Y-73230301I0J249999D01*
G01*
X20995300Y-72680299D01*
G75*
G02*
X21245299Y-72430300I249999J0D01*
G01*
X21795301Y-72430300D01*
G75*
G02*
X22045300Y-72680299I0J-249999D01*
G01*
G37*
G36*
G01*
X23245300Y-72680299D02*
X23245300Y-73230301D01*
G75*
G02*
X22995301Y-73480300I-249999J0D01*
G01*
X22445299Y-73480300D01*
G75*
G02*
X22195300Y-73230301I0J249999D01*
G01*
X22195300Y-72680299D01*
G75*
G02*
X22445299Y-72430300I249999J0D01*
G01*
X22995301Y-72430300D01*
G75*
G02*
X23245300Y-72680299I0J-249999D01*
G01*
G37*
G36*
G01*
X19645300Y-73880299D02*
X19645300Y-74430301D01*
G75*
G02*
X19395301Y-74680300I-249999J0D01*
G01*
X18845299Y-74680300D01*
G75*
G02*
X18595300Y-74430301I0J249999D01*
G01*
X18595300Y-73880299D01*
G75*
G02*
X18845299Y-73630300I249999J0D01*
G01*
X19395301Y-73630300D01*
G75*
G02*
X19645300Y-73880299I0J-249999D01*
G01*
G37*
G36*
G01*
X20845300Y-73880299D02*
X20845300Y-74430301D01*
G75*
G02*
X20595301Y-74680300I-249999J0D01*
G01*
X20045299Y-74680300D01*
G75*
G02*
X19795300Y-74430301I0J249999D01*
G01*
X19795300Y-73880299D01*
G75*
G02*
X20045299Y-73630300I249999J0D01*
G01*
X20595301Y-73630300D01*
G75*
G02*
X20845300Y-73880299I0J-249999D01*
G01*
G37*
G36*
G01*
X22045300Y-73880299D02*
X22045300Y-74430301D01*
G75*
G02*
X21795301Y-74680300I-249999J0D01*
G01*
X21245299Y-74680300D01*
G75*
G02*
X20995300Y-74430301I0J249999D01*
G01*
X20995300Y-73880299D01*
G75*
G02*
X21245299Y-73630300I249999J0D01*
G01*
X21795301Y-73630300D01*
G75*
G02*
X22045300Y-73880299I0J-249999D01*
G01*
G37*
G36*
G01*
X23628800Y-75401300D02*
X23728800Y-75401300D01*
G75*
G02*
X23778800Y-75451300I0J-50000D01*
G01*
X23778800Y-76676300D01*
G75*
G02*
X23728800Y-76726300I-50000J0D01*
G01*
X23628800Y-76726300D01*
G75*
G02*
X23578800Y-76676300I0J50000D01*
G01*
X23578800Y-75451300D01*
G75*
G02*
X23628800Y-75401300I50000J0D01*
G01*
G37*
G36*
G01*
X23228800Y-75401300D02*
X23328800Y-75401300D01*
G75*
G02*
X23378800Y-75451300I0J-50000D01*
G01*
X23378800Y-76676300D01*
G75*
G02*
X23328800Y-76726300I-50000J0D01*
G01*
X23228800Y-76726300D01*
G75*
G02*
X23178800Y-76676300I0J50000D01*
G01*
X23178800Y-75451300D01*
G75*
G02*
X23228800Y-75401300I50000J0D01*
G01*
G37*
G36*
G01*
X22828800Y-75401300D02*
X22928800Y-75401300D01*
G75*
G02*
X22978800Y-75451300I0J-50000D01*
G01*
X22978800Y-76676300D01*
G75*
G02*
X22928800Y-76726300I-50000J0D01*
G01*
X22828800Y-76726300D01*
G75*
G02*
X22778800Y-76676300I0J50000D01*
G01*
X22778800Y-75451300D01*
G75*
G02*
X22828800Y-75401300I50000J0D01*
G01*
G37*
G36*
G01*
X22428800Y-75401300D02*
X22528800Y-75401300D01*
G75*
G02*
X22578800Y-75451300I0J-50000D01*
G01*
X22578800Y-76676300D01*
G75*
G02*
X22528800Y-76726300I-50000J0D01*
G01*
X22428800Y-76726300D01*
G75*
G02*
X22378800Y-76676300I0J50000D01*
G01*
X22378800Y-75451300D01*
G75*
G02*
X22428800Y-75401300I50000J0D01*
G01*
G37*
G36*
G01*
X22028800Y-75401300D02*
X22128800Y-75401300D01*
G75*
G02*
X22178800Y-75451300I0J-50000D01*
G01*
X22178800Y-76676300D01*
G75*
G02*
X22128800Y-76726300I-50000J0D01*
G01*
X22028800Y-76726300D01*
G75*
G02*
X21978800Y-76676300I0J50000D01*
G01*
X21978800Y-75451300D01*
G75*
G02*
X22028800Y-75401300I50000J0D01*
G01*
G37*
G36*
G01*
X21628800Y-75401300D02*
X21728800Y-75401300D01*
G75*
G02*
X21778800Y-75451300I0J-50000D01*
G01*
X21778800Y-76676300D01*
G75*
G02*
X21728800Y-76726300I-50000J0D01*
G01*
X21628800Y-76726300D01*
G75*
G02*
X21578800Y-76676300I0J50000D01*
G01*
X21578800Y-75451300D01*
G75*
G02*
X21628800Y-75401300I50000J0D01*
G01*
G37*
G36*
G01*
X21228800Y-75401300D02*
X21328800Y-75401300D01*
G75*
G02*
X21378800Y-75451300I0J-50000D01*
G01*
X21378800Y-76676300D01*
G75*
G02*
X21328800Y-76726300I-50000J0D01*
G01*
X21228800Y-76726300D01*
G75*
G02*
X21178800Y-76676300I0J50000D01*
G01*
X21178800Y-75451300D01*
G75*
G02*
X21228800Y-75401300I50000J0D01*
G01*
G37*
G36*
G01*
X20828800Y-75401300D02*
X20928800Y-75401300D01*
G75*
G02*
X20978800Y-75451300I0J-50000D01*
G01*
X20978800Y-76676300D01*
G75*
G02*
X20928800Y-76726300I-50000J0D01*
G01*
X20828800Y-76726300D01*
G75*
G02*
X20778800Y-76676300I0J50000D01*
G01*
X20778800Y-75451300D01*
G75*
G02*
X20828800Y-75401300I50000J0D01*
G01*
G37*
G36*
G01*
X20428800Y-75401300D02*
X20528800Y-75401300D01*
G75*
G02*
X20578800Y-75451300I0J-50000D01*
G01*
X20578800Y-76676300D01*
G75*
G02*
X20528800Y-76726300I-50000J0D01*
G01*
X20428800Y-76726300D01*
G75*
G02*
X20378800Y-76676300I0J50000D01*
G01*
X20378800Y-75451300D01*
G75*
G02*
X20428800Y-75401300I50000J0D01*
G01*
G37*
G36*
G01*
X20028800Y-75401300D02*
X20128800Y-75401300D01*
G75*
G02*
X20178800Y-75451300I0J-50000D01*
G01*
X20178800Y-76676300D01*
G75*
G02*
X20128800Y-76726300I-50000J0D01*
G01*
X20028800Y-76726300D01*
G75*
G02*
X19978800Y-76676300I0J50000D01*
G01*
X19978800Y-75451300D01*
G75*
G02*
X20028800Y-75401300I50000J0D01*
G01*
G37*
G36*
G01*
X19628800Y-75401300D02*
X19728800Y-75401300D01*
G75*
G02*
X19778800Y-75451300I0J-50000D01*
G01*
X19778800Y-76676300D01*
G75*
G02*
X19728800Y-76726300I-50000J0D01*
G01*
X19628800Y-76726300D01*
G75*
G02*
X19578800Y-76676300I0J50000D01*
G01*
X19578800Y-75451300D01*
G75*
G02*
X19628800Y-75401300I50000J0D01*
G01*
G37*
G36*
G01*
X19228800Y-75401300D02*
X19328800Y-75401300D01*
G75*
G02*
X19378800Y-75451300I0J-50000D01*
G01*
X19378800Y-76676300D01*
G75*
G02*
X19328800Y-76726300I-50000J0D01*
G01*
X19228800Y-76726300D01*
G75*
G02*
X19178800Y-76676300I0J50000D01*
G01*
X19178800Y-75451300D01*
G75*
G02*
X19228800Y-75401300I50000J0D01*
G01*
G37*
G36*
G01*
X18828800Y-75401300D02*
X18928800Y-75401300D01*
G75*
G02*
X18978800Y-75451300I0J-50000D01*
G01*
X18978800Y-76676300D01*
G75*
G02*
X18928800Y-76726300I-50000J0D01*
G01*
X18828800Y-76726300D01*
G75*
G02*
X18778800Y-76676300I0J50000D01*
G01*
X18778800Y-75451300D01*
G75*
G02*
X18828800Y-75401300I50000J0D01*
G01*
G37*
G36*
G01*
X18428800Y-75401300D02*
X18528800Y-75401300D01*
G75*
G02*
X18578800Y-75451300I0J-50000D01*
G01*
X18578800Y-76676300D01*
G75*
G02*
X18528800Y-76726300I-50000J0D01*
G01*
X18428800Y-76726300D01*
G75*
G02*
X18378800Y-76676300I0J50000D01*
G01*
X18378800Y-75451300D01*
G75*
G02*
X18428800Y-75401300I50000J0D01*
G01*
G37*
G36*
G01*
X18028800Y-67901300D02*
X18128800Y-67901300D01*
G75*
G02*
X18178800Y-67951300I0J-50000D01*
G01*
X18178800Y-69176300D01*
G75*
G02*
X18128800Y-69226300I-50000J0D01*
G01*
X18028800Y-69226300D01*
G75*
G02*
X17978800Y-69176300I0J50000D01*
G01*
X17978800Y-67951300D01*
G75*
G02*
X18028800Y-67901300I50000J0D01*
G01*
G37*
G36*
G01*
X18428800Y-67901300D02*
X18528800Y-67901300D01*
G75*
G02*
X18578800Y-67951300I0J-50000D01*
G01*
X18578800Y-69176300D01*
G75*
G02*
X18528800Y-69226300I-50000J0D01*
G01*
X18428800Y-69226300D01*
G75*
G02*
X18378800Y-69176300I0J50000D01*
G01*
X18378800Y-67951300D01*
G75*
G02*
X18428800Y-67901300I50000J0D01*
G01*
G37*
G36*
G01*
X18828800Y-67901300D02*
X18928800Y-67901300D01*
G75*
G02*
X18978800Y-67951300I0J-50000D01*
G01*
X18978800Y-69176300D01*
G75*
G02*
X18928800Y-69226300I-50000J0D01*
G01*
X18828800Y-69226300D01*
G75*
G02*
X18778800Y-69176300I0J50000D01*
G01*
X18778800Y-67951300D01*
G75*
G02*
X18828800Y-67901300I50000J0D01*
G01*
G37*
G36*
G01*
X19228800Y-67901300D02*
X19328800Y-67901300D01*
G75*
G02*
X19378800Y-67951300I0J-50000D01*
G01*
X19378800Y-69176300D01*
G75*
G02*
X19328800Y-69226300I-50000J0D01*
G01*
X19228800Y-69226300D01*
G75*
G02*
X19178800Y-69176300I0J50000D01*
G01*
X19178800Y-67951300D01*
G75*
G02*
X19228800Y-67901300I50000J0D01*
G01*
G37*
G36*
G01*
X19628800Y-67901300D02*
X19728800Y-67901300D01*
G75*
G02*
X19778800Y-67951300I0J-50000D01*
G01*
X19778800Y-69176300D01*
G75*
G02*
X19728800Y-69226300I-50000J0D01*
G01*
X19628800Y-69226300D01*
G75*
G02*
X19578800Y-69176300I0J50000D01*
G01*
X19578800Y-67951300D01*
G75*
G02*
X19628800Y-67901300I50000J0D01*
G01*
G37*
G36*
G01*
X20028800Y-67901300D02*
X20128800Y-67901300D01*
G75*
G02*
X20178800Y-67951300I0J-50000D01*
G01*
X20178800Y-69176300D01*
G75*
G02*
X20128800Y-69226300I-50000J0D01*
G01*
X20028800Y-69226300D01*
G75*
G02*
X19978800Y-69176300I0J50000D01*
G01*
X19978800Y-67951300D01*
G75*
G02*
X20028800Y-67901300I50000J0D01*
G01*
G37*
G36*
G01*
X20428800Y-67901300D02*
X20528800Y-67901300D01*
G75*
G02*
X20578800Y-67951300I0J-50000D01*
G01*
X20578800Y-69176300D01*
G75*
G02*
X20528800Y-69226300I-50000J0D01*
G01*
X20428800Y-69226300D01*
G75*
G02*
X20378800Y-69176300I0J50000D01*
G01*
X20378800Y-67951300D01*
G75*
G02*
X20428800Y-67901300I50000J0D01*
G01*
G37*
G36*
G01*
X20828800Y-67901300D02*
X20928800Y-67901300D01*
G75*
G02*
X20978800Y-67951300I0J-50000D01*
G01*
X20978800Y-69176300D01*
G75*
G02*
X20928800Y-69226300I-50000J0D01*
G01*
X20828800Y-69226300D01*
G75*
G02*
X20778800Y-69176300I0J50000D01*
G01*
X20778800Y-67951300D01*
G75*
G02*
X20828800Y-67901300I50000J0D01*
G01*
G37*
G36*
G01*
X21228800Y-67901300D02*
X21328800Y-67901300D01*
G75*
G02*
X21378800Y-67951300I0J-50000D01*
G01*
X21378800Y-69176300D01*
G75*
G02*
X21328800Y-69226300I-50000J0D01*
G01*
X21228800Y-69226300D01*
G75*
G02*
X21178800Y-69176300I0J50000D01*
G01*
X21178800Y-67951300D01*
G75*
G02*
X21228800Y-67901300I50000J0D01*
G01*
G37*
G36*
G01*
X21628800Y-67901300D02*
X21728800Y-67901300D01*
G75*
G02*
X21778800Y-67951300I0J-50000D01*
G01*
X21778800Y-69176300D01*
G75*
G02*
X21728800Y-69226300I-50000J0D01*
G01*
X21628800Y-69226300D01*
G75*
G02*
X21578800Y-69176300I0J50000D01*
G01*
X21578800Y-67951300D01*
G75*
G02*
X21628800Y-67901300I50000J0D01*
G01*
G37*
G36*
G01*
X22028800Y-67901300D02*
X22128800Y-67901300D01*
G75*
G02*
X22178800Y-67951300I0J-50000D01*
G01*
X22178800Y-69176300D01*
G75*
G02*
X22128800Y-69226300I-50000J0D01*
G01*
X22028800Y-69226300D01*
G75*
G02*
X21978800Y-69176300I0J50000D01*
G01*
X21978800Y-67951300D01*
G75*
G02*
X22028800Y-67901300I50000J0D01*
G01*
G37*
G36*
G01*
X22428800Y-67901300D02*
X22528800Y-67901300D01*
G75*
G02*
X22578800Y-67951300I0J-50000D01*
G01*
X22578800Y-69176300D01*
G75*
G02*
X22528800Y-69226300I-50000J0D01*
G01*
X22428800Y-69226300D01*
G75*
G02*
X22378800Y-69176300I0J50000D01*
G01*
X22378800Y-67951300D01*
G75*
G02*
X22428800Y-67901300I50000J0D01*
G01*
G37*
G36*
G01*
X22828800Y-67901300D02*
X22928800Y-67901300D01*
G75*
G02*
X22978800Y-67951300I0J-50000D01*
G01*
X22978800Y-69176300D01*
G75*
G02*
X22928800Y-69226300I-50000J0D01*
G01*
X22828800Y-69226300D01*
G75*
G02*
X22778800Y-69176300I0J50000D01*
G01*
X22778800Y-67951300D01*
G75*
G02*
X22828800Y-67901300I50000J0D01*
G01*
G37*
G36*
G01*
X23228800Y-67901300D02*
X23328800Y-67901300D01*
G75*
G02*
X23378800Y-67951300I0J-50000D01*
G01*
X23378800Y-69176300D01*
G75*
G02*
X23328800Y-69226300I-50000J0D01*
G01*
X23228800Y-69226300D01*
G75*
G02*
X23178800Y-69176300I0J50000D01*
G01*
X23178800Y-67951300D01*
G75*
G02*
X23228800Y-67901300I50000J0D01*
G01*
G37*
G36*
G01*
X25291300Y-69463800D02*
X25291300Y-69563800D01*
G75*
G02*
X25241300Y-69613800I-50000J0D01*
G01*
X24016300Y-69613800D01*
G75*
G02*
X23966300Y-69563800I0J50000D01*
G01*
X23966300Y-69463800D01*
G75*
G02*
X24016300Y-69413800I50000J0D01*
G01*
X25241300Y-69413800D01*
G75*
G02*
X25291300Y-69463800I0J-50000D01*
G01*
G37*
G36*
G01*
X25291300Y-69863800D02*
X25291300Y-69963800D01*
G75*
G02*
X25241300Y-70013800I-50000J0D01*
G01*
X24016300Y-70013800D01*
G75*
G02*
X23966300Y-69963800I0J50000D01*
G01*
X23966300Y-69863800D01*
G75*
G02*
X24016300Y-69813800I50000J0D01*
G01*
X25241300Y-69813800D01*
G75*
G02*
X25291300Y-69863800I0J-50000D01*
G01*
G37*
G36*
G01*
X25291300Y-70263800D02*
X25291300Y-70363800D01*
G75*
G02*
X25241300Y-70413800I-50000J0D01*
G01*
X24016300Y-70413800D01*
G75*
G02*
X23966300Y-70363800I0J50000D01*
G01*
X23966300Y-70263800D01*
G75*
G02*
X24016300Y-70213800I50000J0D01*
G01*
X25241300Y-70213800D01*
G75*
G02*
X25291300Y-70263800I0J-50000D01*
G01*
G37*
G36*
G01*
X25291300Y-70663800D02*
X25291300Y-70763800D01*
G75*
G02*
X25241300Y-70813800I-50000J0D01*
G01*
X24016300Y-70813800D01*
G75*
G02*
X23966300Y-70763800I0J50000D01*
G01*
X23966300Y-70663800D01*
G75*
G02*
X24016300Y-70613800I50000J0D01*
G01*
X25241300Y-70613800D01*
G75*
G02*
X25291300Y-70663800I0J-50000D01*
G01*
G37*
G36*
G01*
X25291300Y-71063800D02*
X25291300Y-71163800D01*
G75*
G02*
X25241300Y-71213800I-50000J0D01*
G01*
X24016300Y-71213800D01*
G75*
G02*
X23966300Y-71163800I0J50000D01*
G01*
X23966300Y-71063800D01*
G75*
G02*
X24016300Y-71013800I50000J0D01*
G01*
X25241300Y-71013800D01*
G75*
G02*
X25291300Y-71063800I0J-50000D01*
G01*
G37*
G36*
G01*
X25291300Y-71463800D02*
X25291300Y-71563800D01*
G75*
G02*
X25241300Y-71613800I-50000J0D01*
G01*
X24016300Y-71613800D01*
G75*
G02*
X23966300Y-71563800I0J50000D01*
G01*
X23966300Y-71463800D01*
G75*
G02*
X24016300Y-71413800I50000J0D01*
G01*
X25241300Y-71413800D01*
G75*
G02*
X25291300Y-71463800I0J-50000D01*
G01*
G37*
G36*
G01*
X25291300Y-71863800D02*
X25291300Y-71963800D01*
G75*
G02*
X25241300Y-72013800I-50000J0D01*
G01*
X24016300Y-72013800D01*
G75*
G02*
X23966300Y-71963800I0J50000D01*
G01*
X23966300Y-71863800D01*
G75*
G02*
X24016300Y-71813800I50000J0D01*
G01*
X25241300Y-71813800D01*
G75*
G02*
X25291300Y-71863800I0J-50000D01*
G01*
G37*
G36*
G01*
X25291300Y-72263800D02*
X25291300Y-72363800D01*
G75*
G02*
X25241300Y-72413800I-50000J0D01*
G01*
X24016300Y-72413800D01*
G75*
G02*
X23966300Y-72363800I0J50000D01*
G01*
X23966300Y-72263800D01*
G75*
G02*
X24016300Y-72213800I50000J0D01*
G01*
X25241300Y-72213800D01*
G75*
G02*
X25291300Y-72263800I0J-50000D01*
G01*
G37*
G36*
G01*
X25291300Y-72663800D02*
X25291300Y-72763800D01*
G75*
G02*
X25241300Y-72813800I-50000J0D01*
G01*
X24016300Y-72813800D01*
G75*
G02*
X23966300Y-72763800I0J50000D01*
G01*
X23966300Y-72663800D01*
G75*
G02*
X24016300Y-72613800I50000J0D01*
G01*
X25241300Y-72613800D01*
G75*
G02*
X25291300Y-72663800I0J-50000D01*
G01*
G37*
G36*
G01*
X25291300Y-73063800D02*
X25291300Y-73163800D01*
G75*
G02*
X25241300Y-73213800I-50000J0D01*
G01*
X24016300Y-73213800D01*
G75*
G02*
X23966300Y-73163800I0J50000D01*
G01*
X23966300Y-73063800D01*
G75*
G02*
X24016300Y-73013800I50000J0D01*
G01*
X25241300Y-73013800D01*
G75*
G02*
X25291300Y-73063800I0J-50000D01*
G01*
G37*
G36*
G01*
X25291300Y-73463800D02*
X25291300Y-73563800D01*
G75*
G02*
X25241300Y-73613800I-50000J0D01*
G01*
X24016300Y-73613800D01*
G75*
G02*
X23966300Y-73563800I0J50000D01*
G01*
X23966300Y-73463800D01*
G75*
G02*
X24016300Y-73413800I50000J0D01*
G01*
X25241300Y-73413800D01*
G75*
G02*
X25291300Y-73463800I0J-50000D01*
G01*
G37*
G36*
G01*
X25291300Y-73863800D02*
X25291300Y-73963800D01*
G75*
G02*
X25241300Y-74013800I-50000J0D01*
G01*
X24016300Y-74013800D01*
G75*
G02*
X23966300Y-73963800I0J50000D01*
G01*
X23966300Y-73863800D01*
G75*
G02*
X24016300Y-73813800I50000J0D01*
G01*
X25241300Y-73813800D01*
G75*
G02*
X25291300Y-73863800I0J-50000D01*
G01*
G37*
G36*
G01*
X25291300Y-74263800D02*
X25291300Y-74363800D01*
G75*
G02*
X25241300Y-74413800I-50000J0D01*
G01*
X24016300Y-74413800D01*
G75*
G02*
X23966300Y-74363800I0J50000D01*
G01*
X23966300Y-74263800D01*
G75*
G02*
X24016300Y-74213800I50000J0D01*
G01*
X25241300Y-74213800D01*
G75*
G02*
X25291300Y-74263800I0J-50000D01*
G01*
G37*
G36*
G01*
X25291300Y-74663800D02*
X25291300Y-74763800D01*
G75*
G02*
X25241300Y-74813800I-50000J0D01*
G01*
X24016300Y-74813800D01*
G75*
G02*
X23966300Y-74763800I0J50000D01*
G01*
X23966300Y-74663800D01*
G75*
G02*
X24016300Y-74613800I50000J0D01*
G01*
X25241300Y-74613800D01*
G75*
G02*
X25291300Y-74663800I0J-50000D01*
G01*
G37*
G36*
G01*
X16516300Y-75013800D02*
X17741300Y-75013800D01*
G75*
G02*
X17791300Y-75063800I0J-50000D01*
G01*
X17791300Y-75163800D01*
G75*
G02*
X17741300Y-75213800I-50000J0D01*
G01*
X16516300Y-75213800D01*
G75*
G02*
X16466300Y-75163800I0J50000D01*
G01*
X16466300Y-75063800D01*
G75*
G02*
X16516300Y-75013800I50000J0D01*
G01*
G37*
G36*
G01*
X16516300Y-74613800D02*
X17741300Y-74613800D01*
G75*
G02*
X17791300Y-74663800I0J-50000D01*
G01*
X17791300Y-74763800D01*
G75*
G02*
X17741300Y-74813800I-50000J0D01*
G01*
X16516300Y-74813800D01*
G75*
G02*
X16466300Y-74763800I0J50000D01*
G01*
X16466300Y-74663800D01*
G75*
G02*
X16516300Y-74613800I50000J0D01*
G01*
G37*
G36*
G01*
X16516300Y-74213800D02*
X17741300Y-74213800D01*
G75*
G02*
X17791300Y-74263800I0J-50000D01*
G01*
X17791300Y-74363800D01*
G75*
G02*
X17741300Y-74413800I-50000J0D01*
G01*
X16516300Y-74413800D01*
G75*
G02*
X16466300Y-74363800I0J50000D01*
G01*
X16466300Y-74263800D01*
G75*
G02*
X16516300Y-74213800I50000J0D01*
G01*
G37*
G36*
G01*
X16516300Y-73813800D02*
X17741300Y-73813800D01*
G75*
G02*
X17791300Y-73863800I0J-50000D01*
G01*
X17791300Y-73963800D01*
G75*
G02*
X17741300Y-74013800I-50000J0D01*
G01*
X16516300Y-74013800D01*
G75*
G02*
X16466300Y-73963800I0J50000D01*
G01*
X16466300Y-73863800D01*
G75*
G02*
X16516300Y-73813800I50000J0D01*
G01*
G37*
G36*
G01*
X16516300Y-73413800D02*
X17741300Y-73413800D01*
G75*
G02*
X17791300Y-73463800I0J-50000D01*
G01*
X17791300Y-73563800D01*
G75*
G02*
X17741300Y-73613800I-50000J0D01*
G01*
X16516300Y-73613800D01*
G75*
G02*
X16466300Y-73563800I0J50000D01*
G01*
X16466300Y-73463800D01*
G75*
G02*
X16516300Y-73413800I50000J0D01*
G01*
G37*
G36*
G01*
X16516300Y-73013800D02*
X17741300Y-73013800D01*
G75*
G02*
X17791300Y-73063800I0J-50000D01*
G01*
X17791300Y-73163800D01*
G75*
G02*
X17741300Y-73213800I-50000J0D01*
G01*
X16516300Y-73213800D01*
G75*
G02*
X16466300Y-73163800I0J50000D01*
G01*
X16466300Y-73063800D01*
G75*
G02*
X16516300Y-73013800I50000J0D01*
G01*
G37*
G36*
G01*
X16516300Y-72613800D02*
X17741300Y-72613800D01*
G75*
G02*
X17791300Y-72663800I0J-50000D01*
G01*
X17791300Y-72763800D01*
G75*
G02*
X17741300Y-72813800I-50000J0D01*
G01*
X16516300Y-72813800D01*
G75*
G02*
X16466300Y-72763800I0J50000D01*
G01*
X16466300Y-72663800D01*
G75*
G02*
X16516300Y-72613800I50000J0D01*
G01*
G37*
G36*
G01*
X16516300Y-72213800D02*
X17741300Y-72213800D01*
G75*
G02*
X17791300Y-72263800I0J-50000D01*
G01*
X17791300Y-72363800D01*
G75*
G02*
X17741300Y-72413800I-50000J0D01*
G01*
X16516300Y-72413800D01*
G75*
G02*
X16466300Y-72363800I0J50000D01*
G01*
X16466300Y-72263800D01*
G75*
G02*
X16516300Y-72213800I50000J0D01*
G01*
G37*
G36*
G01*
X16516300Y-71813800D02*
X17741300Y-71813800D01*
G75*
G02*
X17791300Y-71863800I0J-50000D01*
G01*
X17791300Y-71963800D01*
G75*
G02*
X17741300Y-72013800I-50000J0D01*
G01*
X16516300Y-72013800D01*
G75*
G02*
X16466300Y-71963800I0J50000D01*
G01*
X16466300Y-71863800D01*
G75*
G02*
X16516300Y-71813800I50000J0D01*
G01*
G37*
G36*
G01*
X16516300Y-71413800D02*
X17741300Y-71413800D01*
G75*
G02*
X17791300Y-71463800I0J-50000D01*
G01*
X17791300Y-71563800D01*
G75*
G02*
X17741300Y-71613800I-50000J0D01*
G01*
X16516300Y-71613800D01*
G75*
G02*
X16466300Y-71563800I0J50000D01*
G01*
X16466300Y-71463800D01*
G75*
G02*
X16516300Y-71413800I50000J0D01*
G01*
G37*
G36*
G01*
X16516300Y-71013800D02*
X17741300Y-71013800D01*
G75*
G02*
X17791300Y-71063800I0J-50000D01*
G01*
X17791300Y-71163800D01*
G75*
G02*
X17741300Y-71213800I-50000J0D01*
G01*
X16516300Y-71213800D01*
G75*
G02*
X16466300Y-71163800I0J50000D01*
G01*
X16466300Y-71063800D01*
G75*
G02*
X16516300Y-71013800I50000J0D01*
G01*
G37*
G36*
G01*
X16516300Y-70613800D02*
X17741300Y-70613800D01*
G75*
G02*
X17791300Y-70663800I0J-50000D01*
G01*
X17791300Y-70763800D01*
G75*
G02*
X17741300Y-70813800I-50000J0D01*
G01*
X16516300Y-70813800D01*
G75*
G02*
X16466300Y-70763800I0J50000D01*
G01*
X16466300Y-70663800D01*
G75*
G02*
X16516300Y-70613800I50000J0D01*
G01*
G37*
G36*
G01*
X16516300Y-70213800D02*
X17741300Y-70213800D01*
G75*
G02*
X17791300Y-70263800I0J-50000D01*
G01*
X17791300Y-70363800D01*
G75*
G02*
X17741300Y-70413800I-50000J0D01*
G01*
X16516300Y-70413800D01*
G75*
G02*
X16466300Y-70363800I0J50000D01*
G01*
X16466300Y-70263800D01*
G75*
G02*
X16516300Y-70213800I50000J0D01*
G01*
G37*
G36*
G01*
X16516300Y-69813800D02*
X17741300Y-69813800D01*
G75*
G02*
X17791300Y-69863800I0J-50000D01*
G01*
X17791300Y-69963800D01*
G75*
G02*
X17741300Y-70013800I-50000J0D01*
G01*
X16516300Y-70013800D01*
G75*
G02*
X16466300Y-69963800I0J50000D01*
G01*
X16466300Y-69863800D01*
G75*
G02*
X16516300Y-69813800I50000J0D01*
G01*
G37*
G36*
G01*
X23245300Y-73880299D02*
X23245300Y-74430301D01*
G75*
G02*
X22995301Y-74680300I-249999J0D01*
G01*
X22445299Y-74680300D01*
G75*
G02*
X22195300Y-74430301I0J249999D01*
G01*
X22195300Y-73880299D01*
G75*
G02*
X22445299Y-73630300I249999J0D01*
G01*
X22995301Y-73630300D01*
G75*
G02*
X23245300Y-73880299I0J-249999D01*
G01*
G37*
G36*
G01*
X18028800Y-75401300D02*
X18128800Y-75401300D01*
G75*
G02*
X18178800Y-75451300I0J-50000D01*
G01*
X18178800Y-76676300D01*
G75*
G02*
X18128800Y-76726300I-50000J0D01*
G01*
X18028800Y-76726300D01*
G75*
G02*
X17978800Y-76676300I0J50000D01*
G01*
X17978800Y-75451300D01*
G75*
G02*
X18028800Y-75401300I50000J0D01*
G01*
G37*
G36*
G01*
X16466300Y-75163800D02*
X16466300Y-75063800D01*
G75*
G02*
X16516300Y-75013800I50000J0D01*
G01*
X17741300Y-75013800D01*
G75*
G02*
X17791300Y-75063800I0J-50000D01*
G01*
X17791300Y-75163800D01*
G75*
G02*
X17741300Y-75213800I-50000J0D01*
G01*
X16516300Y-75213800D01*
G75*
G02*
X16466300Y-75163800I0J50000D01*
G01*
G37*
G36*
G01*
X16516300Y-69413800D02*
X17741300Y-69413800D01*
G75*
G02*
X17791300Y-69463800I0J-50000D01*
G01*
X17791300Y-69563800D01*
G75*
G02*
X17741300Y-69613800I-50000J0D01*
G01*
X16516300Y-69613800D01*
G75*
G02*
X16466300Y-69563800I0J50000D01*
G01*
X16466300Y-69463800D01*
G75*
G02*
X16516300Y-69413800I50000J0D01*
G01*
G37*
G36*
G01*
X23628800Y-67901300D02*
X23728800Y-67901300D01*
G75*
G02*
X23778800Y-67951300I0J-50000D01*
G01*
X23778800Y-69176300D01*
G75*
G02*
X23728800Y-69226300I-50000J0D01*
G01*
X23628800Y-69226300D01*
G75*
G02*
X23578800Y-69176300I0J50000D01*
G01*
X23578800Y-67951300D01*
G75*
G02*
X23628800Y-67901300I50000J0D01*
G01*
G37*
G36*
G01*
X25291300Y-75063800D02*
X25291300Y-75163800D01*
G75*
G02*
X25241300Y-75213800I-50000J0D01*
G01*
X24016300Y-75213800D01*
G75*
G02*
X23966300Y-75163800I0J50000D01*
G01*
X23966300Y-75063800D01*
G75*
G02*
X24016300Y-75013800I50000J0D01*
G01*
X25241300Y-75013800D01*
G75*
G02*
X25291300Y-75063800I0J-50000D01*
G01*
G37*
G04 #@! TD*
G04 #@! TO.C,R51*
G36*
G01*
X48269940Y-21796240D02*
X47924940Y-21796240D01*
G75*
G02*
X47777440Y-21648740I0J147500D01*
G01*
X47777440Y-21353740D01*
G75*
G02*
X47924940Y-21206240I147500J0D01*
G01*
X48269940Y-21206240D01*
G75*
G02*
X48417440Y-21353740I0J-147500D01*
G01*
X48417440Y-21648740D01*
G75*
G02*
X48269940Y-21796240I-147500J0D01*
G01*
G37*
G36*
G01*
X48269940Y-22766240D02*
X47924940Y-22766240D01*
G75*
G02*
X47777440Y-22618740I0J147500D01*
G01*
X47777440Y-22323740D01*
G75*
G02*
X47924940Y-22176240I147500J0D01*
G01*
X48269940Y-22176240D01*
G75*
G02*
X48417440Y-22323740I0J-147500D01*
G01*
X48417440Y-22618740D01*
G75*
G02*
X48269940Y-22766240I-147500J0D01*
G01*
G37*
G04 #@! TD*
G04 #@! TO.C,C66*
G36*
G01*
X46351639Y-19070080D02*
X47201641Y-19070080D01*
G75*
G02*
X47451640Y-19320079I0J-249999D01*
G01*
X47451640Y-20220081D01*
G75*
G02*
X47201641Y-20470080I-249999J0D01*
G01*
X46351639Y-20470080D01*
G75*
G02*
X46101640Y-20220081I0J249999D01*
G01*
X46101640Y-19320079D01*
G75*
G02*
X46351639Y-19070080I249999J0D01*
G01*
G37*
G36*
G01*
X46351639Y-16370080D02*
X47201641Y-16370080D01*
G75*
G02*
X47451640Y-16620079I0J-249999D01*
G01*
X47451640Y-17520081D01*
G75*
G02*
X47201641Y-17770080I-249999J0D01*
G01*
X46351639Y-17770080D01*
G75*
G02*
X46101640Y-17520081I0J249999D01*
G01*
X46101640Y-16620079D01*
G75*
G02*
X46351639Y-16370080I249999J0D01*
G01*
G37*
G04 #@! TD*
D16*
G04 #@! TO.C,U4*
X33337100Y-28751500D03*
X33337100Y-33351500D03*
X33337100Y-31051500D03*
D17*
X39637100Y-31051500D03*
G04 #@! TD*
G04 #@! TO.C,R42*
G36*
G01*
X14155920Y-63678020D02*
X14155920Y-64023020D01*
G75*
G02*
X14008420Y-64170520I-147500J0D01*
G01*
X13713420Y-64170520D01*
G75*
G02*
X13565920Y-64023020I0J147500D01*
G01*
X13565920Y-63678020D01*
G75*
G02*
X13713420Y-63530520I147500J0D01*
G01*
X14008420Y-63530520D01*
G75*
G02*
X14155920Y-63678020I0J-147500D01*
G01*
G37*
G36*
G01*
X15125920Y-63678020D02*
X15125920Y-64023020D01*
G75*
G02*
X14978420Y-64170520I-147500J0D01*
G01*
X14683420Y-64170520D01*
G75*
G02*
X14535920Y-64023020I0J147500D01*
G01*
X14535920Y-63678020D01*
G75*
G02*
X14683420Y-63530520I147500J0D01*
G01*
X14978420Y-63530520D01*
G75*
G02*
X15125920Y-63678020I0J-147500D01*
G01*
G37*
G04 #@! TD*
G04 #@! TO.C,R22*
G36*
G01*
X25674100Y-53449580D02*
X25329100Y-53449580D01*
G75*
G02*
X25181600Y-53302080I0J147500D01*
G01*
X25181600Y-53007080D01*
G75*
G02*
X25329100Y-52859580I147500J0D01*
G01*
X25674100Y-52859580D01*
G75*
G02*
X25821600Y-53007080I0J-147500D01*
G01*
X25821600Y-53302080D01*
G75*
G02*
X25674100Y-53449580I-147500J0D01*
G01*
G37*
G36*
G01*
X25674100Y-54419580D02*
X25329100Y-54419580D01*
G75*
G02*
X25181600Y-54272080I0J147500D01*
G01*
X25181600Y-53977080D01*
G75*
G02*
X25329100Y-53829580I147500J0D01*
G01*
X25674100Y-53829580D01*
G75*
G02*
X25821600Y-53977080I0J-147500D01*
G01*
X25821600Y-54272080D01*
G75*
G02*
X25674100Y-54419580I-147500J0D01*
G01*
G37*
G04 #@! TD*
G04 #@! TO.C,R21*
G36*
G01*
X40665900Y-53840600D02*
X40665900Y-54185600D01*
G75*
G02*
X40518400Y-54333100I-147500J0D01*
G01*
X40223400Y-54333100D01*
G75*
G02*
X40075900Y-54185600I0J147500D01*
G01*
X40075900Y-53840600D01*
G75*
G02*
X40223400Y-53693100I147500J0D01*
G01*
X40518400Y-53693100D01*
G75*
G02*
X40665900Y-53840600I0J-147500D01*
G01*
G37*
G36*
G01*
X41635900Y-53840600D02*
X41635900Y-54185600D01*
G75*
G02*
X41488400Y-54333100I-147500J0D01*
G01*
X41193400Y-54333100D01*
G75*
G02*
X41045900Y-54185600I0J147500D01*
G01*
X41045900Y-53840600D01*
G75*
G02*
X41193400Y-53693100I147500J0D01*
G01*
X41488400Y-53693100D01*
G75*
G02*
X41635900Y-53840600I0J-147500D01*
G01*
G37*
G04 #@! TD*
G04 #@! TO.C,R17*
G36*
G01*
X18275800Y-37559200D02*
X18275800Y-37904200D01*
G75*
G02*
X18128300Y-38051700I-147500J0D01*
G01*
X17833300Y-38051700D01*
G75*
G02*
X17685800Y-37904200I0J147500D01*
G01*
X17685800Y-37559200D01*
G75*
G02*
X17833300Y-37411700I147500J0D01*
G01*
X18128300Y-37411700D01*
G75*
G02*
X18275800Y-37559200I0J-147500D01*
G01*
G37*
G36*
G01*
X19245800Y-37559200D02*
X19245800Y-37904200D01*
G75*
G02*
X19098300Y-38051700I-147500J0D01*
G01*
X18803300Y-38051700D01*
G75*
G02*
X18655800Y-37904200I0J147500D01*
G01*
X18655800Y-37559200D01*
G75*
G02*
X18803300Y-37411700I147500J0D01*
G01*
X19098300Y-37411700D01*
G75*
G02*
X19245800Y-37559200I0J-147500D01*
G01*
G37*
G04 #@! TD*
G04 #@! TO.C,R11*
G36*
G01*
X18655800Y-36862800D02*
X18655800Y-36517800D01*
G75*
G02*
X18803300Y-36370300I147500J0D01*
G01*
X19098300Y-36370300D01*
G75*
G02*
X19245800Y-36517800I0J-147500D01*
G01*
X19245800Y-36862800D01*
G75*
G02*
X19098300Y-37010300I-147500J0D01*
G01*
X18803300Y-37010300D01*
G75*
G02*
X18655800Y-36862800I0J147500D01*
G01*
G37*
G36*
G01*
X17685800Y-36862800D02*
X17685800Y-36517800D01*
G75*
G02*
X17833300Y-36370300I147500J0D01*
G01*
X18128300Y-36370300D01*
G75*
G02*
X18275800Y-36517800I0J-147500D01*
G01*
X18275800Y-36862800D01*
G75*
G02*
X18128300Y-37010300I-147500J0D01*
G01*
X17833300Y-37010300D01*
G75*
G02*
X17685800Y-36862800I0J147500D01*
G01*
G37*
G04 #@! TD*
D18*
G04 #@! TO.C,U3*
X56218700Y-77214100D03*
D19*
X59168702Y-72714099D03*
X59168702Y-73214098D03*
X59168702Y-73714099D03*
X59168702Y-74214098D03*
X59168702Y-74714100D03*
X59168702Y-75214099D03*
X59168702Y-75714098D03*
X59168702Y-76214099D03*
X59168702Y-76714098D03*
X59168702Y-77214100D03*
X59168702Y-77714099D03*
X59168702Y-78214098D03*
X59168702Y-78714100D03*
X59168702Y-79214099D03*
X59168702Y-79714100D03*
X59168702Y-80214099D03*
X59168702Y-80714098D03*
X59168702Y-81214100D03*
X59168702Y-81714099D03*
X53268701Y-81714099D03*
X53268701Y-81214100D03*
X53268701Y-80714098D03*
X53268701Y-80214099D03*
X53268701Y-79714100D03*
X53268701Y-79214099D03*
X53268701Y-78714100D03*
X53268701Y-78214098D03*
X53268701Y-77714099D03*
X53268701Y-77214100D03*
X53268701Y-76714098D03*
X53268701Y-76214099D03*
X53268701Y-75714098D03*
X53268701Y-75214099D03*
X53268701Y-74714100D03*
X53268701Y-74214098D03*
X53268701Y-73714099D03*
X53268701Y-73214098D03*
X53268701Y-72714099D03*
G04 #@! TD*
D20*
G04 #@! TO.C,L1*
X30800000Y-20150000D03*
X41300000Y-20150000D03*
G04 #@! TD*
G04 #@! TO.C,C65*
G36*
G01*
X46037000Y-83700400D02*
X46037000Y-83355400D01*
G75*
G02*
X46184500Y-83207900I147500J0D01*
G01*
X46479500Y-83207900D01*
G75*
G02*
X46627000Y-83355400I0J-147500D01*
G01*
X46627000Y-83700400D01*
G75*
G02*
X46479500Y-83847900I-147500J0D01*
G01*
X46184500Y-83847900D01*
G75*
G02*
X46037000Y-83700400I0J147500D01*
G01*
G37*
G36*
G01*
X45067000Y-83700400D02*
X45067000Y-83355400D01*
G75*
G02*
X45214500Y-83207900I147500J0D01*
G01*
X45509500Y-83207900D01*
G75*
G02*
X45657000Y-83355400I0J-147500D01*
G01*
X45657000Y-83700400D01*
G75*
G02*
X45509500Y-83847900I-147500J0D01*
G01*
X45214500Y-83847900D01*
G75*
G02*
X45067000Y-83700400I0J147500D01*
G01*
G37*
G04 #@! TD*
G04 #@! TO.C,C9*
G36*
G01*
X46062400Y-82458340D02*
X46062400Y-82113340D01*
G75*
G02*
X46209900Y-81965840I147500J0D01*
G01*
X46504900Y-81965840D01*
G75*
G02*
X46652400Y-82113340I0J-147500D01*
G01*
X46652400Y-82458340D01*
G75*
G02*
X46504900Y-82605840I-147500J0D01*
G01*
X46209900Y-82605840D01*
G75*
G02*
X46062400Y-82458340I0J147500D01*
G01*
G37*
G36*
G01*
X45092400Y-82458340D02*
X45092400Y-82113340D01*
G75*
G02*
X45239900Y-81965840I147500J0D01*
G01*
X45534900Y-81965840D01*
G75*
G02*
X45682400Y-82113340I0J-147500D01*
G01*
X45682400Y-82458340D01*
G75*
G02*
X45534900Y-82605840I-147500J0D01*
G01*
X45239900Y-82605840D01*
G75*
G02*
X45092400Y-82458340I0J147500D01*
G01*
G37*
G04 #@! TD*
D21*
G04 #@! TO.C,U2*
G36*
X41670112Y-71270180D02*
G01*
X42059020Y-71659088D01*
X41846888Y-71871220D01*
X41457980Y-71482312D01*
X41670112Y-71270180D01*
G37*
D22*
X41458500Y-71470700D03*
X41858500Y-71870700D03*
D23*
X36858500Y-71670700D03*
X38458500Y-71670700D03*
X40058500Y-71670700D03*
D22*
X41458500Y-71870700D03*
D23*
X36858500Y-73270700D03*
X38458500Y-73270700D03*
X40058500Y-73270700D03*
X41658500Y-73270700D03*
X36858500Y-74870700D03*
X38458500Y-74870700D03*
X40058500Y-74870700D03*
X41658500Y-74870700D03*
X36858500Y-76470700D03*
X38458500Y-76470700D03*
X40058500Y-76470700D03*
X41658500Y-76470700D03*
X36858500Y-78070700D03*
X38458500Y-78070700D03*
X40058500Y-78070700D03*
X41658500Y-78070700D03*
X36858500Y-79670700D03*
X38458500Y-79670700D03*
X40058500Y-79670700D03*
X41658500Y-79670700D03*
X36858500Y-81270700D03*
X38458500Y-81270700D03*
X40058500Y-81270700D03*
X41658500Y-81270700D03*
X36858500Y-82870700D03*
X38458500Y-82870700D03*
X40058500Y-82870700D03*
X41658500Y-82870700D03*
D24*
X43658500Y-71270700D03*
X43658500Y-71770700D03*
X43658500Y-72270700D03*
X43658500Y-72770700D03*
X43658500Y-73270700D03*
X43658500Y-73770700D03*
X43658500Y-74270700D03*
X43658500Y-74770700D03*
X43658500Y-75270700D03*
X43658500Y-75770700D03*
X43658500Y-76270700D03*
X43658500Y-76770700D03*
X43658500Y-77270700D03*
X43658500Y-77770700D03*
X43658500Y-78270700D03*
X43658500Y-78770700D03*
X43658500Y-79270700D03*
X43658500Y-79770700D03*
X43658500Y-80270700D03*
X43658500Y-80770700D03*
X43658500Y-81270700D03*
X43658500Y-81770700D03*
X43658500Y-82270700D03*
X43658500Y-82770700D03*
X43658500Y-83270700D03*
D25*
X43758500Y-84170700D03*
X43258500Y-84170700D03*
X42758500Y-84170700D03*
X42258500Y-84170700D03*
X41758500Y-84170700D03*
X41258500Y-84170700D03*
X40758500Y-84170700D03*
X40258500Y-84170700D03*
X39758500Y-84170700D03*
X39258500Y-84170700D03*
X38758500Y-84170700D03*
X38258500Y-84170700D03*
X37758500Y-84170700D03*
X37258500Y-84170700D03*
X36758500Y-84170700D03*
X36258500Y-84170700D03*
X35758500Y-84170700D03*
X35258500Y-84170700D03*
X34758500Y-70370700D03*
X35258500Y-70370700D03*
X35758500Y-70370700D03*
X36258500Y-70370700D03*
X36758500Y-70370700D03*
X37258500Y-70370700D03*
X37758500Y-70370700D03*
X38258500Y-70370700D03*
X38758500Y-70370700D03*
X39258500Y-70370700D03*
X39758500Y-70370700D03*
X40258500Y-70370700D03*
X40758500Y-70370700D03*
X41258500Y-70370700D03*
X41758500Y-70370700D03*
X42258500Y-70370700D03*
X42758500Y-70370700D03*
X43258500Y-70370700D03*
X34758500Y-84170700D03*
D24*
X34858500Y-83270700D03*
X34858500Y-82770700D03*
X34858500Y-82270700D03*
X34858500Y-81770700D03*
X34858500Y-81270700D03*
X34858500Y-80770700D03*
X34858500Y-80270700D03*
X34858500Y-79770700D03*
X34858500Y-79270700D03*
X34858500Y-78770700D03*
X34858500Y-78270700D03*
X34858500Y-77770700D03*
X34858500Y-77270700D03*
X34858500Y-76770700D03*
X34858500Y-76270700D03*
X34858500Y-75770700D03*
X34858500Y-75270700D03*
X34858500Y-74770700D03*
X34858500Y-74270700D03*
X34858500Y-73770700D03*
X34858500Y-73270700D03*
X34858500Y-72770700D03*
X34858500Y-72270700D03*
X34858500Y-71770700D03*
X34858500Y-71270700D03*
D25*
X43758500Y-70370700D03*
G04 #@! TD*
G04 #@! TO.C,R10*
G36*
G01*
X45950850Y-74478400D02*
X45438350Y-74478400D01*
G75*
G02*
X45219600Y-74259650I0J218750D01*
G01*
X45219600Y-73822150D01*
G75*
G02*
X45438350Y-73603400I218750J0D01*
G01*
X45950850Y-73603400D01*
G75*
G02*
X46169600Y-73822150I0J-218750D01*
G01*
X46169600Y-74259650D01*
G75*
G02*
X45950850Y-74478400I-218750J0D01*
G01*
G37*
G36*
G01*
X45950850Y-76053400D02*
X45438350Y-76053400D01*
G75*
G02*
X45219600Y-75834650I0J218750D01*
G01*
X45219600Y-75397150D01*
G75*
G02*
X45438350Y-75178400I218750J0D01*
G01*
X45950850Y-75178400D01*
G75*
G02*
X46169600Y-75397150I0J-218750D01*
G01*
X46169600Y-75834650D01*
G75*
G02*
X45950850Y-76053400I-218750J0D01*
G01*
G37*
G04 #@! TD*
G04 #@! TO.C,C2*
G36*
G01*
X45740100Y-70066400D02*
X45395100Y-70066400D01*
G75*
G02*
X45247600Y-69918900I0J147500D01*
G01*
X45247600Y-69623900D01*
G75*
G02*
X45395100Y-69476400I147500J0D01*
G01*
X45740100Y-69476400D01*
G75*
G02*
X45887600Y-69623900I0J-147500D01*
G01*
X45887600Y-69918900D01*
G75*
G02*
X45740100Y-70066400I-147500J0D01*
G01*
G37*
G36*
G01*
X45740100Y-71036400D02*
X45395100Y-71036400D01*
G75*
G02*
X45247600Y-70888900I0J147500D01*
G01*
X45247600Y-70593900D01*
G75*
G02*
X45395100Y-70446400I147500J0D01*
G01*
X45740100Y-70446400D01*
G75*
G02*
X45887600Y-70593900I0J-147500D01*
G01*
X45887600Y-70888900D01*
G75*
G02*
X45740100Y-71036400I-147500J0D01*
G01*
G37*
G04 #@! TD*
G04 #@! TO.C,R7*
G36*
G01*
X48435550Y-82303100D02*
X48948050Y-82303100D01*
G75*
G02*
X49166800Y-82521850I0J-218750D01*
G01*
X49166800Y-82959350D01*
G75*
G02*
X48948050Y-83178100I-218750J0D01*
G01*
X48435550Y-83178100D01*
G75*
G02*
X48216800Y-82959350I0J218750D01*
G01*
X48216800Y-82521850D01*
G75*
G02*
X48435550Y-82303100I218750J0D01*
G01*
G37*
G36*
G01*
X48435550Y-80728100D02*
X48948050Y-80728100D01*
G75*
G02*
X49166800Y-80946850I0J-218750D01*
G01*
X49166800Y-81384350D01*
G75*
G02*
X48948050Y-81603100I-218750J0D01*
G01*
X48435550Y-81603100D01*
G75*
G02*
X48216800Y-81384350I0J218750D01*
G01*
X48216800Y-80946850D01*
G75*
G02*
X48435550Y-80728100I218750J0D01*
G01*
G37*
G04 #@! TD*
G04 #@! TO.C,R6*
G36*
G01*
X51146200Y-77404100D02*
X51491200Y-77404100D01*
G75*
G02*
X51638700Y-77551600I0J-147500D01*
G01*
X51638700Y-77846600D01*
G75*
G02*
X51491200Y-77994100I-147500J0D01*
G01*
X51146200Y-77994100D01*
G75*
G02*
X50998700Y-77846600I0J147500D01*
G01*
X50998700Y-77551600D01*
G75*
G02*
X51146200Y-77404100I147500J0D01*
G01*
G37*
G36*
G01*
X51146200Y-76434100D02*
X51491200Y-76434100D01*
G75*
G02*
X51638700Y-76581600I0J-147500D01*
G01*
X51638700Y-76876600D01*
G75*
G02*
X51491200Y-77024100I-147500J0D01*
G01*
X51146200Y-77024100D01*
G75*
G02*
X50998700Y-76876600I0J147500D01*
G01*
X50998700Y-76581600D01*
G75*
G02*
X51146200Y-76434100I147500J0D01*
G01*
G37*
G04 #@! TD*
G04 #@! TO.C,C62*
G36*
G01*
X61200800Y-70797200D02*
X61200800Y-70452200D01*
G75*
G02*
X61348300Y-70304700I147500J0D01*
G01*
X61643300Y-70304700D01*
G75*
G02*
X61790800Y-70452200I0J-147500D01*
G01*
X61790800Y-70797200D01*
G75*
G02*
X61643300Y-70944700I-147500J0D01*
G01*
X61348300Y-70944700D01*
G75*
G02*
X61200800Y-70797200I0J147500D01*
G01*
G37*
G36*
G01*
X60230800Y-70797200D02*
X60230800Y-70452200D01*
G75*
G02*
X60378300Y-70304700I147500J0D01*
G01*
X60673300Y-70304700D01*
G75*
G02*
X60820800Y-70452200I0J-147500D01*
G01*
X60820800Y-70797200D01*
G75*
G02*
X60673300Y-70944700I-147500J0D01*
G01*
X60378300Y-70944700D01*
G75*
G02*
X60230800Y-70797200I0J147500D01*
G01*
G37*
G04 #@! TD*
G04 #@! TO.C,C39*
G36*
G01*
X56579000Y-70985600D02*
X56579000Y-71330600D01*
G75*
G02*
X56431500Y-71478100I-147500J0D01*
G01*
X56136500Y-71478100D01*
G75*
G02*
X55989000Y-71330600I0J147500D01*
G01*
X55989000Y-70985600D01*
G75*
G02*
X56136500Y-70838100I147500J0D01*
G01*
X56431500Y-70838100D01*
G75*
G02*
X56579000Y-70985600I0J-147500D01*
G01*
G37*
G36*
G01*
X57549000Y-70985600D02*
X57549000Y-71330600D01*
G75*
G02*
X57401500Y-71478100I-147500J0D01*
G01*
X57106500Y-71478100D01*
G75*
G02*
X56959000Y-71330600I0J147500D01*
G01*
X56959000Y-70985600D01*
G75*
G02*
X57106500Y-70838100I147500J0D01*
G01*
X57401500Y-70838100D01*
G75*
G02*
X57549000Y-70985600I0J-147500D01*
G01*
G37*
G04 #@! TD*
G04 #@! TO.C,C38*
G36*
G01*
X58318900Y-62794100D02*
X58318900Y-63139100D01*
G75*
G02*
X58171400Y-63286600I-147500J0D01*
G01*
X57876400Y-63286600D01*
G75*
G02*
X57728900Y-63139100I0J147500D01*
G01*
X57728900Y-62794100D01*
G75*
G02*
X57876400Y-62646600I147500J0D01*
G01*
X58171400Y-62646600D01*
G75*
G02*
X58318900Y-62794100I0J-147500D01*
G01*
G37*
G36*
G01*
X59288900Y-62794100D02*
X59288900Y-63139100D01*
G75*
G02*
X59141400Y-63286600I-147500J0D01*
G01*
X58846400Y-63286600D01*
G75*
G02*
X58698900Y-63139100I0J147500D01*
G01*
X58698900Y-62794100D01*
G75*
G02*
X58846400Y-62646600I147500J0D01*
G01*
X59141400Y-62646600D01*
G75*
G02*
X59288900Y-62794100I0J-147500D01*
G01*
G37*
G04 #@! TD*
G04 #@! TO.C,C27*
G36*
G01*
X57041280Y-54452740D02*
X57041280Y-54797740D01*
G75*
G02*
X56893780Y-54945240I-147500J0D01*
G01*
X56598780Y-54945240D01*
G75*
G02*
X56451280Y-54797740I0J147500D01*
G01*
X56451280Y-54452740D01*
G75*
G02*
X56598780Y-54305240I147500J0D01*
G01*
X56893780Y-54305240D01*
G75*
G02*
X57041280Y-54452740I0J-147500D01*
G01*
G37*
G36*
G01*
X58011280Y-54452740D02*
X58011280Y-54797740D01*
G75*
G02*
X57863780Y-54945240I-147500J0D01*
G01*
X57568780Y-54945240D01*
G75*
G02*
X57421280Y-54797740I0J147500D01*
G01*
X57421280Y-54452740D01*
G75*
G02*
X57568780Y-54305240I147500J0D01*
G01*
X57863780Y-54305240D01*
G75*
G02*
X58011280Y-54452740I0J-147500D01*
G01*
G37*
G04 #@! TD*
G04 #@! TO.C,C26*
G36*
G01*
X53939150Y-69093600D02*
X53426650Y-69093600D01*
G75*
G02*
X53207900Y-68874850I0J218750D01*
G01*
X53207900Y-68437350D01*
G75*
G02*
X53426650Y-68218600I218750J0D01*
G01*
X53939150Y-68218600D01*
G75*
G02*
X54157900Y-68437350I0J-218750D01*
G01*
X54157900Y-68874850D01*
G75*
G02*
X53939150Y-69093600I-218750J0D01*
G01*
G37*
G36*
G01*
X53939150Y-70668600D02*
X53426650Y-70668600D01*
G75*
G02*
X53207900Y-70449850I0J218750D01*
G01*
X53207900Y-70012350D01*
G75*
G02*
X53426650Y-69793600I218750J0D01*
G01*
X53939150Y-69793600D01*
G75*
G02*
X54157900Y-70012350I0J-218750D01*
G01*
X54157900Y-70449850D01*
G75*
G02*
X53939150Y-70668600I-218750J0D01*
G01*
G37*
G04 #@! TD*
G04 #@! TO.C,C25*
G36*
G01*
X54002650Y-56736500D02*
X53490150Y-56736500D01*
G75*
G02*
X53271400Y-56517750I0J218750D01*
G01*
X53271400Y-56080250D01*
G75*
G02*
X53490150Y-55861500I218750J0D01*
G01*
X54002650Y-55861500D01*
G75*
G02*
X54221400Y-56080250I0J-218750D01*
G01*
X54221400Y-56517750D01*
G75*
G02*
X54002650Y-56736500I-218750J0D01*
G01*
G37*
G36*
G01*
X54002650Y-58311500D02*
X53490150Y-58311500D01*
G75*
G02*
X53271400Y-58092750I0J218750D01*
G01*
X53271400Y-57655250D01*
G75*
G02*
X53490150Y-57436500I218750J0D01*
G01*
X54002650Y-57436500D01*
G75*
G02*
X54221400Y-57655250I0J-218750D01*
G01*
X54221400Y-58092750D01*
G75*
G02*
X54002650Y-58311500I-218750J0D01*
G01*
G37*
G04 #@! TD*
G04 #@! TO.C,C24*
G36*
G01*
X64244000Y-79629500D02*
X63899000Y-79629500D01*
G75*
G02*
X63751500Y-79482000I0J147500D01*
G01*
X63751500Y-79187000D01*
G75*
G02*
X63899000Y-79039500I147500J0D01*
G01*
X64244000Y-79039500D01*
G75*
G02*
X64391500Y-79187000I0J-147500D01*
G01*
X64391500Y-79482000D01*
G75*
G02*
X64244000Y-79629500I-147500J0D01*
G01*
G37*
G36*
G01*
X64244000Y-80599500D02*
X63899000Y-80599500D01*
G75*
G02*
X63751500Y-80452000I0J147500D01*
G01*
X63751500Y-80157000D01*
G75*
G02*
X63899000Y-80009500I147500J0D01*
G01*
X64244000Y-80009500D01*
G75*
G02*
X64391500Y-80157000I0J-147500D01*
G01*
X64391500Y-80452000D01*
G75*
G02*
X64244000Y-80599500I-147500J0D01*
G01*
G37*
G04 #@! TD*
G04 #@! TO.C,C23*
G36*
G01*
X53951850Y-65740800D02*
X53439350Y-65740800D01*
G75*
G02*
X53220600Y-65522050I0J218750D01*
G01*
X53220600Y-65084550D01*
G75*
G02*
X53439350Y-64865800I218750J0D01*
G01*
X53951850Y-64865800D01*
G75*
G02*
X54170600Y-65084550I0J-218750D01*
G01*
X54170600Y-65522050D01*
G75*
G02*
X53951850Y-65740800I-218750J0D01*
G01*
G37*
G36*
G01*
X53951850Y-67315800D02*
X53439350Y-67315800D01*
G75*
G02*
X53220600Y-67097050I0J218750D01*
G01*
X53220600Y-66659550D01*
G75*
G02*
X53439350Y-66440800I218750J0D01*
G01*
X53951850Y-66440800D01*
G75*
G02*
X54170600Y-66659550I0J-218750D01*
G01*
X54170600Y-67097050D01*
G75*
G02*
X53951850Y-67315800I-218750J0D01*
G01*
G37*
G04 #@! TD*
G04 #@! TO.C,C22*
G36*
G01*
X53964550Y-59962300D02*
X53452050Y-59962300D01*
G75*
G02*
X53233300Y-59743550I0J218750D01*
G01*
X53233300Y-59306050D01*
G75*
G02*
X53452050Y-59087300I218750J0D01*
G01*
X53964550Y-59087300D01*
G75*
G02*
X54183300Y-59306050I0J-218750D01*
G01*
X54183300Y-59743550D01*
G75*
G02*
X53964550Y-59962300I-218750J0D01*
G01*
G37*
G36*
G01*
X53964550Y-61537300D02*
X53452050Y-61537300D01*
G75*
G02*
X53233300Y-61318550I0J218750D01*
G01*
X53233300Y-60881050D01*
G75*
G02*
X53452050Y-60662300I218750J0D01*
G01*
X53964550Y-60662300D01*
G75*
G02*
X54183300Y-60881050I0J-218750D01*
G01*
X54183300Y-61318550D01*
G75*
G02*
X53964550Y-61537300I-218750J0D01*
G01*
G37*
G04 #@! TD*
G04 #@! TO.C,C21*
G36*
G01*
X62212000Y-79606500D02*
X61867000Y-79606500D01*
G75*
G02*
X61719500Y-79459000I0J147500D01*
G01*
X61719500Y-79164000D01*
G75*
G02*
X61867000Y-79016500I147500J0D01*
G01*
X62212000Y-79016500D01*
G75*
G02*
X62359500Y-79164000I0J-147500D01*
G01*
X62359500Y-79459000D01*
G75*
G02*
X62212000Y-79606500I-147500J0D01*
G01*
G37*
G36*
G01*
X62212000Y-80576500D02*
X61867000Y-80576500D01*
G75*
G02*
X61719500Y-80429000I0J147500D01*
G01*
X61719500Y-80134000D01*
G75*
G02*
X61867000Y-79986500I147500J0D01*
G01*
X62212000Y-79986500D01*
G75*
G02*
X62359500Y-80134000I0J-147500D01*
G01*
X62359500Y-80429000D01*
G75*
G02*
X62212000Y-80576500I-147500J0D01*
G01*
G37*
G04 #@! TD*
G04 #@! TO.C,C20*
G36*
G01*
X56420000Y-9403750D02*
X56420000Y-9916250D01*
G75*
G02*
X56201250Y-10135000I-218750J0D01*
G01*
X55763750Y-10135000D01*
G75*
G02*
X55545000Y-9916250I0J218750D01*
G01*
X55545000Y-9403750D01*
G75*
G02*
X55763750Y-9185000I218750J0D01*
G01*
X56201250Y-9185000D01*
G75*
G02*
X56420000Y-9403750I0J-218750D01*
G01*
G37*
G36*
G01*
X57995000Y-9403750D02*
X57995000Y-9916250D01*
G75*
G02*
X57776250Y-10135000I-218750J0D01*
G01*
X57338750Y-10135000D01*
G75*
G02*
X57120000Y-9916250I0J218750D01*
G01*
X57120000Y-9403750D01*
G75*
G02*
X57338750Y-9185000I218750J0D01*
G01*
X57776250Y-9185000D01*
G75*
G02*
X57995000Y-9403750I0J-218750D01*
G01*
G37*
G04 #@! TD*
G04 #@! TO.C,C19*
G36*
G01*
X56400000Y-7733750D02*
X56400000Y-8246250D01*
G75*
G02*
X56181250Y-8465000I-218750J0D01*
G01*
X55743750Y-8465000D01*
G75*
G02*
X55525000Y-8246250I0J218750D01*
G01*
X55525000Y-7733750D01*
G75*
G02*
X55743750Y-7515000I218750J0D01*
G01*
X56181250Y-7515000D01*
G75*
G02*
X56400000Y-7733750I0J-218750D01*
G01*
G37*
G36*
G01*
X57975000Y-7733750D02*
X57975000Y-8246250D01*
G75*
G02*
X57756250Y-8465000I-218750J0D01*
G01*
X57318750Y-8465000D01*
G75*
G02*
X57100000Y-8246250I0J218750D01*
G01*
X57100000Y-7733750D01*
G75*
G02*
X57318750Y-7515000I218750J0D01*
G01*
X57756250Y-7515000D01*
G75*
G02*
X57975000Y-7733750I0J-218750D01*
G01*
G37*
G04 #@! TD*
G04 #@! TO.C,C18*
G36*
G01*
X63180250Y-72689200D02*
X63692750Y-72689200D01*
G75*
G02*
X63911500Y-72907950I0J-218750D01*
G01*
X63911500Y-73345450D01*
G75*
G02*
X63692750Y-73564200I-218750J0D01*
G01*
X63180250Y-73564200D01*
G75*
G02*
X62961500Y-73345450I0J218750D01*
G01*
X62961500Y-72907950D01*
G75*
G02*
X63180250Y-72689200I218750J0D01*
G01*
G37*
G36*
G01*
X63180250Y-71114200D02*
X63692750Y-71114200D01*
G75*
G02*
X63911500Y-71332950I0J-218750D01*
G01*
X63911500Y-71770450D01*
G75*
G02*
X63692750Y-71989200I-218750J0D01*
G01*
X63180250Y-71989200D01*
G75*
G02*
X62961500Y-71770450I0J218750D01*
G01*
X62961500Y-71332950D01*
G75*
G02*
X63180250Y-71114200I218750J0D01*
G01*
G37*
G04 #@! TD*
G04 #@! TO.C,C17*
G36*
G01*
X56410000Y-11133750D02*
X56410000Y-11646250D01*
G75*
G02*
X56191250Y-11865000I-218750J0D01*
G01*
X55753750Y-11865000D01*
G75*
G02*
X55535000Y-11646250I0J218750D01*
G01*
X55535000Y-11133750D01*
G75*
G02*
X55753750Y-10915000I218750J0D01*
G01*
X56191250Y-10915000D01*
G75*
G02*
X56410000Y-11133750I0J-218750D01*
G01*
G37*
G36*
G01*
X57985000Y-11133750D02*
X57985000Y-11646250D01*
G75*
G02*
X57766250Y-11865000I-218750J0D01*
G01*
X57328750Y-11865000D01*
G75*
G02*
X57110000Y-11646250I0J218750D01*
G01*
X57110000Y-11133750D01*
G75*
G02*
X57328750Y-10915000I218750J0D01*
G01*
X57766250Y-10915000D01*
G75*
G02*
X57985000Y-11133750I0J-218750D01*
G01*
G37*
G04 #@! TD*
G04 #@! TO.C,C16*
G36*
G01*
X49351200Y-79119100D02*
X49006200Y-79119100D01*
G75*
G02*
X48858700Y-78971600I0J147500D01*
G01*
X48858700Y-78676600D01*
G75*
G02*
X49006200Y-78529100I147500J0D01*
G01*
X49351200Y-78529100D01*
G75*
G02*
X49498700Y-78676600I0J-147500D01*
G01*
X49498700Y-78971600D01*
G75*
G02*
X49351200Y-79119100I-147500J0D01*
G01*
G37*
G36*
G01*
X49351200Y-80089100D02*
X49006200Y-80089100D01*
G75*
G02*
X48858700Y-79941600I0J147500D01*
G01*
X48858700Y-79646600D01*
G75*
G02*
X49006200Y-79499100I147500J0D01*
G01*
X49351200Y-79499100D01*
G75*
G02*
X49498700Y-79646600I0J-147500D01*
G01*
X49498700Y-79941600D01*
G75*
G02*
X49351200Y-80089100I-147500J0D01*
G01*
G37*
G04 #@! TD*
G04 #@! TO.C,C15*
G36*
G01*
X62496480Y-76352900D02*
X62151480Y-76352900D01*
G75*
G02*
X62003980Y-76205400I0J147500D01*
G01*
X62003980Y-75910400D01*
G75*
G02*
X62151480Y-75762900I147500J0D01*
G01*
X62496480Y-75762900D01*
G75*
G02*
X62643980Y-75910400I0J-147500D01*
G01*
X62643980Y-76205400D01*
G75*
G02*
X62496480Y-76352900I-147500J0D01*
G01*
G37*
G36*
G01*
X62496480Y-77322900D02*
X62151480Y-77322900D01*
G75*
G02*
X62003980Y-77175400I0J147500D01*
G01*
X62003980Y-76880400D01*
G75*
G02*
X62151480Y-76732900I147500J0D01*
G01*
X62496480Y-76732900D01*
G75*
G02*
X62643980Y-76880400I0J-147500D01*
G01*
X62643980Y-77175400D01*
G75*
G02*
X62496480Y-77322900I-147500J0D01*
G01*
G37*
G04 #@! TD*
G04 #@! TO.C,C14*
G36*
G01*
X65597450Y-76554100D02*
X66109950Y-76554100D01*
G75*
G02*
X66328700Y-76772850I0J-218750D01*
G01*
X66328700Y-77210350D01*
G75*
G02*
X66109950Y-77429100I-218750J0D01*
G01*
X65597450Y-77429100D01*
G75*
G02*
X65378700Y-77210350I0J218750D01*
G01*
X65378700Y-76772850D01*
G75*
G02*
X65597450Y-76554100I218750J0D01*
G01*
G37*
G36*
G01*
X65597450Y-74979100D02*
X66109950Y-74979100D01*
G75*
G02*
X66328700Y-75197850I0J-218750D01*
G01*
X66328700Y-75635350D01*
G75*
G02*
X66109950Y-75854100I-218750J0D01*
G01*
X65597450Y-75854100D01*
G75*
G02*
X65378700Y-75635350I0J218750D01*
G01*
X65378700Y-75197850D01*
G75*
G02*
X65597450Y-74979100I218750J0D01*
G01*
G37*
G04 #@! TD*
G04 #@! TO.C,C13*
G36*
G01*
X63772450Y-76554100D02*
X64284950Y-76554100D01*
G75*
G02*
X64503700Y-76772850I0J-218750D01*
G01*
X64503700Y-77210350D01*
G75*
G02*
X64284950Y-77429100I-218750J0D01*
G01*
X63772450Y-77429100D01*
G75*
G02*
X63553700Y-77210350I0J218750D01*
G01*
X63553700Y-76772850D01*
G75*
G02*
X63772450Y-76554100I218750J0D01*
G01*
G37*
G36*
G01*
X63772450Y-74979100D02*
X64284950Y-74979100D01*
G75*
G02*
X64503700Y-75197850I0J-218750D01*
G01*
X64503700Y-75635350D01*
G75*
G02*
X64284950Y-75854100I-218750J0D01*
G01*
X63772450Y-75854100D01*
G75*
G02*
X63553700Y-75635350I0J218750D01*
G01*
X63553700Y-75197850D01*
G75*
G02*
X63772450Y-74979100I218750J0D01*
G01*
G37*
G04 #@! TD*
G04 #@! TO.C,C12*
G36*
G01*
X51246200Y-81604100D02*
X51591200Y-81604100D01*
G75*
G02*
X51738700Y-81751600I0J-147500D01*
G01*
X51738700Y-82046600D01*
G75*
G02*
X51591200Y-82194100I-147500J0D01*
G01*
X51246200Y-82194100D01*
G75*
G02*
X51098700Y-82046600I0J147500D01*
G01*
X51098700Y-81751600D01*
G75*
G02*
X51246200Y-81604100I147500J0D01*
G01*
G37*
G36*
G01*
X51246200Y-80634100D02*
X51591200Y-80634100D01*
G75*
G02*
X51738700Y-80781600I0J-147500D01*
G01*
X51738700Y-81076600D01*
G75*
G02*
X51591200Y-81224100I-147500J0D01*
G01*
X51246200Y-81224100D01*
G75*
G02*
X51098700Y-81076600I0J147500D01*
G01*
X51098700Y-80781600D01*
G75*
G02*
X51246200Y-80634100I147500J0D01*
G01*
G37*
G04 #@! TD*
G04 #@! TO.C,C11*
G36*
G01*
X50066200Y-77399100D02*
X50411200Y-77399100D01*
G75*
G02*
X50558700Y-77546600I0J-147500D01*
G01*
X50558700Y-77841600D01*
G75*
G02*
X50411200Y-77989100I-147500J0D01*
G01*
X50066200Y-77989100D01*
G75*
G02*
X49918700Y-77841600I0J147500D01*
G01*
X49918700Y-77546600D01*
G75*
G02*
X50066200Y-77399100I147500J0D01*
G01*
G37*
G36*
G01*
X50066200Y-76429100D02*
X50411200Y-76429100D01*
G75*
G02*
X50558700Y-76576600I0J-147500D01*
G01*
X50558700Y-76871600D01*
G75*
G02*
X50411200Y-77019100I-147500J0D01*
G01*
X50066200Y-77019100D01*
G75*
G02*
X49918700Y-76871600I0J147500D01*
G01*
X49918700Y-76576600D01*
G75*
G02*
X50066200Y-76429100I147500J0D01*
G01*
G37*
G04 #@! TD*
G04 #@! TO.C,R57*
G36*
G01*
X50487870Y-87543120D02*
X51000370Y-87543120D01*
G75*
G02*
X51219120Y-87761870I0J-218750D01*
G01*
X51219120Y-88199370D01*
G75*
G02*
X51000370Y-88418120I-218750J0D01*
G01*
X50487870Y-88418120D01*
G75*
G02*
X50269120Y-88199370I0J218750D01*
G01*
X50269120Y-87761870D01*
G75*
G02*
X50487870Y-87543120I218750J0D01*
G01*
G37*
G36*
G01*
X50487870Y-85968120D02*
X51000370Y-85968120D01*
G75*
G02*
X51219120Y-86186870I0J-218750D01*
G01*
X51219120Y-86624370D01*
G75*
G02*
X51000370Y-86843120I-218750J0D01*
G01*
X50487870Y-86843120D01*
G75*
G02*
X50269120Y-86624370I0J218750D01*
G01*
X50269120Y-86186870D01*
G75*
G02*
X50487870Y-85968120I218750J0D01*
G01*
G37*
G04 #@! TD*
G04 #@! TO.C,R15*
G36*
G01*
X18257000Y-41416950D02*
X18257000Y-40904450D01*
G75*
G02*
X18475750Y-40685700I218750J0D01*
G01*
X18913250Y-40685700D01*
G75*
G02*
X19132000Y-40904450I0J-218750D01*
G01*
X19132000Y-41416950D01*
G75*
G02*
X18913250Y-41635700I-218750J0D01*
G01*
X18475750Y-41635700D01*
G75*
G02*
X18257000Y-41416950I0J218750D01*
G01*
G37*
G36*
G01*
X16682000Y-41416950D02*
X16682000Y-40904450D01*
G75*
G02*
X16900750Y-40685700I218750J0D01*
G01*
X17338250Y-40685700D01*
G75*
G02*
X17557000Y-40904450I0J-218750D01*
G01*
X17557000Y-41416950D01*
G75*
G02*
X17338250Y-41635700I-218750J0D01*
G01*
X16900750Y-41635700D01*
G75*
G02*
X16682000Y-41416950I0J218750D01*
G01*
G37*
G04 #@! TD*
G04 #@! TO.C,R14*
G36*
G01*
X18265800Y-39804050D02*
X18265800Y-39291550D01*
G75*
G02*
X18484550Y-39072800I218750J0D01*
G01*
X18922050Y-39072800D01*
G75*
G02*
X19140800Y-39291550I0J-218750D01*
G01*
X19140800Y-39804050D01*
G75*
G02*
X18922050Y-40022800I-218750J0D01*
G01*
X18484550Y-40022800D01*
G75*
G02*
X18265800Y-39804050I0J218750D01*
G01*
G37*
G36*
G01*
X16690800Y-39804050D02*
X16690800Y-39291550D01*
G75*
G02*
X16909550Y-39072800I218750J0D01*
G01*
X17347050Y-39072800D01*
G75*
G02*
X17565800Y-39291550I0J-218750D01*
G01*
X17565800Y-39804050D01*
G75*
G02*
X17347050Y-40022800I-218750J0D01*
G01*
X16909550Y-40022800D01*
G75*
G02*
X16690800Y-39804050I0J218750D01*
G01*
G37*
G04 #@! TD*
D11*
G04 #@! TO.C,Q3*
X52539900Y-38858700D03*
X51589900Y-36858700D03*
X53489900Y-36858700D03*
G04 #@! TD*
G04 #@! TO.C,U9*
G36*
G01*
X19344780Y-56917940D02*
X19044780Y-56917940D01*
G75*
G02*
X18894780Y-56767940I0J150000D01*
G01*
X18894780Y-55467940D01*
G75*
G02*
X19044780Y-55317940I150000J0D01*
G01*
X19344780Y-55317940D01*
G75*
G02*
X19494780Y-55467940I0J-150000D01*
G01*
X19494780Y-56767940D01*
G75*
G02*
X19344780Y-56917940I-150000J0D01*
G01*
G37*
G36*
G01*
X20614780Y-56917940D02*
X20314780Y-56917940D01*
G75*
G02*
X20164780Y-56767940I0J150000D01*
G01*
X20164780Y-55467940D01*
G75*
G02*
X20314780Y-55317940I150000J0D01*
G01*
X20614780Y-55317940D01*
G75*
G02*
X20764780Y-55467940I0J-150000D01*
G01*
X20764780Y-56767940D01*
G75*
G02*
X20614780Y-56917940I-150000J0D01*
G01*
G37*
G36*
G01*
X21884780Y-56917940D02*
X21584780Y-56917940D01*
G75*
G02*
X21434780Y-56767940I0J150000D01*
G01*
X21434780Y-55467940D01*
G75*
G02*
X21584780Y-55317940I150000J0D01*
G01*
X21884780Y-55317940D01*
G75*
G02*
X22034780Y-55467940I0J-150000D01*
G01*
X22034780Y-56767940D01*
G75*
G02*
X21884780Y-56917940I-150000J0D01*
G01*
G37*
G36*
G01*
X23154780Y-56917940D02*
X22854780Y-56917940D01*
G75*
G02*
X22704780Y-56767940I0J150000D01*
G01*
X22704780Y-55467940D01*
G75*
G02*
X22854780Y-55317940I150000J0D01*
G01*
X23154780Y-55317940D01*
G75*
G02*
X23304780Y-55467940I0J-150000D01*
G01*
X23304780Y-56767940D01*
G75*
G02*
X23154780Y-56917940I-150000J0D01*
G01*
G37*
G36*
G01*
X23154780Y-64117940D02*
X22854780Y-64117940D01*
G75*
G02*
X22704780Y-63967940I0J150000D01*
G01*
X22704780Y-62667940D01*
G75*
G02*
X22854780Y-62517940I150000J0D01*
G01*
X23154780Y-62517940D01*
G75*
G02*
X23304780Y-62667940I0J-150000D01*
G01*
X23304780Y-63967940D01*
G75*
G02*
X23154780Y-64117940I-150000J0D01*
G01*
G37*
G36*
G01*
X21884780Y-64117940D02*
X21584780Y-64117940D01*
G75*
G02*
X21434780Y-63967940I0J150000D01*
G01*
X21434780Y-62667940D01*
G75*
G02*
X21584780Y-62517940I150000J0D01*
G01*
X21884780Y-62517940D01*
G75*
G02*
X22034780Y-62667940I0J-150000D01*
G01*
X22034780Y-63967940D01*
G75*
G02*
X21884780Y-64117940I-150000J0D01*
G01*
G37*
G36*
G01*
X20614780Y-64117940D02*
X20314780Y-64117940D01*
G75*
G02*
X20164780Y-63967940I0J150000D01*
G01*
X20164780Y-62667940D01*
G75*
G02*
X20314780Y-62517940I150000J0D01*
G01*
X20614780Y-62517940D01*
G75*
G02*
X20764780Y-62667940I0J-150000D01*
G01*
X20764780Y-63967940D01*
G75*
G02*
X20614780Y-64117940I-150000J0D01*
G01*
G37*
G36*
G01*
X19344780Y-64117940D02*
X19044780Y-64117940D01*
G75*
G02*
X18894780Y-63967940I0J150000D01*
G01*
X18894780Y-62667940D01*
G75*
G02*
X19044780Y-62517940I150000J0D01*
G01*
X19344780Y-62517940D01*
G75*
G02*
X19494780Y-62667940I0J-150000D01*
G01*
X19494780Y-63967940D01*
G75*
G02*
X19344780Y-64117940I-150000J0D01*
G01*
G37*
G04 #@! TD*
G04 #@! TO.C,FB5*
G36*
G01*
X22016300Y-22530750D02*
X22016300Y-23443250D01*
G75*
G02*
X21772550Y-23687000I-243750J0D01*
G01*
X21285050Y-23687000D01*
G75*
G02*
X21041300Y-23443250I0J243750D01*
G01*
X21041300Y-22530750D01*
G75*
G02*
X21285050Y-22287000I243750J0D01*
G01*
X21772550Y-22287000D01*
G75*
G02*
X22016300Y-22530750I0J-243750D01*
G01*
G37*
G36*
G01*
X23891300Y-22530750D02*
X23891300Y-23443250D01*
G75*
G02*
X23647550Y-23687000I-243750J0D01*
G01*
X23160050Y-23687000D01*
G75*
G02*
X22916300Y-23443250I0J243750D01*
G01*
X22916300Y-22530750D01*
G75*
G02*
X23160050Y-22287000I243750J0D01*
G01*
X23647550Y-22287000D01*
G75*
G02*
X23891300Y-22530750I0J-243750D01*
G01*
G37*
G04 #@! TD*
G04 #@! TO.C,R5*
G36*
G01*
X16450512Y-65791580D02*
X16105512Y-65791580D01*
G75*
G02*
X15958012Y-65644080I0J147500D01*
G01*
X15958012Y-65349080D01*
G75*
G02*
X16105512Y-65201580I147500J0D01*
G01*
X16450512Y-65201580D01*
G75*
G02*
X16598012Y-65349080I0J-147500D01*
G01*
X16598012Y-65644080D01*
G75*
G02*
X16450512Y-65791580I-147500J0D01*
G01*
G37*
G36*
G01*
X16450512Y-66761580D02*
X16105512Y-66761580D01*
G75*
G02*
X15958012Y-66614080I0J147500D01*
G01*
X15958012Y-66319080D01*
G75*
G02*
X16105512Y-66171580I147500J0D01*
G01*
X16450512Y-66171580D01*
G75*
G02*
X16598012Y-66319080I0J-147500D01*
G01*
X16598012Y-66614080D01*
G75*
G02*
X16450512Y-66761580I-147500J0D01*
G01*
G37*
G04 #@! TD*
D26*
G04 #@! TO.C,D15*
X41437560Y-56028320D03*
X41437560Y-59328320D03*
G04 #@! TD*
G04 #@! TO.C,C5*
G36*
G01*
X43802520Y-58655720D02*
X44147520Y-58655720D01*
G75*
G02*
X44295020Y-58803220I0J-147500D01*
G01*
X44295020Y-59098220D01*
G75*
G02*
X44147520Y-59245720I-147500J0D01*
G01*
X43802520Y-59245720D01*
G75*
G02*
X43655020Y-59098220I0J147500D01*
G01*
X43655020Y-58803220D01*
G75*
G02*
X43802520Y-58655720I147500J0D01*
G01*
G37*
G36*
G01*
X43802520Y-57685720D02*
X44147520Y-57685720D01*
G75*
G02*
X44295020Y-57833220I0J-147500D01*
G01*
X44295020Y-58128220D01*
G75*
G02*
X44147520Y-58275720I-147500J0D01*
G01*
X43802520Y-58275720D01*
G75*
G02*
X43655020Y-58128220I0J147500D01*
G01*
X43655020Y-57833220D01*
G75*
G02*
X43802520Y-57685720I147500J0D01*
G01*
G37*
G04 #@! TD*
G04 #@! TO.C,C7*
G36*
G01*
X40251600Y-65262260D02*
X40596600Y-65262260D01*
G75*
G02*
X40744100Y-65409760I0J-147500D01*
G01*
X40744100Y-65704760D01*
G75*
G02*
X40596600Y-65852260I-147500J0D01*
G01*
X40251600Y-65852260D01*
G75*
G02*
X40104100Y-65704760I0J147500D01*
G01*
X40104100Y-65409760D01*
G75*
G02*
X40251600Y-65262260I147500J0D01*
G01*
G37*
G36*
G01*
X40251600Y-64292260D02*
X40596600Y-64292260D01*
G75*
G02*
X40744100Y-64439760I0J-147500D01*
G01*
X40744100Y-64734760D01*
G75*
G02*
X40596600Y-64882260I-147500J0D01*
G01*
X40251600Y-64882260D01*
G75*
G02*
X40104100Y-64734760I0J147500D01*
G01*
X40104100Y-64439760D01*
G75*
G02*
X40251600Y-64292260I147500J0D01*
G01*
G37*
G04 #@! TD*
G04 #@! TO.C,C37*
G36*
G01*
X37121580Y-58638150D02*
X37121580Y-58125650D01*
G75*
G02*
X37340330Y-57906900I218750J0D01*
G01*
X37777830Y-57906900D01*
G75*
G02*
X37996580Y-58125650I0J-218750D01*
G01*
X37996580Y-58638150D01*
G75*
G02*
X37777830Y-58856900I-218750J0D01*
G01*
X37340330Y-58856900D01*
G75*
G02*
X37121580Y-58638150I0J218750D01*
G01*
G37*
G36*
G01*
X35546580Y-58638150D02*
X35546580Y-58125650D01*
G75*
G02*
X35765330Y-57906900I218750J0D01*
G01*
X36202830Y-57906900D01*
G75*
G02*
X36421580Y-58125650I0J-218750D01*
G01*
X36421580Y-58638150D01*
G75*
G02*
X36202830Y-58856900I-218750J0D01*
G01*
X35765330Y-58856900D01*
G75*
G02*
X35546580Y-58638150I0J218750D01*
G01*
G37*
G04 #@! TD*
G04 #@! TO.C,R3*
G36*
G01*
X41934900Y-67982880D02*
X41934900Y-67637880D01*
G75*
G02*
X42082400Y-67490380I147500J0D01*
G01*
X42377400Y-67490380D01*
G75*
G02*
X42524900Y-67637880I0J-147500D01*
G01*
X42524900Y-67982880D01*
G75*
G02*
X42377400Y-68130380I-147500J0D01*
G01*
X42082400Y-68130380D01*
G75*
G02*
X41934900Y-67982880I0J147500D01*
G01*
G37*
G36*
G01*
X40964900Y-67982880D02*
X40964900Y-67637880D01*
G75*
G02*
X41112400Y-67490380I147500J0D01*
G01*
X41407400Y-67490380D01*
G75*
G02*
X41554900Y-67637880I0J-147500D01*
G01*
X41554900Y-67982880D01*
G75*
G02*
X41407400Y-68130380I-147500J0D01*
G01*
X41112400Y-68130380D01*
G75*
G02*
X40964900Y-67982880I0J147500D01*
G01*
G37*
G04 #@! TD*
G04 #@! TO.C,R4*
G36*
G01*
X43622460Y-67655660D02*
X43622460Y-68000660D01*
G75*
G02*
X43474960Y-68148160I-147500J0D01*
G01*
X43179960Y-68148160D01*
G75*
G02*
X43032460Y-68000660I0J147500D01*
G01*
X43032460Y-67655660D01*
G75*
G02*
X43179960Y-67508160I147500J0D01*
G01*
X43474960Y-67508160D01*
G75*
G02*
X43622460Y-67655660I0J-147500D01*
G01*
G37*
G36*
G01*
X44592460Y-67655660D02*
X44592460Y-68000660D01*
G75*
G02*
X44444960Y-68148160I-147500J0D01*
G01*
X44149960Y-68148160D01*
G75*
G02*
X44002460Y-68000660I0J147500D01*
G01*
X44002460Y-67655660D01*
G75*
G02*
X44149960Y-67508160I147500J0D01*
G01*
X44444960Y-67508160D01*
G75*
G02*
X44592460Y-67655660I0J-147500D01*
G01*
G37*
G04 #@! TD*
D27*
G04 #@! TO.C,U7*
X41882020Y-61118120D03*
X42832020Y-61118120D03*
X43782020Y-61118120D03*
X43782020Y-63738120D03*
X42832020Y-63738120D03*
X41882020Y-63738120D03*
G04 #@! TD*
G04 #@! TO.C,C64*
G36*
G01*
X58865640Y-29231080D02*
X58865640Y-31231080D01*
G75*
G02*
X58615640Y-31481080I-250000J0D01*
G01*
X54715640Y-31481080D01*
G75*
G02*
X54465640Y-31231080I0J250000D01*
G01*
X54465640Y-29231080D01*
G75*
G02*
X54715640Y-28981080I250000J0D01*
G01*
X58615640Y-28981080D01*
G75*
G02*
X58865640Y-29231080I0J-250000D01*
G01*
G37*
G36*
G01*
X66265640Y-29231080D02*
X66265640Y-31231080D01*
G75*
G02*
X66015640Y-31481080I-250000J0D01*
G01*
X62115640Y-31481080D01*
G75*
G02*
X61865640Y-31231080I0J250000D01*
G01*
X61865640Y-29231080D01*
G75*
G02*
X62115640Y-28981080I250000J0D01*
G01*
X66015640Y-28981080D01*
G75*
G02*
X66265640Y-29231080I0J-250000D01*
G01*
G37*
G04 #@! TD*
G04 #@! TO.C,C6*
G36*
G01*
X21974940Y-18256760D02*
X21974940Y-16256760D01*
G75*
G02*
X22224940Y-16006760I250000J0D01*
G01*
X26124940Y-16006760D01*
G75*
G02*
X26374940Y-16256760I0J-250000D01*
G01*
X26374940Y-18256760D01*
G75*
G02*
X26124940Y-18506760I-250000J0D01*
G01*
X22224940Y-18506760D01*
G75*
G02*
X21974940Y-18256760I0J250000D01*
G01*
G37*
G36*
G01*
X14574940Y-18256760D02*
X14574940Y-16256760D01*
G75*
G02*
X14824940Y-16006760I250000J0D01*
G01*
X18724940Y-16006760D01*
G75*
G02*
X18974940Y-16256760I0J-250000D01*
G01*
X18974940Y-18256760D01*
G75*
G02*
X18724940Y-18506760I-250000J0D01*
G01*
X14824940Y-18506760D01*
G75*
G02*
X14574940Y-18256760I0J250000D01*
G01*
G37*
G04 #@! TD*
G04 #@! TO.C,R24*
G36*
G01*
X15650000Y-80143750D02*
X15650000Y-80656250D01*
G75*
G02*
X15431250Y-80875000I-218750J0D01*
G01*
X14993750Y-80875000D01*
G75*
G02*
X14775000Y-80656250I0J218750D01*
G01*
X14775000Y-80143750D01*
G75*
G02*
X14993750Y-79925000I218750J0D01*
G01*
X15431250Y-79925000D01*
G75*
G02*
X15650000Y-80143750I0J-218750D01*
G01*
G37*
G36*
G01*
X17225000Y-80143750D02*
X17225000Y-80656250D01*
G75*
G02*
X17006250Y-80875000I-218750J0D01*
G01*
X16568750Y-80875000D01*
G75*
G02*
X16350000Y-80656250I0J218750D01*
G01*
X16350000Y-80143750D01*
G75*
G02*
X16568750Y-79925000I218750J0D01*
G01*
X17006250Y-79925000D01*
G75*
G02*
X17225000Y-80143750I0J-218750D01*
G01*
G37*
G04 #@! TD*
D28*
G04 #@! TO.C,X1*
X18573200Y-80391800D03*
X20973200Y-80391800D03*
X20973200Y-82291800D03*
X18573200Y-82291800D03*
G04 #@! TD*
G04 #@! TO.C,FB8*
G36*
G01*
X53203000Y-41592200D02*
X51953000Y-41592200D01*
G75*
G02*
X51703000Y-41342200I0J250000D01*
G01*
X51703000Y-40592200D01*
G75*
G02*
X51953000Y-40342200I250000J0D01*
G01*
X53203000Y-40342200D01*
G75*
G02*
X53453000Y-40592200I0J-250000D01*
G01*
X53453000Y-41342200D01*
G75*
G02*
X53203000Y-41592200I-250000J0D01*
G01*
G37*
G36*
G01*
X53203000Y-44392200D02*
X51953000Y-44392200D01*
G75*
G02*
X51703000Y-44142200I0J250000D01*
G01*
X51703000Y-43392200D01*
G75*
G02*
X51953000Y-43142200I250000J0D01*
G01*
X53203000Y-43142200D01*
G75*
G02*
X53453000Y-43392200I0J-250000D01*
G01*
X53453000Y-44142200D01*
G75*
G02*
X53203000Y-44392200I-250000J0D01*
G01*
G37*
G04 #@! TD*
G04 #@! TO.C,FB4*
G36*
G01*
X56222600Y-65415000D02*
X56222600Y-66665000D01*
G75*
G02*
X55972600Y-66915000I-250000J0D01*
G01*
X55222600Y-66915000D01*
G75*
G02*
X54972600Y-66665000I0J250000D01*
G01*
X54972600Y-65415000D01*
G75*
G02*
X55222600Y-65165000I250000J0D01*
G01*
X55972600Y-65165000D01*
G75*
G02*
X56222600Y-65415000I0J-250000D01*
G01*
G37*
G36*
G01*
X59022600Y-65415000D02*
X59022600Y-66665000D01*
G75*
G02*
X58772600Y-66915000I-250000J0D01*
G01*
X58022600Y-66915000D01*
G75*
G02*
X57772600Y-66665000I0J250000D01*
G01*
X57772600Y-65415000D01*
G75*
G02*
X58022600Y-65165000I250000J0D01*
G01*
X58772600Y-65165000D01*
G75*
G02*
X59022600Y-65415000I0J-250000D01*
G01*
G37*
G04 #@! TD*
G04 #@! TO.C,FB3*
G36*
G01*
X56222600Y-68717000D02*
X56222600Y-69967000D01*
G75*
G02*
X55972600Y-70217000I-250000J0D01*
G01*
X55222600Y-70217000D01*
G75*
G02*
X54972600Y-69967000I0J250000D01*
G01*
X54972600Y-68717000D01*
G75*
G02*
X55222600Y-68467000I250000J0D01*
G01*
X55972600Y-68467000D01*
G75*
G02*
X56222600Y-68717000I0J-250000D01*
G01*
G37*
G36*
G01*
X59022600Y-68717000D02*
X59022600Y-69967000D01*
G75*
G02*
X58772600Y-70217000I-250000J0D01*
G01*
X58022600Y-70217000D01*
G75*
G02*
X57772600Y-69967000I0J250000D01*
G01*
X57772600Y-68717000D01*
G75*
G02*
X58022600Y-68467000I250000J0D01*
G01*
X58772600Y-68467000D01*
G75*
G02*
X59022600Y-68717000I0J-250000D01*
G01*
G37*
G04 #@! TD*
G04 #@! TO.C,FB2*
G36*
G01*
X56260700Y-59954000D02*
X56260700Y-61204000D01*
G75*
G02*
X56010700Y-61454000I-250000J0D01*
G01*
X55260700Y-61454000D01*
G75*
G02*
X55010700Y-61204000I0J250000D01*
G01*
X55010700Y-59954000D01*
G75*
G02*
X55260700Y-59704000I250000J0D01*
G01*
X56010700Y-59704000D01*
G75*
G02*
X56260700Y-59954000I0J-250000D01*
G01*
G37*
G36*
G01*
X59060700Y-59954000D02*
X59060700Y-61204000D01*
G75*
G02*
X58810700Y-61454000I-250000J0D01*
G01*
X58060700Y-61454000D01*
G75*
G02*
X57810700Y-61204000I0J250000D01*
G01*
X57810700Y-59954000D01*
G75*
G02*
X58060700Y-59704000I250000J0D01*
G01*
X58810700Y-59704000D01*
G75*
G02*
X59060700Y-59954000I0J-250000D01*
G01*
G37*
G04 #@! TD*
G04 #@! TO.C,FB1*
G36*
G01*
X56222600Y-56588500D02*
X56222600Y-57838500D01*
G75*
G02*
X55972600Y-58088500I-250000J0D01*
G01*
X55222600Y-58088500D01*
G75*
G02*
X54972600Y-57838500I0J250000D01*
G01*
X54972600Y-56588500D01*
G75*
G02*
X55222600Y-56338500I250000J0D01*
G01*
X55972600Y-56338500D01*
G75*
G02*
X56222600Y-56588500I0J-250000D01*
G01*
G37*
G36*
G01*
X59022600Y-56588500D02*
X59022600Y-57838500D01*
G75*
G02*
X58772600Y-58088500I-250000J0D01*
G01*
X58022600Y-58088500D01*
G75*
G02*
X57772600Y-57838500I0J250000D01*
G01*
X57772600Y-56588500D01*
G75*
G02*
X58022600Y-56338500I250000J0D01*
G01*
X58772600Y-56338500D01*
G75*
G02*
X59022600Y-56588500I0J-250000D01*
G01*
G37*
G04 #@! TD*
G04 #@! TO.C,U5*
G36*
G01*
X23973400Y-51337500D02*
X24173400Y-51337500D01*
G75*
G02*
X24273400Y-51437500I0J-100000D01*
G01*
X24273400Y-52712500D01*
G75*
G02*
X24173400Y-52812500I-100000J0D01*
G01*
X23973400Y-52812500D01*
G75*
G02*
X23873400Y-52712500I0J100000D01*
G01*
X23873400Y-51437500D01*
G75*
G02*
X23973400Y-51337500I100000J0D01*
G01*
G37*
G36*
G01*
X23323400Y-51337500D02*
X23523400Y-51337500D01*
G75*
G02*
X23623400Y-51437500I0J-100000D01*
G01*
X23623400Y-52712500D01*
G75*
G02*
X23523400Y-52812500I-100000J0D01*
G01*
X23323400Y-52812500D01*
G75*
G02*
X23223400Y-52712500I0J100000D01*
G01*
X23223400Y-51437500D01*
G75*
G02*
X23323400Y-51337500I100000J0D01*
G01*
G37*
G36*
G01*
X22673400Y-51337500D02*
X22873400Y-51337500D01*
G75*
G02*
X22973400Y-51437500I0J-100000D01*
G01*
X22973400Y-52712500D01*
G75*
G02*
X22873400Y-52812500I-100000J0D01*
G01*
X22673400Y-52812500D01*
G75*
G02*
X22573400Y-52712500I0J100000D01*
G01*
X22573400Y-51437500D01*
G75*
G02*
X22673400Y-51337500I100000J0D01*
G01*
G37*
G36*
G01*
X22023400Y-51337500D02*
X22223400Y-51337500D01*
G75*
G02*
X22323400Y-51437500I0J-100000D01*
G01*
X22323400Y-52712500D01*
G75*
G02*
X22223400Y-52812500I-100000J0D01*
G01*
X22023400Y-52812500D01*
G75*
G02*
X21923400Y-52712500I0J100000D01*
G01*
X21923400Y-51437500D01*
G75*
G02*
X22023400Y-51337500I100000J0D01*
G01*
G37*
G36*
G01*
X21373400Y-51337500D02*
X21573400Y-51337500D01*
G75*
G02*
X21673400Y-51437500I0J-100000D01*
G01*
X21673400Y-52712500D01*
G75*
G02*
X21573400Y-52812500I-100000J0D01*
G01*
X21373400Y-52812500D01*
G75*
G02*
X21273400Y-52712500I0J100000D01*
G01*
X21273400Y-51437500D01*
G75*
G02*
X21373400Y-51337500I100000J0D01*
G01*
G37*
G36*
G01*
X20723400Y-51337500D02*
X20923400Y-51337500D01*
G75*
G02*
X21023400Y-51437500I0J-100000D01*
G01*
X21023400Y-52712500D01*
G75*
G02*
X20923400Y-52812500I-100000J0D01*
G01*
X20723400Y-52812500D01*
G75*
G02*
X20623400Y-52712500I0J100000D01*
G01*
X20623400Y-51437500D01*
G75*
G02*
X20723400Y-51337500I100000J0D01*
G01*
G37*
G36*
G01*
X20073400Y-51337500D02*
X20273400Y-51337500D01*
G75*
G02*
X20373400Y-51437500I0J-100000D01*
G01*
X20373400Y-52712500D01*
G75*
G02*
X20273400Y-52812500I-100000J0D01*
G01*
X20073400Y-52812500D01*
G75*
G02*
X19973400Y-52712500I0J100000D01*
G01*
X19973400Y-51437500D01*
G75*
G02*
X20073400Y-51337500I100000J0D01*
G01*
G37*
G36*
G01*
X20073400Y-45612500D02*
X20273400Y-45612500D01*
G75*
G02*
X20373400Y-45712500I0J-100000D01*
G01*
X20373400Y-46987500D01*
G75*
G02*
X20273400Y-47087500I-100000J0D01*
G01*
X20073400Y-47087500D01*
G75*
G02*
X19973400Y-46987500I0J100000D01*
G01*
X19973400Y-45712500D01*
G75*
G02*
X20073400Y-45612500I100000J0D01*
G01*
G37*
G36*
G01*
X20723400Y-45612500D02*
X20923400Y-45612500D01*
G75*
G02*
X21023400Y-45712500I0J-100000D01*
G01*
X21023400Y-46987500D01*
G75*
G02*
X20923400Y-47087500I-100000J0D01*
G01*
X20723400Y-47087500D01*
G75*
G02*
X20623400Y-46987500I0J100000D01*
G01*
X20623400Y-45712500D01*
G75*
G02*
X20723400Y-45612500I100000J0D01*
G01*
G37*
G36*
G01*
X21373400Y-45612500D02*
X21573400Y-45612500D01*
G75*
G02*
X21673400Y-45712500I0J-100000D01*
G01*
X21673400Y-46987500D01*
G75*
G02*
X21573400Y-47087500I-100000J0D01*
G01*
X21373400Y-47087500D01*
G75*
G02*
X21273400Y-46987500I0J100000D01*
G01*
X21273400Y-45712500D01*
G75*
G02*
X21373400Y-45612500I100000J0D01*
G01*
G37*
G36*
G01*
X22023400Y-45612500D02*
X22223400Y-45612500D01*
G75*
G02*
X22323400Y-45712500I0J-100000D01*
G01*
X22323400Y-46987500D01*
G75*
G02*
X22223400Y-47087500I-100000J0D01*
G01*
X22023400Y-47087500D01*
G75*
G02*
X21923400Y-46987500I0J100000D01*
G01*
X21923400Y-45712500D01*
G75*
G02*
X22023400Y-45612500I100000J0D01*
G01*
G37*
G36*
G01*
X22673400Y-45612500D02*
X22873400Y-45612500D01*
G75*
G02*
X22973400Y-45712500I0J-100000D01*
G01*
X22973400Y-46987500D01*
G75*
G02*
X22873400Y-47087500I-100000J0D01*
G01*
X22673400Y-47087500D01*
G75*
G02*
X22573400Y-46987500I0J100000D01*
G01*
X22573400Y-45712500D01*
G75*
G02*
X22673400Y-45612500I100000J0D01*
G01*
G37*
G36*
G01*
X23323400Y-45612500D02*
X23523400Y-45612500D01*
G75*
G02*
X23623400Y-45712500I0J-100000D01*
G01*
X23623400Y-46987500D01*
G75*
G02*
X23523400Y-47087500I-100000J0D01*
G01*
X23323400Y-47087500D01*
G75*
G02*
X23223400Y-46987500I0J100000D01*
G01*
X23223400Y-45712500D01*
G75*
G02*
X23323400Y-45612500I100000J0D01*
G01*
G37*
G36*
G01*
X23973400Y-45612500D02*
X24173400Y-45612500D01*
G75*
G02*
X24273400Y-45712500I0J-100000D01*
G01*
X24273400Y-46987500D01*
G75*
G02*
X24173400Y-47087500I-100000J0D01*
G01*
X23973400Y-47087500D01*
G75*
G02*
X23873400Y-46987500I0J100000D01*
G01*
X23873400Y-45712500D01*
G75*
G02*
X23973400Y-45612500I100000J0D01*
G01*
G37*
G04 #@! TD*
G04 #@! TO.C,FB6*
G36*
G01*
X24719310Y-79462120D02*
X23806810Y-79462120D01*
G75*
G02*
X23563060Y-79218370I0J243750D01*
G01*
X23563060Y-78730870D01*
G75*
G02*
X23806810Y-78487120I243750J0D01*
G01*
X24719310Y-78487120D01*
G75*
G02*
X24963060Y-78730870I0J-243750D01*
G01*
X24963060Y-79218370D01*
G75*
G02*
X24719310Y-79462120I-243750J0D01*
G01*
G37*
G36*
G01*
X24719310Y-81337120D02*
X23806810Y-81337120D01*
G75*
G02*
X23563060Y-81093370I0J243750D01*
G01*
X23563060Y-80605870D01*
G75*
G02*
X23806810Y-80362120I243750J0D01*
G01*
X24719310Y-80362120D01*
G75*
G02*
X24963060Y-80605870I0J-243750D01*
G01*
X24963060Y-81093370D01*
G75*
G02*
X24719310Y-81337120I-243750J0D01*
G01*
G37*
G04 #@! TD*
G04 #@! TO.C,R31*
G36*
G01*
X41299880Y-44586870D02*
X41299880Y-44074370D01*
G75*
G02*
X41518630Y-43855620I218750J0D01*
G01*
X41956130Y-43855620D01*
G75*
G02*
X42174880Y-44074370I0J-218750D01*
G01*
X42174880Y-44586870D01*
G75*
G02*
X41956130Y-44805620I-218750J0D01*
G01*
X41518630Y-44805620D01*
G75*
G02*
X41299880Y-44586870I0J218750D01*
G01*
G37*
G36*
G01*
X39724880Y-44586870D02*
X39724880Y-44074370D01*
G75*
G02*
X39943630Y-43855620I218750J0D01*
G01*
X40381130Y-43855620D01*
G75*
G02*
X40599880Y-44074370I0J-218750D01*
G01*
X40599880Y-44586870D01*
G75*
G02*
X40381130Y-44805620I-218750J0D01*
G01*
X39943630Y-44805620D01*
G75*
G02*
X39724880Y-44586870I0J218750D01*
G01*
G37*
G04 #@! TD*
D29*
G04 #@! TO.C,D14*
X52725000Y-10600000D03*
X52725000Y-6600000D03*
G04 #@! TD*
D14*
G04 #@! TO.C,U1*
X38300000Y-3225000D03*
X33450000Y-8775000D03*
X38300000Y-8775000D03*
X33450000Y-3225000D03*
D15*
X45025000Y-2600000D03*
X45025000Y-4300000D03*
X45025000Y-6000000D03*
X45025000Y-7700000D03*
X45025000Y-9400000D03*
G04 #@! TD*
G04 #@! TO.C,R1*
G36*
G01*
X49120800Y-10288500D02*
X49120800Y-10633500D01*
G75*
G02*
X48973300Y-10781000I-147500J0D01*
G01*
X48678300Y-10781000D01*
G75*
G02*
X48530800Y-10633500I0J147500D01*
G01*
X48530800Y-10288500D01*
G75*
G02*
X48678300Y-10141000I147500J0D01*
G01*
X48973300Y-10141000D01*
G75*
G02*
X49120800Y-10288500I0J-147500D01*
G01*
G37*
G36*
G01*
X50090800Y-10288500D02*
X50090800Y-10633500D01*
G75*
G02*
X49943300Y-10781000I-147500J0D01*
G01*
X49648300Y-10781000D01*
G75*
G02*
X49500800Y-10633500I0J147500D01*
G01*
X49500800Y-10288500D01*
G75*
G02*
X49648300Y-10141000I147500J0D01*
G01*
X49943300Y-10141000D01*
G75*
G02*
X50090800Y-10288500I0J-147500D01*
G01*
G37*
G04 #@! TD*
G04 #@! TO.C,C4*
G36*
G01*
X49120800Y-11438500D02*
X49120800Y-11783500D01*
G75*
G02*
X48973300Y-11931000I-147500J0D01*
G01*
X48678300Y-11931000D01*
G75*
G02*
X48530800Y-11783500I0J147500D01*
G01*
X48530800Y-11438500D01*
G75*
G02*
X48678300Y-11291000I147500J0D01*
G01*
X48973300Y-11291000D01*
G75*
G02*
X49120800Y-11438500I0J-147500D01*
G01*
G37*
G36*
G01*
X50090800Y-11438500D02*
X50090800Y-11783500D01*
G75*
G02*
X49943300Y-11931000I-147500J0D01*
G01*
X49648300Y-11931000D01*
G75*
G02*
X49500800Y-11783500I0J147500D01*
G01*
X49500800Y-11438500D01*
G75*
G02*
X49648300Y-11291000I147500J0D01*
G01*
X49943300Y-11291000D01*
G75*
G02*
X50090800Y-11438500I0J-147500D01*
G01*
G37*
G04 #@! TD*
G04 #@! TO.C,C3*
G36*
G01*
X49040000Y-2772500D02*
X49040000Y-2427500D01*
G75*
G02*
X49187500Y-2280000I147500J0D01*
G01*
X49482500Y-2280000D01*
G75*
G02*
X49630000Y-2427500I0J-147500D01*
G01*
X49630000Y-2772500D01*
G75*
G02*
X49482500Y-2920000I-147500J0D01*
G01*
X49187500Y-2920000D01*
G75*
G02*
X49040000Y-2772500I0J147500D01*
G01*
G37*
G36*
G01*
X48070000Y-2772500D02*
X48070000Y-2427500D01*
G75*
G02*
X48217500Y-2280000I147500J0D01*
G01*
X48512500Y-2280000D01*
G75*
G02*
X48660000Y-2427500I0J-147500D01*
G01*
X48660000Y-2772500D01*
G75*
G02*
X48512500Y-2920000I-147500J0D01*
G01*
X48217500Y-2920000D01*
G75*
G02*
X48070000Y-2772500I0J147500D01*
G01*
G37*
G04 #@! TD*
G04 #@! TO.C,C1*
G36*
G01*
X21650000Y-4750000D02*
X21650000Y-6750000D01*
G75*
G02*
X21400000Y-7000000I-250000J0D01*
G01*
X17900000Y-7000000D01*
G75*
G02*
X17650000Y-6750000I0J250000D01*
G01*
X17650000Y-4750000D01*
G75*
G02*
X17900000Y-4500000I250000J0D01*
G01*
X21400000Y-4500000D01*
G75*
G02*
X21650000Y-4750000I0J-250000D01*
G01*
G37*
G36*
G01*
X29650000Y-4750000D02*
X29650000Y-6750000D01*
G75*
G02*
X29400000Y-7000000I-250000J0D01*
G01*
X25900000Y-7000000D01*
G75*
G02*
X25650000Y-6750000I0J250000D01*
G01*
X25650000Y-4750000D01*
G75*
G02*
X25900000Y-4500000I250000J0D01*
G01*
X29400000Y-4500000D01*
G75*
G02*
X29650000Y-4750000I0J-250000D01*
G01*
G37*
G04 #@! TD*
G04 #@! TO.C,C60*
G36*
G01*
X31498250Y-29876000D02*
X30985750Y-29876000D01*
G75*
G02*
X30767000Y-29657250I0J218750D01*
G01*
X30767000Y-29219750D01*
G75*
G02*
X30985750Y-29001000I218750J0D01*
G01*
X31498250Y-29001000D01*
G75*
G02*
X31717000Y-29219750I0J-218750D01*
G01*
X31717000Y-29657250D01*
G75*
G02*
X31498250Y-29876000I-218750J0D01*
G01*
G37*
G36*
G01*
X31498250Y-31451000D02*
X30985750Y-31451000D01*
G75*
G02*
X30767000Y-31232250I0J218750D01*
G01*
X30767000Y-30794750D01*
G75*
G02*
X30985750Y-30576000I218750J0D01*
G01*
X31498250Y-30576000D01*
G75*
G02*
X31717000Y-30794750I0J-218750D01*
G01*
X31717000Y-31232250D01*
G75*
G02*
X31498250Y-31451000I-218750J0D01*
G01*
G37*
G04 #@! TD*
G04 #@! TO.C,C59*
G36*
G01*
X42537600Y-28714200D02*
X42882600Y-28714200D01*
G75*
G02*
X43030100Y-28861700I0J-147500D01*
G01*
X43030100Y-29156700D01*
G75*
G02*
X42882600Y-29304200I-147500J0D01*
G01*
X42537600Y-29304200D01*
G75*
G02*
X42390100Y-29156700I0J147500D01*
G01*
X42390100Y-28861700D01*
G75*
G02*
X42537600Y-28714200I147500J0D01*
G01*
G37*
G36*
G01*
X42537600Y-27744200D02*
X42882600Y-27744200D01*
G75*
G02*
X43030100Y-27891700I0J-147500D01*
G01*
X43030100Y-28186700D01*
G75*
G02*
X42882600Y-28334200I-147500J0D01*
G01*
X42537600Y-28334200D01*
G75*
G02*
X42390100Y-28186700I0J147500D01*
G01*
X42390100Y-27891700D01*
G75*
G02*
X42537600Y-27744200I147500J0D01*
G01*
G37*
G04 #@! TD*
G04 #@! TO.C,C63*
G36*
G01*
X52681640Y-45821380D02*
X52681640Y-45476380D01*
G75*
G02*
X52829140Y-45328880I147500J0D01*
G01*
X53124140Y-45328880D01*
G75*
G02*
X53271640Y-45476380I0J-147500D01*
G01*
X53271640Y-45821380D01*
G75*
G02*
X53124140Y-45968880I-147500J0D01*
G01*
X52829140Y-45968880D01*
G75*
G02*
X52681640Y-45821380I0J147500D01*
G01*
G37*
G36*
G01*
X51711640Y-45821380D02*
X51711640Y-45476380D01*
G75*
G02*
X51859140Y-45328880I147500J0D01*
G01*
X52154140Y-45328880D01*
G75*
G02*
X52301640Y-45476380I0J-147500D01*
G01*
X52301640Y-45821380D01*
G75*
G02*
X52154140Y-45968880I-147500J0D01*
G01*
X51859140Y-45968880D01*
G75*
G02*
X51711640Y-45821380I0J147500D01*
G01*
G37*
G04 #@! TD*
G04 #@! TO.C,C61*
G36*
G01*
X50126200Y-81599100D02*
X50471200Y-81599100D01*
G75*
G02*
X50618700Y-81746600I0J-147500D01*
G01*
X50618700Y-82041600D01*
G75*
G02*
X50471200Y-82189100I-147500J0D01*
G01*
X50126200Y-82189100D01*
G75*
G02*
X49978700Y-82041600I0J147500D01*
G01*
X49978700Y-81746600D01*
G75*
G02*
X50126200Y-81599100I147500J0D01*
G01*
G37*
G36*
G01*
X50126200Y-80629100D02*
X50471200Y-80629100D01*
G75*
G02*
X50618700Y-80776600I0J-147500D01*
G01*
X50618700Y-81071600D01*
G75*
G02*
X50471200Y-81219100I-147500J0D01*
G01*
X50126200Y-81219100D01*
G75*
G02*
X49978700Y-81071600I0J147500D01*
G01*
X49978700Y-80776600D01*
G75*
G02*
X50126200Y-80629100I147500J0D01*
G01*
G37*
G04 #@! TD*
G04 #@! TO.C,R50*
G36*
G01*
X63338080Y-81331020D02*
X63338080Y-81676020D01*
G75*
G02*
X63190580Y-81823520I-147500J0D01*
G01*
X62895580Y-81823520D01*
G75*
G02*
X62748080Y-81676020I0J147500D01*
G01*
X62748080Y-81331020D01*
G75*
G02*
X62895580Y-81183520I147500J0D01*
G01*
X63190580Y-81183520D01*
G75*
G02*
X63338080Y-81331020I0J-147500D01*
G01*
G37*
G36*
G01*
X64308080Y-81331020D02*
X64308080Y-81676020D01*
G75*
G02*
X64160580Y-81823520I-147500J0D01*
G01*
X63865580Y-81823520D01*
G75*
G02*
X63718080Y-81676020I0J147500D01*
G01*
X63718080Y-81331020D01*
G75*
G02*
X63865580Y-81183520I147500J0D01*
G01*
X64160580Y-81183520D01*
G75*
G02*
X64308080Y-81331020I0J-147500D01*
G01*
G37*
G04 #@! TD*
G04 #@! TO.C,R49*
G36*
G01*
X27449280Y-39616795D02*
X27449280Y-39271795D01*
G75*
G02*
X27596780Y-39124295I147500J0D01*
G01*
X27891780Y-39124295D01*
G75*
G02*
X28039280Y-39271795I0J-147500D01*
G01*
X28039280Y-39616795D01*
G75*
G02*
X27891780Y-39764295I-147500J0D01*
G01*
X27596780Y-39764295D01*
G75*
G02*
X27449280Y-39616795I0J147500D01*
G01*
G37*
G36*
G01*
X26479280Y-39616795D02*
X26479280Y-39271795D01*
G75*
G02*
X26626780Y-39124295I147500J0D01*
G01*
X26921780Y-39124295D01*
G75*
G02*
X27069280Y-39271795I0J-147500D01*
G01*
X27069280Y-39616795D01*
G75*
G02*
X26921780Y-39764295I-147500J0D01*
G01*
X26626780Y-39764295D01*
G75*
G02*
X26479280Y-39616795I0J147500D01*
G01*
G37*
G04 #@! TD*
G04 #@! TO.C,R48*
G36*
G01*
X27449280Y-40870920D02*
X27449280Y-40525920D01*
G75*
G02*
X27596780Y-40378420I147500J0D01*
G01*
X27891780Y-40378420D01*
G75*
G02*
X28039280Y-40525920I0J-147500D01*
G01*
X28039280Y-40870920D01*
G75*
G02*
X27891780Y-41018420I-147500J0D01*
G01*
X27596780Y-41018420D01*
G75*
G02*
X27449280Y-40870920I0J147500D01*
G01*
G37*
G36*
G01*
X26479280Y-40870920D02*
X26479280Y-40525920D01*
G75*
G02*
X26626780Y-40378420I147500J0D01*
G01*
X26921780Y-40378420D01*
G75*
G02*
X27069280Y-40525920I0J-147500D01*
G01*
X27069280Y-40870920D01*
G75*
G02*
X26921780Y-41018420I-147500J0D01*
G01*
X26626780Y-41018420D01*
G75*
G02*
X26479280Y-40870920I0J147500D01*
G01*
G37*
G04 #@! TD*
D28*
G04 #@! TO.C,Y2*
X40738880Y-50503720D03*
X42938880Y-50503720D03*
X42938880Y-52203720D03*
X40738880Y-52203720D03*
G04 #@! TD*
G04 #@! TO.C,R40*
G36*
G01*
X27084520Y-45572900D02*
X27084520Y-45917900D01*
G75*
G02*
X26937020Y-46065400I-147500J0D01*
G01*
X26642020Y-46065400D01*
G75*
G02*
X26494520Y-45917900I0J147500D01*
G01*
X26494520Y-45572900D01*
G75*
G02*
X26642020Y-45425400I147500J0D01*
G01*
X26937020Y-45425400D01*
G75*
G02*
X27084520Y-45572900I0J-147500D01*
G01*
G37*
G36*
G01*
X28054520Y-45572900D02*
X28054520Y-45917900D01*
G75*
G02*
X27907020Y-46065400I-147500J0D01*
G01*
X27612020Y-46065400D01*
G75*
G02*
X27464520Y-45917900I0J147500D01*
G01*
X27464520Y-45572900D01*
G75*
G02*
X27612020Y-45425400I147500J0D01*
G01*
X27907020Y-45425400D01*
G75*
G02*
X28054520Y-45572900I0J-147500D01*
G01*
G37*
G04 #@! TD*
G04 #@! TO.C,R39*
G36*
G01*
X27464520Y-46974540D02*
X27464520Y-46629540D01*
G75*
G02*
X27612020Y-46482040I147500J0D01*
G01*
X27907020Y-46482040D01*
G75*
G02*
X28054520Y-46629540I0J-147500D01*
G01*
X28054520Y-46974540D01*
G75*
G02*
X27907020Y-47122040I-147500J0D01*
G01*
X27612020Y-47122040D01*
G75*
G02*
X27464520Y-46974540I0J147500D01*
G01*
G37*
G36*
G01*
X26494520Y-46974540D02*
X26494520Y-46629540D01*
G75*
G02*
X26642020Y-46482040I147500J0D01*
G01*
X26937020Y-46482040D01*
G75*
G02*
X27084520Y-46629540I0J-147500D01*
G01*
X27084520Y-46974540D01*
G75*
G02*
X26937020Y-47122040I-147500J0D01*
G01*
X26642020Y-47122040D01*
G75*
G02*
X26494520Y-46974540I0J147500D01*
G01*
G37*
G04 #@! TD*
G04 #@! TO.C,R28*
G36*
G01*
X48777940Y-41953680D02*
X48432940Y-41953680D01*
G75*
G02*
X48285440Y-41806180I0J147500D01*
G01*
X48285440Y-41511180D01*
G75*
G02*
X48432940Y-41363680I147500J0D01*
G01*
X48777940Y-41363680D01*
G75*
G02*
X48925440Y-41511180I0J-147500D01*
G01*
X48925440Y-41806180D01*
G75*
G02*
X48777940Y-41953680I-147500J0D01*
G01*
G37*
G36*
G01*
X48777940Y-42923680D02*
X48432940Y-42923680D01*
G75*
G02*
X48285440Y-42776180I0J147500D01*
G01*
X48285440Y-42481180D01*
G75*
G02*
X48432940Y-42333680I147500J0D01*
G01*
X48777940Y-42333680D01*
G75*
G02*
X48925440Y-42481180I0J-147500D01*
G01*
X48925440Y-42776180D01*
G75*
G02*
X48777940Y-42923680I-147500J0D01*
G01*
G37*
G04 #@! TD*
G04 #@! TO.C,PWR1*
G36*
G01*
X47454530Y-42286440D02*
X46942030Y-42286440D01*
G75*
G02*
X46723280Y-42067690I0J218750D01*
G01*
X46723280Y-41630190D01*
G75*
G02*
X46942030Y-41411440I218750J0D01*
G01*
X47454530Y-41411440D01*
G75*
G02*
X47673280Y-41630190I0J-218750D01*
G01*
X47673280Y-42067690D01*
G75*
G02*
X47454530Y-42286440I-218750J0D01*
G01*
G37*
G36*
G01*
X47454530Y-43861440D02*
X46942030Y-43861440D01*
G75*
G02*
X46723280Y-43642690I0J218750D01*
G01*
X46723280Y-43205190D01*
G75*
G02*
X46942030Y-42986440I218750J0D01*
G01*
X47454530Y-42986440D01*
G75*
G02*
X47673280Y-43205190I0J-218750D01*
G01*
X47673280Y-43642690D01*
G75*
G02*
X47454530Y-43861440I-218750J0D01*
G01*
G37*
G04 #@! TD*
G04 #@! TO.C,C34*
G36*
G01*
X38721800Y-40448432D02*
X38721800Y-40103432D01*
G75*
G02*
X38869300Y-39955932I147500J0D01*
G01*
X39164300Y-39955932D01*
G75*
G02*
X39311800Y-40103432I0J-147500D01*
G01*
X39311800Y-40448432D01*
G75*
G02*
X39164300Y-40595932I-147500J0D01*
G01*
X38869300Y-40595932D01*
G75*
G02*
X38721800Y-40448432I0J147500D01*
G01*
G37*
G36*
G01*
X37751800Y-40448432D02*
X37751800Y-40103432D01*
G75*
G02*
X37899300Y-39955932I147500J0D01*
G01*
X38194300Y-39955932D01*
G75*
G02*
X38341800Y-40103432I0J-147500D01*
G01*
X38341800Y-40448432D01*
G75*
G02*
X38194300Y-40595932I-147500J0D01*
G01*
X37899300Y-40595932D01*
G75*
G02*
X37751800Y-40448432I0J147500D01*
G01*
G37*
G04 #@! TD*
G04 #@! TO.C,C58*
G36*
G01*
X27562740Y-79582140D02*
X27562740Y-79927140D01*
G75*
G02*
X27415240Y-80074640I-147500J0D01*
G01*
X27120240Y-80074640D01*
G75*
G02*
X26972740Y-79927140I0J147500D01*
G01*
X26972740Y-79582140D01*
G75*
G02*
X27120240Y-79434640I147500J0D01*
G01*
X27415240Y-79434640D01*
G75*
G02*
X27562740Y-79582140I0J-147500D01*
G01*
G37*
G36*
G01*
X26592740Y-79582140D02*
X26592740Y-79927140D01*
G75*
G02*
X26445240Y-80074640I-147500J0D01*
G01*
X26150240Y-80074640D01*
G75*
G02*
X26002740Y-79927140I0J147500D01*
G01*
X26002740Y-79582140D01*
G75*
G02*
X26150240Y-79434640I147500J0D01*
G01*
X26445240Y-79434640D01*
G75*
G02*
X26592740Y-79582140I0J-147500D01*
G01*
G37*
G04 #@! TD*
G04 #@! TO.C,C57*
G36*
G01*
X27361100Y-16560300D02*
X27706100Y-16560300D01*
G75*
G02*
X27853600Y-16707800I0J-147500D01*
G01*
X27853600Y-17002800D01*
G75*
G02*
X27706100Y-17150300I-147500J0D01*
G01*
X27361100Y-17150300D01*
G75*
G02*
X27213600Y-17002800I0J147500D01*
G01*
X27213600Y-16707800D01*
G75*
G02*
X27361100Y-16560300I147500J0D01*
G01*
G37*
G36*
G01*
X27361100Y-15590300D02*
X27706100Y-15590300D01*
G75*
G02*
X27853600Y-15737800I0J-147500D01*
G01*
X27853600Y-16032800D01*
G75*
G02*
X27706100Y-16180300I-147500J0D01*
G01*
X27361100Y-16180300D01*
G75*
G02*
X27213600Y-16032800I0J147500D01*
G01*
X27213600Y-15737800D01*
G75*
G02*
X27361100Y-15590300I147500J0D01*
G01*
G37*
G04 #@! TD*
G04 #@! TO.C,C56*
G36*
G01*
X26592740Y-80659100D02*
X26592740Y-81004100D01*
G75*
G02*
X26445240Y-81151600I-147500J0D01*
G01*
X26150240Y-81151600D01*
G75*
G02*
X26002740Y-81004100I0J147500D01*
G01*
X26002740Y-80659100D01*
G75*
G02*
X26150240Y-80511600I147500J0D01*
G01*
X26445240Y-80511600D01*
G75*
G02*
X26592740Y-80659100I0J-147500D01*
G01*
G37*
G36*
G01*
X27562740Y-80659100D02*
X27562740Y-81004100D01*
G75*
G02*
X27415240Y-81151600I-147500J0D01*
G01*
X27120240Y-81151600D01*
G75*
G02*
X26972740Y-81004100I0J147500D01*
G01*
X26972740Y-80659100D01*
G75*
G02*
X27120240Y-80511600I147500J0D01*
G01*
X27415240Y-80511600D01*
G75*
G02*
X27562740Y-80659100I0J-147500D01*
G01*
G37*
G04 #@! TD*
G04 #@! TO.C,C55*
G36*
G01*
X27609300Y-12047000D02*
X27609300Y-11702000D01*
G75*
G02*
X27756800Y-11554500I147500J0D01*
G01*
X28051800Y-11554500D01*
G75*
G02*
X28199300Y-11702000I0J-147500D01*
G01*
X28199300Y-12047000D01*
G75*
G02*
X28051800Y-12194500I-147500J0D01*
G01*
X27756800Y-12194500D01*
G75*
G02*
X27609300Y-12047000I0J147500D01*
G01*
G37*
G36*
G01*
X26639300Y-12047000D02*
X26639300Y-11702000D01*
G75*
G02*
X26786800Y-11554500I147500J0D01*
G01*
X27081800Y-11554500D01*
G75*
G02*
X27229300Y-11702000I0J-147500D01*
G01*
X27229300Y-12047000D01*
G75*
G02*
X27081800Y-12194500I-147500J0D01*
G01*
X26786800Y-12194500D01*
G75*
G02*
X26639300Y-12047000I0J147500D01*
G01*
G37*
G04 #@! TD*
G04 #@! TO.C,C54*
G36*
G01*
X15084560Y-61871640D02*
X15084560Y-61526640D01*
G75*
G02*
X15232060Y-61379140I147500J0D01*
G01*
X15527060Y-61379140D01*
G75*
G02*
X15674560Y-61526640I0J-147500D01*
G01*
X15674560Y-61871640D01*
G75*
G02*
X15527060Y-62019140I-147500J0D01*
G01*
X15232060Y-62019140D01*
G75*
G02*
X15084560Y-61871640I0J147500D01*
G01*
G37*
G36*
G01*
X14114560Y-61871640D02*
X14114560Y-61526640D01*
G75*
G02*
X14262060Y-61379140I147500J0D01*
G01*
X14557060Y-61379140D01*
G75*
G02*
X14704560Y-61526640I0J-147500D01*
G01*
X14704560Y-61871640D01*
G75*
G02*
X14557060Y-62019140I-147500J0D01*
G01*
X14262060Y-62019140D01*
G75*
G02*
X14114560Y-61871640I0J147500D01*
G01*
G37*
G04 #@! TD*
G04 #@! TO.C,C53*
G36*
G01*
X30659840Y-73751220D02*
X30659840Y-73406220D01*
G75*
G02*
X30807340Y-73258720I147500J0D01*
G01*
X31102340Y-73258720D01*
G75*
G02*
X31249840Y-73406220I0J-147500D01*
G01*
X31249840Y-73751220D01*
G75*
G02*
X31102340Y-73898720I-147500J0D01*
G01*
X30807340Y-73898720D01*
G75*
G02*
X30659840Y-73751220I0J147500D01*
G01*
G37*
G36*
G01*
X29689840Y-73751220D02*
X29689840Y-73406220D01*
G75*
G02*
X29837340Y-73258720I147500J0D01*
G01*
X30132340Y-73258720D01*
G75*
G02*
X30279840Y-73406220I0J-147500D01*
G01*
X30279840Y-73751220D01*
G75*
G02*
X30132340Y-73898720I-147500J0D01*
G01*
X29837340Y-73898720D01*
G75*
G02*
X29689840Y-73751220I0J147500D01*
G01*
G37*
G04 #@! TD*
G04 #@! TO.C,C52*
G36*
G01*
X29435560Y-69351940D02*
X29435560Y-69006940D01*
G75*
G02*
X29583060Y-68859440I147500J0D01*
G01*
X29878060Y-68859440D01*
G75*
G02*
X30025560Y-69006940I0J-147500D01*
G01*
X30025560Y-69351940D01*
G75*
G02*
X29878060Y-69499440I-147500J0D01*
G01*
X29583060Y-69499440D01*
G75*
G02*
X29435560Y-69351940I0J147500D01*
G01*
G37*
G36*
G01*
X28465560Y-69351940D02*
X28465560Y-69006940D01*
G75*
G02*
X28613060Y-68859440I147500J0D01*
G01*
X28908060Y-68859440D01*
G75*
G02*
X29055560Y-69006940I0J-147500D01*
G01*
X29055560Y-69351940D01*
G75*
G02*
X28908060Y-69499440I-147500J0D01*
G01*
X28613060Y-69499440D01*
G75*
G02*
X28465560Y-69351940I0J147500D01*
G01*
G37*
G04 #@! TD*
G04 #@! TO.C,C51*
G36*
G01*
X27012400Y-77807600D02*
X27012400Y-77462600D01*
G75*
G02*
X27159900Y-77315100I147500J0D01*
G01*
X27454900Y-77315100D01*
G75*
G02*
X27602400Y-77462600I0J-147500D01*
G01*
X27602400Y-77807600D01*
G75*
G02*
X27454900Y-77955100I-147500J0D01*
G01*
X27159900Y-77955100D01*
G75*
G02*
X27012400Y-77807600I0J147500D01*
G01*
G37*
G36*
G01*
X26042400Y-77807600D02*
X26042400Y-77462600D01*
G75*
G02*
X26189900Y-77315100I147500J0D01*
G01*
X26484900Y-77315100D01*
G75*
G02*
X26632400Y-77462600I0J-147500D01*
G01*
X26632400Y-77807600D01*
G75*
G02*
X26484900Y-77955100I-147500J0D01*
G01*
X26189900Y-77955100D01*
G75*
G02*
X26042400Y-77807600I0J147500D01*
G01*
G37*
G04 #@! TD*
G04 #@! TO.C,C50*
G36*
G01*
X15324446Y-65791580D02*
X14979446Y-65791580D01*
G75*
G02*
X14831946Y-65644080I0J147500D01*
G01*
X14831946Y-65349080D01*
G75*
G02*
X14979446Y-65201580I147500J0D01*
G01*
X15324446Y-65201580D01*
G75*
G02*
X15471946Y-65349080I0J-147500D01*
G01*
X15471946Y-65644080D01*
G75*
G02*
X15324446Y-65791580I-147500J0D01*
G01*
G37*
G36*
G01*
X15324446Y-66761580D02*
X14979446Y-66761580D01*
G75*
G02*
X14831946Y-66614080I0J147500D01*
G01*
X14831946Y-66319080D01*
G75*
G02*
X14979446Y-66171580I147500J0D01*
G01*
X15324446Y-66171580D01*
G75*
G02*
X15471946Y-66319080I0J-147500D01*
G01*
X15471946Y-66614080D01*
G75*
G02*
X15324446Y-66761580I-147500J0D01*
G01*
G37*
G04 #@! TD*
G04 #@! TO.C,C49*
G36*
G01*
X18516100Y-79064900D02*
X18516100Y-78719900D01*
G75*
G02*
X18663600Y-78572400I147500J0D01*
G01*
X18958600Y-78572400D01*
G75*
G02*
X19106100Y-78719900I0J-147500D01*
G01*
X19106100Y-79064900D01*
G75*
G02*
X18958600Y-79212400I-147500J0D01*
G01*
X18663600Y-79212400D01*
G75*
G02*
X18516100Y-79064900I0J147500D01*
G01*
G37*
G36*
G01*
X17546100Y-79064900D02*
X17546100Y-78719900D01*
G75*
G02*
X17693600Y-78572400I147500J0D01*
G01*
X17988600Y-78572400D01*
G75*
G02*
X18136100Y-78719900I0J-147500D01*
G01*
X18136100Y-79064900D01*
G75*
G02*
X17988600Y-79212400I-147500J0D01*
G01*
X17693600Y-79212400D01*
G75*
G02*
X17546100Y-79064900I0J147500D01*
G01*
G37*
G04 #@! TD*
G04 #@! TO.C,C48*
G36*
G01*
X15269600Y-77510340D02*
X15269600Y-77855340D01*
G75*
G02*
X15122100Y-78002840I-147500J0D01*
G01*
X14827100Y-78002840D01*
G75*
G02*
X14679600Y-77855340I0J147500D01*
G01*
X14679600Y-77510340D01*
G75*
G02*
X14827100Y-77362840I147500J0D01*
G01*
X15122100Y-77362840D01*
G75*
G02*
X15269600Y-77510340I0J-147500D01*
G01*
G37*
G36*
G01*
X16239600Y-77510340D02*
X16239600Y-77855340D01*
G75*
G02*
X16092100Y-78002840I-147500J0D01*
G01*
X15797100Y-78002840D01*
G75*
G02*
X15649600Y-77855340I0J147500D01*
G01*
X15649600Y-77510340D01*
G75*
G02*
X15797100Y-77362840I147500J0D01*
G01*
X16092100Y-77362840D01*
G75*
G02*
X16239600Y-77510340I0J-147500D01*
G01*
G37*
G04 #@! TD*
G04 #@! TO.C,C47*
G36*
G01*
X12306800Y-70109300D02*
X12306800Y-70454300D01*
G75*
G02*
X12159300Y-70601800I-147500J0D01*
G01*
X11864300Y-70601800D01*
G75*
G02*
X11716800Y-70454300I0J147500D01*
G01*
X11716800Y-70109300D01*
G75*
G02*
X11864300Y-69961800I147500J0D01*
G01*
X12159300Y-69961800D01*
G75*
G02*
X12306800Y-70109300I0J-147500D01*
G01*
G37*
G36*
G01*
X13276800Y-70109300D02*
X13276800Y-70454300D01*
G75*
G02*
X13129300Y-70601800I-147500J0D01*
G01*
X12834300Y-70601800D01*
G75*
G02*
X12686800Y-70454300I0J147500D01*
G01*
X12686800Y-70109300D01*
G75*
G02*
X12834300Y-69961800I147500J0D01*
G01*
X13129300Y-69961800D01*
G75*
G02*
X13276800Y-70109300I0J-147500D01*
G01*
G37*
G04 #@! TD*
G04 #@! TO.C,C46*
G36*
G01*
X30236380Y-78670920D02*
X30581380Y-78670920D01*
G75*
G02*
X30728880Y-78818420I0J-147500D01*
G01*
X30728880Y-79113420D01*
G75*
G02*
X30581380Y-79260920I-147500J0D01*
G01*
X30236380Y-79260920D01*
G75*
G02*
X30088880Y-79113420I0J147500D01*
G01*
X30088880Y-78818420D01*
G75*
G02*
X30236380Y-78670920I147500J0D01*
G01*
G37*
G36*
G01*
X30236380Y-77700920D02*
X30581380Y-77700920D01*
G75*
G02*
X30728880Y-77848420I0J-147500D01*
G01*
X30728880Y-78143420D01*
G75*
G02*
X30581380Y-78290920I-147500J0D01*
G01*
X30236380Y-78290920D01*
G75*
G02*
X30088880Y-78143420I0J147500D01*
G01*
X30088880Y-77848420D01*
G75*
G02*
X30236380Y-77700920I147500J0D01*
G01*
G37*
G04 #@! TD*
G04 #@! TO.C,C45*
G36*
G01*
X12284560Y-73765160D02*
X12284560Y-74110160D01*
G75*
G02*
X12137060Y-74257660I-147500J0D01*
G01*
X11842060Y-74257660D01*
G75*
G02*
X11694560Y-74110160I0J147500D01*
G01*
X11694560Y-73765160D01*
G75*
G02*
X11842060Y-73617660I147500J0D01*
G01*
X12137060Y-73617660D01*
G75*
G02*
X12284560Y-73765160I0J-147500D01*
G01*
G37*
G36*
G01*
X13254560Y-73765160D02*
X13254560Y-74110160D01*
G75*
G02*
X13107060Y-74257660I-147500J0D01*
G01*
X12812060Y-74257660D01*
G75*
G02*
X12664560Y-74110160I0J147500D01*
G01*
X12664560Y-73765160D01*
G75*
G02*
X12812060Y-73617660I147500J0D01*
G01*
X13107060Y-73617660D01*
G75*
G02*
X13254560Y-73765160I0J-147500D01*
G01*
G37*
G04 #@! TD*
G04 #@! TO.C,C44*
G36*
G01*
X12310000Y-72177500D02*
X12310000Y-72522500D01*
G75*
G02*
X12162500Y-72670000I-147500J0D01*
G01*
X11867500Y-72670000D01*
G75*
G02*
X11720000Y-72522500I0J147500D01*
G01*
X11720000Y-72177500D01*
G75*
G02*
X11867500Y-72030000I147500J0D01*
G01*
X12162500Y-72030000D01*
G75*
G02*
X12310000Y-72177500I0J-147500D01*
G01*
G37*
G36*
G01*
X13280000Y-72177500D02*
X13280000Y-72522500D01*
G75*
G02*
X13132500Y-72670000I-147500J0D01*
G01*
X12837500Y-72670000D01*
G75*
G02*
X12690000Y-72522500I0J147500D01*
G01*
X12690000Y-72177500D01*
G75*
G02*
X12837500Y-72030000I147500J0D01*
G01*
X13132500Y-72030000D01*
G75*
G02*
X13280000Y-72177500I0J-147500D01*
G01*
G37*
G04 #@! TD*
G04 #@! TO.C,C43*
G36*
G01*
X14727500Y-82565000D02*
X15072500Y-82565000D01*
G75*
G02*
X15220000Y-82712500I0J-147500D01*
G01*
X15220000Y-83007500D01*
G75*
G02*
X15072500Y-83155000I-147500J0D01*
G01*
X14727500Y-83155000D01*
G75*
G02*
X14580000Y-83007500I0J147500D01*
G01*
X14580000Y-82712500D01*
G75*
G02*
X14727500Y-82565000I147500J0D01*
G01*
G37*
G36*
G01*
X14727500Y-81595000D02*
X15072500Y-81595000D01*
G75*
G02*
X15220000Y-81742500I0J-147500D01*
G01*
X15220000Y-82037500D01*
G75*
G02*
X15072500Y-82185000I-147500J0D01*
G01*
X14727500Y-82185000D01*
G75*
G02*
X14580000Y-82037500I0J147500D01*
G01*
X14580000Y-81742500D01*
G75*
G02*
X14727500Y-81595000I147500J0D01*
G01*
G37*
G04 #@! TD*
G04 #@! TO.C,C42*
G36*
G01*
X14198380Y-65791580D02*
X13853380Y-65791580D01*
G75*
G02*
X13705880Y-65644080I0J147500D01*
G01*
X13705880Y-65349080D01*
G75*
G02*
X13853380Y-65201580I147500J0D01*
G01*
X14198380Y-65201580D01*
G75*
G02*
X14345880Y-65349080I0J-147500D01*
G01*
X14345880Y-65644080D01*
G75*
G02*
X14198380Y-65791580I-147500J0D01*
G01*
G37*
G36*
G01*
X14198380Y-66761580D02*
X13853380Y-66761580D01*
G75*
G02*
X13705880Y-66614080I0J147500D01*
G01*
X13705880Y-66319080D01*
G75*
G02*
X13853380Y-66171580I147500J0D01*
G01*
X14198380Y-66171580D01*
G75*
G02*
X14345880Y-66319080I0J-147500D01*
G01*
X14345880Y-66614080D01*
G75*
G02*
X14198380Y-66761580I-147500J0D01*
G01*
G37*
G04 #@! TD*
G04 #@! TO.C,C41*
G36*
G01*
X26415780Y-66195440D02*
X26070780Y-66195440D01*
G75*
G02*
X25923280Y-66047940I0J147500D01*
G01*
X25923280Y-65752940D01*
G75*
G02*
X26070780Y-65605440I147500J0D01*
G01*
X26415780Y-65605440D01*
G75*
G02*
X26563280Y-65752940I0J-147500D01*
G01*
X26563280Y-66047940D01*
G75*
G02*
X26415780Y-66195440I-147500J0D01*
G01*
G37*
G36*
G01*
X26415780Y-67165440D02*
X26070780Y-67165440D01*
G75*
G02*
X25923280Y-67017940I0J147500D01*
G01*
X25923280Y-66722940D01*
G75*
G02*
X26070780Y-66575440I147500J0D01*
G01*
X26415780Y-66575440D01*
G75*
G02*
X26563280Y-66722940I0J-147500D01*
G01*
X26563280Y-67017940D01*
G75*
G02*
X26415780Y-67165440I-147500J0D01*
G01*
G37*
G04 #@! TD*
G04 #@! TO.C,C40*
G36*
G01*
X13477500Y-82565000D02*
X13822500Y-82565000D01*
G75*
G02*
X13970000Y-82712500I0J-147500D01*
G01*
X13970000Y-83007500D01*
G75*
G02*
X13822500Y-83155000I-147500J0D01*
G01*
X13477500Y-83155000D01*
G75*
G02*
X13330000Y-83007500I0J147500D01*
G01*
X13330000Y-82712500D01*
G75*
G02*
X13477500Y-82565000I147500J0D01*
G01*
G37*
G36*
G01*
X13477500Y-81595000D02*
X13822500Y-81595000D01*
G75*
G02*
X13970000Y-81742500I0J-147500D01*
G01*
X13970000Y-82037500D01*
G75*
G02*
X13822500Y-82185000I-147500J0D01*
G01*
X13477500Y-82185000D01*
G75*
G02*
X13330000Y-82037500I0J147500D01*
G01*
X13330000Y-81742500D01*
G75*
G02*
X13477500Y-81595000I147500J0D01*
G01*
G37*
G04 #@! TD*
G04 #@! TO.C,C36*
G36*
G01*
X15269600Y-78714300D02*
X15269600Y-79059300D01*
G75*
G02*
X15122100Y-79206800I-147500J0D01*
G01*
X14827100Y-79206800D01*
G75*
G02*
X14679600Y-79059300I0J147500D01*
G01*
X14679600Y-78714300D01*
G75*
G02*
X14827100Y-78566800I147500J0D01*
G01*
X15122100Y-78566800D01*
G75*
G02*
X15269600Y-78714300I0J-147500D01*
G01*
G37*
G36*
G01*
X16239600Y-78714300D02*
X16239600Y-79059300D01*
G75*
G02*
X16092100Y-79206800I-147500J0D01*
G01*
X15797100Y-79206800D01*
G75*
G02*
X15649600Y-79059300I0J147500D01*
G01*
X15649600Y-78714300D01*
G75*
G02*
X15797100Y-78566800I147500J0D01*
G01*
X16092100Y-78566800D01*
G75*
G02*
X16239600Y-78714300I0J-147500D01*
G01*
G37*
G04 #@! TD*
G04 #@! TO.C,C35*
G36*
G01*
X12284560Y-67684400D02*
X12284560Y-68029400D01*
G75*
G02*
X12137060Y-68176900I-147500J0D01*
G01*
X11842060Y-68176900D01*
G75*
G02*
X11694560Y-68029400I0J147500D01*
G01*
X11694560Y-67684400D01*
G75*
G02*
X11842060Y-67536900I147500J0D01*
G01*
X12137060Y-67536900D01*
G75*
G02*
X12284560Y-67684400I0J-147500D01*
G01*
G37*
G36*
G01*
X13254560Y-67684400D02*
X13254560Y-68029400D01*
G75*
G02*
X13107060Y-68176900I-147500J0D01*
G01*
X12812060Y-68176900D01*
G75*
G02*
X12664560Y-68029400I0J147500D01*
G01*
X12664560Y-67684400D01*
G75*
G02*
X12812060Y-67536900I147500J0D01*
G01*
X13107060Y-67536900D01*
G75*
G02*
X13254560Y-67684400I0J-147500D01*
G01*
G37*
G04 #@! TD*
G04 #@! TO.C,C33*
G36*
G01*
X38341800Y-39007000D02*
X38341800Y-39352000D01*
G75*
G02*
X38194300Y-39499500I-147500J0D01*
G01*
X37899300Y-39499500D01*
G75*
G02*
X37751800Y-39352000I0J147500D01*
G01*
X37751800Y-39007000D01*
G75*
G02*
X37899300Y-38859500I147500J0D01*
G01*
X38194300Y-38859500D01*
G75*
G02*
X38341800Y-39007000I0J-147500D01*
G01*
G37*
G36*
G01*
X39311800Y-39007000D02*
X39311800Y-39352000D01*
G75*
G02*
X39164300Y-39499500I-147500J0D01*
G01*
X38869300Y-39499500D01*
G75*
G02*
X38721800Y-39352000I0J147500D01*
G01*
X38721800Y-39007000D01*
G75*
G02*
X38869300Y-38859500I147500J0D01*
G01*
X39164300Y-38859500D01*
G75*
G02*
X39311800Y-39007000I0J-147500D01*
G01*
G37*
G04 #@! TD*
G04 #@! TO.C,C32*
G36*
G01*
X38721800Y-42641298D02*
X38721800Y-42296298D01*
G75*
G02*
X38869300Y-42148798I147500J0D01*
G01*
X39164300Y-42148798D01*
G75*
G02*
X39311800Y-42296298I0J-147500D01*
G01*
X39311800Y-42641298D01*
G75*
G02*
X39164300Y-42788798I-147500J0D01*
G01*
X38869300Y-42788798D01*
G75*
G02*
X38721800Y-42641298I0J147500D01*
G01*
G37*
G36*
G01*
X37751800Y-42641298D02*
X37751800Y-42296298D01*
G75*
G02*
X37899300Y-42148798I147500J0D01*
G01*
X38194300Y-42148798D01*
G75*
G02*
X38341800Y-42296298I0J-147500D01*
G01*
X38341800Y-42641298D01*
G75*
G02*
X38194300Y-42788798I-147500J0D01*
G01*
X37899300Y-42788798D01*
G75*
G02*
X37751800Y-42641298I0J147500D01*
G01*
G37*
G04 #@! TD*
G04 #@! TO.C,C31*
G36*
G01*
X38341800Y-41199864D02*
X38341800Y-41544864D01*
G75*
G02*
X38194300Y-41692364I-147500J0D01*
G01*
X37899300Y-41692364D01*
G75*
G02*
X37751800Y-41544864I0J147500D01*
G01*
X37751800Y-41199864D01*
G75*
G02*
X37899300Y-41052364I147500J0D01*
G01*
X38194300Y-41052364D01*
G75*
G02*
X38341800Y-41199864I0J-147500D01*
G01*
G37*
G36*
G01*
X39311800Y-41199864D02*
X39311800Y-41544864D01*
G75*
G02*
X39164300Y-41692364I-147500J0D01*
G01*
X38869300Y-41692364D01*
G75*
G02*
X38721800Y-41544864I0J147500D01*
G01*
X38721800Y-41199864D01*
G75*
G02*
X38869300Y-41052364I147500J0D01*
G01*
X39164300Y-41052364D01*
G75*
G02*
X39311800Y-41199864I0J-147500D01*
G01*
G37*
G04 #@! TD*
G04 #@! TO.C,C30*
G36*
G01*
X33338000Y-42189620D02*
X33338000Y-42534620D01*
G75*
G02*
X33190500Y-42682120I-147500J0D01*
G01*
X32895500Y-42682120D01*
G75*
G02*
X32748000Y-42534620I0J147500D01*
G01*
X32748000Y-42189620D01*
G75*
G02*
X32895500Y-42042120I147500J0D01*
G01*
X33190500Y-42042120D01*
G75*
G02*
X33338000Y-42189620I0J-147500D01*
G01*
G37*
G36*
G01*
X34308000Y-42189620D02*
X34308000Y-42534620D01*
G75*
G02*
X34160500Y-42682120I-147500J0D01*
G01*
X33865500Y-42682120D01*
G75*
G02*
X33718000Y-42534620I0J147500D01*
G01*
X33718000Y-42189620D01*
G75*
G02*
X33865500Y-42042120I147500J0D01*
G01*
X34160500Y-42042120D01*
G75*
G02*
X34308000Y-42189620I0J-147500D01*
G01*
G37*
G04 #@! TD*
G04 #@! TO.C,C29*
G36*
G01*
X33718000Y-41378920D02*
X33718000Y-41033920D01*
G75*
G02*
X33865500Y-40886420I147500J0D01*
G01*
X34160500Y-40886420D01*
G75*
G02*
X34308000Y-41033920I0J-147500D01*
G01*
X34308000Y-41378920D01*
G75*
G02*
X34160500Y-41526420I-147500J0D01*
G01*
X33865500Y-41526420D01*
G75*
G02*
X33718000Y-41378920I0J147500D01*
G01*
G37*
G36*
G01*
X32748000Y-41378920D02*
X32748000Y-41033920D01*
G75*
G02*
X32895500Y-40886420I147500J0D01*
G01*
X33190500Y-40886420D01*
G75*
G02*
X33338000Y-41033920I0J-147500D01*
G01*
X33338000Y-41378920D01*
G75*
G02*
X33190500Y-41526420I-147500J0D01*
G01*
X32895500Y-41526420D01*
G75*
G02*
X32748000Y-41378920I0J147500D01*
G01*
G37*
G04 #@! TD*
G04 #@! TO.C,C28*
G36*
G01*
X39758400Y-35573200D02*
X39413400Y-35573200D01*
G75*
G02*
X39265900Y-35425700I0J147500D01*
G01*
X39265900Y-35130700D01*
G75*
G02*
X39413400Y-34983200I147500J0D01*
G01*
X39758400Y-34983200D01*
G75*
G02*
X39905900Y-35130700I0J-147500D01*
G01*
X39905900Y-35425700D01*
G75*
G02*
X39758400Y-35573200I-147500J0D01*
G01*
G37*
G36*
G01*
X39758400Y-36543200D02*
X39413400Y-36543200D01*
G75*
G02*
X39265900Y-36395700I0J147500D01*
G01*
X39265900Y-36100700D01*
G75*
G02*
X39413400Y-35953200I147500J0D01*
G01*
X39758400Y-35953200D01*
G75*
G02*
X39905900Y-36100700I0J-147500D01*
G01*
X39905900Y-36395700D01*
G75*
G02*
X39758400Y-36543200I-147500J0D01*
G01*
G37*
G04 #@! TD*
G04 #@! TO.C,C8*
G36*
G01*
X48660000Y-5127500D02*
X48660000Y-5472500D01*
G75*
G02*
X48512500Y-5620000I-147500J0D01*
G01*
X48217500Y-5620000D01*
G75*
G02*
X48070000Y-5472500I0J147500D01*
G01*
X48070000Y-5127500D01*
G75*
G02*
X48217500Y-4980000I147500J0D01*
G01*
X48512500Y-4980000D01*
G75*
G02*
X48660000Y-5127500I0J-147500D01*
G01*
G37*
G36*
G01*
X49630000Y-5127500D02*
X49630000Y-5472500D01*
G75*
G02*
X49482500Y-5620000I-147500J0D01*
G01*
X49187500Y-5620000D01*
G75*
G02*
X49040000Y-5472500I0J147500D01*
G01*
X49040000Y-5127500D01*
G75*
G02*
X49187500Y-4980000I147500J0D01*
G01*
X49482500Y-4980000D01*
G75*
G02*
X49630000Y-5127500I0J-147500D01*
G01*
G37*
G04 #@! TD*
G04 #@! TO.C,R27*
G36*
G01*
X54457100Y-34513300D02*
X54457100Y-34168300D01*
G75*
G02*
X54604600Y-34020800I147500J0D01*
G01*
X54899600Y-34020800D01*
G75*
G02*
X55047100Y-34168300I0J-147500D01*
G01*
X55047100Y-34513300D01*
G75*
G02*
X54899600Y-34660800I-147500J0D01*
G01*
X54604600Y-34660800D01*
G75*
G02*
X54457100Y-34513300I0J147500D01*
G01*
G37*
G36*
G01*
X53487100Y-34513300D02*
X53487100Y-34168300D01*
G75*
G02*
X53634600Y-34020800I147500J0D01*
G01*
X53929600Y-34020800D01*
G75*
G02*
X54077100Y-34168300I0J-147500D01*
G01*
X54077100Y-34513300D01*
G75*
G02*
X53929600Y-34660800I-147500J0D01*
G01*
X53634600Y-34660800D01*
G75*
G02*
X53487100Y-34513300I0J147500D01*
G01*
G37*
G04 #@! TD*
G04 #@! TO.C,R46*
G36*
G01*
X11569200Y-87434200D02*
X11569200Y-87089200D01*
G75*
G02*
X11716700Y-86941700I147500J0D01*
G01*
X12011700Y-86941700D01*
G75*
G02*
X12159200Y-87089200I0J-147500D01*
G01*
X12159200Y-87434200D01*
G75*
G02*
X12011700Y-87581700I-147500J0D01*
G01*
X11716700Y-87581700D01*
G75*
G02*
X11569200Y-87434200I0J147500D01*
G01*
G37*
G36*
G01*
X10599200Y-87434200D02*
X10599200Y-87089200D01*
G75*
G02*
X10746700Y-86941700I147500J0D01*
G01*
X11041700Y-86941700D01*
G75*
G02*
X11189200Y-87089200I0J-147500D01*
G01*
X11189200Y-87434200D01*
G75*
G02*
X11041700Y-87581700I-147500J0D01*
G01*
X10746700Y-87581700D01*
G75*
G02*
X10599200Y-87434200I0J147500D01*
G01*
G37*
G04 #@! TD*
G04 #@! TO.C,R45*
G36*
G01*
X11505700Y-86253100D02*
X11505700Y-85908100D01*
G75*
G02*
X11653200Y-85760600I147500J0D01*
G01*
X11948200Y-85760600D01*
G75*
G02*
X12095700Y-85908100I0J-147500D01*
G01*
X12095700Y-86253100D01*
G75*
G02*
X11948200Y-86400600I-147500J0D01*
G01*
X11653200Y-86400600D01*
G75*
G02*
X11505700Y-86253100I0J147500D01*
G01*
G37*
G36*
G01*
X10535700Y-86253100D02*
X10535700Y-85908100D01*
G75*
G02*
X10683200Y-85760600I147500J0D01*
G01*
X10978200Y-85760600D01*
G75*
G02*
X11125700Y-85908100I0J-147500D01*
G01*
X11125700Y-86253100D01*
G75*
G02*
X10978200Y-86400600I-147500J0D01*
G01*
X10683200Y-86400600D01*
G75*
G02*
X10535700Y-86253100I0J147500D01*
G01*
G37*
G04 #@! TD*
G04 #@! TO.C,R44*
G36*
G01*
X21246600Y-12148600D02*
X21246600Y-11803600D01*
G75*
G02*
X21394100Y-11656100I147500J0D01*
G01*
X21689100Y-11656100D01*
G75*
G02*
X21836600Y-11803600I0J-147500D01*
G01*
X21836600Y-12148600D01*
G75*
G02*
X21689100Y-12296100I-147500J0D01*
G01*
X21394100Y-12296100D01*
G75*
G02*
X21246600Y-12148600I0J147500D01*
G01*
G37*
G36*
G01*
X20276600Y-12148600D02*
X20276600Y-11803600D01*
G75*
G02*
X20424100Y-11656100I147500J0D01*
G01*
X20719100Y-11656100D01*
G75*
G02*
X20866600Y-11803600I0J-147500D01*
G01*
X20866600Y-12148600D01*
G75*
G02*
X20719100Y-12296100I-147500J0D01*
G01*
X20424100Y-12296100D01*
G75*
G02*
X20276600Y-12148600I0J147500D01*
G01*
G37*
G04 #@! TD*
G04 #@! TO.C,R43*
G36*
G01*
X23508200Y-11803600D02*
X23508200Y-12148600D01*
G75*
G02*
X23360700Y-12296100I-147500J0D01*
G01*
X23065700Y-12296100D01*
G75*
G02*
X22918200Y-12148600I0J147500D01*
G01*
X22918200Y-11803600D01*
G75*
G02*
X23065700Y-11656100I147500J0D01*
G01*
X23360700Y-11656100D01*
G75*
G02*
X23508200Y-11803600I0J-147500D01*
G01*
G37*
G36*
G01*
X24478200Y-11803600D02*
X24478200Y-12148600D01*
G75*
G02*
X24330700Y-12296100I-147500J0D01*
G01*
X24035700Y-12296100D01*
G75*
G02*
X23888200Y-12148600I0J147500D01*
G01*
X23888200Y-11803600D01*
G75*
G02*
X24035700Y-11656100I147500J0D01*
G01*
X24330700Y-11656100D01*
G75*
G02*
X24478200Y-11803600I0J-147500D01*
G01*
G37*
G04 #@! TD*
G04 #@! TO.C,R41*
G36*
G01*
X26012360Y-68536320D02*
X26357360Y-68536320D01*
G75*
G02*
X26504860Y-68683820I0J-147500D01*
G01*
X26504860Y-68978820D01*
G75*
G02*
X26357360Y-69126320I-147500J0D01*
G01*
X26012360Y-69126320D01*
G75*
G02*
X25864860Y-68978820I0J147500D01*
G01*
X25864860Y-68683820D01*
G75*
G02*
X26012360Y-68536320I147500J0D01*
G01*
G37*
G36*
G01*
X26012360Y-67566320D02*
X26357360Y-67566320D01*
G75*
G02*
X26504860Y-67713820I0J-147500D01*
G01*
X26504860Y-68008820D01*
G75*
G02*
X26357360Y-68156320I-147500J0D01*
G01*
X26012360Y-68156320D01*
G75*
G02*
X25864860Y-68008820I0J147500D01*
G01*
X25864860Y-67713820D01*
G75*
G02*
X26012360Y-67566320I147500J0D01*
G01*
G37*
G04 #@! TD*
G04 #@! TO.C,R36*
G36*
G01*
X34866800Y-88670900D02*
X35211800Y-88670900D01*
G75*
G02*
X35359300Y-88818400I0J-147500D01*
G01*
X35359300Y-89113400D01*
G75*
G02*
X35211800Y-89260900I-147500J0D01*
G01*
X34866800Y-89260900D01*
G75*
G02*
X34719300Y-89113400I0J147500D01*
G01*
X34719300Y-88818400D01*
G75*
G02*
X34866800Y-88670900I147500J0D01*
G01*
G37*
G36*
G01*
X34866800Y-87700900D02*
X35211800Y-87700900D01*
G75*
G02*
X35359300Y-87848400I0J-147500D01*
G01*
X35359300Y-88143400D01*
G75*
G02*
X35211800Y-88290900I-147500J0D01*
G01*
X34866800Y-88290900D01*
G75*
G02*
X34719300Y-88143400I0J147500D01*
G01*
X34719300Y-87848400D01*
G75*
G02*
X34866800Y-87700900I147500J0D01*
G01*
G37*
G04 #@! TD*
G04 #@! TO.C,R35*
G36*
G01*
X30906940Y-88084160D02*
X31251940Y-88084160D01*
G75*
G02*
X31399440Y-88231660I0J-147500D01*
G01*
X31399440Y-88526660D01*
G75*
G02*
X31251940Y-88674160I-147500J0D01*
G01*
X30906940Y-88674160D01*
G75*
G02*
X30759440Y-88526660I0J147500D01*
G01*
X30759440Y-88231660D01*
G75*
G02*
X30906940Y-88084160I147500J0D01*
G01*
G37*
G36*
G01*
X30906940Y-87114160D02*
X31251940Y-87114160D01*
G75*
G02*
X31399440Y-87261660I0J-147500D01*
G01*
X31399440Y-87556660D01*
G75*
G02*
X31251940Y-87704160I-147500J0D01*
G01*
X30906940Y-87704160D01*
G75*
G02*
X30759440Y-87556660I0J147500D01*
G01*
X30759440Y-87261660D01*
G75*
G02*
X30906940Y-87114160I147500J0D01*
G01*
G37*
G04 #@! TD*
G04 #@! TO.C,R34*
G36*
G01*
X17231580Y-66171580D02*
X17576580Y-66171580D01*
G75*
G02*
X17724080Y-66319080I0J-147500D01*
G01*
X17724080Y-66614080D01*
G75*
G02*
X17576580Y-66761580I-147500J0D01*
G01*
X17231580Y-66761580D01*
G75*
G02*
X17084080Y-66614080I0J147500D01*
G01*
X17084080Y-66319080D01*
G75*
G02*
X17231580Y-66171580I147500J0D01*
G01*
G37*
G36*
G01*
X17231580Y-65201580D02*
X17576580Y-65201580D01*
G75*
G02*
X17724080Y-65349080I0J-147500D01*
G01*
X17724080Y-65644080D01*
G75*
G02*
X17576580Y-65791580I-147500J0D01*
G01*
X17231580Y-65791580D01*
G75*
G02*
X17084080Y-65644080I0J147500D01*
G01*
X17084080Y-65349080D01*
G75*
G02*
X17231580Y-65201580I147500J0D01*
G01*
G37*
G04 #@! TD*
G04 #@! TO.C,R32*
G36*
G01*
X22550700Y-80631800D02*
X22895700Y-80631800D01*
G75*
G02*
X23043200Y-80779300I0J-147500D01*
G01*
X23043200Y-81074300D01*
G75*
G02*
X22895700Y-81221800I-147500J0D01*
G01*
X22550700Y-81221800D01*
G75*
G02*
X22403200Y-81074300I0J147500D01*
G01*
X22403200Y-80779300D01*
G75*
G02*
X22550700Y-80631800I147500J0D01*
G01*
G37*
G36*
G01*
X22550700Y-79661800D02*
X22895700Y-79661800D01*
G75*
G02*
X23043200Y-79809300I0J-147500D01*
G01*
X23043200Y-80104300D01*
G75*
G02*
X22895700Y-80251800I-147500J0D01*
G01*
X22550700Y-80251800D01*
G75*
G02*
X22403200Y-80104300I0J147500D01*
G01*
X22403200Y-79809300D01*
G75*
G02*
X22550700Y-79661800I147500J0D01*
G01*
G37*
G04 #@! TD*
G04 #@! TO.C,R30*
G36*
G01*
X27502620Y-49529780D02*
X27502620Y-49184780D01*
G75*
G02*
X27650120Y-49037280I147500J0D01*
G01*
X27945120Y-49037280D01*
G75*
G02*
X28092620Y-49184780I0J-147500D01*
G01*
X28092620Y-49529780D01*
G75*
G02*
X27945120Y-49677280I-147500J0D01*
G01*
X27650120Y-49677280D01*
G75*
G02*
X27502620Y-49529780I0J147500D01*
G01*
G37*
G36*
G01*
X26532620Y-49529780D02*
X26532620Y-49184780D01*
G75*
G02*
X26680120Y-49037280I147500J0D01*
G01*
X26975120Y-49037280D01*
G75*
G02*
X27122620Y-49184780I0J-147500D01*
G01*
X27122620Y-49529780D01*
G75*
G02*
X26975120Y-49677280I-147500J0D01*
G01*
X26680120Y-49677280D01*
G75*
G02*
X26532620Y-49529780I0J147500D01*
G01*
G37*
G04 #@! TD*
G04 #@! TO.C,R26*
G36*
G01*
X14712180Y-62595980D02*
X14712180Y-62940980D01*
G75*
G02*
X14564680Y-63088480I-147500J0D01*
G01*
X14269680Y-63088480D01*
G75*
G02*
X14122180Y-62940980I0J147500D01*
G01*
X14122180Y-62595980D01*
G75*
G02*
X14269680Y-62448480I147500J0D01*
G01*
X14564680Y-62448480D01*
G75*
G02*
X14712180Y-62595980I0J-147500D01*
G01*
G37*
G36*
G01*
X15682180Y-62595980D02*
X15682180Y-62940980D01*
G75*
G02*
X15534680Y-63088480I-147500J0D01*
G01*
X15239680Y-63088480D01*
G75*
G02*
X15092180Y-62940980I0J147500D01*
G01*
X15092180Y-62595980D01*
G75*
G02*
X15239680Y-62448480I147500J0D01*
G01*
X15534680Y-62448480D01*
G75*
G02*
X15682180Y-62595980I0J-147500D01*
G01*
G37*
G04 #@! TD*
G04 #@! TO.C,R23*
G36*
G01*
X27502620Y-48259780D02*
X27502620Y-47914780D01*
G75*
G02*
X27650120Y-47767280I147500J0D01*
G01*
X27945120Y-47767280D01*
G75*
G02*
X28092620Y-47914780I0J-147500D01*
G01*
X28092620Y-48259780D01*
G75*
G02*
X27945120Y-48407280I-147500J0D01*
G01*
X27650120Y-48407280D01*
G75*
G02*
X27502620Y-48259780I0J147500D01*
G01*
G37*
G36*
G01*
X26532620Y-48259780D02*
X26532620Y-47914780D01*
G75*
G02*
X26680120Y-47767280I147500J0D01*
G01*
X26975120Y-47767280D01*
G75*
G02*
X27122620Y-47914780I0J-147500D01*
G01*
X27122620Y-48259780D01*
G75*
G02*
X26975120Y-48407280I-147500J0D01*
G01*
X26680120Y-48407280D01*
G75*
G02*
X26532620Y-48259780I0J147500D01*
G01*
G37*
G04 #@! TD*
G04 #@! TO.C,R8*
G36*
G01*
X48660000Y-3877500D02*
X48660000Y-4222500D01*
G75*
G02*
X48512500Y-4370000I-147500J0D01*
G01*
X48217500Y-4370000D01*
G75*
G02*
X48070000Y-4222500I0J147500D01*
G01*
X48070000Y-3877500D01*
G75*
G02*
X48217500Y-3730000I147500J0D01*
G01*
X48512500Y-3730000D01*
G75*
G02*
X48660000Y-3877500I0J-147500D01*
G01*
G37*
G36*
G01*
X49630000Y-3877500D02*
X49630000Y-4222500D01*
G75*
G02*
X49482500Y-4370000I-147500J0D01*
G01*
X49187500Y-4370000D01*
G75*
G02*
X49040000Y-4222500I0J147500D01*
G01*
X49040000Y-3877500D01*
G75*
G02*
X49187500Y-3730000I147500J0D01*
G01*
X49482500Y-3730000D01*
G75*
G02*
X49630000Y-3877500I0J-147500D01*
G01*
G37*
G04 #@! TD*
D11*
G04 #@! TO.C,D20*
X15748000Y-84775800D03*
X16698000Y-86775800D03*
X14798000Y-86775800D03*
G04 #@! TD*
D30*
G04 #@! TO.C,U6*
X33142880Y-52585620D03*
X33142880Y-51950620D03*
X33142880Y-51315620D03*
X33142880Y-50680620D03*
X33142880Y-50045620D03*
X33142880Y-49410620D03*
X33142880Y-48775620D03*
X33142880Y-48140620D03*
X33142880Y-47505620D03*
X33142880Y-46870620D03*
X33142880Y-46235620D03*
X33142880Y-45600620D03*
X33142880Y-44965620D03*
X33142880Y-44330620D03*
X38342880Y-44330620D03*
X38342880Y-44965620D03*
X38342880Y-45600620D03*
X38342880Y-46235620D03*
X38342880Y-46870620D03*
X38342880Y-47505620D03*
X38342880Y-48140620D03*
X38342880Y-48775620D03*
X38342880Y-49410620D03*
X38342880Y-50045620D03*
X38342880Y-50680620D03*
X38342880Y-51315620D03*
X38342880Y-51950620D03*
X38342880Y-52585620D03*
G04 #@! TD*
D31*
G04 #@! TO.C,D1*
X37714100Y-35905440D03*
X35514100Y-35905440D03*
G04 #@! TD*
G04 #@! TO.C,C10*
G36*
G01*
X48996200Y-76434100D02*
X49341200Y-76434100D01*
G75*
G02*
X49488700Y-76581600I0J-147500D01*
G01*
X49488700Y-76876600D01*
G75*
G02*
X49341200Y-77024100I-147500J0D01*
G01*
X48996200Y-77024100D01*
G75*
G02*
X48848700Y-76876600I0J147500D01*
G01*
X48848700Y-76581600D01*
G75*
G02*
X48996200Y-76434100I147500J0D01*
G01*
G37*
G36*
G01*
X48996200Y-77404100D02*
X49341200Y-77404100D01*
G75*
G02*
X49488700Y-77551600I0J-147500D01*
G01*
X49488700Y-77846600D01*
G75*
G02*
X49341200Y-77994100I-147500J0D01*
G01*
X48996200Y-77994100D01*
G75*
G02*
X48848700Y-77846600I0J147500D01*
G01*
X48848700Y-77551600D01*
G75*
G02*
X48996200Y-77404100I147500J0D01*
G01*
G37*
G04 #@! TD*
G04 #@! TO.C,U13*
G36*
G01*
X21892400Y-36228700D02*
X21592400Y-36228700D01*
G75*
G02*
X21442400Y-36078700I0J150000D01*
G01*
X21442400Y-34428700D01*
G75*
G02*
X21592400Y-34278700I150000J0D01*
G01*
X21892400Y-34278700D01*
G75*
G02*
X22042400Y-34428700I0J-150000D01*
G01*
X22042400Y-36078700D01*
G75*
G02*
X21892400Y-36228700I-150000J0D01*
G01*
G37*
G36*
G01*
X23162400Y-36228700D02*
X22862400Y-36228700D01*
G75*
G02*
X22712400Y-36078700I0J150000D01*
G01*
X22712400Y-34428700D01*
G75*
G02*
X22862400Y-34278700I150000J0D01*
G01*
X23162400Y-34278700D01*
G75*
G02*
X23312400Y-34428700I0J-150000D01*
G01*
X23312400Y-36078700D01*
G75*
G02*
X23162400Y-36228700I-150000J0D01*
G01*
G37*
G36*
G01*
X24432400Y-36228700D02*
X24132400Y-36228700D01*
G75*
G02*
X23982400Y-36078700I0J150000D01*
G01*
X23982400Y-34428700D01*
G75*
G02*
X24132400Y-34278700I150000J0D01*
G01*
X24432400Y-34278700D01*
G75*
G02*
X24582400Y-34428700I0J-150000D01*
G01*
X24582400Y-36078700D01*
G75*
G02*
X24432400Y-36228700I-150000J0D01*
G01*
G37*
G36*
G01*
X25702400Y-36228700D02*
X25402400Y-36228700D01*
G75*
G02*
X25252400Y-36078700I0J150000D01*
G01*
X25252400Y-34428700D01*
G75*
G02*
X25402400Y-34278700I150000J0D01*
G01*
X25702400Y-34278700D01*
G75*
G02*
X25852400Y-34428700I0J-150000D01*
G01*
X25852400Y-36078700D01*
G75*
G02*
X25702400Y-36228700I-150000J0D01*
G01*
G37*
G36*
G01*
X26972400Y-36228700D02*
X26672400Y-36228700D01*
G75*
G02*
X26522400Y-36078700I0J150000D01*
G01*
X26522400Y-34428700D01*
G75*
G02*
X26672400Y-34278700I150000J0D01*
G01*
X26972400Y-34278700D01*
G75*
G02*
X27122400Y-34428700I0J-150000D01*
G01*
X27122400Y-36078700D01*
G75*
G02*
X26972400Y-36228700I-150000J0D01*
G01*
G37*
G36*
G01*
X28242400Y-36228700D02*
X27942400Y-36228700D01*
G75*
G02*
X27792400Y-36078700I0J150000D01*
G01*
X27792400Y-34428700D01*
G75*
G02*
X27942400Y-34278700I150000J0D01*
G01*
X28242400Y-34278700D01*
G75*
G02*
X28392400Y-34428700I0J-150000D01*
G01*
X28392400Y-36078700D01*
G75*
G02*
X28242400Y-36228700I-150000J0D01*
G01*
G37*
G36*
G01*
X29512400Y-36228700D02*
X29212400Y-36228700D01*
G75*
G02*
X29062400Y-36078700I0J150000D01*
G01*
X29062400Y-34428700D01*
G75*
G02*
X29212400Y-34278700I150000J0D01*
G01*
X29512400Y-34278700D01*
G75*
G02*
X29662400Y-34428700I0J-150000D01*
G01*
X29662400Y-36078700D01*
G75*
G02*
X29512400Y-36228700I-150000J0D01*
G01*
G37*
G36*
G01*
X29512400Y-31278700D02*
X29212400Y-31278700D01*
G75*
G02*
X29062400Y-31128700I0J150000D01*
G01*
X29062400Y-29478700D01*
G75*
G02*
X29212400Y-29328700I150000J0D01*
G01*
X29512400Y-29328700D01*
G75*
G02*
X29662400Y-29478700I0J-150000D01*
G01*
X29662400Y-31128700D01*
G75*
G02*
X29512400Y-31278700I-150000J0D01*
G01*
G37*
G36*
G01*
X28242400Y-31278700D02*
X27942400Y-31278700D01*
G75*
G02*
X27792400Y-31128700I0J150000D01*
G01*
X27792400Y-29478700D01*
G75*
G02*
X27942400Y-29328700I150000J0D01*
G01*
X28242400Y-29328700D01*
G75*
G02*
X28392400Y-29478700I0J-150000D01*
G01*
X28392400Y-31128700D01*
G75*
G02*
X28242400Y-31278700I-150000J0D01*
G01*
G37*
G36*
G01*
X26972400Y-31278700D02*
X26672400Y-31278700D01*
G75*
G02*
X26522400Y-31128700I0J150000D01*
G01*
X26522400Y-29478700D01*
G75*
G02*
X26672400Y-29328700I150000J0D01*
G01*
X26972400Y-29328700D01*
G75*
G02*
X27122400Y-29478700I0J-150000D01*
G01*
X27122400Y-31128700D01*
G75*
G02*
X26972400Y-31278700I-150000J0D01*
G01*
G37*
G36*
G01*
X25702400Y-31278700D02*
X25402400Y-31278700D01*
G75*
G02*
X25252400Y-31128700I0J150000D01*
G01*
X25252400Y-29478700D01*
G75*
G02*
X25402400Y-29328700I150000J0D01*
G01*
X25702400Y-29328700D01*
G75*
G02*
X25852400Y-29478700I0J-150000D01*
G01*
X25852400Y-31128700D01*
G75*
G02*
X25702400Y-31278700I-150000J0D01*
G01*
G37*
G36*
G01*
X24432400Y-31278700D02*
X24132400Y-31278700D01*
G75*
G02*
X23982400Y-31128700I0J150000D01*
G01*
X23982400Y-29478700D01*
G75*
G02*
X24132400Y-29328700I150000J0D01*
G01*
X24432400Y-29328700D01*
G75*
G02*
X24582400Y-29478700I0J-150000D01*
G01*
X24582400Y-31128700D01*
G75*
G02*
X24432400Y-31278700I-150000J0D01*
G01*
G37*
G36*
G01*
X23162400Y-31278700D02*
X22862400Y-31278700D01*
G75*
G02*
X22712400Y-31128700I0J150000D01*
G01*
X22712400Y-29478700D01*
G75*
G02*
X22862400Y-29328700I150000J0D01*
G01*
X23162400Y-29328700D01*
G75*
G02*
X23312400Y-29478700I0J-150000D01*
G01*
X23312400Y-31128700D01*
G75*
G02*
X23162400Y-31278700I-150000J0D01*
G01*
G37*
G36*
G01*
X21892400Y-31278700D02*
X21592400Y-31278700D01*
G75*
G02*
X21442400Y-31128700I0J150000D01*
G01*
X21442400Y-29478700D01*
G75*
G02*
X21592400Y-29328700I150000J0D01*
G01*
X21892400Y-29328700D01*
G75*
G02*
X22042400Y-29478700I0J-150000D01*
G01*
X22042400Y-31128700D01*
G75*
G02*
X21892400Y-31278700I-150000J0D01*
G01*
G37*
G04 #@! TD*
M02*
