G04 #@! TF.GenerationSoftware,KiCad,Pcbnew,(5.1.9)-1*
G04 #@! TF.CreationDate,2021-01-16T15:24:31-08:00*
G04 #@! TF.ProjectId,SJ-201-R6,534a2d32-3031-42d5-9236-2e6b69636164,rev?*
G04 #@! TF.SameCoordinates,Original*
G04 #@! TF.FileFunction,Other,Fab,Bot*
%FSLAX46Y46*%
G04 Gerber Fmt 4.6, Leading zero omitted, Abs format (unit mm)*
G04 Created by KiCad (PCBNEW (5.1.9)-1) date 2021-01-16 15:24:31*
%MOMM*%
%LPD*%
G01*
G04 APERTURE LIST*
%ADD10C,0.100000*%
%ADD11C,0.150000*%
G04 APERTURE END LIST*
D10*
G04 #@! TO.C,J10*
X25275000Y-25520000D02*
X25910000Y-24885000D01*
X15750000Y-25520000D02*
X25275000Y-25520000D01*
X15750000Y-22980000D02*
X15750000Y-25520000D01*
X25910000Y-22980000D02*
X15750000Y-22980000D01*
X25910000Y-24885000D02*
X25910000Y-22980000D01*
G04 #@! TO.C,D3*
X29313380Y-36110520D02*
G75*
G03*
X29313380Y-36110520I-1000000J0D01*
G01*
X26563380Y-34360520D02*
X26563380Y-37860520D01*
X30063380Y-34360520D02*
X26563380Y-34360520D01*
X30063380Y-37860520D02*
X30063380Y-34360520D01*
X26563380Y-37860520D02*
X30063380Y-37860520D01*
X26598880Y-37075020D02*
X27348880Y-37825020D01*
G04 #@! TO.C,D4*
X24995380Y-42206520D02*
G75*
G03*
X24995380Y-42206520I-1000000J0D01*
G01*
X22245380Y-40456520D02*
X22245380Y-43956520D01*
X25745380Y-40456520D02*
X22245380Y-40456520D01*
X25745380Y-43956520D02*
X25745380Y-40456520D01*
X22245380Y-43956520D02*
X25745380Y-43956520D01*
X22280880Y-43171020D02*
X23030880Y-43921020D01*
G04 #@! TO.C,D5*
X21845780Y-49064520D02*
G75*
G03*
X21845780Y-49064520I-1000000J0D01*
G01*
X19095780Y-47314520D02*
X19095780Y-50814520D01*
X22595780Y-47314520D02*
X19095780Y-47314520D01*
X22595780Y-50814520D02*
X22595780Y-47314520D01*
X19095780Y-50814520D02*
X22595780Y-50814520D01*
X19131280Y-50029020D02*
X19881280Y-50779020D01*
G04 #@! TO.C,D6*
X24944580Y-55922520D02*
G75*
G03*
X24944580Y-55922520I-1000000J0D01*
G01*
X22194580Y-54172520D02*
X22194580Y-57672520D01*
X25694580Y-54172520D02*
X22194580Y-54172520D01*
X25694580Y-57672520D02*
X25694580Y-54172520D01*
X22194580Y-57672520D02*
X25694580Y-57672520D01*
X22230080Y-56887020D02*
X22980080Y-57637020D01*
G04 #@! TO.C,D7*
X29364180Y-61967720D02*
G75*
G03*
X29364180Y-61967720I-1000000J0D01*
G01*
X26614180Y-60217720D02*
X26614180Y-63717720D01*
X30114180Y-60217720D02*
X26614180Y-60217720D01*
X30114180Y-63717720D02*
X30114180Y-60217720D01*
X26614180Y-63717720D02*
X30114180Y-63717720D01*
X26649680Y-62932220D02*
X27399680Y-63682220D01*
G04 #@! TO.C,D8*
X36831780Y-62628120D02*
G75*
G03*
X36831780Y-62628120I-1000000J0D01*
G01*
X34081780Y-60878120D02*
X34081780Y-64378120D01*
X37581780Y-60878120D02*
X34081780Y-60878120D01*
X37581780Y-64378120D02*
X37581780Y-60878120D01*
X34081780Y-64378120D02*
X37581780Y-64378120D01*
X34117280Y-63592620D02*
X34867280Y-64342620D01*
G04 #@! TO.C,D9*
X44350180Y-62018520D02*
G75*
G03*
X44350180Y-62018520I-1000000J0D01*
G01*
X41600180Y-60268520D02*
X41600180Y-63768520D01*
X45100180Y-60268520D02*
X41600180Y-60268520D01*
X45100180Y-63768520D02*
X45100180Y-60268520D01*
X41600180Y-63768520D02*
X45100180Y-63768520D01*
X41635680Y-62983020D02*
X42385680Y-63733020D01*
G04 #@! TO.C,D10*
X48718980Y-55820920D02*
G75*
G03*
X48718980Y-55820920I-1000000J0D01*
G01*
X45968980Y-54070920D02*
X45968980Y-57570920D01*
X49468980Y-54070920D02*
X45968980Y-54070920D01*
X49468980Y-57570920D02*
X49468980Y-54070920D01*
X45968980Y-57570920D02*
X49468980Y-57570920D01*
X46004480Y-56785420D02*
X46754480Y-57535420D01*
G04 #@! TO.C,D11*
X51817780Y-49013720D02*
G75*
G03*
X51817780Y-49013720I-1000000J0D01*
G01*
X49067780Y-47263720D02*
X49067780Y-50763720D01*
X52567780Y-47263720D02*
X49067780Y-47263720D01*
X52567780Y-50763720D02*
X52567780Y-47263720D01*
X49067780Y-50763720D02*
X52567780Y-50763720D01*
X49103280Y-49978220D02*
X49853280Y-50728220D01*
G04 #@! TO.C,D12*
X48668180Y-42206520D02*
G75*
G03*
X48668180Y-42206520I-1000000J0D01*
G01*
X45918180Y-40456520D02*
X45918180Y-43956520D01*
X49418180Y-40456520D02*
X45918180Y-40456520D01*
X49418180Y-43956520D02*
X49418180Y-40456520D01*
X45918180Y-43956520D02*
X49418180Y-43956520D01*
X45953680Y-43171020D02*
X46703680Y-43921020D01*
G04 #@! TO.C,D13*
X44299380Y-36008920D02*
G75*
G03*
X44299380Y-36008920I-1000000J0D01*
G01*
X41549380Y-34258920D02*
X41549380Y-37758920D01*
X45049380Y-34258920D02*
X41549380Y-34258920D01*
X45049380Y-37758920D02*
X45049380Y-34258920D01*
X41549380Y-37758920D02*
X45049380Y-37758920D01*
X41584880Y-36973420D02*
X42334880Y-37723420D01*
G04 #@! TO.C,D2*
X36831780Y-35348520D02*
G75*
G03*
X36831780Y-35348520I-1000000J0D01*
G01*
X34081780Y-33598520D02*
X34081780Y-37098520D01*
X37581780Y-33598520D02*
X34081780Y-33598520D01*
X37581780Y-37098520D02*
X37581780Y-33598520D01*
X34081780Y-37098520D02*
X37581780Y-37098520D01*
X34117280Y-36313020D02*
X34867280Y-37063020D01*
G04 #@! TO.C,J5*
X32905700Y-13694700D02*
X32905700Y-15794700D01*
X40525700Y-15359700D02*
X40525700Y-13694700D01*
X32905700Y-15794700D02*
X40090700Y-15794700D01*
X40090700Y-15794700D02*
X40525700Y-15359700D01*
X40525700Y-13694700D02*
X32905700Y-13694700D01*
X40090700Y-15794700D02*
X40090700Y-17244700D01*
X40090700Y-17244700D02*
X39690700Y-17244700D01*
X39690700Y-17244700D02*
X39690700Y-15794700D01*
X37550700Y-15794700D02*
X37550700Y-17244700D01*
X37550700Y-17244700D02*
X37150700Y-17244700D01*
X37150700Y-17244700D02*
X37150700Y-15794700D01*
X35010700Y-15794700D02*
X35010700Y-17244700D01*
X35010700Y-17244700D02*
X34610700Y-17244700D01*
X34610700Y-17244700D02*
X34610700Y-15794700D01*
X38820700Y-13694700D02*
X38820700Y-12244700D01*
X38820700Y-12244700D02*
X38420700Y-12244700D01*
X38420700Y-12244700D02*
X38420700Y-13694700D01*
X36280700Y-13694700D02*
X36280700Y-12244700D01*
X36280700Y-12244700D02*
X35880700Y-12244700D01*
X35880700Y-12244700D02*
X35880700Y-13694700D01*
X33740700Y-13694700D02*
X33740700Y-12244700D01*
X33740700Y-12244700D02*
X33340700Y-12244700D01*
X33340700Y-12244700D02*
X33340700Y-13694700D01*
G04 #@! TO.C,U9*
X18935000Y-62285000D02*
X18935000Y-66515000D01*
X18935000Y-66515000D02*
X24165000Y-66515000D01*
X24165000Y-66515000D02*
X24165000Y-61285000D01*
X24165000Y-61285000D02*
X19935000Y-61285000D01*
X19935000Y-61285000D02*
X18935000Y-62285000D01*
G04 #@! TO.C,SW1*
X7184900Y-75532240D02*
X7184900Y-82232240D01*
X4584900Y-75532240D02*
X7184900Y-75532240D01*
X4584900Y-82232240D02*
X4584900Y-75532240D01*
X7184900Y-82232240D02*
X4584900Y-82232240D01*
X3284900Y-78982240D02*
X4584900Y-78982240D01*
X3234900Y-79032240D02*
X3284900Y-78982240D01*
X3034900Y-79232240D02*
X3234900Y-79032240D01*
X3034900Y-80082240D02*
X3034900Y-79232240D01*
X3234900Y-80282240D02*
X3034900Y-80082240D01*
X4534900Y-80282240D02*
X3234900Y-80282240D01*
G04 #@! TO.C,S3*
X36610800Y-48993400D02*
G75*
G03*
X36610800Y-48993400I-1000000J0D01*
G01*
X34410800Y-51593400D02*
X33010800Y-50193400D01*
X36810800Y-51593400D02*
X34410800Y-51593400D01*
X38210800Y-50193400D02*
X36810800Y-51593400D01*
X38210800Y-47793400D02*
X38210800Y-50193400D01*
X36810800Y-46393400D02*
X38210800Y-47793400D01*
X34410800Y-46393400D02*
X36810800Y-46393400D01*
X33010800Y-47793400D02*
X34410800Y-46393400D01*
X33010800Y-50193400D02*
X33010800Y-47793400D01*
X33610800Y-47993400D02*
X33610800Y-49993400D01*
X34610800Y-46993400D02*
X33610800Y-47993400D01*
X36610800Y-46993400D02*
X34610800Y-46993400D01*
X37610800Y-47993400D02*
X36610800Y-46993400D01*
X37610800Y-49993400D02*
X37610800Y-47993400D01*
X36610800Y-50993400D02*
X37610800Y-49993400D01*
X34610800Y-50993400D02*
X36610800Y-50993400D01*
X33610800Y-49993400D02*
X34610800Y-50993400D01*
X38810800Y-47393400D02*
X37810800Y-47393400D01*
X38310800Y-46893400D02*
X38310800Y-47393400D01*
X37310800Y-46893400D02*
X38810800Y-46893400D01*
X33910800Y-46893400D02*
X32410800Y-46893400D01*
X32410800Y-47393400D02*
X33410800Y-47393400D01*
X32910800Y-46893400D02*
X32910800Y-47393400D01*
X32410800Y-50593400D02*
X33410800Y-50593400D01*
X33910800Y-51093400D02*
X32410800Y-51093400D01*
X32910800Y-51093400D02*
X32910800Y-50593400D01*
X38810800Y-50593400D02*
X37810800Y-50593400D01*
X37310800Y-51093400D02*
X38810800Y-51093400D01*
X38310800Y-51093400D02*
X38310800Y-50593400D01*
X32410800Y-51093400D02*
X32410800Y-50593400D01*
X32410800Y-46893400D02*
X32410800Y-47393400D01*
X38810800Y-51093400D02*
X38810800Y-50593400D01*
X38810800Y-46893400D02*
X38810800Y-47393400D01*
G04 #@! TO.C,S2*
X5478020Y-49000000D02*
G75*
G03*
X5478020Y-49000000I-1000000J0D01*
G01*
X7078020Y-50200000D02*
X5678020Y-51600000D01*
X7078020Y-47800000D02*
X7078020Y-50200000D01*
X5678020Y-46400000D02*
X7078020Y-47800000D01*
X3278020Y-46400000D02*
X5678020Y-46400000D01*
X1878020Y-47800000D02*
X3278020Y-46400000D01*
X1878020Y-50200000D02*
X1878020Y-47800000D01*
X3278020Y-51600000D02*
X1878020Y-50200000D01*
X5678020Y-51600000D02*
X3278020Y-51600000D01*
X3478020Y-51000000D02*
X5478020Y-51000000D01*
X2478020Y-50000000D02*
X3478020Y-51000000D01*
X2478020Y-48000000D02*
X2478020Y-50000000D01*
X3478020Y-47000000D02*
X2478020Y-48000000D01*
X5478020Y-47000000D02*
X3478020Y-47000000D01*
X6478020Y-48000000D02*
X5478020Y-47000000D01*
X6478020Y-50000000D02*
X6478020Y-48000000D01*
X5478020Y-51000000D02*
X6478020Y-50000000D01*
X2878020Y-45800000D02*
X2878020Y-46800000D01*
X2378020Y-46300000D02*
X2878020Y-46300000D01*
X2378020Y-47300000D02*
X2378020Y-45800000D01*
X2378020Y-50700000D02*
X2378020Y-52200000D01*
X2878020Y-52200000D02*
X2878020Y-51200000D01*
X2378020Y-51700000D02*
X2878020Y-51700000D01*
X6078020Y-52200000D02*
X6078020Y-51200000D01*
X6578020Y-50700000D02*
X6578020Y-52200000D01*
X6578020Y-51700000D02*
X6078020Y-51700000D01*
X6078020Y-45800000D02*
X6078020Y-46800000D01*
X6578020Y-47300000D02*
X6578020Y-45800000D01*
X6578020Y-46300000D02*
X6078020Y-46300000D01*
X6578020Y-52200000D02*
X6078020Y-52200000D01*
X2378020Y-52200000D02*
X2878020Y-52200000D01*
X6578020Y-45800000D02*
X6078020Y-45800000D01*
X2378020Y-45800000D02*
X2878020Y-45800000D01*
G04 #@! TO.C,S1*
X5472940Y-18740120D02*
G75*
G03*
X5472940Y-18740120I-1000000J0D01*
G01*
X7072940Y-19940120D02*
X5672940Y-21340120D01*
X7072940Y-17540120D02*
X7072940Y-19940120D01*
X5672940Y-16140120D02*
X7072940Y-17540120D01*
X3272940Y-16140120D02*
X5672940Y-16140120D01*
X1872940Y-17540120D02*
X3272940Y-16140120D01*
X1872940Y-19940120D02*
X1872940Y-17540120D01*
X3272940Y-21340120D02*
X1872940Y-19940120D01*
X5672940Y-21340120D02*
X3272940Y-21340120D01*
X3472940Y-20740120D02*
X5472940Y-20740120D01*
X2472940Y-19740120D02*
X3472940Y-20740120D01*
X2472940Y-17740120D02*
X2472940Y-19740120D01*
X3472940Y-16740120D02*
X2472940Y-17740120D01*
X5472940Y-16740120D02*
X3472940Y-16740120D01*
X6472940Y-17740120D02*
X5472940Y-16740120D01*
X6472940Y-19740120D02*
X6472940Y-17740120D01*
X5472940Y-20740120D02*
X6472940Y-19740120D01*
X2872940Y-15540120D02*
X2872940Y-16540120D01*
X2372940Y-16040120D02*
X2872940Y-16040120D01*
X2372940Y-17040120D02*
X2372940Y-15540120D01*
X2372940Y-20440120D02*
X2372940Y-21940120D01*
X2872940Y-21940120D02*
X2872940Y-20940120D01*
X2372940Y-21440120D02*
X2872940Y-21440120D01*
X6072940Y-21940120D02*
X6072940Y-20940120D01*
X6572940Y-20440120D02*
X6572940Y-21940120D01*
X6572940Y-21440120D02*
X6072940Y-21440120D01*
X6072940Y-15540120D02*
X6072940Y-16540120D01*
X6572940Y-17040120D02*
X6572940Y-15540120D01*
X6572940Y-16040120D02*
X6072940Y-16040120D01*
X6572940Y-21940120D02*
X6072940Y-21940120D01*
X2372940Y-21940120D02*
X2872940Y-21940120D01*
X6572940Y-15540120D02*
X6072940Y-15540120D01*
X2372940Y-15540120D02*
X2872940Y-15540120D01*
G04 #@! TD*
G04 #@! TO.C,J10*
D11*
X14332857Y-27988095D02*
X14285238Y-28035714D01*
X14237619Y-28178571D01*
X14237619Y-28273809D01*
X14285238Y-28416666D01*
X14380476Y-28511904D01*
X14475714Y-28559523D01*
X14666190Y-28607142D01*
X14809047Y-28607142D01*
X14999523Y-28559523D01*
X15094761Y-28511904D01*
X15190000Y-28416666D01*
X15237619Y-28273809D01*
X15237619Y-28178571D01*
X15190000Y-28035714D01*
X15142380Y-27988095D01*
X14237619Y-27416666D02*
X14285238Y-27511904D01*
X14332857Y-27559523D01*
X14428095Y-27607142D01*
X14713809Y-27607142D01*
X14809047Y-27559523D01*
X14856666Y-27511904D01*
X14904285Y-27416666D01*
X14904285Y-27273809D01*
X14856666Y-27178571D01*
X14809047Y-27130952D01*
X14713809Y-27083333D01*
X14428095Y-27083333D01*
X14332857Y-27130952D01*
X14285238Y-27178571D01*
X14237619Y-27273809D01*
X14237619Y-27416666D01*
X14904285Y-26654761D02*
X14237619Y-26654761D01*
X14809047Y-26654761D02*
X14856666Y-26607142D01*
X14904285Y-26511904D01*
X14904285Y-26369047D01*
X14856666Y-26273809D01*
X14761428Y-26226190D01*
X14237619Y-26226190D01*
X14904285Y-25750000D02*
X14237619Y-25750000D01*
X14809047Y-25750000D02*
X14856666Y-25702380D01*
X14904285Y-25607142D01*
X14904285Y-25464285D01*
X14856666Y-25369047D01*
X14761428Y-25321428D01*
X14237619Y-25321428D01*
X14142380Y-25083333D02*
X14142380Y-24321428D01*
X15237619Y-23892857D02*
X15237619Y-23797619D01*
X15190000Y-23702380D01*
X15142380Y-23654761D01*
X15047142Y-23607142D01*
X14856666Y-23559523D01*
X14618571Y-23559523D01*
X14428095Y-23607142D01*
X14332857Y-23654761D01*
X14285238Y-23702380D01*
X14237619Y-23797619D01*
X14237619Y-23892857D01*
X14285238Y-23988095D01*
X14332857Y-24035714D01*
X14428095Y-24083333D01*
X14618571Y-24130952D01*
X14856666Y-24130952D01*
X15047142Y-24083333D01*
X15142380Y-24035714D01*
X15190000Y-23988095D01*
X15237619Y-23892857D01*
X14237619Y-22607142D02*
X14237619Y-23178571D01*
X14237619Y-22892857D02*
X15237619Y-22892857D01*
X15094761Y-22988095D01*
X14999523Y-23083333D01*
X14951904Y-23178571D01*
X14237619Y-22273809D02*
X14904285Y-21750000D01*
X14904285Y-22273809D02*
X14237619Y-21750000D01*
X15237619Y-21178571D02*
X15237619Y-21083333D01*
X15190000Y-20988095D01*
X15142380Y-20940476D01*
X15047142Y-20892857D01*
X14856666Y-20845238D01*
X14618571Y-20845238D01*
X14428095Y-20892857D01*
X14332857Y-20940476D01*
X14285238Y-20988095D01*
X14237619Y-21083333D01*
X14237619Y-21178571D01*
X14285238Y-21273809D01*
X14332857Y-21321428D01*
X14428095Y-21369047D01*
X14618571Y-21416666D01*
X14856666Y-21416666D01*
X15047142Y-21369047D01*
X15142380Y-21321428D01*
X15190000Y-21273809D01*
X15237619Y-21178571D01*
X14904285Y-19988095D02*
X14237619Y-19988095D01*
X15285238Y-20226190D02*
X14570952Y-20464285D01*
X14570952Y-19845238D01*
X21639523Y-23702380D02*
X21639523Y-24416666D01*
X21687142Y-24559523D01*
X21782380Y-24654761D01*
X21925238Y-24702380D01*
X22020476Y-24702380D01*
X20639523Y-24702380D02*
X21210952Y-24702380D01*
X20925238Y-24702380D02*
X20925238Y-23702380D01*
X21020476Y-23845238D01*
X21115714Y-23940476D01*
X21210952Y-23988095D01*
X20020476Y-23702380D02*
X19925238Y-23702380D01*
X19830000Y-23750000D01*
X19782380Y-23797619D01*
X19734761Y-23892857D01*
X19687142Y-24083333D01*
X19687142Y-24321428D01*
X19734761Y-24511904D01*
X19782380Y-24607142D01*
X19830000Y-24654761D01*
X19925238Y-24702380D01*
X20020476Y-24702380D01*
X20115714Y-24654761D01*
X20163333Y-24607142D01*
X20210952Y-24511904D01*
X20258571Y-24321428D01*
X20258571Y-24083333D01*
X20210952Y-23892857D01*
X20163333Y-23797619D01*
X20115714Y-23750000D01*
X20020476Y-23702380D01*
G04 #@! TO.C,GO_2*
X20283333Y-73402380D02*
X19711904Y-73402380D01*
X19997619Y-74402380D02*
X19997619Y-73402380D01*
X18997619Y-74354761D02*
X19092857Y-74402380D01*
X19283333Y-74402380D01*
X19378571Y-74354761D01*
X19426190Y-74259523D01*
X19426190Y-73878571D01*
X19378571Y-73783333D01*
X19283333Y-73735714D01*
X19092857Y-73735714D01*
X18997619Y-73783333D01*
X18950000Y-73878571D01*
X18950000Y-73973809D01*
X19426190Y-74069047D01*
X18569047Y-74354761D02*
X18473809Y-74402380D01*
X18283333Y-74402380D01*
X18188095Y-74354761D01*
X18140476Y-74259523D01*
X18140476Y-74211904D01*
X18188095Y-74116666D01*
X18283333Y-74069047D01*
X18426190Y-74069047D01*
X18521428Y-74021428D01*
X18569047Y-73926190D01*
X18569047Y-73878571D01*
X18521428Y-73783333D01*
X18426190Y-73735714D01*
X18283333Y-73735714D01*
X18188095Y-73783333D01*
X17854761Y-73735714D02*
X17473809Y-73735714D01*
X17711904Y-73402380D02*
X17711904Y-74259523D01*
X17664285Y-74354761D01*
X17569047Y-74402380D01*
X17473809Y-74402380D01*
X17140476Y-74402380D02*
X17140476Y-73402380D01*
X16759523Y-73402380D01*
X16664285Y-73450000D01*
X16616666Y-73497619D01*
X16569047Y-73592857D01*
X16569047Y-73735714D01*
X16616666Y-73830952D01*
X16664285Y-73878571D01*
X16759523Y-73926190D01*
X17140476Y-73926190D01*
X15997619Y-74402380D02*
X16092857Y-74354761D01*
X16140476Y-74307142D01*
X16188095Y-74211904D01*
X16188095Y-73926190D01*
X16140476Y-73830952D01*
X16092857Y-73783333D01*
X15997619Y-73735714D01*
X15854761Y-73735714D01*
X15759523Y-73783333D01*
X15711904Y-73830952D01*
X15664285Y-73926190D01*
X15664285Y-74211904D01*
X15711904Y-74307142D01*
X15759523Y-74354761D01*
X15854761Y-74402380D01*
X15997619Y-74402380D01*
X15235714Y-74402380D02*
X15235714Y-73735714D01*
X15235714Y-73402380D02*
X15283333Y-73450000D01*
X15235714Y-73497619D01*
X15188095Y-73450000D01*
X15235714Y-73402380D01*
X15235714Y-73497619D01*
X14759523Y-73735714D02*
X14759523Y-74402380D01*
X14759523Y-73830952D02*
X14711904Y-73783333D01*
X14616666Y-73735714D01*
X14473809Y-73735714D01*
X14378571Y-73783333D01*
X14330952Y-73878571D01*
X14330952Y-74402380D01*
X13997619Y-73735714D02*
X13616666Y-73735714D01*
X13854761Y-73402380D02*
X13854761Y-74259523D01*
X13807142Y-74354761D01*
X13711904Y-74402380D01*
X13616666Y-74402380D01*
X18069047Y-77500000D02*
X18164285Y-77452380D01*
X18307142Y-77452380D01*
X18450000Y-77500000D01*
X18545238Y-77595238D01*
X18592857Y-77690476D01*
X18640476Y-77880952D01*
X18640476Y-78023809D01*
X18592857Y-78214285D01*
X18545238Y-78309523D01*
X18450000Y-78404761D01*
X18307142Y-78452380D01*
X18211904Y-78452380D01*
X18069047Y-78404761D01*
X18021428Y-78357142D01*
X18021428Y-78023809D01*
X18211904Y-78023809D01*
X17402380Y-77452380D02*
X17211904Y-77452380D01*
X17116666Y-77500000D01*
X17021428Y-77595238D01*
X16973809Y-77785714D01*
X16973809Y-78119047D01*
X17021428Y-78309523D01*
X17116666Y-78404761D01*
X17211904Y-78452380D01*
X17402380Y-78452380D01*
X17497619Y-78404761D01*
X17592857Y-78309523D01*
X17640476Y-78119047D01*
X17640476Y-77785714D01*
X17592857Y-77595238D01*
X17497619Y-77500000D01*
X17402380Y-77452380D01*
X16783333Y-78547619D02*
X16021428Y-78547619D01*
X15830952Y-77547619D02*
X15783333Y-77500000D01*
X15688095Y-77452380D01*
X15450000Y-77452380D01*
X15354761Y-77500000D01*
X15307142Y-77547619D01*
X15259523Y-77642857D01*
X15259523Y-77738095D01*
X15307142Y-77880952D01*
X15878571Y-78452380D01*
X15259523Y-78452380D01*
G04 #@! TO.C,GO_1*
X17133333Y-73452380D02*
X16561904Y-73452380D01*
X16847619Y-74452380D02*
X16847619Y-73452380D01*
X15847619Y-74404761D02*
X15942857Y-74452380D01*
X16133333Y-74452380D01*
X16228571Y-74404761D01*
X16276190Y-74309523D01*
X16276190Y-73928571D01*
X16228571Y-73833333D01*
X16133333Y-73785714D01*
X15942857Y-73785714D01*
X15847619Y-73833333D01*
X15800000Y-73928571D01*
X15800000Y-74023809D01*
X16276190Y-74119047D01*
X15419047Y-74404761D02*
X15323809Y-74452380D01*
X15133333Y-74452380D01*
X15038095Y-74404761D01*
X14990476Y-74309523D01*
X14990476Y-74261904D01*
X15038095Y-74166666D01*
X15133333Y-74119047D01*
X15276190Y-74119047D01*
X15371428Y-74071428D01*
X15419047Y-73976190D01*
X15419047Y-73928571D01*
X15371428Y-73833333D01*
X15276190Y-73785714D01*
X15133333Y-73785714D01*
X15038095Y-73833333D01*
X14704761Y-73785714D02*
X14323809Y-73785714D01*
X14561904Y-73452380D02*
X14561904Y-74309523D01*
X14514285Y-74404761D01*
X14419047Y-74452380D01*
X14323809Y-74452380D01*
X13990476Y-74452380D02*
X13990476Y-73452380D01*
X13609523Y-73452380D01*
X13514285Y-73500000D01*
X13466666Y-73547619D01*
X13419047Y-73642857D01*
X13419047Y-73785714D01*
X13466666Y-73880952D01*
X13514285Y-73928571D01*
X13609523Y-73976190D01*
X13990476Y-73976190D01*
X12847619Y-74452380D02*
X12942857Y-74404761D01*
X12990476Y-74357142D01*
X13038095Y-74261904D01*
X13038095Y-73976190D01*
X12990476Y-73880952D01*
X12942857Y-73833333D01*
X12847619Y-73785714D01*
X12704761Y-73785714D01*
X12609523Y-73833333D01*
X12561904Y-73880952D01*
X12514285Y-73976190D01*
X12514285Y-74261904D01*
X12561904Y-74357142D01*
X12609523Y-74404761D01*
X12704761Y-74452380D01*
X12847619Y-74452380D01*
X12085714Y-74452380D02*
X12085714Y-73785714D01*
X12085714Y-73452380D02*
X12133333Y-73500000D01*
X12085714Y-73547619D01*
X12038095Y-73500000D01*
X12085714Y-73452380D01*
X12085714Y-73547619D01*
X11609523Y-73785714D02*
X11609523Y-74452380D01*
X11609523Y-73880952D02*
X11561904Y-73833333D01*
X11466666Y-73785714D01*
X11323809Y-73785714D01*
X11228571Y-73833333D01*
X11180952Y-73928571D01*
X11180952Y-74452380D01*
X10847619Y-73785714D02*
X10466666Y-73785714D01*
X10704761Y-73452380D02*
X10704761Y-74309523D01*
X10657142Y-74404761D01*
X10561904Y-74452380D01*
X10466666Y-74452380D01*
X14919047Y-77550000D02*
X15014285Y-77502380D01*
X15157142Y-77502380D01*
X15300000Y-77550000D01*
X15395238Y-77645238D01*
X15442857Y-77740476D01*
X15490476Y-77930952D01*
X15490476Y-78073809D01*
X15442857Y-78264285D01*
X15395238Y-78359523D01*
X15300000Y-78454761D01*
X15157142Y-78502380D01*
X15061904Y-78502380D01*
X14919047Y-78454761D01*
X14871428Y-78407142D01*
X14871428Y-78073809D01*
X15061904Y-78073809D01*
X14252380Y-77502380D02*
X14061904Y-77502380D01*
X13966666Y-77550000D01*
X13871428Y-77645238D01*
X13823809Y-77835714D01*
X13823809Y-78169047D01*
X13871428Y-78359523D01*
X13966666Y-78454761D01*
X14061904Y-78502380D01*
X14252380Y-78502380D01*
X14347619Y-78454761D01*
X14442857Y-78359523D01*
X14490476Y-78169047D01*
X14490476Y-77835714D01*
X14442857Y-77645238D01*
X14347619Y-77550000D01*
X14252380Y-77502380D01*
X13633333Y-78597619D02*
X12871428Y-78597619D01*
X12109523Y-78502380D02*
X12680952Y-78502380D01*
X12395238Y-78502380D02*
X12395238Y-77502380D01*
X12490476Y-77645238D01*
X12585714Y-77740476D01*
X12680952Y-77788095D01*
G04 #@! TO.C,GI_2*
X17133333Y-68952380D02*
X16561904Y-68952380D01*
X16847619Y-69952380D02*
X16847619Y-68952380D01*
X15847619Y-69904761D02*
X15942857Y-69952380D01*
X16133333Y-69952380D01*
X16228571Y-69904761D01*
X16276190Y-69809523D01*
X16276190Y-69428571D01*
X16228571Y-69333333D01*
X16133333Y-69285714D01*
X15942857Y-69285714D01*
X15847619Y-69333333D01*
X15800000Y-69428571D01*
X15800000Y-69523809D01*
X16276190Y-69619047D01*
X15419047Y-69904761D02*
X15323809Y-69952380D01*
X15133333Y-69952380D01*
X15038095Y-69904761D01*
X14990476Y-69809523D01*
X14990476Y-69761904D01*
X15038095Y-69666666D01*
X15133333Y-69619047D01*
X15276190Y-69619047D01*
X15371428Y-69571428D01*
X15419047Y-69476190D01*
X15419047Y-69428571D01*
X15371428Y-69333333D01*
X15276190Y-69285714D01*
X15133333Y-69285714D01*
X15038095Y-69333333D01*
X14704761Y-69285714D02*
X14323809Y-69285714D01*
X14561904Y-68952380D02*
X14561904Y-69809523D01*
X14514285Y-69904761D01*
X14419047Y-69952380D01*
X14323809Y-69952380D01*
X13990476Y-69952380D02*
X13990476Y-68952380D01*
X13609523Y-68952380D01*
X13514285Y-69000000D01*
X13466666Y-69047619D01*
X13419047Y-69142857D01*
X13419047Y-69285714D01*
X13466666Y-69380952D01*
X13514285Y-69428571D01*
X13609523Y-69476190D01*
X13990476Y-69476190D01*
X12847619Y-69952380D02*
X12942857Y-69904761D01*
X12990476Y-69857142D01*
X13038095Y-69761904D01*
X13038095Y-69476190D01*
X12990476Y-69380952D01*
X12942857Y-69333333D01*
X12847619Y-69285714D01*
X12704761Y-69285714D01*
X12609523Y-69333333D01*
X12561904Y-69380952D01*
X12514285Y-69476190D01*
X12514285Y-69761904D01*
X12561904Y-69857142D01*
X12609523Y-69904761D01*
X12704761Y-69952380D01*
X12847619Y-69952380D01*
X12085714Y-69952380D02*
X12085714Y-69285714D01*
X12085714Y-68952380D02*
X12133333Y-69000000D01*
X12085714Y-69047619D01*
X12038095Y-69000000D01*
X12085714Y-68952380D01*
X12085714Y-69047619D01*
X11609523Y-69285714D02*
X11609523Y-69952380D01*
X11609523Y-69380952D02*
X11561904Y-69333333D01*
X11466666Y-69285714D01*
X11323809Y-69285714D01*
X11228571Y-69333333D01*
X11180952Y-69428571D01*
X11180952Y-69952380D01*
X10847619Y-69285714D02*
X10466666Y-69285714D01*
X10704761Y-68952380D02*
X10704761Y-69809523D01*
X10657142Y-69904761D01*
X10561904Y-69952380D01*
X10466666Y-69952380D01*
X14633333Y-73050000D02*
X14728571Y-73002380D01*
X14871428Y-73002380D01*
X15014285Y-73050000D01*
X15109523Y-73145238D01*
X15157142Y-73240476D01*
X15204761Y-73430952D01*
X15204761Y-73573809D01*
X15157142Y-73764285D01*
X15109523Y-73859523D01*
X15014285Y-73954761D01*
X14871428Y-74002380D01*
X14776190Y-74002380D01*
X14633333Y-73954761D01*
X14585714Y-73907142D01*
X14585714Y-73573809D01*
X14776190Y-73573809D01*
X14157142Y-74002380D02*
X14157142Y-73002380D01*
X13919047Y-74097619D02*
X13157142Y-74097619D01*
X12966666Y-73097619D02*
X12919047Y-73050000D01*
X12823809Y-73002380D01*
X12585714Y-73002380D01*
X12490476Y-73050000D01*
X12442857Y-73097619D01*
X12395238Y-73192857D01*
X12395238Y-73288095D01*
X12442857Y-73430952D01*
X13014285Y-74002380D01*
X12395238Y-74002380D01*
G04 #@! TO.C,GI_1*
X13633333Y-68852380D02*
X13061904Y-68852380D01*
X13347619Y-69852380D02*
X13347619Y-68852380D01*
X12347619Y-69804761D02*
X12442857Y-69852380D01*
X12633333Y-69852380D01*
X12728571Y-69804761D01*
X12776190Y-69709523D01*
X12776190Y-69328571D01*
X12728571Y-69233333D01*
X12633333Y-69185714D01*
X12442857Y-69185714D01*
X12347619Y-69233333D01*
X12300000Y-69328571D01*
X12300000Y-69423809D01*
X12776190Y-69519047D01*
X11919047Y-69804761D02*
X11823809Y-69852380D01*
X11633333Y-69852380D01*
X11538095Y-69804761D01*
X11490476Y-69709523D01*
X11490476Y-69661904D01*
X11538095Y-69566666D01*
X11633333Y-69519047D01*
X11776190Y-69519047D01*
X11871428Y-69471428D01*
X11919047Y-69376190D01*
X11919047Y-69328571D01*
X11871428Y-69233333D01*
X11776190Y-69185714D01*
X11633333Y-69185714D01*
X11538095Y-69233333D01*
X11204761Y-69185714D02*
X10823809Y-69185714D01*
X11061904Y-68852380D02*
X11061904Y-69709523D01*
X11014285Y-69804761D01*
X10919047Y-69852380D01*
X10823809Y-69852380D01*
X10490476Y-69852380D02*
X10490476Y-68852380D01*
X10109523Y-68852380D01*
X10014285Y-68900000D01*
X9966666Y-68947619D01*
X9919047Y-69042857D01*
X9919047Y-69185714D01*
X9966666Y-69280952D01*
X10014285Y-69328571D01*
X10109523Y-69376190D01*
X10490476Y-69376190D01*
X9347619Y-69852380D02*
X9442857Y-69804761D01*
X9490476Y-69757142D01*
X9538095Y-69661904D01*
X9538095Y-69376190D01*
X9490476Y-69280952D01*
X9442857Y-69233333D01*
X9347619Y-69185714D01*
X9204761Y-69185714D01*
X9109523Y-69233333D01*
X9061904Y-69280952D01*
X9014285Y-69376190D01*
X9014285Y-69661904D01*
X9061904Y-69757142D01*
X9109523Y-69804761D01*
X9204761Y-69852380D01*
X9347619Y-69852380D01*
X8585714Y-69852380D02*
X8585714Y-69185714D01*
X8585714Y-68852380D02*
X8633333Y-68900000D01*
X8585714Y-68947619D01*
X8538095Y-68900000D01*
X8585714Y-68852380D01*
X8585714Y-68947619D01*
X8109523Y-69185714D02*
X8109523Y-69852380D01*
X8109523Y-69280952D02*
X8061904Y-69233333D01*
X7966666Y-69185714D01*
X7823809Y-69185714D01*
X7728571Y-69233333D01*
X7680952Y-69328571D01*
X7680952Y-69852380D01*
X7347619Y-69185714D02*
X6966666Y-69185714D01*
X7204761Y-68852380D02*
X7204761Y-69709523D01*
X7157142Y-69804761D01*
X7061904Y-69852380D01*
X6966666Y-69852380D01*
X11133333Y-72950000D02*
X11228571Y-72902380D01*
X11371428Y-72902380D01*
X11514285Y-72950000D01*
X11609523Y-73045238D01*
X11657142Y-73140476D01*
X11704761Y-73330952D01*
X11704761Y-73473809D01*
X11657142Y-73664285D01*
X11609523Y-73759523D01*
X11514285Y-73854761D01*
X11371428Y-73902380D01*
X11276190Y-73902380D01*
X11133333Y-73854761D01*
X11085714Y-73807142D01*
X11085714Y-73473809D01*
X11276190Y-73473809D01*
X10657142Y-73902380D02*
X10657142Y-72902380D01*
X10419047Y-73997619D02*
X9657142Y-73997619D01*
X8895238Y-73902380D02*
X9466666Y-73902380D01*
X9180952Y-73902380D02*
X9180952Y-72902380D01*
X9276190Y-73045238D01*
X9371428Y-73140476D01*
X9466666Y-73188095D01*
G04 #@! TO.C,OutR1*
X46133333Y-27352380D02*
X45561904Y-27352380D01*
X45847619Y-28352380D02*
X45847619Y-27352380D01*
X44847619Y-28304761D02*
X44942857Y-28352380D01*
X45133333Y-28352380D01*
X45228571Y-28304761D01*
X45276190Y-28209523D01*
X45276190Y-27828571D01*
X45228571Y-27733333D01*
X45133333Y-27685714D01*
X44942857Y-27685714D01*
X44847619Y-27733333D01*
X44800000Y-27828571D01*
X44800000Y-27923809D01*
X45276190Y-28019047D01*
X44419047Y-28304761D02*
X44323809Y-28352380D01*
X44133333Y-28352380D01*
X44038095Y-28304761D01*
X43990476Y-28209523D01*
X43990476Y-28161904D01*
X44038095Y-28066666D01*
X44133333Y-28019047D01*
X44276190Y-28019047D01*
X44371428Y-27971428D01*
X44419047Y-27876190D01*
X44419047Y-27828571D01*
X44371428Y-27733333D01*
X44276190Y-27685714D01*
X44133333Y-27685714D01*
X44038095Y-27733333D01*
X43704761Y-27685714D02*
X43323809Y-27685714D01*
X43561904Y-27352380D02*
X43561904Y-28209523D01*
X43514285Y-28304761D01*
X43419047Y-28352380D01*
X43323809Y-28352380D01*
X42990476Y-28352380D02*
X42990476Y-27352380D01*
X42609523Y-27352380D01*
X42514285Y-27400000D01*
X42466666Y-27447619D01*
X42419047Y-27542857D01*
X42419047Y-27685714D01*
X42466666Y-27780952D01*
X42514285Y-27828571D01*
X42609523Y-27876190D01*
X42990476Y-27876190D01*
X41847619Y-28352380D02*
X41942857Y-28304761D01*
X41990476Y-28257142D01*
X42038095Y-28161904D01*
X42038095Y-27876190D01*
X41990476Y-27780952D01*
X41942857Y-27733333D01*
X41847619Y-27685714D01*
X41704761Y-27685714D01*
X41609523Y-27733333D01*
X41561904Y-27780952D01*
X41514285Y-27876190D01*
X41514285Y-28161904D01*
X41561904Y-28257142D01*
X41609523Y-28304761D01*
X41704761Y-28352380D01*
X41847619Y-28352380D01*
X41085714Y-28352380D02*
X41085714Y-27685714D01*
X41085714Y-27352380D02*
X41133333Y-27400000D01*
X41085714Y-27447619D01*
X41038095Y-27400000D01*
X41085714Y-27352380D01*
X41085714Y-27447619D01*
X40609523Y-27685714D02*
X40609523Y-28352380D01*
X40609523Y-27780952D02*
X40561904Y-27733333D01*
X40466666Y-27685714D01*
X40323809Y-27685714D01*
X40228571Y-27733333D01*
X40180952Y-27828571D01*
X40180952Y-28352380D01*
X39847619Y-27685714D02*
X39466666Y-27685714D01*
X39704761Y-27352380D02*
X39704761Y-28209523D01*
X39657142Y-28304761D01*
X39561904Y-28352380D01*
X39466666Y-28352380D01*
X44609523Y-31402380D02*
X44419047Y-31402380D01*
X44323809Y-31450000D01*
X44228571Y-31545238D01*
X44180952Y-31735714D01*
X44180952Y-32069047D01*
X44228571Y-32259523D01*
X44323809Y-32354761D01*
X44419047Y-32402380D01*
X44609523Y-32402380D01*
X44704761Y-32354761D01*
X44800000Y-32259523D01*
X44847619Y-32069047D01*
X44847619Y-31735714D01*
X44800000Y-31545238D01*
X44704761Y-31450000D01*
X44609523Y-31402380D01*
X43323809Y-31735714D02*
X43323809Y-32402380D01*
X43752380Y-31735714D02*
X43752380Y-32259523D01*
X43704761Y-32354761D01*
X43609523Y-32402380D01*
X43466666Y-32402380D01*
X43371428Y-32354761D01*
X43323809Y-32307142D01*
X42990476Y-31735714D02*
X42609523Y-31735714D01*
X42847619Y-31402380D02*
X42847619Y-32259523D01*
X42800000Y-32354761D01*
X42704761Y-32402380D01*
X42609523Y-32402380D01*
X41704761Y-32402380D02*
X42038095Y-31926190D01*
X42276190Y-32402380D02*
X42276190Y-31402380D01*
X41895238Y-31402380D01*
X41800000Y-31450000D01*
X41752380Y-31497619D01*
X41704761Y-31592857D01*
X41704761Y-31735714D01*
X41752380Y-31830952D01*
X41800000Y-31878571D01*
X41895238Y-31926190D01*
X42276190Y-31926190D01*
X40752380Y-32402380D02*
X41323809Y-32402380D01*
X41038095Y-32402380D02*
X41038095Y-31402380D01*
X41133333Y-31545238D01*
X41228571Y-31640476D01*
X41323809Y-31688095D01*
G04 #@! TO.C,OutL1*
X52133333Y-27352380D02*
X51561904Y-27352380D01*
X51847619Y-28352380D02*
X51847619Y-27352380D01*
X50847619Y-28304761D02*
X50942857Y-28352380D01*
X51133333Y-28352380D01*
X51228571Y-28304761D01*
X51276190Y-28209523D01*
X51276190Y-27828571D01*
X51228571Y-27733333D01*
X51133333Y-27685714D01*
X50942857Y-27685714D01*
X50847619Y-27733333D01*
X50800000Y-27828571D01*
X50800000Y-27923809D01*
X51276190Y-28019047D01*
X50419047Y-28304761D02*
X50323809Y-28352380D01*
X50133333Y-28352380D01*
X50038095Y-28304761D01*
X49990476Y-28209523D01*
X49990476Y-28161904D01*
X50038095Y-28066666D01*
X50133333Y-28019047D01*
X50276190Y-28019047D01*
X50371428Y-27971428D01*
X50419047Y-27876190D01*
X50419047Y-27828571D01*
X50371428Y-27733333D01*
X50276190Y-27685714D01*
X50133333Y-27685714D01*
X50038095Y-27733333D01*
X49704761Y-27685714D02*
X49323809Y-27685714D01*
X49561904Y-27352380D02*
X49561904Y-28209523D01*
X49514285Y-28304761D01*
X49419047Y-28352380D01*
X49323809Y-28352380D01*
X48990476Y-28352380D02*
X48990476Y-27352380D01*
X48609523Y-27352380D01*
X48514285Y-27400000D01*
X48466666Y-27447619D01*
X48419047Y-27542857D01*
X48419047Y-27685714D01*
X48466666Y-27780952D01*
X48514285Y-27828571D01*
X48609523Y-27876190D01*
X48990476Y-27876190D01*
X47847619Y-28352380D02*
X47942857Y-28304761D01*
X47990476Y-28257142D01*
X48038095Y-28161904D01*
X48038095Y-27876190D01*
X47990476Y-27780952D01*
X47942857Y-27733333D01*
X47847619Y-27685714D01*
X47704761Y-27685714D01*
X47609523Y-27733333D01*
X47561904Y-27780952D01*
X47514285Y-27876190D01*
X47514285Y-28161904D01*
X47561904Y-28257142D01*
X47609523Y-28304761D01*
X47704761Y-28352380D01*
X47847619Y-28352380D01*
X47085714Y-28352380D02*
X47085714Y-27685714D01*
X47085714Y-27352380D02*
X47133333Y-27400000D01*
X47085714Y-27447619D01*
X47038095Y-27400000D01*
X47085714Y-27352380D01*
X47085714Y-27447619D01*
X46609523Y-27685714D02*
X46609523Y-28352380D01*
X46609523Y-27780952D02*
X46561904Y-27733333D01*
X46466666Y-27685714D01*
X46323809Y-27685714D01*
X46228571Y-27733333D01*
X46180952Y-27828571D01*
X46180952Y-28352380D01*
X45847619Y-27685714D02*
X45466666Y-27685714D01*
X45704761Y-27352380D02*
X45704761Y-28209523D01*
X45657142Y-28304761D01*
X45561904Y-28352380D01*
X45466666Y-28352380D01*
X50514285Y-31402380D02*
X50323809Y-31402380D01*
X50228571Y-31450000D01*
X50133333Y-31545238D01*
X50085714Y-31735714D01*
X50085714Y-32069047D01*
X50133333Y-32259523D01*
X50228571Y-32354761D01*
X50323809Y-32402380D01*
X50514285Y-32402380D01*
X50609523Y-32354761D01*
X50704761Y-32259523D01*
X50752380Y-32069047D01*
X50752380Y-31735714D01*
X50704761Y-31545238D01*
X50609523Y-31450000D01*
X50514285Y-31402380D01*
X49228571Y-31735714D02*
X49228571Y-32402380D01*
X49657142Y-31735714D02*
X49657142Y-32259523D01*
X49609523Y-32354761D01*
X49514285Y-32402380D01*
X49371428Y-32402380D01*
X49276190Y-32354761D01*
X49228571Y-32307142D01*
X48895238Y-31735714D02*
X48514285Y-31735714D01*
X48752380Y-31402380D02*
X48752380Y-32259523D01*
X48704761Y-32354761D01*
X48609523Y-32402380D01*
X48514285Y-32402380D01*
X47704761Y-32402380D02*
X48180952Y-32402380D01*
X48180952Y-31402380D01*
X46847619Y-32402380D02*
X47419047Y-32402380D01*
X47133333Y-32402380D02*
X47133333Y-31402380D01*
X47228571Y-31545238D01*
X47323809Y-31640476D01*
X47419047Y-31688095D01*
G04 #@! TO.C,U11*
X21148941Y-78617523D02*
X21196560Y-78760380D01*
X21196560Y-78998476D01*
X21148941Y-79093714D01*
X21101322Y-79141333D01*
X21006084Y-79188952D01*
X20910846Y-79188952D01*
X20815608Y-79141333D01*
X20767989Y-79093714D01*
X20720370Y-78998476D01*
X20672751Y-78808000D01*
X20625132Y-78712761D01*
X20577513Y-78665142D01*
X20482275Y-78617523D01*
X20387037Y-78617523D01*
X20291799Y-78665142D01*
X20244180Y-78712761D01*
X20196560Y-78808000D01*
X20196560Y-79046095D01*
X20244180Y-79188952D01*
X21196560Y-79617523D02*
X20196560Y-79617523D01*
X20196560Y-79998476D01*
X20244180Y-80093714D01*
X20291799Y-80141333D01*
X20387037Y-80188952D01*
X20529894Y-80188952D01*
X20625132Y-80141333D01*
X20672751Y-80093714D01*
X20720370Y-79998476D01*
X20720370Y-79617523D01*
X21196560Y-80617523D02*
X20196560Y-80617523D01*
X21196560Y-81188952D02*
X20625132Y-80760380D01*
X20196560Y-81188952D02*
X20767989Y-80617523D01*
X20196560Y-81808000D02*
X20196560Y-81903238D01*
X20244180Y-81998476D01*
X20291799Y-82046095D01*
X20387037Y-82093714D01*
X20577513Y-82141333D01*
X20815608Y-82141333D01*
X21006084Y-82093714D01*
X21101322Y-82046095D01*
X21148941Y-81998476D01*
X21196560Y-81903238D01*
X21196560Y-81808000D01*
X21148941Y-81712761D01*
X21101322Y-81665142D01*
X21006084Y-81617523D01*
X20815608Y-81569904D01*
X20577513Y-81569904D01*
X20387037Y-81617523D01*
X20291799Y-81665142D01*
X20244180Y-81712761D01*
X20196560Y-81808000D01*
X20196560Y-82998476D02*
X20196560Y-82808000D01*
X20244180Y-82712761D01*
X20291799Y-82665142D01*
X20434656Y-82569904D01*
X20625132Y-82522285D01*
X21006084Y-82522285D01*
X21101322Y-82569904D01*
X21148941Y-82617523D01*
X21196560Y-82712761D01*
X21196560Y-82903238D01*
X21148941Y-82998476D01*
X21101322Y-83046095D01*
X21006084Y-83093714D01*
X20767989Y-83093714D01*
X20672751Y-83046095D01*
X20625132Y-82998476D01*
X20577513Y-82903238D01*
X20577513Y-82712761D01*
X20625132Y-82617523D01*
X20672751Y-82569904D01*
X20767989Y-82522285D01*
X20529894Y-83950857D02*
X21196560Y-83950857D01*
X20148941Y-83712761D02*
X20863227Y-83474666D01*
X20863227Y-84093714D01*
X21196560Y-84998476D02*
X21196560Y-84427047D01*
X21196560Y-84712761D02*
X20196560Y-84712761D01*
X20339418Y-84617523D01*
X20434656Y-84522285D01*
X20482275Y-84427047D01*
X21196560Y-85427047D02*
X20196560Y-85427047D01*
X20672751Y-85427047D02*
X20672751Y-85998476D01*
X21196560Y-85998476D02*
X20196560Y-85998476D01*
X20196560Y-86331809D02*
X20196560Y-86903238D01*
X21196560Y-86617523D02*
X20196560Y-86617523D01*
X20529894Y-87665142D02*
X21196560Y-87665142D01*
X20148941Y-87427047D02*
X20863227Y-87188952D01*
X20863227Y-87808000D01*
X21196560Y-88188952D02*
X20196560Y-88188952D01*
X20672751Y-88188952D02*
X20672751Y-88760380D01*
X21196560Y-88760380D02*
X20196560Y-88760380D01*
X20815608Y-89236571D02*
X20815608Y-89998476D01*
X21196560Y-90998476D02*
X21196560Y-90427047D01*
X21196560Y-90712761D02*
X20196560Y-90712761D01*
X20339418Y-90617523D01*
X20434656Y-90522285D01*
X20482275Y-90427047D01*
G04 #@! TO.C,U10*
X21148941Y-7617523D02*
X21196560Y-7760380D01*
X21196560Y-7998476D01*
X21148941Y-8093714D01*
X21101322Y-8141333D01*
X21006084Y-8188952D01*
X20910846Y-8188952D01*
X20815608Y-8141333D01*
X20767989Y-8093714D01*
X20720370Y-7998476D01*
X20672751Y-7808000D01*
X20625132Y-7712761D01*
X20577513Y-7665142D01*
X20482275Y-7617523D01*
X20387037Y-7617523D01*
X20291799Y-7665142D01*
X20244180Y-7712761D01*
X20196560Y-7808000D01*
X20196560Y-8046095D01*
X20244180Y-8188952D01*
X21196560Y-8617523D02*
X20196560Y-8617523D01*
X20196560Y-8998476D01*
X20244180Y-9093714D01*
X20291799Y-9141333D01*
X20387037Y-9188952D01*
X20529894Y-9188952D01*
X20625132Y-9141333D01*
X20672751Y-9093714D01*
X20720370Y-8998476D01*
X20720370Y-8617523D01*
X21196560Y-9617523D02*
X20196560Y-9617523D01*
X21196560Y-10188952D02*
X20625132Y-9760380D01*
X20196560Y-10188952D02*
X20767989Y-9617523D01*
X20196560Y-10808000D02*
X20196560Y-10903238D01*
X20244180Y-10998476D01*
X20291799Y-11046095D01*
X20387037Y-11093714D01*
X20577513Y-11141333D01*
X20815608Y-11141333D01*
X21006084Y-11093714D01*
X21101322Y-11046095D01*
X21148941Y-10998476D01*
X21196560Y-10903238D01*
X21196560Y-10808000D01*
X21148941Y-10712761D01*
X21101322Y-10665142D01*
X21006084Y-10617523D01*
X20815608Y-10569904D01*
X20577513Y-10569904D01*
X20387037Y-10617523D01*
X20291799Y-10665142D01*
X20244180Y-10712761D01*
X20196560Y-10808000D01*
X20196560Y-11998476D02*
X20196560Y-11807999D01*
X20244180Y-11712761D01*
X20291799Y-11665142D01*
X20434656Y-11569904D01*
X20625132Y-11522285D01*
X21006084Y-11522285D01*
X21101322Y-11569904D01*
X21148941Y-11617523D01*
X21196560Y-11712761D01*
X21196560Y-11903238D01*
X21148941Y-11998476D01*
X21101322Y-12046095D01*
X21006084Y-12093714D01*
X20767989Y-12093714D01*
X20672751Y-12046095D01*
X20625132Y-11998476D01*
X20577513Y-11903238D01*
X20577513Y-11712761D01*
X20625132Y-11617523D01*
X20672751Y-11569904D01*
X20767989Y-11522285D01*
X20529894Y-12950857D02*
X21196560Y-12950857D01*
X20148941Y-12712761D02*
X20863227Y-12474666D01*
X20863227Y-13093714D01*
X21196560Y-13998476D02*
X21196560Y-13427047D01*
X21196560Y-13712761D02*
X20196560Y-13712761D01*
X20339418Y-13617523D01*
X20434656Y-13522285D01*
X20482275Y-13427047D01*
X21196560Y-14427047D02*
X20196560Y-14427047D01*
X20672751Y-14427047D02*
X20672751Y-14998476D01*
X21196560Y-14998476D02*
X20196560Y-14998476D01*
X20196560Y-15331809D02*
X20196560Y-15903238D01*
X21196560Y-15617523D02*
X20196560Y-15617523D01*
X20529894Y-16665142D02*
X21196560Y-16665142D01*
X20148941Y-16427047D02*
X20863227Y-16188952D01*
X20863227Y-16807999D01*
X21196560Y-17188952D02*
X20196560Y-17188952D01*
X20672751Y-17188952D02*
X20672751Y-17760380D01*
X21196560Y-17760380D02*
X20196560Y-17760380D01*
X20815608Y-18236571D02*
X20815608Y-18998476D01*
X21196560Y-19998476D02*
X21196560Y-19427047D01*
X21196560Y-19712761D02*
X20196560Y-19712761D01*
X20339418Y-19617523D01*
X20434656Y-19522285D01*
X20482275Y-19427047D01*
G04 #@! TO.C,D3*
X31622903Y-31562900D02*
X31384808Y-32562900D01*
X31194332Y-31848615D01*
X31003856Y-32562900D01*
X30765760Y-31562900D01*
X30432427Y-32515281D02*
X30289570Y-32562900D01*
X30051475Y-32562900D01*
X29956237Y-32515281D01*
X29908618Y-32467662D01*
X29860999Y-32372424D01*
X29860999Y-32277186D01*
X29908618Y-32181948D01*
X29956237Y-32134329D01*
X30051475Y-32086710D01*
X30241951Y-32039091D01*
X30337189Y-31991472D01*
X30384808Y-31943853D01*
X30432427Y-31848615D01*
X30432427Y-31753377D01*
X30384808Y-31658139D01*
X30337189Y-31610520D01*
X30241951Y-31562900D01*
X30003856Y-31562900D01*
X29860999Y-31610520D01*
X29480046Y-31658139D02*
X29432427Y-31610520D01*
X29337189Y-31562900D01*
X29099094Y-31562900D01*
X29003856Y-31610520D01*
X28956237Y-31658139D01*
X28908618Y-31753377D01*
X28908618Y-31848615D01*
X28956237Y-31991472D01*
X29527665Y-32562900D01*
X28908618Y-32562900D01*
X28337189Y-31991472D02*
X28432427Y-31943853D01*
X28480046Y-31896234D01*
X28527665Y-31800996D01*
X28527665Y-31753377D01*
X28480046Y-31658139D01*
X28432427Y-31610520D01*
X28337189Y-31562900D01*
X28146713Y-31562900D01*
X28051475Y-31610520D01*
X28003856Y-31658139D01*
X27956237Y-31753377D01*
X27956237Y-31800996D01*
X28003856Y-31896234D01*
X28051475Y-31943853D01*
X28146713Y-31991472D01*
X28337189Y-31991472D01*
X28432427Y-32039091D01*
X28480046Y-32086710D01*
X28527665Y-32181948D01*
X28527665Y-32372424D01*
X28480046Y-32467662D01*
X28432427Y-32515281D01*
X28337189Y-32562900D01*
X28146713Y-32562900D01*
X28051475Y-32515281D01*
X28003856Y-32467662D01*
X27956237Y-32372424D01*
X27956237Y-32181948D01*
X28003856Y-32086710D01*
X28051475Y-32039091D01*
X28146713Y-31991472D01*
X27003856Y-32562900D02*
X27575284Y-32562900D01*
X27289570Y-32562900D02*
X27289570Y-31562900D01*
X27384808Y-31705758D01*
X27480046Y-31800996D01*
X27575284Y-31848615D01*
X26622903Y-31658139D02*
X26575284Y-31610520D01*
X26480046Y-31562900D01*
X26241951Y-31562900D01*
X26146713Y-31610520D01*
X26099094Y-31658139D01*
X26051475Y-31753377D01*
X26051475Y-31848615D01*
X26099094Y-31991472D01*
X26670522Y-32562900D01*
X26051475Y-32562900D01*
X25289570Y-32039091D02*
X25146713Y-32086710D01*
X25099094Y-32134329D01*
X25051475Y-32229567D01*
X25051475Y-32372424D01*
X25099094Y-32467662D01*
X25146713Y-32515281D01*
X25241951Y-32562900D01*
X25622903Y-32562900D01*
X25622903Y-31562900D01*
X25289570Y-31562900D01*
X25194332Y-31610520D01*
X25146713Y-31658139D01*
X25099094Y-31753377D01*
X25099094Y-31848615D01*
X25146713Y-31943853D01*
X25194332Y-31991472D01*
X25289570Y-32039091D01*
X25622903Y-32039091D01*
X28903856Y-36472424D02*
X28903856Y-35672424D01*
X28713380Y-35672424D01*
X28599094Y-35710520D01*
X28522903Y-35786710D01*
X28484808Y-35862900D01*
X28446713Y-36015281D01*
X28446713Y-36129567D01*
X28484808Y-36281948D01*
X28522903Y-36358139D01*
X28599094Y-36434329D01*
X28713380Y-36472424D01*
X28903856Y-36472424D01*
X28180046Y-35672424D02*
X27684808Y-35672424D01*
X27951475Y-35977186D01*
X27837189Y-35977186D01*
X27760999Y-36015281D01*
X27722903Y-36053377D01*
X27684808Y-36129567D01*
X27684808Y-36320043D01*
X27722903Y-36396234D01*
X27760999Y-36434329D01*
X27837189Y-36472424D01*
X28065760Y-36472424D01*
X28141951Y-36434329D01*
X28180046Y-36396234D01*
G04 #@! TO.C,D4*
X27304903Y-37658900D02*
X27066808Y-38658900D01*
X26876332Y-37944615D01*
X26685856Y-38658900D01*
X26447760Y-37658900D01*
X26114427Y-38611281D02*
X25971570Y-38658900D01*
X25733475Y-38658900D01*
X25638237Y-38611281D01*
X25590618Y-38563662D01*
X25542999Y-38468424D01*
X25542999Y-38373186D01*
X25590618Y-38277948D01*
X25638237Y-38230329D01*
X25733475Y-38182710D01*
X25923951Y-38135091D01*
X26019189Y-38087472D01*
X26066808Y-38039853D01*
X26114427Y-37944615D01*
X26114427Y-37849377D01*
X26066808Y-37754139D01*
X26019189Y-37706520D01*
X25923951Y-37658900D01*
X25685856Y-37658900D01*
X25542999Y-37706520D01*
X25162046Y-37754139D02*
X25114427Y-37706520D01*
X25019189Y-37658900D01*
X24781094Y-37658900D01*
X24685856Y-37706520D01*
X24638237Y-37754139D01*
X24590618Y-37849377D01*
X24590618Y-37944615D01*
X24638237Y-38087472D01*
X25209665Y-38658900D01*
X24590618Y-38658900D01*
X24019189Y-38087472D02*
X24114427Y-38039853D01*
X24162046Y-37992234D01*
X24209665Y-37896996D01*
X24209665Y-37849377D01*
X24162046Y-37754139D01*
X24114427Y-37706520D01*
X24019189Y-37658900D01*
X23828713Y-37658900D01*
X23733475Y-37706520D01*
X23685856Y-37754139D01*
X23638237Y-37849377D01*
X23638237Y-37896996D01*
X23685856Y-37992234D01*
X23733475Y-38039853D01*
X23828713Y-38087472D01*
X24019189Y-38087472D01*
X24114427Y-38135091D01*
X24162046Y-38182710D01*
X24209665Y-38277948D01*
X24209665Y-38468424D01*
X24162046Y-38563662D01*
X24114427Y-38611281D01*
X24019189Y-38658900D01*
X23828713Y-38658900D01*
X23733475Y-38611281D01*
X23685856Y-38563662D01*
X23638237Y-38468424D01*
X23638237Y-38277948D01*
X23685856Y-38182710D01*
X23733475Y-38135091D01*
X23828713Y-38087472D01*
X22685856Y-38658900D02*
X23257284Y-38658900D01*
X22971570Y-38658900D02*
X22971570Y-37658900D01*
X23066808Y-37801758D01*
X23162046Y-37896996D01*
X23257284Y-37944615D01*
X22304903Y-37754139D02*
X22257284Y-37706520D01*
X22162046Y-37658900D01*
X21923951Y-37658900D01*
X21828713Y-37706520D01*
X21781094Y-37754139D01*
X21733475Y-37849377D01*
X21733475Y-37944615D01*
X21781094Y-38087472D01*
X22352522Y-38658900D01*
X21733475Y-38658900D01*
X20971570Y-38135091D02*
X20828713Y-38182710D01*
X20781094Y-38230329D01*
X20733475Y-38325567D01*
X20733475Y-38468424D01*
X20781094Y-38563662D01*
X20828713Y-38611281D01*
X20923951Y-38658900D01*
X21304903Y-38658900D01*
X21304903Y-37658900D01*
X20971570Y-37658900D01*
X20876332Y-37706520D01*
X20828713Y-37754139D01*
X20781094Y-37849377D01*
X20781094Y-37944615D01*
X20828713Y-38039853D01*
X20876332Y-38087472D01*
X20971570Y-38135091D01*
X21304903Y-38135091D01*
X24585856Y-42568424D02*
X24585856Y-41768424D01*
X24395380Y-41768424D01*
X24281094Y-41806520D01*
X24204903Y-41882710D01*
X24166808Y-41958900D01*
X24128713Y-42111281D01*
X24128713Y-42225567D01*
X24166808Y-42377948D01*
X24204903Y-42454139D01*
X24281094Y-42530329D01*
X24395380Y-42568424D01*
X24585856Y-42568424D01*
X23442999Y-42035091D02*
X23442999Y-42568424D01*
X23633475Y-41730329D02*
X23823951Y-42301758D01*
X23328713Y-42301758D01*
G04 #@! TO.C,D5*
X24155303Y-44516900D02*
X23917208Y-45516900D01*
X23726732Y-44802615D01*
X23536256Y-45516900D01*
X23298160Y-44516900D01*
X22964827Y-45469281D02*
X22821970Y-45516900D01*
X22583875Y-45516900D01*
X22488637Y-45469281D01*
X22441018Y-45421662D01*
X22393399Y-45326424D01*
X22393399Y-45231186D01*
X22441018Y-45135948D01*
X22488637Y-45088329D01*
X22583875Y-45040710D01*
X22774351Y-44993091D01*
X22869589Y-44945472D01*
X22917208Y-44897853D01*
X22964827Y-44802615D01*
X22964827Y-44707377D01*
X22917208Y-44612139D01*
X22869589Y-44564520D01*
X22774351Y-44516900D01*
X22536256Y-44516900D01*
X22393399Y-44564520D01*
X22012446Y-44612139D02*
X21964827Y-44564520D01*
X21869589Y-44516900D01*
X21631494Y-44516900D01*
X21536256Y-44564520D01*
X21488637Y-44612139D01*
X21441018Y-44707377D01*
X21441018Y-44802615D01*
X21488637Y-44945472D01*
X22060065Y-45516900D01*
X21441018Y-45516900D01*
X20869589Y-44945472D02*
X20964827Y-44897853D01*
X21012446Y-44850234D01*
X21060065Y-44754996D01*
X21060065Y-44707377D01*
X21012446Y-44612139D01*
X20964827Y-44564520D01*
X20869589Y-44516900D01*
X20679113Y-44516900D01*
X20583875Y-44564520D01*
X20536256Y-44612139D01*
X20488637Y-44707377D01*
X20488637Y-44754996D01*
X20536256Y-44850234D01*
X20583875Y-44897853D01*
X20679113Y-44945472D01*
X20869589Y-44945472D01*
X20964827Y-44993091D01*
X21012446Y-45040710D01*
X21060065Y-45135948D01*
X21060065Y-45326424D01*
X21012446Y-45421662D01*
X20964827Y-45469281D01*
X20869589Y-45516900D01*
X20679113Y-45516900D01*
X20583875Y-45469281D01*
X20536256Y-45421662D01*
X20488637Y-45326424D01*
X20488637Y-45135948D01*
X20536256Y-45040710D01*
X20583875Y-44993091D01*
X20679113Y-44945472D01*
X19536256Y-45516900D02*
X20107684Y-45516900D01*
X19821970Y-45516900D02*
X19821970Y-44516900D01*
X19917208Y-44659758D01*
X20012446Y-44754996D01*
X20107684Y-44802615D01*
X19155303Y-44612139D02*
X19107684Y-44564520D01*
X19012446Y-44516900D01*
X18774351Y-44516900D01*
X18679113Y-44564520D01*
X18631494Y-44612139D01*
X18583875Y-44707377D01*
X18583875Y-44802615D01*
X18631494Y-44945472D01*
X19202922Y-45516900D01*
X18583875Y-45516900D01*
X17821970Y-44993091D02*
X17679113Y-45040710D01*
X17631494Y-45088329D01*
X17583875Y-45183567D01*
X17583875Y-45326424D01*
X17631494Y-45421662D01*
X17679113Y-45469281D01*
X17774351Y-45516900D01*
X18155303Y-45516900D01*
X18155303Y-44516900D01*
X17821970Y-44516900D01*
X17726732Y-44564520D01*
X17679113Y-44612139D01*
X17631494Y-44707377D01*
X17631494Y-44802615D01*
X17679113Y-44897853D01*
X17726732Y-44945472D01*
X17821970Y-44993091D01*
X18155303Y-44993091D01*
X21436256Y-49426424D02*
X21436256Y-48626424D01*
X21245780Y-48626424D01*
X21131494Y-48664520D01*
X21055303Y-48740710D01*
X21017208Y-48816900D01*
X20979113Y-48969281D01*
X20979113Y-49083567D01*
X21017208Y-49235948D01*
X21055303Y-49312139D01*
X21131494Y-49388329D01*
X21245780Y-49426424D01*
X21436256Y-49426424D01*
X20255303Y-48626424D02*
X20636256Y-48626424D01*
X20674351Y-49007377D01*
X20636256Y-48969281D01*
X20560065Y-48931186D01*
X20369589Y-48931186D01*
X20293399Y-48969281D01*
X20255303Y-49007377D01*
X20217208Y-49083567D01*
X20217208Y-49274043D01*
X20255303Y-49350234D01*
X20293399Y-49388329D01*
X20369589Y-49426424D01*
X20560065Y-49426424D01*
X20636256Y-49388329D01*
X20674351Y-49350234D01*
G04 #@! TO.C,D6*
X27254103Y-51374900D02*
X27016008Y-52374900D01*
X26825532Y-51660615D01*
X26635056Y-52374900D01*
X26396960Y-51374900D01*
X26063627Y-52327281D02*
X25920770Y-52374900D01*
X25682675Y-52374900D01*
X25587437Y-52327281D01*
X25539818Y-52279662D01*
X25492199Y-52184424D01*
X25492199Y-52089186D01*
X25539818Y-51993948D01*
X25587437Y-51946329D01*
X25682675Y-51898710D01*
X25873151Y-51851091D01*
X25968389Y-51803472D01*
X26016008Y-51755853D01*
X26063627Y-51660615D01*
X26063627Y-51565377D01*
X26016008Y-51470139D01*
X25968389Y-51422520D01*
X25873151Y-51374900D01*
X25635056Y-51374900D01*
X25492199Y-51422520D01*
X25111246Y-51470139D02*
X25063627Y-51422520D01*
X24968389Y-51374900D01*
X24730294Y-51374900D01*
X24635056Y-51422520D01*
X24587437Y-51470139D01*
X24539818Y-51565377D01*
X24539818Y-51660615D01*
X24587437Y-51803472D01*
X25158865Y-52374900D01*
X24539818Y-52374900D01*
X23968389Y-51803472D02*
X24063627Y-51755853D01*
X24111246Y-51708234D01*
X24158865Y-51612996D01*
X24158865Y-51565377D01*
X24111246Y-51470139D01*
X24063627Y-51422520D01*
X23968389Y-51374900D01*
X23777913Y-51374900D01*
X23682675Y-51422520D01*
X23635056Y-51470139D01*
X23587437Y-51565377D01*
X23587437Y-51612996D01*
X23635056Y-51708234D01*
X23682675Y-51755853D01*
X23777913Y-51803472D01*
X23968389Y-51803472D01*
X24063627Y-51851091D01*
X24111246Y-51898710D01*
X24158865Y-51993948D01*
X24158865Y-52184424D01*
X24111246Y-52279662D01*
X24063627Y-52327281D01*
X23968389Y-52374900D01*
X23777913Y-52374900D01*
X23682675Y-52327281D01*
X23635056Y-52279662D01*
X23587437Y-52184424D01*
X23587437Y-51993948D01*
X23635056Y-51898710D01*
X23682675Y-51851091D01*
X23777913Y-51803472D01*
X22635056Y-52374900D02*
X23206484Y-52374900D01*
X22920770Y-52374900D02*
X22920770Y-51374900D01*
X23016008Y-51517758D01*
X23111246Y-51612996D01*
X23206484Y-51660615D01*
X22254103Y-51470139D02*
X22206484Y-51422520D01*
X22111246Y-51374900D01*
X21873151Y-51374900D01*
X21777913Y-51422520D01*
X21730294Y-51470139D01*
X21682675Y-51565377D01*
X21682675Y-51660615D01*
X21730294Y-51803472D01*
X22301722Y-52374900D01*
X21682675Y-52374900D01*
X20920770Y-51851091D02*
X20777913Y-51898710D01*
X20730294Y-51946329D01*
X20682675Y-52041567D01*
X20682675Y-52184424D01*
X20730294Y-52279662D01*
X20777913Y-52327281D01*
X20873151Y-52374900D01*
X21254103Y-52374900D01*
X21254103Y-51374900D01*
X20920770Y-51374900D01*
X20825532Y-51422520D01*
X20777913Y-51470139D01*
X20730294Y-51565377D01*
X20730294Y-51660615D01*
X20777913Y-51755853D01*
X20825532Y-51803472D01*
X20920770Y-51851091D01*
X21254103Y-51851091D01*
X24535056Y-56284424D02*
X24535056Y-55484424D01*
X24344580Y-55484424D01*
X24230294Y-55522520D01*
X24154103Y-55598710D01*
X24116008Y-55674900D01*
X24077913Y-55827281D01*
X24077913Y-55941567D01*
X24116008Y-56093948D01*
X24154103Y-56170139D01*
X24230294Y-56246329D01*
X24344580Y-56284424D01*
X24535056Y-56284424D01*
X23392199Y-55484424D02*
X23544580Y-55484424D01*
X23620770Y-55522520D01*
X23658865Y-55560615D01*
X23735056Y-55674900D01*
X23773151Y-55827281D01*
X23773151Y-56132043D01*
X23735056Y-56208234D01*
X23696960Y-56246329D01*
X23620770Y-56284424D01*
X23468389Y-56284424D01*
X23392199Y-56246329D01*
X23354103Y-56208234D01*
X23316008Y-56132043D01*
X23316008Y-55941567D01*
X23354103Y-55865377D01*
X23392199Y-55827281D01*
X23468389Y-55789186D01*
X23620770Y-55789186D01*
X23696960Y-55827281D01*
X23735056Y-55865377D01*
X23773151Y-55941567D01*
G04 #@! TO.C,D7*
X31673703Y-57420100D02*
X31435608Y-58420100D01*
X31245132Y-57705815D01*
X31054656Y-58420100D01*
X30816560Y-57420100D01*
X30483227Y-58372481D02*
X30340370Y-58420100D01*
X30102275Y-58420100D01*
X30007037Y-58372481D01*
X29959418Y-58324862D01*
X29911799Y-58229624D01*
X29911799Y-58134386D01*
X29959418Y-58039148D01*
X30007037Y-57991529D01*
X30102275Y-57943910D01*
X30292751Y-57896291D01*
X30387989Y-57848672D01*
X30435608Y-57801053D01*
X30483227Y-57705815D01*
X30483227Y-57610577D01*
X30435608Y-57515339D01*
X30387989Y-57467720D01*
X30292751Y-57420100D01*
X30054656Y-57420100D01*
X29911799Y-57467720D01*
X29530846Y-57515339D02*
X29483227Y-57467720D01*
X29387989Y-57420100D01*
X29149894Y-57420100D01*
X29054656Y-57467720D01*
X29007037Y-57515339D01*
X28959418Y-57610577D01*
X28959418Y-57705815D01*
X29007037Y-57848672D01*
X29578465Y-58420100D01*
X28959418Y-58420100D01*
X28387989Y-57848672D02*
X28483227Y-57801053D01*
X28530846Y-57753434D01*
X28578465Y-57658196D01*
X28578465Y-57610577D01*
X28530846Y-57515339D01*
X28483227Y-57467720D01*
X28387989Y-57420100D01*
X28197513Y-57420100D01*
X28102275Y-57467720D01*
X28054656Y-57515339D01*
X28007037Y-57610577D01*
X28007037Y-57658196D01*
X28054656Y-57753434D01*
X28102275Y-57801053D01*
X28197513Y-57848672D01*
X28387989Y-57848672D01*
X28483227Y-57896291D01*
X28530846Y-57943910D01*
X28578465Y-58039148D01*
X28578465Y-58229624D01*
X28530846Y-58324862D01*
X28483227Y-58372481D01*
X28387989Y-58420100D01*
X28197513Y-58420100D01*
X28102275Y-58372481D01*
X28054656Y-58324862D01*
X28007037Y-58229624D01*
X28007037Y-58039148D01*
X28054656Y-57943910D01*
X28102275Y-57896291D01*
X28197513Y-57848672D01*
X27054656Y-58420100D02*
X27626084Y-58420100D01*
X27340370Y-58420100D02*
X27340370Y-57420100D01*
X27435608Y-57562958D01*
X27530846Y-57658196D01*
X27626084Y-57705815D01*
X26673703Y-57515339D02*
X26626084Y-57467720D01*
X26530846Y-57420100D01*
X26292751Y-57420100D01*
X26197513Y-57467720D01*
X26149894Y-57515339D01*
X26102275Y-57610577D01*
X26102275Y-57705815D01*
X26149894Y-57848672D01*
X26721322Y-58420100D01*
X26102275Y-58420100D01*
X25340370Y-57896291D02*
X25197513Y-57943910D01*
X25149894Y-57991529D01*
X25102275Y-58086767D01*
X25102275Y-58229624D01*
X25149894Y-58324862D01*
X25197513Y-58372481D01*
X25292751Y-58420100D01*
X25673703Y-58420100D01*
X25673703Y-57420100D01*
X25340370Y-57420100D01*
X25245132Y-57467720D01*
X25197513Y-57515339D01*
X25149894Y-57610577D01*
X25149894Y-57705815D01*
X25197513Y-57801053D01*
X25245132Y-57848672D01*
X25340370Y-57896291D01*
X25673703Y-57896291D01*
X28954656Y-62329624D02*
X28954656Y-61529624D01*
X28764180Y-61529624D01*
X28649894Y-61567720D01*
X28573703Y-61643910D01*
X28535608Y-61720100D01*
X28497513Y-61872481D01*
X28497513Y-61986767D01*
X28535608Y-62139148D01*
X28573703Y-62215339D01*
X28649894Y-62291529D01*
X28764180Y-62329624D01*
X28954656Y-62329624D01*
X28230846Y-61529624D02*
X27697513Y-61529624D01*
X28040370Y-62329624D01*
G04 #@! TO.C,D8*
X39141303Y-58080500D02*
X38903208Y-59080500D01*
X38712732Y-58366215D01*
X38522256Y-59080500D01*
X38284160Y-58080500D01*
X37950827Y-59032881D02*
X37807970Y-59080500D01*
X37569875Y-59080500D01*
X37474637Y-59032881D01*
X37427018Y-58985262D01*
X37379399Y-58890024D01*
X37379399Y-58794786D01*
X37427018Y-58699548D01*
X37474637Y-58651929D01*
X37569875Y-58604310D01*
X37760351Y-58556691D01*
X37855589Y-58509072D01*
X37903208Y-58461453D01*
X37950827Y-58366215D01*
X37950827Y-58270977D01*
X37903208Y-58175739D01*
X37855589Y-58128120D01*
X37760351Y-58080500D01*
X37522256Y-58080500D01*
X37379399Y-58128120D01*
X36998446Y-58175739D02*
X36950827Y-58128120D01*
X36855589Y-58080500D01*
X36617494Y-58080500D01*
X36522256Y-58128120D01*
X36474637Y-58175739D01*
X36427018Y-58270977D01*
X36427018Y-58366215D01*
X36474637Y-58509072D01*
X37046065Y-59080500D01*
X36427018Y-59080500D01*
X35855589Y-58509072D02*
X35950827Y-58461453D01*
X35998446Y-58413834D01*
X36046065Y-58318596D01*
X36046065Y-58270977D01*
X35998446Y-58175739D01*
X35950827Y-58128120D01*
X35855589Y-58080500D01*
X35665113Y-58080500D01*
X35569875Y-58128120D01*
X35522256Y-58175739D01*
X35474637Y-58270977D01*
X35474637Y-58318596D01*
X35522256Y-58413834D01*
X35569875Y-58461453D01*
X35665113Y-58509072D01*
X35855589Y-58509072D01*
X35950827Y-58556691D01*
X35998446Y-58604310D01*
X36046065Y-58699548D01*
X36046065Y-58890024D01*
X35998446Y-58985262D01*
X35950827Y-59032881D01*
X35855589Y-59080500D01*
X35665113Y-59080500D01*
X35569875Y-59032881D01*
X35522256Y-58985262D01*
X35474637Y-58890024D01*
X35474637Y-58699548D01*
X35522256Y-58604310D01*
X35569875Y-58556691D01*
X35665113Y-58509072D01*
X34522256Y-59080500D02*
X35093684Y-59080500D01*
X34807970Y-59080500D02*
X34807970Y-58080500D01*
X34903208Y-58223358D01*
X34998446Y-58318596D01*
X35093684Y-58366215D01*
X34141303Y-58175739D02*
X34093684Y-58128120D01*
X33998446Y-58080500D01*
X33760351Y-58080500D01*
X33665113Y-58128120D01*
X33617494Y-58175739D01*
X33569875Y-58270977D01*
X33569875Y-58366215D01*
X33617494Y-58509072D01*
X34188922Y-59080500D01*
X33569875Y-59080500D01*
X32807970Y-58556691D02*
X32665113Y-58604310D01*
X32617494Y-58651929D01*
X32569875Y-58747167D01*
X32569875Y-58890024D01*
X32617494Y-58985262D01*
X32665113Y-59032881D01*
X32760351Y-59080500D01*
X33141303Y-59080500D01*
X33141303Y-58080500D01*
X32807970Y-58080500D01*
X32712732Y-58128120D01*
X32665113Y-58175739D01*
X32617494Y-58270977D01*
X32617494Y-58366215D01*
X32665113Y-58461453D01*
X32712732Y-58509072D01*
X32807970Y-58556691D01*
X33141303Y-58556691D01*
X36422256Y-62990024D02*
X36422256Y-62190024D01*
X36231780Y-62190024D01*
X36117494Y-62228120D01*
X36041303Y-62304310D01*
X36003208Y-62380500D01*
X35965113Y-62532881D01*
X35965113Y-62647167D01*
X36003208Y-62799548D01*
X36041303Y-62875739D01*
X36117494Y-62951929D01*
X36231780Y-62990024D01*
X36422256Y-62990024D01*
X35507970Y-62532881D02*
X35584160Y-62494786D01*
X35622256Y-62456691D01*
X35660351Y-62380500D01*
X35660351Y-62342405D01*
X35622256Y-62266215D01*
X35584160Y-62228120D01*
X35507970Y-62190024D01*
X35355589Y-62190024D01*
X35279399Y-62228120D01*
X35241303Y-62266215D01*
X35203208Y-62342405D01*
X35203208Y-62380500D01*
X35241303Y-62456691D01*
X35279399Y-62494786D01*
X35355589Y-62532881D01*
X35507970Y-62532881D01*
X35584160Y-62570977D01*
X35622256Y-62609072D01*
X35660351Y-62685262D01*
X35660351Y-62837643D01*
X35622256Y-62913834D01*
X35584160Y-62951929D01*
X35507970Y-62990024D01*
X35355589Y-62990024D01*
X35279399Y-62951929D01*
X35241303Y-62913834D01*
X35203208Y-62837643D01*
X35203208Y-62685262D01*
X35241303Y-62609072D01*
X35279399Y-62570977D01*
X35355589Y-62532881D01*
G04 #@! TO.C,D9*
X46659703Y-57470900D02*
X46421608Y-58470900D01*
X46231132Y-57756615D01*
X46040656Y-58470900D01*
X45802560Y-57470900D01*
X45469227Y-58423281D02*
X45326370Y-58470900D01*
X45088275Y-58470900D01*
X44993037Y-58423281D01*
X44945418Y-58375662D01*
X44897799Y-58280424D01*
X44897799Y-58185186D01*
X44945418Y-58089948D01*
X44993037Y-58042329D01*
X45088275Y-57994710D01*
X45278751Y-57947091D01*
X45373989Y-57899472D01*
X45421608Y-57851853D01*
X45469227Y-57756615D01*
X45469227Y-57661377D01*
X45421608Y-57566139D01*
X45373989Y-57518520D01*
X45278751Y-57470900D01*
X45040656Y-57470900D01*
X44897799Y-57518520D01*
X44516846Y-57566139D02*
X44469227Y-57518520D01*
X44373989Y-57470900D01*
X44135894Y-57470900D01*
X44040656Y-57518520D01*
X43993037Y-57566139D01*
X43945418Y-57661377D01*
X43945418Y-57756615D01*
X43993037Y-57899472D01*
X44564465Y-58470900D01*
X43945418Y-58470900D01*
X43373989Y-57899472D02*
X43469227Y-57851853D01*
X43516846Y-57804234D01*
X43564465Y-57708996D01*
X43564465Y-57661377D01*
X43516846Y-57566139D01*
X43469227Y-57518520D01*
X43373989Y-57470900D01*
X43183513Y-57470900D01*
X43088275Y-57518520D01*
X43040656Y-57566139D01*
X42993037Y-57661377D01*
X42993037Y-57708996D01*
X43040656Y-57804234D01*
X43088275Y-57851853D01*
X43183513Y-57899472D01*
X43373989Y-57899472D01*
X43469227Y-57947091D01*
X43516846Y-57994710D01*
X43564465Y-58089948D01*
X43564465Y-58280424D01*
X43516846Y-58375662D01*
X43469227Y-58423281D01*
X43373989Y-58470900D01*
X43183513Y-58470900D01*
X43088275Y-58423281D01*
X43040656Y-58375662D01*
X42993037Y-58280424D01*
X42993037Y-58089948D01*
X43040656Y-57994710D01*
X43088275Y-57947091D01*
X43183513Y-57899472D01*
X42040656Y-58470900D02*
X42612084Y-58470900D01*
X42326370Y-58470900D02*
X42326370Y-57470900D01*
X42421608Y-57613758D01*
X42516846Y-57708996D01*
X42612084Y-57756615D01*
X41659703Y-57566139D02*
X41612084Y-57518520D01*
X41516846Y-57470900D01*
X41278751Y-57470900D01*
X41183513Y-57518520D01*
X41135894Y-57566139D01*
X41088275Y-57661377D01*
X41088275Y-57756615D01*
X41135894Y-57899472D01*
X41707322Y-58470900D01*
X41088275Y-58470900D01*
X40326370Y-57947091D02*
X40183513Y-57994710D01*
X40135894Y-58042329D01*
X40088275Y-58137567D01*
X40088275Y-58280424D01*
X40135894Y-58375662D01*
X40183513Y-58423281D01*
X40278751Y-58470900D01*
X40659703Y-58470900D01*
X40659703Y-57470900D01*
X40326370Y-57470900D01*
X40231132Y-57518520D01*
X40183513Y-57566139D01*
X40135894Y-57661377D01*
X40135894Y-57756615D01*
X40183513Y-57851853D01*
X40231132Y-57899472D01*
X40326370Y-57947091D01*
X40659703Y-57947091D01*
X43940656Y-62380424D02*
X43940656Y-61580424D01*
X43750180Y-61580424D01*
X43635894Y-61618520D01*
X43559703Y-61694710D01*
X43521608Y-61770900D01*
X43483513Y-61923281D01*
X43483513Y-62037567D01*
X43521608Y-62189948D01*
X43559703Y-62266139D01*
X43635894Y-62342329D01*
X43750180Y-62380424D01*
X43940656Y-62380424D01*
X43102560Y-62380424D02*
X42950180Y-62380424D01*
X42873989Y-62342329D01*
X42835894Y-62304234D01*
X42759703Y-62189948D01*
X42721608Y-62037567D01*
X42721608Y-61732805D01*
X42759703Y-61656615D01*
X42797799Y-61618520D01*
X42873989Y-61580424D01*
X43026370Y-61580424D01*
X43102560Y-61618520D01*
X43140656Y-61656615D01*
X43178751Y-61732805D01*
X43178751Y-61923281D01*
X43140656Y-61999472D01*
X43102560Y-62037567D01*
X43026370Y-62075662D01*
X42873989Y-62075662D01*
X42797799Y-62037567D01*
X42759703Y-61999472D01*
X42721608Y-61923281D01*
G04 #@! TO.C,D10*
X51028503Y-51273300D02*
X50790408Y-52273300D01*
X50599932Y-51559015D01*
X50409456Y-52273300D01*
X50171360Y-51273300D01*
X49838027Y-52225681D02*
X49695170Y-52273300D01*
X49457075Y-52273300D01*
X49361837Y-52225681D01*
X49314218Y-52178062D01*
X49266599Y-52082824D01*
X49266599Y-51987586D01*
X49314218Y-51892348D01*
X49361837Y-51844729D01*
X49457075Y-51797110D01*
X49647551Y-51749491D01*
X49742789Y-51701872D01*
X49790408Y-51654253D01*
X49838027Y-51559015D01*
X49838027Y-51463777D01*
X49790408Y-51368539D01*
X49742789Y-51320920D01*
X49647551Y-51273300D01*
X49409456Y-51273300D01*
X49266599Y-51320920D01*
X48885646Y-51368539D02*
X48838027Y-51320920D01*
X48742789Y-51273300D01*
X48504694Y-51273300D01*
X48409456Y-51320920D01*
X48361837Y-51368539D01*
X48314218Y-51463777D01*
X48314218Y-51559015D01*
X48361837Y-51701872D01*
X48933265Y-52273300D01*
X48314218Y-52273300D01*
X47742789Y-51701872D02*
X47838027Y-51654253D01*
X47885646Y-51606634D01*
X47933265Y-51511396D01*
X47933265Y-51463777D01*
X47885646Y-51368539D01*
X47838027Y-51320920D01*
X47742789Y-51273300D01*
X47552313Y-51273300D01*
X47457075Y-51320920D01*
X47409456Y-51368539D01*
X47361837Y-51463777D01*
X47361837Y-51511396D01*
X47409456Y-51606634D01*
X47457075Y-51654253D01*
X47552313Y-51701872D01*
X47742789Y-51701872D01*
X47838027Y-51749491D01*
X47885646Y-51797110D01*
X47933265Y-51892348D01*
X47933265Y-52082824D01*
X47885646Y-52178062D01*
X47838027Y-52225681D01*
X47742789Y-52273300D01*
X47552313Y-52273300D01*
X47457075Y-52225681D01*
X47409456Y-52178062D01*
X47361837Y-52082824D01*
X47361837Y-51892348D01*
X47409456Y-51797110D01*
X47457075Y-51749491D01*
X47552313Y-51701872D01*
X46409456Y-52273300D02*
X46980884Y-52273300D01*
X46695170Y-52273300D02*
X46695170Y-51273300D01*
X46790408Y-51416158D01*
X46885646Y-51511396D01*
X46980884Y-51559015D01*
X46028503Y-51368539D02*
X45980884Y-51320920D01*
X45885646Y-51273300D01*
X45647551Y-51273300D01*
X45552313Y-51320920D01*
X45504694Y-51368539D01*
X45457075Y-51463777D01*
X45457075Y-51559015D01*
X45504694Y-51701872D01*
X46076122Y-52273300D01*
X45457075Y-52273300D01*
X44695170Y-51749491D02*
X44552313Y-51797110D01*
X44504694Y-51844729D01*
X44457075Y-51939967D01*
X44457075Y-52082824D01*
X44504694Y-52178062D01*
X44552313Y-52225681D01*
X44647551Y-52273300D01*
X45028503Y-52273300D01*
X45028503Y-51273300D01*
X44695170Y-51273300D01*
X44599932Y-51320920D01*
X44552313Y-51368539D01*
X44504694Y-51463777D01*
X44504694Y-51559015D01*
X44552313Y-51654253D01*
X44599932Y-51701872D01*
X44695170Y-51749491D01*
X45028503Y-51749491D01*
X48690408Y-56182824D02*
X48690408Y-55382824D01*
X48499932Y-55382824D01*
X48385646Y-55420920D01*
X48309456Y-55497110D01*
X48271360Y-55573300D01*
X48233265Y-55725681D01*
X48233265Y-55839967D01*
X48271360Y-55992348D01*
X48309456Y-56068539D01*
X48385646Y-56144729D01*
X48499932Y-56182824D01*
X48690408Y-56182824D01*
X47471360Y-56182824D02*
X47928503Y-56182824D01*
X47699932Y-56182824D02*
X47699932Y-55382824D01*
X47776122Y-55497110D01*
X47852313Y-55573300D01*
X47928503Y-55611396D01*
X46976122Y-55382824D02*
X46899932Y-55382824D01*
X46823741Y-55420920D01*
X46785646Y-55459015D01*
X46747551Y-55535205D01*
X46709456Y-55687586D01*
X46709456Y-55878062D01*
X46747551Y-56030443D01*
X46785646Y-56106634D01*
X46823741Y-56144729D01*
X46899932Y-56182824D01*
X46976122Y-56182824D01*
X47052313Y-56144729D01*
X47090408Y-56106634D01*
X47128503Y-56030443D01*
X47166599Y-55878062D01*
X47166599Y-55687586D01*
X47128503Y-55535205D01*
X47090408Y-55459015D01*
X47052313Y-55420920D01*
X46976122Y-55382824D01*
G04 #@! TO.C,D11*
X54127303Y-44466100D02*
X53889208Y-45466100D01*
X53698732Y-44751815D01*
X53508256Y-45466100D01*
X53270160Y-44466100D01*
X52936827Y-45418481D02*
X52793970Y-45466100D01*
X52555875Y-45466100D01*
X52460637Y-45418481D01*
X52413018Y-45370862D01*
X52365399Y-45275624D01*
X52365399Y-45180386D01*
X52413018Y-45085148D01*
X52460637Y-45037529D01*
X52555875Y-44989910D01*
X52746351Y-44942291D01*
X52841589Y-44894672D01*
X52889208Y-44847053D01*
X52936827Y-44751815D01*
X52936827Y-44656577D01*
X52889208Y-44561339D01*
X52841589Y-44513720D01*
X52746351Y-44466100D01*
X52508256Y-44466100D01*
X52365399Y-44513720D01*
X51984446Y-44561339D02*
X51936827Y-44513720D01*
X51841589Y-44466100D01*
X51603494Y-44466100D01*
X51508256Y-44513720D01*
X51460637Y-44561339D01*
X51413018Y-44656577D01*
X51413018Y-44751815D01*
X51460637Y-44894672D01*
X52032065Y-45466100D01*
X51413018Y-45466100D01*
X50841589Y-44894672D02*
X50936827Y-44847053D01*
X50984446Y-44799434D01*
X51032065Y-44704196D01*
X51032065Y-44656577D01*
X50984446Y-44561339D01*
X50936827Y-44513720D01*
X50841589Y-44466100D01*
X50651113Y-44466100D01*
X50555875Y-44513720D01*
X50508256Y-44561339D01*
X50460637Y-44656577D01*
X50460637Y-44704196D01*
X50508256Y-44799434D01*
X50555875Y-44847053D01*
X50651113Y-44894672D01*
X50841589Y-44894672D01*
X50936827Y-44942291D01*
X50984446Y-44989910D01*
X51032065Y-45085148D01*
X51032065Y-45275624D01*
X50984446Y-45370862D01*
X50936827Y-45418481D01*
X50841589Y-45466100D01*
X50651113Y-45466100D01*
X50555875Y-45418481D01*
X50508256Y-45370862D01*
X50460637Y-45275624D01*
X50460637Y-45085148D01*
X50508256Y-44989910D01*
X50555875Y-44942291D01*
X50651113Y-44894672D01*
X49508256Y-45466100D02*
X50079684Y-45466100D01*
X49793970Y-45466100D02*
X49793970Y-44466100D01*
X49889208Y-44608958D01*
X49984446Y-44704196D01*
X50079684Y-44751815D01*
X49127303Y-44561339D02*
X49079684Y-44513720D01*
X48984446Y-44466100D01*
X48746351Y-44466100D01*
X48651113Y-44513720D01*
X48603494Y-44561339D01*
X48555875Y-44656577D01*
X48555875Y-44751815D01*
X48603494Y-44894672D01*
X49174922Y-45466100D01*
X48555875Y-45466100D01*
X47793970Y-44942291D02*
X47651113Y-44989910D01*
X47603494Y-45037529D01*
X47555875Y-45132767D01*
X47555875Y-45275624D01*
X47603494Y-45370862D01*
X47651113Y-45418481D01*
X47746351Y-45466100D01*
X48127303Y-45466100D01*
X48127303Y-44466100D01*
X47793970Y-44466100D01*
X47698732Y-44513720D01*
X47651113Y-44561339D01*
X47603494Y-44656577D01*
X47603494Y-44751815D01*
X47651113Y-44847053D01*
X47698732Y-44894672D01*
X47793970Y-44942291D01*
X48127303Y-44942291D01*
X51789208Y-49375624D02*
X51789208Y-48575624D01*
X51598732Y-48575624D01*
X51484446Y-48613720D01*
X51408256Y-48689910D01*
X51370160Y-48766100D01*
X51332065Y-48918481D01*
X51332065Y-49032767D01*
X51370160Y-49185148D01*
X51408256Y-49261339D01*
X51484446Y-49337529D01*
X51598732Y-49375624D01*
X51789208Y-49375624D01*
X50570160Y-49375624D02*
X51027303Y-49375624D01*
X50798732Y-49375624D02*
X50798732Y-48575624D01*
X50874922Y-48689910D01*
X50951113Y-48766100D01*
X51027303Y-48804196D01*
X49808256Y-49375624D02*
X50265399Y-49375624D01*
X50036827Y-49375624D02*
X50036827Y-48575624D01*
X50113018Y-48689910D01*
X50189208Y-48766100D01*
X50265399Y-48804196D01*
G04 #@! TO.C,D12*
X50977703Y-37658900D02*
X50739608Y-38658900D01*
X50549132Y-37944615D01*
X50358656Y-38658900D01*
X50120560Y-37658900D01*
X49787227Y-38611281D02*
X49644370Y-38658900D01*
X49406275Y-38658900D01*
X49311037Y-38611281D01*
X49263418Y-38563662D01*
X49215799Y-38468424D01*
X49215799Y-38373186D01*
X49263418Y-38277948D01*
X49311037Y-38230329D01*
X49406275Y-38182710D01*
X49596751Y-38135091D01*
X49691989Y-38087472D01*
X49739608Y-38039853D01*
X49787227Y-37944615D01*
X49787227Y-37849377D01*
X49739608Y-37754139D01*
X49691989Y-37706520D01*
X49596751Y-37658900D01*
X49358656Y-37658900D01*
X49215799Y-37706520D01*
X48834846Y-37754139D02*
X48787227Y-37706520D01*
X48691989Y-37658900D01*
X48453894Y-37658900D01*
X48358656Y-37706520D01*
X48311037Y-37754139D01*
X48263418Y-37849377D01*
X48263418Y-37944615D01*
X48311037Y-38087472D01*
X48882465Y-38658900D01*
X48263418Y-38658900D01*
X47691989Y-38087472D02*
X47787227Y-38039853D01*
X47834846Y-37992234D01*
X47882465Y-37896996D01*
X47882465Y-37849377D01*
X47834846Y-37754139D01*
X47787227Y-37706520D01*
X47691989Y-37658900D01*
X47501513Y-37658900D01*
X47406275Y-37706520D01*
X47358656Y-37754139D01*
X47311037Y-37849377D01*
X47311037Y-37896996D01*
X47358656Y-37992234D01*
X47406275Y-38039853D01*
X47501513Y-38087472D01*
X47691989Y-38087472D01*
X47787227Y-38135091D01*
X47834846Y-38182710D01*
X47882465Y-38277948D01*
X47882465Y-38468424D01*
X47834846Y-38563662D01*
X47787227Y-38611281D01*
X47691989Y-38658900D01*
X47501513Y-38658900D01*
X47406275Y-38611281D01*
X47358656Y-38563662D01*
X47311037Y-38468424D01*
X47311037Y-38277948D01*
X47358656Y-38182710D01*
X47406275Y-38135091D01*
X47501513Y-38087472D01*
X46358656Y-38658900D02*
X46930084Y-38658900D01*
X46644370Y-38658900D02*
X46644370Y-37658900D01*
X46739608Y-37801758D01*
X46834846Y-37896996D01*
X46930084Y-37944615D01*
X45977703Y-37754139D02*
X45930084Y-37706520D01*
X45834846Y-37658900D01*
X45596751Y-37658900D01*
X45501513Y-37706520D01*
X45453894Y-37754139D01*
X45406275Y-37849377D01*
X45406275Y-37944615D01*
X45453894Y-38087472D01*
X46025322Y-38658900D01*
X45406275Y-38658900D01*
X44644370Y-38135091D02*
X44501513Y-38182710D01*
X44453894Y-38230329D01*
X44406275Y-38325567D01*
X44406275Y-38468424D01*
X44453894Y-38563662D01*
X44501513Y-38611281D01*
X44596751Y-38658900D01*
X44977703Y-38658900D01*
X44977703Y-37658900D01*
X44644370Y-37658900D01*
X44549132Y-37706520D01*
X44501513Y-37754139D01*
X44453894Y-37849377D01*
X44453894Y-37944615D01*
X44501513Y-38039853D01*
X44549132Y-38087472D01*
X44644370Y-38135091D01*
X44977703Y-38135091D01*
X48639608Y-42568424D02*
X48639608Y-41768424D01*
X48449132Y-41768424D01*
X48334846Y-41806520D01*
X48258656Y-41882710D01*
X48220560Y-41958900D01*
X48182465Y-42111281D01*
X48182465Y-42225567D01*
X48220560Y-42377948D01*
X48258656Y-42454139D01*
X48334846Y-42530329D01*
X48449132Y-42568424D01*
X48639608Y-42568424D01*
X47420560Y-42568424D02*
X47877703Y-42568424D01*
X47649132Y-42568424D02*
X47649132Y-41768424D01*
X47725322Y-41882710D01*
X47801513Y-41958900D01*
X47877703Y-41996996D01*
X47115799Y-41844615D02*
X47077703Y-41806520D01*
X47001513Y-41768424D01*
X46811037Y-41768424D01*
X46734846Y-41806520D01*
X46696751Y-41844615D01*
X46658656Y-41920805D01*
X46658656Y-41996996D01*
X46696751Y-42111281D01*
X47153894Y-42568424D01*
X46658656Y-42568424D01*
G04 #@! TO.C,D13*
X46608903Y-31461300D02*
X46370808Y-32461300D01*
X46180332Y-31747015D01*
X45989856Y-32461300D01*
X45751760Y-31461300D01*
X45418427Y-32413681D02*
X45275570Y-32461300D01*
X45037475Y-32461300D01*
X44942237Y-32413681D01*
X44894618Y-32366062D01*
X44846999Y-32270824D01*
X44846999Y-32175586D01*
X44894618Y-32080348D01*
X44942237Y-32032729D01*
X45037475Y-31985110D01*
X45227951Y-31937491D01*
X45323189Y-31889872D01*
X45370808Y-31842253D01*
X45418427Y-31747015D01*
X45418427Y-31651777D01*
X45370808Y-31556539D01*
X45323189Y-31508920D01*
X45227951Y-31461300D01*
X44989856Y-31461300D01*
X44846999Y-31508920D01*
X44466046Y-31556539D02*
X44418427Y-31508920D01*
X44323189Y-31461300D01*
X44085094Y-31461300D01*
X43989856Y-31508920D01*
X43942237Y-31556539D01*
X43894618Y-31651777D01*
X43894618Y-31747015D01*
X43942237Y-31889872D01*
X44513665Y-32461300D01*
X43894618Y-32461300D01*
X43323189Y-31889872D02*
X43418427Y-31842253D01*
X43466046Y-31794634D01*
X43513665Y-31699396D01*
X43513665Y-31651777D01*
X43466046Y-31556539D01*
X43418427Y-31508920D01*
X43323189Y-31461300D01*
X43132713Y-31461300D01*
X43037475Y-31508920D01*
X42989856Y-31556539D01*
X42942237Y-31651777D01*
X42942237Y-31699396D01*
X42989856Y-31794634D01*
X43037475Y-31842253D01*
X43132713Y-31889872D01*
X43323189Y-31889872D01*
X43418427Y-31937491D01*
X43466046Y-31985110D01*
X43513665Y-32080348D01*
X43513665Y-32270824D01*
X43466046Y-32366062D01*
X43418427Y-32413681D01*
X43323189Y-32461300D01*
X43132713Y-32461300D01*
X43037475Y-32413681D01*
X42989856Y-32366062D01*
X42942237Y-32270824D01*
X42942237Y-32080348D01*
X42989856Y-31985110D01*
X43037475Y-31937491D01*
X43132713Y-31889872D01*
X41989856Y-32461300D02*
X42561284Y-32461300D01*
X42275570Y-32461300D02*
X42275570Y-31461300D01*
X42370808Y-31604158D01*
X42466046Y-31699396D01*
X42561284Y-31747015D01*
X41608903Y-31556539D02*
X41561284Y-31508920D01*
X41466046Y-31461300D01*
X41227951Y-31461300D01*
X41132713Y-31508920D01*
X41085094Y-31556539D01*
X41037475Y-31651777D01*
X41037475Y-31747015D01*
X41085094Y-31889872D01*
X41656522Y-32461300D01*
X41037475Y-32461300D01*
X40275570Y-31937491D02*
X40132713Y-31985110D01*
X40085094Y-32032729D01*
X40037475Y-32127967D01*
X40037475Y-32270824D01*
X40085094Y-32366062D01*
X40132713Y-32413681D01*
X40227951Y-32461300D01*
X40608903Y-32461300D01*
X40608903Y-31461300D01*
X40275570Y-31461300D01*
X40180332Y-31508920D01*
X40132713Y-31556539D01*
X40085094Y-31651777D01*
X40085094Y-31747015D01*
X40132713Y-31842253D01*
X40180332Y-31889872D01*
X40275570Y-31937491D01*
X40608903Y-31937491D01*
X44270808Y-36370824D02*
X44270808Y-35570824D01*
X44080332Y-35570824D01*
X43966046Y-35608920D01*
X43889856Y-35685110D01*
X43851760Y-35761300D01*
X43813665Y-35913681D01*
X43813665Y-36027967D01*
X43851760Y-36180348D01*
X43889856Y-36256539D01*
X43966046Y-36332729D01*
X44080332Y-36370824D01*
X44270808Y-36370824D01*
X43051760Y-36370824D02*
X43508903Y-36370824D01*
X43280332Y-36370824D02*
X43280332Y-35570824D01*
X43356522Y-35685110D01*
X43432713Y-35761300D01*
X43508903Y-35799396D01*
X42785094Y-35570824D02*
X42289856Y-35570824D01*
X42556522Y-35875586D01*
X42442237Y-35875586D01*
X42366046Y-35913681D01*
X42327951Y-35951777D01*
X42289856Y-36027967D01*
X42289856Y-36218443D01*
X42327951Y-36294634D01*
X42366046Y-36332729D01*
X42442237Y-36370824D01*
X42670808Y-36370824D01*
X42746999Y-36332729D01*
X42785094Y-36294634D01*
G04 #@! TO.C,D2*
X39141303Y-30800900D02*
X38903208Y-31800900D01*
X38712732Y-31086615D01*
X38522256Y-31800900D01*
X38284160Y-30800900D01*
X37950827Y-31753281D02*
X37807970Y-31800900D01*
X37569875Y-31800900D01*
X37474637Y-31753281D01*
X37427018Y-31705662D01*
X37379399Y-31610424D01*
X37379399Y-31515186D01*
X37427018Y-31419948D01*
X37474637Y-31372329D01*
X37569875Y-31324710D01*
X37760351Y-31277091D01*
X37855589Y-31229472D01*
X37903208Y-31181853D01*
X37950827Y-31086615D01*
X37950827Y-30991377D01*
X37903208Y-30896139D01*
X37855589Y-30848520D01*
X37760351Y-30800900D01*
X37522256Y-30800900D01*
X37379399Y-30848520D01*
X36998446Y-30896139D02*
X36950827Y-30848520D01*
X36855589Y-30800900D01*
X36617494Y-30800900D01*
X36522256Y-30848520D01*
X36474637Y-30896139D01*
X36427018Y-30991377D01*
X36427018Y-31086615D01*
X36474637Y-31229472D01*
X37046065Y-31800900D01*
X36427018Y-31800900D01*
X35855589Y-31229472D02*
X35950827Y-31181853D01*
X35998446Y-31134234D01*
X36046065Y-31038996D01*
X36046065Y-30991377D01*
X35998446Y-30896139D01*
X35950827Y-30848520D01*
X35855589Y-30800900D01*
X35665113Y-30800900D01*
X35569875Y-30848520D01*
X35522256Y-30896139D01*
X35474637Y-30991377D01*
X35474637Y-31038996D01*
X35522256Y-31134234D01*
X35569875Y-31181853D01*
X35665113Y-31229472D01*
X35855589Y-31229472D01*
X35950827Y-31277091D01*
X35998446Y-31324710D01*
X36046065Y-31419948D01*
X36046065Y-31610424D01*
X35998446Y-31705662D01*
X35950827Y-31753281D01*
X35855589Y-31800900D01*
X35665113Y-31800900D01*
X35569875Y-31753281D01*
X35522256Y-31705662D01*
X35474637Y-31610424D01*
X35474637Y-31419948D01*
X35522256Y-31324710D01*
X35569875Y-31277091D01*
X35665113Y-31229472D01*
X34522256Y-31800900D02*
X35093684Y-31800900D01*
X34807970Y-31800900D02*
X34807970Y-30800900D01*
X34903208Y-30943758D01*
X34998446Y-31038996D01*
X35093684Y-31086615D01*
X34141303Y-30896139D02*
X34093684Y-30848520D01*
X33998446Y-30800900D01*
X33760351Y-30800900D01*
X33665113Y-30848520D01*
X33617494Y-30896139D01*
X33569875Y-30991377D01*
X33569875Y-31086615D01*
X33617494Y-31229472D01*
X34188922Y-31800900D01*
X33569875Y-31800900D01*
X32807970Y-31277091D02*
X32665113Y-31324710D01*
X32617494Y-31372329D01*
X32569875Y-31467567D01*
X32569875Y-31610424D01*
X32617494Y-31705662D01*
X32665113Y-31753281D01*
X32760351Y-31800900D01*
X33141303Y-31800900D01*
X33141303Y-30800900D01*
X32807970Y-30800900D01*
X32712732Y-30848520D01*
X32665113Y-30896139D01*
X32617494Y-30991377D01*
X32617494Y-31086615D01*
X32665113Y-31181853D01*
X32712732Y-31229472D01*
X32807970Y-31277091D01*
X33141303Y-31277091D01*
X36422256Y-35710424D02*
X36422256Y-34910424D01*
X36231780Y-34910424D01*
X36117494Y-34948520D01*
X36041303Y-35024710D01*
X36003208Y-35100900D01*
X35965113Y-35253281D01*
X35965113Y-35367567D01*
X36003208Y-35519948D01*
X36041303Y-35596139D01*
X36117494Y-35672329D01*
X36231780Y-35710424D01*
X36422256Y-35710424D01*
X35660351Y-34986615D02*
X35622256Y-34948520D01*
X35546065Y-34910424D01*
X35355589Y-34910424D01*
X35279399Y-34948520D01*
X35241303Y-34986615D01*
X35203208Y-35062805D01*
X35203208Y-35138996D01*
X35241303Y-35253281D01*
X35698446Y-35710424D01*
X35203208Y-35710424D01*
G04 #@! TO.C,TP1v8*
X60783333Y-94052380D02*
X60211904Y-94052380D01*
X60497619Y-95052380D02*
X60497619Y-94052380D01*
X59497619Y-95004761D02*
X59592857Y-95052380D01*
X59783333Y-95052380D01*
X59878571Y-95004761D01*
X59926190Y-94909523D01*
X59926190Y-94528571D01*
X59878571Y-94433333D01*
X59783333Y-94385714D01*
X59592857Y-94385714D01*
X59497619Y-94433333D01*
X59450000Y-94528571D01*
X59450000Y-94623809D01*
X59926190Y-94719047D01*
X59069047Y-95004761D02*
X58973809Y-95052380D01*
X58783333Y-95052380D01*
X58688095Y-95004761D01*
X58640476Y-94909523D01*
X58640476Y-94861904D01*
X58688095Y-94766666D01*
X58783333Y-94719047D01*
X58926190Y-94719047D01*
X59021428Y-94671428D01*
X59069047Y-94576190D01*
X59069047Y-94528571D01*
X59021428Y-94433333D01*
X58926190Y-94385714D01*
X58783333Y-94385714D01*
X58688095Y-94433333D01*
X58354761Y-94385714D02*
X57973809Y-94385714D01*
X58211904Y-94052380D02*
X58211904Y-94909523D01*
X58164285Y-95004761D01*
X58069047Y-95052380D01*
X57973809Y-95052380D01*
X57640476Y-95052380D02*
X57640476Y-94052380D01*
X57259523Y-94052380D01*
X57164285Y-94100000D01*
X57116666Y-94147619D01*
X57069047Y-94242857D01*
X57069047Y-94385714D01*
X57116666Y-94480952D01*
X57164285Y-94528571D01*
X57259523Y-94576190D01*
X57640476Y-94576190D01*
X56497619Y-95052380D02*
X56592857Y-95004761D01*
X56640476Y-94957142D01*
X56688095Y-94861904D01*
X56688095Y-94576190D01*
X56640476Y-94480952D01*
X56592857Y-94433333D01*
X56497619Y-94385714D01*
X56354761Y-94385714D01*
X56259523Y-94433333D01*
X56211904Y-94480952D01*
X56164285Y-94576190D01*
X56164285Y-94861904D01*
X56211904Y-94957142D01*
X56259523Y-95004761D01*
X56354761Y-95052380D01*
X56497619Y-95052380D01*
X55735714Y-95052380D02*
X55735714Y-94385714D01*
X55735714Y-94052380D02*
X55783333Y-94100000D01*
X55735714Y-94147619D01*
X55688095Y-94100000D01*
X55735714Y-94052380D01*
X55735714Y-94147619D01*
X55259523Y-94385714D02*
X55259523Y-95052380D01*
X55259523Y-94480952D02*
X55211904Y-94433333D01*
X55116666Y-94385714D01*
X54973809Y-94385714D01*
X54878571Y-94433333D01*
X54830952Y-94528571D01*
X54830952Y-95052380D01*
X54497619Y-94385714D02*
X54116666Y-94385714D01*
X54354761Y-94052380D02*
X54354761Y-94909523D01*
X54307142Y-95004761D01*
X54211904Y-95052380D01*
X54116666Y-95052380D01*
X59569047Y-98102380D02*
X58997619Y-98102380D01*
X59283333Y-99102380D02*
X59283333Y-98102380D01*
X58664285Y-99102380D02*
X58664285Y-98102380D01*
X58283333Y-98102380D01*
X58188095Y-98150000D01*
X58140476Y-98197619D01*
X58092857Y-98292857D01*
X58092857Y-98435714D01*
X58140476Y-98530952D01*
X58188095Y-98578571D01*
X58283333Y-98626190D01*
X58664285Y-98626190D01*
X57140476Y-99102380D02*
X57711904Y-99102380D01*
X57426190Y-99102380D02*
X57426190Y-98102380D01*
X57521428Y-98245238D01*
X57616666Y-98340476D01*
X57711904Y-98388095D01*
X56807142Y-98435714D02*
X56569047Y-99102380D01*
X56330952Y-98435714D01*
X55807142Y-98530952D02*
X55902380Y-98483333D01*
X55950000Y-98435714D01*
X55997619Y-98340476D01*
X55997619Y-98292857D01*
X55950000Y-98197619D01*
X55902380Y-98150000D01*
X55807142Y-98102380D01*
X55616666Y-98102380D01*
X55521428Y-98150000D01*
X55473809Y-98197619D01*
X55426190Y-98292857D01*
X55426190Y-98340476D01*
X55473809Y-98435714D01*
X55521428Y-98483333D01*
X55616666Y-98530952D01*
X55807142Y-98530952D01*
X55902380Y-98578571D01*
X55950000Y-98626190D01*
X55997619Y-98721428D01*
X55997619Y-98911904D01*
X55950000Y-99007142D01*
X55902380Y-99054761D01*
X55807142Y-99102380D01*
X55616666Y-99102380D01*
X55521428Y-99054761D01*
X55473809Y-99007142D01*
X55426190Y-98911904D01*
X55426190Y-98721428D01*
X55473809Y-98626190D01*
X55521428Y-98578571D01*
X55616666Y-98530952D01*
G04 #@! TO.C,UP1*
X31033333Y-69052380D02*
X30461904Y-69052380D01*
X30747619Y-70052380D02*
X30747619Y-69052380D01*
X29747619Y-70004761D02*
X29842857Y-70052380D01*
X30033333Y-70052380D01*
X30128571Y-70004761D01*
X30176190Y-69909523D01*
X30176190Y-69528571D01*
X30128571Y-69433333D01*
X30033333Y-69385714D01*
X29842857Y-69385714D01*
X29747619Y-69433333D01*
X29700000Y-69528571D01*
X29700000Y-69623809D01*
X30176190Y-69719047D01*
X29319047Y-70004761D02*
X29223809Y-70052380D01*
X29033333Y-70052380D01*
X28938095Y-70004761D01*
X28890476Y-69909523D01*
X28890476Y-69861904D01*
X28938095Y-69766666D01*
X29033333Y-69719047D01*
X29176190Y-69719047D01*
X29271428Y-69671428D01*
X29319047Y-69576190D01*
X29319047Y-69528571D01*
X29271428Y-69433333D01*
X29176190Y-69385714D01*
X29033333Y-69385714D01*
X28938095Y-69433333D01*
X28604761Y-69385714D02*
X28223809Y-69385714D01*
X28461904Y-69052380D02*
X28461904Y-69909523D01*
X28414285Y-70004761D01*
X28319047Y-70052380D01*
X28223809Y-70052380D01*
X27890476Y-70052380D02*
X27890476Y-69052380D01*
X27509523Y-69052380D01*
X27414285Y-69100000D01*
X27366666Y-69147619D01*
X27319047Y-69242857D01*
X27319047Y-69385714D01*
X27366666Y-69480952D01*
X27414285Y-69528571D01*
X27509523Y-69576190D01*
X27890476Y-69576190D01*
X26747619Y-70052380D02*
X26842857Y-70004761D01*
X26890476Y-69957142D01*
X26938095Y-69861904D01*
X26938095Y-69576190D01*
X26890476Y-69480952D01*
X26842857Y-69433333D01*
X26747619Y-69385714D01*
X26604761Y-69385714D01*
X26509523Y-69433333D01*
X26461904Y-69480952D01*
X26414285Y-69576190D01*
X26414285Y-69861904D01*
X26461904Y-69957142D01*
X26509523Y-70004761D01*
X26604761Y-70052380D01*
X26747619Y-70052380D01*
X25985714Y-70052380D02*
X25985714Y-69385714D01*
X25985714Y-69052380D02*
X26033333Y-69100000D01*
X25985714Y-69147619D01*
X25938095Y-69100000D01*
X25985714Y-69052380D01*
X25985714Y-69147619D01*
X25509523Y-69385714D02*
X25509523Y-70052380D01*
X25509523Y-69480952D02*
X25461904Y-69433333D01*
X25366666Y-69385714D01*
X25223809Y-69385714D01*
X25128571Y-69433333D01*
X25080952Y-69528571D01*
X25080952Y-70052380D01*
X24747619Y-69385714D02*
X24366666Y-69385714D01*
X24604761Y-69052380D02*
X24604761Y-69909523D01*
X24557142Y-70004761D01*
X24461904Y-70052380D01*
X24366666Y-70052380D01*
X28961904Y-72052380D02*
X28961904Y-72861904D01*
X28914285Y-72957142D01*
X28866666Y-73004761D01*
X28771428Y-73052380D01*
X28580952Y-73052380D01*
X28485714Y-73004761D01*
X28438095Y-72957142D01*
X28390476Y-72861904D01*
X28390476Y-72052380D01*
X27914285Y-73052380D02*
X27914285Y-72052380D01*
X27533333Y-72052380D01*
X27438095Y-72100000D01*
X27390476Y-72147619D01*
X27342857Y-72242857D01*
X27342857Y-72385714D01*
X27390476Y-72480952D01*
X27438095Y-72528571D01*
X27533333Y-72576190D01*
X27914285Y-72576190D01*
X26390476Y-73052380D02*
X26961904Y-73052380D01*
X26676190Y-73052380D02*
X26676190Y-72052380D01*
X26771428Y-72195238D01*
X26866666Y-72290476D01*
X26961904Y-72338095D01*
G04 #@! TO.C,UP0*
X33533333Y-68902380D02*
X32961904Y-68902380D01*
X33247619Y-69902380D02*
X33247619Y-68902380D01*
X32247619Y-69854761D02*
X32342857Y-69902380D01*
X32533333Y-69902380D01*
X32628571Y-69854761D01*
X32676190Y-69759523D01*
X32676190Y-69378571D01*
X32628571Y-69283333D01*
X32533333Y-69235714D01*
X32342857Y-69235714D01*
X32247619Y-69283333D01*
X32200000Y-69378571D01*
X32200000Y-69473809D01*
X32676190Y-69569047D01*
X31819047Y-69854761D02*
X31723809Y-69902380D01*
X31533333Y-69902380D01*
X31438095Y-69854761D01*
X31390476Y-69759523D01*
X31390476Y-69711904D01*
X31438095Y-69616666D01*
X31533333Y-69569047D01*
X31676190Y-69569047D01*
X31771428Y-69521428D01*
X31819047Y-69426190D01*
X31819047Y-69378571D01*
X31771428Y-69283333D01*
X31676190Y-69235714D01*
X31533333Y-69235714D01*
X31438095Y-69283333D01*
X31104761Y-69235714D02*
X30723809Y-69235714D01*
X30961904Y-68902380D02*
X30961904Y-69759523D01*
X30914285Y-69854761D01*
X30819047Y-69902380D01*
X30723809Y-69902380D01*
X30390476Y-69902380D02*
X30390476Y-68902380D01*
X30009523Y-68902380D01*
X29914285Y-68950000D01*
X29866666Y-68997619D01*
X29819047Y-69092857D01*
X29819047Y-69235714D01*
X29866666Y-69330952D01*
X29914285Y-69378571D01*
X30009523Y-69426190D01*
X30390476Y-69426190D01*
X29247619Y-69902380D02*
X29342857Y-69854761D01*
X29390476Y-69807142D01*
X29438095Y-69711904D01*
X29438095Y-69426190D01*
X29390476Y-69330952D01*
X29342857Y-69283333D01*
X29247619Y-69235714D01*
X29104761Y-69235714D01*
X29009523Y-69283333D01*
X28961904Y-69330952D01*
X28914285Y-69426190D01*
X28914285Y-69711904D01*
X28961904Y-69807142D01*
X29009523Y-69854761D01*
X29104761Y-69902380D01*
X29247619Y-69902380D01*
X28485714Y-69902380D02*
X28485714Y-69235714D01*
X28485714Y-68902380D02*
X28533333Y-68950000D01*
X28485714Y-68997619D01*
X28438095Y-68950000D01*
X28485714Y-68902380D01*
X28485714Y-68997619D01*
X28009523Y-69235714D02*
X28009523Y-69902380D01*
X28009523Y-69330952D02*
X27961904Y-69283333D01*
X27866666Y-69235714D01*
X27723809Y-69235714D01*
X27628571Y-69283333D01*
X27580952Y-69378571D01*
X27580952Y-69902380D01*
X27247619Y-69235714D02*
X26866666Y-69235714D01*
X27104761Y-68902380D02*
X27104761Y-69759523D01*
X27057142Y-69854761D01*
X26961904Y-69902380D01*
X26866666Y-69902380D01*
X31461904Y-71902380D02*
X31461904Y-72711904D01*
X31414285Y-72807142D01*
X31366666Y-72854761D01*
X31271428Y-72902380D01*
X31080952Y-72902380D01*
X30985714Y-72854761D01*
X30938095Y-72807142D01*
X30890476Y-72711904D01*
X30890476Y-71902380D01*
X30414285Y-72902380D02*
X30414285Y-71902380D01*
X30033333Y-71902380D01*
X29938095Y-71950000D01*
X29890476Y-71997619D01*
X29842857Y-72092857D01*
X29842857Y-72235714D01*
X29890476Y-72330952D01*
X29938095Y-72378571D01*
X30033333Y-72426190D01*
X30414285Y-72426190D01*
X29223809Y-71902380D02*
X29128571Y-71902380D01*
X29033333Y-71950000D01*
X28985714Y-71997619D01*
X28938095Y-72092857D01*
X28890476Y-72283333D01*
X28890476Y-72521428D01*
X28938095Y-72711904D01*
X28985714Y-72807142D01*
X29033333Y-72854761D01*
X29128571Y-72902380D01*
X29223809Y-72902380D01*
X29319047Y-72854761D01*
X29366666Y-72807142D01*
X29414285Y-72711904D01*
X29461904Y-72521428D01*
X29461904Y-72283333D01*
X29414285Y-72092857D01*
X29366666Y-71997619D01*
X29319047Y-71950000D01*
X29223809Y-71902380D01*
G04 #@! TO.C,TMS1*
X26333333Y-77302380D02*
X25761904Y-77302380D01*
X26047619Y-78302380D02*
X26047619Y-77302380D01*
X25047619Y-78254761D02*
X25142857Y-78302380D01*
X25333333Y-78302380D01*
X25428571Y-78254761D01*
X25476190Y-78159523D01*
X25476190Y-77778571D01*
X25428571Y-77683333D01*
X25333333Y-77635714D01*
X25142857Y-77635714D01*
X25047619Y-77683333D01*
X25000000Y-77778571D01*
X25000000Y-77873809D01*
X25476190Y-77969047D01*
X24619047Y-78254761D02*
X24523809Y-78302380D01*
X24333333Y-78302380D01*
X24238095Y-78254761D01*
X24190476Y-78159523D01*
X24190476Y-78111904D01*
X24238095Y-78016666D01*
X24333333Y-77969047D01*
X24476190Y-77969047D01*
X24571428Y-77921428D01*
X24619047Y-77826190D01*
X24619047Y-77778571D01*
X24571428Y-77683333D01*
X24476190Y-77635714D01*
X24333333Y-77635714D01*
X24238095Y-77683333D01*
X23904761Y-77635714D02*
X23523809Y-77635714D01*
X23761904Y-77302380D02*
X23761904Y-78159523D01*
X23714285Y-78254761D01*
X23619047Y-78302380D01*
X23523809Y-78302380D01*
X23190476Y-78302380D02*
X23190476Y-77302380D01*
X22809523Y-77302380D01*
X22714285Y-77350000D01*
X22666666Y-77397619D01*
X22619047Y-77492857D01*
X22619047Y-77635714D01*
X22666666Y-77730952D01*
X22714285Y-77778571D01*
X22809523Y-77826190D01*
X23190476Y-77826190D01*
X22047619Y-78302380D02*
X22142857Y-78254761D01*
X22190476Y-78207142D01*
X22238095Y-78111904D01*
X22238095Y-77826190D01*
X22190476Y-77730952D01*
X22142857Y-77683333D01*
X22047619Y-77635714D01*
X21904761Y-77635714D01*
X21809523Y-77683333D01*
X21761904Y-77730952D01*
X21714285Y-77826190D01*
X21714285Y-78111904D01*
X21761904Y-78207142D01*
X21809523Y-78254761D01*
X21904761Y-78302380D01*
X22047619Y-78302380D01*
X21285714Y-78302380D02*
X21285714Y-77635714D01*
X21285714Y-77302380D02*
X21333333Y-77350000D01*
X21285714Y-77397619D01*
X21238095Y-77350000D01*
X21285714Y-77302380D01*
X21285714Y-77397619D01*
X20809523Y-77635714D02*
X20809523Y-78302380D01*
X20809523Y-77730952D02*
X20761904Y-77683333D01*
X20666666Y-77635714D01*
X20523809Y-77635714D01*
X20428571Y-77683333D01*
X20380952Y-77778571D01*
X20380952Y-78302380D01*
X20047619Y-77635714D02*
X19666666Y-77635714D01*
X19904761Y-77302380D02*
X19904761Y-78159523D01*
X19857142Y-78254761D01*
X19761904Y-78302380D01*
X19666666Y-78302380D01*
X24809523Y-80302380D02*
X24238095Y-80302380D01*
X24523809Y-81302380D02*
X24523809Y-80302380D01*
X23904761Y-81302380D02*
X23904761Y-80302380D01*
X23571428Y-81016666D01*
X23238095Y-80302380D01*
X23238095Y-81302380D01*
X22809523Y-81254761D02*
X22666666Y-81302380D01*
X22428571Y-81302380D01*
X22333333Y-81254761D01*
X22285714Y-81207142D01*
X22238095Y-81111904D01*
X22238095Y-81016666D01*
X22285714Y-80921428D01*
X22333333Y-80873809D01*
X22428571Y-80826190D01*
X22619047Y-80778571D01*
X22714285Y-80730952D01*
X22761904Y-80683333D01*
X22809523Y-80588095D01*
X22809523Y-80492857D01*
X22761904Y-80397619D01*
X22714285Y-80350000D01*
X22619047Y-80302380D01*
X22380952Y-80302380D01*
X22238095Y-80350000D01*
X21285714Y-81302380D02*
X21857142Y-81302380D01*
X21571428Y-81302380D02*
X21571428Y-80302380D01*
X21666666Y-80445238D01*
X21761904Y-80540476D01*
X21857142Y-80588095D01*
G04 #@! TO.C,TD0*
X23883333Y-74352380D02*
X23311904Y-74352380D01*
X23597619Y-75352380D02*
X23597619Y-74352380D01*
X22597619Y-75304761D02*
X22692857Y-75352380D01*
X22883333Y-75352380D01*
X22978571Y-75304761D01*
X23026190Y-75209523D01*
X23026190Y-74828571D01*
X22978571Y-74733333D01*
X22883333Y-74685714D01*
X22692857Y-74685714D01*
X22597619Y-74733333D01*
X22550000Y-74828571D01*
X22550000Y-74923809D01*
X23026190Y-75019047D01*
X22169047Y-75304761D02*
X22073809Y-75352380D01*
X21883333Y-75352380D01*
X21788095Y-75304761D01*
X21740476Y-75209523D01*
X21740476Y-75161904D01*
X21788095Y-75066666D01*
X21883333Y-75019047D01*
X22026190Y-75019047D01*
X22121428Y-74971428D01*
X22169047Y-74876190D01*
X22169047Y-74828571D01*
X22121428Y-74733333D01*
X22026190Y-74685714D01*
X21883333Y-74685714D01*
X21788095Y-74733333D01*
X21454761Y-74685714D02*
X21073809Y-74685714D01*
X21311904Y-74352380D02*
X21311904Y-75209523D01*
X21264285Y-75304761D01*
X21169047Y-75352380D01*
X21073809Y-75352380D01*
X20740476Y-75352380D02*
X20740476Y-74352380D01*
X20359523Y-74352380D01*
X20264285Y-74400000D01*
X20216666Y-74447619D01*
X20169047Y-74542857D01*
X20169047Y-74685714D01*
X20216666Y-74780952D01*
X20264285Y-74828571D01*
X20359523Y-74876190D01*
X20740476Y-74876190D01*
X19597619Y-75352380D02*
X19692857Y-75304761D01*
X19740476Y-75257142D01*
X19788095Y-75161904D01*
X19788095Y-74876190D01*
X19740476Y-74780952D01*
X19692857Y-74733333D01*
X19597619Y-74685714D01*
X19454761Y-74685714D01*
X19359523Y-74733333D01*
X19311904Y-74780952D01*
X19264285Y-74876190D01*
X19264285Y-75161904D01*
X19311904Y-75257142D01*
X19359523Y-75304761D01*
X19454761Y-75352380D01*
X19597619Y-75352380D01*
X18835714Y-75352380D02*
X18835714Y-74685714D01*
X18835714Y-74352380D02*
X18883333Y-74400000D01*
X18835714Y-74447619D01*
X18788095Y-74400000D01*
X18835714Y-74352380D01*
X18835714Y-74447619D01*
X18359523Y-74685714D02*
X18359523Y-75352380D01*
X18359523Y-74780952D02*
X18311904Y-74733333D01*
X18216666Y-74685714D01*
X18073809Y-74685714D01*
X17978571Y-74733333D01*
X17930952Y-74828571D01*
X17930952Y-75352380D01*
X17597619Y-74685714D02*
X17216666Y-74685714D01*
X17454761Y-74352380D02*
X17454761Y-75209523D01*
X17407142Y-75304761D01*
X17311904Y-75352380D01*
X17216666Y-75352380D01*
X21811904Y-77352380D02*
X21240476Y-77352380D01*
X21526190Y-78352380D02*
X21526190Y-77352380D01*
X20907142Y-78352380D02*
X20907142Y-77352380D01*
X20669047Y-77352380D01*
X20526190Y-77400000D01*
X20430952Y-77495238D01*
X20383333Y-77590476D01*
X20335714Y-77780952D01*
X20335714Y-77923809D01*
X20383333Y-78114285D01*
X20430952Y-78209523D01*
X20526190Y-78304761D01*
X20669047Y-78352380D01*
X20907142Y-78352380D01*
X19716666Y-77352380D02*
X19621428Y-77352380D01*
X19526190Y-77400000D01*
X19478571Y-77447619D01*
X19430952Y-77542857D01*
X19383333Y-77733333D01*
X19383333Y-77971428D01*
X19430952Y-78161904D01*
X19478571Y-78257142D01*
X19526190Y-78304761D01*
X19621428Y-78352380D01*
X19716666Y-78352380D01*
X19811904Y-78304761D01*
X19859523Y-78257142D01*
X19907142Y-78161904D01*
X19954761Y-77971428D01*
X19954761Y-77733333D01*
X19907142Y-77542857D01*
X19859523Y-77447619D01*
X19811904Y-77400000D01*
X19716666Y-77352380D01*
G04 #@! TO.C,TDI1*
X25933333Y-74302380D02*
X25361904Y-74302380D01*
X25647619Y-75302380D02*
X25647619Y-74302380D01*
X24647619Y-75254761D02*
X24742857Y-75302380D01*
X24933333Y-75302380D01*
X25028571Y-75254761D01*
X25076190Y-75159523D01*
X25076190Y-74778571D01*
X25028571Y-74683333D01*
X24933333Y-74635714D01*
X24742857Y-74635714D01*
X24647619Y-74683333D01*
X24600000Y-74778571D01*
X24600000Y-74873809D01*
X25076190Y-74969047D01*
X24219047Y-75254761D02*
X24123809Y-75302380D01*
X23933333Y-75302380D01*
X23838095Y-75254761D01*
X23790476Y-75159523D01*
X23790476Y-75111904D01*
X23838095Y-75016666D01*
X23933333Y-74969047D01*
X24076190Y-74969047D01*
X24171428Y-74921428D01*
X24219047Y-74826190D01*
X24219047Y-74778571D01*
X24171428Y-74683333D01*
X24076190Y-74635714D01*
X23933333Y-74635714D01*
X23838095Y-74683333D01*
X23504761Y-74635714D02*
X23123809Y-74635714D01*
X23361904Y-74302380D02*
X23361904Y-75159523D01*
X23314285Y-75254761D01*
X23219047Y-75302380D01*
X23123809Y-75302380D01*
X22790476Y-75302380D02*
X22790476Y-74302380D01*
X22409523Y-74302380D01*
X22314285Y-74350000D01*
X22266666Y-74397619D01*
X22219047Y-74492857D01*
X22219047Y-74635714D01*
X22266666Y-74730952D01*
X22314285Y-74778571D01*
X22409523Y-74826190D01*
X22790476Y-74826190D01*
X21647619Y-75302380D02*
X21742857Y-75254761D01*
X21790476Y-75207142D01*
X21838095Y-75111904D01*
X21838095Y-74826190D01*
X21790476Y-74730952D01*
X21742857Y-74683333D01*
X21647619Y-74635714D01*
X21504761Y-74635714D01*
X21409523Y-74683333D01*
X21361904Y-74730952D01*
X21314285Y-74826190D01*
X21314285Y-75111904D01*
X21361904Y-75207142D01*
X21409523Y-75254761D01*
X21504761Y-75302380D01*
X21647619Y-75302380D01*
X20885714Y-75302380D02*
X20885714Y-74635714D01*
X20885714Y-74302380D02*
X20933333Y-74350000D01*
X20885714Y-74397619D01*
X20838095Y-74350000D01*
X20885714Y-74302380D01*
X20885714Y-74397619D01*
X20409523Y-74635714D02*
X20409523Y-75302380D01*
X20409523Y-74730952D02*
X20361904Y-74683333D01*
X20266666Y-74635714D01*
X20123809Y-74635714D01*
X20028571Y-74683333D01*
X19980952Y-74778571D01*
X19980952Y-75302380D01*
X19647619Y-74635714D02*
X19266666Y-74635714D01*
X19504761Y-74302380D02*
X19504761Y-75159523D01*
X19457142Y-75254761D01*
X19361904Y-75302380D01*
X19266666Y-75302380D01*
X24100000Y-77302380D02*
X23528571Y-77302380D01*
X23814285Y-78302380D02*
X23814285Y-77302380D01*
X23195238Y-78302380D02*
X23195238Y-77302380D01*
X22957142Y-77302380D01*
X22814285Y-77350000D01*
X22719047Y-77445238D01*
X22671428Y-77540476D01*
X22623809Y-77730952D01*
X22623809Y-77873809D01*
X22671428Y-78064285D01*
X22719047Y-78159523D01*
X22814285Y-78254761D01*
X22957142Y-78302380D01*
X23195238Y-78302380D01*
X22195238Y-78302380D02*
X22195238Y-77302380D01*
X21195238Y-78302380D02*
X21766666Y-78302380D01*
X21480952Y-78302380D02*
X21480952Y-77302380D01*
X21576190Y-77445238D01*
X21671428Y-77540476D01*
X21766666Y-77588095D01*
G04 #@! TO.C,TCK1*
X32333333Y-76702380D02*
X31761904Y-76702380D01*
X32047619Y-77702380D02*
X32047619Y-76702380D01*
X31047619Y-77654761D02*
X31142857Y-77702380D01*
X31333333Y-77702380D01*
X31428571Y-77654761D01*
X31476190Y-77559523D01*
X31476190Y-77178571D01*
X31428571Y-77083333D01*
X31333333Y-77035714D01*
X31142857Y-77035714D01*
X31047619Y-77083333D01*
X31000000Y-77178571D01*
X31000000Y-77273809D01*
X31476190Y-77369047D01*
X30619047Y-77654761D02*
X30523809Y-77702380D01*
X30333333Y-77702380D01*
X30238095Y-77654761D01*
X30190476Y-77559523D01*
X30190476Y-77511904D01*
X30238095Y-77416666D01*
X30333333Y-77369047D01*
X30476190Y-77369047D01*
X30571428Y-77321428D01*
X30619047Y-77226190D01*
X30619047Y-77178571D01*
X30571428Y-77083333D01*
X30476190Y-77035714D01*
X30333333Y-77035714D01*
X30238095Y-77083333D01*
X29904761Y-77035714D02*
X29523809Y-77035714D01*
X29761904Y-76702380D02*
X29761904Y-77559523D01*
X29714285Y-77654761D01*
X29619047Y-77702380D01*
X29523809Y-77702380D01*
X29190476Y-77702380D02*
X29190476Y-76702380D01*
X28809523Y-76702380D01*
X28714285Y-76750000D01*
X28666666Y-76797619D01*
X28619047Y-76892857D01*
X28619047Y-77035714D01*
X28666666Y-77130952D01*
X28714285Y-77178571D01*
X28809523Y-77226190D01*
X29190476Y-77226190D01*
X28047619Y-77702380D02*
X28142857Y-77654761D01*
X28190476Y-77607142D01*
X28238095Y-77511904D01*
X28238095Y-77226190D01*
X28190476Y-77130952D01*
X28142857Y-77083333D01*
X28047619Y-77035714D01*
X27904761Y-77035714D01*
X27809523Y-77083333D01*
X27761904Y-77130952D01*
X27714285Y-77226190D01*
X27714285Y-77511904D01*
X27761904Y-77607142D01*
X27809523Y-77654761D01*
X27904761Y-77702380D01*
X28047619Y-77702380D01*
X27285714Y-77702380D02*
X27285714Y-77035714D01*
X27285714Y-76702380D02*
X27333333Y-76750000D01*
X27285714Y-76797619D01*
X27238095Y-76750000D01*
X27285714Y-76702380D01*
X27285714Y-76797619D01*
X26809523Y-77035714D02*
X26809523Y-77702380D01*
X26809523Y-77130952D02*
X26761904Y-77083333D01*
X26666666Y-77035714D01*
X26523809Y-77035714D01*
X26428571Y-77083333D01*
X26380952Y-77178571D01*
X26380952Y-77702380D01*
X26047619Y-77035714D02*
X25666666Y-77035714D01*
X25904761Y-76702380D02*
X25904761Y-77559523D01*
X25857142Y-77654761D01*
X25761904Y-77702380D01*
X25666666Y-77702380D01*
X30761904Y-79702380D02*
X30190476Y-79702380D01*
X30476190Y-80702380D02*
X30476190Y-79702380D01*
X29285714Y-80607142D02*
X29333333Y-80654761D01*
X29476190Y-80702380D01*
X29571428Y-80702380D01*
X29714285Y-80654761D01*
X29809523Y-80559523D01*
X29857142Y-80464285D01*
X29904761Y-80273809D01*
X29904761Y-80130952D01*
X29857142Y-79940476D01*
X29809523Y-79845238D01*
X29714285Y-79750000D01*
X29571428Y-79702380D01*
X29476190Y-79702380D01*
X29333333Y-79750000D01*
X29285714Y-79797619D01*
X28857142Y-80702380D02*
X28857142Y-79702380D01*
X28285714Y-80702380D02*
X28714285Y-80130952D01*
X28285714Y-79702380D02*
X28857142Y-80273809D01*
X27333333Y-80702380D02*
X27904761Y-80702380D01*
X27619047Y-80702380D02*
X27619047Y-79702380D01*
X27714285Y-79845238D01*
X27809523Y-79940476D01*
X27904761Y-79988095D01*
G04 #@! TO.C,DN0*
X28533333Y-68802380D02*
X27961904Y-68802380D01*
X28247619Y-69802380D02*
X28247619Y-68802380D01*
X27247619Y-69754761D02*
X27342857Y-69802380D01*
X27533333Y-69802380D01*
X27628571Y-69754761D01*
X27676190Y-69659523D01*
X27676190Y-69278571D01*
X27628571Y-69183333D01*
X27533333Y-69135714D01*
X27342857Y-69135714D01*
X27247619Y-69183333D01*
X27200000Y-69278571D01*
X27200000Y-69373809D01*
X27676190Y-69469047D01*
X26819047Y-69754761D02*
X26723809Y-69802380D01*
X26533333Y-69802380D01*
X26438095Y-69754761D01*
X26390476Y-69659523D01*
X26390476Y-69611904D01*
X26438095Y-69516666D01*
X26533333Y-69469047D01*
X26676190Y-69469047D01*
X26771428Y-69421428D01*
X26819047Y-69326190D01*
X26819047Y-69278571D01*
X26771428Y-69183333D01*
X26676190Y-69135714D01*
X26533333Y-69135714D01*
X26438095Y-69183333D01*
X26104761Y-69135714D02*
X25723809Y-69135714D01*
X25961904Y-68802380D02*
X25961904Y-69659523D01*
X25914285Y-69754761D01*
X25819047Y-69802380D01*
X25723809Y-69802380D01*
X25390476Y-69802380D02*
X25390476Y-68802380D01*
X25009523Y-68802380D01*
X24914285Y-68850000D01*
X24866666Y-68897619D01*
X24819047Y-68992857D01*
X24819047Y-69135714D01*
X24866666Y-69230952D01*
X24914285Y-69278571D01*
X25009523Y-69326190D01*
X25390476Y-69326190D01*
X24247619Y-69802380D02*
X24342857Y-69754761D01*
X24390476Y-69707142D01*
X24438095Y-69611904D01*
X24438095Y-69326190D01*
X24390476Y-69230952D01*
X24342857Y-69183333D01*
X24247619Y-69135714D01*
X24104761Y-69135714D01*
X24009523Y-69183333D01*
X23961904Y-69230952D01*
X23914285Y-69326190D01*
X23914285Y-69611904D01*
X23961904Y-69707142D01*
X24009523Y-69754761D01*
X24104761Y-69802380D01*
X24247619Y-69802380D01*
X23485714Y-69802380D02*
X23485714Y-69135714D01*
X23485714Y-68802380D02*
X23533333Y-68850000D01*
X23485714Y-68897619D01*
X23438095Y-68850000D01*
X23485714Y-68802380D01*
X23485714Y-68897619D01*
X23009523Y-69135714D02*
X23009523Y-69802380D01*
X23009523Y-69230952D02*
X22961904Y-69183333D01*
X22866666Y-69135714D01*
X22723809Y-69135714D01*
X22628571Y-69183333D01*
X22580952Y-69278571D01*
X22580952Y-69802380D01*
X22247619Y-69135714D02*
X21866666Y-69135714D01*
X22104761Y-68802380D02*
X22104761Y-69659523D01*
X22057142Y-69754761D01*
X21961904Y-69802380D01*
X21866666Y-69802380D01*
X26461904Y-72802380D02*
X26461904Y-71802380D01*
X26223809Y-71802380D01*
X26080952Y-71850000D01*
X25985714Y-71945238D01*
X25938095Y-72040476D01*
X25890476Y-72230952D01*
X25890476Y-72373809D01*
X25938095Y-72564285D01*
X25985714Y-72659523D01*
X26080952Y-72754761D01*
X26223809Y-72802380D01*
X26461904Y-72802380D01*
X25461904Y-72802380D02*
X25461904Y-71802380D01*
X24890476Y-72802380D01*
X24890476Y-71802380D01*
X24223809Y-71802380D02*
X24128571Y-71802380D01*
X24033333Y-71850000D01*
X23985714Y-71897619D01*
X23938095Y-71992857D01*
X23890476Y-72183333D01*
X23890476Y-72421428D01*
X23938095Y-72611904D01*
X23985714Y-72707142D01*
X24033333Y-72754761D01*
X24128571Y-72802380D01*
X24223809Y-72802380D01*
X24319047Y-72754761D01*
X24366666Y-72707142D01*
X24414285Y-72611904D01*
X24461904Y-72421428D01*
X24461904Y-72183333D01*
X24414285Y-71992857D01*
X24366666Y-71897619D01*
X24319047Y-71850000D01*
X24223809Y-71802380D01*
G04 #@! TO.C,DN1*
X28233333Y-71202380D02*
X27661904Y-71202380D01*
X27947619Y-72202380D02*
X27947619Y-71202380D01*
X26947619Y-72154761D02*
X27042857Y-72202380D01*
X27233333Y-72202380D01*
X27328571Y-72154761D01*
X27376190Y-72059523D01*
X27376190Y-71678571D01*
X27328571Y-71583333D01*
X27233333Y-71535714D01*
X27042857Y-71535714D01*
X26947619Y-71583333D01*
X26900000Y-71678571D01*
X26900000Y-71773809D01*
X27376190Y-71869047D01*
X26519047Y-72154761D02*
X26423809Y-72202380D01*
X26233333Y-72202380D01*
X26138095Y-72154761D01*
X26090476Y-72059523D01*
X26090476Y-72011904D01*
X26138095Y-71916666D01*
X26233333Y-71869047D01*
X26376190Y-71869047D01*
X26471428Y-71821428D01*
X26519047Y-71726190D01*
X26519047Y-71678571D01*
X26471428Y-71583333D01*
X26376190Y-71535714D01*
X26233333Y-71535714D01*
X26138095Y-71583333D01*
X25804761Y-71535714D02*
X25423809Y-71535714D01*
X25661904Y-71202380D02*
X25661904Y-72059523D01*
X25614285Y-72154761D01*
X25519047Y-72202380D01*
X25423809Y-72202380D01*
X25090476Y-72202380D02*
X25090476Y-71202380D01*
X24709523Y-71202380D01*
X24614285Y-71250000D01*
X24566666Y-71297619D01*
X24519047Y-71392857D01*
X24519047Y-71535714D01*
X24566666Y-71630952D01*
X24614285Y-71678571D01*
X24709523Y-71726190D01*
X25090476Y-71726190D01*
X23947619Y-72202380D02*
X24042857Y-72154761D01*
X24090476Y-72107142D01*
X24138095Y-72011904D01*
X24138095Y-71726190D01*
X24090476Y-71630952D01*
X24042857Y-71583333D01*
X23947619Y-71535714D01*
X23804761Y-71535714D01*
X23709523Y-71583333D01*
X23661904Y-71630952D01*
X23614285Y-71726190D01*
X23614285Y-72011904D01*
X23661904Y-72107142D01*
X23709523Y-72154761D01*
X23804761Y-72202380D01*
X23947619Y-72202380D01*
X23185714Y-72202380D02*
X23185714Y-71535714D01*
X23185714Y-71202380D02*
X23233333Y-71250000D01*
X23185714Y-71297619D01*
X23138095Y-71250000D01*
X23185714Y-71202380D01*
X23185714Y-71297619D01*
X22709523Y-71535714D02*
X22709523Y-72202380D01*
X22709523Y-71630952D02*
X22661904Y-71583333D01*
X22566666Y-71535714D01*
X22423809Y-71535714D01*
X22328571Y-71583333D01*
X22280952Y-71678571D01*
X22280952Y-72202380D01*
X21947619Y-71535714D02*
X21566666Y-71535714D01*
X21804761Y-71202380D02*
X21804761Y-72059523D01*
X21757142Y-72154761D01*
X21661904Y-72202380D01*
X21566666Y-72202380D01*
X26161904Y-75202380D02*
X26161904Y-74202380D01*
X25923809Y-74202380D01*
X25780952Y-74250000D01*
X25685714Y-74345238D01*
X25638095Y-74440476D01*
X25590476Y-74630952D01*
X25590476Y-74773809D01*
X25638095Y-74964285D01*
X25685714Y-75059523D01*
X25780952Y-75154761D01*
X25923809Y-75202380D01*
X26161904Y-75202380D01*
X25161904Y-75202380D02*
X25161904Y-74202380D01*
X24590476Y-75202380D01*
X24590476Y-74202380D01*
X23590476Y-75202380D02*
X24161904Y-75202380D01*
X23876190Y-75202380D02*
X23876190Y-74202380D01*
X23971428Y-74345238D01*
X24066666Y-74440476D01*
X24161904Y-74488095D01*
G04 #@! TO.C,TP4*
X45602380Y-67666666D02*
X45602380Y-68238095D01*
X46602380Y-67952380D02*
X45602380Y-67952380D01*
X46554761Y-68952380D02*
X46602380Y-68857142D01*
X46602380Y-68666666D01*
X46554761Y-68571428D01*
X46459523Y-68523809D01*
X46078571Y-68523809D01*
X45983333Y-68571428D01*
X45935714Y-68666666D01*
X45935714Y-68857142D01*
X45983333Y-68952380D01*
X46078571Y-69000000D01*
X46173809Y-69000000D01*
X46269047Y-68523809D01*
X46554761Y-69380952D02*
X46602380Y-69476190D01*
X46602380Y-69666666D01*
X46554761Y-69761904D01*
X46459523Y-69809523D01*
X46411904Y-69809523D01*
X46316666Y-69761904D01*
X46269047Y-69666666D01*
X46269047Y-69523809D01*
X46221428Y-69428571D01*
X46126190Y-69380952D01*
X46078571Y-69380952D01*
X45983333Y-69428571D01*
X45935714Y-69523809D01*
X45935714Y-69666666D01*
X45983333Y-69761904D01*
X45935714Y-70095238D02*
X45935714Y-70476190D01*
X45602380Y-70238095D02*
X46459523Y-70238095D01*
X46554761Y-70285714D01*
X46602380Y-70380952D01*
X46602380Y-70476190D01*
X46602380Y-70809523D02*
X45602380Y-70809523D01*
X45602380Y-71190476D01*
X45650000Y-71285714D01*
X45697619Y-71333333D01*
X45792857Y-71380952D01*
X45935714Y-71380952D01*
X46030952Y-71333333D01*
X46078571Y-71285714D01*
X46126190Y-71190476D01*
X46126190Y-70809523D01*
X46602380Y-71952380D02*
X46554761Y-71857142D01*
X46507142Y-71809523D01*
X46411904Y-71761904D01*
X46126190Y-71761904D01*
X46030952Y-71809523D01*
X45983333Y-71857142D01*
X45935714Y-71952380D01*
X45935714Y-72095238D01*
X45983333Y-72190476D01*
X46030952Y-72238095D01*
X46126190Y-72285714D01*
X46411904Y-72285714D01*
X46507142Y-72238095D01*
X46554761Y-72190476D01*
X46602380Y-72095238D01*
X46602380Y-71952380D01*
X46602380Y-72714285D02*
X45935714Y-72714285D01*
X45602380Y-72714285D02*
X45650000Y-72666666D01*
X45697619Y-72714285D01*
X45650000Y-72761904D01*
X45602380Y-72714285D01*
X45697619Y-72714285D01*
X45935714Y-73190476D02*
X46602380Y-73190476D01*
X46030952Y-73190476D02*
X45983333Y-73238095D01*
X45935714Y-73333333D01*
X45935714Y-73476190D01*
X45983333Y-73571428D01*
X46078571Y-73619047D01*
X46602380Y-73619047D01*
X45935714Y-73952380D02*
X45935714Y-74333333D01*
X45602380Y-74095238D02*
X46459523Y-74095238D01*
X46554761Y-74142857D01*
X46602380Y-74238095D01*
X46602380Y-74333333D01*
X49652380Y-69738095D02*
X49652380Y-70309523D01*
X50652380Y-70023809D02*
X49652380Y-70023809D01*
X50652380Y-70642857D02*
X49652380Y-70642857D01*
X49652380Y-71023809D01*
X49700000Y-71119047D01*
X49747619Y-71166666D01*
X49842857Y-71214285D01*
X49985714Y-71214285D01*
X50080952Y-71166666D01*
X50128571Y-71119047D01*
X50176190Y-71023809D01*
X50176190Y-70642857D01*
X49985714Y-72071428D02*
X50652380Y-72071428D01*
X49604761Y-71833333D02*
X50319047Y-71595238D01*
X50319047Y-72214285D01*
G04 #@! TO.C,TP3*
X7933333Y-56002380D02*
X7361904Y-56002380D01*
X7647619Y-57002380D02*
X7647619Y-56002380D01*
X6647619Y-56954761D02*
X6742857Y-57002380D01*
X6933333Y-57002380D01*
X7028571Y-56954761D01*
X7076190Y-56859523D01*
X7076190Y-56478571D01*
X7028571Y-56383333D01*
X6933333Y-56335714D01*
X6742857Y-56335714D01*
X6647619Y-56383333D01*
X6600000Y-56478571D01*
X6600000Y-56573809D01*
X7076190Y-56669047D01*
X6219047Y-56954761D02*
X6123809Y-57002380D01*
X5933333Y-57002380D01*
X5838095Y-56954761D01*
X5790476Y-56859523D01*
X5790476Y-56811904D01*
X5838095Y-56716666D01*
X5933333Y-56669047D01*
X6076190Y-56669047D01*
X6171428Y-56621428D01*
X6219047Y-56526190D01*
X6219047Y-56478571D01*
X6171428Y-56383333D01*
X6076190Y-56335714D01*
X5933333Y-56335714D01*
X5838095Y-56383333D01*
X5504761Y-56335714D02*
X5123809Y-56335714D01*
X5361904Y-56002380D02*
X5361904Y-56859523D01*
X5314285Y-56954761D01*
X5219047Y-57002380D01*
X5123809Y-57002380D01*
X4790476Y-57002380D02*
X4790476Y-56002380D01*
X4409523Y-56002380D01*
X4314285Y-56050000D01*
X4266666Y-56097619D01*
X4219047Y-56192857D01*
X4219047Y-56335714D01*
X4266666Y-56430952D01*
X4314285Y-56478571D01*
X4409523Y-56526190D01*
X4790476Y-56526190D01*
X3647619Y-57002380D02*
X3742857Y-56954761D01*
X3790476Y-56907142D01*
X3838095Y-56811904D01*
X3838095Y-56526190D01*
X3790476Y-56430952D01*
X3742857Y-56383333D01*
X3647619Y-56335714D01*
X3504761Y-56335714D01*
X3409523Y-56383333D01*
X3361904Y-56430952D01*
X3314285Y-56526190D01*
X3314285Y-56811904D01*
X3361904Y-56907142D01*
X3409523Y-56954761D01*
X3504761Y-57002380D01*
X3647619Y-57002380D01*
X2885714Y-57002380D02*
X2885714Y-56335714D01*
X2885714Y-56002380D02*
X2933333Y-56050000D01*
X2885714Y-56097619D01*
X2838095Y-56050000D01*
X2885714Y-56002380D01*
X2885714Y-56097619D01*
X2409523Y-56335714D02*
X2409523Y-57002380D01*
X2409523Y-56430952D02*
X2361904Y-56383333D01*
X2266666Y-56335714D01*
X2123809Y-56335714D01*
X2028571Y-56383333D01*
X1980952Y-56478571D01*
X1980952Y-57002380D01*
X1647619Y-56335714D02*
X1266666Y-56335714D01*
X1504761Y-56002380D02*
X1504761Y-56859523D01*
X1457142Y-56954761D01*
X1361904Y-57002380D01*
X1266666Y-57002380D01*
X5861904Y-60052380D02*
X5290476Y-60052380D01*
X5576190Y-61052380D02*
X5576190Y-60052380D01*
X4957142Y-61052380D02*
X4957142Y-60052380D01*
X4576190Y-60052380D01*
X4480952Y-60100000D01*
X4433333Y-60147619D01*
X4385714Y-60242857D01*
X4385714Y-60385714D01*
X4433333Y-60480952D01*
X4480952Y-60528571D01*
X4576190Y-60576190D01*
X4957142Y-60576190D01*
X4052380Y-60052380D02*
X3433333Y-60052380D01*
X3766666Y-60433333D01*
X3623809Y-60433333D01*
X3528571Y-60480952D01*
X3480952Y-60528571D01*
X3433333Y-60623809D01*
X3433333Y-60861904D01*
X3480952Y-60957142D01*
X3528571Y-61004761D01*
X3623809Y-61052380D01*
X3909523Y-61052380D01*
X4004761Y-61004761D01*
X4052380Y-60957142D01*
G04 #@! TO.C,TP1*
X2787180Y-58541066D02*
X2787180Y-59112495D01*
X3787180Y-58826780D02*
X2787180Y-58826780D01*
X3739561Y-59826780D02*
X3787180Y-59731542D01*
X3787180Y-59541066D01*
X3739561Y-59445828D01*
X3644323Y-59398209D01*
X3263371Y-59398209D01*
X3168133Y-59445828D01*
X3120514Y-59541066D01*
X3120514Y-59731542D01*
X3168133Y-59826780D01*
X3263371Y-59874400D01*
X3358609Y-59874400D01*
X3453847Y-59398209D01*
X3739561Y-60255352D02*
X3787180Y-60350590D01*
X3787180Y-60541066D01*
X3739561Y-60636304D01*
X3644323Y-60683923D01*
X3596704Y-60683923D01*
X3501466Y-60636304D01*
X3453847Y-60541066D01*
X3453847Y-60398209D01*
X3406228Y-60302971D01*
X3310990Y-60255352D01*
X3263371Y-60255352D01*
X3168133Y-60302971D01*
X3120514Y-60398209D01*
X3120514Y-60541066D01*
X3168133Y-60636304D01*
X3120514Y-60969638D02*
X3120514Y-61350590D01*
X2787180Y-61112495D02*
X3644323Y-61112495D01*
X3739561Y-61160114D01*
X3787180Y-61255352D01*
X3787180Y-61350590D01*
X3787180Y-61683923D02*
X2787180Y-61683923D01*
X2787180Y-62064876D01*
X2834800Y-62160114D01*
X2882419Y-62207733D01*
X2977657Y-62255352D01*
X3120514Y-62255352D01*
X3215752Y-62207733D01*
X3263371Y-62160114D01*
X3310990Y-62064876D01*
X3310990Y-61683923D01*
X3787180Y-62826780D02*
X3739561Y-62731542D01*
X3691942Y-62683923D01*
X3596704Y-62636304D01*
X3310990Y-62636304D01*
X3215752Y-62683923D01*
X3168133Y-62731542D01*
X3120514Y-62826780D01*
X3120514Y-62969638D01*
X3168133Y-63064876D01*
X3215752Y-63112495D01*
X3310990Y-63160114D01*
X3596704Y-63160114D01*
X3691942Y-63112495D01*
X3739561Y-63064876D01*
X3787180Y-62969638D01*
X3787180Y-62826780D01*
X3787180Y-63588685D02*
X3120514Y-63588685D01*
X2787180Y-63588685D02*
X2834800Y-63541066D01*
X2882419Y-63588685D01*
X2834800Y-63636304D01*
X2787180Y-63588685D01*
X2882419Y-63588685D01*
X3120514Y-64064876D02*
X3787180Y-64064876D01*
X3215752Y-64064876D02*
X3168133Y-64112495D01*
X3120514Y-64207733D01*
X3120514Y-64350590D01*
X3168133Y-64445828D01*
X3263371Y-64493447D01*
X3787180Y-64493447D01*
X3120514Y-64826780D02*
X3120514Y-65207733D01*
X2787180Y-64969638D02*
X3644323Y-64969638D01*
X3739561Y-65017257D01*
X3787180Y-65112495D01*
X3787180Y-65207733D01*
X6837180Y-60612495D02*
X6837180Y-61183923D01*
X7837180Y-60898209D02*
X6837180Y-60898209D01*
X7837180Y-61517257D02*
X6837180Y-61517257D01*
X6837180Y-61898209D01*
X6884800Y-61993447D01*
X6932419Y-62041066D01*
X7027657Y-62088685D01*
X7170514Y-62088685D01*
X7265752Y-62041066D01*
X7313371Y-61993447D01*
X7360990Y-61898209D01*
X7360990Y-61517257D01*
X7837180Y-63041066D02*
X7837180Y-62469638D01*
X7837180Y-62755352D02*
X6837180Y-62755352D01*
X6980038Y-62660114D01*
X7075276Y-62564876D01*
X7122895Y-62469638D01*
G04 #@! TO.C,TP5*
X39102380Y-65566666D02*
X39102380Y-66138095D01*
X40102380Y-65852380D02*
X39102380Y-65852380D01*
X40054761Y-66852380D02*
X40102380Y-66757142D01*
X40102380Y-66566666D01*
X40054761Y-66471428D01*
X39959523Y-66423809D01*
X39578571Y-66423809D01*
X39483333Y-66471428D01*
X39435714Y-66566666D01*
X39435714Y-66757142D01*
X39483333Y-66852380D01*
X39578571Y-66900000D01*
X39673809Y-66900000D01*
X39769047Y-66423809D01*
X40054761Y-67280952D02*
X40102380Y-67376190D01*
X40102380Y-67566666D01*
X40054761Y-67661904D01*
X39959523Y-67709523D01*
X39911904Y-67709523D01*
X39816666Y-67661904D01*
X39769047Y-67566666D01*
X39769047Y-67423809D01*
X39721428Y-67328571D01*
X39626190Y-67280952D01*
X39578571Y-67280952D01*
X39483333Y-67328571D01*
X39435714Y-67423809D01*
X39435714Y-67566666D01*
X39483333Y-67661904D01*
X39435714Y-67995238D02*
X39435714Y-68376190D01*
X39102380Y-68138095D02*
X39959523Y-68138095D01*
X40054761Y-68185714D01*
X40102380Y-68280952D01*
X40102380Y-68376190D01*
X40102380Y-68709523D02*
X39102380Y-68709523D01*
X39102380Y-69090476D01*
X39150000Y-69185714D01*
X39197619Y-69233333D01*
X39292857Y-69280952D01*
X39435714Y-69280952D01*
X39530952Y-69233333D01*
X39578571Y-69185714D01*
X39626190Y-69090476D01*
X39626190Y-68709523D01*
X40102380Y-69852380D02*
X40054761Y-69757142D01*
X40007142Y-69709523D01*
X39911904Y-69661904D01*
X39626190Y-69661904D01*
X39530952Y-69709523D01*
X39483333Y-69757142D01*
X39435714Y-69852380D01*
X39435714Y-69995238D01*
X39483333Y-70090476D01*
X39530952Y-70138095D01*
X39626190Y-70185714D01*
X39911904Y-70185714D01*
X40007142Y-70138095D01*
X40054761Y-70090476D01*
X40102380Y-69995238D01*
X40102380Y-69852380D01*
X40102380Y-70614285D02*
X39435714Y-70614285D01*
X39102380Y-70614285D02*
X39150000Y-70566666D01*
X39197619Y-70614285D01*
X39150000Y-70661904D01*
X39102380Y-70614285D01*
X39197619Y-70614285D01*
X39435714Y-71090476D02*
X40102380Y-71090476D01*
X39530952Y-71090476D02*
X39483333Y-71138095D01*
X39435714Y-71233333D01*
X39435714Y-71376190D01*
X39483333Y-71471428D01*
X39578571Y-71519047D01*
X40102380Y-71519047D01*
X39435714Y-71852380D02*
X39435714Y-72233333D01*
X39102380Y-71995238D02*
X39959523Y-71995238D01*
X40054761Y-72042857D01*
X40102380Y-72138095D01*
X40102380Y-72233333D01*
X43152380Y-67638095D02*
X43152380Y-68209523D01*
X44152380Y-67923809D02*
X43152380Y-67923809D01*
X44152380Y-68542857D02*
X43152380Y-68542857D01*
X43152380Y-68923809D01*
X43200000Y-69019047D01*
X43247619Y-69066666D01*
X43342857Y-69114285D01*
X43485714Y-69114285D01*
X43580952Y-69066666D01*
X43628571Y-69019047D01*
X43676190Y-68923809D01*
X43676190Y-68542857D01*
X43152380Y-70019047D02*
X43152380Y-69542857D01*
X43628571Y-69495238D01*
X43580952Y-69542857D01*
X43533333Y-69638095D01*
X43533333Y-69876190D01*
X43580952Y-69971428D01*
X43628571Y-70019047D01*
X43723809Y-70066666D01*
X43961904Y-70066666D01*
X44057142Y-70019047D01*
X44104761Y-69971428D01*
X44152380Y-69876190D01*
X44152380Y-69638095D01*
X44104761Y-69542857D01*
X44057142Y-69495238D01*
G04 #@! TO.C,RST_N1*
X18733333Y-85402380D02*
X18161904Y-85402380D01*
X18447619Y-86402380D02*
X18447619Y-85402380D01*
X17447619Y-86354761D02*
X17542857Y-86402380D01*
X17733333Y-86402380D01*
X17828571Y-86354761D01*
X17876190Y-86259523D01*
X17876190Y-85878571D01*
X17828571Y-85783333D01*
X17733333Y-85735714D01*
X17542857Y-85735714D01*
X17447619Y-85783333D01*
X17400000Y-85878571D01*
X17400000Y-85973809D01*
X17876190Y-86069047D01*
X17019047Y-86354761D02*
X16923809Y-86402380D01*
X16733333Y-86402380D01*
X16638095Y-86354761D01*
X16590476Y-86259523D01*
X16590476Y-86211904D01*
X16638095Y-86116666D01*
X16733333Y-86069047D01*
X16876190Y-86069047D01*
X16971428Y-86021428D01*
X17019047Y-85926190D01*
X17019047Y-85878571D01*
X16971428Y-85783333D01*
X16876190Y-85735714D01*
X16733333Y-85735714D01*
X16638095Y-85783333D01*
X16304761Y-85735714D02*
X15923809Y-85735714D01*
X16161904Y-85402380D02*
X16161904Y-86259523D01*
X16114285Y-86354761D01*
X16019047Y-86402380D01*
X15923809Y-86402380D01*
X15590476Y-86402380D02*
X15590476Y-85402380D01*
X15209523Y-85402380D01*
X15114285Y-85450000D01*
X15066666Y-85497619D01*
X15019047Y-85592857D01*
X15019047Y-85735714D01*
X15066666Y-85830952D01*
X15114285Y-85878571D01*
X15209523Y-85926190D01*
X15590476Y-85926190D01*
X14447619Y-86402380D02*
X14542857Y-86354761D01*
X14590476Y-86307142D01*
X14638095Y-86211904D01*
X14638095Y-85926190D01*
X14590476Y-85830952D01*
X14542857Y-85783333D01*
X14447619Y-85735714D01*
X14304761Y-85735714D01*
X14209523Y-85783333D01*
X14161904Y-85830952D01*
X14114285Y-85926190D01*
X14114285Y-86211904D01*
X14161904Y-86307142D01*
X14209523Y-86354761D01*
X14304761Y-86402380D01*
X14447619Y-86402380D01*
X13685714Y-86402380D02*
X13685714Y-85735714D01*
X13685714Y-85402380D02*
X13733333Y-85450000D01*
X13685714Y-85497619D01*
X13638095Y-85450000D01*
X13685714Y-85402380D01*
X13685714Y-85497619D01*
X13209523Y-85735714D02*
X13209523Y-86402380D01*
X13209523Y-85830952D02*
X13161904Y-85783333D01*
X13066666Y-85735714D01*
X12923809Y-85735714D01*
X12828571Y-85783333D01*
X12780952Y-85878571D01*
X12780952Y-86402380D01*
X12447619Y-85735714D02*
X12066666Y-85735714D01*
X12304761Y-85402380D02*
X12304761Y-86259523D01*
X12257142Y-86354761D01*
X12161904Y-86402380D01*
X12066666Y-86402380D01*
X17328571Y-90452380D02*
X17661904Y-89976190D01*
X17900000Y-90452380D02*
X17900000Y-89452380D01*
X17519047Y-89452380D01*
X17423809Y-89500000D01*
X17376190Y-89547619D01*
X17328571Y-89642857D01*
X17328571Y-89785714D01*
X17376190Y-89880952D01*
X17423809Y-89928571D01*
X17519047Y-89976190D01*
X17900000Y-89976190D01*
X16947619Y-90404761D02*
X16804761Y-90452380D01*
X16566666Y-90452380D01*
X16471428Y-90404761D01*
X16423809Y-90357142D01*
X16376190Y-90261904D01*
X16376190Y-90166666D01*
X16423809Y-90071428D01*
X16471428Y-90023809D01*
X16566666Y-89976190D01*
X16757142Y-89928571D01*
X16852380Y-89880952D01*
X16900000Y-89833333D01*
X16947619Y-89738095D01*
X16947619Y-89642857D01*
X16900000Y-89547619D01*
X16852380Y-89500000D01*
X16757142Y-89452380D01*
X16519047Y-89452380D01*
X16376190Y-89500000D01*
X16090476Y-89452380D02*
X15519047Y-89452380D01*
X15804761Y-90452380D02*
X15804761Y-89452380D01*
X15423809Y-90547619D02*
X14661904Y-90547619D01*
X14423809Y-90452380D02*
X14423809Y-89452380D01*
X13852380Y-90452380D01*
X13852380Y-89452380D01*
X12852380Y-90452380D02*
X13423809Y-90452380D01*
X13138095Y-90452380D02*
X13138095Y-89452380D01*
X13233333Y-89595238D01*
X13328571Y-89690476D01*
X13423809Y-89738095D01*
G04 #@! TO.C,TP8*
X35952380Y-65516666D02*
X35952380Y-66088095D01*
X36952380Y-65802380D02*
X35952380Y-65802380D01*
X36904761Y-66802380D02*
X36952380Y-66707142D01*
X36952380Y-66516666D01*
X36904761Y-66421428D01*
X36809523Y-66373809D01*
X36428571Y-66373809D01*
X36333333Y-66421428D01*
X36285714Y-66516666D01*
X36285714Y-66707142D01*
X36333333Y-66802380D01*
X36428571Y-66850000D01*
X36523809Y-66850000D01*
X36619047Y-66373809D01*
X36904761Y-67230952D02*
X36952380Y-67326190D01*
X36952380Y-67516666D01*
X36904761Y-67611904D01*
X36809523Y-67659523D01*
X36761904Y-67659523D01*
X36666666Y-67611904D01*
X36619047Y-67516666D01*
X36619047Y-67373809D01*
X36571428Y-67278571D01*
X36476190Y-67230952D01*
X36428571Y-67230952D01*
X36333333Y-67278571D01*
X36285714Y-67373809D01*
X36285714Y-67516666D01*
X36333333Y-67611904D01*
X36285714Y-67945238D02*
X36285714Y-68326190D01*
X35952380Y-68088095D02*
X36809523Y-68088095D01*
X36904761Y-68135714D01*
X36952380Y-68230952D01*
X36952380Y-68326190D01*
X36952380Y-68659523D02*
X35952380Y-68659523D01*
X35952380Y-69040476D01*
X36000000Y-69135714D01*
X36047619Y-69183333D01*
X36142857Y-69230952D01*
X36285714Y-69230952D01*
X36380952Y-69183333D01*
X36428571Y-69135714D01*
X36476190Y-69040476D01*
X36476190Y-68659523D01*
X36952380Y-69802380D02*
X36904761Y-69707142D01*
X36857142Y-69659523D01*
X36761904Y-69611904D01*
X36476190Y-69611904D01*
X36380952Y-69659523D01*
X36333333Y-69707142D01*
X36285714Y-69802380D01*
X36285714Y-69945238D01*
X36333333Y-70040476D01*
X36380952Y-70088095D01*
X36476190Y-70135714D01*
X36761904Y-70135714D01*
X36857142Y-70088095D01*
X36904761Y-70040476D01*
X36952380Y-69945238D01*
X36952380Y-69802380D01*
X36952380Y-70564285D02*
X36285714Y-70564285D01*
X35952380Y-70564285D02*
X36000000Y-70516666D01*
X36047619Y-70564285D01*
X36000000Y-70611904D01*
X35952380Y-70564285D01*
X36047619Y-70564285D01*
X36285714Y-71040476D02*
X36952380Y-71040476D01*
X36380952Y-71040476D02*
X36333333Y-71088095D01*
X36285714Y-71183333D01*
X36285714Y-71326190D01*
X36333333Y-71421428D01*
X36428571Y-71469047D01*
X36952380Y-71469047D01*
X36285714Y-71802380D02*
X36285714Y-72183333D01*
X35952380Y-71945238D02*
X36809523Y-71945238D01*
X36904761Y-71992857D01*
X36952380Y-72088095D01*
X36952380Y-72183333D01*
X40002380Y-67588095D02*
X40002380Y-68159523D01*
X41002380Y-67873809D02*
X40002380Y-67873809D01*
X41002380Y-68492857D02*
X40002380Y-68492857D01*
X40002380Y-68873809D01*
X40050000Y-68969047D01*
X40097619Y-69016666D01*
X40192857Y-69064285D01*
X40335714Y-69064285D01*
X40430952Y-69016666D01*
X40478571Y-68969047D01*
X40526190Y-68873809D01*
X40526190Y-68492857D01*
X40430952Y-69635714D02*
X40383333Y-69540476D01*
X40335714Y-69492857D01*
X40240476Y-69445238D01*
X40192857Y-69445238D01*
X40097619Y-69492857D01*
X40050000Y-69540476D01*
X40002380Y-69635714D01*
X40002380Y-69826190D01*
X40050000Y-69921428D01*
X40097619Y-69969047D01*
X40192857Y-70016666D01*
X40240476Y-70016666D01*
X40335714Y-69969047D01*
X40383333Y-69921428D01*
X40430952Y-69826190D01*
X40430952Y-69635714D01*
X40478571Y-69540476D01*
X40526190Y-69492857D01*
X40621428Y-69445238D01*
X40811904Y-69445238D01*
X40907142Y-69492857D01*
X40954761Y-69540476D01*
X41002380Y-69635714D01*
X41002380Y-69826190D01*
X40954761Y-69921428D01*
X40907142Y-69969047D01*
X40811904Y-70016666D01*
X40621428Y-70016666D01*
X40526190Y-69969047D01*
X40478571Y-69921428D01*
X40430952Y-69826190D01*
G04 #@! TO.C,TP7*
X30952380Y-65516666D02*
X30952380Y-66088095D01*
X31952380Y-65802380D02*
X30952380Y-65802380D01*
X31904761Y-66802380D02*
X31952380Y-66707142D01*
X31952380Y-66516666D01*
X31904761Y-66421428D01*
X31809523Y-66373809D01*
X31428571Y-66373809D01*
X31333333Y-66421428D01*
X31285714Y-66516666D01*
X31285714Y-66707142D01*
X31333333Y-66802380D01*
X31428571Y-66850000D01*
X31523809Y-66850000D01*
X31619047Y-66373809D01*
X31904761Y-67230952D02*
X31952380Y-67326190D01*
X31952380Y-67516666D01*
X31904761Y-67611904D01*
X31809523Y-67659523D01*
X31761904Y-67659523D01*
X31666666Y-67611904D01*
X31619047Y-67516666D01*
X31619047Y-67373809D01*
X31571428Y-67278571D01*
X31476190Y-67230952D01*
X31428571Y-67230952D01*
X31333333Y-67278571D01*
X31285714Y-67373809D01*
X31285714Y-67516666D01*
X31333333Y-67611904D01*
X31285714Y-67945238D02*
X31285714Y-68326190D01*
X30952380Y-68088095D02*
X31809523Y-68088095D01*
X31904761Y-68135714D01*
X31952380Y-68230952D01*
X31952380Y-68326190D01*
X31952380Y-68659523D02*
X30952380Y-68659523D01*
X30952380Y-69040476D01*
X31000000Y-69135714D01*
X31047619Y-69183333D01*
X31142857Y-69230952D01*
X31285714Y-69230952D01*
X31380952Y-69183333D01*
X31428571Y-69135714D01*
X31476190Y-69040476D01*
X31476190Y-68659523D01*
X31952380Y-69802380D02*
X31904761Y-69707142D01*
X31857142Y-69659523D01*
X31761904Y-69611904D01*
X31476190Y-69611904D01*
X31380952Y-69659523D01*
X31333333Y-69707142D01*
X31285714Y-69802380D01*
X31285714Y-69945238D01*
X31333333Y-70040476D01*
X31380952Y-70088095D01*
X31476190Y-70135714D01*
X31761904Y-70135714D01*
X31857142Y-70088095D01*
X31904761Y-70040476D01*
X31952380Y-69945238D01*
X31952380Y-69802380D01*
X31952380Y-70564285D02*
X31285714Y-70564285D01*
X30952380Y-70564285D02*
X31000000Y-70516666D01*
X31047619Y-70564285D01*
X31000000Y-70611904D01*
X30952380Y-70564285D01*
X31047619Y-70564285D01*
X31285714Y-71040476D02*
X31952380Y-71040476D01*
X31380952Y-71040476D02*
X31333333Y-71088095D01*
X31285714Y-71183333D01*
X31285714Y-71326190D01*
X31333333Y-71421428D01*
X31428571Y-71469047D01*
X31952380Y-71469047D01*
X31285714Y-71802380D02*
X31285714Y-72183333D01*
X30952380Y-71945238D02*
X31809523Y-71945238D01*
X31904761Y-71992857D01*
X31952380Y-72088095D01*
X31952380Y-72183333D01*
X35002380Y-67588095D02*
X35002380Y-68159523D01*
X36002380Y-67873809D02*
X35002380Y-67873809D01*
X36002380Y-68492857D02*
X35002380Y-68492857D01*
X35002380Y-68873809D01*
X35050000Y-68969047D01*
X35097619Y-69016666D01*
X35192857Y-69064285D01*
X35335714Y-69064285D01*
X35430952Y-69016666D01*
X35478571Y-68969047D01*
X35526190Y-68873809D01*
X35526190Y-68492857D01*
X35002380Y-69397619D02*
X35002380Y-70064285D01*
X36002380Y-69635714D01*
G04 #@! TO.C,TP6*
X42752380Y-69866666D02*
X42752380Y-70438095D01*
X43752380Y-70152380D02*
X42752380Y-70152380D01*
X43704761Y-71152380D02*
X43752380Y-71057142D01*
X43752380Y-70866666D01*
X43704761Y-70771428D01*
X43609523Y-70723809D01*
X43228571Y-70723809D01*
X43133333Y-70771428D01*
X43085714Y-70866666D01*
X43085714Y-71057142D01*
X43133333Y-71152380D01*
X43228571Y-71200000D01*
X43323809Y-71200000D01*
X43419047Y-70723809D01*
X43704761Y-71580952D02*
X43752380Y-71676190D01*
X43752380Y-71866666D01*
X43704761Y-71961904D01*
X43609523Y-72009523D01*
X43561904Y-72009523D01*
X43466666Y-71961904D01*
X43419047Y-71866666D01*
X43419047Y-71723809D01*
X43371428Y-71628571D01*
X43276190Y-71580952D01*
X43228571Y-71580952D01*
X43133333Y-71628571D01*
X43085714Y-71723809D01*
X43085714Y-71866666D01*
X43133333Y-71961904D01*
X43085714Y-72295238D02*
X43085714Y-72676190D01*
X42752380Y-72438095D02*
X43609523Y-72438095D01*
X43704761Y-72485714D01*
X43752380Y-72580952D01*
X43752380Y-72676190D01*
X43752380Y-73009523D02*
X42752380Y-73009523D01*
X42752380Y-73390476D01*
X42800000Y-73485714D01*
X42847619Y-73533333D01*
X42942857Y-73580952D01*
X43085714Y-73580952D01*
X43180952Y-73533333D01*
X43228571Y-73485714D01*
X43276190Y-73390476D01*
X43276190Y-73009523D01*
X43752380Y-74152380D02*
X43704761Y-74057142D01*
X43657142Y-74009523D01*
X43561904Y-73961904D01*
X43276190Y-73961904D01*
X43180952Y-74009523D01*
X43133333Y-74057142D01*
X43085714Y-74152380D01*
X43085714Y-74295238D01*
X43133333Y-74390476D01*
X43180952Y-74438095D01*
X43276190Y-74485714D01*
X43561904Y-74485714D01*
X43657142Y-74438095D01*
X43704761Y-74390476D01*
X43752380Y-74295238D01*
X43752380Y-74152380D01*
X43752380Y-74914285D02*
X43085714Y-74914285D01*
X42752380Y-74914285D02*
X42800000Y-74866666D01*
X42847619Y-74914285D01*
X42800000Y-74961904D01*
X42752380Y-74914285D01*
X42847619Y-74914285D01*
X43085714Y-75390476D02*
X43752380Y-75390476D01*
X43180952Y-75390476D02*
X43133333Y-75438095D01*
X43085714Y-75533333D01*
X43085714Y-75676190D01*
X43133333Y-75771428D01*
X43228571Y-75819047D01*
X43752380Y-75819047D01*
X43085714Y-76152380D02*
X43085714Y-76533333D01*
X42752380Y-76295238D02*
X43609523Y-76295238D01*
X43704761Y-76342857D01*
X43752380Y-76438095D01*
X43752380Y-76533333D01*
X46802380Y-71938095D02*
X46802380Y-72509523D01*
X47802380Y-72223809D02*
X46802380Y-72223809D01*
X47802380Y-72842857D02*
X46802380Y-72842857D01*
X46802380Y-73223809D01*
X46850000Y-73319047D01*
X46897619Y-73366666D01*
X46992857Y-73414285D01*
X47135714Y-73414285D01*
X47230952Y-73366666D01*
X47278571Y-73319047D01*
X47326190Y-73223809D01*
X47326190Y-72842857D01*
X46802380Y-74271428D02*
X46802380Y-74080952D01*
X46850000Y-73985714D01*
X46897619Y-73938095D01*
X47040476Y-73842857D01*
X47230952Y-73795238D01*
X47611904Y-73795238D01*
X47707142Y-73842857D01*
X47754761Y-73890476D01*
X47802380Y-73985714D01*
X47802380Y-74176190D01*
X47754761Y-74271428D01*
X47707142Y-74319047D01*
X47611904Y-74366666D01*
X47373809Y-74366666D01*
X47278571Y-74319047D01*
X47230952Y-74271428D01*
X47183333Y-74176190D01*
X47183333Y-73985714D01*
X47230952Y-73890476D01*
X47278571Y-73842857D01*
X47373809Y-73795238D01*
G04 #@! TO.C,TP2*
X30554774Y-25779806D02*
X30078583Y-25779806D01*
X30650012Y-26065520D02*
X30316679Y-25065520D01*
X29983345Y-26065520D01*
X29792869Y-25065520D02*
X29221440Y-25065520D01*
X29507155Y-26065520D02*
X29507155Y-25065520D01*
X29030964Y-25065520D02*
X28459536Y-25065520D01*
X28745250Y-26065520D02*
X28745250Y-25065520D01*
X28126202Y-26065520D02*
X28126202Y-25398854D01*
X28126202Y-25065520D02*
X28173821Y-25113140D01*
X28126202Y-25160759D01*
X28078583Y-25113140D01*
X28126202Y-25065520D01*
X28126202Y-25160759D01*
X27650012Y-25398854D02*
X27650012Y-26065520D01*
X27650012Y-25494092D02*
X27602393Y-25446473D01*
X27507155Y-25398854D01*
X27364298Y-25398854D01*
X27269060Y-25446473D01*
X27221440Y-25541711D01*
X27221440Y-26065520D01*
X26840488Y-25398854D02*
X26602393Y-26065520D01*
X26364298Y-25398854D02*
X26602393Y-26065520D01*
X26697631Y-26303616D01*
X26745250Y-26351235D01*
X26840488Y-26398854D01*
X25983345Y-26065520D02*
X25983345Y-25065520D01*
X25602393Y-25065520D01*
X25507155Y-25113140D01*
X25459536Y-25160759D01*
X25411917Y-25255997D01*
X25411917Y-25398854D01*
X25459536Y-25494092D01*
X25507155Y-25541711D01*
X25602393Y-25589330D01*
X25983345Y-25589330D01*
X24983345Y-26065520D02*
X24983345Y-25398854D01*
X24983345Y-25589330D02*
X24935726Y-25494092D01*
X24888107Y-25446473D01*
X24792869Y-25398854D01*
X24697631Y-25398854D01*
X24221440Y-26065520D02*
X24316679Y-26017901D01*
X24364298Y-25970282D01*
X24411917Y-25875044D01*
X24411917Y-25589330D01*
X24364298Y-25494092D01*
X24316679Y-25446473D01*
X24221440Y-25398854D01*
X24078583Y-25398854D01*
X23983345Y-25446473D01*
X23935726Y-25494092D01*
X23888107Y-25589330D01*
X23888107Y-25875044D01*
X23935726Y-25970282D01*
X23983345Y-26017901D01*
X24078583Y-26065520D01*
X24221440Y-26065520D01*
X23030964Y-25398854D02*
X23030964Y-26208378D01*
X23078583Y-26303616D01*
X23126202Y-26351235D01*
X23221440Y-26398854D01*
X23364298Y-26398854D01*
X23459536Y-26351235D01*
X23030964Y-26017901D02*
X23126202Y-26065520D01*
X23316679Y-26065520D01*
X23411917Y-26017901D01*
X23459536Y-25970282D01*
X23507155Y-25875044D01*
X23507155Y-25589330D01*
X23459536Y-25494092D01*
X23411917Y-25446473D01*
X23316679Y-25398854D01*
X23126202Y-25398854D01*
X23030964Y-25446473D01*
X28030964Y-29115520D02*
X27459536Y-29115520D01*
X27745250Y-30115520D02*
X27745250Y-29115520D01*
X27126202Y-30115520D02*
X27126202Y-29115520D01*
X26745250Y-29115520D01*
X26650012Y-29163140D01*
X26602393Y-29210759D01*
X26554774Y-29305997D01*
X26554774Y-29448854D01*
X26602393Y-29544092D01*
X26650012Y-29591711D01*
X26745250Y-29639330D01*
X27126202Y-29639330D01*
X26173821Y-29210759D02*
X26126202Y-29163140D01*
X26030964Y-29115520D01*
X25792869Y-29115520D01*
X25697631Y-29163140D01*
X25650012Y-29210759D01*
X25602393Y-29305997D01*
X25602393Y-29401235D01*
X25650012Y-29544092D01*
X26221440Y-30115520D01*
X25602393Y-30115520D01*
G04 #@! TO.C,TP12v0*
X62073373Y-49640020D02*
X61501944Y-49640020D01*
X61787659Y-50640020D02*
X61787659Y-49640020D01*
X60787659Y-50592401D02*
X60882897Y-50640020D01*
X61073373Y-50640020D01*
X61168611Y-50592401D01*
X61216230Y-50497163D01*
X61216230Y-50116211D01*
X61168611Y-50020973D01*
X61073373Y-49973354D01*
X60882897Y-49973354D01*
X60787659Y-50020973D01*
X60740040Y-50116211D01*
X60740040Y-50211449D01*
X61216230Y-50306687D01*
X60359087Y-50592401D02*
X60263849Y-50640020D01*
X60073373Y-50640020D01*
X59978135Y-50592401D01*
X59930516Y-50497163D01*
X59930516Y-50449544D01*
X59978135Y-50354306D01*
X60073373Y-50306687D01*
X60216230Y-50306687D01*
X60311468Y-50259068D01*
X60359087Y-50163830D01*
X60359087Y-50116211D01*
X60311468Y-50020973D01*
X60216230Y-49973354D01*
X60073373Y-49973354D01*
X59978135Y-50020973D01*
X59644801Y-49973354D02*
X59263849Y-49973354D01*
X59501944Y-49640020D02*
X59501944Y-50497163D01*
X59454325Y-50592401D01*
X59359087Y-50640020D01*
X59263849Y-50640020D01*
X58930516Y-50640020D02*
X58930516Y-49640020D01*
X58549563Y-49640020D01*
X58454325Y-49687640D01*
X58406706Y-49735259D01*
X58359087Y-49830497D01*
X58359087Y-49973354D01*
X58406706Y-50068592D01*
X58454325Y-50116211D01*
X58549563Y-50163830D01*
X58930516Y-50163830D01*
X57787659Y-50640020D02*
X57882897Y-50592401D01*
X57930516Y-50544782D01*
X57978135Y-50449544D01*
X57978135Y-50163830D01*
X57930516Y-50068592D01*
X57882897Y-50020973D01*
X57787659Y-49973354D01*
X57644801Y-49973354D01*
X57549563Y-50020973D01*
X57501944Y-50068592D01*
X57454325Y-50163830D01*
X57454325Y-50449544D01*
X57501944Y-50544782D01*
X57549563Y-50592401D01*
X57644801Y-50640020D01*
X57787659Y-50640020D01*
X57025754Y-50640020D02*
X57025754Y-49973354D01*
X57025754Y-49640020D02*
X57073373Y-49687640D01*
X57025754Y-49735259D01*
X56978135Y-49687640D01*
X57025754Y-49640020D01*
X57025754Y-49735259D01*
X56549563Y-49973354D02*
X56549563Y-50640020D01*
X56549563Y-50068592D02*
X56501944Y-50020973D01*
X56406706Y-49973354D01*
X56263849Y-49973354D01*
X56168611Y-50020973D01*
X56120992Y-50116211D01*
X56120992Y-50640020D01*
X55787659Y-49973354D02*
X55406706Y-49973354D01*
X55644801Y-49640020D02*
X55644801Y-50497163D01*
X55597182Y-50592401D01*
X55501944Y-50640020D01*
X55406706Y-50640020D01*
X61335278Y-53690020D02*
X60763849Y-53690020D01*
X61049563Y-54690020D02*
X61049563Y-53690020D01*
X60430516Y-54690020D02*
X60430516Y-53690020D01*
X60049563Y-53690020D01*
X59954325Y-53737640D01*
X59906706Y-53785259D01*
X59859087Y-53880497D01*
X59859087Y-54023354D01*
X59906706Y-54118592D01*
X59954325Y-54166211D01*
X60049563Y-54213830D01*
X60430516Y-54213830D01*
X58906706Y-54690020D02*
X59478135Y-54690020D01*
X59192420Y-54690020D02*
X59192420Y-53690020D01*
X59287659Y-53832878D01*
X59382897Y-53928116D01*
X59478135Y-53975735D01*
X58525754Y-53785259D02*
X58478135Y-53737640D01*
X58382897Y-53690020D01*
X58144801Y-53690020D01*
X58049563Y-53737640D01*
X58001944Y-53785259D01*
X57954325Y-53880497D01*
X57954325Y-53975735D01*
X58001944Y-54118592D01*
X58573373Y-54690020D01*
X57954325Y-54690020D01*
X57620992Y-54023354D02*
X57382897Y-54690020D01*
X57144801Y-54023354D01*
X56573373Y-53690020D02*
X56478135Y-53690020D01*
X56382897Y-53737640D01*
X56335278Y-53785259D01*
X56287659Y-53880497D01*
X56240040Y-54070973D01*
X56240040Y-54309068D01*
X56287659Y-54499544D01*
X56335278Y-54594782D01*
X56382897Y-54642401D01*
X56478135Y-54690020D01*
X56573373Y-54690020D01*
X56668611Y-54642401D01*
X56716230Y-54594782D01*
X56763849Y-54499544D01*
X56811468Y-54309068D01*
X56811468Y-54070973D01*
X56763849Y-53880497D01*
X56716230Y-53785259D01*
X56668611Y-53737640D01*
X56573373Y-53690020D01*
G04 #@! TO.C,TP11*
X18001780Y-14568586D02*
X18001780Y-15140015D01*
X19001780Y-14854300D02*
X18001780Y-14854300D01*
X18954161Y-15854300D02*
X19001780Y-15759062D01*
X19001780Y-15568586D01*
X18954161Y-15473348D01*
X18858923Y-15425729D01*
X18477971Y-15425729D01*
X18382733Y-15473348D01*
X18335114Y-15568586D01*
X18335114Y-15759062D01*
X18382733Y-15854300D01*
X18477971Y-15901920D01*
X18573209Y-15901920D01*
X18668447Y-15425729D01*
X18954161Y-16282872D02*
X19001780Y-16378110D01*
X19001780Y-16568586D01*
X18954161Y-16663824D01*
X18858923Y-16711443D01*
X18811304Y-16711443D01*
X18716066Y-16663824D01*
X18668447Y-16568586D01*
X18668447Y-16425729D01*
X18620828Y-16330491D01*
X18525590Y-16282872D01*
X18477971Y-16282872D01*
X18382733Y-16330491D01*
X18335114Y-16425729D01*
X18335114Y-16568586D01*
X18382733Y-16663824D01*
X18335114Y-16997158D02*
X18335114Y-17378110D01*
X18001780Y-17140015D02*
X18858923Y-17140015D01*
X18954161Y-17187634D01*
X19001780Y-17282872D01*
X19001780Y-17378110D01*
X19001780Y-17711443D02*
X18001780Y-17711443D01*
X18001780Y-18092396D01*
X18049400Y-18187634D01*
X18097019Y-18235253D01*
X18192257Y-18282872D01*
X18335114Y-18282872D01*
X18430352Y-18235253D01*
X18477971Y-18187634D01*
X18525590Y-18092396D01*
X18525590Y-17711443D01*
X19001780Y-18854300D02*
X18954161Y-18759062D01*
X18906542Y-18711443D01*
X18811304Y-18663824D01*
X18525590Y-18663824D01*
X18430352Y-18711443D01*
X18382733Y-18759062D01*
X18335114Y-18854300D01*
X18335114Y-18997158D01*
X18382733Y-19092396D01*
X18430352Y-19140015D01*
X18525590Y-19187634D01*
X18811304Y-19187634D01*
X18906542Y-19140015D01*
X18954161Y-19092396D01*
X19001780Y-18997158D01*
X19001780Y-18854300D01*
X19001780Y-19616205D02*
X18335114Y-19616205D01*
X18001780Y-19616205D02*
X18049400Y-19568586D01*
X18097019Y-19616205D01*
X18049400Y-19663824D01*
X18001780Y-19616205D01*
X18097019Y-19616205D01*
X18335114Y-20092396D02*
X19001780Y-20092396D01*
X18430352Y-20092396D02*
X18382733Y-20140015D01*
X18335114Y-20235253D01*
X18335114Y-20378110D01*
X18382733Y-20473348D01*
X18477971Y-20520967D01*
X19001780Y-20520967D01*
X18335114Y-20854300D02*
X18335114Y-21235253D01*
X18001780Y-20997158D02*
X18858923Y-20997158D01*
X18954161Y-21044777D01*
X19001780Y-21140015D01*
X19001780Y-21235253D01*
X22051780Y-16163824D02*
X22051780Y-16735253D01*
X23051780Y-16449539D02*
X22051780Y-16449539D01*
X23051780Y-17068586D02*
X22051780Y-17068586D01*
X22051780Y-17449539D01*
X22099400Y-17544777D01*
X22147019Y-17592396D01*
X22242257Y-17640015D01*
X22385114Y-17640015D01*
X22480352Y-17592396D01*
X22527971Y-17544777D01*
X22575590Y-17449539D01*
X22575590Y-17068586D01*
X23051780Y-18592396D02*
X23051780Y-18020967D01*
X23051780Y-18306681D02*
X22051780Y-18306681D01*
X22194638Y-18211443D01*
X22289876Y-18116205D01*
X22337495Y-18020967D01*
X23051780Y-19544777D02*
X23051780Y-18973348D01*
X23051780Y-19259062D02*
X22051780Y-19259062D01*
X22194638Y-19163824D01*
X22289876Y-19068586D01*
X22337495Y-18973348D01*
G04 #@! TO.C,TP10*
X15141740Y-8701186D02*
X15141740Y-9272615D01*
X16141740Y-8986900D02*
X15141740Y-8986900D01*
X16094121Y-9986900D02*
X16141740Y-9891662D01*
X16141740Y-9701186D01*
X16094121Y-9605948D01*
X15998883Y-9558329D01*
X15617931Y-9558329D01*
X15522693Y-9605948D01*
X15475074Y-9701186D01*
X15475074Y-9891662D01*
X15522693Y-9986900D01*
X15617931Y-10034520D01*
X15713169Y-10034520D01*
X15808407Y-9558329D01*
X16094121Y-10415472D02*
X16141740Y-10510710D01*
X16141740Y-10701186D01*
X16094121Y-10796424D01*
X15998883Y-10844043D01*
X15951264Y-10844043D01*
X15856026Y-10796424D01*
X15808407Y-10701186D01*
X15808407Y-10558329D01*
X15760788Y-10463091D01*
X15665550Y-10415472D01*
X15617931Y-10415472D01*
X15522693Y-10463091D01*
X15475074Y-10558329D01*
X15475074Y-10701186D01*
X15522693Y-10796424D01*
X15475074Y-11129758D02*
X15475074Y-11510710D01*
X15141740Y-11272615D02*
X15998883Y-11272615D01*
X16094121Y-11320234D01*
X16141740Y-11415472D01*
X16141740Y-11510710D01*
X16141740Y-11844043D02*
X15141740Y-11844043D01*
X15141740Y-12224996D01*
X15189360Y-12320234D01*
X15236979Y-12367853D01*
X15332217Y-12415472D01*
X15475074Y-12415472D01*
X15570312Y-12367853D01*
X15617931Y-12320234D01*
X15665550Y-12224996D01*
X15665550Y-11844043D01*
X16141740Y-12986900D02*
X16094121Y-12891662D01*
X16046502Y-12844043D01*
X15951264Y-12796424D01*
X15665550Y-12796424D01*
X15570312Y-12844043D01*
X15522693Y-12891662D01*
X15475074Y-12986900D01*
X15475074Y-13129758D01*
X15522693Y-13224996D01*
X15570312Y-13272615D01*
X15665550Y-13320234D01*
X15951264Y-13320234D01*
X16046502Y-13272615D01*
X16094121Y-13224996D01*
X16141740Y-13129758D01*
X16141740Y-12986900D01*
X16141740Y-13748805D02*
X15475074Y-13748805D01*
X15141740Y-13748805D02*
X15189360Y-13701186D01*
X15236979Y-13748805D01*
X15189360Y-13796424D01*
X15141740Y-13748805D01*
X15236979Y-13748805D01*
X15475074Y-14224996D02*
X16141740Y-14224996D01*
X15570312Y-14224996D02*
X15522693Y-14272615D01*
X15475074Y-14367853D01*
X15475074Y-14510710D01*
X15522693Y-14605948D01*
X15617931Y-14653567D01*
X16141740Y-14653567D01*
X15475074Y-14986900D02*
X15475074Y-15367853D01*
X15141740Y-15129758D02*
X15998883Y-15129758D01*
X16094121Y-15177377D01*
X16141740Y-15272615D01*
X16141740Y-15367853D01*
X19191740Y-10296424D02*
X19191740Y-10867853D01*
X20191740Y-10582139D02*
X19191740Y-10582139D01*
X20191740Y-11201186D02*
X19191740Y-11201186D01*
X19191740Y-11582139D01*
X19239360Y-11677377D01*
X19286979Y-11724996D01*
X19382217Y-11772615D01*
X19525074Y-11772615D01*
X19620312Y-11724996D01*
X19667931Y-11677377D01*
X19715550Y-11582139D01*
X19715550Y-11201186D01*
X20191740Y-12724996D02*
X20191740Y-12153567D01*
X20191740Y-12439281D02*
X19191740Y-12439281D01*
X19334598Y-12344043D01*
X19429836Y-12248805D01*
X19477455Y-12153567D01*
X19191740Y-13344043D02*
X19191740Y-13439281D01*
X19239360Y-13534520D01*
X19286979Y-13582139D01*
X19382217Y-13629758D01*
X19572693Y-13677377D01*
X19810788Y-13677377D01*
X20001264Y-13629758D01*
X20096502Y-13582139D01*
X20144121Y-13534520D01*
X20191740Y-13439281D01*
X20191740Y-13344043D01*
X20144121Y-13248805D01*
X20096502Y-13201186D01*
X20001264Y-13153567D01*
X19810788Y-13105948D01*
X19572693Y-13105948D01*
X19382217Y-13153567D01*
X19286979Y-13201186D01*
X19239360Y-13248805D01*
X19191740Y-13344043D01*
G04 #@! TO.C,TP9*
X3183420Y-63885226D02*
X3183420Y-64456655D01*
X4183420Y-64170940D02*
X3183420Y-64170940D01*
X4135801Y-65170940D02*
X4183420Y-65075702D01*
X4183420Y-64885226D01*
X4135801Y-64789988D01*
X4040563Y-64742369D01*
X3659611Y-64742369D01*
X3564373Y-64789988D01*
X3516754Y-64885226D01*
X3516754Y-65075702D01*
X3564373Y-65170940D01*
X3659611Y-65218560D01*
X3754849Y-65218560D01*
X3850087Y-64742369D01*
X4135801Y-65599512D02*
X4183420Y-65694750D01*
X4183420Y-65885226D01*
X4135801Y-65980464D01*
X4040563Y-66028083D01*
X3992944Y-66028083D01*
X3897706Y-65980464D01*
X3850087Y-65885226D01*
X3850087Y-65742369D01*
X3802468Y-65647131D01*
X3707230Y-65599512D01*
X3659611Y-65599512D01*
X3564373Y-65647131D01*
X3516754Y-65742369D01*
X3516754Y-65885226D01*
X3564373Y-65980464D01*
X3516754Y-66313798D02*
X3516754Y-66694750D01*
X3183420Y-66456655D02*
X4040563Y-66456655D01*
X4135801Y-66504274D01*
X4183420Y-66599512D01*
X4183420Y-66694750D01*
X4183420Y-67028083D02*
X3183420Y-67028083D01*
X3183420Y-67409036D01*
X3231040Y-67504274D01*
X3278659Y-67551893D01*
X3373897Y-67599512D01*
X3516754Y-67599512D01*
X3611992Y-67551893D01*
X3659611Y-67504274D01*
X3707230Y-67409036D01*
X3707230Y-67028083D01*
X4183420Y-68170940D02*
X4135801Y-68075702D01*
X4088182Y-68028083D01*
X3992944Y-67980464D01*
X3707230Y-67980464D01*
X3611992Y-68028083D01*
X3564373Y-68075702D01*
X3516754Y-68170940D01*
X3516754Y-68313798D01*
X3564373Y-68409036D01*
X3611992Y-68456655D01*
X3707230Y-68504274D01*
X3992944Y-68504274D01*
X4088182Y-68456655D01*
X4135801Y-68409036D01*
X4183420Y-68313798D01*
X4183420Y-68170940D01*
X4183420Y-68932845D02*
X3516754Y-68932845D01*
X3183420Y-68932845D02*
X3231040Y-68885226D01*
X3278659Y-68932845D01*
X3231040Y-68980464D01*
X3183420Y-68932845D01*
X3278659Y-68932845D01*
X3516754Y-69409036D02*
X4183420Y-69409036D01*
X3611992Y-69409036D02*
X3564373Y-69456655D01*
X3516754Y-69551893D01*
X3516754Y-69694750D01*
X3564373Y-69789988D01*
X3659611Y-69837607D01*
X4183420Y-69837607D01*
X3516754Y-70170940D02*
X3516754Y-70551893D01*
X3183420Y-70313798D02*
X4040563Y-70313798D01*
X4135801Y-70361417D01*
X4183420Y-70456655D01*
X4183420Y-70551893D01*
X7233420Y-65956655D02*
X7233420Y-66528083D01*
X8233420Y-66242369D02*
X7233420Y-66242369D01*
X8233420Y-66861417D02*
X7233420Y-66861417D01*
X7233420Y-67242369D01*
X7281040Y-67337607D01*
X7328659Y-67385226D01*
X7423897Y-67432845D01*
X7566754Y-67432845D01*
X7661992Y-67385226D01*
X7709611Y-67337607D01*
X7757230Y-67242369D01*
X7757230Y-66861417D01*
X8233420Y-67909036D02*
X8233420Y-68099512D01*
X8185801Y-68194750D01*
X8138182Y-68242369D01*
X7995325Y-68337607D01*
X7804849Y-68385226D01*
X7423897Y-68385226D01*
X7328659Y-68337607D01*
X7281040Y-68289988D01*
X7233420Y-68194750D01*
X7233420Y-68004274D01*
X7281040Y-67909036D01*
X7328659Y-67861417D01*
X7423897Y-67813798D01*
X7661992Y-67813798D01*
X7757230Y-67861417D01*
X7804849Y-67909036D01*
X7852468Y-68004274D01*
X7852468Y-68194750D01*
X7804849Y-68289988D01*
X7757230Y-68337607D01*
X7661992Y-68385226D01*
G04 #@! TO.C,J5*
X32298080Y-11887557D02*
X31298080Y-11887557D01*
X31298080Y-12268509D01*
X31345700Y-12363747D01*
X31393319Y-12411366D01*
X31488557Y-12458985D01*
X31631414Y-12458985D01*
X31726652Y-12411366D01*
X31774271Y-12363747D01*
X31821890Y-12268509D01*
X31821890Y-11887557D01*
X32298080Y-13030414D02*
X32250461Y-12935176D01*
X32202842Y-12887557D01*
X32107604Y-12839938D01*
X31821890Y-12839938D01*
X31726652Y-12887557D01*
X31679033Y-12935176D01*
X31631414Y-13030414D01*
X31631414Y-13173271D01*
X31679033Y-13268509D01*
X31726652Y-13316128D01*
X31821890Y-13363747D01*
X32107604Y-13363747D01*
X32202842Y-13316128D01*
X32250461Y-13268509D01*
X32298080Y-13173271D01*
X32298080Y-13030414D01*
X31631414Y-13697080D02*
X32298080Y-13887557D01*
X31821890Y-14078033D01*
X32298080Y-14268509D01*
X31631414Y-14458985D01*
X32250461Y-15220890D02*
X32298080Y-15125652D01*
X32298080Y-14935176D01*
X32250461Y-14839938D01*
X32155223Y-14792319D01*
X31774271Y-14792319D01*
X31679033Y-14839938D01*
X31631414Y-14935176D01*
X31631414Y-15125652D01*
X31679033Y-15220890D01*
X31774271Y-15268509D01*
X31869509Y-15268509D01*
X31964747Y-14792319D01*
X32298080Y-15697080D02*
X31631414Y-15697080D01*
X31821890Y-15697080D02*
X31726652Y-15744700D01*
X31679033Y-15792319D01*
X31631414Y-15887557D01*
X31631414Y-15982795D01*
X31298080Y-16173271D02*
X31298080Y-16744700D01*
X32298080Y-16458985D02*
X31298080Y-16458985D01*
X32298080Y-17078033D02*
X31298080Y-17078033D01*
X31298080Y-17458985D01*
X31345700Y-17554223D01*
X31393319Y-17601842D01*
X31488557Y-17649461D01*
X31631414Y-17649461D01*
X31726652Y-17601842D01*
X31774271Y-17554223D01*
X31821890Y-17458985D01*
X31821890Y-17078033D01*
X37049033Y-14197080D02*
X37049033Y-14911366D01*
X37096652Y-15054223D01*
X37191890Y-15149461D01*
X37334747Y-15197080D01*
X37429985Y-15197080D01*
X36096652Y-14197080D02*
X36572842Y-14197080D01*
X36620461Y-14673271D01*
X36572842Y-14625652D01*
X36477604Y-14578033D01*
X36239509Y-14578033D01*
X36144271Y-14625652D01*
X36096652Y-14673271D01*
X36049033Y-14768509D01*
X36049033Y-15006604D01*
X36096652Y-15101842D01*
X36144271Y-15149461D01*
X36239509Y-15197080D01*
X36477604Y-15197080D01*
X36572842Y-15149461D01*
X36620461Y-15101842D01*
G04 #@! TO.C,TP1V0*
X14496633Y-77996580D02*
X13925204Y-77996580D01*
X14210919Y-78996580D02*
X14210919Y-77996580D01*
X13210919Y-78948961D02*
X13306157Y-78996580D01*
X13496633Y-78996580D01*
X13591871Y-78948961D01*
X13639490Y-78853723D01*
X13639490Y-78472771D01*
X13591871Y-78377533D01*
X13496633Y-78329914D01*
X13306157Y-78329914D01*
X13210919Y-78377533D01*
X13163300Y-78472771D01*
X13163300Y-78568009D01*
X13639490Y-78663247D01*
X12782347Y-78948961D02*
X12687109Y-78996580D01*
X12496633Y-78996580D01*
X12401395Y-78948961D01*
X12353776Y-78853723D01*
X12353776Y-78806104D01*
X12401395Y-78710866D01*
X12496633Y-78663247D01*
X12639490Y-78663247D01*
X12734728Y-78615628D01*
X12782347Y-78520390D01*
X12782347Y-78472771D01*
X12734728Y-78377533D01*
X12639490Y-78329914D01*
X12496633Y-78329914D01*
X12401395Y-78377533D01*
X12068061Y-78329914D02*
X11687109Y-78329914D01*
X11925204Y-77996580D02*
X11925204Y-78853723D01*
X11877585Y-78948961D01*
X11782347Y-78996580D01*
X11687109Y-78996580D01*
X11353776Y-78996580D02*
X11353776Y-77996580D01*
X10972823Y-77996580D01*
X10877585Y-78044200D01*
X10829966Y-78091819D01*
X10782347Y-78187057D01*
X10782347Y-78329914D01*
X10829966Y-78425152D01*
X10877585Y-78472771D01*
X10972823Y-78520390D01*
X11353776Y-78520390D01*
X10210919Y-78996580D02*
X10306157Y-78948961D01*
X10353776Y-78901342D01*
X10401395Y-78806104D01*
X10401395Y-78520390D01*
X10353776Y-78425152D01*
X10306157Y-78377533D01*
X10210919Y-78329914D01*
X10068061Y-78329914D01*
X9972823Y-78377533D01*
X9925204Y-78425152D01*
X9877585Y-78520390D01*
X9877585Y-78806104D01*
X9925204Y-78901342D01*
X9972823Y-78948961D01*
X10068061Y-78996580D01*
X10210919Y-78996580D01*
X9449014Y-78996580D02*
X9449014Y-78329914D01*
X9449014Y-77996580D02*
X9496633Y-78044200D01*
X9449014Y-78091819D01*
X9401395Y-78044200D01*
X9449014Y-77996580D01*
X9449014Y-78091819D01*
X8972823Y-78329914D02*
X8972823Y-78996580D01*
X8972823Y-78425152D02*
X8925204Y-78377533D01*
X8829966Y-78329914D01*
X8687109Y-78329914D01*
X8591871Y-78377533D01*
X8544252Y-78472771D01*
X8544252Y-78996580D01*
X8210919Y-78329914D02*
X7829966Y-78329914D01*
X8068061Y-77996580D02*
X8068061Y-78853723D01*
X8020442Y-78948961D01*
X7925204Y-78996580D01*
X7829966Y-78996580D01*
X13329966Y-82046580D02*
X12758538Y-82046580D01*
X13044252Y-83046580D02*
X13044252Y-82046580D01*
X12425204Y-83046580D02*
X12425204Y-82046580D01*
X12044252Y-82046580D01*
X11949014Y-82094200D01*
X11901395Y-82141819D01*
X11853776Y-82237057D01*
X11853776Y-82379914D01*
X11901395Y-82475152D01*
X11949014Y-82522771D01*
X12044252Y-82570390D01*
X12425204Y-82570390D01*
X10901395Y-83046580D02*
X11472823Y-83046580D01*
X11187109Y-83046580D02*
X11187109Y-82046580D01*
X11282347Y-82189438D01*
X11377585Y-82284676D01*
X11472823Y-82332295D01*
X10615680Y-82046580D02*
X10282347Y-83046580D01*
X9949014Y-82046580D01*
X9425204Y-82046580D02*
X9329966Y-82046580D01*
X9234728Y-82094200D01*
X9187109Y-82141819D01*
X9139490Y-82237057D01*
X9091871Y-82427533D01*
X9091871Y-82665628D01*
X9139490Y-82856104D01*
X9187109Y-82951342D01*
X9234728Y-82998961D01*
X9329966Y-83046580D01*
X9425204Y-83046580D01*
X9520442Y-82998961D01*
X9568061Y-82951342D01*
X9615680Y-82856104D01*
X9663300Y-82665628D01*
X9663300Y-82427533D01*
X9615680Y-82237057D01*
X9568061Y-82141819D01*
X9520442Y-82094200D01*
X9425204Y-82046580D01*
G04 #@! TO.C,TP18*
X18936500Y-32013306D02*
X18936500Y-32584735D01*
X19936500Y-32299020D02*
X18936500Y-32299020D01*
X19888881Y-33299020D02*
X19936500Y-33203782D01*
X19936500Y-33013306D01*
X19888881Y-32918068D01*
X19793643Y-32870449D01*
X19412691Y-32870449D01*
X19317453Y-32918068D01*
X19269834Y-33013306D01*
X19269834Y-33203782D01*
X19317453Y-33299020D01*
X19412691Y-33346640D01*
X19507929Y-33346640D01*
X19603167Y-32870449D01*
X19888881Y-33727592D02*
X19936500Y-33822830D01*
X19936500Y-34013306D01*
X19888881Y-34108544D01*
X19793643Y-34156163D01*
X19746024Y-34156163D01*
X19650786Y-34108544D01*
X19603167Y-34013306D01*
X19603167Y-33870449D01*
X19555548Y-33775211D01*
X19460310Y-33727592D01*
X19412691Y-33727592D01*
X19317453Y-33775211D01*
X19269834Y-33870449D01*
X19269834Y-34013306D01*
X19317453Y-34108544D01*
X19269834Y-34441878D02*
X19269834Y-34822830D01*
X18936500Y-34584735D02*
X19793643Y-34584735D01*
X19888881Y-34632354D01*
X19936500Y-34727592D01*
X19936500Y-34822830D01*
X19936500Y-35156163D02*
X18936500Y-35156163D01*
X18936500Y-35537116D01*
X18984120Y-35632354D01*
X19031739Y-35679973D01*
X19126977Y-35727592D01*
X19269834Y-35727592D01*
X19365072Y-35679973D01*
X19412691Y-35632354D01*
X19460310Y-35537116D01*
X19460310Y-35156163D01*
X19936500Y-36299020D02*
X19888881Y-36203782D01*
X19841262Y-36156163D01*
X19746024Y-36108544D01*
X19460310Y-36108544D01*
X19365072Y-36156163D01*
X19317453Y-36203782D01*
X19269834Y-36299020D01*
X19269834Y-36441878D01*
X19317453Y-36537116D01*
X19365072Y-36584735D01*
X19460310Y-36632354D01*
X19746024Y-36632354D01*
X19841262Y-36584735D01*
X19888881Y-36537116D01*
X19936500Y-36441878D01*
X19936500Y-36299020D01*
X19936500Y-37060925D02*
X19269834Y-37060925D01*
X18936500Y-37060925D02*
X18984120Y-37013306D01*
X19031739Y-37060925D01*
X18984120Y-37108544D01*
X18936500Y-37060925D01*
X19031739Y-37060925D01*
X19269834Y-37537116D02*
X19936500Y-37537116D01*
X19365072Y-37537116D02*
X19317453Y-37584735D01*
X19269834Y-37679973D01*
X19269834Y-37822830D01*
X19317453Y-37918068D01*
X19412691Y-37965687D01*
X19936500Y-37965687D01*
X19269834Y-38299020D02*
X19269834Y-38679973D01*
X18936500Y-38441878D02*
X19793643Y-38441878D01*
X19888881Y-38489497D01*
X19936500Y-38584735D01*
X19936500Y-38679973D01*
X22986500Y-33608544D02*
X22986500Y-34179973D01*
X23986500Y-33894259D02*
X22986500Y-33894259D01*
X23986500Y-34513306D02*
X22986500Y-34513306D01*
X22986500Y-34894259D01*
X23034120Y-34989497D01*
X23081739Y-35037116D01*
X23176977Y-35084735D01*
X23319834Y-35084735D01*
X23415072Y-35037116D01*
X23462691Y-34989497D01*
X23510310Y-34894259D01*
X23510310Y-34513306D01*
X23986500Y-36037116D02*
X23986500Y-35465687D01*
X23986500Y-35751401D02*
X22986500Y-35751401D01*
X23129358Y-35656163D01*
X23224596Y-35560925D01*
X23272215Y-35465687D01*
X23415072Y-36608544D02*
X23367453Y-36513306D01*
X23319834Y-36465687D01*
X23224596Y-36418068D01*
X23176977Y-36418068D01*
X23081739Y-36465687D01*
X23034120Y-36513306D01*
X22986500Y-36608544D01*
X22986500Y-36799020D01*
X23034120Y-36894259D01*
X23081739Y-36941878D01*
X23176977Y-36989497D01*
X23224596Y-36989497D01*
X23319834Y-36941878D01*
X23367453Y-36894259D01*
X23415072Y-36799020D01*
X23415072Y-36608544D01*
X23462691Y-36513306D01*
X23510310Y-36465687D01*
X23605548Y-36418068D01*
X23796024Y-36418068D01*
X23891262Y-36465687D01*
X23938881Y-36513306D01*
X23986500Y-36608544D01*
X23986500Y-36799020D01*
X23938881Y-36894259D01*
X23891262Y-36941878D01*
X23796024Y-36989497D01*
X23605548Y-36989497D01*
X23510310Y-36941878D01*
X23462691Y-36894259D01*
X23415072Y-36799020D01*
G04 #@! TO.C,U9*
X25562380Y-51114285D02*
X24562380Y-51114285D01*
X24562380Y-51352380D01*
X24610000Y-51495238D01*
X24705238Y-51590476D01*
X24800476Y-51638095D01*
X24990952Y-51685714D01*
X25133809Y-51685714D01*
X25324285Y-51638095D01*
X25419523Y-51590476D01*
X25514761Y-51495238D01*
X25562380Y-51352380D01*
X25562380Y-51114285D01*
X25562380Y-52114285D02*
X24562380Y-52114285D01*
X25562380Y-52685714D01*
X24562380Y-52685714D01*
X25562380Y-53161904D02*
X24562380Y-53161904D01*
X24562380Y-53542857D01*
X24610000Y-53638095D01*
X24657619Y-53685714D01*
X24752857Y-53733333D01*
X24895714Y-53733333D01*
X24990952Y-53685714D01*
X25038571Y-53638095D01*
X25086190Y-53542857D01*
X25086190Y-53161904D01*
X25181428Y-54923809D02*
X25181428Y-55685714D01*
X25276666Y-56876190D02*
X25276666Y-57352380D01*
X25562380Y-56780952D02*
X24562380Y-57114285D01*
X25562380Y-57447619D01*
X24562380Y-57638095D02*
X24562380Y-58209523D01*
X25562380Y-57923809D02*
X24562380Y-57923809D01*
X24657619Y-58495238D02*
X24610000Y-58542857D01*
X24562380Y-58638095D01*
X24562380Y-58876190D01*
X24610000Y-58971428D01*
X24657619Y-59019047D01*
X24752857Y-59066666D01*
X24848095Y-59066666D01*
X24990952Y-59019047D01*
X25562380Y-58447619D01*
X25562380Y-59066666D01*
X24562380Y-59971428D02*
X24562380Y-59495238D01*
X25038571Y-59447619D01*
X24990952Y-59495238D01*
X24943333Y-59590476D01*
X24943333Y-59828571D01*
X24990952Y-59923809D01*
X25038571Y-59971428D01*
X25133809Y-60019047D01*
X25371904Y-60019047D01*
X25467142Y-59971428D01*
X25514761Y-59923809D01*
X25562380Y-59828571D01*
X25562380Y-59590476D01*
X25514761Y-59495238D01*
X25467142Y-59447619D01*
X25514761Y-60399999D02*
X25562380Y-60542857D01*
X25562380Y-60780952D01*
X25514761Y-60876190D01*
X25467142Y-60923809D01*
X25371904Y-60971428D01*
X25276666Y-60971428D01*
X25181428Y-60923809D01*
X25133809Y-60876190D01*
X25086190Y-60780952D01*
X25038571Y-60590476D01*
X24990952Y-60495238D01*
X24943333Y-60447619D01*
X24848095Y-60399999D01*
X24752857Y-60399999D01*
X24657619Y-60447619D01*
X24610000Y-60495238D01*
X24562380Y-60590476D01*
X24562380Y-60828571D01*
X24610000Y-60971428D01*
X25038571Y-61733333D02*
X25038571Y-61399999D01*
X25562380Y-61399999D02*
X24562380Y-61399999D01*
X24562380Y-61876190D01*
X25562380Y-62161904D02*
X24895714Y-62685714D01*
X24895714Y-62161904D02*
X25562380Y-62685714D01*
X25562380Y-62971428D02*
X24895714Y-63495238D01*
X24895714Y-62971428D02*
X25562380Y-63495238D01*
X25562380Y-65161904D02*
X25562380Y-64590476D01*
X25562380Y-64876190D02*
X24562380Y-64876190D01*
X24705238Y-64780952D01*
X24800476Y-64685714D01*
X24848095Y-64590476D01*
X24562380Y-66019047D02*
X24562380Y-65828571D01*
X24610000Y-65733333D01*
X24657619Y-65685714D01*
X24800476Y-65590476D01*
X24990952Y-65542857D01*
X25371904Y-65542857D01*
X25467142Y-65590476D01*
X25514761Y-65638095D01*
X25562380Y-65733333D01*
X25562380Y-65923809D01*
X25514761Y-66019047D01*
X25467142Y-66066666D01*
X25371904Y-66114285D01*
X25133809Y-66114285D01*
X25038571Y-66066666D01*
X24990952Y-66019047D01*
X24943333Y-65923809D01*
X24943333Y-65733333D01*
X24990952Y-65638095D01*
X25038571Y-65590476D01*
X25133809Y-65542857D01*
X25562380Y-66542857D02*
X24895714Y-66542857D01*
X24990952Y-66542857D02*
X24943333Y-66590476D01*
X24895714Y-66685714D01*
X24895714Y-66828571D01*
X24943333Y-66923809D01*
X25038571Y-66971428D01*
X25562380Y-66971428D01*
X25038571Y-66971428D02*
X24943333Y-67019047D01*
X24895714Y-67114285D01*
X24895714Y-67257142D01*
X24943333Y-67352380D01*
X25038571Y-67399999D01*
X25562380Y-67399999D01*
X25562380Y-67876190D02*
X24562380Y-67876190D01*
X24943333Y-67876190D02*
X24895714Y-67971428D01*
X24895714Y-68161904D01*
X24943333Y-68257142D01*
X24990952Y-68304761D01*
X25086190Y-68352380D01*
X25371904Y-68352380D01*
X25467142Y-68304761D01*
X25514761Y-68257142D01*
X25562380Y-68161904D01*
X25562380Y-67971428D01*
X25514761Y-67876190D01*
X25562380Y-69685714D02*
X25514761Y-69590476D01*
X25467142Y-69542857D01*
X25371904Y-69495238D01*
X25086190Y-69495238D01*
X24990952Y-69542857D01*
X24943333Y-69590476D01*
X24895714Y-69685714D01*
X24895714Y-69828571D01*
X24943333Y-69923809D01*
X24990952Y-69971428D01*
X25086190Y-70019047D01*
X25371904Y-70019047D01*
X25467142Y-69971428D01*
X25514761Y-69923809D01*
X25562380Y-69828571D01*
X25562380Y-69685714D01*
X25562380Y-70447619D02*
X24895714Y-70447619D01*
X25086190Y-70447619D02*
X24990952Y-70495238D01*
X24943333Y-70542857D01*
X24895714Y-70638095D01*
X24895714Y-70733333D01*
X24895714Y-72257142D02*
X25705238Y-72257142D01*
X25800476Y-72209523D01*
X25848095Y-72161904D01*
X25895714Y-72066666D01*
X25895714Y-71923809D01*
X25848095Y-71828571D01*
X25514761Y-72257142D02*
X25562380Y-72161904D01*
X25562380Y-71971428D01*
X25514761Y-71876190D01*
X25467142Y-71828571D01*
X25371904Y-71780952D01*
X25086190Y-71780952D01*
X24990952Y-71828571D01*
X24943333Y-71876190D01*
X24895714Y-71971428D01*
X24895714Y-72161904D01*
X24943333Y-72257142D01*
X25562380Y-72733333D02*
X24895714Y-72733333D01*
X25086190Y-72733333D02*
X24990952Y-72780952D01*
X24943333Y-72828571D01*
X24895714Y-72923809D01*
X24895714Y-73019047D01*
X25514761Y-73733333D02*
X25562380Y-73638095D01*
X25562380Y-73447619D01*
X25514761Y-73352380D01*
X25419523Y-73304761D01*
X25038571Y-73304761D01*
X24943333Y-73352380D01*
X24895714Y-73447619D01*
X24895714Y-73638095D01*
X24943333Y-73733333D01*
X25038571Y-73780952D01*
X25133809Y-73780952D01*
X25229047Y-73304761D01*
X25562380Y-74638095D02*
X25038571Y-74638095D01*
X24943333Y-74590476D01*
X24895714Y-74495238D01*
X24895714Y-74304761D01*
X24943333Y-74209523D01*
X25514761Y-74638095D02*
X25562380Y-74542857D01*
X25562380Y-74304761D01*
X25514761Y-74209523D01*
X25419523Y-74161904D01*
X25324285Y-74161904D01*
X25229047Y-74209523D01*
X25181428Y-74304761D01*
X25181428Y-74542857D01*
X25133809Y-74638095D01*
X24895714Y-74971428D02*
X24895714Y-75352380D01*
X24562380Y-75114285D02*
X25419523Y-75114285D01*
X25514761Y-75161904D01*
X25562380Y-75257142D01*
X25562380Y-75352380D01*
X25514761Y-76066666D02*
X25562380Y-75971428D01*
X25562380Y-75780952D01*
X25514761Y-75685714D01*
X25419523Y-75638095D01*
X25038571Y-75638095D01*
X24943333Y-75685714D01*
X24895714Y-75780952D01*
X24895714Y-75971428D01*
X24943333Y-76066666D01*
X25038571Y-76114285D01*
X25133809Y-76114285D01*
X25229047Y-75638095D01*
X25562380Y-76542857D02*
X24895714Y-76542857D01*
X25086190Y-76542857D02*
X24990952Y-76590476D01*
X24943333Y-76638095D01*
X24895714Y-76733333D01*
X24895714Y-76828571D01*
X21002380Y-63138095D02*
X21811904Y-63138095D01*
X21907142Y-63185714D01*
X21954761Y-63233333D01*
X22002380Y-63328571D01*
X22002380Y-63519047D01*
X21954761Y-63614285D01*
X21907142Y-63661904D01*
X21811904Y-63709523D01*
X21002380Y-63709523D01*
X22002380Y-64233333D02*
X22002380Y-64423809D01*
X21954761Y-64519047D01*
X21907142Y-64566666D01*
X21764285Y-64661904D01*
X21573809Y-64709523D01*
X21192857Y-64709523D01*
X21097619Y-64661904D01*
X21050000Y-64614285D01*
X21002380Y-64519047D01*
X21002380Y-64328571D01*
X21050000Y-64233333D01*
X21097619Y-64185714D01*
X21192857Y-64138095D01*
X21430952Y-64138095D01*
X21526190Y-64185714D01*
X21573809Y-64233333D01*
X21621428Y-64328571D01*
X21621428Y-64519047D01*
X21573809Y-64614285D01*
X21526190Y-64661904D01*
X21430952Y-64709523D01*
G04 #@! TO.C,SW1*
X9789661Y-77548906D02*
X9837280Y-77691763D01*
X9837280Y-77929859D01*
X9789661Y-78025097D01*
X9742042Y-78072716D01*
X9646804Y-78120335D01*
X9551566Y-78120335D01*
X9456328Y-78072716D01*
X9408709Y-78025097D01*
X9361090Y-77929859D01*
X9313471Y-77739382D01*
X9265852Y-77644144D01*
X9218233Y-77596525D01*
X9122995Y-77548906D01*
X9027757Y-77548906D01*
X8932519Y-77596525D01*
X8884900Y-77644144D01*
X8837280Y-77739382D01*
X8837280Y-77977478D01*
X8884900Y-78120335D01*
X8837280Y-78453668D02*
X9837280Y-78691763D01*
X9122995Y-78882240D01*
X9837280Y-79072716D01*
X8837280Y-79310811D01*
X9837280Y-80215573D02*
X9837280Y-79644144D01*
X9837280Y-79929859D02*
X8837280Y-79929859D01*
X8980138Y-79834620D01*
X9075376Y-79739382D01*
X9122995Y-79644144D01*
G04 #@! TO.C,S3*
X36372704Y-53148161D02*
X36229847Y-53195780D01*
X35991752Y-53195780D01*
X35896514Y-53148161D01*
X35848895Y-53100542D01*
X35801276Y-53005304D01*
X35801276Y-52910066D01*
X35848895Y-52814828D01*
X35896514Y-52767209D01*
X35991752Y-52719590D01*
X36182228Y-52671971D01*
X36277466Y-52624352D01*
X36325085Y-52576733D01*
X36372704Y-52481495D01*
X36372704Y-52386257D01*
X36325085Y-52291019D01*
X36277466Y-52243400D01*
X36182228Y-52195780D01*
X35944133Y-52195780D01*
X35801276Y-52243400D01*
X35467942Y-52195780D02*
X34848895Y-52195780D01*
X35182228Y-52576733D01*
X35039371Y-52576733D01*
X34944133Y-52624352D01*
X34896514Y-52671971D01*
X34848895Y-52767209D01*
X34848895Y-53005304D01*
X34896514Y-53100542D01*
X34944133Y-53148161D01*
X35039371Y-53195780D01*
X35325085Y-53195780D01*
X35420323Y-53148161D01*
X35467942Y-53100542D01*
G04 #@! TO.C,S2*
X8632781Y-48238095D02*
X8680400Y-48380952D01*
X8680400Y-48619047D01*
X8632781Y-48714285D01*
X8585162Y-48761904D01*
X8489924Y-48809523D01*
X8394686Y-48809523D01*
X8299448Y-48761904D01*
X8251829Y-48714285D01*
X8204210Y-48619047D01*
X8156591Y-48428571D01*
X8108972Y-48333333D01*
X8061353Y-48285714D01*
X7966115Y-48238095D01*
X7870877Y-48238095D01*
X7775639Y-48285714D01*
X7728020Y-48333333D01*
X7680400Y-48428571D01*
X7680400Y-48666666D01*
X7728020Y-48809523D01*
X7775639Y-49190476D02*
X7728020Y-49238095D01*
X7680400Y-49333333D01*
X7680400Y-49571428D01*
X7728020Y-49666666D01*
X7775639Y-49714285D01*
X7870877Y-49761904D01*
X7966115Y-49761904D01*
X8108972Y-49714285D01*
X8680400Y-49142857D01*
X8680400Y-49761904D01*
G04 #@! TO.C,S1*
X8627701Y-17978215D02*
X8675320Y-18121072D01*
X8675320Y-18359167D01*
X8627701Y-18454405D01*
X8580082Y-18502024D01*
X8484844Y-18549643D01*
X8389606Y-18549643D01*
X8294368Y-18502024D01*
X8246749Y-18454405D01*
X8199130Y-18359167D01*
X8151511Y-18168691D01*
X8103892Y-18073453D01*
X8056273Y-18025834D01*
X7961035Y-17978215D01*
X7865797Y-17978215D01*
X7770559Y-18025834D01*
X7722940Y-18073453D01*
X7675320Y-18168691D01*
X7675320Y-18406786D01*
X7722940Y-18549643D01*
X8675320Y-19502024D02*
X8675320Y-18930596D01*
X8675320Y-19216310D02*
X7675320Y-19216310D01*
X7818178Y-19121072D01*
X7913416Y-19025834D01*
X7961035Y-18930596D01*
G04 #@! TD*
M02*
