<?xml version="1.0" encoding="utf-8"?>
<!-- Generator: Adobe Illustrator 24.1.2, SVG Export Plug-In . SVG Version: 6.00 Build 0)  -->
<svg version="1.1" xmlns="http://www.w3.org/2000/svg" xmlns:xlink="http://www.w3.org/1999/xlink" x="0px" y="0px"
	 viewBox="0 0 1296 864" style="enable-background:new 0 0 1296 864;" xml:space="preserve">
<style type="text/css">
	.st0{fill:none;stroke:#0000FF;stroke-width:0.24;}
</style>
<g id="Layer_1">
	<path class="st0" d="M323.4,138.1c0.4-3.5-3.6-7.4-7.1-7.1H246c-3.5-0.4-7.4,3.6-7.1,7.1v24.1h28.9V141c-0.1-1.4,1.4-3,2.8-2.8h21
		c1.4-0.1,3,1.4,2.8,2.8v21.3h28.9V138.1z"/>
	<path class="st0" d="M364.1,229.2c2.2-0.2,4.7,2.3,4.5,4.5c0.2,2.2-2.3,4.7-4.5,4.5c-2.2,0.2-4.7-2.3-4.5-4.5
		C359.4,231.5,361.9,229,364.1,229.2z"/>
	<path class="st0" d="M210.1,713.3c-2.2,0.2-4.7-2.3-4.5-4.5c-0.2-2.2,2.3-4.7,4.5-4.5c2.2-0.2,4.7,2.3,4.5,4.5
		C214.8,711,212.3,713.5,210.1,713.3z"/>
	<path class="st0" d="M413,660.8c-2.3,0.2-5-2.4-4.7-4.7c-0.2-2.3,2.4-5,4.7-4.7c2.3-0.2,5,2.4,4.7,4.7
		C418,658.4,415.3,661,413,660.8z"/>
	<path class="st0" d="M457.2,305.3c-2,0.2-4.2-2-4-4c-0.2-2,2-4.2,4-4c2-0.2,4.2,2,4,4C461.4,303.3,459.2,305.5,457.2,305.3z"/>
	<path class="st0" d="M302.5,501.7c5.6-0.6,11.9,5.8,11.3,11.3v90.7c0.6,5.6-5.8,11.9-11.3,11.3H126.7c-5.6,0.6-11.9-5.8-11.3-11.3
		v-90.7c-0.6-5.6,5.8-11.9,11.3-11.3H302.5z"/>
	<path class="st0" d="M87.4,154.8c-2,0.2-4.2-2-4-4c-0.2-2,2-4.2,4-4c2-0.2,4.2,2,4,4C91.6,152.8,89.4,155,87.4,154.8z"/>
	<path class="st0" d="M396.7,277.3c-2.2,0.2-4.7-2.3-4.5-4.5c-0.2-2.2,2.3-4.7,4.5-4.5c2.2-0.2,4.7,2.3,4.5,4.5
		C401.4,275,398.9,277.5,396.7,277.3z"/>
	<path class="st0" d="M404.4,693.6c0.3-2.8-2.9-6-5.7-5.7h-25.4c-5.3-0.1-11.7,2.3-16,6.6c-4.4,4.4-6.8,10.7-6.6,16v5.7
		c0.1,3.3-1.4,7.3-4.2,10c-2.7,2.7-6.7,4.2-10,4.2h-92.3c-3.3,0.1-7.3-1.4-10-4.2c-2.7-2.7-4.2-6.7-4.2-10V712
		c0.1-5.3-2.3-11.7-6.6-16c-4.4-4.4-10.7-6.8-16-6.6h-45.4c-5.3-0.1-11.7,2.3-16,6.6c-4.4,4.4-6.8,10.7-6.6,16v51h31.2v-15.6h8.5
		v-7.4H176v-5h2.9v-7.7c0-0.4,0.4-0.9,0.9-0.9h6.2c0.4,0,0.9,0.4,0.9,0.9v7.7h2.9v5h-2.9v7.4h8.5V763h155.3v-15.6h10.1v-7.4h-2.9v-5
		h2.9v-7.7c0-0.4,0.4-0.9,0.9-0.9h6.2c0.4,0,0.9,0.4,0.9,0.9v7.7h2.9v5h-2.9v7.4h8.5V763h17v-15.6h10.2V693.6z"/>
	<path class="st0" d="M457.2,742.3c-2,0.2-4.2-2-4-4c-0.2-2,2-4.2,4-4c2-0.2,4.2,2,4,4C461.4,740.3,459.2,742.5,457.2,742.3z"/>
	<path class="st0" d="M396.7,140c-2.2,0.2-4.7-2.3-4.5-4.5c-0.2-2.2,2.3-4.7,4.5-4.5c2.2-0.2,4.7,2.3,4.5,4.5
		C401.4,137.7,398.9,140.2,396.7,140z"/>
	<path class="st0" d="M244.3,455.2c-2.2,0.2-4.7-2.3-4.5-4.5c-0.2-2.2,2.3-4.7,4.5-4.5c2.2-0.2,4.7,2.3,4.5,4.5
		C249,452.9,246.5,455.4,244.3,455.2z"/>
	<path class="st0" d="M147,268.3c2.2-0.2,4.7,2.3,4.5,4.5c0.2,2.2-2.3,4.7-4.5,4.5c-2.2,0.2-4.7-2.3-4.5-4.5
		C142.3,270.6,144.8,268.1,147,268.3z"/>
	<path class="st0" d="M150.1,173.8c4.2,0.4,8.9-4.3,8.5-8.5V124c-0.4-4.2,4.3-8.9,8.5-8.5h209.8c4.2-0.4,8.9,4.3,8.5,8.5v14.2
		c-0.4,4.2,4.3,8.9,8.5,8.5H408c4.2-0.4,8.9,4.3,8.5,8.5v92.1c0.4,4.2-4.3,8.9-8.5,8.5h-5.7c-4-0.1-8.7,1.7-12,5
		c-3.3,3.3-5.1,8.1-5,12c-0.1,4,1.7,8.7,5,12c3.3,3.3,8.1,5.1,12,5h5.7c4.2-0.4,8.9,4.3,8.5,8.5v26.9c0.4,4.2-4.3,8.9-8.5,8.5H169.2
		c-4.2,0.4-8.9-4.3-8.5-8.5v-22.7c-0.1-1.4,1.4-3,2.8-2.8c1.4,0.1,3-1.4,2.8-2.8v-28.3c0.4-4.2-4.3-8.9-8.5-8.5h-22.7
		c-4.2-0.4-8.9,4.3-8.5,8.5v58.3c0.4,4.2-4.3,8.9-8.5,8.5H95.5v13h7.4v-2.8h5v2.8h8.5v8.1h-8.5v2.8h-5v-2.8h-7.4v13h62.4v17h72v-17
		h85v17h83.3v-17h51v-34h15.9v-68h-15.9v-82.2h15.9v-68h-15.9v-34H95.5v34H79.7v56.7H150.1z"/>
	<path class="st0" d="M87.6,526.9c-2,0.2-4.2-2-4-4c-0.2-2,2-4.2,4-4c2-0.2,4.2,2,4,4C91.8,524.9,89.5,527.1,87.6,526.9z"/>
	<path class="st0" d="M300.5,446.2c2.2-0.2,4.7,2.3,4.5,4.5c0.2,2.2-2.3,4.7-4.5,4.5c-2.2,0.2-4.7-2.3-4.5-4.5
		C295.8,448.5,298.3,446,300.5,446.2z"/>
	<path class="st0" d="M314.6,443.6c0.4-3.5-3.6-7.4-7.1-7.1h-70.3c-3.5-0.4-7.4,3.6-7.1,7.1v24.1h-72.6v-15.6H95.5v48.2H79.7v45.4
		h15.9V710H79.7v56.7h15.9v57.4h76.5v-17h85v17h192.2v-60.5h15.9v-50.5h-15.9V542.5h15.9v-39.1h-15.9v-51.3h-50.7v15.6h-83.9V443.6z
		"/>
	<path class="st0" d="M87.6,742.3c-2,0.2-4.2-2-4-4c-0.2-2,2-4.2,4-4c2-0.2,4.2,2,4,4C91.8,740.3,89.5,742.5,87.6,742.3z"/>
	<path class="st0" d="M1135.1,90.9c0.2-2-2.1-4.2-4-4c-2-0.2-4.2,2.1-4,4c-0.2,2,2.1,4.2,4,4C1133,95.1,1135.3,92.9,1135.1,90.9z"/>
	<path class="st0" d="M802.3,816.2c-0.2,2,2,4.2,4,4c2,0.2,4.2-2,4-4c0.2-2-2-4.2-4-4C804.4,812,802.1,814.3,802.3,816.2z"/>
	<path class="st0" d="M800.4,766.7c-0.2,2,2,4.2,4,4c2,0.2,4.2-2,4-4c0.2-2-2-4.2-4-4C802.4,762.5,800.2,764.7,800.4,766.7z"/>
	<path class="st0" d="M893.9,214.1c-0.2,2,2,4.2,4,4c2,0.2,4.2-2,4-4c0.2-2-2-4.2-4-4C895.9,209.9,893.7,212.1,893.9,214.1z"/>
	<path class="st0" d="M800.4,585.7c-0.2,2,2,4.2,4,4c2,0.2,4.2-2,4-4c0.2-2-2-4.2-4-4C802.4,581.5,800.2,583.7,800.4,585.7z"/>
	<path class="st0" d="M512,816.2c-0.2,2,2,4.2,4,4c2,0.2,4.2-2,4-4c0.2-2-2-4.2-4-4C514,812,511.8,814.3,512,816.2z"/>
	<path class="st0" d="M342.8,231.9c-0.1,5.3,2.3,11.7,6.6,16c4.4,4.4,10.7,6.8,16,6.6h25.4c2.8,0.3,6-2.9,5.7-5.7v-53.9h-10.2v-15.6
		h-17v15.6h-8.5v7.4h2.9v5h-2.9v7.7c0,0.4-0.4,0.9-0.9,0.9h-6.2c-0.4,0-0.9-0.4-0.9-0.9v-7.7H350v-5h2.9v-7.4h-10.1v-15.6H187.5
		v15.6H179v7.4h2.9v5H179v7.7c0,0.4-0.4,0.9-0.9,0.9H172c-0.4,0-0.9-0.4-0.9-0.9v-7.7h-2.9v-5h2.9v-7.4h-8.5v-15.6h-31.2v51
		c-0.1,5.3,2.3,11.7,6.6,16c4.4,4.4,10.7,6.8,16,6.6h45.4c5.3,0.1,11.7-2.3,16-6.6c4.4-4.4,6.8-10.7,6.6-16v-4.2
		c-0.1-3.3,1.4-7.3,4.2-10c2.7-2.7,6.7-4.2,10-4.2h92.3c3.3-0.1,7.3,1.4,10,4.2s4.2,6.7,4.2,10V231.9z"/>
	<path class="st0" d="M457.2,526.9c-2,0.2-4.2-2-4-4c-0.2-2,2-4.2,4-4c2-0.2,4.2,2,4,4C461.4,524.9,459.2,527.1,457.2,526.9z"/>
	<path class="st0" d="M893.9,395.9c-0.2,2,2,4.2,4,4c2,0.2,4.2-2,4-4c0.2-2-2-4.2-4-4C895.9,391.7,893.7,393.9,893.9,395.9z"/>
	<path class="st0" d="M731.2,514.2c-0.2,2.2,2.2,4.7,4.4,4.4c2.2,0.2,4.7-2.2,4.4-4.4c0.2-2.2-2.2-4.7-4.4-4.4
		C733.4,509.6,730.9,512,731.2,514.2z"/>
	<path class="st0" d="M731.2,604.9c-0.2,2.2,2.2,4.7,4.4,4.4c2.2,0.2,4.7-2.2,4.4-4.4c0.2-2.2-2.2-4.7-4.4-4.4
		C733.4,600.3,730.9,602.7,731.2,604.9z"/>
	<path class="st0" d="M891.9,444.6c-0.2,2,2,4.2,4,4c2,0.2,4.2-2,4-4c0.2-2-2-4.2-4-4C893.9,440.5,891.7,442.7,891.9,444.6z"/>
	<path class="st0" d="M202.3,238.1c-2.2,0.2-4.7-2.3-4.5-4.5c-0.2-2.2,2.3-4.7,4.5-4.5c2.2-0.2,4.7,2.3,4.5,4.5
		C207,235.9,204.5,238.4,202.3,238.1z"/>
	<path class="st0" d="M640.5,604.9c-0.2,2.2,2.2,4.7,4.4,4.4c2.2,0.2,4.7-2.2,4.4-4.4c0.2-2.2-2.2-4.7-4.4-4.4
		C642.7,600.3,640.2,602.7,640.5,604.9z"/>
	<path class="st0" d="M640.5,514.2c-0.2,2.2,2.2,4.7,4.4,4.4c2.2,0.2,4.7-2.2,4.4-4.4c0.2-2.2-2.2-4.7-4.4-4.4
		C642.7,509.6,640.2,512,640.5,514.2z"/>
	<path class="st0" d="M413,485.3c-2.3,0.2-5-2.4-4.7-4.7c-0.2-2.3,2.4-5,4.7-4.7c2.3-0.2,5,2.4,4.7,4.7
		C418,482.9,415.3,485.6,413,485.3z"/>
	<path class="st0" d="M147,140c-2.2,0.2-4.7-2.3-4.5-4.5c-0.2-2.2,2.3-4.7,4.5-4.5c2.2-0.2,4.7,2.3,4.5,4.5
		C151.7,137.7,149.2,140.2,147,140z"/>
	<path class="st0" d="M1182.3,444.6c-0.2,2,2,4.2,4,4c2,0.2,4.2-2,4-4c0.2-2-2-4.2-4-4C1184.3,440.5,1182.1,442.7,1182.3,444.6z"/>
	<path class="st0" d="M636.4,559.6c-0.3,12.6,5.4,27.7,15.8,38.1c10.4,10.4,25.5,16.1,38.1,15.8c12.6,0.3,27.7-5.4,38.1-15.8
		c10.4-10.4,16.1-25.5,15.8-38.1c0.3-12.6-5.4-27.7-15.8-38.1c-10.4-10.4-25.5-16.1-38.1-15.8c-12.6-0.3-27.7,5.4-38.1,15.8
		C641.7,531.9,636,547,636.4,559.6z"/>
	<path class="st0" d="M576.5,613.4h36.7c5.6,0.6,11.9-5.8,11.3-11.3v-85c0.6-5.6-5.8-11.9-11.3-11.3h-21.7c-5-0.4-10.7,4.4-11.2,9.4
		l-15,85l-0.2,2C564.6,607.7,570.9,614,576.5,613.4z"/>
	<path class="st0" d="M397.1,665.4c5.6-0.6,11.9,5.8,11.3,11.3v96.4c0.6,5.6-5.8,11.9-11.3,11.3H147.7c-5.6,0.6-11.9-5.8-11.3-11.3
		v-96.4c-0.6-5.6,5.8-11.9,11.3-11.3H397.1z"/>
	<path class="st0" d="M371.9,704.4c2.2-0.2,4.7,2.3,4.5,4.5c0.2,2.2-2.3,4.7-4.5,4.5c-2.2,0.2-4.7-2.3-4.5-4.5
		C367.2,706.7,369.7,704.2,371.9,704.4z"/>
	<path class="st0" d="M131.8,485.3c-2.3,0.2-5-2.4-4.7-4.7c-0.2-2.3,2.4-5,4.7-4.7c2.3-0.2,5,2.4,4.7,4.7
		C136.8,482.9,134.1,485.6,131.8,485.3z"/>
	<path class="st0" d="M457.2,155.1c-2,0.2-4.2-2-4-4c-0.2-2,2-4.2,4-4c2-0.2,4.2,2,4,4C461.4,153.1,459.2,155.3,457.2,155.1z"/>
	<path class="st0" d="M131.8,660.8c-2.3,0.2-5-2.4-4.7-4.7c-0.2-2.3,2.4-5,4.7-4.7c2.3-0.2,5,2.4,4.7,4.7
		C136.8,658.4,134.1,661,131.8,660.8z"/>
	<path class="st0" d="M1130.2,267.4c3.2,0.1,6.7-1.6,8.7-4.1c2.1-2.4,3.1-6.1,2.5-9.3L1114,99h0.3V83.1h50.7l8.3,47.2l-15.6,2.8
		l3.3,18.7l-7,1.2l-0.5-2.9l-4.9,0.9l0.5,2.9l-8.4,1.5l1.4,7.8l8.4-1.5l0.5,2.9l4.9-0.9l-0.5-2.9l7-1.2l3.3,18.7l15.6-2.8
		l28.5,161.4l-15.6,2.8l4.3,24.3l-7,1.2l-0.5-2.9l-4.9,0.9l0.5,2.9l-8.4,1.5l1.4,7.8l8.4-1.5l0.5,2.9l4.9-0.9l-0.5-2.9l7-1.2
		l4.3,24.3l15.6-2.8l10.5,59.3h-68v-15.9h-68v15.9h-96.4v-15.9h-68v15.9h-68V83.1h33.7V99h30v7.1h-2.9v5h2.9v8.5h7.9V111h2.9v-5
		h-2.9V99h19v157c-0.6,5.6,5.8,11.9,11.3,11.3H1130.2z"/>
	<path class="st0" d="M812.4,779.6h-16.2v17.6h16.2V779.6z"/>
	<path class="st0" d="M812.4,541.7h-16.2v31.7h16.2V541.7z"/>
	<path class="st0" d="M765.9,477.6v5h2.9v3.5h7.9v-3.5h2.9v-5h-2.9v-7.1h30v-15.9h33.7v369.5h-56.7v-15.9h-68v15.9h-96.4v-15.9h-68
		v15.9H472l11-62.4l15.6,2.8l3.7-21.2l7,1.2l-0.5,2.9l4.9,0.9l0.5-2.9l8.4,1.5l1.4-7.8l-8.4-1.5l0.5-2.9l-4.9-0.9l-0.5,2.9l-7-1.2
		l3.7-21.2l-15.6-2.8L521.4,544l15.6,2.8l2.8-15.6l7,1.2l-0.5,2.9l4.9,0.9l0.5-2.9l8.4,1.5l1.4-7.8l-8.4-1.5l0.5-2.9l-4.9-0.9
		l-0.5,2.9l-7-1.2l2.8-15.6l-15.6-2.8l8.9-50.2h50.7v15.9h30v7.1H615v5h2.9v3.5h7.9v-3.5h2.9v-5h-2.9v-7.1h30.6v-15.9h81.6v15.9
		h30.6v7.1H765.9z"/>
	<path class="st0" d="M812.4,597.8h-16.2v155.8h16.2V597.8z"/>
	<path class="st0" d="M889.8,201.9H906v-31.7h-16.2V201.9z"/>
	<path class="st0" d="M889.8,382.1H906V226.3h-16.2V382.1z"/>
	<path class="st0" d="M889.8,425.6H906v-17.6h-16.2V425.6z"/>
	<path class="st0" d="M493.8,113.3h-7.1V83.1h353.8v30.2h-7.1v-2.9h-5v2.9h-8.5v7.9h8.5v2.9h5v-2.9h7.1v18.9h15.9v67.4h-15.9v96.9
		h15.9v67.4h-15.9v31.8h-7.1v-2.9h-5v2.9h-8.5v7.9h8.5v2.9h5v-2.9h7.1V432H648v17h-84.5v-17h-76.8v-20.4h7.1v2.9h5v-2.9h8.5v-7.9
		h-8.5v-2.9h-5v2.9h-7.1v-20.4h-15.9v-67.4h15.9v-96.9h-15.9v-67.4h15.9v-30.2h7.1v2.9h5v-2.9h8.5v-7.9h-8.5v-2.9h-5V113.3z"/>
	<path class="st0" d="M309.3,141.2c2-0.2,4.2,2,4,4c0.2,2-2,4.2-4,4c-2,0.2-4.2-2-4-4C305.1,143.3,307.3,141.1,309.3,141.2z"/>
	<path class="st0" d="M253.1,149.2c-2,0.2-4.2-2-4-4c-0.2-2,2-4.2,4-4c2-0.2,4.2,2,4,4C257.3,147.2,255.1,149.4,253.1,149.2z"/>
</g>
<g id="Layer_2">
	<path d="M620.9,108.7h-1.4v-9.8h-3.4v-1.2h8.3v1.2h-3.4V108.7z"/>
	<path d="M648.9,105.7c0,1-0.3,1.7-1,2.3c-0.7,0.6-1.7,0.8-2.9,0.8c-1.3,0-2.3-0.2-3-0.5V107l1.5,0.5l1.6,0.2c0.8,0,1.4-0.2,1.9-0.5
		c0.4-0.3,0.6-0.8,0.6-1.3c0-0.4-0.1-0.7-0.2-0.9l-0.8-0.7l-1.6-0.7c-1-0.4-1.8-0.8-2.2-1.3c-0.4-0.5-0.7-1.2-0.7-2
		c0-0.9,0.3-1.5,1-2.1c0.6-0.5,1.5-0.8,2.6-0.8c1.1,0,2.1,0.2,3,0.6l-0.4,1.2c-0.9-0.4-1.8-0.6-2.6-0.6c-0.7,0-1.2,0.1-1.5,0.4
		c-0.4,0.3-0.6,0.7-0.6,1.2c0,0.4,0.1,0.7,0.2,0.9l0.7,0.7l1.5,0.7c0.8,0.3,1.4,0.6,1.8,0.9c0.4,0.3,0.7,0.6,0.9,1
		C648.8,104.8,648.9,105.2,648.9,105.7z"/>
	<path d="M634.4,108.7H633v-5.1h-5.7v5.1H626v-11h1.4v4.7h5.7v-4.7h1.4V108.7z"/>
	<path d="M661.4,105.7c0,1-0.3,1.7-1,2.3c-0.7,0.6-1.7,0.8-2.9,0.8c-1.3,0-2.3-0.2-3-0.5V107l1.5,0.5l1.6,0.2c0.8,0,1.4-0.2,1.9-0.5
		c0.4-0.3,0.6-0.8,0.6-1.3c0-0.4-0.1-0.7-0.2-0.9l-0.8-0.7l-1.6-0.7c-1-0.4-1.8-0.8-2.2-1.3c-0.4-0.5-0.7-1.2-0.7-2
		c0-0.9,0.3-1.5,1-2.1c0.6-0.5,1.5-0.8,2.6-0.8c1.1,0,2.1,0.2,3,0.6l-0.4,1.2c-0.9-0.4-1.8-0.6-2.6-0.6c-0.7,0-1.2,0.1-1.5,0.4
		c-0.4,0.3-0.6,0.7-0.6,1.2c0,0.4,0.1,0.7,0.2,0.9l0.7,0.7l1.5,0.7c0.8,0.3,1.4,0.6,1.8,0.9c0.4,0.3,0.7,0.6,0.9,1
		C661.3,104.8,661.4,105.2,661.4,105.7z"/>
	<path d="M640.5,108.7h-4v-0.8l1.3-0.3v-8.8l-1.3-0.3v-0.8h4v0.8l-1.3,0.3v8.8l1.3,0.3V108.7z"/>
	<path d="M711.1,100.9c0,1.1-0.4,2-1.2,2.6c-0.8,0.6-1.9,0.9-3.3,0.9h-1.3v4.3h-1.4v-11h2.9C709.7,97.6,711.1,98.7,711.1,100.9z
		 M706.6,103.2c1.1,0,1.9-0.2,2.4-0.5c0.5-0.4,0.7-0.9,0.7-1.7c0-0.7-0.2-1.2-0.7-1.6c-0.5-0.4-1.2-0.5-2.1-0.5h-1.4v4.4H706.6z"/>
	<path d="M701.2,104.8c0,1.3-0.4,2.2-1.1,3s-1.8,1.1-3.2,1.1c-1.3,0-2.4-0.4-3.1-1.1c-0.7-0.7-1.1-1.7-1.1-3v-7.1h1.4v7.2
		c0,0.9,0.2,1.6,0.7,2.1c0.5,0.5,1.2,0.7,2.2,0.7c0.9,0,1.6-0.2,2.1-0.7c0.5-0.5,0.7-1.2,0.7-2.1v-7.1h1.4V104.8z"/>
	<path d="M686.3,108.7h-6.2v-11h6.2v1.2h-4.8v3.4h4.5v1.2h-4.5v3.9h4.8V108.7z"/>
	<path d="M677.7,103c0,1.8-0.5,3.2-1.5,4.2c-1,1-2.4,1.4-4.3,1.4h-3.1v-11h3.4c1.7,0,3.1,0.5,4,1.4C677.2,100,677.7,101.3,677.7,103
		z M676.3,103.1c0-1.4-0.3-2.5-1-3.2c-0.7-0.7-1.7-1.1-3.1-1.1h-1.8v8.7h1.5C674.8,107.5,676.3,106,676.3,103.1z"/>
	<path d="M666.8,108.7h-4v-0.8l1.3-0.3v-8.8l-1.3-0.3v-0.8h4v0.8l-1.3,0.3v8.8l1.3,0.3V108.7z"/>
	<path d="M666.6,411.2h-1.4v-9.8h-3.4v-1.2h8.3v1.2h-3.4V411.2z"/>
	<path d="M815,257.9c0-1.4,0.3-2.4,0.8-3.1c0.5-0.7,1.3-1,2.4-1c1.5,0,2.5,0.8,3,2.3l5.1-3.1v1.7l-4.7,2.7v2.3h4.7v1.4H815V257.9z
		 M820.4,257.9c0-0.9-0.2-1.6-0.5-2c-0.4-0.4-0.9-0.6-1.6-0.6s-1.2,0.2-1.6,0.6c-0.3,0.4-0.5,1.1-0.5,2.1v1.6h4.2V257.9z"/>
	<path d="M681.3,405.7c0,1.8-0.4,3.1-1.3,4.2c-0.9,1-2.1,1.5-3.7,1.5c-1.6,0-2.9-0.5-3.8-1.5c-0.9-1-1.3-2.4-1.3-4.2
		c0-1.8,0.4-3.2,1.3-4.2c0.9-1,2.1-1.5,3.8-1.5c1.6,0,2.8,0.5,3.7,1.5C680.9,402.5,681.3,403.9,681.3,405.7z M672.6,405.7
		c0,1.5,0.3,2.6,0.9,3.3c0.6,0.8,1.5,1.1,2.7,1.1c1.2,0,2.1-0.4,2.7-1.1c0.6-0.8,0.9-1.9,0.9-3.3c0-1.5-0.3-2.6-0.9-3.3
		c-0.6-0.7-1.5-1.1-2.7-1.1c-1.2,0-2.1,0.4-2.7,1.1S672.6,404.2,672.6,405.7z"/>
	<path d="M684.9,401.6l0.1,3v6.7h-1.3v-11h2l3.4,9h0.1l3.5-9h2v11h-1.4v-6.8l0.1-2.9h-0.1l-3.7,9.6h-1.1L684.9,401.6L684.9,401.6z"
		/>
	<path d="M500.9,263.3h11.3v1.4h-10.1v5h-1.3V263.3z"/>
	<path d="M658,411.2h-1.4v-9.8h-3.4v-1.2h8.3v1.2H658V411.2z"/>
	<path d="M652.1,405.7c0,1.8-0.4,3.1-1.3,4.2c-0.9,1-2.1,1.5-3.7,1.5c-1.6,0-2.9-0.5-3.8-1.5c-0.9-1-1.3-2.4-1.3-4.2
		c0-1.8,0.4-3.2,1.3-4.2c0.9-1,2.1-1.5,3.8-1.5c1.6,0,2.8,0.5,3.7,1.5C651.6,402.5,652.1,403.9,652.1,405.7z M643.4,405.7
		c0,1.5,0.3,2.6,0.9,3.3c0.6,0.8,1.5,1.1,2.7,1.1c1.2,0,2.1-0.4,2.7-1.1c0.6-0.8,0.9-1.9,0.9-3.3c0-1.5-0.3-2.6-0.9-3.3
		c-0.6-0.7-1.5-1.1-2.7-1.1c-1.2,0-2.1,0.4-2.7,1.1S643.4,404.2,643.4,405.7z"/>
	<path d="M635.6,400.2c1.5,0,2.5,0.2,3.2,0.7c0.7,0.4,1,1.1,1,2.1c0,0.7-0.2,1.2-0.5,1.6c-0.4,0.4-0.9,0.7-1.6,0.8v0.1
		c0.8,0.1,1.5,0.4,1.9,0.9c0.4,0.4,0.6,1,0.6,1.8c0,1-0.3,1.8-1,2.3c-0.7,0.6-1.6,0.8-2.8,0.8h-3.9v-11H635.6z M636.1,410
		c0.9,0,1.5-0.2,2-0.5c0.4-0.3,0.6-0.9,0.6-1.6c0-0.7-0.2-1.1-0.7-1.5c-0.5-0.3-1.1-0.5-2-0.5h-2.1v4H636.1z M635.9,404.9
		c0.9,0,1.5-0.1,1.9-0.4c0.4-0.3,0.6-0.7,0.6-1.4c0-0.6-0.2-1-0.6-1.3c-0.4-0.3-1.1-0.4-2-0.4h-1.8v3.5H635.9z"/>
	<path d="M1042,437v-11.3h1.4v10.1h5v1.3H1042z"/>
	<path d="M1031.3,393.9v-11.3h1.4v10.1h5v1.3H1031.3z"/>
	<path d="M1060.3,393.9h-1.4v-10.1h-3.5v-1.3h8.5v1.3h-3.5V393.9z"/>
	<path d="M1045.9,393.9h-6.3v-11.3h6.3v1.3h-4.9v3.5h4.6v1.2h-4.6v4h4.9V393.9z"/>
	<path d="M1049.9,393.9h-1.4v-11.3h6.3v1.3h-4.9v4h4.6v1.2h-4.6V393.9z"/>
	<path d="M647.9,754c1.4,0,2.4,0.3,3.1,0.8c0.7,0.5,1,1.3,1,2.4c0,1.5-0.8,2.5-2.3,3l3.1,5.1h-1.7l-2.7-4.7h-2.3v4.7h-1.4V754H647.9
		z M647.9,759.4c0.9,0,1.6-0.2,2-0.5c0.4-0.4,0.6-0.9,0.6-1.6s-0.2-1.2-0.6-1.6c-0.4-0.3-1.1-0.5-2.1-0.5h-1.6v4.2H647.9z"/>
	<path d="M686.9,765.3h-1.4v-10.1h-3.5V754h8.5v1.3h-3.5V765.3z"/>
	<path d="M668.8,764.9l-1.8,0.4l-2.2,0.1c-1.7,0-3.1-0.5-4-1.5c-0.9-1-1.4-2.5-1.4-4.3c0-1.2,0.2-2.2,0.7-3.1s1.1-1.6,2-2
		c0.9-0.5,1.9-0.7,3.1-0.7c1.2,0,2.3,0.2,3.4,0.7l-0.5,1.2c-1-0.4-2-0.7-2.9-0.7c-1.3,0-2.4,0.4-3.2,1.2c-0.8,0.8-1.1,1.9-1.1,3.4
		c0,1.5,0.4,2.6,1.1,3.4s1.8,1.2,3.2,1.2c0.8,0,1.5-0.1,2.2-0.3v-3.4h-2.5v-1.3h3.9V764.9z"/>
	<path d="M657.8,765.3h-4.1v-0.8l1.3-0.3v-9.1l-1.3-0.3V754h4.1v0.8l-1.3,0.3v9.1l1.3,0.3V765.3z"/>
	<path d="M665.6,797.2c1.4,0,2.4,0.3,3.1,0.8c0.7,0.5,1,1.3,1,2.4c0,1.5-0.8,2.5-2.3,3l3.1,5.1H669l-2.7-4.7H664v4.7h-1.4v-11.3
		H665.6z M665.6,802.7c0.9,0,1.6-0.2,2-0.5c0.4-0.4,0.6-0.9,0.6-1.6s-0.2-1.2-0.6-1.6c-0.4-0.3-1.1-0.5-2.1-0.5H664v4.2H665.6z"/>
	<path d="M680.2,765.3h-1.4V760H673v5.3h-1.4V754h1.4v4.8h5.8V754h1.4V765.3z"/>
	<path d="M383.3,790.3c1.4,0,2.4,0.3,3.1,0.8c0.7,0.5,1,1.3,1,2.4c0,1.5-0.8,2.5-2.3,3l3.1,5.1h-1.7l-2.7-4.7h-2.3v4.7h-1.4v-11.3
		H383.3z M383.3,795.7c0.9,0,1.6-0.2,2-0.5c0.4-0.4,0.6-0.9,0.6-1.6s-0.2-1.2-0.6-1.6c-0.4-0.3-1.1-0.5-2.1-0.5h-1.6v4.2H383.3z"/>
	<path d="M262.5,790.9c1.3,0,2.3,0.2,2.9,0.7c0.6,0.5,1,1.4,0.9,2.1l0,0.2l0,0.1c0,0.4-0.1,0.9-0.3,1.3c-0.2,0.3-0.5,0.7-0.8,0.9
		l-1,0.5l2.3,3.7l0.1,0.3c0,0.3-0.3,0.7-0.7,0.7c-0.2,0-0.5-0.1-0.6-0.3l-2.4-4h-2.1v3.7l0,0c0,0.3-0.3,0.7-0.7,0.7
		c-0.3,0-0.7-0.3-0.7-0.7v-9.9H262.5z M262.4,792h-1.5v3.9h1.6c0.9,0,1.5-0.2,1.9-0.5c0.4-0.4,0.6-0.9,0.6-1.4l0-0.1l0-0.2
		c0-0.4-0.2-1-0.6-1.3c-0.5-0.3-1.1-0.5-1.7-0.4L262.4,792L262.4,792z"/>
	<path d="M230.8,801.4c-0.3,0-0.6-0.2-0.7-0.5l-3.3-8.8h-0.1l0.1,1.2l0,1.6v5.8l0,0c0,0.3-0.3,0.6-0.6,0.6l0,0
		c-0.3,0-0.6-0.3-0.6-0.6l0,0V792c-0.1-0.6,0.6-1.2,1.2-1.2h0c0.4,0,0.9,0.3,1.1,0.8l3,7.9h0.1l3-7.9c0.1-0.5,0.7-0.8,1.1-0.7h0
		c0.6-0.1,1.2,0.6,1.2,1.2v8.8v0c0,0.3-0.3,0.7-0.7,0.7h0c-0.3,0-0.7-0.3-0.7-0.7v-5.8l0-1.5l0.1-1.2h-0.1l-3.3,8.8
		C231.4,801.2,231,801.5,230.8,801.4L230.8,801.4L230.8,801.4z"/>
	<path d="M293.9,801.4c-0.3,0-0.7-0.3-0.7-0.7V792h-2.7c-0.3,0-0.6-0.3-0.6-0.6c0-0.3,0.3-0.6,0.6-0.6l0,0h6.8
		c0.3,0,0.6,0.3,0.6,0.6v0c0,0.3-0.3,0.6-0.6,0.6l0,0h-2.7v8.7C294.6,801.1,294.2,801.5,293.9,801.4z"/>
	<path d="M252.7,801.5c-2.6,0.2-5.6-2.8-5.3-5.4c-0.3-2.6,2.7-5.6,5.4-5.4c1.2,0,2.7,0.5,3.8,1.5l0.2,0.4c0,0.3-0.3,0.6-0.6,0.6
		l-0.4-0.2c-0.8-0.8-2-1.2-2.9-1.2c-2-0.2-4.4,2.1-4.2,4.2c-0.2,2,2.1,4.4,4.2,4.2c1,0,2.1-0.4,3-1.2l0.5-0.2c0.3,0,0.6,0.3,0.6,0.6
		l-0.2,0.5C255.5,801,253.9,801.5,252.7,801.5L252.7,801.5z"/>
	<path d="M270.9,796.1L270.9,796.1c-0.2-1.6,1.7-3.4,3.3-3.3v6.6C272.6,799.6,270.8,797.7,270.9,796.1z"/>
	<path d="M283.1,801.4c-0.3,0-0.7-0.3-0.7-0.7v-9.9h5.3c0.3,0,0.6,0.3,0.6,0.6v0c0,0.3-0.3,0.6-0.6,0.6l0,0h-4v3.7h3.7
		c0.3,0,0.6,0.3,0.6,0.6v0v0c0,0.3-0.3,0.6-0.6,0.6l0,0h-3.7v3.8C283.8,801.1,283.4,801.5,283.1,801.4z"/>
	<path d="M314,801l-1.1-2.9h-4.2l-1.1,2.9c-0.1,0.2-0.4,0.4-0.6,0.4h0c-0.3,0-0.7-0.3-0.6-0.6l0-0.2l3.6-9.2
		c0.1-0.3,0.5-0.6,0.8-0.6h0c0.3,0,0.7,0.2,0.8,0.6l3.6,9.2l0,0.2c0,0.3-0.3,0.7-0.6,0.6C314.4,801.5,314.1,801.3,314,801z
		 M312.5,797l-1.2-3.2l-0.1-0.4l-0.2-0.6l-0.2-0.5l-0.2,0.9l-0.2,0.7l-1.2,3.2H312.5z"/>
	<path d="M242.3,796.1l2.6-4.9c0.1-0.2,0.3-0.3,0.5-0.3h0c0.3,0,0.7,0.3,0.6,0.6l-0.1,0.3l-3,5.5v3.5c0,0.3-0.3,0.7-0.7,0.7
		c-0.3,0-0.7-0.3-0.7-0.7v-3.4l-3-5.6l-0.1-0.3c0-0.3,0.3-0.7,0.6-0.6l0,0h0c0.2,0,0.5,0.1,0.6,0.3L242.3,796.1z"/>
	<path d="M274.2,790.6c2.7-0.3,5.8,2.8,5.5,5.5c0.3,2.7-2.8,5.8-5.5,5.5c-2.7,0.3-5.8-2.8-5.5-5.5
		C268.4,793.4,271.5,790.3,274.2,790.6L274.2,790.6z M274.2,791.8c-2.1-0.2-4.5,2.2-4.3,4.3c-0.2,2.1,2.2,4.5,4.3,4.3
		c2.1,0.2,4.5-2.2,4.3-4.3C278.7,794,276.3,791.6,274.2,791.8z"/>
	<path d="M275.3,788.6c0.1,0.6-0.6,1.2-1.1,1.1c-0.6,0.1-1.2-0.6-1.1-1.1c-0.1-0.6,0.6-1.2,1.1-1.1
		C274.8,787.4,275.4,788,275.3,788.6z"/>
	<path d="M318.6,790.8c0.3,0,0.7,0.3,0.7,0.7v0v9.3v0c0,0.3-0.3,0.7-0.7,0.7c-0.3,0-0.7-0.3-0.7-0.7v0v-9.3v0
		C317.9,791.1,318.3,790.8,318.6,790.8z"/>
	<path d="M156.7,801.6v-11.3h1.4v10.1h5v1.3H156.7z"/>
	<path d="M300.4,741.1c1.4,0,2.4,0.3,3.1,0.8c0.7,0.5,1,1.3,1,2.4c0,1.5-0.8,2.5-2.3,3l3.1,5.1h-1.7l-2.7-4.7h-2.3v4.7h-1.4v-11.3
		H300.4z M300.4,746.5c0.9,0,1.6-0.2,2-0.5c0.4-0.4,0.6-0.9,0.6-1.6s-0.2-1.2-0.6-1.6c-0.4-0.3-1.1-0.5-2.1-0.5h-1.6v4.2H300.4z"/>
	<path d="M249.7,644.9h-1.4v-11h6.2v1.2h-4.8v3.9h4.5v1.2h-4.5V644.9z"/>
	<path d="M257.3,744.4c0,1.2-0.4,2-1.2,2.7c-0.8,0.6-1.9,0.9-3.3,0.9h-1.3v4.4H250v-11.3h3C255.9,741.1,257.3,742.2,257.3,744.4z
		 M252.6,746.8c1.1,0,1.9-0.2,2.5-0.5s0.8-1,0.8-1.8c0-0.7-0.2-1.3-0.7-1.6c-0.5-0.4-1.2-0.5-2.2-0.5h-1.4v4.5H252.6z"/>
	<path d="M279.1,636.4l0.1,2.4v6.2h-1.3v-11h1.6l0.3,0.5l3.6,5.6l1.9,3h0.1l-0.1-1.3l0-1.6v-6.2h1.3v11H285l-5.9-9.1h-0.1
		L279.1,636.4z"/>
	<path d="M275.5,639.4c0,1.8-0.4,3.1-1.3,4.2c-0.9,1-2.1,1.5-3.7,1.5c-1.6,0-2.9-0.5-3.8-1.5c-0.9-1-1.3-2.4-1.3-4.2
		c0-1.8,0.4-3.2,1.3-4.2c0.9-1,2.1-1.5,3.8-1.5c1.6,0,2.8,0.5,3.7,1.5C275,636.2,275.5,637.6,275.5,639.4z M266.8,639.4
		c0,1.5,0.3,2.6,0.9,3.3c0.6,0.8,1.5,1.1,2.7,1.1c1.2,0,2.1-0.4,2.7-1.1c0.6-0.8,0.9-1.9,0.9-3.3c0-1.5-0.3-2.6-0.9-3.3
		c-0.6-0.7-1.5-1.1-2.7-1.1c-1.2,0-2.1,0.4-2.7,1.1C267.1,636.8,266.8,638,266.8,639.4z"/>
	<path d="M275.6,752.4l-1.4-3.5h-4.5l-1.3,3.5h-1.4l4.4-11.4h1.3l4.4,11.4H275.6z M272,742.5l-0.5,1.7l-1.3,3.4h3.6l-1.3-3.4
		L272,742.5z"/>
	<path d="M286.9,752.4h-1.7l-4-5.4l-1.2,1v4.4h-1.4v-11.3h1.4v5.6l1-1.1l4-4.5h1.7l-4.5,4.9L286.9,752.4z"/>
	<path d="M293.1,644.9h-1.4v-9.8h-3.4v-1.2h8.3v1.2h-3.4V644.9z"/>
	<path d="M259.3,633.9c1.4,0,2.4,0.3,3,0.8c0.7,0.5,1,1.3,1,2.3c0,1.5-0.7,2.4-2.2,3l3,4.9h-1.6l-2.7-4.6h-2.2v4.6h-1.4v-11H259.3z
		 M259.3,639.2c0.9,0,1.5-0.2,2-0.5c0.4-0.4,0.6-0.9,0.6-1.6c0-0.7-0.2-1.2-0.6-1.5s-1.1-0.5-2-0.5h-1.6v4.1H259.3z"/>
	<path d="M247.7,749.4c0,1-0.4,1.8-1.1,2.3c-0.7,0.6-1.7,0.9-3,0.9c-1.3,0-2.4-0.2-3.1-0.5v-1.4l1.6,0.5l1.6,0.2
		c0.8,0,1.5-0.2,1.9-0.5c0.4-0.3,0.6-0.8,0.6-1.3c0-0.4-0.1-0.7-0.2-0.9c-0.2-0.2-0.4-0.5-0.8-0.7l-1.7-0.7c-1-0.4-1.8-0.8-2.2-1.4
		c-0.4-0.5-0.7-1.2-0.7-2c0-0.9,0.3-1.6,1-2.1s1.5-0.8,2.6-0.8c1.1,0,2.2,0.2,3.1,0.6l-0.4,1.2c-1-0.4-1.9-0.6-2.7-0.6
		c-0.7,0-1.2,0.1-1.6,0.4c-0.4,0.3-0.6,0.7-0.6,1.2c0,0.4,0.1,0.7,0.2,0.9l0.7,0.7l1.5,0.7c0.8,0.3,1.5,0.6,1.9,0.9
		c0.4,0.3,0.7,0.6,0.9,1C247.6,748.4,247.7,748.9,247.7,749.4z"/>
	<path d="M266,752.4h-6.3v-11.3h6.3v1.3h-4.9v3.5h4.6v1.2h-4.6v4h4.9V752.4z"/>
	<path d="M294.8,752.4h-6.3v-11.3h6.3v1.3h-4.9v3.5h4.6v1.2h-4.6v4h4.9V752.4z"/>
	<path d="M277.6,351.6c0,1.8-0.5,3.2-1.4,4.3c-0.9,1-2.2,1.6-3.9,1.6c-1.7,0-3-0.5-3.9-1.5c-0.9-1-1.4-2.5-1.4-4.3
		c0-1.8,0.5-3.3,1.4-4.3c0.9-1,2.2-1.5,3.9-1.5c1.6,0,2.9,0.5,3.8,1.5C277.1,348.3,277.6,349.7,277.6,351.6z M268.6,351.6
		c0,1.5,0.3,2.6,1,3.4c0.6,0.8,1.6,1.2,2.8,1.2c1.2,0,2.1-0.4,2.8-1.2c0.6-0.8,0.9-1.9,0.9-3.4c0-1.5-0.3-2.7-0.9-3.4
		s-1.5-1.2-2.8-1.2c-1.2,0-2.2,0.4-2.8,1.2S268.6,350.1,268.6,351.6z"/>
	<path d="M287.4,349.3c0,1.2-0.4,2-1.2,2.7c-0.8,0.6-1.9,0.9-3.3,0.9h-1.3v4.4h-1.4v-11.3h3C285.9,345.9,287.4,347,287.4,349.3z
		 M282.7,351.6c1.1,0,1.9-0.2,2.5-0.5c0.5-0.4,0.8-0.9,0.8-1.8c0-0.7-0.2-1.3-0.7-1.6c-0.5-0.4-1.2-0.5-2.2-0.5h-1.4v4.5H282.7z"/>
	<path d="M262.4,357.3H261v-10.1h-3.5v-1.3h8.5v1.3h-3.5V357.3z"/>
	<path d="M279.1,201.5h-1.7l-4-5.4l-1.2,1v4.4h-1.4v-11.3h1.4v5.6l1-1.1l4-4.5h1.7l-4.5,4.9L279.1,201.5z"/>
	<path d="M292.6,190.1c1.4,0,2.4,0.3,3.1,0.8c0.7,0.5,1,1.3,1,2.4c0,1.5-0.8,2.5-2.3,3l3.1,5.1h-1.7l-2.7-4.7h-2.3v4.7h-1.4v-11.3
		H292.6z M292.6,195.6c0.9,0,1.6-0.2,2-0.5c0.4-0.4,0.6-0.9,0.6-1.6s-0.2-1.2-0.6-1.6c-0.4-0.3-1.1-0.5-2.1-0.5h-1.6v4.2H292.6z"/>
	<path d="M275.3,137.2l-0.6-1.5h-2l-0.6,1.5h-0.6l1.9-5h0.6l1.9,5H275.3z M273.7,132.9l-0.2,0.7l-0.6,1.5h1.6l-0.6-1.5L273.7,132.9z
		"/>
	<path d="M277.1,132.9l0.1,1.3v3h-0.6v-5h0.9l1.5,4.1h0l1.6-4.1h0.9v5h-0.6v-3.1l0-1.3h0l-1.7,4.3h-0.5L277.1,132.9L277.1,132.9z"/>
	<path d="M249.5,193.5c0,1.2-0.4,2-1.2,2.7c-0.8,0.6-1.9,0.9-3.3,0.9h-1.3v4.4h-1.4v-11.3h3C248.1,190.1,249.5,191.2,249.5,193.5z
		 M244.8,195.8c1.1,0,1.9-0.2,2.5-0.5s0.8-1,0.8-1.8c0-0.7-0.2-1.3-0.7-1.6c-0.5-0.4-1.2-0.5-2.2-0.5h-1.4v4.5H244.8z"/>
	<path d="M239.9,198.4c0,1-0.4,1.8-1.1,2.3c-0.7,0.6-1.7,0.9-3,0.9c-1.3,0-2.4-0.2-3.1-0.5v-1.4l1.6,0.5l1.6,0.2
		c0.8,0,1.5-0.2,1.9-0.5c0.4-0.3,0.6-0.8,0.6-1.3c0-0.4-0.1-0.7-0.2-0.9c-0.2-0.2-0.4-0.5-0.8-0.7l-1.7-0.7c-1-0.4-1.8-0.8-2.2-1.4
		c-0.4-0.5-0.7-1.2-0.7-2c0-0.9,0.3-1.6,1-2.1c0.7-0.5,1.5-0.8,2.6-0.8c1.1,0,2.2,0.2,3.1,0.6l-0.4,1.2c-1-0.4-1.9-0.6-2.7-0.6
		c-0.7,0-1.2,0.1-1.6,0.4c-0.4,0.3-0.6,0.7-0.6,1.2c0,0.4,0.1,0.7,0.2,0.9l0.7,0.7l1.5,0.7c0.8,0.3,1.5,0.6,1.9,0.9
		c0.4,0.3,0.7,0.6,0.9,1C239.8,197.4,239.9,197.9,239.9,198.4z"/>
	<path d="M269.9,132.7c-0.5,0-1,0.2-1.3,0.5c-0.3,0.4-0.5,0.8-0.5,1.5c0,0.6,0.1,1.1,0.4,1.5c0.3,0.3,0.7,0.5,1.3,0.5l1.2-0.2v0.5
		l-0.6,0.2l-0.7,0c-0.7,0-1.3-0.2-1.7-0.7c-0.4-0.4-0.6-1.1-0.6-1.9c0-0.5,0.1-1,0.3-1.3c0.2-0.4,0.5-0.7,0.8-0.9
		c0.4-0.2,0.8-0.3,1.3-0.3c0.5,0,1,0.1,1.4,0.3L271,133C270.6,132.8,270.3,132.7,269.9,132.7z"/>
	<path d="M267.8,201.5l-1.4-3.5h-4.5l-1.3,3.5h-1.4l4.4-11.4h1.3l4.4,11.4H267.8z M264.2,191.5l-0.5,1.7l-1.3,3.4h3.6l-1.3-3.4
		L264.2,191.5z"/>
	<path d="M294.2,137.2l-0.6-1.5h-2l-0.6,1.5h-0.6l1.9-5h0.6l1.9,5H294.2z M292.6,132.9l-0.2,0.7l-0.6,1.5h1.6l-0.6-1.5L292.6,132.9z
		"/>
	<path d="M258.2,201.5h-6.3v-11.3h6.3v1.3h-4.9v3.5h4.6v1.2h-4.6v4h4.9V201.5z"/>
	<path d="M287,201.5h-6.3v-11.3h6.3v1.3h-4.9v3.5h4.6v1.2h-4.6v4h4.9V201.5z"/>
	<path d="M288.1,132.3c0.6,0,1.1,0.1,1.4,0.4c0.3,0.2,0.4,0.6,0.4,1.1c0,0.7-0.3,1.1-1,1.3l1.4,2.2h-0.7l-1.2-2h-1v2h-0.6v-5H288.1z
		 M288.1,134.6c0.4,0,0.7-0.1,0.9-0.2c0.2-0.2,0.3-0.4,0.3-0.7c0-0.3-0.1-0.5-0.3-0.7c-0.2-0.1-0.5-0.2-0.9-0.2h-0.7v1.8H288.1z"/>
	<path d="M285.7,137.2h-2.8v-5h2.8v0.5h-2.1v1.5h2v0.5h-2v1.8h2.1V137.2z"/>
</g>
</svg>
