G04 #@! TF.GenerationSoftware,KiCad,Pcbnew,(6.0.7)*
G04 #@! TF.CreationDate,2022-07-29T08:46:11-07:00*
G04 #@! TF.ProjectId,SJ-201-R10,534a2d32-3031-42d5-9231-302e6b696361,rev?*
G04 #@! TF.SameCoordinates,Original*
G04 #@! TF.FileFunction,Legend,Top*
G04 #@! TF.FilePolarity,Positive*
%FSLAX46Y46*%
G04 Gerber Fmt 4.6, Leading zero omitted, Abs format (unit mm)*
G04 Created by KiCad (PCBNEW (6.0.7)) date 2022-07-29 08:46:11*
%MOMM*%
%LPD*%
G01*
G04 APERTURE LIST*
%ADD10C,0.100000*%
%ADD11C,0.050000*%
%ADD12C,0.150000*%
%ADD13C,0.080000*%
%ADD14C,0.120000*%
%ADD15C,0.152400*%
G04 APERTURE END LIST*
D10*
G36*
X16510000Y-17272000D02*
G01*
X1270000Y-17272000D01*
X1270000Y-9652000D01*
X16510000Y-9652000D01*
X16510000Y-17272000D01*
G37*
X16510000Y-17272000D02*
X1270000Y-17272000D01*
X1270000Y-9652000D01*
X16510000Y-9652000D01*
X16510000Y-17272000D01*
D11*
X3263876Y-17617285D02*
X2882923Y-17617285D01*
X3073400Y-17426809D02*
X3073400Y-17807761D01*
D10*
X56797380Y-81850952D02*
X56321190Y-82184285D01*
X56797380Y-82422380D02*
X55797380Y-82422380D01*
X55797380Y-82041428D01*
X55845000Y-81946190D01*
X55892619Y-81898571D01*
X55987857Y-81850952D01*
X56130714Y-81850952D01*
X56225952Y-81898571D01*
X56273571Y-81946190D01*
X56321190Y-82041428D01*
X56321190Y-82422380D01*
X56797380Y-80993809D02*
X56273571Y-80993809D01*
X56178333Y-81041428D01*
X56130714Y-81136666D01*
X56130714Y-81327142D01*
X56178333Y-81422380D01*
X56749761Y-80993809D02*
X56797380Y-81089047D01*
X56797380Y-81327142D01*
X56749761Y-81422380D01*
X56654523Y-81470000D01*
X56559285Y-81470000D01*
X56464047Y-81422380D01*
X56416428Y-81327142D01*
X56416428Y-81089047D01*
X56368809Y-80993809D01*
X56749761Y-80565238D02*
X56797380Y-80470000D01*
X56797380Y-80279523D01*
X56749761Y-80184285D01*
X56654523Y-80136666D01*
X56606904Y-80136666D01*
X56511666Y-80184285D01*
X56464047Y-80279523D01*
X56464047Y-80422380D01*
X56416428Y-80517619D01*
X56321190Y-80565238D01*
X56273571Y-80565238D01*
X56178333Y-80517619D01*
X56130714Y-80422380D01*
X56130714Y-80279523D01*
X56178333Y-80184285D01*
X56130714Y-79708095D02*
X57130714Y-79708095D01*
X56178333Y-79708095D02*
X56130714Y-79612857D01*
X56130714Y-79422380D01*
X56178333Y-79327142D01*
X56225952Y-79279523D01*
X56321190Y-79231904D01*
X56606904Y-79231904D01*
X56702142Y-79279523D01*
X56749761Y-79327142D01*
X56797380Y-79422380D01*
X56797380Y-79612857D01*
X56749761Y-79708095D01*
X56797380Y-78803333D02*
X55797380Y-78803333D01*
X56178333Y-78803333D02*
X56130714Y-78708095D01*
X56130714Y-78517619D01*
X56178333Y-78422380D01*
X56225952Y-78374761D01*
X56321190Y-78327142D01*
X56606904Y-78327142D01*
X56702142Y-78374761D01*
X56749761Y-78422380D01*
X56797380Y-78517619D01*
X56797380Y-78708095D01*
X56749761Y-78803333D01*
X56749761Y-77517619D02*
X56797380Y-77612857D01*
X56797380Y-77803333D01*
X56749761Y-77898571D01*
X56654523Y-77946190D01*
X56273571Y-77946190D01*
X56178333Y-77898571D01*
X56130714Y-77803333D01*
X56130714Y-77612857D01*
X56178333Y-77517619D01*
X56273571Y-77470000D01*
X56368809Y-77470000D01*
X56464047Y-77946190D01*
X56797380Y-77041428D02*
X56130714Y-77041428D01*
X56321190Y-77041428D02*
X56225952Y-76993809D01*
X56178333Y-76946190D01*
X56130714Y-76850952D01*
X56130714Y-76755714D01*
X56797380Y-76422380D02*
X56130714Y-76422380D01*
X56321190Y-76422380D02*
X56225952Y-76374761D01*
X56178333Y-76327142D01*
X56130714Y-76231904D01*
X56130714Y-76136666D01*
X56130714Y-75898571D02*
X56797380Y-75660476D01*
X56130714Y-75422380D02*
X56797380Y-75660476D01*
X57035476Y-75755714D01*
X57083095Y-75803333D01*
X57130714Y-75898571D01*
X56797380Y-74279523D02*
X55797380Y-74279523D01*
X55797380Y-73898571D01*
X55845000Y-73803333D01*
X55892619Y-73755714D01*
X55987857Y-73708095D01*
X56130714Y-73708095D01*
X56225952Y-73755714D01*
X56273571Y-73803333D01*
X56321190Y-73898571D01*
X56321190Y-74279523D01*
X56797380Y-73279523D02*
X56130714Y-73279523D01*
X55797380Y-73279523D02*
X55845000Y-73327142D01*
X55892619Y-73279523D01*
X55845000Y-73231904D01*
X55797380Y-73279523D01*
X55892619Y-73279523D01*
X58312142Y-80422380D02*
X58359761Y-80470000D01*
X58407380Y-80612857D01*
X58407380Y-80708095D01*
X58359761Y-80850952D01*
X58264523Y-80946190D01*
X58169285Y-80993809D01*
X57978809Y-81041428D01*
X57835952Y-81041428D01*
X57645476Y-80993809D01*
X57550238Y-80946190D01*
X57455000Y-80850952D01*
X57407380Y-80708095D01*
X57407380Y-80612857D01*
X57455000Y-80470000D01*
X57502619Y-80422380D01*
X58407380Y-79850952D02*
X58359761Y-79946190D01*
X58312142Y-79993809D01*
X58216904Y-80041428D01*
X57931190Y-80041428D01*
X57835952Y-79993809D01*
X57788333Y-79946190D01*
X57740714Y-79850952D01*
X57740714Y-79708095D01*
X57788333Y-79612857D01*
X57835952Y-79565238D01*
X57931190Y-79517619D01*
X58216904Y-79517619D01*
X58312142Y-79565238D01*
X58359761Y-79612857D01*
X58407380Y-79708095D01*
X58407380Y-79850952D01*
X57740714Y-79089047D02*
X58407380Y-79089047D01*
X57835952Y-79089047D02*
X57788333Y-79041428D01*
X57740714Y-78946190D01*
X57740714Y-78803333D01*
X57788333Y-78708095D01*
X57883571Y-78660476D01*
X58407380Y-78660476D01*
X57740714Y-78184285D02*
X58407380Y-78184285D01*
X57835952Y-78184285D02*
X57788333Y-78136666D01*
X57740714Y-78041428D01*
X57740714Y-77898571D01*
X57788333Y-77803333D01*
X57883571Y-77755714D01*
X58407380Y-77755714D01*
X58359761Y-76898571D02*
X58407380Y-76993809D01*
X58407380Y-77184285D01*
X58359761Y-77279523D01*
X58264523Y-77327142D01*
X57883571Y-77327142D01*
X57788333Y-77279523D01*
X57740714Y-77184285D01*
X57740714Y-76993809D01*
X57788333Y-76898571D01*
X57883571Y-76850952D01*
X57978809Y-76850952D01*
X58074047Y-77327142D01*
X58359761Y-75993809D02*
X58407380Y-76089047D01*
X58407380Y-76279523D01*
X58359761Y-76374761D01*
X58312142Y-76422380D01*
X58216904Y-76470000D01*
X57931190Y-76470000D01*
X57835952Y-76422380D01*
X57788333Y-76374761D01*
X57740714Y-76279523D01*
X57740714Y-76089047D01*
X57788333Y-75993809D01*
X57740714Y-75708095D02*
X57740714Y-75327142D01*
X57407380Y-75565238D02*
X58264523Y-75565238D01*
X58359761Y-75517619D01*
X58407380Y-75422380D01*
X58407380Y-75327142D01*
X58407380Y-74850952D02*
X58359761Y-74946190D01*
X58312142Y-74993809D01*
X58216904Y-75041428D01*
X57931190Y-75041428D01*
X57835952Y-74993809D01*
X57788333Y-74946190D01*
X57740714Y-74850952D01*
X57740714Y-74708095D01*
X57788333Y-74612857D01*
X57835952Y-74565238D01*
X57931190Y-74517619D01*
X58216904Y-74517619D01*
X58312142Y-74565238D01*
X58359761Y-74612857D01*
X58407380Y-74708095D01*
X58407380Y-74850952D01*
X58407380Y-74089047D02*
X57740714Y-74089047D01*
X57931190Y-74089047D02*
X57835952Y-74041428D01*
X57788333Y-73993809D01*
X57740714Y-73898571D01*
X57740714Y-73803333D01*
D11*
X13688190Y-19355523D02*
X13450095Y-19522190D01*
X13688190Y-19641238D02*
X13188190Y-19641238D01*
X13188190Y-19450761D01*
X13212000Y-19403142D01*
X13235809Y-19379333D01*
X13283428Y-19355523D01*
X13354857Y-19355523D01*
X13402476Y-19379333D01*
X13426285Y-19403142D01*
X13450095Y-19450761D01*
X13450095Y-19641238D01*
X13688190Y-19141238D02*
X13354857Y-19141238D01*
X13188190Y-19141238D02*
X13212000Y-19165047D01*
X13235809Y-19141238D01*
X13212000Y-19117428D01*
X13188190Y-19141238D01*
X13235809Y-19141238D01*
X13354857Y-18688857D02*
X13759619Y-18688857D01*
X13807238Y-18712666D01*
X13831047Y-18736476D01*
X13854857Y-18784095D01*
X13854857Y-18855523D01*
X13831047Y-18903142D01*
X13664380Y-18688857D02*
X13688190Y-18736476D01*
X13688190Y-18831714D01*
X13664380Y-18879333D01*
X13640571Y-18903142D01*
X13592952Y-18926952D01*
X13450095Y-18926952D01*
X13402476Y-18903142D01*
X13378666Y-18879333D01*
X13354857Y-18831714D01*
X13354857Y-18736476D01*
X13378666Y-18688857D01*
X13688190Y-18450761D02*
X13188190Y-18450761D01*
X13688190Y-18236476D02*
X13426285Y-18236476D01*
X13378666Y-18260285D01*
X13354857Y-18307904D01*
X13354857Y-18379333D01*
X13378666Y-18426952D01*
X13402476Y-18450761D01*
X13354857Y-18069809D02*
X13354857Y-17879333D01*
X13188190Y-17998380D02*
X13616761Y-17998380D01*
X13664380Y-17974571D01*
X13688190Y-17926952D01*
X13688190Y-17879333D01*
X8409809Y-18704761D02*
X8409809Y-18466666D01*
X8909809Y-18466666D01*
X8433619Y-19061904D02*
X8409809Y-19014285D01*
X8409809Y-18919047D01*
X8433619Y-18871428D01*
X8481238Y-18847619D01*
X8671714Y-18847619D01*
X8719333Y-18871428D01*
X8743142Y-18919047D01*
X8743142Y-19014285D01*
X8719333Y-19061904D01*
X8671714Y-19085714D01*
X8624095Y-19085714D01*
X8576476Y-18847619D01*
X8743142Y-19228571D02*
X8743142Y-19419047D01*
X8409809Y-19300000D02*
X8838380Y-19300000D01*
X8886000Y-19323809D01*
X8909809Y-19371428D01*
X8909809Y-19419047D01*
X8743142Y-19514285D02*
X8743142Y-19704761D01*
X8909809Y-19585714D02*
X8481238Y-19585714D01*
X8433619Y-19609523D01*
X8409809Y-19657142D01*
X8409809Y-19704761D01*
X19796914Y-16471876D02*
X19796914Y-16090923D01*
X19987390Y-16281400D02*
X19606438Y-16281400D01*
D10*
X12378000Y-5149857D02*
X12340857Y-5224142D01*
X12340857Y-5335571D01*
X12378000Y-5447000D01*
X12452285Y-5521285D01*
X12526571Y-5558428D01*
X12675142Y-5595571D01*
X12786571Y-5595571D01*
X12935142Y-5558428D01*
X13009428Y-5521285D01*
X13083714Y-5447000D01*
X13120857Y-5335571D01*
X13120857Y-5261285D01*
X13083714Y-5149857D01*
X13046571Y-5112714D01*
X12786571Y-5112714D01*
X12786571Y-5261285D01*
X13120857Y-4778428D02*
X12340857Y-4778428D01*
X13120857Y-4332714D01*
X12340857Y-4332714D01*
X13120857Y-3961285D02*
X12340857Y-3961285D01*
X12340857Y-3775571D01*
X12378000Y-3664142D01*
X12452285Y-3589857D01*
X12526571Y-3552714D01*
X12675142Y-3515571D01*
X12786571Y-3515571D01*
X12935142Y-3552714D01*
X13009428Y-3589857D01*
X13083714Y-3664142D01*
X13120857Y-3775571D01*
X13120857Y-3961285D01*
X14889600Y-6264142D02*
X14852457Y-6338428D01*
X14852457Y-6449857D01*
X14889600Y-6561285D01*
X14963885Y-6635571D01*
X15038171Y-6672714D01*
X15186742Y-6709857D01*
X15298171Y-6709857D01*
X15446742Y-6672714D01*
X15521028Y-6635571D01*
X15595314Y-6561285D01*
X15632457Y-6449857D01*
X15632457Y-6375571D01*
X15595314Y-6264142D01*
X15558171Y-6227000D01*
X15298171Y-6227000D01*
X15298171Y-6375571D01*
X15632457Y-5892714D02*
X14852457Y-5892714D01*
X14852457Y-5595571D01*
X14889600Y-5521285D01*
X14926742Y-5484142D01*
X15001028Y-5447000D01*
X15112457Y-5447000D01*
X15186742Y-5484142D01*
X15223885Y-5521285D01*
X15261028Y-5595571D01*
X15261028Y-5892714D01*
X15632457Y-5112714D02*
X14852457Y-5112714D01*
X14852457Y-4592714D02*
X14852457Y-4444142D01*
X14889600Y-4369857D01*
X14963885Y-4295571D01*
X15112457Y-4258428D01*
X15372457Y-4258428D01*
X15521028Y-4295571D01*
X15595314Y-4369857D01*
X15632457Y-4444142D01*
X15632457Y-4592714D01*
X15595314Y-4667000D01*
X15521028Y-4741285D01*
X15372457Y-4778428D01*
X15112457Y-4778428D01*
X14963885Y-4741285D01*
X14889600Y-4667000D01*
X14852457Y-4592714D01*
X14852457Y-3775571D02*
X14852457Y-3701285D01*
X14889600Y-3627000D01*
X14926742Y-3589857D01*
X15001028Y-3552714D01*
X15149600Y-3515571D01*
X15335314Y-3515571D01*
X15483885Y-3552714D01*
X15558171Y-3589857D01*
X15595314Y-3627000D01*
X15632457Y-3701285D01*
X15632457Y-3775571D01*
X15595314Y-3849857D01*
X15558171Y-3887000D01*
X15483885Y-3924142D01*
X15335314Y-3961285D01*
X15149600Y-3961285D01*
X15001028Y-3924142D01*
X14926742Y-3887000D01*
X14889600Y-3849857D01*
X14852457Y-3775571D01*
X17401200Y-6264142D02*
X17364057Y-6338428D01*
X17364057Y-6449857D01*
X17401200Y-6561285D01*
X17475485Y-6635571D01*
X17549771Y-6672714D01*
X17698342Y-6709857D01*
X17809771Y-6709857D01*
X17958342Y-6672714D01*
X18032628Y-6635571D01*
X18106914Y-6561285D01*
X18144057Y-6449857D01*
X18144057Y-6375571D01*
X18106914Y-6264142D01*
X18069771Y-6227000D01*
X17809771Y-6227000D01*
X17809771Y-6375571D01*
X18144057Y-5892714D02*
X17364057Y-5892714D01*
X17364057Y-5595571D01*
X17401200Y-5521285D01*
X17438342Y-5484142D01*
X17512628Y-5447000D01*
X17624057Y-5447000D01*
X17698342Y-5484142D01*
X17735485Y-5521285D01*
X17772628Y-5595571D01*
X17772628Y-5892714D01*
X18144057Y-5112714D02*
X17364057Y-5112714D01*
X17364057Y-4592714D02*
X17364057Y-4444142D01*
X17401200Y-4369857D01*
X17475485Y-4295571D01*
X17624057Y-4258428D01*
X17884057Y-4258428D01*
X18032628Y-4295571D01*
X18106914Y-4369857D01*
X18144057Y-4444142D01*
X18144057Y-4592714D01*
X18106914Y-4667000D01*
X18032628Y-4741285D01*
X17884057Y-4778428D01*
X17624057Y-4778428D01*
X17475485Y-4741285D01*
X17401200Y-4667000D01*
X17364057Y-4592714D01*
X17364057Y-3998428D02*
X17364057Y-3478428D01*
X18144057Y-3812714D01*
X19875657Y-5335571D02*
X19875657Y-4852714D01*
X20172800Y-5112714D01*
X20172800Y-5001285D01*
X20209942Y-4927000D01*
X20247085Y-4889857D01*
X20321371Y-4852714D01*
X20507085Y-4852714D01*
X20581371Y-4889857D01*
X20618514Y-4927000D01*
X20655657Y-5001285D01*
X20655657Y-5224142D01*
X20618514Y-5298428D01*
X20581371Y-5335571D01*
X20135657Y-4592714D02*
X20655657Y-4407000D01*
X20135657Y-4221285D01*
X19875657Y-3998428D02*
X19875657Y-3515571D01*
X20172800Y-3775571D01*
X20172800Y-3664142D01*
X20209942Y-3589857D01*
X20247085Y-3552714D01*
X20321371Y-3515571D01*
X20507085Y-3515571D01*
X20581371Y-3552714D01*
X20618514Y-3589857D01*
X20655657Y-3664142D01*
X20655657Y-3887000D01*
X20618514Y-3961285D01*
X20581371Y-3998428D01*
X61893000Y-30806657D02*
X61521571Y-30806657D01*
X61484428Y-31178085D01*
X61521571Y-31140942D01*
X61595857Y-31103800D01*
X61781571Y-31103800D01*
X61855857Y-31140942D01*
X61893000Y-31178085D01*
X61930142Y-31252371D01*
X61930142Y-31438085D01*
X61893000Y-31512371D01*
X61855857Y-31549514D01*
X61781571Y-31586657D01*
X61595857Y-31586657D01*
X61521571Y-31549514D01*
X61484428Y-31512371D01*
X62190142Y-31066657D02*
X62375857Y-31586657D01*
X62561571Y-31066657D01*
X60704428Y-33318257D02*
X61187285Y-33318257D01*
X60927285Y-33615400D01*
X61038714Y-33615400D01*
X61113000Y-33652542D01*
X61150142Y-33689685D01*
X61187285Y-33763971D01*
X61187285Y-33949685D01*
X61150142Y-34023971D01*
X61113000Y-34061114D01*
X61038714Y-34098257D01*
X60815857Y-34098257D01*
X60741571Y-34061114D01*
X60704428Y-34023971D01*
X61447285Y-33578257D02*
X61633000Y-34098257D01*
X61818714Y-33578257D01*
X62041571Y-33318257D02*
X62524428Y-33318257D01*
X62264428Y-33615400D01*
X62375857Y-33615400D01*
X62450142Y-33652542D01*
X62487285Y-33689685D01*
X62524428Y-33763971D01*
X62524428Y-33949685D01*
X62487285Y-34023971D01*
X62450142Y-34061114D01*
X62375857Y-34098257D01*
X62153000Y-34098257D01*
X62078714Y-34061114D01*
X62041571Y-34023971D01*
X61187285Y-36609857D02*
X60741571Y-36609857D01*
X60964428Y-36609857D02*
X60964428Y-35829857D01*
X60890142Y-35941285D01*
X60815857Y-36015571D01*
X60741571Y-36052714D01*
X61447285Y-36089857D02*
X61633000Y-36609857D01*
X61818714Y-36089857D01*
X62264428Y-35829857D02*
X62338714Y-35829857D01*
X62413000Y-35867000D01*
X62450142Y-35904142D01*
X62487285Y-35978428D01*
X62524428Y-36127000D01*
X62524428Y-36312714D01*
X62487285Y-36461285D01*
X62450142Y-36535571D01*
X62413000Y-36572714D01*
X62338714Y-36609857D01*
X62264428Y-36609857D01*
X62190142Y-36572714D01*
X62153000Y-36535571D01*
X62115857Y-36461285D01*
X62078714Y-36312714D01*
X62078714Y-36127000D01*
X62115857Y-35978428D01*
X62153000Y-35904142D01*
X62190142Y-35867000D01*
X62264428Y-35829857D01*
X60890142Y-38378600D02*
X60815857Y-38341457D01*
X60704428Y-38341457D01*
X60593000Y-38378600D01*
X60518714Y-38452885D01*
X60481571Y-38527171D01*
X60444428Y-38675742D01*
X60444428Y-38787171D01*
X60481571Y-38935742D01*
X60518714Y-39010028D01*
X60593000Y-39084314D01*
X60704428Y-39121457D01*
X60778714Y-39121457D01*
X60890142Y-39084314D01*
X60927285Y-39047171D01*
X60927285Y-38787171D01*
X60778714Y-38787171D01*
X61261571Y-39121457D02*
X61261571Y-38341457D01*
X61707285Y-39121457D01*
X61707285Y-38341457D01*
X62078714Y-39121457D02*
X62078714Y-38341457D01*
X62264428Y-38341457D01*
X62375857Y-38378600D01*
X62450142Y-38452885D01*
X62487285Y-38527171D01*
X62524428Y-38675742D01*
X62524428Y-38787171D01*
X62487285Y-38935742D01*
X62450142Y-39010028D01*
X62375857Y-39084314D01*
X62264428Y-39121457D01*
X62078714Y-39121457D01*
X22629828Y-14485657D02*
X23112685Y-14485657D01*
X22852685Y-14782800D01*
X22964114Y-14782800D01*
X23038400Y-14819942D01*
X23075542Y-14857085D01*
X23112685Y-14931371D01*
X23112685Y-15117085D01*
X23075542Y-15191371D01*
X23038400Y-15228514D01*
X22964114Y-15265657D01*
X22741257Y-15265657D01*
X22666971Y-15228514D01*
X22629828Y-15191371D01*
X23372685Y-14745657D02*
X23558400Y-15265657D01*
X23744114Y-14745657D01*
X23966971Y-14485657D02*
X24449828Y-14485657D01*
X24189828Y-14782800D01*
X24301257Y-14782800D01*
X24375542Y-14819942D01*
X24412685Y-14857085D01*
X24449828Y-14931371D01*
X24449828Y-15117085D01*
X24412685Y-15191371D01*
X24375542Y-15228514D01*
X24301257Y-15265657D01*
X24078400Y-15265657D01*
X24004114Y-15228514D01*
X23966971Y-15191371D01*
X22555542Y-17740114D02*
X22666971Y-17777257D01*
X22852685Y-17777257D01*
X22926971Y-17740114D01*
X22964114Y-17702971D01*
X23001257Y-17628685D01*
X23001257Y-17554400D01*
X22964114Y-17480114D01*
X22926971Y-17442971D01*
X22852685Y-17405828D01*
X22704114Y-17368685D01*
X22629828Y-17331542D01*
X22592685Y-17294400D01*
X22555542Y-17220114D01*
X22555542Y-17145828D01*
X22592685Y-17071542D01*
X22629828Y-17034400D01*
X22704114Y-16997257D01*
X22889828Y-16997257D01*
X23001257Y-17034400D01*
X23335542Y-17777257D02*
X23335542Y-16997257D01*
X23521257Y-16997257D01*
X23632685Y-17034400D01*
X23706971Y-17108685D01*
X23744114Y-17182971D01*
X23781257Y-17331542D01*
X23781257Y-17442971D01*
X23744114Y-17591542D01*
X23706971Y-17665828D01*
X23632685Y-17740114D01*
X23521257Y-17777257D01*
X23335542Y-17777257D01*
X24078400Y-17554400D02*
X24449828Y-17554400D01*
X24004114Y-17777257D02*
X24264114Y-16997257D01*
X24524114Y-17777257D01*
X22592685Y-20251714D02*
X22704114Y-20288857D01*
X22889828Y-20288857D01*
X22964114Y-20251714D01*
X23001257Y-20214571D01*
X23038400Y-20140285D01*
X23038400Y-20066000D01*
X23001257Y-19991714D01*
X22964114Y-19954571D01*
X22889828Y-19917428D01*
X22741257Y-19880285D01*
X22666971Y-19843142D01*
X22629828Y-19806000D01*
X22592685Y-19731714D01*
X22592685Y-19657428D01*
X22629828Y-19583142D01*
X22666971Y-19546000D01*
X22741257Y-19508857D01*
X22926971Y-19508857D01*
X23038400Y-19546000D01*
X23818400Y-20214571D02*
X23781257Y-20251714D01*
X23669828Y-20288857D01*
X23595542Y-20288857D01*
X23484114Y-20251714D01*
X23409828Y-20177428D01*
X23372685Y-20103142D01*
X23335542Y-19954571D01*
X23335542Y-19843142D01*
X23372685Y-19694571D01*
X23409828Y-19620285D01*
X23484114Y-19546000D01*
X23595542Y-19508857D01*
X23669828Y-19508857D01*
X23781257Y-19546000D01*
X23818400Y-19583142D01*
X24524114Y-20288857D02*
X24152685Y-20288857D01*
X24152685Y-19508857D01*
X30517942Y-14434857D02*
X30146514Y-14434857D01*
X30109371Y-14806285D01*
X30146514Y-14769142D01*
X30220800Y-14732000D01*
X30406514Y-14732000D01*
X30480800Y-14769142D01*
X30517942Y-14806285D01*
X30555085Y-14880571D01*
X30555085Y-15066285D01*
X30517942Y-15140571D01*
X30480800Y-15177714D01*
X30406514Y-15214857D01*
X30220800Y-15214857D01*
X30146514Y-15177714D01*
X30109371Y-15140571D01*
X30815085Y-14694857D02*
X31000800Y-15214857D01*
X31186514Y-14694857D01*
X30517942Y-16946457D02*
X30146514Y-16946457D01*
X30109371Y-17317885D01*
X30146514Y-17280742D01*
X30220800Y-17243600D01*
X30406514Y-17243600D01*
X30480800Y-17280742D01*
X30517942Y-17317885D01*
X30555085Y-17392171D01*
X30555085Y-17577885D01*
X30517942Y-17652171D01*
X30480800Y-17689314D01*
X30406514Y-17726457D01*
X30220800Y-17726457D01*
X30146514Y-17689314D01*
X30109371Y-17652171D01*
X30815085Y-17206457D02*
X31000800Y-17726457D01*
X31186514Y-17206457D01*
X30555085Y-19495200D02*
X30480800Y-19458057D01*
X30369371Y-19458057D01*
X30257942Y-19495200D01*
X30183657Y-19569485D01*
X30146514Y-19643771D01*
X30109371Y-19792342D01*
X30109371Y-19903771D01*
X30146514Y-20052342D01*
X30183657Y-20126628D01*
X30257942Y-20200914D01*
X30369371Y-20238057D01*
X30443657Y-20238057D01*
X30555085Y-20200914D01*
X30592228Y-20163771D01*
X30592228Y-19903771D01*
X30443657Y-19903771D01*
X30926514Y-20238057D02*
X30926514Y-19458057D01*
X31372228Y-20238057D01*
X31372228Y-19458057D01*
X31743657Y-20238057D02*
X31743657Y-19458057D01*
X31929371Y-19458057D01*
X32040800Y-19495200D01*
X32115085Y-19569485D01*
X32152228Y-19643771D01*
X32189371Y-19792342D01*
X32189371Y-19903771D01*
X32152228Y-20052342D01*
X32115085Y-20126628D01*
X32040800Y-20200914D01*
X31929371Y-20238057D01*
X31743657Y-20238057D01*
D12*
G04 #@! TO.C,J7*
X36666666Y-8052380D02*
X36666666Y-8766666D01*
X36619047Y-8909523D01*
X36523809Y-9004761D01*
X36380952Y-9052380D01*
X36285714Y-9052380D01*
X37047619Y-8052380D02*
X37714285Y-8052380D01*
X37285714Y-9052380D01*
D11*
G04 #@! TO.C,R16*
X52296190Y-65853428D02*
X52058095Y-66020095D01*
X52296190Y-66139142D02*
X51796190Y-66139142D01*
X51796190Y-65948666D01*
X51820000Y-65901047D01*
X51843809Y-65877238D01*
X51891428Y-65853428D01*
X51962857Y-65853428D01*
X52010476Y-65877238D01*
X52034285Y-65901047D01*
X52058095Y-65948666D01*
X52058095Y-66139142D01*
X52296190Y-65377238D02*
X52296190Y-65662952D01*
X52296190Y-65520095D02*
X51796190Y-65520095D01*
X51867619Y-65567714D01*
X51915238Y-65615333D01*
X51939047Y-65662952D01*
X51796190Y-64948666D02*
X51796190Y-65043904D01*
X51820000Y-65091523D01*
X51843809Y-65115333D01*
X51915238Y-65162952D01*
X52010476Y-65186761D01*
X52200952Y-65186761D01*
X52248571Y-65162952D01*
X52272380Y-65139142D01*
X52296190Y-65091523D01*
X52296190Y-64996285D01*
X52272380Y-64948666D01*
X52248571Y-64924857D01*
X52200952Y-64901047D01*
X52081904Y-64901047D01*
X52034285Y-64924857D01*
X52010476Y-64948666D01*
X51986666Y-64996285D01*
X51986666Y-65091523D01*
X52010476Y-65139142D01*
X52034285Y-65162952D01*
X52081904Y-65186761D01*
G04 #@! TO.C,R33*
X45247690Y-65853428D02*
X45009595Y-66020095D01*
X45247690Y-66139142D02*
X44747690Y-66139142D01*
X44747690Y-65948666D01*
X44771500Y-65901047D01*
X44795309Y-65877238D01*
X44842928Y-65853428D01*
X44914357Y-65853428D01*
X44961976Y-65877238D01*
X44985785Y-65901047D01*
X45009595Y-65948666D01*
X45009595Y-66139142D01*
X44747690Y-65686761D02*
X44747690Y-65377238D01*
X44938166Y-65543904D01*
X44938166Y-65472476D01*
X44961976Y-65424857D01*
X44985785Y-65401047D01*
X45033404Y-65377238D01*
X45152452Y-65377238D01*
X45200071Y-65401047D01*
X45223880Y-65424857D01*
X45247690Y-65472476D01*
X45247690Y-65615333D01*
X45223880Y-65662952D01*
X45200071Y-65686761D01*
X44747690Y-65210571D02*
X44747690Y-64901047D01*
X44938166Y-65067714D01*
X44938166Y-64996285D01*
X44961976Y-64948666D01*
X44985785Y-64924857D01*
X45033404Y-64901047D01*
X45152452Y-64901047D01*
X45200071Y-64924857D01*
X45223880Y-64948666D01*
X45247690Y-64996285D01*
X45247690Y-65139142D01*
X45223880Y-65186761D01*
X45200071Y-65210571D01*
G04 #@! TO.C,R20*
X23844851Y-8588190D02*
X23678184Y-8350095D01*
X23559137Y-8588190D02*
X23559137Y-8088190D01*
X23749613Y-8088190D01*
X23797232Y-8112000D01*
X23821041Y-8135809D01*
X23844851Y-8183428D01*
X23844851Y-8254857D01*
X23821041Y-8302476D01*
X23797232Y-8326285D01*
X23749613Y-8350095D01*
X23559137Y-8350095D01*
X24035327Y-8135809D02*
X24059137Y-8112000D01*
X24106756Y-8088190D01*
X24225803Y-8088190D01*
X24273422Y-8112000D01*
X24297232Y-8135809D01*
X24321041Y-8183428D01*
X24321041Y-8231047D01*
X24297232Y-8302476D01*
X24011518Y-8588190D01*
X24321041Y-8588190D01*
X24630565Y-8088190D02*
X24678184Y-8088190D01*
X24725803Y-8112000D01*
X24749613Y-8135809D01*
X24773422Y-8183428D01*
X24797232Y-8278666D01*
X24797232Y-8397714D01*
X24773422Y-8492952D01*
X24749613Y-8540571D01*
X24725803Y-8564380D01*
X24678184Y-8588190D01*
X24630565Y-8588190D01*
X24582946Y-8564380D01*
X24559137Y-8540571D01*
X24535327Y-8492952D01*
X24511518Y-8397714D01*
X24511518Y-8278666D01*
X24535327Y-8183428D01*
X24559137Y-8135809D01*
X24582946Y-8112000D01*
X24630565Y-8088190D01*
D12*
G04 #@! TO.C,TP4*
X44438095Y-62052380D02*
X45009523Y-62052380D01*
X44723809Y-63052380D02*
X44723809Y-62052380D01*
X45342857Y-63052380D02*
X45342857Y-62052380D01*
X45723809Y-62052380D01*
X45819047Y-62100000D01*
X45866666Y-62147619D01*
X45914285Y-62242857D01*
X45914285Y-62385714D01*
X45866666Y-62480952D01*
X45819047Y-62528571D01*
X45723809Y-62576190D01*
X45342857Y-62576190D01*
X46771428Y-62385714D02*
X46771428Y-63052380D01*
X46533333Y-62004761D02*
X46295238Y-62719047D01*
X46914285Y-62719047D01*
D11*
G04 #@! TO.C,R25*
X23783171Y-9878190D02*
X23616504Y-9640095D01*
X23497457Y-9878190D02*
X23497457Y-9378190D01*
X23687933Y-9378190D01*
X23735552Y-9402000D01*
X23759361Y-9425809D01*
X23783171Y-9473428D01*
X23783171Y-9544857D01*
X23759361Y-9592476D01*
X23735552Y-9616285D01*
X23687933Y-9640095D01*
X23497457Y-9640095D01*
X23973647Y-9425809D02*
X23997457Y-9402000D01*
X24045076Y-9378190D01*
X24164123Y-9378190D01*
X24211742Y-9402000D01*
X24235552Y-9425809D01*
X24259361Y-9473428D01*
X24259361Y-9521047D01*
X24235552Y-9592476D01*
X23949838Y-9878190D01*
X24259361Y-9878190D01*
X24711742Y-9378190D02*
X24473647Y-9378190D01*
X24449838Y-9616285D01*
X24473647Y-9592476D01*
X24521266Y-9568666D01*
X24640314Y-9568666D01*
X24687933Y-9592476D01*
X24711742Y-9616285D01*
X24735552Y-9663904D01*
X24735552Y-9782952D01*
X24711742Y-9830571D01*
X24687933Y-9854380D01*
X24640314Y-9878190D01*
X24521266Y-9878190D01*
X24473647Y-9854380D01*
X24449838Y-9830571D01*
G04 #@! TO.C,Q3*
X56162580Y-5760209D02*
X56114961Y-5736400D01*
X56067342Y-5688780D01*
X55995914Y-5617352D01*
X55948295Y-5593542D01*
X55900676Y-5593542D01*
X55924485Y-5712590D02*
X55876866Y-5688780D01*
X55829247Y-5641161D01*
X55805438Y-5545923D01*
X55805438Y-5379257D01*
X55829247Y-5284019D01*
X55876866Y-5236400D01*
X55924485Y-5212590D01*
X56019723Y-5212590D01*
X56067342Y-5236400D01*
X56114961Y-5284019D01*
X56138771Y-5379257D01*
X56138771Y-5545923D01*
X56114961Y-5641161D01*
X56067342Y-5688780D01*
X56019723Y-5712590D01*
X55924485Y-5712590D01*
X56305438Y-5212590D02*
X56614961Y-5212590D01*
X56448295Y-5403066D01*
X56519723Y-5403066D01*
X56567342Y-5426876D01*
X56591152Y-5450685D01*
X56614961Y-5498304D01*
X56614961Y-5617352D01*
X56591152Y-5664971D01*
X56567342Y-5688780D01*
X56519723Y-5712590D01*
X56376866Y-5712590D01*
X56329247Y-5688780D01*
X56305438Y-5664971D01*
G04 #@! TO.C,R22*
X32026990Y-65447028D02*
X31788895Y-65613695D01*
X32026990Y-65732742D02*
X31526990Y-65732742D01*
X31526990Y-65542266D01*
X31550800Y-65494647D01*
X31574609Y-65470838D01*
X31622228Y-65447028D01*
X31693657Y-65447028D01*
X31741276Y-65470838D01*
X31765085Y-65494647D01*
X31788895Y-65542266D01*
X31788895Y-65732742D01*
X31574609Y-65256552D02*
X31550800Y-65232742D01*
X31526990Y-65185123D01*
X31526990Y-65066076D01*
X31550800Y-65018457D01*
X31574609Y-64994647D01*
X31622228Y-64970838D01*
X31669847Y-64970838D01*
X31741276Y-64994647D01*
X32026990Y-65280361D01*
X32026990Y-64970838D01*
X31574609Y-64780361D02*
X31550800Y-64756552D01*
X31526990Y-64708933D01*
X31526990Y-64589885D01*
X31550800Y-64542266D01*
X31574609Y-64518457D01*
X31622228Y-64494647D01*
X31669847Y-64494647D01*
X31741276Y-64518457D01*
X32026990Y-64804171D01*
X32026990Y-64494647D01*
D12*
G04 #@! TO.C,L1*
X47433333Y-36552380D02*
X46957142Y-36552380D01*
X46957142Y-35552380D01*
X48290476Y-36552380D02*
X47719047Y-36552380D01*
X48004761Y-36552380D02*
X48004761Y-35552380D01*
X47909523Y-35695238D01*
X47814285Y-35790476D01*
X47719047Y-35838095D01*
D11*
G04 #@! TO.C,R42*
X49756190Y-65853428D02*
X49518095Y-66020095D01*
X49756190Y-66139142D02*
X49256190Y-66139142D01*
X49256190Y-65948666D01*
X49280000Y-65901047D01*
X49303809Y-65877238D01*
X49351428Y-65853428D01*
X49422857Y-65853428D01*
X49470476Y-65877238D01*
X49494285Y-65901047D01*
X49518095Y-65948666D01*
X49518095Y-66139142D01*
X49422857Y-65424857D02*
X49756190Y-65424857D01*
X49232380Y-65543904D02*
X49589523Y-65662952D01*
X49589523Y-65353428D01*
X49303809Y-65186761D02*
X49280000Y-65162952D01*
X49256190Y-65115333D01*
X49256190Y-64996285D01*
X49280000Y-64948666D01*
X49303809Y-64924857D01*
X49351428Y-64901047D01*
X49399047Y-64901047D01*
X49470476Y-64924857D01*
X49756190Y-65210571D01*
X49756190Y-64901047D01*
D12*
G04 #@! TO.C,J5*
X63979466Y-28374380D02*
X63979466Y-29088666D01*
X63931847Y-29231523D01*
X63836609Y-29326761D01*
X63693752Y-29374380D01*
X63598514Y-29374380D01*
X64931847Y-28374380D02*
X64455657Y-28374380D01*
X64408038Y-28850571D01*
X64455657Y-28802952D01*
X64550895Y-28755333D01*
X64788990Y-28755333D01*
X64884228Y-28802952D01*
X64931847Y-28850571D01*
X64979466Y-28945809D01*
X64979466Y-29183904D01*
X64931847Y-29279142D01*
X64884228Y-29326761D01*
X64788990Y-29374380D01*
X64550895Y-29374380D01*
X64455657Y-29326761D01*
X64408038Y-29279142D01*
G04 #@! TO.C,J1*
X63321306Y-12793540D02*
X63321306Y-13507826D01*
X63273687Y-13650683D01*
X63178449Y-13745921D01*
X63035592Y-13793540D01*
X62940354Y-13793540D01*
X64321306Y-13793540D02*
X63749878Y-13793540D01*
X64035592Y-13793540D02*
X64035592Y-12793540D01*
X63940354Y-12936398D01*
X63845116Y-13031636D01*
X63749878Y-13079255D01*
G04 #@! TO.C,J3*
X8709066Y-20381980D02*
X8709066Y-21096266D01*
X8661447Y-21239123D01*
X8566209Y-21334361D01*
X8423352Y-21381980D01*
X8328114Y-21381980D01*
X9090019Y-20381980D02*
X9709066Y-20381980D01*
X9375733Y-20762933D01*
X9518590Y-20762933D01*
X9613828Y-20810552D01*
X9661447Y-20858171D01*
X9709066Y-20953409D01*
X9709066Y-21191504D01*
X9661447Y-21286742D01*
X9613828Y-21334361D01*
X9518590Y-21381980D01*
X9232876Y-21381980D01*
X9137638Y-21334361D01*
X9090019Y-21286742D01*
G04 #@! TO.C,J4*
X12849266Y-20051780D02*
X12849266Y-20766066D01*
X12801647Y-20908923D01*
X12706409Y-21004161D01*
X12563552Y-21051780D01*
X12468314Y-21051780D01*
X13754028Y-20385114D02*
X13754028Y-21051780D01*
X13515933Y-20004161D02*
X13277838Y-20718447D01*
X13896885Y-20718447D01*
D11*
G04 #@! TO.C,R38*
X21028790Y-64304028D02*
X20790695Y-64470695D01*
X21028790Y-64589742D02*
X20528790Y-64589742D01*
X20528790Y-64399266D01*
X20552600Y-64351647D01*
X20576409Y-64327838D01*
X20624028Y-64304028D01*
X20695457Y-64304028D01*
X20743076Y-64327838D01*
X20766885Y-64351647D01*
X20790695Y-64399266D01*
X20790695Y-64589742D01*
X20528790Y-64137361D02*
X20528790Y-63827838D01*
X20719266Y-63994504D01*
X20719266Y-63923076D01*
X20743076Y-63875457D01*
X20766885Y-63851647D01*
X20814504Y-63827838D01*
X20933552Y-63827838D01*
X20981171Y-63851647D01*
X21004980Y-63875457D01*
X21028790Y-63923076D01*
X21028790Y-64065933D01*
X21004980Y-64113552D01*
X20981171Y-64137361D01*
X20743076Y-63542123D02*
X20719266Y-63589742D01*
X20695457Y-63613552D01*
X20647838Y-63637361D01*
X20624028Y-63637361D01*
X20576409Y-63613552D01*
X20552600Y-63589742D01*
X20528790Y-63542123D01*
X20528790Y-63446885D01*
X20552600Y-63399266D01*
X20576409Y-63375457D01*
X20624028Y-63351647D01*
X20647838Y-63351647D01*
X20695457Y-63375457D01*
X20719266Y-63399266D01*
X20743076Y-63446885D01*
X20743076Y-63542123D01*
X20766885Y-63589742D01*
X20790695Y-63613552D01*
X20838314Y-63637361D01*
X20933552Y-63637361D01*
X20981171Y-63613552D01*
X21004980Y-63589742D01*
X21028790Y-63542123D01*
X21028790Y-63446885D01*
X21004980Y-63399266D01*
X20981171Y-63375457D01*
X20933552Y-63351647D01*
X20838314Y-63351647D01*
X20790695Y-63375457D01*
X20766885Y-63399266D01*
X20743076Y-63446885D01*
D12*
G04 #@! TO.C,L2*
X47233333Y-58952380D02*
X46757142Y-58952380D01*
X46757142Y-57952380D01*
X47519047Y-58047619D02*
X47566666Y-58000000D01*
X47661904Y-57952380D01*
X47900000Y-57952380D01*
X47995238Y-58000000D01*
X48042857Y-58047619D01*
X48090476Y-58142857D01*
X48090476Y-58238095D01*
X48042857Y-58380952D01*
X47471428Y-58952380D01*
X48090476Y-58952380D01*
G04 #@! TO.C,Q1*
X28538419Y-3905238D02*
X28490800Y-4000476D01*
X28395561Y-4095714D01*
X28252704Y-4238571D01*
X28205085Y-4333809D01*
X28205085Y-4429047D01*
X28443180Y-4381428D02*
X28395561Y-4476666D01*
X28300323Y-4571904D01*
X28109847Y-4619523D01*
X27776514Y-4619523D01*
X27586038Y-4571904D01*
X27490800Y-4476666D01*
X27443180Y-4381428D01*
X27443180Y-4190952D01*
X27490800Y-4095714D01*
X27586038Y-4000476D01*
X27776514Y-3952857D01*
X28109847Y-3952857D01*
X28300323Y-4000476D01*
X28395561Y-4095714D01*
X28443180Y-4190952D01*
X28443180Y-4381428D01*
X28443180Y-3000476D02*
X28443180Y-3571904D01*
X28443180Y-3286190D02*
X27443180Y-3286190D01*
X27586038Y-3381428D01*
X27681276Y-3476666D01*
X27728895Y-3571904D01*
D11*
G04 #@! TO.C,R2*
X26606666Y-6538190D02*
X26440000Y-6300095D01*
X26320952Y-6538190D02*
X26320952Y-6038190D01*
X26511428Y-6038190D01*
X26559047Y-6062000D01*
X26582857Y-6085809D01*
X26606666Y-6133428D01*
X26606666Y-6204857D01*
X26582857Y-6252476D01*
X26559047Y-6276285D01*
X26511428Y-6300095D01*
X26320952Y-6300095D01*
X26797142Y-6085809D02*
X26820952Y-6062000D01*
X26868571Y-6038190D01*
X26987619Y-6038190D01*
X27035238Y-6062000D01*
X27059047Y-6085809D01*
X27082857Y-6133428D01*
X27082857Y-6181047D01*
X27059047Y-6252476D01*
X26773333Y-6538190D01*
X27082857Y-6538190D01*
G04 #@! TO.C,R18*
X25535771Y-683390D02*
X25369104Y-445295D01*
X25250057Y-683390D02*
X25250057Y-183390D01*
X25440533Y-183390D01*
X25488152Y-207200D01*
X25511961Y-231009D01*
X25535771Y-278628D01*
X25535771Y-350057D01*
X25511961Y-397676D01*
X25488152Y-421485D01*
X25440533Y-445295D01*
X25250057Y-445295D01*
X26011961Y-683390D02*
X25726247Y-683390D01*
X25869104Y-683390D02*
X25869104Y-183390D01*
X25821485Y-254819D01*
X25773866Y-302438D01*
X25726247Y-326247D01*
X26297676Y-397676D02*
X26250057Y-373866D01*
X26226247Y-350057D01*
X26202438Y-302438D01*
X26202438Y-278628D01*
X26226247Y-231009D01*
X26250057Y-207200D01*
X26297676Y-183390D01*
X26392914Y-183390D01*
X26440533Y-207200D01*
X26464342Y-231009D01*
X26488152Y-278628D01*
X26488152Y-302438D01*
X26464342Y-350057D01*
X26440533Y-373866D01*
X26392914Y-397676D01*
X26297676Y-397676D01*
X26250057Y-421485D01*
X26226247Y-445295D01*
X26202438Y-492914D01*
X26202438Y-588152D01*
X26226247Y-635771D01*
X26250057Y-659580D01*
X26297676Y-683390D01*
X26392914Y-683390D01*
X26440533Y-659580D01*
X26464342Y-635771D01*
X26488152Y-588152D01*
X26488152Y-492914D01*
X26464342Y-445295D01*
X26440533Y-421485D01*
X26392914Y-397676D01*
G04 #@! TO.C,R32*
X25358056Y-61144025D02*
X25071846Y-61093517D01*
X25156025Y-61346055D02*
X24802472Y-60992502D01*
X24937159Y-60857815D01*
X24987667Y-60840979D01*
X25021338Y-60840979D01*
X25071846Y-60857815D01*
X25122354Y-60908322D01*
X25139190Y-60958830D01*
X25139190Y-60992502D01*
X25122354Y-61043009D01*
X24987667Y-61177696D01*
X25122354Y-60672620D02*
X25341220Y-60453754D01*
X25358056Y-60706292D01*
X25408564Y-60655784D01*
X25459071Y-60638948D01*
X25492743Y-60638948D01*
X25543251Y-60655784D01*
X25627430Y-60739964D01*
X25644266Y-60790471D01*
X25644266Y-60824143D01*
X25627430Y-60874651D01*
X25526415Y-60975666D01*
X25475907Y-60992502D01*
X25442235Y-60992502D01*
X25509579Y-60352738D02*
X25509579Y-60319067D01*
X25526415Y-60268559D01*
X25610594Y-60184380D01*
X25661102Y-60167544D01*
X25694774Y-60167544D01*
X25745281Y-60184380D01*
X25778953Y-60218051D01*
X25812625Y-60285395D01*
X25812625Y-60689456D01*
X26031491Y-60470590D01*
G04 #@! TO.C,C40*
X29618446Y-60309045D02*
X29584774Y-60309045D01*
X29517431Y-60275373D01*
X29483759Y-60241702D01*
X29450087Y-60174358D01*
X29450087Y-60107015D01*
X29466923Y-60056507D01*
X29517431Y-59972328D01*
X29567938Y-59921820D01*
X29652118Y-59871312D01*
X29702625Y-59854477D01*
X29769969Y-59854477D01*
X29837312Y-59888148D01*
X29870984Y-59921820D01*
X29904656Y-59989164D01*
X29904656Y-60022835D01*
X30123522Y-60410061D02*
X29887820Y-60645763D01*
X30174030Y-60191194D02*
X29837312Y-60359553D01*
X30056179Y-60578419D01*
X30493912Y-60544748D02*
X30527583Y-60578419D01*
X30544419Y-60628927D01*
X30544419Y-60662599D01*
X30527583Y-60713106D01*
X30477076Y-60797286D01*
X30392896Y-60881465D01*
X30308717Y-60931973D01*
X30258209Y-60948809D01*
X30224538Y-60948809D01*
X30174030Y-60931973D01*
X30140358Y-60898301D01*
X30123522Y-60847793D01*
X30123522Y-60814122D01*
X30140358Y-60763614D01*
X30190866Y-60679435D01*
X30275045Y-60595255D01*
X30359225Y-60544748D01*
X30409732Y-60527912D01*
X30443404Y-60527912D01*
X30493912Y-60544748D01*
G04 #@! TO.C,R27*
X56650771Y-1064390D02*
X56484104Y-826295D01*
X56365057Y-1064390D02*
X56365057Y-564390D01*
X56555533Y-564390D01*
X56603152Y-588200D01*
X56626961Y-612009D01*
X56650771Y-659628D01*
X56650771Y-731057D01*
X56626961Y-778676D01*
X56603152Y-802485D01*
X56555533Y-826295D01*
X56365057Y-826295D01*
X56841247Y-612009D02*
X56865057Y-588200D01*
X56912676Y-564390D01*
X57031723Y-564390D01*
X57079342Y-588200D01*
X57103152Y-612009D01*
X57126961Y-659628D01*
X57126961Y-707247D01*
X57103152Y-778676D01*
X56817438Y-1064390D01*
X57126961Y-1064390D01*
X57293628Y-564390D02*
X57626961Y-564390D01*
X57412676Y-1064390D01*
G04 #@! TO.C,C8*
X38868411Y-19108393D02*
X38892220Y-19132202D01*
X38916030Y-19203631D01*
X38916030Y-19251250D01*
X38892220Y-19322679D01*
X38844601Y-19370298D01*
X38796982Y-19394107D01*
X38701744Y-19417917D01*
X38630316Y-19417917D01*
X38535078Y-19394107D01*
X38487459Y-19370298D01*
X38439840Y-19322679D01*
X38416030Y-19251250D01*
X38416030Y-19203631D01*
X38439840Y-19132202D01*
X38463649Y-19108393D01*
X38630316Y-18822679D02*
X38606506Y-18870298D01*
X38582697Y-18894107D01*
X38535078Y-18917917D01*
X38511268Y-18917917D01*
X38463649Y-18894107D01*
X38439840Y-18870298D01*
X38416030Y-18822679D01*
X38416030Y-18727440D01*
X38439840Y-18679821D01*
X38463649Y-18656012D01*
X38511268Y-18632202D01*
X38535078Y-18632202D01*
X38582697Y-18656012D01*
X38606506Y-18679821D01*
X38630316Y-18727440D01*
X38630316Y-18822679D01*
X38654125Y-18870298D01*
X38677935Y-18894107D01*
X38725554Y-18917917D01*
X38820792Y-18917917D01*
X38868411Y-18894107D01*
X38892220Y-18870298D01*
X38916030Y-18822679D01*
X38916030Y-18727440D01*
X38892220Y-18679821D01*
X38868411Y-18656012D01*
X38820792Y-18632202D01*
X38725554Y-18632202D01*
X38677935Y-18656012D01*
X38654125Y-18679821D01*
X38630316Y-18727440D01*
D12*
G04 #@! TO.C,D1*
X53761904Y-33052380D02*
X53761904Y-32052380D01*
X54000000Y-32052380D01*
X54142857Y-32100000D01*
X54238095Y-32195238D01*
X54285714Y-32290476D01*
X54333333Y-32480952D01*
X54333333Y-32623809D01*
X54285714Y-32814285D01*
X54238095Y-32909523D01*
X54142857Y-33004761D01*
X54000000Y-33052380D01*
X53761904Y-33052380D01*
X55285714Y-33052380D02*
X54714285Y-33052380D01*
X55000000Y-33052380D02*
X55000000Y-32052380D01*
X54904761Y-32195238D01*
X54809523Y-32290476D01*
X54714285Y-32338095D01*
D11*
G04 #@! TO.C,C28*
X54978571Y-34478571D02*
X54954761Y-34502380D01*
X54883333Y-34526190D01*
X54835714Y-34526190D01*
X54764285Y-34502380D01*
X54716666Y-34454761D01*
X54692857Y-34407142D01*
X54669047Y-34311904D01*
X54669047Y-34240476D01*
X54692857Y-34145238D01*
X54716666Y-34097619D01*
X54764285Y-34050000D01*
X54835714Y-34026190D01*
X54883333Y-34026190D01*
X54954761Y-34050000D01*
X54978571Y-34073809D01*
X55169047Y-34073809D02*
X55192857Y-34050000D01*
X55240476Y-34026190D01*
X55359523Y-34026190D01*
X55407142Y-34050000D01*
X55430952Y-34073809D01*
X55454761Y-34121428D01*
X55454761Y-34169047D01*
X55430952Y-34240476D01*
X55145238Y-34526190D01*
X55454761Y-34526190D01*
X55740476Y-34240476D02*
X55692857Y-34216666D01*
X55669047Y-34192857D01*
X55645238Y-34145238D01*
X55645238Y-34121428D01*
X55669047Y-34073809D01*
X55692857Y-34050000D01*
X55740476Y-34026190D01*
X55835714Y-34026190D01*
X55883333Y-34050000D01*
X55907142Y-34073809D01*
X55930952Y-34121428D01*
X55930952Y-34145238D01*
X55907142Y-34192857D01*
X55883333Y-34216666D01*
X55835714Y-34240476D01*
X55740476Y-34240476D01*
X55692857Y-34264285D01*
X55669047Y-34288095D01*
X55645238Y-34335714D01*
X55645238Y-34430952D01*
X55669047Y-34478571D01*
X55692857Y-34502380D01*
X55740476Y-34526190D01*
X55835714Y-34526190D01*
X55883333Y-34502380D01*
X55907142Y-34478571D01*
X55930952Y-34430952D01*
X55930952Y-34335714D01*
X55907142Y-34288095D01*
X55883333Y-34264285D01*
X55835714Y-34240476D01*
G04 #@! TO.C,R41*
X34531676Y-56421112D02*
X34245466Y-56370604D01*
X34329645Y-56623142D02*
X33976092Y-56269589D01*
X34110779Y-56134902D01*
X34161287Y-56118066D01*
X34194958Y-56118066D01*
X34245466Y-56134902D01*
X34295974Y-56185409D01*
X34312810Y-56235917D01*
X34312810Y-56269589D01*
X34295974Y-56320096D01*
X34161287Y-56454783D01*
X34599020Y-55882364D02*
X34834722Y-56118066D01*
X34380153Y-55831856D02*
X34548512Y-56168574D01*
X34767378Y-55949707D01*
X35205111Y-55747677D02*
X35003081Y-55949707D01*
X35104096Y-55848692D02*
X34750542Y-55495138D01*
X34767378Y-55579318D01*
X34767378Y-55646661D01*
X34750542Y-55697169D01*
G04 #@! TO.C,C35*
X32664984Y-49121553D02*
X32664984Y-49155225D01*
X32631312Y-49222568D01*
X32597641Y-49256240D01*
X32530297Y-49289912D01*
X32462954Y-49289912D01*
X32412446Y-49273076D01*
X32328267Y-49222568D01*
X32277759Y-49172061D01*
X32227251Y-49087881D01*
X32210416Y-49037374D01*
X32210416Y-48970030D01*
X32244087Y-48902687D01*
X32277759Y-48869015D01*
X32345103Y-48835343D01*
X32378774Y-48835343D01*
X32462954Y-48683820D02*
X32681820Y-48464954D01*
X32698656Y-48717492D01*
X32749164Y-48666984D01*
X32799671Y-48650148D01*
X32833343Y-48650148D01*
X32883851Y-48666984D01*
X32968030Y-48751164D01*
X32984866Y-48801671D01*
X32984866Y-48835343D01*
X32968030Y-48885851D01*
X32867015Y-48986866D01*
X32816507Y-49003702D01*
X32782835Y-49003702D01*
X33001702Y-48145072D02*
X32833343Y-48313431D01*
X32984866Y-48498625D01*
X32984866Y-48464954D01*
X33001702Y-48414446D01*
X33085881Y-48330267D01*
X33136389Y-48313431D01*
X33170061Y-48313431D01*
X33220568Y-48330267D01*
X33304748Y-48414446D01*
X33321583Y-48464954D01*
X33321583Y-48498625D01*
X33304748Y-48549133D01*
X33220568Y-48633312D01*
X33170061Y-48650148D01*
X33136389Y-48650148D01*
G04 #@! TO.C,R34*
X34349657Y-44583225D02*
X34063447Y-44532717D01*
X34147626Y-44785255D02*
X33794073Y-44431702D01*
X33928760Y-44297015D01*
X33979268Y-44280179D01*
X34012939Y-44280179D01*
X34063447Y-44297015D01*
X34113955Y-44347522D01*
X34130791Y-44398030D01*
X34130791Y-44431702D01*
X34113955Y-44482209D01*
X33979268Y-44616896D01*
X34113955Y-44111820D02*
X34332821Y-43892954D01*
X34349657Y-44145492D01*
X34400165Y-44094984D01*
X34450672Y-44078148D01*
X34484344Y-44078148D01*
X34534852Y-44094984D01*
X34619031Y-44179164D01*
X34635867Y-44229671D01*
X34635867Y-44263343D01*
X34619031Y-44313851D01*
X34518016Y-44414866D01*
X34467508Y-44431702D01*
X34433836Y-44431702D01*
X34753718Y-43707759D02*
X34989420Y-43943461D01*
X34534852Y-43657251D02*
X34703210Y-43993969D01*
X34922077Y-43775103D01*
G04 #@! TO.C,R8*
X37775250Y-19067753D02*
X37537155Y-19234420D01*
X37775250Y-19353467D02*
X37275250Y-19353467D01*
X37275250Y-19162991D01*
X37299060Y-19115372D01*
X37322869Y-19091562D01*
X37370488Y-19067753D01*
X37441917Y-19067753D01*
X37489536Y-19091562D01*
X37513345Y-19115372D01*
X37537155Y-19162991D01*
X37537155Y-19353467D01*
X37489536Y-18782039D02*
X37465726Y-18829658D01*
X37441917Y-18853467D01*
X37394298Y-18877277D01*
X37370488Y-18877277D01*
X37322869Y-18853467D01*
X37299060Y-18829658D01*
X37275250Y-18782039D01*
X37275250Y-18686800D01*
X37299060Y-18639181D01*
X37322869Y-18615372D01*
X37370488Y-18591562D01*
X37394298Y-18591562D01*
X37441917Y-18615372D01*
X37465726Y-18639181D01*
X37489536Y-18686800D01*
X37489536Y-18782039D01*
X37513345Y-18829658D01*
X37537155Y-18853467D01*
X37584774Y-18877277D01*
X37680012Y-18877277D01*
X37727631Y-18853467D01*
X37751440Y-18829658D01*
X37775250Y-18782039D01*
X37775250Y-18686800D01*
X37751440Y-18639181D01*
X37727631Y-18615372D01*
X37680012Y-18591562D01*
X37584774Y-18591562D01*
X37537155Y-18615372D01*
X37513345Y-18639181D01*
X37489536Y-18686800D01*
G04 #@! TO.C,R39*
X14196190Y-48534868D02*
X13958095Y-48701535D01*
X14196190Y-48820582D02*
X13696190Y-48820582D01*
X13696190Y-48630106D01*
X13720000Y-48582487D01*
X13743809Y-48558678D01*
X13791428Y-48534868D01*
X13862857Y-48534868D01*
X13910476Y-48558678D01*
X13934285Y-48582487D01*
X13958095Y-48630106D01*
X13958095Y-48820582D01*
X13696190Y-48368201D02*
X13696190Y-48058678D01*
X13886666Y-48225344D01*
X13886666Y-48153916D01*
X13910476Y-48106297D01*
X13934285Y-48082487D01*
X13981904Y-48058678D01*
X14100952Y-48058678D01*
X14148571Y-48082487D01*
X14172380Y-48106297D01*
X14196190Y-48153916D01*
X14196190Y-48296773D01*
X14172380Y-48344392D01*
X14148571Y-48368201D01*
X14196190Y-47820582D02*
X14196190Y-47725344D01*
X14172380Y-47677725D01*
X14148571Y-47653916D01*
X14077142Y-47606297D01*
X13981904Y-47582487D01*
X13791428Y-47582487D01*
X13743809Y-47606297D01*
X13720000Y-47630106D01*
X13696190Y-47677725D01*
X13696190Y-47772963D01*
X13720000Y-47820582D01*
X13743809Y-47844392D01*
X13791428Y-47868201D01*
X13910476Y-47868201D01*
X13958095Y-47844392D01*
X13981904Y-47820582D01*
X14005714Y-47772963D01*
X14005714Y-47677725D01*
X13981904Y-47630106D01*
X13958095Y-47606297D01*
X13910476Y-47582487D01*
G04 #@! TO.C,C3*
X36221751Y-19017093D02*
X36245560Y-19040902D01*
X36269370Y-19112331D01*
X36269370Y-19159950D01*
X36245560Y-19231379D01*
X36197941Y-19278998D01*
X36150322Y-19302807D01*
X36055084Y-19326617D01*
X35983656Y-19326617D01*
X35888418Y-19302807D01*
X35840799Y-19278998D01*
X35793180Y-19231379D01*
X35769370Y-19159950D01*
X35769370Y-19112331D01*
X35793180Y-19040902D01*
X35816989Y-19017093D01*
X35769370Y-18850426D02*
X35769370Y-18540902D01*
X35959846Y-18707569D01*
X35959846Y-18636140D01*
X35983656Y-18588521D01*
X36007465Y-18564712D01*
X36055084Y-18540902D01*
X36174132Y-18540902D01*
X36221751Y-18564712D01*
X36245560Y-18588521D01*
X36269370Y-18636140D01*
X36269370Y-18778998D01*
X36245560Y-18826617D01*
X36221751Y-18850426D01*
D12*
G04 #@! TO.C,U1*
X34331140Y-24202944D02*
X35140664Y-24202944D01*
X35235902Y-24155325D01*
X35283521Y-24107706D01*
X35331140Y-24012468D01*
X35331140Y-23821992D01*
X35283521Y-23726754D01*
X35235902Y-23679135D01*
X35140664Y-23631516D01*
X34331140Y-23631516D01*
X35331140Y-22631516D02*
X35331140Y-23202944D01*
X35331140Y-22917230D02*
X34331140Y-22917230D01*
X34473998Y-23012468D01*
X34569236Y-23107706D01*
X34616855Y-23202944D01*
G04 #@! TO.C,C1*
X48575933Y-32057142D02*
X48528314Y-32104761D01*
X48385457Y-32152380D01*
X48290219Y-32152380D01*
X48147361Y-32104761D01*
X48052123Y-32009523D01*
X48004504Y-31914285D01*
X47956885Y-31723809D01*
X47956885Y-31580952D01*
X48004504Y-31390476D01*
X48052123Y-31295238D01*
X48147361Y-31200000D01*
X48290219Y-31152380D01*
X48385457Y-31152380D01*
X48528314Y-31200000D01*
X48575933Y-31247619D01*
X49528314Y-32152380D02*
X48956885Y-32152380D01*
X49242600Y-32152380D02*
X49242600Y-31152380D01*
X49147361Y-31295238D01*
X49052123Y-31390476D01*
X48956885Y-31438095D01*
D11*
G04 #@! TO.C,R40*
X15466190Y-48529788D02*
X15228095Y-48696455D01*
X15466190Y-48815502D02*
X14966190Y-48815502D01*
X14966190Y-48625026D01*
X14990000Y-48577407D01*
X15013809Y-48553598D01*
X15061428Y-48529788D01*
X15132857Y-48529788D01*
X15180476Y-48553598D01*
X15204285Y-48577407D01*
X15228095Y-48625026D01*
X15228095Y-48815502D01*
X15132857Y-48101217D02*
X15466190Y-48101217D01*
X14942380Y-48220264D02*
X15299523Y-48339312D01*
X15299523Y-48029788D01*
X14966190Y-47744074D02*
X14966190Y-47696455D01*
X14990000Y-47648836D01*
X15013809Y-47625026D01*
X15061428Y-47601217D01*
X15156666Y-47577407D01*
X15275714Y-47577407D01*
X15370952Y-47601217D01*
X15418571Y-47625026D01*
X15442380Y-47648836D01*
X15466190Y-47696455D01*
X15466190Y-47744074D01*
X15442380Y-47791693D01*
X15418571Y-47815502D01*
X15370952Y-47839312D01*
X15275714Y-47863121D01*
X15156666Y-47863121D01*
X15061428Y-47839312D01*
X15013809Y-47815502D01*
X14990000Y-47791693D01*
X14966190Y-47744074D01*
G04 #@! TO.C,C41*
X23146446Y-49198984D02*
X23112774Y-49198984D01*
X23045431Y-49165312D01*
X23011759Y-49131641D01*
X22978087Y-49064297D01*
X22978087Y-48996954D01*
X22994923Y-48946446D01*
X23045431Y-48862267D01*
X23095938Y-48811759D01*
X23180118Y-48761251D01*
X23230625Y-48744416D01*
X23297969Y-48744416D01*
X23365312Y-48778087D01*
X23398984Y-48811759D01*
X23432656Y-48879103D01*
X23432656Y-48912774D01*
X23651522Y-49300000D02*
X23415820Y-49535702D01*
X23702030Y-49081133D02*
X23365312Y-49249492D01*
X23584179Y-49468358D01*
X23786209Y-49906091D02*
X23584179Y-49704061D01*
X23685194Y-49805076D02*
X24038748Y-49451522D01*
X23954568Y-49468358D01*
X23887225Y-49468358D01*
X23836717Y-49451522D01*
G04 #@! TO.C,C63*
X63778571Y-6021428D02*
X63802380Y-6045238D01*
X63826190Y-6116666D01*
X63826190Y-6164285D01*
X63802380Y-6235714D01*
X63754761Y-6283333D01*
X63707142Y-6307142D01*
X63611904Y-6330952D01*
X63540476Y-6330952D01*
X63445238Y-6307142D01*
X63397619Y-6283333D01*
X63350000Y-6235714D01*
X63326190Y-6164285D01*
X63326190Y-6116666D01*
X63350000Y-6045238D01*
X63373809Y-6021428D01*
X63326190Y-5592857D02*
X63326190Y-5688095D01*
X63350000Y-5735714D01*
X63373809Y-5759523D01*
X63445238Y-5807142D01*
X63540476Y-5830952D01*
X63730952Y-5830952D01*
X63778571Y-5807142D01*
X63802380Y-5783333D01*
X63826190Y-5735714D01*
X63826190Y-5640476D01*
X63802380Y-5592857D01*
X63778571Y-5569047D01*
X63730952Y-5545238D01*
X63611904Y-5545238D01*
X63564285Y-5569047D01*
X63540476Y-5592857D01*
X63516666Y-5640476D01*
X63516666Y-5735714D01*
X63540476Y-5783333D01*
X63564285Y-5807142D01*
X63611904Y-5830952D01*
X63326190Y-5378571D02*
X63326190Y-5069047D01*
X63516666Y-5235714D01*
X63516666Y-5164285D01*
X63540476Y-5116666D01*
X63564285Y-5092857D01*
X63611904Y-5069047D01*
X63730952Y-5069047D01*
X63778571Y-5092857D01*
X63802380Y-5116666D01*
X63826190Y-5164285D01*
X63826190Y-5307142D01*
X63802380Y-5354761D01*
X63778571Y-5378571D01*
G04 #@! TO.C,C48*
X30634446Y-58826984D02*
X30600774Y-58826984D01*
X30533431Y-58793312D01*
X30499759Y-58759641D01*
X30466087Y-58692297D01*
X30466087Y-58624954D01*
X30482923Y-58574446D01*
X30533431Y-58490267D01*
X30583938Y-58439759D01*
X30668118Y-58389251D01*
X30718625Y-58372416D01*
X30785969Y-58372416D01*
X30853312Y-58406087D01*
X30886984Y-58439759D01*
X30920656Y-58507103D01*
X30920656Y-58540774D01*
X31139522Y-58928000D02*
X30903820Y-59163702D01*
X31190030Y-58709133D02*
X30853312Y-58877492D01*
X31072179Y-59096358D01*
X31341553Y-59197374D02*
X31324717Y-59146866D01*
X31324717Y-59113194D01*
X31341553Y-59062687D01*
X31358389Y-59045851D01*
X31408896Y-59029015D01*
X31442568Y-59029015D01*
X31493076Y-59045851D01*
X31560419Y-59113194D01*
X31577255Y-59163702D01*
X31577255Y-59197374D01*
X31560419Y-59247881D01*
X31543583Y-59264717D01*
X31493076Y-59281553D01*
X31459404Y-59281553D01*
X31408896Y-59264717D01*
X31341553Y-59197374D01*
X31291045Y-59180538D01*
X31257374Y-59180538D01*
X31206866Y-59197374D01*
X31139522Y-59264717D01*
X31122687Y-59315225D01*
X31122687Y-59348896D01*
X31139522Y-59399404D01*
X31206866Y-59466748D01*
X31257374Y-59483583D01*
X31291045Y-59483583D01*
X31341553Y-59466748D01*
X31408896Y-59399404D01*
X31425732Y-59348896D01*
X31425732Y-59315225D01*
X31408896Y-59264717D01*
G04 #@! TO.C,C42*
X30886984Y-48359553D02*
X30886984Y-48393225D01*
X30853312Y-48460568D01*
X30819641Y-48494240D01*
X30752297Y-48527912D01*
X30684954Y-48527912D01*
X30634446Y-48511076D01*
X30550267Y-48460568D01*
X30499759Y-48410061D01*
X30449251Y-48325881D01*
X30432416Y-48275374D01*
X30432416Y-48208030D01*
X30466087Y-48140687D01*
X30499759Y-48107015D01*
X30567103Y-48073343D01*
X30600774Y-48073343D01*
X30987999Y-47854477D02*
X31223702Y-48090179D01*
X30769133Y-47803969D02*
X30937492Y-48140687D01*
X31156358Y-47921820D01*
X31072179Y-47601938D02*
X31072179Y-47568267D01*
X31089015Y-47517759D01*
X31173194Y-47433580D01*
X31223702Y-47416744D01*
X31257374Y-47416744D01*
X31307881Y-47433580D01*
X31341553Y-47467251D01*
X31375225Y-47534595D01*
X31375225Y-47938656D01*
X31594091Y-47719790D01*
G04 #@! TO.C,C46*
X32412446Y-57048984D02*
X32378774Y-57048984D01*
X32311431Y-57015312D01*
X32277759Y-56981641D01*
X32244087Y-56914297D01*
X32244087Y-56846954D01*
X32260923Y-56796446D01*
X32311431Y-56712267D01*
X32361938Y-56661759D01*
X32446118Y-56611251D01*
X32496625Y-56594416D01*
X32563969Y-56594416D01*
X32631312Y-56628087D01*
X32664984Y-56661759D01*
X32698656Y-56729103D01*
X32698656Y-56762774D01*
X32917522Y-57150000D02*
X32681820Y-57385702D01*
X32968030Y-56931133D02*
X32631312Y-57099492D01*
X32850179Y-57318358D01*
X33372091Y-57368866D02*
X33304748Y-57301522D01*
X33254240Y-57284687D01*
X33220568Y-57284687D01*
X33136389Y-57301522D01*
X33052209Y-57352030D01*
X32917522Y-57486717D01*
X32900687Y-57537225D01*
X32900687Y-57570896D01*
X32917522Y-57621404D01*
X32984866Y-57688748D01*
X33035374Y-57705583D01*
X33069045Y-57705583D01*
X33119553Y-57688748D01*
X33203732Y-57604568D01*
X33220568Y-57554061D01*
X33220568Y-57520389D01*
X33203732Y-57469881D01*
X33136389Y-57402538D01*
X33085881Y-57385702D01*
X33052209Y-57385702D01*
X33001702Y-57402538D01*
D12*
G04 #@! TO.C,D14*
X38404060Y-17697525D02*
X37404060Y-17697525D01*
X37404060Y-17459430D01*
X37451680Y-17316573D01*
X37546918Y-17221335D01*
X37642156Y-17173716D01*
X37832632Y-17126097D01*
X37975489Y-17126097D01*
X38165965Y-17173716D01*
X38261203Y-17221335D01*
X38356441Y-17316573D01*
X38404060Y-17459430D01*
X38404060Y-17697525D01*
X38404060Y-16173716D02*
X38404060Y-16745144D01*
X38404060Y-16459430D02*
X37404060Y-16459430D01*
X37546918Y-16554668D01*
X37642156Y-16649906D01*
X37689775Y-16745144D01*
X37737394Y-15316573D02*
X38404060Y-15316573D01*
X37356441Y-15554668D02*
X38070727Y-15792763D01*
X38070727Y-15173716D01*
D11*
G04 #@! TO.C,C43*
X39046771Y-53518571D02*
X39022961Y-53542380D01*
X38951533Y-53566190D01*
X38903914Y-53566190D01*
X38832485Y-53542380D01*
X38784866Y-53494761D01*
X38761057Y-53447142D01*
X38737247Y-53351904D01*
X38737247Y-53280476D01*
X38761057Y-53185238D01*
X38784866Y-53137619D01*
X38832485Y-53090000D01*
X38903914Y-53066190D01*
X38951533Y-53066190D01*
X39022961Y-53090000D01*
X39046771Y-53113809D01*
X39475342Y-53232857D02*
X39475342Y-53566190D01*
X39356295Y-53042380D02*
X39237247Y-53399523D01*
X39546771Y-53399523D01*
X39689628Y-53066190D02*
X39999152Y-53066190D01*
X39832485Y-53256666D01*
X39903914Y-53256666D01*
X39951533Y-53280476D01*
X39975342Y-53304285D01*
X39999152Y-53351904D01*
X39999152Y-53470952D01*
X39975342Y-53518571D01*
X39951533Y-53542380D01*
X39903914Y-53566190D01*
X39761057Y-53566190D01*
X39713438Y-53542380D01*
X39689628Y-53518571D01*
G04 #@! TO.C,C44*
X33426984Y-49883553D02*
X33426984Y-49917225D01*
X33393312Y-49984568D01*
X33359641Y-50018240D01*
X33292297Y-50051912D01*
X33224954Y-50051912D01*
X33174446Y-50035076D01*
X33090267Y-49984568D01*
X33039759Y-49934061D01*
X32989251Y-49849881D01*
X32972416Y-49799374D01*
X32972416Y-49732030D01*
X33006087Y-49664687D01*
X33039759Y-49631015D01*
X33107103Y-49597343D01*
X33140774Y-49597343D01*
X33528000Y-49378477D02*
X33763702Y-49614179D01*
X33309133Y-49327969D02*
X33477492Y-49664687D01*
X33696358Y-49445820D01*
X33864717Y-49041759D02*
X34100419Y-49277461D01*
X33645851Y-48991251D02*
X33814209Y-49327969D01*
X34033076Y-49109103D01*
G04 #@! TO.C,C45*
X21336584Y-60119753D02*
X21336584Y-60153425D01*
X21302912Y-60220768D01*
X21269241Y-60254440D01*
X21201897Y-60288112D01*
X21134554Y-60288112D01*
X21084046Y-60271276D01*
X20999867Y-60220768D01*
X20949359Y-60170261D01*
X20898851Y-60086081D01*
X20882016Y-60035574D01*
X20882016Y-59968230D01*
X20915687Y-59900887D01*
X20949359Y-59867215D01*
X21016703Y-59833543D01*
X21050374Y-59833543D01*
X21437599Y-59614677D02*
X21673302Y-59850379D01*
X21218733Y-59564169D02*
X21387092Y-59900887D01*
X21605958Y-59682020D01*
X21673302Y-59143272D02*
X21504943Y-59311631D01*
X21656466Y-59496825D01*
X21656466Y-59463154D01*
X21673302Y-59412646D01*
X21757481Y-59328467D01*
X21807989Y-59311631D01*
X21841661Y-59311631D01*
X21892168Y-59328467D01*
X21976348Y-59412646D01*
X21993183Y-59463154D01*
X21993183Y-59496825D01*
X21976348Y-59547333D01*
X21892168Y-59631512D01*
X21841661Y-59648348D01*
X21807989Y-59648348D01*
G04 #@! TO.C,C53*
X27840446Y-46888984D02*
X27806774Y-46888984D01*
X27739431Y-46855312D01*
X27705759Y-46821641D01*
X27672087Y-46754297D01*
X27672087Y-46686954D01*
X27688923Y-46636446D01*
X27739431Y-46552267D01*
X27789938Y-46501759D01*
X27874118Y-46451251D01*
X27924625Y-46434416D01*
X27991969Y-46434416D01*
X28059312Y-46468087D01*
X28092984Y-46501759D01*
X28126656Y-46569103D01*
X28126656Y-46602774D01*
X28480209Y-46888984D02*
X28311851Y-46720625D01*
X28126656Y-46872148D01*
X28160328Y-46872148D01*
X28210835Y-46888984D01*
X28295015Y-46973164D01*
X28311851Y-47023671D01*
X28311851Y-47057343D01*
X28295015Y-47107851D01*
X28210835Y-47192030D01*
X28160328Y-47208866D01*
X28126656Y-47208866D01*
X28076148Y-47192030D01*
X27991969Y-47107851D01*
X27975133Y-47057343D01*
X27975133Y-47023671D01*
X28614896Y-47023671D02*
X28833763Y-47242538D01*
X28581225Y-47259374D01*
X28631732Y-47309881D01*
X28648568Y-47360389D01*
X28648568Y-47394061D01*
X28631732Y-47444568D01*
X28547553Y-47528748D01*
X28497045Y-47545583D01*
X28463374Y-47545583D01*
X28412866Y-47528748D01*
X28311851Y-47427732D01*
X28295015Y-47377225D01*
X28295015Y-47343553D01*
G04 #@! TO.C,C50*
X23800384Y-59865753D02*
X23800384Y-59899425D01*
X23766712Y-59966768D01*
X23733041Y-60000440D01*
X23665697Y-60034112D01*
X23598354Y-60034112D01*
X23547846Y-60017276D01*
X23463667Y-59966768D01*
X23413159Y-59916261D01*
X23362651Y-59832081D01*
X23345816Y-59781574D01*
X23345816Y-59714230D01*
X23379487Y-59646887D01*
X23413159Y-59613215D01*
X23480503Y-59579543D01*
X23514174Y-59579543D01*
X23800384Y-59225990D02*
X23632025Y-59394348D01*
X23783548Y-59579543D01*
X23783548Y-59545871D01*
X23800384Y-59495364D01*
X23884564Y-59411184D01*
X23935071Y-59394348D01*
X23968743Y-59394348D01*
X24019251Y-59411184D01*
X24103430Y-59495364D01*
X24120266Y-59545871D01*
X24120266Y-59579543D01*
X24103430Y-59630051D01*
X24019251Y-59714230D01*
X23968743Y-59731066D01*
X23935071Y-59731066D01*
X24036087Y-58990287D02*
X24069758Y-58956616D01*
X24120266Y-58939780D01*
X24153938Y-58939780D01*
X24204445Y-58956616D01*
X24288625Y-59007123D01*
X24372804Y-59091303D01*
X24423312Y-59175482D01*
X24440148Y-59225990D01*
X24440148Y-59259661D01*
X24423312Y-59310169D01*
X24389640Y-59343841D01*
X24339132Y-59360677D01*
X24305461Y-59360677D01*
X24254953Y-59343841D01*
X24170774Y-59293333D01*
X24086594Y-59209154D01*
X24036087Y-59124974D01*
X24019251Y-59074467D01*
X24019251Y-59040795D01*
X24036087Y-58990287D01*
G04 #@! TO.C,C4*
X60706771Y-30410933D02*
X60730580Y-30434742D01*
X60754390Y-30506171D01*
X60754390Y-30553790D01*
X60730580Y-30625219D01*
X60682961Y-30672838D01*
X60635342Y-30696647D01*
X60540104Y-30720457D01*
X60468676Y-30720457D01*
X60373438Y-30696647D01*
X60325819Y-30672838D01*
X60278200Y-30625219D01*
X60254390Y-30553790D01*
X60254390Y-30506171D01*
X60278200Y-30434742D01*
X60302009Y-30410933D01*
X60421057Y-29982361D02*
X60754390Y-29982361D01*
X60230580Y-30101409D02*
X60587723Y-30220457D01*
X60587723Y-29910933D01*
G04 #@! TO.C,C55*
X36051371Y-11837171D02*
X36027561Y-11860980D01*
X35956133Y-11884790D01*
X35908514Y-11884790D01*
X35837085Y-11860980D01*
X35789466Y-11813361D01*
X35765657Y-11765742D01*
X35741847Y-11670504D01*
X35741847Y-11599076D01*
X35765657Y-11503838D01*
X35789466Y-11456219D01*
X35837085Y-11408600D01*
X35908514Y-11384790D01*
X35956133Y-11384790D01*
X36027561Y-11408600D01*
X36051371Y-11432409D01*
X36503752Y-11384790D02*
X36265657Y-11384790D01*
X36241847Y-11622885D01*
X36265657Y-11599076D01*
X36313276Y-11575266D01*
X36432323Y-11575266D01*
X36479942Y-11599076D01*
X36503752Y-11622885D01*
X36527561Y-11670504D01*
X36527561Y-11789552D01*
X36503752Y-11837171D01*
X36479942Y-11860980D01*
X36432323Y-11884790D01*
X36313276Y-11884790D01*
X36265657Y-11860980D01*
X36241847Y-11837171D01*
X36979942Y-11384790D02*
X36741847Y-11384790D01*
X36718038Y-11622885D01*
X36741847Y-11599076D01*
X36789466Y-11575266D01*
X36908514Y-11575266D01*
X36956133Y-11599076D01*
X36979942Y-11622885D01*
X37003752Y-11670504D01*
X37003752Y-11789552D01*
X36979942Y-11837171D01*
X36956133Y-11860980D01*
X36908514Y-11884790D01*
X36789466Y-11884790D01*
X36741847Y-11860980D01*
X36718038Y-11837171D01*
G04 #@! TO.C,C57*
X36201231Y-16485371D02*
X36177421Y-16509180D01*
X36105993Y-16532990D01*
X36058374Y-16532990D01*
X35986945Y-16509180D01*
X35939326Y-16461561D01*
X35915517Y-16413942D01*
X35891707Y-16318704D01*
X35891707Y-16247276D01*
X35915517Y-16152038D01*
X35939326Y-16104419D01*
X35986945Y-16056800D01*
X36058374Y-16032990D01*
X36105993Y-16032990D01*
X36177421Y-16056800D01*
X36201231Y-16080609D01*
X36653612Y-16032990D02*
X36415517Y-16032990D01*
X36391707Y-16271085D01*
X36415517Y-16247276D01*
X36463136Y-16223466D01*
X36582183Y-16223466D01*
X36629802Y-16247276D01*
X36653612Y-16271085D01*
X36677421Y-16318704D01*
X36677421Y-16437752D01*
X36653612Y-16485371D01*
X36629802Y-16509180D01*
X36582183Y-16532990D01*
X36463136Y-16532990D01*
X36415517Y-16509180D01*
X36391707Y-16485371D01*
X36844088Y-16032990D02*
X37177421Y-16032990D01*
X36963136Y-16532990D01*
G04 #@! TO.C,C49*
X20718144Y-51902813D02*
X20684472Y-51902813D01*
X20617129Y-51869141D01*
X20583457Y-51835470D01*
X20549785Y-51768126D01*
X20549785Y-51700783D01*
X20566621Y-51650275D01*
X20617129Y-51566096D01*
X20667636Y-51515588D01*
X20751816Y-51465080D01*
X20802323Y-51448245D01*
X20869667Y-51448245D01*
X20937010Y-51481916D01*
X20970682Y-51515588D01*
X21004354Y-51582932D01*
X21004354Y-51616603D01*
X21223220Y-52003829D02*
X20987518Y-52239531D01*
X21273728Y-51784962D02*
X20937010Y-51953321D01*
X21155877Y-52172187D01*
X21189549Y-52441561D02*
X21256892Y-52508905D01*
X21307400Y-52525741D01*
X21341072Y-52525741D01*
X21425251Y-52508905D01*
X21509430Y-52458397D01*
X21644117Y-52323710D01*
X21660953Y-52273203D01*
X21660953Y-52239531D01*
X21644117Y-52189023D01*
X21576774Y-52121680D01*
X21526266Y-52104844D01*
X21492594Y-52104844D01*
X21442087Y-52121680D01*
X21357907Y-52205859D01*
X21341072Y-52256367D01*
X21341072Y-52290038D01*
X21357907Y-52340546D01*
X21425251Y-52407890D01*
X21475759Y-52424725D01*
X21509430Y-52424725D01*
X21559938Y-52407890D01*
G04 #@! TO.C,C47*
X24792446Y-48158984D02*
X24758774Y-48158984D01*
X24691431Y-48125312D01*
X24657759Y-48091641D01*
X24624087Y-48024297D01*
X24624087Y-47956954D01*
X24640923Y-47906446D01*
X24691431Y-47822267D01*
X24741938Y-47771759D01*
X24826118Y-47721251D01*
X24876625Y-47704416D01*
X24943969Y-47704416D01*
X25011312Y-47738087D01*
X25044984Y-47771759D01*
X25078656Y-47839103D01*
X25078656Y-47872774D01*
X25297522Y-48260000D02*
X25061820Y-48495702D01*
X25348030Y-48041133D02*
X25011312Y-48209492D01*
X25230179Y-48428358D01*
X25566896Y-48293671D02*
X25802599Y-48529374D01*
X25297522Y-48731404D01*
G04 #@! TO.C,C51*
X12954771Y-68291828D02*
X12978580Y-68315638D01*
X13002390Y-68387066D01*
X13002390Y-68434685D01*
X12978580Y-68506114D01*
X12930961Y-68553733D01*
X12883342Y-68577542D01*
X12788104Y-68601352D01*
X12716676Y-68601352D01*
X12621438Y-68577542D01*
X12573819Y-68553733D01*
X12526200Y-68506114D01*
X12502390Y-68434685D01*
X12502390Y-68387066D01*
X12526200Y-68315638D01*
X12550009Y-68291828D01*
X12502390Y-67839447D02*
X12502390Y-68077542D01*
X12740485Y-68101352D01*
X12716676Y-68077542D01*
X12692866Y-68029923D01*
X12692866Y-67910876D01*
X12716676Y-67863257D01*
X12740485Y-67839447D01*
X12788104Y-67815638D01*
X12907152Y-67815638D01*
X12954771Y-67839447D01*
X12978580Y-67863257D01*
X13002390Y-67910876D01*
X13002390Y-68029923D01*
X12978580Y-68077542D01*
X12954771Y-68101352D01*
X13002390Y-67339447D02*
X13002390Y-67625161D01*
X13002390Y-67482304D02*
X12502390Y-67482304D01*
X12573819Y-67529923D01*
X12621438Y-67577542D01*
X12645247Y-67625161D01*
G04 #@! TO.C,C52*
X19863384Y-55649353D02*
X19863384Y-55683025D01*
X19829712Y-55750368D01*
X19796041Y-55784040D01*
X19728697Y-55817712D01*
X19661354Y-55817712D01*
X19610846Y-55800876D01*
X19526667Y-55750368D01*
X19476159Y-55699861D01*
X19425651Y-55615681D01*
X19408816Y-55565174D01*
X19408816Y-55497830D01*
X19442487Y-55430487D01*
X19476159Y-55396815D01*
X19543503Y-55363143D01*
X19577174Y-55363143D01*
X19863384Y-55009590D02*
X19695025Y-55177948D01*
X19846548Y-55363143D01*
X19846548Y-55329471D01*
X19863384Y-55278964D01*
X19947564Y-55194784D01*
X19998071Y-55177948D01*
X20031743Y-55177948D01*
X20082251Y-55194784D01*
X20166430Y-55278964D01*
X20183266Y-55329471D01*
X20183266Y-55363143D01*
X20166430Y-55413651D01*
X20082251Y-55497830D01*
X20031743Y-55514666D01*
X19998071Y-55514666D01*
X20048579Y-54891738D02*
X20048579Y-54858067D01*
X20065415Y-54807559D01*
X20149594Y-54723380D01*
X20200102Y-54706544D01*
X20233774Y-54706544D01*
X20284281Y-54723380D01*
X20317953Y-54757051D01*
X20351625Y-54824395D01*
X20351625Y-55228456D01*
X20570491Y-55009590D01*
G04 #@! TO.C,R1*
X43339150Y-19944773D02*
X43101055Y-20111440D01*
X43339150Y-20230487D02*
X42839150Y-20230487D01*
X42839150Y-20040011D01*
X42862960Y-19992392D01*
X42886769Y-19968582D01*
X42934388Y-19944773D01*
X43005817Y-19944773D01*
X43053436Y-19968582D01*
X43077245Y-19992392D01*
X43101055Y-20040011D01*
X43101055Y-20230487D01*
X43339150Y-19468582D02*
X43339150Y-19754297D01*
X43339150Y-19611440D02*
X42839150Y-19611440D01*
X42910579Y-19659059D01*
X42958198Y-19706678D01*
X42982007Y-19754297D01*
D12*
G04 #@! TO.C,H3*
X2032095Y-2230380D02*
X2032095Y-1230380D01*
X2032095Y-1706571D02*
X2603523Y-1706571D01*
X2603523Y-2230380D02*
X2603523Y-1230380D01*
X2984476Y-1230380D02*
X3603523Y-1230380D01*
X3270190Y-1611333D01*
X3413047Y-1611333D01*
X3508285Y-1658952D01*
X3555904Y-1706571D01*
X3603523Y-1801809D01*
X3603523Y-2039904D01*
X3555904Y-2135142D01*
X3508285Y-2182761D01*
X3413047Y-2230380D01*
X3127333Y-2230380D01*
X3032095Y-2182761D01*
X2984476Y-2135142D01*
G04 #@! TO.C,C6*
X64243222Y-57621466D02*
X64290841Y-57669085D01*
X64338460Y-57811942D01*
X64338460Y-57907180D01*
X64290841Y-58050038D01*
X64195603Y-58145276D01*
X64100365Y-58192895D01*
X63909889Y-58240514D01*
X63767032Y-58240514D01*
X63576556Y-58192895D01*
X63481318Y-58145276D01*
X63386080Y-58050038D01*
X63338460Y-57907180D01*
X63338460Y-57811942D01*
X63386080Y-57669085D01*
X63433699Y-57621466D01*
X63338460Y-56764323D02*
X63338460Y-56954800D01*
X63386080Y-57050038D01*
X63433699Y-57097657D01*
X63576556Y-57192895D01*
X63767032Y-57240514D01*
X64147984Y-57240514D01*
X64243222Y-57192895D01*
X64290841Y-57145276D01*
X64338460Y-57050038D01*
X64338460Y-56859561D01*
X64290841Y-56764323D01*
X64243222Y-56716704D01*
X64147984Y-56669085D01*
X63909889Y-56669085D01*
X63814651Y-56716704D01*
X63767032Y-56764323D01*
X63719413Y-56859561D01*
X63719413Y-57050038D01*
X63767032Y-57145276D01*
X63814651Y-57192895D01*
X63909889Y-57240514D01*
G04 #@! TO.C,U5*
X17589595Y-50506380D02*
X17589595Y-51315904D01*
X17637214Y-51411142D01*
X17684833Y-51458761D01*
X17780071Y-51506380D01*
X17970547Y-51506380D01*
X18065785Y-51458761D01*
X18113404Y-51411142D01*
X18161023Y-51315904D01*
X18161023Y-50506380D01*
X19113404Y-50506380D02*
X18637214Y-50506380D01*
X18589595Y-50982571D01*
X18637214Y-50934952D01*
X18732452Y-50887333D01*
X18970547Y-50887333D01*
X19065785Y-50934952D01*
X19113404Y-50982571D01*
X19161023Y-51077809D01*
X19161023Y-51315904D01*
X19113404Y-51411142D01*
X19065785Y-51458761D01*
X18970547Y-51506380D01*
X18732452Y-51506380D01*
X18637214Y-51458761D01*
X18589595Y-51411142D01*
D11*
G04 #@! TO.C,R24*
X17326190Y-59321428D02*
X17088095Y-59488095D01*
X17326190Y-59607142D02*
X16826190Y-59607142D01*
X16826190Y-59416666D01*
X16850000Y-59369047D01*
X16873809Y-59345238D01*
X16921428Y-59321428D01*
X16992857Y-59321428D01*
X17040476Y-59345238D01*
X17064285Y-59369047D01*
X17088095Y-59416666D01*
X17088095Y-59607142D01*
X16873809Y-59130952D02*
X16850000Y-59107142D01*
X16826190Y-59059523D01*
X16826190Y-58940476D01*
X16850000Y-58892857D01*
X16873809Y-58869047D01*
X16921428Y-58845238D01*
X16969047Y-58845238D01*
X17040476Y-58869047D01*
X17326190Y-59154761D01*
X17326190Y-58845238D01*
X16992857Y-58416666D02*
X17326190Y-58416666D01*
X16802380Y-58535714D02*
X17159523Y-58654761D01*
X17159523Y-58345238D01*
D12*
G04 #@! TO.C,TP18*
X68362380Y-82764095D02*
X68362380Y-82192666D01*
X69362380Y-82478380D02*
X68362380Y-82478380D01*
X69362380Y-81859333D02*
X68362380Y-81859333D01*
X68362380Y-81478380D01*
X68410000Y-81383142D01*
X68457619Y-81335523D01*
X68552857Y-81287904D01*
X68695714Y-81287904D01*
X68790952Y-81335523D01*
X68838571Y-81383142D01*
X68886190Y-81478380D01*
X68886190Y-81859333D01*
X69362380Y-80335523D02*
X69362380Y-80906952D01*
X69362380Y-80621238D02*
X68362380Y-80621238D01*
X68505238Y-80716476D01*
X68600476Y-80811714D01*
X68648095Y-80906952D01*
X68790952Y-79764095D02*
X68743333Y-79859333D01*
X68695714Y-79906952D01*
X68600476Y-79954571D01*
X68552857Y-79954571D01*
X68457619Y-79906952D01*
X68410000Y-79859333D01*
X68362380Y-79764095D01*
X68362380Y-79573619D01*
X68410000Y-79478380D01*
X68457619Y-79430761D01*
X68552857Y-79383142D01*
X68600476Y-79383142D01*
X68695714Y-79430761D01*
X68743333Y-79478380D01*
X68790952Y-79573619D01*
X68790952Y-79764095D01*
X68838571Y-79859333D01*
X68886190Y-79906952D01*
X68981428Y-79954571D01*
X69171904Y-79954571D01*
X69267142Y-79906952D01*
X69314761Y-79859333D01*
X69362380Y-79764095D01*
X69362380Y-79573619D01*
X69314761Y-79478380D01*
X69267142Y-79430761D01*
X69171904Y-79383142D01*
X68981428Y-79383142D01*
X68886190Y-79430761D01*
X68838571Y-79478380D01*
X68790952Y-79573619D01*
D11*
G04 #@! TO.C,C7*
X54142231Y-61243013D02*
X54166040Y-61266822D01*
X54189850Y-61338251D01*
X54189850Y-61385870D01*
X54166040Y-61457299D01*
X54118421Y-61504918D01*
X54070802Y-61528727D01*
X53975564Y-61552537D01*
X53904136Y-61552537D01*
X53808898Y-61528727D01*
X53761279Y-61504918D01*
X53713660Y-61457299D01*
X53689850Y-61385870D01*
X53689850Y-61338251D01*
X53713660Y-61266822D01*
X53737469Y-61243013D01*
X53689850Y-61076346D02*
X53689850Y-60743013D01*
X54189850Y-60957299D01*
G04 #@! TO.C,R4*
X55852190Y-65615333D02*
X55614095Y-65782000D01*
X55852190Y-65901047D02*
X55352190Y-65901047D01*
X55352190Y-65710571D01*
X55376000Y-65662952D01*
X55399809Y-65639142D01*
X55447428Y-65615333D01*
X55518857Y-65615333D01*
X55566476Y-65639142D01*
X55590285Y-65662952D01*
X55614095Y-65710571D01*
X55614095Y-65901047D01*
X55518857Y-65186761D02*
X55852190Y-65186761D01*
X55328380Y-65305809D02*
X55685523Y-65424857D01*
X55685523Y-65115333D01*
G04 #@! TO.C,C5*
X57601711Y-55369693D02*
X57625520Y-55393502D01*
X57649330Y-55464931D01*
X57649330Y-55512550D01*
X57625520Y-55583979D01*
X57577901Y-55631598D01*
X57530282Y-55655407D01*
X57435044Y-55679217D01*
X57363616Y-55679217D01*
X57268378Y-55655407D01*
X57220759Y-55631598D01*
X57173140Y-55583979D01*
X57149330Y-55512550D01*
X57149330Y-55464931D01*
X57173140Y-55393502D01*
X57196949Y-55369693D01*
X57149330Y-54917312D02*
X57149330Y-55155407D01*
X57387425Y-55179217D01*
X57363616Y-55155407D01*
X57339806Y-55107788D01*
X57339806Y-54988740D01*
X57363616Y-54941121D01*
X57387425Y-54917312D01*
X57435044Y-54893502D01*
X57554092Y-54893502D01*
X57601711Y-54917312D01*
X57625520Y-54941121D01*
X57649330Y-54988740D01*
X57649330Y-55107788D01*
X57625520Y-55155407D01*
X57601711Y-55179217D01*
G04 #@! TO.C,D15*
X52478857Y-54582190D02*
X52478857Y-54082190D01*
X52597904Y-54082190D01*
X52669333Y-54106000D01*
X52716952Y-54153619D01*
X52740761Y-54201238D01*
X52764571Y-54296476D01*
X52764571Y-54367904D01*
X52740761Y-54463142D01*
X52716952Y-54510761D01*
X52669333Y-54558380D01*
X52597904Y-54582190D01*
X52478857Y-54582190D01*
X53240761Y-54582190D02*
X52955047Y-54582190D01*
X53097904Y-54582190D02*
X53097904Y-54082190D01*
X53050285Y-54153619D01*
X53002666Y-54201238D01*
X52955047Y-54225047D01*
X53693142Y-54082190D02*
X53455047Y-54082190D01*
X53431238Y-54320285D01*
X53455047Y-54296476D01*
X53502666Y-54272666D01*
X53621714Y-54272666D01*
X53669333Y-54296476D01*
X53693142Y-54320285D01*
X53716952Y-54367904D01*
X53716952Y-54486952D01*
X53693142Y-54534571D01*
X53669333Y-54558380D01*
X53621714Y-54582190D01*
X53502666Y-54582190D01*
X53455047Y-54558380D01*
X53431238Y-54534571D01*
D12*
G04 #@! TO.C,J6*
X53758660Y-73421213D02*
X54472946Y-73421213D01*
X54615803Y-73468832D01*
X54711041Y-73564070D01*
X54758660Y-73706927D01*
X54758660Y-73802165D01*
X53758660Y-72516451D02*
X53758660Y-72706927D01*
X53806280Y-72802165D01*
X53853899Y-72849784D01*
X53996756Y-72945022D01*
X54187232Y-72992641D01*
X54568184Y-72992641D01*
X54663422Y-72945022D01*
X54711041Y-72897403D01*
X54758660Y-72802165D01*
X54758660Y-72611689D01*
X54711041Y-72516451D01*
X54663422Y-72468832D01*
X54568184Y-72421213D01*
X54330089Y-72421213D01*
X54234851Y-72468832D01*
X54187232Y-72516451D01*
X54139613Y-72611689D01*
X54139613Y-72802165D01*
X54187232Y-72897403D01*
X54234851Y-72945022D01*
X54330089Y-72992641D01*
D11*
G04 #@! TO.C,X1*
X23345377Y-62779797D02*
X23934633Y-62897648D01*
X23581079Y-62544095D02*
X23698930Y-63133350D01*
X24254514Y-62577766D02*
X24052484Y-62779797D01*
X24153499Y-62678782D02*
X23799946Y-62325228D01*
X23816782Y-62409408D01*
X23816782Y-62476751D01*
X23799946Y-62527259D01*
D12*
G04 #@! TO.C,FB8*
X57828571Y-6333333D02*
X57828571Y-6666666D01*
X58352380Y-6666666D02*
X57352380Y-6666666D01*
X57352380Y-6190476D01*
X57828571Y-5476190D02*
X57876190Y-5333333D01*
X57923809Y-5285714D01*
X58019047Y-5238095D01*
X58161904Y-5238095D01*
X58257142Y-5285714D01*
X58304761Y-5333333D01*
X58352380Y-5428571D01*
X58352380Y-5809523D01*
X57352380Y-5809523D01*
X57352380Y-5476190D01*
X57400000Y-5380952D01*
X57447619Y-5333333D01*
X57542857Y-5285714D01*
X57638095Y-5285714D01*
X57733333Y-5333333D01*
X57780952Y-5380952D01*
X57828571Y-5476190D01*
X57828571Y-5809523D01*
X57780952Y-4666666D02*
X57733333Y-4761904D01*
X57685714Y-4809523D01*
X57590476Y-4857142D01*
X57542857Y-4857142D01*
X57447619Y-4809523D01*
X57400000Y-4761904D01*
X57352380Y-4666666D01*
X57352380Y-4476190D01*
X57400000Y-4380952D01*
X57447619Y-4333333D01*
X57542857Y-4285714D01*
X57590476Y-4285714D01*
X57685714Y-4333333D01*
X57733333Y-4380952D01*
X57780952Y-4476190D01*
X57780952Y-4666666D01*
X57828571Y-4761904D01*
X57876190Y-4809523D01*
X57971428Y-4857142D01*
X58161904Y-4857142D01*
X58257142Y-4809523D01*
X58304761Y-4761904D01*
X58352380Y-4666666D01*
X58352380Y-4476190D01*
X58304761Y-4380952D01*
X58257142Y-4333333D01*
X58161904Y-4285714D01*
X57971428Y-4285714D01*
X57876190Y-4333333D01*
X57828571Y-4380952D01*
X57780952Y-4476190D01*
G04 #@! TO.C,C64*
X47857142Y-17057142D02*
X47809523Y-17104761D01*
X47666666Y-17152380D01*
X47571428Y-17152380D01*
X47428571Y-17104761D01*
X47333333Y-17009523D01*
X47285714Y-16914285D01*
X47238095Y-16723809D01*
X47238095Y-16580952D01*
X47285714Y-16390476D01*
X47333333Y-16295238D01*
X47428571Y-16200000D01*
X47571428Y-16152380D01*
X47666666Y-16152380D01*
X47809523Y-16200000D01*
X47857142Y-16247619D01*
X48714285Y-16152380D02*
X48523809Y-16152380D01*
X48428571Y-16200000D01*
X48380952Y-16247619D01*
X48285714Y-16390476D01*
X48238095Y-16580952D01*
X48238095Y-16961904D01*
X48285714Y-17057142D01*
X48333333Y-17104761D01*
X48428571Y-17152380D01*
X48619047Y-17152380D01*
X48714285Y-17104761D01*
X48761904Y-17057142D01*
X48809523Y-16961904D01*
X48809523Y-16723809D01*
X48761904Y-16628571D01*
X48714285Y-16580952D01*
X48619047Y-16533333D01*
X48428571Y-16533333D01*
X48333333Y-16580952D01*
X48285714Y-16628571D01*
X48238095Y-16723809D01*
X49666666Y-16485714D02*
X49666666Y-17152380D01*
X49428571Y-16104761D02*
X49190476Y-16819047D01*
X49809523Y-16819047D01*
G04 #@! TO.C,H4*
X6146895Y-68879980D02*
X6146895Y-67879980D01*
X6146895Y-68356171D02*
X6718323Y-68356171D01*
X6718323Y-68879980D02*
X6718323Y-67879980D01*
X7623085Y-68213314D02*
X7623085Y-68879980D01*
X7384990Y-67832361D02*
X7146895Y-68546647D01*
X7765942Y-68546647D01*
D11*
G04 #@! TO.C,R5*
X35061305Y-45273368D02*
X34775095Y-45222860D01*
X34859274Y-45475398D02*
X34505721Y-45121845D01*
X34640408Y-44987158D01*
X34690915Y-44970322D01*
X34724587Y-44970322D01*
X34775095Y-44987158D01*
X34825602Y-45037666D01*
X34842438Y-45088173D01*
X34842438Y-45121845D01*
X34825602Y-45172353D01*
X34690915Y-45307040D01*
X35027633Y-44599933D02*
X34859274Y-44768292D01*
X35010797Y-44953486D01*
X35010797Y-44919814D01*
X35027633Y-44869307D01*
X35111812Y-44785127D01*
X35162320Y-44768292D01*
X35195992Y-44768292D01*
X35246499Y-44785127D01*
X35330679Y-44869307D01*
X35347515Y-44919814D01*
X35347515Y-44953486D01*
X35330679Y-45003994D01*
X35246499Y-45088173D01*
X35195992Y-45105009D01*
X35162320Y-45105009D01*
G04 #@! TO.C,U7*
X58191447Y-58654190D02*
X58191447Y-59058952D01*
X58215257Y-59106571D01*
X58239066Y-59130380D01*
X58286685Y-59154190D01*
X58381923Y-59154190D01*
X58429542Y-59130380D01*
X58453352Y-59106571D01*
X58477161Y-59058952D01*
X58477161Y-58654190D01*
X58667638Y-58654190D02*
X59000971Y-58654190D01*
X58786685Y-59154190D01*
G04 #@! TO.C,C37*
X52255391Y-56691751D02*
X52231581Y-56715560D01*
X52160153Y-56739370D01*
X52112534Y-56739370D01*
X52041105Y-56715560D01*
X51993486Y-56667941D01*
X51969677Y-56620322D01*
X51945867Y-56525084D01*
X51945867Y-56453656D01*
X51969677Y-56358418D01*
X51993486Y-56310799D01*
X52041105Y-56263180D01*
X52112534Y-56239370D01*
X52160153Y-56239370D01*
X52231581Y-56263180D01*
X52255391Y-56286989D01*
X52422058Y-56239370D02*
X52731581Y-56239370D01*
X52564915Y-56429846D01*
X52636343Y-56429846D01*
X52683962Y-56453656D01*
X52707772Y-56477465D01*
X52731581Y-56525084D01*
X52731581Y-56644132D01*
X52707772Y-56691751D01*
X52683962Y-56715560D01*
X52636343Y-56739370D01*
X52493486Y-56739370D01*
X52445867Y-56715560D01*
X52422058Y-56691751D01*
X52898248Y-56239370D02*
X53231581Y-56239370D01*
X53017296Y-56739370D01*
D12*
G04 #@! TO.C,H1*
X71577295Y-20772380D02*
X71577295Y-19772380D01*
X71577295Y-20248571D02*
X72148723Y-20248571D01*
X72148723Y-20772380D02*
X72148723Y-19772380D01*
X73148723Y-20772380D02*
X72577295Y-20772380D01*
X72863009Y-20772380D02*
X72863009Y-19772380D01*
X72767771Y-19915238D01*
X72672533Y-20010476D01*
X72577295Y-20058095D01*
X61342857Y-25000000D02*
X61247619Y-24952380D01*
X61104761Y-24952380D01*
X60961904Y-25000000D01*
X60866666Y-25095238D01*
X60819047Y-25190476D01*
X60771428Y-25380952D01*
X60771428Y-25523809D01*
X60819047Y-25714285D01*
X60866666Y-25809523D01*
X60961904Y-25904761D01*
X61104761Y-25952380D01*
X61200000Y-25952380D01*
X61342857Y-25904761D01*
X61390476Y-25857142D01*
X61390476Y-25523809D01*
X61200000Y-25523809D01*
X61819047Y-25952380D02*
X61819047Y-25285714D01*
X61819047Y-25476190D02*
X61866666Y-25380952D01*
X61914285Y-25333333D01*
X62009523Y-25285714D01*
X62104761Y-25285714D01*
X62580952Y-25952380D02*
X62485714Y-25904761D01*
X62438095Y-25857142D01*
X62390476Y-25761904D01*
X62390476Y-25476190D01*
X62438095Y-25380952D01*
X62485714Y-25333333D01*
X62580952Y-25285714D01*
X62723809Y-25285714D01*
X62819047Y-25333333D01*
X62866666Y-25380952D01*
X62914285Y-25476190D01*
X62914285Y-25761904D01*
X62866666Y-25857142D01*
X62819047Y-25904761D01*
X62723809Y-25952380D01*
X62580952Y-25952380D01*
X63771428Y-25285714D02*
X63771428Y-25952380D01*
X63342857Y-25285714D02*
X63342857Y-25809523D01*
X63390476Y-25904761D01*
X63485714Y-25952380D01*
X63628571Y-25952380D01*
X63723809Y-25904761D01*
X63771428Y-25857142D01*
X64247619Y-25285714D02*
X64247619Y-25952380D01*
X64247619Y-25380952D02*
X64295238Y-25333333D01*
X64390476Y-25285714D01*
X64533333Y-25285714D01*
X64628571Y-25333333D01*
X64676190Y-25428571D01*
X64676190Y-25952380D01*
X65580952Y-25952380D02*
X65580952Y-24952380D01*
X65580952Y-25904761D02*
X65485714Y-25952380D01*
X65295238Y-25952380D01*
X65200000Y-25904761D01*
X65152380Y-25857142D01*
X65104761Y-25761904D01*
X65104761Y-25476190D01*
X65152380Y-25380952D01*
X65200000Y-25333333D01*
X65295238Y-25285714D01*
X65485714Y-25285714D01*
X65580952Y-25333333D01*
X66057142Y-25952380D02*
X66057142Y-25285714D01*
X66057142Y-24952380D02*
X66009523Y-25000000D01*
X66057142Y-25047619D01*
X66104761Y-25000000D01*
X66057142Y-24952380D01*
X66057142Y-25047619D01*
X66533333Y-25285714D02*
X66533333Y-25952380D01*
X66533333Y-25380952D02*
X66580952Y-25333333D01*
X66676190Y-25285714D01*
X66819047Y-25285714D01*
X66914285Y-25333333D01*
X66961904Y-25428571D01*
X66961904Y-25952380D01*
X67866666Y-25285714D02*
X67866666Y-26095238D01*
X67819047Y-26190476D01*
X67771428Y-26238095D01*
X67676190Y-26285714D01*
X67533333Y-26285714D01*
X67438095Y-26238095D01*
X67866666Y-25904761D02*
X67771428Y-25952380D01*
X67580952Y-25952380D01*
X67485714Y-25904761D01*
X67438095Y-25857142D01*
X67390476Y-25761904D01*
X67390476Y-25476190D01*
X67438095Y-25380952D01*
X67485714Y-25333333D01*
X67580952Y-25285714D01*
X67771428Y-25285714D01*
X67866666Y-25333333D01*
X69057142Y-25904761D02*
X69200000Y-25952380D01*
X69438095Y-25952380D01*
X69533333Y-25904761D01*
X69580952Y-25857142D01*
X69628571Y-25761904D01*
X69628571Y-25666666D01*
X69580952Y-25571428D01*
X69533333Y-25523809D01*
X69438095Y-25476190D01*
X69247619Y-25428571D01*
X69152380Y-25380952D01*
X69104761Y-25333333D01*
X69057142Y-25238095D01*
X69057142Y-25142857D01*
X69104761Y-25047619D01*
X69152380Y-25000000D01*
X69247619Y-24952380D01*
X69485714Y-24952380D01*
X69628571Y-25000000D01*
X69914285Y-25285714D02*
X70295238Y-25285714D01*
X70057142Y-24952380D02*
X70057142Y-25809523D01*
X70104761Y-25904761D01*
X70200000Y-25952380D01*
X70295238Y-25952380D01*
X70628571Y-25952380D02*
X70628571Y-25285714D01*
X70628571Y-25476190D02*
X70676190Y-25380952D01*
X70723809Y-25333333D01*
X70819047Y-25285714D01*
X70914285Y-25285714D01*
X71676190Y-25952380D02*
X71676190Y-25428571D01*
X71628571Y-25333333D01*
X71533333Y-25285714D01*
X71342857Y-25285714D01*
X71247619Y-25333333D01*
X71676190Y-25904761D02*
X71580952Y-25952380D01*
X71342857Y-25952380D01*
X71247619Y-25904761D01*
X71200000Y-25809523D01*
X71200000Y-25714285D01*
X71247619Y-25619047D01*
X71342857Y-25571428D01*
X71580952Y-25571428D01*
X71676190Y-25523809D01*
X72152380Y-25285714D02*
X72152380Y-26285714D01*
X72152380Y-25333333D02*
X72247619Y-25285714D01*
X72438095Y-25285714D01*
X72533333Y-25333333D01*
X72580952Y-25380952D01*
X72628571Y-25476190D01*
X72628571Y-25761904D01*
X72580952Y-25857142D01*
X72533333Y-25904761D01*
X72438095Y-25952380D01*
X72247619Y-25952380D01*
X72152380Y-25904761D01*
D11*
G04 #@! TO.C,R3*
X57122190Y-65615333D02*
X56884095Y-65782000D01*
X57122190Y-65901047D02*
X56622190Y-65901047D01*
X56622190Y-65710571D01*
X56646000Y-65662952D01*
X56669809Y-65639142D01*
X56717428Y-65615333D01*
X56788857Y-65615333D01*
X56836476Y-65639142D01*
X56860285Y-65662952D01*
X56884095Y-65710571D01*
X56884095Y-65901047D01*
X56622190Y-65448666D02*
X56622190Y-65139142D01*
X56812666Y-65305809D01*
X56812666Y-65234380D01*
X56836476Y-65186761D01*
X56860285Y-65162952D01*
X56907904Y-65139142D01*
X57026952Y-65139142D01*
X57074571Y-65162952D01*
X57098380Y-65186761D01*
X57122190Y-65234380D01*
X57122190Y-65377238D01*
X57098380Y-65424857D01*
X57074571Y-65448666D01*
D12*
G04 #@! TO.C,H2*
X71628095Y-64206380D02*
X71628095Y-63206380D01*
X71628095Y-63682571D02*
X72199523Y-63682571D01*
X72199523Y-64206380D02*
X72199523Y-63206380D01*
X72628095Y-63301619D02*
X72675714Y-63254000D01*
X72770952Y-63206380D01*
X73009047Y-63206380D01*
X73104285Y-63254000D01*
X73151904Y-63301619D01*
X73199523Y-63396857D01*
X73199523Y-63492095D01*
X73151904Y-63634952D01*
X72580476Y-64206380D01*
X73199523Y-64206380D01*
G04 #@! TO.C,FB5*
X32618371Y-15565333D02*
X32618371Y-15898666D01*
X33142180Y-15898666D02*
X32142180Y-15898666D01*
X32142180Y-15422476D01*
X32618371Y-14708190D02*
X32665990Y-14565333D01*
X32713609Y-14517714D01*
X32808847Y-14470095D01*
X32951704Y-14470095D01*
X33046942Y-14517714D01*
X33094561Y-14565333D01*
X33142180Y-14660571D01*
X33142180Y-15041523D01*
X32142180Y-15041523D01*
X32142180Y-14708190D01*
X32189800Y-14612952D01*
X32237419Y-14565333D01*
X32332657Y-14517714D01*
X32427895Y-14517714D01*
X32523133Y-14565333D01*
X32570752Y-14612952D01*
X32618371Y-14708190D01*
X32618371Y-15041523D01*
X32142180Y-13565333D02*
X32142180Y-14041523D01*
X32618371Y-14089142D01*
X32570752Y-14041523D01*
X32523133Y-13946285D01*
X32523133Y-13708190D01*
X32570752Y-13612952D01*
X32618371Y-13565333D01*
X32713609Y-13517714D01*
X32951704Y-13517714D01*
X33046942Y-13565333D01*
X33094561Y-13612952D01*
X33142180Y-13708190D01*
X33142180Y-13946285D01*
X33094561Y-14041523D01*
X33046942Y-14089142D01*
D11*
G04 #@! TO.C,C17*
X4953771Y-35119428D02*
X4977580Y-35143238D01*
X5001390Y-35214666D01*
X5001390Y-35262285D01*
X4977580Y-35333714D01*
X4929961Y-35381333D01*
X4882342Y-35405142D01*
X4787104Y-35428952D01*
X4715676Y-35428952D01*
X4620438Y-35405142D01*
X4572819Y-35381333D01*
X4525200Y-35333714D01*
X4501390Y-35262285D01*
X4501390Y-35214666D01*
X4525200Y-35143238D01*
X4549009Y-35119428D01*
X5001390Y-34643238D02*
X5001390Y-34928952D01*
X5001390Y-34786095D02*
X4501390Y-34786095D01*
X4572819Y-34833714D01*
X4620438Y-34881333D01*
X4644247Y-34928952D01*
X4501390Y-34476571D02*
X4501390Y-34143238D01*
X5001390Y-34357523D01*
G04 #@! TO.C,C20*
X2108971Y-37608628D02*
X2132780Y-37632438D01*
X2156590Y-37703866D01*
X2156590Y-37751485D01*
X2132780Y-37822914D01*
X2085161Y-37870533D01*
X2037542Y-37894342D01*
X1942304Y-37918152D01*
X1870876Y-37918152D01*
X1775638Y-37894342D01*
X1728019Y-37870533D01*
X1680400Y-37822914D01*
X1656590Y-37751485D01*
X1656590Y-37703866D01*
X1680400Y-37632438D01*
X1704209Y-37608628D01*
X1704209Y-37418152D02*
X1680400Y-37394342D01*
X1656590Y-37346723D01*
X1656590Y-37227676D01*
X1680400Y-37180057D01*
X1704209Y-37156247D01*
X1751828Y-37132438D01*
X1799447Y-37132438D01*
X1870876Y-37156247D01*
X2156590Y-37441961D01*
X2156590Y-37132438D01*
X1656590Y-36822914D02*
X1656590Y-36775295D01*
X1680400Y-36727676D01*
X1704209Y-36703866D01*
X1751828Y-36680057D01*
X1847066Y-36656247D01*
X1966114Y-36656247D01*
X2061352Y-36680057D01*
X2108971Y-36703866D01*
X2132780Y-36727676D01*
X2156590Y-36775295D01*
X2156590Y-36822914D01*
X2132780Y-36870533D01*
X2108971Y-36894342D01*
X2061352Y-36918152D01*
X1966114Y-36941961D01*
X1847066Y-36941961D01*
X1751828Y-36918152D01*
X1704209Y-36894342D01*
X1680400Y-36870533D01*
X1656590Y-36822914D01*
G04 #@! TO.C,C19*
X2675771Y-31801571D02*
X2651961Y-31825380D01*
X2580533Y-31849190D01*
X2532914Y-31849190D01*
X2461485Y-31825380D01*
X2413866Y-31777761D01*
X2390057Y-31730142D01*
X2366247Y-31634904D01*
X2366247Y-31563476D01*
X2390057Y-31468238D01*
X2413866Y-31420619D01*
X2461485Y-31373000D01*
X2532914Y-31349190D01*
X2580533Y-31349190D01*
X2651961Y-31373000D01*
X2675771Y-31396809D01*
X3151961Y-31849190D02*
X2866247Y-31849190D01*
X3009104Y-31849190D02*
X3009104Y-31349190D01*
X2961485Y-31420619D01*
X2913866Y-31468238D01*
X2866247Y-31492047D01*
X3390057Y-31849190D02*
X3485295Y-31849190D01*
X3532914Y-31825380D01*
X3556723Y-31801571D01*
X3604342Y-31730142D01*
X3628152Y-31634904D01*
X3628152Y-31444428D01*
X3604342Y-31396809D01*
X3580533Y-31373000D01*
X3532914Y-31349190D01*
X3437676Y-31349190D01*
X3390057Y-31373000D01*
X3366247Y-31396809D01*
X3342438Y-31444428D01*
X3342438Y-31563476D01*
X3366247Y-31611095D01*
X3390057Y-31634904D01*
X3437676Y-31658714D01*
X3532914Y-31658714D01*
X3580533Y-31634904D01*
X3604342Y-31611095D01*
X3628152Y-31563476D01*
G04 #@! TO.C,R19*
X40643790Y-66821428D02*
X40405695Y-66988095D01*
X40643790Y-67107142D02*
X40143790Y-67107142D01*
X40143790Y-66916666D01*
X40167600Y-66869047D01*
X40191409Y-66845238D01*
X40239028Y-66821428D01*
X40310457Y-66821428D01*
X40358076Y-66845238D01*
X40381885Y-66869047D01*
X40405695Y-66916666D01*
X40405695Y-67107142D01*
X40643790Y-66345238D02*
X40643790Y-66630952D01*
X40643790Y-66488095D02*
X40143790Y-66488095D01*
X40215219Y-66535714D01*
X40262838Y-66583333D01*
X40286647Y-66630952D01*
X40643790Y-66107142D02*
X40643790Y-66011904D01*
X40619980Y-65964285D01*
X40596171Y-65940476D01*
X40524742Y-65892857D01*
X40429504Y-65869047D01*
X40239028Y-65869047D01*
X40191409Y-65892857D01*
X40167600Y-65916666D01*
X40143790Y-65964285D01*
X40143790Y-66059523D01*
X40167600Y-66107142D01*
X40191409Y-66130952D01*
X40239028Y-66154761D01*
X40358076Y-66154761D01*
X40405695Y-66130952D01*
X40429504Y-66107142D01*
X40453314Y-66059523D01*
X40453314Y-65964285D01*
X40429504Y-65916666D01*
X40405695Y-65892857D01*
X40358076Y-65869047D01*
G04 #@! TO.C,C62*
X12878571Y-23689428D02*
X12902380Y-23713238D01*
X12926190Y-23784666D01*
X12926190Y-23832285D01*
X12902380Y-23903714D01*
X12854761Y-23951333D01*
X12807142Y-23975142D01*
X12711904Y-23998952D01*
X12640476Y-23998952D01*
X12545238Y-23975142D01*
X12497619Y-23951333D01*
X12450000Y-23903714D01*
X12426190Y-23832285D01*
X12426190Y-23784666D01*
X12450000Y-23713238D01*
X12473809Y-23689428D01*
X12426190Y-23260857D02*
X12426190Y-23356095D01*
X12450000Y-23403714D01*
X12473809Y-23427523D01*
X12545238Y-23475142D01*
X12640476Y-23498952D01*
X12830952Y-23498952D01*
X12878571Y-23475142D01*
X12902380Y-23451333D01*
X12926190Y-23403714D01*
X12926190Y-23308476D01*
X12902380Y-23260857D01*
X12878571Y-23237047D01*
X12830952Y-23213238D01*
X12711904Y-23213238D01*
X12664285Y-23237047D01*
X12640476Y-23260857D01*
X12616666Y-23308476D01*
X12616666Y-23403714D01*
X12640476Y-23451333D01*
X12664285Y-23475142D01*
X12711904Y-23498952D01*
X12473809Y-23022761D02*
X12450000Y-22998952D01*
X12426190Y-22951333D01*
X12426190Y-22832285D01*
X12450000Y-22784666D01*
X12473809Y-22760857D01*
X12521428Y-22737047D01*
X12569047Y-22737047D01*
X12640476Y-22760857D01*
X12926190Y-23046571D01*
X12926190Y-22737047D01*
D12*
G04 #@! TO.C,U4*
X23446215Y-37687980D02*
X23446215Y-38497504D01*
X23493834Y-38592742D01*
X23541453Y-38640361D01*
X23636691Y-38687980D01*
X23827167Y-38687980D01*
X23922405Y-38640361D01*
X23970024Y-38592742D01*
X24017643Y-38497504D01*
X24017643Y-37687980D01*
X24922405Y-38021314D02*
X24922405Y-38687980D01*
X24684310Y-37640361D02*
X24446215Y-38354647D01*
X25065262Y-38354647D01*
D11*
G04 #@! TO.C,R6*
X6576190Y-36405333D02*
X6338095Y-36572000D01*
X6576190Y-36691047D02*
X6076190Y-36691047D01*
X6076190Y-36500571D01*
X6100000Y-36452952D01*
X6123809Y-36429142D01*
X6171428Y-36405333D01*
X6242857Y-36405333D01*
X6290476Y-36429142D01*
X6314285Y-36452952D01*
X6338095Y-36500571D01*
X6338095Y-36691047D01*
X6076190Y-35976761D02*
X6076190Y-36072000D01*
X6100000Y-36119619D01*
X6123809Y-36143428D01*
X6195238Y-36191047D01*
X6290476Y-36214857D01*
X6480952Y-36214857D01*
X6528571Y-36191047D01*
X6552380Y-36167238D01*
X6576190Y-36119619D01*
X6576190Y-36024380D01*
X6552380Y-35976761D01*
X6528571Y-35952952D01*
X6480952Y-35929142D01*
X6361904Y-35929142D01*
X6314285Y-35952952D01*
X6290476Y-35976761D01*
X6266666Y-36024380D01*
X6266666Y-36119619D01*
X6290476Y-36167238D01*
X6314285Y-36191047D01*
X6361904Y-36214857D01*
D10*
G04 #@! TO.C,U3*
X10160076Y-31769104D02*
X10160076Y-32416723D01*
X10198171Y-32492914D01*
X10236266Y-32531009D01*
X10312457Y-32569104D01*
X10464838Y-32569104D01*
X10541028Y-32531009D01*
X10579123Y-32492914D01*
X10617219Y-32416723D01*
X10617219Y-31769104D01*
X10921980Y-31769104D02*
X11417219Y-31769104D01*
X11150552Y-32073866D01*
X11264838Y-32073866D01*
X11341028Y-32111961D01*
X11379123Y-32150057D01*
X11417219Y-32226247D01*
X11417219Y-32416723D01*
X11379123Y-32492914D01*
X11341028Y-32531009D01*
X11264838Y-32569104D01*
X11036266Y-32569104D01*
X10960076Y-32531009D01*
X10921980Y-32492914D01*
D12*
X7288733Y-43394380D02*
X7860161Y-43394380D01*
X7574447Y-44394380D02*
X7574447Y-43394380D01*
X8145876Y-44108666D02*
X8622066Y-44108666D01*
X8050638Y-44394380D02*
X8383971Y-43394380D01*
X8717304Y-44394380D01*
X9003019Y-44346761D02*
X9145876Y-44394380D01*
X9383971Y-44394380D01*
X9479209Y-44346761D01*
X9526828Y-44299142D01*
X9574447Y-44203904D01*
X9574447Y-44108666D01*
X9526828Y-44013428D01*
X9479209Y-43965809D01*
X9383971Y-43918190D01*
X9193495Y-43870571D01*
X9098257Y-43822952D01*
X9050638Y-43775333D01*
X9003019Y-43680095D01*
X9003019Y-43584857D01*
X9050638Y-43489619D01*
X9098257Y-43442000D01*
X9193495Y-43394380D01*
X9431590Y-43394380D01*
X9574447Y-43442000D01*
X10479209Y-43394380D02*
X10003019Y-43394380D01*
X9955400Y-43870571D01*
X10003019Y-43822952D01*
X10098257Y-43775333D01*
X10336352Y-43775333D01*
X10431590Y-43822952D01*
X10479209Y-43870571D01*
X10526828Y-43965809D01*
X10526828Y-44203904D01*
X10479209Y-44299142D01*
X10431590Y-44346761D01*
X10336352Y-44394380D01*
X10098257Y-44394380D01*
X10003019Y-44346761D01*
X9955400Y-44299142D01*
X11098257Y-43822952D02*
X11003019Y-43775333D01*
X10955400Y-43727714D01*
X10907780Y-43632476D01*
X10907780Y-43584857D01*
X10955400Y-43489619D01*
X11003019Y-43442000D01*
X11098257Y-43394380D01*
X11288733Y-43394380D01*
X11383971Y-43442000D01*
X11431590Y-43489619D01*
X11479209Y-43584857D01*
X11479209Y-43632476D01*
X11431590Y-43727714D01*
X11383971Y-43775333D01*
X11288733Y-43822952D01*
X11098257Y-43822952D01*
X11003019Y-43870571D01*
X10955400Y-43918190D01*
X10907780Y-44013428D01*
X10907780Y-44203904D01*
X10955400Y-44299142D01*
X11003019Y-44346761D01*
X11098257Y-44394380D01*
X11288733Y-44394380D01*
X11383971Y-44346761D01*
X11431590Y-44299142D01*
X11479209Y-44203904D01*
X11479209Y-44013428D01*
X11431590Y-43918190D01*
X11383971Y-43870571D01*
X11288733Y-43822952D01*
X12098257Y-43394380D02*
X12193495Y-43394380D01*
X12288733Y-43442000D01*
X12336352Y-43489619D01*
X12383971Y-43584857D01*
X12431590Y-43775333D01*
X12431590Y-44013428D01*
X12383971Y-44203904D01*
X12336352Y-44299142D01*
X12288733Y-44346761D01*
X12193495Y-44394380D01*
X12098257Y-44394380D01*
X12003019Y-44346761D01*
X11955400Y-44299142D01*
X11907780Y-44203904D01*
X11860161Y-44013428D01*
X11860161Y-43775333D01*
X11907780Y-43584857D01*
X11955400Y-43489619D01*
X12003019Y-43442000D01*
X12098257Y-43394380D01*
X13288733Y-43394380D02*
X13098257Y-43394380D01*
X13003019Y-43442000D01*
X12955400Y-43489619D01*
X12860161Y-43632476D01*
X12812542Y-43822952D01*
X12812542Y-44203904D01*
X12860161Y-44299142D01*
X12907780Y-44346761D01*
X13003019Y-44394380D01*
X13193495Y-44394380D01*
X13288733Y-44346761D01*
X13336352Y-44299142D01*
X13383971Y-44203904D01*
X13383971Y-43965809D01*
X13336352Y-43870571D01*
X13288733Y-43822952D01*
X13193495Y-43775333D01*
X13003019Y-43775333D01*
X12907780Y-43822952D01*
X12860161Y-43870571D01*
X12812542Y-43965809D01*
X13812542Y-44394380D02*
X13812542Y-43394380D01*
X14145876Y-44108666D01*
X14479209Y-43394380D01*
X14479209Y-44394380D01*
X14955400Y-44394380D02*
X14955400Y-43394380D01*
X15193495Y-43394380D01*
X15336352Y-43442000D01*
X15431590Y-43537238D01*
X15479209Y-43632476D01*
X15526828Y-43822952D01*
X15526828Y-43965809D01*
X15479209Y-44156285D01*
X15431590Y-44251523D01*
X15336352Y-44346761D01*
X15193495Y-44394380D01*
X14955400Y-44394380D01*
D11*
G04 #@! TO.C,C10*
X3566171Y-38167428D02*
X3589980Y-38191238D01*
X3613790Y-38262666D01*
X3613790Y-38310285D01*
X3589980Y-38381714D01*
X3542361Y-38429333D01*
X3494742Y-38453142D01*
X3399504Y-38476952D01*
X3328076Y-38476952D01*
X3232838Y-38453142D01*
X3185219Y-38429333D01*
X3137600Y-38381714D01*
X3113790Y-38310285D01*
X3113790Y-38262666D01*
X3137600Y-38191238D01*
X3161409Y-38167428D01*
X3613790Y-37691238D02*
X3613790Y-37976952D01*
X3613790Y-37834095D02*
X3113790Y-37834095D01*
X3185219Y-37881714D01*
X3232838Y-37929333D01*
X3256647Y-37976952D01*
X3113790Y-37381714D02*
X3113790Y-37334095D01*
X3137600Y-37286476D01*
X3161409Y-37262666D01*
X3209028Y-37238857D01*
X3304266Y-37215047D01*
X3423314Y-37215047D01*
X3518552Y-37238857D01*
X3566171Y-37262666D01*
X3589980Y-37286476D01*
X3613790Y-37334095D01*
X3613790Y-37381714D01*
X3589980Y-37429333D01*
X3566171Y-37453142D01*
X3518552Y-37476952D01*
X3423314Y-37500761D01*
X3304266Y-37500761D01*
X3209028Y-37476952D01*
X3161409Y-37453142D01*
X3137600Y-37429333D01*
X3113790Y-37381714D01*
G04 #@! TO.C,C61*
X5542571Y-44759628D02*
X5566380Y-44783438D01*
X5590190Y-44854866D01*
X5590190Y-44902485D01*
X5566380Y-44973914D01*
X5518761Y-45021533D01*
X5471142Y-45045342D01*
X5375904Y-45069152D01*
X5304476Y-45069152D01*
X5209238Y-45045342D01*
X5161619Y-45021533D01*
X5114000Y-44973914D01*
X5090190Y-44902485D01*
X5090190Y-44854866D01*
X5114000Y-44783438D01*
X5137809Y-44759628D01*
X5090190Y-44331057D02*
X5090190Y-44426295D01*
X5114000Y-44473914D01*
X5137809Y-44497723D01*
X5209238Y-44545342D01*
X5304476Y-44569152D01*
X5494952Y-44569152D01*
X5542571Y-44545342D01*
X5566380Y-44521533D01*
X5590190Y-44473914D01*
X5590190Y-44378676D01*
X5566380Y-44331057D01*
X5542571Y-44307247D01*
X5494952Y-44283438D01*
X5375904Y-44283438D01*
X5328285Y-44307247D01*
X5304476Y-44331057D01*
X5280666Y-44378676D01*
X5280666Y-44473914D01*
X5304476Y-44521533D01*
X5328285Y-44545342D01*
X5375904Y-44569152D01*
X5590190Y-43807247D02*
X5590190Y-44092961D01*
X5590190Y-43950104D02*
X5090190Y-43950104D01*
X5161619Y-43997723D01*
X5209238Y-44045342D01*
X5233047Y-44092961D01*
G04 #@! TO.C,C60*
X23378571Y-31178571D02*
X23354761Y-31202380D01*
X23283333Y-31226190D01*
X23235714Y-31226190D01*
X23164285Y-31202380D01*
X23116666Y-31154761D01*
X23092857Y-31107142D01*
X23069047Y-31011904D01*
X23069047Y-30940476D01*
X23092857Y-30845238D01*
X23116666Y-30797619D01*
X23164285Y-30750000D01*
X23235714Y-30726190D01*
X23283333Y-30726190D01*
X23354761Y-30750000D01*
X23378571Y-30773809D01*
X23807142Y-30726190D02*
X23711904Y-30726190D01*
X23664285Y-30750000D01*
X23640476Y-30773809D01*
X23592857Y-30845238D01*
X23569047Y-30940476D01*
X23569047Y-31130952D01*
X23592857Y-31178571D01*
X23616666Y-31202380D01*
X23664285Y-31226190D01*
X23759523Y-31226190D01*
X23807142Y-31202380D01*
X23830952Y-31178571D01*
X23854761Y-31130952D01*
X23854761Y-31011904D01*
X23830952Y-30964285D01*
X23807142Y-30940476D01*
X23759523Y-30916666D01*
X23664285Y-30916666D01*
X23616666Y-30940476D01*
X23592857Y-30964285D01*
X23569047Y-31011904D01*
X24164285Y-30726190D02*
X24211904Y-30726190D01*
X24259523Y-30750000D01*
X24283333Y-30773809D01*
X24307142Y-30821428D01*
X24330952Y-30916666D01*
X24330952Y-31035714D01*
X24307142Y-31130952D01*
X24283333Y-31178571D01*
X24259523Y-31202380D01*
X24211904Y-31226190D01*
X24164285Y-31226190D01*
X24116666Y-31202380D01*
X24092857Y-31178571D01*
X24069047Y-31130952D01*
X24045238Y-31035714D01*
X24045238Y-30916666D01*
X24069047Y-30821428D01*
X24092857Y-30773809D01*
X24116666Y-30750000D01*
X24164285Y-30726190D01*
G04 #@! TO.C,R50*
X16645771Y-42186990D02*
X16479104Y-41948895D01*
X16360057Y-42186990D02*
X16360057Y-41686990D01*
X16550533Y-41686990D01*
X16598152Y-41710800D01*
X16621961Y-41734609D01*
X16645771Y-41782228D01*
X16645771Y-41853657D01*
X16621961Y-41901276D01*
X16598152Y-41925085D01*
X16550533Y-41948895D01*
X16360057Y-41948895D01*
X17098152Y-41686990D02*
X16860057Y-41686990D01*
X16836247Y-41925085D01*
X16860057Y-41901276D01*
X16907676Y-41877466D01*
X17026723Y-41877466D01*
X17074342Y-41901276D01*
X17098152Y-41925085D01*
X17121961Y-41972704D01*
X17121961Y-42091752D01*
X17098152Y-42139371D01*
X17074342Y-42163180D01*
X17026723Y-42186990D01*
X16907676Y-42186990D01*
X16860057Y-42163180D01*
X16836247Y-42139371D01*
X17431485Y-41686990D02*
X17479104Y-41686990D01*
X17526723Y-41710800D01*
X17550533Y-41734609D01*
X17574342Y-41782228D01*
X17598152Y-41877466D01*
X17598152Y-41996514D01*
X17574342Y-42091752D01*
X17550533Y-42139371D01*
X17526723Y-42163180D01*
X17479104Y-42186990D01*
X17431485Y-42186990D01*
X17383866Y-42163180D01*
X17360057Y-42139371D01*
X17336247Y-42091752D01*
X17312438Y-41996514D01*
X17312438Y-41877466D01*
X17336247Y-41782228D01*
X17360057Y-41734609D01*
X17383866Y-41710800D01*
X17431485Y-41686990D01*
G04 #@! TO.C,C59*
X28007190Y-31354531D02*
X27983380Y-31378340D01*
X27911952Y-31402150D01*
X27864333Y-31402150D01*
X27792904Y-31378340D01*
X27745285Y-31330721D01*
X27721476Y-31283102D01*
X27697666Y-31187864D01*
X27697666Y-31116436D01*
X27721476Y-31021198D01*
X27745285Y-30973579D01*
X27792904Y-30925960D01*
X27864333Y-30902150D01*
X27911952Y-30902150D01*
X27983380Y-30925960D01*
X28007190Y-30949769D01*
X28459571Y-30902150D02*
X28221476Y-30902150D01*
X28197666Y-31140245D01*
X28221476Y-31116436D01*
X28269095Y-31092626D01*
X28388142Y-31092626D01*
X28435761Y-31116436D01*
X28459571Y-31140245D01*
X28483380Y-31187864D01*
X28483380Y-31306912D01*
X28459571Y-31354531D01*
X28435761Y-31378340D01*
X28388142Y-31402150D01*
X28269095Y-31402150D01*
X28221476Y-31378340D01*
X28197666Y-31354531D01*
X28721476Y-31402150D02*
X28816714Y-31402150D01*
X28864333Y-31378340D01*
X28888142Y-31354531D01*
X28935761Y-31283102D01*
X28959571Y-31187864D01*
X28959571Y-30997388D01*
X28935761Y-30949769D01*
X28911952Y-30925960D01*
X28864333Y-30902150D01*
X28769095Y-30902150D01*
X28721476Y-30925960D01*
X28697666Y-30949769D01*
X28673857Y-30997388D01*
X28673857Y-31116436D01*
X28697666Y-31164055D01*
X28721476Y-31187864D01*
X28769095Y-31211674D01*
X28864333Y-31211674D01*
X28911952Y-31187864D01*
X28935761Y-31164055D01*
X28959571Y-31116436D01*
D12*
G04 #@! TO.C,FB4*
X12628571Y-28265333D02*
X12628571Y-28598666D01*
X13152380Y-28598666D02*
X12152380Y-28598666D01*
X12152380Y-28122476D01*
X12628571Y-27408190D02*
X12676190Y-27265333D01*
X12723809Y-27217714D01*
X12819047Y-27170095D01*
X12961904Y-27170095D01*
X13057142Y-27217714D01*
X13104761Y-27265333D01*
X13152380Y-27360571D01*
X13152380Y-27741523D01*
X12152380Y-27741523D01*
X12152380Y-27408190D01*
X12200000Y-27312952D01*
X12247619Y-27265333D01*
X12342857Y-27217714D01*
X12438095Y-27217714D01*
X12533333Y-27265333D01*
X12580952Y-27312952D01*
X12628571Y-27408190D01*
X12628571Y-27741523D01*
X12485714Y-26312952D02*
X13152380Y-26312952D01*
X12104761Y-26551047D02*
X12819047Y-26789142D01*
X12819047Y-26170095D01*
G04 #@! TO.C,FB3*
X19572171Y-28332733D02*
X19572171Y-28666066D01*
X20095980Y-28666066D02*
X19095980Y-28666066D01*
X19095980Y-28189876D01*
X19572171Y-27475590D02*
X19619790Y-27332733D01*
X19667409Y-27285114D01*
X19762647Y-27237495D01*
X19905504Y-27237495D01*
X20000742Y-27285114D01*
X20048361Y-27332733D01*
X20095980Y-27427971D01*
X20095980Y-27808923D01*
X19095980Y-27808923D01*
X19095980Y-27475590D01*
X19143600Y-27380352D01*
X19191219Y-27332733D01*
X19286457Y-27285114D01*
X19381695Y-27285114D01*
X19476933Y-27332733D01*
X19524552Y-27380352D01*
X19572171Y-27475590D01*
X19572171Y-27808923D01*
X19095980Y-26904161D02*
X19095980Y-26285114D01*
X19476933Y-26618447D01*
X19476933Y-26475590D01*
X19524552Y-26380352D01*
X19572171Y-26332733D01*
X19667409Y-26285114D01*
X19905504Y-26285114D01*
X20000742Y-26332733D01*
X20048361Y-26380352D01*
X20095980Y-26475590D01*
X20095980Y-26761304D01*
X20048361Y-26856542D01*
X20000742Y-26904161D01*
D11*
G04 #@! TO.C,C11*
X5639571Y-36338628D02*
X5663380Y-36362438D01*
X5687190Y-36433866D01*
X5687190Y-36481485D01*
X5663380Y-36552914D01*
X5615761Y-36600533D01*
X5568142Y-36624342D01*
X5472904Y-36648152D01*
X5401476Y-36648152D01*
X5306238Y-36624342D01*
X5258619Y-36600533D01*
X5211000Y-36552914D01*
X5187190Y-36481485D01*
X5187190Y-36433866D01*
X5211000Y-36362438D01*
X5234809Y-36338628D01*
X5687190Y-35862438D02*
X5687190Y-36148152D01*
X5687190Y-36005295D02*
X5187190Y-36005295D01*
X5258619Y-36052914D01*
X5306238Y-36100533D01*
X5330047Y-36148152D01*
X5687190Y-35386247D02*
X5687190Y-35671961D01*
X5687190Y-35529104D02*
X5187190Y-35529104D01*
X5258619Y-35576723D01*
X5306238Y-35624342D01*
X5330047Y-35671961D01*
G04 #@! TO.C,C23*
X14292971Y-32567471D02*
X14269161Y-32591280D01*
X14197733Y-32615090D01*
X14150114Y-32615090D01*
X14078685Y-32591280D01*
X14031066Y-32543661D01*
X14007257Y-32496042D01*
X13983447Y-32400804D01*
X13983447Y-32329376D01*
X14007257Y-32234138D01*
X14031066Y-32186519D01*
X14078685Y-32138900D01*
X14150114Y-32115090D01*
X14197733Y-32115090D01*
X14269161Y-32138900D01*
X14292971Y-32162709D01*
X14483447Y-32162709D02*
X14507257Y-32138900D01*
X14554876Y-32115090D01*
X14673923Y-32115090D01*
X14721542Y-32138900D01*
X14745352Y-32162709D01*
X14769161Y-32210328D01*
X14769161Y-32257947D01*
X14745352Y-32329376D01*
X14459638Y-32615090D01*
X14769161Y-32615090D01*
X14935828Y-32115090D02*
X15245352Y-32115090D01*
X15078685Y-32305566D01*
X15150114Y-32305566D01*
X15197733Y-32329376D01*
X15221542Y-32353185D01*
X15245352Y-32400804D01*
X15245352Y-32519852D01*
X15221542Y-32567471D01*
X15197733Y-32591280D01*
X15150114Y-32615090D01*
X15007257Y-32615090D01*
X14959638Y-32591280D01*
X14935828Y-32567471D01*
G04 #@! TO.C,C16*
X2269371Y-39980371D02*
X2245561Y-40004180D01*
X2174133Y-40027990D01*
X2126514Y-40027990D01*
X2055085Y-40004180D01*
X2007466Y-39956561D01*
X1983657Y-39908942D01*
X1959847Y-39813704D01*
X1959847Y-39742276D01*
X1983657Y-39647038D01*
X2007466Y-39599419D01*
X2055085Y-39551800D01*
X2126514Y-39527990D01*
X2174133Y-39527990D01*
X2245561Y-39551800D01*
X2269371Y-39575609D01*
X2745561Y-40027990D02*
X2459847Y-40027990D01*
X2602704Y-40027990D02*
X2602704Y-39527990D01*
X2555085Y-39599419D01*
X2507466Y-39647038D01*
X2459847Y-39670847D01*
X3174133Y-39527990D02*
X3078895Y-39527990D01*
X3031276Y-39551800D01*
X3007466Y-39575609D01*
X2959847Y-39647038D01*
X2936038Y-39742276D01*
X2936038Y-39932752D01*
X2959847Y-39980371D01*
X2983657Y-40004180D01*
X3031276Y-40027990D01*
X3126514Y-40027990D01*
X3174133Y-40004180D01*
X3197942Y-39980371D01*
X3221752Y-39932752D01*
X3221752Y-39813704D01*
X3197942Y-39766085D01*
X3174133Y-39742276D01*
X3126514Y-39718466D01*
X3031276Y-39718466D01*
X2983657Y-39742276D01*
X2959847Y-39766085D01*
X2936038Y-39813704D01*
G04 #@! TO.C,C26*
X17315571Y-30878371D02*
X17291761Y-30902180D01*
X17220333Y-30925990D01*
X17172714Y-30925990D01*
X17101285Y-30902180D01*
X17053666Y-30854561D01*
X17029857Y-30806942D01*
X17006047Y-30711704D01*
X17006047Y-30640276D01*
X17029857Y-30545038D01*
X17053666Y-30497419D01*
X17101285Y-30449800D01*
X17172714Y-30425990D01*
X17220333Y-30425990D01*
X17291761Y-30449800D01*
X17315571Y-30473609D01*
X17506047Y-30473609D02*
X17529857Y-30449800D01*
X17577476Y-30425990D01*
X17696523Y-30425990D01*
X17744142Y-30449800D01*
X17767952Y-30473609D01*
X17791761Y-30521228D01*
X17791761Y-30568847D01*
X17767952Y-30640276D01*
X17482238Y-30925990D01*
X17791761Y-30925990D01*
X18220333Y-30425990D02*
X18125095Y-30425990D01*
X18077476Y-30449800D01*
X18053666Y-30473609D01*
X18006047Y-30545038D01*
X17982238Y-30640276D01*
X17982238Y-30830752D01*
X18006047Y-30878371D01*
X18029857Y-30902180D01*
X18077476Y-30925990D01*
X18172714Y-30925990D01*
X18220333Y-30902180D01*
X18244142Y-30878371D01*
X18267952Y-30830752D01*
X18267952Y-30711704D01*
X18244142Y-30664085D01*
X18220333Y-30640276D01*
X18172714Y-30616466D01*
X18077476Y-30616466D01*
X18029857Y-30640276D01*
X18006047Y-30664085D01*
X17982238Y-30711704D01*
G04 #@! TO.C,C14*
X22184371Y-35618628D02*
X22208180Y-35642438D01*
X22231990Y-35713866D01*
X22231990Y-35761485D01*
X22208180Y-35832914D01*
X22160561Y-35880533D01*
X22112942Y-35904342D01*
X22017704Y-35928152D01*
X21946276Y-35928152D01*
X21851038Y-35904342D01*
X21803419Y-35880533D01*
X21755800Y-35832914D01*
X21731990Y-35761485D01*
X21731990Y-35713866D01*
X21755800Y-35642438D01*
X21779609Y-35618628D01*
X22231990Y-35142438D02*
X22231990Y-35428152D01*
X22231990Y-35285295D02*
X21731990Y-35285295D01*
X21803419Y-35332914D01*
X21851038Y-35380533D01*
X21874847Y-35428152D01*
X21898657Y-34713866D02*
X22231990Y-34713866D01*
X21708180Y-34832914D02*
X22065323Y-34951961D01*
X22065323Y-34642438D01*
G04 #@! TO.C,C39*
X19695171Y-23629828D02*
X19718980Y-23653638D01*
X19742790Y-23725066D01*
X19742790Y-23772685D01*
X19718980Y-23844114D01*
X19671361Y-23891733D01*
X19623742Y-23915542D01*
X19528504Y-23939352D01*
X19457076Y-23939352D01*
X19361838Y-23915542D01*
X19314219Y-23891733D01*
X19266600Y-23844114D01*
X19242790Y-23772685D01*
X19242790Y-23725066D01*
X19266600Y-23653638D01*
X19290409Y-23629828D01*
X19242790Y-23463161D02*
X19242790Y-23153638D01*
X19433266Y-23320304D01*
X19433266Y-23248876D01*
X19457076Y-23201257D01*
X19480885Y-23177447D01*
X19528504Y-23153638D01*
X19647552Y-23153638D01*
X19695171Y-23177447D01*
X19718980Y-23201257D01*
X19742790Y-23248876D01*
X19742790Y-23391733D01*
X19718980Y-23439352D01*
X19695171Y-23463161D01*
X19742790Y-22915542D02*
X19742790Y-22820304D01*
X19718980Y-22772685D01*
X19695171Y-22748876D01*
X19623742Y-22701257D01*
X19528504Y-22677447D01*
X19338028Y-22677447D01*
X19290409Y-22701257D01*
X19266600Y-22725066D01*
X19242790Y-22772685D01*
X19242790Y-22867923D01*
X19266600Y-22915542D01*
X19290409Y-22939352D01*
X19338028Y-22963161D01*
X19457076Y-22963161D01*
X19504695Y-22939352D01*
X19528504Y-22915542D01*
X19552314Y-22867923D01*
X19552314Y-22772685D01*
X19528504Y-22725066D01*
X19504695Y-22701257D01*
X19457076Y-22677447D01*
G04 #@! TO.C,C18*
X17529671Y-32803471D02*
X17505861Y-32827280D01*
X17434433Y-32851090D01*
X17386814Y-32851090D01*
X17315385Y-32827280D01*
X17267766Y-32779661D01*
X17243957Y-32732042D01*
X17220147Y-32636804D01*
X17220147Y-32565376D01*
X17243957Y-32470138D01*
X17267766Y-32422519D01*
X17315385Y-32374900D01*
X17386814Y-32351090D01*
X17434433Y-32351090D01*
X17505861Y-32374900D01*
X17529671Y-32398709D01*
X18005861Y-32851090D02*
X17720147Y-32851090D01*
X17863004Y-32851090D02*
X17863004Y-32351090D01*
X17815385Y-32422519D01*
X17767766Y-32470138D01*
X17720147Y-32493947D01*
X18291576Y-32565376D02*
X18243957Y-32541566D01*
X18220147Y-32517757D01*
X18196338Y-32470138D01*
X18196338Y-32446328D01*
X18220147Y-32398709D01*
X18243957Y-32374900D01*
X18291576Y-32351090D01*
X18386814Y-32351090D01*
X18434433Y-32374900D01*
X18458242Y-32398709D01*
X18482052Y-32446328D01*
X18482052Y-32470138D01*
X18458242Y-32517757D01*
X18434433Y-32541566D01*
X18386814Y-32565376D01*
X18291576Y-32565376D01*
X18243957Y-32589185D01*
X18220147Y-32612995D01*
X18196338Y-32660614D01*
X18196338Y-32755852D01*
X18220147Y-32803471D01*
X18243957Y-32827280D01*
X18291576Y-32851090D01*
X18386814Y-32851090D01*
X18434433Y-32827280D01*
X18458242Y-32803471D01*
X18482052Y-32755852D01*
X18482052Y-32660614D01*
X18458242Y-32612995D01*
X18434433Y-32589185D01*
X18386814Y-32565376D01*
G04 #@! TO.C,C24*
X20092171Y-40351828D02*
X20115980Y-40375638D01*
X20139790Y-40447066D01*
X20139790Y-40494685D01*
X20115980Y-40566114D01*
X20068361Y-40613733D01*
X20020742Y-40637542D01*
X19925504Y-40661352D01*
X19854076Y-40661352D01*
X19758838Y-40637542D01*
X19711219Y-40613733D01*
X19663600Y-40566114D01*
X19639790Y-40494685D01*
X19639790Y-40447066D01*
X19663600Y-40375638D01*
X19687409Y-40351828D01*
X19687409Y-40161352D02*
X19663600Y-40137542D01*
X19639790Y-40089923D01*
X19639790Y-39970876D01*
X19663600Y-39923257D01*
X19687409Y-39899447D01*
X19735028Y-39875638D01*
X19782647Y-39875638D01*
X19854076Y-39899447D01*
X20139790Y-40185161D01*
X20139790Y-39875638D01*
X19806457Y-39447066D02*
X20139790Y-39447066D01*
X19615980Y-39566114D02*
X19973123Y-39685161D01*
X19973123Y-39375638D01*
G04 #@! TO.C,C21*
X18009371Y-40580428D02*
X18033180Y-40604238D01*
X18056990Y-40675666D01*
X18056990Y-40723285D01*
X18033180Y-40794714D01*
X17985561Y-40842333D01*
X17937942Y-40866142D01*
X17842704Y-40889952D01*
X17771276Y-40889952D01*
X17676038Y-40866142D01*
X17628419Y-40842333D01*
X17580800Y-40794714D01*
X17556990Y-40723285D01*
X17556990Y-40675666D01*
X17580800Y-40604238D01*
X17604609Y-40580428D01*
X17604609Y-40389952D02*
X17580800Y-40366142D01*
X17556990Y-40318523D01*
X17556990Y-40199476D01*
X17580800Y-40151857D01*
X17604609Y-40128047D01*
X17652228Y-40104238D01*
X17699847Y-40104238D01*
X17771276Y-40128047D01*
X18056990Y-40413761D01*
X18056990Y-40104238D01*
X18056990Y-39628047D02*
X18056990Y-39913761D01*
X18056990Y-39770904D02*
X17556990Y-39770904D01*
X17628419Y-39818523D01*
X17676038Y-39866142D01*
X17699847Y-39913761D01*
G04 #@! TO.C,C12*
X6622571Y-44769628D02*
X6646380Y-44793438D01*
X6670190Y-44864866D01*
X6670190Y-44912485D01*
X6646380Y-44983914D01*
X6598761Y-45031533D01*
X6551142Y-45055342D01*
X6455904Y-45079152D01*
X6384476Y-45079152D01*
X6289238Y-45055342D01*
X6241619Y-45031533D01*
X6194000Y-44983914D01*
X6170190Y-44912485D01*
X6170190Y-44864866D01*
X6194000Y-44793438D01*
X6217809Y-44769628D01*
X6670190Y-44293438D02*
X6670190Y-44579152D01*
X6670190Y-44436295D02*
X6170190Y-44436295D01*
X6241619Y-44483914D01*
X6289238Y-44531533D01*
X6313047Y-44579152D01*
X6217809Y-44102961D02*
X6194000Y-44079152D01*
X6170190Y-44031533D01*
X6170190Y-43912485D01*
X6194000Y-43864866D01*
X6217809Y-43841057D01*
X6265428Y-43817247D01*
X6313047Y-43817247D01*
X6384476Y-43841057D01*
X6670190Y-44126771D01*
X6670190Y-43817247D01*
G04 #@! TO.C,C13*
X18187171Y-35525828D02*
X18210980Y-35549638D01*
X18234790Y-35621066D01*
X18234790Y-35668685D01*
X18210980Y-35740114D01*
X18163361Y-35787733D01*
X18115742Y-35811542D01*
X18020504Y-35835352D01*
X17949076Y-35835352D01*
X17853838Y-35811542D01*
X17806219Y-35787733D01*
X17758600Y-35740114D01*
X17734790Y-35668685D01*
X17734790Y-35621066D01*
X17758600Y-35549638D01*
X17782409Y-35525828D01*
X18234790Y-35049638D02*
X18234790Y-35335352D01*
X18234790Y-35192495D02*
X17734790Y-35192495D01*
X17806219Y-35240114D01*
X17853838Y-35287733D01*
X17877647Y-35335352D01*
X17734790Y-34882971D02*
X17734790Y-34573447D01*
X17925266Y-34740114D01*
X17925266Y-34668685D01*
X17949076Y-34621066D01*
X17972885Y-34597257D01*
X18020504Y-34573447D01*
X18139552Y-34573447D01*
X18187171Y-34597257D01*
X18210980Y-34621066D01*
X18234790Y-34668685D01*
X18234790Y-34811542D01*
X18210980Y-34859161D01*
X18187171Y-34882971D01*
G04 #@! TO.C,C15*
X17040471Y-37982751D02*
X17016661Y-38006560D01*
X16945233Y-38030370D01*
X16897614Y-38030370D01*
X16826185Y-38006560D01*
X16778566Y-37958941D01*
X16754757Y-37911322D01*
X16730947Y-37816084D01*
X16730947Y-37744656D01*
X16754757Y-37649418D01*
X16778566Y-37601799D01*
X16826185Y-37554180D01*
X16897614Y-37530370D01*
X16945233Y-37530370D01*
X17016661Y-37554180D01*
X17040471Y-37577989D01*
X17516661Y-38030370D02*
X17230947Y-38030370D01*
X17373804Y-38030370D02*
X17373804Y-37530370D01*
X17326185Y-37601799D01*
X17278566Y-37649418D01*
X17230947Y-37673227D01*
X17969042Y-37530370D02*
X17730947Y-37530370D01*
X17707138Y-37768465D01*
X17730947Y-37744656D01*
X17778566Y-37720846D01*
X17897614Y-37720846D01*
X17945233Y-37744656D01*
X17969042Y-37768465D01*
X17992852Y-37816084D01*
X17992852Y-37935132D01*
X17969042Y-37982751D01*
X17945233Y-38006560D01*
X17897614Y-38030370D01*
X17778566Y-38030370D01*
X17730947Y-38006560D01*
X17707138Y-37982751D01*
D12*
G04 #@! TO.C,FB1*
X2638639Y-28358133D02*
X2638639Y-28691466D01*
X3162448Y-28691466D02*
X2162448Y-28691466D01*
X2162448Y-28215276D01*
X2638639Y-27500990D02*
X2686258Y-27358133D01*
X2733877Y-27310514D01*
X2829115Y-27262895D01*
X2971972Y-27262895D01*
X3067210Y-27310514D01*
X3114829Y-27358133D01*
X3162448Y-27453371D01*
X3162448Y-27834323D01*
X2162448Y-27834323D01*
X2162448Y-27500990D01*
X2210068Y-27405752D01*
X2257687Y-27358133D01*
X2352925Y-27310514D01*
X2448163Y-27310514D01*
X2543401Y-27358133D01*
X2591020Y-27405752D01*
X2638639Y-27500990D01*
X2638639Y-27834323D01*
X3162448Y-26310514D02*
X3162448Y-26881942D01*
X3162448Y-26596228D02*
X2162448Y-26596228D01*
X2305306Y-26691466D01*
X2400544Y-26786704D01*
X2448163Y-26881942D01*
G04 #@! TO.C,FB2*
X9674439Y-28265333D02*
X9674439Y-28598666D01*
X10198248Y-28598666D02*
X9198248Y-28598666D01*
X9198248Y-28122476D01*
X9674439Y-27408190D02*
X9722058Y-27265333D01*
X9769677Y-27217714D01*
X9864915Y-27170095D01*
X10007772Y-27170095D01*
X10103010Y-27217714D01*
X10150629Y-27265333D01*
X10198248Y-27360571D01*
X10198248Y-27741523D01*
X9198248Y-27741523D01*
X9198248Y-27408190D01*
X9245868Y-27312952D01*
X9293487Y-27265333D01*
X9388725Y-27217714D01*
X9483963Y-27217714D01*
X9579201Y-27265333D01*
X9626820Y-27312952D01*
X9674439Y-27408190D01*
X9674439Y-27741523D01*
X9293487Y-26789142D02*
X9245868Y-26741523D01*
X9198248Y-26646285D01*
X9198248Y-26408190D01*
X9245868Y-26312952D01*
X9293487Y-26265333D01*
X9388725Y-26217714D01*
X9483963Y-26217714D01*
X9626820Y-26265333D01*
X10198248Y-26836761D01*
X10198248Y-26217714D01*
D11*
G04 #@! TO.C,C27*
X2159771Y-25391228D02*
X2183580Y-25415038D01*
X2207390Y-25486466D01*
X2207390Y-25534085D01*
X2183580Y-25605514D01*
X2135961Y-25653133D01*
X2088342Y-25676942D01*
X1993104Y-25700752D01*
X1921676Y-25700752D01*
X1826438Y-25676942D01*
X1778819Y-25653133D01*
X1731200Y-25605514D01*
X1707390Y-25534085D01*
X1707390Y-25486466D01*
X1731200Y-25415038D01*
X1755009Y-25391228D01*
X1755009Y-25200752D02*
X1731200Y-25176942D01*
X1707390Y-25129323D01*
X1707390Y-25010276D01*
X1731200Y-24962657D01*
X1755009Y-24938847D01*
X1802628Y-24915038D01*
X1850247Y-24915038D01*
X1921676Y-24938847D01*
X2207390Y-25224561D01*
X2207390Y-24915038D01*
X1707390Y-24748371D02*
X1707390Y-24415038D01*
X2207390Y-24629323D01*
G04 #@! TO.C,C25*
X4123571Y-30963371D02*
X4099761Y-30987180D01*
X4028333Y-31010990D01*
X3980714Y-31010990D01*
X3909285Y-30987180D01*
X3861666Y-30939561D01*
X3837857Y-30891942D01*
X3814047Y-30796704D01*
X3814047Y-30725276D01*
X3837857Y-30630038D01*
X3861666Y-30582419D01*
X3909285Y-30534800D01*
X3980714Y-30510990D01*
X4028333Y-30510990D01*
X4099761Y-30534800D01*
X4123571Y-30558609D01*
X4314047Y-30558609D02*
X4337857Y-30534800D01*
X4385476Y-30510990D01*
X4504523Y-30510990D01*
X4552142Y-30534800D01*
X4575952Y-30558609D01*
X4599761Y-30606228D01*
X4599761Y-30653847D01*
X4575952Y-30725276D01*
X4290238Y-31010990D01*
X4599761Y-31010990D01*
X5052142Y-30510990D02*
X4814047Y-30510990D01*
X4790238Y-30749085D01*
X4814047Y-30725276D01*
X4861666Y-30701466D01*
X4980714Y-30701466D01*
X5028333Y-30725276D01*
X5052142Y-30749085D01*
X5075952Y-30796704D01*
X5075952Y-30915752D01*
X5052142Y-30963371D01*
X5028333Y-30987180D01*
X4980714Y-31010990D01*
X4861666Y-31010990D01*
X4814047Y-30987180D01*
X4790238Y-30963371D01*
G04 #@! TO.C,C22*
X7374771Y-30429971D02*
X7350961Y-30453780D01*
X7279533Y-30477590D01*
X7231914Y-30477590D01*
X7160485Y-30453780D01*
X7112866Y-30406161D01*
X7089057Y-30358542D01*
X7065247Y-30263304D01*
X7065247Y-30191876D01*
X7089057Y-30096638D01*
X7112866Y-30049019D01*
X7160485Y-30001400D01*
X7231914Y-29977590D01*
X7279533Y-29977590D01*
X7350961Y-30001400D01*
X7374771Y-30025209D01*
X7565247Y-30025209D02*
X7589057Y-30001400D01*
X7636676Y-29977590D01*
X7755723Y-29977590D01*
X7803342Y-30001400D01*
X7827152Y-30025209D01*
X7850961Y-30072828D01*
X7850961Y-30120447D01*
X7827152Y-30191876D01*
X7541438Y-30477590D01*
X7850961Y-30477590D01*
X8041438Y-30025209D02*
X8065247Y-30001400D01*
X8112866Y-29977590D01*
X8231914Y-29977590D01*
X8279533Y-30001400D01*
X8303342Y-30025209D01*
X8327152Y-30072828D01*
X8327152Y-30120447D01*
X8303342Y-30191876D01*
X8017628Y-30477590D01*
X8327152Y-30477590D01*
G04 #@! TO.C,C38*
X9966971Y-23731428D02*
X9990780Y-23755238D01*
X10014590Y-23826666D01*
X10014590Y-23874285D01*
X9990780Y-23945714D01*
X9943161Y-23993333D01*
X9895542Y-24017142D01*
X9800304Y-24040952D01*
X9728876Y-24040952D01*
X9633638Y-24017142D01*
X9586019Y-23993333D01*
X9538400Y-23945714D01*
X9514590Y-23874285D01*
X9514590Y-23826666D01*
X9538400Y-23755238D01*
X9562209Y-23731428D01*
X9514590Y-23564761D02*
X9514590Y-23255238D01*
X9705066Y-23421904D01*
X9705066Y-23350476D01*
X9728876Y-23302857D01*
X9752685Y-23279047D01*
X9800304Y-23255238D01*
X9919352Y-23255238D01*
X9966971Y-23279047D01*
X9990780Y-23302857D01*
X10014590Y-23350476D01*
X10014590Y-23493333D01*
X9990780Y-23540952D01*
X9966971Y-23564761D01*
X9728876Y-22969523D02*
X9705066Y-23017142D01*
X9681257Y-23040952D01*
X9633638Y-23064761D01*
X9609828Y-23064761D01*
X9562209Y-23040952D01*
X9538400Y-23017142D01*
X9514590Y-22969523D01*
X9514590Y-22874285D01*
X9538400Y-22826666D01*
X9562209Y-22802857D01*
X9609828Y-22779047D01*
X9633638Y-22779047D01*
X9681257Y-22802857D01*
X9705066Y-22826666D01*
X9728876Y-22874285D01*
X9728876Y-22969523D01*
X9752685Y-23017142D01*
X9776495Y-23040952D01*
X9824114Y-23064761D01*
X9919352Y-23064761D01*
X9966971Y-23040952D01*
X9990780Y-23017142D01*
X10014590Y-22969523D01*
X10014590Y-22874285D01*
X9990780Y-22826666D01*
X9966971Y-22802857D01*
X9919352Y-22779047D01*
X9824114Y-22779047D01*
X9776495Y-22802857D01*
X9752685Y-22826666D01*
X9728876Y-22874285D01*
G04 #@! TO.C,R65*
X18226190Y-65921428D02*
X17988095Y-66088095D01*
X18226190Y-66207142D02*
X17726190Y-66207142D01*
X17726190Y-66016666D01*
X17750000Y-65969047D01*
X17773809Y-65945238D01*
X17821428Y-65921428D01*
X17892857Y-65921428D01*
X17940476Y-65945238D01*
X17964285Y-65969047D01*
X17988095Y-66016666D01*
X17988095Y-66207142D01*
X17726190Y-65492857D02*
X17726190Y-65588095D01*
X17750000Y-65635714D01*
X17773809Y-65659523D01*
X17845238Y-65707142D01*
X17940476Y-65730952D01*
X18130952Y-65730952D01*
X18178571Y-65707142D01*
X18202380Y-65683333D01*
X18226190Y-65635714D01*
X18226190Y-65540476D01*
X18202380Y-65492857D01*
X18178571Y-65469047D01*
X18130952Y-65445238D01*
X18011904Y-65445238D01*
X17964285Y-65469047D01*
X17940476Y-65492857D01*
X17916666Y-65540476D01*
X17916666Y-65635714D01*
X17940476Y-65683333D01*
X17964285Y-65707142D01*
X18011904Y-65730952D01*
X17726190Y-64992857D02*
X17726190Y-65230952D01*
X17964285Y-65254761D01*
X17940476Y-65230952D01*
X17916666Y-65183333D01*
X17916666Y-65064285D01*
X17940476Y-65016666D01*
X17964285Y-64992857D01*
X18011904Y-64969047D01*
X18130952Y-64969047D01*
X18178571Y-64992857D01*
X18202380Y-65016666D01*
X18226190Y-65064285D01*
X18226190Y-65183333D01*
X18202380Y-65230952D01*
X18178571Y-65254761D01*
D12*
G04 #@! TO.C,TP29*
X5551704Y-50311780D02*
X6123133Y-50311780D01*
X5837419Y-51311780D02*
X5837419Y-50311780D01*
X6456466Y-51311780D02*
X6456466Y-50311780D01*
X6837419Y-50311780D01*
X6932657Y-50359400D01*
X6980276Y-50407019D01*
X7027895Y-50502257D01*
X7027895Y-50645114D01*
X6980276Y-50740352D01*
X6932657Y-50787971D01*
X6837419Y-50835590D01*
X6456466Y-50835590D01*
X7408847Y-50407019D02*
X7456466Y-50359400D01*
X7551704Y-50311780D01*
X7789799Y-50311780D01*
X7885038Y-50359400D01*
X7932657Y-50407019D01*
X7980276Y-50502257D01*
X7980276Y-50597495D01*
X7932657Y-50740352D01*
X7361228Y-51311780D01*
X7980276Y-51311780D01*
X8456466Y-51311780D02*
X8646942Y-51311780D01*
X8742180Y-51264161D01*
X8789800Y-51216542D01*
X8885038Y-51073685D01*
X8932657Y-50883209D01*
X8932657Y-50502257D01*
X8885038Y-50407019D01*
X8837419Y-50359400D01*
X8742180Y-50311780D01*
X8551704Y-50311780D01*
X8456466Y-50359400D01*
X8408847Y-50407019D01*
X8361228Y-50502257D01*
X8361228Y-50740352D01*
X8408847Y-50835590D01*
X8456466Y-50883209D01*
X8551704Y-50930828D01*
X8742180Y-50930828D01*
X8837419Y-50883209D01*
X8885038Y-50835590D01*
X8932657Y-50740352D01*
G04 #@! TO.C,TP30*
X21761904Y-64854380D02*
X22333333Y-64854380D01*
X22047619Y-65854380D02*
X22047619Y-64854380D01*
X22666666Y-65854380D02*
X22666666Y-64854380D01*
X23047619Y-64854380D01*
X23142857Y-64902000D01*
X23190476Y-64949619D01*
X23238095Y-65044857D01*
X23238095Y-65187714D01*
X23190476Y-65282952D01*
X23142857Y-65330571D01*
X23047619Y-65378190D01*
X22666666Y-65378190D01*
X23571428Y-64854380D02*
X24190476Y-64854380D01*
X23857142Y-65235333D01*
X24000000Y-65235333D01*
X24095238Y-65282952D01*
X24142857Y-65330571D01*
X24190476Y-65425809D01*
X24190476Y-65663904D01*
X24142857Y-65759142D01*
X24095238Y-65806761D01*
X24000000Y-65854380D01*
X23714285Y-65854380D01*
X23619047Y-65806761D01*
X23571428Y-65759142D01*
X24809523Y-64854380D02*
X24904761Y-64854380D01*
X25000000Y-64902000D01*
X25047619Y-64949619D01*
X25095238Y-65044857D01*
X25142857Y-65235333D01*
X25142857Y-65473428D01*
X25095238Y-65663904D01*
X25047619Y-65759142D01*
X25000000Y-65806761D01*
X24904761Y-65854380D01*
X24809523Y-65854380D01*
X24714285Y-65806761D01*
X24666666Y-65759142D01*
X24619047Y-65663904D01*
X24571428Y-65473428D01*
X24571428Y-65235333D01*
X24619047Y-65044857D01*
X24666666Y-64949619D01*
X24714285Y-64902000D01*
X24809523Y-64854380D01*
G04 #@! TO.C,TP31*
X41568904Y-50032380D02*
X42140333Y-50032380D01*
X41854619Y-51032380D02*
X41854619Y-50032380D01*
X42473666Y-51032380D02*
X42473666Y-50032380D01*
X42854619Y-50032380D01*
X42949857Y-50080000D01*
X42997476Y-50127619D01*
X43045095Y-50222857D01*
X43045095Y-50365714D01*
X42997476Y-50460952D01*
X42949857Y-50508571D01*
X42854619Y-50556190D01*
X42473666Y-50556190D01*
X43378428Y-50032380D02*
X43997476Y-50032380D01*
X43664142Y-50413333D01*
X43807000Y-50413333D01*
X43902238Y-50460952D01*
X43949857Y-50508571D01*
X43997476Y-50603809D01*
X43997476Y-50841904D01*
X43949857Y-50937142D01*
X43902238Y-50984761D01*
X43807000Y-51032380D01*
X43521285Y-51032380D01*
X43426047Y-50984761D01*
X43378428Y-50937142D01*
X44949857Y-51032380D02*
X44378428Y-51032380D01*
X44664142Y-51032380D02*
X44664142Y-50032380D01*
X44568904Y-50175238D01*
X44473666Y-50270476D01*
X44378428Y-50318095D01*
G04 #@! TO.C,TP32*
X16219704Y-8985980D02*
X16791133Y-8985980D01*
X16505419Y-9985980D02*
X16505419Y-8985980D01*
X17124466Y-9985980D02*
X17124466Y-8985980D01*
X17505419Y-8985980D01*
X17600657Y-9033600D01*
X17648276Y-9081219D01*
X17695895Y-9176457D01*
X17695895Y-9319314D01*
X17648276Y-9414552D01*
X17600657Y-9462171D01*
X17505419Y-9509790D01*
X17124466Y-9509790D01*
X18029228Y-8985980D02*
X18648276Y-8985980D01*
X18314942Y-9366933D01*
X18457800Y-9366933D01*
X18553038Y-9414552D01*
X18600657Y-9462171D01*
X18648276Y-9557409D01*
X18648276Y-9795504D01*
X18600657Y-9890742D01*
X18553038Y-9938361D01*
X18457800Y-9985980D01*
X18172085Y-9985980D01*
X18076847Y-9938361D01*
X18029228Y-9890742D01*
X19029228Y-9081219D02*
X19076847Y-9033600D01*
X19172085Y-8985980D01*
X19410180Y-8985980D01*
X19505419Y-9033600D01*
X19553038Y-9081219D01*
X19600657Y-9176457D01*
X19600657Y-9271695D01*
X19553038Y-9414552D01*
X18981609Y-9985980D01*
X19600657Y-9985980D01*
G04 #@! TO.C,TP33*
X25389104Y-41362380D02*
X25960533Y-41362380D01*
X25674819Y-42362380D02*
X25674819Y-41362380D01*
X26293866Y-42362380D02*
X26293866Y-41362380D01*
X26674819Y-41362380D01*
X26770057Y-41410000D01*
X26817676Y-41457619D01*
X26865295Y-41552857D01*
X26865295Y-41695714D01*
X26817676Y-41790952D01*
X26770057Y-41838571D01*
X26674819Y-41886190D01*
X26293866Y-41886190D01*
X27198628Y-41362380D02*
X27817676Y-41362380D01*
X27484342Y-41743333D01*
X27627200Y-41743333D01*
X27722438Y-41790952D01*
X27770057Y-41838571D01*
X27817676Y-41933809D01*
X27817676Y-42171904D01*
X27770057Y-42267142D01*
X27722438Y-42314761D01*
X27627200Y-42362380D01*
X27341485Y-42362380D01*
X27246247Y-42314761D01*
X27198628Y-42267142D01*
X28151009Y-41362380D02*
X28770057Y-41362380D01*
X28436723Y-41743333D01*
X28579580Y-41743333D01*
X28674819Y-41790952D01*
X28722438Y-41838571D01*
X28770057Y-41933809D01*
X28770057Y-42171904D01*
X28722438Y-42267142D01*
X28674819Y-42314761D01*
X28579580Y-42362380D01*
X28293866Y-42362380D01*
X28198628Y-42314761D01*
X28151009Y-42267142D01*
G04 #@! TO.C,TP34*
X19461904Y-37052380D02*
X20033333Y-37052380D01*
X19747619Y-38052380D02*
X19747619Y-37052380D01*
X20366666Y-38052380D02*
X20366666Y-37052380D01*
X20747619Y-37052380D01*
X20842857Y-37100000D01*
X20890476Y-37147619D01*
X20938095Y-37242857D01*
X20938095Y-37385714D01*
X20890476Y-37480952D01*
X20842857Y-37528571D01*
X20747619Y-37576190D01*
X20366666Y-37576190D01*
X21271428Y-37052380D02*
X21890476Y-37052380D01*
X21557142Y-37433333D01*
X21700000Y-37433333D01*
X21795238Y-37480952D01*
X21842857Y-37528571D01*
X21890476Y-37623809D01*
X21890476Y-37861904D01*
X21842857Y-37957142D01*
X21795238Y-38004761D01*
X21700000Y-38052380D01*
X21414285Y-38052380D01*
X21319047Y-38004761D01*
X21271428Y-37957142D01*
X22747619Y-37385714D02*
X22747619Y-38052380D01*
X22509523Y-37004761D02*
X22271428Y-37719047D01*
X22890476Y-37719047D01*
G04 #@! TO.C,TP3*
X42959495Y-43013380D02*
X43530923Y-43013380D01*
X43245209Y-44013380D02*
X43245209Y-43013380D01*
X43864257Y-44013380D02*
X43864257Y-43013380D01*
X44245209Y-43013380D01*
X44340447Y-43061000D01*
X44388066Y-43108619D01*
X44435685Y-43203857D01*
X44435685Y-43346714D01*
X44388066Y-43441952D01*
X44340447Y-43489571D01*
X44245209Y-43537190D01*
X43864257Y-43537190D01*
X44769019Y-43013380D02*
X45388066Y-43013380D01*
X45054733Y-43394333D01*
X45197590Y-43394333D01*
X45292828Y-43441952D01*
X45340447Y-43489571D01*
X45388066Y-43584809D01*
X45388066Y-43822904D01*
X45340447Y-43918142D01*
X45292828Y-43965761D01*
X45197590Y-44013380D01*
X44911876Y-44013380D01*
X44816638Y-43965761D01*
X44769019Y-43918142D01*
G04 #@! TO.C,TP8*
X43124595Y-1623880D02*
X43696023Y-1623880D01*
X43410309Y-2623880D02*
X43410309Y-1623880D01*
X44029357Y-2623880D02*
X44029357Y-1623880D01*
X44410309Y-1623880D01*
X44505547Y-1671500D01*
X44553166Y-1719119D01*
X44600785Y-1814357D01*
X44600785Y-1957214D01*
X44553166Y-2052452D01*
X44505547Y-2100071D01*
X44410309Y-2147690D01*
X44029357Y-2147690D01*
X45172214Y-2052452D02*
X45076976Y-2004833D01*
X45029357Y-1957214D01*
X44981738Y-1861976D01*
X44981738Y-1814357D01*
X45029357Y-1719119D01*
X45076976Y-1671500D01*
X45172214Y-1623880D01*
X45362690Y-1623880D01*
X45457928Y-1671500D01*
X45505547Y-1719119D01*
X45553166Y-1814357D01*
X45553166Y-1861976D01*
X45505547Y-1957214D01*
X45457928Y-2004833D01*
X45362690Y-2052452D01*
X45172214Y-2052452D01*
X45076976Y-2100071D01*
X45029357Y-2147690D01*
X44981738Y-2242928D01*
X44981738Y-2433404D01*
X45029357Y-2528642D01*
X45076976Y-2576261D01*
X45172214Y-2623880D01*
X45362690Y-2623880D01*
X45457928Y-2576261D01*
X45505547Y-2528642D01*
X45553166Y-2433404D01*
X45553166Y-2242928D01*
X45505547Y-2147690D01*
X45457928Y-2100071D01*
X45362690Y-2052452D01*
G04 #@! TO.C,TP12*
X46331404Y-1560380D02*
X46902833Y-1560380D01*
X46617119Y-2560380D02*
X46617119Y-1560380D01*
X47236166Y-2560380D02*
X47236166Y-1560380D01*
X47617119Y-1560380D01*
X47712357Y-1608000D01*
X47759976Y-1655619D01*
X47807595Y-1750857D01*
X47807595Y-1893714D01*
X47759976Y-1988952D01*
X47712357Y-2036571D01*
X47617119Y-2084190D01*
X47236166Y-2084190D01*
X48759976Y-2560380D02*
X48188547Y-2560380D01*
X48474261Y-2560380D02*
X48474261Y-1560380D01*
X48379023Y-1703238D01*
X48283785Y-1798476D01*
X48188547Y-1846095D01*
X49140928Y-1655619D02*
X49188547Y-1608000D01*
X49283785Y-1560380D01*
X49521880Y-1560380D01*
X49617119Y-1608000D01*
X49664738Y-1655619D01*
X49712357Y-1750857D01*
X49712357Y-1846095D01*
X49664738Y-1988952D01*
X49093309Y-2560380D01*
X49712357Y-2560380D01*
G04 #@! TO.C,TP13*
X50268404Y-1560380D02*
X50839833Y-1560380D01*
X50554119Y-2560380D02*
X50554119Y-1560380D01*
X51173166Y-2560380D02*
X51173166Y-1560380D01*
X51554119Y-1560380D01*
X51649357Y-1608000D01*
X51696976Y-1655619D01*
X51744595Y-1750857D01*
X51744595Y-1893714D01*
X51696976Y-1988952D01*
X51649357Y-2036571D01*
X51554119Y-2084190D01*
X51173166Y-2084190D01*
X52696976Y-2560380D02*
X52125547Y-2560380D01*
X52411261Y-2560380D02*
X52411261Y-1560380D01*
X52316023Y-1703238D01*
X52220785Y-1798476D01*
X52125547Y-1846095D01*
X53030309Y-1560380D02*
X53649357Y-1560380D01*
X53316023Y-1941333D01*
X53458880Y-1941333D01*
X53554119Y-1988952D01*
X53601738Y-2036571D01*
X53649357Y-2131809D01*
X53649357Y-2369904D01*
X53601738Y-2465142D01*
X53554119Y-2512761D01*
X53458880Y-2560380D01*
X53173166Y-2560380D01*
X53077928Y-2512761D01*
X53030309Y-2465142D01*
G04 #@! TO.C,J11*
X69904076Y-29013780D02*
X69904076Y-29728066D01*
X69856457Y-29870923D01*
X69761219Y-29966161D01*
X69618361Y-30013780D01*
X69523123Y-30013780D01*
X70904076Y-30013780D02*
X70332647Y-30013780D01*
X70618361Y-30013780D02*
X70618361Y-29013780D01*
X70523123Y-29156638D01*
X70427885Y-29251876D01*
X70332647Y-29299495D01*
X71856457Y-30013780D02*
X71285028Y-30013780D01*
X71570742Y-30013780D02*
X71570742Y-29013780D01*
X71475504Y-29156638D01*
X71380266Y-29251876D01*
X71285028Y-29299495D01*
D13*
G04 #@! TO.C,R10*
X16075083Y-47739069D02*
X15908416Y-47500974D01*
X15789369Y-47739069D02*
X15789369Y-47239069D01*
X15979845Y-47239069D01*
X16027464Y-47262879D01*
X16051273Y-47286688D01*
X16075083Y-47334307D01*
X16075083Y-47405736D01*
X16051273Y-47453355D01*
X16027464Y-47477164D01*
X15979845Y-47500974D01*
X15789369Y-47500974D01*
X16551273Y-47739069D02*
X16265559Y-47739069D01*
X16408416Y-47739069D02*
X16408416Y-47239069D01*
X16360797Y-47310498D01*
X16313178Y-47358117D01*
X16265559Y-47381926D01*
X16860797Y-47239069D02*
X16908416Y-47239069D01*
X16956035Y-47262879D01*
X16979845Y-47286688D01*
X17003654Y-47334307D01*
X17027464Y-47429545D01*
X17027464Y-47548593D01*
X17003654Y-47643831D01*
X16979845Y-47691450D01*
X16956035Y-47715259D01*
X16908416Y-47739069D01*
X16860797Y-47739069D01*
X16813178Y-47715259D01*
X16789369Y-47691450D01*
X16765559Y-47643831D01*
X16741750Y-47548593D01*
X16741750Y-47429545D01*
X16765559Y-47334307D01*
X16789369Y-47286688D01*
X16813178Y-47262879D01*
X16860797Y-47239069D01*
D11*
G04 #@! TO.C,C36*
X22352584Y-58113153D02*
X22352584Y-58146825D01*
X22318912Y-58214168D01*
X22285241Y-58247840D01*
X22217897Y-58281512D01*
X22150554Y-58281512D01*
X22100046Y-58264676D01*
X22015867Y-58214168D01*
X21965359Y-58163661D01*
X21914851Y-58079481D01*
X21898016Y-58028974D01*
X21898016Y-57961630D01*
X21931687Y-57894287D01*
X21965359Y-57860615D01*
X22032703Y-57826943D01*
X22066374Y-57826943D01*
X22150554Y-57675420D02*
X22369420Y-57456554D01*
X22386256Y-57709092D01*
X22436764Y-57658584D01*
X22487271Y-57641748D01*
X22520943Y-57641748D01*
X22571451Y-57658584D01*
X22655630Y-57742764D01*
X22672466Y-57793271D01*
X22672466Y-57826943D01*
X22655630Y-57877451D01*
X22554615Y-57978466D01*
X22504107Y-57995302D01*
X22470435Y-57995302D01*
X22672466Y-57153508D02*
X22605122Y-57220851D01*
X22588287Y-57271359D01*
X22588287Y-57305031D01*
X22605122Y-57389210D01*
X22655630Y-57473390D01*
X22790317Y-57608077D01*
X22840825Y-57624912D01*
X22874496Y-57624912D01*
X22925004Y-57608077D01*
X22992348Y-57540733D01*
X23009183Y-57490225D01*
X23009183Y-57456554D01*
X22992348Y-57406046D01*
X22908168Y-57321867D01*
X22857661Y-57305031D01*
X22823989Y-57305031D01*
X22773481Y-57321867D01*
X22706138Y-57389210D01*
X22689302Y-57439718D01*
X22689302Y-57473390D01*
X22706138Y-57523897D01*
D12*
G04 #@! TO.C,U8*
X32602026Y-53237521D02*
X33174446Y-53809941D01*
X33275461Y-53843613D01*
X33342805Y-53843613D01*
X33443820Y-53809941D01*
X33578507Y-53675254D01*
X33612179Y-53574239D01*
X33612179Y-53506895D01*
X33578507Y-53405880D01*
X33006087Y-52833460D01*
X33746866Y-52698773D02*
X33645851Y-52732445D01*
X33578507Y-52732445D01*
X33477492Y-52698773D01*
X33443820Y-52665102D01*
X33410148Y-52564086D01*
X33410148Y-52496743D01*
X33443820Y-52395728D01*
X33578507Y-52261041D01*
X33679522Y-52227369D01*
X33746866Y-52227369D01*
X33847881Y-52261041D01*
X33881553Y-52294712D01*
X33915225Y-52395728D01*
X33915225Y-52463071D01*
X33881553Y-52564086D01*
X33746866Y-52698773D01*
X33713194Y-52799789D01*
X33713194Y-52867132D01*
X33746866Y-52968147D01*
X33881553Y-53102834D01*
X33982568Y-53136506D01*
X34049912Y-53136506D01*
X34150927Y-53102834D01*
X34285614Y-52968147D01*
X34319286Y-52867132D01*
X34319286Y-52799789D01*
X34285614Y-52698773D01*
X34150927Y-52564086D01*
X34049912Y-52530415D01*
X33982568Y-52530415D01*
X33881553Y-52564086D01*
D11*
G04 #@! TO.C,R21*
X46160571Y-53693190D02*
X45993904Y-53455095D01*
X45874857Y-53693190D02*
X45874857Y-53193190D01*
X46065333Y-53193190D01*
X46112952Y-53217000D01*
X46136761Y-53240809D01*
X46160571Y-53288428D01*
X46160571Y-53359857D01*
X46136761Y-53407476D01*
X46112952Y-53431285D01*
X46065333Y-53455095D01*
X45874857Y-53455095D01*
X46351047Y-53240809D02*
X46374857Y-53217000D01*
X46422476Y-53193190D01*
X46541523Y-53193190D01*
X46589142Y-53217000D01*
X46612952Y-53240809D01*
X46636761Y-53288428D01*
X46636761Y-53336047D01*
X46612952Y-53407476D01*
X46327238Y-53693190D01*
X46636761Y-53693190D01*
X47112952Y-53693190D02*
X46827238Y-53693190D01*
X46970095Y-53693190D02*
X46970095Y-53193190D01*
X46922476Y-53264619D01*
X46874857Y-53312238D01*
X46827238Y-53336047D01*
G04 #@! TO.C,R9*
X14726190Y-61883333D02*
X14488095Y-62050000D01*
X14726190Y-62169047D02*
X14226190Y-62169047D01*
X14226190Y-61978571D01*
X14250000Y-61930952D01*
X14273809Y-61907142D01*
X14321428Y-61883333D01*
X14392857Y-61883333D01*
X14440476Y-61907142D01*
X14464285Y-61930952D01*
X14488095Y-61978571D01*
X14488095Y-62169047D01*
X14726190Y-61645238D02*
X14726190Y-61550000D01*
X14702380Y-61502380D01*
X14678571Y-61478571D01*
X14607142Y-61430952D01*
X14511904Y-61407142D01*
X14321428Y-61407142D01*
X14273809Y-61430952D01*
X14250000Y-61454761D01*
X14226190Y-61502380D01*
X14226190Y-61597619D01*
X14250000Y-61645238D01*
X14273809Y-61669047D01*
X14321428Y-61692857D01*
X14440476Y-61692857D01*
X14488095Y-61669047D01*
X14511904Y-61645238D01*
X14535714Y-61597619D01*
X14535714Y-61502380D01*
X14511904Y-61454761D01*
X14488095Y-61430952D01*
X14440476Y-61407142D01*
G04 #@! TO.C,R14*
X28026190Y-67521428D02*
X27788095Y-67688095D01*
X28026190Y-67807142D02*
X27526190Y-67807142D01*
X27526190Y-67616666D01*
X27550000Y-67569047D01*
X27573809Y-67545238D01*
X27621428Y-67521428D01*
X27692857Y-67521428D01*
X27740476Y-67545238D01*
X27764285Y-67569047D01*
X27788095Y-67616666D01*
X27788095Y-67807142D01*
X28026190Y-67045238D02*
X28026190Y-67330952D01*
X28026190Y-67188095D02*
X27526190Y-67188095D01*
X27597619Y-67235714D01*
X27645238Y-67283333D01*
X27669047Y-67330952D01*
X27692857Y-66616666D02*
X28026190Y-66616666D01*
X27502380Y-66735714D02*
X27859523Y-66854761D01*
X27859523Y-66545238D01*
G04 #@! TO.C,R11*
X20578571Y-65226190D02*
X20411904Y-64988095D01*
X20292857Y-65226190D02*
X20292857Y-64726190D01*
X20483333Y-64726190D01*
X20530952Y-64750000D01*
X20554761Y-64773809D01*
X20578571Y-64821428D01*
X20578571Y-64892857D01*
X20554761Y-64940476D01*
X20530952Y-64964285D01*
X20483333Y-64988095D01*
X20292857Y-64988095D01*
X21054761Y-65226190D02*
X20769047Y-65226190D01*
X20911904Y-65226190D02*
X20911904Y-64726190D01*
X20864285Y-64797619D01*
X20816666Y-64845238D01*
X20769047Y-64869047D01*
X21530952Y-65226190D02*
X21245238Y-65226190D01*
X21388095Y-65226190D02*
X21388095Y-64726190D01*
X21340476Y-64797619D01*
X21292857Y-64845238D01*
X21245238Y-64869047D01*
G04 #@! TO.C,C65*
X34214571Y-66869428D02*
X34238380Y-66893238D01*
X34262190Y-66964666D01*
X34262190Y-67012285D01*
X34238380Y-67083714D01*
X34190761Y-67131333D01*
X34143142Y-67155142D01*
X34047904Y-67178952D01*
X33976476Y-67178952D01*
X33881238Y-67155142D01*
X33833619Y-67131333D01*
X33786000Y-67083714D01*
X33762190Y-67012285D01*
X33762190Y-66964666D01*
X33786000Y-66893238D01*
X33809809Y-66869428D01*
X33762190Y-66440857D02*
X33762190Y-66536095D01*
X33786000Y-66583714D01*
X33809809Y-66607523D01*
X33881238Y-66655142D01*
X33976476Y-66678952D01*
X34166952Y-66678952D01*
X34214571Y-66655142D01*
X34238380Y-66631333D01*
X34262190Y-66583714D01*
X34262190Y-66488476D01*
X34238380Y-66440857D01*
X34214571Y-66417047D01*
X34166952Y-66393238D01*
X34047904Y-66393238D01*
X34000285Y-66417047D01*
X33976476Y-66440857D01*
X33952666Y-66488476D01*
X33952666Y-66583714D01*
X33976476Y-66631333D01*
X34000285Y-66655142D01*
X34047904Y-66678952D01*
X33762190Y-65940857D02*
X33762190Y-66178952D01*
X34000285Y-66202761D01*
X33976476Y-66178952D01*
X33952666Y-66131333D01*
X33952666Y-66012285D01*
X33976476Y-65964666D01*
X34000285Y-65940857D01*
X34047904Y-65917047D01*
X34166952Y-65917047D01*
X34214571Y-65940857D01*
X34238380Y-65964666D01*
X34262190Y-66012285D01*
X34262190Y-66131333D01*
X34238380Y-66178952D01*
X34214571Y-66202761D01*
G04 #@! TO.C,D19*
X44392857Y-48676190D02*
X44392857Y-48176190D01*
X44511904Y-48176190D01*
X44583333Y-48200000D01*
X44630952Y-48247619D01*
X44654761Y-48295238D01*
X44678571Y-48390476D01*
X44678571Y-48461904D01*
X44654761Y-48557142D01*
X44630952Y-48604761D01*
X44583333Y-48652380D01*
X44511904Y-48676190D01*
X44392857Y-48676190D01*
X45154761Y-48676190D02*
X44869047Y-48676190D01*
X45011904Y-48676190D02*
X45011904Y-48176190D01*
X44964285Y-48247619D01*
X44916666Y-48295238D01*
X44869047Y-48319047D01*
X45392857Y-48676190D02*
X45488095Y-48676190D01*
X45535714Y-48652380D01*
X45559523Y-48628571D01*
X45607142Y-48557142D01*
X45630952Y-48461904D01*
X45630952Y-48271428D01*
X45607142Y-48223809D01*
X45583333Y-48200000D01*
X45535714Y-48176190D01*
X45440476Y-48176190D01*
X45392857Y-48200000D01*
X45369047Y-48223809D01*
X45345238Y-48271428D01*
X45345238Y-48390476D01*
X45369047Y-48438095D01*
X45392857Y-48461904D01*
X45440476Y-48485714D01*
X45535714Y-48485714D01*
X45583333Y-48461904D01*
X45607142Y-48438095D01*
X45630952Y-48390476D01*
G04 #@! TO.C,D20*
X41092857Y-8626190D02*
X41092857Y-8126190D01*
X41211904Y-8126190D01*
X41283333Y-8150000D01*
X41330952Y-8197619D01*
X41354761Y-8245238D01*
X41378571Y-8340476D01*
X41378571Y-8411904D01*
X41354761Y-8507142D01*
X41330952Y-8554761D01*
X41283333Y-8602380D01*
X41211904Y-8626190D01*
X41092857Y-8626190D01*
X41569047Y-8173809D02*
X41592857Y-8150000D01*
X41640476Y-8126190D01*
X41759523Y-8126190D01*
X41807142Y-8150000D01*
X41830952Y-8173809D01*
X41854761Y-8221428D01*
X41854761Y-8269047D01*
X41830952Y-8340476D01*
X41545238Y-8626190D01*
X41854761Y-8626190D01*
X42164285Y-8126190D02*
X42211904Y-8126190D01*
X42259523Y-8150000D01*
X42283333Y-8173809D01*
X42307142Y-8221428D01*
X42330952Y-8316666D01*
X42330952Y-8435714D01*
X42307142Y-8530952D01*
X42283333Y-8578571D01*
X42259523Y-8602380D01*
X42211904Y-8626190D01*
X42164285Y-8626190D01*
X42116666Y-8602380D01*
X42092857Y-8578571D01*
X42069047Y-8530952D01*
X42045238Y-8435714D01*
X42045238Y-8316666D01*
X42069047Y-8221428D01*
X42092857Y-8173809D01*
X42116666Y-8150000D01*
X42164285Y-8126190D01*
G04 #@! TO.C,C32*
X20709771Y-46101771D02*
X20685961Y-46125580D01*
X20614533Y-46149390D01*
X20566914Y-46149390D01*
X20495485Y-46125580D01*
X20447866Y-46077961D01*
X20424057Y-46030342D01*
X20400247Y-45935104D01*
X20400247Y-45863676D01*
X20424057Y-45768438D01*
X20447866Y-45720819D01*
X20495485Y-45673200D01*
X20566914Y-45649390D01*
X20614533Y-45649390D01*
X20685961Y-45673200D01*
X20709771Y-45697009D01*
X20876438Y-45649390D02*
X21185961Y-45649390D01*
X21019295Y-45839866D01*
X21090723Y-45839866D01*
X21138342Y-45863676D01*
X21162152Y-45887485D01*
X21185961Y-45935104D01*
X21185961Y-46054152D01*
X21162152Y-46101771D01*
X21138342Y-46125580D01*
X21090723Y-46149390D01*
X20947866Y-46149390D01*
X20900247Y-46125580D01*
X20876438Y-46101771D01*
X21376438Y-45697009D02*
X21400247Y-45673200D01*
X21447866Y-45649390D01*
X21566914Y-45649390D01*
X21614533Y-45673200D01*
X21638342Y-45697009D01*
X21662152Y-45744628D01*
X21662152Y-45792247D01*
X21638342Y-45863676D01*
X21352628Y-46149390D01*
X21662152Y-46149390D01*
G04 #@! TO.C,R12*
X19826190Y-65421428D02*
X19588095Y-65588095D01*
X19826190Y-65707142D02*
X19326190Y-65707142D01*
X19326190Y-65516666D01*
X19350000Y-65469047D01*
X19373809Y-65445238D01*
X19421428Y-65421428D01*
X19492857Y-65421428D01*
X19540476Y-65445238D01*
X19564285Y-65469047D01*
X19588095Y-65516666D01*
X19588095Y-65707142D01*
X19826190Y-64945238D02*
X19826190Y-65230952D01*
X19826190Y-65088095D02*
X19326190Y-65088095D01*
X19397619Y-65135714D01*
X19445238Y-65183333D01*
X19469047Y-65230952D01*
X19373809Y-64754761D02*
X19350000Y-64730952D01*
X19326190Y-64683333D01*
X19326190Y-64564285D01*
X19350000Y-64516666D01*
X19373809Y-64492857D01*
X19421428Y-64469047D01*
X19469047Y-64469047D01*
X19540476Y-64492857D01*
X19826190Y-64778571D01*
X19826190Y-64469047D01*
G04 #@! TO.C,C2*
X23165571Y-4553733D02*
X23189380Y-4577542D01*
X23213190Y-4648971D01*
X23213190Y-4696590D01*
X23189380Y-4768019D01*
X23141761Y-4815638D01*
X23094142Y-4839447D01*
X22998904Y-4863257D01*
X22927476Y-4863257D01*
X22832238Y-4839447D01*
X22784619Y-4815638D01*
X22737000Y-4768019D01*
X22713190Y-4696590D01*
X22713190Y-4648971D01*
X22737000Y-4577542D01*
X22760809Y-4553733D01*
X22760809Y-4363257D02*
X22737000Y-4339447D01*
X22713190Y-4291828D01*
X22713190Y-4172780D01*
X22737000Y-4125161D01*
X22760809Y-4101352D01*
X22808428Y-4077542D01*
X22856047Y-4077542D01*
X22927476Y-4101352D01*
X23213190Y-4387066D01*
X23213190Y-4077542D01*
G04 #@! TO.C,R64*
X13726190Y-66921428D02*
X13488095Y-67088095D01*
X13726190Y-67207142D02*
X13226190Y-67207142D01*
X13226190Y-67016666D01*
X13250000Y-66969047D01*
X13273809Y-66945238D01*
X13321428Y-66921428D01*
X13392857Y-66921428D01*
X13440476Y-66945238D01*
X13464285Y-66969047D01*
X13488095Y-67016666D01*
X13488095Y-67207142D01*
X13226190Y-66492857D02*
X13226190Y-66588095D01*
X13250000Y-66635714D01*
X13273809Y-66659523D01*
X13345238Y-66707142D01*
X13440476Y-66730952D01*
X13630952Y-66730952D01*
X13678571Y-66707142D01*
X13702380Y-66683333D01*
X13726190Y-66635714D01*
X13726190Y-66540476D01*
X13702380Y-66492857D01*
X13678571Y-66469047D01*
X13630952Y-66445238D01*
X13511904Y-66445238D01*
X13464285Y-66469047D01*
X13440476Y-66492857D01*
X13416666Y-66540476D01*
X13416666Y-66635714D01*
X13440476Y-66683333D01*
X13464285Y-66707142D01*
X13511904Y-66730952D01*
X13392857Y-66016666D02*
X13726190Y-66016666D01*
X13202380Y-66135714D02*
X13559523Y-66254761D01*
X13559523Y-65945238D01*
G04 #@! TO.C,C29*
X5258571Y-53153428D02*
X5282380Y-53177238D01*
X5306190Y-53248666D01*
X5306190Y-53296285D01*
X5282380Y-53367714D01*
X5234761Y-53415333D01*
X5187142Y-53439142D01*
X5091904Y-53462952D01*
X5020476Y-53462952D01*
X4925238Y-53439142D01*
X4877619Y-53415333D01*
X4830000Y-53367714D01*
X4806190Y-53296285D01*
X4806190Y-53248666D01*
X4830000Y-53177238D01*
X4853809Y-53153428D01*
X4853809Y-52962952D02*
X4830000Y-52939142D01*
X4806190Y-52891523D01*
X4806190Y-52772476D01*
X4830000Y-52724857D01*
X4853809Y-52701047D01*
X4901428Y-52677238D01*
X4949047Y-52677238D01*
X5020476Y-52701047D01*
X5306190Y-52986761D01*
X5306190Y-52677238D01*
X5306190Y-52439142D02*
X5306190Y-52343904D01*
X5282380Y-52296285D01*
X5258571Y-52272476D01*
X5187142Y-52224857D01*
X5091904Y-52201047D01*
X4901428Y-52201047D01*
X4853809Y-52224857D01*
X4830000Y-52248666D01*
X4806190Y-52296285D01*
X4806190Y-52391523D01*
X4830000Y-52439142D01*
X4853809Y-52462952D01*
X4901428Y-52486761D01*
X5020476Y-52486761D01*
X5068095Y-52462952D01*
X5091904Y-52439142D01*
X5115714Y-52391523D01*
X5115714Y-52296285D01*
X5091904Y-52248666D01*
X5068095Y-52224857D01*
X5020476Y-52201047D01*
D12*
G04 #@! TO.C,J12*
X26465076Y-11716980D02*
X26465076Y-12431266D01*
X26417457Y-12574123D01*
X26322219Y-12669361D01*
X26179361Y-12716980D01*
X26084123Y-12716980D01*
X27465076Y-12716980D02*
X26893647Y-12716980D01*
X27179361Y-12716980D02*
X27179361Y-11716980D01*
X27084123Y-11859838D01*
X26988885Y-11955076D01*
X26893647Y-12002695D01*
X27846028Y-11812219D02*
X27893647Y-11764600D01*
X27988885Y-11716980D01*
X28226980Y-11716980D01*
X28322219Y-11764600D01*
X28369838Y-11812219D01*
X28417457Y-11907457D01*
X28417457Y-12002695D01*
X28369838Y-12145552D01*
X27798409Y-12716980D01*
X28417457Y-12716980D01*
X24536504Y-22456980D02*
X24536504Y-21456980D01*
X24965076Y-21552219D02*
X25012695Y-21504600D01*
X25107933Y-21456980D01*
X25346028Y-21456980D01*
X25441266Y-21504600D01*
X25488885Y-21552219D01*
X25536504Y-21647457D01*
X25536504Y-21742695D01*
X25488885Y-21885552D01*
X24917457Y-22456980D01*
X25536504Y-22456980D01*
X26536504Y-22361742D02*
X26488885Y-22409361D01*
X26346028Y-22456980D01*
X26250790Y-22456980D01*
X26107933Y-22409361D01*
X26012695Y-22314123D01*
X25965076Y-22218885D01*
X25917457Y-22028409D01*
X25917457Y-21885552D01*
X25965076Y-21695076D01*
X26012695Y-21599838D01*
X26107933Y-21504600D01*
X26250790Y-21456980D01*
X26346028Y-21456980D01*
X26488885Y-21504600D01*
X26536504Y-21552219D01*
X26726980Y-22552219D02*
X27488885Y-22552219D01*
X28298409Y-22456980D02*
X27965076Y-21980790D01*
X27726980Y-22456980D02*
X27726980Y-21456980D01*
X28107933Y-21456980D01*
X28203171Y-21504600D01*
X28250790Y-21552219D01*
X28298409Y-21647457D01*
X28298409Y-21790314D01*
X28250790Y-21885552D01*
X28203171Y-21933171D01*
X28107933Y-21980790D01*
X27726980Y-21980790D01*
X28584123Y-21456980D02*
X29155552Y-21456980D01*
X28869838Y-22456980D02*
X28869838Y-21456980D01*
X30060314Y-22361742D02*
X30012695Y-22409361D01*
X29869838Y-22456980D01*
X29774600Y-22456980D01*
X29631742Y-22409361D01*
X29536504Y-22314123D01*
X29488885Y-22218885D01*
X29441266Y-22028409D01*
X29441266Y-21885552D01*
X29488885Y-21695076D01*
X29536504Y-21599838D01*
X29631742Y-21504600D01*
X29774600Y-21456980D01*
X29869838Y-21456980D01*
X30012695Y-21504600D01*
X30060314Y-21552219D01*
G04 #@! TO.C,D16*
X63452380Y-12414285D02*
X62452380Y-12414285D01*
X62452380Y-12176190D01*
X62500000Y-12033333D01*
X62595238Y-11938095D01*
X62690476Y-11890476D01*
X62880952Y-11842857D01*
X63023809Y-11842857D01*
X63214285Y-11890476D01*
X63309523Y-11938095D01*
X63404761Y-12033333D01*
X63452380Y-12176190D01*
X63452380Y-12414285D01*
X63452380Y-10890476D02*
X63452380Y-11461904D01*
X63452380Y-11176190D02*
X62452380Y-11176190D01*
X62595238Y-11271428D01*
X62690476Y-11366666D01*
X62738095Y-11461904D01*
X62452380Y-10033333D02*
X62452380Y-10223809D01*
X62500000Y-10319047D01*
X62547619Y-10366666D01*
X62690476Y-10461904D01*
X62880952Y-10509523D01*
X63261904Y-10509523D01*
X63357142Y-10461904D01*
X63404761Y-10414285D01*
X63452380Y-10319047D01*
X63452380Y-10128571D01*
X63404761Y-10033333D01*
X63357142Y-9985714D01*
X63261904Y-9938095D01*
X63023809Y-9938095D01*
X62928571Y-9985714D01*
X62880952Y-10033333D01*
X62833333Y-10128571D01*
X62833333Y-10319047D01*
X62880952Y-10414285D01*
X62928571Y-10461904D01*
X63023809Y-10509523D01*
G04 #@! TO.C,J9*
X21855180Y-1755733D02*
X22569466Y-1755733D01*
X22712323Y-1803352D01*
X22807561Y-1898590D01*
X22855180Y-2041447D01*
X22855180Y-2136685D01*
X22855180Y-1231923D02*
X22855180Y-1041447D01*
X22807561Y-946209D01*
X22759942Y-898590D01*
X22617085Y-803352D01*
X22426609Y-755733D01*
X22045657Y-755733D01*
X21950419Y-803352D01*
X21902800Y-850971D01*
X21855180Y-946209D01*
X21855180Y-1136685D01*
X21902800Y-1231923D01*
X21950419Y-1279542D01*
X22045657Y-1327161D01*
X22283752Y-1327161D01*
X22378990Y-1279542D01*
X22426609Y-1231923D01*
X22474228Y-1136685D01*
X22474228Y-946209D01*
X22426609Y-850971D01*
X22378990Y-803352D01*
X22283752Y-755733D01*
D11*
G04 #@! TO.C,R15*
X28726190Y-67021428D02*
X28488095Y-67188095D01*
X28726190Y-67307142D02*
X28226190Y-67307142D01*
X28226190Y-67116666D01*
X28250000Y-67069047D01*
X28273809Y-67045238D01*
X28321428Y-67021428D01*
X28392857Y-67021428D01*
X28440476Y-67045238D01*
X28464285Y-67069047D01*
X28488095Y-67116666D01*
X28488095Y-67307142D01*
X28726190Y-66545238D02*
X28726190Y-66830952D01*
X28726190Y-66688095D02*
X28226190Y-66688095D01*
X28297619Y-66735714D01*
X28345238Y-66783333D01*
X28369047Y-66830952D01*
X28226190Y-66092857D02*
X28226190Y-66330952D01*
X28464285Y-66354761D01*
X28440476Y-66330952D01*
X28416666Y-66283333D01*
X28416666Y-66164285D01*
X28440476Y-66116666D01*
X28464285Y-66092857D01*
X28511904Y-66069047D01*
X28630952Y-66069047D01*
X28678571Y-66092857D01*
X28702380Y-66116666D01*
X28726190Y-66164285D01*
X28726190Y-66283333D01*
X28702380Y-66330952D01*
X28678571Y-66354761D01*
G04 #@! TO.C,C33*
X28075771Y-28778971D02*
X28051961Y-28802780D01*
X27980533Y-28826590D01*
X27932914Y-28826590D01*
X27861485Y-28802780D01*
X27813866Y-28755161D01*
X27790057Y-28707542D01*
X27766247Y-28612304D01*
X27766247Y-28540876D01*
X27790057Y-28445638D01*
X27813866Y-28398019D01*
X27861485Y-28350400D01*
X27932914Y-28326590D01*
X27980533Y-28326590D01*
X28051961Y-28350400D01*
X28075771Y-28374209D01*
X28242438Y-28326590D02*
X28551961Y-28326590D01*
X28385295Y-28517066D01*
X28456723Y-28517066D01*
X28504342Y-28540876D01*
X28528152Y-28564685D01*
X28551961Y-28612304D01*
X28551961Y-28731352D01*
X28528152Y-28778971D01*
X28504342Y-28802780D01*
X28456723Y-28826590D01*
X28313866Y-28826590D01*
X28266247Y-28802780D01*
X28242438Y-28778971D01*
X28718628Y-28326590D02*
X29028152Y-28326590D01*
X28861485Y-28517066D01*
X28932914Y-28517066D01*
X28980533Y-28540876D01*
X29004342Y-28564685D01*
X29028152Y-28612304D01*
X29028152Y-28731352D01*
X29004342Y-28778971D01*
X28980533Y-28802780D01*
X28932914Y-28826590D01*
X28790057Y-28826590D01*
X28742438Y-28802780D01*
X28718628Y-28778971D01*
G04 #@! TO.C,R7*
X12726190Y-63283333D02*
X12488095Y-63450000D01*
X12726190Y-63569047D02*
X12226190Y-63569047D01*
X12226190Y-63378571D01*
X12250000Y-63330952D01*
X12273809Y-63307142D01*
X12321428Y-63283333D01*
X12392857Y-63283333D01*
X12440476Y-63307142D01*
X12464285Y-63330952D01*
X12488095Y-63378571D01*
X12488095Y-63569047D01*
X12226190Y-63116666D02*
X12226190Y-62783333D01*
X12726190Y-62997619D01*
D14*
G04 #@! TO.C,J7*
X41270000Y-7806000D02*
X35520000Y-7806000D01*
X30970000Y-7756000D02*
X30970000Y-1806000D01*
X39920000Y-2916000D02*
X34840000Y-2916000D01*
X34840000Y-2916000D02*
X34840000Y-1906000D01*
X34170000Y-7756000D02*
X30970000Y-7756000D01*
X30970000Y-1806000D02*
X41270000Y-1806000D01*
X41270000Y-1806000D02*
X41270000Y-7806000D01*
X39920000Y-1906000D02*
X39920000Y-2916000D01*
G04 #@! TO.C,TP4*
X46623200Y-63754000D02*
G75*
G03*
X46623200Y-63754000I-700000J0D01*
G01*
G04 #@! TO.C,Q3*
X57148000Y-1722000D02*
X57148000Y-2652000D01*
X57148000Y-4882000D02*
X55688000Y-4882000D01*
X57148000Y-1722000D02*
X54988000Y-1722000D01*
X57148000Y-4882000D02*
X57148000Y-3952000D01*
G04 #@! TO.C,L1*
X46840000Y-36934000D02*
X46840000Y-49934000D01*
X46840000Y-49934000D02*
X50440000Y-49934000D01*
X50440000Y-36934000D02*
X46840000Y-36934000D01*
X59840000Y-36934000D02*
X59840000Y-49934000D01*
X59840000Y-49934000D02*
X56240000Y-49934000D01*
X56240000Y-36934000D02*
X59840000Y-36934000D01*
G04 #@! TO.C,J5*
X65642800Y-32522000D02*
X65642800Y-40202000D01*
X62982800Y-31252000D02*
X62982800Y-29922000D01*
X62982800Y-29922000D02*
X64312800Y-29922000D01*
X62982800Y-32522000D02*
X62982800Y-40202000D01*
X62982800Y-40202000D02*
X65642800Y-40202000D01*
X62982800Y-32522000D02*
X65642800Y-32522000D01*
G04 #@! TO.C,J1*
X64810000Y-7726000D02*
X64810000Y-5026000D01*
X64810000Y-14226000D02*
X64810000Y-11626000D01*
X70710000Y-5026000D02*
X79510000Y-5026000D01*
X79510000Y-14226000D02*
X64810000Y-14226000D01*
X64610000Y-13376000D02*
X64610000Y-14426000D01*
X65660000Y-14426000D02*
X64610000Y-14426000D01*
X79510000Y-5026000D02*
X79510000Y-14226000D01*
X64810000Y-5026000D02*
X66710000Y-5026000D01*
G04 #@! TO.C,J3*
X3535400Y-18738600D02*
X3535400Y-18538600D01*
X1775400Y-23458600D02*
X7895400Y-23458600D01*
X3535400Y-18638600D02*
X3235400Y-18638600D01*
X2385400Y-22848600D02*
X7285400Y-22848600D01*
X4335400Y-18738600D02*
X4335400Y-19348600D01*
X4835400Y-22848600D02*
X4835400Y-22348600D01*
X7285400Y-19348600D02*
X5335400Y-19348600D01*
X4335400Y-19348600D02*
X2385400Y-19348600D01*
X7895400Y-20048600D02*
X7285400Y-20048600D01*
X1775400Y-21348600D02*
X2385400Y-21348600D01*
X3235400Y-18538600D02*
X3235400Y-18738600D01*
X1775400Y-20048600D02*
X2385400Y-20048600D01*
X3535400Y-18538600D02*
X3235400Y-18538600D01*
X7895400Y-18738600D02*
X1775400Y-18738600D01*
X7895400Y-21348600D02*
X7285400Y-21348600D01*
X7285400Y-22848600D02*
X7285400Y-19348600D01*
X7895400Y-23458600D02*
X7895400Y-18738600D01*
X1775400Y-18738600D02*
X1775400Y-23458600D01*
X1475400Y-18438600D02*
X1475400Y-19688600D01*
X2385400Y-19348600D02*
X2385400Y-22848600D01*
X4735400Y-22848600D02*
X4735400Y-22348600D01*
X2725400Y-18438600D02*
X1475400Y-18438600D01*
X4935400Y-22348600D02*
X4935400Y-22848600D01*
X5335400Y-19348600D02*
X5335400Y-18738600D01*
X4735400Y-22348600D02*
X4935400Y-22348600D01*
G04 #@! TO.C,J4*
X17333800Y-18756400D02*
X17333800Y-18256400D01*
X19543800Y-22666400D02*
X20793800Y-22666400D01*
X20493800Y-17646400D02*
X14373800Y-17646400D01*
X14373800Y-21056400D02*
X14983800Y-21056400D01*
X17933800Y-21756400D02*
X19883800Y-21756400D01*
X14373800Y-19756400D02*
X14983800Y-19756400D01*
X16933800Y-21756400D02*
X16933800Y-22366400D01*
X14983800Y-18256400D02*
X14983800Y-21756400D01*
X20493800Y-21056400D02*
X19883800Y-21056400D01*
X19883800Y-18256400D02*
X14983800Y-18256400D01*
X14983800Y-21756400D02*
X16933800Y-21756400D01*
X17533800Y-18756400D02*
X17333800Y-18756400D01*
X19883800Y-21756400D02*
X19883800Y-18256400D01*
X20793800Y-22666400D02*
X20793800Y-21416400D01*
X17433800Y-18256400D02*
X17433800Y-18756400D01*
X19033800Y-22566400D02*
X19033800Y-22366400D01*
X17933800Y-22366400D02*
X17933800Y-21756400D01*
X20493800Y-22366400D02*
X20493800Y-17646400D01*
X18733800Y-22466400D02*
X19033800Y-22466400D01*
X17533800Y-18256400D02*
X17533800Y-18756400D01*
X18733800Y-22566400D02*
X19033800Y-22566400D01*
X18733800Y-22366400D02*
X18733800Y-22566400D01*
X14373800Y-17646400D02*
X14373800Y-22366400D01*
X20493800Y-19756400D02*
X19883800Y-19756400D01*
X14373800Y-22366400D02*
X20493800Y-22366400D01*
G04 #@! TO.C,L2*
X48357940Y-57999820D02*
X49382940Y-57999820D01*
X53127940Y-57999820D02*
X52102940Y-57999820D01*
X53127940Y-62219820D02*
X52102940Y-62219820D01*
X53127940Y-62219820D02*
X53127940Y-61194820D01*
X53127940Y-57999820D02*
X53127940Y-59024820D01*
X48357940Y-62219820D02*
X48357940Y-61194820D01*
X48357940Y-57999820D02*
X48357940Y-59024820D01*
X48357940Y-62219820D02*
X49382940Y-62219820D01*
G04 #@! TO.C,Q1*
X27120000Y-2952000D02*
X26190000Y-2952000D01*
X23960000Y-2952000D02*
X24890000Y-2952000D01*
X27120000Y-2952000D02*
X27120000Y-4412000D01*
X23960000Y-2952000D02*
X23960000Y-5112000D01*
G04 #@! TO.C,D1*
X55396000Y-33362000D02*
X57946000Y-33362000D01*
X55396000Y-31662000D02*
X55396000Y-33362000D01*
X55396000Y-31662000D02*
X57946000Y-31662000D01*
G04 #@! TO.C,U1*
X45078000Y-27530000D02*
X44128000Y-27530000D01*
X35628000Y-27530000D02*
X35628000Y-26430000D01*
X44128000Y-27530000D02*
X44128000Y-22405000D01*
X34678000Y-29030000D02*
X34678000Y-27530000D01*
X45078000Y-29030000D02*
X45078000Y-27530000D01*
X34678000Y-27530000D02*
X35628000Y-27530000D01*
G04 #@! TO.C,C1*
X48890437Y-20140000D02*
X51576000Y-20140000D01*
X58346000Y-21204437D02*
X58346000Y-30660000D01*
X47826000Y-30660000D02*
X51576000Y-30660000D01*
X48890437Y-20140000D02*
X47826000Y-21204437D01*
X58346000Y-30660000D02*
X54596000Y-30660000D01*
X56471000Y-19275000D02*
X55221000Y-19275000D01*
X57281563Y-20140000D02*
X58346000Y-21204437D01*
X55846000Y-18650000D02*
X55846000Y-19900000D01*
X47826000Y-21204437D02*
X47826000Y-30660000D01*
X57281563Y-20140000D02*
X54596000Y-20140000D01*
G04 #@! TO.C,D14*
X38600000Y-14925000D02*
X38600000Y-18225000D01*
X38600000Y-14925000D02*
X44000000Y-14925000D01*
X38600000Y-18225000D02*
X44000000Y-18225000D01*
G04 #@! TO.C,C6*
X63303237Y-47583000D02*
X62238800Y-48647437D01*
X69894363Y-47583000D02*
X68108800Y-47583000D01*
X70958800Y-56303000D02*
X68108800Y-56303000D01*
X70958800Y-48647437D02*
X70958800Y-56303000D01*
X63303237Y-47583000D02*
X65088800Y-47583000D01*
X69894363Y-47583000D02*
X70958800Y-48647437D01*
X69108800Y-46343000D02*
X69108800Y-47343000D01*
X62238800Y-56303000D02*
X65088800Y-56303000D01*
X69608800Y-46843000D02*
X68608800Y-46843000D01*
X62238800Y-48647437D02*
X62238800Y-56303000D01*
G04 #@! TO.C,U5*
X15234000Y-51740000D02*
X11634000Y-51740000D01*
X15234000Y-51740000D02*
X17434000Y-51740000D01*
X15234000Y-56960000D02*
X13034000Y-56960000D01*
X15234000Y-56960000D02*
X17434000Y-56960000D01*
G04 #@! TO.C,R24*
X17590000Y-59162779D02*
X17590000Y-58837221D01*
X18610000Y-59162779D02*
X18610000Y-58837221D01*
G04 #@! TO.C,TP18*
X71058000Y-81026000D02*
G75*
G03*
X71058000Y-81026000I-700000J0D01*
G01*
G04 #@! TO.C,D15*
X53941560Y-58232320D02*
X55941560Y-58232320D01*
X55941560Y-58232320D02*
X55941560Y-54332320D01*
X53941560Y-58232320D02*
X53941560Y-54332320D01*
G04 #@! TO.C,J6*
X3192000Y-72236000D02*
X3192000Y-71856000D01*
X18432000Y-72236000D02*
X18432000Y-71796000D01*
X32762000Y-83376000D02*
X32762000Y-74746000D01*
X42012000Y-74746000D02*
X42012000Y-74336000D01*
X31132000Y-74746000D02*
X31132000Y-74336000D01*
X39472000Y-72236000D02*
X39472000Y-71796000D01*
X3995330Y-83376000D02*
X3995330Y-74746000D01*
X4467710Y-83376000D02*
X4467710Y-74746000D01*
X2460095Y-83376000D02*
X2460095Y-74746000D01*
X13352000Y-72236000D02*
X13352000Y-71796000D01*
X34392000Y-72236000D02*
X34392000Y-71796000D01*
X29312000Y-72236000D02*
X29312000Y-71796000D01*
X41292000Y-74746000D02*
X41292000Y-74336000D01*
X4349615Y-83376000D02*
X4349615Y-74746000D01*
X39472000Y-74746000D02*
X39472000Y-74336000D01*
X3192000Y-74746000D02*
X3192000Y-74336000D01*
X24232000Y-72236000D02*
X24232000Y-71796000D01*
X14072000Y-74746000D02*
X14072000Y-74336000D01*
X34392000Y-74746000D02*
X34392000Y-74336000D01*
X33672000Y-72236000D02*
X33672000Y-71796000D01*
X10812000Y-74746000D02*
X10812000Y-74336000D01*
X37842000Y-83376000D02*
X37842000Y-74746000D01*
X2342000Y-83376000D02*
X2342000Y-74746000D01*
X13352000Y-74746000D02*
X13352000Y-74336000D01*
X28592000Y-74746000D02*
X28592000Y-74336000D01*
X38752000Y-72236000D02*
X38752000Y-71796000D01*
X45462000Y-83376000D02*
X45462000Y-74746000D01*
X14982000Y-83376000D02*
X14982000Y-74746000D01*
X10812000Y-72236000D02*
X10812000Y-71796000D01*
X44552000Y-74746000D02*
X44552000Y-74336000D01*
X35302000Y-83376000D02*
X35302000Y-74746000D01*
X15892000Y-74746000D02*
X15892000Y-74336000D01*
X8272000Y-74746000D02*
X8272000Y-74336000D01*
X2814380Y-83376000D02*
X2814380Y-74746000D01*
X19152000Y-74746000D02*
X19152000Y-74336000D01*
X48002000Y-83376000D02*
X48002000Y-74746000D01*
X48912000Y-72236000D02*
X48912000Y-71796000D01*
X36212000Y-72236000D02*
X36212000Y-71796000D01*
X3522950Y-83376000D02*
X3522950Y-74746000D01*
X16612000Y-72236000D02*
X16612000Y-71796000D01*
X47092000Y-72236000D02*
X47092000Y-71796000D01*
X6452000Y-74746000D02*
X6452000Y-74336000D01*
X3286760Y-83376000D02*
X3286760Y-74746000D01*
X2222000Y-74746000D02*
X53142000Y-74746000D01*
X40382000Y-83376000D02*
X40382000Y-74746000D01*
X19152000Y-72236000D02*
X19152000Y-71796000D01*
X49632000Y-74746000D02*
X49632000Y-74336000D01*
X11532000Y-72236000D02*
X11532000Y-71796000D01*
X5732000Y-72236000D02*
X5732000Y-71796000D01*
X9902000Y-83376000D02*
X9902000Y-74746000D01*
X38752000Y-74746000D02*
X38752000Y-74336000D01*
X28592000Y-72236000D02*
X28592000Y-71796000D01*
X26052000Y-74746000D02*
X26052000Y-74336000D01*
X20062000Y-83376000D02*
X20062000Y-74746000D01*
X5732000Y-74746000D02*
X5732000Y-74336000D01*
X42922000Y-83376000D02*
X42922000Y-74746000D01*
X21692000Y-74746000D02*
X21692000Y-74336000D01*
X4113425Y-83376000D02*
X4113425Y-74746000D01*
X36212000Y-74746000D02*
X36212000Y-74336000D01*
X2222000Y-70746000D02*
X2222000Y-69636000D01*
X2696285Y-83376000D02*
X2696285Y-74746000D01*
X8272000Y-72236000D02*
X8272000Y-71796000D01*
X3050570Y-83376000D02*
X3050570Y-74746000D01*
X49632000Y-72236000D02*
X49632000Y-71796000D01*
X29312000Y-74746000D02*
X29312000Y-74336000D01*
X3641045Y-83376000D02*
X3641045Y-74746000D01*
X6452000Y-72236000D02*
X6452000Y-71796000D01*
X3759140Y-83376000D02*
X3759140Y-74746000D01*
X3912000Y-72236000D02*
X3912000Y-71856000D01*
X43832000Y-74746000D02*
X43832000Y-74336000D01*
X22602000Y-83376000D02*
X22602000Y-74746000D01*
X42012000Y-72236000D02*
X42012000Y-71796000D01*
X44552000Y-72236000D02*
X44552000Y-71796000D01*
X26772000Y-72236000D02*
X26772000Y-71796000D01*
X8992000Y-74746000D02*
X8992000Y-74336000D01*
X30222000Y-83376000D02*
X30222000Y-74746000D01*
X21692000Y-72236000D02*
X21692000Y-71796000D01*
X2578190Y-83376000D02*
X2578190Y-74746000D01*
X23512000Y-72236000D02*
X23512000Y-71796000D01*
X43832000Y-72236000D02*
X43832000Y-71796000D01*
X3168665Y-83376000D02*
X3168665Y-74746000D01*
X16612000Y-74746000D02*
X16612000Y-74336000D01*
X12442000Y-83376000D02*
X12442000Y-74746000D01*
X7362000Y-83376000D02*
X7362000Y-74746000D01*
X20972000Y-74746000D02*
X20972000Y-74336000D01*
X26772000Y-74746000D02*
X26772000Y-74336000D01*
X50542000Y-83376000D02*
X50542000Y-74746000D01*
X3912000Y-74746000D02*
X3912000Y-74336000D01*
X4585805Y-83376000D02*
X4585805Y-74746000D01*
X14072000Y-72236000D02*
X14072000Y-71796000D01*
X2222000Y-83376000D02*
X2222000Y-74746000D01*
X51452000Y-72236000D02*
X51452000Y-71796000D01*
X26052000Y-72236000D02*
X26052000Y-71796000D01*
X41292000Y-72236000D02*
X41292000Y-71796000D01*
X52172000Y-72236000D02*
X52172000Y-71796000D01*
X48912000Y-74746000D02*
X48912000Y-74336000D01*
X53142000Y-83376000D02*
X53142000Y-74746000D01*
X8992000Y-72236000D02*
X8992000Y-71796000D01*
X15892000Y-72236000D02*
X15892000Y-71796000D01*
X2222000Y-69636000D02*
X3552000Y-69636000D01*
X46372000Y-72236000D02*
X46372000Y-71796000D01*
X11532000Y-74746000D02*
X11532000Y-74336000D01*
X23512000Y-74746000D02*
X23512000Y-74336000D01*
X4703900Y-83376000D02*
X4703900Y-74746000D01*
X31852000Y-72236000D02*
X31852000Y-71796000D01*
X46372000Y-74746000D02*
X46372000Y-74336000D01*
X25142000Y-83376000D02*
X25142000Y-74746000D01*
X51452000Y-74746000D02*
X51452000Y-74336000D01*
X20972000Y-72236000D02*
X20972000Y-71796000D01*
X47092000Y-74746000D02*
X47092000Y-74336000D01*
X4822000Y-83376000D02*
X4822000Y-74746000D01*
X31132000Y-72236000D02*
X31132000Y-71796000D01*
X31852000Y-74746000D02*
X31852000Y-74336000D01*
X52172000Y-74746000D02*
X52172000Y-74336000D01*
X36932000Y-72236000D02*
X36932000Y-71796000D01*
X33672000Y-74746000D02*
X33672000Y-74336000D01*
X3404855Y-83376000D02*
X3404855Y-74746000D01*
X27682000Y-83376000D02*
X27682000Y-74746000D01*
X36932000Y-74746000D02*
X36932000Y-74336000D01*
X2222000Y-83376000D02*
X53142000Y-83376000D01*
X24232000Y-74746000D02*
X24232000Y-74336000D01*
X4231520Y-83376000D02*
X4231520Y-74746000D01*
X3877235Y-83376000D02*
X3877235Y-74746000D01*
X17522000Y-83376000D02*
X17522000Y-74746000D01*
X18432000Y-74746000D02*
X18432000Y-74336000D01*
X2932475Y-83376000D02*
X2932475Y-74746000D01*
G04 #@! TO.C,X1*
X23857390Y-63204132D02*
X25695868Y-65042610D01*
X25695868Y-65042610D02*
X27958610Y-62779868D01*
G04 #@! TO.C,FB8*
X61910000Y-5786252D02*
X61910000Y-3013748D01*
X58490000Y-5786252D02*
X58490000Y-3013748D01*
G04 #@! TO.C,C64*
X55922000Y-15790000D02*
X53072000Y-15790000D01*
X54072000Y-5830000D02*
X54072000Y-6830000D01*
X54857563Y-7070000D02*
X55922000Y-8134437D01*
X47202000Y-8134437D02*
X47202000Y-15790000D01*
X48266437Y-7070000D02*
X47202000Y-8134437D01*
X54572000Y-6330000D02*
X53572000Y-6330000D01*
X54857563Y-7070000D02*
X53072000Y-7070000D01*
X47202000Y-15790000D02*
X50052000Y-15790000D01*
X55922000Y-8134437D02*
X55922000Y-15790000D01*
X48266437Y-7070000D02*
X50052000Y-7070000D01*
G04 #@! TO.C,U7*
X54826020Y-59852120D02*
X54826020Y-62282120D01*
X57896020Y-61612120D02*
X57896020Y-59852120D01*
G04 #@! TO.C,C37*
X50112801Y-57195900D02*
X50438359Y-57195900D01*
X50112801Y-56175900D02*
X50438359Y-56175900D01*
G04 #@! TO.C,FB5*
X35310578Y-13768000D02*
X34793422Y-13768000D01*
X35310578Y-15188000D02*
X34793422Y-15188000D01*
G04 #@! TO.C,C17*
X3182500Y-35007421D02*
X3182500Y-35332979D01*
X4202500Y-35007421D02*
X4202500Y-35332979D01*
G04 #@! TO.C,C20*
X2500700Y-35007421D02*
X2500700Y-35332979D01*
X1480700Y-35007421D02*
X1480700Y-35332979D01*
G04 #@! TO.C,C19*
X2640621Y-33241800D02*
X2966179Y-33241800D01*
X2640621Y-32221800D02*
X2966179Y-32221800D01*
G04 #@! TO.C,R19*
X39810000Y-66337221D02*
X39810000Y-66662779D01*
X38790000Y-66337221D02*
X38790000Y-66662779D01*
G04 #@! TO.C,U4*
X29225500Y-32120500D02*
X25465500Y-32120500D01*
X25465500Y-32120500D02*
X25465500Y-33380500D01*
X25465500Y-38940500D02*
X25465500Y-37680500D01*
X31475500Y-38940500D02*
X25465500Y-38940500D01*
D15*
G04 #@! TO.C,U3*
X9411301Y-42556498D02*
X13111301Y-42556498D01*
X7661300Y-32756500D02*
X13111301Y-32756500D01*
D14*
G04 #@! TO.C,C60*
X25737221Y-31510000D02*
X26062779Y-31510000D01*
X25737221Y-30490000D02*
X26062779Y-30490000D01*
G04 #@! TO.C,FB4*
X15448200Y-25728936D02*
X15448200Y-26933064D01*
X13628200Y-25728936D02*
X13628200Y-26933064D01*
G04 #@! TO.C,FB3*
X16930200Y-25728936D02*
X16930200Y-26933064D01*
X18750200Y-25728936D02*
X18750200Y-26933064D01*
G04 #@! TO.C,C23*
X14426221Y-31819400D02*
X14751779Y-31819400D01*
X14426221Y-30799400D02*
X14751779Y-30799400D01*
G04 #@! TO.C,C26*
X17779021Y-29135700D02*
X18104579Y-29135700D01*
X17779021Y-30155700D02*
X18104579Y-30155700D01*
G04 #@! TO.C,C14*
X20386300Y-35007421D02*
X20386300Y-35332979D01*
X21406300Y-35007421D02*
X21406300Y-35332979D01*
G04 #@! TO.C,C18*
X19898121Y-32165700D02*
X20223679Y-32165700D01*
X19898121Y-33185700D02*
X20223679Y-33185700D01*
G04 #@! TO.C,C13*
X18561300Y-35007421D02*
X18561300Y-35332979D01*
X19581300Y-35007421D02*
X19581300Y-35332979D01*
G04 #@! TO.C,FB1*
X3671400Y-25728936D02*
X3671400Y-26933064D01*
X5491400Y-25728936D02*
X5491400Y-26933064D01*
G04 #@! TO.C,FB2*
X8856900Y-25728936D02*
X8856900Y-26933064D01*
X7036900Y-25728936D02*
X7036900Y-26933064D01*
G04 #@! TO.C,C25*
X4617179Y-29135700D02*
X4291621Y-29135700D01*
X4617179Y-30155700D02*
X4291621Y-30155700D01*
G04 #@! TO.C,C22*
X7842979Y-31819400D02*
X7517421Y-31819400D01*
X7842979Y-30799400D02*
X7517421Y-30799400D01*
G04 #@! TO.C,TP29*
X8489800Y-52857400D02*
G75*
G03*
X8489800Y-52857400I-1200000J0D01*
G01*
G04 #@! TO.C,TP30*
X24700000Y-67400000D02*
G75*
G03*
X24700000Y-67400000I-1200000J0D01*
G01*
G04 #@! TO.C,TP31*
X44507000Y-52578000D02*
G75*
G03*
X44507000Y-52578000I-1200000J0D01*
G01*
G04 #@! TO.C,TP32*
X19157800Y-11531600D02*
G75*
G03*
X19157800Y-11531600I-1200000J0D01*
G01*
G04 #@! TO.C,TP33*
X27954200Y-40208200D02*
G75*
G03*
X27954200Y-40208200I-700000J0D01*
G01*
G04 #@! TO.C,TP34*
X21578800Y-39420800D02*
G75*
G03*
X21578800Y-39420800I-700000J0D01*
G01*
G04 #@! TO.C,TP3*
X42686200Y-43789600D02*
G75*
G03*
X42686200Y-43789600I-700000J0D01*
G01*
G04 #@! TO.C,TP8*
X45086500Y-3619500D02*
G75*
G03*
X45086500Y-3619500I-700000J0D01*
G01*
G04 #@! TO.C,TP12*
X48769500Y-3556000D02*
G75*
G03*
X48769500Y-3556000I-700000J0D01*
G01*
G04 #@! TO.C,TP13*
X52706500Y-3556000D02*
G75*
G03*
X52706500Y-3556000I-700000J0D01*
G01*
G04 #@! TO.C,J11*
X67373000Y-31093400D02*
X67373000Y-32093400D01*
X83113000Y-26383400D02*
X83113000Y-46963400D01*
X68373000Y-31593400D02*
X67373000Y-31093400D01*
X73993000Y-34623400D02*
X83113000Y-34623400D01*
X83113000Y-46963400D02*
X73993000Y-46963400D01*
X73993000Y-26383400D02*
X83113000Y-26383400D01*
X73993000Y-46963400D02*
X73993000Y-26383400D01*
X67373000Y-32093400D02*
X68373000Y-31593400D01*
X73993000Y-38723400D02*
X83113000Y-38723400D01*
G04 #@! TO.C,R10*
X18238441Y-47928800D02*
X17931159Y-47928800D01*
X18238441Y-47168800D02*
X17931159Y-47168800D01*
G04 #@! TO.C,U8*
X26789091Y-59779509D02*
X27178000Y-60168418D01*
X21365582Y-54356000D02*
X21754491Y-53967091D01*
X21754491Y-54744909D02*
X21365582Y-54356000D01*
X32601509Y-53967091D02*
X32990418Y-54356000D01*
X27566909Y-48932491D02*
X27178000Y-48543582D01*
X32990418Y-54356000D02*
X32601509Y-54744909D01*
X27178000Y-48543582D02*
X26789091Y-48932491D01*
D12*
X28079095Y-59786580D02*
G75*
G03*
X28079095Y-59786580I-335410J0D01*
G01*
G04 #@! TO.C,kibuzzard-62E2EE22*
G36*
X3201988Y-55608538D02*
G01*
X3203575Y-55662513D01*
X3185319Y-55803006D01*
X3130550Y-55913338D01*
X3036888Y-55984775D01*
X2901950Y-56008588D01*
X2681288Y-55919688D01*
X2622947Y-55803006D01*
X2603500Y-55630763D01*
X2603500Y-55545038D01*
X3194050Y-55545038D01*
X3201988Y-55608538D01*
G37*
G36*
X4070749Y-60297833D02*
G01*
X4048600Y-60447147D01*
X4011923Y-60593571D01*
X3961070Y-60735694D01*
X3896532Y-60872149D01*
X3818929Y-61001621D01*
X3729010Y-61122863D01*
X3627640Y-61234708D01*
X3515795Y-61336078D01*
X3394553Y-61425997D01*
X3265081Y-61503599D01*
X3128627Y-61568138D01*
X2986503Y-61618990D01*
X2840079Y-61655668D01*
X2690766Y-61677816D01*
X2540000Y-61685223D01*
X2389234Y-61677816D01*
X2239921Y-61655668D01*
X2093497Y-61618990D01*
X1951373Y-61568138D01*
X1814919Y-61503599D01*
X1685447Y-61425997D01*
X1564205Y-61336078D01*
X1452360Y-61234708D01*
X1350990Y-61122863D01*
X1261071Y-61001621D01*
X1183468Y-60872149D01*
X1118930Y-60735694D01*
X1068077Y-60593571D01*
X1031400Y-60447147D01*
X1009251Y-60297833D01*
X1001845Y-60147068D01*
X1001845Y-58951813D01*
X1514475Y-58951813D01*
X1542697Y-59156424D01*
X1627364Y-59325757D01*
X1768475Y-59459813D01*
X1912144Y-59536211D01*
X2089150Y-59590781D01*
X2299494Y-59623523D01*
X2543175Y-59634438D01*
X2785368Y-59623523D01*
X2994422Y-59590781D01*
X3170337Y-59536211D01*
X3313113Y-59459813D01*
X3453342Y-59325757D01*
X3537479Y-59156424D01*
X3565525Y-58951813D01*
X3537303Y-58750376D01*
X3452636Y-58582101D01*
X3311525Y-58446988D01*
X3168253Y-58369200D01*
X2992438Y-58313638D01*
X2784078Y-58280300D01*
X2543175Y-58269188D01*
X2299494Y-58280102D01*
X2089150Y-58312844D01*
X1912144Y-58367414D01*
X1768475Y-58443813D01*
X1627364Y-58577868D01*
X1542697Y-58747201D01*
X1514475Y-58951813D01*
X1001845Y-58951813D01*
X1001845Y-58027888D01*
X1555750Y-58027888D01*
X1879600Y-58027888D01*
X1879600Y-57637363D01*
X3521075Y-57637363D01*
X3521075Y-57370663D01*
X3397250Y-57234138D01*
X3282950Y-57065863D01*
X3184525Y-56888063D01*
X3111500Y-56722963D01*
X2787650Y-56849963D01*
X2865438Y-57043638D01*
X2978150Y-57246838D01*
X1879600Y-57246838D01*
X1879600Y-56834088D01*
X1555750Y-56834088D01*
X1555750Y-58027888D01*
X1001845Y-58027888D01*
X1001845Y-56535638D01*
X1555750Y-56535638D01*
X1763712Y-56445150D01*
X1982787Y-56335613D01*
X2192337Y-56218138D01*
X2374900Y-56103838D01*
X2464594Y-56242744D01*
X2587625Y-56335613D01*
X2735263Y-56388000D01*
X2898775Y-56405463D01*
X3053159Y-56392366D01*
X3186113Y-56353075D01*
X3387725Y-56202263D01*
X3456781Y-56094313D01*
X3505200Y-55967313D01*
X3533775Y-55822850D01*
X3543300Y-55662513D01*
X3540125Y-55551388D01*
X3532188Y-55418038D01*
X3516313Y-55279925D01*
X3492500Y-55154513D01*
X1555750Y-55154513D01*
X1555750Y-55545038D01*
X2279650Y-55545038D01*
X2279650Y-55748238D01*
X2099866Y-55855791D01*
X1922462Y-55956200D01*
X1742678Y-56047084D01*
X1555750Y-56126063D01*
X1555750Y-56535638D01*
X1001845Y-56535638D01*
X1001845Y-54624288D01*
X2178050Y-54624288D01*
X2562225Y-54624288D01*
X2562225Y-53754338D01*
X2178050Y-53754338D01*
X2178050Y-54624288D01*
X1001845Y-54624288D01*
X1001845Y-53265388D01*
X1555750Y-53265388D01*
X1879600Y-53265388D01*
X1879600Y-52874863D01*
X3521075Y-52874863D01*
X3521075Y-52608163D01*
X3397250Y-52471638D01*
X3282950Y-52303363D01*
X3184525Y-52125563D01*
X3111500Y-51960463D01*
X2787650Y-52087463D01*
X2865438Y-52281138D01*
X2978150Y-52484338D01*
X1879600Y-52484338D01*
X1879600Y-52071588D01*
X1555750Y-52071588D01*
X1555750Y-53265388D01*
X1001845Y-53265388D01*
X1001845Y-51014312D01*
X1514475Y-51014312D01*
X1542697Y-51218924D01*
X1627364Y-51388257D01*
X1768475Y-51522312D01*
X1912144Y-51598711D01*
X2089150Y-51653281D01*
X2299494Y-51686023D01*
X2543175Y-51696937D01*
X2785368Y-51686023D01*
X2994422Y-51653281D01*
X3170337Y-51598711D01*
X3313113Y-51522312D01*
X3453342Y-51388257D01*
X3537479Y-51218924D01*
X3565525Y-51014312D01*
X3537303Y-50812876D01*
X3452636Y-50644601D01*
X3311525Y-50509487D01*
X3168253Y-50431700D01*
X2992438Y-50376137D01*
X2784078Y-50342800D01*
X2543175Y-50331687D01*
X2299494Y-50342602D01*
X2089150Y-50375344D01*
X1912144Y-50429914D01*
X1768475Y-50506312D01*
X1627364Y-50640368D01*
X1542697Y-50809701D01*
X1514475Y-51014312D01*
X1001845Y-51014312D01*
X1001845Y-50099912D01*
X1555750Y-50099912D01*
X1879600Y-50099912D01*
X1879600Y-49255362D01*
X1984375Y-49288700D01*
X2097087Y-49369662D01*
X2205037Y-49471262D01*
X2295525Y-49566512D01*
X2454275Y-49728437D01*
X2625725Y-49871312D01*
X2808288Y-49972912D01*
X3003550Y-50011012D01*
X3249613Y-49960212D01*
X3425825Y-49823687D01*
X3530600Y-49626837D01*
X3565525Y-49395062D01*
X3549650Y-49229566D01*
X3502025Y-49063275D01*
X3421063Y-48906509D01*
X3305175Y-48769587D01*
X3032125Y-48963262D01*
X3181350Y-49163287D01*
X3225800Y-49356962D01*
X3160713Y-49541112D01*
X2974975Y-49614137D01*
X2806700Y-49555400D01*
X2635250Y-49406175D01*
X2544366Y-49312512D01*
X2449512Y-49212500D01*
X2348706Y-49112487D01*
X2239962Y-49018825D01*
X2122091Y-48936275D01*
X1993900Y-48869600D01*
X1854200Y-48825547D01*
X1701800Y-48810862D01*
X1635125Y-48809275D01*
X1555750Y-48817212D01*
X1555750Y-50099912D01*
X1001845Y-50099912D01*
X1001845Y-48274287D01*
X2178050Y-48274287D01*
X2562225Y-48274287D01*
X2562225Y-47404337D01*
X2178050Y-47404337D01*
X2178050Y-48274287D01*
X1001845Y-48274287D01*
X1001845Y-46150212D01*
X1514475Y-46150212D01*
X1528366Y-46326425D01*
X1570037Y-46474062D01*
X1635522Y-46595109D01*
X1720850Y-46691550D01*
X1943100Y-46812200D01*
X2074069Y-46839584D01*
X2212975Y-46848712D01*
X3521075Y-46848712D01*
X3521075Y-45797787D01*
X3197225Y-45797787D01*
X3197225Y-46455012D01*
X2235200Y-46455012D01*
X2050653Y-46431597D01*
X1935162Y-46361350D01*
X1874441Y-46253003D01*
X1854200Y-46115287D01*
X1901825Y-45916850D01*
X2000250Y-45740637D01*
X1689100Y-45591412D01*
X1565275Y-45816837D01*
X1527175Y-45966856D01*
X1514475Y-46150212D01*
X1001845Y-46150212D01*
X1001845Y-44607162D01*
X1514475Y-44607162D01*
X1531232Y-44829942D01*
X1581503Y-45011446D01*
X1665287Y-45151675D01*
X1847453Y-45286216D01*
X2092325Y-45331062D01*
X2240359Y-45317569D01*
X2360612Y-45277087D01*
X2538412Y-45138975D01*
X2652713Y-44954825D01*
X2730500Y-44762737D01*
X2778125Y-44640500D01*
X2836863Y-44529375D01*
X2913063Y-44448412D01*
X3013075Y-44416662D01*
X3138311Y-44451235D01*
X3213453Y-44554951D01*
X3238500Y-44727812D01*
X3206750Y-44951650D01*
X3130550Y-45127862D01*
X3432175Y-45242162D01*
X3524250Y-45015150D01*
X3555206Y-44868703D01*
X3565525Y-44699237D01*
X3548239Y-44504681D01*
X3496381Y-44340110D01*
X3409950Y-44205525D01*
X3224213Y-44070984D01*
X2978150Y-44026137D01*
X2744788Y-44076937D01*
X2587625Y-44205525D01*
X2482850Y-44378562D01*
X2409825Y-44562712D01*
X2354262Y-44696062D01*
X2287588Y-44816712D01*
X2203450Y-44905612D01*
X2095500Y-44940537D01*
X2001837Y-44926250D01*
X1919287Y-44873862D01*
X1862137Y-44770675D01*
X1841500Y-44607162D01*
X1852612Y-44448809D01*
X1885950Y-44316650D01*
X1981200Y-44111862D01*
X1663700Y-43997562D01*
X1566862Y-44216637D01*
X1527572Y-44387294D01*
X1514475Y-44607162D01*
X1001845Y-44607162D01*
X1001845Y-43484932D01*
X1009251Y-43334167D01*
X1031400Y-43184853D01*
X1068077Y-43038429D01*
X1118930Y-42896306D01*
X1183468Y-42759851D01*
X1261071Y-42630379D01*
X1350990Y-42509137D01*
X1452360Y-42397292D01*
X1564205Y-42295922D01*
X1685447Y-42206003D01*
X1814919Y-42128401D01*
X1951373Y-42063862D01*
X2093497Y-42013010D01*
X2239921Y-41976332D01*
X2389234Y-41954184D01*
X2540000Y-41946777D01*
X2690766Y-41954184D01*
X2840079Y-41976332D01*
X2986503Y-42013010D01*
X3128627Y-42063862D01*
X3265081Y-42128401D01*
X3394553Y-42206003D01*
X3515795Y-42295922D01*
X3627640Y-42397292D01*
X3729010Y-42509137D01*
X3818929Y-42630379D01*
X3896532Y-42759851D01*
X3961070Y-42896306D01*
X4011923Y-43038429D01*
X4048600Y-43184853D01*
X4070749Y-43334167D01*
X4078155Y-43484932D01*
X4078155Y-60147068D01*
X4070749Y-60297833D01*
G37*
G36*
X2162881Y-51307118D02*
G01*
X2027237Y-51260375D01*
X1895078Y-51156791D01*
X1852007Y-51017487D01*
X2365375Y-51017487D01*
X2427287Y-51142900D01*
X2574925Y-51192112D01*
X2724150Y-51142900D01*
X2787650Y-51017487D01*
X2724150Y-50887312D01*
X2574925Y-50839687D01*
X2427287Y-50887312D01*
X2365375Y-51017487D01*
X1852007Y-51017487D01*
X1851025Y-51014312D01*
X1895078Y-50873819D01*
X2027237Y-50769837D01*
X2162881Y-50722212D01*
X2334860Y-50693637D01*
X2543175Y-50684112D01*
X2749726Y-50693637D01*
X2920647Y-50722212D01*
X3055938Y-50769837D01*
X3188097Y-50873819D01*
X3232150Y-51014312D01*
X3188097Y-51156791D01*
X3055938Y-51260375D01*
X2920647Y-51307118D01*
X2749726Y-51335164D01*
X2543175Y-51344512D01*
X2334860Y-51335164D01*
X2162881Y-51307118D01*
G37*
G36*
X2162881Y-59244618D02*
G01*
X2027237Y-59197875D01*
X1895078Y-59094291D01*
X1852007Y-58954988D01*
X2365375Y-58954988D01*
X2427287Y-59080400D01*
X2574925Y-59129613D01*
X2724150Y-59080400D01*
X2787650Y-58954988D01*
X2724150Y-58824813D01*
X2574925Y-58777188D01*
X2427287Y-58824813D01*
X2365375Y-58954988D01*
X1852007Y-58954988D01*
X1851025Y-58951813D01*
X1895078Y-58811319D01*
X2027237Y-58707338D01*
X2162881Y-58659713D01*
X2334860Y-58631138D01*
X2543175Y-58621613D01*
X2749726Y-58631138D01*
X2920647Y-58659713D01*
X3055938Y-58707338D01*
X3188097Y-58811319D01*
X3232150Y-58951813D01*
X3188097Y-59094291D01*
X3055938Y-59197875D01*
X2920647Y-59244618D01*
X2749726Y-59272664D01*
X2543175Y-59282013D01*
X2334860Y-59272664D01*
X2162881Y-59244618D01*
G37*
D14*
G04 #@! TO.C,R21*
X46737258Y-52077500D02*
X46262742Y-52077500D01*
X46737258Y-53122500D02*
X46262742Y-53122500D01*
G04 #@! TO.C,R9*
X14880000Y-63453641D02*
X14880000Y-63146359D01*
X14120000Y-63453641D02*
X14120000Y-63146359D01*
G04 #@! TO.C,R14*
X27380000Y-67353641D02*
X27380000Y-67046359D01*
X26620000Y-67353641D02*
X26620000Y-67046359D01*
G04 #@! TO.C,R11*
X21422500Y-66837258D02*
X21422500Y-66362742D01*
X20377500Y-66837258D02*
X20377500Y-66362742D01*
G04 #@! TO.C,C65*
X35361200Y-66338564D02*
X35361200Y-66554236D01*
X34641200Y-66338564D02*
X34641200Y-66554236D01*
G04 #@! TO.C,D19*
X46500000Y-47450000D02*
X46500000Y-45750000D01*
X46500000Y-45750000D02*
X43950000Y-45750000D01*
X46500000Y-47450000D02*
X43950000Y-47450000D01*
G04 #@! TO.C,D20*
X38250000Y-8850000D02*
X38250000Y-13150000D01*
X38250000Y-8850000D02*
X43950000Y-8850000D01*
X38250000Y-13150000D02*
X43950000Y-13150000D01*
G04 #@! TO.C,C32*
X20923364Y-46325200D02*
X21139036Y-46325200D01*
X20923364Y-47045200D02*
X21139036Y-47045200D01*
G04 #@! TO.C,R12*
X19220000Y-66863641D02*
X19220000Y-66556359D01*
X19980000Y-66863641D02*
X19980000Y-66556359D01*
G04 #@! TO.C,C2*
X23296200Y-3232036D02*
X23296200Y-3016364D01*
X22576200Y-3232036D02*
X22576200Y-3016364D01*
G04 #@! TO.C,R64*
X15000500Y-67072742D02*
X15000500Y-67547258D01*
X13955500Y-67072742D02*
X13955500Y-67547258D01*
G04 #@! TO.C,C29*
X4678000Y-52724164D02*
X4678000Y-52939836D01*
X3958000Y-52724164D02*
X3958000Y-52939836D01*
G04 #@! TO.C,J12*
X27274600Y-13264600D02*
X29874600Y-13264600D01*
X24674600Y-21004600D02*
X29874600Y-21004600D01*
X24674600Y-13264600D02*
X26004600Y-13264600D01*
X24674600Y-15864600D02*
X27274600Y-15864600D01*
X24674600Y-15864600D02*
X24674600Y-21004600D01*
X29874600Y-13264600D02*
X29874600Y-21004600D01*
X27274600Y-15864600D02*
X27274600Y-13264600D01*
X24674600Y-14594600D02*
X24674600Y-13264600D01*
G04 #@! TO.C,D16*
X62150000Y-7650000D02*
X57850000Y-7650000D01*
X57850000Y-7650000D02*
X57850000Y-13350000D01*
X62150000Y-7650000D02*
X62150000Y-13350000D01*
G04 #@! TO.C,J9*
X18989200Y-625800D02*
X18989200Y-3285800D01*
X18989200Y-3285800D02*
X11309200Y-3285800D01*
X18989200Y-625800D02*
X11309200Y-625800D01*
X20259200Y-625800D02*
X21589200Y-625800D01*
X21589200Y-625800D02*
X21589200Y-1955800D01*
X11309200Y-625800D02*
X11309200Y-3285800D01*
G04 #@! TO.C,R15*
X29680000Y-66863641D02*
X29680000Y-66556359D01*
X28920000Y-66863641D02*
X28920000Y-66556359D01*
G04 #@! TO.C,C33*
X26663764Y-28960400D02*
X26879436Y-28960400D01*
X26663764Y-28240400D02*
X26879436Y-28240400D01*
G04 #@! TO.C,R7*
X13680000Y-63453641D02*
X13680000Y-63146359D01*
X12920000Y-63453641D02*
X12920000Y-63146359D01*
G04 #@! TD*
M02*
