M48
; DRILL file {KiCad (6.0.7)} date Fri Jul 29 08:46:00 2022
; FORMAT={-:-/ absolute / inch / decimal}
; #@! TF.CreationDate,2022-07-29T08:46:00-07:00
; #@! TF.GenerationSoftware,Kicad,Pcbnew,(6.0.7)
; #@! TF.FileFunction,Plated,1,4,PTH
FMAT,2
INCH
; #@! TA.AperFunction,Plated,PTH,ComponentDrill
T1C0.0118
; #@! TA.AperFunction,Plated,PTH,ViaDrill
T2C0.0157
; #@! TA.AperFunction,Plated,PTH,ComponentDrill
T3C0.0295
; #@! TA.AperFunction,Plated,PTH,ComponentDrill
T4C0.0394
; #@! TA.AperFunction,Plated,PTH,ComponentDrill
T5C0.0402
; #@! TA.AperFunction,Plated,PTH,ComponentDrill
T6C0.2362
; #@! TA.AperFunction,Plated,PTH,ComponentDrill
T7C0.2559
%
G90
G05
T1
X0.3922Y-1.3034
X0.3922Y-1.3546
X0.3922Y-1.4058
X0.3922Y-1.4569
X0.3922Y-1.5081
X0.3922Y-1.5593
X0.3922Y-1.6105
X0.3922Y-1.6617
X0.4434Y-1.3034
X0.4434Y-1.3546
X0.4434Y-1.4058
X0.4434Y-1.4569
X0.4434Y-1.5081
X0.4434Y-1.5593
X0.4434Y-1.6105
X0.4434Y-1.6617
X0.4945Y-1.3034
X0.4945Y-1.3546
X0.4945Y-1.4058
X0.4945Y-1.4569
X0.4945Y-1.5081
X0.4945Y-1.5593
X0.4945Y-1.6105
X0.4945Y-1.6617
X0.9551Y-2.1382
X0.9829Y-2.1104
X0.9829Y-2.1661
X1.0108Y-2.0826
X1.0108Y-2.1382
X1.0108Y-2.1939
X1.0386Y-2.0547
X1.0386Y-2.1104
X1.0386Y-2.1661
X1.0386Y-2.2218
X1.0665Y-2.0269
X1.0665Y-2.0826
X1.0665Y-2.1382
X1.0665Y-2.1939
X1.0665Y-2.2496
X1.0943Y-2.0547
X1.0943Y-2.1104
X1.0943Y-2.1661
X1.0943Y-2.2218
X1.1221Y-2.0826
X1.1221Y-2.1382
X1.1221Y-2.1939
X1.15Y-2.1104
X1.15Y-2.1661
X1.1778Y-2.1382
T2
X0.066Y-0.098
X0.066Y-0.198
X0.066Y-0.298
X0.066Y-0.398
X0.066Y-0.498
X0.066Y-0.598
X0.066Y-0.698
X0.066Y-0.798
X0.066Y-0.898
X0.066Y-0.998
X0.066Y-1.098
X0.0669Y-1.2165
X0.07Y-1.678
X0.07Y-1.778
X0.07Y-1.88
X0.07Y-1.98
X0.07Y-2.08
X0.07Y-2.18
X0.07Y-2.28
X0.07Y-2.38
X0.07Y-2.48
X0.07Y-2.58
X0.07Y-2.68
X0.07Y-2.78
X0.07Y-2.88
X0.07Y-2.98
X0.07Y-3.08
X0.07Y-3.18
X0.07Y-3.26
X0.115Y-1.7
X0.12Y-1.496
X0.13Y-3.32
X0.1346Y-0.61
X0.1346Y-0.649
X0.15Y-1.037
X0.1575Y-2.6772
X0.1583Y-1.9583
X0.1598Y-1.617
X0.16Y-0.016
X0.16Y-3.26
X0.164Y-1.532
X0.184Y-1.304
X0.184Y-3.042
X0.184Y-3.094
X0.191Y-1.414
X0.1929Y-2.315
X0.205Y-1.92
X0.21Y-1.9664
X0.2101Y-1.5368
X0.214Y-1.36
X0.215Y-2.06
X0.215Y-2.1
X0.22Y-3.29
X0.22Y-3.35
X0.23Y-2.25
X0.232Y-2.2882
X0.233Y-1.8
X0.244Y-1.4
X0.26Y-0.016
X0.276Y-1.7516
X0.285Y-2.08
X0.286Y-1.8266
X0.2953Y-3.2598
X0.296Y-3.096
X0.302Y-3.042
X0.32Y-3.35
X0.335Y-2.03
X0.34Y-1.714
X0.34Y-1.759
X0.36Y-0.016
X0.37Y-1.95
X0.37Y-2.222
X0.411Y-3.135
X0.418Y-1.011
X0.42Y-1.99
X0.42Y-3.35
X0.424Y-2.664
X0.433Y-3.073
X0.44Y-1.6934
X0.44Y-2.164
X0.4449Y-2.3425
X0.4575Y-2.2258
X0.458Y-2.594
X0.46Y-0.016
X0.467Y-1.005
X0.4735Y-1.958
X0.5Y-3.2836
X0.51Y-2.55
X0.5107Y-1.9639
X0.52Y-2.662
X0.52Y-3.35
X0.5242Y-2.4419
X0.5311Y-2.0585
X0.5393Y-2.2604
X0.5454Y-2.55
X0.56Y-0.016
X0.561Y-0.189
X0.5623Y-2.0752
X0.5629Y-2.2205
X0.5669Y-2.1575
X0.57Y-1.9271
X0.572Y-2.274
X0.584Y-2.56
X0.6064Y-1.98
X0.61Y-3.0036
X0.616Y-1.8266
X0.62Y-2.7
X0.62Y-3.35
X0.628Y-1.5258
X0.634Y-0.47
X0.6494Y-2.185
X0.656Y-3.069
X0.6575Y-2.6339
X0.662Y-1.408
X0.666Y-1.362
X0.672Y-2.5814
X0.6764Y-2.446
X0.6804Y-1.9338
X0.682Y-1.699
X0.683Y-3.143
X0.685Y-1.757
X0.6855Y-2.4118
X0.686Y-1.5091
X0.69Y-2.71
X0.692Y-1.898
X0.72Y-3.35
X0.724Y-1.318
X0.724Y-1.93
X0.726Y-1.566
X0.745Y-0.603
X0.7504Y-1.0315
X0.755Y-1.462
X0.7579Y-1.9728
X0.7598Y-2.1811
X0.7626Y-2.1307
X0.768Y-2.224
X0.7699Y-2.3325
X0.7735Y-2.0949
X0.7751Y-2.6976
X0.7756Y-0.5354
X0.776Y-0.389
X0.776Y-2.5
X0.78Y-2.37
X0.7805Y-1.8047
X0.784Y-1.523
X0.784Y-2.0429
X0.786Y-1.324
X0.79Y-1.902
X0.7972Y-2.2762
X0.8071Y-2.4644
X0.82Y-1.99
X0.82Y-3.35
X0.822Y-1.552
X0.8349Y-2.1311
X0.8383Y-2.2117
X0.84Y-2.7
X0.8622Y-0.2717
X0.866Y-1.287
X0.8661Y-1.4094
X0.8691Y-2.0707
X0.8764Y-1.93
X0.877Y-0.201
X0.88Y-1.808
X0.8804Y-2.3614
X0.896Y-3.0636
X0.902Y-2.469
X0.92Y-0.05
X0.92Y-3.23
X0.92Y-3.35
X0.922Y-2.532
X0.9252Y-2.6535
X0.9324Y-2.3064
X0.937Y-0.093
X0.9379Y-1.8827
X0.94Y-0.2624
X0.947Y-0.65
X0.9488Y-0.4882
X0.952Y-0.872
X0.9528Y-1.9685
X0.96Y-0.3096
X0.96Y-1.8525
X0.9757Y-1.8157
X0.98Y-3.06
X0.98Y-3.23
X0.988Y-1.699
X0.9924Y-2.627
X1.005Y-1.485
X1.008Y-1.116
X1.01Y-2.66
X1.016Y-1.168
X1.02Y-3.35
X1.025Y-1.589
X1.036Y-1.373
X1.0368Y-1.6511
X1.038Y-1.44
X1.04Y-1.83
X1.0669Y-1.2717
X1.07Y-0.09
X1.0731Y-0.3669
X1.08Y-2.52
X1.09Y-0.19
X1.09Y-1.186
X1.0991Y-2.3652
X1.1063Y-1.7638
X1.11Y-2.6496
X1.116Y-1.104
X1.1199Y-1.8427
X1.12Y-3.35
X1.1226Y-0.4434
X1.1275Y-1.4725
X1.13Y-1.26
X1.1378Y-2.7002
X1.138Y-1.334
X1.1393Y-0.4747
X1.1398Y-1.8101
X1.14Y-0.16
X1.1409Y-1.5928
X1.1451Y-1.664
X1.1457Y-2.4803
X1.146Y-3.036
X1.1482Y-2.333
X1.15Y-0.07
X1.1541Y-1.9646
X1.162Y-0.3034
X1.17Y-2.52
X1.17Y-3.19
X1.17Y-3.2288
X1.18Y-3.12
X1.19Y-0.05
X1.19Y-2.48
X1.1924Y-1.8174
X1.1969Y-1.8701
X1.208Y-0.716
X1.216Y-0.758
X1.2166Y-1.9528
X1.22Y-2.25
X1.22Y-3.35
X1.2213Y-2.65
X1.23Y-2.39
X1.2384Y-2.0384
X1.2507Y-1.9186
X1.268Y-2.952
X1.275Y-1.7546
X1.2756Y-0.8425
X1.2766Y-1.2525
X1.2775Y-1.305
X1.28Y-1.37
X1.28Y-1.66
X1.2806Y-2.61
X1.2809Y-1.8909
X1.286Y-0.016
X1.2866Y-2.33
X1.29Y-0.58
X1.29Y-3.09
X1.3Y-0.49
X1.31Y-2.3
X1.3189Y-0.8071
X1.32Y-0.882
X1.32Y-3.35
X1.3226Y-2.2595
X1.3386Y-1.9173
X1.339Y-0.684
X1.344Y-3.018
X1.3465Y-1.5394
X1.366Y-0.868
X1.3675Y-2.2325
X1.37Y-1.82
X1.372Y-2.395
X1.38Y-0.08
X1.38Y-0.38
X1.38Y-3.19
X1.3814Y-2.7436
X1.382Y-2.144
X1.382Y-2.662
X1.384Y-0.465
X1.3852Y-2.1996
X1.3858Y-0.7992
X1.386Y-0.016
X1.389Y-2.35
X1.4034Y-2.5066
X1.4034Y-2.584
X1.41Y-2.11
X1.4173Y-1.1262
X1.42Y-3.35
X1.434Y-1.044
X1.436Y-1.002
X1.4361Y-0.9039
X1.4361Y-0.9559
X1.445Y-2.6375
X1.447Y-2.4756
X1.4533Y-2.138
X1.4567Y-1.7992
X1.4567Y-2.0315
X1.47Y-0.52
X1.476Y-3.102
X1.486Y-0.016
X1.4882Y-2.5816
X1.4921Y-0.752
X1.4949Y-2.0611
X1.4961Y-0.4252
X1.5Y-1.1142
X1.5Y-2.02
X1.505Y-0.937
X1.5079Y-2.6535
X1.52Y-3.35
X1.5236Y-0.8583
X1.5236Y-2.4586
X1.5315Y-3.0748
X1.5325Y-1.6519
X1.5354Y-0.4921
X1.5354Y-0.752
X1.5354Y-2.4966
X1.5433Y-0.3819
X1.546Y-2.3404
X1.57Y-2.284
X1.58Y-1.64
X1.5827Y-0.4921
X1.583Y-2.5508
X1.5834Y-1.982
X1.5854Y-1.7874
X1.586Y-0.016
X1.59Y-2.95
X1.59Y-2.2001
X1.61Y-1.7075
X1.6142Y-0.378
X1.62Y-3.35
X1.6274Y-0.0474
X1.628Y-2.666
X1.634Y-0.508
X1.64Y-0.85
X1.6417Y-1.7874
X1.6496Y-1.9528
X1.65Y-0.1
X1.6535Y-3.19
X1.6654Y-3.0945
X1.686Y-0.016
X1.689Y-0.4961
X1.6929Y-0.1693
X1.6929Y-0.374
X1.7Y-1.6166
X1.7047Y-1.9567
X1.705Y-2.07
X1.71Y-0.0816
X1.72Y-3.35
X1.7283Y-0.374
X1.73Y-0.72
X1.73Y-0.85
X1.7323Y-0.4961
X1.7323Y-1.9213
X1.733Y-0.573
X1.74Y-1.05
X1.75Y-2.47
X1.754Y-2.172
X1.7717Y-0.4921
X1.7725Y-1.6375
X1.786Y-0.016
X1.799Y-0.772
X1.8059Y-0.7
X1.8067Y-2.6633
X1.81Y-2.51
X1.811Y-0.642
X1.8156Y-0.57
X1.8189Y-1.8071
X1.82Y-3.35
X1.83Y-3.0
X1.8348Y-2.4374
X1.84Y-2.6196
X1.861Y-0.495
X1.8701Y-1.5669
X1.886Y-0.016
X1.8875Y-2.6575
X1.89Y-0.53
X1.8904Y-2.6163
X1.8919Y-2.5581
X1.9016Y-1.7323
X1.91Y-2.46
X1.9173Y-1.3228
X1.92Y-3.35
X1.9291Y-0.3701
X1.94Y-0.31
X1.94Y-2.96
X1.945Y-1.635
X1.986Y-0.016
X1.99Y-0.49
X1.99Y-0.964
X1.994Y-1.263
X2.0Y-0.73
X2.0Y-1.34
X2.0Y-2.16
X2.004Y-2.48
X2.0116Y-1.77
X2.02Y-0.44
X2.02Y-1.0
X2.02Y-1.85
X2.02Y-1.91
X2.02Y-1.97
X2.02Y-3.35
X2.0233Y-2.6374
X2.0236Y-2.0433
X2.03Y-0.48
X2.04Y-1.06
X2.04Y-2.18
X2.04Y-2.5234
X2.0512Y-1.8031
X2.08Y-0.49
X2.08Y-0.73
X2.09Y-0.14
X2.09Y-1.06
X2.09Y-2.66
X2.0906Y-0.0197
X2.1Y-0.44
X2.1Y-1.85
X2.1Y-1.91
X2.1Y-1.97
X2.11Y-0.33
X2.12Y-0.54
X2.12Y-3.35
X2.125Y-2.64
X2.13Y-0.21
X2.136Y-0.133
X2.14Y-1.06
X2.148Y-0.255
X2.15Y-2.39
X2.158Y-2.61
X2.16Y-0.73
X2.16Y-2.95
X2.17Y-0.33
X2.17Y-0.44
X2.1839Y-1.3903
X2.185Y-1.8504
X2.19Y-0.9
X2.19Y-1.91
X2.2165Y-2.8189
X2.22Y-0.86
X2.22Y-1.4
X2.22Y-3.35
X2.224Y-0.166
X2.224Y-2.226
X2.23Y-1.24
X2.23Y-1.2816
X2.2362Y-2.626
X2.24Y-2.396
X2.24Y-2.904
X2.251Y-1.52
X2.252Y-1.8937
X2.256Y-0.018
X2.29Y-2.186
X2.2913Y-0.4646
X2.2913Y-0.5354
X2.3Y-2.35
X2.31Y-1.73
X2.311Y-1.0827
X2.311Y-1.3504
X2.3122Y-0.9083
X2.32Y-3.35
X2.33Y-1.23
X2.3346Y-1.2717
X2.34Y-3.0
X2.356Y-0.018
X2.3701Y-0.9567
X2.38Y-3.17
X2.3858Y-0.1969
X2.39Y-2.02
X2.42Y-2.74
X2.42Y-3.35
X2.4327Y-1.0949
X2.4331Y-0.4764
X2.4331Y-0.5433
X2.44Y-3.02
X2.456Y-0.018
X2.4566Y-2.04
X2.4724Y-1.3701
X2.4882Y-2.3504
X2.5Y-2.6535
X2.52Y-3.35
X2.526Y-2.12
X2.526Y-2.186
X2.543Y-1.889
X2.5433Y-0.2087
X2.546Y-2.253
X2.549Y-1.746
X2.554Y-1.825
X2.556Y-0.018
X2.61Y-1.55
X2.62Y-3.35
X2.65Y-2.04
X2.65Y-3.29
X2.656Y-0.018
X2.6575Y-1.1063
X2.67Y-3.23
X2.699Y-2.12
X2.7Y-1.99
X2.7Y-2.182
X2.7024Y-2.235
X2.72Y-3.35
X2.731Y-1.744
X2.756Y-0.018
X2.77Y-3.19
X2.77Y-3.13
X2.7835Y-1.1181
X2.7835Y-2.6378
X2.8Y-1.7244
X2.82Y-3.33
X2.8409Y-1.7291
X2.8583Y-0.0433
X2.888Y-0.148
X2.888Y-0.282
X2.888Y-0.482
X2.888Y-0.582
X2.888Y-0.682
X2.89Y-0.77
X2.89Y-0.87
X2.89Y-0.97
X2.89Y-1.07
X2.89Y-1.17
X2.89Y-1.77
X2.89Y-1.87
X2.89Y-1.97
X2.89Y-2.07
X2.89Y-2.17
X2.89Y-2.27
X2.89Y-2.37
X2.89Y-2.47
X2.89Y-2.57
X2.89Y-2.67
X2.89Y-2.77
X2.89Y-2.87
X2.89Y-2.97
X2.89Y-3.07
X2.89Y-3.17
X2.89Y-3.27
T3
X0.151Y-0.809
X0.2297Y-0.809
X0.647Y-0.8093
X0.7257Y-0.8093
T4
X0.1398Y-2.7853
X0.1398Y-2.8853
X0.2398Y-2.7853
X0.2398Y-2.8853
X0.3398Y-2.7853
X0.3398Y-2.8853
X0.4398Y-2.7853
X0.4398Y-2.8853
X0.4976Y-0.077
X0.5398Y-2.7853
X0.5398Y-2.8853
X0.5976Y-0.077
X0.6398Y-2.7853
X0.6398Y-2.8853
X0.6976Y-0.077
X0.7398Y-2.7853
X0.7398Y-2.8853
X0.7976Y-0.077
X0.8398Y-2.7853
X0.8398Y-2.8853
X0.9398Y-2.7853
X0.9398Y-2.8853
X1.0238Y-0.5746
X1.0238Y-0.6746
X1.0238Y-0.7746
X1.0398Y-2.7853
X1.0398Y-2.8853
X1.1238Y-0.5746
X1.1238Y-0.6746
X1.1238Y-0.7746
X1.1398Y-2.7853
X1.1398Y-2.8853
X1.2398Y-2.7853
X1.2398Y-2.8853
X1.3398Y-2.7853
X1.3398Y-2.8853
X1.4398Y-2.7853
X1.4398Y-2.8853
X1.5398Y-2.7853
X1.5398Y-2.8853
X1.6398Y-2.7853
X1.6398Y-2.8853
X1.7398Y-2.7853
X1.7398Y-2.8853
X1.8398Y-2.7853
X1.8398Y-2.8853
X1.9398Y-2.7853
X1.9398Y-2.8853
X2.0398Y-2.7853
X2.0398Y-2.8853
X2.532Y-1.2304
X2.532Y-1.3304
X2.532Y-1.4304
X2.532Y-1.5304
X2.745Y-1.2438
X2.745Y-1.3438
X2.745Y-1.4438
X2.745Y-1.5438
X2.745Y-1.6438
X2.845Y-1.2438
X2.845Y-1.3438
X2.845Y-1.4438
X2.845Y-1.5438
X2.845Y-1.6438
T5
X1.2717Y-0.205
X1.3717Y-0.205
X1.4717Y-0.205
X1.5717Y-0.205
T6
X0.2762Y-0.222
X0.2762Y-2.505
X2.6387Y-0.812
T7
X2.6392Y-2.5055
T4
G00X2.587Y-0.4183
M15
G01X2.587Y-0.3396
M16
G05
G00X2.7445Y-0.1939
M15
G01X2.6657Y-0.1939
M16
G05
G00X2.8232Y-0.4183
M15
G01X2.8232Y-0.3396
M16
G05
T0
M30
