%TF.GenerationSoftware,KiCad,Pcbnew,(6.0.7)*%
%TF.CreationDate,2022-07-29T08:46:01-07:00*%
%TF.ProjectId,SJ-201-R10,534a2d32-3031-42d5-9231-302e6b696361,rev?*%
%TF.SameCoordinates,Original*%
%TF.FileFunction,Drillmap*%
%TF.FilePolarity,Positive*%
%FSLAX45Y45*%
G04 Gerber Fmt 4.5, Leading zero omitted, Abs format (unit mm)*
G04 Created by KiCad (PCBNEW (6.0.7)) date 2022-07-29 08:46:01*
%MOMM*%
%LPD*%
G01*
G04 APERTURE LIST*
%ADD10C,0.200000*%
%ADD11C,0.090000*%
%ADD12C,0.110000*%
G04 APERTURE END LIST*
D10*
X7104683Y37529D02*
X396000Y37529D01*
X102224Y-259262D02*
X105800Y-8266000D01*
X396000Y37529D02*
G75*
G03*
X102224Y-259262I1507J-295283D01*
G01*
X7402299Y-263095D02*
G75*
G03*
X7104683Y37529I-299119J1505D01*
G01*
X105800Y-8266000D02*
G75*
G03*
X403191Y-8559176I295283J2107D01*
G01*
X7398459Y-8268695D02*
X7398000Y-4778000D01*
X403191Y-8559176D02*
X7102292Y-8563095D01*
X7102292Y-8563089D02*
G75*
G03*
X7398459Y-8268695I888J295279D01*
G01*
X7402290Y-2552000D02*
G75*
G03*
X7502292Y-2652000I100000J0D01*
G01*
X7899000Y-2746720D02*
X7899000Y-4578000D01*
X7798459Y-4678000D02*
G75*
G03*
X7899000Y-4578000I271J100270D01*
G01*
X7498000Y-4678000D02*
G75*
G03*
X7398000Y-4778000I0J-100000D01*
G01*
X7899000Y-2746720D02*
G75*
G03*
X7798459Y-2652000I-97630J-2910D01*
G01*
X7798459Y-2652000D02*
X7502292Y-2652000D01*
X7798459Y-4678000D02*
X7498000Y-4678000D01*
X7402292Y-2552000D02*
X7402292Y-263095D01*
D11*
X1577320Y-1029280D02*
X1667320Y-1119280D01*
X1667320Y-1029280D02*
X1577320Y-1119280D01*
X1577320Y-1329280D02*
X1667320Y-1419280D01*
X1667320Y-1329280D02*
X1577320Y-1419280D01*
D12*
X3285000Y-732900D02*
G75*
G03*
X3285000Y-732900I-55000J0D01*
G01*
X3539000Y-736600D02*
G75*
G03*
X3539000Y-736600I-55000J0D01*
G01*
D10*
X349839Y-8883571D02*
X349839Y-8683571D01*
X397458Y-8683571D01*
X426030Y-8693095D01*
X445077Y-8712143D01*
X454601Y-8731190D01*
X464125Y-8769286D01*
X464125Y-8797857D01*
X454601Y-8835952D01*
X445077Y-8855000D01*
X426030Y-8874048D01*
X397458Y-8883571D01*
X349839Y-8883571D01*
X549839Y-8883571D02*
X549839Y-8750238D01*
X549839Y-8788333D02*
X559363Y-8769286D01*
X568887Y-8759762D01*
X587934Y-8750238D01*
X606982Y-8750238D01*
X673649Y-8883571D02*
X673649Y-8750238D01*
X673649Y-8683571D02*
X664125Y-8693095D01*
X673649Y-8702619D01*
X683173Y-8693095D01*
X673649Y-8683571D01*
X673649Y-8702619D01*
X797458Y-8883571D02*
X778411Y-8874048D01*
X768887Y-8855000D01*
X768887Y-8683571D01*
X902220Y-8883571D02*
X883172Y-8874048D01*
X873649Y-8855000D01*
X873649Y-8683571D01*
X1130792Y-8883571D02*
X1130792Y-8683571D01*
X1197458Y-8826429D01*
X1264125Y-8683571D01*
X1264125Y-8883571D01*
X1445077Y-8883571D02*
X1445077Y-8778809D01*
X1435553Y-8759762D01*
X1416506Y-8750238D01*
X1378411Y-8750238D01*
X1359363Y-8759762D01*
X1445077Y-8874048D02*
X1426030Y-8883571D01*
X1378411Y-8883571D01*
X1359363Y-8874048D01*
X1349839Y-8855000D01*
X1349839Y-8835952D01*
X1359363Y-8816905D01*
X1378411Y-8807381D01*
X1426030Y-8807381D01*
X1445077Y-8797857D01*
X1540315Y-8750238D02*
X1540315Y-8950238D01*
X1540315Y-8759762D02*
X1559363Y-8750238D01*
X1597458Y-8750238D01*
X1616506Y-8759762D01*
X1626030Y-8769286D01*
X1635553Y-8788333D01*
X1635553Y-8845476D01*
X1626030Y-8864524D01*
X1616506Y-8874048D01*
X1597458Y-8883571D01*
X1559363Y-8883571D01*
X1540315Y-8874048D01*
X1721268Y-8864524D02*
X1730792Y-8874048D01*
X1721268Y-8883571D01*
X1711744Y-8874048D01*
X1721268Y-8864524D01*
X1721268Y-8883571D01*
X1721268Y-8759762D02*
X1730792Y-8769286D01*
X1721268Y-8778809D01*
X1711744Y-8769286D01*
X1721268Y-8759762D01*
X1721268Y-8778809D01*
D11*
X2220Y-9168095D02*
X92220Y-9258095D01*
X92220Y-9168095D02*
X2220Y-9258095D01*
D10*
X387934Y-9103571D02*
X406982Y-9103571D01*
X426030Y-9113095D01*
X435553Y-9122619D01*
X445077Y-9141667D01*
X454601Y-9179762D01*
X454601Y-9227381D01*
X445077Y-9265476D01*
X435553Y-9284524D01*
X426030Y-9294048D01*
X406982Y-9303571D01*
X387934Y-9303571D01*
X368887Y-9294048D01*
X359363Y-9284524D01*
X349839Y-9265476D01*
X340315Y-9227381D01*
X340315Y-9179762D01*
X349839Y-9141667D01*
X359363Y-9122619D01*
X368887Y-9113095D01*
X387934Y-9103571D01*
X540315Y-9284524D02*
X549839Y-9294048D01*
X540315Y-9303571D01*
X530792Y-9294048D01*
X540315Y-9284524D01*
X540315Y-9303571D01*
X645077Y-9303571D02*
X683173Y-9303571D01*
X702220Y-9294048D01*
X711744Y-9284524D01*
X730792Y-9255952D01*
X740315Y-9217857D01*
X740315Y-9141667D01*
X730792Y-9122619D01*
X721268Y-9113095D01*
X702220Y-9103571D01*
X664125Y-9103571D01*
X645077Y-9113095D01*
X635554Y-9122619D01*
X626030Y-9141667D01*
X626030Y-9189286D01*
X635554Y-9208333D01*
X645077Y-9217857D01*
X664125Y-9227381D01*
X702220Y-9227381D01*
X721268Y-9217857D01*
X730792Y-9208333D01*
X740315Y-9189286D01*
X864125Y-9103571D02*
X883172Y-9103571D01*
X902220Y-9113095D01*
X911744Y-9122619D01*
X921268Y-9141667D01*
X930792Y-9179762D01*
X930792Y-9227381D01*
X921268Y-9265476D01*
X911744Y-9284524D01*
X902220Y-9294048D01*
X883172Y-9303571D01*
X864125Y-9303571D01*
X845077Y-9294048D01*
X835553Y-9284524D01*
X826030Y-9265476D01*
X816506Y-9227381D01*
X816506Y-9179762D01*
X826030Y-9141667D01*
X835553Y-9122619D01*
X845077Y-9113095D01*
X864125Y-9103571D01*
X1054601Y-9103571D02*
X1073649Y-9103571D01*
X1092696Y-9113095D01*
X1102220Y-9122619D01*
X1111744Y-9141667D01*
X1121268Y-9179762D01*
X1121268Y-9227381D01*
X1111744Y-9265476D01*
X1102220Y-9284524D01*
X1092696Y-9294048D01*
X1073649Y-9303571D01*
X1054601Y-9303571D01*
X1035553Y-9294048D01*
X1026030Y-9284524D01*
X1016506Y-9265476D01*
X1006982Y-9227381D01*
X1006982Y-9179762D01*
X1016506Y-9141667D01*
X1026030Y-9122619D01*
X1035553Y-9113095D01*
X1054601Y-9103571D01*
X1206982Y-9303571D02*
X1206982Y-9170238D01*
X1206982Y-9189286D02*
X1216506Y-9179762D01*
X1235554Y-9170238D01*
X1264125Y-9170238D01*
X1283173Y-9179762D01*
X1292696Y-9198809D01*
X1292696Y-9303571D01*
X1292696Y-9198809D02*
X1302220Y-9179762D01*
X1321268Y-9170238D01*
X1349839Y-9170238D01*
X1368887Y-9179762D01*
X1378411Y-9198809D01*
X1378411Y-9303571D01*
X1473649Y-9303571D02*
X1473649Y-9170238D01*
X1473649Y-9189286D02*
X1483172Y-9179762D01*
X1502220Y-9170238D01*
X1530792Y-9170238D01*
X1549839Y-9179762D01*
X1559363Y-9198809D01*
X1559363Y-9303571D01*
X1559363Y-9198809D02*
X1568887Y-9179762D01*
X1587934Y-9170238D01*
X1616506Y-9170238D01*
X1635553Y-9179762D01*
X1645077Y-9198809D01*
X1645077Y-9303571D01*
X2035553Y-9094048D02*
X1864125Y-9351190D01*
X2292696Y-9103571D02*
X2311744Y-9103571D01*
X2330792Y-9113095D01*
X2340315Y-9122619D01*
X2349839Y-9141667D01*
X2359363Y-9179762D01*
X2359363Y-9227381D01*
X2349839Y-9265476D01*
X2340315Y-9284524D01*
X2330792Y-9294048D01*
X2311744Y-9303571D01*
X2292696Y-9303571D01*
X2273649Y-9294048D01*
X2264125Y-9284524D01*
X2254601Y-9265476D01*
X2245077Y-9227381D01*
X2245077Y-9179762D01*
X2254601Y-9141667D01*
X2264125Y-9122619D01*
X2273649Y-9113095D01*
X2292696Y-9103571D01*
X2445077Y-9284524D02*
X2454601Y-9294048D01*
X2445077Y-9303571D01*
X2435554Y-9294048D01*
X2445077Y-9284524D01*
X2445077Y-9303571D01*
X2578411Y-9103571D02*
X2597458Y-9103571D01*
X2616506Y-9113095D01*
X2626030Y-9122619D01*
X2635554Y-9141667D01*
X2645077Y-9179762D01*
X2645077Y-9227381D01*
X2635554Y-9265476D01*
X2626030Y-9284524D01*
X2616506Y-9294048D01*
X2597458Y-9303571D01*
X2578411Y-9303571D01*
X2559363Y-9294048D01*
X2549839Y-9284524D01*
X2540315Y-9265476D01*
X2530792Y-9227381D01*
X2530792Y-9179762D01*
X2540315Y-9141667D01*
X2549839Y-9122619D01*
X2559363Y-9113095D01*
X2578411Y-9103571D01*
X2711744Y-9103571D02*
X2835553Y-9103571D01*
X2768887Y-9179762D01*
X2797458Y-9179762D01*
X2816506Y-9189286D01*
X2826030Y-9198809D01*
X2835553Y-9217857D01*
X2835553Y-9265476D01*
X2826030Y-9284524D01*
X2816506Y-9294048D01*
X2797458Y-9303571D01*
X2740315Y-9303571D01*
X2721268Y-9294048D01*
X2711744Y-9284524D01*
X3016506Y-9103571D02*
X2921268Y-9103571D01*
X2911744Y-9198809D01*
X2921268Y-9189286D01*
X2940315Y-9179762D01*
X2987934Y-9179762D01*
X3006982Y-9189286D01*
X3016506Y-9198809D01*
X3026030Y-9217857D01*
X3026030Y-9265476D01*
X3016506Y-9284524D01*
X3006982Y-9294048D01*
X2987934Y-9303571D01*
X2940315Y-9303571D01*
X2921268Y-9294048D01*
X2911744Y-9284524D01*
X3197458Y-9170238D02*
X3197458Y-9303571D01*
X3149839Y-9094048D02*
X3102220Y-9236905D01*
X3226030Y-9236905D01*
X3292696Y-9103571D02*
X3292696Y-9141667D01*
X3368887Y-9103571D02*
X3368887Y-9141667D01*
X3664125Y-9379762D02*
X3654601Y-9370238D01*
X3635553Y-9341667D01*
X3626030Y-9322619D01*
X3616506Y-9294048D01*
X3606982Y-9246429D01*
X3606982Y-9208333D01*
X3616506Y-9160714D01*
X3626030Y-9132143D01*
X3635553Y-9113095D01*
X3654601Y-9084524D01*
X3664125Y-9075000D01*
X3730792Y-9122619D02*
X3740315Y-9113095D01*
X3759363Y-9103571D01*
X3806982Y-9103571D01*
X3826030Y-9113095D01*
X3835553Y-9122619D01*
X3845077Y-9141667D01*
X3845077Y-9160714D01*
X3835553Y-9189286D01*
X3721268Y-9303571D01*
X3845077Y-9303571D01*
X4083172Y-9303571D02*
X4083172Y-9103571D01*
X4168887Y-9303571D02*
X4168887Y-9198809D01*
X4159363Y-9179762D01*
X4140315Y-9170238D01*
X4111744Y-9170238D01*
X4092696Y-9179762D01*
X4083172Y-9189286D01*
X4292696Y-9303571D02*
X4273649Y-9294048D01*
X4264125Y-9284524D01*
X4254601Y-9265476D01*
X4254601Y-9208333D01*
X4264125Y-9189286D01*
X4273649Y-9179762D01*
X4292696Y-9170238D01*
X4321268Y-9170238D01*
X4340315Y-9179762D01*
X4349839Y-9189286D01*
X4359363Y-9208333D01*
X4359363Y-9265476D01*
X4349839Y-9284524D01*
X4340315Y-9294048D01*
X4321268Y-9303571D01*
X4292696Y-9303571D01*
X4473649Y-9303571D02*
X4454601Y-9294048D01*
X4445077Y-9275000D01*
X4445077Y-9103571D01*
X4626030Y-9294048D02*
X4606982Y-9303571D01*
X4568887Y-9303571D01*
X4549839Y-9294048D01*
X4540315Y-9275000D01*
X4540315Y-9198809D01*
X4549839Y-9179762D01*
X4568887Y-9170238D01*
X4606982Y-9170238D01*
X4626030Y-9179762D01*
X4635554Y-9198809D01*
X4635554Y-9217857D01*
X4540315Y-9236905D01*
X4711744Y-9294048D02*
X4730792Y-9303571D01*
X4768887Y-9303571D01*
X4787934Y-9294048D01*
X4797458Y-9275000D01*
X4797458Y-9265476D01*
X4787934Y-9246429D01*
X4768887Y-9236905D01*
X4740315Y-9236905D01*
X4721268Y-9227381D01*
X4711744Y-9208333D01*
X4711744Y-9198809D01*
X4721268Y-9179762D01*
X4740315Y-9170238D01*
X4768887Y-9170238D01*
X4787934Y-9179762D01*
X4864125Y-9379762D02*
X4873649Y-9370238D01*
X4892696Y-9341667D01*
X4902220Y-9322619D01*
X4911744Y-9294048D01*
X4921268Y-9246429D01*
X4921268Y-9208333D01*
X4911744Y-9160714D01*
X4902220Y-9132143D01*
X4892696Y-9113095D01*
X4873649Y-9084524D01*
X4864125Y-9075000D01*
X5226030Y-9379762D02*
X5216506Y-9370238D01*
X5197458Y-9341667D01*
X5187934Y-9322619D01*
X5178411Y-9294048D01*
X5168887Y-9246429D01*
X5168887Y-9208333D01*
X5178411Y-9160714D01*
X5187934Y-9132143D01*
X5197458Y-9113095D01*
X5216506Y-9084524D01*
X5226030Y-9075000D01*
X5302220Y-9170238D02*
X5302220Y-9303571D01*
X5302220Y-9189286D02*
X5311744Y-9179762D01*
X5330792Y-9170238D01*
X5359363Y-9170238D01*
X5378411Y-9179762D01*
X5387934Y-9198809D01*
X5387934Y-9303571D01*
X5511744Y-9303571D02*
X5492696Y-9294048D01*
X5483173Y-9284524D01*
X5473649Y-9265476D01*
X5473649Y-9208333D01*
X5483173Y-9189286D01*
X5492696Y-9179762D01*
X5511744Y-9170238D01*
X5540315Y-9170238D01*
X5559363Y-9179762D01*
X5568887Y-9189286D01*
X5578411Y-9208333D01*
X5578411Y-9265476D01*
X5568887Y-9284524D01*
X5559363Y-9294048D01*
X5540315Y-9303571D01*
X5511744Y-9303571D01*
X5635553Y-9170238D02*
X5711744Y-9170238D01*
X5664125Y-9103571D02*
X5664125Y-9275000D01*
X5673649Y-9294048D01*
X5692696Y-9303571D01*
X5711744Y-9303571D01*
X5930792Y-9170238D02*
X5930792Y-9370238D01*
X5930792Y-9179762D02*
X5949839Y-9170238D01*
X5987934Y-9170238D01*
X6006982Y-9179762D01*
X6016506Y-9189286D01*
X6026030Y-9208333D01*
X6026030Y-9265476D01*
X6016506Y-9284524D01*
X6006982Y-9294048D01*
X5987934Y-9303571D01*
X5949839Y-9303571D01*
X5930792Y-9294048D01*
X6140315Y-9303571D02*
X6121268Y-9294048D01*
X6111744Y-9275000D01*
X6111744Y-9103571D01*
X6302220Y-9303571D02*
X6302220Y-9198809D01*
X6292696Y-9179762D01*
X6273649Y-9170238D01*
X6235553Y-9170238D01*
X6216506Y-9179762D01*
X6302220Y-9294048D02*
X6283172Y-9303571D01*
X6235553Y-9303571D01*
X6216506Y-9294048D01*
X6206982Y-9275000D01*
X6206982Y-9255952D01*
X6216506Y-9236905D01*
X6235553Y-9227381D01*
X6283172Y-9227381D01*
X6302220Y-9217857D01*
X6368887Y-9170238D02*
X6445077Y-9170238D01*
X6397458Y-9103571D02*
X6397458Y-9275000D01*
X6406982Y-9294048D01*
X6426030Y-9303571D01*
X6445077Y-9303571D01*
X6587934Y-9294048D02*
X6568887Y-9303571D01*
X6530792Y-9303571D01*
X6511744Y-9294048D01*
X6502220Y-9275000D01*
X6502220Y-9198809D01*
X6511744Y-9179762D01*
X6530792Y-9170238D01*
X6568887Y-9170238D01*
X6587934Y-9179762D01*
X6597458Y-9198809D01*
X6597458Y-9217857D01*
X6502220Y-9236905D01*
X6768887Y-9303571D02*
X6768887Y-9103571D01*
X6768887Y-9294048D02*
X6749839Y-9303571D01*
X6711744Y-9303571D01*
X6692696Y-9294048D01*
X6683172Y-9284524D01*
X6673649Y-9265476D01*
X6673649Y-9208333D01*
X6683172Y-9189286D01*
X6692696Y-9179762D01*
X6711744Y-9170238D01*
X6749839Y-9170238D01*
X6768887Y-9179762D01*
X6845077Y-9379762D02*
X6854601Y-9370238D01*
X6873649Y-9341667D01*
X6883172Y-9322619D01*
X6892696Y-9294048D01*
X6902220Y-9246429D01*
X6902220Y-9208333D01*
X6892696Y-9160714D01*
X6883172Y-9132143D01*
X6873649Y-9113095D01*
X6854601Y-9084524D01*
X6845077Y-9075000D01*
D12*
X92220Y-9477095D02*
G75*
G03*
X92220Y-9477095I-55000J0D01*
G01*
D10*
X454601Y-9567571D02*
X340315Y-9567571D01*
X397458Y-9567571D02*
X397458Y-9367571D01*
X378411Y-9396143D01*
X359363Y-9415190D01*
X340315Y-9424714D01*
X540315Y-9548524D02*
X549839Y-9558048D01*
X540315Y-9567571D01*
X530792Y-9558048D01*
X540315Y-9548524D01*
X540315Y-9567571D01*
X740315Y-9567571D02*
X626030Y-9567571D01*
X683173Y-9567571D02*
X683173Y-9367571D01*
X664125Y-9396143D01*
X645077Y-9415190D01*
X626030Y-9424714D01*
X864125Y-9367571D02*
X883172Y-9367571D01*
X902220Y-9377095D01*
X911744Y-9386619D01*
X921268Y-9405667D01*
X930792Y-9443762D01*
X930792Y-9491381D01*
X921268Y-9529476D01*
X911744Y-9548524D01*
X902220Y-9558048D01*
X883172Y-9567571D01*
X864125Y-9567571D01*
X845077Y-9558048D01*
X835553Y-9548524D01*
X826030Y-9529476D01*
X816506Y-9491381D01*
X816506Y-9443762D01*
X826030Y-9405667D01*
X835553Y-9386619D01*
X845077Y-9377095D01*
X864125Y-9367571D01*
X1054601Y-9367571D02*
X1073649Y-9367571D01*
X1092696Y-9377095D01*
X1102220Y-9386619D01*
X1111744Y-9405667D01*
X1121268Y-9443762D01*
X1121268Y-9491381D01*
X1111744Y-9529476D01*
X1102220Y-9548524D01*
X1092696Y-9558048D01*
X1073649Y-9567571D01*
X1054601Y-9567571D01*
X1035553Y-9558048D01*
X1026030Y-9548524D01*
X1016506Y-9529476D01*
X1006982Y-9491381D01*
X1006982Y-9443762D01*
X1016506Y-9405667D01*
X1026030Y-9386619D01*
X1035553Y-9377095D01*
X1054601Y-9367571D01*
X1206982Y-9567571D02*
X1206982Y-9434238D01*
X1206982Y-9453286D02*
X1216506Y-9443762D01*
X1235554Y-9434238D01*
X1264125Y-9434238D01*
X1283173Y-9443762D01*
X1292696Y-9462809D01*
X1292696Y-9567571D01*
X1292696Y-9462809D02*
X1302220Y-9443762D01*
X1321268Y-9434238D01*
X1349839Y-9434238D01*
X1368887Y-9443762D01*
X1378411Y-9462809D01*
X1378411Y-9567571D01*
X1473649Y-9567571D02*
X1473649Y-9434238D01*
X1473649Y-9453286D02*
X1483172Y-9443762D01*
X1502220Y-9434238D01*
X1530792Y-9434238D01*
X1549839Y-9443762D01*
X1559363Y-9462809D01*
X1559363Y-9567571D01*
X1559363Y-9462809D02*
X1568887Y-9443762D01*
X1587934Y-9434238D01*
X1616506Y-9434238D01*
X1635553Y-9443762D01*
X1645077Y-9462809D01*
X1645077Y-9567571D01*
X2035553Y-9358048D02*
X1864125Y-9615190D01*
X2292696Y-9367571D02*
X2311744Y-9367571D01*
X2330792Y-9377095D01*
X2340315Y-9386619D01*
X2349839Y-9405667D01*
X2359363Y-9443762D01*
X2359363Y-9491381D01*
X2349839Y-9529476D01*
X2340315Y-9548524D01*
X2330792Y-9558048D01*
X2311744Y-9567571D01*
X2292696Y-9567571D01*
X2273649Y-9558048D01*
X2264125Y-9548524D01*
X2254601Y-9529476D01*
X2245077Y-9491381D01*
X2245077Y-9443762D01*
X2254601Y-9405667D01*
X2264125Y-9386619D01*
X2273649Y-9377095D01*
X2292696Y-9367571D01*
X2445077Y-9548524D02*
X2454601Y-9558048D01*
X2445077Y-9567571D01*
X2435554Y-9558048D01*
X2445077Y-9548524D01*
X2445077Y-9567571D01*
X2578411Y-9367571D02*
X2597458Y-9367571D01*
X2616506Y-9377095D01*
X2626030Y-9386619D01*
X2635554Y-9405667D01*
X2645077Y-9443762D01*
X2645077Y-9491381D01*
X2635554Y-9529476D01*
X2626030Y-9548524D01*
X2616506Y-9558048D01*
X2597458Y-9567571D01*
X2578411Y-9567571D01*
X2559363Y-9558048D01*
X2549839Y-9548524D01*
X2540315Y-9529476D01*
X2530792Y-9491381D01*
X2530792Y-9443762D01*
X2540315Y-9405667D01*
X2549839Y-9386619D01*
X2559363Y-9377095D01*
X2578411Y-9367571D01*
X2816506Y-9434238D02*
X2816506Y-9567571D01*
X2768887Y-9358048D02*
X2721268Y-9500905D01*
X2845077Y-9500905D01*
X2902220Y-9367571D02*
X3026030Y-9367571D01*
X2959363Y-9443762D01*
X2987934Y-9443762D01*
X3006982Y-9453286D01*
X3016506Y-9462809D01*
X3026030Y-9481857D01*
X3026030Y-9529476D01*
X3016506Y-9548524D01*
X3006982Y-9558048D01*
X2987934Y-9567571D01*
X2930792Y-9567571D01*
X2911744Y-9558048D01*
X2902220Y-9548524D01*
X3092696Y-9367571D02*
X3216506Y-9367571D01*
X3149839Y-9443762D01*
X3178411Y-9443762D01*
X3197458Y-9453286D01*
X3206982Y-9462809D01*
X3216506Y-9481857D01*
X3216506Y-9529476D01*
X3206982Y-9548524D01*
X3197458Y-9558048D01*
X3178411Y-9567571D01*
X3121268Y-9567571D01*
X3102220Y-9558048D01*
X3092696Y-9548524D01*
X3292696Y-9367571D02*
X3292696Y-9405667D01*
X3368887Y-9367571D02*
X3368887Y-9405667D01*
X3664125Y-9643762D02*
X3654601Y-9634238D01*
X3635553Y-9605667D01*
X3626030Y-9586619D01*
X3616506Y-9558048D01*
X3606982Y-9510429D01*
X3606982Y-9472333D01*
X3616506Y-9424714D01*
X3626030Y-9396143D01*
X3635553Y-9377095D01*
X3654601Y-9348524D01*
X3664125Y-9339000D01*
X3730792Y-9386619D02*
X3740315Y-9377095D01*
X3759363Y-9367571D01*
X3806982Y-9367571D01*
X3826030Y-9377095D01*
X3835553Y-9386619D01*
X3845077Y-9405667D01*
X3845077Y-9424714D01*
X3835553Y-9453286D01*
X3721268Y-9567571D01*
X3845077Y-9567571D01*
X4083172Y-9567571D02*
X4083172Y-9367571D01*
X4168887Y-9567571D02*
X4168887Y-9462809D01*
X4159363Y-9443762D01*
X4140315Y-9434238D01*
X4111744Y-9434238D01*
X4092696Y-9443762D01*
X4083172Y-9453286D01*
X4292696Y-9567571D02*
X4273649Y-9558048D01*
X4264125Y-9548524D01*
X4254601Y-9529476D01*
X4254601Y-9472333D01*
X4264125Y-9453286D01*
X4273649Y-9443762D01*
X4292696Y-9434238D01*
X4321268Y-9434238D01*
X4340315Y-9443762D01*
X4349839Y-9453286D01*
X4359363Y-9472333D01*
X4359363Y-9529476D01*
X4349839Y-9548524D01*
X4340315Y-9558048D01*
X4321268Y-9567571D01*
X4292696Y-9567571D01*
X4473649Y-9567571D02*
X4454601Y-9558048D01*
X4445077Y-9539000D01*
X4445077Y-9367571D01*
X4626030Y-9558048D02*
X4606982Y-9567571D01*
X4568887Y-9567571D01*
X4549839Y-9558048D01*
X4540315Y-9539000D01*
X4540315Y-9462809D01*
X4549839Y-9443762D01*
X4568887Y-9434238D01*
X4606982Y-9434238D01*
X4626030Y-9443762D01*
X4635554Y-9462809D01*
X4635554Y-9481857D01*
X4540315Y-9500905D01*
X4711744Y-9558048D02*
X4730792Y-9567571D01*
X4768887Y-9567571D01*
X4787934Y-9558048D01*
X4797458Y-9539000D01*
X4797458Y-9529476D01*
X4787934Y-9510429D01*
X4768887Y-9500905D01*
X4740315Y-9500905D01*
X4721268Y-9491381D01*
X4711744Y-9472333D01*
X4711744Y-9462809D01*
X4721268Y-9443762D01*
X4740315Y-9434238D01*
X4768887Y-9434238D01*
X4787934Y-9443762D01*
X4864125Y-9643762D02*
X4873649Y-9634238D01*
X4892696Y-9605667D01*
X4902220Y-9586619D01*
X4911744Y-9558048D01*
X4921268Y-9510429D01*
X4921268Y-9472333D01*
X4911744Y-9424714D01*
X4902220Y-9396143D01*
X4892696Y-9377095D01*
X4873649Y-9348524D01*
X4864125Y-9339000D01*
X5226030Y-9643762D02*
X5216506Y-9634238D01*
X5197458Y-9605667D01*
X5187934Y-9586619D01*
X5178411Y-9558048D01*
X5168887Y-9510429D01*
X5168887Y-9472333D01*
X5178411Y-9424714D01*
X5187934Y-9396143D01*
X5197458Y-9377095D01*
X5216506Y-9348524D01*
X5226030Y-9339000D01*
X5302220Y-9434238D02*
X5302220Y-9567571D01*
X5302220Y-9453286D02*
X5311744Y-9443762D01*
X5330792Y-9434238D01*
X5359363Y-9434238D01*
X5378411Y-9443762D01*
X5387934Y-9462809D01*
X5387934Y-9567571D01*
X5511744Y-9567571D02*
X5492696Y-9558048D01*
X5483173Y-9548524D01*
X5473649Y-9529476D01*
X5473649Y-9472333D01*
X5483173Y-9453286D01*
X5492696Y-9443762D01*
X5511744Y-9434238D01*
X5540315Y-9434238D01*
X5559363Y-9443762D01*
X5568887Y-9453286D01*
X5578411Y-9472333D01*
X5578411Y-9529476D01*
X5568887Y-9548524D01*
X5559363Y-9558048D01*
X5540315Y-9567571D01*
X5511744Y-9567571D01*
X5635553Y-9434238D02*
X5711744Y-9434238D01*
X5664125Y-9367571D02*
X5664125Y-9539000D01*
X5673649Y-9558048D01*
X5692696Y-9567571D01*
X5711744Y-9567571D01*
X5930792Y-9434238D02*
X5930792Y-9634238D01*
X5930792Y-9443762D02*
X5949839Y-9434238D01*
X5987934Y-9434238D01*
X6006982Y-9443762D01*
X6016506Y-9453286D01*
X6026030Y-9472333D01*
X6026030Y-9529476D01*
X6016506Y-9548524D01*
X6006982Y-9558048D01*
X5987934Y-9567571D01*
X5949839Y-9567571D01*
X5930792Y-9558048D01*
X6140315Y-9567571D02*
X6121268Y-9558048D01*
X6111744Y-9539000D01*
X6111744Y-9367571D01*
X6302220Y-9567571D02*
X6302220Y-9462809D01*
X6292696Y-9443762D01*
X6273649Y-9434238D01*
X6235553Y-9434238D01*
X6216506Y-9443762D01*
X6302220Y-9558048D02*
X6283172Y-9567571D01*
X6235553Y-9567571D01*
X6216506Y-9558048D01*
X6206982Y-9539000D01*
X6206982Y-9519952D01*
X6216506Y-9500905D01*
X6235553Y-9491381D01*
X6283172Y-9491381D01*
X6302220Y-9481857D01*
X6368887Y-9434238D02*
X6445077Y-9434238D01*
X6397458Y-9367571D02*
X6397458Y-9539000D01*
X6406982Y-9558048D01*
X6426030Y-9567571D01*
X6445077Y-9567571D01*
X6587934Y-9558048D02*
X6568887Y-9567571D01*
X6530792Y-9567571D01*
X6511744Y-9558048D01*
X6502220Y-9539000D01*
X6502220Y-9462809D01*
X6511744Y-9443762D01*
X6530792Y-9434238D01*
X6568887Y-9434238D01*
X6587934Y-9443762D01*
X6597458Y-9462809D01*
X6597458Y-9481857D01*
X6502220Y-9500905D01*
X6768887Y-9567571D02*
X6768887Y-9367571D01*
X6768887Y-9558048D02*
X6749839Y-9567571D01*
X6711744Y-9567571D01*
X6692696Y-9558048D01*
X6683172Y-9548524D01*
X6673649Y-9529476D01*
X6673649Y-9472333D01*
X6683172Y-9453286D01*
X6692696Y-9443762D01*
X6711744Y-9434238D01*
X6749839Y-9434238D01*
X6768887Y-9443762D01*
X6845077Y-9643762D02*
X6854601Y-9634238D01*
X6873649Y-9605667D01*
X6883172Y-9586619D01*
X6892696Y-9558048D01*
X6902220Y-9510429D01*
X6902220Y-9472333D01*
X6892696Y-9424714D01*
X6883172Y-9396143D01*
X6873649Y-9377095D01*
X6854601Y-9348524D01*
X6845077Y-9339000D01*
M02*
