G04 #@! TF.GenerationSoftware,KiCad,Pcbnew,(6.0.7)*
G04 #@! TF.CreationDate,2022-07-29T08:46:12-07:00*
G04 #@! TF.ProjectId,SJ-201-R10,534a2d32-3031-42d5-9231-302e6b696361,rev?*
G04 #@! TF.SameCoordinates,Original*
G04 #@! TF.FileFunction,AssemblyDrawing,Bot*
%FSLAX46Y46*%
G04 Gerber Fmt 4.6, Leading zero omitted, Abs format (unit mm)*
G04 Created by KiCad (PCBNEW (6.0.7)) date 2022-07-29 08:46:12*
%MOMM*%
%LPD*%
G01*
G04 APERTURE LIST*
%ADD10C,0.150000*%
%ADD11C,0.040000*%
%ADD12C,0.080000*%
%ADD13C,0.060000*%
%ADD14C,0.120000*%
%ADD15C,0.100000*%
G04 APERTURE END LIST*
D10*
G04 #@! TO.C,D11*
X55710160Y-42274196D02*
X56710160Y-42512291D01*
X55995875Y-42702767D01*
X56710160Y-42893243D01*
X55710160Y-43131339D01*
X56662541Y-43464672D02*
X56710160Y-43607529D01*
X56710160Y-43845624D01*
X56662541Y-43940862D01*
X56614922Y-43988481D01*
X56519684Y-44036100D01*
X56424446Y-44036100D01*
X56329208Y-43988481D01*
X56281589Y-43940862D01*
X56233970Y-43845624D01*
X56186351Y-43655148D01*
X56138732Y-43559910D01*
X56091113Y-43512291D01*
X55995875Y-43464672D01*
X55900637Y-43464672D01*
X55805399Y-43512291D01*
X55757780Y-43559910D01*
X55710160Y-43655148D01*
X55710160Y-43893243D01*
X55757780Y-44036100D01*
X55805399Y-44417053D02*
X55757780Y-44464672D01*
X55710160Y-44559910D01*
X55710160Y-44798005D01*
X55757780Y-44893243D01*
X55805399Y-44940862D01*
X55900637Y-44988481D01*
X55995875Y-44988481D01*
X56138732Y-44940862D01*
X56710160Y-44369434D01*
X56710160Y-44988481D01*
X56138732Y-45559910D02*
X56091113Y-45464672D01*
X56043494Y-45417053D01*
X55948256Y-45369434D01*
X55900637Y-45369434D01*
X55805399Y-45417053D01*
X55757780Y-45464672D01*
X55710160Y-45559910D01*
X55710160Y-45750386D01*
X55757780Y-45845624D01*
X55805399Y-45893243D01*
X55900637Y-45940862D01*
X55948256Y-45940862D01*
X56043494Y-45893243D01*
X56091113Y-45845624D01*
X56138732Y-45750386D01*
X56138732Y-45559910D01*
X56186351Y-45464672D01*
X56233970Y-45417053D01*
X56329208Y-45369434D01*
X56519684Y-45369434D01*
X56614922Y-45417053D01*
X56662541Y-45464672D01*
X56710160Y-45559910D01*
X56710160Y-45750386D01*
X56662541Y-45845624D01*
X56614922Y-45893243D01*
X56519684Y-45940862D01*
X56329208Y-45940862D01*
X56233970Y-45893243D01*
X56186351Y-45845624D01*
X56138732Y-45750386D01*
X56710160Y-46893243D02*
X56710160Y-46321815D01*
X56710160Y-46607529D02*
X55710160Y-46607529D01*
X55853018Y-46512291D01*
X55948256Y-46417053D01*
X55995875Y-46321815D01*
X55805399Y-47274196D02*
X55757780Y-47321815D01*
X55710160Y-47417053D01*
X55710160Y-47655148D01*
X55757780Y-47750386D01*
X55805399Y-47798005D01*
X55900637Y-47845624D01*
X55995875Y-47845624D01*
X56138732Y-47798005D01*
X56710160Y-47226577D01*
X56710160Y-47845624D01*
X56186351Y-48607529D02*
X56233970Y-48750386D01*
X56281589Y-48798005D01*
X56376827Y-48845624D01*
X56519684Y-48845624D01*
X56614922Y-48798005D01*
X56662541Y-48750386D01*
X56710160Y-48655148D01*
X56710160Y-48274196D01*
X55710160Y-48274196D01*
X55710160Y-48607529D01*
X55757780Y-48702767D01*
X55805399Y-48750386D01*
X55900637Y-48798005D01*
X55995875Y-48798005D01*
X56091113Y-48750386D01*
X56138732Y-48702767D01*
X56186351Y-48607529D01*
X56186351Y-48274196D01*
X60619684Y-44612291D02*
X59819684Y-44612291D01*
X59819684Y-44802767D01*
X59857780Y-44917053D01*
X59933970Y-44993243D01*
X60010160Y-45031339D01*
X60162541Y-45069434D01*
X60276827Y-45069434D01*
X60429208Y-45031339D01*
X60505399Y-44993243D01*
X60581589Y-44917053D01*
X60619684Y-44802767D01*
X60619684Y-44612291D01*
X60619684Y-45831339D02*
X60619684Y-45374196D01*
X60619684Y-45602767D02*
X59819684Y-45602767D01*
X59933970Y-45526577D01*
X60010160Y-45450386D01*
X60048256Y-45374196D01*
X60619684Y-46593243D02*
X60619684Y-46136100D01*
X60619684Y-46364672D02*
X59819684Y-46364672D01*
X59933970Y-46288481D01*
X60010160Y-46212291D01*
X60048256Y-46136100D01*
G04 #@! TO.C,D12*
X52560560Y-35466996D02*
X53560560Y-35705091D01*
X52846275Y-35895567D01*
X53560560Y-36086043D01*
X52560560Y-36324139D01*
X53512941Y-36657472D02*
X53560560Y-36800329D01*
X53560560Y-37038424D01*
X53512941Y-37133662D01*
X53465322Y-37181281D01*
X53370084Y-37228900D01*
X53274846Y-37228900D01*
X53179608Y-37181281D01*
X53131989Y-37133662D01*
X53084370Y-37038424D01*
X53036751Y-36847948D01*
X52989132Y-36752710D01*
X52941513Y-36705091D01*
X52846275Y-36657472D01*
X52751037Y-36657472D01*
X52655799Y-36705091D01*
X52608180Y-36752710D01*
X52560560Y-36847948D01*
X52560560Y-37086043D01*
X52608180Y-37228900D01*
X52655799Y-37609853D02*
X52608180Y-37657472D01*
X52560560Y-37752710D01*
X52560560Y-37990805D01*
X52608180Y-38086043D01*
X52655799Y-38133662D01*
X52751037Y-38181281D01*
X52846275Y-38181281D01*
X52989132Y-38133662D01*
X53560560Y-37562234D01*
X53560560Y-38181281D01*
X52989132Y-38752710D02*
X52941513Y-38657472D01*
X52893894Y-38609853D01*
X52798656Y-38562234D01*
X52751037Y-38562234D01*
X52655799Y-38609853D01*
X52608180Y-38657472D01*
X52560560Y-38752710D01*
X52560560Y-38943186D01*
X52608180Y-39038424D01*
X52655799Y-39086043D01*
X52751037Y-39133662D01*
X52798656Y-39133662D01*
X52893894Y-39086043D01*
X52941513Y-39038424D01*
X52989132Y-38943186D01*
X52989132Y-38752710D01*
X53036751Y-38657472D01*
X53084370Y-38609853D01*
X53179608Y-38562234D01*
X53370084Y-38562234D01*
X53465322Y-38609853D01*
X53512941Y-38657472D01*
X53560560Y-38752710D01*
X53560560Y-38943186D01*
X53512941Y-39038424D01*
X53465322Y-39086043D01*
X53370084Y-39133662D01*
X53179608Y-39133662D01*
X53084370Y-39086043D01*
X53036751Y-39038424D01*
X52989132Y-38943186D01*
X53560560Y-40086043D02*
X53560560Y-39514615D01*
X53560560Y-39800329D02*
X52560560Y-39800329D01*
X52703418Y-39705091D01*
X52798656Y-39609853D01*
X52846275Y-39514615D01*
X52655799Y-40466996D02*
X52608180Y-40514615D01*
X52560560Y-40609853D01*
X52560560Y-40847948D01*
X52608180Y-40943186D01*
X52655799Y-40990805D01*
X52751037Y-41038424D01*
X52846275Y-41038424D01*
X52989132Y-40990805D01*
X53560560Y-40419377D01*
X53560560Y-41038424D01*
X53036751Y-41800329D02*
X53084370Y-41943186D01*
X53131989Y-41990805D01*
X53227227Y-42038424D01*
X53370084Y-42038424D01*
X53465322Y-41990805D01*
X53512941Y-41943186D01*
X53560560Y-41847948D01*
X53560560Y-41466996D01*
X52560560Y-41466996D01*
X52560560Y-41800329D01*
X52608180Y-41895567D01*
X52655799Y-41943186D01*
X52751037Y-41990805D01*
X52846275Y-41990805D01*
X52941513Y-41943186D01*
X52989132Y-41895567D01*
X53036751Y-41800329D01*
X53036751Y-41466996D01*
X57470084Y-37805091D02*
X56670084Y-37805091D01*
X56670084Y-37995567D01*
X56708180Y-38109853D01*
X56784370Y-38186043D01*
X56860560Y-38224139D01*
X57012941Y-38262234D01*
X57127227Y-38262234D01*
X57279608Y-38224139D01*
X57355799Y-38186043D01*
X57431989Y-38109853D01*
X57470084Y-37995567D01*
X57470084Y-37805091D01*
X57470084Y-39024139D02*
X57470084Y-38566996D01*
X57470084Y-38795567D02*
X56670084Y-38795567D01*
X56784370Y-38719377D01*
X56860560Y-38643186D01*
X56898656Y-38566996D01*
X56746275Y-39328900D02*
X56708180Y-39366996D01*
X56670084Y-39443186D01*
X56670084Y-39633662D01*
X56708180Y-39709853D01*
X56746275Y-39747948D01*
X56822465Y-39786043D01*
X56898656Y-39786043D01*
X57012941Y-39747948D01*
X57470084Y-39290805D01*
X57470084Y-39786043D01*
G04 #@! TO.C,U10*
X28894761Y-4357523D02*
X28942380Y-4500380D01*
X28942380Y-4738476D01*
X28894761Y-4833714D01*
X28847142Y-4881333D01*
X28751904Y-4928952D01*
X28656666Y-4928952D01*
X28561428Y-4881333D01*
X28513809Y-4833714D01*
X28466190Y-4738476D01*
X28418571Y-4548000D01*
X28370952Y-4452761D01*
X28323333Y-4405142D01*
X28228095Y-4357523D01*
X28132857Y-4357523D01*
X28037619Y-4405142D01*
X27990000Y-4452761D01*
X27942380Y-4548000D01*
X27942380Y-4786095D01*
X27990000Y-4928952D01*
X28942380Y-5357523D02*
X27942380Y-5357523D01*
X27942380Y-5738476D01*
X27990000Y-5833714D01*
X28037619Y-5881333D01*
X28132857Y-5928952D01*
X28275714Y-5928952D01*
X28370952Y-5881333D01*
X28418571Y-5833714D01*
X28466190Y-5738476D01*
X28466190Y-5357523D01*
X28942380Y-6357523D02*
X27942380Y-6357523D01*
X28942380Y-6928952D02*
X28370952Y-6500380D01*
X27942380Y-6928952D02*
X28513809Y-6357523D01*
X27942380Y-7548000D02*
X27942380Y-7643238D01*
X27990000Y-7738476D01*
X28037619Y-7786095D01*
X28132857Y-7833714D01*
X28323333Y-7881333D01*
X28561428Y-7881333D01*
X28751904Y-7833714D01*
X28847142Y-7786095D01*
X28894761Y-7738476D01*
X28942380Y-7643238D01*
X28942380Y-7548000D01*
X28894761Y-7452761D01*
X28847142Y-7405142D01*
X28751904Y-7357523D01*
X28561428Y-7309904D01*
X28323333Y-7309904D01*
X28132857Y-7357523D01*
X28037619Y-7405142D01*
X27990000Y-7452761D01*
X27942380Y-7548000D01*
X27942380Y-8738476D02*
X27942380Y-8547999D01*
X27990000Y-8452761D01*
X28037619Y-8405142D01*
X28180476Y-8309904D01*
X28370952Y-8262285D01*
X28751904Y-8262285D01*
X28847142Y-8309904D01*
X28894761Y-8357523D01*
X28942380Y-8452761D01*
X28942380Y-8643238D01*
X28894761Y-8738476D01*
X28847142Y-8786095D01*
X28751904Y-8833714D01*
X28513809Y-8833714D01*
X28418571Y-8786095D01*
X28370952Y-8738476D01*
X28323333Y-8643238D01*
X28323333Y-8452761D01*
X28370952Y-8357523D01*
X28418571Y-8309904D01*
X28513809Y-8262285D01*
X28275714Y-9690857D02*
X28942380Y-9690857D01*
X27894761Y-9452761D02*
X28609047Y-9214666D01*
X28609047Y-9833714D01*
X28942380Y-10738476D02*
X28942380Y-10167047D01*
X28942380Y-10452761D02*
X27942380Y-10452761D01*
X28085238Y-10357523D01*
X28180476Y-10262285D01*
X28228095Y-10167047D01*
X28942380Y-11167047D02*
X27942380Y-11167047D01*
X28418571Y-11167047D02*
X28418571Y-11738476D01*
X28942380Y-11738476D02*
X27942380Y-11738476D01*
X27942380Y-12071809D02*
X27942380Y-12643238D01*
X28942380Y-12357523D02*
X27942380Y-12357523D01*
X28275714Y-13405142D02*
X28942380Y-13405142D01*
X27894761Y-13167047D02*
X28609047Y-12928952D01*
X28609047Y-13547999D01*
X28942380Y-13928952D02*
X27942380Y-13928952D01*
X28418571Y-13928952D02*
X28418571Y-14500380D01*
X28942380Y-14500380D02*
X27942380Y-14500380D01*
X28561428Y-14976571D02*
X28561428Y-15738476D01*
X28942380Y-16738476D02*
X28942380Y-16167047D01*
X28942380Y-16452761D02*
X27942380Y-16452761D01*
X28085238Y-16357523D01*
X28180476Y-16262285D01*
X28228095Y-16167047D01*
G04 #@! TO.C,D10*
X52611360Y-49081396D02*
X53611360Y-49319491D01*
X52897075Y-49509967D01*
X53611360Y-49700443D01*
X52611360Y-49938539D01*
X53563741Y-50271872D02*
X53611360Y-50414729D01*
X53611360Y-50652824D01*
X53563741Y-50748062D01*
X53516122Y-50795681D01*
X53420884Y-50843300D01*
X53325646Y-50843300D01*
X53230408Y-50795681D01*
X53182789Y-50748062D01*
X53135170Y-50652824D01*
X53087551Y-50462348D01*
X53039932Y-50367110D01*
X52992313Y-50319491D01*
X52897075Y-50271872D01*
X52801837Y-50271872D01*
X52706599Y-50319491D01*
X52658980Y-50367110D01*
X52611360Y-50462348D01*
X52611360Y-50700443D01*
X52658980Y-50843300D01*
X52706599Y-51224253D02*
X52658980Y-51271872D01*
X52611360Y-51367110D01*
X52611360Y-51605205D01*
X52658980Y-51700443D01*
X52706599Y-51748062D01*
X52801837Y-51795681D01*
X52897075Y-51795681D01*
X53039932Y-51748062D01*
X53611360Y-51176634D01*
X53611360Y-51795681D01*
X53039932Y-52367110D02*
X52992313Y-52271872D01*
X52944694Y-52224253D01*
X52849456Y-52176634D01*
X52801837Y-52176634D01*
X52706599Y-52224253D01*
X52658980Y-52271872D01*
X52611360Y-52367110D01*
X52611360Y-52557586D01*
X52658980Y-52652824D01*
X52706599Y-52700443D01*
X52801837Y-52748062D01*
X52849456Y-52748062D01*
X52944694Y-52700443D01*
X52992313Y-52652824D01*
X53039932Y-52557586D01*
X53039932Y-52367110D01*
X53087551Y-52271872D01*
X53135170Y-52224253D01*
X53230408Y-52176634D01*
X53420884Y-52176634D01*
X53516122Y-52224253D01*
X53563741Y-52271872D01*
X53611360Y-52367110D01*
X53611360Y-52557586D01*
X53563741Y-52652824D01*
X53516122Y-52700443D01*
X53420884Y-52748062D01*
X53230408Y-52748062D01*
X53135170Y-52700443D01*
X53087551Y-52652824D01*
X53039932Y-52557586D01*
X53611360Y-53700443D02*
X53611360Y-53129015D01*
X53611360Y-53414729D02*
X52611360Y-53414729D01*
X52754218Y-53319491D01*
X52849456Y-53224253D01*
X52897075Y-53129015D01*
X52706599Y-54081396D02*
X52658980Y-54129015D01*
X52611360Y-54224253D01*
X52611360Y-54462348D01*
X52658980Y-54557586D01*
X52706599Y-54605205D01*
X52801837Y-54652824D01*
X52897075Y-54652824D01*
X53039932Y-54605205D01*
X53611360Y-54033777D01*
X53611360Y-54652824D01*
X53087551Y-55414729D02*
X53135170Y-55557586D01*
X53182789Y-55605205D01*
X53278027Y-55652824D01*
X53420884Y-55652824D01*
X53516122Y-55605205D01*
X53563741Y-55557586D01*
X53611360Y-55462348D01*
X53611360Y-55081396D01*
X52611360Y-55081396D01*
X52611360Y-55414729D01*
X52658980Y-55509967D01*
X52706599Y-55557586D01*
X52801837Y-55605205D01*
X52897075Y-55605205D01*
X52992313Y-55557586D01*
X53039932Y-55509967D01*
X53087551Y-55414729D01*
X53087551Y-55081396D01*
X57520884Y-51419491D02*
X56720884Y-51419491D01*
X56720884Y-51609967D01*
X56758980Y-51724253D01*
X56835170Y-51800443D01*
X56911360Y-51838539D01*
X57063741Y-51876634D01*
X57178027Y-51876634D01*
X57330408Y-51838539D01*
X57406599Y-51800443D01*
X57482789Y-51724253D01*
X57520884Y-51609967D01*
X57520884Y-51419491D01*
X57520884Y-52638539D02*
X57520884Y-52181396D01*
X57520884Y-52409967D02*
X56720884Y-52409967D01*
X56835170Y-52333777D01*
X56911360Y-52257586D01*
X56949456Y-52181396D01*
X56720884Y-53133777D02*
X56720884Y-53209967D01*
X56758980Y-53286158D01*
X56797075Y-53324253D01*
X56873265Y-53362348D01*
X57025646Y-53400443D01*
X57216122Y-53400443D01*
X57368503Y-53362348D01*
X57444694Y-53324253D01*
X57482789Y-53286158D01*
X57520884Y-53209967D01*
X57520884Y-53133777D01*
X57482789Y-53057586D01*
X57444694Y-53019491D01*
X57368503Y-52981396D01*
X57216122Y-52943300D01*
X57025646Y-52943300D01*
X56873265Y-52981396D01*
X56797075Y-53019491D01*
X56758980Y-53057586D01*
X56720884Y-53133777D01*
G04 #@! TO.C,D9*
X48242560Y-55278996D02*
X49242560Y-55517091D01*
X48528275Y-55707567D01*
X49242560Y-55898043D01*
X48242560Y-56136139D01*
X49194941Y-56469472D02*
X49242560Y-56612329D01*
X49242560Y-56850424D01*
X49194941Y-56945662D01*
X49147322Y-56993281D01*
X49052084Y-57040900D01*
X48956846Y-57040900D01*
X48861608Y-56993281D01*
X48813989Y-56945662D01*
X48766370Y-56850424D01*
X48718751Y-56659948D01*
X48671132Y-56564710D01*
X48623513Y-56517091D01*
X48528275Y-56469472D01*
X48433037Y-56469472D01*
X48337799Y-56517091D01*
X48290180Y-56564710D01*
X48242560Y-56659948D01*
X48242560Y-56898043D01*
X48290180Y-57040900D01*
X48337799Y-57421853D02*
X48290180Y-57469472D01*
X48242560Y-57564710D01*
X48242560Y-57802805D01*
X48290180Y-57898043D01*
X48337799Y-57945662D01*
X48433037Y-57993281D01*
X48528275Y-57993281D01*
X48671132Y-57945662D01*
X49242560Y-57374234D01*
X49242560Y-57993281D01*
X48671132Y-58564710D02*
X48623513Y-58469472D01*
X48575894Y-58421853D01*
X48480656Y-58374234D01*
X48433037Y-58374234D01*
X48337799Y-58421853D01*
X48290180Y-58469472D01*
X48242560Y-58564710D01*
X48242560Y-58755186D01*
X48290180Y-58850424D01*
X48337799Y-58898043D01*
X48433037Y-58945662D01*
X48480656Y-58945662D01*
X48575894Y-58898043D01*
X48623513Y-58850424D01*
X48671132Y-58755186D01*
X48671132Y-58564710D01*
X48718751Y-58469472D01*
X48766370Y-58421853D01*
X48861608Y-58374234D01*
X49052084Y-58374234D01*
X49147322Y-58421853D01*
X49194941Y-58469472D01*
X49242560Y-58564710D01*
X49242560Y-58755186D01*
X49194941Y-58850424D01*
X49147322Y-58898043D01*
X49052084Y-58945662D01*
X48861608Y-58945662D01*
X48766370Y-58898043D01*
X48718751Y-58850424D01*
X48671132Y-58755186D01*
X49242560Y-59898043D02*
X49242560Y-59326615D01*
X49242560Y-59612329D02*
X48242560Y-59612329D01*
X48385418Y-59517091D01*
X48480656Y-59421853D01*
X48528275Y-59326615D01*
X48337799Y-60278996D02*
X48290180Y-60326615D01*
X48242560Y-60421853D01*
X48242560Y-60659948D01*
X48290180Y-60755186D01*
X48337799Y-60802805D01*
X48433037Y-60850424D01*
X48528275Y-60850424D01*
X48671132Y-60802805D01*
X49242560Y-60231377D01*
X49242560Y-60850424D01*
X48718751Y-61612329D02*
X48766370Y-61755186D01*
X48813989Y-61802805D01*
X48909227Y-61850424D01*
X49052084Y-61850424D01*
X49147322Y-61802805D01*
X49194941Y-61755186D01*
X49242560Y-61659948D01*
X49242560Y-61278996D01*
X48242560Y-61278996D01*
X48242560Y-61612329D01*
X48290180Y-61707567D01*
X48337799Y-61755186D01*
X48433037Y-61802805D01*
X48528275Y-61802805D01*
X48623513Y-61755186D01*
X48671132Y-61707567D01*
X48718751Y-61612329D01*
X48718751Y-61278996D01*
X53152084Y-57998043D02*
X52352084Y-57998043D01*
X52352084Y-58188520D01*
X52390180Y-58302805D01*
X52466370Y-58378996D01*
X52542560Y-58417091D01*
X52694941Y-58455186D01*
X52809227Y-58455186D01*
X52961608Y-58417091D01*
X53037799Y-58378996D01*
X53113989Y-58302805D01*
X53152084Y-58188520D01*
X53152084Y-57998043D01*
X53152084Y-58836139D02*
X53152084Y-58988520D01*
X53113989Y-59064710D01*
X53075894Y-59102805D01*
X52961608Y-59178996D01*
X52809227Y-59217091D01*
X52504465Y-59217091D01*
X52428275Y-59178996D01*
X52390180Y-59140900D01*
X52352084Y-59064710D01*
X52352084Y-58912329D01*
X52390180Y-58836139D01*
X52428275Y-58798043D01*
X52504465Y-58759948D01*
X52694941Y-58759948D01*
X52771132Y-58798043D01*
X52809227Y-58836139D01*
X52847322Y-58912329D01*
X52847322Y-59064710D01*
X52809227Y-59140900D01*
X52771132Y-59178996D01*
X52694941Y-59217091D01*
G04 #@! TO.C,D13*
X48191760Y-29269396D02*
X49191760Y-29507491D01*
X48477475Y-29697967D01*
X49191760Y-29888443D01*
X48191760Y-30126539D01*
X49144141Y-30459872D02*
X49191760Y-30602729D01*
X49191760Y-30840824D01*
X49144141Y-30936062D01*
X49096522Y-30983681D01*
X49001284Y-31031300D01*
X48906046Y-31031300D01*
X48810808Y-30983681D01*
X48763189Y-30936062D01*
X48715570Y-30840824D01*
X48667951Y-30650348D01*
X48620332Y-30555110D01*
X48572713Y-30507491D01*
X48477475Y-30459872D01*
X48382237Y-30459872D01*
X48286999Y-30507491D01*
X48239380Y-30555110D01*
X48191760Y-30650348D01*
X48191760Y-30888443D01*
X48239380Y-31031300D01*
X48286999Y-31412253D02*
X48239380Y-31459872D01*
X48191760Y-31555110D01*
X48191760Y-31793205D01*
X48239380Y-31888443D01*
X48286999Y-31936062D01*
X48382237Y-31983681D01*
X48477475Y-31983681D01*
X48620332Y-31936062D01*
X49191760Y-31364634D01*
X49191760Y-31983681D01*
X48620332Y-32555110D02*
X48572713Y-32459872D01*
X48525094Y-32412253D01*
X48429856Y-32364634D01*
X48382237Y-32364634D01*
X48286999Y-32412253D01*
X48239380Y-32459872D01*
X48191760Y-32555110D01*
X48191760Y-32745586D01*
X48239380Y-32840824D01*
X48286999Y-32888443D01*
X48382237Y-32936062D01*
X48429856Y-32936062D01*
X48525094Y-32888443D01*
X48572713Y-32840824D01*
X48620332Y-32745586D01*
X48620332Y-32555110D01*
X48667951Y-32459872D01*
X48715570Y-32412253D01*
X48810808Y-32364634D01*
X49001284Y-32364634D01*
X49096522Y-32412253D01*
X49144141Y-32459872D01*
X49191760Y-32555110D01*
X49191760Y-32745586D01*
X49144141Y-32840824D01*
X49096522Y-32888443D01*
X49001284Y-32936062D01*
X48810808Y-32936062D01*
X48715570Y-32888443D01*
X48667951Y-32840824D01*
X48620332Y-32745586D01*
X49191760Y-33888443D02*
X49191760Y-33317015D01*
X49191760Y-33602729D02*
X48191760Y-33602729D01*
X48334618Y-33507491D01*
X48429856Y-33412253D01*
X48477475Y-33317015D01*
X48286999Y-34269396D02*
X48239380Y-34317015D01*
X48191760Y-34412253D01*
X48191760Y-34650348D01*
X48239380Y-34745586D01*
X48286999Y-34793205D01*
X48382237Y-34840824D01*
X48477475Y-34840824D01*
X48620332Y-34793205D01*
X49191760Y-34221777D01*
X49191760Y-34840824D01*
X48667951Y-35602729D02*
X48715570Y-35745586D01*
X48763189Y-35793205D01*
X48858427Y-35840824D01*
X49001284Y-35840824D01*
X49096522Y-35793205D01*
X49144141Y-35745586D01*
X49191760Y-35650348D01*
X49191760Y-35269396D01*
X48191760Y-35269396D01*
X48191760Y-35602729D01*
X48239380Y-35697967D01*
X48286999Y-35745586D01*
X48382237Y-35793205D01*
X48477475Y-35793205D01*
X48572713Y-35745586D01*
X48620332Y-35697967D01*
X48667951Y-35602729D01*
X48667951Y-35269396D01*
X53101284Y-31607491D02*
X52301284Y-31607491D01*
X52301284Y-31797967D01*
X52339380Y-31912253D01*
X52415570Y-31988443D01*
X52491760Y-32026539D01*
X52644141Y-32064634D01*
X52758427Y-32064634D01*
X52910808Y-32026539D01*
X52986999Y-31988443D01*
X53063189Y-31912253D01*
X53101284Y-31797967D01*
X53101284Y-31607491D01*
X53101284Y-32826539D02*
X53101284Y-32369396D01*
X53101284Y-32597967D02*
X52301284Y-32597967D01*
X52415570Y-32521777D01*
X52491760Y-32445586D01*
X52529856Y-32369396D01*
X52301284Y-33093205D02*
X52301284Y-33588443D01*
X52606046Y-33321777D01*
X52606046Y-33436062D01*
X52644141Y-33512253D01*
X52682237Y-33550348D01*
X52758427Y-33588443D01*
X52948903Y-33588443D01*
X53025094Y-33550348D01*
X53063189Y-33512253D01*
X53101284Y-33436062D01*
X53101284Y-33207491D01*
X53063189Y-33131300D01*
X53025094Y-33093205D01*
G04 #@! TO.C,U11*
X28894761Y-75357523D02*
X28942380Y-75500380D01*
X28942380Y-75738476D01*
X28894761Y-75833714D01*
X28847142Y-75881333D01*
X28751904Y-75928952D01*
X28656666Y-75928952D01*
X28561428Y-75881333D01*
X28513809Y-75833714D01*
X28466190Y-75738476D01*
X28418571Y-75548000D01*
X28370952Y-75452761D01*
X28323333Y-75405142D01*
X28228095Y-75357523D01*
X28132857Y-75357523D01*
X28037619Y-75405142D01*
X27990000Y-75452761D01*
X27942380Y-75548000D01*
X27942380Y-75786095D01*
X27990000Y-75928952D01*
X28942380Y-76357523D02*
X27942380Y-76357523D01*
X27942380Y-76738476D01*
X27990000Y-76833714D01*
X28037619Y-76881333D01*
X28132857Y-76928952D01*
X28275714Y-76928952D01*
X28370952Y-76881333D01*
X28418571Y-76833714D01*
X28466190Y-76738476D01*
X28466190Y-76357523D01*
X28942380Y-77357523D02*
X27942380Y-77357523D01*
X28942380Y-77928952D02*
X28370952Y-77500380D01*
X27942380Y-77928952D02*
X28513809Y-77357523D01*
X27942380Y-78548000D02*
X27942380Y-78643238D01*
X27990000Y-78738476D01*
X28037619Y-78786095D01*
X28132857Y-78833714D01*
X28323333Y-78881333D01*
X28561428Y-78881333D01*
X28751904Y-78833714D01*
X28847142Y-78786095D01*
X28894761Y-78738476D01*
X28942380Y-78643238D01*
X28942380Y-78548000D01*
X28894761Y-78452761D01*
X28847142Y-78405142D01*
X28751904Y-78357523D01*
X28561428Y-78309904D01*
X28323333Y-78309904D01*
X28132857Y-78357523D01*
X28037619Y-78405142D01*
X27990000Y-78452761D01*
X27942380Y-78548000D01*
X27942380Y-79738476D02*
X27942380Y-79548000D01*
X27990000Y-79452761D01*
X28037619Y-79405142D01*
X28180476Y-79309904D01*
X28370952Y-79262285D01*
X28751904Y-79262285D01*
X28847142Y-79309904D01*
X28894761Y-79357523D01*
X28942380Y-79452761D01*
X28942380Y-79643238D01*
X28894761Y-79738476D01*
X28847142Y-79786095D01*
X28751904Y-79833714D01*
X28513809Y-79833714D01*
X28418571Y-79786095D01*
X28370952Y-79738476D01*
X28323333Y-79643238D01*
X28323333Y-79452761D01*
X28370952Y-79357523D01*
X28418571Y-79309904D01*
X28513809Y-79262285D01*
X28275714Y-80690857D02*
X28942380Y-80690857D01*
X27894761Y-80452761D02*
X28609047Y-80214666D01*
X28609047Y-80833714D01*
X28942380Y-81738476D02*
X28942380Y-81167047D01*
X28942380Y-81452761D02*
X27942380Y-81452761D01*
X28085238Y-81357523D01*
X28180476Y-81262285D01*
X28228095Y-81167047D01*
X28942380Y-82167047D02*
X27942380Y-82167047D01*
X28418571Y-82167047D02*
X28418571Y-82738476D01*
X28942380Y-82738476D02*
X27942380Y-82738476D01*
X27942380Y-83071809D02*
X27942380Y-83643238D01*
X28942380Y-83357523D02*
X27942380Y-83357523D01*
X28275714Y-84405142D02*
X28942380Y-84405142D01*
X27894761Y-84167047D02*
X28609047Y-83928952D01*
X28609047Y-84548000D01*
X28942380Y-84928952D02*
X27942380Y-84928952D01*
X28418571Y-84928952D02*
X28418571Y-85500380D01*
X28942380Y-85500380D02*
X27942380Y-85500380D01*
X28561428Y-85976571D02*
X28561428Y-86738476D01*
X28942380Y-87738476D02*
X28942380Y-87167047D01*
X28942380Y-87452761D02*
X27942380Y-87452761D01*
X28085238Y-87357523D01*
X28180476Y-87262285D01*
X28228095Y-87167047D01*
G04 #@! TO.C,TP12v0*
X66333333Y-4902380D02*
X65761904Y-4902380D01*
X66047619Y-5902380D02*
X66047619Y-4902380D01*
X65047619Y-5854761D02*
X65142857Y-5902380D01*
X65333333Y-5902380D01*
X65428571Y-5854761D01*
X65476190Y-5759523D01*
X65476190Y-5378571D01*
X65428571Y-5283333D01*
X65333333Y-5235714D01*
X65142857Y-5235714D01*
X65047619Y-5283333D01*
X65000000Y-5378571D01*
X65000000Y-5473809D01*
X65476190Y-5569047D01*
X64619047Y-5854761D02*
X64523809Y-5902380D01*
X64333333Y-5902380D01*
X64238095Y-5854761D01*
X64190476Y-5759523D01*
X64190476Y-5711904D01*
X64238095Y-5616666D01*
X64333333Y-5569047D01*
X64476190Y-5569047D01*
X64571428Y-5521428D01*
X64619047Y-5426190D01*
X64619047Y-5378571D01*
X64571428Y-5283333D01*
X64476190Y-5235714D01*
X64333333Y-5235714D01*
X64238095Y-5283333D01*
X63904761Y-5235714D02*
X63523809Y-5235714D01*
X63761904Y-4902380D02*
X63761904Y-5759523D01*
X63714285Y-5854761D01*
X63619047Y-5902380D01*
X63523809Y-5902380D01*
X63190476Y-5902380D02*
X63190476Y-4902380D01*
X62809523Y-4902380D01*
X62714285Y-4950000D01*
X62666666Y-4997619D01*
X62619047Y-5092857D01*
X62619047Y-5235714D01*
X62666666Y-5330952D01*
X62714285Y-5378571D01*
X62809523Y-5426190D01*
X63190476Y-5426190D01*
X62047619Y-5902380D02*
X62142857Y-5854761D01*
X62190476Y-5807142D01*
X62238095Y-5711904D01*
X62238095Y-5426190D01*
X62190476Y-5330952D01*
X62142857Y-5283333D01*
X62047619Y-5235714D01*
X61904761Y-5235714D01*
X61809523Y-5283333D01*
X61761904Y-5330952D01*
X61714285Y-5426190D01*
X61714285Y-5711904D01*
X61761904Y-5807142D01*
X61809523Y-5854761D01*
X61904761Y-5902380D01*
X62047619Y-5902380D01*
X61285714Y-5902380D02*
X61285714Y-5235714D01*
X61285714Y-4902380D02*
X61333333Y-4950000D01*
X61285714Y-4997619D01*
X61238095Y-4950000D01*
X61285714Y-4902380D01*
X61285714Y-4997619D01*
X60809523Y-5235714D02*
X60809523Y-5902380D01*
X60809523Y-5330952D02*
X60761904Y-5283333D01*
X60666666Y-5235714D01*
X60523809Y-5235714D01*
X60428571Y-5283333D01*
X60380952Y-5378571D01*
X60380952Y-5902380D01*
X60047619Y-5235714D02*
X59666666Y-5235714D01*
X59904761Y-4902380D02*
X59904761Y-5759523D01*
X59857142Y-5854761D01*
X59761904Y-5902380D01*
X59666666Y-5902380D01*
X65595238Y-502380D02*
X65023809Y-502380D01*
X65309523Y-1502380D02*
X65309523Y-502380D01*
X64690476Y-1502380D02*
X64690476Y-502380D01*
X64309523Y-502380D01*
X64214285Y-550000D01*
X64166666Y-597619D01*
X64119047Y-692857D01*
X64119047Y-835714D01*
X64166666Y-930952D01*
X64214285Y-978571D01*
X64309523Y-1026190D01*
X64690476Y-1026190D01*
X63166666Y-1502380D02*
X63738095Y-1502380D01*
X63452380Y-1502380D02*
X63452380Y-502380D01*
X63547619Y-645238D01*
X63642857Y-740476D01*
X63738095Y-788095D01*
X62785714Y-597619D02*
X62738095Y-550000D01*
X62642857Y-502380D01*
X62404761Y-502380D01*
X62309523Y-550000D01*
X62261904Y-597619D01*
X62214285Y-692857D01*
X62214285Y-788095D01*
X62261904Y-930952D01*
X62833333Y-1502380D01*
X62214285Y-1502380D01*
X61880952Y-835714D02*
X61642857Y-1502380D01*
X61404761Y-835714D01*
X60833333Y-502380D02*
X60738095Y-502380D01*
X60642857Y-550000D01*
X60595238Y-597619D01*
X60547619Y-692857D01*
X60500000Y-883333D01*
X60500000Y-1121428D01*
X60547619Y-1311904D01*
X60595238Y-1407142D01*
X60642857Y-1454761D01*
X60738095Y-1502380D01*
X60833333Y-1502380D01*
X60928571Y-1454761D01*
X60976190Y-1407142D01*
X61023809Y-1311904D01*
X61071428Y-1121428D01*
X61071428Y-883333D01*
X61023809Y-692857D01*
X60976190Y-597619D01*
X60928571Y-550000D01*
X60833333Y-502380D01*
G04 #@! TO.C,D6*
X28836960Y-49182996D02*
X29836960Y-49421091D01*
X29122675Y-49611567D01*
X29836960Y-49802043D01*
X28836960Y-50040139D01*
X29789341Y-50373472D02*
X29836960Y-50516329D01*
X29836960Y-50754424D01*
X29789341Y-50849662D01*
X29741722Y-50897281D01*
X29646484Y-50944900D01*
X29551246Y-50944900D01*
X29456008Y-50897281D01*
X29408389Y-50849662D01*
X29360770Y-50754424D01*
X29313151Y-50563948D01*
X29265532Y-50468710D01*
X29217913Y-50421091D01*
X29122675Y-50373472D01*
X29027437Y-50373472D01*
X28932199Y-50421091D01*
X28884580Y-50468710D01*
X28836960Y-50563948D01*
X28836960Y-50802043D01*
X28884580Y-50944900D01*
X28932199Y-51325853D02*
X28884580Y-51373472D01*
X28836960Y-51468710D01*
X28836960Y-51706805D01*
X28884580Y-51802043D01*
X28932199Y-51849662D01*
X29027437Y-51897281D01*
X29122675Y-51897281D01*
X29265532Y-51849662D01*
X29836960Y-51278234D01*
X29836960Y-51897281D01*
X29265532Y-52468710D02*
X29217913Y-52373472D01*
X29170294Y-52325853D01*
X29075056Y-52278234D01*
X29027437Y-52278234D01*
X28932199Y-52325853D01*
X28884580Y-52373472D01*
X28836960Y-52468710D01*
X28836960Y-52659186D01*
X28884580Y-52754424D01*
X28932199Y-52802043D01*
X29027437Y-52849662D01*
X29075056Y-52849662D01*
X29170294Y-52802043D01*
X29217913Y-52754424D01*
X29265532Y-52659186D01*
X29265532Y-52468710D01*
X29313151Y-52373472D01*
X29360770Y-52325853D01*
X29456008Y-52278234D01*
X29646484Y-52278234D01*
X29741722Y-52325853D01*
X29789341Y-52373472D01*
X29836960Y-52468710D01*
X29836960Y-52659186D01*
X29789341Y-52754424D01*
X29741722Y-52802043D01*
X29646484Y-52849662D01*
X29456008Y-52849662D01*
X29360770Y-52802043D01*
X29313151Y-52754424D01*
X29265532Y-52659186D01*
X29836960Y-53802043D02*
X29836960Y-53230615D01*
X29836960Y-53516329D02*
X28836960Y-53516329D01*
X28979818Y-53421091D01*
X29075056Y-53325853D01*
X29122675Y-53230615D01*
X28932199Y-54182996D02*
X28884580Y-54230615D01*
X28836960Y-54325853D01*
X28836960Y-54563948D01*
X28884580Y-54659186D01*
X28932199Y-54706805D01*
X29027437Y-54754424D01*
X29122675Y-54754424D01*
X29265532Y-54706805D01*
X29836960Y-54135377D01*
X29836960Y-54754424D01*
X29313151Y-55516329D02*
X29360770Y-55659186D01*
X29408389Y-55706805D01*
X29503627Y-55754424D01*
X29646484Y-55754424D01*
X29741722Y-55706805D01*
X29789341Y-55659186D01*
X29836960Y-55563948D01*
X29836960Y-55182996D01*
X28836960Y-55182996D01*
X28836960Y-55516329D01*
X28884580Y-55611567D01*
X28932199Y-55659186D01*
X29027437Y-55706805D01*
X29122675Y-55706805D01*
X29217913Y-55659186D01*
X29265532Y-55611567D01*
X29313151Y-55516329D01*
X29313151Y-55182996D01*
X33746484Y-51902043D02*
X32946484Y-51902043D01*
X32946484Y-52092520D01*
X32984580Y-52206805D01*
X33060770Y-52282996D01*
X33136960Y-52321091D01*
X33289341Y-52359186D01*
X33403627Y-52359186D01*
X33556008Y-52321091D01*
X33632199Y-52282996D01*
X33708389Y-52206805D01*
X33746484Y-52092520D01*
X33746484Y-51902043D01*
X32946484Y-53044900D02*
X32946484Y-52892520D01*
X32984580Y-52816329D01*
X33022675Y-52778234D01*
X33136960Y-52702043D01*
X33289341Y-52663948D01*
X33594103Y-52663948D01*
X33670294Y-52702043D01*
X33708389Y-52740139D01*
X33746484Y-52816329D01*
X33746484Y-52968710D01*
X33708389Y-53044900D01*
X33670294Y-53082996D01*
X33594103Y-53121091D01*
X33403627Y-53121091D01*
X33327437Y-53082996D01*
X33289341Y-53044900D01*
X33251246Y-52968710D01*
X33251246Y-52816329D01*
X33289341Y-52740139D01*
X33327437Y-52702043D01*
X33403627Y-52663948D01*
G04 #@! TO.C,D5*
X25738160Y-42324996D02*
X26738160Y-42563091D01*
X26023875Y-42753567D01*
X26738160Y-42944043D01*
X25738160Y-43182139D01*
X26690541Y-43515472D02*
X26738160Y-43658329D01*
X26738160Y-43896424D01*
X26690541Y-43991662D01*
X26642922Y-44039281D01*
X26547684Y-44086900D01*
X26452446Y-44086900D01*
X26357208Y-44039281D01*
X26309589Y-43991662D01*
X26261970Y-43896424D01*
X26214351Y-43705948D01*
X26166732Y-43610710D01*
X26119113Y-43563091D01*
X26023875Y-43515472D01*
X25928637Y-43515472D01*
X25833399Y-43563091D01*
X25785780Y-43610710D01*
X25738160Y-43705948D01*
X25738160Y-43944043D01*
X25785780Y-44086900D01*
X25833399Y-44467853D02*
X25785780Y-44515472D01*
X25738160Y-44610710D01*
X25738160Y-44848805D01*
X25785780Y-44944043D01*
X25833399Y-44991662D01*
X25928637Y-45039281D01*
X26023875Y-45039281D01*
X26166732Y-44991662D01*
X26738160Y-44420234D01*
X26738160Y-45039281D01*
X26166732Y-45610710D02*
X26119113Y-45515472D01*
X26071494Y-45467853D01*
X25976256Y-45420234D01*
X25928637Y-45420234D01*
X25833399Y-45467853D01*
X25785780Y-45515472D01*
X25738160Y-45610710D01*
X25738160Y-45801186D01*
X25785780Y-45896424D01*
X25833399Y-45944043D01*
X25928637Y-45991662D01*
X25976256Y-45991662D01*
X26071494Y-45944043D01*
X26119113Y-45896424D01*
X26166732Y-45801186D01*
X26166732Y-45610710D01*
X26214351Y-45515472D01*
X26261970Y-45467853D01*
X26357208Y-45420234D01*
X26547684Y-45420234D01*
X26642922Y-45467853D01*
X26690541Y-45515472D01*
X26738160Y-45610710D01*
X26738160Y-45801186D01*
X26690541Y-45896424D01*
X26642922Y-45944043D01*
X26547684Y-45991662D01*
X26357208Y-45991662D01*
X26261970Y-45944043D01*
X26214351Y-45896424D01*
X26166732Y-45801186D01*
X26738160Y-46944043D02*
X26738160Y-46372615D01*
X26738160Y-46658329D02*
X25738160Y-46658329D01*
X25881018Y-46563091D01*
X25976256Y-46467853D01*
X26023875Y-46372615D01*
X25833399Y-47324996D02*
X25785780Y-47372615D01*
X25738160Y-47467853D01*
X25738160Y-47705948D01*
X25785780Y-47801186D01*
X25833399Y-47848805D01*
X25928637Y-47896424D01*
X26023875Y-47896424D01*
X26166732Y-47848805D01*
X26738160Y-47277377D01*
X26738160Y-47896424D01*
X26214351Y-48658329D02*
X26261970Y-48801186D01*
X26309589Y-48848805D01*
X26404827Y-48896424D01*
X26547684Y-48896424D01*
X26642922Y-48848805D01*
X26690541Y-48801186D01*
X26738160Y-48705948D01*
X26738160Y-48324996D01*
X25738160Y-48324996D01*
X25738160Y-48658329D01*
X25785780Y-48753567D01*
X25833399Y-48801186D01*
X25928637Y-48848805D01*
X26023875Y-48848805D01*
X26119113Y-48801186D01*
X26166732Y-48753567D01*
X26214351Y-48658329D01*
X26214351Y-48324996D01*
X30647684Y-45044043D02*
X29847684Y-45044043D01*
X29847684Y-45234520D01*
X29885780Y-45348805D01*
X29961970Y-45424996D01*
X30038160Y-45463091D01*
X30190541Y-45501186D01*
X30304827Y-45501186D01*
X30457208Y-45463091D01*
X30533399Y-45424996D01*
X30609589Y-45348805D01*
X30647684Y-45234520D01*
X30647684Y-45044043D01*
X29847684Y-46224996D02*
X29847684Y-45844043D01*
X30228637Y-45805948D01*
X30190541Y-45844043D01*
X30152446Y-45920234D01*
X30152446Y-46110710D01*
X30190541Y-46186900D01*
X30228637Y-46224996D01*
X30304827Y-46263091D01*
X30495303Y-46263091D01*
X30571494Y-46224996D01*
X30609589Y-46186900D01*
X30647684Y-46110710D01*
X30647684Y-45920234D01*
X30609589Y-45844043D01*
X30571494Y-45805948D01*
G04 #@! TO.C,D3*
X33205760Y-29370996D02*
X34205760Y-29609091D01*
X33491475Y-29799567D01*
X34205760Y-29990043D01*
X33205760Y-30228139D01*
X34158141Y-30561472D02*
X34205760Y-30704329D01*
X34205760Y-30942424D01*
X34158141Y-31037662D01*
X34110522Y-31085281D01*
X34015284Y-31132900D01*
X33920046Y-31132900D01*
X33824808Y-31085281D01*
X33777189Y-31037662D01*
X33729570Y-30942424D01*
X33681951Y-30751948D01*
X33634332Y-30656710D01*
X33586713Y-30609091D01*
X33491475Y-30561472D01*
X33396237Y-30561472D01*
X33300999Y-30609091D01*
X33253380Y-30656710D01*
X33205760Y-30751948D01*
X33205760Y-30990043D01*
X33253380Y-31132900D01*
X33300999Y-31513853D02*
X33253380Y-31561472D01*
X33205760Y-31656710D01*
X33205760Y-31894805D01*
X33253380Y-31990043D01*
X33300999Y-32037662D01*
X33396237Y-32085281D01*
X33491475Y-32085281D01*
X33634332Y-32037662D01*
X34205760Y-31466234D01*
X34205760Y-32085281D01*
X33634332Y-32656710D02*
X33586713Y-32561472D01*
X33539094Y-32513853D01*
X33443856Y-32466234D01*
X33396237Y-32466234D01*
X33300999Y-32513853D01*
X33253380Y-32561472D01*
X33205760Y-32656710D01*
X33205760Y-32847186D01*
X33253380Y-32942424D01*
X33300999Y-32990043D01*
X33396237Y-33037662D01*
X33443856Y-33037662D01*
X33539094Y-32990043D01*
X33586713Y-32942424D01*
X33634332Y-32847186D01*
X33634332Y-32656710D01*
X33681951Y-32561472D01*
X33729570Y-32513853D01*
X33824808Y-32466234D01*
X34015284Y-32466234D01*
X34110522Y-32513853D01*
X34158141Y-32561472D01*
X34205760Y-32656710D01*
X34205760Y-32847186D01*
X34158141Y-32942424D01*
X34110522Y-32990043D01*
X34015284Y-33037662D01*
X33824808Y-33037662D01*
X33729570Y-32990043D01*
X33681951Y-32942424D01*
X33634332Y-32847186D01*
X34205760Y-33990043D02*
X34205760Y-33418615D01*
X34205760Y-33704329D02*
X33205760Y-33704329D01*
X33348618Y-33609091D01*
X33443856Y-33513853D01*
X33491475Y-33418615D01*
X33300999Y-34370996D02*
X33253380Y-34418615D01*
X33205760Y-34513853D01*
X33205760Y-34751948D01*
X33253380Y-34847186D01*
X33300999Y-34894805D01*
X33396237Y-34942424D01*
X33491475Y-34942424D01*
X33634332Y-34894805D01*
X34205760Y-34323377D01*
X34205760Y-34942424D01*
X33681951Y-35704329D02*
X33729570Y-35847186D01*
X33777189Y-35894805D01*
X33872427Y-35942424D01*
X34015284Y-35942424D01*
X34110522Y-35894805D01*
X34158141Y-35847186D01*
X34205760Y-35751948D01*
X34205760Y-35370996D01*
X33205760Y-35370996D01*
X33205760Y-35704329D01*
X33253380Y-35799567D01*
X33300999Y-35847186D01*
X33396237Y-35894805D01*
X33491475Y-35894805D01*
X33586713Y-35847186D01*
X33634332Y-35799567D01*
X33681951Y-35704329D01*
X33681951Y-35370996D01*
X38115284Y-32090043D02*
X37315284Y-32090043D01*
X37315284Y-32280520D01*
X37353380Y-32394805D01*
X37429570Y-32470996D01*
X37505760Y-32509091D01*
X37658141Y-32547186D01*
X37772427Y-32547186D01*
X37924808Y-32509091D01*
X38000999Y-32470996D01*
X38077189Y-32394805D01*
X38115284Y-32280520D01*
X38115284Y-32090043D01*
X37315284Y-32813853D02*
X37315284Y-33309091D01*
X37620046Y-33042424D01*
X37620046Y-33156710D01*
X37658141Y-33232900D01*
X37696237Y-33270996D01*
X37772427Y-33309091D01*
X37962903Y-33309091D01*
X38039094Y-33270996D01*
X38077189Y-33232900D01*
X38115284Y-33156710D01*
X38115284Y-32928139D01*
X38077189Y-32851948D01*
X38039094Y-32813853D01*
G04 #@! TO.C,D2*
X40724160Y-28608996D02*
X41724160Y-28847091D01*
X41009875Y-29037567D01*
X41724160Y-29228043D01*
X40724160Y-29466139D01*
X41676541Y-29799472D02*
X41724160Y-29942329D01*
X41724160Y-30180424D01*
X41676541Y-30275662D01*
X41628922Y-30323281D01*
X41533684Y-30370900D01*
X41438446Y-30370900D01*
X41343208Y-30323281D01*
X41295589Y-30275662D01*
X41247970Y-30180424D01*
X41200351Y-29989948D01*
X41152732Y-29894710D01*
X41105113Y-29847091D01*
X41009875Y-29799472D01*
X40914637Y-29799472D01*
X40819399Y-29847091D01*
X40771780Y-29894710D01*
X40724160Y-29989948D01*
X40724160Y-30228043D01*
X40771780Y-30370900D01*
X40819399Y-30751853D02*
X40771780Y-30799472D01*
X40724160Y-30894710D01*
X40724160Y-31132805D01*
X40771780Y-31228043D01*
X40819399Y-31275662D01*
X40914637Y-31323281D01*
X41009875Y-31323281D01*
X41152732Y-31275662D01*
X41724160Y-30704234D01*
X41724160Y-31323281D01*
X41152732Y-31894710D02*
X41105113Y-31799472D01*
X41057494Y-31751853D01*
X40962256Y-31704234D01*
X40914637Y-31704234D01*
X40819399Y-31751853D01*
X40771780Y-31799472D01*
X40724160Y-31894710D01*
X40724160Y-32085186D01*
X40771780Y-32180424D01*
X40819399Y-32228043D01*
X40914637Y-32275662D01*
X40962256Y-32275662D01*
X41057494Y-32228043D01*
X41105113Y-32180424D01*
X41152732Y-32085186D01*
X41152732Y-31894710D01*
X41200351Y-31799472D01*
X41247970Y-31751853D01*
X41343208Y-31704234D01*
X41533684Y-31704234D01*
X41628922Y-31751853D01*
X41676541Y-31799472D01*
X41724160Y-31894710D01*
X41724160Y-32085186D01*
X41676541Y-32180424D01*
X41628922Y-32228043D01*
X41533684Y-32275662D01*
X41343208Y-32275662D01*
X41247970Y-32228043D01*
X41200351Y-32180424D01*
X41152732Y-32085186D01*
X41724160Y-33228043D02*
X41724160Y-32656615D01*
X41724160Y-32942329D02*
X40724160Y-32942329D01*
X40867018Y-32847091D01*
X40962256Y-32751853D01*
X41009875Y-32656615D01*
X40819399Y-33608996D02*
X40771780Y-33656615D01*
X40724160Y-33751853D01*
X40724160Y-33989948D01*
X40771780Y-34085186D01*
X40819399Y-34132805D01*
X40914637Y-34180424D01*
X41009875Y-34180424D01*
X41152732Y-34132805D01*
X41724160Y-33561377D01*
X41724160Y-34180424D01*
X41200351Y-34942329D02*
X41247970Y-35085186D01*
X41295589Y-35132805D01*
X41390827Y-35180424D01*
X41533684Y-35180424D01*
X41628922Y-35132805D01*
X41676541Y-35085186D01*
X41724160Y-34989948D01*
X41724160Y-34608996D01*
X40724160Y-34608996D01*
X40724160Y-34942329D01*
X40771780Y-35037567D01*
X40819399Y-35085186D01*
X40914637Y-35132805D01*
X41009875Y-35132805D01*
X41105113Y-35085186D01*
X41152732Y-35037567D01*
X41200351Y-34942329D01*
X41200351Y-34608996D01*
X45633684Y-31328043D02*
X44833684Y-31328043D01*
X44833684Y-31518520D01*
X44871780Y-31632805D01*
X44947970Y-31708996D01*
X45024160Y-31747091D01*
X45176541Y-31785186D01*
X45290827Y-31785186D01*
X45443208Y-31747091D01*
X45519399Y-31708996D01*
X45595589Y-31632805D01*
X45633684Y-31518520D01*
X45633684Y-31328043D01*
X44909875Y-32089948D02*
X44871780Y-32128043D01*
X44833684Y-32204234D01*
X44833684Y-32394710D01*
X44871780Y-32470900D01*
X44909875Y-32508996D01*
X44986065Y-32547091D01*
X45062256Y-32547091D01*
X45176541Y-32508996D01*
X45633684Y-32051853D01*
X45633684Y-32547091D01*
G04 #@! TO.C,R46*
X36726666Y-80006780D02*
X37298095Y-80006780D01*
X37012380Y-80006780D02*
X37012380Y-79006780D01*
X37107619Y-79149638D01*
X37202857Y-79244876D01*
X37298095Y-79292495D01*
X36107619Y-79006780D02*
X36012380Y-79006780D01*
X35917142Y-79054400D01*
X35869523Y-79102019D01*
X35821904Y-79197257D01*
X35774285Y-79387733D01*
X35774285Y-79625828D01*
X35821904Y-79816304D01*
X35869523Y-79911542D01*
X35917142Y-79959161D01*
X36012380Y-80006780D01*
X36107619Y-80006780D01*
X36202857Y-79959161D01*
X36250476Y-79911542D01*
X36298095Y-79816304D01*
X36345714Y-79625828D01*
X36345714Y-79387733D01*
X36298095Y-79197257D01*
X36250476Y-79102019D01*
X36202857Y-79054400D01*
X36107619Y-79006780D01*
X35155238Y-79006780D02*
X35060000Y-79006780D01*
X34964761Y-79054400D01*
X34917142Y-79102019D01*
X34869523Y-79197257D01*
X34821904Y-79387733D01*
X34821904Y-79625828D01*
X34869523Y-79816304D01*
X34917142Y-79911542D01*
X34964761Y-79959161D01*
X35060000Y-80006780D01*
X35155238Y-80006780D01*
X35250476Y-79959161D01*
X35298095Y-79911542D01*
X35345714Y-79816304D01*
X35393333Y-79625828D01*
X35393333Y-79387733D01*
X35345714Y-79197257D01*
X35298095Y-79102019D01*
X35250476Y-79054400D01*
X35155238Y-79006780D01*
X33821904Y-80006780D02*
X34155238Y-79530590D01*
X34393333Y-80006780D02*
X34393333Y-79006780D01*
X34012380Y-79006780D01*
X33917142Y-79054400D01*
X33869523Y-79102019D01*
X33821904Y-79197257D01*
X33821904Y-79340114D01*
X33869523Y-79435352D01*
X33917142Y-79482971D01*
X34012380Y-79530590D01*
X34393333Y-79530590D01*
D11*
X35720714Y-78497495D02*
X35804047Y-78378447D01*
X35863571Y-78497495D02*
X35863571Y-78247495D01*
X35768333Y-78247495D01*
X35744523Y-78259400D01*
X35732619Y-78271304D01*
X35720714Y-78295114D01*
X35720714Y-78330828D01*
X35732619Y-78354638D01*
X35744523Y-78366542D01*
X35768333Y-78378447D01*
X35863571Y-78378447D01*
X35506428Y-78330828D02*
X35506428Y-78497495D01*
X35565952Y-78235590D02*
X35625476Y-78414161D01*
X35470714Y-78414161D01*
X35268333Y-78247495D02*
X35315952Y-78247495D01*
X35339761Y-78259400D01*
X35351666Y-78271304D01*
X35375476Y-78307019D01*
X35387380Y-78354638D01*
X35387380Y-78449876D01*
X35375476Y-78473685D01*
X35363571Y-78485590D01*
X35339761Y-78497495D01*
X35292142Y-78497495D01*
X35268333Y-78485590D01*
X35256428Y-78473685D01*
X35244523Y-78449876D01*
X35244523Y-78390352D01*
X35256428Y-78366542D01*
X35268333Y-78354638D01*
X35292142Y-78342733D01*
X35339761Y-78342733D01*
X35363571Y-78354638D01*
X35375476Y-78366542D01*
X35387380Y-78390352D01*
D10*
G04 #@! TO.C,R44*
X35350380Y-9044133D02*
X35350380Y-8472704D01*
X35350380Y-8758419D02*
X34350380Y-8758419D01*
X34493238Y-8663180D01*
X34588476Y-8567942D01*
X34636095Y-8472704D01*
X34350380Y-9663180D02*
X34350380Y-9758419D01*
X34398000Y-9853657D01*
X34445619Y-9901276D01*
X34540857Y-9948895D01*
X34731333Y-9996514D01*
X34969428Y-9996514D01*
X35159904Y-9948895D01*
X35255142Y-9901276D01*
X35302761Y-9853657D01*
X35350380Y-9758419D01*
X35350380Y-9663180D01*
X35302761Y-9567942D01*
X35255142Y-9520323D01*
X35159904Y-9472704D01*
X34969428Y-9425085D01*
X34731333Y-9425085D01*
X34540857Y-9472704D01*
X34445619Y-9520323D01*
X34398000Y-9567942D01*
X34350380Y-9663180D01*
X34350380Y-10615561D02*
X34350380Y-10710800D01*
X34398000Y-10806038D01*
X34445619Y-10853657D01*
X34540857Y-10901276D01*
X34731333Y-10948895D01*
X34969428Y-10948895D01*
X35159904Y-10901276D01*
X35255142Y-10853657D01*
X35302761Y-10806038D01*
X35350380Y-10710800D01*
X35350380Y-10615561D01*
X35302761Y-10520323D01*
X35255142Y-10472704D01*
X35159904Y-10425085D01*
X34969428Y-10377466D01*
X34731333Y-10377466D01*
X34540857Y-10425085D01*
X34445619Y-10472704D01*
X34398000Y-10520323D01*
X34350380Y-10615561D01*
X35350380Y-11948895D02*
X34874190Y-11615561D01*
X35350380Y-11377466D02*
X34350380Y-11377466D01*
X34350380Y-11758419D01*
X34398000Y-11853657D01*
X34445619Y-11901276D01*
X34540857Y-11948895D01*
X34683714Y-11948895D01*
X34778952Y-11901276D01*
X34826571Y-11853657D01*
X34874190Y-11758419D01*
X34874190Y-11377466D01*
D11*
X36181095Y-10050085D02*
X36062047Y-9966752D01*
X36181095Y-9907228D02*
X35931095Y-9907228D01*
X35931095Y-10002466D01*
X35943000Y-10026276D01*
X35954904Y-10038180D01*
X35978714Y-10050085D01*
X36014428Y-10050085D01*
X36038238Y-10038180D01*
X36050142Y-10026276D01*
X36062047Y-10002466D01*
X36062047Y-9907228D01*
X36014428Y-10264371D02*
X36181095Y-10264371D01*
X35919190Y-10204847D02*
X36097761Y-10145323D01*
X36097761Y-10300085D01*
X36014428Y-10502466D02*
X36181095Y-10502466D01*
X35919190Y-10442942D02*
X36097761Y-10383419D01*
X36097761Y-10538180D01*
D10*
G04 #@! TO.C,R43*
X29000380Y-9094933D02*
X29000380Y-8523504D01*
X29000380Y-8809219D02*
X28000380Y-8809219D01*
X28143238Y-8713980D01*
X28238476Y-8618742D01*
X28286095Y-8523504D01*
X28000380Y-9713980D02*
X28000380Y-9809219D01*
X28048000Y-9904457D01*
X28095619Y-9952076D01*
X28190857Y-9999695D01*
X28381333Y-10047314D01*
X28619428Y-10047314D01*
X28809904Y-9999695D01*
X28905142Y-9952076D01*
X28952761Y-9904457D01*
X29000380Y-9809219D01*
X29000380Y-9713980D01*
X28952761Y-9618742D01*
X28905142Y-9571123D01*
X28809904Y-9523504D01*
X28619428Y-9475885D01*
X28381333Y-9475885D01*
X28190857Y-9523504D01*
X28095619Y-9571123D01*
X28048000Y-9618742D01*
X28000380Y-9713980D01*
X28000380Y-10666361D02*
X28000380Y-10761600D01*
X28048000Y-10856838D01*
X28095619Y-10904457D01*
X28190857Y-10952076D01*
X28381333Y-10999695D01*
X28619428Y-10999695D01*
X28809904Y-10952076D01*
X28905142Y-10904457D01*
X28952761Y-10856838D01*
X29000380Y-10761600D01*
X29000380Y-10666361D01*
X28952761Y-10571123D01*
X28905142Y-10523504D01*
X28809904Y-10475885D01*
X28619428Y-10428266D01*
X28381333Y-10428266D01*
X28190857Y-10475885D01*
X28095619Y-10523504D01*
X28048000Y-10571123D01*
X28000380Y-10666361D01*
X29000380Y-11999695D02*
X28524190Y-11666361D01*
X29000380Y-11428266D02*
X28000380Y-11428266D01*
X28000380Y-11809219D01*
X28048000Y-11904457D01*
X28095619Y-11952076D01*
X28190857Y-11999695D01*
X28333714Y-11999695D01*
X28428952Y-11952076D01*
X28476571Y-11904457D01*
X28524190Y-11809219D01*
X28524190Y-11428266D01*
D11*
X29831095Y-10100885D02*
X29712047Y-10017552D01*
X29831095Y-9958028D02*
X29581095Y-9958028D01*
X29581095Y-10053266D01*
X29593000Y-10077076D01*
X29604904Y-10088980D01*
X29628714Y-10100885D01*
X29664428Y-10100885D01*
X29688238Y-10088980D01*
X29700142Y-10077076D01*
X29712047Y-10053266D01*
X29712047Y-9958028D01*
X29664428Y-10315171D02*
X29831095Y-10315171D01*
X29569190Y-10255647D02*
X29747761Y-10196123D01*
X29747761Y-10350885D01*
X29581095Y-10422314D02*
X29581095Y-10577076D01*
X29676333Y-10493742D01*
X29676333Y-10529457D01*
X29688238Y-10553266D01*
X29700142Y-10565171D01*
X29723952Y-10577076D01*
X29783476Y-10577076D01*
X29807285Y-10565171D01*
X29819190Y-10553266D01*
X29831095Y-10529457D01*
X29831095Y-10458028D01*
X29819190Y-10434219D01*
X29807285Y-10422314D01*
D10*
G04 #@! TO.C,S1*
X18072781Y-44808095D02*
X18120400Y-44950952D01*
X18120400Y-45189047D01*
X18072781Y-45284285D01*
X18025162Y-45331904D01*
X17929924Y-45379523D01*
X17834686Y-45379523D01*
X17739448Y-45331904D01*
X17691829Y-45284285D01*
X17644210Y-45189047D01*
X17596591Y-44998571D01*
X17548972Y-44903333D01*
X17501353Y-44855714D01*
X17406115Y-44808095D01*
X17310877Y-44808095D01*
X17215639Y-44855714D01*
X17168020Y-44903333D01*
X17120400Y-44998571D01*
X17120400Y-45236666D01*
X17168020Y-45379523D01*
X18120400Y-46331904D02*
X18120400Y-45760476D01*
X18120400Y-46046190D02*
X17120400Y-46046190D01*
X17263258Y-45950952D01*
X17358496Y-45855714D01*
X17406115Y-45760476D01*
G04 #@! TO.C,S3*
X49205561Y-44801495D02*
X49253180Y-44944352D01*
X49253180Y-45182447D01*
X49205561Y-45277685D01*
X49157942Y-45325304D01*
X49062704Y-45372923D01*
X48967466Y-45372923D01*
X48872228Y-45325304D01*
X48824609Y-45277685D01*
X48776990Y-45182447D01*
X48729371Y-44991971D01*
X48681752Y-44896733D01*
X48634133Y-44849114D01*
X48538895Y-44801495D01*
X48443657Y-44801495D01*
X48348419Y-44849114D01*
X48300800Y-44896733D01*
X48253180Y-44991971D01*
X48253180Y-45230066D01*
X48300800Y-45372923D01*
X48253180Y-45706257D02*
X48253180Y-46325304D01*
X48634133Y-45991971D01*
X48634133Y-46134828D01*
X48681752Y-46230066D01*
X48729371Y-46277685D01*
X48824609Y-46325304D01*
X49062704Y-46325304D01*
X49157942Y-46277685D01*
X49205561Y-46230066D01*
X49253180Y-46134828D01*
X49253180Y-45849114D01*
X49205561Y-45753876D01*
X49157942Y-45706257D01*
G04 #@! TO.C,R45*
X31951466Y-76396780D02*
X32522895Y-76396780D01*
X32237180Y-76396780D02*
X32237180Y-75396780D01*
X32332419Y-75539638D01*
X32427657Y-75634876D01*
X32522895Y-75682495D01*
X31332419Y-75396780D02*
X31237180Y-75396780D01*
X31141942Y-75444400D01*
X31094323Y-75492019D01*
X31046704Y-75587257D01*
X30999085Y-75777733D01*
X30999085Y-76015828D01*
X31046704Y-76206304D01*
X31094323Y-76301542D01*
X31141942Y-76349161D01*
X31237180Y-76396780D01*
X31332419Y-76396780D01*
X31427657Y-76349161D01*
X31475276Y-76301542D01*
X31522895Y-76206304D01*
X31570514Y-76015828D01*
X31570514Y-75777733D01*
X31522895Y-75587257D01*
X31475276Y-75492019D01*
X31427657Y-75444400D01*
X31332419Y-75396780D01*
X30380038Y-75396780D02*
X30284800Y-75396780D01*
X30189561Y-75444400D01*
X30141942Y-75492019D01*
X30094323Y-75587257D01*
X30046704Y-75777733D01*
X30046704Y-76015828D01*
X30094323Y-76206304D01*
X30141942Y-76301542D01*
X30189561Y-76349161D01*
X30284800Y-76396780D01*
X30380038Y-76396780D01*
X30475276Y-76349161D01*
X30522895Y-76301542D01*
X30570514Y-76206304D01*
X30618133Y-76015828D01*
X30618133Y-75777733D01*
X30570514Y-75587257D01*
X30522895Y-75492019D01*
X30475276Y-75444400D01*
X30380038Y-75396780D01*
X29046704Y-76396780D02*
X29380038Y-75920590D01*
X29618133Y-76396780D02*
X29618133Y-75396780D01*
X29237180Y-75396780D01*
X29141942Y-75444400D01*
X29094323Y-75492019D01*
X29046704Y-75587257D01*
X29046704Y-75730114D01*
X29094323Y-75825352D01*
X29141942Y-75872971D01*
X29237180Y-75920590D01*
X29618133Y-75920590D01*
D11*
X30945514Y-77227495D02*
X31028847Y-77108447D01*
X31088371Y-77227495D02*
X31088371Y-76977495D01*
X30993133Y-76977495D01*
X30969323Y-76989400D01*
X30957419Y-77001304D01*
X30945514Y-77025114D01*
X30945514Y-77060828D01*
X30957419Y-77084638D01*
X30969323Y-77096542D01*
X30993133Y-77108447D01*
X31088371Y-77108447D01*
X30731228Y-77060828D02*
X30731228Y-77227495D01*
X30790752Y-76965590D02*
X30850276Y-77144161D01*
X30695514Y-77144161D01*
X30481228Y-76977495D02*
X30600276Y-76977495D01*
X30612180Y-77096542D01*
X30600276Y-77084638D01*
X30576466Y-77072733D01*
X30516942Y-77072733D01*
X30493133Y-77084638D01*
X30481228Y-77096542D01*
X30469323Y-77120352D01*
X30469323Y-77179876D01*
X30481228Y-77203685D01*
X30493133Y-77215590D01*
X30516942Y-77227495D01*
X30576466Y-77227495D01*
X30600276Y-77215590D01*
X30612180Y-77203685D01*
D10*
G04 #@! TO.C,D8*
X40724160Y-55888596D02*
X41724160Y-56126691D01*
X41009875Y-56317167D01*
X41724160Y-56507643D01*
X40724160Y-56745739D01*
X41676541Y-57079072D02*
X41724160Y-57221929D01*
X41724160Y-57460024D01*
X41676541Y-57555262D01*
X41628922Y-57602881D01*
X41533684Y-57650500D01*
X41438446Y-57650500D01*
X41343208Y-57602881D01*
X41295589Y-57555262D01*
X41247970Y-57460024D01*
X41200351Y-57269548D01*
X41152732Y-57174310D01*
X41105113Y-57126691D01*
X41009875Y-57079072D01*
X40914637Y-57079072D01*
X40819399Y-57126691D01*
X40771780Y-57174310D01*
X40724160Y-57269548D01*
X40724160Y-57507643D01*
X40771780Y-57650500D01*
X40819399Y-58031453D02*
X40771780Y-58079072D01*
X40724160Y-58174310D01*
X40724160Y-58412405D01*
X40771780Y-58507643D01*
X40819399Y-58555262D01*
X40914637Y-58602881D01*
X41009875Y-58602881D01*
X41152732Y-58555262D01*
X41724160Y-57983834D01*
X41724160Y-58602881D01*
X41152732Y-59174310D02*
X41105113Y-59079072D01*
X41057494Y-59031453D01*
X40962256Y-58983834D01*
X40914637Y-58983834D01*
X40819399Y-59031453D01*
X40771780Y-59079072D01*
X40724160Y-59174310D01*
X40724160Y-59364786D01*
X40771780Y-59460024D01*
X40819399Y-59507643D01*
X40914637Y-59555262D01*
X40962256Y-59555262D01*
X41057494Y-59507643D01*
X41105113Y-59460024D01*
X41152732Y-59364786D01*
X41152732Y-59174310D01*
X41200351Y-59079072D01*
X41247970Y-59031453D01*
X41343208Y-58983834D01*
X41533684Y-58983834D01*
X41628922Y-59031453D01*
X41676541Y-59079072D01*
X41724160Y-59174310D01*
X41724160Y-59364786D01*
X41676541Y-59460024D01*
X41628922Y-59507643D01*
X41533684Y-59555262D01*
X41343208Y-59555262D01*
X41247970Y-59507643D01*
X41200351Y-59460024D01*
X41152732Y-59364786D01*
X41724160Y-60507643D02*
X41724160Y-59936215D01*
X41724160Y-60221929D02*
X40724160Y-60221929D01*
X40867018Y-60126691D01*
X40962256Y-60031453D01*
X41009875Y-59936215D01*
X40819399Y-60888596D02*
X40771780Y-60936215D01*
X40724160Y-61031453D01*
X40724160Y-61269548D01*
X40771780Y-61364786D01*
X40819399Y-61412405D01*
X40914637Y-61460024D01*
X41009875Y-61460024D01*
X41152732Y-61412405D01*
X41724160Y-60840977D01*
X41724160Y-61460024D01*
X41200351Y-62221929D02*
X41247970Y-62364786D01*
X41295589Y-62412405D01*
X41390827Y-62460024D01*
X41533684Y-62460024D01*
X41628922Y-62412405D01*
X41676541Y-62364786D01*
X41724160Y-62269548D01*
X41724160Y-61888596D01*
X40724160Y-61888596D01*
X40724160Y-62221929D01*
X40771780Y-62317167D01*
X40819399Y-62364786D01*
X40914637Y-62412405D01*
X41009875Y-62412405D01*
X41105113Y-62364786D01*
X41152732Y-62317167D01*
X41200351Y-62221929D01*
X41200351Y-61888596D01*
X45633684Y-58607643D02*
X44833684Y-58607643D01*
X44833684Y-58798120D01*
X44871780Y-58912405D01*
X44947970Y-58988596D01*
X45024160Y-59026691D01*
X45176541Y-59064786D01*
X45290827Y-59064786D01*
X45443208Y-59026691D01*
X45519399Y-58988596D01*
X45595589Y-58912405D01*
X45633684Y-58798120D01*
X45633684Y-58607643D01*
X45176541Y-59521929D02*
X45138446Y-59445739D01*
X45100351Y-59407643D01*
X45024160Y-59369548D01*
X44986065Y-59369548D01*
X44909875Y-59407643D01*
X44871780Y-59445739D01*
X44833684Y-59521929D01*
X44833684Y-59674310D01*
X44871780Y-59750500D01*
X44909875Y-59788596D01*
X44986065Y-59826691D01*
X45024160Y-59826691D01*
X45100351Y-59788596D01*
X45138446Y-59750500D01*
X45176541Y-59674310D01*
X45176541Y-59521929D01*
X45214637Y-59445739D01*
X45252732Y-59407643D01*
X45328922Y-59369548D01*
X45481303Y-59369548D01*
X45557494Y-59407643D01*
X45595589Y-59445739D01*
X45633684Y-59521929D01*
X45633684Y-59674310D01*
X45595589Y-59750500D01*
X45557494Y-59788596D01*
X45481303Y-59826691D01*
X45328922Y-59826691D01*
X45252732Y-59788596D01*
X45214637Y-59750500D01*
X45176541Y-59674310D01*
G04 #@! TO.C,D4*
X28887760Y-35466996D02*
X29887760Y-35705091D01*
X29173475Y-35895567D01*
X29887760Y-36086043D01*
X28887760Y-36324139D01*
X29840141Y-36657472D02*
X29887760Y-36800329D01*
X29887760Y-37038424D01*
X29840141Y-37133662D01*
X29792522Y-37181281D01*
X29697284Y-37228900D01*
X29602046Y-37228900D01*
X29506808Y-37181281D01*
X29459189Y-37133662D01*
X29411570Y-37038424D01*
X29363951Y-36847948D01*
X29316332Y-36752710D01*
X29268713Y-36705091D01*
X29173475Y-36657472D01*
X29078237Y-36657472D01*
X28982999Y-36705091D01*
X28935380Y-36752710D01*
X28887760Y-36847948D01*
X28887760Y-37086043D01*
X28935380Y-37228900D01*
X28982999Y-37609853D02*
X28935380Y-37657472D01*
X28887760Y-37752710D01*
X28887760Y-37990805D01*
X28935380Y-38086043D01*
X28982999Y-38133662D01*
X29078237Y-38181281D01*
X29173475Y-38181281D01*
X29316332Y-38133662D01*
X29887760Y-37562234D01*
X29887760Y-38181281D01*
X29316332Y-38752710D02*
X29268713Y-38657472D01*
X29221094Y-38609853D01*
X29125856Y-38562234D01*
X29078237Y-38562234D01*
X28982999Y-38609853D01*
X28935380Y-38657472D01*
X28887760Y-38752710D01*
X28887760Y-38943186D01*
X28935380Y-39038424D01*
X28982999Y-39086043D01*
X29078237Y-39133662D01*
X29125856Y-39133662D01*
X29221094Y-39086043D01*
X29268713Y-39038424D01*
X29316332Y-38943186D01*
X29316332Y-38752710D01*
X29363951Y-38657472D01*
X29411570Y-38609853D01*
X29506808Y-38562234D01*
X29697284Y-38562234D01*
X29792522Y-38609853D01*
X29840141Y-38657472D01*
X29887760Y-38752710D01*
X29887760Y-38943186D01*
X29840141Y-39038424D01*
X29792522Y-39086043D01*
X29697284Y-39133662D01*
X29506808Y-39133662D01*
X29411570Y-39086043D01*
X29363951Y-39038424D01*
X29316332Y-38943186D01*
X29887760Y-40086043D02*
X29887760Y-39514615D01*
X29887760Y-39800329D02*
X28887760Y-39800329D01*
X29030618Y-39705091D01*
X29125856Y-39609853D01*
X29173475Y-39514615D01*
X28982999Y-40466996D02*
X28935380Y-40514615D01*
X28887760Y-40609853D01*
X28887760Y-40847948D01*
X28935380Y-40943186D01*
X28982999Y-40990805D01*
X29078237Y-41038424D01*
X29173475Y-41038424D01*
X29316332Y-40990805D01*
X29887760Y-40419377D01*
X29887760Y-41038424D01*
X29363951Y-41800329D02*
X29411570Y-41943186D01*
X29459189Y-41990805D01*
X29554427Y-42038424D01*
X29697284Y-42038424D01*
X29792522Y-41990805D01*
X29840141Y-41943186D01*
X29887760Y-41847948D01*
X29887760Y-41466996D01*
X28887760Y-41466996D01*
X28887760Y-41800329D01*
X28935380Y-41895567D01*
X28982999Y-41943186D01*
X29078237Y-41990805D01*
X29173475Y-41990805D01*
X29268713Y-41943186D01*
X29316332Y-41895567D01*
X29363951Y-41800329D01*
X29363951Y-41466996D01*
X33797284Y-38186043D02*
X32997284Y-38186043D01*
X32997284Y-38376520D01*
X33035380Y-38490805D01*
X33111570Y-38566996D01*
X33187760Y-38605091D01*
X33340141Y-38643186D01*
X33454427Y-38643186D01*
X33606808Y-38605091D01*
X33682999Y-38566996D01*
X33759189Y-38490805D01*
X33797284Y-38376520D01*
X33797284Y-38186043D01*
X33263951Y-39328900D02*
X33797284Y-39328900D01*
X32959189Y-39138424D02*
X33530618Y-38947948D01*
X33530618Y-39443186D01*
G04 #@! TO.C,S2*
X14679924Y-75626761D02*
X14537067Y-75674380D01*
X14298972Y-75674380D01*
X14203734Y-75626761D01*
X14156115Y-75579142D01*
X14108496Y-75483904D01*
X14108496Y-75388666D01*
X14156115Y-75293428D01*
X14203734Y-75245809D01*
X14298972Y-75198190D01*
X14489448Y-75150571D01*
X14584686Y-75102952D01*
X14632305Y-75055333D01*
X14679924Y-74960095D01*
X14679924Y-74864857D01*
X14632305Y-74769619D01*
X14584686Y-74722000D01*
X14489448Y-74674380D01*
X14251353Y-74674380D01*
X14108496Y-74722000D01*
X13727543Y-74769619D02*
X13679924Y-74722000D01*
X13584686Y-74674380D01*
X13346591Y-74674380D01*
X13251353Y-74722000D01*
X13203734Y-74769619D01*
X13156115Y-74864857D01*
X13156115Y-74960095D01*
X13203734Y-75102952D01*
X13775162Y-75674380D01*
X13156115Y-75674380D01*
G04 #@! TO.C,D7*
X33256560Y-55228196D02*
X34256560Y-55466291D01*
X33542275Y-55656767D01*
X34256560Y-55847243D01*
X33256560Y-56085339D01*
X34208941Y-56418672D02*
X34256560Y-56561529D01*
X34256560Y-56799624D01*
X34208941Y-56894862D01*
X34161322Y-56942481D01*
X34066084Y-56990100D01*
X33970846Y-56990100D01*
X33875608Y-56942481D01*
X33827989Y-56894862D01*
X33780370Y-56799624D01*
X33732751Y-56609148D01*
X33685132Y-56513910D01*
X33637513Y-56466291D01*
X33542275Y-56418672D01*
X33447037Y-56418672D01*
X33351799Y-56466291D01*
X33304180Y-56513910D01*
X33256560Y-56609148D01*
X33256560Y-56847243D01*
X33304180Y-56990100D01*
X33351799Y-57371053D02*
X33304180Y-57418672D01*
X33256560Y-57513910D01*
X33256560Y-57752005D01*
X33304180Y-57847243D01*
X33351799Y-57894862D01*
X33447037Y-57942481D01*
X33542275Y-57942481D01*
X33685132Y-57894862D01*
X34256560Y-57323434D01*
X34256560Y-57942481D01*
X33685132Y-58513910D02*
X33637513Y-58418672D01*
X33589894Y-58371053D01*
X33494656Y-58323434D01*
X33447037Y-58323434D01*
X33351799Y-58371053D01*
X33304180Y-58418672D01*
X33256560Y-58513910D01*
X33256560Y-58704386D01*
X33304180Y-58799624D01*
X33351799Y-58847243D01*
X33447037Y-58894862D01*
X33494656Y-58894862D01*
X33589894Y-58847243D01*
X33637513Y-58799624D01*
X33685132Y-58704386D01*
X33685132Y-58513910D01*
X33732751Y-58418672D01*
X33780370Y-58371053D01*
X33875608Y-58323434D01*
X34066084Y-58323434D01*
X34161322Y-58371053D01*
X34208941Y-58418672D01*
X34256560Y-58513910D01*
X34256560Y-58704386D01*
X34208941Y-58799624D01*
X34161322Y-58847243D01*
X34066084Y-58894862D01*
X33875608Y-58894862D01*
X33780370Y-58847243D01*
X33732751Y-58799624D01*
X33685132Y-58704386D01*
X34256560Y-59847243D02*
X34256560Y-59275815D01*
X34256560Y-59561529D02*
X33256560Y-59561529D01*
X33399418Y-59466291D01*
X33494656Y-59371053D01*
X33542275Y-59275815D01*
X33351799Y-60228196D02*
X33304180Y-60275815D01*
X33256560Y-60371053D01*
X33256560Y-60609148D01*
X33304180Y-60704386D01*
X33351799Y-60752005D01*
X33447037Y-60799624D01*
X33542275Y-60799624D01*
X33685132Y-60752005D01*
X34256560Y-60180577D01*
X34256560Y-60799624D01*
X33732751Y-61561529D02*
X33780370Y-61704386D01*
X33827989Y-61752005D01*
X33923227Y-61799624D01*
X34066084Y-61799624D01*
X34161322Y-61752005D01*
X34208941Y-61704386D01*
X34256560Y-61609148D01*
X34256560Y-61228196D01*
X33256560Y-61228196D01*
X33256560Y-61561529D01*
X33304180Y-61656767D01*
X33351799Y-61704386D01*
X33447037Y-61752005D01*
X33542275Y-61752005D01*
X33637513Y-61704386D01*
X33685132Y-61656767D01*
X33732751Y-61561529D01*
X33732751Y-61228196D01*
X38166084Y-57947243D02*
X37366084Y-57947243D01*
X37366084Y-58137720D01*
X37404180Y-58252005D01*
X37480370Y-58328196D01*
X37556560Y-58366291D01*
X37708941Y-58404386D01*
X37823227Y-58404386D01*
X37975608Y-58366291D01*
X38051799Y-58328196D01*
X38127989Y-58252005D01*
X38166084Y-58137720D01*
X38166084Y-57947243D01*
X37366084Y-58671053D02*
X37366084Y-59204386D01*
X38166084Y-58861529D01*
G04 #@! TO.C,C58*
X38093447Y-83217340D02*
X38664876Y-83217340D01*
X38379161Y-83217340D02*
X38379161Y-82217340D01*
X38474400Y-82360198D01*
X38569638Y-82455436D01*
X38664876Y-82503055D01*
X37474400Y-82217340D02*
X37379161Y-82217340D01*
X37283923Y-82264960D01*
X37236304Y-82312579D01*
X37188685Y-82407817D01*
X37141066Y-82598293D01*
X37141066Y-82836388D01*
X37188685Y-83026864D01*
X37236304Y-83122102D01*
X37283923Y-83169721D01*
X37379161Y-83217340D01*
X37474400Y-83217340D01*
X37569638Y-83169721D01*
X37617257Y-83122102D01*
X37664876Y-83026864D01*
X37712495Y-82836388D01*
X37712495Y-82598293D01*
X37664876Y-82407817D01*
X37617257Y-82312579D01*
X37569638Y-82264960D01*
X37474400Y-82217340D01*
X36522019Y-82217340D02*
X36426780Y-82217340D01*
X36331542Y-82264960D01*
X36283923Y-82312579D01*
X36236304Y-82407817D01*
X36188685Y-82598293D01*
X36188685Y-82836388D01*
X36236304Y-83026864D01*
X36283923Y-83122102D01*
X36331542Y-83169721D01*
X36426780Y-83217340D01*
X36522019Y-83217340D01*
X36617257Y-83169721D01*
X36664876Y-83122102D01*
X36712495Y-83026864D01*
X36760114Y-82836388D01*
X36760114Y-82598293D01*
X36712495Y-82407817D01*
X36664876Y-82312579D01*
X36617257Y-82264960D01*
X36522019Y-82217340D01*
X35760114Y-83217340D02*
X35760114Y-82217340D01*
X35188685Y-83217340D01*
X35188685Y-82217340D01*
X34379161Y-82693531D02*
X34712495Y-82693531D01*
X34712495Y-83217340D02*
X34712495Y-82217340D01*
X34236304Y-82217340D01*
D11*
X36635114Y-81684245D02*
X36647019Y-81696150D01*
X36682733Y-81708055D01*
X36706542Y-81708055D01*
X36742257Y-81696150D01*
X36766066Y-81672340D01*
X36777971Y-81648531D01*
X36789876Y-81600912D01*
X36789876Y-81565198D01*
X36777971Y-81517579D01*
X36766066Y-81493769D01*
X36742257Y-81469960D01*
X36706542Y-81458055D01*
X36682733Y-81458055D01*
X36647019Y-81469960D01*
X36635114Y-81481864D01*
X36408923Y-81458055D02*
X36527971Y-81458055D01*
X36539876Y-81577102D01*
X36527971Y-81565198D01*
X36504161Y-81553293D01*
X36444638Y-81553293D01*
X36420828Y-81565198D01*
X36408923Y-81577102D01*
X36397019Y-81600912D01*
X36397019Y-81660436D01*
X36408923Y-81684245D01*
X36420828Y-81696150D01*
X36444638Y-81708055D01*
X36504161Y-81708055D01*
X36527971Y-81696150D01*
X36539876Y-81684245D01*
X36254161Y-81565198D02*
X36277971Y-81553293D01*
X36289876Y-81541388D01*
X36301780Y-81517579D01*
X36301780Y-81505674D01*
X36289876Y-81481864D01*
X36277971Y-81469960D01*
X36254161Y-81458055D01*
X36206542Y-81458055D01*
X36182733Y-81469960D01*
X36170828Y-81481864D01*
X36158923Y-81505674D01*
X36158923Y-81517579D01*
X36170828Y-81541388D01*
X36182733Y-81553293D01*
X36206542Y-81565198D01*
X36254161Y-81565198D01*
X36277971Y-81577102D01*
X36289876Y-81589007D01*
X36301780Y-81612817D01*
X36301780Y-81660436D01*
X36289876Y-81684245D01*
X36277971Y-81696150D01*
X36254161Y-81708055D01*
X36206542Y-81708055D01*
X36182733Y-81696150D01*
X36170828Y-81684245D01*
X36158923Y-81660436D01*
X36158923Y-81612817D01*
X36170828Y-81589007D01*
X36182733Y-81577102D01*
X36206542Y-81565198D01*
D10*
G04 #@! TO.C,C56*
X37069638Y-82140380D02*
X37641066Y-82140380D01*
X37355352Y-82140380D02*
X37355352Y-81140380D01*
X37450590Y-81283238D01*
X37545828Y-81378476D01*
X37641066Y-81426095D01*
X36212495Y-81473714D02*
X36212495Y-82140380D01*
X36641066Y-81473714D02*
X36641066Y-81997523D01*
X36593447Y-82092761D01*
X36498209Y-82140380D01*
X36355352Y-82140380D01*
X36260114Y-82092761D01*
X36212495Y-82045142D01*
X35402971Y-81616571D02*
X35736304Y-81616571D01*
X35736304Y-82140380D02*
X35736304Y-81140380D01*
X35260114Y-81140380D01*
D11*
X36635114Y-80607285D02*
X36647019Y-80619190D01*
X36682733Y-80631095D01*
X36706542Y-80631095D01*
X36742257Y-80619190D01*
X36766066Y-80595380D01*
X36777971Y-80571571D01*
X36789876Y-80523952D01*
X36789876Y-80488238D01*
X36777971Y-80440619D01*
X36766066Y-80416809D01*
X36742257Y-80393000D01*
X36706542Y-80381095D01*
X36682733Y-80381095D01*
X36647019Y-80393000D01*
X36635114Y-80404904D01*
X36408923Y-80381095D02*
X36527971Y-80381095D01*
X36539876Y-80500142D01*
X36527971Y-80488238D01*
X36504161Y-80476333D01*
X36444638Y-80476333D01*
X36420828Y-80488238D01*
X36408923Y-80500142D01*
X36397019Y-80523952D01*
X36397019Y-80583476D01*
X36408923Y-80607285D01*
X36420828Y-80619190D01*
X36444638Y-80631095D01*
X36504161Y-80631095D01*
X36527971Y-80619190D01*
X36539876Y-80607285D01*
X36182733Y-80381095D02*
X36230352Y-80381095D01*
X36254161Y-80393000D01*
X36266066Y-80404904D01*
X36289876Y-80440619D01*
X36301780Y-80488238D01*
X36301780Y-80583476D01*
X36289876Y-80607285D01*
X36277971Y-80619190D01*
X36254161Y-80631095D01*
X36206542Y-80631095D01*
X36182733Y-80619190D01*
X36170828Y-80607285D01*
X36158923Y-80583476D01*
X36158923Y-80523952D01*
X36170828Y-80500142D01*
X36182733Y-80488238D01*
X36206542Y-80476333D01*
X36254161Y-80476333D01*
X36277971Y-80488238D01*
X36289876Y-80500142D01*
X36301780Y-80523952D01*
D10*
G04 #@! TO.C,SW1*
X20157961Y-10909466D02*
X20205580Y-11052323D01*
X20205580Y-11290419D01*
X20157961Y-11385657D01*
X20110342Y-11433276D01*
X20015104Y-11480895D01*
X19919866Y-11480895D01*
X19824628Y-11433276D01*
X19777009Y-11385657D01*
X19729390Y-11290419D01*
X19681771Y-11099942D01*
X19634152Y-11004704D01*
X19586533Y-10957085D01*
X19491295Y-10909466D01*
X19396057Y-10909466D01*
X19300819Y-10957085D01*
X19253200Y-11004704D01*
X19205580Y-11099942D01*
X19205580Y-11338038D01*
X19253200Y-11480895D01*
X19205580Y-11814228D02*
X20205580Y-12052323D01*
X19491295Y-12242800D01*
X20205580Y-12433276D01*
X19205580Y-12671371D01*
X20205580Y-13576133D02*
X20205580Y-13004704D01*
X20205580Y-13290419D02*
X19205580Y-13290419D01*
X19348438Y-13195180D01*
X19443676Y-13099942D01*
X19491295Y-13004704D01*
G04 #@! TO.C,FB6*
X37308780Y-78722742D02*
X37308780Y-78151314D01*
X37308780Y-78437028D02*
X36308780Y-78437028D01*
X36451638Y-78341790D01*
X36546876Y-78246552D01*
X36594495Y-78151314D01*
X36308780Y-79341790D02*
X36308780Y-79437028D01*
X36356400Y-79532266D01*
X36404019Y-79579885D01*
X36499257Y-79627504D01*
X36689733Y-79675123D01*
X36927828Y-79675123D01*
X37118304Y-79627504D01*
X37213542Y-79579885D01*
X37261161Y-79532266D01*
X37308780Y-79437028D01*
X37308780Y-79341790D01*
X37261161Y-79246552D01*
X37213542Y-79198933D01*
X37118304Y-79151314D01*
X36927828Y-79103695D01*
X36689733Y-79103695D01*
X36499257Y-79151314D01*
X36404019Y-79198933D01*
X36356400Y-79246552D01*
X36308780Y-79341790D01*
X36308780Y-80294171D02*
X36308780Y-80389409D01*
X36356400Y-80484647D01*
X36404019Y-80532266D01*
X36499257Y-80579885D01*
X36689733Y-80627504D01*
X36927828Y-80627504D01*
X37118304Y-80579885D01*
X37213542Y-80532266D01*
X37261161Y-80484647D01*
X37308780Y-80389409D01*
X37308780Y-80294171D01*
X37261161Y-80198933D01*
X37213542Y-80151314D01*
X37118304Y-80103695D01*
X36927828Y-80056076D01*
X36689733Y-80056076D01*
X36499257Y-80103695D01*
X36404019Y-80151314D01*
X36356400Y-80198933D01*
X36308780Y-80294171D01*
X36308780Y-81246552D02*
X36308780Y-81341790D01*
X36356400Y-81437028D01*
X36404019Y-81484647D01*
X36499257Y-81532266D01*
X36689733Y-81579885D01*
X36927828Y-81579885D01*
X37118304Y-81532266D01*
X37213542Y-81484647D01*
X37261161Y-81437028D01*
X37308780Y-81341790D01*
X37308780Y-81246552D01*
X37261161Y-81151314D01*
X37213542Y-81103695D01*
X37118304Y-81056076D01*
X36927828Y-81008457D01*
X36689733Y-81008457D01*
X36499257Y-81056076D01*
X36404019Y-81103695D01*
X36356400Y-81151314D01*
X36308780Y-81246552D01*
X37308780Y-82579885D02*
X36832590Y-82246552D01*
X37308780Y-82008457D02*
X36308780Y-82008457D01*
X36308780Y-82389409D01*
X36356400Y-82484647D01*
X36404019Y-82532266D01*
X36499257Y-82579885D01*
X36642114Y-82579885D01*
X36737352Y-82532266D01*
X36784971Y-82484647D01*
X36832590Y-82389409D01*
X36832590Y-82008457D01*
D12*
X38470685Y-79948933D02*
X38470685Y-79782266D01*
X38732590Y-79782266D02*
X38232590Y-79782266D01*
X38232590Y-80020361D01*
X38470685Y-80377504D02*
X38494495Y-80448933D01*
X38518304Y-80472742D01*
X38565923Y-80496552D01*
X38637352Y-80496552D01*
X38684971Y-80472742D01*
X38708780Y-80448933D01*
X38732590Y-80401314D01*
X38732590Y-80210838D01*
X38232590Y-80210838D01*
X38232590Y-80377504D01*
X38256400Y-80425123D01*
X38280209Y-80448933D01*
X38327828Y-80472742D01*
X38375447Y-80472742D01*
X38423066Y-80448933D01*
X38446876Y-80425123D01*
X38470685Y-80377504D01*
X38470685Y-80210838D01*
X38232590Y-80925123D02*
X38232590Y-80829885D01*
X38256400Y-80782266D01*
X38280209Y-80758457D01*
X38351638Y-80710838D01*
X38446876Y-80687028D01*
X38637352Y-80687028D01*
X38684971Y-80710838D01*
X38708780Y-80734647D01*
X38732590Y-80782266D01*
X38732590Y-80877504D01*
X38708780Y-80925123D01*
X38684971Y-80948933D01*
X38637352Y-80972742D01*
X38518304Y-80972742D01*
X38470685Y-80948933D01*
X38446876Y-80925123D01*
X38423066Y-80877504D01*
X38423066Y-80782266D01*
X38446876Y-80734647D01*
X38470685Y-80710838D01*
X38518304Y-80687028D01*
D10*
G04 #@! TO.C,D17*
X10490476Y-43852380D02*
X9919047Y-43852380D01*
X10204761Y-44852380D02*
X10204761Y-43852380D01*
X9728571Y-43852380D02*
X9395238Y-44852380D01*
X9061904Y-43852380D01*
X8776190Y-44804761D02*
X8633333Y-44852380D01*
X8395238Y-44852380D01*
X8300000Y-44804761D01*
X8252380Y-44757142D01*
X8204761Y-44661904D01*
X8204761Y-44566666D01*
X8252380Y-44471428D01*
X8300000Y-44423809D01*
X8395238Y-44376190D01*
X8585714Y-44328571D01*
X8680952Y-44280952D01*
X8728571Y-44233333D01*
X8776190Y-44138095D01*
X8776190Y-44042857D01*
X8728571Y-43947619D01*
X8680952Y-43900000D01*
X8585714Y-43852380D01*
X8347619Y-43852380D01*
X8204761Y-43900000D01*
X10414285Y-48602380D02*
X10414285Y-47602380D01*
X10176190Y-47602380D01*
X10033333Y-47650000D01*
X9938095Y-47745238D01*
X9890476Y-47840476D01*
X9842857Y-48030952D01*
X9842857Y-48173809D01*
X9890476Y-48364285D01*
X9938095Y-48459523D01*
X10033333Y-48554761D01*
X10176190Y-48602380D01*
X10414285Y-48602380D01*
X8890476Y-48602380D02*
X9461904Y-48602380D01*
X9176190Y-48602380D02*
X9176190Y-47602380D01*
X9271428Y-47745238D01*
X9366666Y-47840476D01*
X9461904Y-47888095D01*
X8557142Y-47602380D02*
X7890476Y-47602380D01*
X8319047Y-48602380D01*
G04 #@! TO.C,C9*
X7664247Y-78879180D02*
X8235676Y-78879180D01*
X7949961Y-78879180D02*
X7949961Y-77879180D01*
X8045200Y-78022038D01*
X8140438Y-78117276D01*
X8235676Y-78164895D01*
X7045200Y-77879180D02*
X6949961Y-77879180D01*
X6854723Y-77926800D01*
X6807104Y-77974419D01*
X6759485Y-78069657D01*
X6711866Y-78260133D01*
X6711866Y-78498228D01*
X6759485Y-78688704D01*
X6807104Y-78783942D01*
X6854723Y-78831561D01*
X6949961Y-78879180D01*
X7045200Y-78879180D01*
X7140438Y-78831561D01*
X7188057Y-78783942D01*
X7235676Y-78688704D01*
X7283295Y-78498228D01*
X7283295Y-78260133D01*
X7235676Y-78069657D01*
X7188057Y-77974419D01*
X7140438Y-77926800D01*
X7045200Y-77879180D01*
X6092819Y-77879180D02*
X5997580Y-77879180D01*
X5902342Y-77926800D01*
X5854723Y-77974419D01*
X5807104Y-78069657D01*
X5759485Y-78260133D01*
X5759485Y-78498228D01*
X5807104Y-78688704D01*
X5854723Y-78783942D01*
X5902342Y-78831561D01*
X5997580Y-78879180D01*
X6092819Y-78879180D01*
X6188057Y-78831561D01*
X6235676Y-78783942D01*
X6283295Y-78688704D01*
X6330914Y-78498228D01*
X6330914Y-78260133D01*
X6283295Y-78069657D01*
X6235676Y-77974419D01*
X6188057Y-77926800D01*
X6092819Y-77879180D01*
X5330914Y-78879180D02*
X5330914Y-77879180D01*
X4759485Y-78879180D01*
X4759485Y-77879180D01*
X3949961Y-78355371D02*
X4283295Y-78355371D01*
X4283295Y-78879180D02*
X4283295Y-77879180D01*
X3807104Y-77879180D01*
D11*
X6086866Y-77356085D02*
X6098771Y-77367990D01*
X6134485Y-77379895D01*
X6158295Y-77379895D01*
X6194009Y-77367990D01*
X6217819Y-77344180D01*
X6229723Y-77320371D01*
X6241628Y-77272752D01*
X6241628Y-77237038D01*
X6229723Y-77189419D01*
X6217819Y-77165609D01*
X6194009Y-77141800D01*
X6158295Y-77129895D01*
X6134485Y-77129895D01*
X6098771Y-77141800D01*
X6086866Y-77153704D01*
X5967819Y-77379895D02*
X5920200Y-77379895D01*
X5896390Y-77367990D01*
X5884485Y-77356085D01*
X5860676Y-77320371D01*
X5848771Y-77272752D01*
X5848771Y-77177514D01*
X5860676Y-77153704D01*
X5872580Y-77141800D01*
X5896390Y-77129895D01*
X5944009Y-77129895D01*
X5967819Y-77141800D01*
X5979723Y-77153704D01*
X5991628Y-77177514D01*
X5991628Y-77237038D01*
X5979723Y-77260847D01*
X5967819Y-77272752D01*
X5944009Y-77284657D01*
X5896390Y-77284657D01*
X5872580Y-77272752D01*
X5860676Y-77260847D01*
X5848771Y-77237038D01*
D10*
G04 #@! TO.C,C31*
X37179047Y-12754380D02*
X37750476Y-12754380D01*
X37464761Y-12754380D02*
X37464761Y-11754380D01*
X37560000Y-11897238D01*
X37655238Y-11992476D01*
X37750476Y-12040095D01*
X36560000Y-11754380D02*
X36464761Y-11754380D01*
X36369523Y-11802000D01*
X36321904Y-11849619D01*
X36274285Y-11944857D01*
X36226666Y-12135333D01*
X36226666Y-12373428D01*
X36274285Y-12563904D01*
X36321904Y-12659142D01*
X36369523Y-12706761D01*
X36464761Y-12754380D01*
X36560000Y-12754380D01*
X36655238Y-12706761D01*
X36702857Y-12659142D01*
X36750476Y-12563904D01*
X36798095Y-12373428D01*
X36798095Y-12135333D01*
X36750476Y-11944857D01*
X36702857Y-11849619D01*
X36655238Y-11802000D01*
X36560000Y-11754380D01*
X35607619Y-11754380D02*
X35512380Y-11754380D01*
X35417142Y-11802000D01*
X35369523Y-11849619D01*
X35321904Y-11944857D01*
X35274285Y-12135333D01*
X35274285Y-12373428D01*
X35321904Y-12563904D01*
X35369523Y-12659142D01*
X35417142Y-12706761D01*
X35512380Y-12754380D01*
X35607619Y-12754380D01*
X35702857Y-12706761D01*
X35750476Y-12659142D01*
X35798095Y-12563904D01*
X35845714Y-12373428D01*
X35845714Y-12135333D01*
X35798095Y-11944857D01*
X35750476Y-11849619D01*
X35702857Y-11802000D01*
X35607619Y-11754380D01*
X34845714Y-12754380D02*
X34845714Y-11754380D01*
X34274285Y-12754380D01*
X34274285Y-11754380D01*
X33464761Y-12230571D02*
X33798095Y-12230571D01*
X33798095Y-12754380D02*
X33798095Y-11754380D01*
X33321904Y-11754380D01*
D11*
X35720714Y-13551285D02*
X35732619Y-13563190D01*
X35768333Y-13575095D01*
X35792142Y-13575095D01*
X35827857Y-13563190D01*
X35851666Y-13539380D01*
X35863571Y-13515571D01*
X35875476Y-13467952D01*
X35875476Y-13432238D01*
X35863571Y-13384619D01*
X35851666Y-13360809D01*
X35827857Y-13337000D01*
X35792142Y-13325095D01*
X35768333Y-13325095D01*
X35732619Y-13337000D01*
X35720714Y-13348904D01*
X35637380Y-13325095D02*
X35482619Y-13325095D01*
X35565952Y-13420333D01*
X35530238Y-13420333D01*
X35506428Y-13432238D01*
X35494523Y-13444142D01*
X35482619Y-13467952D01*
X35482619Y-13527476D01*
X35494523Y-13551285D01*
X35506428Y-13563190D01*
X35530238Y-13575095D01*
X35601666Y-13575095D01*
X35625476Y-13563190D01*
X35637380Y-13551285D01*
X35244523Y-13575095D02*
X35387380Y-13575095D01*
X35315952Y-13575095D02*
X35315952Y-13325095D01*
X35339761Y-13360809D01*
X35363571Y-13384619D01*
X35387380Y-13396523D01*
D10*
G04 #@! TO.C,C30*
X35604247Y-20628380D02*
X36175676Y-20628380D01*
X35889961Y-20628380D02*
X35889961Y-19628380D01*
X35985200Y-19771238D01*
X36080438Y-19866476D01*
X36175676Y-19914095D01*
X34985200Y-19628380D02*
X34889961Y-19628380D01*
X34794723Y-19676000D01*
X34747104Y-19723619D01*
X34699485Y-19818857D01*
X34651866Y-20009333D01*
X34651866Y-20247428D01*
X34699485Y-20437904D01*
X34747104Y-20533142D01*
X34794723Y-20580761D01*
X34889961Y-20628380D01*
X34985200Y-20628380D01*
X35080438Y-20580761D01*
X35128057Y-20533142D01*
X35175676Y-20437904D01*
X35223295Y-20247428D01*
X35223295Y-20009333D01*
X35175676Y-19818857D01*
X35128057Y-19723619D01*
X35080438Y-19676000D01*
X34985200Y-19628380D01*
X34032819Y-19628380D02*
X33937580Y-19628380D01*
X33842342Y-19676000D01*
X33794723Y-19723619D01*
X33747104Y-19818857D01*
X33699485Y-20009333D01*
X33699485Y-20247428D01*
X33747104Y-20437904D01*
X33794723Y-20533142D01*
X33842342Y-20580761D01*
X33937580Y-20628380D01*
X34032819Y-20628380D01*
X34128057Y-20580761D01*
X34175676Y-20533142D01*
X34223295Y-20437904D01*
X34270914Y-20247428D01*
X34270914Y-20009333D01*
X34223295Y-19818857D01*
X34175676Y-19723619D01*
X34128057Y-19676000D01*
X34032819Y-19628380D01*
X33270914Y-20628380D02*
X33270914Y-19628380D01*
X32699485Y-20628380D01*
X32699485Y-19628380D01*
X31889961Y-20104571D02*
X32223295Y-20104571D01*
X32223295Y-20628380D02*
X32223295Y-19628380D01*
X31747104Y-19628380D01*
D11*
X34145914Y-21425285D02*
X34157819Y-21437190D01*
X34193533Y-21449095D01*
X34217342Y-21449095D01*
X34253057Y-21437190D01*
X34276866Y-21413380D01*
X34288771Y-21389571D01*
X34300676Y-21341952D01*
X34300676Y-21306238D01*
X34288771Y-21258619D01*
X34276866Y-21234809D01*
X34253057Y-21211000D01*
X34217342Y-21199095D01*
X34193533Y-21199095D01*
X34157819Y-21211000D01*
X34145914Y-21222904D01*
X34062580Y-21199095D02*
X33907819Y-21199095D01*
X33991152Y-21294333D01*
X33955438Y-21294333D01*
X33931628Y-21306238D01*
X33919723Y-21318142D01*
X33907819Y-21341952D01*
X33907819Y-21401476D01*
X33919723Y-21425285D01*
X33931628Y-21437190D01*
X33955438Y-21449095D01*
X34026866Y-21449095D01*
X34050676Y-21437190D01*
X34062580Y-21425285D01*
X33753057Y-21199095D02*
X33729247Y-21199095D01*
X33705438Y-21211000D01*
X33693533Y-21222904D01*
X33681628Y-21246714D01*
X33669723Y-21294333D01*
X33669723Y-21353857D01*
X33681628Y-21401476D01*
X33693533Y-21425285D01*
X33705438Y-21437190D01*
X33729247Y-21449095D01*
X33753057Y-21449095D01*
X33776866Y-21437190D01*
X33788771Y-21425285D01*
X33800676Y-21401476D01*
X33812580Y-21353857D01*
X33812580Y-21294333D01*
X33800676Y-21246714D01*
X33788771Y-21222904D01*
X33776866Y-21211000D01*
X33753057Y-21199095D01*
D10*
G04 #@! TO.C,C54*
X58419047Y-74312380D02*
X58990476Y-74312380D01*
X58704761Y-74312380D02*
X58704761Y-73312380D01*
X58800000Y-73455238D01*
X58895238Y-73550476D01*
X58990476Y-73598095D01*
X57800000Y-73312380D02*
X57704761Y-73312380D01*
X57609523Y-73360000D01*
X57561904Y-73407619D01*
X57514285Y-73502857D01*
X57466666Y-73693333D01*
X57466666Y-73931428D01*
X57514285Y-74121904D01*
X57561904Y-74217142D01*
X57609523Y-74264761D01*
X57704761Y-74312380D01*
X57800000Y-74312380D01*
X57895238Y-74264761D01*
X57942857Y-74217142D01*
X57990476Y-74121904D01*
X58038095Y-73931428D01*
X58038095Y-73693333D01*
X57990476Y-73502857D01*
X57942857Y-73407619D01*
X57895238Y-73360000D01*
X57800000Y-73312380D01*
X56847619Y-73312380D02*
X56752380Y-73312380D01*
X56657142Y-73360000D01*
X56609523Y-73407619D01*
X56561904Y-73502857D01*
X56514285Y-73693333D01*
X56514285Y-73931428D01*
X56561904Y-74121904D01*
X56609523Y-74217142D01*
X56657142Y-74264761D01*
X56752380Y-74312380D01*
X56847619Y-74312380D01*
X56942857Y-74264761D01*
X56990476Y-74217142D01*
X57038095Y-74121904D01*
X57085714Y-73931428D01*
X57085714Y-73693333D01*
X57038095Y-73502857D01*
X56990476Y-73407619D01*
X56942857Y-73360000D01*
X56847619Y-73312380D01*
X56085714Y-74312380D02*
X56085714Y-73312380D01*
X55514285Y-74312380D01*
X55514285Y-73312380D01*
X54704761Y-73788571D02*
X55038095Y-73788571D01*
X55038095Y-74312380D02*
X55038095Y-73312380D01*
X54561904Y-73312380D01*
D11*
X56960714Y-72789285D02*
X56972619Y-72801190D01*
X57008333Y-72813095D01*
X57032142Y-72813095D01*
X57067857Y-72801190D01*
X57091666Y-72777380D01*
X57103571Y-72753571D01*
X57115476Y-72705952D01*
X57115476Y-72670238D01*
X57103571Y-72622619D01*
X57091666Y-72598809D01*
X57067857Y-72575000D01*
X57032142Y-72563095D01*
X57008333Y-72563095D01*
X56972619Y-72575000D01*
X56960714Y-72586904D01*
X56734523Y-72563095D02*
X56853571Y-72563095D01*
X56865476Y-72682142D01*
X56853571Y-72670238D01*
X56829761Y-72658333D01*
X56770238Y-72658333D01*
X56746428Y-72670238D01*
X56734523Y-72682142D01*
X56722619Y-72705952D01*
X56722619Y-72765476D01*
X56734523Y-72789285D01*
X56746428Y-72801190D01*
X56770238Y-72813095D01*
X56829761Y-72813095D01*
X56853571Y-72801190D01*
X56865476Y-72789285D01*
X56508333Y-72646428D02*
X56508333Y-72813095D01*
X56567857Y-72551190D02*
X56627380Y-72729761D01*
X56472619Y-72729761D01*
D10*
G04 #@! TO.C,R13*
X22222380Y-77152380D02*
X22222380Y-77771428D01*
X22603333Y-77438095D01*
X22603333Y-77580952D01*
X22650952Y-77676190D01*
X22698571Y-77723809D01*
X22793809Y-77771428D01*
X23031904Y-77771428D01*
X23127142Y-77723809D01*
X23174761Y-77676190D01*
X23222380Y-77580952D01*
X23222380Y-77295238D01*
X23174761Y-77200000D01*
X23127142Y-77152380D01*
X23127142Y-78200000D02*
X23174761Y-78247619D01*
X23222380Y-78200000D01*
X23174761Y-78152380D01*
X23127142Y-78200000D01*
X23222380Y-78200000D01*
X22222380Y-78580952D02*
X22222380Y-79200000D01*
X22603333Y-78866666D01*
X22603333Y-79009523D01*
X22650952Y-79104761D01*
X22698571Y-79152380D01*
X22793809Y-79200000D01*
X23031904Y-79200000D01*
X23127142Y-79152380D01*
X23174761Y-79104761D01*
X23222380Y-79009523D01*
X23222380Y-78723809D01*
X23174761Y-78628571D01*
X23127142Y-78580952D01*
X23222380Y-79628571D02*
X22222380Y-79628571D01*
X23222380Y-80200000D02*
X22650952Y-79771428D01*
X22222380Y-80200000D02*
X22793809Y-79628571D01*
D11*
X21717619Y-78532857D02*
X21593809Y-78446190D01*
X21717619Y-78384285D02*
X21457619Y-78384285D01*
X21457619Y-78483333D01*
X21470000Y-78508095D01*
X21482380Y-78520476D01*
X21507142Y-78532857D01*
X21544285Y-78532857D01*
X21569047Y-78520476D01*
X21581428Y-78508095D01*
X21593809Y-78483333D01*
X21593809Y-78384285D01*
X21717619Y-78780476D02*
X21717619Y-78631904D01*
X21717619Y-78706190D02*
X21457619Y-78706190D01*
X21494761Y-78681428D01*
X21519523Y-78656666D01*
X21531904Y-78631904D01*
X21457619Y-78867142D02*
X21457619Y-79028095D01*
X21556666Y-78941428D01*
X21556666Y-78978571D01*
X21569047Y-79003333D01*
X21581428Y-79015714D01*
X21606190Y-79028095D01*
X21668095Y-79028095D01*
X21692857Y-79015714D01*
X21705238Y-79003333D01*
X21717619Y-78978571D01*
X21717619Y-78904285D01*
X21705238Y-78879523D01*
X21692857Y-78867142D01*
D10*
G04 #@! TO.C,R17*
X25215714Y-77438095D02*
X25882380Y-77438095D01*
X24834761Y-77200000D02*
X25549047Y-76961904D01*
X25549047Y-77580952D01*
X24882380Y-77866666D02*
X24882380Y-78533333D01*
X25882380Y-78104761D01*
X24882380Y-79104761D02*
X24882380Y-79200000D01*
X24930000Y-79295238D01*
X24977619Y-79342857D01*
X25072857Y-79390476D01*
X25263333Y-79438095D01*
X25501428Y-79438095D01*
X25691904Y-79390476D01*
X25787142Y-79342857D01*
X25834761Y-79295238D01*
X25882380Y-79200000D01*
X25882380Y-79104761D01*
X25834761Y-79009523D01*
X25787142Y-78961904D01*
X25691904Y-78914285D01*
X25501428Y-78866666D01*
X25263333Y-78866666D01*
X25072857Y-78914285D01*
X24977619Y-78961904D01*
X24930000Y-79009523D01*
X24882380Y-79104761D01*
X25882380Y-80438095D02*
X25406190Y-80104761D01*
X25882380Y-79866666D02*
X24882380Y-79866666D01*
X24882380Y-80247619D01*
X24930000Y-80342857D01*
X24977619Y-80390476D01*
X25072857Y-80438095D01*
X25215714Y-80438095D01*
X25310952Y-80390476D01*
X25358571Y-80342857D01*
X25406190Y-80247619D01*
X25406190Y-79866666D01*
D13*
X24180952Y-78442857D02*
X23990476Y-78309523D01*
X24180952Y-78214285D02*
X23780952Y-78214285D01*
X23780952Y-78366666D01*
X23800000Y-78404761D01*
X23819047Y-78423809D01*
X23857142Y-78442857D01*
X23914285Y-78442857D01*
X23952380Y-78423809D01*
X23971428Y-78404761D01*
X23990476Y-78366666D01*
X23990476Y-78214285D01*
X24180952Y-78823809D02*
X24180952Y-78595238D01*
X24180952Y-78709523D02*
X23780952Y-78709523D01*
X23838095Y-78671428D01*
X23876190Y-78633333D01*
X23895238Y-78595238D01*
X23780952Y-78957142D02*
X23780952Y-79223809D01*
X24180952Y-79052380D01*
D10*
G04 #@! TO.C,D18*
X8390476Y-82052380D02*
X7819047Y-82052380D01*
X8104761Y-83052380D02*
X8104761Y-82052380D01*
X7628571Y-82052380D02*
X7295238Y-83052380D01*
X6961904Y-82052380D01*
X6676190Y-83004761D02*
X6533333Y-83052380D01*
X6295238Y-83052380D01*
X6200000Y-83004761D01*
X6152380Y-82957142D01*
X6104761Y-82861904D01*
X6104761Y-82766666D01*
X6152380Y-82671428D01*
X6200000Y-82623809D01*
X6295238Y-82576190D01*
X6485714Y-82528571D01*
X6580952Y-82480952D01*
X6628571Y-82433333D01*
X6676190Y-82338095D01*
X6676190Y-82242857D01*
X6628571Y-82147619D01*
X6580952Y-82100000D01*
X6485714Y-82052380D01*
X6247619Y-82052380D01*
X6104761Y-82100000D01*
X8514285Y-79302380D02*
X8514285Y-78302380D01*
X8276190Y-78302380D01*
X8133333Y-78350000D01*
X8038095Y-78445238D01*
X7990476Y-78540476D01*
X7942857Y-78730952D01*
X7942857Y-78873809D01*
X7990476Y-79064285D01*
X8038095Y-79159523D01*
X8133333Y-79254761D01*
X8276190Y-79302380D01*
X8514285Y-79302380D01*
X6990476Y-79302380D02*
X7561904Y-79302380D01*
X7276190Y-79302380D02*
X7276190Y-78302380D01*
X7371428Y-78445238D01*
X7466666Y-78540476D01*
X7561904Y-78588095D01*
X6419047Y-78730952D02*
X6514285Y-78683333D01*
X6561904Y-78635714D01*
X6609523Y-78540476D01*
X6609523Y-78492857D01*
X6561904Y-78397619D01*
X6514285Y-78350000D01*
X6419047Y-78302380D01*
X6228571Y-78302380D01*
X6133333Y-78350000D01*
X6085714Y-78397619D01*
X6038095Y-78492857D01*
X6038095Y-78540476D01*
X6085714Y-78635714D01*
X6133333Y-78683333D01*
X6228571Y-78730952D01*
X6419047Y-78730952D01*
X6514285Y-78778571D01*
X6561904Y-78826190D01*
X6609523Y-78921428D01*
X6609523Y-79111904D01*
X6561904Y-79207142D01*
X6514285Y-79254761D01*
X6419047Y-79302380D01*
X6228571Y-79302380D01*
X6133333Y-79254761D01*
X6085714Y-79207142D01*
X6038095Y-79111904D01*
X6038095Y-78921428D01*
X6085714Y-78826190D01*
X6133333Y-78778571D01*
X6228571Y-78730952D01*
G04 #@! TO.C,C34*
X6640438Y-80250780D02*
X7211866Y-80250780D01*
X6926152Y-80250780D02*
X6926152Y-79250780D01*
X7021390Y-79393638D01*
X7116628Y-79488876D01*
X7211866Y-79536495D01*
X5783295Y-79584114D02*
X5783295Y-80250780D01*
X6211866Y-79584114D02*
X6211866Y-80107923D01*
X6164247Y-80203161D01*
X6069009Y-80250780D01*
X5926152Y-80250780D01*
X5830914Y-80203161D01*
X5783295Y-80155542D01*
X4973771Y-79726971D02*
X5307104Y-79726971D01*
X5307104Y-80250780D02*
X5307104Y-79250780D01*
X4830914Y-79250780D01*
D11*
X6205914Y-78727685D02*
X6217819Y-78739590D01*
X6253533Y-78751495D01*
X6277342Y-78751495D01*
X6313057Y-78739590D01*
X6336866Y-78715780D01*
X6348771Y-78691971D01*
X6360676Y-78644352D01*
X6360676Y-78608638D01*
X6348771Y-78561019D01*
X6336866Y-78537209D01*
X6313057Y-78513400D01*
X6277342Y-78501495D01*
X6253533Y-78501495D01*
X6217819Y-78513400D01*
X6205914Y-78525304D01*
X6122580Y-78501495D02*
X5967819Y-78501495D01*
X6051152Y-78596733D01*
X6015438Y-78596733D01*
X5991628Y-78608638D01*
X5979723Y-78620542D01*
X5967819Y-78644352D01*
X5967819Y-78703876D01*
X5979723Y-78727685D01*
X5991628Y-78739590D01*
X6015438Y-78751495D01*
X6086866Y-78751495D01*
X6110676Y-78739590D01*
X6122580Y-78727685D01*
X5753533Y-78584828D02*
X5753533Y-78751495D01*
X5813057Y-78489590D02*
X5872580Y-78668161D01*
X5717819Y-78668161D01*
D10*
G04 #@! TO.C,F1*
X77347619Y-25132380D02*
X77252380Y-25132380D01*
X77157142Y-25180000D01*
X77109523Y-25227619D01*
X77061904Y-25322857D01*
X77014285Y-25513333D01*
X77014285Y-25751428D01*
X77061904Y-25941904D01*
X77109523Y-26037142D01*
X77157142Y-26084761D01*
X77252380Y-26132380D01*
X77347619Y-26132380D01*
X77442857Y-26084761D01*
X77490476Y-26037142D01*
X77538095Y-25941904D01*
X77585714Y-25751428D01*
X77585714Y-25513333D01*
X77538095Y-25322857D01*
X77490476Y-25227619D01*
X77442857Y-25180000D01*
X77347619Y-25132380D01*
X76585714Y-26037142D02*
X76538095Y-26084761D01*
X76585714Y-26132380D01*
X76633333Y-26084761D01*
X76585714Y-26037142D01*
X76585714Y-26132380D01*
X75633333Y-25132380D02*
X76109523Y-25132380D01*
X76157142Y-25608571D01*
X76109523Y-25560952D01*
X76014285Y-25513333D01*
X75776190Y-25513333D01*
X75680952Y-25560952D01*
X75633333Y-25608571D01*
X75585714Y-25703809D01*
X75585714Y-25941904D01*
X75633333Y-26037142D01*
X75680952Y-26084761D01*
X75776190Y-26132380D01*
X76014285Y-26132380D01*
X76109523Y-26084761D01*
X76157142Y-26037142D01*
X75204761Y-25846666D02*
X74728571Y-25846666D01*
X75300000Y-26132380D02*
X74966666Y-25132380D01*
X74633333Y-26132380D01*
X73538095Y-26132380D02*
X73538095Y-25132380D01*
X73538095Y-25608571D02*
X72966666Y-25608571D01*
X72966666Y-26132380D02*
X72966666Y-25132380D01*
X72347619Y-26132380D02*
X72442857Y-26084761D01*
X72490476Y-26037142D01*
X72538095Y-25941904D01*
X72538095Y-25656190D01*
X72490476Y-25560952D01*
X72442857Y-25513333D01*
X72347619Y-25465714D01*
X72204761Y-25465714D01*
X72109523Y-25513333D01*
X72061904Y-25560952D01*
X72014285Y-25656190D01*
X72014285Y-25941904D01*
X72061904Y-26037142D01*
X72109523Y-26084761D01*
X72204761Y-26132380D01*
X72347619Y-26132380D01*
X71442857Y-26132380D02*
X71538095Y-26084761D01*
X71585714Y-25989523D01*
X71585714Y-25132380D01*
X70633333Y-26132380D02*
X70633333Y-25132380D01*
X70633333Y-26084761D02*
X70728571Y-26132380D01*
X70919047Y-26132380D01*
X71014285Y-26084761D01*
X71061904Y-26037142D01*
X71109523Y-25941904D01*
X71109523Y-25656190D01*
X71061904Y-25560952D01*
X71014285Y-25513333D01*
X70919047Y-25465714D01*
X70728571Y-25465714D01*
X70633333Y-25513333D01*
X70109523Y-26084761D02*
X70109523Y-26132380D01*
X70157142Y-26227619D01*
X70204761Y-26275238D01*
X68395238Y-26132380D02*
X68966666Y-26132380D01*
X68680952Y-26132380D02*
X68680952Y-25132380D01*
X68776190Y-25275238D01*
X68871428Y-25370476D01*
X68966666Y-25418095D01*
X68014285Y-25846666D02*
X67538095Y-25846666D01*
X68109523Y-26132380D02*
X67776190Y-25132380D01*
X67442857Y-26132380D01*
X66490476Y-25132380D02*
X65919047Y-25132380D01*
X66204761Y-26132380D02*
X66204761Y-25132380D01*
X65585714Y-26132380D02*
X65585714Y-25465714D01*
X65585714Y-25656190D02*
X65538095Y-25560952D01*
X65490476Y-25513333D01*
X65395238Y-25465714D01*
X65300000Y-25465714D01*
X64966666Y-26132380D02*
X64966666Y-25465714D01*
X64966666Y-25132380D02*
X65014285Y-25180000D01*
X64966666Y-25227619D01*
X64919047Y-25180000D01*
X64966666Y-25132380D01*
X64966666Y-25227619D01*
X64490476Y-25465714D02*
X64490476Y-26465714D01*
X64490476Y-25513333D02*
X64395238Y-25465714D01*
X64204761Y-25465714D01*
X64109523Y-25513333D01*
X64061904Y-25560952D01*
X64014285Y-25656190D01*
X64014285Y-25941904D01*
X64061904Y-26037142D01*
X64109523Y-26084761D01*
X64204761Y-26132380D01*
X64395238Y-26132380D01*
X64490476Y-26084761D01*
D14*
X71066666Y-27442857D02*
X71333333Y-27442857D01*
X71333333Y-27861904D02*
X71333333Y-27061904D01*
X70952380Y-27061904D01*
X70228571Y-27861904D02*
X70685714Y-27861904D01*
X70457142Y-27861904D02*
X70457142Y-27061904D01*
X70533333Y-27176190D01*
X70609523Y-27252380D01*
X70685714Y-27290476D01*
D15*
G04 #@! TO.C,D11*
X62007780Y-47333720D02*
X62007780Y-43833720D01*
X58507780Y-43833720D02*
X58507780Y-47333720D01*
X62007780Y-43833720D02*
X58507780Y-43833720D01*
X58507780Y-47333720D02*
X62007780Y-47333720D01*
X61222280Y-47298220D02*
X61972280Y-46548220D01*
X61257780Y-45583720D02*
G75*
G03*
X61257780Y-45583720I-1000000J0D01*
G01*
G04 #@! TO.C,D12*
X58072680Y-40491020D02*
X58822680Y-39741020D01*
X58858180Y-40526520D02*
X58858180Y-37026520D01*
X55358180Y-37026520D02*
X55358180Y-40526520D01*
X55358180Y-40526520D02*
X58858180Y-40526520D01*
X58858180Y-37026520D02*
X55358180Y-37026520D01*
X58108180Y-38776520D02*
G75*
G03*
X58108180Y-38776520I-1000000J0D01*
G01*
G04 #@! TO.C,D10*
X55408980Y-50640920D02*
X55408980Y-54140920D01*
X58908980Y-54140920D02*
X58908980Y-50640920D01*
X58123480Y-54105420D02*
X58873480Y-53355420D01*
X58908980Y-50640920D02*
X55408980Y-50640920D01*
X55408980Y-54140920D02*
X58908980Y-54140920D01*
X58158980Y-52390920D02*
G75*
G03*
X58158980Y-52390920I-1000000J0D01*
G01*
G04 #@! TO.C,D9*
X51040180Y-60338520D02*
X54540180Y-60338520D01*
X53754680Y-60303020D02*
X54504680Y-59553020D01*
X54540180Y-60338520D02*
X54540180Y-56838520D01*
X51040180Y-56838520D02*
X51040180Y-60338520D01*
X54540180Y-56838520D02*
X51040180Y-56838520D01*
X53790180Y-58588520D02*
G75*
G03*
X53790180Y-58588520I-1000000J0D01*
G01*
G04 #@! TO.C,D13*
X54489380Y-34328920D02*
X54489380Y-30828920D01*
X50989380Y-30828920D02*
X50989380Y-34328920D01*
X50989380Y-34328920D02*
X54489380Y-34328920D01*
X53703880Y-34293420D02*
X54453880Y-33543420D01*
X54489380Y-30828920D02*
X50989380Y-30828920D01*
X53739380Y-32578920D02*
G75*
G03*
X53739380Y-32578920I-1000000J0D01*
G01*
G04 #@! TO.C,D6*
X34349080Y-54207020D02*
X35099080Y-53457020D01*
X31634580Y-54242520D02*
X35134580Y-54242520D01*
X35134580Y-54242520D02*
X35134580Y-50742520D01*
X35134580Y-50742520D02*
X31634580Y-50742520D01*
X31634580Y-50742520D02*
X31634580Y-54242520D01*
X34384580Y-52492520D02*
G75*
G03*
X34384580Y-52492520I-1000000J0D01*
G01*
G04 #@! TO.C,D5*
X31250280Y-47349020D02*
X32000280Y-46599020D01*
X32035780Y-47384520D02*
X32035780Y-43884520D01*
X28535780Y-47384520D02*
X32035780Y-47384520D01*
X32035780Y-43884520D02*
X28535780Y-43884520D01*
X28535780Y-43884520D02*
X28535780Y-47384520D01*
X31285780Y-45634520D02*
G75*
G03*
X31285780Y-45634520I-1000000J0D01*
G01*
G04 #@! TO.C,D3*
X36003380Y-30930520D02*
X36003380Y-34430520D01*
X36003380Y-34430520D02*
X39503380Y-34430520D01*
X38717880Y-34395020D02*
X39467880Y-33645020D01*
X39503380Y-34430520D02*
X39503380Y-30930520D01*
X39503380Y-30930520D02*
X36003380Y-30930520D01*
X38753380Y-32680520D02*
G75*
G03*
X38753380Y-32680520I-1000000J0D01*
G01*
G04 #@! TO.C,D2*
X47021780Y-33668520D02*
X47021780Y-30168520D01*
X47021780Y-30168520D02*
X43521780Y-30168520D01*
X43521780Y-33668520D02*
X47021780Y-33668520D01*
X43521780Y-30168520D02*
X43521780Y-33668520D01*
X46236280Y-33633020D02*
X46986280Y-32883020D01*
X46271780Y-31918520D02*
G75*
G03*
X46271780Y-31918520I-1000000J0D01*
G01*
G04 #@! TO.C,R46*
X35060000Y-78134400D02*
X35060000Y-78634400D01*
X35060000Y-78634400D02*
X36060000Y-78634400D01*
X36060000Y-78134400D02*
X35060000Y-78134400D01*
X36060000Y-78634400D02*
X36060000Y-78134400D01*
G04 #@! TO.C,R44*
X35818000Y-9710800D02*
X35818000Y-10710800D01*
X35818000Y-10710800D02*
X36318000Y-10710800D01*
X36318000Y-10710800D02*
X36318000Y-9710800D01*
X36318000Y-9710800D02*
X35818000Y-9710800D01*
G04 #@! TO.C,R43*
X29468000Y-10761600D02*
X29968000Y-10761600D01*
X29968000Y-10761600D02*
X29968000Y-9761600D01*
X29468000Y-9761600D02*
X29468000Y-10761600D01*
X29968000Y-9761600D02*
X29468000Y-9761600D01*
G04 #@! TO.C,S1*
X16018020Y-42370000D02*
X15518020Y-42370000D01*
X15518020Y-42370000D02*
X15518020Y-43370000D01*
X16018020Y-48770000D02*
X15518020Y-48770000D01*
X12318020Y-42370000D02*
X12318020Y-43370000D01*
X16018020Y-42870000D02*
X15518020Y-42870000D01*
X11318020Y-46770000D02*
X11318020Y-44370000D01*
X12918020Y-43570000D02*
X11918020Y-44570000D01*
X12718020Y-42970000D02*
X15118020Y-42970000D01*
X11818020Y-48770000D02*
X12318020Y-48770000D01*
X11818020Y-42870000D02*
X12318020Y-42870000D01*
X12718020Y-48170000D02*
X11318020Y-46770000D01*
X11318020Y-44370000D02*
X12718020Y-42970000D01*
X11818020Y-47270000D02*
X11818020Y-48770000D01*
X16518020Y-46770000D02*
X15118020Y-48170000D01*
X15118020Y-42970000D02*
X16518020Y-44370000D01*
X15518020Y-48770000D02*
X15518020Y-47770000D01*
X15918020Y-46570000D02*
X15918020Y-44570000D01*
X15918020Y-44570000D02*
X14918020Y-43570000D01*
X16018020Y-43870000D02*
X16018020Y-42370000D01*
X11918020Y-44570000D02*
X11918020Y-46570000D01*
X14918020Y-47570000D02*
X15918020Y-46570000D01*
X14918020Y-43570000D02*
X12918020Y-43570000D01*
X16018020Y-47270000D02*
X16018020Y-48770000D01*
X16018020Y-48270000D02*
X15518020Y-48270000D01*
X11818020Y-42370000D02*
X12318020Y-42370000D01*
X11818020Y-48270000D02*
X12318020Y-48270000D01*
X15118020Y-48170000D02*
X12718020Y-48170000D01*
X12318020Y-48770000D02*
X12318020Y-47770000D01*
X12918020Y-47570000D02*
X14918020Y-47570000D01*
X11918020Y-46570000D02*
X12918020Y-47570000D01*
X16518020Y-44370000D02*
X16518020Y-46770000D01*
X11818020Y-43870000D02*
X11818020Y-42370000D01*
X14918020Y-45570000D02*
G75*
G03*
X14918020Y-45570000I-1000000J0D01*
G01*
G04 #@! TO.C,S3*
X47050800Y-44563400D02*
X46050800Y-43563400D01*
X42950800Y-47263400D02*
X42950800Y-48763400D01*
X47150800Y-47263400D02*
X47150800Y-48763400D01*
X46050800Y-47563400D02*
X47050800Y-46563400D01*
X47150800Y-42363400D02*
X46650800Y-42363400D01*
X46050800Y-43563400D02*
X44050800Y-43563400D01*
X43850800Y-48163400D02*
X42450800Y-46763400D01*
X47150800Y-48763400D02*
X46650800Y-48763400D01*
X42950800Y-48263400D02*
X43450800Y-48263400D01*
X46250800Y-48163400D02*
X43850800Y-48163400D01*
X43050800Y-44563400D02*
X43050800Y-46563400D01*
X44050800Y-43563400D02*
X43050800Y-44563400D01*
X46250800Y-42963400D02*
X47650800Y-44363400D01*
X43450800Y-48763400D02*
X43450800Y-47763400D01*
X47150800Y-43863400D02*
X47150800Y-42363400D01*
X42950800Y-42863400D02*
X43450800Y-42863400D01*
X47050800Y-46563400D02*
X47050800Y-44563400D01*
X47150800Y-42863400D02*
X46650800Y-42863400D01*
X43050800Y-46563400D02*
X44050800Y-47563400D01*
X47650800Y-46763400D02*
X46250800Y-48163400D01*
X47150800Y-48263400D02*
X46650800Y-48263400D01*
X42950800Y-43863400D02*
X42950800Y-42363400D01*
X46650800Y-42363400D02*
X46650800Y-43363400D01*
X46650800Y-48763400D02*
X46650800Y-47763400D01*
X42950800Y-42363400D02*
X43450800Y-42363400D01*
X43450800Y-42363400D02*
X43450800Y-43363400D01*
X44050800Y-47563400D02*
X46050800Y-47563400D01*
X42450800Y-44363400D02*
X43850800Y-42963400D01*
X43850800Y-42963400D02*
X46250800Y-42963400D01*
X42450800Y-46763400D02*
X42450800Y-44363400D01*
X47650800Y-44363400D02*
X47650800Y-46763400D01*
X42950800Y-48763400D02*
X43450800Y-48763400D01*
X46050800Y-45563400D02*
G75*
G03*
X46050800Y-45563400I-1000000J0D01*
G01*
G04 #@! TO.C,R45*
X31284800Y-77364400D02*
X31284800Y-76864400D01*
X30284800Y-77364400D02*
X31284800Y-77364400D01*
X31284800Y-76864400D02*
X30284800Y-76864400D01*
X30284800Y-76864400D02*
X30284800Y-77364400D01*
G04 #@! TO.C,D8*
X43521780Y-60948120D02*
X47021780Y-60948120D01*
X47021780Y-60948120D02*
X47021780Y-57448120D01*
X47021780Y-57448120D02*
X43521780Y-57448120D01*
X43521780Y-57448120D02*
X43521780Y-60948120D01*
X46236280Y-60912620D02*
X46986280Y-60162620D01*
X46271780Y-59198120D02*
G75*
G03*
X46271780Y-59198120I-1000000J0D01*
G01*
G04 #@! TO.C,D4*
X35185380Y-37026520D02*
X31685380Y-37026520D01*
X34399880Y-40491020D02*
X35149880Y-39741020D01*
X31685380Y-37026520D02*
X31685380Y-40526520D01*
X35185380Y-40526520D02*
X35185380Y-37026520D01*
X31685380Y-40526520D02*
X35185380Y-40526520D01*
X34435380Y-38776520D02*
G75*
G03*
X34435380Y-38776520I-1000000J0D01*
G01*
G04 #@! TO.C,S2*
X11218020Y-81072000D02*
X11218020Y-80572000D01*
X15918020Y-79972000D02*
X15918020Y-77972000D01*
X14918020Y-80972000D02*
X15918020Y-79972000D01*
X12218020Y-76872000D02*
X10718020Y-76872000D01*
X16518020Y-80172000D02*
X15118020Y-81572000D01*
X17118020Y-81072000D02*
X17118020Y-80572000D01*
X12218020Y-81072000D02*
X10718020Y-81072000D01*
X15118020Y-76372000D02*
X16518020Y-77772000D01*
X16618020Y-81072000D02*
X16618020Y-80572000D01*
X10718020Y-81072000D02*
X10718020Y-80572000D01*
X17118020Y-80572000D02*
X16118020Y-80572000D01*
X15618020Y-76872000D02*
X17118020Y-76872000D01*
X11918020Y-79972000D02*
X12918020Y-80972000D01*
X10718020Y-76872000D02*
X10718020Y-77372000D01*
X10718020Y-77372000D02*
X11718020Y-77372000D01*
X14918020Y-76972000D02*
X12918020Y-76972000D01*
X12918020Y-76972000D02*
X11918020Y-77972000D01*
X12918020Y-80972000D02*
X14918020Y-80972000D01*
X17118020Y-76872000D02*
X17118020Y-77372000D01*
X11318020Y-80172000D02*
X11318020Y-77772000D01*
X11918020Y-77972000D02*
X11918020Y-79972000D01*
X17118020Y-77372000D02*
X16118020Y-77372000D01*
X16618020Y-76872000D02*
X16618020Y-77372000D01*
X12718020Y-81572000D02*
X11318020Y-80172000D01*
X10718020Y-80572000D02*
X11718020Y-80572000D01*
X15918020Y-77972000D02*
X14918020Y-76972000D01*
X11218020Y-76872000D02*
X11218020Y-77372000D01*
X11318020Y-77772000D02*
X12718020Y-76372000D01*
X15618020Y-81072000D02*
X17118020Y-81072000D01*
X12718020Y-76372000D02*
X15118020Y-76372000D01*
X16518020Y-77772000D02*
X16518020Y-80172000D01*
X15118020Y-81572000D02*
X12718020Y-81572000D01*
X14918020Y-78972000D02*
G75*
G03*
X14918020Y-78972000I-1000000J0D01*
G01*
G04 #@! TO.C,D7*
X39554180Y-56787720D02*
X36054180Y-56787720D01*
X36054180Y-60287720D02*
X39554180Y-60287720D01*
X38768680Y-60252220D02*
X39518680Y-59502220D01*
X36054180Y-56787720D02*
X36054180Y-60287720D01*
X39554180Y-60287720D02*
X39554180Y-56787720D01*
X38804180Y-58537720D02*
G75*
G03*
X38804180Y-58537720I-1000000J0D01*
G01*
G04 #@! TO.C,C58*
X35974400Y-81344960D02*
X35974400Y-81844960D01*
X36974400Y-81344960D02*
X35974400Y-81344960D01*
X36974400Y-81844960D02*
X36974400Y-81344960D01*
X35974400Y-81844960D02*
X36974400Y-81844960D01*
G04 #@! TO.C,C56*
X35974400Y-80768000D02*
X36974400Y-80768000D01*
X35974400Y-80268000D02*
X35974400Y-80768000D01*
X36974400Y-80768000D02*
X36974400Y-80268000D01*
X36974400Y-80268000D02*
X35974400Y-80268000D01*
G04 #@! TO.C,SW1*
X13403200Y-12592800D02*
X13603200Y-12392800D01*
X17553200Y-15592800D02*
X14953200Y-15592800D01*
X13653200Y-12342800D02*
X14953200Y-12342800D01*
X14903200Y-13642800D02*
X13603200Y-13642800D01*
X14953200Y-15592800D02*
X14953200Y-8892800D01*
X17553200Y-8892800D02*
X17553200Y-15592800D01*
X14953200Y-8892800D02*
X17553200Y-8892800D01*
X13403200Y-13442800D02*
X13403200Y-12592800D01*
X13603200Y-13642800D02*
X13403200Y-13442800D01*
X13603200Y-12392800D02*
X13653200Y-12342800D01*
G04 #@! TO.C,FB6*
X39106400Y-79365600D02*
X37906400Y-79365600D01*
X37906400Y-79365600D02*
X37906400Y-81365600D01*
X37906400Y-81365600D02*
X39106400Y-81365600D01*
X39106400Y-81365600D02*
X39106400Y-79365600D01*
G04 #@! TO.C,D17*
X9400000Y-46650000D02*
X9400000Y-45950000D01*
X10100000Y-47000000D02*
X10100000Y-45600000D01*
X8900000Y-46300000D02*
X9400000Y-46650000D01*
X8900000Y-46300000D02*
X8700000Y-46300000D01*
X8300000Y-45600000D02*
X8300000Y-47000000D01*
X10100000Y-45600000D02*
X8300000Y-45600000D01*
X8300000Y-47000000D02*
X10100000Y-47000000D01*
X8900000Y-46650000D02*
X8900000Y-45950000D01*
X9400000Y-46300000D02*
X9650000Y-46300000D01*
X9400000Y-45950000D02*
X8900000Y-46300000D01*
G04 #@! TO.C,C9*
X6545200Y-77516800D02*
X6545200Y-77016800D01*
X5545200Y-77516800D02*
X6545200Y-77516800D01*
X6545200Y-77016800D02*
X5545200Y-77016800D01*
X5545200Y-77016800D02*
X5545200Y-77516800D01*
G04 #@! TO.C,C31*
X35060000Y-13712000D02*
X36060000Y-13712000D01*
X35060000Y-13212000D02*
X35060000Y-13712000D01*
X36060000Y-13712000D02*
X36060000Y-13212000D01*
X36060000Y-13212000D02*
X35060000Y-13212000D01*
G04 #@! TO.C,C30*
X33485200Y-21086000D02*
X33485200Y-21586000D01*
X33485200Y-21586000D02*
X34485200Y-21586000D01*
X34485200Y-21086000D02*
X33485200Y-21086000D01*
X34485200Y-21586000D02*
X34485200Y-21086000D01*
G04 #@! TO.C,C54*
X57300000Y-72450000D02*
X56300000Y-72450000D01*
X56300000Y-72950000D02*
X57300000Y-72950000D01*
X57300000Y-72950000D02*
X57300000Y-72450000D01*
X56300000Y-72450000D02*
X56300000Y-72950000D01*
G04 #@! TO.C,R13*
X21870000Y-79225000D02*
X21870000Y-78175000D01*
X21330000Y-78175000D02*
X21330000Y-79225000D01*
X21330000Y-79225000D02*
X21870000Y-79225000D01*
X21870000Y-78175000D02*
X21330000Y-78175000D01*
G04 #@! TO.C,R17*
X23587500Y-77900000D02*
X23587500Y-79500000D01*
X24412500Y-79500000D02*
X24412500Y-77900000D01*
X23587500Y-79500000D02*
X24412500Y-79500000D01*
X24412500Y-77900000D02*
X23587500Y-77900000D01*
G04 #@! TO.C,D18*
X7100000Y-80350000D02*
X7100000Y-81050000D01*
X6400000Y-81400000D02*
X8200000Y-81400000D01*
X7600000Y-80700000D02*
X7100000Y-80350000D01*
X7600000Y-80700000D02*
X7800000Y-80700000D01*
X7100000Y-81050000D02*
X7600000Y-80700000D01*
X8200000Y-80000000D02*
X6400000Y-80000000D01*
X8200000Y-81400000D02*
X8200000Y-80000000D01*
X7600000Y-80350000D02*
X7600000Y-81050000D01*
X7100000Y-80700000D02*
X6850000Y-80700000D01*
X6400000Y-80000000D02*
X6400000Y-81400000D01*
G04 #@! TO.C,C34*
X5545200Y-78388400D02*
X5545200Y-78888400D01*
X6545200Y-78388400D02*
X5545200Y-78388400D01*
X6545200Y-78888400D02*
X6545200Y-78388400D01*
X5545200Y-78888400D02*
X6545200Y-78888400D01*
G04 #@! TO.C,F1*
X72400000Y-28300000D02*
X72400000Y-26700000D01*
X72400000Y-26700000D02*
X69200000Y-26700000D01*
X69200000Y-26700000D02*
X69200000Y-28300000D01*
X69200000Y-28300000D02*
X72400000Y-28300000D01*
G04 #@! TD*
M02*
