G04 #@! TF.GenerationSoftware,KiCad,Pcbnew,(6.0.7)*
G04 #@! TF.CreationDate,2022-07-29T08:46:11-07:00*
G04 #@! TF.ProjectId,SJ-201-R10,534a2d32-3031-42d5-9231-302e6b696361,rev?*
G04 #@! TF.SameCoordinates,Original*
G04 #@! TF.FileFunction,Soldermask,Top*
G04 #@! TF.FilePolarity,Negative*
%FSLAX46Y46*%
G04 Gerber Fmt 4.6, Leading zero omitted, Abs format (unit mm)*
G04 Created by KiCad (PCBNEW (6.0.7)) date 2022-07-29 08:46:11*
%MOMM*%
%LPD*%
G01*
G04 APERTURE LIST*
G04 Aperture macros list*
%AMRoundRect*
0 Rectangle with rounded corners*
0 $1 Rounding radius*
0 $2 $3 $4 $5 $6 $7 $8 $9 X,Y pos of 4 corners*
0 Add a 4 corners polygon primitive as box body*
4,1,4,$2,$3,$4,$5,$6,$7,$8,$9,$2,$3,0*
0 Add four circle primitives for the rounded corners*
1,1,$1+$1,$2,$3*
1,1,$1+$1,$4,$5*
1,1,$1+$1,$6,$7*
1,1,$1+$1,$8,$9*
0 Add four rect primitives between the rounded corners*
20,1,$1+$1,$2,$3,$4,$5,0*
20,1,$1+$1,$4,$5,$6,$7,0*
20,1,$1+$1,$6,$7,$8,$9,0*
20,1,$1+$1,$8,$9,$2,$3,0*%
G04 Aperture macros list end*
%ADD10C,0.152400*%
%ADD11C,1.202000*%
%ADD12RoundRect,0.051000X-0.865000X1.015000X-0.865000X-1.015000X0.865000X-1.015000X0.865000X1.015000X0*%
%ADD13O,1.832000X2.132000*%
%ADD14RoundRect,0.198500X0.172500X-0.147500X0.172500X0.147500X-0.172500X0.147500X-0.172500X-0.147500X0*%
%ADD15RoundRect,0.198500X-0.147500X-0.172500X0.147500X-0.172500X0.147500X0.172500X-0.147500X0.172500X0*%
%ADD16C,1.102000*%
%ADD17RoundRect,0.051000X-0.450000X-0.400000X0.450000X-0.400000X0.450000X0.400000X-0.450000X0.400000X0*%
%ADD18RoundRect,0.198500X-0.172500X0.147500X-0.172500X-0.147500X0.172500X-0.147500X0.172500X0.147500X0*%
%ADD19RoundRect,0.051000X-2.500000X2.250000X-2.500000X-2.250000X2.500000X-2.250000X2.500000X2.250000X0*%
%ADD20RoundRect,0.051000X-0.850000X-0.850000X0.850000X-0.850000X0.850000X0.850000X-0.850000X0.850000X0*%
%ADD21O,1.802000X1.802000*%
%ADD22RoundRect,0.051000X1.750000X1.750000X-1.750000X1.750000X-1.750000X-1.750000X1.750000X-1.750000X0*%
%ADD23RoundRect,0.801000X0.750000X1.000000X-0.750000X1.000000X-0.750000X-1.000000X0.750000X-1.000000X0*%
%ADD24RoundRect,0.926000X0.875000X0.875000X-0.875000X0.875000X-0.875000X-0.875000X0.875000X-0.875000X0*%
%ADD25RoundRect,0.300999X-0.350001X-0.625001X0.350001X-0.625001X0.350001X0.625001X-0.350001X0.625001X0*%
%ADD26O,1.302000X1.852000*%
%ADD27RoundRect,0.300999X0.350001X0.625001X-0.350001X0.625001X-0.350001X-0.625001X0.350001X-0.625001X0*%
%ADD28RoundRect,0.051000X0.750000X1.800000X-0.750000X1.800000X-0.750000X-1.800000X0.750000X-1.800000X0*%
%ADD29RoundRect,0.051000X0.400000X-0.450000X0.400000X0.450000X-0.400000X0.450000X-0.400000X-0.450000X0*%
%ADD30RoundRect,0.198500X0.147500X0.172500X-0.147500X0.172500X-0.147500X-0.172500X0.147500X-0.172500X0*%
%ADD31RoundRect,0.198500X-0.017678X0.226274X-0.226274X0.017678X0.017678X-0.226274X0.226274X-0.017678X0*%
%ADD32RoundRect,0.198500X-0.226274X-0.017678X-0.017678X-0.226274X0.226274X0.017678X0.017678X0.226274X0*%
%ADD33RoundRect,0.051000X-0.250000X-0.250000X0.250000X-0.250000X0.250000X0.250000X-0.250000X0.250000X0*%
%ADD34RoundRect,0.198500X0.017678X-0.226274X0.226274X-0.017678X-0.017678X0.226274X-0.226274X0.017678X0*%
%ADD35RoundRect,0.051000X-0.550000X2.300000X-0.550000X-2.300000X0.550000X-2.300000X0.550000X2.300000X0*%
%ADD36RoundRect,0.051000X-5.400000X4.700000X-5.400000X-4.700000X5.400000X-4.700000X5.400000X4.700000X0*%
%ADD37RoundRect,0.301000X-1.000000X1.750000X-1.000000X-1.750000X1.000000X-1.750000X1.000000X1.750000X0*%
%ADD38RoundRect,0.198500X0.226274X0.017678X0.017678X0.226274X-0.226274X-0.017678X-0.017678X-0.226274X0*%
%ADD39RoundRect,0.051000X-1.250000X-0.900000X1.250000X-0.900000X1.250000X0.900000X-1.250000X0.900000X0*%
%ADD40C,8.102000*%
%ADD41RoundRect,0.301000X-1.000000X1.950000X-1.000000X-1.950000X1.000000X-1.950000X1.000000X1.950000X0*%
%ADD42RoundRect,0.151000X-0.637500X-0.100000X0.637500X-0.100000X0.637500X0.100000X-0.637500X0.100000X0*%
%ADD43RoundRect,0.269750X0.256250X-0.218750X0.256250X0.218750X-0.256250X0.218750X-0.256250X-0.218750X0*%
%ADD44RoundRect,0.051000X0.600000X-0.450000X0.600000X0.450000X-0.600000X0.450000X-0.600000X-0.450000X0*%
%ADD45RoundRect,0.051000X0.850000X-0.850000X0.850000X0.850000X-0.850000X0.850000X-0.850000X-0.850000X0*%
%ADD46RoundRect,0.051000X-0.070711X-0.707107X0.707107X0.070711X0.070711X0.707107X-0.707107X-0.070711X0*%
%ADD47RoundRect,0.301000X1.450000X-0.312500X1.450000X0.312500X-1.450000X0.312500X-1.450000X-0.312500X0*%
%ADD48RoundRect,0.051000X0.325000X-0.610000X0.325000X0.610000X-0.325000X0.610000X-0.325000X-0.610000X0*%
%ADD49RoundRect,0.269750X-0.218750X-0.256250X0.218750X-0.256250X0.218750X0.256250X-0.218750X0.256250X0*%
%ADD50C,8.302000*%
%ADD51RoundRect,0.294750X0.243750X0.456250X-0.243750X0.456250X-0.243750X-0.456250X0.243750X-0.456250X0*%
%ADD52RoundRect,0.269750X-0.256250X0.218750X-0.256250X-0.218750X0.256250X-0.218750X0.256250X0.218750X0*%
%ADD53RoundRect,0.051000X1.000000X0.750000X-1.000000X0.750000X-1.000000X-0.750000X1.000000X-0.750000X0*%
%ADD54RoundRect,0.051000X1.000000X1.900000X-1.000000X1.900000X-1.000000X-1.900000X1.000000X-1.900000X0*%
%ADD55RoundRect,0.051000X0.700000X-0.149999X0.700000X0.149999X-0.700000X0.149999X-0.700000X-0.149999X0*%
%ADD56C,0.601999*%
%ADD57RoundRect,0.051000X-1.800000X-4.850000X1.800000X-4.850000X1.800000X4.850000X-1.800000X4.850000X0*%
%ADD58RoundRect,0.301000X-0.625000X0.375000X-0.625000X-0.375000X0.625000X-0.375000X0.625000X0.375000X0*%
%ADD59RoundRect,0.269750X0.218750X0.256250X-0.218750X0.256250X-0.218750X-0.256250X0.218750X-0.256250X0*%
%ADD60C,2.102000*%
%ADD61RoundRect,0.301000X-0.600000X-0.600000X0.600000X-0.600000X0.600000X0.600000X-0.600000X0.600000X0*%
%ADD62C,1.802000*%
%ADD63RoundRect,0.186000X0.135000X0.185000X-0.135000X0.185000X-0.135000X-0.185000X0.135000X-0.185000X0*%
%ADD64RoundRect,0.101000X0.291682X-0.220971X-0.220971X0.291682X-0.291682X0.220971X0.220971X-0.291682X0*%
%ADD65RoundRect,0.101000X0.220971X0.291682X-0.291682X-0.220971X-0.220971X-0.291682X0.291682X0.220971X0*%
%ADD66RoundRect,0.101000X0.291682X0.220971X0.220971X0.291682X-0.291682X-0.220971X-0.220971X-0.291682X0*%
%ADD67RoundRect,0.101000X-0.220971X0.291682X-0.291682X0.220971X0.220971X-0.291682X0.291682X-0.220971X0*%
%ADD68RoundRect,0.101000X-0.291682X0.220971X0.220971X-0.291682X0.291682X-0.220971X-0.220971X0.291682X0*%
%ADD69C,0.702000*%
%ADD70RoundRect,0.051000X3.358757X0.176777X0.176777X3.358757X-3.358757X-0.176777X-0.176777X-3.358757X0*%
%ADD71RoundRect,0.051000X0.355000X0.350000X-0.355000X0.350000X-0.355000X-0.350000X0.355000X-0.350000X0*%
%ADD72RoundRect,0.051000X-0.176777X3.358757X-3.358757X0.176777X0.176777X-3.358757X3.358757X-0.176777X0*%
%ADD73RoundRect,0.251000X0.200000X0.275000X-0.200000X0.275000X-0.200000X-0.275000X0.200000X-0.275000X0*%
%ADD74RoundRect,0.186000X0.185000X-0.135000X0.185000X0.135000X-0.185000X0.135000X-0.185000X-0.135000X0*%
%ADD75RoundRect,0.251000X0.275000X-0.200000X0.275000X0.200000X-0.275000X0.200000X-0.275000X-0.200000X0*%
%ADD76RoundRect,0.191000X-0.170000X0.140000X-0.170000X-0.140000X0.170000X-0.140000X0.170000X0.140000X0*%
%ADD77RoundRect,0.051000X0.300000X0.225000X-0.300000X0.225000X-0.300000X-0.225000X0.300000X-0.225000X0*%
%ADD78RoundRect,0.051000X-1.250000X-1.150000X1.250000X-1.150000X1.250000X1.150000X-1.250000X1.150000X0*%
%ADD79RoundRect,0.191000X-0.140000X-0.170000X0.140000X-0.170000X0.140000X0.170000X-0.140000X0.170000X0*%
%ADD80RoundRect,0.191000X0.170000X-0.140000X0.170000X0.140000X-0.170000X0.140000X-0.170000X-0.140000X0*%
%ADD81RoundRect,0.251000X-0.275000X0.200000X-0.275000X-0.200000X0.275000X-0.200000X0.275000X0.200000X0*%
%ADD82RoundRect,0.051000X-1.150000X1.250000X-1.150000X-1.250000X1.150000X-1.250000X1.150000X1.250000X0*%
%ADD83RoundRect,0.051000X-0.850000X0.850000X-0.850000X-0.850000X0.850000X-0.850000X0.850000X0.850000X0*%
%ADD84C,1.002000*%
G04 APERTURE END LIST*
D10*
G04 #@! TO.C,U3*
X12707987Y-35333352D02*
X12710464Y-35341514D01*
X12703969Y-39987168D02*
X12698559Y-39993760D01*
X12691968Y-35313830D02*
X12698559Y-35319240D01*
X9812136Y-39971486D02*
X9811300Y-39963000D01*
X9818631Y-39987168D02*
X9814613Y-39979648D01*
X12676286Y-35307335D02*
X12684447Y-35309812D01*
X12698559Y-35319240D02*
X12703969Y-35325832D01*
X9818631Y-35325832D02*
X9824041Y-35319240D01*
X12667800Y-40006500D02*
X9854800Y-40006500D01*
X12703969Y-35325832D02*
X12707987Y-35333352D01*
X9854800Y-35306500D02*
X12667800Y-35306500D01*
X12711300Y-35350000D02*
X12711300Y-39963000D01*
X9812136Y-35341514D02*
X9814613Y-35333352D01*
X9824041Y-39993760D02*
X9818631Y-39987168D01*
X9838153Y-35309812D02*
X9846314Y-35307335D01*
X12684447Y-40003188D02*
X12676286Y-40005665D01*
X12691968Y-39999170D02*
X12684447Y-40003188D01*
X9824041Y-35319240D02*
X9830632Y-35313830D01*
X9814613Y-35333352D02*
X9818631Y-35325832D01*
X12698559Y-39993760D02*
X12691968Y-39999170D01*
X9838153Y-40003188D02*
X9830632Y-39999170D01*
X12710464Y-35341514D02*
X12711300Y-35350000D01*
X9811300Y-39963000D02*
X9811300Y-35350000D01*
X9814613Y-39979648D02*
X9812136Y-39971486D01*
X12676286Y-40005665D02*
X12667800Y-40006500D01*
X9830632Y-35313830D02*
X9838153Y-35309812D01*
X12710464Y-39971486D02*
X12707987Y-39979648D01*
X12684447Y-35309812D02*
X12691968Y-35313830D01*
X9846314Y-40005665D02*
X9838153Y-40003188D01*
X9811300Y-35350000D02*
X9812136Y-35341514D01*
X12667800Y-35306500D02*
X12676286Y-35307335D01*
X12711300Y-39963000D02*
X12710464Y-39971486D01*
X9830632Y-39999170D02*
X9824041Y-39993760D01*
X9846314Y-35307335D02*
X9854800Y-35306500D01*
X9854800Y-40006500D02*
X9846314Y-40005665D01*
X12707987Y-39979648D02*
X12703969Y-39987168D01*
X12707987Y-35333352D02*
X12710464Y-35341514D01*
X12703969Y-39987168D02*
X12698559Y-39993760D01*
X12691968Y-35313830D02*
X12698559Y-35319240D01*
X9812136Y-39971486D02*
X9811300Y-39963000D01*
X9818631Y-39987168D02*
X9814613Y-39979648D01*
X12676286Y-35307335D02*
X12684447Y-35309812D01*
X12698559Y-35319240D02*
X12703969Y-35325832D01*
X9818631Y-35325832D02*
X9824041Y-35319240D01*
X12667800Y-40006500D02*
X9854800Y-40006500D01*
X12703969Y-35325832D02*
X12707987Y-35333352D01*
X9854800Y-35306500D02*
X12667800Y-35306500D01*
X12711300Y-35350000D02*
X12711300Y-39963000D01*
X9812136Y-35341514D02*
X9814613Y-35333352D01*
X9824041Y-39993760D02*
X9818631Y-39987168D01*
X9838153Y-35309812D02*
X9846314Y-35307335D01*
X12684447Y-40003188D02*
X12676286Y-40005665D01*
X12691968Y-39999170D02*
X12684447Y-40003188D01*
X9824041Y-35319240D02*
X9830632Y-35313830D01*
X9814613Y-35333352D02*
X9818631Y-35325832D01*
X12698559Y-39993760D02*
X12691968Y-39999170D01*
X9838153Y-40003188D02*
X9830632Y-39999170D01*
X12710464Y-35341514D02*
X12711300Y-35350000D01*
X9811300Y-39963000D02*
X9811300Y-35350000D01*
X9814613Y-39979648D02*
X9812136Y-39971486D01*
X12676286Y-40005665D02*
X12667800Y-40006500D01*
X9830632Y-35313830D02*
X9838153Y-35309812D01*
X12710464Y-39971486D02*
X12707987Y-39979648D01*
X12684447Y-35309812D02*
X12691968Y-35313830D01*
X9846314Y-40005665D02*
X9838153Y-40003188D01*
X9811300Y-35350000D02*
X9812136Y-35341514D01*
X12667800Y-35306500D02*
X12676286Y-35307335D01*
X12711300Y-39963000D02*
X12710464Y-39971486D01*
X9830632Y-39999170D02*
X9824041Y-39993760D01*
X9846314Y-35307335D02*
X9854800Y-35306500D01*
X9854800Y-40006500D02*
X9846314Y-40005665D01*
X12707987Y-39979648D02*
X12703969Y-39987168D01*
G04 #@! TD*
D11*
G04 #@! TO.C,J7*
X34840000Y-7366000D03*
X32300000Y-7329000D03*
D12*
X39920000Y-5206000D03*
D13*
X37380000Y-5206000D03*
X34840000Y-5206000D03*
X32300000Y-5206000D03*
G04 #@! TD*
D14*
G04 #@! TO.C,R16*
X52070000Y-67541000D03*
X52070000Y-66571000D03*
G04 #@! TD*
G04 #@! TO.C,R33*
X45021500Y-67541000D03*
X45021500Y-66571000D03*
G04 #@! TD*
D15*
G04 #@! TO.C,R20*
X25423000Y-8306840D03*
X26393000Y-8306840D03*
G04 #@! TD*
D16*
G04 #@! TO.C,TP4*
X45923200Y-63754000D03*
G04 #@! TD*
D15*
G04 #@! TO.C,R25*
X25423000Y-9398000D03*
X26393000Y-9398000D03*
G04 #@! TD*
D17*
G04 #@! TO.C,Q3*
X55388000Y-2352000D03*
X55388000Y-4252000D03*
X57388000Y-3302000D03*
G04 #@! TD*
D18*
G04 #@! TO.C,R22*
X31750000Y-66317000D03*
X31750000Y-67287000D03*
G04 #@! TD*
D19*
G04 #@! TO.C,L1*
X53340000Y-38184000D03*
X53340000Y-48684000D03*
G04 #@! TD*
D18*
G04 #@! TO.C,R42*
X49530000Y-66571000D03*
X49530000Y-67541000D03*
G04 #@! TD*
D20*
G04 #@! TO.C,J5*
X64312800Y-31252000D03*
D21*
X64312800Y-33792000D03*
X64312800Y-36332000D03*
X64312800Y-38872000D03*
G04 #@! TD*
D22*
G04 #@! TO.C,J1*
X65710000Y-9626000D03*
D23*
X71710000Y-9626000D03*
D24*
X68710000Y-4926000D03*
G04 #@! TD*
D25*
G04 #@! TO.C,J3*
X3835400Y-20548600D03*
D26*
X5835400Y-20548600D03*
G04 #@! TD*
D27*
G04 #@! TO.C,J4*
X18433800Y-20556400D03*
D26*
X16433800Y-20556400D03*
G04 #@! TD*
D18*
G04 #@! TO.C,R38*
X21590000Y-63269000D03*
X21590000Y-64239000D03*
G04 #@! TD*
D28*
G04 #@! TO.C,L2*
X52267940Y-60109820D03*
X49217940Y-60109820D03*
G04 #@! TD*
D29*
G04 #@! TO.C,Q1*
X24590000Y-4712000D03*
X26490000Y-4712000D03*
X25540000Y-2712000D03*
G04 #@! TD*
D30*
G04 #@! TO.C,R2*
X25709380Y-6316140D03*
X24739380Y-6316140D03*
G04 #@! TD*
D15*
G04 #@! TO.C,R18*
X25423000Y-1270000D03*
X26393000Y-1270000D03*
G04 #@! TD*
D31*
G04 #@! TO.C,R32*
X25234947Y-59855053D03*
X24549053Y-60540947D03*
G04 #@! TD*
D32*
G04 #@! TO.C,C40*
X29883053Y-59347053D03*
X30568947Y-60032947D03*
G04 #@! TD*
D30*
G04 #@! TO.C,R27*
X55730000Y-762000D03*
X54760000Y-762000D03*
G04 #@! TD*
D18*
G04 #@! TO.C,C8*
X38700000Y-19965000D03*
X38700000Y-20935000D03*
G04 #@! TD*
D33*
G04 #@! TO.C,D1*
X55796000Y-32512000D03*
X57996000Y-32512000D03*
G04 #@! TD*
D15*
G04 #@! TO.C,C28*
X56411000Y-34290000D03*
X57381000Y-34290000D03*
G04 #@! TD*
D31*
G04 #@! TO.C,R41*
X34290000Y-55118000D03*
X33604106Y-55803894D03*
G04 #@! TD*
D34*
G04 #@! TO.C,C35*
X31153053Y-50380947D03*
X31838947Y-49695053D03*
G04 #@! TD*
G04 #@! TO.C,R34*
X32804053Y-45681947D03*
X33489947Y-44996053D03*
G04 #@! TD*
D18*
G04 #@! TO.C,R8*
X37450000Y-19965000D03*
X37450000Y-20935000D03*
G04 #@! TD*
D14*
G04 #@! TO.C,R39*
X13884000Y-50385000D03*
X13884000Y-49415000D03*
G04 #@! TD*
G04 #@! TO.C,C3*
X36000000Y-20935000D03*
X36000000Y-19965000D03*
G04 #@! TD*
D35*
G04 #@! TO.C,U1*
X43278000Y-24705000D03*
X41578000Y-24705000D03*
D36*
X39878000Y-33855000D03*
D35*
X39878000Y-24705000D03*
X38178000Y-24705000D03*
X36478000Y-24705000D03*
G04 #@! TD*
D37*
G04 #@! TO.C,C1*
X53086000Y-21400000D03*
X53086000Y-29400000D03*
G04 #@! TD*
D18*
G04 #@! TO.C,R40*
X15084000Y-49415000D03*
X15084000Y-50385000D03*
G04 #@! TD*
D38*
G04 #@! TO.C,C41*
X23456947Y-50634947D03*
X22771053Y-49949053D03*
G04 #@! TD*
D14*
G04 #@! TO.C,C63*
X62800000Y-6185000D03*
X62800000Y-5215000D03*
G04 #@! TD*
D32*
G04 #@! TO.C,C48*
X31153053Y-58077053D03*
X31838947Y-58762947D03*
G04 #@! TD*
D34*
G04 #@! TO.C,C42*
X29375053Y-49110947D03*
X30060947Y-48425053D03*
G04 #@! TD*
D32*
G04 #@! TO.C,C46*
X31915053Y-57315053D03*
X32600947Y-58000947D03*
G04 #@! TD*
D39*
G04 #@! TO.C,D14*
X40000000Y-16575000D03*
X44000000Y-16575000D03*
G04 #@! TD*
D15*
G04 #@! TO.C,C43*
X38859600Y-54102000D03*
X39829600Y-54102000D03*
G04 #@! TD*
D34*
G04 #@! TO.C,C44*
X31915053Y-51142947D03*
X32600947Y-50457053D03*
G04 #@! TD*
D31*
G04 #@! TO.C,C45*
X21170947Y-58839053D03*
X20485053Y-59524947D03*
G04 #@! TD*
D38*
G04 #@! TO.C,C53*
X28028947Y-47840947D03*
X27343053Y-47155053D03*
G04 #@! TD*
D31*
G04 #@! TO.C,C50*
X23710947Y-58585053D03*
X23025053Y-59270947D03*
G04 #@! TD*
D18*
G04 #@! TO.C,C4*
X60477400Y-31265000D03*
X60477400Y-32235000D03*
G04 #@! TD*
D15*
G04 #@! TO.C,C55*
X35837000Y-12446000D03*
X36807000Y-12446000D03*
G04 #@! TD*
D30*
G04 #@! TO.C,C57*
X35283000Y-16256000D03*
X34313000Y-16256000D03*
G04 #@! TD*
D38*
G04 #@! TO.C,C49*
X22186947Y-51904947D03*
X21501053Y-51219053D03*
G04 #@! TD*
G04 #@! TO.C,C47*
X24980947Y-49110947D03*
X24295053Y-48425053D03*
G04 #@! TD*
D14*
G04 #@! TO.C,C51*
X11887200Y-67947400D03*
X11887200Y-66977400D03*
G04 #@! TD*
D31*
G04 #@! TO.C,C52*
X20916947Y-55537053D03*
X20231053Y-56222947D03*
G04 #@! TD*
D18*
G04 #@! TO.C,R1*
X43861000Y-19504200D03*
X43861000Y-20474200D03*
G04 #@! TD*
D40*
G04 #@! TO.C,H3*
X7014300Y-5637800D03*
G04 #@! TD*
D41*
G04 #@! TO.C,C6*
X66598800Y-48243000D03*
X66598800Y-55643000D03*
G04 #@! TD*
D42*
G04 #@! TO.C,U5*
X12371500Y-52400000D03*
X12371500Y-53050000D03*
X12371500Y-53700000D03*
X12371500Y-54350000D03*
X12371500Y-55000000D03*
X12371500Y-55650000D03*
X12371500Y-56300000D03*
X18096500Y-56300000D03*
X18096500Y-55650000D03*
X18096500Y-55000000D03*
X18096500Y-54350000D03*
X18096500Y-53700000D03*
X18096500Y-53050000D03*
X18096500Y-52400000D03*
G04 #@! TD*
D43*
G04 #@! TO.C,R24*
X18100000Y-59787500D03*
X18100000Y-58212500D03*
G04 #@! TD*
D16*
G04 #@! TO.C,TP18*
X70358000Y-81026000D03*
G04 #@! TD*
D18*
G04 #@! TO.C,C7*
X53928100Y-62219000D03*
X53928100Y-63189000D03*
G04 #@! TD*
G04 #@! TO.C,R4*
X55704000Y-63619000D03*
X55704000Y-64589000D03*
G04 #@! TD*
G04 #@! TO.C,C5*
X57479020Y-56284720D03*
X57479020Y-57254720D03*
G04 #@! TD*
D44*
G04 #@! TO.C,D15*
X54941560Y-57632320D03*
X54941560Y-54332320D03*
G04 #@! TD*
D45*
G04 #@! TO.C,J6*
X3552000Y-70746000D03*
D21*
X3552000Y-73286000D03*
X6092000Y-70746000D03*
X6092000Y-73286000D03*
X8632000Y-70746000D03*
X8632000Y-73286000D03*
X11172000Y-70746000D03*
X11172000Y-73286000D03*
X13712000Y-70746000D03*
X13712000Y-73286000D03*
X16252000Y-70746000D03*
X16252000Y-73286000D03*
X18792000Y-70746000D03*
X18792000Y-73286000D03*
X21332000Y-70746000D03*
X21332000Y-73286000D03*
X23872000Y-70746000D03*
X23872000Y-73286000D03*
X26412000Y-70746000D03*
X26412000Y-73286000D03*
X28952000Y-70746000D03*
X28952000Y-73286000D03*
X31492000Y-70746000D03*
X31492000Y-73286000D03*
X34032000Y-70746000D03*
X34032000Y-73286000D03*
X36572000Y-70746000D03*
X36572000Y-73286000D03*
X39112000Y-70746000D03*
X39112000Y-73286000D03*
X41652000Y-70746000D03*
X41652000Y-73286000D03*
X44192000Y-70746000D03*
X44192000Y-73286000D03*
X46732000Y-70746000D03*
X46732000Y-73286000D03*
X49272000Y-70746000D03*
X49272000Y-73286000D03*
X51812000Y-70746000D03*
X51812000Y-73286000D03*
G04 #@! TD*
D46*
G04 #@! TO.C,X1*
X25766579Y-64052660D03*
X26968660Y-62850579D03*
X26049421Y-61931340D03*
X24847340Y-63133421D03*
G04 #@! TD*
D47*
G04 #@! TO.C,FB8*
X60200000Y-6537500D03*
X60200000Y-2262500D03*
G04 #@! TD*
D41*
G04 #@! TO.C,C64*
X51562000Y-7730000D03*
X51562000Y-15130000D03*
G04 #@! TD*
D40*
G04 #@! TO.C,H4*
X7014300Y-63626000D03*
G04 #@! TD*
D34*
G04 #@! TO.C,R5*
X33566053Y-46443947D03*
X34251947Y-45758053D03*
G04 #@! TD*
D48*
G04 #@! TO.C,U7*
X55386020Y-62042120D03*
X56336020Y-62042120D03*
X57286020Y-62042120D03*
X57286020Y-59422120D03*
X56336020Y-59422120D03*
X55386020Y-59422120D03*
G04 #@! TD*
D49*
G04 #@! TO.C,C37*
X49488080Y-56685900D03*
X51063080Y-56685900D03*
G04 #@! TD*
D40*
G04 #@! TO.C,H1*
X67021800Y-20623800D03*
G04 #@! TD*
D14*
G04 #@! TO.C,R3*
X56904000Y-64589000D03*
X56904000Y-63619000D03*
G04 #@! TD*
D50*
G04 #@! TO.C,H2*
X67034500Y-63638700D03*
G04 #@! TD*
D51*
G04 #@! TO.C,FB5*
X35989500Y-14478000D03*
X34114500Y-14478000D03*
G04 #@! TD*
D52*
G04 #@! TO.C,C17*
X3692500Y-34382700D03*
X3692500Y-35957700D03*
G04 #@! TD*
G04 #@! TO.C,C20*
X1990700Y-34382700D03*
X1990700Y-35957700D03*
G04 #@! TD*
D49*
G04 #@! TO.C,C19*
X2015900Y-32731800D03*
X3590900Y-32731800D03*
G04 #@! TD*
D52*
G04 #@! TO.C,R19*
X39300000Y-65712500D03*
X39300000Y-67287500D03*
G04 #@! TD*
D18*
G04 #@! TO.C,C62*
X12811000Y-24499800D03*
X12811000Y-25469800D03*
G04 #@! TD*
D53*
G04 #@! TO.C,U4*
X30525500Y-37830500D03*
D54*
X24225500Y-35530500D03*
D53*
X30525500Y-35530500D03*
X30525500Y-33230500D03*
G04 #@! TD*
D18*
G04 #@! TO.C,R6*
X6361300Y-37171500D03*
X6361300Y-38141500D03*
G04 #@! TD*
D55*
G04 #@! TO.C,U3*
X8311301Y-33156499D03*
X8311301Y-33656498D03*
X8311301Y-34156499D03*
X8311301Y-34656498D03*
X8311301Y-35156500D03*
X8311301Y-35656499D03*
X8311301Y-36156498D03*
X8311301Y-36656499D03*
X8311301Y-37156498D03*
X8311301Y-37656500D03*
X8311301Y-38156499D03*
X8311301Y-38656498D03*
X8311301Y-39156500D03*
X8311301Y-39656499D03*
X8311301Y-40156500D03*
X8311301Y-40656499D03*
X8311301Y-41156498D03*
X8311301Y-41656500D03*
X8311301Y-42156499D03*
X14211302Y-42156499D03*
X14211302Y-41656500D03*
X14211302Y-41156498D03*
X14211302Y-40656499D03*
X14211302Y-40156500D03*
X14211302Y-39656499D03*
X14211302Y-39156500D03*
X14211302Y-38656498D03*
X14211302Y-38156499D03*
X14211302Y-37656500D03*
X14211302Y-37156498D03*
X14211302Y-36656499D03*
X14211302Y-36156498D03*
X14211302Y-35656499D03*
X14211302Y-35156500D03*
X14211302Y-34656498D03*
X14211302Y-34156499D03*
X14211302Y-33656498D03*
X14211302Y-33156499D03*
D56*
X11261300Y-33106499D03*
X9961300Y-40906501D03*
X9961300Y-35706499D03*
X12561300Y-35706499D03*
X12561300Y-38306501D03*
X12561300Y-37006499D03*
X9961300Y-39606501D03*
X12561300Y-33106499D03*
X11261300Y-40906501D03*
X12561300Y-39606501D03*
X12561300Y-34406499D03*
X9961300Y-37006499D03*
X11261300Y-34406499D03*
X11261300Y-38306501D03*
X9961300Y-34406499D03*
X11261300Y-37006499D03*
X11261300Y-35706499D03*
X9961300Y-38306501D03*
X12561300Y-40906501D03*
X9961300Y-33106499D03*
X11261300Y-39606501D03*
X9961300Y-42206501D03*
X12561300Y-42206501D03*
X11261300Y-42206501D03*
D57*
X11261300Y-37656500D03*
G04 #@! TD*
D18*
G04 #@! TO.C,C10*
X4211300Y-37171500D03*
X4211300Y-38141500D03*
G04 #@! TD*
G04 #@! TO.C,C61*
X5334000Y-42263200D03*
X5334000Y-43233200D03*
G04 #@! TD*
D49*
G04 #@! TO.C,C60*
X25112500Y-31000000D03*
X26687500Y-31000000D03*
G04 #@! TD*
D15*
G04 #@! TO.C,R50*
X18085680Y-41945920D03*
X19055680Y-41945920D03*
G04 #@! TD*
D30*
G04 #@! TO.C,C59*
X30520499Y-31178500D03*
X29550499Y-31178500D03*
G04 #@! TD*
D58*
G04 #@! TO.C,FB4*
X14538200Y-24931000D03*
X14538200Y-27731000D03*
G04 #@! TD*
G04 #@! TO.C,FB3*
X17840200Y-24931000D03*
X17840200Y-27731000D03*
G04 #@! TD*
D18*
G04 #@! TO.C,C11*
X5281300Y-37166500D03*
X5281300Y-38136500D03*
G04 #@! TD*
D49*
G04 #@! TO.C,C23*
X13801500Y-31309400D03*
X15376500Y-31309400D03*
G04 #@! TD*
D15*
G04 #@! TO.C,C16*
X3736300Y-39751500D03*
X4706300Y-39751500D03*
G04 #@! TD*
D49*
G04 #@! TO.C,C26*
X17154300Y-29645700D03*
X18729300Y-29645700D03*
G04 #@! TD*
D52*
G04 #@! TO.C,C14*
X20896300Y-34382700D03*
X20896300Y-35957700D03*
G04 #@! TD*
D18*
G04 #@! TO.C,C39*
X19592800Y-24499800D03*
X19592800Y-25469800D03*
G04 #@! TD*
D49*
G04 #@! TO.C,C18*
X19273400Y-32675700D03*
X20848400Y-32675700D03*
G04 #@! TD*
D14*
G04 #@! TO.C,C24*
X19114100Y-40746900D03*
X19114100Y-39776900D03*
G04 #@! TD*
G04 #@! TO.C,C21*
X17082100Y-40723900D03*
X17082100Y-39753900D03*
G04 #@! TD*
D18*
G04 #@! TO.C,C12*
X6454000Y-42268200D03*
X6454000Y-43238200D03*
G04 #@! TD*
D52*
G04 #@! TO.C,C13*
X19071300Y-34382700D03*
X19071300Y-35957700D03*
G04 #@! TD*
D30*
G04 #@! TO.C,C15*
X17782400Y-36957000D03*
X16812400Y-36957000D03*
G04 #@! TD*
D58*
G04 #@! TO.C,FB1*
X4581400Y-24931000D03*
X4581400Y-27731000D03*
G04 #@! TD*
G04 #@! TO.C,FB2*
X7946900Y-24931000D03*
X7946900Y-27731000D03*
G04 #@! TD*
D18*
G04 #@! TO.C,C27*
X2854200Y-24626800D03*
X2854200Y-25596800D03*
G04 #@! TD*
D59*
G04 #@! TO.C,C25*
X5241900Y-29645700D03*
X3666900Y-29645700D03*
G04 #@! TD*
G04 #@! TO.C,C22*
X8467700Y-31309400D03*
X6892700Y-31309400D03*
G04 #@! TD*
D18*
G04 #@! TO.C,C38*
X9788400Y-24626800D03*
X9788400Y-25596800D03*
G04 #@! TD*
D14*
G04 #@! TO.C,R65*
X17750000Y-67687000D03*
X17750000Y-66717000D03*
G04 #@! TD*
D60*
G04 #@! TO.C,TP29*
X7289800Y-52857400D03*
G04 #@! TD*
G04 #@! TO.C,TP30*
X23500000Y-67400000D03*
G04 #@! TD*
G04 #@! TO.C,TP31*
X43307000Y-52578000D03*
G04 #@! TD*
G04 #@! TO.C,TP32*
X17957800Y-11531600D03*
G04 #@! TD*
D16*
G04 #@! TO.C,TP33*
X27254200Y-40208200D03*
G04 #@! TD*
G04 #@! TO.C,TP34*
X20878800Y-39420800D03*
G04 #@! TD*
G04 #@! TO.C,TP3*
X41986200Y-43789600D03*
G04 #@! TD*
G04 #@! TO.C,TP8*
X44386500Y-3619500D03*
G04 #@! TD*
G04 #@! TO.C,TP12*
X48069500Y-3556000D03*
G04 #@! TD*
G04 #@! TO.C,TP13*
X52006500Y-3556000D03*
G04 #@! TD*
D61*
G04 #@! TO.C,J11*
X69723000Y-31593400D03*
D62*
X72263000Y-31593400D03*
X69723000Y-34133400D03*
X72263000Y-34133400D03*
X69723000Y-36673400D03*
X72263000Y-36673400D03*
X69723000Y-39213400D03*
X72263000Y-39213400D03*
X69723000Y-41753400D03*
X72263000Y-41753400D03*
G04 #@! TD*
D63*
G04 #@! TO.C,R10*
X18594800Y-47548800D03*
X17574800Y-47548800D03*
G04 #@! TD*
D31*
G04 #@! TO.C,C36*
X22186947Y-56807053D03*
X21501053Y-57492947D03*
G04 #@! TD*
D64*
G04 #@! TO.C,U8*
X27672975Y-58810773D03*
X27955817Y-58527930D03*
X28238660Y-58245087D03*
X28521503Y-57962245D03*
X28804346Y-57679402D03*
X29087188Y-57396559D03*
X29370031Y-57113716D03*
X29652874Y-56830874D03*
X29935716Y-56548031D03*
X30218559Y-56265188D03*
X30501402Y-55982346D03*
X30784245Y-55699503D03*
X31067087Y-55416660D03*
X31349930Y-55133817D03*
X31632773Y-54850975D03*
D65*
X31632773Y-53861025D03*
X31349930Y-53578183D03*
D66*
X31067087Y-53295340D03*
X30784245Y-53012497D03*
X30501402Y-52729654D03*
X30218559Y-52446812D03*
X29935716Y-52163969D03*
X29652874Y-51881126D03*
X29370031Y-51598284D03*
X29087188Y-51315441D03*
X28804346Y-51032598D03*
X28521503Y-50749755D03*
X28238660Y-50466913D03*
X27955817Y-50184070D03*
X27672975Y-49901227D03*
D67*
X26683025Y-49901227D03*
X26400183Y-50184070D03*
X26117340Y-50466913D03*
X25834497Y-50749755D03*
D64*
X25551654Y-51032598D03*
X25268812Y-51315441D03*
X24985969Y-51598284D03*
X24703126Y-51881126D03*
X24420284Y-52163969D03*
X24137441Y-52446812D03*
X23854598Y-52729654D03*
X23571755Y-53012497D03*
X23288913Y-53295340D03*
X23006070Y-53578183D03*
D68*
X22723227Y-53861025D03*
D65*
X22723227Y-54850975D03*
X23006070Y-55133817D03*
X23288913Y-55416660D03*
X23571755Y-55699503D03*
X23854598Y-55982346D03*
X24137441Y-56265188D03*
D66*
X24420284Y-56548031D03*
X24703126Y-56830874D03*
X24985969Y-57113716D03*
X25268812Y-57396559D03*
X25551654Y-57679402D03*
X25834497Y-57962245D03*
X26117340Y-58245087D03*
X26400183Y-58527930D03*
X26683025Y-58810773D03*
D69*
X29209518Y-55018559D03*
X27795304Y-53604345D03*
X26381091Y-56432773D03*
X25673984Y-52897239D03*
X24966877Y-55018559D03*
X27795304Y-55018559D03*
D70*
X26998395Y-54176395D03*
D69*
X27088197Y-55725666D03*
X27795304Y-56432773D03*
D71*
X27178000Y-57184427D03*
D69*
X28502411Y-55725666D03*
X29916625Y-54311452D03*
X27088197Y-52897239D03*
X29209518Y-53604345D03*
X28502411Y-54311452D03*
X25673984Y-54311452D03*
X28502411Y-52897239D03*
X26381091Y-55018559D03*
D72*
X27357605Y-54176395D03*
D69*
X24966877Y-53604345D03*
X24259770Y-54311452D03*
X26381091Y-52190132D03*
X27088197Y-51483025D03*
X27088197Y-54311452D03*
X27088197Y-57139879D03*
X27795304Y-52190132D03*
X25673984Y-55725666D03*
X26381091Y-53604345D03*
G04 #@! TD*
D73*
G04 #@! TO.C,R21*
X47325000Y-52600000D03*
X45675000Y-52600000D03*
G04 #@! TD*
D74*
G04 #@! TO.C,R9*
X14500000Y-63810000D03*
X14500000Y-62790000D03*
G04 #@! TD*
G04 #@! TO.C,R14*
X27000000Y-67710000D03*
X27000000Y-66690000D03*
G04 #@! TD*
D75*
G04 #@! TO.C,R11*
X20900000Y-67425000D03*
X20900000Y-65775000D03*
G04 #@! TD*
D76*
G04 #@! TO.C,C65*
X35001200Y-65966400D03*
X35001200Y-66926400D03*
G04 #@! TD*
D77*
G04 #@! TO.C,D19*
X46050000Y-46600000D03*
X43950000Y-46600000D03*
G04 #@! TD*
D78*
G04 #@! TO.C,D20*
X39650000Y-11000000D03*
X43950000Y-11000000D03*
G04 #@! TD*
D79*
G04 #@! TO.C,C32*
X20551200Y-46685200D03*
X21511200Y-46685200D03*
G04 #@! TD*
D74*
G04 #@! TO.C,R12*
X19600000Y-67220000D03*
X19600000Y-66200000D03*
G04 #@! TD*
D80*
G04 #@! TO.C,C2*
X22936200Y-3604200D03*
X22936200Y-2644200D03*
G04 #@! TD*
D81*
G04 #@! TO.C,R64*
X14478000Y-66485000D03*
X14478000Y-68135000D03*
G04 #@! TD*
D76*
G04 #@! TO.C,C29*
X4318000Y-52352000D03*
X4318000Y-53312000D03*
G04 #@! TD*
D20*
G04 #@! TO.C,J12*
X26004600Y-14594600D03*
D21*
X28544600Y-14594600D03*
X26004600Y-17134600D03*
X28544600Y-17134600D03*
X26004600Y-19674600D03*
X28544600Y-19674600D03*
G04 #@! TD*
D82*
G04 #@! TO.C,D16*
X60000000Y-9050000D03*
X60000000Y-13350000D03*
G04 #@! TD*
D83*
G04 #@! TO.C,J9*
X20259200Y-1955800D03*
D21*
X17719200Y-1955800D03*
X15179200Y-1955800D03*
X12639200Y-1955800D03*
G04 #@! TD*
D74*
G04 #@! TO.C,R15*
X29300000Y-67220000D03*
X29300000Y-66200000D03*
G04 #@! TD*
D79*
G04 #@! TO.C,C33*
X26291600Y-28600400D03*
X27251600Y-28600400D03*
G04 #@! TD*
D74*
G04 #@! TO.C,R7*
X13300000Y-63810000D03*
X13300000Y-62790000D03*
G04 #@! TD*
D84*
G04 #@! TO.C,SW1*
X16223200Y-10742800D03*
X16223200Y-13742800D03*
G04 #@! TD*
G36*
X55760287Y-61415421D02*
G01*
X55811966Y-61458609D01*
X55880681Y-61467240D01*
X55943311Y-61437276D01*
X55961368Y-61416438D01*
X55963258Y-61415784D01*
X55964769Y-61417094D01*
X55964841Y-61418138D01*
X55962020Y-61432319D01*
X55962020Y-62651921D01*
X55964998Y-62666894D01*
X55964355Y-62668788D01*
X55962393Y-62669178D01*
X55961753Y-62668819D01*
X55910074Y-62625631D01*
X55841359Y-62617000D01*
X55778729Y-62646964D01*
X55760672Y-62667802D01*
X55758782Y-62668456D01*
X55757271Y-62667146D01*
X55757199Y-62666102D01*
X55760020Y-62651921D01*
X55760020Y-61432319D01*
X55757042Y-61417346D01*
X55757685Y-61415452D01*
X55759647Y-61415062D01*
X55760287Y-61415421D01*
G37*
G36*
X56710287Y-61415421D02*
G01*
X56761966Y-61458609D01*
X56830681Y-61467240D01*
X56893311Y-61437276D01*
X56911368Y-61416438D01*
X56913258Y-61415784D01*
X56914769Y-61417094D01*
X56914841Y-61418138D01*
X56912020Y-61432319D01*
X56912020Y-62651921D01*
X56914998Y-62666894D01*
X56914355Y-62668788D01*
X56912393Y-62669178D01*
X56911753Y-62668819D01*
X56860074Y-62625631D01*
X56791359Y-62617000D01*
X56728729Y-62646964D01*
X56710672Y-62667802D01*
X56708782Y-62668456D01*
X56707271Y-62667146D01*
X56707199Y-62666102D01*
X56710020Y-62651921D01*
X56710020Y-61432319D01*
X56707042Y-61417346D01*
X56707685Y-61415452D01*
X56709647Y-61415062D01*
X56710287Y-61415421D01*
G37*
G36*
X56710287Y-58795421D02*
G01*
X56761966Y-58838609D01*
X56830681Y-58847240D01*
X56893311Y-58817276D01*
X56911368Y-58796438D01*
X56913258Y-58795784D01*
X56914769Y-58797094D01*
X56914841Y-58798138D01*
X56912020Y-58812319D01*
X56912020Y-60031921D01*
X56914998Y-60046894D01*
X56914355Y-60048788D01*
X56912393Y-60049178D01*
X56911753Y-60048819D01*
X56860074Y-60005631D01*
X56791359Y-59997000D01*
X56728729Y-60026964D01*
X56710672Y-60047802D01*
X56708782Y-60048456D01*
X56707271Y-60047146D01*
X56707199Y-60046102D01*
X56710020Y-60031921D01*
X56710020Y-58812319D01*
X56707042Y-58797346D01*
X56707685Y-58795452D01*
X56709647Y-58795062D01*
X56710287Y-58795421D01*
G37*
G36*
X55760287Y-58795421D02*
G01*
X55811966Y-58838609D01*
X55880681Y-58847240D01*
X55943311Y-58817276D01*
X55961368Y-58796438D01*
X55963258Y-58795784D01*
X55964769Y-58797094D01*
X55964841Y-58798138D01*
X55962020Y-58812319D01*
X55962020Y-60031921D01*
X55964998Y-60046894D01*
X55964355Y-60048788D01*
X55962393Y-60049178D01*
X55961753Y-60048819D01*
X55910074Y-60005631D01*
X55841359Y-59997000D01*
X55778729Y-60026964D01*
X55760672Y-60047802D01*
X55758782Y-60048456D01*
X55757271Y-60047146D01*
X55757199Y-60046102D01*
X55760020Y-60031921D01*
X55760020Y-58812319D01*
X55757042Y-58797346D01*
X55757685Y-58795452D01*
X55759647Y-58795062D01*
X55760287Y-58795421D01*
G37*
G36*
X26792959Y-58311612D02*
G01*
X26793602Y-58312726D01*
X26794872Y-58319111D01*
X26827103Y-58380726D01*
X26891864Y-58416088D01*
X26898228Y-58417354D01*
X26899732Y-58418673D01*
X26899342Y-58420635D01*
X26898228Y-58421278D01*
X26866124Y-58427665D01*
X26833852Y-58449228D01*
X26321480Y-58961600D01*
X26299917Y-58993872D01*
X26293530Y-59025977D01*
X26292211Y-59027481D01*
X26290249Y-59027091D01*
X26289606Y-59025977D01*
X26288336Y-59019592D01*
X26256105Y-58957977D01*
X26191344Y-58922615D01*
X26184980Y-58921349D01*
X26183476Y-58920030D01*
X26183866Y-58918068D01*
X26184980Y-58917425D01*
X26217084Y-58911038D01*
X26249356Y-58889475D01*
X26761728Y-58377103D01*
X26783291Y-58344831D01*
X26789678Y-58312726D01*
X26790997Y-58311222D01*
X26792959Y-58311612D01*
G37*
G36*
X27565679Y-58311612D02*
G01*
X27566322Y-58312726D01*
X27572709Y-58344831D01*
X27594272Y-58377103D01*
X28106644Y-58889475D01*
X28138916Y-58911038D01*
X28171020Y-58917425D01*
X28172524Y-58918744D01*
X28172134Y-58920706D01*
X28171020Y-58921349D01*
X28164639Y-58922618D01*
X28103023Y-58954848D01*
X28067661Y-59019609D01*
X28066394Y-59025977D01*
X28065075Y-59027481D01*
X28063113Y-59027091D01*
X28062470Y-59025977D01*
X28056083Y-58993872D01*
X28034520Y-58961600D01*
X27522148Y-58449228D01*
X27489876Y-58427665D01*
X27457772Y-58421278D01*
X27456268Y-58419959D01*
X27456658Y-58417997D01*
X27457772Y-58417354D01*
X27464153Y-58416085D01*
X27525769Y-58383855D01*
X27561131Y-58319094D01*
X27562398Y-58312726D01*
X27563717Y-58311222D01*
X27565679Y-58311612D01*
G37*
G36*
X27848522Y-58028770D02*
G01*
X27849165Y-58029884D01*
X27855552Y-58061988D01*
X27877115Y-58094260D01*
X28389487Y-58606632D01*
X28421759Y-58628195D01*
X28453863Y-58634582D01*
X28455367Y-58635901D01*
X28454977Y-58637863D01*
X28453863Y-58638506D01*
X28447481Y-58639775D01*
X28385865Y-58672005D01*
X28350502Y-58736768D01*
X28349236Y-58743133D01*
X28347917Y-58744637D01*
X28345955Y-58744247D01*
X28345312Y-58743133D01*
X28338925Y-58711029D01*
X28317362Y-58678757D01*
X27804990Y-58166385D01*
X27772718Y-58144822D01*
X27740614Y-58138435D01*
X27739110Y-58137116D01*
X27739500Y-58135154D01*
X27740614Y-58134511D01*
X27746996Y-58133242D01*
X27808612Y-58101012D01*
X27843975Y-58036249D01*
X27845241Y-58029884D01*
X27846560Y-58028380D01*
X27848522Y-58028770D01*
G37*
G36*
X26510116Y-58028770D02*
G01*
X26510759Y-58029884D01*
X26512028Y-58036266D01*
X26544258Y-58097882D01*
X26609021Y-58133245D01*
X26615386Y-58134511D01*
X26616890Y-58135830D01*
X26616500Y-58137792D01*
X26615386Y-58138435D01*
X26583282Y-58144822D01*
X26551010Y-58166385D01*
X26038638Y-58678757D01*
X26017075Y-58711029D01*
X26010688Y-58743133D01*
X26009369Y-58744637D01*
X26007407Y-58744247D01*
X26006764Y-58743133D01*
X26005495Y-58736751D01*
X25973265Y-58675135D01*
X25908502Y-58639772D01*
X25902137Y-58638506D01*
X25900633Y-58637187D01*
X25901023Y-58635225D01*
X25902137Y-58634582D01*
X25934241Y-58628195D01*
X25966513Y-58606632D01*
X26478885Y-58094260D01*
X26500448Y-58061988D01*
X26506835Y-58029884D01*
X26508154Y-58028380D01*
X26510116Y-58028770D01*
G37*
G36*
X26227273Y-57745928D02*
G01*
X26227916Y-57747042D01*
X26229185Y-57753423D01*
X26261415Y-57815039D01*
X26326176Y-57850401D01*
X26332544Y-57851668D01*
X26334048Y-57852987D01*
X26333658Y-57854949D01*
X26332544Y-57855592D01*
X26300439Y-57861979D01*
X26268167Y-57883542D01*
X25755795Y-58395914D01*
X25734232Y-58428186D01*
X25727845Y-58460290D01*
X25726526Y-58461794D01*
X25724564Y-58461404D01*
X25723921Y-58460290D01*
X25722652Y-58453909D01*
X25690422Y-58392293D01*
X25625661Y-58356931D01*
X25619293Y-58355664D01*
X25617789Y-58354345D01*
X25618179Y-58352383D01*
X25619293Y-58351740D01*
X25651398Y-58345353D01*
X25683670Y-58323790D01*
X26196042Y-57811418D01*
X26217605Y-57779146D01*
X26223992Y-57747042D01*
X26225311Y-57745538D01*
X26227273Y-57745928D01*
G37*
G36*
X28131365Y-57745928D02*
G01*
X28132008Y-57747042D01*
X28138395Y-57779146D01*
X28159958Y-57811418D01*
X28672330Y-58323790D01*
X28704602Y-58345353D01*
X28736707Y-58351740D01*
X28738211Y-58353059D01*
X28737821Y-58355021D01*
X28736707Y-58355664D01*
X28730322Y-58356934D01*
X28668707Y-58389165D01*
X28633345Y-58453926D01*
X28632079Y-58460290D01*
X28630760Y-58461794D01*
X28628798Y-58461404D01*
X28628155Y-58460290D01*
X28621768Y-58428186D01*
X28600205Y-58395914D01*
X28087833Y-57883542D01*
X28055561Y-57861979D01*
X28023456Y-57855592D01*
X28021952Y-57854273D01*
X28022342Y-57852311D01*
X28023456Y-57851668D01*
X28029841Y-57850398D01*
X28091456Y-57818167D01*
X28126818Y-57753406D01*
X28128084Y-57747042D01*
X28129403Y-57745538D01*
X28131365Y-57745928D01*
G37*
G36*
X25944430Y-57463085D02*
G01*
X25945073Y-57464199D01*
X25946342Y-57470581D01*
X25978572Y-57532197D01*
X26043335Y-57567560D01*
X26049700Y-57568826D01*
X26051204Y-57570145D01*
X26050814Y-57572107D01*
X26049700Y-57572750D01*
X26017596Y-57579137D01*
X25985324Y-57600700D01*
X25472952Y-58113072D01*
X25451389Y-58145344D01*
X25445002Y-58177448D01*
X25443683Y-58178952D01*
X25441721Y-58178562D01*
X25441078Y-58177448D01*
X25439809Y-58171066D01*
X25407579Y-58109450D01*
X25342816Y-58074087D01*
X25336451Y-58072821D01*
X25334947Y-58071502D01*
X25335337Y-58069540D01*
X25336451Y-58068897D01*
X25368555Y-58062510D01*
X25400827Y-58040947D01*
X25913199Y-57528575D01*
X25934762Y-57496303D01*
X25941149Y-57464199D01*
X25942468Y-57462695D01*
X25944430Y-57463085D01*
G37*
G36*
X28414208Y-57463085D02*
G01*
X28414851Y-57464199D01*
X28421238Y-57496303D01*
X28442801Y-57528575D01*
X28955173Y-58040947D01*
X28987445Y-58062510D01*
X29019549Y-58068897D01*
X29021053Y-58070216D01*
X29020663Y-58072178D01*
X29019549Y-58072821D01*
X29013167Y-58074090D01*
X28951551Y-58106320D01*
X28916188Y-58171083D01*
X28914922Y-58177448D01*
X28913603Y-58178952D01*
X28911641Y-58178562D01*
X28910998Y-58177448D01*
X28904611Y-58145344D01*
X28883048Y-58113072D01*
X28370676Y-57600700D01*
X28338404Y-57579137D01*
X28306300Y-57572750D01*
X28304796Y-57571431D01*
X28305186Y-57569469D01*
X28306300Y-57568826D01*
X28312682Y-57567557D01*
X28374298Y-57535327D01*
X28409661Y-57470564D01*
X28410927Y-57464199D01*
X28412246Y-57462695D01*
X28414208Y-57463085D01*
G37*
G36*
X25661588Y-57180241D02*
G01*
X25662231Y-57181355D01*
X25663501Y-57187740D01*
X25695732Y-57249355D01*
X25760493Y-57284717D01*
X25766857Y-57285983D01*
X25768361Y-57287302D01*
X25767971Y-57289264D01*
X25766857Y-57289907D01*
X25734753Y-57296294D01*
X25702481Y-57317857D01*
X25190109Y-57830229D01*
X25168546Y-57862501D01*
X25162159Y-57894606D01*
X25160840Y-57896110D01*
X25158878Y-57895720D01*
X25158235Y-57894606D01*
X25156965Y-57888221D01*
X25124734Y-57826606D01*
X25059973Y-57791244D01*
X25053609Y-57789978D01*
X25052105Y-57788659D01*
X25052495Y-57786697D01*
X25053609Y-57786054D01*
X25085713Y-57779667D01*
X25117985Y-57758104D01*
X25630357Y-57245732D01*
X25651920Y-57213460D01*
X25658307Y-57181355D01*
X25659626Y-57179851D01*
X25661588Y-57180241D01*
G37*
G36*
X28697050Y-57180241D02*
G01*
X28697693Y-57181355D01*
X28704080Y-57213460D01*
X28725643Y-57245732D01*
X29238015Y-57758104D01*
X29270287Y-57779667D01*
X29302391Y-57786054D01*
X29303895Y-57787373D01*
X29303505Y-57789335D01*
X29302391Y-57789978D01*
X29296010Y-57791247D01*
X29234394Y-57823477D01*
X29199032Y-57888238D01*
X29197765Y-57894606D01*
X29196446Y-57896110D01*
X29194484Y-57895720D01*
X29193841Y-57894606D01*
X29187454Y-57862501D01*
X29165891Y-57830229D01*
X28653519Y-57317857D01*
X28621247Y-57296294D01*
X28589143Y-57289907D01*
X28587639Y-57288588D01*
X28588029Y-57286626D01*
X28589143Y-57285983D01*
X28595524Y-57284714D01*
X28657140Y-57252484D01*
X28692502Y-57187723D01*
X28693769Y-57181355D01*
X28695088Y-57179851D01*
X28697050Y-57180241D01*
G37*
G36*
X28979893Y-56897399D02*
G01*
X28980536Y-56898513D01*
X28986923Y-56930617D01*
X29008486Y-56962889D01*
X29520858Y-57475261D01*
X29553130Y-57496824D01*
X29585234Y-57503211D01*
X29586738Y-57504530D01*
X29586348Y-57506492D01*
X29585234Y-57507135D01*
X29578852Y-57508404D01*
X29517236Y-57540634D01*
X29481873Y-57605397D01*
X29480607Y-57611762D01*
X29479288Y-57613266D01*
X29477326Y-57612876D01*
X29476683Y-57611762D01*
X29470296Y-57579658D01*
X29448733Y-57547386D01*
X28936361Y-57035014D01*
X28904089Y-57013451D01*
X28871985Y-57007064D01*
X28870481Y-57005745D01*
X28870871Y-57003783D01*
X28871985Y-57003140D01*
X28878367Y-57001871D01*
X28939983Y-56969641D01*
X28975346Y-56904878D01*
X28976612Y-56898513D01*
X28977931Y-56897009D01*
X28979893Y-56897399D01*
G37*
G36*
X25378745Y-56897399D02*
G01*
X25379388Y-56898513D01*
X25380657Y-56904895D01*
X25412887Y-56966511D01*
X25477650Y-57001874D01*
X25484015Y-57003140D01*
X25485519Y-57004459D01*
X25485129Y-57006421D01*
X25484015Y-57007064D01*
X25451911Y-57013451D01*
X25419639Y-57035014D01*
X24907267Y-57547386D01*
X24885704Y-57579658D01*
X24879317Y-57611762D01*
X24877998Y-57613266D01*
X24876036Y-57612876D01*
X24875393Y-57611762D01*
X24874124Y-57605380D01*
X24841894Y-57543764D01*
X24777131Y-57508401D01*
X24770766Y-57507135D01*
X24769262Y-57505816D01*
X24769652Y-57503854D01*
X24770766Y-57503211D01*
X24802870Y-57496824D01*
X24835142Y-57475261D01*
X25347514Y-56962889D01*
X25369077Y-56930617D01*
X25375464Y-56898513D01*
X25376783Y-56897009D01*
X25378745Y-56897399D01*
G37*
G36*
X29262736Y-56614557D02*
G01*
X29263379Y-56615671D01*
X29269766Y-56647775D01*
X29291329Y-56680047D01*
X29803701Y-57192419D01*
X29835973Y-57213982D01*
X29868078Y-57220369D01*
X29869582Y-57221688D01*
X29869192Y-57223650D01*
X29868078Y-57224293D01*
X29861693Y-57225563D01*
X29800078Y-57257794D01*
X29764716Y-57322555D01*
X29763450Y-57328919D01*
X29762131Y-57330423D01*
X29760169Y-57330033D01*
X29759526Y-57328919D01*
X29753139Y-57296815D01*
X29731576Y-57264543D01*
X29219204Y-56752171D01*
X29186932Y-56730608D01*
X29154827Y-56724221D01*
X29153323Y-56722902D01*
X29153713Y-56720940D01*
X29154827Y-56720297D01*
X29161212Y-56719027D01*
X29222827Y-56686796D01*
X29258189Y-56622035D01*
X29259455Y-56615671D01*
X29260774Y-56614167D01*
X29262736Y-56614557D01*
G37*
G36*
X25095902Y-56614557D02*
G01*
X25096545Y-56615671D01*
X25097814Y-56622052D01*
X25130044Y-56683668D01*
X25194805Y-56719030D01*
X25201173Y-56720297D01*
X25202677Y-56721616D01*
X25202287Y-56723578D01*
X25201173Y-56724221D01*
X25169068Y-56730608D01*
X25136796Y-56752171D01*
X24624424Y-57264543D01*
X24602861Y-57296815D01*
X24596474Y-57328919D01*
X24595155Y-57330423D01*
X24593193Y-57330033D01*
X24592550Y-57328919D01*
X24591281Y-57322538D01*
X24559051Y-57260922D01*
X24494290Y-57225560D01*
X24487922Y-57224293D01*
X24486418Y-57222974D01*
X24486808Y-57221012D01*
X24487922Y-57220369D01*
X24520027Y-57213982D01*
X24552299Y-57192419D01*
X25064671Y-56680047D01*
X25086234Y-56647775D01*
X25092621Y-56615671D01*
X25093940Y-56614167D01*
X25095902Y-56614557D01*
G37*
G36*
X24813060Y-56331713D02*
G01*
X24813703Y-56332827D01*
X24814973Y-56339212D01*
X24847204Y-56400827D01*
X24911965Y-56436189D01*
X24918329Y-56437455D01*
X24919833Y-56438774D01*
X24919443Y-56440736D01*
X24918329Y-56441379D01*
X24886225Y-56447766D01*
X24853953Y-56469329D01*
X24341581Y-56981701D01*
X24320018Y-57013973D01*
X24313631Y-57046078D01*
X24312312Y-57047582D01*
X24310350Y-57047192D01*
X24309707Y-57046078D01*
X24308437Y-57039693D01*
X24276206Y-56978078D01*
X24211445Y-56942716D01*
X24205081Y-56941450D01*
X24203577Y-56940131D01*
X24203967Y-56938169D01*
X24205081Y-56937526D01*
X24237185Y-56931139D01*
X24269457Y-56909576D01*
X24781829Y-56397204D01*
X24803392Y-56364932D01*
X24809779Y-56332827D01*
X24811098Y-56331323D01*
X24813060Y-56331713D01*
G37*
G36*
X29545578Y-56331713D02*
G01*
X29546221Y-56332827D01*
X29552608Y-56364932D01*
X29574171Y-56397204D01*
X30086543Y-56909576D01*
X30118815Y-56931139D01*
X30150919Y-56937526D01*
X30152423Y-56938845D01*
X30152033Y-56940807D01*
X30150919Y-56941450D01*
X30144538Y-56942719D01*
X30082922Y-56974949D01*
X30047560Y-57039710D01*
X30046293Y-57046078D01*
X30044974Y-57047582D01*
X30043012Y-57047192D01*
X30042369Y-57046078D01*
X30035982Y-57013973D01*
X30014419Y-56981701D01*
X29502047Y-56469329D01*
X29469775Y-56447766D01*
X29437671Y-56441379D01*
X29436167Y-56440060D01*
X29436557Y-56438098D01*
X29437671Y-56437455D01*
X29444052Y-56436186D01*
X29505668Y-56403956D01*
X29541030Y-56339195D01*
X29542297Y-56332827D01*
X29543616Y-56331323D01*
X29545578Y-56331713D01*
G37*
G36*
X29828421Y-56048871D02*
G01*
X29829064Y-56049985D01*
X29835451Y-56082089D01*
X29857014Y-56114361D01*
X30369386Y-56626733D01*
X30401658Y-56648296D01*
X30433762Y-56654683D01*
X30435266Y-56656002D01*
X30434876Y-56657964D01*
X30433762Y-56658607D01*
X30427380Y-56659876D01*
X30365764Y-56692106D01*
X30330401Y-56756869D01*
X30329135Y-56763234D01*
X30327816Y-56764738D01*
X30325854Y-56764348D01*
X30325211Y-56763234D01*
X30318824Y-56731130D01*
X30297261Y-56698858D01*
X29784889Y-56186486D01*
X29752617Y-56164923D01*
X29720513Y-56158536D01*
X29719009Y-56157217D01*
X29719399Y-56155255D01*
X29720513Y-56154612D01*
X29726895Y-56153343D01*
X29788511Y-56121113D01*
X29823874Y-56056350D01*
X29825140Y-56049985D01*
X29826459Y-56048481D01*
X29828421Y-56048871D01*
G37*
G36*
X24530217Y-56048871D02*
G01*
X24530860Y-56049985D01*
X24532129Y-56056367D01*
X24564359Y-56117983D01*
X24629122Y-56153346D01*
X24635487Y-56154612D01*
X24636991Y-56155931D01*
X24636601Y-56157893D01*
X24635487Y-56158536D01*
X24603383Y-56164923D01*
X24571111Y-56186486D01*
X24058739Y-56698858D01*
X24037176Y-56731130D01*
X24030789Y-56763234D01*
X24029470Y-56764738D01*
X24027508Y-56764348D01*
X24026865Y-56763234D01*
X24025596Y-56756852D01*
X23993366Y-56695236D01*
X23928603Y-56659873D01*
X23922238Y-56658607D01*
X23920734Y-56657288D01*
X23921124Y-56655326D01*
X23922238Y-56654683D01*
X23954342Y-56648296D01*
X23986614Y-56626733D01*
X24498986Y-56114361D01*
X24520549Y-56082089D01*
X24526936Y-56049985D01*
X24528255Y-56048481D01*
X24530217Y-56048871D01*
G37*
G36*
X30111264Y-55766029D02*
G01*
X30111907Y-55767143D01*
X30118294Y-55799247D01*
X30139857Y-55831519D01*
X30652229Y-56343891D01*
X30684501Y-56365454D01*
X30716606Y-56371841D01*
X30718110Y-56373160D01*
X30717720Y-56375122D01*
X30716606Y-56375765D01*
X30710221Y-56377035D01*
X30648606Y-56409266D01*
X30613244Y-56474027D01*
X30611978Y-56480391D01*
X30610659Y-56481895D01*
X30608697Y-56481505D01*
X30608054Y-56480391D01*
X30601667Y-56448287D01*
X30580104Y-56416015D01*
X30067732Y-55903643D01*
X30035460Y-55882080D01*
X30003355Y-55875693D01*
X30001851Y-55874374D01*
X30002241Y-55872412D01*
X30003355Y-55871769D01*
X30009740Y-55870499D01*
X30071355Y-55838268D01*
X30106717Y-55773507D01*
X30107983Y-55767143D01*
X30109302Y-55765639D01*
X30111264Y-55766029D01*
G37*
G36*
X24247374Y-55766029D02*
G01*
X24248017Y-55767143D01*
X24249286Y-55773524D01*
X24281516Y-55835140D01*
X24346277Y-55870502D01*
X24352645Y-55871769D01*
X24354149Y-55873088D01*
X24353759Y-55875050D01*
X24352645Y-55875693D01*
X24320540Y-55882080D01*
X24288268Y-55903643D01*
X23775896Y-56416015D01*
X23754333Y-56448287D01*
X23747946Y-56480391D01*
X23746627Y-56481895D01*
X23744665Y-56481505D01*
X23744022Y-56480391D01*
X23742753Y-56474010D01*
X23710523Y-56412394D01*
X23645762Y-56377032D01*
X23639394Y-56375765D01*
X23637890Y-56374446D01*
X23638280Y-56372484D01*
X23639394Y-56371841D01*
X23671499Y-56365454D01*
X23703771Y-56343891D01*
X24216143Y-55831519D01*
X24237706Y-55799247D01*
X24244093Y-55767143D01*
X24245412Y-55765639D01*
X24247374Y-55766029D01*
G37*
G36*
X23964531Y-55483186D02*
G01*
X23965174Y-55484300D01*
X23966443Y-55490682D01*
X23998673Y-55552298D01*
X24063436Y-55587661D01*
X24069801Y-55588927D01*
X24071305Y-55590246D01*
X24070915Y-55592208D01*
X24069801Y-55592851D01*
X24037697Y-55599238D01*
X24005425Y-55620801D01*
X23493053Y-56133173D01*
X23471490Y-56165445D01*
X23465103Y-56197549D01*
X23463784Y-56199053D01*
X23461822Y-56198663D01*
X23461179Y-56197549D01*
X23459910Y-56191167D01*
X23427680Y-56129551D01*
X23362917Y-56094188D01*
X23356552Y-56092922D01*
X23355048Y-56091603D01*
X23355438Y-56089641D01*
X23356552Y-56088998D01*
X23388656Y-56082611D01*
X23420928Y-56061048D01*
X23933300Y-55548676D01*
X23954863Y-55516404D01*
X23961250Y-55484300D01*
X23962569Y-55482796D01*
X23964531Y-55483186D01*
G37*
G36*
X30394107Y-55483186D02*
G01*
X30394750Y-55484300D01*
X30401137Y-55516404D01*
X30422700Y-55548676D01*
X30935072Y-56061048D01*
X30967344Y-56082611D01*
X30999448Y-56088998D01*
X31000952Y-56090317D01*
X31000562Y-56092279D01*
X30999448Y-56092922D01*
X30993066Y-56094191D01*
X30931450Y-56126421D01*
X30896087Y-56191184D01*
X30894821Y-56197549D01*
X30893502Y-56199053D01*
X30891540Y-56198663D01*
X30890897Y-56197549D01*
X30884510Y-56165445D01*
X30862947Y-56133173D01*
X30350575Y-55620801D01*
X30318303Y-55599238D01*
X30286199Y-55592851D01*
X30284695Y-55591532D01*
X30285085Y-55589570D01*
X30286199Y-55588927D01*
X30292581Y-55587658D01*
X30354197Y-55555428D01*
X30389560Y-55490665D01*
X30390826Y-55484300D01*
X30392145Y-55482796D01*
X30394107Y-55483186D01*
G37*
G36*
X13086587Y-55877477D02*
G01*
X13086126Y-55878891D01*
X13046803Y-55925944D01*
X13038170Y-55994660D01*
X13068133Y-56057289D01*
X13076803Y-56064800D01*
X13077457Y-56066690D01*
X13076147Y-56068202D01*
X13074382Y-56067975D01*
X13066006Y-56062379D01*
X13008801Y-56051000D01*
X11734199Y-56051000D01*
X11676994Y-56062379D01*
X11659520Y-56074055D01*
X11657524Y-56074186D01*
X11656413Y-56072523D01*
X11656874Y-56071109D01*
X11696197Y-56024056D01*
X11704830Y-55955340D01*
X11674867Y-55892711D01*
X11666197Y-55885200D01*
X11665543Y-55883310D01*
X11666853Y-55881798D01*
X11668618Y-55882025D01*
X11676994Y-55887621D01*
X11734199Y-55899000D01*
X13008801Y-55899000D01*
X13066006Y-55887621D01*
X13083480Y-55875945D01*
X13085476Y-55875814D01*
X13086587Y-55877477D01*
G37*
G36*
X18811587Y-55877477D02*
G01*
X18811126Y-55878891D01*
X18771803Y-55925944D01*
X18763170Y-55994660D01*
X18793133Y-56057289D01*
X18801803Y-56064800D01*
X18802457Y-56066690D01*
X18801147Y-56068202D01*
X18799382Y-56067975D01*
X18791006Y-56062379D01*
X18733801Y-56051000D01*
X17459199Y-56051000D01*
X17401994Y-56062379D01*
X17384520Y-56074055D01*
X17382524Y-56074186D01*
X17381413Y-56072523D01*
X17381874Y-56071109D01*
X17421197Y-56024056D01*
X17429830Y-55955340D01*
X17399867Y-55892711D01*
X17391197Y-55885200D01*
X17390543Y-55883310D01*
X17391853Y-55881798D01*
X17393618Y-55882025D01*
X17401994Y-55887621D01*
X17459199Y-55899000D01*
X18733801Y-55899000D01*
X18791006Y-55887621D01*
X18808480Y-55875945D01*
X18810476Y-55875814D01*
X18811587Y-55877477D01*
G37*
G36*
X23681689Y-55200342D02*
G01*
X23682332Y-55201456D01*
X23683602Y-55207841D01*
X23715833Y-55269456D01*
X23780594Y-55304818D01*
X23786958Y-55306084D01*
X23788462Y-55307403D01*
X23788072Y-55309365D01*
X23786958Y-55310008D01*
X23754854Y-55316395D01*
X23722582Y-55337958D01*
X23210210Y-55850330D01*
X23188647Y-55882602D01*
X23182260Y-55914707D01*
X23180941Y-55916211D01*
X23178979Y-55915821D01*
X23178336Y-55914707D01*
X23177066Y-55908322D01*
X23144835Y-55846707D01*
X23080074Y-55811345D01*
X23073710Y-55810079D01*
X23072206Y-55808760D01*
X23072596Y-55806798D01*
X23073710Y-55806155D01*
X23105814Y-55799768D01*
X23138086Y-55778205D01*
X23650458Y-55265833D01*
X23672021Y-55233561D01*
X23678408Y-55201456D01*
X23679727Y-55199952D01*
X23681689Y-55200342D01*
G37*
G36*
X30676949Y-55200342D02*
G01*
X30677592Y-55201456D01*
X30683979Y-55233561D01*
X30705542Y-55265833D01*
X31217914Y-55778205D01*
X31250186Y-55799768D01*
X31282290Y-55806155D01*
X31283794Y-55807474D01*
X31283404Y-55809436D01*
X31282290Y-55810079D01*
X31275909Y-55811348D01*
X31214293Y-55843578D01*
X31178931Y-55908339D01*
X31177664Y-55914707D01*
X31176345Y-55916211D01*
X31174383Y-55915821D01*
X31173740Y-55914707D01*
X31167353Y-55882602D01*
X31145790Y-55850330D01*
X30633418Y-55337958D01*
X30601146Y-55316395D01*
X30569042Y-55310008D01*
X30567538Y-55308689D01*
X30567928Y-55306727D01*
X30569042Y-55306084D01*
X30575423Y-55304815D01*
X30637039Y-55272585D01*
X30672401Y-55207824D01*
X30673668Y-55201456D01*
X30674987Y-55199952D01*
X30676949Y-55200342D01*
G37*
G36*
X30959792Y-54917500D02*
G01*
X30960435Y-54918614D01*
X30966822Y-54950718D01*
X30988385Y-54982990D01*
X31500757Y-55495362D01*
X31533029Y-55516925D01*
X31565133Y-55523312D01*
X31566637Y-55524631D01*
X31566247Y-55526593D01*
X31565133Y-55527236D01*
X31558751Y-55528505D01*
X31497135Y-55560735D01*
X31461772Y-55625498D01*
X31460506Y-55631863D01*
X31459187Y-55633367D01*
X31457225Y-55632977D01*
X31456582Y-55631863D01*
X31450195Y-55599759D01*
X31428632Y-55567487D01*
X30916260Y-55055115D01*
X30883988Y-55033552D01*
X30851884Y-55027165D01*
X30850380Y-55025846D01*
X30850770Y-55023884D01*
X30851884Y-55023241D01*
X30858266Y-55021972D01*
X30919882Y-54989742D01*
X30955245Y-54924979D01*
X30956511Y-54918614D01*
X30957830Y-54917110D01*
X30959792Y-54917500D01*
G37*
G36*
X23398846Y-54917500D02*
G01*
X23399489Y-54918614D01*
X23400758Y-54924996D01*
X23432988Y-54986612D01*
X23497751Y-55021975D01*
X23504116Y-55023241D01*
X23505620Y-55024560D01*
X23505230Y-55026522D01*
X23504116Y-55027165D01*
X23472012Y-55033552D01*
X23439740Y-55055115D01*
X22927368Y-55567487D01*
X22905805Y-55599759D01*
X22899418Y-55631863D01*
X22898099Y-55633367D01*
X22896137Y-55632977D01*
X22895494Y-55631863D01*
X22894225Y-55625481D01*
X22861995Y-55563865D01*
X22797232Y-55528502D01*
X22790867Y-55527236D01*
X22789363Y-55525917D01*
X22789753Y-55523955D01*
X22790867Y-55523312D01*
X22822971Y-55516925D01*
X22855243Y-55495362D01*
X23367615Y-54982990D01*
X23389178Y-54950718D01*
X23395565Y-54918614D01*
X23396884Y-54917110D01*
X23398846Y-54917500D01*
G37*
G36*
X18811587Y-55227477D02*
G01*
X18811126Y-55228891D01*
X18771803Y-55275944D01*
X18763170Y-55344660D01*
X18793133Y-55407289D01*
X18801803Y-55414800D01*
X18802457Y-55416690D01*
X18801147Y-55418202D01*
X18799382Y-55417975D01*
X18791006Y-55412379D01*
X18733801Y-55401000D01*
X17459199Y-55401000D01*
X17401994Y-55412379D01*
X17384520Y-55424055D01*
X17382524Y-55424186D01*
X17381413Y-55422523D01*
X17381874Y-55421109D01*
X17421197Y-55374056D01*
X17429830Y-55305340D01*
X17399867Y-55242711D01*
X17391197Y-55235200D01*
X17390543Y-55233310D01*
X17391853Y-55231798D01*
X17393618Y-55232025D01*
X17401994Y-55237621D01*
X17459199Y-55249000D01*
X18733801Y-55249000D01*
X18791006Y-55237621D01*
X18808480Y-55225945D01*
X18810476Y-55225814D01*
X18811587Y-55227477D01*
G37*
G36*
X13086587Y-55227477D02*
G01*
X13086126Y-55228891D01*
X13046803Y-55275944D01*
X13038170Y-55344660D01*
X13068133Y-55407289D01*
X13076803Y-55414800D01*
X13077457Y-55416690D01*
X13076147Y-55418202D01*
X13074382Y-55417975D01*
X13066006Y-55412379D01*
X13008801Y-55401000D01*
X11734199Y-55401000D01*
X11676994Y-55412379D01*
X11659520Y-55424055D01*
X11657524Y-55424186D01*
X11656413Y-55422523D01*
X11656874Y-55421109D01*
X11696197Y-55374056D01*
X11704830Y-55305340D01*
X11674867Y-55242711D01*
X11666197Y-55235200D01*
X11665543Y-55233310D01*
X11666853Y-55231798D01*
X11668618Y-55232025D01*
X11676994Y-55237621D01*
X11734199Y-55249000D01*
X13008801Y-55249000D01*
X13066006Y-55237621D01*
X13083480Y-55225945D01*
X13085476Y-55225814D01*
X13086587Y-55227477D01*
G37*
G36*
X23116003Y-54634658D02*
G01*
X23116646Y-54635772D01*
X23117915Y-54642153D01*
X23150145Y-54703769D01*
X23214906Y-54739131D01*
X23221274Y-54740398D01*
X23222778Y-54741717D01*
X23222388Y-54743679D01*
X23221274Y-54744322D01*
X23189169Y-54750709D01*
X23156897Y-54772272D01*
X22644525Y-55284644D01*
X22622962Y-55316916D01*
X22616575Y-55349020D01*
X22615256Y-55350524D01*
X22613294Y-55350134D01*
X22612651Y-55349020D01*
X22611382Y-55342639D01*
X22579152Y-55281023D01*
X22514391Y-55245661D01*
X22508023Y-55244394D01*
X22506519Y-55243075D01*
X22506909Y-55241113D01*
X22508023Y-55240470D01*
X22540128Y-55234083D01*
X22572400Y-55212520D01*
X23084772Y-54700148D01*
X23106335Y-54667876D01*
X23112722Y-54635772D01*
X23114041Y-54634268D01*
X23116003Y-54634658D01*
G37*
G36*
X31242635Y-54634658D02*
G01*
X31243278Y-54635772D01*
X31249665Y-54667876D01*
X31271228Y-54700148D01*
X31783600Y-55212520D01*
X31815872Y-55234083D01*
X31847977Y-55240470D01*
X31849481Y-55241789D01*
X31849091Y-55243751D01*
X31847977Y-55244394D01*
X31841592Y-55245664D01*
X31779977Y-55277895D01*
X31744615Y-55342656D01*
X31743349Y-55349020D01*
X31742030Y-55350524D01*
X31740068Y-55350134D01*
X31739425Y-55349020D01*
X31733038Y-55316916D01*
X31711475Y-55284644D01*
X31199103Y-54772272D01*
X31166831Y-54750709D01*
X31134726Y-54744322D01*
X31133222Y-54743003D01*
X31133612Y-54741041D01*
X31134726Y-54740398D01*
X31141111Y-54739128D01*
X31202726Y-54706897D01*
X31238088Y-54642136D01*
X31239354Y-54635772D01*
X31240673Y-54634268D01*
X31242635Y-54634658D01*
G37*
G36*
X13086587Y-54577477D02*
G01*
X13086126Y-54578891D01*
X13046803Y-54625944D01*
X13038170Y-54694660D01*
X13068133Y-54757289D01*
X13076803Y-54764800D01*
X13077457Y-54766690D01*
X13076147Y-54768202D01*
X13074382Y-54767975D01*
X13066006Y-54762379D01*
X13008801Y-54751000D01*
X11734199Y-54751000D01*
X11676994Y-54762379D01*
X11659520Y-54774055D01*
X11657524Y-54774186D01*
X11656413Y-54772523D01*
X11656874Y-54771109D01*
X11696197Y-54724056D01*
X11704830Y-54655340D01*
X11674867Y-54592711D01*
X11666197Y-54585200D01*
X11665543Y-54583310D01*
X11666853Y-54581798D01*
X11668618Y-54582025D01*
X11676994Y-54587621D01*
X11734199Y-54599000D01*
X13008801Y-54599000D01*
X13066006Y-54587621D01*
X13083480Y-54575945D01*
X13085476Y-54575814D01*
X13086587Y-54577477D01*
G37*
G36*
X18811587Y-54577477D02*
G01*
X18811126Y-54578891D01*
X18771803Y-54625944D01*
X18763170Y-54694660D01*
X18793133Y-54757289D01*
X18801803Y-54764800D01*
X18802457Y-54766690D01*
X18801147Y-54768202D01*
X18799382Y-54767975D01*
X18791006Y-54762379D01*
X18733801Y-54751000D01*
X17459199Y-54751000D01*
X17401994Y-54762379D01*
X17384520Y-54774055D01*
X17382524Y-54774186D01*
X17381413Y-54772523D01*
X17381874Y-54771109D01*
X17421197Y-54724056D01*
X17429830Y-54655340D01*
X17399867Y-54592711D01*
X17391197Y-54585200D01*
X17390543Y-54583310D01*
X17391853Y-54581798D01*
X17393618Y-54582025D01*
X17401994Y-54587621D01*
X17459199Y-54599000D01*
X18733801Y-54599000D01*
X18791006Y-54587621D01*
X18808480Y-54575945D01*
X18810476Y-54575814D01*
X18811587Y-54577477D01*
G37*
G36*
X13086587Y-53927477D02*
G01*
X13086126Y-53928891D01*
X13046803Y-53975944D01*
X13038170Y-54044660D01*
X13068133Y-54107289D01*
X13076803Y-54114800D01*
X13077457Y-54116690D01*
X13076147Y-54118202D01*
X13074382Y-54117975D01*
X13066006Y-54112379D01*
X13008801Y-54101000D01*
X11734199Y-54101000D01*
X11676994Y-54112379D01*
X11659520Y-54124055D01*
X11657524Y-54124186D01*
X11656413Y-54122523D01*
X11656874Y-54121109D01*
X11696197Y-54074056D01*
X11704830Y-54005340D01*
X11674867Y-53942711D01*
X11666197Y-53935200D01*
X11665543Y-53933310D01*
X11666853Y-53931798D01*
X11668618Y-53932025D01*
X11676994Y-53937621D01*
X11734199Y-53949000D01*
X13008801Y-53949000D01*
X13066006Y-53937621D01*
X13083480Y-53925945D01*
X13085476Y-53925814D01*
X13086587Y-53927477D01*
G37*
G36*
X18811587Y-53927477D02*
G01*
X18811126Y-53928891D01*
X18771803Y-53975944D01*
X18763170Y-54044660D01*
X18793133Y-54107289D01*
X18801803Y-54114800D01*
X18802457Y-54116690D01*
X18801147Y-54118202D01*
X18799382Y-54117975D01*
X18791006Y-54112379D01*
X18733801Y-54101000D01*
X17459199Y-54101000D01*
X17401994Y-54112379D01*
X17384520Y-54124055D01*
X17382524Y-54124186D01*
X17381413Y-54122523D01*
X17381874Y-54121109D01*
X17421197Y-54074056D01*
X17429830Y-54005340D01*
X17399867Y-53942711D01*
X17391197Y-53935200D01*
X17390543Y-53933310D01*
X17391853Y-53931798D01*
X17393618Y-53932025D01*
X17401994Y-53937621D01*
X17459199Y-53949000D01*
X18733801Y-53949000D01*
X18791006Y-53937621D01*
X18808480Y-53925945D01*
X18810476Y-53925814D01*
X18811587Y-53927477D01*
G37*
G36*
X22615932Y-53361866D02*
G01*
X22616575Y-53362980D01*
X22622962Y-53395084D01*
X22644525Y-53427356D01*
X23156897Y-53939728D01*
X23189169Y-53961291D01*
X23221274Y-53967678D01*
X23222778Y-53968997D01*
X23222388Y-53970959D01*
X23221274Y-53971602D01*
X23214889Y-53972872D01*
X23153274Y-54005103D01*
X23117912Y-54069864D01*
X23116646Y-54076228D01*
X23115327Y-54077732D01*
X23113365Y-54077342D01*
X23112722Y-54076228D01*
X23106335Y-54044124D01*
X23084772Y-54011852D01*
X22572400Y-53499480D01*
X22540128Y-53477917D01*
X22508023Y-53471530D01*
X22506519Y-53470211D01*
X22506909Y-53468249D01*
X22508023Y-53467606D01*
X22514408Y-53466336D01*
X22576023Y-53434105D01*
X22611385Y-53369344D01*
X22612651Y-53362980D01*
X22613970Y-53361476D01*
X22615932Y-53361866D01*
G37*
G36*
X31742706Y-53361866D02*
G01*
X31743349Y-53362980D01*
X31744618Y-53369361D01*
X31776848Y-53430977D01*
X31841609Y-53466339D01*
X31847977Y-53467606D01*
X31849481Y-53468925D01*
X31849091Y-53470887D01*
X31847977Y-53471530D01*
X31815872Y-53477917D01*
X31783600Y-53499480D01*
X31271228Y-54011852D01*
X31249665Y-54044124D01*
X31243278Y-54076228D01*
X31241959Y-54077732D01*
X31239997Y-54077342D01*
X31239354Y-54076228D01*
X31238085Y-54069847D01*
X31205855Y-54008231D01*
X31141094Y-53972869D01*
X31134726Y-53971602D01*
X31133222Y-53970283D01*
X31133612Y-53968321D01*
X31134726Y-53967678D01*
X31166831Y-53961291D01*
X31199103Y-53939728D01*
X31711475Y-53427356D01*
X31733038Y-53395084D01*
X31739425Y-53362980D01*
X31740744Y-53361476D01*
X31742706Y-53361866D01*
G37*
G36*
X22898775Y-53079023D02*
G01*
X22899418Y-53080137D01*
X22905805Y-53112241D01*
X22927368Y-53144513D01*
X23439740Y-53656885D01*
X23472012Y-53678448D01*
X23504116Y-53684835D01*
X23505620Y-53686154D01*
X23505230Y-53688116D01*
X23504116Y-53688759D01*
X23497734Y-53690028D01*
X23436118Y-53722258D01*
X23400755Y-53787021D01*
X23399489Y-53793386D01*
X23398170Y-53794890D01*
X23396208Y-53794500D01*
X23395565Y-53793386D01*
X23389178Y-53761282D01*
X23367615Y-53729010D01*
X22855243Y-53216638D01*
X22822971Y-53195075D01*
X22790867Y-53188688D01*
X22789363Y-53187369D01*
X22789753Y-53185407D01*
X22790867Y-53184764D01*
X22797249Y-53183495D01*
X22858865Y-53151265D01*
X22894228Y-53086502D01*
X22895494Y-53080137D01*
X22896813Y-53078633D01*
X22898775Y-53079023D01*
G37*
G36*
X31459863Y-53079023D02*
G01*
X31460506Y-53080137D01*
X31461775Y-53086519D01*
X31494005Y-53148135D01*
X31558768Y-53183498D01*
X31565133Y-53184764D01*
X31566637Y-53186083D01*
X31566247Y-53188045D01*
X31565133Y-53188688D01*
X31533029Y-53195075D01*
X31500757Y-53216638D01*
X30988385Y-53729010D01*
X30966822Y-53761282D01*
X30960435Y-53793386D01*
X30959116Y-53794890D01*
X30957154Y-53794500D01*
X30956511Y-53793386D01*
X30955242Y-53787004D01*
X30923012Y-53725388D01*
X30858249Y-53690025D01*
X30851884Y-53688759D01*
X30850380Y-53687440D01*
X30850770Y-53685478D01*
X30851884Y-53684835D01*
X30883988Y-53678448D01*
X30916260Y-53656885D01*
X31428632Y-53144513D01*
X31450195Y-53112241D01*
X31456582Y-53080137D01*
X31457901Y-53078633D01*
X31459863Y-53079023D01*
G37*
G36*
X23181617Y-52796179D02*
G01*
X23182260Y-52797293D01*
X23188647Y-52829398D01*
X23210210Y-52861670D01*
X23722582Y-53374042D01*
X23754854Y-53395605D01*
X23786958Y-53401992D01*
X23788462Y-53403311D01*
X23788072Y-53405273D01*
X23786958Y-53405916D01*
X23780577Y-53407185D01*
X23718961Y-53439415D01*
X23683599Y-53504176D01*
X23682332Y-53510544D01*
X23681013Y-53512048D01*
X23679051Y-53511658D01*
X23678408Y-53510544D01*
X23672021Y-53478439D01*
X23650458Y-53446167D01*
X23138086Y-52933795D01*
X23105814Y-52912232D01*
X23073710Y-52905845D01*
X23072206Y-52904526D01*
X23072596Y-52902564D01*
X23073710Y-52901921D01*
X23080091Y-52900652D01*
X23141707Y-52868422D01*
X23177069Y-52803661D01*
X23178336Y-52797293D01*
X23179655Y-52795789D01*
X23181617Y-52796179D01*
G37*
G36*
X31177021Y-52796179D02*
G01*
X31177664Y-52797293D01*
X31178934Y-52803678D01*
X31211165Y-52865293D01*
X31275926Y-52900655D01*
X31282290Y-52901921D01*
X31283794Y-52903240D01*
X31283404Y-52905202D01*
X31282290Y-52905845D01*
X31250186Y-52912232D01*
X31217914Y-52933795D01*
X30705542Y-53446167D01*
X30683979Y-53478439D01*
X30677592Y-53510544D01*
X30676273Y-53512048D01*
X30674311Y-53511658D01*
X30673668Y-53510544D01*
X30672398Y-53504159D01*
X30640167Y-53442544D01*
X30575406Y-53407182D01*
X30569042Y-53405916D01*
X30567538Y-53404597D01*
X30567928Y-53402635D01*
X30569042Y-53401992D01*
X30601146Y-53395605D01*
X30633418Y-53374042D01*
X31145790Y-52861670D01*
X31167353Y-52829398D01*
X31173740Y-52797293D01*
X31175059Y-52795789D01*
X31177021Y-52796179D01*
G37*
G36*
X18811587Y-53277477D02*
G01*
X18811126Y-53278891D01*
X18771803Y-53325944D01*
X18763170Y-53394660D01*
X18793133Y-53457289D01*
X18801803Y-53464800D01*
X18802457Y-53466690D01*
X18801147Y-53468202D01*
X18799382Y-53467975D01*
X18791006Y-53462379D01*
X18733801Y-53451000D01*
X17459199Y-53451000D01*
X17401994Y-53462379D01*
X17384520Y-53474055D01*
X17382524Y-53474186D01*
X17381413Y-53472523D01*
X17381874Y-53471109D01*
X17421197Y-53424056D01*
X17429830Y-53355340D01*
X17399867Y-53292711D01*
X17391197Y-53285200D01*
X17390543Y-53283310D01*
X17391853Y-53281798D01*
X17393618Y-53282025D01*
X17401994Y-53287621D01*
X17459199Y-53299000D01*
X18733801Y-53299000D01*
X18791006Y-53287621D01*
X18808480Y-53275945D01*
X18810476Y-53275814D01*
X18811587Y-53277477D01*
G37*
G36*
X13086587Y-53277477D02*
G01*
X13086126Y-53278891D01*
X13046803Y-53325944D01*
X13038170Y-53394660D01*
X13068133Y-53457289D01*
X13076803Y-53464800D01*
X13077457Y-53466690D01*
X13076147Y-53468202D01*
X13074382Y-53467975D01*
X13066006Y-53462379D01*
X13008801Y-53451000D01*
X11734199Y-53451000D01*
X11676994Y-53462379D01*
X11659520Y-53474055D01*
X11657524Y-53474186D01*
X11656413Y-53472523D01*
X11656874Y-53471109D01*
X11696197Y-53424056D01*
X11704830Y-53355340D01*
X11674867Y-53292711D01*
X11666197Y-53285200D01*
X11665543Y-53283310D01*
X11666853Y-53281798D01*
X11668618Y-53282025D01*
X11676994Y-53287621D01*
X11734199Y-53299000D01*
X13008801Y-53299000D01*
X13066006Y-53287621D01*
X13083480Y-53275945D01*
X13085476Y-53275814D01*
X13086587Y-53277477D01*
G37*
G36*
X23464460Y-52513337D02*
G01*
X23465103Y-52514451D01*
X23471490Y-52546555D01*
X23493053Y-52578827D01*
X24005425Y-53091199D01*
X24037697Y-53112762D01*
X24069801Y-53119149D01*
X24071305Y-53120468D01*
X24070915Y-53122430D01*
X24069801Y-53123073D01*
X24063419Y-53124342D01*
X24001803Y-53156572D01*
X23966440Y-53221335D01*
X23965174Y-53227700D01*
X23963855Y-53229204D01*
X23961893Y-53228814D01*
X23961250Y-53227700D01*
X23954863Y-53195596D01*
X23933300Y-53163324D01*
X23420928Y-52650952D01*
X23388656Y-52629389D01*
X23356552Y-52623002D01*
X23355048Y-52621683D01*
X23355438Y-52619721D01*
X23356552Y-52619078D01*
X23362934Y-52617809D01*
X23424550Y-52585579D01*
X23459913Y-52520816D01*
X23461179Y-52514451D01*
X23462498Y-52512947D01*
X23464460Y-52513337D01*
G37*
G36*
X30894178Y-52513337D02*
G01*
X30894821Y-52514451D01*
X30896090Y-52520833D01*
X30928320Y-52582449D01*
X30993083Y-52617812D01*
X30999448Y-52619078D01*
X31000952Y-52620397D01*
X31000562Y-52622359D01*
X30999448Y-52623002D01*
X30967344Y-52629389D01*
X30935072Y-52650952D01*
X30422700Y-53163324D01*
X30401137Y-53195596D01*
X30394750Y-53227700D01*
X30393431Y-53229204D01*
X30391469Y-53228814D01*
X30390826Y-53227700D01*
X30389557Y-53221318D01*
X30357327Y-53159702D01*
X30292564Y-53124339D01*
X30286199Y-53123073D01*
X30284695Y-53121754D01*
X30285085Y-53119792D01*
X30286199Y-53119149D01*
X30318303Y-53112762D01*
X30350575Y-53091199D01*
X30862947Y-52578827D01*
X30884510Y-52546555D01*
X30890897Y-52514451D01*
X30892216Y-52512947D01*
X30894178Y-52513337D01*
G37*
G36*
X30611335Y-52230495D02*
G01*
X30611978Y-52231609D01*
X30613247Y-52237990D01*
X30645477Y-52299606D01*
X30710238Y-52334968D01*
X30716606Y-52336235D01*
X30718110Y-52337554D01*
X30717720Y-52339516D01*
X30716606Y-52340159D01*
X30684501Y-52346546D01*
X30652229Y-52368109D01*
X30139857Y-52880481D01*
X30118294Y-52912753D01*
X30111907Y-52944857D01*
X30110588Y-52946361D01*
X30108626Y-52945971D01*
X30107983Y-52944857D01*
X30106714Y-52938476D01*
X30074484Y-52876860D01*
X30009723Y-52841498D01*
X30003355Y-52840231D01*
X30001851Y-52838912D01*
X30002241Y-52836950D01*
X30003355Y-52836307D01*
X30035460Y-52829920D01*
X30067732Y-52808357D01*
X30580104Y-52295985D01*
X30601667Y-52263713D01*
X30608054Y-52231609D01*
X30609373Y-52230105D01*
X30611335Y-52230495D01*
G37*
G36*
X23747303Y-52230495D02*
G01*
X23747946Y-52231609D01*
X23754333Y-52263713D01*
X23775896Y-52295985D01*
X24288268Y-52808357D01*
X24320540Y-52829920D01*
X24352645Y-52836307D01*
X24354149Y-52837626D01*
X24353759Y-52839588D01*
X24352645Y-52840231D01*
X24346260Y-52841501D01*
X24284645Y-52873732D01*
X24249283Y-52938493D01*
X24248017Y-52944857D01*
X24246698Y-52946361D01*
X24244736Y-52945971D01*
X24244093Y-52944857D01*
X24237706Y-52912753D01*
X24216143Y-52880481D01*
X23703771Y-52368109D01*
X23671499Y-52346546D01*
X23639394Y-52340159D01*
X23637890Y-52338840D01*
X23638280Y-52336878D01*
X23639394Y-52336235D01*
X23645779Y-52334965D01*
X23707394Y-52302734D01*
X23742756Y-52237973D01*
X23744022Y-52231609D01*
X23745341Y-52230105D01*
X23747303Y-52230495D01*
G37*
G36*
X18811587Y-52627477D02*
G01*
X18811126Y-52628891D01*
X18771803Y-52675944D01*
X18763170Y-52744660D01*
X18793133Y-52807289D01*
X18801803Y-52814800D01*
X18802457Y-52816690D01*
X18801147Y-52818202D01*
X18799382Y-52817975D01*
X18791006Y-52812379D01*
X18733801Y-52801000D01*
X17459199Y-52801000D01*
X17401994Y-52812379D01*
X17384520Y-52824055D01*
X17382524Y-52824186D01*
X17381413Y-52822523D01*
X17381874Y-52821109D01*
X17421197Y-52774056D01*
X17429830Y-52705340D01*
X17399867Y-52642711D01*
X17391197Y-52635200D01*
X17390543Y-52633310D01*
X17391853Y-52631798D01*
X17393618Y-52632025D01*
X17401994Y-52637621D01*
X17459199Y-52649000D01*
X18733801Y-52649000D01*
X18791006Y-52637621D01*
X18808480Y-52625945D01*
X18810476Y-52625814D01*
X18811587Y-52627477D01*
G37*
G36*
X13086587Y-52627477D02*
G01*
X13086126Y-52628891D01*
X13046803Y-52675944D01*
X13038170Y-52744660D01*
X13068133Y-52807289D01*
X13076803Y-52814800D01*
X13077457Y-52816690D01*
X13076147Y-52818202D01*
X13074382Y-52817975D01*
X13066006Y-52812379D01*
X13008801Y-52801000D01*
X11734199Y-52801000D01*
X11676994Y-52812379D01*
X11659520Y-52824055D01*
X11657524Y-52824186D01*
X11656413Y-52822523D01*
X11656874Y-52821109D01*
X11696197Y-52774056D01*
X11704830Y-52705340D01*
X11674867Y-52642711D01*
X11666197Y-52635200D01*
X11665543Y-52633310D01*
X11666853Y-52631798D01*
X11668618Y-52632025D01*
X11676994Y-52637621D01*
X11734199Y-52649000D01*
X13008801Y-52649000D01*
X13066006Y-52637621D01*
X13083480Y-52625945D01*
X13085476Y-52625814D01*
X13086587Y-52627477D01*
G37*
G36*
X24030146Y-51947652D02*
G01*
X24030789Y-51948766D01*
X24037176Y-51980870D01*
X24058739Y-52013142D01*
X24571111Y-52525514D01*
X24603383Y-52547077D01*
X24635487Y-52553464D01*
X24636991Y-52554783D01*
X24636601Y-52556745D01*
X24635487Y-52557388D01*
X24629105Y-52558657D01*
X24567489Y-52590887D01*
X24532126Y-52655650D01*
X24530860Y-52662015D01*
X24529541Y-52663519D01*
X24527579Y-52663129D01*
X24526936Y-52662015D01*
X24520549Y-52629911D01*
X24498986Y-52597639D01*
X23986614Y-52085267D01*
X23954342Y-52063704D01*
X23922238Y-52057317D01*
X23920734Y-52055998D01*
X23921124Y-52054036D01*
X23922238Y-52053393D01*
X23928620Y-52052124D01*
X23990236Y-52019894D01*
X24025599Y-51955131D01*
X24026865Y-51948766D01*
X24028184Y-51947262D01*
X24030146Y-51947652D01*
G37*
G36*
X30328492Y-51947652D02*
G01*
X30329135Y-51948766D01*
X30330404Y-51955148D01*
X30362634Y-52016764D01*
X30427397Y-52052127D01*
X30433762Y-52053393D01*
X30435266Y-52054712D01*
X30434876Y-52056674D01*
X30433762Y-52057317D01*
X30401658Y-52063704D01*
X30369386Y-52085267D01*
X29857014Y-52597639D01*
X29835451Y-52629911D01*
X29829064Y-52662015D01*
X29827745Y-52663519D01*
X29825783Y-52663129D01*
X29825140Y-52662015D01*
X29823871Y-52655633D01*
X29791641Y-52594017D01*
X29726878Y-52558654D01*
X29720513Y-52557388D01*
X29719009Y-52556069D01*
X29719399Y-52554107D01*
X29720513Y-52553464D01*
X29752617Y-52547077D01*
X29784889Y-52525514D01*
X30297261Y-52013142D01*
X30318824Y-51980870D01*
X30325211Y-51948766D01*
X30326530Y-51947262D01*
X30328492Y-51947652D01*
G37*
G36*
X24312988Y-51664808D02*
G01*
X24313631Y-51665922D01*
X24320018Y-51698027D01*
X24341581Y-51730299D01*
X24853953Y-52242671D01*
X24886225Y-52264234D01*
X24918329Y-52270621D01*
X24919833Y-52271940D01*
X24919443Y-52273902D01*
X24918329Y-52274545D01*
X24911948Y-52275814D01*
X24850332Y-52308044D01*
X24814970Y-52372805D01*
X24813703Y-52379173D01*
X24812384Y-52380677D01*
X24810422Y-52380287D01*
X24809779Y-52379173D01*
X24803392Y-52347068D01*
X24781829Y-52314796D01*
X24269457Y-51802424D01*
X24237185Y-51780861D01*
X24205081Y-51774474D01*
X24203577Y-51773155D01*
X24203967Y-51771193D01*
X24205081Y-51770550D01*
X24211462Y-51769281D01*
X24273078Y-51737051D01*
X24308440Y-51672290D01*
X24309707Y-51665922D01*
X24311026Y-51664418D01*
X24312988Y-51664808D01*
G37*
G36*
X30045650Y-51664808D02*
G01*
X30046293Y-51665922D01*
X30047563Y-51672307D01*
X30079794Y-51733922D01*
X30144555Y-51769284D01*
X30150919Y-51770550D01*
X30152423Y-51771869D01*
X30152033Y-51773831D01*
X30150919Y-51774474D01*
X30118815Y-51780861D01*
X30086543Y-51802424D01*
X29574171Y-52314796D01*
X29552608Y-52347068D01*
X29546221Y-52379173D01*
X29544902Y-52380677D01*
X29542940Y-52380287D01*
X29542297Y-52379173D01*
X29541027Y-52372788D01*
X29508796Y-52311173D01*
X29444035Y-52275811D01*
X29437671Y-52274545D01*
X29436167Y-52273226D01*
X29436557Y-52271264D01*
X29437671Y-52270621D01*
X29469775Y-52264234D01*
X29502047Y-52242671D01*
X30014419Y-51730299D01*
X30035982Y-51698027D01*
X30042369Y-51665922D01*
X30043688Y-51664418D01*
X30045650Y-51664808D01*
G37*
G36*
X29762807Y-51381967D02*
G01*
X29763450Y-51383081D01*
X29764719Y-51389462D01*
X29796949Y-51451078D01*
X29861710Y-51486440D01*
X29868078Y-51487707D01*
X29869582Y-51489026D01*
X29869192Y-51490988D01*
X29868078Y-51491631D01*
X29835973Y-51498018D01*
X29803701Y-51519581D01*
X29291329Y-52031953D01*
X29269766Y-52064225D01*
X29263379Y-52096329D01*
X29262060Y-52097833D01*
X29260098Y-52097443D01*
X29259455Y-52096329D01*
X29258186Y-52089948D01*
X29225956Y-52028332D01*
X29161195Y-51992970D01*
X29154827Y-51991703D01*
X29153323Y-51990384D01*
X29153713Y-51988422D01*
X29154827Y-51987779D01*
X29186932Y-51981392D01*
X29219204Y-51959829D01*
X29731576Y-51447457D01*
X29753139Y-51415185D01*
X29759526Y-51383081D01*
X29760845Y-51381577D01*
X29762807Y-51381967D01*
G37*
G36*
X24595831Y-51381967D02*
G01*
X24596474Y-51383081D01*
X24602861Y-51415185D01*
X24624424Y-51447457D01*
X25136796Y-51959829D01*
X25169068Y-51981392D01*
X25201173Y-51987779D01*
X25202677Y-51989098D01*
X25202287Y-51991060D01*
X25201173Y-51991703D01*
X25194788Y-51992973D01*
X25133173Y-52025204D01*
X25097811Y-52089965D01*
X25096545Y-52096329D01*
X25095226Y-52097833D01*
X25093264Y-52097443D01*
X25092621Y-52096329D01*
X25086234Y-52064225D01*
X25064671Y-52031953D01*
X24552299Y-51519581D01*
X24520027Y-51498018D01*
X24487922Y-51491631D01*
X24486418Y-51490312D01*
X24486808Y-51488350D01*
X24487922Y-51487707D01*
X24494307Y-51486437D01*
X24555922Y-51454206D01*
X24591284Y-51389445D01*
X24592550Y-51383081D01*
X24593869Y-51381577D01*
X24595831Y-51381967D01*
G37*
G36*
X29479964Y-51099124D02*
G01*
X29480607Y-51100238D01*
X29481876Y-51106620D01*
X29514106Y-51168236D01*
X29578869Y-51203599D01*
X29585234Y-51204865D01*
X29586738Y-51206184D01*
X29586348Y-51208146D01*
X29585234Y-51208789D01*
X29553130Y-51215176D01*
X29520858Y-51236739D01*
X29008486Y-51749111D01*
X28986923Y-51781383D01*
X28980536Y-51813487D01*
X28979217Y-51814991D01*
X28977255Y-51814601D01*
X28976612Y-51813487D01*
X28975343Y-51807105D01*
X28943113Y-51745489D01*
X28878350Y-51710126D01*
X28871985Y-51708860D01*
X28870481Y-51707541D01*
X28870871Y-51705579D01*
X28871985Y-51704936D01*
X28904089Y-51698549D01*
X28936361Y-51676986D01*
X29448733Y-51164614D01*
X29470296Y-51132342D01*
X29476683Y-51100238D01*
X29478002Y-51098734D01*
X29479964Y-51099124D01*
G37*
G36*
X24878674Y-51099124D02*
G01*
X24879317Y-51100238D01*
X24885704Y-51132342D01*
X24907267Y-51164614D01*
X25419639Y-51676986D01*
X25451911Y-51698549D01*
X25484015Y-51704936D01*
X25485519Y-51706255D01*
X25485129Y-51708217D01*
X25484015Y-51708860D01*
X25477633Y-51710129D01*
X25416017Y-51742359D01*
X25380654Y-51807122D01*
X25379388Y-51813487D01*
X25378069Y-51814991D01*
X25376107Y-51814601D01*
X25375464Y-51813487D01*
X25369077Y-51781383D01*
X25347514Y-51749111D01*
X24835142Y-51236739D01*
X24802870Y-51215176D01*
X24770766Y-51208789D01*
X24769262Y-51207470D01*
X24769652Y-51205508D01*
X24770766Y-51204865D01*
X24777148Y-51203596D01*
X24838764Y-51171366D01*
X24874127Y-51106603D01*
X24875393Y-51100238D01*
X24876712Y-51098734D01*
X24878674Y-51099124D01*
G37*
G36*
X25161516Y-50816280D02*
G01*
X25162159Y-50817394D01*
X25168546Y-50849499D01*
X25190109Y-50881771D01*
X25702481Y-51394143D01*
X25734753Y-51415706D01*
X25766857Y-51422093D01*
X25768361Y-51423412D01*
X25767971Y-51425374D01*
X25766857Y-51426017D01*
X25760476Y-51427286D01*
X25698860Y-51459516D01*
X25663498Y-51524277D01*
X25662231Y-51530645D01*
X25660912Y-51532149D01*
X25658950Y-51531759D01*
X25658307Y-51530645D01*
X25651920Y-51498540D01*
X25630357Y-51466268D01*
X25117985Y-50953896D01*
X25085713Y-50932333D01*
X25053609Y-50925946D01*
X25052105Y-50924627D01*
X25052495Y-50922665D01*
X25053609Y-50922022D01*
X25059990Y-50920753D01*
X25121606Y-50888523D01*
X25156968Y-50823762D01*
X25158235Y-50817394D01*
X25159554Y-50815890D01*
X25161516Y-50816280D01*
G37*
G36*
X29197122Y-50816280D02*
G01*
X29197765Y-50817394D01*
X29199035Y-50823779D01*
X29231266Y-50885394D01*
X29296027Y-50920756D01*
X29302391Y-50922022D01*
X29303895Y-50923341D01*
X29303505Y-50925303D01*
X29302391Y-50925946D01*
X29270287Y-50932333D01*
X29238015Y-50953896D01*
X28725643Y-51466268D01*
X28704080Y-51498540D01*
X28697693Y-51530645D01*
X28696374Y-51532149D01*
X28694412Y-51531759D01*
X28693769Y-51530645D01*
X28692499Y-51524260D01*
X28660268Y-51462645D01*
X28595507Y-51427283D01*
X28589143Y-51426017D01*
X28587639Y-51424698D01*
X28588029Y-51422736D01*
X28589143Y-51422093D01*
X28621247Y-51415706D01*
X28653519Y-51394143D01*
X29165891Y-50881771D01*
X29187454Y-50849499D01*
X29193841Y-50817394D01*
X29195160Y-50815890D01*
X29197122Y-50816280D01*
G37*
G36*
X25444359Y-50533438D02*
G01*
X25445002Y-50534552D01*
X25451389Y-50566656D01*
X25472952Y-50598928D01*
X25985324Y-51111300D01*
X26017596Y-51132863D01*
X26049700Y-51139250D01*
X26051204Y-51140569D01*
X26050814Y-51142531D01*
X26049700Y-51143174D01*
X26043318Y-51144443D01*
X25981702Y-51176673D01*
X25946339Y-51241436D01*
X25945073Y-51247801D01*
X25943754Y-51249305D01*
X25941792Y-51248915D01*
X25941149Y-51247801D01*
X25934762Y-51215697D01*
X25913199Y-51183425D01*
X25400827Y-50671053D01*
X25368555Y-50649490D01*
X25336451Y-50643103D01*
X25334947Y-50641784D01*
X25335337Y-50639822D01*
X25336451Y-50639179D01*
X25342833Y-50637910D01*
X25404449Y-50605680D01*
X25439812Y-50540917D01*
X25441078Y-50534552D01*
X25442397Y-50533048D01*
X25444359Y-50533438D01*
G37*
G36*
X28914279Y-50533438D02*
G01*
X28914922Y-50534552D01*
X28916191Y-50540934D01*
X28948421Y-50602550D01*
X29013184Y-50637913D01*
X29019549Y-50639179D01*
X29021053Y-50640498D01*
X29020663Y-50642460D01*
X29019549Y-50643103D01*
X28987445Y-50649490D01*
X28955173Y-50671053D01*
X28442801Y-51183425D01*
X28421238Y-51215697D01*
X28414851Y-51247801D01*
X28413532Y-51249305D01*
X28411570Y-51248915D01*
X28410927Y-51247801D01*
X28409658Y-51241419D01*
X28377428Y-51179803D01*
X28312665Y-51144440D01*
X28306300Y-51143174D01*
X28304796Y-51141855D01*
X28305186Y-51139893D01*
X28306300Y-51139250D01*
X28338404Y-51132863D01*
X28370676Y-51111300D01*
X28883048Y-50598928D01*
X28904611Y-50566656D01*
X28910998Y-50534552D01*
X28912317Y-50533048D01*
X28914279Y-50533438D01*
G37*
G36*
X25727202Y-50250596D02*
G01*
X25727845Y-50251710D01*
X25734232Y-50283814D01*
X25755795Y-50316086D01*
X26268167Y-50828458D01*
X26300439Y-50850021D01*
X26332544Y-50856408D01*
X26334048Y-50857727D01*
X26333658Y-50859689D01*
X26332544Y-50860332D01*
X26326159Y-50861602D01*
X26264544Y-50893833D01*
X26229182Y-50958594D01*
X26227916Y-50964958D01*
X26226597Y-50966462D01*
X26224635Y-50966072D01*
X26223992Y-50964958D01*
X26217605Y-50932854D01*
X26196042Y-50900582D01*
X25683670Y-50388210D01*
X25651398Y-50366647D01*
X25619293Y-50360260D01*
X25617789Y-50358941D01*
X25618179Y-50356979D01*
X25619293Y-50356336D01*
X25625678Y-50355066D01*
X25687293Y-50322835D01*
X25722655Y-50258074D01*
X25723921Y-50251710D01*
X25725240Y-50250206D01*
X25727202Y-50250596D01*
G37*
G36*
X28631436Y-50250596D02*
G01*
X28632079Y-50251710D01*
X28633348Y-50258091D01*
X28665578Y-50319707D01*
X28730339Y-50355069D01*
X28736707Y-50356336D01*
X28738211Y-50357655D01*
X28737821Y-50359617D01*
X28736707Y-50360260D01*
X28704602Y-50366647D01*
X28672330Y-50388210D01*
X28159958Y-50900582D01*
X28138395Y-50932854D01*
X28132008Y-50964958D01*
X28130689Y-50966462D01*
X28128727Y-50966072D01*
X28128084Y-50964958D01*
X28126815Y-50958577D01*
X28094585Y-50896961D01*
X28029824Y-50861599D01*
X28023456Y-50860332D01*
X28021952Y-50859013D01*
X28022342Y-50857051D01*
X28023456Y-50856408D01*
X28055561Y-50850021D01*
X28087833Y-50828458D01*
X28600205Y-50316086D01*
X28621768Y-50283814D01*
X28628155Y-50251710D01*
X28629474Y-50250206D01*
X28631436Y-50250596D01*
G37*
G36*
X26010045Y-49967753D02*
G01*
X26010688Y-49968867D01*
X26017075Y-50000971D01*
X26038638Y-50033243D01*
X26551010Y-50545615D01*
X26583282Y-50567178D01*
X26615386Y-50573565D01*
X26616890Y-50574884D01*
X26616500Y-50576846D01*
X26615386Y-50577489D01*
X26609004Y-50578758D01*
X26547388Y-50610988D01*
X26512025Y-50675751D01*
X26510759Y-50682116D01*
X26509440Y-50683620D01*
X26507478Y-50683230D01*
X26506835Y-50682116D01*
X26500448Y-50650012D01*
X26478885Y-50617740D01*
X25966513Y-50105368D01*
X25934241Y-50083805D01*
X25902137Y-50077418D01*
X25900633Y-50076099D01*
X25901023Y-50074137D01*
X25902137Y-50073494D01*
X25908519Y-50072225D01*
X25970135Y-50039995D01*
X26005498Y-49975232D01*
X26006764Y-49968867D01*
X26008083Y-49967363D01*
X26010045Y-49967753D01*
G37*
G36*
X28348593Y-49967753D02*
G01*
X28349236Y-49968867D01*
X28350505Y-49975249D01*
X28382735Y-50036865D01*
X28447498Y-50072228D01*
X28453863Y-50073494D01*
X28455367Y-50074813D01*
X28454977Y-50076775D01*
X28453863Y-50077418D01*
X28421759Y-50083805D01*
X28389487Y-50105368D01*
X27877115Y-50617740D01*
X27855552Y-50650012D01*
X27849165Y-50682116D01*
X27847846Y-50683620D01*
X27845884Y-50683230D01*
X27845241Y-50682116D01*
X27843972Y-50675734D01*
X27811742Y-50614118D01*
X27746979Y-50578755D01*
X27740614Y-50577489D01*
X27739110Y-50576170D01*
X27739500Y-50574208D01*
X27740614Y-50573565D01*
X27772718Y-50567178D01*
X27804990Y-50545615D01*
X28317362Y-50033243D01*
X28338925Y-50000971D01*
X28345312Y-49968867D01*
X28346631Y-49967363D01*
X28348593Y-49967753D01*
G37*
G36*
X26292887Y-49684909D02*
G01*
X26293530Y-49686023D01*
X26299917Y-49718128D01*
X26321480Y-49750400D01*
X26833852Y-50262772D01*
X26866124Y-50284335D01*
X26898228Y-50290722D01*
X26899732Y-50292041D01*
X26899342Y-50294003D01*
X26898228Y-50294646D01*
X26891847Y-50295915D01*
X26830231Y-50328145D01*
X26794869Y-50392906D01*
X26793602Y-50399274D01*
X26792283Y-50400778D01*
X26790321Y-50400388D01*
X26789678Y-50399274D01*
X26783291Y-50367169D01*
X26761728Y-50334897D01*
X26249356Y-49822525D01*
X26217084Y-49800962D01*
X26184980Y-49794575D01*
X26183476Y-49793256D01*
X26183866Y-49791294D01*
X26184980Y-49790651D01*
X26191361Y-49789382D01*
X26252977Y-49757152D01*
X26288339Y-49692391D01*
X26289606Y-49686023D01*
X26290925Y-49684519D01*
X26292887Y-49684909D01*
G37*
G36*
X28065751Y-49684909D02*
G01*
X28066394Y-49686023D01*
X28067664Y-49692408D01*
X28099895Y-49754023D01*
X28164656Y-49789385D01*
X28171020Y-49790651D01*
X28172524Y-49791970D01*
X28172134Y-49793932D01*
X28171020Y-49794575D01*
X28138916Y-49800962D01*
X28106644Y-49822525D01*
X27594272Y-50334897D01*
X27572709Y-50367169D01*
X27566322Y-50399274D01*
X27565003Y-50400778D01*
X27563041Y-50400388D01*
X27562398Y-50399274D01*
X27561128Y-50392889D01*
X27528897Y-50331274D01*
X27464136Y-50295912D01*
X27457772Y-50294646D01*
X27456268Y-50293327D01*
X27456658Y-50291365D01*
X27457772Y-50290722D01*
X27489876Y-50284335D01*
X27522148Y-50262772D01*
X28034520Y-49750400D01*
X28056083Y-49718128D01*
X28062470Y-49686023D01*
X28063789Y-49684519D01*
X28065751Y-49684909D01*
G37*
G36*
X7577376Y-41841583D02*
G01*
X7592564Y-41851732D01*
X7611500Y-41855499D01*
X9011102Y-41855499D01*
X9030039Y-41851732D01*
X9045074Y-41841685D01*
X9047069Y-41841554D01*
X9048181Y-41843217D01*
X9048094Y-41843946D01*
X9029199Y-41904287D01*
X9048256Y-41969189D01*
X9047784Y-41971132D01*
X9045865Y-41971696D01*
X9045226Y-41971415D01*
X9030039Y-41961267D01*
X9011102Y-41957500D01*
X7611500Y-41957500D01*
X7592563Y-41961267D01*
X7577529Y-41971313D01*
X7575533Y-41971444D01*
X7574422Y-41969781D01*
X7574509Y-41969052D01*
X7593403Y-41908709D01*
X7574346Y-41843809D01*
X7574818Y-41841866D01*
X7576737Y-41841302D01*
X7577376Y-41841583D01*
G37*
G36*
X13477377Y-41841583D02*
G01*
X13492565Y-41851732D01*
X13511501Y-41855499D01*
X14911103Y-41855499D01*
X14930040Y-41851732D01*
X14945075Y-41841685D01*
X14947070Y-41841554D01*
X14948182Y-41843217D01*
X14948095Y-41843946D01*
X14929200Y-41904287D01*
X14948257Y-41969189D01*
X14947785Y-41971132D01*
X14945866Y-41971696D01*
X14945227Y-41971415D01*
X14930040Y-41961267D01*
X14911103Y-41957500D01*
X13511501Y-41957500D01*
X13492564Y-41961267D01*
X13477530Y-41971313D01*
X13475534Y-41971444D01*
X13474423Y-41969781D01*
X13474510Y-41969052D01*
X13493404Y-41908709D01*
X13474347Y-41843809D01*
X13474819Y-41841866D01*
X13476738Y-41841302D01*
X13477377Y-41841583D01*
G37*
G36*
X13477378Y-41341582D02*
G01*
X13492564Y-41351730D01*
X13511501Y-41355497D01*
X14911103Y-41355497D01*
X14930039Y-41351730D01*
X14945073Y-41341684D01*
X14947068Y-41341553D01*
X14948180Y-41343216D01*
X14948093Y-41343945D01*
X14929199Y-41404288D01*
X14948256Y-41469190D01*
X14947784Y-41471133D01*
X14945865Y-41471697D01*
X14945226Y-41471416D01*
X14930040Y-41461268D01*
X14911103Y-41457501D01*
X13511501Y-41457501D01*
X13492565Y-41461268D01*
X13477531Y-41471314D01*
X13475536Y-41471445D01*
X13474424Y-41469782D01*
X13474511Y-41469053D01*
X13493405Y-41408710D01*
X13474348Y-41343808D01*
X13474820Y-41341865D01*
X13476739Y-41341301D01*
X13477378Y-41341582D01*
G37*
G36*
X7577377Y-41341582D02*
G01*
X7592563Y-41351730D01*
X7611500Y-41355497D01*
X9011102Y-41355497D01*
X9030038Y-41351730D01*
X9045072Y-41341684D01*
X9047067Y-41341553D01*
X9048179Y-41343216D01*
X9048092Y-41343945D01*
X9029198Y-41404288D01*
X9048255Y-41469190D01*
X9047783Y-41471133D01*
X9045864Y-41471697D01*
X9045225Y-41471416D01*
X9030039Y-41461268D01*
X9011102Y-41457501D01*
X7611500Y-41457501D01*
X7592564Y-41461268D01*
X7577530Y-41471314D01*
X7575535Y-41471445D01*
X7574423Y-41469782D01*
X7574510Y-41469053D01*
X7593404Y-41408710D01*
X7574347Y-41343808D01*
X7574819Y-41341865D01*
X7576738Y-41341301D01*
X7577377Y-41341582D01*
G37*
G36*
X7577376Y-40841583D02*
G01*
X7592563Y-40851731D01*
X7611500Y-40855498D01*
X9011102Y-40855498D01*
X9030039Y-40851731D01*
X9045073Y-40841685D01*
X9047069Y-40841554D01*
X9048180Y-40843217D01*
X9048093Y-40843946D01*
X9029199Y-40904289D01*
X9048256Y-40969189D01*
X9047784Y-40971132D01*
X9045865Y-40971696D01*
X9045226Y-40971415D01*
X9030038Y-40961266D01*
X9011102Y-40957499D01*
X7611500Y-40957499D01*
X7592563Y-40961266D01*
X7577528Y-40971313D01*
X7575533Y-40971444D01*
X7574421Y-40969781D01*
X7574508Y-40969052D01*
X7593403Y-40908711D01*
X7574346Y-40843809D01*
X7574818Y-40841866D01*
X7576737Y-40841302D01*
X7577376Y-40841583D01*
G37*
G36*
X13477377Y-40841583D02*
G01*
X13492564Y-40851731D01*
X13511501Y-40855498D01*
X14911103Y-40855498D01*
X14930040Y-40851731D01*
X14945074Y-40841685D01*
X14947070Y-40841554D01*
X14948181Y-40843217D01*
X14948094Y-40843946D01*
X14929200Y-40904289D01*
X14948257Y-40969189D01*
X14947785Y-40971132D01*
X14945866Y-40971696D01*
X14945227Y-40971415D01*
X14930039Y-40961266D01*
X14911103Y-40957499D01*
X13511501Y-40957499D01*
X13492564Y-40961266D01*
X13477529Y-40971313D01*
X13475534Y-40971444D01*
X13474422Y-40969781D01*
X13474509Y-40969052D01*
X13493404Y-40908711D01*
X13474347Y-40843809D01*
X13474819Y-40841866D01*
X13476738Y-40841302D01*
X13477377Y-40841583D01*
G37*
G36*
X13477377Y-40341584D02*
G01*
X13492564Y-40351732D01*
X13511501Y-40355499D01*
X14911103Y-40355499D01*
X14930040Y-40351732D01*
X14945074Y-40341686D01*
X14947070Y-40341555D01*
X14948181Y-40343218D01*
X14948094Y-40343947D01*
X14929200Y-40404290D01*
X14948257Y-40469190D01*
X14947785Y-40471133D01*
X14945866Y-40471697D01*
X14945227Y-40471416D01*
X14930039Y-40461267D01*
X14911103Y-40457500D01*
X13511501Y-40457500D01*
X13492564Y-40461267D01*
X13477529Y-40471314D01*
X13475534Y-40471445D01*
X13474422Y-40469782D01*
X13474509Y-40469053D01*
X13493404Y-40408712D01*
X13474347Y-40343810D01*
X13474819Y-40341867D01*
X13476738Y-40341303D01*
X13477377Y-40341584D01*
G37*
G36*
X7577376Y-40341584D02*
G01*
X7592563Y-40351732D01*
X7611500Y-40355499D01*
X9011102Y-40355499D01*
X9030039Y-40351732D01*
X9045073Y-40341686D01*
X9047069Y-40341555D01*
X9048180Y-40343218D01*
X9048093Y-40343947D01*
X9029199Y-40404290D01*
X9048256Y-40469190D01*
X9047784Y-40471133D01*
X9045865Y-40471697D01*
X9045226Y-40471416D01*
X9030038Y-40461267D01*
X9011102Y-40457500D01*
X7611500Y-40457500D01*
X7592563Y-40461267D01*
X7577528Y-40471314D01*
X7575533Y-40471445D01*
X7574421Y-40469782D01*
X7574508Y-40469053D01*
X7593403Y-40408712D01*
X7574346Y-40343810D01*
X7574818Y-40341867D01*
X7576737Y-40341303D01*
X7577376Y-40341584D01*
G37*
G36*
X13477378Y-39841583D02*
G01*
X13492564Y-39851731D01*
X13511501Y-39855498D01*
X14911103Y-39855498D01*
X14930039Y-39851731D01*
X14945073Y-39841685D01*
X14947068Y-39841554D01*
X14948180Y-39843217D01*
X14948093Y-39843946D01*
X14929199Y-39904289D01*
X14948256Y-39969190D01*
X14947784Y-39971133D01*
X14945865Y-39971697D01*
X14945226Y-39971416D01*
X14930040Y-39961268D01*
X14911103Y-39957501D01*
X13511501Y-39957501D01*
X13492565Y-39961268D01*
X13477531Y-39971314D01*
X13475536Y-39971445D01*
X13474424Y-39969782D01*
X13474511Y-39969053D01*
X13493405Y-39908713D01*
X13474348Y-39843809D01*
X13474820Y-39841866D01*
X13476739Y-39841302D01*
X13477378Y-39841583D01*
G37*
G36*
X7577377Y-39841583D02*
G01*
X7592563Y-39851731D01*
X7611500Y-39855498D01*
X9011102Y-39855498D01*
X9030038Y-39851731D01*
X9045072Y-39841685D01*
X9047067Y-39841554D01*
X9048179Y-39843217D01*
X9048092Y-39843946D01*
X9029198Y-39904289D01*
X9048255Y-39969190D01*
X9047783Y-39971133D01*
X9045864Y-39971697D01*
X9045225Y-39971416D01*
X9030039Y-39961268D01*
X9011102Y-39957501D01*
X7611500Y-39957501D01*
X7592564Y-39961268D01*
X7577530Y-39971314D01*
X7575535Y-39971445D01*
X7574423Y-39969782D01*
X7574510Y-39969053D01*
X7593404Y-39908713D01*
X7574347Y-39843809D01*
X7574819Y-39841866D01*
X7576738Y-39841302D01*
X7577377Y-39841583D01*
G37*
G36*
X13477377Y-39341584D02*
G01*
X13492564Y-39351732D01*
X13511501Y-39355499D01*
X14911103Y-39355499D01*
X14930040Y-39351732D01*
X14945074Y-39341686D01*
X14947070Y-39341555D01*
X14948181Y-39343218D01*
X14948094Y-39343947D01*
X14929200Y-39404290D01*
X14948257Y-39469190D01*
X14947785Y-39471133D01*
X14945866Y-39471697D01*
X14945227Y-39471416D01*
X14930039Y-39461267D01*
X14911103Y-39457500D01*
X13511501Y-39457500D01*
X13492564Y-39461267D01*
X13477529Y-39471314D01*
X13475534Y-39471445D01*
X13474422Y-39469782D01*
X13474509Y-39469053D01*
X13493404Y-39408712D01*
X13474347Y-39343810D01*
X13474819Y-39341867D01*
X13476738Y-39341303D01*
X13477377Y-39341584D01*
G37*
G36*
X7577376Y-39341584D02*
G01*
X7592563Y-39351732D01*
X7611500Y-39355499D01*
X9011102Y-39355499D01*
X9030039Y-39351732D01*
X9045073Y-39341686D01*
X9047069Y-39341555D01*
X9048180Y-39343218D01*
X9048093Y-39343947D01*
X9029199Y-39404290D01*
X9048256Y-39469190D01*
X9047784Y-39471133D01*
X9045865Y-39471697D01*
X9045226Y-39471416D01*
X9030038Y-39461267D01*
X9011102Y-39457500D01*
X7611500Y-39457500D01*
X7592563Y-39461267D01*
X7577528Y-39471314D01*
X7575533Y-39471445D01*
X7574421Y-39469782D01*
X7574508Y-39469053D01*
X7593403Y-39408712D01*
X7574346Y-39343810D01*
X7574818Y-39341867D01*
X7576737Y-39341303D01*
X7577376Y-39341584D01*
G37*
G36*
X13477378Y-38841582D02*
G01*
X13492564Y-38851730D01*
X13511501Y-38855497D01*
X14911103Y-38855497D01*
X14930039Y-38851730D01*
X14945073Y-38841684D01*
X14947068Y-38841553D01*
X14948180Y-38843216D01*
X14948093Y-38843945D01*
X14929199Y-38904288D01*
X14948256Y-38969190D01*
X14947784Y-38971133D01*
X14945865Y-38971697D01*
X14945226Y-38971416D01*
X14930040Y-38961268D01*
X14911103Y-38957501D01*
X13511501Y-38957501D01*
X13492565Y-38961268D01*
X13477531Y-38971314D01*
X13475536Y-38971445D01*
X13474424Y-38969782D01*
X13474511Y-38969053D01*
X13493405Y-38908710D01*
X13474348Y-38843808D01*
X13474820Y-38841865D01*
X13476739Y-38841301D01*
X13477378Y-38841582D01*
G37*
G36*
X7577377Y-38841582D02*
G01*
X7592563Y-38851730D01*
X7611500Y-38855497D01*
X9011102Y-38855497D01*
X9030038Y-38851730D01*
X9045072Y-38841684D01*
X9047067Y-38841553D01*
X9048179Y-38843216D01*
X9048092Y-38843945D01*
X9029198Y-38904288D01*
X9048255Y-38969190D01*
X9047783Y-38971133D01*
X9045864Y-38971697D01*
X9045225Y-38971416D01*
X9030039Y-38961268D01*
X9011102Y-38957501D01*
X7611500Y-38957501D01*
X7592564Y-38961268D01*
X7577530Y-38971314D01*
X7575535Y-38971445D01*
X7574423Y-38969782D01*
X7574510Y-38969053D01*
X7593404Y-38908710D01*
X7574347Y-38843808D01*
X7574819Y-38841865D01*
X7576738Y-38841301D01*
X7577377Y-38841582D01*
G37*
G36*
X7577376Y-38341583D02*
G01*
X7592563Y-38351731D01*
X7611500Y-38355498D01*
X9011102Y-38355498D01*
X9030039Y-38351731D01*
X9045073Y-38341685D01*
X9047069Y-38341554D01*
X9048180Y-38343217D01*
X9048093Y-38343946D01*
X9029199Y-38404289D01*
X9048256Y-38469189D01*
X9047784Y-38471132D01*
X9045865Y-38471696D01*
X9045226Y-38471415D01*
X9030038Y-38461266D01*
X9011102Y-38457499D01*
X7611500Y-38457499D01*
X7592563Y-38461266D01*
X7577528Y-38471313D01*
X7575533Y-38471444D01*
X7574421Y-38469781D01*
X7574508Y-38469052D01*
X7593403Y-38408711D01*
X7574346Y-38343809D01*
X7574818Y-38341866D01*
X7576737Y-38341302D01*
X7577376Y-38341583D01*
G37*
G36*
X13477377Y-38341583D02*
G01*
X13492564Y-38351731D01*
X13511501Y-38355498D01*
X14911103Y-38355498D01*
X14930040Y-38351731D01*
X14945074Y-38341685D01*
X14947070Y-38341554D01*
X14948181Y-38343217D01*
X14948094Y-38343946D01*
X14929200Y-38404289D01*
X14948257Y-38469189D01*
X14947785Y-38471132D01*
X14945866Y-38471696D01*
X14945227Y-38471415D01*
X14930039Y-38461266D01*
X14911103Y-38457499D01*
X13511501Y-38457499D01*
X13492564Y-38461266D01*
X13477529Y-38471313D01*
X13475534Y-38471444D01*
X13474422Y-38469781D01*
X13474509Y-38469052D01*
X13493404Y-38408711D01*
X13474347Y-38343809D01*
X13474819Y-38341866D01*
X13476738Y-38341302D01*
X13477377Y-38341583D01*
G37*
G36*
X13477377Y-37841584D02*
G01*
X13492564Y-37851732D01*
X13511501Y-37855499D01*
X14911103Y-37855499D01*
X14930040Y-37851732D01*
X14945074Y-37841686D01*
X14947070Y-37841555D01*
X14948181Y-37843218D01*
X14948094Y-37843947D01*
X14929200Y-37904290D01*
X14948257Y-37969190D01*
X14947785Y-37971133D01*
X14945866Y-37971697D01*
X14945227Y-37971416D01*
X14930039Y-37961267D01*
X14911103Y-37957500D01*
X13511501Y-37957500D01*
X13492564Y-37961267D01*
X13477529Y-37971314D01*
X13475534Y-37971445D01*
X13474422Y-37969782D01*
X13474509Y-37969053D01*
X13493404Y-37908712D01*
X13474347Y-37843810D01*
X13474819Y-37841867D01*
X13476738Y-37841303D01*
X13477377Y-37841584D01*
G37*
G36*
X7577376Y-37841584D02*
G01*
X7592563Y-37851732D01*
X7611500Y-37855499D01*
X9011102Y-37855499D01*
X9030039Y-37851732D01*
X9045073Y-37841686D01*
X9047069Y-37841555D01*
X9048180Y-37843218D01*
X9048093Y-37843947D01*
X9029199Y-37904290D01*
X9048256Y-37969190D01*
X9047784Y-37971133D01*
X9045865Y-37971697D01*
X9045226Y-37971416D01*
X9030038Y-37961267D01*
X9011102Y-37957500D01*
X7611500Y-37957500D01*
X7592563Y-37961267D01*
X7577528Y-37971314D01*
X7575533Y-37971445D01*
X7574421Y-37969782D01*
X7574508Y-37969053D01*
X7593403Y-37908712D01*
X7574346Y-37843810D01*
X7574818Y-37841867D01*
X7576737Y-37841303D01*
X7577376Y-37841584D01*
G37*
G36*
X7577377Y-37341582D02*
G01*
X7592563Y-37351730D01*
X7611500Y-37355497D01*
X9011102Y-37355497D01*
X9030038Y-37351730D01*
X9045072Y-37341684D01*
X9047067Y-37341553D01*
X9048179Y-37343216D01*
X9048092Y-37343945D01*
X9029198Y-37404288D01*
X9048255Y-37469190D01*
X9047783Y-37471133D01*
X9045864Y-37471697D01*
X9045225Y-37471416D01*
X9030039Y-37461268D01*
X9011102Y-37457501D01*
X7611500Y-37457501D01*
X7592564Y-37461268D01*
X7577530Y-37471314D01*
X7575535Y-37471445D01*
X7574423Y-37469782D01*
X7574510Y-37469053D01*
X7593404Y-37408710D01*
X7574347Y-37343808D01*
X7574819Y-37341865D01*
X7576738Y-37341301D01*
X7577377Y-37341582D01*
G37*
G36*
X13477378Y-37341582D02*
G01*
X13492564Y-37351730D01*
X13511501Y-37355497D01*
X14911103Y-37355497D01*
X14930039Y-37351730D01*
X14945073Y-37341684D01*
X14947068Y-37341553D01*
X14948180Y-37343216D01*
X14948093Y-37343945D01*
X14929199Y-37404288D01*
X14948256Y-37469190D01*
X14947784Y-37471133D01*
X14945865Y-37471697D01*
X14945226Y-37471416D01*
X14930040Y-37461268D01*
X14911103Y-37457501D01*
X13511501Y-37457501D01*
X13492565Y-37461268D01*
X13477531Y-37471314D01*
X13475536Y-37471445D01*
X13474424Y-37469782D01*
X13474511Y-37469053D01*
X13493405Y-37408710D01*
X13474348Y-37343808D01*
X13474820Y-37341865D01*
X13476739Y-37341301D01*
X13477378Y-37341582D01*
G37*
G36*
X13477377Y-36841583D02*
G01*
X13492564Y-36851731D01*
X13511501Y-36855498D01*
X14911103Y-36855498D01*
X14930040Y-36851731D01*
X14945075Y-36841684D01*
X14947070Y-36841553D01*
X14948182Y-36843216D01*
X14948095Y-36843945D01*
X14929200Y-36904286D01*
X14948257Y-36969188D01*
X14947785Y-36971131D01*
X14945866Y-36971695D01*
X14945227Y-36971414D01*
X14930040Y-36961266D01*
X14911103Y-36957499D01*
X13511501Y-36957499D01*
X13492564Y-36961266D01*
X13477529Y-36971313D01*
X13475534Y-36971444D01*
X13474422Y-36969781D01*
X13474509Y-36969052D01*
X13493404Y-36908711D01*
X13474347Y-36843809D01*
X13474819Y-36841866D01*
X13476738Y-36841302D01*
X13477377Y-36841583D01*
G37*
G36*
X7577376Y-36841583D02*
G01*
X7592563Y-36851731D01*
X7611500Y-36855498D01*
X9011102Y-36855498D01*
X9030039Y-36851731D01*
X9045074Y-36841684D01*
X9047069Y-36841553D01*
X9048181Y-36843216D01*
X9048094Y-36843945D01*
X9029199Y-36904286D01*
X9048256Y-36969188D01*
X9047784Y-36971131D01*
X9045865Y-36971695D01*
X9045226Y-36971414D01*
X9030039Y-36961266D01*
X9011102Y-36957499D01*
X7611500Y-36957499D01*
X7592563Y-36961266D01*
X7577528Y-36971313D01*
X7575533Y-36971444D01*
X7574421Y-36969781D01*
X7574508Y-36969052D01*
X7593403Y-36908711D01*
X7574346Y-36843809D01*
X7574818Y-36841866D01*
X7576737Y-36841302D01*
X7577376Y-36841583D01*
G37*
G36*
X13477378Y-36341582D02*
G01*
X13492564Y-36351730D01*
X13511501Y-36355497D01*
X14911103Y-36355497D01*
X14930039Y-36351730D01*
X14945073Y-36341684D01*
X14947068Y-36341553D01*
X14948180Y-36343216D01*
X14948093Y-36343945D01*
X14929199Y-36404288D01*
X14948256Y-36469189D01*
X14947784Y-36471132D01*
X14945865Y-36471696D01*
X14945226Y-36471415D01*
X14930040Y-36461267D01*
X14911103Y-36457500D01*
X13511501Y-36457500D01*
X13492565Y-36461267D01*
X13477531Y-36471313D01*
X13475536Y-36471444D01*
X13474424Y-36469781D01*
X13474511Y-36469052D01*
X13493405Y-36408712D01*
X13474348Y-36343808D01*
X13474820Y-36341865D01*
X13476739Y-36341301D01*
X13477378Y-36341582D01*
G37*
G36*
X7577377Y-36341582D02*
G01*
X7592563Y-36351730D01*
X7611500Y-36355497D01*
X9011102Y-36355497D01*
X9030038Y-36351730D01*
X9045072Y-36341684D01*
X9047067Y-36341553D01*
X9048179Y-36343216D01*
X9048092Y-36343945D01*
X9029198Y-36404288D01*
X9048255Y-36469189D01*
X9047783Y-36471132D01*
X9045864Y-36471696D01*
X9045225Y-36471415D01*
X9030039Y-36461267D01*
X9011102Y-36457500D01*
X7611500Y-36457500D01*
X7592564Y-36461267D01*
X7577530Y-36471313D01*
X7575535Y-36471444D01*
X7574423Y-36469781D01*
X7574510Y-36469052D01*
X7593404Y-36408712D01*
X7574347Y-36343808D01*
X7574819Y-36341865D01*
X7576738Y-36341301D01*
X7577377Y-36341582D01*
G37*
G36*
X7577376Y-35841583D02*
G01*
X7592563Y-35851731D01*
X7611500Y-35855498D01*
X9011102Y-35855498D01*
X9030039Y-35851731D01*
X9045073Y-35841685D01*
X9047069Y-35841554D01*
X9048180Y-35843217D01*
X9048093Y-35843946D01*
X9029199Y-35904289D01*
X9048256Y-35969189D01*
X9047784Y-35971132D01*
X9045865Y-35971696D01*
X9045226Y-35971415D01*
X9030038Y-35961266D01*
X9011102Y-35957499D01*
X7611500Y-35957499D01*
X7592563Y-35961266D01*
X7577528Y-35971313D01*
X7575533Y-35971444D01*
X7574421Y-35969781D01*
X7574508Y-35969052D01*
X7593403Y-35908711D01*
X7574346Y-35843809D01*
X7574818Y-35841866D01*
X7576737Y-35841302D01*
X7577376Y-35841583D01*
G37*
G36*
X13477377Y-35841583D02*
G01*
X13492564Y-35851731D01*
X13511501Y-35855498D01*
X14911103Y-35855498D01*
X14930040Y-35851731D01*
X14945074Y-35841685D01*
X14947070Y-35841554D01*
X14948181Y-35843217D01*
X14948094Y-35843946D01*
X14929200Y-35904289D01*
X14948257Y-35969189D01*
X14947785Y-35971132D01*
X14945866Y-35971696D01*
X14945227Y-35971415D01*
X14930039Y-35961266D01*
X14911103Y-35957499D01*
X13511501Y-35957499D01*
X13492564Y-35961266D01*
X13477529Y-35971313D01*
X13475534Y-35971444D01*
X13474422Y-35969781D01*
X13474509Y-35969052D01*
X13493404Y-35908711D01*
X13474347Y-35843809D01*
X13474819Y-35841866D01*
X13476738Y-35841302D01*
X13477377Y-35841583D01*
G37*
G36*
X13477377Y-35341584D02*
G01*
X13492564Y-35351732D01*
X13511501Y-35355499D01*
X14911103Y-35355499D01*
X14930040Y-35351732D01*
X14945075Y-35341685D01*
X14947070Y-35341554D01*
X14948182Y-35343217D01*
X14948095Y-35343946D01*
X14929200Y-35404287D01*
X14948257Y-35469189D01*
X14947785Y-35471132D01*
X14945866Y-35471696D01*
X14945227Y-35471415D01*
X14930040Y-35461267D01*
X14911103Y-35457500D01*
X13511501Y-35457500D01*
X13492564Y-35461267D01*
X13477529Y-35471314D01*
X13475534Y-35471445D01*
X13474422Y-35469782D01*
X13474509Y-35469053D01*
X13493404Y-35408712D01*
X13474347Y-35343810D01*
X13474819Y-35341867D01*
X13476738Y-35341303D01*
X13477377Y-35341584D01*
G37*
G36*
X7577376Y-35341583D02*
G01*
X7592564Y-35351732D01*
X7611500Y-35355499D01*
X9011102Y-35355499D01*
X9030039Y-35351732D01*
X9045074Y-35341685D01*
X9047069Y-35341554D01*
X9048181Y-35343217D01*
X9048094Y-35343946D01*
X9029199Y-35404287D01*
X9048256Y-35469189D01*
X9047784Y-35471132D01*
X9045865Y-35471696D01*
X9045226Y-35471415D01*
X9030039Y-35461267D01*
X9011102Y-35457500D01*
X7611500Y-35457500D01*
X7592563Y-35461267D01*
X7577529Y-35471313D01*
X7575533Y-35471444D01*
X7574422Y-35469781D01*
X7574509Y-35469052D01*
X7593403Y-35408709D01*
X7574346Y-35343809D01*
X7574818Y-35341866D01*
X7576737Y-35341302D01*
X7577376Y-35341583D01*
G37*
G36*
X7577377Y-34841582D02*
G01*
X7592563Y-34851730D01*
X7611500Y-34855497D01*
X9011102Y-34855497D01*
X9030038Y-34851730D01*
X9045072Y-34841684D01*
X9047067Y-34841553D01*
X9048179Y-34843216D01*
X9048092Y-34843945D01*
X9029198Y-34904288D01*
X9048255Y-34969190D01*
X9047783Y-34971133D01*
X9045864Y-34971697D01*
X9045225Y-34971416D01*
X9030039Y-34961268D01*
X9011102Y-34957501D01*
X7611500Y-34957501D01*
X7592564Y-34961268D01*
X7577530Y-34971314D01*
X7575535Y-34971445D01*
X7574423Y-34969782D01*
X7574510Y-34969053D01*
X7593404Y-34908710D01*
X7574347Y-34843808D01*
X7574819Y-34841865D01*
X7576738Y-34841301D01*
X7577377Y-34841582D01*
G37*
G36*
X13477378Y-34841582D02*
G01*
X13492564Y-34851730D01*
X13511501Y-34855497D01*
X14911103Y-34855497D01*
X14930039Y-34851730D01*
X14945073Y-34841684D01*
X14947068Y-34841553D01*
X14948180Y-34843216D01*
X14948093Y-34843945D01*
X14929199Y-34904288D01*
X14948256Y-34969190D01*
X14947784Y-34971133D01*
X14945865Y-34971697D01*
X14945226Y-34971416D01*
X14930040Y-34961268D01*
X14911103Y-34957501D01*
X13511501Y-34957501D01*
X13492565Y-34961268D01*
X13477531Y-34971314D01*
X13475536Y-34971445D01*
X13474424Y-34969782D01*
X13474511Y-34969053D01*
X13493405Y-34908710D01*
X13474348Y-34843808D01*
X13474820Y-34841865D01*
X13476739Y-34841301D01*
X13477378Y-34841582D01*
G37*
G36*
X13477377Y-34341582D02*
G01*
X13492565Y-34351731D01*
X13511501Y-34355498D01*
X14911103Y-34355498D01*
X14930040Y-34351731D01*
X14945075Y-34341684D01*
X14947070Y-34341553D01*
X14948182Y-34343216D01*
X14948095Y-34343945D01*
X14929200Y-34404286D01*
X14948257Y-34469188D01*
X14947785Y-34471131D01*
X14945866Y-34471695D01*
X14945227Y-34471414D01*
X14930040Y-34461266D01*
X14911103Y-34457499D01*
X13511501Y-34457499D01*
X13492564Y-34461266D01*
X13477530Y-34471312D01*
X13475534Y-34471443D01*
X13474423Y-34469780D01*
X13474510Y-34469051D01*
X13493404Y-34408708D01*
X13474347Y-34343808D01*
X13474819Y-34341865D01*
X13476738Y-34341301D01*
X13477377Y-34341582D01*
G37*
G36*
X7577376Y-34341582D02*
G01*
X7592564Y-34351731D01*
X7611500Y-34355498D01*
X9011102Y-34355498D01*
X9030039Y-34351731D01*
X9045074Y-34341684D01*
X9047069Y-34341553D01*
X9048181Y-34343216D01*
X9048094Y-34343945D01*
X9029199Y-34404286D01*
X9048256Y-34469188D01*
X9047784Y-34471131D01*
X9045865Y-34471695D01*
X9045226Y-34471414D01*
X9030039Y-34461266D01*
X9011102Y-34457499D01*
X7611500Y-34457499D01*
X7592563Y-34461266D01*
X7577529Y-34471312D01*
X7575533Y-34471443D01*
X7574422Y-34469780D01*
X7574509Y-34469051D01*
X7593403Y-34408708D01*
X7574346Y-34343808D01*
X7574818Y-34341865D01*
X7576737Y-34341301D01*
X7577376Y-34341582D01*
G37*
G36*
X13477378Y-33841582D02*
G01*
X13492564Y-33851730D01*
X13511501Y-33855497D01*
X14911103Y-33855497D01*
X14930039Y-33851730D01*
X14945073Y-33841684D01*
X14947068Y-33841553D01*
X14948180Y-33843216D01*
X14948093Y-33843945D01*
X14929199Y-33904288D01*
X14948256Y-33969189D01*
X14947784Y-33971132D01*
X14945865Y-33971696D01*
X14945226Y-33971415D01*
X14930040Y-33961267D01*
X14911103Y-33957500D01*
X13511501Y-33957500D01*
X13492565Y-33961267D01*
X13477531Y-33971313D01*
X13475536Y-33971444D01*
X13474424Y-33969781D01*
X13474511Y-33969052D01*
X13493405Y-33908712D01*
X13474348Y-33843808D01*
X13474820Y-33841865D01*
X13476739Y-33841301D01*
X13477378Y-33841582D01*
G37*
G36*
X7577377Y-33841582D02*
G01*
X7592563Y-33851730D01*
X7611500Y-33855497D01*
X9011102Y-33855497D01*
X9030038Y-33851730D01*
X9045072Y-33841684D01*
X9047067Y-33841553D01*
X9048179Y-33843216D01*
X9048092Y-33843945D01*
X9029198Y-33904288D01*
X9048255Y-33969189D01*
X9047783Y-33971132D01*
X9045864Y-33971696D01*
X9045225Y-33971415D01*
X9030039Y-33961267D01*
X9011102Y-33957500D01*
X7611500Y-33957500D01*
X7592564Y-33961267D01*
X7577530Y-33971313D01*
X7575535Y-33971444D01*
X7574423Y-33969781D01*
X7574510Y-33969052D01*
X7593404Y-33908712D01*
X7574347Y-33843808D01*
X7574819Y-33841865D01*
X7576738Y-33841301D01*
X7577377Y-33841582D01*
G37*
G36*
X7577376Y-33341582D02*
G01*
X7592564Y-33351731D01*
X7611500Y-33355498D01*
X9011102Y-33355498D01*
X9030039Y-33351731D01*
X9045074Y-33341684D01*
X9047069Y-33341553D01*
X9048181Y-33343216D01*
X9048094Y-33343945D01*
X9029199Y-33404286D01*
X9048256Y-33469188D01*
X9047784Y-33471131D01*
X9045865Y-33471695D01*
X9045226Y-33471414D01*
X9030039Y-33461266D01*
X9011102Y-33457499D01*
X7611500Y-33457499D01*
X7592563Y-33461266D01*
X7577529Y-33471312D01*
X7575533Y-33471443D01*
X7574422Y-33469780D01*
X7574509Y-33469051D01*
X7593403Y-33408708D01*
X7574346Y-33343808D01*
X7574818Y-33341865D01*
X7576737Y-33341301D01*
X7577376Y-33341582D01*
G37*
G36*
X13477377Y-33341582D02*
G01*
X13492565Y-33351731D01*
X13511501Y-33355498D01*
X14911103Y-33355498D01*
X14930040Y-33351731D01*
X14945075Y-33341684D01*
X14947070Y-33341553D01*
X14948182Y-33343216D01*
X14948095Y-33343945D01*
X14929200Y-33404286D01*
X14948257Y-33469188D01*
X14947785Y-33471131D01*
X14945866Y-33471695D01*
X14945227Y-33471414D01*
X14930040Y-33461266D01*
X14911103Y-33457499D01*
X13511501Y-33457499D01*
X13492564Y-33461266D01*
X13477530Y-33471312D01*
X13475534Y-33471443D01*
X13474423Y-33469780D01*
X13474510Y-33469051D01*
X13493404Y-33408708D01*
X13474347Y-33343808D01*
X13474819Y-33341865D01*
X13476738Y-33341301D01*
X13477377Y-33341582D01*
G37*
M02*
