%TF.GenerationSoftware,KiCad,Pcbnew,(6.0.7)*%
%TF.CreationDate,2022-07-29T08:46:01-07:00*%
%TF.ProjectId,SJ-201-R10,534a2d32-3031-42d5-9231-302e6b696361,rev?*%
%TF.SameCoordinates,Original*%
%TF.FileFunction,Drillmap*%
%TF.FilePolarity,Positive*%
%FSLAX45Y45*%
G04 Gerber Fmt 4.5, Leading zero omitted, Abs format (unit mm)*
G04 Created by KiCad (PCBNEW (6.0.7)) date 2022-07-29 08:46:01*
%MOMM*%
%LPD*%
G01*
G04 APERTURE LIST*
%ADD10C,0.200000*%
%ADD11C,0.030000*%
%ADD12C,0.040000*%
%ADD13C,0.075000*%
%ADD14C,0.100000*%
%ADD15C,0.102000*%
%ADD16C,0.600000*%
%ADD17C,0.650000*%
G04 APERTURE END LIST*
D10*
X7104683Y37529D02*
X396000Y37529D01*
X102224Y-259262D02*
X105800Y-8266000D01*
X396000Y37529D02*
G75*
G03*
X102224Y-259262I1507J-295283D01*
G01*
X7402299Y-263095D02*
G75*
G03*
X7104683Y37529I-299119J1505D01*
G01*
X105800Y-8266000D02*
G75*
G03*
X403191Y-8559176I295283J2107D01*
G01*
X7398459Y-8268695D02*
X7398000Y-4778000D01*
X403191Y-8559176D02*
X7102292Y-8563095D01*
X7102292Y-8563089D02*
G75*
G03*
X7398459Y-8268695I888J295279D01*
G01*
X7402290Y-2552000D02*
G75*
G03*
X7502292Y-2652000I100000J0D01*
G01*
X7899000Y-2746720D02*
X7899000Y-4578000D01*
X7798459Y-4678000D02*
G75*
G03*
X7899000Y-4578000I271J100270D01*
G01*
X7498000Y-4678000D02*
G75*
G03*
X7398000Y-4778000I0J-100000D01*
G01*
X7899000Y-2746720D02*
G75*
G03*
X7798459Y-2652000I-97630J-2910D01*
G01*
X7798459Y-2652000D02*
X7502292Y-2652000D01*
X7798459Y-4678000D02*
X7498000Y-4678000D01*
X7402292Y-2552000D02*
X7402292Y-263095D01*
D11*
X981130Y-3295650D02*
X1011130Y-3325650D01*
X1011130Y-3295650D02*
X981130Y-3325650D01*
X981130Y-3425650D02*
X1011130Y-3455650D01*
X1011130Y-3425650D02*
X981130Y-3455650D01*
X981130Y-3555650D02*
X1011130Y-3585650D01*
X1011130Y-3555650D02*
X981130Y-3585650D01*
X981130Y-3685650D02*
X1011130Y-3715650D01*
X1011130Y-3685650D02*
X981130Y-3715650D01*
X981130Y-3815650D02*
X1011130Y-3845650D01*
X1011130Y-3815650D02*
X981130Y-3845650D01*
X981130Y-3945650D02*
X1011130Y-3975650D01*
X1011130Y-3945650D02*
X981130Y-3975650D01*
X981130Y-4075650D02*
X1011130Y-4105650D01*
X1011130Y-4075650D02*
X981130Y-4105650D01*
X981130Y-4205650D02*
X1011130Y-4235650D01*
X1011130Y-4205650D02*
X981130Y-4235650D01*
X1111130Y-3295650D02*
X1141130Y-3325650D01*
X1141130Y-3295650D02*
X1111130Y-3325650D01*
X1111130Y-3425650D02*
X1141130Y-3455650D01*
X1141130Y-3425650D02*
X1111130Y-3455650D01*
X1111130Y-3555650D02*
X1141130Y-3585650D01*
X1141130Y-3555650D02*
X1111130Y-3585650D01*
X1111130Y-3685650D02*
X1141130Y-3715650D01*
X1141130Y-3685650D02*
X1111130Y-3715650D01*
X1111130Y-3815650D02*
X1141130Y-3845650D01*
X1141130Y-3815650D02*
X1111130Y-3845650D01*
X1111130Y-3945650D02*
X1141130Y-3975650D01*
X1141130Y-3945650D02*
X1111130Y-3975650D01*
X1111130Y-4075650D02*
X1141130Y-4105650D01*
X1141130Y-4075650D02*
X1111130Y-4105650D01*
X1111130Y-4205650D02*
X1141130Y-4235650D01*
X1141130Y-4205650D02*
X1111130Y-4235650D01*
X1241130Y-3295650D02*
X1271130Y-3325650D01*
X1271130Y-3295650D02*
X1241130Y-3325650D01*
X1241130Y-3425650D02*
X1271130Y-3455650D01*
X1271130Y-3425650D02*
X1241130Y-3455650D01*
X1241130Y-3555650D02*
X1271130Y-3585650D01*
X1271130Y-3555650D02*
X1241130Y-3585650D01*
X1241130Y-3685650D02*
X1271130Y-3715650D01*
X1271130Y-3685650D02*
X1241130Y-3715650D01*
X1241130Y-3815650D02*
X1271130Y-3845650D01*
X1271130Y-3815650D02*
X1241130Y-3845650D01*
X1241130Y-3945650D02*
X1271130Y-3975650D01*
X1271130Y-3945650D02*
X1241130Y-3975650D01*
X1241130Y-4075650D02*
X1271130Y-4105650D01*
X1271130Y-4075650D02*
X1241130Y-4105650D01*
X1241130Y-4205650D02*
X1271130Y-4235650D01*
X1271130Y-4205650D02*
X1241130Y-4235650D01*
X2410977Y-5416145D02*
X2440977Y-5446145D01*
X2440977Y-5416145D02*
X2410977Y-5446145D01*
X2481688Y-5345435D02*
X2511688Y-5375435D01*
X2511688Y-5345435D02*
X2481688Y-5375435D01*
X2481688Y-5486856D02*
X2511688Y-5516856D01*
X2511688Y-5486856D02*
X2481688Y-5516856D01*
X2552398Y-5274724D02*
X2582398Y-5304724D01*
X2582398Y-5274724D02*
X2552398Y-5304724D01*
X2552398Y-5416145D02*
X2582398Y-5446145D01*
X2582398Y-5416145D02*
X2552398Y-5446145D01*
X2552398Y-5557567D02*
X2582398Y-5587567D01*
X2582398Y-5557567D02*
X2552398Y-5587567D01*
X2623109Y-5204013D02*
X2653109Y-5234013D01*
X2653109Y-5204013D02*
X2623109Y-5234013D01*
X2623109Y-5345435D02*
X2653109Y-5375435D01*
X2653109Y-5345435D02*
X2623109Y-5375435D01*
X2623109Y-5486856D02*
X2653109Y-5516856D01*
X2653109Y-5486856D02*
X2623109Y-5516856D01*
X2623109Y-5628277D02*
X2653109Y-5658277D01*
X2653109Y-5628277D02*
X2623109Y-5658277D01*
X2693820Y-5133303D02*
X2723820Y-5163303D01*
X2723820Y-5133303D02*
X2693820Y-5163303D01*
X2693820Y-5274724D02*
X2723820Y-5304724D01*
X2723820Y-5274724D02*
X2693820Y-5304724D01*
X2693820Y-5416145D02*
X2723820Y-5446145D01*
X2723820Y-5416145D02*
X2693820Y-5446145D01*
X2693820Y-5557567D02*
X2723820Y-5587567D01*
X2723820Y-5557567D02*
X2693820Y-5587567D01*
X2693820Y-5698988D02*
X2723820Y-5728988D01*
X2723820Y-5698988D02*
X2693820Y-5728988D01*
X2764530Y-5204013D02*
X2794530Y-5234013D01*
X2794530Y-5204013D02*
X2764530Y-5234013D01*
X2764530Y-5345435D02*
X2794530Y-5375435D01*
X2794530Y-5345435D02*
X2764530Y-5375435D01*
X2764530Y-5486856D02*
X2794530Y-5516856D01*
X2794530Y-5486856D02*
X2764530Y-5516856D01*
X2764530Y-5628277D02*
X2794530Y-5658277D01*
X2794530Y-5628277D02*
X2764530Y-5658277D01*
X2835241Y-5274724D02*
X2865241Y-5304724D01*
X2865241Y-5274724D02*
X2835241Y-5304724D01*
X2835241Y-5416145D02*
X2865241Y-5446145D01*
X2865241Y-5416145D02*
X2835241Y-5446145D01*
X2835241Y-5557567D02*
X2865241Y-5587567D01*
X2865241Y-5557567D02*
X2835241Y-5587567D01*
X2905952Y-5345435D02*
X2935952Y-5375435D01*
X2935952Y-5345435D02*
X2905952Y-5375435D01*
X2905952Y-5486856D02*
X2935952Y-5516856D01*
X2935952Y-5486856D02*
X2905952Y-5516856D01*
X2976662Y-5416145D02*
X3006662Y-5446145D01*
X3006662Y-5416145D02*
X2976662Y-5446145D01*
D12*
X187640Y-248920D02*
G75*
G03*
X187640Y-248920I-20000J0D01*
G01*
X187640Y-502920D02*
G75*
G03*
X187640Y-502920I-20000J0D01*
G01*
X187640Y-756920D02*
G75*
G03*
X187640Y-756920I-20000J0D01*
G01*
X187640Y-1010920D02*
G75*
G03*
X187640Y-1010920I-20000J0D01*
G01*
X187640Y-1264920D02*
G75*
G03*
X187640Y-1264920I-20000J0D01*
G01*
X187640Y-1518920D02*
G75*
G03*
X187640Y-1518920I-20000J0D01*
G01*
X187640Y-1772920D02*
G75*
G03*
X187640Y-1772920I-20000J0D01*
G01*
X187640Y-2026920D02*
G75*
G03*
X187640Y-2026920I-20000J0D01*
G01*
X187640Y-2280920D02*
G75*
G03*
X187640Y-2280920I-20000J0D01*
G01*
X187640Y-2534920D02*
G75*
G03*
X187640Y-2534920I-20000J0D01*
G01*
X187640Y-2788920D02*
G75*
G03*
X187640Y-2788920I-20000J0D01*
G01*
X190000Y-3090000D02*
G75*
G03*
X190000Y-3090000I-20000J0D01*
G01*
X197800Y-4262120D02*
G75*
G03*
X197800Y-4262120I-20000J0D01*
G01*
X197800Y-4516120D02*
G75*
G03*
X197800Y-4516120I-20000J0D01*
G01*
X197800Y-4775200D02*
G75*
G03*
X197800Y-4775200I-20000J0D01*
G01*
X197800Y-5029200D02*
G75*
G03*
X197800Y-5029200I-20000J0D01*
G01*
X197800Y-5283200D02*
G75*
G03*
X197800Y-5283200I-20000J0D01*
G01*
X197800Y-5537200D02*
G75*
G03*
X197800Y-5537200I-20000J0D01*
G01*
X197800Y-5791200D02*
G75*
G03*
X197800Y-5791200I-20000J0D01*
G01*
X197800Y-6045200D02*
G75*
G03*
X197800Y-6045200I-20000J0D01*
G01*
X197800Y-6299200D02*
G75*
G03*
X197800Y-6299200I-20000J0D01*
G01*
X197800Y-6553200D02*
G75*
G03*
X197800Y-6553200I-20000J0D01*
G01*
X197800Y-6807200D02*
G75*
G03*
X197800Y-6807200I-20000J0D01*
G01*
X197800Y-7061200D02*
G75*
G03*
X197800Y-7061200I-20000J0D01*
G01*
X197800Y-7315200D02*
G75*
G03*
X197800Y-7315200I-20000J0D01*
G01*
X197800Y-7569200D02*
G75*
G03*
X197800Y-7569200I-20000J0D01*
G01*
X197800Y-7823200D02*
G75*
G03*
X197800Y-7823200I-20000J0D01*
G01*
X197800Y-8077200D02*
G75*
G03*
X197800Y-8077200I-20000J0D01*
G01*
X197800Y-8280400D02*
G75*
G03*
X197800Y-8280400I-20000J0D01*
G01*
X312100Y-4318000D02*
G75*
G03*
X312100Y-4318000I-20000J0D01*
G01*
X324799Y-3799840D02*
G75*
G03*
X324799Y-3799840I-20000J0D01*
G01*
X350200Y-8432800D02*
G75*
G03*
X350200Y-8432800I-20000J0D01*
G01*
X362010Y-1549400D02*
G75*
G03*
X362010Y-1549400I-20000J0D01*
G01*
X362010Y-1648460D02*
G75*
G03*
X362010Y-1648460I-20000J0D01*
G01*
X401000Y-2633980D02*
G75*
G03*
X401000Y-2633980I-20000J0D01*
G01*
X420000Y-6800000D02*
G75*
G03*
X420000Y-6800000I-20000J0D01*
G01*
X422109Y-4974109D02*
G75*
G03*
X422109Y-4974109I-20000J0D01*
G01*
X425824Y-4107196D02*
G75*
G03*
X425824Y-4107196I-20000J0D01*
G01*
X426400Y-40640D02*
G75*
G03*
X426400Y-40640I-20000J0D01*
G01*
X426400Y-8280400D02*
G75*
G03*
X426400Y-8280400I-20000J0D01*
G01*
X436560Y-3891280D02*
G75*
G03*
X436560Y-3891280I-20000J0D01*
G01*
X487360Y-3312160D02*
G75*
G03*
X487360Y-3312160I-20000J0D01*
G01*
X487360Y-7726680D02*
G75*
G03*
X487360Y-7726680I-20000J0D01*
G01*
X487360Y-7858760D02*
G75*
G03*
X487360Y-7858760I-20000J0D01*
G01*
X505140Y-3591560D02*
G75*
G03*
X505140Y-3591560I-20000J0D01*
G01*
X510000Y-5880000D02*
G75*
G03*
X510000Y-5880000I-20000J0D01*
G01*
X540700Y-4876800D02*
G75*
G03*
X540700Y-4876800I-20000J0D01*
G01*
X553400Y-4994650D02*
G75*
G03*
X553400Y-4994650I-20000J0D01*
G01*
X553584Y-3903584D02*
G75*
G03*
X553584Y-3903584I-20000J0D01*
G01*
X563560Y-3454400D02*
G75*
G03*
X563560Y-3454400I-20000J0D01*
G01*
X566100Y-5232400D02*
G75*
G03*
X566100Y-5232400I-20000J0D01*
G01*
X566100Y-5334000D02*
G75*
G03*
X566100Y-5334000I-20000J0D01*
G01*
X578800Y-8356600D02*
G75*
G03*
X578800Y-8356600I-20000J0D01*
G01*
X578800Y-8509000D02*
G75*
G03*
X578800Y-8509000I-20000J0D01*
G01*
X604200Y-5715000D02*
G75*
G03*
X604200Y-5715000I-20000J0D01*
G01*
X609280Y-5812002D02*
G75*
G03*
X609280Y-5812002I-20000J0D01*
G01*
X611820Y-4572000D02*
G75*
G03*
X611820Y-4572000I-20000J0D01*
G01*
X639760Y-3556000D02*
G75*
G03*
X639760Y-3556000I-20000J0D01*
G01*
X680400Y-40640D02*
G75*
G03*
X680400Y-40640I-20000J0D01*
G01*
X720927Y-4449073D02*
G75*
G03*
X720927Y-4449073I-20000J0D01*
G01*
X743900Y-5283200D02*
G75*
G03*
X743900Y-5283200I-20000J0D01*
G01*
X746440Y-4639450D02*
G75*
G03*
X746440Y-4639450I-20000J0D01*
G01*
X770000Y-8280000D02*
G75*
G03*
X770000Y-8280000I-20000J0D01*
G01*
X771840Y-7863840D02*
G75*
G03*
X771840Y-7863840I-20000J0D01*
G01*
X787080Y-7726680D02*
G75*
G03*
X787080Y-7726680I-20000J0D01*
G01*
X832800Y-8509000D02*
G75*
G03*
X832800Y-8509000I-20000J0D01*
G01*
X870900Y-5156200D02*
G75*
G03*
X870900Y-5156200I-20000J0D01*
G01*
X883600Y-4353560D02*
G75*
G03*
X883600Y-4353560I-20000J0D01*
G01*
X883600Y-4467860D02*
G75*
G03*
X883600Y-4467860I-20000J0D01*
G01*
X934400Y-40640D02*
G75*
G03*
X934400Y-40640I-20000J0D01*
G01*
X959800Y-4953000D02*
G75*
G03*
X959800Y-4953000I-20000J0D01*
G01*
X959800Y-5643880D02*
G75*
G03*
X959800Y-5643880I-20000J0D01*
G01*
X1063940Y-7962900D02*
G75*
G03*
X1063940Y-7962900I-20000J0D01*
G01*
X1081720Y-2567940D02*
G75*
G03*
X1081720Y-2567940I-20000J0D01*
G01*
X1086800Y-5054600D02*
G75*
G03*
X1086800Y-5054600I-20000J0D01*
G01*
X1086800Y-8509000D02*
G75*
G03*
X1086800Y-8509000I-20000J0D01*
G01*
X1096960Y-6766560D02*
G75*
G03*
X1096960Y-6766560I-20000J0D01*
G01*
X1119820Y-7805420D02*
G75*
G03*
X1119820Y-7805420I-20000J0D01*
G01*
X1137600Y-4301300D02*
G75*
G03*
X1137600Y-4301300I-20000J0D01*
G01*
X1137600Y-5496560D02*
G75*
G03*
X1137600Y-5496560I-20000J0D01*
G01*
X1150000Y-5950000D02*
G75*
G03*
X1150000Y-5950000I-20000J0D01*
G01*
X1181962Y-5653593D02*
G75*
G03*
X1181962Y-5653593I-20000J0D01*
G01*
X1183320Y-6588760D02*
G75*
G03*
X1183320Y-6588760I-20000J0D01*
G01*
X1188400Y-40640D02*
G75*
G03*
X1188400Y-40640I-20000J0D01*
G01*
X1206180Y-2552700D02*
G75*
G03*
X1206180Y-2552700I-20000J0D01*
G01*
X1222610Y-4973235D02*
G75*
G03*
X1222610Y-4973235I-20000J0D01*
G01*
X1290000Y-8340350D02*
G75*
G03*
X1290000Y-8340350I-20000J0D01*
G01*
X1315400Y-6477000D02*
G75*
G03*
X1315400Y-6477000I-20000J0D01*
G01*
X1317063Y-4988249D02*
G75*
G03*
X1317063Y-4988249I-20000J0D01*
G01*
X1340800Y-6761480D02*
G75*
G03*
X1340800Y-6761480I-20000J0D01*
G01*
X1340800Y-8509000D02*
G75*
G03*
X1340800Y-8509000I-20000J0D01*
G01*
X1351447Y-6202362D02*
G75*
G03*
X1351447Y-6202362I-20000J0D01*
G01*
X1368881Y-5228622D02*
G75*
G03*
X1368881Y-5228622I-20000J0D01*
G01*
X1389781Y-5741526D02*
G75*
G03*
X1389781Y-5741526I-20000J0D01*
G01*
X1405350Y-6477000D02*
G75*
G03*
X1405350Y-6477000I-20000J0D01*
G01*
X1442400Y-40640D02*
G75*
G03*
X1442400Y-40640I-20000J0D01*
G01*
X1444940Y-480060D02*
G75*
G03*
X1444940Y-480060I-20000J0D01*
G01*
X1448192Y-5271059D02*
G75*
G03*
X1448192Y-5271059I-20000J0D01*
G01*
X1449731Y-5640000D02*
G75*
G03*
X1449731Y-5640000I-20000J0D01*
G01*
X1460000Y-5480000D02*
G75*
G03*
X1460000Y-5480000I-20000J0D01*
G01*
X1467800Y-4894800D02*
G75*
G03*
X1467800Y-4894800I-20000J0D01*
G01*
X1472880Y-5775960D02*
G75*
G03*
X1472880Y-5775960I-20000J0D01*
G01*
X1503360Y-6502400D02*
G75*
G03*
X1503360Y-6502400I-20000J0D01*
G01*
X1560199Y-5029200D02*
G75*
G03*
X1560199Y-5029200I-20000J0D01*
G01*
X1569400Y-7629150D02*
G75*
G03*
X1569400Y-7629150I-20000J0D01*
G01*
X1584640Y-4639450D02*
G75*
G03*
X1584640Y-4639450I-20000J0D01*
G01*
X1594800Y-6858000D02*
G75*
G03*
X1594800Y-6858000I-20000J0D01*
G01*
X1594800Y-8509000D02*
G75*
G03*
X1594800Y-8509000I-20000J0D01*
G01*
X1615120Y-3875600D02*
G75*
G03*
X1615120Y-3875600I-20000J0D01*
G01*
X1630360Y-1193800D02*
G75*
G03*
X1630360Y-1193800I-20000J0D01*
G01*
X1669510Y-5550000D02*
G75*
G03*
X1669510Y-5550000I-20000J0D01*
G01*
X1686240Y-7795260D02*
G75*
G03*
X1686240Y-7795260I-20000J0D01*
G01*
X1690000Y-6690000D02*
G75*
G03*
X1690000Y-6690000I-20000J0D01*
G01*
X1701480Y-3576320D02*
G75*
G03*
X1701480Y-3576320I-20000J0D01*
G01*
X1711640Y-3459480D02*
G75*
G03*
X1711640Y-3459480I-20000J0D01*
G01*
X1726791Y-6556791D02*
G75*
G03*
X1726791Y-6556791I-20000J0D01*
G01*
X1738015Y-6212840D02*
G75*
G03*
X1738015Y-6212840I-20000J0D01*
G01*
X1748181Y-4911913D02*
G75*
G03*
X1748181Y-4911913I-20000J0D01*
G01*
X1752280Y-4315460D02*
G75*
G03*
X1752280Y-4315460I-20000J0D01*
G01*
X1754820Y-7983220D02*
G75*
G03*
X1754820Y-7983220I-20000J0D01*
G01*
X1759900Y-4462780D02*
G75*
G03*
X1759900Y-4462780I-20000J0D01*
G01*
X1761088Y-6125899D02*
G75*
G03*
X1761088Y-6125899I-20000J0D01*
G01*
X1762440Y-3833100D02*
G75*
G03*
X1762440Y-3833100I-20000J0D01*
G01*
X1772600Y-6883400D02*
G75*
G03*
X1772600Y-6883400I-20000J0D01*
G01*
X1777680Y-4820920D02*
G75*
G03*
X1777680Y-4820920I-20000J0D01*
G01*
X1848800Y-8509000D02*
G75*
G03*
X1848800Y-8509000I-20000J0D01*
G01*
X1858960Y-3347720D02*
G75*
G03*
X1858960Y-3347720I-20000J0D01*
G01*
X1858960Y-4902200D02*
G75*
G03*
X1858960Y-4902200I-20000J0D01*
G01*
X1864040Y-3977640D02*
G75*
G03*
X1864040Y-3977640I-20000J0D01*
G01*
X1912300Y-1531620D02*
G75*
G03*
X1912300Y-1531620I-20000J0D01*
G01*
X1926090Y-2620000D02*
G75*
G03*
X1926090Y-2620000I-20000J0D01*
G01*
X1937700Y-3713480D02*
G75*
G03*
X1937700Y-3713480I-20000J0D01*
G01*
X1945047Y-5010799D02*
G75*
G03*
X1945047Y-5010799I-20000J0D01*
G01*
X1950000Y-5540000D02*
G75*
G03*
X1950000Y-5540000I-20000J0D01*
G01*
X1957008Y-5411867D02*
G75*
G03*
X1957008Y-5411867I-20000J0D01*
G01*
X1970720Y-5648960D02*
G75*
G03*
X1970720Y-5648960I-20000J0D01*
G01*
X1975533Y-5924550D02*
G75*
G03*
X1975533Y-5924550I-20000J0D01*
G01*
X1984728Y-5321053D02*
G75*
G03*
X1984728Y-5321053I-20000J0D01*
G01*
X1988876Y-6851939D02*
G75*
G03*
X1988876Y-6851939I-20000J0D01*
G01*
X1990000Y-1360000D02*
G75*
G03*
X1990000Y-1360000I-20000J0D01*
G01*
X1991040Y-988060D02*
G75*
G03*
X1991040Y-988060I-20000J0D01*
G01*
X1991040Y-6350000D02*
G75*
G03*
X1991040Y-6350000I-20000J0D01*
G01*
X2001200Y-6019800D02*
G75*
G03*
X2001200Y-6019800I-20000J0D01*
G01*
X2002443Y-4583925D02*
G75*
G03*
X2002443Y-4583925I-20000J0D01*
G01*
X2011360Y-3868420D02*
G75*
G03*
X2011360Y-3868420I-20000J0D01*
G01*
X2011360Y-5188895D02*
G75*
G03*
X2011360Y-5188895I-20000J0D01*
G01*
X2016440Y-3362960D02*
G75*
G03*
X2016440Y-3362960I-20000J0D01*
G01*
X2026600Y-4831080D02*
G75*
G03*
X2026600Y-4831080I-20000J0D01*
G01*
X2044776Y-5781518D02*
G75*
G03*
X2044776Y-5781518I-20000J0D01*
G01*
X2070000Y-6259450D02*
G75*
G03*
X2070000Y-6259450I-20000J0D01*
G01*
X2102800Y-5054600D02*
G75*
G03*
X2102800Y-5054600I-20000J0D01*
G01*
X2102800Y-8509000D02*
G75*
G03*
X2102800Y-8509000I-20000J0D01*
G01*
X2107880Y-3942080D02*
G75*
G03*
X2107880Y-3942080I-20000J0D01*
G01*
X2140643Y-5412997D02*
G75*
G03*
X2140643Y-5412997I-20000J0D01*
G01*
X2149274Y-5617726D02*
G75*
G03*
X2149274Y-5617726I-20000J0D01*
G01*
X2153600Y-6858000D02*
G75*
G03*
X2153600Y-6858000I-20000J0D01*
G01*
X2210000Y-690000D02*
G75*
G03*
X2210000Y-690000I-20000J0D01*
G01*
X2219640Y-3268980D02*
G75*
G03*
X2219640Y-3268980I-20000J0D01*
G01*
X2220000Y-3580000D02*
G75*
G03*
X2220000Y-3580000I-20000J0D01*
G01*
X2227493Y-5259640D02*
G75*
G03*
X2227493Y-5259640I-20000J0D01*
G01*
X2246015Y-4902200D02*
G75*
G03*
X2246015Y-4902200I-20000J0D01*
G01*
X2247580Y-510540D02*
G75*
G03*
X2247580Y-510540I-20000J0D01*
G01*
X2255200Y-4592320D02*
G75*
G03*
X2255200Y-4592320I-20000J0D01*
G01*
X2256330Y-5997936D02*
G75*
G03*
X2256330Y-5997936I-20000J0D01*
G01*
X2295840Y-7781550D02*
G75*
G03*
X2295840Y-7781550I-20000J0D01*
G01*
X2311080Y-6271260D02*
G75*
G03*
X2311080Y-6271260I-20000J0D01*
G01*
X2356800Y-127000D02*
G75*
G03*
X2356800Y-127000I-20000J0D01*
G01*
X2356800Y-8204200D02*
G75*
G03*
X2356800Y-8204200I-20000J0D01*
G01*
X2356800Y-8509000D02*
G75*
G03*
X2356800Y-8509000I-20000J0D01*
G01*
X2361880Y-6431280D02*
G75*
G03*
X2361880Y-6431280I-20000J0D01*
G01*
X2370000Y-6740000D02*
G75*
G03*
X2370000Y-6740000I-20000J0D01*
G01*
X2388342Y-5858374D02*
G75*
G03*
X2388342Y-5858374I-20000J0D01*
G01*
X2399980Y-236220D02*
G75*
G03*
X2399980Y-236220I-20000J0D01*
G01*
X2402295Y-4782015D02*
G75*
G03*
X2402295Y-4782015I-20000J0D01*
G01*
X2407600Y-666490D02*
G75*
G03*
X2407600Y-666490I-20000J0D01*
G01*
X2425380Y-1651000D02*
G75*
G03*
X2425380Y-1651000I-20000J0D01*
G01*
X2430000Y-1240000D02*
G75*
G03*
X2430000Y-1240000I-20000J0D01*
G01*
X2438080Y-2214880D02*
G75*
G03*
X2438080Y-2214880I-20000J0D01*
G01*
X2440000Y-5000000D02*
G75*
G03*
X2440000Y-5000000I-20000J0D01*
G01*
X2458400Y-786390D02*
G75*
G03*
X2458400Y-786390I-20000J0D01*
G01*
X2458400Y-4705350D02*
G75*
G03*
X2458400Y-4705350I-20000J0D01*
G01*
X2498201Y-4611799D02*
G75*
G03*
X2498201Y-4611799I-20000J0D01*
G01*
X2509200Y-7772400D02*
G75*
G03*
X2509200Y-7772400I-20000J0D01*
G01*
X2509200Y-8204200D02*
G75*
G03*
X2509200Y-8204200I-20000J0D01*
G01*
X2529520Y-4315460D02*
G75*
G03*
X2529520Y-4315460I-20000J0D01*
G01*
X2540731Y-6672613D02*
G75*
G03*
X2540731Y-6672613I-20000J0D01*
G01*
X2572700Y-3771900D02*
G75*
G03*
X2572700Y-3771900I-20000J0D01*
G01*
X2580320Y-2834640D02*
G75*
G03*
X2580320Y-2834640I-20000J0D01*
G01*
X2585400Y-6756400D02*
G75*
G03*
X2585400Y-6756400I-20000J0D01*
G01*
X2600640Y-2966720D02*
G75*
G03*
X2600640Y-2966720I-20000J0D01*
G01*
X2610800Y-8509000D02*
G75*
G03*
X2610800Y-8509000I-20000J0D01*
G01*
X2623500Y-4036060D02*
G75*
G03*
X2623500Y-4036060I-20000J0D01*
G01*
X2651440Y-3487420D02*
G75*
G03*
X2651440Y-3487420I-20000J0D01*
G01*
X2653497Y-4193680D02*
G75*
G03*
X2653497Y-4193680I-20000J0D01*
G01*
X2656520Y-3657600D02*
G75*
G03*
X2656520Y-3657600I-20000J0D01*
G01*
X2661600Y-4648200D02*
G75*
G03*
X2661600Y-4648200I-20000J0D01*
G01*
X2730000Y-3230000D02*
G75*
G03*
X2730000Y-3230000I-20000J0D01*
G01*
X2737800Y-228600D02*
G75*
G03*
X2737800Y-228600I-20000J0D01*
G01*
X2745662Y-931938D02*
G75*
G03*
X2745662Y-931938I-20000J0D01*
G01*
X2763200Y-6400800D02*
G75*
G03*
X2763200Y-6400800I-20000J0D01*
G01*
X2788600Y-482600D02*
G75*
G03*
X2788600Y-482600I-20000J0D01*
G01*
X2788600Y-3012440D02*
G75*
G03*
X2788600Y-3012440I-20000J0D01*
G01*
X2811625Y-6007548D02*
G75*
G03*
X2811625Y-6007548I-20000J0D01*
G01*
X2830000Y-4480000D02*
G75*
G03*
X2830000Y-4480000I-20000J0D01*
G01*
X2839400Y-6729950D02*
G75*
G03*
X2839400Y-6729950I-20000J0D01*
G01*
X2854640Y-2804160D02*
G75*
G03*
X2854640Y-2804160I-20000J0D01*
G01*
X2864628Y-4680379D02*
G75*
G03*
X2864628Y-4680379I-20000J0D01*
G01*
X2864800Y-8509000D02*
G75*
G03*
X2864800Y-8509000I-20000J0D01*
G01*
X2871499Y-1126354D02*
G75*
G03*
X2871499Y-1126354I-20000J0D01*
G01*
X2883850Y-3740150D02*
G75*
G03*
X2883850Y-3740150I-20000J0D01*
G01*
X2890200Y-3200400D02*
G75*
G03*
X2890200Y-3200400I-20000J0D01*
G01*
X2910000Y-6858450D02*
G75*
G03*
X2910000Y-6858450I-20000J0D01*
G01*
X2910520Y-3388360D02*
G75*
G03*
X2910520Y-3388360I-20000J0D01*
G01*
X2913849Y-1205711D02*
G75*
G03*
X2913849Y-1205711I-20000J0D01*
G01*
X2915100Y-4597633D02*
G75*
G03*
X2915100Y-4597633I-20000J0D01*
G01*
X2915600Y-406400D02*
G75*
G03*
X2915600Y-406400I-20000J0D01*
G01*
X2917863Y-4045712D02*
G75*
G03*
X2917863Y-4045712I-20000J0D01*
G01*
X2928615Y-4226471D02*
G75*
G03*
X2928615Y-4226471I-20000J0D01*
G01*
X2930000Y-6300000D02*
G75*
G03*
X2930000Y-6300000I-20000J0D01*
G01*
X2930840Y-7711440D02*
G75*
G03*
X2930840Y-7711440I-20000J0D01*
G01*
X2936418Y-5925820D02*
G75*
G03*
X2936418Y-5925820I-20000J0D01*
G01*
X2941000Y-177800D02*
G75*
G03*
X2941000Y-177800I-20000J0D01*
G01*
X2951417Y-4990000D02*
G75*
G03*
X2951417Y-4990000I-20000J0D01*
G01*
X2971480Y-770750D02*
G75*
G03*
X2971480Y-770750I-20000J0D01*
G01*
X2991800Y-6400800D02*
G75*
G03*
X2991800Y-6400800I-20000J0D01*
G01*
X2991800Y-8102600D02*
G75*
G03*
X2991800Y-8102600I-20000J0D01*
G01*
X2991800Y-8201250D02*
G75*
G03*
X2991800Y-8201250I-20000J0D01*
G01*
X3017200Y-7924800D02*
G75*
G03*
X3017200Y-7924800I-20000J0D01*
G01*
X3042600Y-127000D02*
G75*
G03*
X3042600Y-127000I-20000J0D01*
G01*
X3042600Y-6299200D02*
G75*
G03*
X3042600Y-6299200I-20000J0D01*
G01*
X3048595Y-4616096D02*
G75*
G03*
X3048595Y-4616096I-20000J0D01*
G01*
X3060000Y-4750000D02*
G75*
G03*
X3060000Y-4750000I-20000J0D01*
G01*
X3088320Y-1818640D02*
G75*
G03*
X3088320Y-1818640I-20000J0D01*
G01*
X3108640Y-1925320D02*
G75*
G03*
X3108640Y-1925320I-20000J0D01*
G01*
X3110064Y-4960064D02*
G75*
G03*
X3110064Y-4960064I-20000J0D01*
G01*
X3118800Y-5715000D02*
G75*
G03*
X3118800Y-5715000I-20000J0D01*
G01*
X3118800Y-8509000D02*
G75*
G03*
X3118800Y-8509000I-20000J0D01*
G01*
X3122200Y-6731000D02*
G75*
G03*
X3122200Y-6731000I-20000J0D01*
G01*
X3144200Y-6070600D02*
G75*
G03*
X3144200Y-6070600I-20000J0D01*
G01*
X3165553Y-5177553D02*
G75*
G03*
X3165553Y-5177553I-20000J0D01*
G01*
X3196795Y-4873335D02*
G75*
G03*
X3196795Y-4873335I-20000J0D01*
G01*
X3240720Y-7498080D02*
G75*
G03*
X3240720Y-7498080I-20000J0D01*
G01*
X3258500Y-4456610D02*
G75*
G03*
X3258500Y-4456610I-20000J0D01*
G01*
X3260000Y-2140000D02*
G75*
G03*
X3260000Y-2140000I-20000J0D01*
G01*
X3262500Y-3181350D02*
G75*
G03*
X3262500Y-3181350I-20000J0D01*
G01*
X3264850Y-3314700D02*
G75*
G03*
X3264850Y-3314700I-20000J0D01*
G01*
X3271200Y-3479800D02*
G75*
G03*
X3271200Y-3479800I-20000J0D01*
G01*
X3271200Y-4216400D02*
G75*
G03*
X3271200Y-4216400I-20000J0D01*
G01*
X3272836Y-6629400D02*
G75*
G03*
X3272836Y-6629400I-20000J0D01*
G01*
X3273600Y-4803005D02*
G75*
G03*
X3273600Y-4803005I-20000J0D01*
G01*
X3286440Y-40640D02*
G75*
G03*
X3286440Y-40640I-20000J0D01*
G01*
X3287901Y-5918200D02*
G75*
G03*
X3287901Y-5918200I-20000J0D01*
G01*
X3296600Y-1473200D02*
G75*
G03*
X3296600Y-1473200I-20000J0D01*
G01*
X3296600Y-7848600D02*
G75*
G03*
X3296600Y-7848600I-20000J0D01*
G01*
X3322000Y-1244600D02*
G75*
G03*
X3322000Y-1244600I-20000J0D01*
G01*
X3347400Y-5842000D02*
G75*
G03*
X3347400Y-5842000I-20000J0D01*
G01*
X3370000Y-2050000D02*
G75*
G03*
X3370000Y-2050000I-20000J0D01*
G01*
X3372800Y-2240280D02*
G75*
G03*
X3372800Y-2240280I-20000J0D01*
G01*
X3372800Y-8509000D02*
G75*
G03*
X3372800Y-8509000I-20000J0D01*
G01*
X3379408Y-5739159D02*
G75*
G03*
X3379408Y-5739159I-20000J0D01*
G01*
X3420000Y-4870000D02*
G75*
G03*
X3420000Y-4870000I-20000J0D01*
G01*
X3421060Y-1737360D02*
G75*
G03*
X3421060Y-1737360I-20000J0D01*
G01*
X3433760Y-7665720D02*
G75*
G03*
X3433760Y-7665720I-20000J0D01*
G01*
X3440000Y-3910000D02*
G75*
G03*
X3440000Y-3910000I-20000J0D01*
G01*
X3489640Y-2204720D02*
G75*
G03*
X3489640Y-2204720I-20000J0D01*
G01*
X3493450Y-5670550D02*
G75*
G03*
X3493450Y-5670550I-20000J0D01*
G01*
X3499736Y-4622800D02*
G75*
G03*
X3499736Y-4622800I-20000J0D01*
G01*
X3504880Y-6083300D02*
G75*
G03*
X3504880Y-6083300I-20000J0D01*
G01*
X3525200Y-203200D02*
G75*
G03*
X3525200Y-203200I-20000J0D01*
G01*
X3525200Y-965200D02*
G75*
G03*
X3525200Y-965200I-20000J0D01*
G01*
X3525200Y-8102600D02*
G75*
G03*
X3525200Y-8102600I-20000J0D01*
G01*
X3528691Y-6968691D02*
G75*
G03*
X3528691Y-6968691I-20000J0D01*
G01*
X3530280Y-5445760D02*
G75*
G03*
X3530280Y-5445760I-20000J0D01*
G01*
X3530280Y-6761480D02*
G75*
G03*
X3530280Y-6761480I-20000J0D01*
G01*
X3535360Y-1181100D02*
G75*
G03*
X3535360Y-1181100I-20000J0D01*
G01*
X3538490Y-5586904D02*
G75*
G03*
X3538490Y-5586904I-20000J0D01*
G01*
X3540000Y-2030000D02*
G75*
G03*
X3540000Y-2030000I-20000J0D01*
G01*
X3540440Y-40640D02*
G75*
G03*
X3540440Y-40640I-20000J0D01*
G01*
X3548060Y-5969000D02*
G75*
G03*
X3548060Y-5969000I-20000J0D01*
G01*
X3584750Y-6366651D02*
G75*
G03*
X3584750Y-6366651I-20000J0D01*
G01*
X3584750Y-6563360D02*
G75*
G03*
X3584750Y-6563360I-20000J0D01*
G01*
X3601400Y-5359400D02*
G75*
G03*
X3601400Y-5359400I-20000J0D01*
G01*
X3620000Y-2860550D02*
G75*
G03*
X3620000Y-2860550I-20000J0D01*
G01*
X3626800Y-8509000D02*
G75*
G03*
X3626800Y-8509000I-20000J0D01*
G01*
X3662360Y-2651760D02*
G75*
G03*
X3662360Y-2651760I-20000J0D01*
G01*
X3667440Y-2545080D02*
G75*
G03*
X3667440Y-2545080I-20000J0D01*
G01*
X3667800Y-2295800D02*
G75*
G03*
X3667800Y-2295800I-20000J0D01*
G01*
X3667800Y-2427880D02*
G75*
G03*
X3667800Y-2427880I-20000J0D01*
G01*
X3690300Y-6699250D02*
G75*
G03*
X3690300Y-6699250I-20000J0D01*
G01*
X3695380Y-6287950D02*
G75*
G03*
X3695380Y-6287950I-20000J0D01*
G01*
X3711468Y-5430520D02*
G75*
G03*
X3711468Y-5430520I-20000J0D01*
G01*
X3720000Y-4570000D02*
G75*
G03*
X3720000Y-4570000I-20000J0D01*
G01*
X3720000Y-5160000D02*
G75*
G03*
X3720000Y-5160000I-20000J0D01*
G01*
X3753800Y-1320800D02*
G75*
G03*
X3753800Y-1320800I-20000J0D01*
G01*
X3769040Y-7879080D02*
G75*
G03*
X3769040Y-7879080I-20000J0D01*
G01*
X3794440Y-40640D02*
G75*
G03*
X3794440Y-40640I-20000J0D01*
G01*
X3800000Y-6557190D02*
G75*
G03*
X3800000Y-6557190I-20000J0D01*
G01*
X3810000Y-1910000D02*
G75*
G03*
X3810000Y-1910000I-20000J0D01*
G01*
X3817063Y-5235116D02*
G75*
G03*
X3817063Y-5235116I-20000J0D01*
G01*
X3820000Y-1080000D02*
G75*
G03*
X3820000Y-1080000I-20000J0D01*
G01*
X3830000Y-2830000D02*
G75*
G03*
X3830000Y-2830000I-20000J0D01*
G01*
X3830000Y-5130800D02*
G75*
G03*
X3830000Y-5130800I-20000J0D01*
G01*
X3842700Y-2379980D02*
G75*
G03*
X3842700Y-2379980I-20000J0D01*
G01*
X3850000Y-6740000D02*
G75*
G03*
X3850000Y-6740000I-20000J0D01*
G01*
X3880800Y-8509000D02*
G75*
G03*
X3880800Y-8509000I-20000J0D01*
G01*
X3890000Y-2180000D02*
G75*
G03*
X3890000Y-2180000I-20000J0D01*
G01*
X3890000Y-6244950D02*
G75*
G03*
X3890000Y-6244950I-20000J0D01*
G01*
X3910000Y-7810000D02*
G75*
G03*
X3910000Y-7810000I-20000J0D01*
G01*
X3912550Y-4195897D02*
G75*
G03*
X3912550Y-4195897I-20000J0D01*
G01*
X3920000Y-1250000D02*
G75*
G03*
X3920000Y-1250000I-20000J0D01*
G01*
X3920000Y-1910000D02*
G75*
G03*
X3920000Y-1910000I-20000J0D01*
G01*
X3920000Y-6341250D02*
G75*
G03*
X3920000Y-6341250I-20000J0D01*
G01*
X3940000Y-970000D02*
G75*
G03*
X3940000Y-970000I-20000J0D01*
G01*
X3946935Y-5944554D02*
G75*
G03*
X3946935Y-5944554I-20000J0D01*
G01*
X4007800Y-5801360D02*
G75*
G03*
X4007800Y-5801360I-20000J0D01*
G01*
X4033200Y-4165600D02*
G75*
G03*
X4033200Y-4165600I-20000J0D01*
G01*
X4040000Y-1250000D02*
G75*
G03*
X4040000Y-1250000I-20000J0D01*
G01*
X4040841Y-6479159D02*
G75*
G03*
X4040841Y-6479159I-20000J0D01*
G01*
X4041950Y-5034280D02*
G75*
G03*
X4041950Y-5034280I-20000J0D01*
G01*
X4046950Y-4540000D02*
G75*
G03*
X4046950Y-4540000I-20000J0D01*
G01*
X4048440Y-40640D02*
G75*
G03*
X4048440Y-40640I-20000J0D01*
G01*
X4058600Y-7493000D02*
G75*
G03*
X4058600Y-7493000I-20000J0D01*
G01*
X4058650Y-5588207D02*
G75*
G03*
X4058650Y-5588207I-20000J0D01*
G01*
X4109400Y-4337050D02*
G75*
G03*
X4109400Y-4337050I-20000J0D01*
G01*
X4120000Y-960000D02*
G75*
G03*
X4120000Y-960000I-20000J0D01*
G01*
X4134800Y-8509000D02*
G75*
G03*
X4134800Y-8509000I-20000J0D01*
G01*
X4153676Y-120476D02*
G75*
G03*
X4153676Y-120476I-20000J0D01*
G01*
X4155120Y-6771640D02*
G75*
G03*
X4155120Y-6771640I-20000J0D01*
G01*
X4170360Y-1290320D02*
G75*
G03*
X4170360Y-1290320I-20000J0D01*
G01*
X4185600Y-2159000D02*
G75*
G03*
X4185600Y-2159000I-20000J0D01*
G01*
X4190000Y-4540000D02*
G75*
G03*
X4190000Y-4540000I-20000J0D01*
G01*
X4210000Y-4960000D02*
G75*
G03*
X4210000Y-4960000I-20000J0D01*
G01*
X4211000Y-254000D02*
G75*
G03*
X4211000Y-254000I-20000J0D01*
G01*
X4220000Y-8102600D02*
G75*
G03*
X4220000Y-8102600I-20000J0D01*
G01*
X4250000Y-7860000D02*
G75*
G03*
X4250000Y-7860000I-20000J0D01*
G01*
X4302440Y-40640D02*
G75*
G03*
X4302440Y-40640I-20000J0D01*
G01*
X4310000Y-1260000D02*
G75*
G03*
X4310000Y-1260000I-20000J0D01*
G01*
X4320000Y-430000D02*
G75*
G03*
X4320000Y-430000I-20000J0D01*
G01*
X4320000Y-950000D02*
G75*
G03*
X4320000Y-950000I-20000J0D01*
G01*
X4338000Y-4106101D02*
G75*
G03*
X4338000Y-4106101I-20000J0D01*
G01*
X4350000Y-4970000D02*
G75*
G03*
X4350000Y-4970000I-20000J0D01*
G01*
X4350700Y-5257800D02*
G75*
G03*
X4350700Y-5257800I-20000J0D01*
G01*
X4363400Y-207150D02*
G75*
G03*
X4363400Y-207150I-20000J0D01*
G01*
X4388800Y-8509000D02*
G75*
G03*
X4388800Y-8509000I-20000J0D01*
G01*
X4410000Y-950000D02*
G75*
G03*
X4410000Y-950000I-20000J0D01*
G01*
X4414200Y-1828800D02*
G75*
G03*
X4414200Y-1828800I-20000J0D01*
G01*
X4414200Y-2159000D02*
G75*
G03*
X4414200Y-2159000I-20000J0D01*
G01*
X4420000Y-1260000D02*
G75*
G03*
X4420000Y-1260000I-20000J0D01*
G01*
X4420000Y-4880000D02*
G75*
G03*
X4420000Y-4880000I-20000J0D01*
G01*
X4421820Y-1455420D02*
G75*
G03*
X4421820Y-1455420I-20000J0D01*
G01*
X4439600Y-2667000D02*
G75*
G03*
X4439600Y-2667000I-20000J0D01*
G01*
X4465000Y-6273800D02*
G75*
G03*
X4465000Y-6273800I-20000J0D01*
G01*
X4475160Y-5516880D02*
G75*
G03*
X4475160Y-5516880I-20000J0D01*
G01*
X4520000Y-1250000D02*
G75*
G03*
X4520000Y-1250000I-20000J0D01*
G01*
X4522150Y-4159250D02*
G75*
G03*
X4522150Y-4159250I-20000J0D01*
G01*
X4556440Y-40640D02*
G75*
G03*
X4556440Y-40640I-20000J0D01*
G01*
X4589460Y-1960880D02*
G75*
G03*
X4589460Y-1960880I-20000J0D01*
G01*
X4606889Y-1777931D02*
G75*
G03*
X4606889Y-1777931I-20000J0D01*
G01*
X4609119Y-6764681D02*
G75*
G03*
X4609119Y-6764681I-20000J0D01*
G01*
X4617400Y-6375400D02*
G75*
G03*
X4617400Y-6375400I-20000J0D01*
G01*
X4619940Y-1630680D02*
G75*
G03*
X4619940Y-1630680I-20000J0D01*
G01*
X4631601Y-1447800D02*
G75*
G03*
X4631601Y-1447800I-20000J0D01*
G01*
X4640000Y-4590000D02*
G75*
G03*
X4640000Y-4590000I-20000J0D01*
G01*
X4642800Y-8509000D02*
G75*
G03*
X4642800Y-8509000I-20000J0D01*
G01*
X4668200Y-7620000D02*
G75*
G03*
X4668200Y-7620000I-20000J0D01*
G01*
X4680321Y-6191084D02*
G75*
G03*
X4680321Y-6191084I-20000J0D01*
G01*
X4693600Y-6653801D02*
G75*
G03*
X4693600Y-6653801I-20000J0D01*
G01*
X4746940Y-1257300D02*
G75*
G03*
X4746940Y-1257300I-20000J0D01*
G01*
X4770000Y-3980000D02*
G75*
G03*
X4770000Y-3980000I-20000J0D01*
G01*
X4810440Y-40640D02*
G75*
G03*
X4810440Y-40640I-20000J0D01*
G01*
X4814250Y-6750050D02*
G75*
G03*
X4814250Y-6750050I-20000J0D01*
G01*
X4820600Y-1346200D02*
G75*
G03*
X4820600Y-1346200I-20000J0D01*
G01*
X4821539Y-6645302D02*
G75*
G03*
X4821539Y-6645302I-20000J0D01*
G01*
X4825437Y-6497563D02*
G75*
G03*
X4825437Y-6497563I-20000J0D01*
G01*
X4850000Y-4400000D02*
G75*
G03*
X4850000Y-4400000I-20000J0D01*
G01*
X4871400Y-6248400D02*
G75*
G03*
X4871400Y-6248400I-20000J0D01*
G01*
X4890000Y-3360000D02*
G75*
G03*
X4890000Y-3360000I-20000J0D01*
G01*
X4896800Y-8509000D02*
G75*
G03*
X4896800Y-8509000I-20000J0D01*
G01*
X4920000Y-940000D02*
G75*
G03*
X4920000Y-940000I-20000J0D01*
G01*
X4947600Y-787400D02*
G75*
G03*
X4947600Y-787400I-20000J0D01*
G01*
X4947600Y-7518400D02*
G75*
G03*
X4947600Y-7518400I-20000J0D01*
G01*
X4960300Y-4152900D02*
G75*
G03*
X4960300Y-4152900I-20000J0D01*
G01*
X5064440Y-40640D02*
G75*
G03*
X5064440Y-40640I-20000J0D01*
G01*
X5074600Y-1244600D02*
G75*
G03*
X5074600Y-1244600I-20000J0D01*
G01*
X5074600Y-2448560D02*
G75*
G03*
X5074600Y-2448560I-20000J0D01*
G01*
X5084760Y-3208020D02*
G75*
G03*
X5084760Y-3208020I-20000J0D01*
G01*
X5100000Y-1854200D02*
G75*
G03*
X5100000Y-1854200I-20000J0D01*
G01*
X5100000Y-3403600D02*
G75*
G03*
X5100000Y-3403600I-20000J0D01*
G01*
X5100000Y-5486400D02*
G75*
G03*
X5100000Y-5486400I-20000J0D01*
G01*
X5110160Y-6299200D02*
G75*
G03*
X5110160Y-6299200I-20000J0D01*
G01*
X5129350Y-4495800D02*
G75*
G03*
X5129350Y-4495800I-20000J0D01*
G01*
X5150800Y-1117600D02*
G75*
G03*
X5150800Y-1117600I-20000J0D01*
G01*
X5150800Y-2540000D02*
G75*
G03*
X5150800Y-2540000I-20000J0D01*
G01*
X5150800Y-4699000D02*
G75*
G03*
X5150800Y-4699000I-20000J0D01*
G01*
X5150800Y-4851400D02*
G75*
G03*
X5150800Y-4851400I-20000J0D01*
G01*
X5150800Y-5003800D02*
G75*
G03*
X5150800Y-5003800I-20000J0D01*
G01*
X5150800Y-8509000D02*
G75*
G03*
X5150800Y-8509000I-20000J0D01*
G01*
X5159126Y-6699060D02*
G75*
G03*
X5159126Y-6699060I-20000J0D01*
G01*
X5160000Y-5190000D02*
G75*
G03*
X5160000Y-5190000I-20000J0D01*
G01*
X5176200Y-1219200D02*
G75*
G03*
X5176200Y-1219200I-20000J0D01*
G01*
X5201600Y-2692400D02*
G75*
G03*
X5201600Y-2692400I-20000J0D01*
G01*
X5201600Y-5537200D02*
G75*
G03*
X5201600Y-5537200I-20000J0D01*
G01*
X5201600Y-6409499D02*
G75*
G03*
X5201600Y-6409499I-20000J0D01*
G01*
X5230000Y-4580000D02*
G75*
G03*
X5230000Y-4580000I-20000J0D01*
G01*
X5303200Y-1244600D02*
G75*
G03*
X5303200Y-1244600I-20000J0D01*
G01*
X5303200Y-1854200D02*
G75*
G03*
X5303200Y-1854200I-20000J0D01*
G01*
X5328600Y-355600D02*
G75*
G03*
X5328600Y-355600I-20000J0D01*
G01*
X5328600Y-2692400D02*
G75*
G03*
X5328600Y-2692400I-20000J0D01*
G01*
X5328600Y-6756400D02*
G75*
G03*
X5328600Y-6756400I-20000J0D01*
G01*
X5330000Y-50000D02*
G75*
G03*
X5330000Y-50000I-20000J0D01*
G01*
X5354000Y-1117600D02*
G75*
G03*
X5354000Y-1117600I-20000J0D01*
G01*
X5354000Y-4699000D02*
G75*
G03*
X5354000Y-4699000I-20000J0D01*
G01*
X5354000Y-4851400D02*
G75*
G03*
X5354000Y-4851400I-20000J0D01*
G01*
X5354000Y-5003800D02*
G75*
G03*
X5354000Y-5003800I-20000J0D01*
G01*
X5379400Y-838200D02*
G75*
G03*
X5379400Y-838200I-20000J0D01*
G01*
X5404800Y-1371600D02*
G75*
G03*
X5404800Y-1371600I-20000J0D01*
G01*
X5404800Y-8509000D02*
G75*
G03*
X5404800Y-8509000I-20000J0D01*
G01*
X5417500Y-6705600D02*
G75*
G03*
X5417500Y-6705600I-20000J0D01*
G01*
X5430200Y-533400D02*
G75*
G03*
X5430200Y-533400I-20000J0D01*
G01*
X5445440Y-337820D02*
G75*
G03*
X5445440Y-337820I-20000J0D01*
G01*
X5455600Y-2692400D02*
G75*
G03*
X5455600Y-2692400I-20000J0D01*
G01*
X5475920Y-647700D02*
G75*
G03*
X5475920Y-647700I-20000J0D01*
G01*
X5481000Y-6070600D02*
G75*
G03*
X5481000Y-6070600I-20000J0D01*
G01*
X5501320Y-6629400D02*
G75*
G03*
X5501320Y-6629400I-20000J0D01*
G01*
X5506400Y-1854200D02*
G75*
G03*
X5506400Y-1854200I-20000J0D01*
G01*
X5506400Y-7493000D02*
G75*
G03*
X5506400Y-7493000I-20000J0D01*
G01*
X5531800Y-838200D02*
G75*
G03*
X5531800Y-838200I-20000J0D01*
G01*
X5531800Y-1117600D02*
G75*
G03*
X5531800Y-1117600I-20000J0D01*
G01*
X5567057Y-3531336D02*
G75*
G03*
X5567057Y-3531336I-20000J0D01*
G01*
X5570000Y-4700000D02*
G75*
G03*
X5570000Y-4700000I-20000J0D01*
G01*
X5582600Y-2286000D02*
G75*
G03*
X5582600Y-2286000I-20000J0D01*
G01*
X5582600Y-4851400D02*
G75*
G03*
X5582600Y-4851400I-20000J0D01*
G01*
X5650000Y-7160000D02*
G75*
G03*
X5650000Y-7160000I-20000J0D01*
G01*
X5658800Y-2184400D02*
G75*
G03*
X5658800Y-2184400I-20000J0D01*
G01*
X5658800Y-3556000D02*
G75*
G03*
X5658800Y-3556000I-20000J0D01*
G01*
X5658800Y-8509000D02*
G75*
G03*
X5658800Y-8509000I-20000J0D01*
G01*
X5668960Y-421640D02*
G75*
G03*
X5668960Y-421640I-20000J0D01*
G01*
X5668960Y-5654040D02*
G75*
G03*
X5668960Y-5654040I-20000J0D01*
G01*
X5684200Y-3149600D02*
G75*
G03*
X5684200Y-3149600I-20000J0D01*
G01*
X5684200Y-3255280D02*
G75*
G03*
X5684200Y-3255280I-20000J0D01*
G01*
X5700000Y-6670000D02*
G75*
G03*
X5700000Y-6670000I-20000J0D01*
G01*
X5709600Y-6085840D02*
G75*
G03*
X5709600Y-6085840I-20000J0D01*
G01*
X5709600Y-7376160D02*
G75*
G03*
X5709600Y-7376160I-20000J0D01*
G01*
X5737540Y-3860800D02*
G75*
G03*
X5737540Y-3860800I-20000J0D01*
G01*
X5740000Y-4810000D02*
G75*
G03*
X5740000Y-4810000I-20000J0D01*
G01*
X5750240Y-45720D02*
G75*
G03*
X5750240Y-45720I-20000J0D01*
G01*
X5836600Y-5552440D02*
G75*
G03*
X5836600Y-5552440I-20000J0D01*
G01*
X5840000Y-1180000D02*
G75*
G03*
X5840000Y-1180000I-20000J0D01*
G01*
X5840000Y-1360000D02*
G75*
G03*
X5840000Y-1360000I-20000J0D01*
G01*
X5862000Y-5969000D02*
G75*
G03*
X5862000Y-5969000I-20000J0D01*
G01*
X5887400Y-4394200D02*
G75*
G03*
X5887400Y-4394200I-20000J0D01*
G01*
X5890000Y-2750000D02*
G75*
G03*
X5890000Y-2750000I-20000J0D01*
G01*
X5890000Y-3430000D02*
G75*
G03*
X5890000Y-3430000I-20000J0D01*
G01*
X5893027Y-2306973D02*
G75*
G03*
X5893027Y-2306973I-20000J0D01*
G01*
X5912800Y-8509000D02*
G75*
G03*
X5912800Y-8509000I-20000J0D01*
G01*
X5938200Y-3124200D02*
G75*
G03*
X5938200Y-3124200I-20000J0D01*
G01*
X5950000Y-3230000D02*
G75*
G03*
X5950000Y-3230000I-20000J0D01*
G01*
X5963600Y-7620000D02*
G75*
G03*
X5963600Y-7620000I-20000J0D01*
G01*
X6004240Y-45720D02*
G75*
G03*
X6004240Y-45720I-20000J0D01*
G01*
X6040000Y-2430000D02*
G75*
G03*
X6040000Y-2430000I-20000J0D01*
G01*
X6065200Y-8051800D02*
G75*
G03*
X6065200Y-8051800I-20000J0D01*
G01*
X6080000Y-500000D02*
G75*
G03*
X6080000Y-500000I-20000J0D01*
G01*
X6090600Y-5130800D02*
G75*
G03*
X6090600Y-5130800I-20000J0D01*
G01*
X6166800Y-6959600D02*
G75*
G03*
X6166800Y-6959600I-20000J0D01*
G01*
X6166800Y-8509000D02*
G75*
G03*
X6166800Y-8509000I-20000J0D01*
G01*
X6198960Y-2781040D02*
G75*
G03*
X6198960Y-2781040I-20000J0D01*
G01*
X6200000Y-1210000D02*
G75*
G03*
X6200000Y-1210000I-20000J0D01*
G01*
X6200000Y-1380000D02*
G75*
G03*
X6200000Y-1380000I-20000J0D01*
G01*
X6217600Y-7670800D02*
G75*
G03*
X6217600Y-7670800I-20000J0D01*
G01*
X6258240Y-45720D02*
G75*
G03*
X6258240Y-45720I-20000J0D01*
G01*
X6259728Y-5181600D02*
G75*
G03*
X6259728Y-5181600I-20000J0D01*
G01*
X6300000Y-3480000D02*
G75*
G03*
X6300000Y-3480000I-20000J0D01*
G01*
X6340000Y-5970000D02*
G75*
G03*
X6340000Y-5970000I-20000J0D01*
G01*
X6370000Y-6740000D02*
G75*
G03*
X6370000Y-6740000I-20000J0D01*
G01*
X6420800Y-8509000D02*
G75*
G03*
X6420800Y-8509000I-20000J0D01*
G01*
X6436040Y-5384800D02*
G75*
G03*
X6436040Y-5384800I-20000J0D01*
G01*
X6436040Y-5552440D02*
G75*
G03*
X6436040Y-5552440I-20000J0D01*
G01*
X6479220Y-4798060D02*
G75*
G03*
X6479220Y-4798060I-20000J0D01*
G01*
X6480000Y-530000D02*
G75*
G03*
X6480000Y-530000I-20000J0D01*
G01*
X6486840Y-5722620D02*
G75*
G03*
X6486840Y-5722620I-20000J0D01*
G01*
X6494460Y-4434840D02*
G75*
G03*
X6494460Y-4434840I-20000J0D01*
G01*
X6507160Y-4635500D02*
G75*
G03*
X6507160Y-4635500I-20000J0D01*
G01*
X6512240Y-45720D02*
G75*
G03*
X6512240Y-45720I-20000J0D01*
G01*
X6649400Y-3937000D02*
G75*
G03*
X6649400Y-3937000I-20000J0D01*
G01*
X6674800Y-8509000D02*
G75*
G03*
X6674800Y-8509000I-20000J0D01*
G01*
X6751000Y-5181600D02*
G75*
G03*
X6751000Y-5181600I-20000J0D01*
G01*
X6751000Y-8356600D02*
G75*
G03*
X6751000Y-8356600I-20000J0D01*
G01*
X6766240Y-45720D02*
G75*
G03*
X6766240Y-45720I-20000J0D01*
G01*
X6770000Y-2810000D02*
G75*
G03*
X6770000Y-2810000I-20000J0D01*
G01*
X6801800Y-8204200D02*
G75*
G03*
X6801800Y-8204200I-20000J0D01*
G01*
X6875460Y-5384800D02*
G75*
G03*
X6875460Y-5384800I-20000J0D01*
G01*
X6878000Y-5054600D02*
G75*
G03*
X6878000Y-5054600I-20000J0D01*
G01*
X6878000Y-5542280D02*
G75*
G03*
X6878000Y-5542280I-20000J0D01*
G01*
X6884170Y-5676900D02*
G75*
G03*
X6884170Y-5676900I-20000J0D01*
G01*
X6928800Y-8509000D02*
G75*
G03*
X6928800Y-8509000I-20000J0D01*
G01*
X6956740Y-4429760D02*
G75*
G03*
X6956740Y-4429760I-20000J0D01*
G01*
X7020240Y-45720D02*
G75*
G03*
X7020240Y-45720I-20000J0D01*
G01*
X7055800Y-8102600D02*
G75*
G03*
X7055800Y-8102600I-20000J0D01*
G01*
X7055904Y-7950304D02*
G75*
G03*
X7055904Y-7950304I-20000J0D01*
G01*
X7090000Y-2840000D02*
G75*
G03*
X7090000Y-2840000I-20000J0D01*
G01*
X7090000Y-6700000D02*
G75*
G03*
X7090000Y-6700000I-20000J0D01*
G01*
X7132000Y-4380050D02*
G75*
G03*
X7132000Y-4380050I-20000J0D01*
G01*
X7182800Y-8458200D02*
G75*
G03*
X7182800Y-8458200I-20000J0D01*
G01*
X7235802Y-4391998D02*
G75*
G03*
X7235802Y-4391998I-20000J0D01*
G01*
X7280000Y-110000D02*
G75*
G03*
X7280000Y-110000I-20000J0D01*
G01*
X7355520Y-375920D02*
G75*
G03*
X7355520Y-375920I-20000J0D01*
G01*
X7355520Y-716280D02*
G75*
G03*
X7355520Y-716280I-20000J0D01*
G01*
X7355520Y-1224280D02*
G75*
G03*
X7355520Y-1224280I-20000J0D01*
G01*
X7355520Y-1478280D02*
G75*
G03*
X7355520Y-1478280I-20000J0D01*
G01*
X7355520Y-1732280D02*
G75*
G03*
X7355520Y-1732280I-20000J0D01*
G01*
X7360600Y-1955800D02*
G75*
G03*
X7360600Y-1955800I-20000J0D01*
G01*
X7360600Y-2209800D02*
G75*
G03*
X7360600Y-2209800I-20000J0D01*
G01*
X7360600Y-2463800D02*
G75*
G03*
X7360600Y-2463800I-20000J0D01*
G01*
X7360600Y-2717800D02*
G75*
G03*
X7360600Y-2717800I-20000J0D01*
G01*
X7360600Y-2971800D02*
G75*
G03*
X7360600Y-2971800I-20000J0D01*
G01*
X7360600Y-4495800D02*
G75*
G03*
X7360600Y-4495800I-20000J0D01*
G01*
X7360600Y-4749800D02*
G75*
G03*
X7360600Y-4749800I-20000J0D01*
G01*
X7360600Y-5003800D02*
G75*
G03*
X7360600Y-5003800I-20000J0D01*
G01*
X7360600Y-5257800D02*
G75*
G03*
X7360600Y-5257800I-20000J0D01*
G01*
X7360600Y-5511800D02*
G75*
G03*
X7360600Y-5511800I-20000J0D01*
G01*
X7360600Y-5765800D02*
G75*
G03*
X7360600Y-5765800I-20000J0D01*
G01*
X7360600Y-6019800D02*
G75*
G03*
X7360600Y-6019800I-20000J0D01*
G01*
X7360600Y-6273800D02*
G75*
G03*
X7360600Y-6273800I-20000J0D01*
G01*
X7360600Y-6527800D02*
G75*
G03*
X7360600Y-6527800I-20000J0D01*
G01*
X7360600Y-6781800D02*
G75*
G03*
X7360600Y-6781800I-20000J0D01*
G01*
X7360600Y-7035800D02*
G75*
G03*
X7360600Y-7035800I-20000J0D01*
G01*
X7360600Y-7289800D02*
G75*
G03*
X7360600Y-7289800I-20000J0D01*
G01*
X7360600Y-7543800D02*
G75*
G03*
X7360600Y-7543800I-20000J0D01*
G01*
X7360600Y-7797800D02*
G75*
G03*
X7360600Y-7797800I-20000J0D01*
G01*
X7360600Y-8051800D02*
G75*
G03*
X7360600Y-8051800I-20000J0D01*
G01*
X7360600Y-8305800D02*
G75*
G03*
X7360600Y-8305800I-20000J0D01*
G01*
D13*
X383540Y-2017360D02*
X383540Y-2092360D01*
X346040Y-2054860D02*
X421040Y-2054860D01*
X583540Y-2017360D02*
X583540Y-2092360D01*
X546040Y-2054860D02*
X621040Y-2054860D01*
X1643380Y-2018140D02*
X1643380Y-2093140D01*
X1605880Y-2055640D02*
X1680880Y-2055640D01*
X1843380Y-2018140D02*
X1843380Y-2093140D01*
X1805880Y-2055640D02*
X1880880Y-2055640D01*
D14*
X390556Y-7109956D02*
X390556Y-7039244D01*
X319844Y-7039244D01*
X319844Y-7109956D01*
X390556Y-7109956D01*
X390556Y-7363956D02*
X390556Y-7293244D01*
X319844Y-7293244D01*
X319844Y-7363956D01*
X390556Y-7363956D01*
X644556Y-7109956D02*
X644556Y-7039244D01*
X573844Y-7039244D01*
X573844Y-7109956D01*
X644556Y-7109956D01*
X644556Y-7363956D02*
X644556Y-7293244D01*
X573844Y-7293244D01*
X573844Y-7363956D01*
X644556Y-7363956D01*
X898556Y-7109956D02*
X898556Y-7039244D01*
X827844Y-7039244D01*
X827844Y-7109956D01*
X898556Y-7109956D01*
X898556Y-7363956D02*
X898556Y-7293244D01*
X827844Y-7293244D01*
X827844Y-7363956D01*
X898556Y-7363956D01*
X1152556Y-7109956D02*
X1152556Y-7039244D01*
X1081844Y-7039244D01*
X1081844Y-7109956D01*
X1152556Y-7109956D01*
X1152556Y-7363956D02*
X1152556Y-7293244D01*
X1081844Y-7293244D01*
X1081844Y-7363956D01*
X1152556Y-7363956D01*
X1299276Y-230936D02*
X1299276Y-160224D01*
X1228564Y-160224D01*
X1228564Y-230936D01*
X1299276Y-230936D01*
X1406556Y-7109956D02*
X1406556Y-7039244D01*
X1335844Y-7039244D01*
X1335844Y-7109956D01*
X1406556Y-7109956D01*
X1406556Y-7363956D02*
X1406556Y-7293244D01*
X1335844Y-7293244D01*
X1335844Y-7363956D01*
X1406556Y-7363956D01*
X1553276Y-230936D02*
X1553276Y-160224D01*
X1482564Y-160224D01*
X1482564Y-230936D01*
X1553276Y-230936D01*
X1660556Y-7109956D02*
X1660556Y-7039244D01*
X1589844Y-7039244D01*
X1589844Y-7109956D01*
X1660556Y-7109956D01*
X1660556Y-7363956D02*
X1660556Y-7293244D01*
X1589844Y-7293244D01*
X1589844Y-7363956D01*
X1660556Y-7363956D01*
X1807276Y-230936D02*
X1807276Y-160224D01*
X1736564Y-160224D01*
X1736564Y-230936D01*
X1807276Y-230936D01*
X1914556Y-7109956D02*
X1914556Y-7039244D01*
X1843844Y-7039244D01*
X1843844Y-7109956D01*
X1914556Y-7109956D01*
X1914556Y-7363956D02*
X1914556Y-7293244D01*
X1843844Y-7293244D01*
X1843844Y-7363956D01*
X1914556Y-7363956D01*
X2061276Y-230936D02*
X2061276Y-160224D01*
X1990564Y-160224D01*
X1990564Y-230936D01*
X2061276Y-230936D01*
X2168556Y-7109956D02*
X2168556Y-7039244D01*
X2097844Y-7039244D01*
X2097844Y-7109956D01*
X2168556Y-7109956D01*
X2168556Y-7363956D02*
X2168556Y-7293244D01*
X2097844Y-7293244D01*
X2097844Y-7363956D01*
X2168556Y-7363956D01*
X2422556Y-7109956D02*
X2422556Y-7039244D01*
X2351844Y-7039244D01*
X2351844Y-7109956D01*
X2422556Y-7109956D01*
X2422556Y-7363956D02*
X2422556Y-7293244D01*
X2351844Y-7293244D01*
X2351844Y-7363956D01*
X2422556Y-7363956D01*
X2635816Y-1494816D02*
X2635816Y-1424104D01*
X2565104Y-1424104D01*
X2565104Y-1494816D01*
X2635816Y-1494816D01*
X2635816Y-1748816D02*
X2635816Y-1678104D01*
X2565104Y-1678104D01*
X2565104Y-1748816D01*
X2635816Y-1748816D01*
X2635816Y-2002816D02*
X2635816Y-1932104D01*
X2565104Y-1932104D01*
X2565104Y-2002816D01*
X2635816Y-2002816D01*
X2676556Y-7109956D02*
X2676556Y-7039244D01*
X2605844Y-7039244D01*
X2605844Y-7109956D01*
X2676556Y-7109956D01*
X2676556Y-7363956D02*
X2676556Y-7293244D01*
X2605844Y-7293244D01*
X2605844Y-7363956D01*
X2676556Y-7363956D01*
X2889816Y-1494816D02*
X2889816Y-1424104D01*
X2819104Y-1424104D01*
X2819104Y-1494816D01*
X2889816Y-1494816D01*
X2889816Y-1748816D02*
X2889816Y-1678104D01*
X2819104Y-1678104D01*
X2819104Y-1748816D01*
X2889816Y-1748816D01*
X2889816Y-2002816D02*
X2889816Y-1932104D01*
X2819104Y-1932104D01*
X2819104Y-2002816D01*
X2889816Y-2002816D01*
X2930556Y-7109956D02*
X2930556Y-7039244D01*
X2859844Y-7039244D01*
X2859844Y-7109956D01*
X2930556Y-7109956D01*
X2930556Y-7363956D02*
X2930556Y-7293244D01*
X2859844Y-7293244D01*
X2859844Y-7363956D01*
X2930556Y-7363956D01*
X3184556Y-7109956D02*
X3184556Y-7039244D01*
X3113844Y-7039244D01*
X3113844Y-7109956D01*
X3184556Y-7109956D01*
X3184556Y-7363956D02*
X3184556Y-7293244D01*
X3113844Y-7293244D01*
X3113844Y-7363956D01*
X3184556Y-7363956D01*
X3438556Y-7109956D02*
X3438556Y-7039244D01*
X3367844Y-7039244D01*
X3367844Y-7109956D01*
X3438556Y-7109956D01*
X3438556Y-7363956D02*
X3438556Y-7293244D01*
X3367844Y-7293244D01*
X3367844Y-7363956D01*
X3438556Y-7363956D01*
X3692556Y-7109956D02*
X3692556Y-7039244D01*
X3621844Y-7039244D01*
X3621844Y-7109956D01*
X3692556Y-7109956D01*
X3692556Y-7363956D02*
X3692556Y-7293244D01*
X3621844Y-7293244D01*
X3621844Y-7363956D01*
X3692556Y-7363956D01*
X3946556Y-7109956D02*
X3946556Y-7039244D01*
X3875844Y-7039244D01*
X3875844Y-7109956D01*
X3946556Y-7109956D01*
X3946556Y-7363956D02*
X3946556Y-7293244D01*
X3875844Y-7293244D01*
X3875844Y-7363956D01*
X3946556Y-7363956D01*
X4200556Y-7109956D02*
X4200556Y-7039244D01*
X4129844Y-7039244D01*
X4129844Y-7109956D01*
X4200556Y-7109956D01*
X4200556Y-7363956D02*
X4200556Y-7293244D01*
X4129844Y-7293244D01*
X4129844Y-7363956D01*
X4200556Y-7363956D01*
X4454556Y-7109956D02*
X4454556Y-7039244D01*
X4383844Y-7039244D01*
X4383844Y-7109956D01*
X4454556Y-7109956D01*
X4454556Y-7363956D02*
X4454556Y-7293244D01*
X4383844Y-7293244D01*
X4383844Y-7363956D01*
X4454556Y-7363956D01*
X4708556Y-7109956D02*
X4708556Y-7039244D01*
X4637844Y-7039244D01*
X4637844Y-7109956D01*
X4708556Y-7109956D01*
X4708556Y-7363956D02*
X4708556Y-7293244D01*
X4637844Y-7293244D01*
X4637844Y-7363956D01*
X4708556Y-7363956D01*
X4962556Y-7109956D02*
X4962556Y-7039244D01*
X4891844Y-7039244D01*
X4891844Y-7109956D01*
X4962556Y-7109956D01*
X4962556Y-7363956D02*
X4962556Y-7293244D01*
X4891844Y-7293244D01*
X4891844Y-7363956D01*
X4962556Y-7363956D01*
X5216556Y-7109956D02*
X5216556Y-7039244D01*
X5145844Y-7039244D01*
X5145844Y-7109956D01*
X5216556Y-7109956D01*
X5216556Y-7363956D02*
X5216556Y-7293244D01*
X5145844Y-7293244D01*
X5145844Y-7363956D01*
X5216556Y-7363956D01*
X6466636Y-3160556D02*
X6466636Y-3089844D01*
X6395924Y-3089844D01*
X6395924Y-3160556D01*
X6466636Y-3160556D01*
X6466636Y-3414556D02*
X6466636Y-3343844D01*
X6395924Y-3343844D01*
X6395924Y-3414556D01*
X6466636Y-3414556D01*
X6466636Y-3668556D02*
X6466636Y-3597844D01*
X6395924Y-3597844D01*
X6395924Y-3668556D01*
X6466636Y-3668556D01*
X6466636Y-3922556D02*
X6466636Y-3851844D01*
X6395924Y-3851844D01*
X6395924Y-3922556D01*
X6466636Y-3922556D01*
X6606356Y-997956D02*
X6606356Y-927244D01*
X6535644Y-927244D01*
X6535644Y-997956D01*
X6606356Y-997956D01*
D10*
X6621000Y-1062600D02*
X6621000Y-862600D01*
X6521000Y-1062600D02*
X6521000Y-862600D01*
X6621000Y-862600D02*
G75*
G03*
X6521000Y-862600I-50000J0D01*
G01*
X6521000Y-1062600D02*
G75*
G03*
X6621000Y-1062600I50000J0D01*
G01*
D14*
X6906356Y-527956D02*
X6906356Y-457244D01*
X6835644Y-457244D01*
X6835644Y-527956D01*
X6906356Y-527956D01*
D10*
X6971000Y-442600D02*
X6771000Y-442600D01*
X6971000Y-542600D02*
X6771000Y-542600D01*
X6771000Y-442600D02*
G75*
G03*
X6771000Y-542600I0J-50000D01*
G01*
X6971000Y-542600D02*
G75*
G03*
X6971000Y-442600I0J50000D01*
G01*
D14*
X7007656Y-3194696D02*
X7007656Y-3123984D01*
X6936944Y-3123984D01*
X6936944Y-3194696D01*
X7007656Y-3194696D01*
X7007656Y-3448696D02*
X7007656Y-3377984D01*
X6936944Y-3377984D01*
X6936944Y-3448696D01*
X7007656Y-3448696D01*
X7007656Y-3702696D02*
X7007656Y-3631984D01*
X6936944Y-3631984D01*
X6936944Y-3702696D01*
X7007656Y-3702696D01*
X7007656Y-3956696D02*
X7007656Y-3885984D01*
X6936944Y-3885984D01*
X6936944Y-3956696D01*
X7007656Y-3956696D01*
X7007656Y-4210696D02*
X7007656Y-4139984D01*
X6936944Y-4139984D01*
X6936944Y-4210696D01*
X7007656Y-4210696D01*
X7206356Y-997956D02*
X7206356Y-927244D01*
X7135644Y-927244D01*
X7135644Y-997956D01*
X7206356Y-997956D01*
D10*
X7221000Y-1062600D02*
X7221000Y-862600D01*
X7121000Y-1062600D02*
X7121000Y-862600D01*
X7221000Y-862600D02*
G75*
G03*
X7121000Y-862600I-50000J0D01*
G01*
X7121000Y-1062600D02*
G75*
G03*
X7221000Y-1062600I50000J0D01*
G01*
D14*
X7261656Y-3194696D02*
X7261656Y-3123984D01*
X7190944Y-3123984D01*
X7190944Y-3194696D01*
X7261656Y-3194696D01*
X7261656Y-3448696D02*
X7261656Y-3377984D01*
X7190944Y-3377984D01*
X7190944Y-3448696D01*
X7261656Y-3448696D01*
X7261656Y-3702696D02*
X7261656Y-3631984D01*
X7190944Y-3631984D01*
X7190944Y-3702696D01*
X7261656Y-3702696D01*
X7261656Y-3956696D02*
X7261656Y-3885984D01*
X7190944Y-3885984D01*
X7190944Y-3956696D01*
X7261656Y-3956696D01*
X7261656Y-4210696D02*
X7261656Y-4139984D01*
X7190944Y-4139984D01*
X7190944Y-4210696D01*
X7261656Y-4210696D01*
D15*
X3230000Y-571600D02*
X3281000Y-520600D01*
X3230000Y-469600D01*
X3179000Y-520600D01*
X3230000Y-571600D01*
X3484000Y-571600D02*
X3535000Y-520600D01*
X3484000Y-469600D01*
X3433000Y-520600D01*
X3484000Y-571600D01*
X3738000Y-571600D02*
X3789000Y-520600D01*
X3738000Y-469600D01*
X3687000Y-520600D01*
X3738000Y-571600D01*
X3992000Y-571600D02*
X4043000Y-520600D01*
X3992000Y-469600D01*
X3941000Y-520600D01*
X3992000Y-571600D01*
D16*
X401430Y-263780D02*
X1001430Y-863780D01*
X1001430Y-263780D02*
X401430Y-863780D01*
X1001430Y-563780D02*
G75*
G03*
X1001430Y-563780I-300000J0D01*
G01*
X401430Y-6062600D02*
X1001430Y-6662600D01*
X1001430Y-6062600D02*
X401430Y-6662600D01*
X1001430Y-6362600D02*
G75*
G03*
X1001430Y-6362600I-300000J0D01*
G01*
X6402180Y-1762380D02*
X7002180Y-2362380D01*
X7002180Y-1762380D02*
X6402180Y-2362380D01*
X7002180Y-2062380D02*
G75*
G03*
X7002180Y-2062380I-300000J0D01*
G01*
D17*
X6378450Y-6038870D02*
X7028450Y-6688870D01*
X7028450Y-6038870D02*
X6378450Y-6688870D01*
X6703450Y-6038870D02*
X6703450Y-6688870D01*
X6378450Y-6363870D02*
X7028450Y-6363870D01*
D10*
X349839Y-8883571D02*
X349839Y-8683571D01*
X397458Y-8683571D01*
X426030Y-8693095D01*
X445077Y-8712143D01*
X454601Y-8731190D01*
X464125Y-8769286D01*
X464125Y-8797857D01*
X454601Y-8835952D01*
X445077Y-8855000D01*
X426030Y-8874048D01*
X397458Y-8883571D01*
X349839Y-8883571D01*
X549839Y-8883571D02*
X549839Y-8750238D01*
X549839Y-8788333D02*
X559363Y-8769286D01*
X568887Y-8759762D01*
X587934Y-8750238D01*
X606982Y-8750238D01*
X673649Y-8883571D02*
X673649Y-8750238D01*
X673649Y-8683571D02*
X664125Y-8693095D01*
X673649Y-8702619D01*
X683173Y-8693095D01*
X673649Y-8683571D01*
X673649Y-8702619D01*
X797458Y-8883571D02*
X778411Y-8874048D01*
X768887Y-8855000D01*
X768887Y-8683571D01*
X902220Y-8883571D02*
X883172Y-8874048D01*
X873649Y-8855000D01*
X873649Y-8683571D01*
X1130792Y-8883571D02*
X1130792Y-8683571D01*
X1197458Y-8826429D01*
X1264125Y-8683571D01*
X1264125Y-8883571D01*
X1445077Y-8883571D02*
X1445077Y-8778809D01*
X1435553Y-8759762D01*
X1416506Y-8750238D01*
X1378411Y-8750238D01*
X1359363Y-8759762D01*
X1445077Y-8874048D02*
X1426030Y-8883571D01*
X1378411Y-8883571D01*
X1359363Y-8874048D01*
X1349839Y-8855000D01*
X1349839Y-8835952D01*
X1359363Y-8816905D01*
X1378411Y-8807381D01*
X1426030Y-8807381D01*
X1445077Y-8797857D01*
X1540315Y-8750238D02*
X1540315Y-8950238D01*
X1540315Y-8759762D02*
X1559363Y-8750238D01*
X1597458Y-8750238D01*
X1616506Y-8759762D01*
X1626030Y-8769286D01*
X1635553Y-8788333D01*
X1635553Y-8845476D01*
X1626030Y-8864524D01*
X1616506Y-8874048D01*
X1597458Y-8883571D01*
X1559363Y-8883571D01*
X1540315Y-8874048D01*
X1721268Y-8864524D02*
X1730792Y-8874048D01*
X1721268Y-8883571D01*
X1711744Y-8874048D01*
X1721268Y-8864524D01*
X1721268Y-8883571D01*
X1721268Y-8759762D02*
X1730792Y-8769286D01*
X1721268Y-8778809D01*
X1711744Y-8769286D01*
X1721268Y-8759762D01*
X1721268Y-8778809D01*
D11*
X62220Y-9198095D02*
X92220Y-9228095D01*
X92220Y-9198095D02*
X62220Y-9228095D01*
D10*
X387934Y-9103571D02*
X406982Y-9103571D01*
X426030Y-9113095D01*
X435553Y-9122619D01*
X445077Y-9141667D01*
X454601Y-9179762D01*
X454601Y-9227381D01*
X445077Y-9265476D01*
X435553Y-9284524D01*
X426030Y-9294048D01*
X406982Y-9303571D01*
X387934Y-9303571D01*
X368887Y-9294048D01*
X359363Y-9284524D01*
X349839Y-9265476D01*
X340315Y-9227381D01*
X340315Y-9179762D01*
X349839Y-9141667D01*
X359363Y-9122619D01*
X368887Y-9113095D01*
X387934Y-9103571D01*
X540315Y-9284524D02*
X549839Y-9294048D01*
X540315Y-9303571D01*
X530792Y-9294048D01*
X540315Y-9284524D01*
X540315Y-9303571D01*
X616506Y-9103571D02*
X740315Y-9103571D01*
X673649Y-9179762D01*
X702220Y-9179762D01*
X721268Y-9189286D01*
X730792Y-9198809D01*
X740315Y-9217857D01*
X740315Y-9265476D01*
X730792Y-9284524D01*
X721268Y-9294048D01*
X702220Y-9303571D01*
X645077Y-9303571D01*
X626030Y-9294048D01*
X616506Y-9284524D01*
X864125Y-9103571D02*
X883172Y-9103571D01*
X902220Y-9113095D01*
X911744Y-9122619D01*
X921268Y-9141667D01*
X930792Y-9179762D01*
X930792Y-9227381D01*
X921268Y-9265476D01*
X911744Y-9284524D01*
X902220Y-9294048D01*
X883172Y-9303571D01*
X864125Y-9303571D01*
X845077Y-9294048D01*
X835553Y-9284524D01*
X826030Y-9265476D01*
X816506Y-9227381D01*
X816506Y-9179762D01*
X826030Y-9141667D01*
X835553Y-9122619D01*
X845077Y-9113095D01*
X864125Y-9103571D01*
X1054601Y-9103571D02*
X1073649Y-9103571D01*
X1092696Y-9113095D01*
X1102220Y-9122619D01*
X1111744Y-9141667D01*
X1121268Y-9179762D01*
X1121268Y-9227381D01*
X1111744Y-9265476D01*
X1102220Y-9284524D01*
X1092696Y-9294048D01*
X1073649Y-9303571D01*
X1054601Y-9303571D01*
X1035553Y-9294048D01*
X1026030Y-9284524D01*
X1016506Y-9265476D01*
X1006982Y-9227381D01*
X1006982Y-9179762D01*
X1016506Y-9141667D01*
X1026030Y-9122619D01*
X1035553Y-9113095D01*
X1054601Y-9103571D01*
X1206982Y-9303571D02*
X1206982Y-9170238D01*
X1206982Y-9189286D02*
X1216506Y-9179762D01*
X1235554Y-9170238D01*
X1264125Y-9170238D01*
X1283173Y-9179762D01*
X1292696Y-9198809D01*
X1292696Y-9303571D01*
X1292696Y-9198809D02*
X1302220Y-9179762D01*
X1321268Y-9170238D01*
X1349839Y-9170238D01*
X1368887Y-9179762D01*
X1378411Y-9198809D01*
X1378411Y-9303571D01*
X1473649Y-9303571D02*
X1473649Y-9170238D01*
X1473649Y-9189286D02*
X1483172Y-9179762D01*
X1502220Y-9170238D01*
X1530792Y-9170238D01*
X1549839Y-9179762D01*
X1559363Y-9198809D01*
X1559363Y-9303571D01*
X1559363Y-9198809D02*
X1568887Y-9179762D01*
X1587934Y-9170238D01*
X1616506Y-9170238D01*
X1635553Y-9179762D01*
X1645077Y-9198809D01*
X1645077Y-9303571D01*
X2035553Y-9094048D02*
X1864125Y-9351190D01*
X2292696Y-9103571D02*
X2311744Y-9103571D01*
X2330792Y-9113095D01*
X2340315Y-9122619D01*
X2349839Y-9141667D01*
X2359363Y-9179762D01*
X2359363Y-9227381D01*
X2349839Y-9265476D01*
X2340315Y-9284524D01*
X2330792Y-9294048D01*
X2311744Y-9303571D01*
X2292696Y-9303571D01*
X2273649Y-9294048D01*
X2264125Y-9284524D01*
X2254601Y-9265476D01*
X2245077Y-9227381D01*
X2245077Y-9179762D01*
X2254601Y-9141667D01*
X2264125Y-9122619D01*
X2273649Y-9113095D01*
X2292696Y-9103571D01*
X2445077Y-9284524D02*
X2454601Y-9294048D01*
X2445077Y-9303571D01*
X2435554Y-9294048D01*
X2445077Y-9284524D01*
X2445077Y-9303571D01*
X2578411Y-9103571D02*
X2597458Y-9103571D01*
X2616506Y-9113095D01*
X2626030Y-9122619D01*
X2635554Y-9141667D01*
X2645077Y-9179762D01*
X2645077Y-9227381D01*
X2635554Y-9265476D01*
X2626030Y-9284524D01*
X2616506Y-9294048D01*
X2597458Y-9303571D01*
X2578411Y-9303571D01*
X2559363Y-9294048D01*
X2549839Y-9284524D01*
X2540315Y-9265476D01*
X2530792Y-9227381D01*
X2530792Y-9179762D01*
X2540315Y-9141667D01*
X2549839Y-9122619D01*
X2559363Y-9113095D01*
X2578411Y-9103571D01*
X2835553Y-9303571D02*
X2721268Y-9303571D01*
X2778411Y-9303571D02*
X2778411Y-9103571D01*
X2759363Y-9132143D01*
X2740315Y-9151190D01*
X2721268Y-9160714D01*
X3026030Y-9303571D02*
X2911744Y-9303571D01*
X2968887Y-9303571D02*
X2968887Y-9103571D01*
X2949839Y-9132143D01*
X2930792Y-9151190D01*
X2911744Y-9160714D01*
X3140315Y-9189286D02*
X3121268Y-9179762D01*
X3111744Y-9170238D01*
X3102220Y-9151190D01*
X3102220Y-9141667D01*
X3111744Y-9122619D01*
X3121268Y-9113095D01*
X3140315Y-9103571D01*
X3178411Y-9103571D01*
X3197458Y-9113095D01*
X3206982Y-9122619D01*
X3216506Y-9141667D01*
X3216506Y-9151190D01*
X3206982Y-9170238D01*
X3197458Y-9179762D01*
X3178411Y-9189286D01*
X3140315Y-9189286D01*
X3121268Y-9198809D01*
X3111744Y-9208333D01*
X3102220Y-9227381D01*
X3102220Y-9265476D01*
X3111744Y-9284524D01*
X3121268Y-9294048D01*
X3140315Y-9303571D01*
X3178411Y-9303571D01*
X3197458Y-9294048D01*
X3206982Y-9284524D01*
X3216506Y-9265476D01*
X3216506Y-9227381D01*
X3206982Y-9208333D01*
X3197458Y-9198809D01*
X3178411Y-9189286D01*
X3292696Y-9103571D02*
X3292696Y-9141667D01*
X3368887Y-9103571D02*
X3368887Y-9141667D01*
X3664125Y-9379762D02*
X3654601Y-9370238D01*
X3635553Y-9341667D01*
X3626030Y-9322619D01*
X3616506Y-9294048D01*
X3606982Y-9246429D01*
X3606982Y-9208333D01*
X3616506Y-9160714D01*
X3626030Y-9132143D01*
X3635553Y-9113095D01*
X3654601Y-9084524D01*
X3664125Y-9075000D01*
X3826030Y-9170238D02*
X3826030Y-9303571D01*
X3778411Y-9094048D02*
X3730792Y-9236905D01*
X3854601Y-9236905D01*
X3940315Y-9303571D02*
X3978411Y-9303571D01*
X3997458Y-9294048D01*
X4006982Y-9284524D01*
X4026030Y-9255952D01*
X4035553Y-9217857D01*
X4035553Y-9141667D01*
X4026030Y-9122619D01*
X4016506Y-9113095D01*
X3997458Y-9103571D01*
X3959363Y-9103571D01*
X3940315Y-9113095D01*
X3930792Y-9122619D01*
X3921268Y-9141667D01*
X3921268Y-9189286D01*
X3930792Y-9208333D01*
X3940315Y-9217857D01*
X3959363Y-9227381D01*
X3997458Y-9227381D01*
X4016506Y-9217857D01*
X4026030Y-9208333D01*
X4035553Y-9189286D01*
X4273649Y-9303571D02*
X4273649Y-9103571D01*
X4359363Y-9303571D02*
X4359363Y-9198809D01*
X4349839Y-9179762D01*
X4330792Y-9170238D01*
X4302220Y-9170238D01*
X4283173Y-9179762D01*
X4273649Y-9189286D01*
X4483173Y-9303571D02*
X4464125Y-9294048D01*
X4454601Y-9284524D01*
X4445077Y-9265476D01*
X4445077Y-9208333D01*
X4454601Y-9189286D01*
X4464125Y-9179762D01*
X4483173Y-9170238D01*
X4511744Y-9170238D01*
X4530792Y-9179762D01*
X4540315Y-9189286D01*
X4549839Y-9208333D01*
X4549839Y-9265476D01*
X4540315Y-9284524D01*
X4530792Y-9294048D01*
X4511744Y-9303571D01*
X4483173Y-9303571D01*
X4664125Y-9303571D02*
X4645077Y-9294048D01*
X4635554Y-9275000D01*
X4635554Y-9103571D01*
X4816506Y-9294048D02*
X4797458Y-9303571D01*
X4759363Y-9303571D01*
X4740315Y-9294048D01*
X4730792Y-9275000D01*
X4730792Y-9198809D01*
X4740315Y-9179762D01*
X4759363Y-9170238D01*
X4797458Y-9170238D01*
X4816506Y-9179762D01*
X4826030Y-9198809D01*
X4826030Y-9217857D01*
X4730792Y-9236905D01*
X4902220Y-9294048D02*
X4921268Y-9303571D01*
X4959363Y-9303571D01*
X4978411Y-9294048D01*
X4987934Y-9275000D01*
X4987934Y-9265476D01*
X4978411Y-9246429D01*
X4959363Y-9236905D01*
X4930792Y-9236905D01*
X4911744Y-9227381D01*
X4902220Y-9208333D01*
X4902220Y-9198809D01*
X4911744Y-9179762D01*
X4930792Y-9170238D01*
X4959363Y-9170238D01*
X4978411Y-9179762D01*
X5054601Y-9379762D02*
X5064125Y-9370238D01*
X5083173Y-9341667D01*
X5092696Y-9322619D01*
X5102220Y-9294048D01*
X5111744Y-9246429D01*
X5111744Y-9208333D01*
X5102220Y-9160714D01*
X5092696Y-9132143D01*
X5083173Y-9113095D01*
X5064125Y-9084524D01*
X5054601Y-9075000D01*
D12*
X92220Y-9477095D02*
G75*
G03*
X92220Y-9477095I-20000J0D01*
G01*
D10*
X387934Y-9367571D02*
X406982Y-9367571D01*
X426030Y-9377095D01*
X435553Y-9386619D01*
X445077Y-9405667D01*
X454601Y-9443762D01*
X454601Y-9491381D01*
X445077Y-9529476D01*
X435553Y-9548524D01*
X426030Y-9558048D01*
X406982Y-9567571D01*
X387934Y-9567571D01*
X368887Y-9558048D01*
X359363Y-9548524D01*
X349839Y-9529476D01*
X340315Y-9491381D01*
X340315Y-9443762D01*
X349839Y-9405667D01*
X359363Y-9386619D01*
X368887Y-9377095D01*
X387934Y-9367571D01*
X540315Y-9548524D02*
X549839Y-9558048D01*
X540315Y-9567571D01*
X530792Y-9558048D01*
X540315Y-9548524D01*
X540315Y-9567571D01*
X721268Y-9434238D02*
X721268Y-9567571D01*
X673649Y-9358048D02*
X626030Y-9500905D01*
X749839Y-9500905D01*
X864125Y-9367571D02*
X883172Y-9367571D01*
X902220Y-9377095D01*
X911744Y-9386619D01*
X921268Y-9405667D01*
X930792Y-9443762D01*
X930792Y-9491381D01*
X921268Y-9529476D01*
X911744Y-9548524D01*
X902220Y-9558048D01*
X883172Y-9567571D01*
X864125Y-9567571D01*
X845077Y-9558048D01*
X835553Y-9548524D01*
X826030Y-9529476D01*
X816506Y-9491381D01*
X816506Y-9443762D01*
X826030Y-9405667D01*
X835553Y-9386619D01*
X845077Y-9377095D01*
X864125Y-9367571D01*
X1054601Y-9367571D02*
X1073649Y-9367571D01*
X1092696Y-9377095D01*
X1102220Y-9386619D01*
X1111744Y-9405667D01*
X1121268Y-9443762D01*
X1121268Y-9491381D01*
X1111744Y-9529476D01*
X1102220Y-9548524D01*
X1092696Y-9558048D01*
X1073649Y-9567571D01*
X1054601Y-9567571D01*
X1035553Y-9558048D01*
X1026030Y-9548524D01*
X1016506Y-9529476D01*
X1006982Y-9491381D01*
X1006982Y-9443762D01*
X1016506Y-9405667D01*
X1026030Y-9386619D01*
X1035553Y-9377095D01*
X1054601Y-9367571D01*
X1206982Y-9567571D02*
X1206982Y-9434238D01*
X1206982Y-9453286D02*
X1216506Y-9443762D01*
X1235554Y-9434238D01*
X1264125Y-9434238D01*
X1283173Y-9443762D01*
X1292696Y-9462809D01*
X1292696Y-9567571D01*
X1292696Y-9462809D02*
X1302220Y-9443762D01*
X1321268Y-9434238D01*
X1349839Y-9434238D01*
X1368887Y-9443762D01*
X1378411Y-9462809D01*
X1378411Y-9567571D01*
X1473649Y-9567571D02*
X1473649Y-9434238D01*
X1473649Y-9453286D02*
X1483172Y-9443762D01*
X1502220Y-9434238D01*
X1530792Y-9434238D01*
X1549839Y-9443762D01*
X1559363Y-9462809D01*
X1559363Y-9567571D01*
X1559363Y-9462809D02*
X1568887Y-9443762D01*
X1587934Y-9434238D01*
X1616506Y-9434238D01*
X1635553Y-9443762D01*
X1645077Y-9462809D01*
X1645077Y-9567571D01*
X2035553Y-9358048D02*
X1864125Y-9615190D01*
X2292696Y-9367571D02*
X2311744Y-9367571D01*
X2330792Y-9377095D01*
X2340315Y-9386619D01*
X2349839Y-9405667D01*
X2359363Y-9443762D01*
X2359363Y-9491381D01*
X2349839Y-9529476D01*
X2340315Y-9548524D01*
X2330792Y-9558048D01*
X2311744Y-9567571D01*
X2292696Y-9567571D01*
X2273649Y-9558048D01*
X2264125Y-9548524D01*
X2254601Y-9529476D01*
X2245077Y-9491381D01*
X2245077Y-9443762D01*
X2254601Y-9405667D01*
X2264125Y-9386619D01*
X2273649Y-9377095D01*
X2292696Y-9367571D01*
X2445077Y-9548524D02*
X2454601Y-9558048D01*
X2445077Y-9567571D01*
X2435554Y-9558048D01*
X2445077Y-9548524D01*
X2445077Y-9567571D01*
X2578411Y-9367571D02*
X2597458Y-9367571D01*
X2616506Y-9377095D01*
X2626030Y-9386619D01*
X2635554Y-9405667D01*
X2645077Y-9443762D01*
X2645077Y-9491381D01*
X2635554Y-9529476D01*
X2626030Y-9548524D01*
X2616506Y-9558048D01*
X2597458Y-9567571D01*
X2578411Y-9567571D01*
X2559363Y-9558048D01*
X2549839Y-9548524D01*
X2540315Y-9529476D01*
X2530792Y-9491381D01*
X2530792Y-9443762D01*
X2540315Y-9405667D01*
X2549839Y-9386619D01*
X2559363Y-9377095D01*
X2578411Y-9367571D01*
X2835553Y-9567571D02*
X2721268Y-9567571D01*
X2778411Y-9567571D02*
X2778411Y-9367571D01*
X2759363Y-9396143D01*
X2740315Y-9415190D01*
X2721268Y-9424714D01*
X3016506Y-9367571D02*
X2921268Y-9367571D01*
X2911744Y-9462809D01*
X2921268Y-9453286D01*
X2940315Y-9443762D01*
X2987934Y-9443762D01*
X3006982Y-9453286D01*
X3016506Y-9462809D01*
X3026030Y-9481857D01*
X3026030Y-9529476D01*
X3016506Y-9548524D01*
X3006982Y-9558048D01*
X2987934Y-9567571D01*
X2940315Y-9567571D01*
X2921268Y-9558048D01*
X2911744Y-9548524D01*
X3092696Y-9367571D02*
X3226030Y-9367571D01*
X3140315Y-9567571D01*
X3292696Y-9367571D02*
X3292696Y-9405667D01*
X3368887Y-9367571D02*
X3368887Y-9405667D01*
X3664125Y-9643762D02*
X3654601Y-9634238D01*
X3635553Y-9605667D01*
X3626030Y-9586619D01*
X3616506Y-9558048D01*
X3606982Y-9510429D01*
X3606982Y-9472333D01*
X3616506Y-9424714D01*
X3626030Y-9396143D01*
X3635553Y-9377095D01*
X3654601Y-9348524D01*
X3664125Y-9339000D01*
X3835553Y-9367571D02*
X3740315Y-9367571D01*
X3730792Y-9462809D01*
X3740315Y-9453286D01*
X3759363Y-9443762D01*
X3806982Y-9443762D01*
X3826030Y-9453286D01*
X3835553Y-9462809D01*
X3845077Y-9481857D01*
X3845077Y-9529476D01*
X3835553Y-9548524D01*
X3826030Y-9558048D01*
X3806982Y-9567571D01*
X3759363Y-9567571D01*
X3740315Y-9558048D01*
X3730792Y-9548524D01*
X3911744Y-9367571D02*
X4035553Y-9367571D01*
X3968887Y-9443762D01*
X3997458Y-9443762D01*
X4016506Y-9453286D01*
X4026030Y-9462809D01*
X4035553Y-9481857D01*
X4035553Y-9529476D01*
X4026030Y-9548524D01*
X4016506Y-9558048D01*
X3997458Y-9567571D01*
X3940315Y-9567571D01*
X3921268Y-9558048D01*
X3911744Y-9548524D01*
X4226030Y-9567571D02*
X4111744Y-9567571D01*
X4168887Y-9567571D02*
X4168887Y-9367571D01*
X4149839Y-9396143D01*
X4130792Y-9415190D01*
X4111744Y-9424714D01*
X4464125Y-9567571D02*
X4464125Y-9367571D01*
X4549839Y-9567571D02*
X4549839Y-9462809D01*
X4540315Y-9443762D01*
X4521268Y-9434238D01*
X4492696Y-9434238D01*
X4473649Y-9443762D01*
X4464125Y-9453286D01*
X4673649Y-9567571D02*
X4654601Y-9558048D01*
X4645077Y-9548524D01*
X4635554Y-9529476D01*
X4635554Y-9472333D01*
X4645077Y-9453286D01*
X4654601Y-9443762D01*
X4673649Y-9434238D01*
X4702220Y-9434238D01*
X4721268Y-9443762D01*
X4730792Y-9453286D01*
X4740315Y-9472333D01*
X4740315Y-9529476D01*
X4730792Y-9548524D01*
X4721268Y-9558048D01*
X4702220Y-9567571D01*
X4673649Y-9567571D01*
X4854601Y-9567571D02*
X4835554Y-9558048D01*
X4826030Y-9539000D01*
X4826030Y-9367571D01*
X5006982Y-9558048D02*
X4987934Y-9567571D01*
X4949839Y-9567571D01*
X4930792Y-9558048D01*
X4921268Y-9539000D01*
X4921268Y-9462809D01*
X4930792Y-9443762D01*
X4949839Y-9434238D01*
X4987934Y-9434238D01*
X5006982Y-9443762D01*
X5016506Y-9462809D01*
X5016506Y-9481857D01*
X4921268Y-9500905D01*
X5092696Y-9558048D02*
X5111744Y-9567571D01*
X5149839Y-9567571D01*
X5168887Y-9558048D01*
X5178411Y-9539000D01*
X5178411Y-9529476D01*
X5168887Y-9510429D01*
X5149839Y-9500905D01*
X5121268Y-9500905D01*
X5102220Y-9491381D01*
X5092696Y-9472333D01*
X5092696Y-9462809D01*
X5102220Y-9443762D01*
X5121268Y-9434238D01*
X5149839Y-9434238D01*
X5168887Y-9443762D01*
X5245077Y-9643762D02*
X5254601Y-9634238D01*
X5273649Y-9605667D01*
X5283173Y-9586619D01*
X5292696Y-9558048D01*
X5302220Y-9510429D01*
X5302220Y-9472333D01*
X5292696Y-9424714D01*
X5283173Y-9396143D01*
X5273649Y-9377095D01*
X5254601Y-9348524D01*
X5245077Y-9339000D01*
D13*
X54720Y-9703595D02*
X54720Y-9778595D01*
X17220Y-9741095D02*
X92220Y-9741095D01*
D10*
X387934Y-9631571D02*
X406982Y-9631571D01*
X426030Y-9641095D01*
X435553Y-9650619D01*
X445077Y-9669667D01*
X454601Y-9707762D01*
X454601Y-9755381D01*
X445077Y-9793476D01*
X435553Y-9812524D01*
X426030Y-9822048D01*
X406982Y-9831571D01*
X387934Y-9831571D01*
X368887Y-9822048D01*
X359363Y-9812524D01*
X349839Y-9793476D01*
X340315Y-9755381D01*
X340315Y-9707762D01*
X349839Y-9669667D01*
X359363Y-9650619D01*
X368887Y-9641095D01*
X387934Y-9631571D01*
X540315Y-9812524D02*
X549839Y-9822048D01*
X540315Y-9831571D01*
X530792Y-9822048D01*
X540315Y-9812524D01*
X540315Y-9831571D01*
X616506Y-9631571D02*
X749839Y-9631571D01*
X664125Y-9831571D01*
X921268Y-9631571D02*
X826030Y-9631571D01*
X816506Y-9726809D01*
X826030Y-9717286D01*
X845077Y-9707762D01*
X892696Y-9707762D01*
X911744Y-9717286D01*
X921268Y-9726809D01*
X930792Y-9745857D01*
X930792Y-9793476D01*
X921268Y-9812524D01*
X911744Y-9822048D01*
X892696Y-9831571D01*
X845077Y-9831571D01*
X826030Y-9822048D01*
X816506Y-9812524D01*
X1054601Y-9631571D02*
X1073649Y-9631571D01*
X1092696Y-9641095D01*
X1102220Y-9650619D01*
X1111744Y-9669667D01*
X1121268Y-9707762D01*
X1121268Y-9755381D01*
X1111744Y-9793476D01*
X1102220Y-9812524D01*
X1092696Y-9822048D01*
X1073649Y-9831571D01*
X1054601Y-9831571D01*
X1035553Y-9822048D01*
X1026030Y-9812524D01*
X1016506Y-9793476D01*
X1006982Y-9755381D01*
X1006982Y-9707762D01*
X1016506Y-9669667D01*
X1026030Y-9650619D01*
X1035553Y-9641095D01*
X1054601Y-9631571D01*
X1206982Y-9831571D02*
X1206982Y-9698238D01*
X1206982Y-9717286D02*
X1216506Y-9707762D01*
X1235554Y-9698238D01*
X1264125Y-9698238D01*
X1283173Y-9707762D01*
X1292696Y-9726809D01*
X1292696Y-9831571D01*
X1292696Y-9726809D02*
X1302220Y-9707762D01*
X1321268Y-9698238D01*
X1349839Y-9698238D01*
X1368887Y-9707762D01*
X1378411Y-9726809D01*
X1378411Y-9831571D01*
X1473649Y-9831571D02*
X1473649Y-9698238D01*
X1473649Y-9717286D02*
X1483172Y-9707762D01*
X1502220Y-9698238D01*
X1530792Y-9698238D01*
X1549839Y-9707762D01*
X1559363Y-9726809D01*
X1559363Y-9831571D01*
X1559363Y-9726809D02*
X1568887Y-9707762D01*
X1587934Y-9698238D01*
X1616506Y-9698238D01*
X1635553Y-9707762D01*
X1645077Y-9726809D01*
X1645077Y-9831571D01*
X2035553Y-9622048D02*
X1864125Y-9879190D01*
X2292696Y-9631571D02*
X2311744Y-9631571D01*
X2330792Y-9641095D01*
X2340315Y-9650619D01*
X2349839Y-9669667D01*
X2359363Y-9707762D01*
X2359363Y-9755381D01*
X2349839Y-9793476D01*
X2340315Y-9812524D01*
X2330792Y-9822048D01*
X2311744Y-9831571D01*
X2292696Y-9831571D01*
X2273649Y-9822048D01*
X2264125Y-9812524D01*
X2254601Y-9793476D01*
X2245077Y-9755381D01*
X2245077Y-9707762D01*
X2254601Y-9669667D01*
X2264125Y-9650619D01*
X2273649Y-9641095D01*
X2292696Y-9631571D01*
X2445077Y-9812524D02*
X2454601Y-9822048D01*
X2445077Y-9831571D01*
X2435554Y-9822048D01*
X2445077Y-9812524D01*
X2445077Y-9831571D01*
X2578411Y-9631571D02*
X2597458Y-9631571D01*
X2616506Y-9641095D01*
X2626030Y-9650619D01*
X2635554Y-9669667D01*
X2645077Y-9707762D01*
X2645077Y-9755381D01*
X2635554Y-9793476D01*
X2626030Y-9812524D01*
X2616506Y-9822048D01*
X2597458Y-9831571D01*
X2578411Y-9831571D01*
X2559363Y-9822048D01*
X2549839Y-9812524D01*
X2540315Y-9793476D01*
X2530792Y-9755381D01*
X2530792Y-9707762D01*
X2540315Y-9669667D01*
X2549839Y-9650619D01*
X2559363Y-9641095D01*
X2578411Y-9631571D01*
X2721268Y-9650619D02*
X2730792Y-9641095D01*
X2749839Y-9631571D01*
X2797458Y-9631571D01*
X2816506Y-9641095D01*
X2826030Y-9650619D01*
X2835553Y-9669667D01*
X2835553Y-9688714D01*
X2826030Y-9717286D01*
X2711744Y-9831571D01*
X2835553Y-9831571D01*
X2930792Y-9831571D02*
X2968887Y-9831571D01*
X2987934Y-9822048D01*
X2997458Y-9812524D01*
X3016506Y-9783952D01*
X3026030Y-9745857D01*
X3026030Y-9669667D01*
X3016506Y-9650619D01*
X3006982Y-9641095D01*
X2987934Y-9631571D01*
X2949839Y-9631571D01*
X2930792Y-9641095D01*
X2921268Y-9650619D01*
X2911744Y-9669667D01*
X2911744Y-9717286D01*
X2921268Y-9736333D01*
X2930792Y-9745857D01*
X2949839Y-9755381D01*
X2987934Y-9755381D01*
X3006982Y-9745857D01*
X3016506Y-9736333D01*
X3026030Y-9717286D01*
X3206982Y-9631571D02*
X3111744Y-9631571D01*
X3102220Y-9726809D01*
X3111744Y-9717286D01*
X3130792Y-9707762D01*
X3178411Y-9707762D01*
X3197458Y-9717286D01*
X3206982Y-9726809D01*
X3216506Y-9745857D01*
X3216506Y-9793476D01*
X3206982Y-9812524D01*
X3197458Y-9822048D01*
X3178411Y-9831571D01*
X3130792Y-9831571D01*
X3111744Y-9822048D01*
X3102220Y-9812524D01*
X3292696Y-9631571D02*
X3292696Y-9669667D01*
X3368887Y-9631571D02*
X3368887Y-9669667D01*
X3664125Y-9907762D02*
X3654601Y-9898238D01*
X3635553Y-9869667D01*
X3626030Y-9850619D01*
X3616506Y-9822048D01*
X3606982Y-9774429D01*
X3606982Y-9736333D01*
X3616506Y-9688714D01*
X3626030Y-9660143D01*
X3635553Y-9641095D01*
X3654601Y-9612524D01*
X3664125Y-9603000D01*
X3826030Y-9698238D02*
X3826030Y-9831571D01*
X3778411Y-9622048D02*
X3730792Y-9764905D01*
X3854601Y-9764905D01*
X4083172Y-9831571D02*
X4083172Y-9631571D01*
X4168887Y-9831571D02*
X4168887Y-9726809D01*
X4159363Y-9707762D01*
X4140315Y-9698238D01*
X4111744Y-9698238D01*
X4092696Y-9707762D01*
X4083172Y-9717286D01*
X4292696Y-9831571D02*
X4273649Y-9822048D01*
X4264125Y-9812524D01*
X4254601Y-9793476D01*
X4254601Y-9736333D01*
X4264125Y-9717286D01*
X4273649Y-9707762D01*
X4292696Y-9698238D01*
X4321268Y-9698238D01*
X4340315Y-9707762D01*
X4349839Y-9717286D01*
X4359363Y-9736333D01*
X4359363Y-9793476D01*
X4349839Y-9812524D01*
X4340315Y-9822048D01*
X4321268Y-9831571D01*
X4292696Y-9831571D01*
X4473649Y-9831571D02*
X4454601Y-9822048D01*
X4445077Y-9803000D01*
X4445077Y-9631571D01*
X4626030Y-9822048D02*
X4606982Y-9831571D01*
X4568887Y-9831571D01*
X4549839Y-9822048D01*
X4540315Y-9803000D01*
X4540315Y-9726809D01*
X4549839Y-9707762D01*
X4568887Y-9698238D01*
X4606982Y-9698238D01*
X4626030Y-9707762D01*
X4635554Y-9726809D01*
X4635554Y-9745857D01*
X4540315Y-9764905D01*
X4711744Y-9822048D02*
X4730792Y-9831571D01*
X4768887Y-9831571D01*
X4787934Y-9822048D01*
X4797458Y-9803000D01*
X4797458Y-9793476D01*
X4787934Y-9774429D01*
X4768887Y-9764905D01*
X4740315Y-9764905D01*
X4721268Y-9755381D01*
X4711744Y-9736333D01*
X4711744Y-9726809D01*
X4721268Y-9707762D01*
X4740315Y-9698238D01*
X4768887Y-9698238D01*
X4787934Y-9707762D01*
X4864125Y-9907762D02*
X4873649Y-9898238D01*
X4892696Y-9869667D01*
X4902220Y-9850619D01*
X4911744Y-9822048D01*
X4921268Y-9774429D01*
X4921268Y-9736333D01*
X4911744Y-9688714D01*
X4902220Y-9660143D01*
X4892696Y-9641095D01*
X4873649Y-9612524D01*
X4864125Y-9603000D01*
D14*
X77576Y-10040451D02*
X77576Y-9969740D01*
X6864Y-9969740D01*
X6864Y-10040451D01*
X77576Y-10040451D01*
D10*
X454601Y-10095571D02*
X340315Y-10095571D01*
X397458Y-10095571D02*
X397458Y-9895571D01*
X378411Y-9924143D01*
X359363Y-9943190D01*
X340315Y-9952714D01*
X540315Y-10076524D02*
X549839Y-10086048D01*
X540315Y-10095571D01*
X530792Y-10086048D01*
X540315Y-10076524D01*
X540315Y-10095571D01*
X673649Y-9895571D02*
X692696Y-9895571D01*
X711744Y-9905095D01*
X721268Y-9914619D01*
X730792Y-9933667D01*
X740315Y-9971762D01*
X740315Y-10019381D01*
X730792Y-10057476D01*
X721268Y-10076524D01*
X711744Y-10086048D01*
X692696Y-10095571D01*
X673649Y-10095571D01*
X654601Y-10086048D01*
X645077Y-10076524D01*
X635554Y-10057476D01*
X626030Y-10019381D01*
X626030Y-9971762D01*
X635554Y-9933667D01*
X645077Y-9914619D01*
X654601Y-9905095D01*
X673649Y-9895571D01*
X864125Y-9895571D02*
X883172Y-9895571D01*
X902220Y-9905095D01*
X911744Y-9914619D01*
X921268Y-9933667D01*
X930792Y-9971762D01*
X930792Y-10019381D01*
X921268Y-10057476D01*
X911744Y-10076524D01*
X902220Y-10086048D01*
X883172Y-10095571D01*
X864125Y-10095571D01*
X845077Y-10086048D01*
X835553Y-10076524D01*
X826030Y-10057476D01*
X816506Y-10019381D01*
X816506Y-9971762D01*
X826030Y-9933667D01*
X835553Y-9914619D01*
X845077Y-9905095D01*
X864125Y-9895571D01*
X1054601Y-9895571D02*
X1073649Y-9895571D01*
X1092696Y-9905095D01*
X1102220Y-9914619D01*
X1111744Y-9933667D01*
X1121268Y-9971762D01*
X1121268Y-10019381D01*
X1111744Y-10057476D01*
X1102220Y-10076524D01*
X1092696Y-10086048D01*
X1073649Y-10095571D01*
X1054601Y-10095571D01*
X1035553Y-10086048D01*
X1026030Y-10076524D01*
X1016506Y-10057476D01*
X1006982Y-10019381D01*
X1006982Y-9971762D01*
X1016506Y-9933667D01*
X1026030Y-9914619D01*
X1035553Y-9905095D01*
X1054601Y-9895571D01*
X1206982Y-10095571D02*
X1206982Y-9962238D01*
X1206982Y-9981286D02*
X1216506Y-9971762D01*
X1235554Y-9962238D01*
X1264125Y-9962238D01*
X1283173Y-9971762D01*
X1292696Y-9990809D01*
X1292696Y-10095571D01*
X1292696Y-9990809D02*
X1302220Y-9971762D01*
X1321268Y-9962238D01*
X1349839Y-9962238D01*
X1368887Y-9971762D01*
X1378411Y-9990809D01*
X1378411Y-10095571D01*
X1473649Y-10095571D02*
X1473649Y-9962238D01*
X1473649Y-9981286D02*
X1483172Y-9971762D01*
X1502220Y-9962238D01*
X1530792Y-9962238D01*
X1549839Y-9971762D01*
X1559363Y-9990809D01*
X1559363Y-10095571D01*
X1559363Y-9990809D02*
X1568887Y-9971762D01*
X1587934Y-9962238D01*
X1616506Y-9962238D01*
X1635553Y-9971762D01*
X1645077Y-9990809D01*
X1645077Y-10095571D01*
X2035553Y-9886048D02*
X1864125Y-10143190D01*
X2292696Y-9895571D02*
X2311744Y-9895571D01*
X2330792Y-9905095D01*
X2340315Y-9914619D01*
X2349839Y-9933667D01*
X2359363Y-9971762D01*
X2359363Y-10019381D01*
X2349839Y-10057476D01*
X2340315Y-10076524D01*
X2330792Y-10086048D01*
X2311744Y-10095571D01*
X2292696Y-10095571D01*
X2273649Y-10086048D01*
X2264125Y-10076524D01*
X2254601Y-10057476D01*
X2245077Y-10019381D01*
X2245077Y-9971762D01*
X2254601Y-9933667D01*
X2264125Y-9914619D01*
X2273649Y-9905095D01*
X2292696Y-9895571D01*
X2445077Y-10076524D02*
X2454601Y-10086048D01*
X2445077Y-10095571D01*
X2435554Y-10086048D01*
X2445077Y-10076524D01*
X2445077Y-10095571D01*
X2578411Y-9895571D02*
X2597458Y-9895571D01*
X2616506Y-9905095D01*
X2626030Y-9914619D01*
X2635554Y-9933667D01*
X2645077Y-9971762D01*
X2645077Y-10019381D01*
X2635554Y-10057476D01*
X2626030Y-10076524D01*
X2616506Y-10086048D01*
X2597458Y-10095571D01*
X2578411Y-10095571D01*
X2559363Y-10086048D01*
X2549839Y-10076524D01*
X2540315Y-10057476D01*
X2530792Y-10019381D01*
X2530792Y-9971762D01*
X2540315Y-9933667D01*
X2549839Y-9914619D01*
X2559363Y-9905095D01*
X2578411Y-9895571D01*
X2711744Y-9895571D02*
X2835553Y-9895571D01*
X2768887Y-9971762D01*
X2797458Y-9971762D01*
X2816506Y-9981286D01*
X2826030Y-9990809D01*
X2835553Y-10009857D01*
X2835553Y-10057476D01*
X2826030Y-10076524D01*
X2816506Y-10086048D01*
X2797458Y-10095571D01*
X2740315Y-10095571D01*
X2721268Y-10086048D01*
X2711744Y-10076524D01*
X2930792Y-10095571D02*
X2968887Y-10095571D01*
X2987934Y-10086048D01*
X2997458Y-10076524D01*
X3016506Y-10047952D01*
X3026030Y-10009857D01*
X3026030Y-9933667D01*
X3016506Y-9914619D01*
X3006982Y-9905095D01*
X2987934Y-9895571D01*
X2949839Y-9895571D01*
X2930792Y-9905095D01*
X2921268Y-9914619D01*
X2911744Y-9933667D01*
X2911744Y-9981286D01*
X2921268Y-10000333D01*
X2930792Y-10009857D01*
X2949839Y-10019381D01*
X2987934Y-10019381D01*
X3006982Y-10009857D01*
X3016506Y-10000333D01*
X3026030Y-9981286D01*
X3197458Y-9962238D02*
X3197458Y-10095571D01*
X3149839Y-9886048D02*
X3102220Y-10028905D01*
X3226030Y-10028905D01*
X3292696Y-9895571D02*
X3292696Y-9933667D01*
X3368887Y-9895571D02*
X3368887Y-9933667D01*
X3664125Y-10171762D02*
X3654601Y-10162238D01*
X3635553Y-10133667D01*
X3626030Y-10114619D01*
X3616506Y-10086048D01*
X3606982Y-10038429D01*
X3606982Y-10000333D01*
X3616506Y-9952714D01*
X3626030Y-9924143D01*
X3635553Y-9905095D01*
X3654601Y-9876524D01*
X3664125Y-9867000D01*
X3826030Y-9895571D02*
X3787934Y-9895571D01*
X3768887Y-9905095D01*
X3759363Y-9914619D01*
X3740315Y-9943190D01*
X3730792Y-9981286D01*
X3730792Y-10057476D01*
X3740315Y-10076524D01*
X3749839Y-10086048D01*
X3768887Y-10095571D01*
X3806982Y-10095571D01*
X3826030Y-10086048D01*
X3835553Y-10076524D01*
X3845077Y-10057476D01*
X3845077Y-10009857D01*
X3835553Y-9990809D01*
X3826030Y-9981286D01*
X3806982Y-9971762D01*
X3768887Y-9971762D01*
X3749839Y-9981286D01*
X3740315Y-9990809D01*
X3730792Y-10009857D01*
X4016506Y-9962238D02*
X4016506Y-10095571D01*
X3968887Y-9886048D02*
X3921268Y-10028905D01*
X4045077Y-10028905D01*
X4273649Y-10095571D02*
X4273649Y-9895571D01*
X4359363Y-10095571D02*
X4359363Y-9990809D01*
X4349839Y-9971762D01*
X4330792Y-9962238D01*
X4302220Y-9962238D01*
X4283173Y-9971762D01*
X4273649Y-9981286D01*
X4483173Y-10095571D02*
X4464125Y-10086048D01*
X4454601Y-10076524D01*
X4445077Y-10057476D01*
X4445077Y-10000333D01*
X4454601Y-9981286D01*
X4464125Y-9971762D01*
X4483173Y-9962238D01*
X4511744Y-9962238D01*
X4530792Y-9971762D01*
X4540315Y-9981286D01*
X4549839Y-10000333D01*
X4549839Y-10057476D01*
X4540315Y-10076524D01*
X4530792Y-10086048D01*
X4511744Y-10095571D01*
X4483173Y-10095571D01*
X4664125Y-10095571D02*
X4645077Y-10086048D01*
X4635554Y-10067000D01*
X4635554Y-9895571D01*
X4816506Y-10086048D02*
X4797458Y-10095571D01*
X4759363Y-10095571D01*
X4740315Y-10086048D01*
X4730792Y-10067000D01*
X4730792Y-9990809D01*
X4740315Y-9971762D01*
X4759363Y-9962238D01*
X4797458Y-9962238D01*
X4816506Y-9971762D01*
X4826030Y-9990809D01*
X4826030Y-10009857D01*
X4730792Y-10028905D01*
X4902220Y-10086048D02*
X4921268Y-10095571D01*
X4959363Y-10095571D01*
X4978411Y-10086048D01*
X4987934Y-10067000D01*
X4987934Y-10057476D01*
X4978411Y-10038429D01*
X4959363Y-10028905D01*
X4930792Y-10028905D01*
X4911744Y-10019381D01*
X4902220Y-10000333D01*
X4902220Y-9990809D01*
X4911744Y-9971762D01*
X4930792Y-9962238D01*
X4959363Y-9962238D01*
X4978411Y-9971762D01*
X5226030Y-10019381D02*
X5378411Y-10019381D01*
X5302220Y-10095571D02*
X5302220Y-9943190D01*
X5606982Y-9895571D02*
X5730792Y-9895571D01*
X5664125Y-9971762D01*
X5692696Y-9971762D01*
X5711744Y-9981286D01*
X5721268Y-9990809D01*
X5730792Y-10009857D01*
X5730792Y-10057476D01*
X5721268Y-10076524D01*
X5711744Y-10086048D01*
X5692696Y-10095571D01*
X5635553Y-10095571D01*
X5616506Y-10086048D01*
X5606982Y-10076524D01*
X5959363Y-10086048D02*
X5978411Y-10095571D01*
X6016506Y-10095571D01*
X6035553Y-10086048D01*
X6045077Y-10067000D01*
X6045077Y-10057476D01*
X6035553Y-10038429D01*
X6016506Y-10028905D01*
X5987934Y-10028905D01*
X5968887Y-10019381D01*
X5959363Y-10000333D01*
X5959363Y-9990809D01*
X5968887Y-9971762D01*
X5987934Y-9962238D01*
X6016506Y-9962238D01*
X6035553Y-9971762D01*
X6159363Y-10095571D02*
X6140315Y-10086048D01*
X6130792Y-10067000D01*
X6130792Y-9895571D01*
X6264125Y-10095571D02*
X6245077Y-10086048D01*
X6235553Y-10076524D01*
X6226030Y-10057476D01*
X6226030Y-10000333D01*
X6235553Y-9981286D01*
X6245077Y-9971762D01*
X6264125Y-9962238D01*
X6292696Y-9962238D01*
X6311744Y-9971762D01*
X6321268Y-9981286D01*
X6330792Y-10000333D01*
X6330792Y-10057476D01*
X6321268Y-10076524D01*
X6311744Y-10086048D01*
X6292696Y-10095571D01*
X6264125Y-10095571D01*
X6387934Y-9962238D02*
X6464125Y-9962238D01*
X6416506Y-9895571D02*
X6416506Y-10067000D01*
X6426030Y-10086048D01*
X6445077Y-10095571D01*
X6464125Y-10095571D01*
X6521268Y-10086048D02*
X6540315Y-10095571D01*
X6578411Y-10095571D01*
X6597458Y-10086048D01*
X6606982Y-10067000D01*
X6606982Y-10057476D01*
X6597458Y-10038429D01*
X6578411Y-10028905D01*
X6549839Y-10028905D01*
X6530792Y-10019381D01*
X6521268Y-10000333D01*
X6521268Y-9990809D01*
X6530792Y-9971762D01*
X6549839Y-9962238D01*
X6578411Y-9962238D01*
X6597458Y-9971762D01*
X6673649Y-10171762D02*
X6683172Y-10162238D01*
X6702220Y-10133667D01*
X6711744Y-10114619D01*
X6721268Y-10086048D01*
X6730792Y-10038429D01*
X6730792Y-10000333D01*
X6721268Y-9952714D01*
X6711744Y-9924143D01*
X6702220Y-9905095D01*
X6683172Y-9876524D01*
X6673649Y-9867000D01*
D15*
X41220Y-10320095D02*
X92220Y-10269095D01*
X41220Y-10218095D01*
X-9780Y-10269095D01*
X41220Y-10320095D01*
D10*
X454601Y-10359571D02*
X340315Y-10359571D01*
X397458Y-10359571D02*
X397458Y-10159571D01*
X378411Y-10188143D01*
X359363Y-10207190D01*
X340315Y-10216714D01*
X540315Y-10340524D02*
X549839Y-10350048D01*
X540315Y-10359571D01*
X530792Y-10350048D01*
X540315Y-10340524D01*
X540315Y-10359571D01*
X673649Y-10159571D02*
X692696Y-10159571D01*
X711744Y-10169095D01*
X721268Y-10178619D01*
X730792Y-10197667D01*
X740315Y-10235762D01*
X740315Y-10283381D01*
X730792Y-10321476D01*
X721268Y-10340524D01*
X711744Y-10350048D01*
X692696Y-10359571D01*
X673649Y-10359571D01*
X654601Y-10350048D01*
X645077Y-10340524D01*
X635554Y-10321476D01*
X626030Y-10283381D01*
X626030Y-10235762D01*
X635554Y-10197667D01*
X645077Y-10178619D01*
X654601Y-10169095D01*
X673649Y-10159571D01*
X816506Y-10178619D02*
X826030Y-10169095D01*
X845077Y-10159571D01*
X892696Y-10159571D01*
X911744Y-10169095D01*
X921268Y-10178619D01*
X930792Y-10197667D01*
X930792Y-10216714D01*
X921268Y-10245286D01*
X806982Y-10359571D01*
X930792Y-10359571D01*
X1054601Y-10159571D02*
X1073649Y-10159571D01*
X1092696Y-10169095D01*
X1102220Y-10178619D01*
X1111744Y-10197667D01*
X1121268Y-10235762D01*
X1121268Y-10283381D01*
X1111744Y-10321476D01*
X1102220Y-10340524D01*
X1092696Y-10350048D01*
X1073649Y-10359571D01*
X1054601Y-10359571D01*
X1035553Y-10350048D01*
X1026030Y-10340524D01*
X1016506Y-10321476D01*
X1006982Y-10283381D01*
X1006982Y-10235762D01*
X1016506Y-10197667D01*
X1026030Y-10178619D01*
X1035553Y-10169095D01*
X1054601Y-10159571D01*
X1206982Y-10359571D02*
X1206982Y-10226238D01*
X1206982Y-10245286D02*
X1216506Y-10235762D01*
X1235554Y-10226238D01*
X1264125Y-10226238D01*
X1283173Y-10235762D01*
X1292696Y-10254809D01*
X1292696Y-10359571D01*
X1292696Y-10254809D02*
X1302220Y-10235762D01*
X1321268Y-10226238D01*
X1349839Y-10226238D01*
X1368887Y-10235762D01*
X1378411Y-10254809D01*
X1378411Y-10359571D01*
X1473649Y-10359571D02*
X1473649Y-10226238D01*
X1473649Y-10245286D02*
X1483172Y-10235762D01*
X1502220Y-10226238D01*
X1530792Y-10226238D01*
X1549839Y-10235762D01*
X1559363Y-10254809D01*
X1559363Y-10359571D01*
X1559363Y-10254809D02*
X1568887Y-10235762D01*
X1587934Y-10226238D01*
X1616506Y-10226238D01*
X1635553Y-10235762D01*
X1645077Y-10254809D01*
X1645077Y-10359571D01*
X2035553Y-10150048D02*
X1864125Y-10407190D01*
X2292696Y-10159571D02*
X2311744Y-10159571D01*
X2330792Y-10169095D01*
X2340315Y-10178619D01*
X2349839Y-10197667D01*
X2359363Y-10235762D01*
X2359363Y-10283381D01*
X2349839Y-10321476D01*
X2340315Y-10340524D01*
X2330792Y-10350048D01*
X2311744Y-10359571D01*
X2292696Y-10359571D01*
X2273649Y-10350048D01*
X2264125Y-10340524D01*
X2254601Y-10321476D01*
X2245077Y-10283381D01*
X2245077Y-10235762D01*
X2254601Y-10197667D01*
X2264125Y-10178619D01*
X2273649Y-10169095D01*
X2292696Y-10159571D01*
X2445077Y-10340524D02*
X2454601Y-10350048D01*
X2445077Y-10359571D01*
X2435554Y-10350048D01*
X2445077Y-10340524D01*
X2445077Y-10359571D01*
X2578411Y-10159571D02*
X2597458Y-10159571D01*
X2616506Y-10169095D01*
X2626030Y-10178619D01*
X2635554Y-10197667D01*
X2645077Y-10235762D01*
X2645077Y-10283381D01*
X2635554Y-10321476D01*
X2626030Y-10340524D01*
X2616506Y-10350048D01*
X2597458Y-10359571D01*
X2578411Y-10359571D01*
X2559363Y-10350048D01*
X2549839Y-10340524D01*
X2540315Y-10321476D01*
X2530792Y-10283381D01*
X2530792Y-10235762D01*
X2540315Y-10197667D01*
X2549839Y-10178619D01*
X2559363Y-10169095D01*
X2578411Y-10159571D01*
X2816506Y-10226238D02*
X2816506Y-10359571D01*
X2768887Y-10150048D02*
X2721268Y-10292905D01*
X2845077Y-10292905D01*
X2959363Y-10159571D02*
X2978411Y-10159571D01*
X2997458Y-10169095D01*
X3006982Y-10178619D01*
X3016506Y-10197667D01*
X3026030Y-10235762D01*
X3026030Y-10283381D01*
X3016506Y-10321476D01*
X3006982Y-10340524D01*
X2997458Y-10350048D01*
X2978411Y-10359571D01*
X2959363Y-10359571D01*
X2940315Y-10350048D01*
X2930792Y-10340524D01*
X2921268Y-10321476D01*
X2911744Y-10283381D01*
X2911744Y-10235762D01*
X2921268Y-10197667D01*
X2930792Y-10178619D01*
X2940315Y-10169095D01*
X2959363Y-10159571D01*
X3102220Y-10178619D02*
X3111744Y-10169095D01*
X3130792Y-10159571D01*
X3178411Y-10159571D01*
X3197458Y-10169095D01*
X3206982Y-10178619D01*
X3216506Y-10197667D01*
X3216506Y-10216714D01*
X3206982Y-10245286D01*
X3092696Y-10359571D01*
X3216506Y-10359571D01*
X3292696Y-10159571D02*
X3292696Y-10197667D01*
X3368887Y-10159571D02*
X3368887Y-10197667D01*
X3664125Y-10435762D02*
X3654601Y-10426238D01*
X3635553Y-10397667D01*
X3626030Y-10378619D01*
X3616506Y-10350048D01*
X3606982Y-10302429D01*
X3606982Y-10264333D01*
X3616506Y-10216714D01*
X3626030Y-10188143D01*
X3635553Y-10169095D01*
X3654601Y-10140524D01*
X3664125Y-10131000D01*
X3826030Y-10226238D02*
X3826030Y-10359571D01*
X3778411Y-10150048D02*
X3730792Y-10292905D01*
X3854601Y-10292905D01*
X4083172Y-10359571D02*
X4083172Y-10159571D01*
X4168887Y-10359571D02*
X4168887Y-10254809D01*
X4159363Y-10235762D01*
X4140315Y-10226238D01*
X4111744Y-10226238D01*
X4092696Y-10235762D01*
X4083172Y-10245286D01*
X4292696Y-10359571D02*
X4273649Y-10350048D01*
X4264125Y-10340524D01*
X4254601Y-10321476D01*
X4254601Y-10264333D01*
X4264125Y-10245286D01*
X4273649Y-10235762D01*
X4292696Y-10226238D01*
X4321268Y-10226238D01*
X4340315Y-10235762D01*
X4349839Y-10245286D01*
X4359363Y-10264333D01*
X4359363Y-10321476D01*
X4349839Y-10340524D01*
X4340315Y-10350048D01*
X4321268Y-10359571D01*
X4292696Y-10359571D01*
X4473649Y-10359571D02*
X4454601Y-10350048D01*
X4445077Y-10331000D01*
X4445077Y-10159571D01*
X4626030Y-10350048D02*
X4606982Y-10359571D01*
X4568887Y-10359571D01*
X4549839Y-10350048D01*
X4540315Y-10331000D01*
X4540315Y-10254809D01*
X4549839Y-10235762D01*
X4568887Y-10226238D01*
X4606982Y-10226238D01*
X4626030Y-10235762D01*
X4635554Y-10254809D01*
X4635554Y-10273857D01*
X4540315Y-10292905D01*
X4711744Y-10350048D02*
X4730792Y-10359571D01*
X4768887Y-10359571D01*
X4787934Y-10350048D01*
X4797458Y-10331000D01*
X4797458Y-10321476D01*
X4787934Y-10302429D01*
X4768887Y-10292905D01*
X4740315Y-10292905D01*
X4721268Y-10283381D01*
X4711744Y-10264333D01*
X4711744Y-10254809D01*
X4721268Y-10235762D01*
X4740315Y-10226238D01*
X4768887Y-10226238D01*
X4787934Y-10235762D01*
X4864125Y-10435762D02*
X4873649Y-10426238D01*
X4892696Y-10397667D01*
X4902220Y-10378619D01*
X4911744Y-10350048D01*
X4921268Y-10302429D01*
X4921268Y-10264333D01*
X4911744Y-10216714D01*
X4902220Y-10188143D01*
X4892696Y-10169095D01*
X4873649Y-10140524D01*
X4864125Y-10131000D01*
X-107780Y-10433095D02*
X92220Y-10633095D01*
X92220Y-10433095D02*
X-107780Y-10633095D01*
X92220Y-10533095D02*
G75*
G03*
X92220Y-10533095I-100000J0D01*
G01*
X435553Y-10423571D02*
X397458Y-10423571D01*
X378411Y-10433095D01*
X368887Y-10442619D01*
X349839Y-10471190D01*
X340315Y-10509286D01*
X340315Y-10585476D01*
X349839Y-10604524D01*
X359363Y-10614048D01*
X378411Y-10623571D01*
X416506Y-10623571D01*
X435553Y-10614048D01*
X445077Y-10604524D01*
X454601Y-10585476D01*
X454601Y-10537857D01*
X445077Y-10518809D01*
X435553Y-10509286D01*
X416506Y-10499762D01*
X378411Y-10499762D01*
X359363Y-10509286D01*
X349839Y-10518809D01*
X340315Y-10537857D01*
X540315Y-10604524D02*
X549839Y-10614048D01*
X540315Y-10623571D01*
X530792Y-10614048D01*
X540315Y-10604524D01*
X540315Y-10623571D01*
X673649Y-10423571D02*
X692696Y-10423571D01*
X711744Y-10433095D01*
X721268Y-10442619D01*
X730792Y-10461667D01*
X740315Y-10499762D01*
X740315Y-10547381D01*
X730792Y-10585476D01*
X721268Y-10604524D01*
X711744Y-10614048D01*
X692696Y-10623571D01*
X673649Y-10623571D01*
X654601Y-10614048D01*
X645077Y-10604524D01*
X635554Y-10585476D01*
X626030Y-10547381D01*
X626030Y-10499762D01*
X635554Y-10461667D01*
X645077Y-10442619D01*
X654601Y-10433095D01*
X673649Y-10423571D01*
X864125Y-10423571D02*
X883172Y-10423571D01*
X902220Y-10433095D01*
X911744Y-10442619D01*
X921268Y-10461667D01*
X930792Y-10499762D01*
X930792Y-10547381D01*
X921268Y-10585476D01*
X911744Y-10604524D01*
X902220Y-10614048D01*
X883172Y-10623571D01*
X864125Y-10623571D01*
X845077Y-10614048D01*
X835553Y-10604524D01*
X826030Y-10585476D01*
X816506Y-10547381D01*
X816506Y-10499762D01*
X826030Y-10461667D01*
X835553Y-10442619D01*
X845077Y-10433095D01*
X864125Y-10423571D01*
X1054601Y-10423571D02*
X1073649Y-10423571D01*
X1092696Y-10433095D01*
X1102220Y-10442619D01*
X1111744Y-10461667D01*
X1121268Y-10499762D01*
X1121268Y-10547381D01*
X1111744Y-10585476D01*
X1102220Y-10604524D01*
X1092696Y-10614048D01*
X1073649Y-10623571D01*
X1054601Y-10623571D01*
X1035553Y-10614048D01*
X1026030Y-10604524D01*
X1016506Y-10585476D01*
X1006982Y-10547381D01*
X1006982Y-10499762D01*
X1016506Y-10461667D01*
X1026030Y-10442619D01*
X1035553Y-10433095D01*
X1054601Y-10423571D01*
X1206982Y-10623571D02*
X1206982Y-10490238D01*
X1206982Y-10509286D02*
X1216506Y-10499762D01*
X1235554Y-10490238D01*
X1264125Y-10490238D01*
X1283173Y-10499762D01*
X1292696Y-10518809D01*
X1292696Y-10623571D01*
X1292696Y-10518809D02*
X1302220Y-10499762D01*
X1321268Y-10490238D01*
X1349839Y-10490238D01*
X1368887Y-10499762D01*
X1378411Y-10518809D01*
X1378411Y-10623571D01*
X1473649Y-10623571D02*
X1473649Y-10490238D01*
X1473649Y-10509286D02*
X1483172Y-10499762D01*
X1502220Y-10490238D01*
X1530792Y-10490238D01*
X1549839Y-10499762D01*
X1559363Y-10518809D01*
X1559363Y-10623571D01*
X1559363Y-10518809D02*
X1568887Y-10499762D01*
X1587934Y-10490238D01*
X1616506Y-10490238D01*
X1635553Y-10499762D01*
X1645077Y-10518809D01*
X1645077Y-10623571D01*
X2035553Y-10414048D02*
X1864125Y-10671190D01*
X2292696Y-10423571D02*
X2311744Y-10423571D01*
X2330792Y-10433095D01*
X2340315Y-10442619D01*
X2349839Y-10461667D01*
X2359363Y-10499762D01*
X2359363Y-10547381D01*
X2349839Y-10585476D01*
X2340315Y-10604524D01*
X2330792Y-10614048D01*
X2311744Y-10623571D01*
X2292696Y-10623571D01*
X2273649Y-10614048D01*
X2264125Y-10604524D01*
X2254601Y-10585476D01*
X2245077Y-10547381D01*
X2245077Y-10499762D01*
X2254601Y-10461667D01*
X2264125Y-10442619D01*
X2273649Y-10433095D01*
X2292696Y-10423571D01*
X2445077Y-10604524D02*
X2454601Y-10614048D01*
X2445077Y-10623571D01*
X2435554Y-10614048D01*
X2445077Y-10604524D01*
X2445077Y-10623571D01*
X2530792Y-10442619D02*
X2540315Y-10433095D01*
X2559363Y-10423571D01*
X2606982Y-10423571D01*
X2626030Y-10433095D01*
X2635554Y-10442619D01*
X2645077Y-10461667D01*
X2645077Y-10480714D01*
X2635554Y-10509286D01*
X2521268Y-10623571D01*
X2645077Y-10623571D01*
X2711744Y-10423571D02*
X2835553Y-10423571D01*
X2768887Y-10499762D01*
X2797458Y-10499762D01*
X2816506Y-10509286D01*
X2826030Y-10518809D01*
X2835553Y-10537857D01*
X2835553Y-10585476D01*
X2826030Y-10604524D01*
X2816506Y-10614048D01*
X2797458Y-10623571D01*
X2740315Y-10623571D01*
X2721268Y-10614048D01*
X2711744Y-10604524D01*
X3006982Y-10423571D02*
X2968887Y-10423571D01*
X2949839Y-10433095D01*
X2940315Y-10442619D01*
X2921268Y-10471190D01*
X2911744Y-10509286D01*
X2911744Y-10585476D01*
X2921268Y-10604524D01*
X2930792Y-10614048D01*
X2949839Y-10623571D01*
X2987934Y-10623571D01*
X3006982Y-10614048D01*
X3016506Y-10604524D01*
X3026030Y-10585476D01*
X3026030Y-10537857D01*
X3016506Y-10518809D01*
X3006982Y-10509286D01*
X2987934Y-10499762D01*
X2949839Y-10499762D01*
X2930792Y-10509286D01*
X2921268Y-10518809D01*
X2911744Y-10537857D01*
X3102220Y-10442619D02*
X3111744Y-10433095D01*
X3130792Y-10423571D01*
X3178411Y-10423571D01*
X3197458Y-10433095D01*
X3206982Y-10442619D01*
X3216506Y-10461667D01*
X3216506Y-10480714D01*
X3206982Y-10509286D01*
X3092696Y-10623571D01*
X3216506Y-10623571D01*
X3292696Y-10423571D02*
X3292696Y-10461667D01*
X3368887Y-10423571D02*
X3368887Y-10461667D01*
X3664125Y-10699762D02*
X3654601Y-10690238D01*
X3635553Y-10661667D01*
X3626030Y-10642619D01*
X3616506Y-10614048D01*
X3606982Y-10566429D01*
X3606982Y-10528333D01*
X3616506Y-10480714D01*
X3626030Y-10452143D01*
X3635553Y-10433095D01*
X3654601Y-10404524D01*
X3664125Y-10395000D01*
X3721268Y-10423571D02*
X3845077Y-10423571D01*
X3778411Y-10499762D01*
X3806982Y-10499762D01*
X3826030Y-10509286D01*
X3835553Y-10518809D01*
X3845077Y-10537857D01*
X3845077Y-10585476D01*
X3835553Y-10604524D01*
X3826030Y-10614048D01*
X3806982Y-10623571D01*
X3749839Y-10623571D01*
X3730792Y-10614048D01*
X3721268Y-10604524D01*
X4083172Y-10623571D02*
X4083172Y-10423571D01*
X4168887Y-10623571D02*
X4168887Y-10518809D01*
X4159363Y-10499762D01*
X4140315Y-10490238D01*
X4111744Y-10490238D01*
X4092696Y-10499762D01*
X4083172Y-10509286D01*
X4292696Y-10623571D02*
X4273649Y-10614048D01*
X4264125Y-10604524D01*
X4254601Y-10585476D01*
X4254601Y-10528333D01*
X4264125Y-10509286D01*
X4273649Y-10499762D01*
X4292696Y-10490238D01*
X4321268Y-10490238D01*
X4340315Y-10499762D01*
X4349839Y-10509286D01*
X4359363Y-10528333D01*
X4359363Y-10585476D01*
X4349839Y-10604524D01*
X4340315Y-10614048D01*
X4321268Y-10623571D01*
X4292696Y-10623571D01*
X4473649Y-10623571D02*
X4454601Y-10614048D01*
X4445077Y-10595000D01*
X4445077Y-10423571D01*
X4626030Y-10614048D02*
X4606982Y-10623571D01*
X4568887Y-10623571D01*
X4549839Y-10614048D01*
X4540315Y-10595000D01*
X4540315Y-10518809D01*
X4549839Y-10499762D01*
X4568887Y-10490238D01*
X4606982Y-10490238D01*
X4626030Y-10499762D01*
X4635554Y-10518809D01*
X4635554Y-10537857D01*
X4540315Y-10556905D01*
X4711744Y-10614048D02*
X4730792Y-10623571D01*
X4768887Y-10623571D01*
X4787934Y-10614048D01*
X4797458Y-10595000D01*
X4797458Y-10585476D01*
X4787934Y-10566429D01*
X4768887Y-10556905D01*
X4740315Y-10556905D01*
X4721268Y-10547381D01*
X4711744Y-10528333D01*
X4711744Y-10518809D01*
X4721268Y-10499762D01*
X4740315Y-10490238D01*
X4768887Y-10490238D01*
X4787934Y-10499762D01*
X4864125Y-10699762D02*
X4873649Y-10690238D01*
X4892696Y-10661667D01*
X4902220Y-10642619D01*
X4911744Y-10614048D01*
X4921268Y-10566429D01*
X4921268Y-10528333D01*
X4911744Y-10480714D01*
X4902220Y-10452143D01*
X4892696Y-10433095D01*
X4873649Y-10404524D01*
X4864125Y-10395000D01*
X-107780Y-10753095D02*
X92220Y-10953095D01*
X92220Y-10753095D02*
X-107780Y-10953095D01*
X-7780Y-10753095D02*
X-7780Y-10953095D01*
X-107780Y-10853095D02*
X92220Y-10853095D01*
X435553Y-10743571D02*
X397458Y-10743571D01*
X378411Y-10753095D01*
X368887Y-10762619D01*
X349839Y-10791190D01*
X340315Y-10829286D01*
X340315Y-10905476D01*
X349839Y-10924524D01*
X359363Y-10934048D01*
X378411Y-10943571D01*
X416506Y-10943571D01*
X435553Y-10934048D01*
X445077Y-10924524D01*
X454601Y-10905476D01*
X454601Y-10857857D01*
X445077Y-10838809D01*
X435553Y-10829286D01*
X416506Y-10819762D01*
X378411Y-10819762D01*
X359363Y-10829286D01*
X349839Y-10838809D01*
X340315Y-10857857D01*
X540315Y-10924524D02*
X549839Y-10934048D01*
X540315Y-10943571D01*
X530792Y-10934048D01*
X540315Y-10924524D01*
X540315Y-10943571D01*
X730792Y-10743571D02*
X635554Y-10743571D01*
X626030Y-10838809D01*
X635554Y-10829286D01*
X654601Y-10819762D01*
X702220Y-10819762D01*
X721268Y-10829286D01*
X730792Y-10838809D01*
X740315Y-10857857D01*
X740315Y-10905476D01*
X730792Y-10924524D01*
X721268Y-10934048D01*
X702220Y-10943571D01*
X654601Y-10943571D01*
X635554Y-10934048D01*
X626030Y-10924524D01*
X864125Y-10743571D02*
X883172Y-10743571D01*
X902220Y-10753095D01*
X911744Y-10762619D01*
X921268Y-10781667D01*
X930792Y-10819762D01*
X930792Y-10867381D01*
X921268Y-10905476D01*
X911744Y-10924524D01*
X902220Y-10934048D01*
X883172Y-10943571D01*
X864125Y-10943571D01*
X845077Y-10934048D01*
X835553Y-10924524D01*
X826030Y-10905476D01*
X816506Y-10867381D01*
X816506Y-10819762D01*
X826030Y-10781667D01*
X835553Y-10762619D01*
X845077Y-10753095D01*
X864125Y-10743571D01*
X1054601Y-10743571D02*
X1073649Y-10743571D01*
X1092696Y-10753095D01*
X1102220Y-10762619D01*
X1111744Y-10781667D01*
X1121268Y-10819762D01*
X1121268Y-10867381D01*
X1111744Y-10905476D01*
X1102220Y-10924524D01*
X1092696Y-10934048D01*
X1073649Y-10943571D01*
X1054601Y-10943571D01*
X1035553Y-10934048D01*
X1026030Y-10924524D01*
X1016506Y-10905476D01*
X1006982Y-10867381D01*
X1006982Y-10819762D01*
X1016506Y-10781667D01*
X1026030Y-10762619D01*
X1035553Y-10753095D01*
X1054601Y-10743571D01*
X1206982Y-10943571D02*
X1206982Y-10810238D01*
X1206982Y-10829286D02*
X1216506Y-10819762D01*
X1235554Y-10810238D01*
X1264125Y-10810238D01*
X1283173Y-10819762D01*
X1292696Y-10838809D01*
X1292696Y-10943571D01*
X1292696Y-10838809D02*
X1302220Y-10819762D01*
X1321268Y-10810238D01*
X1349839Y-10810238D01*
X1368887Y-10819762D01*
X1378411Y-10838809D01*
X1378411Y-10943571D01*
X1473649Y-10943571D02*
X1473649Y-10810238D01*
X1473649Y-10829286D02*
X1483172Y-10819762D01*
X1502220Y-10810238D01*
X1530792Y-10810238D01*
X1549839Y-10819762D01*
X1559363Y-10838809D01*
X1559363Y-10943571D01*
X1559363Y-10838809D02*
X1568887Y-10819762D01*
X1587934Y-10810238D01*
X1616506Y-10810238D01*
X1635553Y-10819762D01*
X1645077Y-10838809D01*
X1645077Y-10943571D01*
X2035553Y-10734048D02*
X1864125Y-10991190D01*
X2292696Y-10743571D02*
X2311744Y-10743571D01*
X2330792Y-10753095D01*
X2340315Y-10762619D01*
X2349839Y-10781667D01*
X2359363Y-10819762D01*
X2359363Y-10867381D01*
X2349839Y-10905476D01*
X2340315Y-10924524D01*
X2330792Y-10934048D01*
X2311744Y-10943571D01*
X2292696Y-10943571D01*
X2273649Y-10934048D01*
X2264125Y-10924524D01*
X2254601Y-10905476D01*
X2245077Y-10867381D01*
X2245077Y-10819762D01*
X2254601Y-10781667D01*
X2264125Y-10762619D01*
X2273649Y-10753095D01*
X2292696Y-10743571D01*
X2445077Y-10924524D02*
X2454601Y-10934048D01*
X2445077Y-10943571D01*
X2435554Y-10934048D01*
X2445077Y-10924524D01*
X2445077Y-10943571D01*
X2530792Y-10762619D02*
X2540315Y-10753095D01*
X2559363Y-10743571D01*
X2606982Y-10743571D01*
X2626030Y-10753095D01*
X2635554Y-10762619D01*
X2645077Y-10781667D01*
X2645077Y-10800714D01*
X2635554Y-10829286D01*
X2521268Y-10943571D01*
X2645077Y-10943571D01*
X2826030Y-10743571D02*
X2730792Y-10743571D01*
X2721268Y-10838809D01*
X2730792Y-10829286D01*
X2749839Y-10819762D01*
X2797458Y-10819762D01*
X2816506Y-10829286D01*
X2826030Y-10838809D01*
X2835553Y-10857857D01*
X2835553Y-10905476D01*
X2826030Y-10924524D01*
X2816506Y-10934048D01*
X2797458Y-10943571D01*
X2749839Y-10943571D01*
X2730792Y-10934048D01*
X2721268Y-10924524D01*
X3016506Y-10743571D02*
X2921268Y-10743571D01*
X2911744Y-10838809D01*
X2921268Y-10829286D01*
X2940315Y-10819762D01*
X2987934Y-10819762D01*
X3006982Y-10829286D01*
X3016506Y-10838809D01*
X3026030Y-10857857D01*
X3026030Y-10905476D01*
X3016506Y-10924524D01*
X3006982Y-10934048D01*
X2987934Y-10943571D01*
X2940315Y-10943571D01*
X2921268Y-10934048D01*
X2911744Y-10924524D01*
X3121268Y-10943571D02*
X3159363Y-10943571D01*
X3178411Y-10934048D01*
X3187934Y-10924524D01*
X3206982Y-10895952D01*
X3216506Y-10857857D01*
X3216506Y-10781667D01*
X3206982Y-10762619D01*
X3197458Y-10753095D01*
X3178411Y-10743571D01*
X3140315Y-10743571D01*
X3121268Y-10753095D01*
X3111744Y-10762619D01*
X3102220Y-10781667D01*
X3102220Y-10829286D01*
X3111744Y-10848333D01*
X3121268Y-10857857D01*
X3140315Y-10867381D01*
X3178411Y-10867381D01*
X3197458Y-10857857D01*
X3206982Y-10848333D01*
X3216506Y-10829286D01*
X3292696Y-10743571D02*
X3292696Y-10781667D01*
X3368887Y-10743571D02*
X3368887Y-10781667D01*
X3664125Y-11019762D02*
X3654601Y-11010238D01*
X3635553Y-10981667D01*
X3626030Y-10962619D01*
X3616506Y-10934048D01*
X3606982Y-10886429D01*
X3606982Y-10848333D01*
X3616506Y-10800714D01*
X3626030Y-10772143D01*
X3635553Y-10753095D01*
X3654601Y-10724524D01*
X3664125Y-10715000D01*
X3845077Y-10943571D02*
X3730792Y-10943571D01*
X3787934Y-10943571D02*
X3787934Y-10743571D01*
X3768887Y-10772143D01*
X3749839Y-10791190D01*
X3730792Y-10800714D01*
X4083172Y-10943571D02*
X4083172Y-10743571D01*
X4168887Y-10943571D02*
X4168887Y-10838809D01*
X4159363Y-10819762D01*
X4140315Y-10810238D01*
X4111744Y-10810238D01*
X4092696Y-10819762D01*
X4083172Y-10829286D01*
X4292696Y-10943571D02*
X4273649Y-10934048D01*
X4264125Y-10924524D01*
X4254601Y-10905476D01*
X4254601Y-10848333D01*
X4264125Y-10829286D01*
X4273649Y-10819762D01*
X4292696Y-10810238D01*
X4321268Y-10810238D01*
X4340315Y-10819762D01*
X4349839Y-10829286D01*
X4359363Y-10848333D01*
X4359363Y-10905476D01*
X4349839Y-10924524D01*
X4340315Y-10934048D01*
X4321268Y-10943571D01*
X4292696Y-10943571D01*
X4473649Y-10943571D02*
X4454601Y-10934048D01*
X4445077Y-10915000D01*
X4445077Y-10743571D01*
X4626030Y-10934048D02*
X4606982Y-10943571D01*
X4568887Y-10943571D01*
X4549839Y-10934048D01*
X4540315Y-10915000D01*
X4540315Y-10838809D01*
X4549839Y-10819762D01*
X4568887Y-10810238D01*
X4606982Y-10810238D01*
X4626030Y-10819762D01*
X4635554Y-10838809D01*
X4635554Y-10857857D01*
X4540315Y-10876905D01*
X4702220Y-11019762D02*
X4711744Y-11010238D01*
X4730792Y-10981667D01*
X4740315Y-10962619D01*
X4749839Y-10934048D01*
X4759363Y-10886429D01*
X4759363Y-10848333D01*
X4749839Y-10800714D01*
X4740315Y-10772143D01*
X4730792Y-10753095D01*
X4711744Y-10724524D01*
X4702220Y-10715000D01*
M02*
