G04 #@! TF.GenerationSoftware,KiCad,Pcbnew,(6.0.7)*
G04 #@! TF.CreationDate,2022-07-29T08:46:11-07:00*
G04 #@! TF.ProjectId,SJ-201-R10,534a2d32-3031-42d5-9231-302e6b696361,rev?*
G04 #@! TF.SameCoordinates,Original*
G04 #@! TF.FileFunction,Paste,Top*
G04 #@! TF.FilePolarity,Positive*
%FSLAX46Y46*%
G04 Gerber Fmt 4.6, Leading zero omitted, Abs format (unit mm)*
G04 Created by KiCad (PCBNEW (6.0.7)) date 2022-07-29 08:46:11*
%MOMM*%
%LPD*%
G01*
G04 APERTURE LIST*
G04 Aperture macros list*
%AMRoundRect*
0 Rectangle with rounded corners*
0 $1 Rounding radius*
0 $2 $3 $4 $5 $6 $7 $8 $9 X,Y pos of 4 corners*
0 Add a 4 corners polygon primitive as box body*
4,1,4,$2,$3,$4,$5,$6,$7,$8,$9,$2,$3,0*
0 Add four circle primitives for the rounded corners*
1,1,$1+$1,$2,$3*
1,1,$1+$1,$4,$5*
1,1,$1+$1,$6,$7*
1,1,$1+$1,$8,$9*
0 Add four rect primitives between the rounded corners*
20,1,$1+$1,$2,$3,$4,$5,0*
20,1,$1+$1,$4,$5,$6,$7,0*
20,1,$1+$1,$6,$7,$8,$9,0*
20,1,$1+$1,$8,$9,$2,$3,0*%
%AMRotRect*
0 Rectangle, with rotation*
0 The origin of the aperture is its center*
0 $1 length*
0 $2 width*
0 $3 Rotation angle, in degrees counterclockwise*
0 Add horizontal line*
21,1,$1,$2,0,0,$3*%
G04 Aperture macros list end*
%ADD10C,0.152400*%
%ADD11RoundRect,0.147500X0.172500X-0.147500X0.172500X0.147500X-0.172500X0.147500X-0.172500X-0.147500X0*%
%ADD12RoundRect,0.147500X-0.147500X-0.172500X0.147500X-0.172500X0.147500X0.172500X-0.147500X0.172500X0*%
%ADD13R,0.900000X0.800000*%
%ADD14RoundRect,0.147500X-0.172500X0.147500X-0.172500X-0.147500X0.172500X-0.147500X0.172500X0.147500X0*%
%ADD15R,5.000000X4.500000*%
%ADD16R,1.500000X3.600000*%
%ADD17R,0.800000X0.900000*%
%ADD18RoundRect,0.147500X0.147500X0.172500X-0.147500X0.172500X-0.147500X-0.172500X0.147500X-0.172500X0*%
%ADD19RoundRect,0.147500X-0.017678X0.226274X-0.226274X0.017678X0.017678X-0.226274X0.226274X-0.017678X0*%
%ADD20RoundRect,0.147500X-0.226274X-0.017678X-0.017678X-0.226274X0.226274X0.017678X0.017678X0.226274X0*%
%ADD21R,0.500000X0.500000*%
%ADD22RoundRect,0.147500X0.017678X-0.226274X0.226274X-0.017678X-0.017678X0.226274X-0.226274X0.017678X0*%
%ADD23R,5.250000X4.550000*%
%ADD24R,1.100000X4.600000*%
%ADD25RoundRect,0.250000X-1.000000X1.750000X-1.000000X-1.750000X1.000000X-1.750000X1.000000X1.750000X0*%
%ADD26RoundRect,0.147500X0.226274X0.017678X0.017678X0.226274X-0.226274X-0.017678X-0.017678X-0.226274X0*%
%ADD27R,2.500000X1.800000*%
%ADD28RoundRect,0.250000X-1.000000X1.950000X-1.000000X-1.950000X1.000000X-1.950000X1.000000X1.950000X0*%
%ADD29RoundRect,0.100000X-0.637500X-0.100000X0.637500X-0.100000X0.637500X0.100000X-0.637500X0.100000X0*%
%ADD30RoundRect,0.218750X0.256250X-0.218750X0.256250X0.218750X-0.256250X0.218750X-0.256250X-0.218750X0*%
%ADD31R,1.200000X0.900000*%
%ADD32RotRect,1.100000X0.900000X45.000000*%
%ADD33RoundRect,0.250000X1.450000X-0.312500X1.450000X0.312500X-1.450000X0.312500X-1.450000X-0.312500X0*%
%ADD34R,0.650000X1.220000*%
%ADD35RoundRect,0.218750X-0.218750X-0.256250X0.218750X-0.256250X0.218750X0.256250X-0.218750X0.256250X0*%
%ADD36RoundRect,0.243750X0.243750X0.456250X-0.243750X0.456250X-0.243750X-0.456250X0.243750X-0.456250X0*%
%ADD37RoundRect,0.218750X-0.256250X0.218750X-0.256250X-0.218750X0.256250X-0.218750X0.256250X0.218750X0*%
%ADD38R,2.000000X1.500000*%
%ADD39R,2.000000X3.800000*%
%ADD40R,1.400000X0.299999*%
%ADD41R,3.600000X9.700001*%
%ADD42RoundRect,0.250000X-0.625000X0.375000X-0.625000X-0.375000X0.625000X-0.375000X0.625000X0.375000X0*%
%ADD43RoundRect,0.218750X0.218750X0.256250X-0.218750X0.256250X-0.218750X-0.256250X0.218750X-0.256250X0*%
%ADD44RoundRect,0.135000X0.135000X0.185000X-0.135000X0.185000X-0.135000X-0.185000X0.135000X-0.185000X0*%
%ADD45RoundRect,0.249999X0.388910X0.000000X0.000000X0.388910X-0.388910X0.000000X0.000000X-0.388910X0*%
%ADD46RoundRect,0.050000X0.291682X-0.220971X-0.220971X0.291682X-0.291682X0.220971X0.220971X-0.291682X0*%
%ADD47RoundRect,0.050000X0.220971X0.291682X-0.291682X-0.220971X-0.220971X-0.291682X0.291682X0.220971X0*%
%ADD48RoundRect,0.050000X0.291682X0.220971X0.220971X0.291682X-0.291682X-0.220971X-0.220971X-0.291682X0*%
%ADD49RoundRect,0.050000X-0.220971X0.291682X-0.291682X0.220971X0.220971X-0.291682X0.291682X-0.220971X0*%
%ADD50RoundRect,0.050000X-0.291682X0.220971X0.220971X-0.291682X0.291682X-0.220971X-0.220971X0.291682X0*%
%ADD51RoundRect,0.200000X0.200000X0.275000X-0.200000X0.275000X-0.200000X-0.275000X0.200000X-0.275000X0*%
%ADD52RoundRect,0.135000X0.185000X-0.135000X0.185000X0.135000X-0.185000X0.135000X-0.185000X-0.135000X0*%
%ADD53RoundRect,0.200000X0.275000X-0.200000X0.275000X0.200000X-0.275000X0.200000X-0.275000X-0.200000X0*%
%ADD54RoundRect,0.140000X-0.170000X0.140000X-0.170000X-0.140000X0.170000X-0.140000X0.170000X0.140000X0*%
%ADD55R,0.600000X0.450000*%
%ADD56R,2.500000X2.300000*%
%ADD57RoundRect,0.140000X-0.140000X-0.170000X0.140000X-0.170000X0.140000X0.170000X-0.140000X0.170000X0*%
%ADD58RoundRect,0.140000X0.170000X-0.140000X0.170000X0.140000X-0.170000X0.140000X-0.170000X-0.140000X0*%
%ADD59RoundRect,0.200000X-0.275000X0.200000X-0.275000X-0.200000X0.275000X-0.200000X0.275000X0.200000X0*%
%ADD60R,2.300000X2.500000*%
G04 APERTURE END LIST*
D10*
G04 #@! TO.C,U3*
X12684447Y-35309812D02*
X12691968Y-35313830D01*
X9818631Y-35325832D02*
X9824041Y-35319240D01*
X12711300Y-35350000D02*
X12711300Y-39963000D01*
X9846314Y-40005665D02*
X9838153Y-40003188D01*
X12710464Y-39971486D02*
X12707987Y-39979648D01*
X9812136Y-35341514D02*
X9814613Y-35333352D01*
X12698559Y-39993760D02*
X12691968Y-39999170D01*
X9824041Y-35319240D02*
X9830632Y-35313830D01*
X9811300Y-39963000D02*
X9811300Y-35350000D01*
X9846314Y-35307335D02*
X9854800Y-35306500D01*
X12703969Y-35325832D02*
X12707987Y-35333352D01*
X12707987Y-39979648D02*
X12703969Y-39987168D01*
X9814613Y-35333352D02*
X9818631Y-35325832D01*
X12698559Y-35319240D02*
X12703969Y-35325832D01*
X12710464Y-35341514D02*
X12711300Y-35350000D01*
X12676286Y-35307335D02*
X12684447Y-35309812D01*
X12703969Y-39987168D02*
X12698559Y-39993760D01*
X9838153Y-40003188D02*
X9830632Y-39999170D01*
X12707987Y-35333352D02*
X12710464Y-35341514D01*
X12691968Y-35313830D02*
X12698559Y-35319240D01*
X12667800Y-35306500D02*
X12676286Y-35307335D01*
X12684447Y-40003188D02*
X12676286Y-40005665D01*
X9814613Y-39979648D02*
X9812136Y-39971486D01*
X9854800Y-40006500D02*
X9846314Y-40005665D01*
X9830632Y-39999170D02*
X9824041Y-39993760D01*
X9824041Y-39993760D02*
X9818631Y-39987168D01*
X9854800Y-35306500D02*
X12667800Y-35306500D01*
X9812136Y-39971486D02*
X9811300Y-39963000D01*
X9830632Y-35313830D02*
X9838153Y-35309812D01*
X12676286Y-40005665D02*
X12667800Y-40006500D01*
X9811300Y-35350000D02*
X9812136Y-35341514D01*
X9818631Y-39987168D02*
X9814613Y-39979648D01*
X12691968Y-39999170D02*
X12684447Y-40003188D01*
X9838153Y-35309812D02*
X9846314Y-35307335D01*
X12667800Y-40006500D02*
X9854800Y-40006500D01*
X12711300Y-39963000D02*
X12710464Y-39971486D01*
G04 #@! TD*
D11*
G04 #@! TO.C,R16*
X52070000Y-67541000D03*
X52070000Y-66571000D03*
G04 #@! TD*
G04 #@! TO.C,R33*
X45021500Y-67541000D03*
X45021500Y-66571000D03*
G04 #@! TD*
D12*
G04 #@! TO.C,R20*
X25423000Y-8306840D03*
X26393000Y-8306840D03*
G04 #@! TD*
G04 #@! TO.C,R25*
X25423000Y-9398000D03*
X26393000Y-9398000D03*
G04 #@! TD*
D13*
G04 #@! TO.C,Q3*
X55388000Y-2352000D03*
X55388000Y-4252000D03*
X57388000Y-3302000D03*
G04 #@! TD*
D14*
G04 #@! TO.C,R22*
X31750000Y-66317000D03*
X31750000Y-67287000D03*
G04 #@! TD*
D15*
G04 #@! TO.C,L1*
X53340000Y-38184000D03*
X53340000Y-48684000D03*
G04 #@! TD*
D14*
G04 #@! TO.C,R42*
X49530000Y-66571000D03*
X49530000Y-67541000D03*
G04 #@! TD*
G04 #@! TO.C,R38*
X21590000Y-63269000D03*
X21590000Y-64239000D03*
G04 #@! TD*
D16*
G04 #@! TO.C,L2*
X52267940Y-60109820D03*
X49217940Y-60109820D03*
G04 #@! TD*
D17*
G04 #@! TO.C,Q1*
X24590000Y-4712000D03*
X26490000Y-4712000D03*
X25540000Y-2712000D03*
G04 #@! TD*
D18*
G04 #@! TO.C,R2*
X25709380Y-6316140D03*
X24739380Y-6316140D03*
G04 #@! TD*
D12*
G04 #@! TO.C,R18*
X25423000Y-1270000D03*
X26393000Y-1270000D03*
G04 #@! TD*
D19*
G04 #@! TO.C,R32*
X25234947Y-59855053D03*
X24549053Y-60540947D03*
G04 #@! TD*
D20*
G04 #@! TO.C,C40*
X29883053Y-59347053D03*
X30568947Y-60032947D03*
G04 #@! TD*
D18*
G04 #@! TO.C,R27*
X55730000Y-762000D03*
X54760000Y-762000D03*
G04 #@! TD*
D14*
G04 #@! TO.C,C8*
X38700000Y-19965000D03*
X38700000Y-20935000D03*
G04 #@! TD*
D21*
G04 #@! TO.C,D1*
X55796000Y-32512000D03*
X57996000Y-32512000D03*
G04 #@! TD*
D12*
G04 #@! TO.C,C28*
X56411000Y-34290000D03*
X57381000Y-34290000D03*
G04 #@! TD*
D19*
G04 #@! TO.C,R41*
X34290000Y-55118000D03*
X33604106Y-55803894D03*
G04 #@! TD*
D22*
G04 #@! TO.C,C35*
X31153053Y-50380947D03*
X31838947Y-49695053D03*
G04 #@! TD*
G04 #@! TO.C,R34*
X32804053Y-45681947D03*
X33489947Y-44996053D03*
G04 #@! TD*
D14*
G04 #@! TO.C,R8*
X37450000Y-19965000D03*
X37450000Y-20935000D03*
G04 #@! TD*
D11*
G04 #@! TO.C,R39*
X13884000Y-50385000D03*
X13884000Y-49415000D03*
G04 #@! TD*
G04 #@! TO.C,C3*
X36000000Y-20935000D03*
X36000000Y-19965000D03*
G04 #@! TD*
D23*
G04 #@! TO.C,U1*
X37103000Y-31430000D03*
X42653000Y-31430000D03*
X37103000Y-36280000D03*
X42653000Y-36280000D03*
D24*
X43278000Y-24705000D03*
X41578000Y-24705000D03*
X39878000Y-24705000D03*
X38178000Y-24705000D03*
X36478000Y-24705000D03*
G04 #@! TD*
D25*
G04 #@! TO.C,C1*
X53086000Y-21400000D03*
X53086000Y-29400000D03*
G04 #@! TD*
D14*
G04 #@! TO.C,R40*
X15084000Y-49415000D03*
X15084000Y-50385000D03*
G04 #@! TD*
D26*
G04 #@! TO.C,C41*
X23456947Y-50634947D03*
X22771053Y-49949053D03*
G04 #@! TD*
D11*
G04 #@! TO.C,C63*
X62800000Y-6185000D03*
X62800000Y-5215000D03*
G04 #@! TD*
D20*
G04 #@! TO.C,C48*
X31153053Y-58077053D03*
X31838947Y-58762947D03*
G04 #@! TD*
D22*
G04 #@! TO.C,C42*
X29375053Y-49110947D03*
X30060947Y-48425053D03*
G04 #@! TD*
D20*
G04 #@! TO.C,C46*
X31915053Y-57315053D03*
X32600947Y-58000947D03*
G04 #@! TD*
D27*
G04 #@! TO.C,D14*
X40000000Y-16575000D03*
X44000000Y-16575000D03*
G04 #@! TD*
D12*
G04 #@! TO.C,C43*
X38859600Y-54102000D03*
X39829600Y-54102000D03*
G04 #@! TD*
D22*
G04 #@! TO.C,C44*
X31915053Y-51142947D03*
X32600947Y-50457053D03*
G04 #@! TD*
D19*
G04 #@! TO.C,C45*
X21170947Y-58839053D03*
X20485053Y-59524947D03*
G04 #@! TD*
D26*
G04 #@! TO.C,C53*
X28028947Y-47840947D03*
X27343053Y-47155053D03*
G04 #@! TD*
D19*
G04 #@! TO.C,C50*
X23710947Y-58585053D03*
X23025053Y-59270947D03*
G04 #@! TD*
D14*
G04 #@! TO.C,C4*
X60477400Y-31265000D03*
X60477400Y-32235000D03*
G04 #@! TD*
D12*
G04 #@! TO.C,C55*
X35837000Y-12446000D03*
X36807000Y-12446000D03*
G04 #@! TD*
D18*
G04 #@! TO.C,C57*
X35283000Y-16256000D03*
X34313000Y-16256000D03*
G04 #@! TD*
D26*
G04 #@! TO.C,C49*
X22186947Y-51904947D03*
X21501053Y-51219053D03*
G04 #@! TD*
G04 #@! TO.C,C47*
X24980947Y-49110947D03*
X24295053Y-48425053D03*
G04 #@! TD*
D11*
G04 #@! TO.C,C51*
X11887200Y-67947400D03*
X11887200Y-66977400D03*
G04 #@! TD*
D19*
G04 #@! TO.C,C52*
X20916947Y-55537053D03*
X20231053Y-56222947D03*
G04 #@! TD*
D14*
G04 #@! TO.C,R1*
X43861000Y-19504200D03*
X43861000Y-20474200D03*
G04 #@! TD*
D28*
G04 #@! TO.C,C6*
X66598800Y-48243000D03*
X66598800Y-55643000D03*
G04 #@! TD*
D29*
G04 #@! TO.C,U5*
X12371500Y-52400000D03*
X12371500Y-53050000D03*
X12371500Y-53700000D03*
X12371500Y-54350000D03*
X12371500Y-55000000D03*
X12371500Y-55650000D03*
X12371500Y-56300000D03*
X18096500Y-56300000D03*
X18096500Y-55650000D03*
X18096500Y-55000000D03*
X18096500Y-54350000D03*
X18096500Y-53700000D03*
X18096500Y-53050000D03*
X18096500Y-52400000D03*
G04 #@! TD*
D30*
G04 #@! TO.C,R24*
X18100000Y-59787500D03*
X18100000Y-58212500D03*
G04 #@! TD*
D14*
G04 #@! TO.C,C7*
X53928100Y-62219000D03*
X53928100Y-63189000D03*
G04 #@! TD*
G04 #@! TO.C,R4*
X55704000Y-63619000D03*
X55704000Y-64589000D03*
G04 #@! TD*
G04 #@! TO.C,C5*
X57479020Y-56284720D03*
X57479020Y-57254720D03*
G04 #@! TD*
D31*
G04 #@! TO.C,D15*
X54941560Y-57632320D03*
X54941560Y-54332320D03*
G04 #@! TD*
D32*
G04 #@! TO.C,X1*
X25766579Y-64052660D03*
X26968660Y-62850579D03*
X26049421Y-61931340D03*
X24847340Y-63133421D03*
G04 #@! TD*
D33*
G04 #@! TO.C,FB8*
X60200000Y-6537500D03*
X60200000Y-2262500D03*
G04 #@! TD*
D28*
G04 #@! TO.C,C64*
X51562000Y-7730000D03*
X51562000Y-15130000D03*
G04 #@! TD*
D22*
G04 #@! TO.C,R5*
X33566053Y-46443947D03*
X34251947Y-45758053D03*
G04 #@! TD*
D34*
G04 #@! TO.C,U7*
X55386020Y-62042120D03*
X56336020Y-62042120D03*
X57286020Y-62042120D03*
X57286020Y-59422120D03*
X56336020Y-59422120D03*
X55386020Y-59422120D03*
G04 #@! TD*
D35*
G04 #@! TO.C,C37*
X49488080Y-56685900D03*
X51063080Y-56685900D03*
G04 #@! TD*
D11*
G04 #@! TO.C,R3*
X56904000Y-64589000D03*
X56904000Y-63619000D03*
G04 #@! TD*
D36*
G04 #@! TO.C,FB5*
X35989500Y-14478000D03*
X34114500Y-14478000D03*
G04 #@! TD*
D37*
G04 #@! TO.C,C17*
X3692500Y-34382700D03*
X3692500Y-35957700D03*
G04 #@! TD*
G04 #@! TO.C,C20*
X1990700Y-34382700D03*
X1990700Y-35957700D03*
G04 #@! TD*
D35*
G04 #@! TO.C,C19*
X2015900Y-32731800D03*
X3590900Y-32731800D03*
G04 #@! TD*
D37*
G04 #@! TO.C,R19*
X39300000Y-65712500D03*
X39300000Y-67287500D03*
G04 #@! TD*
D14*
G04 #@! TO.C,C62*
X12811000Y-24499800D03*
X12811000Y-25469800D03*
G04 #@! TD*
D38*
G04 #@! TO.C,U4*
X30525500Y-37830500D03*
D39*
X24225500Y-35530500D03*
D38*
X30525500Y-35530500D03*
X30525500Y-33230500D03*
G04 #@! TD*
D14*
G04 #@! TO.C,R6*
X6361300Y-37171500D03*
X6361300Y-38141500D03*
G04 #@! TD*
D40*
G04 #@! TO.C,U3*
X8311301Y-33156499D03*
X8311301Y-33656498D03*
X8311301Y-34156499D03*
X8311301Y-34656498D03*
X8311301Y-35156500D03*
X8311301Y-35656499D03*
X8311301Y-36156498D03*
X8311301Y-36656499D03*
X8311301Y-37156498D03*
X8311301Y-37656500D03*
X8311301Y-38156499D03*
X8311301Y-38656498D03*
X8311301Y-39156500D03*
X8311301Y-39656499D03*
X8311301Y-40156500D03*
X8311301Y-40656499D03*
X8311301Y-41156498D03*
X8311301Y-41656500D03*
X8311301Y-42156499D03*
X14211302Y-42156499D03*
X14211302Y-41656500D03*
X14211302Y-41156498D03*
X14211302Y-40656499D03*
X14211302Y-40156500D03*
X14211302Y-39656499D03*
X14211302Y-39156500D03*
X14211302Y-38656498D03*
X14211302Y-38156499D03*
X14211302Y-37656500D03*
X14211302Y-37156498D03*
X14211302Y-36656499D03*
X14211302Y-36156498D03*
X14211302Y-35656499D03*
X14211302Y-35156500D03*
X14211302Y-34656498D03*
X14211302Y-34156499D03*
X14211302Y-33656498D03*
X14211302Y-33156499D03*
D41*
X11261300Y-37656500D03*
G04 #@! TD*
D14*
G04 #@! TO.C,C10*
X4211300Y-37171500D03*
X4211300Y-38141500D03*
G04 #@! TD*
G04 #@! TO.C,C61*
X5334000Y-42263200D03*
X5334000Y-43233200D03*
G04 #@! TD*
D35*
G04 #@! TO.C,C60*
X25112500Y-31000000D03*
X26687500Y-31000000D03*
G04 #@! TD*
D12*
G04 #@! TO.C,R50*
X18085680Y-41945920D03*
X19055680Y-41945920D03*
G04 #@! TD*
D18*
G04 #@! TO.C,C59*
X30520499Y-31178500D03*
X29550499Y-31178500D03*
G04 #@! TD*
D42*
G04 #@! TO.C,FB4*
X14538200Y-24931000D03*
X14538200Y-27731000D03*
G04 #@! TD*
G04 #@! TO.C,FB3*
X17840200Y-24931000D03*
X17840200Y-27731000D03*
G04 #@! TD*
D14*
G04 #@! TO.C,C11*
X5281300Y-37166500D03*
X5281300Y-38136500D03*
G04 #@! TD*
D35*
G04 #@! TO.C,C23*
X13801500Y-31309400D03*
X15376500Y-31309400D03*
G04 #@! TD*
D12*
G04 #@! TO.C,C16*
X3736300Y-39751500D03*
X4706300Y-39751500D03*
G04 #@! TD*
D35*
G04 #@! TO.C,C26*
X17154300Y-29645700D03*
X18729300Y-29645700D03*
G04 #@! TD*
D37*
G04 #@! TO.C,C14*
X20896300Y-34382700D03*
X20896300Y-35957700D03*
G04 #@! TD*
D14*
G04 #@! TO.C,C39*
X19592800Y-24499800D03*
X19592800Y-25469800D03*
G04 #@! TD*
D35*
G04 #@! TO.C,C18*
X19273400Y-32675700D03*
X20848400Y-32675700D03*
G04 #@! TD*
D11*
G04 #@! TO.C,C24*
X19114100Y-40746900D03*
X19114100Y-39776900D03*
G04 #@! TD*
G04 #@! TO.C,C21*
X17082100Y-40723900D03*
X17082100Y-39753900D03*
G04 #@! TD*
D14*
G04 #@! TO.C,C12*
X6454000Y-42268200D03*
X6454000Y-43238200D03*
G04 #@! TD*
D37*
G04 #@! TO.C,C13*
X19071300Y-34382700D03*
X19071300Y-35957700D03*
G04 #@! TD*
D18*
G04 #@! TO.C,C15*
X17782400Y-36957000D03*
X16812400Y-36957000D03*
G04 #@! TD*
D42*
G04 #@! TO.C,FB1*
X4581400Y-24931000D03*
X4581400Y-27731000D03*
G04 #@! TD*
G04 #@! TO.C,FB2*
X7946900Y-24931000D03*
X7946900Y-27731000D03*
G04 #@! TD*
D14*
G04 #@! TO.C,C27*
X2854200Y-24626800D03*
X2854200Y-25596800D03*
G04 #@! TD*
D43*
G04 #@! TO.C,C25*
X5241900Y-29645700D03*
X3666900Y-29645700D03*
G04 #@! TD*
G04 #@! TO.C,C22*
X8467700Y-31309400D03*
X6892700Y-31309400D03*
G04 #@! TD*
D14*
G04 #@! TO.C,C38*
X9788400Y-24626800D03*
X9788400Y-25596800D03*
G04 #@! TD*
D11*
G04 #@! TO.C,R65*
X17750000Y-67687000D03*
X17750000Y-66717000D03*
G04 #@! TD*
D44*
G04 #@! TO.C,R10*
X18594800Y-47548800D03*
X17574800Y-47548800D03*
G04 #@! TD*
D19*
G04 #@! TO.C,C36*
X22186947Y-56807053D03*
X21501053Y-57492947D03*
G04 #@! TD*
D45*
G04 #@! TO.C,U8*
X29016478Y-53436761D03*
X27178000Y-51598284D03*
X29935716Y-54356000D03*
X24420284Y-54356000D03*
X29016478Y-55275239D03*
X25339522Y-55275239D03*
X27178000Y-53436761D03*
X26258761Y-54356000D03*
X26258761Y-52517522D03*
X27178000Y-57113716D03*
X25339522Y-53436761D03*
X28097239Y-54356000D03*
X28097239Y-52517522D03*
X27178000Y-55275239D03*
X28097239Y-56194478D03*
X26258761Y-56194478D03*
D46*
X27672975Y-58810773D03*
X27955817Y-58527930D03*
X28238660Y-58245087D03*
X28521503Y-57962245D03*
X28804346Y-57679402D03*
X29087188Y-57396559D03*
X29370031Y-57113716D03*
X29652874Y-56830874D03*
X29935716Y-56548031D03*
X30218559Y-56265188D03*
X30501402Y-55982346D03*
X30784245Y-55699503D03*
X31067087Y-55416660D03*
X31349930Y-55133817D03*
X31632773Y-54850975D03*
D47*
X31632773Y-53861025D03*
X31349930Y-53578183D03*
D48*
X31067087Y-53295340D03*
X30784245Y-53012497D03*
X30501402Y-52729654D03*
X30218559Y-52446812D03*
X29935716Y-52163969D03*
X29652874Y-51881126D03*
X29370031Y-51598284D03*
X29087188Y-51315441D03*
X28804346Y-51032598D03*
X28521503Y-50749755D03*
X28238660Y-50466913D03*
X27955817Y-50184070D03*
X27672975Y-49901227D03*
D49*
X26683025Y-49901227D03*
X26400183Y-50184070D03*
X26117340Y-50466913D03*
X25834497Y-50749755D03*
D46*
X25551654Y-51032598D03*
X25268812Y-51315441D03*
X24985969Y-51598284D03*
X24703126Y-51881126D03*
X24420284Y-52163969D03*
X24137441Y-52446812D03*
X23854598Y-52729654D03*
X23571755Y-53012497D03*
X23288913Y-53295340D03*
X23006070Y-53578183D03*
D50*
X22723227Y-53861025D03*
D47*
X22723227Y-54850975D03*
X23006070Y-55133817D03*
X23288913Y-55416660D03*
X23571755Y-55699503D03*
X23854598Y-55982346D03*
X24137441Y-56265188D03*
D48*
X24420284Y-56548031D03*
X24703126Y-56830874D03*
X24985969Y-57113716D03*
X25268812Y-57396559D03*
X25551654Y-57679402D03*
X25834497Y-57962245D03*
X26117340Y-58245087D03*
X26400183Y-58527930D03*
X26683025Y-58810773D03*
G04 #@! TD*
D51*
G04 #@! TO.C,R21*
X47325000Y-52600000D03*
X45675000Y-52600000D03*
G04 #@! TD*
D52*
G04 #@! TO.C,R9*
X14500000Y-63810000D03*
X14500000Y-62790000D03*
G04 #@! TD*
G04 #@! TO.C,R14*
X27000000Y-67710000D03*
X27000000Y-66690000D03*
G04 #@! TD*
D53*
G04 #@! TO.C,R11*
X20900000Y-67425000D03*
X20900000Y-65775000D03*
G04 #@! TD*
D54*
G04 #@! TO.C,C65*
X35001200Y-65966400D03*
X35001200Y-66926400D03*
G04 #@! TD*
D55*
G04 #@! TO.C,D19*
X46050000Y-46600000D03*
X43950000Y-46600000D03*
G04 #@! TD*
D56*
G04 #@! TO.C,D20*
X39650000Y-11000000D03*
X43950000Y-11000000D03*
G04 #@! TD*
D57*
G04 #@! TO.C,C32*
X20551200Y-46685200D03*
X21511200Y-46685200D03*
G04 #@! TD*
D52*
G04 #@! TO.C,R12*
X19600000Y-67220000D03*
X19600000Y-66200000D03*
G04 #@! TD*
D58*
G04 #@! TO.C,C2*
X22936200Y-3604200D03*
X22936200Y-2644200D03*
G04 #@! TD*
D59*
G04 #@! TO.C,R64*
X14478000Y-66485000D03*
X14478000Y-68135000D03*
G04 #@! TD*
D54*
G04 #@! TO.C,C29*
X4318000Y-52352000D03*
X4318000Y-53312000D03*
G04 #@! TD*
D60*
G04 #@! TO.C,D16*
X60000000Y-9050000D03*
X60000000Y-13350000D03*
G04 #@! TD*
D52*
G04 #@! TO.C,R15*
X29300000Y-67220000D03*
X29300000Y-66200000D03*
G04 #@! TD*
D57*
G04 #@! TO.C,C33*
X26291600Y-28600400D03*
X27251600Y-28600400D03*
G04 #@! TD*
D52*
G04 #@! TO.C,R7*
X13300000Y-63810000D03*
X13300000Y-62790000D03*
G04 #@! TD*
M02*
