G04 #@! TF.GenerationSoftware,KiCad,Pcbnew,(6.0.7)*
G04 #@! TF.CreationDate,2022-07-29T08:46:12-07:00*
G04 #@! TF.ProjectId,SJ-201-R10,534a2d32-3031-42d5-9231-302e6b696361,rev?*
G04 #@! TF.SameCoordinates,Original*
G04 #@! TF.FileFunction,Other,User*
%FSLAX46Y46*%
G04 Gerber Fmt 4.6, Leading zero omitted, Abs format (unit mm)*
G04 Created by KiCad (PCBNEW (6.0.7)) date 2022-07-29 08:46:12*
%MOMM*%
%LPD*%
G01*
G04 APERTURE LIST*
%ADD10C,0.050000*%
G04 APERTURE END LIST*
D10*
G04 #@! TO.C,J7*
X41670000Y-1406000D02*
X41670000Y-8406000D01*
X41670000Y-1406000D02*
X30570000Y-1406000D01*
X30570000Y-8406000D02*
X30570000Y-1406000D01*
X30570000Y-8406000D02*
X41670000Y-8406000D01*
G04 #@! TO.C,R16*
X52540000Y-66126000D02*
X52540000Y-67986000D01*
X51600000Y-66126000D02*
X52540000Y-66126000D01*
X51600000Y-67986000D02*
X51600000Y-66126000D01*
X52540000Y-67986000D02*
X51600000Y-67986000D01*
G04 #@! TO.C,R33*
X45491500Y-67986000D02*
X44551500Y-67986000D01*
X45491500Y-66126000D02*
X45491500Y-67986000D01*
X44551500Y-66126000D02*
X45491500Y-66126000D01*
X44551500Y-67986000D02*
X44551500Y-66126000D01*
G04 #@! TO.C,R20*
X24978000Y-7836840D02*
X26838000Y-7836840D01*
X26838000Y-8776840D02*
X24978000Y-8776840D01*
X24978000Y-8776840D02*
X24978000Y-7836840D01*
X26838000Y-7836840D02*
X26838000Y-8776840D01*
G04 #@! TO.C,TP4*
X46923200Y-63754000D02*
G75*
G03*
X46923200Y-63754000I-1000000J0D01*
G01*
G04 #@! TO.C,R25*
X26838000Y-8928000D02*
X26838000Y-9868000D01*
X26838000Y-9868000D02*
X24978000Y-9868000D01*
X24978000Y-9868000D02*
X24978000Y-8928000D01*
X24978000Y-8928000D02*
X26838000Y-8928000D01*
G04 #@! TO.C,Q3*
X54688000Y-1552000D02*
X58088000Y-1552000D01*
X58088000Y-1552000D02*
X58088000Y-5052000D01*
X54688000Y-5052000D02*
X54688000Y-1552000D01*
X58088000Y-5052000D02*
X54688000Y-5052000D01*
G04 #@! TO.C,R22*
X31280000Y-65872000D02*
X32220000Y-65872000D01*
X32220000Y-67732000D02*
X31280000Y-67732000D01*
X32220000Y-65872000D02*
X32220000Y-67732000D01*
X31280000Y-67732000D02*
X31280000Y-65872000D01*
G04 #@! TO.C,L1*
X46640000Y-51234000D02*
X60040000Y-51234000D01*
X60040000Y-51234000D02*
X60040000Y-35634000D01*
X46640000Y-35634000D02*
X46640000Y-51234000D01*
X60040000Y-35634000D02*
X46640000Y-35634000D01*
G04 #@! TO.C,R42*
X49060000Y-67986000D02*
X49060000Y-66126000D01*
X50000000Y-67986000D02*
X49060000Y-67986000D01*
X50000000Y-66126000D02*
X50000000Y-67986000D01*
X49060000Y-66126000D02*
X50000000Y-66126000D01*
G04 #@! TO.C,J5*
X66112800Y-29452000D02*
X62512800Y-29452000D01*
X62512800Y-40652000D02*
X66112800Y-40652000D01*
X62512800Y-29452000D02*
X62512800Y-40652000D01*
X66112800Y-40652000D02*
X66112800Y-29452000D01*
G04 #@! TO.C,J1*
X70710000Y-4876000D02*
X79710000Y-4876000D01*
X64710000Y-7626000D02*
X64710000Y-4876000D01*
X64710000Y-14126000D02*
X64710000Y-14376000D01*
X64710000Y-11626000D02*
X63710000Y-11626000D01*
X66710000Y-4876000D02*
X66710000Y-2876000D01*
X64710000Y-4876000D02*
X66710000Y-4876000D01*
X70710000Y-2876000D02*
X70710000Y-4876000D01*
X66710000Y-2876000D02*
X70710000Y-2876000D01*
X64710000Y-14376000D02*
X79710000Y-14376000D01*
X64710000Y-14126000D02*
X64710000Y-11626000D01*
X79710000Y-4876000D02*
X79710000Y-14376000D01*
X63710000Y-7626000D02*
X64710000Y-7626000D01*
X63710000Y-11626000D02*
X63710000Y-7626000D01*
G04 #@! TO.C,J3*
X1385400Y-23848600D02*
X8285400Y-23848600D01*
X1385400Y-18348600D02*
X1385400Y-23848600D01*
X8285400Y-23848600D02*
X8285400Y-18348600D01*
X8285400Y-18348600D02*
X1385400Y-18348600D01*
G04 #@! TO.C,J4*
X13983800Y-17256400D02*
X13983800Y-22756400D01*
X13983800Y-22756400D02*
X20883800Y-22756400D01*
X20883800Y-22756400D02*
X20883800Y-17256400D01*
X20883800Y-17256400D02*
X13983800Y-17256400D01*
G04 #@! TO.C,R38*
X22060000Y-64684000D02*
X21120000Y-64684000D01*
X21120000Y-64684000D02*
X21120000Y-62824000D01*
X21120000Y-62824000D02*
X22060000Y-62824000D01*
X22060000Y-62824000D02*
X22060000Y-64684000D01*
G04 #@! TO.C,L2*
X53272940Y-62359820D02*
X48212940Y-62359820D01*
X53272940Y-62359820D02*
X53272940Y-57859820D01*
X48212940Y-62359820D02*
X48212940Y-57859820D01*
X53272940Y-57859820D02*
X48212940Y-57859820D01*
G04 #@! TO.C,Q1*
X23790000Y-5412000D02*
X23790000Y-2012000D01*
X27290000Y-5412000D02*
X23790000Y-5412000D01*
X23790000Y-2012000D02*
X27290000Y-2012000D01*
X27290000Y-2012000D02*
X27290000Y-5412000D01*
G04 #@! TO.C,R2*
X24294380Y-6786140D02*
X24294380Y-5846140D01*
X26154380Y-6786140D02*
X24294380Y-6786140D01*
X24294380Y-5846140D02*
X26154380Y-5846140D01*
X26154380Y-5846140D02*
X26154380Y-6786140D01*
G04 #@! TO.C,R18*
X24978000Y-800000D02*
X26838000Y-800000D01*
X26838000Y-800000D02*
X26838000Y-1740000D01*
X26838000Y-1740000D02*
X24978000Y-1740000D01*
X24978000Y-1740000D02*
X24978000Y-800000D01*
G04 #@! TO.C,R32*
X23902051Y-60523269D02*
X25217269Y-59208051D01*
X24566731Y-61187949D02*
X23902051Y-60523269D01*
X25217269Y-59208051D02*
X25881949Y-59872731D01*
X25881949Y-59872731D02*
X24566731Y-61187949D01*
G04 #@! TO.C,C40*
X30551269Y-60679949D02*
X29236051Y-59364731D01*
X31215949Y-60015269D02*
X30551269Y-60679949D01*
X29900731Y-58700051D02*
X31215949Y-60015269D01*
X29236051Y-59364731D02*
X29900731Y-58700051D01*
G04 #@! TO.C,R27*
X56175000Y-1232000D02*
X54315000Y-1232000D01*
X56175000Y-292000D02*
X56175000Y-1232000D01*
X54315000Y-292000D02*
X56175000Y-292000D01*
X54315000Y-1232000D02*
X54315000Y-292000D01*
G04 #@! TO.C,C8*
X38230000Y-19520000D02*
X39170000Y-19520000D01*
X39170000Y-21380000D02*
X38230000Y-21380000D01*
X38230000Y-21380000D02*
X38230000Y-19520000D01*
X39170000Y-19520000D02*
X39170000Y-21380000D01*
G04 #@! TO.C,D1*
X55296000Y-33462000D02*
X58496000Y-33462000D01*
X55296000Y-31562000D02*
X55296000Y-33462000D01*
X58496000Y-31562000D02*
X58496000Y-33462000D01*
X55296000Y-31562000D02*
X58496000Y-31562000D01*
G04 #@! TO.C,C28*
X57826000Y-34760000D02*
X55966000Y-34760000D01*
X57826000Y-33820000D02*
X57826000Y-34760000D01*
X55966000Y-33820000D02*
X57826000Y-33820000D01*
X55966000Y-34760000D02*
X55966000Y-33820000D01*
G04 #@! TO.C,R41*
X34937002Y-55135678D02*
X33621784Y-56450896D01*
X33621784Y-56450896D02*
X32957104Y-55786216D01*
X32957104Y-55786216D02*
X34272322Y-54470998D01*
X34272322Y-54470998D02*
X34937002Y-55135678D01*
G04 #@! TO.C,C35*
X32485949Y-49712731D02*
X31170731Y-51027949D01*
X31821269Y-49048051D02*
X32485949Y-49712731D01*
X31170731Y-51027949D02*
X30506051Y-50363269D01*
X30506051Y-50363269D02*
X31821269Y-49048051D01*
G04 #@! TO.C,R34*
X33472269Y-44349051D02*
X34136949Y-45013731D01*
X32157051Y-45664269D02*
X33472269Y-44349051D01*
X32821731Y-46328949D02*
X32157051Y-45664269D01*
X34136949Y-45013731D02*
X32821731Y-46328949D01*
G04 #@! TO.C,R8*
X36980000Y-19520000D02*
X37920000Y-19520000D01*
X37920000Y-19520000D02*
X37920000Y-21380000D01*
X36980000Y-21380000D02*
X36980000Y-19520000D01*
X37920000Y-21380000D02*
X36980000Y-21380000D01*
G04 #@! TO.C,R39*
X14354000Y-50830000D02*
X13414000Y-50830000D01*
X13414000Y-48970000D02*
X14354000Y-48970000D01*
X13414000Y-50830000D02*
X13414000Y-48970000D01*
X14354000Y-48970000D02*
X14354000Y-50830000D01*
G04 #@! TO.C,C3*
X36470000Y-19520000D02*
X36470000Y-21380000D01*
X35530000Y-19520000D02*
X36470000Y-19520000D01*
X36470000Y-21380000D02*
X35530000Y-21380000D01*
X35530000Y-21380000D02*
X35530000Y-19520000D01*
G04 #@! TO.C,U1*
X34228000Y-22160000D02*
X34228000Y-38800000D01*
X34228000Y-38800000D02*
X45528000Y-38800000D01*
X45528000Y-22160000D02*
X34228000Y-22160000D01*
X45528000Y-38800000D02*
X45528000Y-22160000D01*
G04 #@! TO.C,C1*
X54586000Y-19150000D02*
X51586000Y-19150000D01*
X51586000Y-19150000D02*
X51586000Y-20000000D01*
X51586000Y-30800000D02*
X47686000Y-30800000D01*
X57336000Y-20000000D02*
X58486000Y-21150000D01*
X48836000Y-20000000D02*
X47686000Y-21150000D01*
X47686000Y-21150000D02*
X47686000Y-30800000D01*
X54586000Y-20000000D02*
X54586000Y-19150000D01*
X58486000Y-21150000D02*
X58486000Y-30800000D01*
X57336000Y-20000000D02*
X54586000Y-20000000D01*
X51586000Y-31650000D02*
X51586000Y-30800000D01*
X51586000Y-20000000D02*
X48836000Y-20000000D01*
X54586000Y-31650000D02*
X51586000Y-31650000D01*
X58486000Y-30800000D02*
X54586000Y-30800000D01*
X54586000Y-30800000D02*
X54586000Y-31650000D01*
G04 #@! TO.C,R40*
X14614000Y-50830000D02*
X14614000Y-48970000D01*
X15554000Y-50830000D02*
X14614000Y-50830000D01*
X14614000Y-48970000D02*
X15554000Y-48970000D01*
X15554000Y-48970000D02*
X15554000Y-50830000D01*
G04 #@! TO.C,C41*
X24103949Y-50617269D02*
X23439269Y-51281949D01*
X22788731Y-49302051D02*
X24103949Y-50617269D01*
X23439269Y-51281949D02*
X22124051Y-49966731D01*
X22124051Y-49966731D02*
X22788731Y-49302051D01*
G04 #@! TO.C,C63*
X62330000Y-6630000D02*
X62330000Y-4770000D01*
X63270000Y-4770000D02*
X63270000Y-6630000D01*
X62330000Y-4770000D02*
X63270000Y-4770000D01*
X63270000Y-6630000D02*
X62330000Y-6630000D01*
G04 #@! TO.C,C48*
X32485949Y-58745269D02*
X31821269Y-59409949D01*
X30506051Y-58094731D02*
X31170731Y-57430051D01*
X31821269Y-59409949D02*
X30506051Y-58094731D01*
X31170731Y-57430051D02*
X32485949Y-58745269D01*
G04 #@! TO.C,C42*
X30043269Y-47778051D02*
X30707949Y-48442731D01*
X29392731Y-49757949D02*
X28728051Y-49093269D01*
X30707949Y-48442731D02*
X29392731Y-49757949D01*
X28728051Y-49093269D02*
X30043269Y-47778051D01*
G04 #@! TO.C,C46*
X31932731Y-56668051D02*
X33247949Y-57983269D01*
X31268051Y-57332731D02*
X31932731Y-56668051D01*
X32583269Y-58647949D02*
X31268051Y-57332731D01*
X33247949Y-57983269D02*
X32583269Y-58647949D01*
G04 #@! TO.C,D14*
X38500000Y-18325000D02*
X38500000Y-14825000D01*
X38500000Y-14825000D02*
X45500000Y-14825000D01*
X45500000Y-18325000D02*
X38500000Y-18325000D01*
X45500000Y-14825000D02*
X45500000Y-18325000D01*
G04 #@! TO.C,C43*
X40274600Y-53632000D02*
X40274600Y-54572000D01*
X38414600Y-53632000D02*
X40274600Y-53632000D01*
X40274600Y-54572000D02*
X38414600Y-54572000D01*
X38414600Y-54572000D02*
X38414600Y-53632000D01*
G04 #@! TO.C,C44*
X31268051Y-51125269D02*
X32583269Y-49810051D01*
X32583269Y-49810051D02*
X33247949Y-50474731D01*
X31932731Y-51789949D02*
X31268051Y-51125269D01*
X33247949Y-50474731D02*
X31932731Y-51789949D01*
G04 #@! TO.C,C45*
X19838051Y-59507269D02*
X21153269Y-58192051D01*
X20502731Y-60171949D02*
X19838051Y-59507269D01*
X21817949Y-58856731D02*
X20502731Y-60171949D01*
X21153269Y-58192051D02*
X21817949Y-58856731D01*
G04 #@! TO.C,C53*
X26696051Y-47172731D02*
X27360731Y-46508051D01*
X27360731Y-46508051D02*
X28675949Y-47823269D01*
X28011269Y-48487949D02*
X26696051Y-47172731D01*
X28675949Y-47823269D02*
X28011269Y-48487949D01*
G04 #@! TO.C,C50*
X23042731Y-59917949D02*
X22378051Y-59253269D01*
X23693269Y-57938051D02*
X24357949Y-58602731D01*
X24357949Y-58602731D02*
X23042731Y-59917949D01*
X22378051Y-59253269D02*
X23693269Y-57938051D01*
G04 #@! TO.C,C4*
X60007400Y-32680000D02*
X60007400Y-30820000D01*
X60947400Y-32680000D02*
X60007400Y-32680000D01*
X60007400Y-30820000D02*
X60947400Y-30820000D01*
X60947400Y-30820000D02*
X60947400Y-32680000D01*
G04 #@! TO.C,C55*
X37252000Y-12916000D02*
X35392000Y-12916000D01*
X35392000Y-12916000D02*
X35392000Y-11976000D01*
X37252000Y-11976000D02*
X37252000Y-12916000D01*
X35392000Y-11976000D02*
X37252000Y-11976000D01*
G04 #@! TO.C,C57*
X33868000Y-15786000D02*
X35728000Y-15786000D01*
X35728000Y-15786000D02*
X35728000Y-16726000D01*
X35728000Y-16726000D02*
X33868000Y-16726000D01*
X33868000Y-16726000D02*
X33868000Y-15786000D01*
G04 #@! TO.C,C49*
X22169269Y-52551949D02*
X20854051Y-51236731D01*
X22833949Y-51887269D02*
X22169269Y-52551949D01*
X20854051Y-51236731D02*
X21518731Y-50572051D01*
X21518731Y-50572051D02*
X22833949Y-51887269D01*
G04 #@! TO.C,C47*
X23648051Y-48442731D02*
X24312731Y-47778051D01*
X24312731Y-47778051D02*
X25627949Y-49093269D01*
X25627949Y-49093269D02*
X24963269Y-49757949D01*
X24963269Y-49757949D02*
X23648051Y-48442731D01*
G04 #@! TO.C,C51*
X12357200Y-66532400D02*
X12357200Y-68392400D01*
X11417200Y-68392400D02*
X11417200Y-66532400D01*
X12357200Y-68392400D02*
X11417200Y-68392400D01*
X11417200Y-66532400D02*
X12357200Y-66532400D01*
G04 #@! TO.C,C52*
X20248731Y-56869949D02*
X19584051Y-56205269D01*
X21563949Y-55554731D02*
X20248731Y-56869949D01*
X20899269Y-54890051D02*
X21563949Y-55554731D01*
X19584051Y-56205269D02*
X20899269Y-54890051D01*
G04 #@! TO.C,R1*
X44331000Y-20919200D02*
X43391000Y-20919200D01*
X44331000Y-19059200D02*
X44331000Y-20919200D01*
X43391000Y-20919200D02*
X43391000Y-19059200D01*
X43391000Y-19059200D02*
X44331000Y-19059200D01*
G04 #@! TO.C,H3*
X11214300Y-5637800D02*
G75*
G03*
X11214300Y-5637800I-4200000J0D01*
G01*
G04 #@! TO.C,C6*
X63248800Y-47443000D02*
X62098800Y-48593000D01*
X69948800Y-47443000D02*
X71098800Y-48593000D01*
X68098800Y-47443000D02*
X68098800Y-45793000D01*
X62098800Y-48593000D02*
X62098800Y-56443000D01*
X65098800Y-58093000D02*
X65098800Y-56443000D01*
X69948800Y-47443000D02*
X68098800Y-47443000D01*
X65098800Y-45793000D02*
X65098800Y-47443000D01*
X68098800Y-45793000D02*
X65098800Y-45793000D01*
X68098800Y-56443000D02*
X68098800Y-58093000D01*
X65098800Y-56443000D02*
X62098800Y-56443000D01*
X71098800Y-56443000D02*
X68098800Y-56443000D01*
X65098800Y-47443000D02*
X63248800Y-47443000D01*
X71098800Y-48593000D02*
X71098800Y-56443000D01*
X68098800Y-58093000D02*
X65098800Y-58093000D01*
G04 #@! TO.C,U5*
X11384000Y-57100000D02*
X19084000Y-57100000D01*
X19084000Y-51600000D02*
X11384000Y-51600000D01*
X19084000Y-57100000D02*
X19084000Y-51600000D01*
X11384000Y-51600000D02*
X11384000Y-57100000D01*
G04 #@! TO.C,R24*
X18830000Y-57520000D02*
X18830000Y-60480000D01*
X17370000Y-60480000D02*
X17370000Y-57520000D01*
X17370000Y-57520000D02*
X18830000Y-57520000D01*
X18830000Y-60480000D02*
X17370000Y-60480000D01*
G04 #@! TO.C,TP18*
X71358000Y-81026000D02*
G75*
G03*
X71358000Y-81026000I-1000000J0D01*
G01*
G04 #@! TO.C,C7*
X53458100Y-61774000D02*
X54398100Y-61774000D01*
X54398100Y-61774000D02*
X54398100Y-63634000D01*
X54398100Y-63634000D02*
X53458100Y-63634000D01*
X53458100Y-63634000D02*
X53458100Y-61774000D01*
G04 #@! TO.C,R4*
X56174000Y-63174000D02*
X56174000Y-65034000D01*
X55234000Y-65034000D02*
X55234000Y-63174000D01*
X56174000Y-65034000D02*
X55234000Y-65034000D01*
X55234000Y-63174000D02*
X56174000Y-63174000D01*
G04 #@! TO.C,C5*
X57949020Y-57699720D02*
X57009020Y-57699720D01*
X57009020Y-57699720D02*
X57009020Y-55839720D01*
X57949020Y-55839720D02*
X57949020Y-57699720D01*
X57009020Y-55839720D02*
X57949020Y-55839720D01*
G04 #@! TO.C,D15*
X53791560Y-58332320D02*
X56091560Y-58332320D01*
X53791560Y-53632320D02*
X56091560Y-53632320D01*
X56091560Y-53632320D02*
X56091560Y-58332320D01*
X53791560Y-58332320D02*
X53791560Y-53632320D01*
G04 #@! TO.C,J6*
X1802000Y-83796000D02*
X53602000Y-83796000D01*
X53602000Y-68946000D02*
X1802000Y-68946000D01*
X53602000Y-83796000D02*
X53602000Y-68946000D01*
X1802000Y-68946000D02*
X1802000Y-83796000D01*
G04 #@! TO.C,X1*
X25695868Y-65184031D02*
X28100031Y-62779868D01*
X23715969Y-63204132D02*
X25695868Y-65184031D01*
X28100031Y-62779868D02*
X26120132Y-60799969D01*
X26120132Y-60799969D02*
X23715969Y-63204132D01*
G04 #@! TO.C,FB8*
X62150000Y-7350000D02*
X58250000Y-7350000D01*
X58250000Y-1450000D02*
X62150000Y-1450000D01*
X58250000Y-7350000D02*
X58250000Y-1450000D01*
X62150000Y-1450000D02*
X62150000Y-7350000D01*
G04 #@! TO.C,C64*
X56062000Y-8080000D02*
X56062000Y-15930000D01*
X50062000Y-15930000D02*
X47062000Y-15930000D01*
X54912000Y-6930000D02*
X53062000Y-6930000D01*
X56062000Y-15930000D02*
X53062000Y-15930000D01*
X47062000Y-8080000D02*
X47062000Y-15930000D01*
X54912000Y-6930000D02*
X56062000Y-8080000D01*
X53062000Y-17580000D02*
X50062000Y-17580000D01*
X53062000Y-15930000D02*
X53062000Y-17580000D01*
X53062000Y-6930000D02*
X53062000Y-5280000D01*
X50062000Y-6930000D02*
X48212000Y-6930000D01*
X50062000Y-17580000D02*
X50062000Y-15930000D01*
X50062000Y-5280000D02*
X50062000Y-6930000D01*
X48212000Y-6930000D02*
X47062000Y-8080000D01*
X53062000Y-5280000D02*
X50062000Y-5280000D01*
G04 #@! TO.C,H4*
X11214300Y-63626000D02*
G75*
G03*
X11214300Y-63626000I-4200000J0D01*
G01*
G04 #@! TO.C,R5*
X34898949Y-45775731D02*
X33583731Y-47090949D01*
X33583731Y-47090949D02*
X32919051Y-46426269D01*
X34234269Y-45111051D02*
X34898949Y-45775731D01*
X32919051Y-46426269D02*
X34234269Y-45111051D01*
G04 #@! TO.C,U7*
X58036020Y-58562120D02*
X54636020Y-58562120D01*
X58036020Y-58562120D02*
X58036020Y-62902120D01*
X54636020Y-62902120D02*
X54636020Y-58562120D01*
X54636020Y-62902120D02*
X58036020Y-62902120D01*
G04 #@! TO.C,C37*
X48795580Y-55955900D02*
X51755580Y-55955900D01*
X51755580Y-57415900D02*
X48795580Y-57415900D01*
X51755580Y-55955900D02*
X51755580Y-57415900D01*
X48795580Y-57415900D02*
X48795580Y-55955900D01*
G04 #@! TO.C,H1*
X71221800Y-20623800D02*
G75*
G03*
X71221800Y-20623800I-4200000J0D01*
G01*
G04 #@! TO.C,R3*
X56434000Y-65034000D02*
X56434000Y-63174000D01*
X57374000Y-65034000D02*
X56434000Y-65034000D01*
X57374000Y-63174000D02*
X57374000Y-65034000D01*
X56434000Y-63174000D02*
X57374000Y-63174000D01*
G04 #@! TO.C,H2*
X71134500Y-63638700D02*
G75*
G03*
X71134500Y-63638700I-4100000J0D01*
G01*
G04 #@! TO.C,FB5*
X36732000Y-15428000D02*
X33372000Y-15428000D01*
X33372000Y-15428000D02*
X33372000Y-13528000D01*
X33372000Y-13528000D02*
X36732000Y-13528000D01*
X36732000Y-13528000D02*
X36732000Y-15428000D01*
G04 #@! TO.C,C17*
X2962500Y-33690200D02*
X4422500Y-33690200D01*
X4422500Y-36650200D02*
X2962500Y-36650200D01*
X2962500Y-36650200D02*
X2962500Y-33690200D01*
X4422500Y-33690200D02*
X4422500Y-36650200D01*
G04 #@! TO.C,C20*
X2720700Y-36650200D02*
X1260700Y-36650200D01*
X1260700Y-33690200D02*
X2720700Y-33690200D01*
X2720700Y-33690200D02*
X2720700Y-36650200D01*
X1260700Y-36650200D02*
X1260700Y-33690200D01*
G04 #@! TO.C,C19*
X4283400Y-32001800D02*
X4283400Y-33461800D01*
X1323400Y-33461800D02*
X1323400Y-32001800D01*
X4283400Y-33461800D02*
X1323400Y-33461800D01*
X1323400Y-32001800D02*
X4283400Y-32001800D01*
G04 #@! TO.C,R19*
X40030000Y-65020000D02*
X40030000Y-67980000D01*
X40030000Y-67980000D02*
X38570000Y-67980000D01*
X38570000Y-65020000D02*
X40030000Y-65020000D01*
X38570000Y-67980000D02*
X38570000Y-65020000D01*
G04 #@! TO.C,C62*
X12341000Y-25914800D02*
X12341000Y-24054800D01*
X12341000Y-24054800D02*
X13281000Y-24054800D01*
X13281000Y-25914800D02*
X12341000Y-25914800D01*
X13281000Y-24054800D02*
X13281000Y-25914800D01*
G04 #@! TO.C,U4*
X22975500Y-39130500D02*
X31775500Y-39130500D01*
X31775500Y-39130500D02*
X31775500Y-31930500D01*
X22975500Y-31930500D02*
X22975500Y-39130500D01*
X31775500Y-31930500D02*
X22975500Y-31930500D01*
G04 #@! TO.C,R6*
X6831300Y-36726500D02*
X6831300Y-38586500D01*
X5891300Y-38586500D02*
X5891300Y-36726500D01*
X6831300Y-38586500D02*
X5891300Y-38586500D01*
X5891300Y-36726500D02*
X6831300Y-36726500D01*
G04 #@! TO.C,C10*
X3741300Y-36726500D02*
X4681300Y-36726500D01*
X4681300Y-36726500D02*
X4681300Y-38586500D01*
X4681300Y-38586500D02*
X3741300Y-38586500D01*
X3741300Y-38586500D02*
X3741300Y-36726500D01*
G04 #@! TO.C,C61*
X4864000Y-43678200D02*
X4864000Y-41818200D01*
X4864000Y-41818200D02*
X5804000Y-41818200D01*
X5804000Y-41818200D02*
X5804000Y-43678200D01*
X5804000Y-43678200D02*
X4864000Y-43678200D01*
G04 #@! TO.C,C60*
X24420000Y-31730000D02*
X24420000Y-30270000D01*
X24420000Y-30270000D02*
X27380000Y-30270000D01*
X27380000Y-31730000D02*
X24420000Y-31730000D01*
X27380000Y-30270000D02*
X27380000Y-31730000D01*
G04 #@! TO.C,R50*
X19500680Y-41475920D02*
X19500680Y-42415920D01*
X19500680Y-42415920D02*
X17640680Y-42415920D01*
X17640680Y-41475920D02*
X19500680Y-41475920D01*
X17640680Y-42415920D02*
X17640680Y-41475920D01*
G04 #@! TO.C,C59*
X30965499Y-30708500D02*
X30965499Y-31648500D01*
X29105499Y-30708500D02*
X30965499Y-30708500D01*
X29105499Y-31648500D02*
X29105499Y-30708500D01*
X30965499Y-31648500D02*
X29105499Y-31648500D01*
G04 #@! TO.C,FB4*
X15658200Y-24051000D02*
X15658200Y-28611000D01*
X15658200Y-28611000D02*
X13418200Y-28611000D01*
X13418200Y-28611000D02*
X13418200Y-24051000D01*
X13418200Y-24051000D02*
X15658200Y-24051000D01*
G04 #@! TO.C,FB3*
X16720200Y-24051000D02*
X18960200Y-24051000D01*
X18960200Y-24051000D02*
X18960200Y-28611000D01*
X16720200Y-28611000D02*
X16720200Y-24051000D01*
X18960200Y-28611000D02*
X16720200Y-28611000D01*
G04 #@! TO.C,C11*
X5751300Y-38581500D02*
X4811300Y-38581500D01*
X4811300Y-38581500D02*
X4811300Y-36721500D01*
X4811300Y-36721500D02*
X5751300Y-36721500D01*
X5751300Y-36721500D02*
X5751300Y-38581500D01*
G04 #@! TO.C,C23*
X16069000Y-30579400D02*
X16069000Y-32039400D01*
X13109000Y-32039400D02*
X13109000Y-30579400D01*
X16069000Y-32039400D02*
X13109000Y-32039400D01*
X13109000Y-30579400D02*
X16069000Y-30579400D01*
G04 #@! TO.C,C16*
X3291300Y-39281500D02*
X5151300Y-39281500D01*
X3291300Y-40221500D02*
X3291300Y-39281500D01*
X5151300Y-40221500D02*
X3291300Y-40221500D01*
X5151300Y-39281500D02*
X5151300Y-40221500D01*
G04 #@! TO.C,C26*
X19421800Y-30375700D02*
X16461800Y-30375700D01*
X16461800Y-28915700D02*
X19421800Y-28915700D01*
X19421800Y-28915700D02*
X19421800Y-30375700D01*
X16461800Y-30375700D02*
X16461800Y-28915700D01*
G04 #@! TO.C,C14*
X20166300Y-33690200D02*
X21626300Y-33690200D01*
X20166300Y-36650200D02*
X20166300Y-33690200D01*
X21626300Y-33690200D02*
X21626300Y-36650200D01*
X21626300Y-36650200D02*
X20166300Y-36650200D01*
G04 #@! TO.C,C39*
X19122800Y-24054800D02*
X20062800Y-24054800D01*
X20062800Y-24054800D02*
X20062800Y-25914800D01*
X20062800Y-25914800D02*
X19122800Y-25914800D01*
X19122800Y-25914800D02*
X19122800Y-24054800D01*
G04 #@! TO.C,C18*
X21540900Y-31945700D02*
X21540900Y-33405700D01*
X18580900Y-31945700D02*
X21540900Y-31945700D01*
X21540900Y-33405700D02*
X18580900Y-33405700D01*
X18580900Y-33405700D02*
X18580900Y-31945700D01*
G04 #@! TO.C,C24*
X18644100Y-41191900D02*
X18644100Y-39331900D01*
X18644100Y-39331900D02*
X19584100Y-39331900D01*
X19584100Y-39331900D02*
X19584100Y-41191900D01*
X19584100Y-41191900D02*
X18644100Y-41191900D01*
G04 #@! TO.C,C21*
X17552100Y-41168900D02*
X16612100Y-41168900D01*
X16612100Y-41168900D02*
X16612100Y-39308900D01*
X17552100Y-39308900D02*
X17552100Y-41168900D01*
X16612100Y-39308900D02*
X17552100Y-39308900D01*
G04 #@! TO.C,C12*
X5984000Y-41823200D02*
X6924000Y-41823200D01*
X5984000Y-43683200D02*
X5984000Y-41823200D01*
X6924000Y-43683200D02*
X5984000Y-43683200D01*
X6924000Y-41823200D02*
X6924000Y-43683200D01*
G04 #@! TO.C,C13*
X18341300Y-33690200D02*
X19801300Y-33690200D01*
X18341300Y-36650200D02*
X18341300Y-33690200D01*
X19801300Y-36650200D02*
X18341300Y-36650200D01*
X19801300Y-33690200D02*
X19801300Y-36650200D01*
G04 #@! TO.C,C15*
X16367400Y-36487000D02*
X18227400Y-36487000D01*
X16367400Y-37427000D02*
X16367400Y-36487000D01*
X18227400Y-36487000D02*
X18227400Y-37427000D01*
X18227400Y-37427000D02*
X16367400Y-37427000D01*
G04 #@! TO.C,FB1*
X3461400Y-24051000D02*
X5701400Y-24051000D01*
X5701400Y-28611000D02*
X3461400Y-28611000D01*
X5701400Y-24051000D02*
X5701400Y-28611000D01*
X3461400Y-28611000D02*
X3461400Y-24051000D01*
G04 #@! TO.C,FB2*
X9066900Y-24051000D02*
X9066900Y-28611000D01*
X9066900Y-28611000D02*
X6826900Y-28611000D01*
X6826900Y-28611000D02*
X6826900Y-24051000D01*
X6826900Y-24051000D02*
X9066900Y-24051000D01*
G04 #@! TO.C,C27*
X3324200Y-26041800D02*
X2384200Y-26041800D01*
X3324200Y-24181800D02*
X3324200Y-26041800D01*
X2384200Y-26041800D02*
X2384200Y-24181800D01*
X2384200Y-24181800D02*
X3324200Y-24181800D01*
G04 #@! TO.C,C25*
X2974400Y-28915700D02*
X5934400Y-28915700D01*
X5934400Y-30375700D02*
X2974400Y-30375700D01*
X2974400Y-30375700D02*
X2974400Y-28915700D01*
X5934400Y-28915700D02*
X5934400Y-30375700D01*
G04 #@! TO.C,C22*
X6200200Y-30579400D02*
X9160200Y-30579400D01*
X9160200Y-32039400D02*
X6200200Y-32039400D01*
X9160200Y-30579400D02*
X9160200Y-32039400D01*
X6200200Y-32039400D02*
X6200200Y-30579400D01*
G04 #@! TO.C,C38*
X10258400Y-24181800D02*
X10258400Y-26041800D01*
X9318400Y-24181800D02*
X10258400Y-24181800D01*
X10258400Y-26041800D02*
X9318400Y-26041800D01*
X9318400Y-26041800D02*
X9318400Y-24181800D01*
G04 #@! TO.C,R65*
X17280000Y-68132000D02*
X17280000Y-66272000D01*
X18220000Y-66272000D02*
X18220000Y-68132000D01*
X17280000Y-66272000D02*
X18220000Y-66272000D01*
X18220000Y-68132000D02*
X17280000Y-68132000D01*
G04 #@! TO.C,TP29*
X8789800Y-52857400D02*
G75*
G03*
X8789800Y-52857400I-1500000J0D01*
G01*
G04 #@! TO.C,TP30*
X25000000Y-67400000D02*
G75*
G03*
X25000000Y-67400000I-1500000J0D01*
G01*
G04 #@! TO.C,TP31*
X44807000Y-52578000D02*
G75*
G03*
X44807000Y-52578000I-1500000J0D01*
G01*
G04 #@! TO.C,TP32*
X19457800Y-11531600D02*
G75*
G03*
X19457800Y-11531600I-1500000J0D01*
G01*
G04 #@! TO.C,TP33*
X28254200Y-40208200D02*
G75*
G03*
X28254200Y-40208200I-1000000J0D01*
G01*
G04 #@! TO.C,TP34*
X21878800Y-39420800D02*
G75*
G03*
X21878800Y-39420800I-1000000J0D01*
G01*
G04 #@! TO.C,TP3*
X42986200Y-43789600D02*
G75*
G03*
X42986200Y-43789600I-1000000J0D01*
G01*
G04 #@! TO.C,TP8*
X45386500Y-3619500D02*
G75*
G03*
X45386500Y-3619500I-1000000J0D01*
G01*
G04 #@! TO.C,TP12*
X49069500Y-3556000D02*
G75*
G03*
X49069500Y-3556000I-1000000J0D01*
G01*
G04 #@! TO.C,TP13*
X53006500Y-3556000D02*
G75*
G03*
X53006500Y-3556000I-1000000J0D01*
G01*
G04 #@! TO.C,J11*
X83503000Y-25993400D02*
X68373000Y-25993400D01*
X68373000Y-25993400D02*
X68373000Y-47353400D01*
X83503000Y-47353400D02*
X83503000Y-25993400D01*
X68373000Y-47353400D02*
X83503000Y-47353400D01*
G04 #@! TO.C,R10*
X17154800Y-47078800D02*
X19014800Y-47078800D01*
X19014800Y-47078800D02*
X19014800Y-48018800D01*
X19014800Y-48018800D02*
X17154800Y-48018800D01*
X17154800Y-48018800D02*
X17154800Y-47078800D01*
G04 #@! TO.C,C36*
X22169269Y-56160051D02*
X22833949Y-56824731D01*
X20854051Y-57475269D02*
X22169269Y-56160051D01*
X21518731Y-58139949D02*
X20854051Y-57475269D01*
X22833949Y-56824731D02*
X21518731Y-58139949D01*
G04 #@! TO.C,U8*
X33683382Y-54356000D02*
X27178000Y-47850618D01*
X27178000Y-60861382D02*
X33683382Y-54356000D01*
X27178000Y-47850618D02*
X20672618Y-54356000D01*
X20672618Y-54356000D02*
X27178000Y-60861382D01*
G04 #@! TO.C,R21*
X45020000Y-51870000D02*
X47980000Y-51870000D01*
X47980000Y-53330000D02*
X45020000Y-53330000D01*
X45020000Y-53330000D02*
X45020000Y-51870000D01*
X47980000Y-51870000D02*
X47980000Y-53330000D01*
G04 #@! TO.C,R9*
X14030000Y-64230000D02*
X14030000Y-62370000D01*
X14970000Y-62370000D02*
X14970000Y-64230000D01*
X14030000Y-62370000D02*
X14970000Y-62370000D01*
X14970000Y-64230000D02*
X14030000Y-64230000D01*
G04 #@! TO.C,R14*
X26530000Y-68130000D02*
X26530000Y-66270000D01*
X27470000Y-66270000D02*
X27470000Y-68130000D01*
X26530000Y-66270000D02*
X27470000Y-66270000D01*
X27470000Y-68130000D02*
X26530000Y-68130000D01*
G04 #@! TO.C,R11*
X21630000Y-68080000D02*
X20170000Y-68080000D01*
X20170000Y-68080000D02*
X20170000Y-65120000D01*
X20170000Y-65120000D02*
X21630000Y-65120000D01*
X21630000Y-65120000D02*
X21630000Y-68080000D01*
G04 #@! TO.C,C65*
X35461200Y-67356400D02*
X34541200Y-67356400D01*
X34541200Y-67356400D02*
X34541200Y-65536400D01*
X35461200Y-65536400D02*
X35461200Y-67356400D01*
X34541200Y-65536400D02*
X35461200Y-65536400D01*
G04 #@! TO.C,D19*
X46600000Y-45650000D02*
X43400000Y-45650000D01*
X43400000Y-47550000D02*
X43400000Y-45650000D01*
X46600000Y-47550000D02*
X43400000Y-47550000D01*
X46600000Y-47550000D02*
X46600000Y-45650000D01*
G04 #@! TO.C,D20*
X38150000Y-13250000D02*
X38150000Y-8750000D01*
X38150000Y-8750000D02*
X45450000Y-8750000D01*
X45450000Y-8750000D02*
X45450000Y-13250000D01*
X45450000Y-13250000D02*
X38150000Y-13250000D01*
G04 #@! TO.C,C32*
X20121200Y-46225200D02*
X21941200Y-46225200D01*
X20121200Y-47145200D02*
X20121200Y-46225200D01*
X21941200Y-47145200D02*
X20121200Y-47145200D01*
X21941200Y-46225200D02*
X21941200Y-47145200D01*
G04 #@! TO.C,R12*
X20070000Y-65780000D02*
X20070000Y-67640000D01*
X19130000Y-65780000D02*
X20070000Y-65780000D01*
X20070000Y-67640000D02*
X19130000Y-67640000D01*
X19130000Y-67640000D02*
X19130000Y-65780000D01*
G04 #@! TO.C,C2*
X23396200Y-4034200D02*
X22476200Y-4034200D01*
X22476200Y-2214200D02*
X23396200Y-2214200D01*
X22476200Y-4034200D02*
X22476200Y-2214200D01*
X23396200Y-2214200D02*
X23396200Y-4034200D01*
G04 #@! TO.C,R64*
X13748000Y-65830000D02*
X15208000Y-65830000D01*
X15208000Y-68790000D02*
X13748000Y-68790000D01*
X13748000Y-68790000D02*
X13748000Y-65830000D01*
X15208000Y-65830000D02*
X15208000Y-68790000D01*
G04 #@! TO.C,C29*
X3858000Y-53742000D02*
X3858000Y-51922000D01*
X3858000Y-51922000D02*
X4778000Y-51922000D01*
X4778000Y-53742000D02*
X3858000Y-53742000D01*
X4778000Y-51922000D02*
X4778000Y-53742000D01*
G04 #@! TO.C,J12*
X24204600Y-12794600D02*
X24204600Y-21444600D01*
X24204600Y-21444600D02*
X30354600Y-21444600D01*
X30354600Y-12794600D02*
X24204600Y-12794600D01*
X30354600Y-21444600D02*
X30354600Y-12794600D01*
G04 #@! TO.C,D16*
X57750000Y-14850000D02*
X57750000Y-7550000D01*
X62250000Y-14850000D02*
X57750000Y-14850000D01*
X62250000Y-7550000D02*
X62250000Y-14850000D01*
X57750000Y-7550000D02*
X62250000Y-7550000D01*
G04 #@! TO.C,J9*
X10859200Y-3755800D02*
X22059200Y-3755800D01*
X22059200Y-155800D02*
X10859200Y-155800D01*
X22059200Y-3755800D02*
X22059200Y-155800D01*
X10859200Y-155800D02*
X10859200Y-3755800D01*
G04 #@! TO.C,R15*
X28830000Y-65780000D02*
X29770000Y-65780000D01*
X29770000Y-65780000D02*
X29770000Y-67640000D01*
X29770000Y-67640000D02*
X28830000Y-67640000D01*
X28830000Y-67640000D02*
X28830000Y-65780000D01*
G04 #@! TO.C,C33*
X27681600Y-29060400D02*
X25861600Y-29060400D01*
X27681600Y-28140400D02*
X27681600Y-29060400D01*
X25861600Y-29060400D02*
X25861600Y-28140400D01*
X25861600Y-28140400D02*
X27681600Y-28140400D01*
G04 #@! TO.C,R7*
X13770000Y-64230000D02*
X12830000Y-64230000D01*
X12830000Y-62370000D02*
X13770000Y-62370000D01*
X12830000Y-64230000D02*
X12830000Y-62370000D01*
X13770000Y-62370000D02*
X13770000Y-64230000D01*
G04 #@! TD*
M02*
