G04 #@! TF.GenerationSoftware,KiCad,Pcbnew,(6.0.7)*
G04 #@! TF.CreationDate,2022-07-29T08:46:12-07:00*
G04 #@! TF.ProjectId,SJ-201-R10,534a2d32-3031-42d5-9231-302e6b696361,rev?*
G04 #@! TF.SameCoordinates,Original*
G04 #@! TF.FileFunction,Other,User*
%FSLAX46Y46*%
G04 Gerber Fmt 4.6, Leading zero omitted, Abs format (unit mm)*
G04 Created by KiCad (PCBNEW (6.0.7)) date 2022-07-29 08:46:12*
%MOMM*%
%LPD*%
G01*
G04 APERTURE LIST*
%ADD10C,0.050000*%
G04 APERTURE END LIST*
D10*
G04 #@! TO.C,D11*
X62162780Y-43424720D02*
X62162780Y-47742720D01*
X62162780Y-47742720D02*
X58225780Y-47742720D01*
X58225780Y-47742720D02*
X58225780Y-43424720D01*
X58225780Y-43424720D02*
X62162780Y-43424720D01*
G04 #@! TO.C,D12*
X55076180Y-36617520D02*
X59013180Y-36617520D01*
X59013180Y-40935520D02*
X55076180Y-40935520D01*
X59013180Y-36617520D02*
X59013180Y-40935520D01*
X55076180Y-40935520D02*
X55076180Y-36617520D01*
G04 #@! TO.C,U10*
X30395000Y-11691000D02*
X30395000Y-8389000D01*
X34713000Y-8389000D02*
X34713000Y-11691000D01*
X34713000Y-11691000D02*
X30395000Y-11691000D01*
X30395000Y-8389000D02*
X34713000Y-8389000D01*
G04 #@! TO.C,D10*
X55126980Y-50231920D02*
X59063980Y-50231920D01*
X59063980Y-50231920D02*
X59063980Y-54549920D01*
X59063980Y-54549920D02*
X55126980Y-54549920D01*
X55126980Y-54549920D02*
X55126980Y-50231920D01*
G04 #@! TO.C,D9*
X50758180Y-56429520D02*
X54695180Y-56429520D01*
X50758180Y-60747520D02*
X50758180Y-56429520D01*
X54695180Y-56429520D02*
X54695180Y-60747520D01*
X54695180Y-60747520D02*
X50758180Y-60747520D01*
G04 #@! TO.C,D13*
X50707380Y-34737920D02*
X50707380Y-30419920D01*
X50707380Y-30419920D02*
X54644380Y-30419920D01*
X54644380Y-34737920D02*
X50707380Y-34737920D01*
X54644380Y-30419920D02*
X54644380Y-34737920D01*
G04 #@! TO.C,U11*
X34713000Y-79389000D02*
X34713000Y-82691000D01*
X30395000Y-82691000D02*
X30395000Y-79389000D01*
X30395000Y-79389000D02*
X34713000Y-79389000D01*
X34713000Y-82691000D02*
X30395000Y-82691000D01*
G04 #@! TO.C,TP12v0*
X64750000Y-3200000D02*
G75*
G03*
X64750000Y-3200000I-1750000J0D01*
G01*
G04 #@! TO.C,D6*
X35289580Y-50333520D02*
X35289580Y-54651520D01*
X31352580Y-50333520D02*
X35289580Y-50333520D01*
X35289580Y-54651520D02*
X31352580Y-54651520D01*
X31352580Y-54651520D02*
X31352580Y-50333520D01*
G04 #@! TO.C,D5*
X28253780Y-47793520D02*
X28253780Y-43475520D01*
X28253780Y-43475520D02*
X32190780Y-43475520D01*
X32190780Y-43475520D02*
X32190780Y-47793520D01*
X32190780Y-47793520D02*
X28253780Y-47793520D01*
G04 #@! TO.C,D3*
X35721380Y-34839520D02*
X35721380Y-30521520D01*
X35721380Y-30521520D02*
X39658380Y-30521520D01*
X39658380Y-34839520D02*
X35721380Y-34839520D01*
X39658380Y-30521520D02*
X39658380Y-34839520D01*
G04 #@! TO.C,D2*
X47176780Y-34077520D02*
X43239780Y-34077520D01*
X47176780Y-29759520D02*
X47176780Y-34077520D01*
X43239780Y-34077520D02*
X43239780Y-29759520D01*
X43239780Y-29759520D02*
X47176780Y-29759520D01*
G04 #@! TO.C,R46*
X36490000Y-77914400D02*
X34630000Y-77914400D01*
X34630000Y-78854400D02*
X36490000Y-78854400D01*
X34630000Y-77914400D02*
X34630000Y-78854400D01*
X36490000Y-78854400D02*
X36490000Y-77914400D01*
G04 #@! TO.C,R44*
X36538000Y-9280800D02*
X35598000Y-9280800D01*
X35598000Y-11140800D02*
X36538000Y-11140800D01*
X35598000Y-9280800D02*
X35598000Y-11140800D01*
X36538000Y-11140800D02*
X36538000Y-9280800D01*
G04 #@! TO.C,R43*
X29248000Y-11191600D02*
X30188000Y-11191600D01*
X30188000Y-9331600D02*
X29248000Y-9331600D01*
X30188000Y-11191600D02*
X30188000Y-9331600D01*
X29248000Y-9331600D02*
X29248000Y-11191600D01*
G04 #@! TO.C,S1*
X10918020Y-49820000D02*
X16918020Y-49820000D01*
X16918020Y-49820000D02*
X16918020Y-41320000D01*
X16918020Y-41320000D02*
X10918020Y-41320000D01*
X10918020Y-41320000D02*
X10918020Y-49820000D01*
G04 #@! TO.C,S3*
X48050800Y-49813400D02*
X48050800Y-41313400D01*
X42050800Y-41313400D02*
X42050800Y-49813400D01*
X48050800Y-41313400D02*
X42050800Y-41313400D01*
X42050800Y-49813400D02*
X48050800Y-49813400D01*
G04 #@! TO.C,R45*
X29854800Y-77584400D02*
X31714800Y-77584400D01*
X31714800Y-76644400D02*
X29854800Y-76644400D01*
X29854800Y-76644400D02*
X29854800Y-77584400D01*
X31714800Y-77584400D02*
X31714800Y-76644400D01*
G04 #@! TO.C,D8*
X47176780Y-61357120D02*
X43239780Y-61357120D01*
X47176780Y-57039120D02*
X47176780Y-61357120D01*
X43239780Y-61357120D02*
X43239780Y-57039120D01*
X43239780Y-57039120D02*
X47176780Y-57039120D01*
G04 #@! TO.C,D4*
X31403380Y-36617520D02*
X35340380Y-36617520D01*
X35340380Y-40935520D02*
X31403380Y-40935520D01*
X31403380Y-40935520D02*
X31403380Y-36617520D01*
X35340380Y-36617520D02*
X35340380Y-40935520D01*
G04 #@! TO.C,S2*
X18168020Y-75972000D02*
X9668020Y-75972000D01*
X9668020Y-75972000D02*
X9668020Y-81972000D01*
X18168020Y-81972000D02*
X18168020Y-75972000D01*
X9668020Y-81972000D02*
X18168020Y-81972000D01*
G04 #@! TO.C,D7*
X35772180Y-56378720D02*
X39709180Y-56378720D01*
X39709180Y-60696720D02*
X35772180Y-60696720D01*
X35772180Y-60696720D02*
X35772180Y-56378720D01*
X39709180Y-56378720D02*
X39709180Y-60696720D01*
G04 #@! TO.C,C58*
X37404400Y-82064960D02*
X37404400Y-81124960D01*
X37404400Y-81124960D02*
X35544400Y-81124960D01*
X35544400Y-81124960D02*
X35544400Y-82064960D01*
X35544400Y-82064960D02*
X37404400Y-82064960D01*
G04 #@! TO.C,C56*
X37404400Y-80048000D02*
X35544400Y-80048000D01*
X35544400Y-80048000D02*
X35544400Y-80988000D01*
X37404400Y-80988000D02*
X37404400Y-80048000D01*
X35544400Y-80988000D02*
X37404400Y-80988000D01*
G04 #@! TO.C,SW1*
X14453200Y-10592800D02*
X13153200Y-10592800D01*
X13153200Y-13892800D02*
X14453200Y-13892800D01*
X14453200Y-16642800D02*
X19003200Y-16642800D01*
X13153200Y-10592800D02*
X13153200Y-13892800D01*
X19003200Y-16642800D02*
X19003200Y-7842800D01*
X14453200Y-13892800D02*
X14453200Y-16642800D01*
X14453200Y-7842800D02*
X14453200Y-10592800D01*
X19003200Y-7842800D02*
X14453200Y-7842800D01*
G04 #@! TO.C,FB6*
X37556400Y-82045600D02*
X39456400Y-82045600D01*
X37556400Y-78685600D02*
X37556400Y-82045600D01*
X39456400Y-82045600D02*
X39456400Y-78685600D01*
X39456400Y-78685600D02*
X37556400Y-78685600D01*
G04 #@! TO.C,D17*
X7600000Y-47250000D02*
X7600000Y-45350000D01*
X7600000Y-47250000D02*
X10800000Y-47250000D01*
X7600000Y-45350000D02*
X10800000Y-45350000D01*
X10800000Y-47250000D02*
X10800000Y-45350000D01*
G04 #@! TO.C,C9*
X6955200Y-77726800D02*
X6955200Y-76806800D01*
X5135200Y-76806800D02*
X5135200Y-77726800D01*
X5135200Y-77726800D02*
X6955200Y-77726800D01*
X6955200Y-76806800D02*
X5135200Y-76806800D01*
G04 #@! TO.C,C31*
X34650000Y-13922000D02*
X36470000Y-13922000D01*
X36470000Y-13922000D02*
X36470000Y-13002000D01*
X36470000Y-13002000D02*
X34650000Y-13002000D01*
X34650000Y-13002000D02*
X34650000Y-13922000D01*
G04 #@! TO.C,C30*
X33075200Y-21796000D02*
X34895200Y-21796000D01*
X34895200Y-20876000D02*
X33075200Y-20876000D01*
X33075200Y-20876000D02*
X33075200Y-21796000D01*
X34895200Y-21796000D02*
X34895200Y-20876000D01*
G04 #@! TO.C,C54*
X57710000Y-73160000D02*
X57710000Y-72240000D01*
X57710000Y-72240000D02*
X55890000Y-72240000D01*
X55890000Y-73160000D02*
X57710000Y-73160000D01*
X55890000Y-72240000D02*
X55890000Y-73160000D01*
G04 #@! TO.C,R13*
X22070000Y-79630000D02*
X22070000Y-77770000D01*
X21130000Y-79630000D02*
X22070000Y-79630000D01*
X22070000Y-77770000D02*
X21130000Y-77770000D01*
X21130000Y-77770000D02*
X21130000Y-79630000D01*
G04 #@! TO.C,R17*
X23270000Y-80180000D02*
X24730000Y-80180000D01*
X24730000Y-80180000D02*
X24730000Y-77220000D01*
X23270000Y-77220000D02*
X23270000Y-80180000D01*
X24730000Y-77220000D02*
X23270000Y-77220000D01*
G04 #@! TO.C,D18*
X8900000Y-79750000D02*
X8900000Y-81650000D01*
X5700000Y-79750000D02*
X5700000Y-81650000D01*
X8900000Y-81650000D02*
X5700000Y-81650000D01*
X8900000Y-79750000D02*
X5700000Y-79750000D01*
G04 #@! TO.C,C34*
X5135200Y-78178400D02*
X5135200Y-79098400D01*
X6955200Y-79098400D02*
X6955200Y-78178400D01*
X6955200Y-78178400D02*
X5135200Y-78178400D01*
X5135200Y-79098400D02*
X6955200Y-79098400D01*
G04 #@! TO.C,F1*
X73080000Y-26380000D02*
X68520000Y-26380000D01*
X73080000Y-28620000D02*
X73080000Y-26380000D01*
X68520000Y-28620000D02*
X73080000Y-28620000D01*
X68520000Y-26380000D02*
X68520000Y-28620000D01*
G04 #@! TD*
M02*
