<?xml version="1.0" encoding="UTF-8" standalone="no"?>
<!DOCTYPE svg PUBLIC "-//W3C//DTD SVG 1.1//EN" "http://www.w3.org/Graphics/SVG/1.1/DTD/svg11.dtd">
<svg width="612pt" height="792pt" viewBox="0 0 612 792" overflow="visible" version="1.1" xmlns="http://www.w3.org/2000/svg">
  <path d="M311.2266,382.0771 C309.6574,381.9181 307.8786,383.6969 308.0377,385.2661 C307.8786,386.8353 309.6574,388.6142 311.2266,388.4551 C312.7958,388.6142 314.5747,386.8353 314.4156,385.2661 C314.5747,383.6969 312.7958,381.9181 311.2266,382.0771 z" stroke="#000000" stroke-width="0.24" fill-opacity="0" />
  <path d="M313.7393,393.3904 C317.8623,392.5593 320.9926,386.6258 319.3509,382.7535 C318.5198,378.6305 312.5863,375.5002 308.714,377.1419 C304.5909,377.973 301.4607,383.9065 303.1024,387.7788 C303.9335,391.9018 309.8669,395.0321 313.7393,393.3904 z" stroke="#000000" stroke-width="0.24" fill-opacity="0" />
  <path d="M329.6518,382.0771 C328.0826,381.9181 326.3038,383.6969 326.4629,385.2661 C326.3038,386.8353 328.0826,388.6142 329.6518,388.4551 C331.221,388.6142 332.9999,386.8353 332.8408,385.2661 C332.9999,383.6969 331.221,381.9181 329.6518,382.0771 z" stroke="#000000" stroke-width="0.24" fill-opacity="0" />
  <path d="M332.1645,393.3904 C336.2875,392.5593 339.4178,386.6258 337.7761,382.7535 C336.945,378.6305 331.0115,375.5002 327.1392,377.1419 C323.0161,377.973 319.8859,383.9065 321.5276,387.7788 C322.3587,391.9018 328.2921,395.0321 332.1645,393.3904 z" stroke="#000000" stroke-width="0.24" fill-opacity="0" />
</svg>