%TF.GenerationSoftware,KiCad,Pcbnew,(5.1.6)-1*%
%TF.CreationDate,2020-09-27T13:04:45-07:00*%
%TF.ProjectId,SJ-202-USB-Jumper,534a2d32-3032-42d5-9553-422d4a756d70,rev?*%
%TF.SameCoordinates,Original*%
%TF.FileFunction,Legend,Bot*%
%TF.FilePolarity,Positive*%
%FSLAX46Y46*%
G04 Gerber Fmt 4.6, Leading zero omitted, Abs format (unit mm)*
G04 Created by KiCad (PCBNEW (5.1.6)-1) date 2020-09-27 13:04:45*
%MOMM*%
%LPD*%
G01*
G04 APERTURE LIST*
%ADD10C,0.300000*%
%ADD11C,0.120000*%
%ADD12C,0.150000*%
G04 APERTURE END LIST*
D10*
X71333571Y-66553571D02*
X72047857Y-66553571D01*
X72119285Y-67267857D01*
X72047857Y-67196428D01*
X71905000Y-67125000D01*
X71547857Y-67125000D01*
X71405000Y-67196428D01*
X71333571Y-67267857D01*
X71262142Y-67410714D01*
X71262142Y-67767857D01*
X71333571Y-67910714D01*
X71405000Y-67982142D01*
X71547857Y-68053571D01*
X71905000Y-68053571D01*
X72047857Y-67982142D01*
X72119285Y-67910714D01*
X70833571Y-66553571D02*
X70333571Y-68053571D01*
X69833571Y-66553571D01*
X72047857Y-70603571D02*
X72047857Y-69103571D01*
X71690714Y-69103571D01*
X71476428Y-69175000D01*
X71333571Y-69317857D01*
X71262142Y-69460714D01*
X71190714Y-69746428D01*
X71190714Y-69960714D01*
X71262142Y-70246428D01*
X71333571Y-70389285D01*
X71476428Y-70532142D01*
X71690714Y-70603571D01*
X72047857Y-70603571D01*
X70547857Y-70032142D02*
X69405000Y-70032142D01*
X69976428Y-70603571D02*
X69976428Y-69460714D01*
X72047857Y-73153571D02*
X72047857Y-71653571D01*
X71690714Y-71653571D01*
X71476428Y-71725000D01*
X71333571Y-71867857D01*
X71262142Y-72010714D01*
X71190714Y-72296428D01*
X71190714Y-72510714D01*
X71262142Y-72796428D01*
X71333571Y-72939285D01*
X71476428Y-73082142D01*
X71690714Y-73153571D01*
X72047857Y-73153571D01*
X70547857Y-72582142D02*
X69405000Y-72582142D01*
X71262142Y-74275000D02*
X71405000Y-74203571D01*
X71619285Y-74203571D01*
X71833571Y-74275000D01*
X71976428Y-74417857D01*
X72047857Y-74560714D01*
X72119285Y-74846428D01*
X72119285Y-75060714D01*
X72047857Y-75346428D01*
X71976428Y-75489285D01*
X71833571Y-75632142D01*
X71619285Y-75703571D01*
X71476428Y-75703571D01*
X71262142Y-75632142D01*
X71190714Y-75560714D01*
X71190714Y-75060714D01*
X71476428Y-75060714D01*
X70547857Y-75703571D02*
X70547857Y-74203571D01*
X69690714Y-75703571D01*
X69690714Y-74203571D01*
X68976428Y-75703571D02*
X68976428Y-74203571D01*
X68619285Y-74203571D01*
X68405000Y-74275000D01*
X68262142Y-74417857D01*
X68190714Y-74560714D01*
X68119285Y-74846428D01*
X68119285Y-75060714D01*
X68190714Y-75346428D01*
X68262142Y-75489285D01*
X68405000Y-75632142D01*
X68619285Y-75703571D01*
X68976428Y-75703571D01*
X53085714Y-70028571D02*
X53085714Y-68528571D01*
X52585714Y-69600000D01*
X52085714Y-68528571D01*
X52085714Y-70028571D01*
X51514285Y-69028571D02*
X51157142Y-70028571D01*
X50800000Y-69028571D02*
X51157142Y-70028571D01*
X51300000Y-70385714D01*
X51371428Y-70457142D01*
X51514285Y-70528571D01*
X49585714Y-69957142D02*
X49728571Y-70028571D01*
X50014285Y-70028571D01*
X50157142Y-69957142D01*
X50228571Y-69885714D01*
X50300000Y-69742857D01*
X50300000Y-69314285D01*
X50228571Y-69171428D01*
X50157142Y-69100000D01*
X50014285Y-69028571D01*
X49728571Y-69028571D01*
X49585714Y-69100000D01*
X48942857Y-70028571D02*
X48942857Y-69028571D01*
X48942857Y-69314285D02*
X48871428Y-69171428D01*
X48800000Y-69100000D01*
X48657142Y-69028571D01*
X48514285Y-69028571D01*
X47800000Y-70028571D02*
X47942857Y-69957142D01*
X48014285Y-69885714D01*
X48085714Y-69742857D01*
X48085714Y-69314285D01*
X48014285Y-69171428D01*
X47942857Y-69100000D01*
X47800000Y-69028571D01*
X47585714Y-69028571D01*
X47442857Y-69100000D01*
X47371428Y-69171428D01*
X47300000Y-69314285D01*
X47300000Y-69742857D01*
X47371428Y-69885714D01*
X47442857Y-69957142D01*
X47585714Y-70028571D01*
X47800000Y-70028571D01*
X46871428Y-69028571D02*
X46300000Y-69028571D01*
X46657142Y-70028571D02*
X46657142Y-68742857D01*
X46585714Y-68600000D01*
X46442857Y-68528571D01*
X46300000Y-68528571D01*
X46014285Y-69028571D02*
X45442857Y-69028571D01*
X45800000Y-68528571D02*
X45800000Y-69814285D01*
X45728571Y-69957142D01*
X45585714Y-70028571D01*
X45442857Y-70028571D01*
X43871428Y-69600000D02*
X43157142Y-69600000D01*
X44014285Y-70028571D02*
X43514285Y-68528571D01*
X43014285Y-70028571D01*
X42514285Y-70028571D02*
X42514285Y-68528571D01*
X54228571Y-72507142D02*
X54014285Y-72578571D01*
X53657142Y-72578571D01*
X53514285Y-72507142D01*
X53442857Y-72435714D01*
X53371428Y-72292857D01*
X53371428Y-72150000D01*
X53442857Y-72007142D01*
X53514285Y-71935714D01*
X53657142Y-71864285D01*
X53942857Y-71792857D01*
X54085714Y-71721428D01*
X54157142Y-71650000D01*
X54228571Y-71507142D01*
X54228571Y-71364285D01*
X54157142Y-71221428D01*
X54085714Y-71150000D01*
X53942857Y-71078571D01*
X53585714Y-71078571D01*
X53371428Y-71150000D01*
X52300000Y-71078571D02*
X52300000Y-72150000D01*
X52371428Y-72364285D01*
X52514285Y-72507142D01*
X52728571Y-72578571D01*
X52871428Y-72578571D01*
X51585714Y-72007142D02*
X50442857Y-72007142D01*
X49800000Y-71221428D02*
X49728571Y-71150000D01*
X49585714Y-71078571D01*
X49228571Y-71078571D01*
X49085714Y-71150000D01*
X49014285Y-71221428D01*
X48942857Y-71364285D01*
X48942857Y-71507142D01*
X49014285Y-71721428D01*
X49871428Y-72578571D01*
X48942857Y-72578571D01*
X48014285Y-71078571D02*
X47871428Y-71078571D01*
X47728571Y-71150000D01*
X47657142Y-71221428D01*
X47585714Y-71364285D01*
X47514285Y-71650000D01*
X47514285Y-72007142D01*
X47585714Y-72292857D01*
X47657142Y-72435714D01*
X47728571Y-72507142D01*
X47871428Y-72578571D01*
X48014285Y-72578571D01*
X48157142Y-72507142D01*
X48228571Y-72435714D01*
X48300000Y-72292857D01*
X48371428Y-72007142D01*
X48371428Y-71650000D01*
X48300000Y-71364285D01*
X48228571Y-71221428D01*
X48157142Y-71150000D01*
X48014285Y-71078571D01*
X46942857Y-71221428D02*
X46871428Y-71150000D01*
X46728571Y-71078571D01*
X46371428Y-71078571D01*
X46228571Y-71150000D01*
X46157142Y-71221428D01*
X46085714Y-71364285D01*
X46085714Y-71507142D01*
X46157142Y-71721428D01*
X47014285Y-72578571D01*
X46085714Y-72578571D01*
X45442857Y-72007142D02*
X44300000Y-72007142D01*
X43300000Y-71078571D02*
X43157142Y-71078571D01*
X43014285Y-71150000D01*
X42942857Y-71221428D01*
X42871428Y-71364285D01*
X42800000Y-71650000D01*
X42800000Y-72007142D01*
X42871428Y-72292857D01*
X42942857Y-72435714D01*
X43014285Y-72507142D01*
X43157142Y-72578571D01*
X43300000Y-72578571D01*
X43442857Y-72507142D01*
X43514285Y-72435714D01*
X43585714Y-72292857D01*
X43657142Y-72007142D01*
X43657142Y-71650000D01*
X43585714Y-71364285D01*
X43514285Y-71221428D01*
X43442857Y-71150000D01*
X43300000Y-71078571D01*
X41371428Y-72578571D02*
X42228571Y-72578571D01*
X41800000Y-72578571D02*
X41800000Y-71078571D01*
X41942857Y-71292857D01*
X42085714Y-71435714D01*
X42228571Y-71507142D01*
X54478571Y-73628571D02*
X54478571Y-74842857D01*
X54407142Y-74985714D01*
X54335714Y-75057142D01*
X54192857Y-75128571D01*
X53907142Y-75128571D01*
X53764285Y-75057142D01*
X53692857Y-74985714D01*
X53621428Y-74842857D01*
X53621428Y-73628571D01*
X52978571Y-75057142D02*
X52764285Y-75128571D01*
X52407142Y-75128571D01*
X52264285Y-75057142D01*
X52192857Y-74985714D01*
X52121428Y-74842857D01*
X52121428Y-74700000D01*
X52192857Y-74557142D01*
X52264285Y-74485714D01*
X52407142Y-74414285D01*
X52692857Y-74342857D01*
X52835714Y-74271428D01*
X52907142Y-74200000D01*
X52978571Y-74057142D01*
X52978571Y-73914285D01*
X52907142Y-73771428D01*
X52835714Y-73700000D01*
X52692857Y-73628571D01*
X52335714Y-73628571D01*
X52121428Y-73700000D01*
X50978571Y-74342857D02*
X50764285Y-74414285D01*
X50692857Y-74485714D01*
X50621428Y-74628571D01*
X50621428Y-74842857D01*
X50692857Y-74985714D01*
X50764285Y-75057142D01*
X50907142Y-75128571D01*
X51478571Y-75128571D01*
X51478571Y-73628571D01*
X50978571Y-73628571D01*
X50835714Y-73700000D01*
X50764285Y-73771428D01*
X50692857Y-73914285D01*
X50692857Y-74057142D01*
X50764285Y-74200000D01*
X50835714Y-74271428D01*
X50978571Y-74342857D01*
X51478571Y-74342857D01*
X48907142Y-74700000D02*
X48192857Y-74700000D01*
X49050000Y-75128571D02*
X48550000Y-73628571D01*
X48050000Y-75128571D01*
X46907142Y-75128571D02*
X46907142Y-73628571D01*
X46907142Y-75057142D02*
X47050000Y-75128571D01*
X47335714Y-75128571D01*
X47478571Y-75057142D01*
X47550000Y-74985714D01*
X47621428Y-74842857D01*
X47621428Y-74414285D01*
X47550000Y-74271428D01*
X47478571Y-74200000D01*
X47335714Y-74128571D01*
X47050000Y-74128571D01*
X46907142Y-74200000D01*
X45550000Y-75128571D02*
X45550000Y-74342857D01*
X45621428Y-74200000D01*
X45764285Y-74128571D01*
X46050000Y-74128571D01*
X46192857Y-74200000D01*
X45550000Y-75057142D02*
X45692857Y-75128571D01*
X46050000Y-75128571D01*
X46192857Y-75057142D01*
X46264285Y-74914285D01*
X46264285Y-74771428D01*
X46192857Y-74628571D01*
X46050000Y-74557142D01*
X45692857Y-74557142D01*
X45550000Y-74485714D01*
X44835714Y-74128571D02*
X44835714Y-75628571D01*
X44835714Y-74200000D02*
X44692857Y-74128571D01*
X44407142Y-74128571D01*
X44264285Y-74200000D01*
X44192857Y-74271428D01*
X44121428Y-74414285D01*
X44121428Y-74842857D01*
X44192857Y-74985714D01*
X44264285Y-75057142D01*
X44407142Y-75128571D01*
X44692857Y-75128571D01*
X44835714Y-75057142D01*
X43692857Y-74128571D02*
X43121428Y-74128571D01*
X43478571Y-73628571D02*
X43478571Y-74914285D01*
X43407142Y-75057142D01*
X43264285Y-75128571D01*
X43121428Y-75128571D01*
X42050000Y-75057142D02*
X42192857Y-75128571D01*
X42478571Y-75128571D01*
X42621428Y-75057142D01*
X42692857Y-74914285D01*
X42692857Y-74342857D01*
X42621428Y-74200000D01*
X42478571Y-74128571D01*
X42192857Y-74128571D01*
X42050000Y-74200000D01*
X41978571Y-74342857D01*
X41978571Y-74485714D01*
X42692857Y-74628571D01*
X41335714Y-75128571D02*
X41335714Y-74128571D01*
X41335714Y-74414285D02*
X41264285Y-74271428D01*
X41192857Y-74200000D01*
X41050000Y-74128571D01*
X40907142Y-74128571D01*
D11*
%TO.C,J2*%
X60150000Y-69300000D02*
X62950000Y-69300000D01*
X62950000Y-69300000D02*
X62950000Y-67300000D01*
X62950000Y-67300000D02*
X60150000Y-67300000D01*
X60150000Y-67300000D02*
X60150000Y-69300000D01*
D12*
X61883333Y-69552380D02*
X61883333Y-70266666D01*
X61930952Y-70409523D01*
X62026190Y-70504761D01*
X62169047Y-70552380D01*
X62264285Y-70552380D01*
X61454761Y-69647619D02*
X61407142Y-69600000D01*
X61311904Y-69552380D01*
X61073809Y-69552380D01*
X60978571Y-69600000D01*
X60930952Y-69647619D01*
X60883333Y-69742857D01*
X60883333Y-69838095D01*
X60930952Y-69980952D01*
X61502380Y-70552380D01*
X60883333Y-70552380D01*
X64383333Y-65852380D02*
X64859523Y-65852380D01*
X64907142Y-66328571D01*
X64859523Y-66280952D01*
X64764285Y-66233333D01*
X64526190Y-66233333D01*
X64430952Y-66280952D01*
X64383333Y-66328571D01*
X64335714Y-66423809D01*
X64335714Y-66661904D01*
X64383333Y-66757142D01*
X64430952Y-66804761D01*
X64526190Y-66852380D01*
X64764285Y-66852380D01*
X64859523Y-66804761D01*
X64907142Y-66757142D01*
X64002380Y-66185714D02*
X63764285Y-66852380D01*
X63526190Y-66185714D01*
X62859523Y-65852380D02*
X62859523Y-66566666D01*
X62907142Y-66709523D01*
X63002380Y-66804761D01*
X63145238Y-66852380D01*
X63240476Y-66852380D01*
X61954761Y-66185714D02*
X61954761Y-66852380D01*
X62383333Y-66185714D02*
X62383333Y-66709523D01*
X62335714Y-66804761D01*
X62240476Y-66852380D01*
X62097619Y-66852380D01*
X62002380Y-66804761D01*
X61954761Y-66757142D01*
X61478571Y-66852380D02*
X61478571Y-66185714D01*
X61478571Y-66280952D02*
X61430952Y-66233333D01*
X61335714Y-66185714D01*
X61192857Y-66185714D01*
X61097619Y-66233333D01*
X61050000Y-66328571D01*
X61050000Y-66852380D01*
X61050000Y-66328571D02*
X61002380Y-66233333D01*
X60907142Y-66185714D01*
X60764285Y-66185714D01*
X60669047Y-66233333D01*
X60621428Y-66328571D01*
X60621428Y-66852380D01*
X60145238Y-66185714D02*
X60145238Y-67185714D01*
X60145238Y-66233333D02*
X60050000Y-66185714D01*
X59859523Y-66185714D01*
X59764285Y-66233333D01*
X59716666Y-66280952D01*
X59669047Y-66376190D01*
X59669047Y-66661904D01*
X59716666Y-66757142D01*
X59764285Y-66804761D01*
X59859523Y-66852380D01*
X60050000Y-66852380D01*
X60145238Y-66804761D01*
X58859523Y-66804761D02*
X58954761Y-66852380D01*
X59145238Y-66852380D01*
X59240476Y-66804761D01*
X59288095Y-66709523D01*
X59288095Y-66328571D01*
X59240476Y-66233333D01*
X59145238Y-66185714D01*
X58954761Y-66185714D01*
X58859523Y-66233333D01*
X58811904Y-66328571D01*
X58811904Y-66423809D01*
X59288095Y-66519047D01*
X58383333Y-66852380D02*
X58383333Y-66185714D01*
X58383333Y-66376190D02*
X58335714Y-66280952D01*
X58288095Y-66233333D01*
X58192857Y-66185714D01*
X58097619Y-66185714D01*
%TD*%
M02*
