%TF.GenerationSoftware,KiCad,Pcbnew,(5.1.6)-1*%
%TF.CreationDate,2020-09-04T12:39:32-07:00*%
%TF.ProjectId,SJ-202-USB-Jumper,534a2d32-3032-42d5-9553-422d4a756d70,rev?*%
%TF.SameCoordinates,Original*%
%TF.FileFunction,Copper,L1,Top*%
%TF.FilePolarity,Positive*%
%FSLAX46Y46*%
G04 Gerber Fmt 4.6, Leading zero omitted, Abs format (unit mm)*
G04 Created by KiCad (PCBNEW (5.1.6)-1) date 2020-09-04 12:39:32*
%MOMM*%
%LPD*%
G01*
G04 APERTURE LIST*
%TA.AperFunction,ComponentPad*%
%ADD10C,1.100000*%
%TD*%
%TA.AperFunction,ComponentPad*%
%ADD11C,0.790000*%
%TD*%
%TA.AperFunction,ComponentPad*%
%ADD12C,0.750000*%
%TD*%
%TA.AperFunction,SMDPad,CuDef*%
%ADD13R,3.300000X1.600000*%
%TD*%
%TA.AperFunction,ComponentPad*%
%ADD14C,1.900000*%
%TD*%
%TA.AperFunction,ComponentPad*%
%ADD15C,1.500000*%
%TD*%
%TA.AperFunction,ComponentPad*%
%ADD16O,1.700000X1.700000*%
%TD*%
%TA.AperFunction,ComponentPad*%
%ADD17R,1.700000X1.700000*%
%TD*%
%TA.AperFunction,ViaPad*%
%ADD18C,0.800000*%
%TD*%
%TA.AperFunction,Conductor*%
%ADD19C,0.250000*%
%TD*%
%TA.AperFunction,Conductor*%
%ADD20C,0.254000*%
%TD*%
G04 APERTURE END LIST*
D10*
%TO.P,J2,S6*%
%TO.N,GND*%
X74930000Y-70725000D03*
%TO.P,J2,S5*%
X74930000Y-64075000D03*
D11*
%TO.P,J2,S1*%
X76470000Y-65900000D03*
%TO.P,J2,S2*%
X76470000Y-68900000D03*
%TO.P,J2,S4*%
X73970000Y-68900000D03*
%TO.P,J2,S3*%
X73970000Y-65900000D03*
D12*
%TO.P,J2,5*%
X75550000Y-68700000D03*
%TO.P,J2,4*%
%TO.N,/ID*%
X74900000Y-68050000D03*
%TO.P,J2,3*%
%TO.N,/D+*%
X75550000Y-67400000D03*
%TO.P,J2,2*%
%TO.N,/D-*%
X74900000Y-66750000D03*
%TO.P,J2,1*%
%TO.N,+5V*%
X75550000Y-66100000D03*
%TD*%
D13*
%TO.P,J1,5*%
%TO.N,GND*%
X48400000Y-59505500D03*
D14*
%TO.P,J1,4*%
X44900000Y-55310000D03*
D15*
%TO.P,J1,3*%
%TO.N,/D+*%
X47400000Y-55300000D03*
%TO.P,J1,2*%
%TO.N,/D-*%
X49400000Y-55325000D03*
D14*
%TO.P,J1,1*%
%TO.N,+5V*%
X51900000Y-55310000D03*
D13*
%TO.P,J1,5*%
%TO.N,GND*%
X41830000Y-53600000D03*
X54970000Y-53600000D03*
%TD*%
D16*
%TO.P,J3,5*%
%TO.N,GND*%
X43740000Y-62300000D03*
%TO.P,J3,4*%
%TO.N,/ID*%
X46280000Y-62300000D03*
%TO.P,J3,3*%
%TO.N,/D-*%
X48820000Y-62300000D03*
%TO.P,J3,2*%
%TO.N,/D+*%
X51360000Y-62300000D03*
D17*
%TO.P,J3,1*%
%TO.N,+5V*%
X53900000Y-62300000D03*
%TD*%
D18*
%TO.N,/D+*%
X54000000Y-67100000D03*
%TO.N,/D-*%
X61250000Y-66750000D03*
%TO.N,/ID*%
X46280000Y-62300000D03*
%TD*%
D19*
%TO.N,/D+*%
X75550000Y-67400000D02*
X54300000Y-67400000D01*
X54300000Y-67400000D02*
X54000000Y-67100000D01*
%TO.N,/D-*%
X52870001Y-66350001D02*
X60850001Y-66350001D01*
X74900000Y-66750000D02*
X61250000Y-66750000D01*
X60850001Y-66350001D02*
X61250000Y-66750000D01*
X48820000Y-62300000D02*
X52870001Y-66350001D01*
%TO.N,/ID*%
X74900000Y-68050000D02*
X52030000Y-68050000D01*
X52030000Y-68050000D02*
X46280000Y-62300000D01*
%TD*%
D20*
%TO.N,GND*%
G36*
X55841849Y-52583625D02*
G01*
X56226117Y-52699642D01*
X56580532Y-52888088D01*
X56891589Y-53141781D01*
X57147446Y-53451059D01*
X57338361Y-53804150D01*
X57457058Y-54187596D01*
X57501373Y-54609226D01*
X57501372Y-60044775D01*
X57503525Y-60066630D01*
X57503414Y-60082476D01*
X57504069Y-60089160D01*
X57555886Y-60582167D01*
X57564645Y-60624835D01*
X57572821Y-60667694D01*
X57574762Y-60674124D01*
X57721351Y-61147676D01*
X57738244Y-61187862D01*
X57754576Y-61228285D01*
X57757729Y-61234215D01*
X57993506Y-61670276D01*
X58017866Y-61706390D01*
X58041755Y-61742896D01*
X58046000Y-61748100D01*
X58361984Y-62130060D01*
X58392900Y-62160761D01*
X58423420Y-62191927D01*
X58428595Y-62196208D01*
X58812751Y-62509518D01*
X58849056Y-62533639D01*
X58885033Y-62558273D01*
X58890941Y-62561468D01*
X59328637Y-62794195D01*
X59368899Y-62810789D01*
X59409013Y-62827982D01*
X59415429Y-62829968D01*
X59889993Y-62973247D01*
X59932740Y-62981711D01*
X59975400Y-62990778D01*
X59982080Y-62991480D01*
X60475288Y-63039840D01*
X60498746Y-63042150D01*
X75418851Y-63042150D01*
X75841849Y-63083625D01*
X76226117Y-63199642D01*
X76580532Y-63388088D01*
X76891589Y-63641781D01*
X77147446Y-63951059D01*
X77338361Y-64304150D01*
X77457058Y-64687596D01*
X77501373Y-65109226D01*
X77501372Y-70997628D01*
X77459897Y-71420627D01*
X77343879Y-71804897D01*
X77155434Y-72159309D01*
X76901741Y-72470367D01*
X76592462Y-72726225D01*
X76239373Y-72917139D01*
X75855926Y-73035836D01*
X75434306Y-73080150D01*
X40545894Y-73080150D01*
X40122895Y-73038675D01*
X39738625Y-72922657D01*
X39384213Y-72734212D01*
X39073155Y-72480519D01*
X38817297Y-72171240D01*
X38626383Y-71818151D01*
X38507686Y-71434704D01*
X38463372Y-71013084D01*
X38463372Y-70123078D01*
X75189000Y-70123078D01*
X75189000Y-70276922D01*
X75219013Y-70427809D01*
X75277887Y-70569942D01*
X75363358Y-70697859D01*
X75472141Y-70806642D01*
X75600058Y-70892113D01*
X75742191Y-70950987D01*
X75893078Y-70981000D01*
X76046922Y-70981000D01*
X76197809Y-70950987D01*
X76339942Y-70892113D01*
X76467859Y-70806642D01*
X76576642Y-70697859D01*
X76662113Y-70569942D01*
X76720987Y-70427809D01*
X76751000Y-70276922D01*
X76751000Y-70123078D01*
X76720987Y-69972191D01*
X76662113Y-69830058D01*
X76576642Y-69702141D01*
X76467859Y-69593358D01*
X76339942Y-69507887D01*
X76197809Y-69449013D01*
X76046922Y-69419000D01*
X75893078Y-69419000D01*
X75742191Y-69449013D01*
X75600058Y-69507887D01*
X75472141Y-69593358D01*
X75363358Y-69702141D01*
X75277887Y-69830058D01*
X75219013Y-69972191D01*
X75189000Y-70123078D01*
X38463372Y-70123078D01*
X38463372Y-62178757D01*
X45049000Y-62178757D01*
X45049000Y-62421243D01*
X45096307Y-62659069D01*
X45189102Y-62883097D01*
X45323820Y-63084717D01*
X45495283Y-63256180D01*
X45696903Y-63390898D01*
X45920931Y-63483693D01*
X46158757Y-63531000D01*
X46401243Y-63531000D01*
X46639069Y-63483693D01*
X46716167Y-63451758D01*
X51654628Y-68390220D01*
X51670473Y-68409527D01*
X51747521Y-68472759D01*
X51835425Y-68519745D01*
X51930807Y-68548678D01*
X52005146Y-68556000D01*
X52005154Y-68556000D01*
X52030000Y-68558447D01*
X52054846Y-68556000D01*
X74336854Y-68556000D01*
X74418078Y-68637224D01*
X74541900Y-68719959D01*
X74679483Y-68776947D01*
X74825540Y-68806000D01*
X74974460Y-68806000D01*
X75120517Y-68776947D01*
X75258100Y-68719959D01*
X75381922Y-68637224D01*
X75487224Y-68531922D01*
X75569959Y-68408100D01*
X75626947Y-68270517D01*
X75650767Y-68150767D01*
X75770517Y-68126947D01*
X75908100Y-68069959D01*
X76031922Y-67987224D01*
X76137224Y-67881922D01*
X76219959Y-67758100D01*
X76276947Y-67620517D01*
X76306000Y-67474460D01*
X76306000Y-67325540D01*
X76276947Y-67179483D01*
X76219959Y-67041900D01*
X76137224Y-66918078D01*
X76031922Y-66812776D01*
X75937971Y-66750000D01*
X76031922Y-66687224D01*
X76137224Y-66581922D01*
X76219959Y-66458100D01*
X76276947Y-66320517D01*
X76306000Y-66174460D01*
X76306000Y-66025540D01*
X76276947Y-65879483D01*
X76219959Y-65741900D01*
X76137224Y-65618078D01*
X76031922Y-65512776D01*
X75908100Y-65430041D01*
X75770517Y-65373053D01*
X75624460Y-65344000D01*
X75475540Y-65344000D01*
X75329483Y-65373053D01*
X75191900Y-65430041D01*
X75068078Y-65512776D01*
X74962776Y-65618078D01*
X74880041Y-65741900D01*
X74823053Y-65879483D01*
X74799233Y-65999233D01*
X74679483Y-66023053D01*
X74541900Y-66080041D01*
X74418078Y-66162776D01*
X74336854Y-66244000D01*
X61848501Y-66244000D01*
X61747859Y-66143358D01*
X61619942Y-66057887D01*
X61477809Y-65999013D01*
X61326922Y-65969000D01*
X61183362Y-65969000D01*
X61132480Y-65927242D01*
X61044576Y-65880256D01*
X60949194Y-65851323D01*
X60874855Y-65844001D01*
X60874847Y-65844001D01*
X60850001Y-65841554D01*
X60825155Y-65844001D01*
X53079593Y-65844001D01*
X51758670Y-64523078D01*
X75189000Y-64523078D01*
X75189000Y-64676922D01*
X75219013Y-64827809D01*
X75277887Y-64969942D01*
X75363358Y-65097859D01*
X75472141Y-65206642D01*
X75600058Y-65292113D01*
X75742191Y-65350987D01*
X75893078Y-65381000D01*
X76046922Y-65381000D01*
X76197809Y-65350987D01*
X76339942Y-65292113D01*
X76467859Y-65206642D01*
X76576642Y-65097859D01*
X76662113Y-64969942D01*
X76720987Y-64827809D01*
X76751000Y-64676922D01*
X76751000Y-64523078D01*
X76720987Y-64372191D01*
X76662113Y-64230058D01*
X76576642Y-64102141D01*
X76467859Y-63993358D01*
X76339942Y-63907887D01*
X76197809Y-63849013D01*
X76046922Y-63819000D01*
X75893078Y-63819000D01*
X75742191Y-63849013D01*
X75600058Y-63907887D01*
X75472141Y-63993358D01*
X75363358Y-64102141D01*
X75277887Y-64230058D01*
X75219013Y-64372191D01*
X75189000Y-64523078D01*
X51758670Y-64523078D01*
X49971758Y-62736167D01*
X50003693Y-62659069D01*
X50051000Y-62421243D01*
X50051000Y-62178757D01*
X50129000Y-62178757D01*
X50129000Y-62421243D01*
X50176307Y-62659069D01*
X50269102Y-62883097D01*
X50403820Y-63084717D01*
X50575283Y-63256180D01*
X50776903Y-63390898D01*
X51000931Y-63483693D01*
X51238757Y-63531000D01*
X51481243Y-63531000D01*
X51719069Y-63483693D01*
X51943097Y-63390898D01*
X52144717Y-63256180D01*
X52316180Y-63084717D01*
X52450898Y-62883097D01*
X52543693Y-62659069D01*
X52591000Y-62421243D01*
X52591000Y-62178757D01*
X52543693Y-61940931D01*
X52450898Y-61716903D01*
X52316180Y-61515283D01*
X52250897Y-61450000D01*
X52667157Y-61450000D01*
X52667157Y-63150000D01*
X52674513Y-63224689D01*
X52696299Y-63296508D01*
X52731678Y-63362696D01*
X52779289Y-63420711D01*
X52837304Y-63468322D01*
X52903492Y-63503701D01*
X52975311Y-63525487D01*
X53050000Y-63532843D01*
X54750000Y-63532843D01*
X54824689Y-63525487D01*
X54896508Y-63503701D01*
X54962696Y-63468322D01*
X55020711Y-63420711D01*
X55068322Y-63362696D01*
X55103701Y-63296508D01*
X55125487Y-63224689D01*
X55132843Y-63150000D01*
X55132843Y-61450000D01*
X55125487Y-61375311D01*
X55103701Y-61303492D01*
X55068322Y-61237304D01*
X55020711Y-61179289D01*
X54962696Y-61131678D01*
X54896508Y-61096299D01*
X54824689Y-61074513D01*
X54750000Y-61067157D01*
X53050000Y-61067157D01*
X52975311Y-61074513D01*
X52903492Y-61096299D01*
X52837304Y-61131678D01*
X52779289Y-61179289D01*
X52731678Y-61237304D01*
X52696299Y-61303492D01*
X52674513Y-61375311D01*
X52667157Y-61450000D01*
X52250897Y-61450000D01*
X52144717Y-61343820D01*
X51943097Y-61209102D01*
X51719069Y-61116307D01*
X51481243Y-61069000D01*
X51238757Y-61069000D01*
X51000931Y-61116307D01*
X50776903Y-61209102D01*
X50575283Y-61343820D01*
X50403820Y-61515283D01*
X50269102Y-61716903D01*
X50176307Y-61940931D01*
X50129000Y-62178757D01*
X50051000Y-62178757D01*
X50003693Y-61940931D01*
X49910898Y-61716903D01*
X49776180Y-61515283D01*
X49604717Y-61343820D01*
X49403097Y-61209102D01*
X49179069Y-61116307D01*
X48941243Y-61069000D01*
X48698757Y-61069000D01*
X48460931Y-61116307D01*
X48236903Y-61209102D01*
X48035283Y-61343820D01*
X47863820Y-61515283D01*
X47729102Y-61716903D01*
X47636307Y-61940931D01*
X47589000Y-62178757D01*
X47589000Y-62421243D01*
X47636307Y-62659069D01*
X47729102Y-62883097D01*
X47863820Y-63084717D01*
X48035283Y-63256180D01*
X48236903Y-63390898D01*
X48460931Y-63483693D01*
X48698757Y-63531000D01*
X48941243Y-63531000D01*
X49179069Y-63483693D01*
X49256167Y-63451758D01*
X52494629Y-66690221D01*
X52510474Y-66709528D01*
X52587522Y-66772760D01*
X52675426Y-66819746D01*
X52748608Y-66841945D01*
X52770807Y-66848679D01*
X52780695Y-66849653D01*
X52845147Y-66856001D01*
X52845154Y-66856001D01*
X52870000Y-66858448D01*
X52894846Y-66856001D01*
X53255719Y-66856001D01*
X53249013Y-66872191D01*
X53219000Y-67023078D01*
X53219000Y-67176922D01*
X53249013Y-67327809D01*
X53307887Y-67469942D01*
X53357371Y-67544000D01*
X52239592Y-67544000D01*
X47431758Y-62736167D01*
X47463693Y-62659069D01*
X47511000Y-62421243D01*
X47511000Y-62178757D01*
X47463693Y-61940931D01*
X47370898Y-61716903D01*
X47236180Y-61515283D01*
X47064717Y-61343820D01*
X46863097Y-61209102D01*
X46639069Y-61116307D01*
X46401243Y-61069000D01*
X46158757Y-61069000D01*
X45920931Y-61116307D01*
X45696903Y-61209102D01*
X45495283Y-61343820D01*
X45323820Y-61515283D01*
X45189102Y-61716903D01*
X45096307Y-61940931D01*
X45049000Y-62178757D01*
X38463372Y-62178757D01*
X38463372Y-55188606D01*
X46269000Y-55188606D01*
X46269000Y-55411394D01*
X46312464Y-55629900D01*
X46397721Y-55835729D01*
X46521495Y-56020970D01*
X46679030Y-56178505D01*
X46864271Y-56302279D01*
X47070100Y-56387536D01*
X47288606Y-56431000D01*
X47511394Y-56431000D01*
X47729900Y-56387536D01*
X47935729Y-56302279D01*
X48120970Y-56178505D01*
X48278505Y-56020970D01*
X48393073Y-55849507D01*
X48397721Y-55860729D01*
X48521495Y-56045970D01*
X48679030Y-56203505D01*
X48864271Y-56327279D01*
X49070100Y-56412536D01*
X49288606Y-56456000D01*
X49511394Y-56456000D01*
X49729900Y-56412536D01*
X49935729Y-56327279D01*
X50120970Y-56203505D01*
X50278505Y-56045970D01*
X50402279Y-55860729D01*
X50487536Y-55654900D01*
X50531000Y-55436394D01*
X50531000Y-55213606D01*
X50524099Y-55178908D01*
X50569000Y-55178908D01*
X50569000Y-55441092D01*
X50620150Y-55698238D01*
X50720483Y-55940465D01*
X50866145Y-56158463D01*
X51051537Y-56343855D01*
X51269535Y-56489517D01*
X51511762Y-56589850D01*
X51768908Y-56641000D01*
X52031092Y-56641000D01*
X52288238Y-56589850D01*
X52530465Y-56489517D01*
X52748463Y-56343855D01*
X52933855Y-56158463D01*
X53079517Y-55940465D01*
X53179850Y-55698238D01*
X53231000Y-55441092D01*
X53231000Y-55178908D01*
X53179850Y-54921762D01*
X53079517Y-54679535D01*
X52933855Y-54461537D01*
X52748463Y-54276145D01*
X52530465Y-54130483D01*
X52288238Y-54030150D01*
X52031092Y-53979000D01*
X51768908Y-53979000D01*
X51511762Y-54030150D01*
X51269535Y-54130483D01*
X51051537Y-54276145D01*
X50866145Y-54461537D01*
X50720483Y-54679535D01*
X50620150Y-54921762D01*
X50569000Y-55178908D01*
X50524099Y-55178908D01*
X50487536Y-54995100D01*
X50402279Y-54789271D01*
X50278505Y-54604030D01*
X50120970Y-54446495D01*
X49935729Y-54322721D01*
X49729900Y-54237464D01*
X49511394Y-54194000D01*
X49288606Y-54194000D01*
X49070100Y-54237464D01*
X48864271Y-54322721D01*
X48679030Y-54446495D01*
X48521495Y-54604030D01*
X48406927Y-54775493D01*
X48402279Y-54764271D01*
X48278505Y-54579030D01*
X48120970Y-54421495D01*
X47935729Y-54297721D01*
X47729900Y-54212464D01*
X47511394Y-54169000D01*
X47288606Y-54169000D01*
X47070100Y-54212464D01*
X46864271Y-54297721D01*
X46679030Y-54421495D01*
X46521495Y-54579030D01*
X46397721Y-54764271D01*
X46312464Y-54970100D01*
X46269000Y-55188606D01*
X38463372Y-55188606D01*
X38463372Y-54624671D01*
X38504847Y-54201673D01*
X38620864Y-53817405D01*
X38809310Y-53462990D01*
X39063003Y-53151933D01*
X39372281Y-52896076D01*
X39725372Y-52705161D01*
X40108818Y-52586464D01*
X40530438Y-52542150D01*
X55418851Y-52542150D01*
X55841849Y-52583625D01*
G37*
X55841849Y-52583625D02*
X56226117Y-52699642D01*
X56580532Y-52888088D01*
X56891589Y-53141781D01*
X57147446Y-53451059D01*
X57338361Y-53804150D01*
X57457058Y-54187596D01*
X57501373Y-54609226D01*
X57501372Y-60044775D01*
X57503525Y-60066630D01*
X57503414Y-60082476D01*
X57504069Y-60089160D01*
X57555886Y-60582167D01*
X57564645Y-60624835D01*
X57572821Y-60667694D01*
X57574762Y-60674124D01*
X57721351Y-61147676D01*
X57738244Y-61187862D01*
X57754576Y-61228285D01*
X57757729Y-61234215D01*
X57993506Y-61670276D01*
X58017866Y-61706390D01*
X58041755Y-61742896D01*
X58046000Y-61748100D01*
X58361984Y-62130060D01*
X58392900Y-62160761D01*
X58423420Y-62191927D01*
X58428595Y-62196208D01*
X58812751Y-62509518D01*
X58849056Y-62533639D01*
X58885033Y-62558273D01*
X58890941Y-62561468D01*
X59328637Y-62794195D01*
X59368899Y-62810789D01*
X59409013Y-62827982D01*
X59415429Y-62829968D01*
X59889993Y-62973247D01*
X59932740Y-62981711D01*
X59975400Y-62990778D01*
X59982080Y-62991480D01*
X60475288Y-63039840D01*
X60498746Y-63042150D01*
X75418851Y-63042150D01*
X75841849Y-63083625D01*
X76226117Y-63199642D01*
X76580532Y-63388088D01*
X76891589Y-63641781D01*
X77147446Y-63951059D01*
X77338361Y-64304150D01*
X77457058Y-64687596D01*
X77501373Y-65109226D01*
X77501372Y-70997628D01*
X77459897Y-71420627D01*
X77343879Y-71804897D01*
X77155434Y-72159309D01*
X76901741Y-72470367D01*
X76592462Y-72726225D01*
X76239373Y-72917139D01*
X75855926Y-73035836D01*
X75434306Y-73080150D01*
X40545894Y-73080150D01*
X40122895Y-73038675D01*
X39738625Y-72922657D01*
X39384213Y-72734212D01*
X39073155Y-72480519D01*
X38817297Y-72171240D01*
X38626383Y-71818151D01*
X38507686Y-71434704D01*
X38463372Y-71013084D01*
X38463372Y-70123078D01*
X75189000Y-70123078D01*
X75189000Y-70276922D01*
X75219013Y-70427809D01*
X75277887Y-70569942D01*
X75363358Y-70697859D01*
X75472141Y-70806642D01*
X75600058Y-70892113D01*
X75742191Y-70950987D01*
X75893078Y-70981000D01*
X76046922Y-70981000D01*
X76197809Y-70950987D01*
X76339942Y-70892113D01*
X76467859Y-70806642D01*
X76576642Y-70697859D01*
X76662113Y-70569942D01*
X76720987Y-70427809D01*
X76751000Y-70276922D01*
X76751000Y-70123078D01*
X76720987Y-69972191D01*
X76662113Y-69830058D01*
X76576642Y-69702141D01*
X76467859Y-69593358D01*
X76339942Y-69507887D01*
X76197809Y-69449013D01*
X76046922Y-69419000D01*
X75893078Y-69419000D01*
X75742191Y-69449013D01*
X75600058Y-69507887D01*
X75472141Y-69593358D01*
X75363358Y-69702141D01*
X75277887Y-69830058D01*
X75219013Y-69972191D01*
X75189000Y-70123078D01*
X38463372Y-70123078D01*
X38463372Y-62178757D01*
X45049000Y-62178757D01*
X45049000Y-62421243D01*
X45096307Y-62659069D01*
X45189102Y-62883097D01*
X45323820Y-63084717D01*
X45495283Y-63256180D01*
X45696903Y-63390898D01*
X45920931Y-63483693D01*
X46158757Y-63531000D01*
X46401243Y-63531000D01*
X46639069Y-63483693D01*
X46716167Y-63451758D01*
X51654628Y-68390220D01*
X51670473Y-68409527D01*
X51747521Y-68472759D01*
X51835425Y-68519745D01*
X51930807Y-68548678D01*
X52005146Y-68556000D01*
X52005154Y-68556000D01*
X52030000Y-68558447D01*
X52054846Y-68556000D01*
X74336854Y-68556000D01*
X74418078Y-68637224D01*
X74541900Y-68719959D01*
X74679483Y-68776947D01*
X74825540Y-68806000D01*
X74974460Y-68806000D01*
X75120517Y-68776947D01*
X75258100Y-68719959D01*
X75381922Y-68637224D01*
X75487224Y-68531922D01*
X75569959Y-68408100D01*
X75626947Y-68270517D01*
X75650767Y-68150767D01*
X75770517Y-68126947D01*
X75908100Y-68069959D01*
X76031922Y-67987224D01*
X76137224Y-67881922D01*
X76219959Y-67758100D01*
X76276947Y-67620517D01*
X76306000Y-67474460D01*
X76306000Y-67325540D01*
X76276947Y-67179483D01*
X76219959Y-67041900D01*
X76137224Y-66918078D01*
X76031922Y-66812776D01*
X75937971Y-66750000D01*
X76031922Y-66687224D01*
X76137224Y-66581922D01*
X76219959Y-66458100D01*
X76276947Y-66320517D01*
X76306000Y-66174460D01*
X76306000Y-66025540D01*
X76276947Y-65879483D01*
X76219959Y-65741900D01*
X76137224Y-65618078D01*
X76031922Y-65512776D01*
X75908100Y-65430041D01*
X75770517Y-65373053D01*
X75624460Y-65344000D01*
X75475540Y-65344000D01*
X75329483Y-65373053D01*
X75191900Y-65430041D01*
X75068078Y-65512776D01*
X74962776Y-65618078D01*
X74880041Y-65741900D01*
X74823053Y-65879483D01*
X74799233Y-65999233D01*
X74679483Y-66023053D01*
X74541900Y-66080041D01*
X74418078Y-66162776D01*
X74336854Y-66244000D01*
X61848501Y-66244000D01*
X61747859Y-66143358D01*
X61619942Y-66057887D01*
X61477809Y-65999013D01*
X61326922Y-65969000D01*
X61183362Y-65969000D01*
X61132480Y-65927242D01*
X61044576Y-65880256D01*
X60949194Y-65851323D01*
X60874855Y-65844001D01*
X60874847Y-65844001D01*
X60850001Y-65841554D01*
X60825155Y-65844001D01*
X53079593Y-65844001D01*
X51758670Y-64523078D01*
X75189000Y-64523078D01*
X75189000Y-64676922D01*
X75219013Y-64827809D01*
X75277887Y-64969942D01*
X75363358Y-65097859D01*
X75472141Y-65206642D01*
X75600058Y-65292113D01*
X75742191Y-65350987D01*
X75893078Y-65381000D01*
X76046922Y-65381000D01*
X76197809Y-65350987D01*
X76339942Y-65292113D01*
X76467859Y-65206642D01*
X76576642Y-65097859D01*
X76662113Y-64969942D01*
X76720987Y-64827809D01*
X76751000Y-64676922D01*
X76751000Y-64523078D01*
X76720987Y-64372191D01*
X76662113Y-64230058D01*
X76576642Y-64102141D01*
X76467859Y-63993358D01*
X76339942Y-63907887D01*
X76197809Y-63849013D01*
X76046922Y-63819000D01*
X75893078Y-63819000D01*
X75742191Y-63849013D01*
X75600058Y-63907887D01*
X75472141Y-63993358D01*
X75363358Y-64102141D01*
X75277887Y-64230058D01*
X75219013Y-64372191D01*
X75189000Y-64523078D01*
X51758670Y-64523078D01*
X49971758Y-62736167D01*
X50003693Y-62659069D01*
X50051000Y-62421243D01*
X50051000Y-62178757D01*
X50129000Y-62178757D01*
X50129000Y-62421243D01*
X50176307Y-62659069D01*
X50269102Y-62883097D01*
X50403820Y-63084717D01*
X50575283Y-63256180D01*
X50776903Y-63390898D01*
X51000931Y-63483693D01*
X51238757Y-63531000D01*
X51481243Y-63531000D01*
X51719069Y-63483693D01*
X51943097Y-63390898D01*
X52144717Y-63256180D01*
X52316180Y-63084717D01*
X52450898Y-62883097D01*
X52543693Y-62659069D01*
X52591000Y-62421243D01*
X52591000Y-62178757D01*
X52543693Y-61940931D01*
X52450898Y-61716903D01*
X52316180Y-61515283D01*
X52250897Y-61450000D01*
X52667157Y-61450000D01*
X52667157Y-63150000D01*
X52674513Y-63224689D01*
X52696299Y-63296508D01*
X52731678Y-63362696D01*
X52779289Y-63420711D01*
X52837304Y-63468322D01*
X52903492Y-63503701D01*
X52975311Y-63525487D01*
X53050000Y-63532843D01*
X54750000Y-63532843D01*
X54824689Y-63525487D01*
X54896508Y-63503701D01*
X54962696Y-63468322D01*
X55020711Y-63420711D01*
X55068322Y-63362696D01*
X55103701Y-63296508D01*
X55125487Y-63224689D01*
X55132843Y-63150000D01*
X55132843Y-61450000D01*
X55125487Y-61375311D01*
X55103701Y-61303492D01*
X55068322Y-61237304D01*
X55020711Y-61179289D01*
X54962696Y-61131678D01*
X54896508Y-61096299D01*
X54824689Y-61074513D01*
X54750000Y-61067157D01*
X53050000Y-61067157D01*
X52975311Y-61074513D01*
X52903492Y-61096299D01*
X52837304Y-61131678D01*
X52779289Y-61179289D01*
X52731678Y-61237304D01*
X52696299Y-61303492D01*
X52674513Y-61375311D01*
X52667157Y-61450000D01*
X52250897Y-61450000D01*
X52144717Y-61343820D01*
X51943097Y-61209102D01*
X51719069Y-61116307D01*
X51481243Y-61069000D01*
X51238757Y-61069000D01*
X51000931Y-61116307D01*
X50776903Y-61209102D01*
X50575283Y-61343820D01*
X50403820Y-61515283D01*
X50269102Y-61716903D01*
X50176307Y-61940931D01*
X50129000Y-62178757D01*
X50051000Y-62178757D01*
X50003693Y-61940931D01*
X49910898Y-61716903D01*
X49776180Y-61515283D01*
X49604717Y-61343820D01*
X49403097Y-61209102D01*
X49179069Y-61116307D01*
X48941243Y-61069000D01*
X48698757Y-61069000D01*
X48460931Y-61116307D01*
X48236903Y-61209102D01*
X48035283Y-61343820D01*
X47863820Y-61515283D01*
X47729102Y-61716903D01*
X47636307Y-61940931D01*
X47589000Y-62178757D01*
X47589000Y-62421243D01*
X47636307Y-62659069D01*
X47729102Y-62883097D01*
X47863820Y-63084717D01*
X48035283Y-63256180D01*
X48236903Y-63390898D01*
X48460931Y-63483693D01*
X48698757Y-63531000D01*
X48941243Y-63531000D01*
X49179069Y-63483693D01*
X49256167Y-63451758D01*
X52494629Y-66690221D01*
X52510474Y-66709528D01*
X52587522Y-66772760D01*
X52675426Y-66819746D01*
X52748608Y-66841945D01*
X52770807Y-66848679D01*
X52780695Y-66849653D01*
X52845147Y-66856001D01*
X52845154Y-66856001D01*
X52870000Y-66858448D01*
X52894846Y-66856001D01*
X53255719Y-66856001D01*
X53249013Y-66872191D01*
X53219000Y-67023078D01*
X53219000Y-67176922D01*
X53249013Y-67327809D01*
X53307887Y-67469942D01*
X53357371Y-67544000D01*
X52239592Y-67544000D01*
X47431758Y-62736167D01*
X47463693Y-62659069D01*
X47511000Y-62421243D01*
X47511000Y-62178757D01*
X47463693Y-61940931D01*
X47370898Y-61716903D01*
X47236180Y-61515283D01*
X47064717Y-61343820D01*
X46863097Y-61209102D01*
X46639069Y-61116307D01*
X46401243Y-61069000D01*
X46158757Y-61069000D01*
X45920931Y-61116307D01*
X45696903Y-61209102D01*
X45495283Y-61343820D01*
X45323820Y-61515283D01*
X45189102Y-61716903D01*
X45096307Y-61940931D01*
X45049000Y-62178757D01*
X38463372Y-62178757D01*
X38463372Y-55188606D01*
X46269000Y-55188606D01*
X46269000Y-55411394D01*
X46312464Y-55629900D01*
X46397721Y-55835729D01*
X46521495Y-56020970D01*
X46679030Y-56178505D01*
X46864271Y-56302279D01*
X47070100Y-56387536D01*
X47288606Y-56431000D01*
X47511394Y-56431000D01*
X47729900Y-56387536D01*
X47935729Y-56302279D01*
X48120970Y-56178505D01*
X48278505Y-56020970D01*
X48393073Y-55849507D01*
X48397721Y-55860729D01*
X48521495Y-56045970D01*
X48679030Y-56203505D01*
X48864271Y-56327279D01*
X49070100Y-56412536D01*
X49288606Y-56456000D01*
X49511394Y-56456000D01*
X49729900Y-56412536D01*
X49935729Y-56327279D01*
X50120970Y-56203505D01*
X50278505Y-56045970D01*
X50402279Y-55860729D01*
X50487536Y-55654900D01*
X50531000Y-55436394D01*
X50531000Y-55213606D01*
X50524099Y-55178908D01*
X50569000Y-55178908D01*
X50569000Y-55441092D01*
X50620150Y-55698238D01*
X50720483Y-55940465D01*
X50866145Y-56158463D01*
X51051537Y-56343855D01*
X51269535Y-56489517D01*
X51511762Y-56589850D01*
X51768908Y-56641000D01*
X52031092Y-56641000D01*
X52288238Y-56589850D01*
X52530465Y-56489517D01*
X52748463Y-56343855D01*
X52933855Y-56158463D01*
X53079517Y-55940465D01*
X53179850Y-55698238D01*
X53231000Y-55441092D01*
X53231000Y-55178908D01*
X53179850Y-54921762D01*
X53079517Y-54679535D01*
X52933855Y-54461537D01*
X52748463Y-54276145D01*
X52530465Y-54130483D01*
X52288238Y-54030150D01*
X52031092Y-53979000D01*
X51768908Y-53979000D01*
X51511762Y-54030150D01*
X51269535Y-54130483D01*
X51051537Y-54276145D01*
X50866145Y-54461537D01*
X50720483Y-54679535D01*
X50620150Y-54921762D01*
X50569000Y-55178908D01*
X50524099Y-55178908D01*
X50487536Y-54995100D01*
X50402279Y-54789271D01*
X50278505Y-54604030D01*
X50120970Y-54446495D01*
X49935729Y-54322721D01*
X49729900Y-54237464D01*
X49511394Y-54194000D01*
X49288606Y-54194000D01*
X49070100Y-54237464D01*
X48864271Y-54322721D01*
X48679030Y-54446495D01*
X48521495Y-54604030D01*
X48406927Y-54775493D01*
X48402279Y-54764271D01*
X48278505Y-54579030D01*
X48120970Y-54421495D01*
X47935729Y-54297721D01*
X47729900Y-54212464D01*
X47511394Y-54169000D01*
X47288606Y-54169000D01*
X47070100Y-54212464D01*
X46864271Y-54297721D01*
X46679030Y-54421495D01*
X46521495Y-54579030D01*
X46397721Y-54764271D01*
X46312464Y-54970100D01*
X46269000Y-55188606D01*
X38463372Y-55188606D01*
X38463372Y-54624671D01*
X38504847Y-54201673D01*
X38620864Y-53817405D01*
X38809310Y-53462990D01*
X39063003Y-53151933D01*
X39372281Y-52896076D01*
X39725372Y-52705161D01*
X40108818Y-52586464D01*
X40530438Y-52542150D01*
X55418851Y-52542150D01*
X55841849Y-52583625D01*
%TD*%
M02*
