%TF.GenerationSoftware,KiCad,Pcbnew,(5.1.6)-1*%
%TF.CreationDate,2020-10-03T11:43:52-07:00*%
%TF.ProjectId,SJ-202-USB-Jumper,534a2d32-3032-42d5-9553-422d4a756d70,rev?*%
%TF.SameCoordinates,Original*%
%TF.FileFunction,Copper,L1,Top*%
%TF.FilePolarity,Positive*%
%FSLAX46Y46*%
G04 Gerber Fmt 4.6, Leading zero omitted, Abs format (unit mm)*
G04 Created by KiCad (PCBNEW (5.1.6)-1) date 2020-10-03 11:43:52*
%MOMM*%
%LPD*%
G01*
G04 APERTURE LIST*
%TA.AperFunction,SMDPad,CuDef*%
%ADD10R,3.300000X1.600000*%
%TD*%
%TA.AperFunction,ComponentPad*%
%ADD11C,1.900000*%
%TD*%
%TA.AperFunction,ComponentPad*%
%ADD12C,1.600000*%
%TD*%
%TA.AperFunction,ComponentPad*%
%ADD13O,1.700000X1.700000*%
%TD*%
%TA.AperFunction,ComponentPad*%
%ADD14R,1.700000X1.700000*%
%TD*%
%TA.AperFunction,Conductor*%
%ADD15C,0.500000*%
%TD*%
%TA.AperFunction,Conductor*%
%ADD16C,0.254000*%
%TD*%
G04 APERTURE END LIST*
D10*
%TO.P,J1,5*%
%TO.N,GND*%
X29650000Y-60205500D03*
D11*
%TO.P,J1,4*%
X26150000Y-56010000D03*
D12*
%TO.P,J1,3*%
%TO.N,/D+*%
X28650000Y-56000000D03*
%TO.P,J1,2*%
%TO.N,/D-*%
X30650000Y-56025000D03*
D11*
%TO.P,J1,1*%
%TO.N,+5V*%
X33150000Y-56010000D03*
D10*
%TO.P,J1,5*%
%TO.N,GND*%
X23080000Y-54300000D03*
X36220000Y-54300000D03*
%TD*%
D13*
%TO.P,J4,4*%
%TO.N,GND*%
X74300000Y-74920000D03*
%TO.P,J4,3*%
%TO.N,/D-*%
X74300000Y-72380000D03*
%TO.P,J4,2*%
%TO.N,/D+*%
X74300000Y-69840000D03*
D14*
%TO.P,J4,1*%
%TO.N,/5vJump*%
X74300000Y-67300000D03*
%TD*%
D15*
%TO.N,/D-*%
X47005000Y-72380000D02*
X30650000Y-56025000D01*
X74300000Y-72880000D02*
X73800000Y-72380000D01*
X73800000Y-72380000D02*
X47005000Y-72380000D01*
%TD*%
D16*
%TO.N,GND*%
G36*
X36341849Y-52583625D02*
G01*
X36726117Y-52699642D01*
X37080532Y-52888088D01*
X37391589Y-53141781D01*
X37647446Y-53451059D01*
X37838361Y-53804150D01*
X37957058Y-54187596D01*
X38001392Y-54609404D01*
X38019060Y-61774812D01*
X38021152Y-61795531D01*
X38021042Y-61811326D01*
X38021697Y-61818010D01*
X38073514Y-62311017D01*
X38082273Y-62353685D01*
X38090449Y-62396544D01*
X38092390Y-62402974D01*
X38169525Y-62652157D01*
X32818505Y-57301137D01*
X33018908Y-57341000D01*
X33281092Y-57341000D01*
X33538238Y-57289850D01*
X33780465Y-57189517D01*
X33998463Y-57043855D01*
X34183855Y-56858463D01*
X34329517Y-56640465D01*
X34429850Y-56398238D01*
X34481000Y-56141092D01*
X34481000Y-55878908D01*
X34429850Y-55621762D01*
X34329517Y-55379535D01*
X34183855Y-55161537D01*
X33998463Y-54976145D01*
X33780465Y-54830483D01*
X33538238Y-54730150D01*
X33281092Y-54679000D01*
X33018908Y-54679000D01*
X32761762Y-54730150D01*
X32519535Y-54830483D01*
X32301537Y-54976145D01*
X32116145Y-55161537D01*
X31970483Y-55379535D01*
X31870150Y-55621762D01*
X31822039Y-55863631D01*
X31785614Y-55680515D01*
X31696588Y-55465587D01*
X31567342Y-55272157D01*
X31402843Y-55107658D01*
X31209413Y-54978412D01*
X30994485Y-54889386D01*
X30766318Y-54844000D01*
X30533682Y-54844000D01*
X30305515Y-54889386D01*
X30090587Y-54978412D01*
X29897157Y-55107658D01*
X29732658Y-55272157D01*
X29658352Y-55383363D01*
X29567342Y-55247157D01*
X29402843Y-55082658D01*
X29209413Y-54953412D01*
X28994485Y-54864386D01*
X28766318Y-54819000D01*
X28533682Y-54819000D01*
X28305515Y-54864386D01*
X28090587Y-54953412D01*
X27897157Y-55082658D01*
X27732658Y-55247157D01*
X27603412Y-55440587D01*
X27514386Y-55655515D01*
X27469000Y-55883682D01*
X27469000Y-56116318D01*
X27514386Y-56344485D01*
X27603412Y-56559413D01*
X27732658Y-56752843D01*
X27897157Y-56917342D01*
X28090587Y-57046588D01*
X28305515Y-57135614D01*
X28533682Y-57181000D01*
X28766318Y-57181000D01*
X28994485Y-57135614D01*
X29209413Y-57046588D01*
X29402843Y-56917342D01*
X29567342Y-56752843D01*
X29641648Y-56641637D01*
X29732658Y-56777843D01*
X29897157Y-56942342D01*
X30090587Y-57071588D01*
X30305515Y-57160614D01*
X30533682Y-57206000D01*
X30766318Y-57206000D01*
X30910043Y-57177411D01*
X46536899Y-72804268D01*
X46556657Y-72828343D01*
X46652739Y-72907196D01*
X46762358Y-72965789D01*
X46881302Y-73001870D01*
X46974002Y-73011000D01*
X46974009Y-73011000D01*
X47005000Y-73014052D01*
X47035990Y-73011000D01*
X73241110Y-73011000D01*
X73343820Y-73164717D01*
X73515283Y-73336180D01*
X73716903Y-73470898D01*
X73940931Y-73563693D01*
X74178757Y-73611000D01*
X74421243Y-73611000D01*
X74659069Y-73563693D01*
X74883097Y-73470898D01*
X75084717Y-73336180D01*
X75256180Y-73164717D01*
X75390898Y-72963097D01*
X75483693Y-72739069D01*
X75531000Y-72501243D01*
X75531000Y-72258757D01*
X75483693Y-72020931D01*
X75390898Y-71796903D01*
X75256180Y-71595283D01*
X75084717Y-71423820D01*
X74883097Y-71289102D01*
X74659069Y-71196307D01*
X74421243Y-71149000D01*
X74178757Y-71149000D01*
X73940931Y-71196307D01*
X73716903Y-71289102D01*
X73515283Y-71423820D01*
X73343820Y-71595283D01*
X73241110Y-71749000D01*
X47266369Y-71749000D01*
X45236126Y-69718757D01*
X73069000Y-69718757D01*
X73069000Y-69961243D01*
X73116307Y-70199069D01*
X73209102Y-70423097D01*
X73343820Y-70624717D01*
X73515283Y-70796180D01*
X73716903Y-70930898D01*
X73940931Y-71023693D01*
X74178757Y-71071000D01*
X74421243Y-71071000D01*
X74659069Y-71023693D01*
X74883097Y-70930898D01*
X75084717Y-70796180D01*
X75256180Y-70624717D01*
X75390898Y-70423097D01*
X75483693Y-70199069D01*
X75531000Y-69961243D01*
X75531000Y-69718757D01*
X75483693Y-69480931D01*
X75390898Y-69256903D01*
X75256180Y-69055283D01*
X75084717Y-68883820D01*
X74883097Y-68749102D01*
X74659069Y-68656307D01*
X74421243Y-68609000D01*
X74178757Y-68609000D01*
X73940931Y-68656307D01*
X73716903Y-68749102D01*
X73515283Y-68883820D01*
X73343820Y-69055283D01*
X73209102Y-69256903D01*
X73116307Y-69480931D01*
X73069000Y-69718757D01*
X45236126Y-69718757D01*
X41967369Y-66450000D01*
X73067157Y-66450000D01*
X73067157Y-68150000D01*
X73074513Y-68224689D01*
X73096299Y-68296508D01*
X73131678Y-68362696D01*
X73179289Y-68420711D01*
X73237304Y-68468322D01*
X73303492Y-68503701D01*
X73375311Y-68525487D01*
X73450000Y-68532843D01*
X75150000Y-68532843D01*
X75224689Y-68525487D01*
X75296508Y-68503701D01*
X75362696Y-68468322D01*
X75420711Y-68420711D01*
X75468322Y-68362696D01*
X75503701Y-68296508D01*
X75525487Y-68224689D01*
X75532843Y-68150000D01*
X75532843Y-66450000D01*
X75525487Y-66375311D01*
X75503701Y-66303492D01*
X75468322Y-66237304D01*
X75420711Y-66179289D01*
X75362696Y-66131678D01*
X75296508Y-66096299D01*
X75224689Y-66074513D01*
X75150000Y-66067157D01*
X73450000Y-66067157D01*
X73375311Y-66074513D01*
X73303492Y-66096299D01*
X73237304Y-66131678D01*
X73179289Y-66179289D01*
X73131678Y-66237304D01*
X73096299Y-66303492D01*
X73074513Y-66375311D01*
X73067157Y-66450000D01*
X41967369Y-66450000D01*
X40138089Y-64620721D01*
X40407621Y-64702097D01*
X40450368Y-64710561D01*
X40493028Y-64719628D01*
X40499708Y-64720330D01*
X40993063Y-64768704D01*
X40993068Y-64768704D01*
X41016070Y-64770984D01*
X74468691Y-64792134D01*
X74891849Y-64833625D01*
X75276117Y-64949642D01*
X75630532Y-65138088D01*
X75941589Y-65391781D01*
X76197446Y-65701059D01*
X76388361Y-66054150D01*
X76507058Y-66437596D01*
X76551388Y-66859364D01*
X76568955Y-75826940D01*
X76527525Y-76249477D01*
X76411507Y-76633747D01*
X76223062Y-76988159D01*
X75969369Y-77299217D01*
X75660090Y-77555075D01*
X75307001Y-77745989D01*
X74923554Y-77864686D01*
X74501934Y-77909000D01*
X23513522Y-77909000D01*
X23090523Y-77867525D01*
X22706253Y-77751507D01*
X22351841Y-77563062D01*
X22040783Y-77309369D01*
X21784925Y-77000090D01*
X21594011Y-76647001D01*
X21475314Y-76263554D01*
X21430975Y-75841699D01*
X21363447Y-54623911D01*
X21404847Y-54201673D01*
X21520864Y-53817405D01*
X21709310Y-53462990D01*
X21963003Y-53151933D01*
X22272281Y-52896076D01*
X22625372Y-52705161D01*
X23008818Y-52586464D01*
X23430438Y-52542150D01*
X35918851Y-52542150D01*
X36341849Y-52583625D01*
G37*
X36341849Y-52583625D02*
X36726117Y-52699642D01*
X37080532Y-52888088D01*
X37391589Y-53141781D01*
X37647446Y-53451059D01*
X37838361Y-53804150D01*
X37957058Y-54187596D01*
X38001392Y-54609404D01*
X38019060Y-61774812D01*
X38021152Y-61795531D01*
X38021042Y-61811326D01*
X38021697Y-61818010D01*
X38073514Y-62311017D01*
X38082273Y-62353685D01*
X38090449Y-62396544D01*
X38092390Y-62402974D01*
X38169525Y-62652157D01*
X32818505Y-57301137D01*
X33018908Y-57341000D01*
X33281092Y-57341000D01*
X33538238Y-57289850D01*
X33780465Y-57189517D01*
X33998463Y-57043855D01*
X34183855Y-56858463D01*
X34329517Y-56640465D01*
X34429850Y-56398238D01*
X34481000Y-56141092D01*
X34481000Y-55878908D01*
X34429850Y-55621762D01*
X34329517Y-55379535D01*
X34183855Y-55161537D01*
X33998463Y-54976145D01*
X33780465Y-54830483D01*
X33538238Y-54730150D01*
X33281092Y-54679000D01*
X33018908Y-54679000D01*
X32761762Y-54730150D01*
X32519535Y-54830483D01*
X32301537Y-54976145D01*
X32116145Y-55161537D01*
X31970483Y-55379535D01*
X31870150Y-55621762D01*
X31822039Y-55863631D01*
X31785614Y-55680515D01*
X31696588Y-55465587D01*
X31567342Y-55272157D01*
X31402843Y-55107658D01*
X31209413Y-54978412D01*
X30994485Y-54889386D01*
X30766318Y-54844000D01*
X30533682Y-54844000D01*
X30305515Y-54889386D01*
X30090587Y-54978412D01*
X29897157Y-55107658D01*
X29732658Y-55272157D01*
X29658352Y-55383363D01*
X29567342Y-55247157D01*
X29402843Y-55082658D01*
X29209413Y-54953412D01*
X28994485Y-54864386D01*
X28766318Y-54819000D01*
X28533682Y-54819000D01*
X28305515Y-54864386D01*
X28090587Y-54953412D01*
X27897157Y-55082658D01*
X27732658Y-55247157D01*
X27603412Y-55440587D01*
X27514386Y-55655515D01*
X27469000Y-55883682D01*
X27469000Y-56116318D01*
X27514386Y-56344485D01*
X27603412Y-56559413D01*
X27732658Y-56752843D01*
X27897157Y-56917342D01*
X28090587Y-57046588D01*
X28305515Y-57135614D01*
X28533682Y-57181000D01*
X28766318Y-57181000D01*
X28994485Y-57135614D01*
X29209413Y-57046588D01*
X29402843Y-56917342D01*
X29567342Y-56752843D01*
X29641648Y-56641637D01*
X29732658Y-56777843D01*
X29897157Y-56942342D01*
X30090587Y-57071588D01*
X30305515Y-57160614D01*
X30533682Y-57206000D01*
X30766318Y-57206000D01*
X30910043Y-57177411D01*
X46536899Y-72804268D01*
X46556657Y-72828343D01*
X46652739Y-72907196D01*
X46762358Y-72965789D01*
X46881302Y-73001870D01*
X46974002Y-73011000D01*
X46974009Y-73011000D01*
X47005000Y-73014052D01*
X47035990Y-73011000D01*
X73241110Y-73011000D01*
X73343820Y-73164717D01*
X73515283Y-73336180D01*
X73716903Y-73470898D01*
X73940931Y-73563693D01*
X74178757Y-73611000D01*
X74421243Y-73611000D01*
X74659069Y-73563693D01*
X74883097Y-73470898D01*
X75084717Y-73336180D01*
X75256180Y-73164717D01*
X75390898Y-72963097D01*
X75483693Y-72739069D01*
X75531000Y-72501243D01*
X75531000Y-72258757D01*
X75483693Y-72020931D01*
X75390898Y-71796903D01*
X75256180Y-71595283D01*
X75084717Y-71423820D01*
X74883097Y-71289102D01*
X74659069Y-71196307D01*
X74421243Y-71149000D01*
X74178757Y-71149000D01*
X73940931Y-71196307D01*
X73716903Y-71289102D01*
X73515283Y-71423820D01*
X73343820Y-71595283D01*
X73241110Y-71749000D01*
X47266369Y-71749000D01*
X45236126Y-69718757D01*
X73069000Y-69718757D01*
X73069000Y-69961243D01*
X73116307Y-70199069D01*
X73209102Y-70423097D01*
X73343820Y-70624717D01*
X73515283Y-70796180D01*
X73716903Y-70930898D01*
X73940931Y-71023693D01*
X74178757Y-71071000D01*
X74421243Y-71071000D01*
X74659069Y-71023693D01*
X74883097Y-70930898D01*
X75084717Y-70796180D01*
X75256180Y-70624717D01*
X75390898Y-70423097D01*
X75483693Y-70199069D01*
X75531000Y-69961243D01*
X75531000Y-69718757D01*
X75483693Y-69480931D01*
X75390898Y-69256903D01*
X75256180Y-69055283D01*
X75084717Y-68883820D01*
X74883097Y-68749102D01*
X74659069Y-68656307D01*
X74421243Y-68609000D01*
X74178757Y-68609000D01*
X73940931Y-68656307D01*
X73716903Y-68749102D01*
X73515283Y-68883820D01*
X73343820Y-69055283D01*
X73209102Y-69256903D01*
X73116307Y-69480931D01*
X73069000Y-69718757D01*
X45236126Y-69718757D01*
X41967369Y-66450000D01*
X73067157Y-66450000D01*
X73067157Y-68150000D01*
X73074513Y-68224689D01*
X73096299Y-68296508D01*
X73131678Y-68362696D01*
X73179289Y-68420711D01*
X73237304Y-68468322D01*
X73303492Y-68503701D01*
X73375311Y-68525487D01*
X73450000Y-68532843D01*
X75150000Y-68532843D01*
X75224689Y-68525487D01*
X75296508Y-68503701D01*
X75362696Y-68468322D01*
X75420711Y-68420711D01*
X75468322Y-68362696D01*
X75503701Y-68296508D01*
X75525487Y-68224689D01*
X75532843Y-68150000D01*
X75532843Y-66450000D01*
X75525487Y-66375311D01*
X75503701Y-66303492D01*
X75468322Y-66237304D01*
X75420711Y-66179289D01*
X75362696Y-66131678D01*
X75296508Y-66096299D01*
X75224689Y-66074513D01*
X75150000Y-66067157D01*
X73450000Y-66067157D01*
X73375311Y-66074513D01*
X73303492Y-66096299D01*
X73237304Y-66131678D01*
X73179289Y-66179289D01*
X73131678Y-66237304D01*
X73096299Y-66303492D01*
X73074513Y-66375311D01*
X73067157Y-66450000D01*
X41967369Y-66450000D01*
X40138089Y-64620721D01*
X40407621Y-64702097D01*
X40450368Y-64710561D01*
X40493028Y-64719628D01*
X40499708Y-64720330D01*
X40993063Y-64768704D01*
X40993068Y-64768704D01*
X41016070Y-64770984D01*
X74468691Y-64792134D01*
X74891849Y-64833625D01*
X75276117Y-64949642D01*
X75630532Y-65138088D01*
X75941589Y-65391781D01*
X76197446Y-65701059D01*
X76388361Y-66054150D01*
X76507058Y-66437596D01*
X76551388Y-66859364D01*
X76568955Y-75826940D01*
X76527525Y-76249477D01*
X76411507Y-76633747D01*
X76223062Y-76988159D01*
X75969369Y-77299217D01*
X75660090Y-77555075D01*
X75307001Y-77745989D01*
X74923554Y-77864686D01*
X74501934Y-77909000D01*
X23513522Y-77909000D01*
X23090523Y-77867525D01*
X22706253Y-77751507D01*
X22351841Y-77563062D01*
X22040783Y-77309369D01*
X21784925Y-77000090D01*
X21594011Y-76647001D01*
X21475314Y-76263554D01*
X21430975Y-75841699D01*
X21363447Y-54623911D01*
X21404847Y-54201673D01*
X21520864Y-53817405D01*
X21709310Y-53462990D01*
X21963003Y-53151933D01*
X22272281Y-52896076D01*
X22625372Y-52705161D01*
X23008818Y-52586464D01*
X23430438Y-52542150D01*
X35918851Y-52542150D01*
X36341849Y-52583625D01*
%TD*%
M02*
