%TF.GenerationSoftware,KiCad,Pcbnew,(5.1.6)-1*%
%TF.CreationDate,2020-09-04T12:39:32-07:00*%
%TF.ProjectId,SJ-202-USB-Jumper,534a2d32-3032-42d5-9553-422d4a756d70,rev?*%
%TF.SameCoordinates,Original*%
%TF.FileFunction,Legend,Bot*%
%TF.FilePolarity,Positive*%
%FSLAX46Y46*%
G04 Gerber Fmt 4.6, Leading zero omitted, Abs format (unit mm)*
G04 Created by KiCad (PCBNEW (5.1.6)-1) date 2020-09-04 12:39:32*
%MOMM*%
%LPD*%
G01*
G04 APERTURE LIST*
%ADD10C,0.300000*%
%ADD11C,0.120000*%
%ADD12C,0.150000*%
G04 APERTURE END LIST*
D10*
X42950000Y-65337857D02*
X42878571Y-65195000D01*
X42878571Y-64980714D01*
X42950000Y-64766428D01*
X43092857Y-64623571D01*
X43235714Y-64552142D01*
X43521428Y-64480714D01*
X43735714Y-64480714D01*
X44021428Y-64552142D01*
X44164285Y-64623571D01*
X44307142Y-64766428D01*
X44378571Y-64980714D01*
X44378571Y-65123571D01*
X44307142Y-65337857D01*
X44235714Y-65409285D01*
X43735714Y-65409285D01*
X43735714Y-65123571D01*
X44378571Y-66052142D02*
X42878571Y-66052142D01*
X44378571Y-66909285D01*
X42878571Y-66909285D01*
X44378571Y-67623571D02*
X42878571Y-67623571D01*
X42878571Y-67980714D01*
X42950000Y-68195000D01*
X43092857Y-68337857D01*
X43235714Y-68409285D01*
X43521428Y-68480714D01*
X43735714Y-68480714D01*
X44021428Y-68409285D01*
X44164285Y-68337857D01*
X44307142Y-68195000D01*
X44378571Y-67980714D01*
X44378571Y-67623571D01*
X46928571Y-64552142D02*
X45428571Y-64552142D01*
X46928571Y-65266428D02*
X45428571Y-65266428D01*
X45428571Y-65623571D01*
X45500000Y-65837857D01*
X45642857Y-65980714D01*
X45785714Y-66052142D01*
X46071428Y-66123571D01*
X46285714Y-66123571D01*
X46571428Y-66052142D01*
X46714285Y-65980714D01*
X46857142Y-65837857D01*
X46928571Y-65623571D01*
X46928571Y-65266428D01*
X49478571Y-64552142D02*
X47978571Y-64552142D01*
X47978571Y-64909285D01*
X48050000Y-65123571D01*
X48192857Y-65266428D01*
X48335714Y-65337857D01*
X48621428Y-65409285D01*
X48835714Y-65409285D01*
X49121428Y-65337857D01*
X49264285Y-65266428D01*
X49407142Y-65123571D01*
X49478571Y-64909285D01*
X49478571Y-64552142D01*
X48907142Y-66052142D02*
X48907142Y-67195000D01*
X52028571Y-64552142D02*
X50528571Y-64552142D01*
X50528571Y-64909285D01*
X50600000Y-65123571D01*
X50742857Y-65266428D01*
X50885714Y-65337857D01*
X51171428Y-65409285D01*
X51385714Y-65409285D01*
X51671428Y-65337857D01*
X51814285Y-65266428D01*
X51957142Y-65123571D01*
X52028571Y-64909285D01*
X52028571Y-64552142D01*
X51457142Y-66052142D02*
X51457142Y-67195000D01*
X52028571Y-66623571D02*
X50885714Y-66623571D01*
X53078571Y-65266428D02*
X53078571Y-64552142D01*
X53792857Y-64480714D01*
X53721428Y-64552142D01*
X53650000Y-64695000D01*
X53650000Y-65052142D01*
X53721428Y-65195000D01*
X53792857Y-65266428D01*
X53935714Y-65337857D01*
X54292857Y-65337857D01*
X54435714Y-65266428D01*
X54507142Y-65195000D01*
X54578571Y-65052142D01*
X54578571Y-64695000D01*
X54507142Y-64552142D01*
X54435714Y-64480714D01*
X53078571Y-65766428D02*
X54578571Y-66266428D01*
X53078571Y-66766428D01*
X70385714Y-66128571D02*
X70385714Y-64628571D01*
X69885714Y-65700000D01*
X69385714Y-64628571D01*
X69385714Y-66128571D01*
X68814285Y-65128571D02*
X68457142Y-66128571D01*
X68100000Y-65128571D02*
X68457142Y-66128571D01*
X68600000Y-66485714D01*
X68671428Y-66557142D01*
X68814285Y-66628571D01*
X66885714Y-66057142D02*
X67028571Y-66128571D01*
X67314285Y-66128571D01*
X67457142Y-66057142D01*
X67528571Y-65985714D01*
X67600000Y-65842857D01*
X67600000Y-65414285D01*
X67528571Y-65271428D01*
X67457142Y-65200000D01*
X67314285Y-65128571D01*
X67028571Y-65128571D01*
X66885714Y-65200000D01*
X66242857Y-66128571D02*
X66242857Y-65128571D01*
X66242857Y-65414285D02*
X66171428Y-65271428D01*
X66100000Y-65200000D01*
X65957142Y-65128571D01*
X65814285Y-65128571D01*
X65100000Y-66128571D02*
X65242857Y-66057142D01*
X65314285Y-65985714D01*
X65385714Y-65842857D01*
X65385714Y-65414285D01*
X65314285Y-65271428D01*
X65242857Y-65200000D01*
X65100000Y-65128571D01*
X64885714Y-65128571D01*
X64742857Y-65200000D01*
X64671428Y-65271428D01*
X64600000Y-65414285D01*
X64600000Y-65842857D01*
X64671428Y-65985714D01*
X64742857Y-66057142D01*
X64885714Y-66128571D01*
X65100000Y-66128571D01*
X64171428Y-65128571D02*
X63600000Y-65128571D01*
X63957142Y-66128571D02*
X63957142Y-64842857D01*
X63885714Y-64700000D01*
X63742857Y-64628571D01*
X63600000Y-64628571D01*
X63314285Y-65128571D02*
X62742857Y-65128571D01*
X63100000Y-64628571D02*
X63100000Y-65914285D01*
X63028571Y-66057142D01*
X62885714Y-66128571D01*
X62742857Y-66128571D01*
X61171428Y-65700000D02*
X60457142Y-65700000D01*
X61314285Y-66128571D02*
X60814285Y-64628571D01*
X60314285Y-66128571D01*
X59814285Y-66128571D02*
X59814285Y-64628571D01*
X71528571Y-68607142D02*
X71314285Y-68678571D01*
X70957142Y-68678571D01*
X70814285Y-68607142D01*
X70742857Y-68535714D01*
X70671428Y-68392857D01*
X70671428Y-68250000D01*
X70742857Y-68107142D01*
X70814285Y-68035714D01*
X70957142Y-67964285D01*
X71242857Y-67892857D01*
X71385714Y-67821428D01*
X71457142Y-67750000D01*
X71528571Y-67607142D01*
X71528571Y-67464285D01*
X71457142Y-67321428D01*
X71385714Y-67250000D01*
X71242857Y-67178571D01*
X70885714Y-67178571D01*
X70671428Y-67250000D01*
X69600000Y-67178571D02*
X69600000Y-68250000D01*
X69671428Y-68464285D01*
X69814285Y-68607142D01*
X70028571Y-68678571D01*
X70171428Y-68678571D01*
X68885714Y-68107142D02*
X67742857Y-68107142D01*
X67100000Y-67321428D02*
X67028571Y-67250000D01*
X66885714Y-67178571D01*
X66528571Y-67178571D01*
X66385714Y-67250000D01*
X66314285Y-67321428D01*
X66242857Y-67464285D01*
X66242857Y-67607142D01*
X66314285Y-67821428D01*
X67171428Y-68678571D01*
X66242857Y-68678571D01*
X65314285Y-67178571D02*
X65171428Y-67178571D01*
X65028571Y-67250000D01*
X64957142Y-67321428D01*
X64885714Y-67464285D01*
X64814285Y-67750000D01*
X64814285Y-68107142D01*
X64885714Y-68392857D01*
X64957142Y-68535714D01*
X65028571Y-68607142D01*
X65171428Y-68678571D01*
X65314285Y-68678571D01*
X65457142Y-68607142D01*
X65528571Y-68535714D01*
X65600000Y-68392857D01*
X65671428Y-68107142D01*
X65671428Y-67750000D01*
X65600000Y-67464285D01*
X65528571Y-67321428D01*
X65457142Y-67250000D01*
X65314285Y-67178571D01*
X64242857Y-67321428D02*
X64171428Y-67250000D01*
X64028571Y-67178571D01*
X63671428Y-67178571D01*
X63528571Y-67250000D01*
X63457142Y-67321428D01*
X63385714Y-67464285D01*
X63385714Y-67607142D01*
X63457142Y-67821428D01*
X64314285Y-68678571D01*
X63385714Y-68678571D01*
X62742857Y-68107142D02*
X61600000Y-68107142D01*
X60600000Y-67178571D02*
X60457142Y-67178571D01*
X60314285Y-67250000D01*
X60242857Y-67321428D01*
X60171428Y-67464285D01*
X60100000Y-67750000D01*
X60100000Y-68107142D01*
X60171428Y-68392857D01*
X60242857Y-68535714D01*
X60314285Y-68607142D01*
X60457142Y-68678571D01*
X60600000Y-68678571D01*
X60742857Y-68607142D01*
X60814285Y-68535714D01*
X60885714Y-68392857D01*
X60957142Y-68107142D01*
X60957142Y-67750000D01*
X60885714Y-67464285D01*
X60814285Y-67321428D01*
X60742857Y-67250000D01*
X60600000Y-67178571D01*
X58671428Y-68678571D02*
X59528571Y-68678571D01*
X59100000Y-68678571D02*
X59100000Y-67178571D01*
X59242857Y-67392857D01*
X59385714Y-67535714D01*
X59528571Y-67607142D01*
X71778571Y-69728571D02*
X71778571Y-70942857D01*
X71707142Y-71085714D01*
X71635714Y-71157142D01*
X71492857Y-71228571D01*
X71207142Y-71228571D01*
X71064285Y-71157142D01*
X70992857Y-71085714D01*
X70921428Y-70942857D01*
X70921428Y-69728571D01*
X70278571Y-71157142D02*
X70064285Y-71228571D01*
X69707142Y-71228571D01*
X69564285Y-71157142D01*
X69492857Y-71085714D01*
X69421428Y-70942857D01*
X69421428Y-70800000D01*
X69492857Y-70657142D01*
X69564285Y-70585714D01*
X69707142Y-70514285D01*
X69992857Y-70442857D01*
X70135714Y-70371428D01*
X70207142Y-70300000D01*
X70278571Y-70157142D01*
X70278571Y-70014285D01*
X70207142Y-69871428D01*
X70135714Y-69800000D01*
X69992857Y-69728571D01*
X69635714Y-69728571D01*
X69421428Y-69800000D01*
X68278571Y-70442857D02*
X68064285Y-70514285D01*
X67992857Y-70585714D01*
X67921428Y-70728571D01*
X67921428Y-70942857D01*
X67992857Y-71085714D01*
X68064285Y-71157142D01*
X68207142Y-71228571D01*
X68778571Y-71228571D01*
X68778571Y-69728571D01*
X68278571Y-69728571D01*
X68135714Y-69800000D01*
X68064285Y-69871428D01*
X67992857Y-70014285D01*
X67992857Y-70157142D01*
X68064285Y-70300000D01*
X68135714Y-70371428D01*
X68278571Y-70442857D01*
X68778571Y-70442857D01*
X66207142Y-70800000D02*
X65492857Y-70800000D01*
X66350000Y-71228571D02*
X65850000Y-69728571D01*
X65350000Y-71228571D01*
X64207142Y-71228571D02*
X64207142Y-69728571D01*
X64207142Y-71157142D02*
X64350000Y-71228571D01*
X64635714Y-71228571D01*
X64778571Y-71157142D01*
X64850000Y-71085714D01*
X64921428Y-70942857D01*
X64921428Y-70514285D01*
X64850000Y-70371428D01*
X64778571Y-70300000D01*
X64635714Y-70228571D01*
X64350000Y-70228571D01*
X64207142Y-70300000D01*
X62850000Y-71228571D02*
X62850000Y-70442857D01*
X62921428Y-70300000D01*
X63064285Y-70228571D01*
X63350000Y-70228571D01*
X63492857Y-70300000D01*
X62850000Y-71157142D02*
X62992857Y-71228571D01*
X63350000Y-71228571D01*
X63492857Y-71157142D01*
X63564285Y-71014285D01*
X63564285Y-70871428D01*
X63492857Y-70728571D01*
X63350000Y-70657142D01*
X62992857Y-70657142D01*
X62850000Y-70585714D01*
X62135714Y-70228571D02*
X62135714Y-71728571D01*
X62135714Y-70300000D02*
X61992857Y-70228571D01*
X61707142Y-70228571D01*
X61564285Y-70300000D01*
X61492857Y-70371428D01*
X61421428Y-70514285D01*
X61421428Y-70942857D01*
X61492857Y-71085714D01*
X61564285Y-71157142D01*
X61707142Y-71228571D01*
X61992857Y-71228571D01*
X62135714Y-71157142D01*
X60992857Y-70228571D02*
X60421428Y-70228571D01*
X60778571Y-69728571D02*
X60778571Y-71014285D01*
X60707142Y-71157142D01*
X60564285Y-71228571D01*
X60421428Y-71228571D01*
X59350000Y-71157142D02*
X59492857Y-71228571D01*
X59778571Y-71228571D01*
X59921428Y-71157142D01*
X59992857Y-71014285D01*
X59992857Y-70442857D01*
X59921428Y-70300000D01*
X59778571Y-70228571D01*
X59492857Y-70228571D01*
X59350000Y-70300000D01*
X59278571Y-70442857D01*
X59278571Y-70585714D01*
X59992857Y-70728571D01*
X58635714Y-71228571D02*
X58635714Y-70228571D01*
X58635714Y-70514285D02*
X58564285Y-70371428D01*
X58492857Y-70300000D01*
X58350000Y-70228571D01*
X58207142Y-70228571D01*
D11*
%TO.C,J3*%
X55230000Y-63630000D02*
X55230000Y-62300000D01*
X53900000Y-63630000D02*
X55230000Y-63630000D01*
X52630000Y-63630000D02*
X52630000Y-60970000D01*
X52630000Y-60970000D02*
X42410000Y-60970000D01*
X52630000Y-63630000D02*
X42410000Y-63630000D01*
X42410000Y-63630000D02*
X42410000Y-60970000D01*
D12*
X56777619Y-62633333D02*
X56063333Y-62633333D01*
X55920476Y-62680952D01*
X55825238Y-62776190D01*
X55777619Y-62919047D01*
X55777619Y-63014285D01*
X56777619Y-62252380D02*
X56777619Y-61633333D01*
X56396666Y-61966666D01*
X56396666Y-61823809D01*
X56349047Y-61728571D01*
X56301428Y-61680952D01*
X56206190Y-61633333D01*
X55968095Y-61633333D01*
X55872857Y-61680952D01*
X55825238Y-61728571D01*
X55777619Y-61823809D01*
X55777619Y-62109523D01*
X55825238Y-62204761D01*
X55872857Y-62252380D01*
%TD*%
M02*
