%FSLAX45Y45*%
G04 Gerber Fmt 4.5, Leading zero omitted, Abs format (unit mm)*
G04 Created by KiCad (PCBNEW (5.1.6)-1) date 2020-10-03 11:43:56*
%MOMM*%
%LPD*%
G01*
G04 APERTURE LIST*
%TA.AperFunction,Profile*%
%ADD10C,0.200000*%
%TD*%
%ADD11C,0.200000*%
%ADD12C,0.300000*%
G04 APERTURE END LIST*
D10*
X2349000Y-7839000D02*
X7451000Y-7839000D01*
X4104000Y-6429000D02*
G75*
G02*
X3850000Y-6175000I0J254000D01*
G01*
X7449237Y-6431115D02*
G75*
G02*
X7703237Y-6685115I0J-254000D01*
G01*
X3594237Y-5206115D02*
X2342237Y-5206115D01*
X7705000Y-7585000D02*
X7703237Y-6685115D01*
X3594237Y-5206115D02*
G75*
G02*
X3848237Y-5460115I0J-254000D01*
G01*
X7705000Y-7585000D02*
G75*
G02*
X7451000Y-7839000I-254000J0D01*
G01*
X7449237Y-6431115D02*
X4104000Y-6429000D01*
X3850000Y-6175000D02*
X3848237Y-5460115D01*
X2088237Y-5460115D02*
G75*
G02*
X2342237Y-5206115I254000J0D01*
G01*
X2088237Y-5460115D02*
X2095000Y-7585000D01*
X2349000Y-7839000D02*
G75*
G02*
X2095000Y-7585000I0J254000D01*
G01*
D11*
D12*
X2364666Y-8314714D02*
X2364666Y-8014714D01*
X2436094Y-8014714D01*
X2478951Y-8029000D01*
X2507523Y-8057571D01*
X2521809Y-8086143D01*
X2536094Y-8143286D01*
X2536094Y-8186143D01*
X2521809Y-8243286D01*
X2507523Y-8271857D01*
X2478951Y-8300429D01*
X2436094Y-8314714D01*
X2364666Y-8314714D01*
X2664666Y-8314714D02*
X2664666Y-8114714D01*
X2664666Y-8171857D02*
X2678951Y-8143286D01*
X2693237Y-8129000D01*
X2721809Y-8114714D01*
X2750380Y-8114714D01*
X2850380Y-8314714D02*
X2850380Y-8114714D01*
X2850380Y-8014714D02*
X2836094Y-8029000D01*
X2850380Y-8043286D01*
X2864666Y-8029000D01*
X2850380Y-8014714D01*
X2850380Y-8043286D01*
X3036094Y-8314714D02*
X3007523Y-8300429D01*
X2993237Y-8271857D01*
X2993237Y-8014714D01*
X3193237Y-8314714D02*
X3164666Y-8300429D01*
X3150380Y-8271857D01*
X3150380Y-8014714D01*
X3536094Y-8314714D02*
X3536094Y-8014714D01*
X3636094Y-8229000D01*
X3736094Y-8014714D01*
X3736094Y-8314714D01*
X4007523Y-8314714D02*
X4007523Y-8157571D01*
X3993237Y-8129000D01*
X3964666Y-8114714D01*
X3907523Y-8114714D01*
X3878951Y-8129000D01*
X4007523Y-8300429D02*
X3978951Y-8314714D01*
X3907523Y-8314714D01*
X3878951Y-8300429D01*
X3864666Y-8271857D01*
X3864666Y-8243286D01*
X3878951Y-8214714D01*
X3907523Y-8200429D01*
X3978951Y-8200429D01*
X4007523Y-8186143D01*
X4150380Y-8114714D02*
X4150380Y-8414714D01*
X4150380Y-8129000D02*
X4178951Y-8114714D01*
X4236094Y-8114714D01*
X4264666Y-8129000D01*
X4278951Y-8143286D01*
X4293237Y-8171857D01*
X4293237Y-8257571D01*
X4278951Y-8286143D01*
X4264666Y-8300429D01*
X4236094Y-8314714D01*
X4178951Y-8314714D01*
X4150380Y-8300429D01*
X4421809Y-8286143D02*
X4436094Y-8300429D01*
X4421809Y-8314714D01*
X4407523Y-8300429D01*
X4421809Y-8286143D01*
X4421809Y-8314714D01*
X4421809Y-8129000D02*
X4436094Y-8143286D01*
X4421809Y-8157571D01*
X4407523Y-8143286D01*
X4421809Y-8129000D01*
X4421809Y-8157571D01*
M02*
