M48
; DRILL file {KiCad (5.1.6)-1} date 09/04/20 12:23:51
; FORMAT={-:-/ absolute / inch / decimal}
; #@! TF.CreationDate,2020-09-04T12:23:51-07:00
; #@! TF.GenerationSoftware,Kicad,Pcbnew,(5.1.6)-1
; #@! TF.FileFunction,Plated,1,2,PTH
FMAT,2
INCH
T1C0.0157
T2C0.0177
T3C0.0217
T4C0.0276
T5C0.0354
T6C0.0394
%
G90
G05
T1
X1.822Y-2.4528
X2.0157Y-2.7323
X2.2087Y-2.5866
T2
X2.9488Y-2.628
X2.9488Y-2.6791
X2.9744Y-2.6024
X2.9744Y-2.6535
X2.9744Y-2.7047
T3
X2.9122Y-2.5945
X2.9122Y-2.7126
X3.0106Y-2.5945
X3.0106Y-2.7126
T4
X2.95Y-2.5226
X2.95Y-2.7844
T5
X1.7677Y-2.1776
X1.8661Y-2.1772
X1.9449Y-2.1781
X2.0433Y-2.1776
T6
X1.722Y-2.4528
X1.822Y-2.4528
X1.922Y-2.4528
X2.022Y-2.4528
X2.122Y-2.4528
T0
M30
